<svg xmlns="http://www.w3.org/2000/svg" xmlns:xlink="http://www.w3.org/1999/xlink" width="551.1" height="109.1" viewBox="0 0 551.1 109.1"><symbol id="a" viewBox="-8.2 -8.2 16.4 16.4"><path fill="none" stroke="#89B61F" stroke-miterlimit="10" d="M0-7.5L-7.5 0 0 7.5 7.5 0z"/></symbol><use xlink:href="#a" width="16.4" height="16.4" x="-8.2" y="-8.2" transform="matrix(1 0 0 -1 8.207 30.885)" overflow="visible"/><use xlink:href="#a" width="16.4" height="16.4" x="-8.2" y="-8.2" transform="matrix(1 0 0 -1 136.207 100.885)" overflow="visible"/><use xlink:href="#a" width="16.4" height="16.4" x="-8.2" y="-8.2" transform="matrix(1 0 0 -1 176.57 8.208)" overflow="visible"/><use xlink:href="#a" width="16.4" height="16.4" x="-8.2" y="-8.2" transform="matrix(1 0 0 -1 374.484 8.208)" overflow="visible"/><use xlink:href="#a" width="16.4" height="16.4" x="-8.2" y="-8.2" transform="matrix(1 0 0 -1 414.847 100.885)" overflow="visible"/><use xlink:href="#a" width="16.4" height="16.4" x="-8.2" y="-8.2" transform="matrix(1 0 0 -1 542.847 30.885)" overflow="visible"/></svg>