<svg xmlns="http://www.w3.org/2000/svg" width="72.9" height="64.8" viewBox="0 0 72.9 64.8"><path fill="#FCB200" fill-opacity=".1" stroke="#FCB200" stroke-linecap="round" stroke-linejoin="round" stroke-miterlimit="10" d="M72.4 58.2c0 3.4-2.7 6.1-6.1 6.1H6.6c-3.4 0-6.1-2.7-6.1-6.1v-8.5c0-3.4 2.7-6.1 6.1-6.1h59.7c3.4 0 6.1 2.7 6.1 6.1v8.5z"/><path fill="#FCB200" fill-opacity=".1" stroke="#FCB200" stroke-linecap="round" stroke-linejoin="round" stroke-miterlimit="10" d="M63.7 43.6H9.2V32.5c0-3.4 2.7-6.1 6.1-6.1h42.3c3.4 0 6.1 2.7 6.1 6.1v11.1zM55 26.4H17.9v-8.5c0-3.4 2.7-6.1 6.1-6.1h24.9c3.4 0 6.1 2.7 6.1 6.1v8.5z"/><path fill="none" stroke="#FCB200" stroke-width="2" stroke-linejoin="round" stroke-miterlimit="10" d="M.5 51.9c3 0 3 4 6 4s3-4 6-4 3 4 6 4 3-4 6-4 3 4 6 4 3-4 6-4 3 4 6 4 3-4 6-4 3 4 6 4 3-4 6-4 3 4 6 4 3-4 6-4M9.2 34.5c3 0 3 4 6.1 4 3 0 3-4 6.1-4s3 4 6.1 4 3-4 6.1-4 3 4 6.1 4c3 0 3-4 6.1-4 3 0 3 4 6.1 4 3 0 3-4 6.1-4s3 4 6.1 4M17.9 19.1c2.6 0 2.6 4 5.3 4s2.6-4 5.3-4 2.6 4 5.3 4c2.6 0 2.6-4 5.3-4 2.6 0 2.6 4 5.3 4 2.7 0 2.7-4 5.3-4s2.7 4 5.3 4"/><g fill="#FCB200"><path d="M30 4.7h-2.1v7.1H30m0-9c0 .6-.5 1-1 1-.6 0-1-.5-1-1 0-.6.5-2.8 1-2.8s1 2.2 1 2.8zm7.5 1.9h-2.1v7.1h2.1m0-9c0 .6-.5 1-1 1s-1-.5-1-1c0-.6.5-2.8 1-2.8s1 2.2 1 2.8zM45 4.7h-2.1v7.1H45m0-9c0 .6-.5 1-1 1-.6 0-1-.5-1-1 0-.6.5-2.8 1-2.8s1 2.2 1 2.8z"/></g></svg>