<svg xmlns="http://www.w3.org/2000/svg" xmlns:xlink="http://www.w3.org/1999/xlink" width="548.9" height="425.7" viewBox="0 0 548.9 425.7"><symbol id="a" viewBox="-97.5 -41.1 194.9 82.3"><path fill="#F9F9F9" d="M-97.3-20.8C-96.7-32.1-86.8-41-74.8-41c0 0 143.8-.3 145-.1 2.2.1 4.3.7 6.4 1.4 12.1 4 20.7 14.8 20.7 27.7 0 16.1-13.9 29.2-30.9 29.2-5.8 0-11.3-1.6-16-4.2-5.7 16.2-21.8 28.1-41 28.1-18.5 0-34.2-11-40.3-26.5-3.9 1.7-8.1 2.5-12.5 2.5-11.8 0-21.9-5.8-27-15.7H-75c-12.1 0-21.9-8.9-22.5-20.3.2-.3.2-1.4.2-1.9z"/><path opacity=".02" d="M96.8-17.8c.4 1.8.6 3.7.6 5.6C97.5 3.9 83.5 17 66.5 17c-5.8 0-11.3-1.6-16-4.2C44.8 29.2 28.8 41 9.5 41-9 41-24.7 30-30.8 14.5c-3.9 1.7-8.1 2.5-12.5 2.5-11.8 0-21.9-5.8-27-15.7h-4.6C-87 1.3-96.8-7.6-97.3-19v-2c.1-1.6.3-3.1.7-4.7C-94-16.7-85.3-10-74.8-10h4.6C-65.1-.1-55 5.7-43.2 5.7c4.5 0 8.7-.8 12.5-2.5 6 15.4 21.7 26.4 40.2 26.4 19.1 0 35.3-11.9 40.9-28.1 4.6 2.7 10.1 4.2 16 4.2 15.1.2 27.6-9.9 30.4-23.5z"/></symbol><use xlink:href="#a" width="194.9" height="82.3" x="-97.5" y="-41.1" transform="matrix(.2255 0 0 -.2255 526.938 9.276)" overflow="visible"/><use xlink:href="#a" width="194.9" height="82.3" x="-97.5" y="-41.1" transform="matrix(.1981 0 0 -.1981 261.947 207.112)" overflow="visible"/><use xlink:href="#a" width="194.9" height="82.3" x="-97.5" y="-41.1" transform="matrix(.3042 0 0 -.3042 330.106 413.166)" overflow="visible"/><use xlink:href="#a" width="194.9" height="82.3" x="-97.5" y="-41.1" transform="matrix(.273 0 0 -.273 26.604 271.842)" overflow="visible"/><use xlink:href="#a" width="194.9" height="82.3" x="-97.5" y="-41.1" transform="matrix(.3579 0 0 -.3579 94.08 138.375)" overflow="visible"/></svg>