<svg xmlns="http://www.w3.org/2000/svg" width="75.2" height="65.4" viewBox="0 0 75.2 65.4"><g fill="#FCB200" fill-opacity=".1" stroke="#FCB200" stroke-linecap="round" stroke-linejoin="round" stroke-miterlimit="10"><path d="M15.6 11.6c3 0 5.5-2.5 5.6-5.6.1-3-2.4-5.5-5.6-5.5C12.5.5 10 2.9 10 6c.1 3 2.7 5.6 5.6 5.6zm43.9 0c3 0 5.5-2.5 5.6-5.6 0-3.1-2.4-5.5-5.5-5.5C56.4.5 54 2.9 54 6c0 3 2.5 5.6 5.5 5.6zM37.6 40.5c1.9 0 3.4-1.5 3.5-3.4 0-1.8-1.6-3.4-3.4-3.4-1.8 0-3.5 1.7-3.5 3.6 0 1.7 1.5 3.2 3.4 3.2zm-15.3-12c-.3-2-.7-4.1-1-6.1.4.3 4.1 7.7 5.8 11.1.4.8.8 1.5 1.2 2.2.4.6.9.9 1.6.6.7-.3 1-.9.8-1.6-.1-.3-.2-.6-.3-1-1.3-3.4-2.5-6.8-3.8-10.2-1-2.6-1.9-5.4-3.3-7.8-.9-1.6-2.3-2.5-4.1-2.9-1.6-.4-3.3-.2-4.9-.2-3.3 0-5.6 1.4-7 4.4C4.8 22.7 2.8 28.5.6 34.4c-.3.8-.2 1.6.7 2 .9.4 1.5-.1 1.9-.9 1-1.9 1.9-3.7 2.9-5.6 1.2-2.5 2.5-4.9 3.7-7.4.1 0-1.8 12.8-2.8 18.9-.3 2.1-.9 2.4 1.9 2.3 1 0 1.3.2 1.4 1.3.2 4.6.9 17.1 1 18.8.1.8.5 1.3 1.4 1.2.9-.1 1.3-.6 1.3-1.5.1-2.6.9-15.2 1.1-18.9 0-.4 0-.9.6-.9.5 0 .4.5.5.9.2 4.2 1 16.8 1.1 18.9.1.8.4 1.4 1.3 1.4.8 0 1.3-.5 1.4-1.3.1-.5.7-12.1 1-17.5.1-2.4.2-2.5 2.5-2.6.8 0 1.1-.3 1-1.2-.7-4.5-1.5-9.1-2.2-13.8z"/><path d="M46.8 36.4c-.3.3-.5.5-.7.8-1 1.2-2.2 2.4-3.5 3.4-.9.6-1.8 1-2.9.7-1.3-.3-2.6-.4-3.8-.1-1.5.4-2.6-.1-3.7-.9-1.4-1.1-2.6-2.5-3.8-3.9-.4-.4-.8-.7-1.3-.3-.5.3-.6.8-.3 1.3 1.7 2.6 3.1 5.4 6 6.9.6.3.9.7 1 1.4.3 3.6.1 7.2-.1 10.8-.1 2.2-.3 4.5-.3 6.7 0 1.3.9 1.9 1.9 1.5.7-.3.8-.9.9-1.5l1.2-8.1h.3c.4 2.6.8 5.2 1.2 7.9.2 1.3.6 1.8 1.6 1.7.9 0 1.4-.7 1.3-1.9-.1-1.9-.1-3.8-.3-5.6-.2-3.8-.5-7.7-.2-11.5.1-.6.3-1.1.9-1.4 2.9-1.5 4.3-4.3 6.1-6.8.3-.5.3-1-.2-1.4-.5-.4-.9-.1-1.3.3z"/><path d="M74.6 34.4c-1.9-5.7-3.6-11.5-5.9-17.1-1-2.3-2.7-3.9-5.2-4.3-2.7-.5-5.3-.5-8 0-2.4.5-4.1 1.9-5.1 4.2-2.3 5.6-4 11.4-5.9 17.2-.3.9-.2 1.7.8 2 .9.3 1.5-.2 1.8-1l1.8-3.9c1.5-3.2 2.9-6.4 4.5-10 .1 2.2.2 4.1.3 6 .2 5.5-.1 10.9-.3 16.4-.1 2.3-.1 4.5-.2 6.8-.2 4-.4 8-.4 12 0 1.4.8 2.2 2 2.3 1.3.1 2.2-.7 2.4-2.1.3-3 .6-5.9.9-8.9.5-4.6.9-9.2 1.4-13.9.4 3.2.7 6.4 1 9.6.4 4.4.9 8.9 1.3 13.3.1 1.2 1.1 2 2.3 1.9 1.4 0 2.2-.9 2.2-2.5-.1-4.7-.3-9.4-.4-14.1-.1-2.9-.1-5.8-.3-8.6-.4-5.9-.1-11.9.3-17.9.4.8.7 1.5 1.1 2.3 1.7 3.7 3.4 7.5 5 11.2.4.8.9 1.3 1.8 1 .9-.2 1.1-1 .8-1.9z"/></g></svg>