<svg xmlns="http://www.w3.org/2000/svg" xmlns:xlink="http://www.w3.org/1999/xlink" width="595.4" height="143.2" viewBox="0 0 595.4 143.2"><symbol id="j" viewBox="-66.9 -44.7 133.8 89.5"><path opacity=".1" d="M66.9-35.5c0-5.1-29.9-9.2-66.9-9.2-36.9 0-66.9 4.1-66.9 9.2S-37-26.3 0-26.3c36.9 0 66.9-4.2 66.9-9.2z"/><linearGradient id="a" gradientUnits="userSpaceOnUse" x1="-595.773" y1="-16818.207" x2="-595.773" y2="-16901.117" gradientTransform="matrix(1 0 0 -1 603.01 -16856.4)"><stop offset="0" stop-color="#567700"/><stop offset="1" stop-color="#91AC03"/></linearGradient><path fill="url(#a)" d="M9.6-38.2H4.8c-26 0-39.7 14.9-30.9 33.2l17.3 36C0 49.3 14.4 49.3 23.3 31L40.6-5c8.7-18.3-5.2-33.2-31-33.2z"/><path opacity=".05" d="M40.5-5L22.8 31c-4.6 9.3-10.1 14-16.7 13.7v-82.9h3.4c25.9 0 39.8 14.9 31 33.2z"/><linearGradient id="b" gradientUnits="userSpaceOnUse" x1="-571.44" y1="-16818.207" x2="-571.44" y2="-16884.609" gradientTransform="matrix(1 0 0 -1 603.01 -16856.4)"><stop offset="0" stop-color="#567700"/><stop offset="1" stop-color="#91AC00"/></linearGradient><path fill="url(#b)" d="M33.4-38.2h-3.8C8.9-38.2-2.2-26.3 4.8-11.5l13.9 28.8c7 14.7 18.5 14.7 25.7 0l13.9-28.8c7-14.8-4.1-26.7-24.9-26.7z"/><path opacity=".05" d="M58.3-11.5L44.1 17.2c-3.6 7.5-6.9 11.3-13.4 11v-66.4h2.8c20.7 0 31.8 11.9 24.8 26.7z"/><g><linearGradient id="c" gradientUnits="userSpaceOnUse" x1="-639.295" y1="-16818.207" x2="-639.295" y2="-16875.629" gradientTransform="matrix(1 0 0 -1 603.01 -16856.4)"><stop offset=".006" stop-color="#305D00"/><stop offset="1" stop-color="#6F9B00"/></linearGradient><path fill="url(#c)" d="M-34.6-38.2h-3.3c-18 0-27.6 10.3-21.4 23.1l11.9 24.9c6.1 12.6 16 12.8 22.1 0l11.9-24.9c6.3-12.8-3.2-23.1-21.2-23.1z"/><path opacity=".05" d="M-13.2-15.1L-25.1 9.7c-3.1 6.5-6.4 9.6-11.3 9.5v-57.4h1.8c18 0 27.5 10.3 21.4 23.1z"/></g></symbol><symbol id="i" viewBox="-68.4 -83.8 136.7 167.5"><path opacity=".1" d="M-60-73c0-6 27.7-10.8 61.9-10.8S63.8-78.9 63.8-73c0 6-27.7 10.8-61.9 10.8S-60-67-60-73z"/><path fill="#A67C52" d="M-26.5-32.6h-10.7v-39.6h10.7z"/><path opacity=".05" d="M-31.8-32.6h-5.4v-39.6h5.4z"/><linearGradient id="d" gradientUnits="userSpaceOnUse" x1="16813.121" y1="-16819.107" x2="16813.121" y2="-16940.152" gradientTransform="rotate(180 8390.61 -8428.2)"><stop offset="0" stop-color="#567700"/><stop offset="1" stop-color="#91AC00"/></linearGradient><path fill="url(#d)" d="M-68.2-1c0-20 16.2-36.3 36.3-36.3C-11.8-37.3 4.4-21.1 4.4-1c0 20-16.2 84.7-36.3 84.7C-52 83.8-68.2 19.1-68.2-1z"/><path opacity=".05" d="M-32.1 83.8c.1 0 0-.1 0 0v-121s.1 0 0 0C-52.1-37.3-68.4-21-68.4-1c0 20.1 16.3 84.8 36.3 84.8z"/><path fill="#A67C52" d="M9.1-46H-.3v-34.9h9.4z"/><path opacity=".05" d="M4.4-46H-.3v-34.9h4.7z"/><linearGradient id="e" gradientUnits="userSpaceOnUse" x1="16776.805" y1="-16806.322" x2="16776.805" y2="-16913.049" gradientTransform="rotate(180 8390.61 -8428.2)"><stop offset="0" stop-color="#567700"/><stop offset="1" stop-color="#91AC03"/></linearGradient><path fill="url(#e)" d="M-27.6-18.1c0-17.7 14.3-32 32-32s32 14.3 32 32-14.3 74.7-32 74.7-32-57-32-74.7z"/><path opacity=".05" d="M-28-18.1C-28-.5-13.1 56.4 3.9 56.6V-50.1c-17 .1-31.9 14.4-31.9 32z"/><g><path fill="#A67C52" d="M46.6-42.3h-7.5v-27.9h7.5z"/><path opacity=".05" d="M42.8-42.3h-3.7v-27.9h3.7z"/></g><g><linearGradient id="f" gradientUnits="userSpaceOnUse" x1="16738.377" y1="-16810.815" x2="16738.377" y2="-16895.926" gradientTransform="rotate(180 8390.61 -8428.2)"><stop offset=".006" stop-color="#305D00"/><stop offset="1" stop-color="#6F9B00"/></linearGradient><path fill="url(#f)" d="M17.3-20.1c0-14.1 11.4-25.5 25.5-25.5s25.5 11.4 25.5 25.5-11.4 59.6-25.5 59.6c-14 0-25.5-45.5-25.5-59.6z"/><path opacity=".05" d="M17.5-20.1c0 14 11.4 59.3 25.4 59.6v-85.1c-14 .1-25.4 11.5-25.4 25.5z"/></g></symbol><defs><path id="g" d="M0 0h595.4v143.2H0z"/></defs><clipPath id="h"><use xlink:href="#g" overflow="visible"/></clipPath><g clip-path="url(#h)"><path fill="#899301" d="M595.4 114v29.2H272.9c11.8-15.4 38.7-28.7 74.9-37.6 31.1-7.7 69-12.2 109.9-12.2 54.1 0 103 7.9 137.7 20.6z"/><path fill="#778001" d="M413.7 143.2H0V96.5c41.4-14.8 97.9-24 160.2-24 70.1 0 134.5 11 187.6 33 24.6 10.3 46.7 22.8 65.9 37.7z"/><use xlink:href="#i" width="136.7" height="167.5" x="-68.4" y="-83.8" transform="matrix(.5136 0 0 -.5136 516.523 70.607)" overflow="visible"/><use xlink:href="#i" width="136.7" height="167.5" x="-68.4" y="-83.8" transform="rotate(180 16.228 29.303) scale(.668)" overflow="visible"/></g><g clip-path="url(#h)"><use xlink:href="#j" width="133.8" height="89.5" x="-66.9" y="-44.7" transform="matrix(.2935 -.0475 -.0475 -.2935 375.537 91.658)" overflow="visible"/></g><g clip-path="url(#h)"><use xlink:href="#j" width="133.8" height="89.5" x="-66.9" y="-44.7" transform="matrix(.2539 .0302 .0302 -.2539 241.697 71.219)" overflow="visible"/></g></svg>