<svg xmlns="http://www.w3.org/2000/svg" xmlns:xlink="http://www.w3.org/1999/xlink" width="63.8" height="316.7" viewBox="0 0 63.8 316.7"><symbol id="b" viewBox="-1.7 -1.5 3.4 2.9"><path fill="#F66D67" d="M0-1.1c-.9 0-1.6 1.1-1.7 2.6v-.2c0-1.5.8-2.8 1.7-2.8.9 0 1.7 1.2 1.7 2.8v.2C1.6 0 .9-1.1 0-1.1z"/></symbol><symbol id="a" viewBox="-2.6 -6.4 5.2 12.8"><text transform="matrix(1 0 0 -1 -2.62 -2.9)" fill="#FFF" font-family="'Calibri'" font-size="11.402">₴</text></symbol><path fill="#638B3F" d="M21 5c0-2.8-2.2-5-5-5H5C2.2 0 0 2.2 0 5v306.7c0 2.8 2.2 5 5 5h11c2.8 0 5-2.2 5-5V5z"/><path fill="#231F20" d="M21 5c0-2.8-2.2-5-5-5H5C2.2 0 0 2.2 0 5v15.7h21V5z" opacity=".3"/><text transform="translate(7.274 13.832)" fill="#FFF" font-family="'Roboto-Black'" font-size="12">+</text><path d="M16 0h-5.5v316.7H16c2.8 0 5-2.2 5-5V5c0-2.8-2.3-5-5-5z" opacity=".1"/><use xlink:href="#a" width="5.2" height="12.8" x="-2.6" y="-6.4" transform="matrix(1.2071 0 0 -1.2071 5.73 32.479)" overflow="visible"/><use xlink:href="#a" width="5.2" height="12.8" x="-2.6" y="-6.4" transform="matrix(.8145 0 0 -.8145 13.181 49.91)" overflow="visible"/><use xlink:href="#a" width="5.2" height="12.8" x="-2.6" y="-6.4" transform="matrix(.7374 0 0 -.7374 7.017 72.413)" overflow="visible"/><use xlink:href="#a" width="5.2" height="12.8" x="-2.6" y="-6.4" transform="matrix(.5936 0 0 -.5936 16.737 103.077)" overflow="visible"/><use xlink:href="#a" width="5.2" height="12.8" x="-2.6" y="-6.4" transform="matrix(1.0107 0 0 -1.0107 5.18 125.45)" overflow="visible"/><use xlink:href="#a" width="5.2" height="12.8" x="-2.6" y="-6.4" transform="matrix(.6205 0 0 -.6205 14.368 160.59)" overflow="visible"/><use xlink:href="#a" width="5.2" height="12.8" x="-2.6" y="-6.4" transform="matrix(.4672 0 0 -.4672 5.83 194.98)" overflow="visible"/><use xlink:href="#a" width="5.2" height="12.8" x="-2.6" y="-6.4" transform="matrix(.7776 0 0 -.7776 13.116 239.915)" overflow="visible"/><use xlink:href="#a" width="5.2" height="12.8" x="-2.6" y="-6.4" transform="matrix(.6817 0 0 -.6817 6.016 282.217)" overflow="visible"/><path fill="#F67237" d="M55 75c0-2.8-2.2-5-5-5H39c-2.8 0-5 2.2-5 5v236.7c0 2.8 2.2 5 5 5h11c2.8 0 5-2.2 5-5V75z"/><path fill="#231F20" d="M55 75c0-2.8-2.2-5-5-5H39c-2.8 0-5 2.2-5 5v15.7h21V75z" opacity=".3"/><text transform="translate(41.781 83.832)" fill="#FFF" font-family="'Roboto-Black'" font-size="12">-</text><path opacity=".1" d="M50 70h-5.5v246.7H50c2.8 0 5-2.2 5-5V75c0-2.8-2.3-5-5-5z"/><path fill="#C5333D" d="M33.2 55.2l-1.3-.7-2.2 2.1 1 1m0 0l-1.4-.5-1.8 2.4 1.1.9"/><path fill="none" d="M56.6 72.1c1.7 0 3-1.3 3-3s-1.3-3-3-3-3 1.3-3 3c0 1.6 1.4 3 3 3z"/><path fill="#C5333D" d="M59.9 59.9l2-3-5.8-4.9-2.7 2.2"/><path fill="#AB1717" d="M62.8 64.3c-2.1-6.4-7.4-11.2-14.1-12.7 1.7-1.3 2.8-3.3 2.8-5.5 0-1.9-.8-3.7-2-4.9l-4.9 4.9-4.9-4.9c-1.3 1.3-2.1 3-2.1 4.9 0 2.3 1.1 4.2 2.8 5.5-8.2 1.8-14.4 8.9-15 17.4 11.3-6.6 24.9-8.2 37.4-4.7z"/><path fill="#E52D21" d="M30.9 83.8l13.6-13.6 13.6 13.6c3.5-3.5 5.6-8.3 5.6-13.6 0-2.1-.4-4.1-1-6-12.5-3.5-26.1-1.9-37.5 4.7 0 .4-.1.8-.1 1.3.1 5.4 2.3 10.2 5.8 13.6z"/><path fill="#FFF" d="M56.6 66.1c1.7 0 3 1.3 3 3s-1.3 3-3 3-3-1.3-3-3 1.4-3 3-3z"/><ellipse fill="#231F20" cx="56.6" cy="69.1" rx="2" ry="2"/><ellipse fill="#FFF" cx="57.6" cy="69.1" rx=".5" ry=".5"/><path fill="#FFF" d="M58.1 83.8h-1.9v-1.9m0 0h-1.9V80m0 0h-1.9v-1.9m0 0h-2v-1.9m0 0h-1.9v-1.9m0 0h-1.9v-2m0 0h-1.9v-1.9m-12 11.5v1.9h-1.9m3.9-3.8v1.9h-2m3.9-3.8V80h-1.9m3.8-3.8v1.9h-1.9m3.8-3.9v2h-1.9m3.8-3.9v2h-1.9m3.8-3.9v1.9h-1.9"/><path fill="#E52D21" d="M61.686 67.17l-2.203 6.435-1.987-.68L59.7 66.49z"/><use xlink:href="#b" width="3.4" height="2.9" x="-1.7" y="-1.5" transform="matrix(0 .6429 .6429 0 50.046 53.692)" overflow="visible"/><use xlink:href="#b" width="3.4" height="2.9" x="-1.7" y="-1.5" transform="matrix(0 .6429 .6429 0 52.565 59.31)" overflow="visible"/><use xlink:href="#b" width="3.4" height="2.9" x="-1.7" y="-1.5" transform="matrix(0 .6429 .6429 0 45.534 60.838)" overflow="visible"/><use xlink:href="#b" width="3.4" height="2.9" x="-1.7" y="-1.5" transform="matrix(0 .6429 .6429 0 43.13 52.802)" overflow="visible"/><use xlink:href="#b" width="3.4" height="2.9" x="-1.7" y="-1.5" transform="matrix(0 .6429 .6429 0 37.753 57.215)" overflow="visible"/><use xlink:href="#b" width="3.4" height="2.9" x="-1.7" y="-1.5" transform="matrix(0 .6429 .6429 0 35.789 61.906)" overflow="visible"/><use xlink:href="#b" width="3.4" height="2.9" x="-1.7" y="-1.5" transform="matrix(0 .6429 .6429 0 58.986 60.236)" overflow="visible"/><use xlink:href="#b" width="3.4" height="2.9" x="-1.7" y="-1.5" transform="matrix(0 .6429 .6429 0 28.793 63.99)" overflow="visible"/><path opacity=".1" fill="#231F20" d="M32.8 81.9h1.9V80l.1-.1h1.9V78l.1-.1h1.9v-1.8l.1-.1h1.8v-1.8l.1-.1h1.8v-1.8l.1-.1h1.8v-1.8l.2-.2V46.1l-4.9-4.9c-1.3 1.3-2.1 3-2.1 4.9 0 2.3 1.1 4.2 2.8 5.5-2.7.6-5.3 1.8-7.4 3.4l-1-.6-2.1 2.2.6.7-.2.2-.9-.4-1.8 2.5.7.5c-1.7 2.6-2.7 5.7-2.9 8.9 0 .4-.1.8-.1 1.3 0 5.3 2.2 10.1 5.6 13.5h1.9v-1.9z"/></svg>