<svg xmlns="http://www.w3.org/2000/svg" width="596.2" height="522" viewBox="0 0 596.2 522"><path fill="none" stroke="#216572" stroke-miterlimit="10" d="M566.1 9.7S352.3 181.7 0 196.2m566.1-190S376.3 169.7 0 191.9"/><path fill="none" stroke="#FFF" stroke-width=".5" stroke-miterlimit="10" d="M267.1 205.4c8.4-3.5 18.7-10.5 25.8-22.1"/><path fill="#FFF" d="M294.5 180.7c-.3 1.5-.4 3.5-.2 4.9l-1.6-2-2.5-.5c1.4-.4 3.1-1.4 4.3-2.4z"/><path fill="none" stroke="#FFF" stroke-width=".26" stroke-miterlimit="10" d="M267.4 211.8c4.6-1.1 10.4-3.8 15.1-9.2"/><path fill="#FFF" d="M283.4 201.4c-.3.7-.5 1.7-.5 2.5l-.6-1.1-1.2-.5c.7-.1 1.7-.5 2.3-.9z"/><path fill="none" stroke="#FFF" stroke-width=".26" stroke-miterlimit="10" d="M262.6 200.7c4.6-1.1 10.4-3.8 15.1-9.2"/><path fill="#FFF" d="M278.7 190.3c-.3.7-.5 1.7-.5 2.5l-.6-1.1-1.2-.5c.7-.1 1.6-.5 2.3-.9z"/><path fill="#1A738C" d="M264.7 200.6c-2.1-2.7-4.8-4.9-7.3-7.3-.6-.5-1.6-.8-2.5-.8-7.3-.1-14.5 0-21.8 0h-21.8c-.8 0-1.9.3-2.5.8-2.5 2.3-5.2 4.6-7.3 7.3-13.9 17.3-10.7 43.1 6.9 56.6.9.7 2.3 1.1 3.4 1.1 2.6.1 39.9.1 42.5 0 1.1 0 2.5-.4 3.4-1.1 17.7-13.4 20.9-39.3 7-56.6zm-65.4 26.7c-.3-4.5.3-8.8 1.8-13 2-5.8 5.3-10.7 10-14.7.7-.6 1.7-.9 2.6-1h39c.9 0 1.9.4 2.6 1 4.7 3.9 8 8.8 10 14.7 1.4 4.2 2.1 8.4 1.8 13h-67.8z"/><path fill="#FFF" d="M250.5 244.2v.9c0 1-1.1 2.3-2.8 2.3h-5.2c-.5 0-2.7-.6-2.7-2.7v-3c0-1.1 1.1-2.5 2.7-2.5h5.4c1.1 0 2.6.8 2.6 2.5v.8h-3.4c0-.4-.4-1.1-1-1.1h-1.5c-.9 0-1.3.6-1.3 1.3v1.1c0 .9.7 1.3 1.3 1.3h1.5c.8 0 1-.9 1-.9h3.4m-21.9 3.1c-1.4-2.2-1.3-5.2 1.4-8.1h8.5v8.1H234v-5.6h-2.2c-1.7 1.7-.8 4.5 0 5.6h-3.2m-9.6 0v-5.6h-3.2v-2.5h12.4l-1.6 2.5H224v5.6h-5"/><path fill="#CE3523" d="M230.9 244.1h6.9l-.8 1.2h-6s-.1-.4-.1-.7v-.5"/><path fill="#CE3523" d="M230.9 244.1h6.9l-.8 1.2h-6s-.1-.4-.1-.7v-.5"/><path fill="#FFF" d="M231 243.2h7.3l-.4.6h-7.1v-.3c.2-.2.2-.3.2-.3"/><path fill="#CE3523" d="M231 243.2h7.3l-.4.6h-7.1v-.3c.2-.2.2-.3.2-.3"/><path opacity=".1" fill="#231F20" d="M264.7 200.6c-2.1-2.7-4.8-4.9-7.3-7.3-.6-.5-1.6-.8-2.5-.8-7.3-.1-14.5 0-21.8 0v6.2h19.5c.9 0 1.9.4 2.6 1 4.7 3.9 8 8.8 10 14.7 1.4 4.2 2.1 8.4 1.8 13h-33.9v31.1h21.2c1.1 0 2.5-.4 3.4-1.1 17.7-13.6 20.9-39.5 7-56.8z"/><path fill="#333" d="M211.4 192.5v-4.1s12.5 0 16.6-.1c1 0 2.1-.4 2.9-1 3.2-2.4 6.4-5 9.5-7.5l.6-.4c2.8-2.2 4.3-5.3 4.6-9.5.1-1.8.1-3.6.1-5.3V163l4.4-1s.1 9.4-1.3 13.6c-1.6 4.8-5.4 7.6-9.8 10.9l-2.5 1.8h18.8v4.2h-43.9z"/><path fill="#333" d="M214.2 171.2l-.9-4.1 49.3-12.8.9 4.1"/><circle fill="#FFF" cx="219.1" cy="206.6" r="4.2"/><path fill="#FFF" d="M220.6 212.8c-1.1-.2-2.2-.2-3.2 0-7 .8-9.3 8.9-8.6 15.1.3 2.7 4.5 2.7 4.2 0-.2-2.3-.1-5.7 1.1-8.1v7.4h10.2c0-2.6-.1-5.2-.1-7.8 1.4 2.4 1.6 6.1 1.3 8.5-.3 2.7 3.9 2.7 4.2 0 .7-6.2-1.7-14.5-9.1-15.1z"/><path d="M220.6 212.8c-.5-.1-.9-.1-1.4-.1v14.6h5c0-2.6-.1-5.2-.1-7.8 1.4 2.4 1.6 6.1 1.3 8.5-.3 2.7 3.9 2.7 4.2 0 .8-6.3-1.6-14.6-9-15.2z" opacity=".05"/><path fill="#333" d="M225.4 159.7c0 2.3-1.9 4.1-4.1 4.1s-4.1-1.9-4.1-4.1c0-2.3 1.9-4.1 4.1-4.1s4.1 1.8 4.1 4.1zm-4.1-2.3c-1.2 0-2.2 1-2.2 2.2 0 1.2 1 2.2 2.2 2.2s2.2-1 2.2-2.2c0-1.2-1-2.2-2.2-2.2z"/><circle fill="#FC3" cx="221.3" cy="159.7" r="1"/><path opacity=".1" fill="#231F20" d="M221.3 155.5v1.9c1.2 0 2.2 1 2.2 2.2 0 1.2-1 2.2-2.2 2.2v1.9c2.3 0 4.1-1.9 4.1-4.1 0-2.2-1.8-4.1-4.1-4.1z"/><path opacity=".1" fill="#231F20" d="M221.3 158.7v2.1c.6 0 1-.5 1-1 0-.7-.4-1.1-1-1.1z"/><path fill="#333" d="M235.4 157.3c0 2.3-1.9 4.1-4.1 4.1s-4.1-1.9-4.1-4.1c0-2.3 1.9-4.1 4.1-4.1s4.1 1.8 4.1 4.1zm-4.1-2.3c-1.2 0-2.2 1-2.2 2.2 0 1.2 1 2.2 2.2 2.2s2.2-1 2.2-2.2c0-1.2-1-2.2-2.2-2.2z"/><circle fill="#FC3" cx="231.3" cy="157.3" r="1"/><path opacity=".1" fill="#231F20" d="M231.3 153.1v1.9c1.2 0 2.2 1 2.2 2.2 0 1.2-1 2.2-2.2 2.2v1.9c2.3 0 4.1-1.9 4.1-4.1 0-2.2-1.8-4.1-4.1-4.1z"/><path opacity=".1" fill="#231F20" d="M231.3 156.3v2.1c.6 0 1-.5 1-1 0-.7-.5-1.1-1-1.1z"/><g><path fill="#333" d="M245.4 154.8c0 2.3-1.9 4.1-4.1 4.1s-4.1-1.9-4.1-4.1c0-2.3 1.9-4.1 4.1-4.1s4.1 1.9 4.1 4.1zm-4.2-2.2c-1.2 0-2.2 1-2.2 2.2 0 1.2 1 2.2 2.2 2.2 1.2 0 2.2-1 2.2-2.2 0-1.2-.9-2.2-2.2-2.2z"/><circle fill="#FC3" cx="241.2" cy="154.9" r="1"/><path opacity=".1" fill="#231F20" d="M241.2 150.7v1.9c1.2 0 2.2 1 2.2 2.2 0 1.2-1 2.2-2.2 2.2v1.9c2.3 0 4.1-1.9 4.1-4.1.1-2.2-1.8-4.1-4.1-4.1z"/><path opacity=".1" fill="#231F20" d="M241.2 153.9v2.1c.6 0 1-.5 1-1 .1-.7-.4-1.1-1-1.1z"/></g><g><path fill="#333" d="M255.4 152.4c0 2.3-1.9 4.1-4.1 4.1s-4.1-1.9-4.1-4.1c0-2.3 1.9-4.1 4.1-4.1s4.1 1.8 4.1 4.1zm-4.2-2.2c-1.2 0-2.2 1-2.2 2.2 0 1.2 1 2.2 2.2 2.2 1.2 0 2.2-1 2.2-2.2 0-1.2-1-2.2-2.2-2.2z"/><circle fill="#FC3" cx="251.2" cy="152.5" r="1"/><path opacity=".1" fill="#231F20" d="M251.2 148.3v1.9c1.2 0 2.2 1 2.2 2.2 0 1.2-1 2.2-2.2 2.2v1.9c2.3 0 4.1-1.9 4.1-4.1.1-2.3-1.8-4.1-4.1-4.1z"/><path opacity=".1" fill="#231F20" d="M251.2 151.4v2.1c.6 0 1-.5 1-1 0-.6-.4-1.1-1-1.1z"/></g><g><circle fill="#FFF" cx="433.8" cy="289.8" r="3.5"/><path fill="none" stroke="#FFF" stroke-width="3.166" stroke-linecap="round" stroke-linejoin="round" stroke-miterlimit="10" d="M431.1 296.2c.7-.6 1.5-.8 2.7-.8s1.9.3 2.9 1.8c1.5 2.5 3.2 3.7 5.9.5"/><path fill="#FFF" d="M438.1 308h-8.5v-11.8h6.9"/><path fill="#FFF" d="M442 306.2c1 0 1.8.8 1.8 1.8s-.8 1.8-1.8 1.8h-10.6c-1 0-1.8-.8-1.8-1.8s.8-1.8 1.8-1.8H442z"/><path fill="#FFF" d="M446.9 314.3c.5.9.2 2-.7 2.5-.9.5-2 .2-2.5-.7l-3.3-7.2c-.5-.9-.2-2 .7-2.5.9-.5 2-.2 2.5.7l3.3 7.2zm-16.6-9.3s-2.5 1-3.2.5c-2-1.4-3.2-7.8-1.6-9.7.5-.6 3.2-.5 3.2-.5l1.6 9.7z"/><path fill="#FFF" d="M431.742 294.94l-3.797.892-.114-.486 3.797-.893z"/><path fill="none" stroke="#FFF" stroke-width=".607" stroke-linecap="round" stroke-linejoin="round" stroke-miterlimit="10" d="M426.9 296.8c-1.1-.3-1.7-1.3-1.5-2.4.2-.9 1.1-1.4 1.9-1.2.7.2 1.1.9 1 1.5-.1.6-.7.9-1.2.8-.4-.1-.7-.5-.6-1 .1-.4.4-.6.8-.5.3.1.5.4.4.6"/><path fill="none" stroke="#FFF" stroke-linecap="round" stroke-miterlimit="10" d="M430.8 317.3s6-17.2 10.2-17.8c3.7-.5 5.2-6.8 5.2-6.8"/><path d="M437.3 289.8c0 1.9-1.6 3.5-3.5 3.5v-7c2 0 3.5 1.6 3.5 3.5zm9.7 24.7c0-.1-.1-.1-.1-.2l-.9-2-.2-.5-.1-.2-.1-.3-1.9-4.2c-.1-.1-.2-.3-.3-.4-.1-.1-.2-.2-.3-.2s-.1-.1-.2-.1h-.2c-.1 0-.2-.1-.2-.1h-4.6l-.3-2.5c.6-1 1.2-1.8 1.8-2.5h.4c1.3 0 2.5-.6 3.7-2l.5-.5c.2-.2.3-.4.3-.7 1.7-2.1 2.5-5.1 2.5-5.3.1-.3-.1-.5-.4-.6-.3-.1-.5.1-.6.4 0 0-.6 2.4-1.8 4.2l-.1-.1c0-.1-.1-.1-.1-.1-.7-.6-1.7-.5-2.2.2-1.1 1.3-1.7 1.4-1.8 1.4-.1 0-.7-.2-1.5-1.6 0 0 0-.1-.1-.1-1.3-1.9-2.4-2.5-4.3-2.5v17c.2-.4.3-.8.5-1.2h6.5l2.9 6.3c0 .1.1.1.1.2s.1.1.2.2l.3.3c.1 0 .2.1.3.1.1 0 .1 0 .2.1h1s.1 0 .1-.1c.1 0 .2-.1.2-.1.1 0 .1-.1.2-.1l.2-.2s.2-.2.3-.4c0-.1 0-.1.1-.1 0-.1 0-.1.1-.2v-.8c.1-.2 0-.3-.1-.5zm-8.7-13.6c-.3.4-.6.8-1 1.3l-.3-2.1c.4.4.8.6 1.3.8z" opacity=".05" fill="#231F20"/><path fill="#62B3C8" d="M591.1 452.1l-1.4 61.5-.1 3-.1 5.4H0V162.8c2.6 2.9 5.6 5.3 10.9 5.6 5.2.3 13.4-2.6 18 .7 3.7 2.7 3.4 7.9 4.3 11.9 5.1 21.9 26.1 37.8 26.2 60.8 11.4 5.9 26.9 12.7 31.8 25.7 3.9 10.2-.8 20.1-1.7 30.3-1.9 21.8 22.7 31 34.1 46.2 4 5.3 6.8 11.4 10.6 16.8l2.1 2.7c6.1 7.2 14.7 11.5 23.1 15.4 20.2 9.5 40.3 21.1 61 29.1l2.4.9c7 2.5 14.4 4.1 21.8 5.4 7.9 1.3 16 2.3 23.9 3.6l3.6.6c.1 0 .3.1.5.1.3.1.7.1 1 .2.9.1 1.7.3 2.6.5h.3c1.2.2 2.4.5 3.5.7 1.2.3 2.4.5 3.6.8 2.1.4 4.1.9 6.1 1.2 3.6.7 7.1 1.3 10.6 1.8 10.3 1.4 20.4 1.8 31.6.7.6-.1 1.3-.1 1.9-.2 10.4-1.2 19.5-1 28.7.2 3.7.5 7.5 1.2 11.3 2 1.5.3 2.9.6 4.4 1l1.2.3c2.4.6 4.8 1.2 7.3 1.9 19.1 5.2 38.5 3.5 57.9 6.2 4.2.6 8.2 1.3 12.2 2.1 14.1 2.9 27.7 6.7 42.8 7 2.6 0 5.3.1 7.9.2 28.2.4 55.5 1.6 83.6 6.9z"/><path fill="#014B54" d="M591.1 152.2V522H0v-71.9c26.5-4 52.6-4.7 79.7-5.2 14-.3 26.8-3.6 40-6.4 1.2-.3 2.5-.5 3.7-.8l3.3-.6c1.2-.2 2.4-.4 3.5-.6 1-.2 2.1-.4 3.1-.5.1 0 .2 0 .4-.1l1.1-.1c19.4-2.7 38.7-1 57.9-6.2 17.5-4.7 32-7.3 49.7-5.7 1 .1 2.1.2 3.2.3 7.8.9 15 1.1 22.1.7l3.6-.3c.9-.1 1.9-.2 2.8-.3.7-.1 1.4-.2 2.1-.2.5 0 1-.1 1.5-.2l6.3-.9c1.9-.3 3.8-.6 5.7-1 3.2-.6 6.4-1.3 9.8-2 7.1-1.6 14.5-2.7 21.8-3.7 6.5-.9 13-1.8 19.4-3.1 6.2-1.2 12.4-2.8 18.3-5.1 3-1.2 6-2.4 9-3.7 2-.8 3.9-1.7 5.8-2.6 15.6-7.1 30.8-15.6 46.2-22.8 8.4-4 16.9-8.2 23.1-15.4 5.1-5.9 8.1-13.3 12.8-19.5.8-1 1.6-2 2.5-3 12.1-13.5 33.3-22.8 31.6-43.2-.9-10.2-5.6-20.2-1.7-30.3 5-13 20.4-19.7 31.8-25.7.1-23 21.1-38.9 26.2-60.8.3-1.2.5-2.5.7-3.8.1-.4.1-.9.2-1.3.5-2.6 1.2-5.2 3.5-6.8 4.6-3.3 12.8-.5 18-.7 11.8-.8 11.9-12.4 22.4-16.3z"/><path fill="#014B54" d="M367.9 404.3c-.4-1.1-1-2.4-1.8-3.7-4.3-7.2-13.8-17-23.3-25.1-16.4-14.1-17.7-33-28.2-31-4.6.9-10.6 5.2-12.9 10.9-6.7-15-15.8-24.3-23.8-22.7-9.6 1.8-14.9 18.6-13.7 40-2.3-1.4-7.1-1.5-9.4-1.1-4.1.8-6.6 4.1-8 9.6-1.4 5.4-1.7 13-1.4 22.2.1 1.6 0 3.2-.1 4.7-.1 2.2-.4 4.2-.7 6.2-.6 3.6-1.5 6.9-2.3 9.7-1.9 6.7-3.1 10.6 1.5 9.7l21.8-4.2 9.9-1.9.6-.1 1.4-.3 1.1-.2 5.8-1.1c-.2-.9-.4-1.8-.6-2.8 0-.1-.1-.3-.1-.4l-.3-1.8c-.1-.5-.1-.9-.2-1.3-.1-.6-.1-1.1-.2-1.7-.1-.7-.1-1.3-.1-1.9v-.6c-.1-1.9 0-3.8.2-5.6 0-.3 0-.6.1-.9.1-.6.1-1.1.2-1.7 0-.3.1-.5.1-.8.2-1.1.5-2.2.8-3.2.1-.4.2-.8.3-1.1.9-2.8 2.2-5.4 3.8-7.4 2.2-2.9 5-4.8 8.2-5.4 7.1-1.4 14.4 3.8 19.3 12.5 1.4 2.4 2.5 5 3.4 7.9.6 1.9 1.2 4 1.6 6.1.1.3.1.5.1.8.2.8.3 1.7.4 2.5l24.1-4.6 19.5-3.7c3.4-1 4.1-3.2 2.9-6.5z"/><path fill="#216572" d="M596.2 278.3l-.7 243.7H0v-43.4c3.9-.4 7.7-.8 11.5-1.1 35.4-3.5 70.9-3.7 106.4-4 22-.2 38.8-16.6 59.9-22.8 8.5-2.5 35.2 4.5 47.5 1.7 11.4-2.7 18.7-7.7 28.2-13.4 5.7-3.4 12.2-3.3 18.6-4.6 9.2-1.9 16.7-6.2 25.3-9.5 1-.4 1.9-.7 2.9-.9 6.3-1.6 12.5-.7 19.2-.1 4.1.3 8.2.6 12.4.8 10.1.5 20.5.6 30.6 0 4-.2 7.9-.6 11.7-1.1.9-.1 1.7-.2 2.6-.4 2.7-.4 5.3-.9 8-1.5 6.4-1.4 12.6-3.4 18.6-5.8 19-7.5 36-19.5 51-33.7.1-.1.2-.1.2-.2 3.9-3.7 7.5-7.5 11-11.5 10.1-11.5 19-23.9 28.9-35.6 1.3-1.5 2.6-3.1 3.9-4.6 5.4-6.1 10.3-11.2 12.6-18.6.4-1.3.8-2.7 1-4.2 1.3-7.8-1.1-16.3 9-16.2 5.6 0 11 1.6 16.4 3.8 10.1 3.9 20 9.5 31 9.4 2.3 0 4.4-.3 6.2-.8 11.6-3 14.9-14.4 16.3-26.3.3-2.1.5-4.1.6-6.2.8 1.8 2.1 4 3.8 6.3.4.1.6.4.9.8z"/><path fill="#299B9C" d="M380.9 472.1c0-17.2-1.1-35.3-1.4-44.4-.1-1.8-.1-3.2-.1-4.2-.3.5-1.4 1.1-3 1.8-.7.4-1.6.7-2.5 1.1-8.4 3.4-23.5 7.9-24.6 6.5l-90.4 14c-16.5 3.8-34.3 30.2-53.2 38.4-7.6 3.3-15.4 3.6-23.4-1.7-.3-.2-.5-.4-.8-.5-7.3-5.2-12.5-4.2-19.4-3.4-1.7.2-3.5.4-5.5.5-1.9.1-13.5 2.6-14.5 1.9-1-.6-3-1-5.5-1.2h-.1c-.7 0-1.4-.1-2.2-.1-9.4-.1-23.5 2-26.1 4.1-1.7 1.4-4.6 2.9-7.9 4.5-6.1 2.8-13.5 5.5-17.5 6.6-9.1 2.6-9.8-3-17.4-4.7-2.9-.6-17.2-2.8-19.6-1.7-4.3 1.9-7.4 7.5-12.9 3.2-3.3-2.6-5.2 6.7-11 3-5.9-3.9-12-2.8-17.6.9-1.6 1.1-2.9 1.7-4.3 2.3v14.3h244c42.9 0 85.8.1 128.7.1.3 0 .7-.1 1-.2 5.9-1.7 7.2-20.8 7.2-41.1z"/><circle fill="#FFF" cx="124.6" cy="412.2" r="3.5"/><ellipse opacity=".15" fill="#231F20" cx="126.2" cy="444.4" rx="10.1" ry="1.7"/><path fill="none" stroke="#FFF" stroke-width="3.166" stroke-linecap="round" stroke-linejoin="round" stroke-miterlimit="10" d="M121.9 418.6c.7-.6 1.5-.8 2.7-.8 1.3 0 1.9.3 2.9 1.8 1.5 2.5 3.2 3.7 5.9.5"/><path fill="#FFF" d="M128.9 432.4h-8.6v-13.8h7"/><path fill="#FFF" d="M122.8 443.2c-.1 1-1 1.7-2 1.6-1-.1-1.7-1-1.6-2l1.1-10.6c.1-1 1-1.7 2-1.6 1 .1 1.7 1 1.6 2l-1.1 10.6zm8.8-1.1c.3 1-.3 1.9-1.3 2.2-1 .3-1.9-.3-2.2-1.3l-2.8-10.3c-.3-1 .3-1.9 1.3-2.2 1-.3 1.9.3 2.2 1.3l2.8 10.3zm1.7-30.7h.3v33h-.3zm-12.2 16s-2.5 1-3.2.5c-2-1.4-3.2-7.8-1.6-9.7.5-.6 3.2-.5 3.2-.5l1.6 9.7z"/><path fill="#FFF" d="M122.478 417.294l-3.797.892-.113-.487 3.796-.893z"/><path fill="none" stroke="#FFF" stroke-width=".607" stroke-linecap="round" stroke-linejoin="round" stroke-miterlimit="10" d="M117.7 419.2c-1.1-.3-1.7-1.3-1.5-2.4.2-.9 1.1-1.4 1.9-1.2.7.2 1.1.9 1 1.5-.1.6-.7.9-1.2.8-.4-.1-.7-.5-.6-1 .1-.4.4-.6.8-.5.3.1.5.4.4.6"/><g fill="#231F20"><path opacity=".05" d="M124.6 408.7v7c1.9 0 3.5-1.6 3.5-3.5s-1.6-3.5-3.5-3.5z"/><path opacity=".05" d="M134.5 418.9c-.3-.2-.5-.3-.8-.4v-7.2h-.3v7.2c-.4 0-.8.2-1 .5-1.1 1.3-1.7 1.4-1.8 1.4-.1 0-.6-.2-1.5-1.7 0 0 0-.1-.1-.1-1.3-1.9-2.4-2.5-4.2-2.5v16.2h.8c0 .1 0 .3.1.4l2.8 10.3c.3 1 1.2 1.5 2.2 1.3s1.5-1.2 1.3-2.2l-2.8-10.3c0-.1-.1-.2-.1-.3l-1.1-9.1c.7.6 1.5 1.1 2.5 1.2h.3c.9 0 1.9-.4 2.8-1.1v21.9h.3v-22.2c.3-.3.7-.7 1-1.1.3-.6.2-1.6-.4-2.2z"/></g><ellipse opacity=".15" fill="#231F20" cx="272.8" cy="428.3" rx="10.1" ry="1.7"/><path fill="#FFF" d="M271.1 426c-.1 1-1 1.7-2 1.6-1-.1-1.7-1-1.6-2l1.3-10.6c.1-1 1-1.7 2-1.6 1 .1 1.7 1 1.6 2l-1.3 10.6z"/><path fill="#FFF" d="M278 425.5c.3 1-.3 1.9-1.3 2.2-1 .3-1.9-.3-2.2-1.3l-2.8-10.3c-.3-1 .3-1.9 1.3-2.2 1-.3 1.9.3 2.2 1.3l2.8 10.3z"/><circle fill="#FFF" cx="285.7" cy="406.2" r="3.5"/><path fill="none" stroke="#FFF" stroke-width="3.166" stroke-linecap="round" stroke-linejoin="round" stroke-miterlimit="10" d="M279 408.2c.9.1 1.6.6 2.4 1.5.8 1 1 1.6.5 3.4-1 2.8-.7 4.8 3.4 4.9"/><path fill="#FFF" d="M274.9 420.4l-5.5-6.5 8.6-6.9 4.4 5.3"/><path fill="#FFF" d="M271.7 413.2s-2.4-1.3-2.5-2.1c-.2-2.4 3.9-7.5 6.4-7.4.8 0 2.5 2.1 2.5 2.1l-6.4 7.4z"/><path fill="#FFF" d="M280.38 407.783l-3.124-2.335.3-.4 3.124 2.335z"/><path fill="none" stroke="#FFF" stroke-width=".607" stroke-linecap="round" stroke-linejoin="round" stroke-miterlimit="10" d="M275.9 405.3c-.5-1-.1-2.2.9-2.7.8-.4 1.8-.1 2.2.7.3.6.1 1.4-.6 1.7-.5.3-1.1 0-1.4-.5-.2-.4 0-.9.4-1.1.3-.2.7 0 .9.3.1.3 0 .6-.2.7"/><path fill="#FFF" d="M290.1 406.2c0-2.5-2-4.4-4.4-4.4-2.5 0-4.4 2-4.4 4.4h8.8z"/><path opacity=".05" fill="#231F20" d="M285.7 401.7v7.9c1.3 0 2.6-.7 3.2-2 .2-.5.3-1 .3-1.5h1c-.1-2.4-2.1-4.4-4.5-4.4z"/><path fill="#FFF" d="M292.2 406.8c-1.3-.7-1.2-1.7.2-2.1 2.8-.9 8-2.7 9.3-1.5.9.9.4 6-.6 6.7-1.5 1-6.3-1.8-8.9-3.1z"/><path opacity=".05" fill="#231F20" d="M285.3 416.5c-1.8 0-2.1-.4-2.2-.5-.1-.1-.3-.6.3-2.2v-.1c.6-2.2.4-3.4-.8-4.9-.7-.8-1.5-1.6-2.9-2l-1.7-1.3c.2 0 .3-.1.5-.1.4-.2.7-.5.8-.9s.1-.8-.1-1.2c-.5-.9-1.6-1.3-2.6-.9-.2.1-.3.2-.5.3v1c.2-.3.4-.6.7-.8.6-.3 1.4-.1 1.8.6.1.2.1.5.1.7-.1.2-.3.5-.5.6-.4.2-.8 0-1-.3-.1-.1-.1-.3 0-.4 0-.1.1-.2.3-.3h.3c.1 0 .2.1.2.2v.2l-.1.1c-.1.1-.2.3-.1.4.1.2.3.2.4.1.2-.1.3-.3.4-.5.1-.2.1-.4 0-.6s-.3-.4-.6-.5c-.2-.1-.5-.1-.7.1-.3.1-.5.4-.6.7v.3c-.1-.1-.3-.2-.4-.3v4.2l1.7-2 .8.6c-.3.1-.7.2-.9.5l-1.6 1.3v19.2h.6c1-.3 1.5-1.2 1.3-2.2l-1.7-6.5 3.5-3.8c0 .9.1 1.8.7 2.6.9 1.2 2.4 1.8 4.8 1.8.9 0 1.6-.7 1.6-1.6-.2-.9-1-1.6-1.8-1.6z"/><g><path fill="#216572" d="M596.2 146.6v367h-111c-25.6 0-51.3-.1-76.9-.1H374c-48.6 0-97.3-.1-145.9-.1-18.4 0-36.9.1-55.3.1h-2.4c-15.2 0-30.4.1-45.7.1-5.4 0-51.3 3.2-55.3-.1-.1-.1-.2-.2-.2-.3.1 0 24.6-12.1 26.7-14.1 1.7-.1 11.7-5.4 21.3-10.3 6.9-3.5 13.7-6.8 17.1-7.7.9-.2 1.5-.3 1.9-.2-.4-.4-.6-1-.7-1.5 2.2-.1 6.1 3.4 7.4 2.7 5.2-3 8.1-6.3 14.8-4.6 1.9.5 3.2 1.4 4.3 2.5 2.3 2.4 3.3 5.8 4.5 8.9 2 4.9 4.7 9 14.5 6.9-4-2.7-5.8-5-6-6.8-.3-2.7 2.8-4.4 7.1-5 2.7-.4 5.9-.4 9 0 4.6.6 9.5 1.2 14.3 1.7 4 .5 8 .9 12 1.5 13.7 1.8 27.5 4.1 39.7 8.7-12.1-26.2 66.7-16.7 75.2-21.2-5.9-1.1-12 .5-16.8-3.3-.9-.7-1.7-1.6-2.5-2.7 15.5-3.1 37.2-4.2 42.8-18.6 1.7-4.4 20-17.2 22.1-22.3.5-1.2 0-2-1.9-2.1-.8 0-1.9.1-3.3.3l3.9-2.6 3.2-2.2 14.3-9.7 46.2-31.5c4.8.3 9.5 1.3 14.1 2.3 4.2.9 8.4 1.7 12.7 2-.3-2.4-.3-5.1-.6-8l-1.1-5.5-5.3-26.5c-.5-.3-1.3-1.3-2.2-2.8-3-4.9-7.9-15.4-11.2-25.1-.5-1.6-1-3.1-1.5-4.6-1.4-4.8-2.3-9.1-2.1-12 0-.4.1-.8.1-1.2.1-.5.2-.9.4-1.3 0-.1 0-.1-.1-.2-5.1-13.1 24.6-11.3 32.8-14.7 12.4-5.2 5.9-41.1-1.1-48.3 5-10 8.3-10.8 18.6-4.2.2-1.6 7.8-15 15-13.6 6.9 1.2 12.2-13.5 14.8-17.9 4.8-8 20.2-16.8 22.7-20.7.3-.5.4-1 .2-1.3-.3-.4-1-.7-2.4-.7-22-.6-106.2-1.7-126.3-1.7-5.5 0-39.5-3.3-19.1-14.2-5.2 2.8-27.5-5.5-22.3-11.4-.1-.1.2-.4 1.2-1 .1-.1.2-.1.3-.2h218.3v-.6z"/><path fill="#299B9C" d="M521.2 301s3.3 2.4 7.8-1.1c4.4-3.4 9.6-5.6 14.9-8 9.2-4.1 17.8-8 27.6-11.1 1.3 6-3.7 14.7-.4 20.2 2 3.3 12.3 4 10.3 8.2-1.4 2.9-14.4 4.3-17.9 5.3-3.1.8-13 2-14.1 4.9-1.3 3.2 12.3 6.5 16.3 8.1-3.3 3.3-17.5 2.6-22.8 3.2-4.7.6-14.7 1.5-18.4 4.3-3.6 2.7-2.7 9.6-3 13.2-10.8-2.7-21.6-9.1-29.5-15.2-5.3-4.1-7.6-8.5-4.4-14 3.9-6.5 13.9-5.4 21.7-7 7.5-1.6 8.6-8.7 8.6-8.7l3.3-2.3z"/><path fill="#606060" d="M95.9 499c1.5-1.5 2.3-3 2.3-4.5-2.9 3.3-3.4 4.6-2.3 4.5z"/></g><g><path fill="#299B9C" d="M596.2 369.3v33.3c-.2 2.1-.5 4-.7 5.5-.1.6-.2 1.1-.3 1.5v107h-5.5c-60.9 0-121.8-.4-182.7-.4.4-.9.8-1.8 1.3-2.7 2.9-5 8-9.7 10.9-14.5 4.5-7.4-3.3-12.9.7-19.2 2.1-3.3 5.7-5 8-7.9.5-.7 1-1.4 1.4-2.2 3.5-7.6-3-9.5 6.6-13.9 14-6.3 13.7-5.8 20.9-18 .2-.4.4-.7.7-1.1 2.9-4.8-2.4-8-.1-11.9.2-.3.3-.5.5-.8.3-.4.8-.8 1.3-1.3 8.4-6.8 17.6-12.7 25.8-19.6.8-21.2 17-6 27.5-11.9 9.5-5.3 18.1-15.1 28.5-18.6 2.9-1 20.3-1.6 34.6-2.8 6.2-.5 11.8-1.2 15.3-2 2.4-.6 3.9-1.2 4.1-2 .1.2.2.4.3.7.4.9.7 1.8.9 2.8z"/></g><path fill="#228081" d="M596.2 363.1V522H0v-34.8c12.9-3.3 26.4-6.5 41-2.3 19.3 5.5 39.3 5.4 59.4 4.6 5.6-.3 11.2-.6 16.8-.8 10.3-.5 20.7-.9 30.9-.5 6.2.2 12.4.4 18.6.5 2.8.1 5.7.1 8.5.1 14.2 0 28.4-.5 42.5-1.9 7.9-.8 15.7-1.8 23.5-3.2 25-4.4 49.3-11.1 74.6-12.6 1.9-.1 3.9-.2 5.8-.3 20-.6 39.8.6 59.2 1.4 15.9.6 31.6 1 47.1-.2 26.9-2 53.2-8.6 78.5-26.2.3-.2.7-.5 1-.7 7.7-5.4 14.5-11.5 20.7-18 .2-.2.4-.5.7-.7 9.4-10 17.5-21.1 25.5-32.8 6-8.7 12.9-17.6 21.4-23.6 4.6-3.2 9.7-5.5 15.3-6.4 1.4-.2 2.9-.4 4.4-.4.3-.1.5-.1.8-.1z"/><path fill="#216572" d="M573.5 0h-7.7l-5 150.5h17.7"/><ellipse fill="#216572" cx="566.1" cy="36.2" rx="1.3" ry="1.4"/><ellipse fill="#216572" cx="566.1" cy="39.5" rx="1.3" ry="1.4"/><ellipse fill="#216572" cx="573.1" cy="36.2" rx="1.3" ry="1.4"/><ellipse fill="#216572" cx="573.1" cy="39.5" rx="1.3" ry="1.4"/></g><path fill="none" d="M211.1 229.7c-4.7 3.9-8 8.8-10 14.7-1.4 4.2-2.1 8.4-1.8 13h33.9v-28.6h-19.5c-.9-.1-2 .3-2.6.9z"/><g opacity=".05"><path d="M219.1 232.4v8.4c2.3 0 4.2-1.9 4.2-4.2.1-2.3-1.8-4.2-4.2-4.2z"/></g></svg>