<svg xmlns="http://www.w3.org/2000/svg" width="38.7" height="89.3" viewBox="0 0 38.7 89.3"><circle fill="#FFF" cx="19.3" cy="8.2" r="8.2"/><path fill="#FFF" d="M32.8 23.2c0-.1-.1-.1-.2-.2-3.5-3.5-8.3-5.4-13.3-5.4-5.1 0-9.8 1.9-13.4 5.4l-.2.2C0 29.7 0 41.4 0 47.7v.5c0 2.1 1.7 3.7 3.7 3.7s3.7-1.7 3.7-3.7c0 0 0-11.3 1.8-16.2v53c0 2.3 1.9 4.2 4.2 4.2 2.3 0 4.2-1.9 4.2-4.2V60H21v25c0 2.3 1.9 4.2 4.2 4.2 2.3 0 4.2-1.9 4.2-4.2V32.1c1.8 5.3 1.8 12.8 1.8 16.1 0 2.1 1.7 3.7 3.7 3.7s3.7-1.7 3.7-3.7c.1-9.2-.6-19.3-5.8-25z"/><path fill="#FFF" d="M38.7 48.2c0 2.1-1.7 3.7-3.7 3.7-2.1 0-3.7-1.7-3.7-3.7 0-2.4 0-7.1-.7-11.5-.3-1.6-.6-3.2-1.1-4.5v53c0 2.3-1.9 4.2-4.2 4.2-2.3 0-4.2-1.9-4.2-4.2V60h-3.2v25c0 2.3-1.9 4.2-4.2 4.2-2.3 0-4.2-1.9-4.2-4.2V32c-1.8 5-1.8 16.2-1.8 16.2 0 2.1-1.7 3.7-3.7 3.7s-4-1.6-4-3.7v-.5c0-3.7 0-9.3 1.2-14.6.8-3.7 2.2-7.2 4.7-9.9 0-.1.1-.1.1-.2 3.5-3.5 8.3-5.4 13.4-5.4s9.8 1.9 13.3 5.4c.1 0 .1.1.2.2 2.4 2.6 3.8 6.2 4.6 10.2 1 4.7 1.2 9.9 1.2 14.8z"/><path d="M0 47.7v.5c0 2.1 1.7 3.7 3.7 3.7s3.7-1.7 3.7-3.7c0 0 0-8.2 1.1-13.7H.9C0 39.4 0 44.3 0 47.7zm9.3 37.4c0 2.3 1.9 4.2 4.2 4.2 2.3 0 4.2-1.9 4.2-4.2V60H21v25c0 2.3 1.9 4.2 4.2 4.2 2.3 0 4.2-1.9 4.2-4.2V34.5H9.3v50.6zm28.4-50.6h-7.6c.2.7.3 1.4.4 2.2.7 4.4.7 9.1.7 11.5 0 2.1 1.7 3.7 3.7 3.7 2.1 0 3.7-1.7 3.7-3.7.1-4.6-.1-9.4-.9-13.7zM15.6 26.8V28h-.1c-.7 0-1.2.2-1.6.5-.4.3-.7.8-.7 1.4.4-.4.9-.6 1.5-.6.7 0 1.2.2 1.6.7.4.5.6 1.1.6 1.8 0 .5-.1.9-.3 1.3-.2.4-.5.7-.9.9-.4.2-.8.3-1.3.3-.8 0-1.4-.3-1.9-.8s-.7-1.3-.7-2.2v-.5c0-.8.2-1.5.5-2.2.3-.6.7-1.1 1.3-1.4.6-.3 1.2-.5 2-.5zm-1.5 3.8c-.2 0-.5.1-.7.2-.2.1-.3.3-.4.5v.5c0 .5.1.9.3 1.2s.5.4.8.4c.3 0 .6-.1.8-.4.2-.3.3-.6.3-1s-.1-.7-.3-1c-.2-.3-.4-.4-.8-.4zm8.5.7c0 1-.2 1.8-.6 2.4-.4.5-1.1.8-1.9.8-.8 0-1.4-.3-1.9-.8-.4-.5-.7-1.3-.7-2.3V30c0-1 .2-1.8.7-2.4s1.1-.8 1.9-.8 1.4.3 1.9.8c.4.5.7 1.3.7 2.3v1.4zm-1.5-1.5c0-.6-.1-1.1-.3-1.4-.2-.3-.4-.4-.8-.4-.3 0-.6.1-.8.4-.2.3-.3.7-.3 1.3v1.8c0 .6.1 1.1.2 1.4.2.3.4.4.8.4s.6-.1.8-.4c.2-.3.2-.7.3-1.3v-1.8zm2.3-2.4c0-.3.1-.5.3-.7.2-.2.4-.3.7-.3.3 0 .5.1.7.2.2.2.3.4.3.7v.2c0 .3-.1.5-.3.7s-.4.2-.7.2c-.3 0-.5-.1-.7-.2-.2-.2-.3-.4-.3-.7v-.1zm.6.2c0 .1 0 .2.1.3.1.1.2.1.3.1s.2 0 .3-.1.1-.2.1-.3v-.2c0-.1 0-.2-.1-.3s-.2-.1-.4-.1c-.1 0-.2 0-.3.1s0 .1 0 .3v.2zm.5 3l-.4-.2 2.1-3.4.4.2-2.1 3.4zm1-.8c0-.3.1-.5.3-.7.2-.2.4-.2.7-.2.3 0 .5.1.7.2s.3.4.3.7v.2c0 .3-.1.5-.3.6s-.4.2-.7.2c-.3 0-.5-.1-.7-.2-.2-.2-.3-.4-.3-.7v-.1zm.6.2c0 .1 0 .2.1.3.1.1.2.1.3.1.2 0 .4-.1.4-.4v-.2c0-.1 0-.2-.1-.3s-.2-.1-.3-.1c-.1 0-.2 0-.3.1s-.1.2-.1.3v.2z" fill="#60DDFF"/><path fill="#FFF" d="M17.4 42.4h-1.3v-2.7h-2.5v2.7h-1.3v-6.2h1.3v2.5h2.5v-2.5h1.3v6.2zm3.3 2.9h-2.5v-.5l1.2-1.3c.2-.2.3-.3.4-.5.1-.1.1-.3.1-.4 0-.2 0-.3-.1-.4-.1-.1-.2-.1-.3-.1-.2 0-.3.1-.4.2-.1.1-.1.3-.1.4h-.7c0-.2.1-.4.2-.6s.3-.3.4-.4c.2-.1.4-.2.7-.2.4 0 .7.1.9.3s.3.4.3.8c0 .2 0 .4-.1.5s-.3.4-.5.7l-.8.9H21v.6zm5.9-5.9c0 .6-.1 1.2-.3 1.6-.2.5-.5.8-.9 1.1-.4.3-.9.4-1.4.4-.5 0-1-.1-1.4-.4s-.7-.6-.9-1.1c-.2-.5-.3-1-.3-1.6v-.3c0-.6.1-1.2.3-1.6s.5-.8.9-1.1c.4-.3.9-.4 1.4-.4s1 .1 1.4.4c.4.3.7.6.9 1.1.2.5.3 1 .3 1.6v.3zm-1.3-.3c0-.7-.1-1.2-.4-1.5-.2-.3-.6-.5-1-.5s-.8.2-1 .5c-.2.3-.4.8-.4 1.5v.3c0 .6.1 1.1.4 1.5.2.4.6.5 1 .5s.8-.2 1-.5c.2-.3.3-.8.4-1.5v-.3z"/><path d="M37.5 33.4c-.8-4-2.3-7.6-4.6-10.2l-.2-.2c-3.5-3.5-8.3-5.4-13.3-5.4V60H21v25c0 2.3 1.9 4.2 4.2 4.2 2.3 0 4.2-1.9 4.2-4.2V32c.5 1.4.8 3 1.1 4.5.7 4.4.7 9.1.7 11.5 0 2.1 1.7 3.7 3.7 3.7 2.1 0 3.7-1.7 3.7-3.7.1-4.7-.1-9.9-1.1-14.6zM27.5 8.2c0-4.5-3.7-8.2-8.2-8.2v16.4c4.6 0 8.2-3.7 8.2-8.2z" opacity=".05"/></svg>