<svg xmlns="http://www.w3.org/2000/svg" width="130.54" height="58.271" viewBox="0 0 130.54 58.271"><path fill="#F9F9F9" d="M130.54 43.112c0-.247-.006-.439-.019-.683-.382-8.02-7.004-14.351-15.118-14.351h-3.076c-3.356-7-10.18-11.11-18.058-11.11-2.993 0-5.833.629-8.39 1.792C81.788 7.811 71.233 0 58.855 0 46.044 0 35.189 8.348 31.428 19.904a20.616 20.616 0 0 0-10.71-2.984C9.276 16.92 0 26.194 0 37.635c0 9.063 5.821 16.761 13.926 19.572 1.341.525 2.773.864 4.269.986.827.101 97.209-.114 97.209-.114 8.113 0 14.735-6.299 15.118-14.316l.018-.651z"/><path opacity=".02" d="M20.717 24.914a20.62 20.62 0 0 1 10.71 2.98c3.762-11.557 14.617-19.91 27.428-19.91 12.378 0 22.933 7.798 27.024 18.748 2.557-1.165 5.396-1.765 8.39-1.765 7.878 0 14.701 4.111 18.058 11.111h3.076c6.975 0 12.844 4.666 14.598 11.085a15.45 15.45 0 0 0 .521-3.291c.013-.243.013-1.195 0-1.438-.382-8.02-7.004-14.356-15.118-14.356h-3.076c-3.356-7-10.18-11.11-18.058-11.11-2.993 0-5.833.629-8.39 1.792C81.788 7.811 71.233 0 58.855 0 46.044 0 35.189 8.348 31.428 19.904a20.616 20.616 0 0 0-10.71-2.984C9.276 16.92 0 26.194 0 37.635c0 1.37.135 2.707.389 4.002 1.862-9.53 10.254-16.723 20.328-16.723z"/></svg>