<svg xmlns="http://www.w3.org/2000/svg" width="624.309" height="278.348" viewBox="0 0 624.309 278.348"><path fill="#F9F9F9" d="M.478 209.379c1.912 38.241 33.462 68.356 72.183 68.356 0 0 460.821.956 464.646.478 7.171-.479 13.862-2.391 20.556-4.779 38.721-13.385 66.446-50.192 66.446-93.692 0-54.496-44.457-98.953-98.952-98.953-18.645 0-36.33 5.258-51.148 14.341C456.042 40.154 404.416 0 342.751 0c-59.278 0-109.471 37.287-129.07 89.87-12.43-5.736-25.814-8.604-40.155-8.604-37.764 0-70.271 19.601-86.523 53.063h-14.82c-38.722 0-70.271 30.115-72.184 68.837.001.954.479 4.777.479 6.213z"/><path opacity=".02" d="M622.396 199.34c1.436-6.215 1.912-12.43 1.912-19.121 0-54.496-44.457-98.953-98.952-98.953-18.644 0-36.33 5.258-51.148 14.341C456.042 40.156 404.416.001 342.751.001c-59.276 0-109.47 37.287-129.068 89.87-12.43-5.736-25.814-8.604-40.155-8.604-37.764 0-70.271 19.601-86.523 53.063H72.184c-38.722 0-70.271 30.115-72.184 68.837v6.692c.479 5.26.956 10.52 2.391 15.774 8.604-30.594 36.331-53.062 69.792-53.062h14.818c16.253-33.463 48.76-53.062 86.523-53.062 14.341 0 27.726 2.868 40.155 8.604 19.599-52.105 69.792-89.393 129.067-89.393 61.188 0 113.293 40.154 130.979 95.128 14.818-9.083 32.506-14.341 51.148-14.341 48.764-.476 88.44 33.941 97.523 79.833z"/></svg>