<svg xmlns="http://www.w3.org/2000/svg" xmlns:xlink="http://www.w3.org/1999/xlink" width="500" height="500" viewBox="0 0 500 500"><symbol id="a" viewBox="-54.738 -52.001 109.476 104.002"><path fill="#439E63" d="M28.854 30.707c30-28.333 25.667-81.666 25.667-81.666s-53-8-83.334 20.333C-59.146-2.293-54.479 51.041-54.479 51.041s53 7.666 83.333-20.334z"/><path opacity=".15" fill="#fff" d="M-28.813-30.626c30-28.333 83.334-20.333 83.334-20.333l-109 102s-4.334-53.667 25.666-81.667z"/><path fill="#88C94F" d="M-4.813-32.626l40.831-2.593a1371.914 1371.914 0 0 1 18.169-15.74c-5.275 5.568-10.823 11.149-16.613 16.943L31.187 7.707l4.775-40.109c-.261.261-14.99 14.602-22.166 21.466l-6.61 41.31 4.701-39.491A2007.666 2007.666 0 0 1-7.21 8.881l-5.936 32.493 4.104-30.782C-23.912 24.378-39.03 37.917-54.48 51.041c6.333-6.667 35.804-35.787 44.301-43.886L-42.48 8.374l34.063-2.892a1688.15 1688.15 0 0 1 18.551-17.384l-39.948.943 41.792-2.633a1493.335 1493.335 0 0 1 22.135-19.953l-38.926.919z"/></symbol><path fill="#439E63" d="M230 456.667S336.666 289.334 211.333 153C309.333 263.334 292 317 292 317s-11 122.667 6 140c17 16.667-68-.333-68-.333z"/><path fill="#fff" d="M298 456.667c-17-17-6-140.001-6-140.001s16.333-50.332-72-154c15 18 26 36.333 34.333 54.667 41.667 66.667 31.333 99 31.333 99s-11 122.666 6 139.999c5 5 1 7-7 7.334 12 1.001 19.667-.666 13.334-6.999z" opacity=".15"/><use xlink:href="#a" width="109.476" height="104.002" x="-54.738" y="-52.001" transform="matrix(1 0 0 -1 149.48 91.707)" overflow="visible"/><use xlink:href="#a" width="109.476" height="104.002" x="-54.738" y="-52.001" transform="scale(-1 1) rotate(85.06 -282.495 -97.426)" overflow="visible"/><use xlink:href="#a" width="109.476" height="104.002" x="-54.738" y="-52.001" transform="scale(1 -1) rotate(87.76 225.947 -42.78)" overflow="visible"/></svg>