<svg xmlns="http://www.w3.org/2000/svg" viewBox="0 0 7.9 12"><style>.st0{fill:#fff}</style><path class="st0" d="M7.6 7.5H2.5c-.1.2-.2.3-.3.4-.4.7-.2 1.7.4 2.2.7.6 1.7.6 2.5.4.4-.1.9-.3 1.2-.5.3 0 .7-.4.9-.3.5.1.3 1.1.1 1.4-.9 1.1-3.5 1-4.7.6C1 11.1-.1 9.3.5 7.5H.3c-.4 0-.4-1.1 0-1.1h.9C1.7 6 2.4 5.6 3 5.3l.6-.3H.3c-.4 0-.4-1.1 0-1.1h5l.1-.2C6.6 1.9 4.2 1 2.8 1.4c-.3.1-1.2.8-1.5.7C.8 2 1 1 1.2.7 2-.2 4.1-.1 5.1.2c1.6.5 2.5 2.1 2 3.7h.5C8 3.9 8 5 7.6 5H6.5l-.1.2c-.5.5-1.1.8-1.8 1.1l-.3.1h3.3c.4.1.4 1.1 0 1.1z"/></svg>