<svg xmlns="http://www.w3.org/2000/svg" width="64.947" height="39.814" viewBox="0 0 64.947 39.814"><path fill="#F9F9F9" d="M64.854 19.664C53.441 7.888 35.097 5.092 19.816 1.414 15.688.158 11.389-.223 7.073.12 5.398.252.726.788.104 3.014c-.643 2.302 1.792 4.05 4.565 5.103-1.395.339-2.554 1.368-2.718 3.015-.26 2.603 2.446 4.345 4.837 3.972 1.592.428 3.262.581 4.947.63-3.619 1.875-8.178 6.054-3.892 9.264 1.924 1.44 4.386 1.157 6.846.228-1.649 2.237-.641 4.897 2.428 5.143.77.061 1.542-.08 2.303-.349-2.22 3.329-.012 6.765 4.218 5.986 1.115-.205 2.147-.715 3.1-1.417-1.227 1.517.138 3.291 1.61 4.284 1.756 1.186 4.07.886 5.757-.195 1.046-.67 1.926-1.677 2.672-2.833.92 4.272 6.091 5.342 9.364 2.008 2.496-2.542 2.954-5.483 3.252-8.919.713-8.221 7.062-13.852 14.709-8.317.424.307.924-.205.826-.626a.301.301 0 0 0-.074-.327z"/><path d="M7.073 3.12c4.316-.342 8.615.038 12.743 1.294C33.229 7.642 49 10.195 60.374 18.734c1.192.339 2.441.948 3.729 1.88.424.307.924-.205.826-.626a.305.305 0 0 0-.077-.324C53.441 7.888 35.097 5.092 19.816 1.414 15.688.158 11.389-.223 7.073.12 5.398.252.726.788.104 3.014c-.232.833-.058 1.593.388 2.274C1.801 3.667 5.598 3.236 7.073 3.12z" opacity=".02"/></svg>