<svg xmlns="http://www.w3.org/2000/svg" width="64.947" height="39.814" viewBox="0 0 64.947 39.814"><path fill="#F9F9F9" d="M.018 19.988c-.098.422.402.934.826.626 7.648-5.534 13.996.097 14.709 8.317.298 3.436.757 6.377 3.252 8.919 3.273 3.333 8.443 2.265 9.364-2.008.746 1.156 1.625 2.163 2.672 2.833 1.687 1.081 4.001 1.381 5.757.195 1.473-.994 2.837-2.769 1.61-4.284.953.702 1.984 1.212 3.1 1.417 4.23.778 6.438-2.657 4.218-5.986.762.269 1.534.409 2.304.349 3.067-.245 4.076-2.905 2.427-5.143 2.459.93 4.922 1.213 6.846-.228 4.286-3.21-.271-7.389-3.892-9.264 1.687-.049 3.355-.202 4.948-.63 2.391.373 5.097-1.37 4.837-3.972-.164-1.646-1.324-2.676-2.719-3.015 2.773-1.052 5.208-2.801 4.565-5.103C64.22.784 59.548.249 57.873.116 53.557-.226 49.258.154 45.13 1.41 29.851 5.092 11.507 7.888.094 19.664a.302.302 0 0 0-.076.324z"/><path d="M57.875 3.12c-4.316-.342-8.615.038-12.743 1.294-13.414 3.229-29.184 5.781-40.558 14.32-1.193.339-2.442.948-3.73 1.88-.424.307-.924-.205-.826-.626a.306.306 0 0 1 .077-.324C11.507 7.888 29.851 5.092 45.132 1.414 49.26.158 53.559-.223 57.875.12c1.674.133 6.347.668 6.969 2.895.233.833.058 1.593-.387 2.274-1.31-1.622-5.107-2.053-6.582-2.169z" opacity=".02"/></svg>