<svg xmlns="http://www.w3.org/2000/svg" width="48.33" height="32" viewBox="0 0 48.33 32"><defs><style>.a{fill:none;stroke:#f0f0f0;stroke-linecap:round;stroke-linejoin:round;stroke-width:2px}</style></defs><title>clouds-sunny</title><path class="a" d="M26 11.6a8.28 8.28 0 1 1 12 10.9M41.89 3.86l-1.83 2.52M47.33 11.36l-2.95.96M47.33 20.64l-2.95-.96M26.08 6.38l-1.83-2.52M41.89 28.14l-1.83-2.52M33 4V1M28.93 18.59a6.18 6.18 0 0 0-2.23.41 8.79 8.79 0 0 0-17.26 0 6.2 6.2 0 1 0-2.23 12h21.72a6.21 6.21 0 0 0 0-12.41z"/></svg>