<svg xmlns="http://www.w3.org/2000/svg" width="32" height="32" viewBox="0 0 32 32"><defs><style>.a,.b{fill:none;stroke:#f0f0f0;stroke-width:2px}.a{stroke-linecap:round;stroke-linejoin:round}.b{stroke-miterlimit:10}</style></defs><title>few-clouds-night</title><path class="a" d="M20.68 7.72A10.8 10.8 0 0 0 8.46 3 15 15 0 1 1 1 16a10.8 10.8 0 0 0 13.88 7.7"/><path class="b" d="M23.45 14.81a2.49 2.49 0 0 0-.91.18 3.59 3.59 0 0 0-7.08 0 2.49 2.49 0 0 0-.91-.18 2.6 2.6 0 0 0 0 5.19h8.91a2.6 2.6 0 0 0 0-5.19z"/></svg>