<svg xmlns="http://www.w3.org/2000/svg" width="44.02" height="31" viewBox="0 0 44.02 31"><defs><style>.a{fill:none;stroke:#f0f0f0;stroke-linecap:round;stroke-linejoin:round;stroke-width:2px}.b{fill:#f0f0f0}</style></defs><title>rain-night</title><path class="a" d="M30 23a6.47 6.47 0 1 0-2.3-12.5 9.12 9.12 0 0 0-17.94 0A6.46 6.46 0 1 0 7.45 23"/><path class="b" d="M15.15 16.89a2.21 2.21 0 0 1-3.83-2.21C11.93 13.62 16 11 16 11s-.24 4.84-.85 5.89zM25.15 21.89a2.21 2.21 0 0 1-3.83-2.21C21.93 18.62 26 16 26 16s-.24 4.84-.85 5.89zM14.74 29.74a2.53 2.53 0 1 1-4.38-2.53C11.06 26 15.71 23 15.71 23s-.27 5.53-.97 6.74z"/><path class="b" d="M15.15 16.89a2.21 2.21 0 0 1-3.83-2.21C11.93 13.62 16 11 16 11s-.24 4.84-.85 5.89zM25.15 21.89a2.21 2.21 0 0 1-3.83-2.21C21.93 18.62 26 16 26 16s-.24 4.84-.85 5.89zM14.74 29.74a2.53 2.53 0 1 1-4.38-2.53C11.06 26 15.71 23 15.71 23s-.27 5.53-.97 6.74z"/><path class="a" d="M40.18 17.27a9.5 9.5 0 0 0-11.43-15A6.84 6.84 0 0 1 37.41 10"/></svg>