<svg xmlns="http://www.w3.org/2000/svg" width="47.81" height="34" viewBox="0 0 47.81 34"><defs><style>.a{fill:none;stroke:#f0f0f0;stroke-linecap:round;stroke-linejoin:round;stroke-width:2px}.b{fill:#f0f0f0}</style></defs><title>rain-day</title><path class="a" d="M30 26a6.47 6.47 0 1 0-2.3-12.5 9.12 9.12 0 0 0-17.94 0A6.46 6.46 0 1 0 7.45 26"/><path class="b" d="M15.15 19.89a2.21 2.21 0 0 1-3.83-2.21C11.93 16.62 16 14 16 14s-.24 4.84-.85 5.89zM25.15 24.89a2.21 2.21 0 0 1-3.83-2.21C21.93 21.62 26 19 26 19s-.24 4.84-.85 5.89zM14.74 32.74a2.53 2.53 0 1 1-4.38-2.53C11.06 29 15.71 26 15.71 26s-.27 5.53-.97 6.74z"/><path class="a" d="M31 8.89A6.17 6.17 0 1 1 40 17M42.75 3.13L41.39 5M46.81 8.72l-2.2.72M46.81 15.63l-2.2-.72M30.97 5l-1.36-1.87M42.75 21.21l-1.36-1.87M36.02 3V1"/><path class="b" d="M15.15 19.89a2.21 2.21 0 0 1-3.83-2.21C11.93 16.62 16 14 16 14s-.24 4.84-.85 5.89zM25.15 24.89a2.21 2.21 0 0 1-3.83-2.21C21.93 21.62 26 19 26 19s-.24 4.84-.85 5.89zM14.74 32.74a2.53 2.53 0 1 1-4.38-2.53C11.06 29 15.71 26 15.71 26s-.27 5.53-.97 6.74z"/></svg>