<svg xmlns="http://www.w3.org/2000/svg" width="48" height="30.99" viewBox="0 0 48 30.99"><defs><style>.a{fill:none;stroke:#f0f0f0;stroke-linecap:round;stroke-linejoin:round;stroke-width:2px}.b{fill:#f0f0f0}</style></defs><title>shower-rain</title><path class="a" d="M27 2.65a7.83 7.83 0 0 1 12.49 4.69 5.51 5.51 0 1 1 2 10.65h-1.13M29.64 23a6.49 6.49 0 0 0 0-13 6.23 6.23 0 0 0-2.29.44 9 9 0 0 0-17.7 0A6.23 6.23 0 0 0 7.36 10a6.49 6.49 0 0 0 0 13"/><path class="b" d="M15.13 16.89a2.21 2.21 0 1 1-3.83-2.21C11.91 13.62 16 11 16 11s-.26 4.83-.87 5.89zM25.13 21.89a2.21 2.21 0 1 1-3.83-2.21C21.91 18.62 26 16 26 16s-.26 4.83-.87 5.89zM14.72 29.73a2.53 2.53 0 0 1-4.38-2.53C11 26 15.69 23 15.69 23s-.28 5.52-.97 6.73z"/></svg>