<svg xmlns="http://www.w3.org/2000/svg" width="48" height="31.98" viewBox="0 0 48 31.98"><defs><style>.a{fill:none;stroke:#f0f0f0;stroke-linecap:round;stroke-linejoin:round;stroke-width:2px}</style></defs><title>snow</title><path class="a" d="M27 2.65a7.83 7.83 0 0 1 12.49 4.69 5.51 5.51 0 1 1 2 10.65h-1.13M29.64 23a6.49 6.49 0 0 0 0-13 6.23 6.23 0 0 0-2.29.44 9 9 0 0 0-17.7 0A6.23 6.23 0 0 0 7.36 10a6.49 6.49 0 0 0 0 13"/><path class="a" d="M14 14.99l-.53-1.68-.55-.57.67-.21-.12.78M14 14.99l-1.69.53-.56.55-.22-.67.78.12M14 14.99l.53 1.69.55.57-.67.21.12-.78M14 14.99l1.69-.53.56-.55.22.68-.78-.13M24 18.99l-.64-1.65-.59-.52.66-.26-.07.78M24 18.99l-1.65.65-.53.58-.25-.66.78.08M24 18.99l.64 1.65.59.53-.66.26.07-.79M24 18.99l1.65-.64.53-.59.25.66-.78-.07M14 26.99l-.84-2.73-.87-.93 1.09-.33-.22 1.26M14 26.99l-2.73.84-.93.88-.33-1.1 1.26.22M14 26.99l.84 2.74.87.92-1.09.33.22-1.25M14 26.99l2.73-.83.93-.88.33 1.09-1.26-.21"/></svg>