<svg xmlns="http://www.w3.org/2000/svg" width="48" height="30.99" viewBox="0 0 48 30.99"><defs><style>.a{fill:#f0f0f0}.b{fill:none;stroke:#f0f0f0;stroke-linecap:round;stroke-linejoin:round;stroke-width:2px}</style></defs><title>thunderstorm</title><path class="a" d="M20.74 14l-4.57 6.67-1.17-2 5 .33h.15a.91.91 0 0 1 .85 1 .93.93 0 0 1-.14.43L14 31l5.16-11.46L20 21l-5 .38a1.28 1.28 0 0 1-1.26-1.81l.09-.2L17.26 12l.85-1.82 3.76 2.15z"/><path class="b" d="M27 2.65a7.83 7.83 0 0 1 12.49 4.69 5.51 5.51 0 1 1 2 10.65h-1.13M29.64 23a6.49 6.49 0 0 0 0-13 6.23 6.23 0 0 0-2.29.44 9 9 0 0 0-17.7 0A6.23 6.23 0 0 0 7.36 10a6.49 6.49 0 0 0 0 13"/></svg>