<svg xmlns="http://www.w3.org/2000/svg" width="375.23" height="337.67" viewBox="0 0 375.23 337.67"><defs><style>.a,.j{fill:#f2f2f2}.a,.e,.h,.i,.l{fill-rule:evenodd}.b{fill:#d9e5b7}.c{fill:#09632d}.d{opacity:.05;isolation:isolate}.e{fill:#ccc}.f,.l{fill:#f4c44e}.g{opacity:.15}.h{fill:#fff}.i,.k{fill:#ffd65c}</style></defs><title>MAH-force-majeure</title><path class="a" d="M372.61 267.79c2-5.81-1.5-11-7.63-13.85 7.43 3.16 11.9 9 9.68 15.68-2.62 8.08-16.27 16.27-30.29 17s-20.64-8.31-15-19c4.53-8.62 14.33-14.62 23.51-15.37-7.83 1-15.95 6.13-19.67 13.38-4.82 9.27.89 17.22 13 16.83s23.94-7.4 26.4-14.67z"/><path class="b" d="M245.24 285.5c-9 .07-16.2-.74-26.11-1.38.29-4.47.79-8.79 1.32-13.74 9-.07 16.2.74 26.11 1.37-.21 4.54-.78 8.8-1.32 13.75z"/><path class="c" d="M220.48 270.51c-.54 5-1.11 9.21-1.33 13.74 9.91.63 17.17 1.37 26.11 1.38.54-5 1.11-9.21 1.32-13.74-9.92-.76-17.18-1.5-26.1-1.38zm24.3 11.06a4.3 4.3 0 0 0-3.46 3.06c-5.91-.16-11.35-.51-17.69-1a4 4 0 0 0-3.21-3.12c.18-2 .35-4 .58-6a4.3 4.3 0 0 0 3.46-3.06c5.91.16 11.35.51 17.69 1a4 4 0 0 0 3.21 3.12c-.18 1.95-.42 3.89-.58 6z"/><path class="c" d="M240.85 283.93c-5.6-.14-10.78-.52-16.66-.87v-.13a4.66 4.66 0 0 0-2.78-2.8.18.18 0 0 0-.19 0c.16-1.67.31-3.34.45-5.13a.09.09 0 0 1 .13 0 4.7 4.7 0 0 0 3.06-2.69l.11-.14c5.6.14 10.78.52 16.66.87v.13a4.66 4.66 0 0 0 2.78 2.79.18.18 0 0 0 .19 0c-.15 1.67-.31 3.34-.45 5.13h-.13a4.71 4.71 0 0 0-3.02 2.71.12.12 0 0 0-.15.13zm-16.33-1.29c5.68.31 10.67.66 16.14.81a5.55 5.55 0 0 1 3.11-2.76c.17-1.54.29-3 .34-4.54a5.18 5.18 0 0 1-2.85-2.85c-5.68-.31-10.67-.66-16.09-.88a5.55 5.55 0 0 1-3.12 2.76c-.17 1.55-.29 3-.34 4.55a5.6 5.6 0 0 1 2.8 2.91z"/><path class="c" d="M226.78 275.87c-.48.19-1 .38-1.32.56a8 8 0 0 0-.22-1.18 17.34 17.34 0 0 0 1.85-.82 7.63 7.63 0 0 1 1.28.08c-.14 2.24-.23 4.4-.38 6.64a14.34 14.34 0 0 0-1.53 0c.09-1.76.23-3.55.32-5.28zM235.39 278.2c-.1 2-1 3.49-2.71 3.41s-2.39-1.71-2.32-3.55 1-3.49 2.66-3.34 2.44 1.64 2.37 3.48zm-3.5-.1c0 1.53.25 2.31.82 2.3s1-.7 1-2.23-.18-2.26-.81-2.3-.9.63-1.01 2.23zM241.18 278.38c-.11 2-1.13 3.38-2.84 3.42s-2.38-1.71-2.31-3.56 1-3.37 2.78-3.35c1.87.2 2.51 1.69 2.37 3.49zm-3.55 0c-.12 1.47.25 2.31.82 2.3s1-.7 1.1-2.18-.18-2.26-.82-2.3-1.06.62-1.1 2.15z"/><path class="d" d="M220.48 270.51c-.31 2.45-.5 4.76-.77 7 9.47.19 16.84.78 26.31 1 .27-2.26.41-4.49.55-6.73-9.91-.65-17.17-1.39-26.09-1.27z"/><path class="e" d="M362.23 272.34c-2.33 6.09-10.36 11.73-19.85 14.16 11.22-2.6 20.76-9.17 23.36-16.18 3.09-8.56-3.54-16.41-14.45-18.55s-24.45 4.37-30.63 15.41c-4.92 8.88-2 17.08 7 19.45-7.4-2.3-9.78-9.17-5.71-16.65 5.27-9.61 17.36-15.47 27.29-13.87s15.87 8.55 12.99 16.23z"/><path class="a" d="M346.39 276c-3.64 7.83-13.68 14.58-24.95 17 13.27-2.48 25.16-10.34 29.24-19.36 4.88-11-1.22-21.91-13.09-25.59s-28.43 3.81-37.54 17.78c-7.27 11.25-5.4 22.24 4.55 26.12-8.09-3.64-9.59-12.85-3.57-22.34 7.81-12.18 22.61-18.92 33.49-16s16.39 12.51 11.87 22.39z"/><path class="e" d="M339.57 269.08c4.11-8.21 1.92-16.29-3.94-21.31 7.23 5.58 10.23 14.85 5.61 24.33-5.52 11.51-23.2 21.13-39.12 19.88s-20.56-15.14-10.74-29.47c7.86-11.61 20.83-18.87 31.33-18.82-9 .35-19.85 6.64-26.37 16.44-8.42 12.51-4.49 24.72 9.14 26.1s29.01-6.84 34.09-17.15z"/><path class="a" d="M319 269c6.09-10.3 5.15-20.92-.42-27.81 7 7.72 8.6 20 1.72 31.87-8.23 14.47-29.83 25.44-47.66 22.48S252.1 274.38 266 256.8c11.16-14.25 27.2-22.6 38.9-21.78-10.17-.19-23.56 7.07-32.84 19.12-12 15.36-9.79 31.36 5.39 34.27S311.43 282 319 269z"/><path class="e" d="M303.54 274.46c-6.69 10.66-20 18.68-33.32 20.29 15.55-1.38 31.27-10.68 38.85-23 9.13-15.08 6.17-31.44-5.79-38s-33 1.88-47.9 19.9c-11.91 14.54-13.4 30-3.56 37-7.84-6.35-6.5-19.32 3.42-31.62 12.76-15.76 31.66-23.28 42.76-17.9s13.88 19.87 5.54 33.33z"/><path class="a" d="M288.38 276.32c-9.06 12.79-25.16 21.88-40.4 23 17.74-.69 36.7-11.22 47-26 12.41-18.14 11.71-38.54-.45-47.19s-37.07.48-56.79 21.67c-15.8 17.11-19.94 36-9.88 45.3-7.89-8.35-4.32-24.24 8.84-38.73 17-18.55 39.32-26.72 50.77-19.48s12.22 25.25.91 41.43z"/><path class="e" d="M284.28 262.56c9.87-13.22 12.09-27.65 8-37.33 5.4 10.91 3.44 27.66-7.8 43-13.52 18.69-40.71 30.6-59.76 24.27s-16.75-30.71 4.15-52.17c16.79-17.44 37.3-26.75 50.1-24.58-11.28-1.21-28.48 7-42.49 21.74-18 18.82-20.29 40.19-4.19 46.05s39.71-4.32 51.99-20.98z"/><path class="a" d="M269.93 258.49c12.63-15.35 17-32.49 13.89-44.19 4.38 13.22 0 33.15-14.39 51-17.31 21.74-49.13 34.63-69.74 26s-14.75-37.58 11.67-62c21.24-19.86 45.37-30 59.16-26.84-12.25-1.92-32.53 7-50.26 23.85C197.45 247.74 192 273.1 209.33 281s44.87-3.16 60.6-22.51z"/><path class="e" d="M248.41 264.12c-13.6 15.69-34 25.69-51.27 25.37 20 1.18 43.89-10.38 59.4-28.62 18.79-22.36 23.76-48.76 12.64-60.62s-41.49-2.45-69.41 22.27c-22.4 20-32.18 43.54-23.43 56.6-6.57-11.63 1.74-31.42 20.47-48.43 24.13-21.72 51.36-30.08 62.09-20s6.55 33.54-10.49 53.43z"/><path class="a" d="M238 263.33c-16.7 17.75-40.34 28.58-59.58 27.42 22.12 2.28 49.83-10.23 68.9-30.89 23.11-25.35 31.65-55.87 21.06-70-10.64-13.93-45.2-4.34-79.28 23.05-27.34 22.19-41 49.1-32.71 64.76-6-13.89 5.55-36.52 28.42-55.41 29.46-24.11 60.52-32.72 71-20.63s3.09 39.18-17.81 61.7z"/><path class="f" d="M148.64 172l-47.47 30.44a.9.9 0 0 0-.24.05 11.43 11.43 0 0 1-4.34 1 13.25 13.25 0 0 0 .4-4.08 2.34 2.34 0 1 0-1.86.26 11.39 11.39 0 0 1-.44 3.7 11.39 11.39 0 0 1-3.55-1.14 2.35 2.35 0 1 0-1 1.59 13.25 13.25 0 0 0 3.86 1.31 11.42 11.42 0 0 1-2.68 3.55.89.89 0 0 0-.15.2l-47.46 30.44a4.15 4.15 0 0 0-1.25 5.74l42.39 66.1 111.92-71.78-42.39-66.1a4.15 4.15 0 0 0-5.74-1.28zM96 205.33h.78l-1.13.72c.08-.25.2-.48.35-.72z"/><ellipse class="g" cx="83.28" cy="334.62" rx="28.86" ry="3.06"/><path class="a" d="M94.67 231.81L66.34 250a12.08 12.08 0 0 0-3.64 16.65 1.25 1.25 0 0 0 1.72.38l46.52-29.83a1.25 1.25 0 0 0 .38-1.72 12.08 12.08 0 0 0-16.65-3.67zM148.88 197l-28.33 18.17a12.08 12.08 0 0 0-3.64 16.65 1.25 1.25 0 0 0 1.72.38l46.52-29.83a1.25 1.25 0 0 0 .38-1.72 12.08 12.08 0 0 0-16.65-3.65z"/><path class="h" d="M170.13 195.26L55.52 268.77a9 9 0 0 0-2.72 12.43L71.27 310 201 226.78 182.56 198a9 9 0 0 0-12.43-2.74z"/><path class="i" d="M200.37 221.77l-133 85.31a2.42 2.42 0 0 0-.73 3.35l15 23.33a1.85 1.85 0 0 0 2.55.56l4-2.58a2.05 2.05 0 0 0 .84-2.36l-3.72-11.49a13.49 13.49 0 0 1 5.55-15.5l95.82-61.45a13.49 13.49 0 0 1 16.41 1.42l8.9 8.17a2.05 2.05 0 0 0 2.5.22l3.67-2.36a1.85 1.85 0 0 0 .56-2.55l-15-23.33a2.42 2.42 0 0 0-3.35-.74z"/><path class="j" d="M71.877 294.802l118.221-75.81 1.792 2.795-118.221 75.81z"/><rect class="k" x="165.89" y="231.46" width="7.89" height="4.99" rx="1.13" ry="1.13" transform="rotate(-32.67 169.852 233.96)"/><path class="l" d="M171.51 233.86l-2.45 1.57a.83.83 0 0 1-1.15-.25.83.83 0 0 1 .25-1.15l2.45-1.57a.83.83 0 0 1 1.15.25.83.83 0 0 1-.25 1.15z"/><path class="e" d="M239.21 242c18-18.12 27.26-39.14 26.86-53.72 1.4 16.52-8.63 41.08-29.17 62.2-24.78 25.82-63.34 38.72-84.13 25.75s-6.92-48.1 28.86-75.48c28.81-22.31 58.3-32.65 72.79-27.91-13.1-3.19-38 6-62.1 25-31 24.13-43.46 54.83-26.18 66.45s50.65.71 73.07-22.29z"/><path class="a" d="M232.58 234.69c21.39-20.09 33.69-43.74 34.92-60.27-.36 18.75-13.79 46.43-38.27 69.87-29.53 28.68-73.25 42-95.07 26.32s-2.86-55.29 39.6-84.92c34.2-24.18 67.67-34.87 82.85-29.09-13.86-4-42.14 5.61-70.78 26.25-36.76 26.17-53.76 60.69-35.76 74.7s55.8 2.56 82.51-22.86z"/><path class="e" d="M204.36 239.62c-22.78 20.28-51.54 31.34-72.6 28 24 5 57.64-7.76 83.74-31.45 31.7-29.13 48.65-65.42 40.44-82.74-8.3-17.13-48.91-8.25-93.44 21.29-35.78 24-57.52 55-52 74.83-3.36-17.48 15-43.57 45-64.07 38.59-26.11 75.1-34 83.67-18.93s-6.17 47.28-34.81 73.07z"/><path class="a" d="M197.18 234.79c-26.51 22.11-58.87 33.64-81.74 29.13 26 6.5 63.79-6.8 94.16-32.66 36.88-31.82 58.61-72 51.64-91.39-7.09-19.19-52.06-10.5-103.72 20.83-41.51 25.48-68.31 59.41-64 82-2.21-19.85 20.38-48.45 55.19-70.27C193.54 144.72 234 137 241.7 154c7.62 17.18-11.22 52.66-44.52 80.79z"/><path class="b" d="M193.83 188.2c-8.79.55-15.88.16-25.61.07 0-4.39.29-8.64.55-13.51 8.79-.55 15.88-.16 25.61-.08.03 4.45-.29 8.65-.55 13.52z"/><path class="c" d="M168.79 174.89c-.26 4.87-.58 9.07-.55 13.51 9.73.08 16.87.41 25.61-.08.26-4.87.58-9.07.55-13.51-9.75-.2-16.89-.53-25.61.08zm24.37 9.5a4.21 4.21 0 0 0-3.21 3.18c-5.79.17-11.13.12-17.35 0a3.93 3.93 0 0 0-3.31-2.88c.06-2 .13-3.91.24-5.94a4.21 4.21 0 0 0 3.21-3.18c5.79-.17 11.13-.12 17.35 0a4 4 0 0 0 3.31 2.87c-.06 1.96-.2 3.87-.24 5.94z"/><path class="c" d="M189.45 186.91c-5.48.17-10.57.08-16.34.06v-.12a4.57 4.57 0 0 0-2.88-2.58.17.17 0 0 0-.19 0c.06-1.64.12-3.28.16-5a.09.09 0 0 1 .12 0 4.61 4.61 0 0 0 2.85-2.8l.1-.14c5.48-.17 10.57-.08 16.34-.06v.12a4.57 4.57 0 0 0 2.88 2.58.18.18 0 0 0 .19 0c-.06 1.64-.12 3.28-.16 5h-.12a4.61 4.61 0 0 0-2.85 2.8.12.12 0 0 0-.1.14zm-16-.38c5.58 0 10.47.07 15.83-.08a5.43 5.43 0 0 1 2.9-2.87 61 61 0 0 0 .09-4.46 5.07 5.07 0 0 1-2.95-2.63c-5.58 0-10.47-.06-15.79 0a5.43 5.43 0 0 1-2.9 2.87c-.08 1.52-.12 3-.09 4.47a5.49 5.49 0 0 1 2.86 2.7z"/><path class="c" d="M175.24 179.79c-.46.21-.92.43-1.26.62a7.78 7.78 0 0 0-.28-1.14 17 17 0 0 0 1.77-.9 7.47 7.47 0 0 1 1.26 0v6.52a14 14 0 0 0-1.5 0c-.02-1.65.02-3.41.01-5.1zM183.79 181.6c0 2-.78 3.47-2.47 3.48s-2.43-1.54-2.46-3.35.78-3.47 2.42-3.41 2.48 1.47 2.51 3.28zm-3.43.09c0 1.5.37 2.25.92 2.2s.92-.74.89-2.24-.3-2.2-.92-2.2-.87.67-.88 2.24zM189.47 181.46c0 2-.92 3.37-2.59 3.5s-2.42-1.54-2.46-3.35.8-3.35 2.54-3.43c1.83.08 2.55 1.52 2.51 3.28zm-3.48.16c0 1.45.37 2.25.92 2.2s.92-.74 1-2.19-.3-2.2-.92-2.2-.99.69-.99 2.19z"/><path class="d" d="M168.79 174.89c-.17 2.41-.23 4.68-.37 6.9 9.27-.33 16.51-.15 25.78-.48.14-2.22.16-4.42.18-6.61-9.73-.09-16.87-.42-25.59.19z"/><path class="e" d="M206.58 206c28.23-22.26 47.31-49.35 52.59-68.44-4.85 21.71-26.11 53.55-58.52 79.62-39.18 32-90.45 44-110.9 23s9.76-65.81 63.61-96.55c43.43-25.15 82.81-35 98.09-27.41-14.27-5.43-47.68 3.54-84.13 25.11-46.73 27.28-73.61 66.34-57 84.75s60.92 8.19 96.26-20.08z"/><path class="a" d="M174.57 211c-32.15 23.88-69.2 35.24-93.59 28.61 27.5 9.11 70.78-4 107.66-32 44.84-34.5 74.6-78.95 70.26-100.8-4.52-21.58-54.73-14-116.12 18-49.37 26.14-84 62.91-82.62 89.11.54-22.87 29.7-53.89 71.16-76.38 53.3-28.52 98.49-35.07 104.1-15.79 5.46 19.51-20.42 58.81-60.85 89.25z"/><path class="e" d="M189.11 178.72c34.12-23.85 59-53.53 67.9-74.55-8.83 23.94-36.83 58.93-76 86.95-47.45 34.44-105.33 45.07-124.62 19.73s20.9-74.3 84.66-105.36c51.48-25.49 95.88-34.3 111.16-25.3-14.54-6.61-52.32 1.6-95.58 23.56-55.41 27.7-91 70.21-75.59 92.33s65.34 12.92 108.07-17.36z"/><path class="b" d="M257.79 107.3c-10.32-1.91-18.41-4.42-29.63-7.33 1.31-5.07 2.84-9.9 4.55-15.46 10.32 1.91 18.41 4.42 29.63 7.33-1.24 5.16-2.84 9.9-4.55 15.46z"/><path class="c" d="M232.7 84.65c-1.71 5.56-3.3 10.32-4.55 15.46 11.22 2.91 19.39 5.36 29.63 7.33 1.71-5.56 3.3-10.32 4.55-15.46-11.21-3.06-19.33-5.5-29.63-7.33zm25.43 18a5 5 0 0 0-4.64 2.75c-6.75-1.48-12.9-3.08-20.06-5a4.69 4.69 0 0 0-3-4.28c.64-2.24 1.28-4.48 2-6.79a5 5 0 0 0 4.64-2.75c6.75 1.48 12.9 3.08 20.06 5a4.71 4.71 0 0 0 3 4.28c-.64 2.28-1.35 4.44-2 6.83z"/><path class="c" d="M253.1 104.54c-6.39-1.39-12.25-3-18.91-4.67v-.15a5.45 5.45 0 0 0-2.58-3.82.21.21 0 0 0-.22-.09c.55-1.88 1.09-3.76 1.65-5.78a.1.1 0 0 1 .15 0 5.49 5.49 0 0 0 4.1-2.41l.15-.14c6.39 1.39 12.25 3 18.91 4.67v.15a5.44 5.44 0 0 0 2.58 3.82.21.21 0 0 0 .21.09c-.55 1.88-1.09 3.76-1.65 5.78h-.15a5.5 5.5 0 0 0-4.1 2.41.14.14 0 0 0-.14.14zm-18.45-5.08c6.45 1.61 12.09 3.11 18.33 4.49a6.48 6.48 0 0 1 4.18-2.48c.54-1.73 1-3.4 1.39-5.14a6 6 0 0 1-2.64-3.9c-6.45-1.61-12.09-3.11-18.25-4.56a6.48 6.48 0 0 1-4.18 2.48c-.54 1.73-1 3.4-1.39 5.14a6.54 6.54 0 0 1 2.57 3.96z"/><path class="c" d="M238.74 92.19c-.59.11-1.19.23-1.64.35a9.28 9.28 0 0 0 0-1.4 20.23 20.23 0 0 0 2.31-.53 8.91 8.91 0 0 1 1.45.38c-.66 2.53-1.24 5-1.9 7.53a16.75 16.75 0 0 0-1.74-.39c.49-1.96 1.04-3.98 1.52-5.94zM248.1 96.76c-.57 2.32-1.9 3.79-3.86 3.31s-2.36-2.48-1.87-4.59 1.9-3.79 3.78-3.24c2.04.41 2.44 2.42 1.95 4.52zm-4-.89c-.39 1.74-.23 2.71.43 2.82s1.28-.59 1.67-2.33.29-2.63-.43-2.81-1.19.51-1.65 2.32zM254.71 98.24c-.57 2.32-2 3.63-4 3.3s-2.36-2.49-1.87-4.59 1.9-3.64 3.93-3.23c2.08.63 2.49 2.49 1.94 4.52zm-4.07-.82c-.46 1.66-.23 2.71.43 2.82s1.28-.59 1.74-2.25.29-2.63-.43-2.82-1.38.51-1.74 2.25z"/><path class="d" d="M232.7 84.65c-.89 2.74-1.62 5.34-2.43 7.87 10.82 2.3 19.13 4.61 30 6.91.8-2.53 1.46-5.06 2.12-7.59-11.27-2.92-19.39-5.36-29.69-7.19z"/><path class="a" d="M183.8 165.82c38.32-25.31 67.27-57.14 78.59-79.7-11.57 25.72-44.16 63.31-88.2 93.08-53.27 36.65-116.67 46.8-135.93 18.1C19 168.46 66.35 116.13 137.81 84.47c57.71-26 106.15-34.33 121.6-24.35-14.9-7.41-56.17.45-104.68 23-62.12 28.35-104 73.85-88.79 98.76S135.82 198 183.8 165.82z"/><path class="e" d="M145.23 167.51C104.9 192.47 62 202.4 36.84 192.34c28 13.24 78.08 1.8 124.47-27.61 56.52-36.35 98.83-84.67 99.16-109 .07-24-56-19.34-130.19 11-59.71 24.89-105.93 63.45-110.37 93.91 5.77-26.4 44.68-59 94.94-80.55 64.53-27.23 115-31 116.67-9.26 1.48 21.98-35.52 64.78-86.29 96.68z"/><path class="a" d="M139.71 160.13C95 186.33 48.27 196.07 21.77 184.29c29.38 15.36 83.93 4.12 135.33-26.81C219.73 119.21 268.22 67.91 270.77 42c2.22-25.5-57.91-21.89-139.91 8.39C64.84 75.31 12.21 115.75 5.48 149c7.91-28.76 52.16-63 107.75-84.65 71.37-27.31 125.51-30.06 125.45-6.77-.3 23.57-42.68 69.04-98.97 102.55z"/><path class="b" d="M127 41.33c6.45-14.61 13-25.69 21.27-41.27 7 3.73 13.65 7.68 21.28 12.16-6.45 14.61-13 25.69-21.27 41.27-7.18-3.64-13.66-7.67-21.28-12.16z"/><path class="c" d="M169.33 12.17C161.7 7.68 155.22 3.66 148 0c-8.25 15.58-14.74 26.8-21.27 41.27 7.63 4.48 14.11 8.51 21.28 12.16 8.52-15.51 14.99-26.73 21.32-41.26zM133.7 43.45a7.63 7.63 0 0 0-2.44-7.83c4.57-9.46 9.1-18 14.5-27.92a7.13 7.13 0 0 0 7.39-2.92c3.09 1.74 6.18 3.47 9.35 5.35a7.63 7.63 0 0 0 2.43 7.87c-4.57 9.46-9.1 18-14.5 27.92A7.16 7.16 0 0 0 143 48.8c-3-1.74-6-3.55-9.3-5.35z"/><path class="c" d="M132.73 35.36c4.3-9 8.7-17.08 13.56-26.34l.21.07a8.28 8.28 0 0 0 6.56-2.47.32.32 0 0 0 .2-.29c2.59 1.47 5.17 2.94 8 4.47a.16.16 0 0 1-.06.22 8.35 8.35 0 0 0 2.13 6.92l.15.27c-4.3 9-8.7 17.08-13.56 26.34l-.22-.07a8.28 8.28 0 0 0-6.57 2.52.32.32 0 0 0-.21.29c-2.59-1.47-5.17-2.94-8-4.47l.06-.22a8.36 8.36 0 0 0-2.13-6.92.21.21 0 0 0-.12-.32zm14-25.51c-4.65 9-8.85 16.8-13.09 25.55a9.85 9.85 0 0 1 2.2 7.06c2.37 1.41 4.67 2.67 7.11 3.87a9.19 9.19 0 0 1 6.7-2.54c4.65-9 8.85-16.8 13.16-25.41a9.85 9.85 0 0 1-2.2-7.06c-2.38-1.41-4.68-2.67-7.11-3.87a9.94 9.94 0 0 1-6.76 2.41z"/><path class="c" d="M156 18.45c0-.92.08-1.84.06-2.55a14.13 14.13 0 0 0 2.06.5 30.78 30.78 0 0 0 0 3.6 13.54 13.54 0 0 1-1.07 2c-3.52-1.86-7-3.59-10.48-5.46a25.46 25.46 0 0 0 1.19-2.44c2.76 1.42 5.56 2.96 8.24 4.35zM146 30.7c-3.23-1.66-4.93-4.15-3.54-6.87s4.5-2.62 7.44-1.16 4.93 4.15 3.46 6.73c-1.36 2.87-4.42 2.76-7.36 1.3zm2.72-5.59c-2.44-1.2-3.92-1.29-4.32-.36s.42 2.1 2.86 3.3 3.78 1.36 4.32.36c.42-.79-.36-1.97-2.87-3.3zM141.49 39.95c-3.23-1.66-4.65-4.3-3.47-7.09 1.4-2.72 4.51-2.61 7.45-1.15s4.72 4.09 3.4 6.95c-1.68 2.87-4.58 2.83-7.38 1.29zm2.64-5.73c-2.3-1.27-3.92-1.29-4.32-.36s.42 2.1 2.72 3.37 3.78 1.36 4.32.36-.28-2.18-2.72-3.37z"/><path class="d" d="M169.33 12.17c-3.74-2.28-7.34-4.28-10.79-6.36C151.33 21 145 32.5 137.78 47.69c3.46 2.08 7 3.94 10.49 5.81 8.26-15.58 14.73-26.8 21.06-41.33z"/><path class="b" d="M50.61 170.15c-8.14 3.82-15 6.1-24.29 9.66-1.61-4.18-3-8.31-4.54-13 8.14-3.82 15-6.1 24.29-9.66 1.7 4.17 2.93 8.28 4.54 13z"/><path class="c" d="M21.85 166.89c1.58 4.72 2.84 8.83 4.54 13 9.27-3.57 16.17-5.93 24.29-9.66-1.58-4.72-2.84-8.83-4.54-13-9.33 3.45-16.24 5.77-24.29 9.66zm26.7-.11a4.3 4.3 0 0 0-1.86 4.22c-5.44 2.33-10.52 4.28-16.48 6.5A4 4 0 0 0 26 176c-.67-1.88-1.34-3.76-2-5.73a4.3 4.3 0 0 0 1.86-4.23c5.44-2.33 10.52-4.28 16.48-6.5a4 4 0 0 0 4.22 1.46c.67 1.93 1.25 3.79 1.99 5.78z"/><path class="c" d="M46 170.57c-5.14 2.22-10 4-15.5 6.17l-.07-.11a4.66 4.66 0 0 0-3.7-1.38.18.18 0 0 0-.19 0c-.56-1.58-1.11-3.16-1.73-4.85a.09.09 0 0 1 .11-.07 4.7 4.7 0 0 0 1.65-3.73v-.17c5.14-2.22 10-4 15.5-6.17l.07.11a4.66 4.66 0 0 0 3.7 1.37.18.18 0 0 0 .19 0c.56 1.58 1.11 3.16 1.73 4.85l-.11.07A4.71 4.71 0 0 0 46 170.4a.12.12 0 0 0 0 .17zm-15.38 5.65c5.29-2.09 10-3.86 15-6a5.55 5.55 0 0 1 1.67-3.81c-.49-1.48-1-2.86-1.59-4.27a5.18 5.18 0 0 1-3.78-1.4c-5.29 2.09-10 3.86-15 5.92a5.55 5.55 0 0 1-1.68 3.81c.49 1.48 1 2.86 1.59 4.27a5.6 5.6 0 0 1 3.76 1.48z"/><path class="c" d="M29.81 169.13c-.36.38-.72.75-1 1.06a8 8 0 0 0-.69-1 17.34 17.34 0 0 0 1.34-1.52 7.63 7.63 0 0 1 1.2-.46c.8 2.09 1.63 4.1 2.43 6.19a14.34 14.34 0 0 0-1.41.59c-.6-1.57-1.22-3.26-1.87-4.86zM38.61 167.64c.76 1.9.56 3.58-1 4.23s-2.88-.55-3.59-2.26-.56-3.58 1-4.14c1.6-.73 2.88.47 3.59 2.17zM35.39 169c.59 1.41 1.19 2 1.7 1.75s.6-1 0-2.46-1.1-2-1.7-1.75-.57.98 0 2.46zM43.95 165.38c.76 1.9.39 3.55-1.15 4.29s-2.88-.56-3.59-2.26-.49-3.48 1.13-4.21c1.77-.6 2.98.49 3.61 2.18zm-3.24 1.46c.51 1.39 1.19 2 1.7 1.75s.6-1 .09-2.44-1.1-2-1.7-1.75-.69 1.03-.09 2.44z"/><path class="d" d="M21.85 166.89c.75 2.35 1.53 4.53 2.23 6.69 8.68-3.79 15.62-6.33 24.3-10.12-.7-2.16-1.51-4.25-2.31-6.35-9.26 3.57-16.17 5.89-24.22 9.78z"/><path class="e" d="M166.63 121.78c47.1-25.64 85.49-59.16 102.87-83-18.37 27.26-62 67.06-116.23 97.4C87.5 173.68 16.45 179.44 2 144.55c-14.4-35.13 49.13-89.62 133.63-117.76C204 3.47 258-1.48 272.3 10.3 258 1.31 211.8 6.46 154.2 26.87 80.55 52.37 24.64 99.6 35.48 129.61c10.82 29.85 72.08 24.95 131.15-7.83z"/></svg>