<svg xmlns="http://www.w3.org/2000/svg" width="1018.86" height="447.68" viewBox="0 0 1018.86 447.68"><defs><style>.a{fill:url(#a)}.b,.c,.f,.j{fill:none;stroke-miterlimit:10}.b,.f{stroke:#baedff}.b,.e,.u{opacity:.5}.c{stroke:#e6e6e6;stroke-width:5.94px}.d{fill:#e6e6e6}.g{opacity:.15}.h{fill:#f2f2f2}.ai,.i{opacity:.05}.j{stroke:#f6504f;stroke-width:3px}.k{font-size:72px;font-family:Bebas Neue;font-weight:700}.k,.l{fill:#f6504f}.m{fill:#333}.n{fill:#ddd}.o{fill:#ebebeb}.p{fill:#fafafa}.q{fill:url(#b)}.r,.u,.x{fill:#fff}.r{opacity:.2}.s{fill:#666}.t{mask:url(#c)}.v{fill:#fafaff}.w{fill:#f9aa3c}.y{fill:#f5d037}.z{fill:#5bc4bd}.aa{fill:#ec6f20}.ab{opacity:.1}.ac{fill:#d65735}.ad{fill:#91a820}.ae{fill:#fbcc8a}.af{fill:#fdddb1}.ag{fill:#d9e5b7}.ah{fill:#09632d}.ai{isolation:isolate}.aj{fill:#2e56a4}</style><linearGradient id="a" x1="523.53" y1="300.58" x2="524.86" y2="302.89" gradientUnits="userSpaceOnUse"><stop offset="0" stop-color="#fff"/><stop offset="1"/></linearGradient><linearGradient id="b" x1="503.48" y1="426.68" x2="503.48" y2="307.63" gradientUnits="userSpaceOnUse"><stop offset="0" stop-color="#267bb9"/><stop offset="1" stop-color="#46c7f4"/></linearGradient><mask id="c" x="522.43" y="300.28" width="4.02" height="3.69" maskUnits="userSpaceOnUse"><path class="a" d="M526.45 301.2a2.22 2.22 0 0 0-4 1.3 2.26 2.26 0 0 0 .55 1.5 4.26 4.26 0 0 1 3.45-2.8z"/></mask></defs><title>MAH-purchases</title><path class="b" d="M273.25 232.45V5"/><path class="c" d="M177.27 357.12a49.34 49.34 0 0 0 96.11-15.67V213.63"/><path class="d" d="M177.94 358.82c5.43 3.73 14.89 4.25 21.2 3.27-9.6-4.72-20.29-11.52-26.24-20.64.48 14.32 1.75 22.95 5.04 17.37zM273.25 261.22a6 6 0 0 1-6-6v-36.58a6 6 0 0 1 6-6 6 6 0 0 1 6 6v36.57a6 6 0 0 1-6 6.01z"/><g class="e"><path class="f" d="M272.51 214c-1.92 1-5.8.62-8.67-.95s-3.65-3.69-1.73-4.73 5.8-.62 8.67.95 3.65 3.65 1.73 4.73z"/><path class="f" d="M274 214c1.92 1 5.8.62 8.67-.95s3.65-3.69 1.73-4.73-5.8-.62-8.67.95-3.66 3.65-1.73 4.73zM272.51 213.96l-8.2 8.61M274.1 213.96l8.2 8.61"/></g><ellipse class="g" cx="274.04" cy="422.83" rx="67.53" ry="7.16"/><path class="h" d="M325.08 294.82a49.15 49.15 0 0 0-16.61-10.13L293.92 280c-1.11 9.22-9.58 16.39-19.88 16.39s-18.77-7.17-19.88-16.39l-14.57 4.66A49 49 0 0 0 223 294.8l-27.07 27.08L216 342.32l14.07-14.22v93.8c0 2 19.68 3.57 44 3.57s44-1.6 44-3.57v-93.81l14.07 14.22 20.05-20.44z"/><path class="i" d="M325.08 294.82a50.74 50.74 0 0 0-16.61-10.13c-15-5.08-16-4.78-16-4.78-1.1 8.94-9.56 15-18.41 15v130.56c24.28 0 44-1.6 44-3.57v-93.81l14.07 14.22 20.05-20.44z"/><path class="j" d="M293.92 280c-1.11 9.22-9.58 16.39-19.88 16.39s-18.77-7.17-19.88-16.39"/><text class="k" transform="translate(259.79 376.9)">7</text><path class="l" d="M274 422.47c-24.28 0-44-1.6-44-3.57v3c0 2 19.68 3.57 44 3.57s44-1.6 44-3.57v-3c0 1.97-19.67 3.57-44 3.57zM217.51 340.8l-1.51 1.49-.71-.7c.84-.86-.85-5.88-7-12.05-4.91-4.95-9.16-7.21-11-7.21a1 1 0 0 0-.68.2l-.68-.68 1.51-1.51c2.88.09 7.69 3.14 12.31 7.8 4.25 4.27 7.71 9.41 7.76 12.66zM330.78 341.08l1.48 1.49.71-.7c-.84-.86.85-5.89 7-12.07 4.92-5 9.18-7.22 11.06-7.22a1 1 0 0 1 .68.2l.68-.68-1.51-1.51c-2.89.09-7.7 3.15-12.33 7.81-4.27 4.28-7.72 9.43-7.77 12.68z"/><path class="m" d="M202.9 335.28c5.6 5.65 11.39 8.77 13.13 7s-1.35-7.8-7-13.45-11.39-8.77-13.13-7 1.59 7.79 7 13.45zM352.19 321.9c-1.74-1.75-7.52 1.36-13.11 7s-8.68 11.7-6.94 13.45 7.52-1.36 13.11-7c5.4-5.65 8.68-11.69 6.94-13.45z"/><path class="b" d="M503.25 253.45V26"/><path class="c" d="M407.27 378.12a49.34 49.34 0 0 0 96.11-15.67V234.63"/><path class="d" d="M407.94 379.82c5.43 3.73 14.89 4.25 21.2 3.27-9.6-4.72-20.29-11.52-26.24-20.64.48 14.32 1.75 22.95 5.04 17.37z"/><rect class="d" x="497.25" y="233.64" width="12.01" height="48.58" rx="6" ry="6"/><g class="e"><path class="f" d="M502.51 235c-1.92 1-5.8.62-8.67-.95s-3.65-3.69-1.73-4.73 5.8-.62 8.67.95 3.65 3.65 1.73 4.73z"/><path class="f" d="M504 235c1.92 1 5.8.62 8.67-.95s3.65-3.69 1.73-4.73-5.8-.62-8.67.95-3.66 3.65-1.73 4.73zM502.51 234.96l-8.2 8.61M504.1 234.96l8.2 8.61"/></g><rect class="n" x="543.46" y="310.36" width="1.82" height="12.72" rx=".83" ry=".83"/><rect class="n" x="543.46" y="324.9" width="1.82" height="21.81" rx=".83" ry=".83"/><rect class="n" x="461.67" y="397.6" width="1.82" height="12.72" rx=".83" ry=".83"/><ellipse class="g" cx="503.48" cy="441.42" rx="60.38" ry="6.25"/><rect class="o" x="462.58" y="295.82" width="81.79" height="145.4" rx="1.82" ry="1.82"/><rect class="p" x="463.49" y="296.73" width="79.97" height="143.59" rx=".91" ry=".91"/><path class="o" d="M464.4 306.72h78.15v120.87H464.4z"/><path class="q" d="M465.31 307.63h76.34v119.05h-76.34z"/><path class="r" d="M465.31 307.63h76.34v119.05l-76.34-119.05z"/><path d="M542.56 295.82h-39.08v145.4h39.08a1.82 1.82 0 0 0 1.82-1.82V297.64a1.82 1.82 0 0 0-1.82-1.82z" class="i"/><path class="s" d="M512.57 298.55h-18.18l-4.54-1.82h27.26l-4.54 1.82z"/><circle class="s" cx="524.64" cy="302.49" r="2.22"/><g class="t"><path class="u" d="M526.45 301.2a2.22 2.22 0 0 0-4 1.3 2.26 2.26 0 0 0 .55 1.5 4.26 4.26 0 0 1 3.45-2.8z"/></g><path class="s" d="M481.65 303.09a.91.91 0 0 1-.91.91H478a.91.91 0 0 1-.91-.91.91.91 0 0 1 .91-.91h2.73a.91.91 0 0 1 .91.91zM485.52 303.09a.8.8 0 0 1-.59.91h-1.78a.8.8 0 0 1-.59-.91.8.8 0 0 1 .59-.91h1.78a.8.8 0 0 1 .59.91z"/><rect class="o" x="496.21" y="429.41" width="14.54" height="9.09" rx="1.92" ry="1.92"/><path class="v" d="M498.13 430.32h10.69a1 1 0 0 1 1 1v5.24a1 1 0 0 1-1 1h-10.69a1 1 0 0 1-1-1v-5.24a1 1 0 0 1 1-1z"/><rect class="o" x="501.66" y="432.14" width="3.64" height="3.64" rx=".91" ry=".91"/><path class="p" d="M502.57 433.05h1.82v1.82h-1.82z"/><path class="b" d="M736.07 227.45V0"/><path class="c" d="M640.1 352.12a49.34 49.34 0 0 0 96.11-15.67V208.63"/><path class="d" d="M640.76 353.82c5.43 3.73 14.89 4.25 21.2 3.27-9.6-4.72-20.29-11.52-26.24-20.64.48 14.32 1.76 22.95 5.04 17.37z"/><rect class="d" x="730.07" y="207.64" width="12.01" height="48.58" rx="6" ry="6"/><g class="e"><path class="f" d="M735.34 209c-1.92 1-5.8.62-8.67-.95s-3.65-3.69-1.73-4.73 5.8-.62 8.67.95 3.65 3.65 1.73 4.73z"/><path class="f" d="M736.81 209c1.92 1 5.8.62 8.67-.95s3.65-3.69 1.73-4.73-5.8-.62-8.67.95-3.65 3.65-1.73 4.73zM735.34 208.96l-8.21 8.61M736.92 208.96l8.21 8.61"/></g><ellipse class="g" cx="709.18" cy="400.91" rx="95.57" ry="7.83"/><path class="w" d="M647.34 400.27l-24.72-100.75h49.45l-24.73 100.75z"/><path class="x" d="M647.34 400.27l-16.07-65.49h32.14l-16.07 65.49z"/><circle class="y" cx="647.34" cy="277.48" r="23.18"/><circle class="z" cx="625.08" cy="299.52" r="23.18"/><circle class="aa" cx="664.22" cy="299.52" r="23.18"/><path class="ab" d="M670.51 277.22a23.18 23.18 0 0 0-23.17-22.92v146l19.06-77.68a23.17 23.17 0 0 0 4.11-45.4z"/><path class="w" d="M797.76 353.39a41.48 41.48 0 0 0-41.44-39.64h-36.87A41.48 41.48 0 0 0 678 353.39h119.76z"/><rect class="ac" x="677.9" y="362" width="120" height="17" rx="8.01" ry="8.01"/><rect class="ad" x="680.9" y="351" width="111" height="6" rx="2.11" ry="2.11"/><rect class="ae" x="672.9" y="356" width="127" height="6" rx="2.39" ry="2.39"/><rect class="ad" x="680.9" y="377" width="111" height="6" rx="2.11" ry="2.11"/><path class="w" d="M677.21 383.4a17.7 17.7 0 0 0 17.67 16.87h86a17.7 17.7 0 0 0 17.67-16.87H677.21z"/><circle class="af" cx="696.87" cy="340.13" r="2.03"/><circle class="af" cx="713.44" cy="328.41" r="2.44"/><circle class="af" cx="727.07" cy="338.1" r="2.01"/><circle class="af" cx="767.62" cy="343.98" r="1.47"/><path class="ab" d="M797.13 357.06h-6.77a2.11 2.11 0 0 0 2.11-2.11v-1.42-.13h5.3a41.48 41.48 0 0 0-41.44-39.64h-20.27v86.52h44.84a17.7 17.7 0 0 0 17.67-16.87h-6.91a2.1 2.1 0 0 0 .82-1.66v-1.42a2.09 2.09 0 0 0-.26-1 8 8 0 0 0 5.9-7.72v-.9a8 8 0 0 0-8-8h7a2.39 2.39 0 0 0 2.39-2.39v-.85a2.39 2.39 0 0 0-2.38-2.41z"/><circle class="af" cx="754.34" cy="325.04" r="2.21"/><circle class="af" cx="742.47" cy="334.56" r="1.05"/><circle class="af" cx="754.57" cy="340.75" r="1.45"/><circle class="af" cx="777.4" cy="330.74" r="1.05"/><path class="ag" d="M295.89 186.26c-16.15 1-29.17.29-47 .14.07-8.06.53-15.86 1-24.81 16.15-1 29.17-.29 47-.14.11 8.15-.52 15.86-1 24.81z"/><path class="ah" d="M249.91 161.8c-.48 9-1.07 16.66-1 24.82 17.87.15 31 .75 47-.14.47-9 1.07-16.66 1-24.81-17.91-.38-30.99-.98-47 .13zm44.76 17.44a7.73 7.73 0 0 0-5.9 5.85c-10.64.31-20.44.23-31.87 0a7.22 7.22 0 0 0-6.07-5.28c.12-3.59.24-7.18.44-10.9a7.73 7.73 0 0 0 5.9-5.85c10.64-.31 20.44-.23 31.87 0a7.26 7.26 0 0 0 6.07 5.28c-.11 3.59-.37 7.09-.44 10.9z"/><path class="ah" d="M287.85 183.88c-10.07.32-19.42.15-30 .1v-.22a8.39 8.39 0 0 0-5.28-4.74.32.32 0 0 0-.35 0c.11-3 .23-6 .3-9.26a.16.16 0 0 1 .22 0 8.46 8.46 0 0 0 5.23-5.14l.18-.26c10.07-.32 19.42-.15 30-.1v.22a8.39 8.39 0 0 0 5.28 4.74.32.32 0 0 0 .35.05c-.11 3-.23 6-.3 9.26h-.22a8.47 8.47 0 0 0-5.23 5.14.22.22 0 0 0-.18.21zm-29.47-.69c10.24 0 19.24.12 29.08-.15a10 10 0 0 1 5.32-5.27c.16-2.79.22-5.45.16-8.2a9.31 9.31 0 0 1-5.41-4.84c-10.24 0-19.24-.12-29 0a10 10 0 0 1-5.32 5.27c-.15 2.79-.22 5.45-.16 8.2a10.07 10.07 0 0 1 5.32 4.99z"/><path class="ah" d="M261.76 170.81c-.85.39-1.69.78-2.32 1.14a14.31 14.31 0 0 0-.51-2.09 31.16 31.16 0 0 0 3.25-1.66 13.74 13.74 0 0 1 2.31 0v12a25.79 25.79 0 0 0-2.75.07c-.04-3.12.04-6.36.02-9.46zM277.46 174.13c0 3.68-1.43 6.37-4.53 6.39s-4.46-2.83-4.51-6.15 1.43-6.37 4.44-6.26c3.19-.11 4.55 2.7 4.6 6.02zm-6.29.17c.06 2.75.67 4.13 1.69 4s1.69-1.36 1.63-4.11-.54-4-1.69-4c-.93-.05-1.61 1.23-1.63 4.11zM287.88 173.87c0 3.68-1.69 6.19-4.75 6.43-3.1 0-4.45-2.83-4.51-6.16s1.47-6.15 4.66-6.3c3.37.16 4.72 2.79 4.6 6.03zm-6.38.3c-.07 2.66.68 4.13 1.7 4s1.7-1.36 1.76-4-.54-4-1.7-4-1.83 1.25-1.76 4z"/><path class="ai" d="M249.91 161.8c-.31 4.43-.43 8.6-.69 12.67 17-.61 30.33-.28 47.35-.89.26-4.08.29-8.11.32-12.14-17.89-.15-30.97-.75-46.98.36z"/><path class="ag" d="M758.89 156.26c-16.15 1-29.17.29-47 .14.07-8.06.53-15.86 1-24.81 16.15-1 29.17-.29 47-.14.11 8.15-.52 15.86-1 24.81z"/><path class="ah" d="M712.91 131.8c-.48 9-1.07 16.66-1 24.82 17.87.15 31 .75 47-.14.47-9 1.07-16.66 1-24.81-17.91-.38-30.99-.98-47 .13zm44.76 17.44a7.73 7.73 0 0 0-5.9 5.85c-10.64.31-20.44.23-31.87 0a7.22 7.22 0 0 0-6.07-5.28c.12-3.59.24-7.18.44-10.9a7.73 7.73 0 0 0 5.9-5.85c10.64-.31 20.44-.23 31.87 0a7.26 7.26 0 0 0 6.08 5.28c-.12 3.59-.38 7.09-.45 10.9z"/><path class="ah" d="M750.85 153.88c-10.07.32-19.42.15-30 .1v-.22a8.39 8.39 0 0 0-5.28-4.74.32.32 0 0 0-.35 0c.11-3 .23-6 .3-9.26a.16.16 0 0 1 .22 0 8.46 8.46 0 0 0 5.23-5.14l.18-.26c10.07-.32 19.42-.15 30-.1v.22a8.39 8.39 0 0 0 5.28 4.74.32.32 0 0 0 .35.05c-.11 3-.23 6-.3 9.26h-.22a8.47 8.47 0 0 0-5.23 5.14.22.22 0 0 0-.18.21zm-29.47-.69c10.24 0 19.24.12 29.08-.15a10 10 0 0 1 5.32-5.27c.16-2.79.22-5.45.16-8.2a9.31 9.31 0 0 1-5.41-4.84c-10.24 0-19.24-.12-29 0a10 10 0 0 1-5.32 5.27c-.15 2.79-.22 5.45-.16 8.2a10.07 10.07 0 0 1 5.32 4.99z"/><path class="ah" d="M724.76 140.81c-.85.39-1.69.78-2.32 1.14a14.31 14.31 0 0 0-.51-2.09 31.16 31.16 0 0 0 3.25-1.66 13.74 13.74 0 0 1 2.31 0v12a25.79 25.79 0 0 0-2.75.07c-.04-3.12.04-6.36.02-9.46zM740.46 144.13c0 3.68-1.43 6.37-4.53 6.39s-4.46-2.83-4.51-6.15 1.43-6.37 4.44-6.26c3.19-.11 4.55 2.7 4.6 6.02zm-6.29.17c.06 2.75.67 4.13 1.69 4s1.69-1.36 1.63-4.11-.54-4-1.69-4c-.93-.05-1.61 1.23-1.63 4.11zM750.88 143.87c0 3.68-1.69 6.19-4.75 6.43-3.1 0-4.45-2.83-4.51-6.16s1.47-6.15 4.66-6.3c3.37.16 4.72 2.79 4.6 6.03zm-6.38.3c-.07 2.66.68 4.13 1.7 4s1.7-1.36 1.76-4-.54-4-1.7-4-1.83 1.25-1.76 4z"/><path class="ai" d="M712.91 131.8c-.31 4.43-.43 8.6-.69 12.67 17-.61 30.33-.28 47.35-.89.26-4.08.29-8.11.32-12.14-17.89-.15-30.97-.75-46.98.36z"/><path class="ag" d="M525.89 217.26c-16.15 1-29.17.29-47 .14.07-8.06.53-15.86 1-24.81 16.15-1 29.17-.29 47-.14.11 8.15-.52 15.86-1 24.81z"/><path class="ah" d="M479.91 192.8c-.48 9-1.07 16.66-1 24.82 17.87.15 31 .75 47-.14.47-9 1.07-16.66 1-24.81-17.91-.38-30.99-.98-47 .13zm44.76 17.44a7.73 7.73 0 0 0-5.9 5.85c-10.64.31-20.44.23-31.87 0a7.22 7.22 0 0 0-6.07-5.28c.12-3.59.24-7.18.44-10.9a7.73 7.73 0 0 0 5.9-5.85c10.64-.31 20.44-.23 31.87 0a7.26 7.26 0 0 0 6.08 5.28c-.12 3.59-.38 7.09-.45 10.9z"/><path class="ah" d="M517.85 214.88c-10.07.32-19.42.15-30 .1v-.22a8.39 8.39 0 0 0-5.28-4.74.32.32 0 0 0-.35 0c.11-3 .23-6 .3-9.26a.16.16 0 0 1 .22 0 8.46 8.46 0 0 0 5.23-5.14l.18-.26c10.07-.32 19.42-.15 30-.1v.22a8.39 8.39 0 0 0 5.28 4.74.32.32 0 0 0 .35.05c-.11 3-.23 6-.3 9.26h-.22a8.47 8.47 0 0 0-5.23 5.14.22.22 0 0 0-.18.21zm-29.47-.69c10.24 0 19.24.12 29.08-.15a10 10 0 0 1 5.32-5.27c.16-2.79.22-5.45.16-8.2a9.31 9.31 0 0 1-5.41-4.84c-10.24 0-19.24-.12-29 0a10 10 0 0 1-5.32 5.27c-.15 2.79-.22 5.45-.16 8.2a10.07 10.07 0 0 1 5.32 4.99z"/><path class="ah" d="M491.76 201.81c-.85.39-1.69.78-2.32 1.14a14.31 14.31 0 0 0-.51-2.09 31.16 31.16 0 0 0 3.25-1.66 13.74 13.74 0 0 1 2.31 0v12a25.79 25.79 0 0 0-2.75.07c-.04-3.12.04-6.36.02-9.46zM507.46 205.13c0 3.68-1.43 6.37-4.53 6.39s-4.46-2.83-4.51-6.15 1.43-6.37 4.44-6.26c3.19-.11 4.55 2.7 4.6 6.02zm-6.29.17c.06 2.75.67 4.13 1.69 4s1.69-1.36 1.63-4.11-.54-4-1.69-4c-.93-.05-1.61 1.23-1.63 4.11zM517.88 204.87c0 3.68-1.69 6.19-4.75 6.43-3.1 0-4.45-2.83-4.51-6.16s1.47-6.15 4.66-6.3c3.37.16 4.72 2.79 4.6 6.03zm-6.38.3c-.07 2.66.68 4.13 1.7 4s1.7-1.36 1.76-4-.54-4-1.7-4-1.83 1.25-1.76 4z"/><path class="ai" d="M479.91 192.8c-.31 4.43-.43 8.6-.69 12.67 17-.61 30.33-.28 47.35-.89.26-4.08.29-8.11.32-12.14-17.89-.15-30.97-.75-46.98.36z"/><path class="aj" d="M843.51 176.85l-21.5-11a24.17 24.17 0 1 1 2.35 25.8z"/><path class="aj" d="M872 176.85l3.83-2a4.31 4.31 0 1 0-.42 4.6z"/><circle class="x" cx="838.15" cy="162.14" r="1.83"/><path class="aj" d="M993.08 308.77l-17.18-8.83a19.31 19.31 0 1 1 1.88 20.61z"/><path class="aj" d="M1015.8 308.77l3.06-1.57a3.44 3.44 0 1 0-.34 3.67z"/><circle class="x" cx="988.79" cy="297.02" r="1.46"/><path class="aj" d="M383.53 281.8l16.61-8.53a18.68 18.68 0 1 0-1.82 19.93z"/><path class="aj" d="M361.56 281.8l-3-1.52a3.33 3.33 0 1 1 .32 3.55z"/><circle class="x" cx="387.68" cy="270.43" r="1.42"/><path class="aj" d="M24.94 352l16.61-8.53a18.68 18.68 0 1 0-1.82 19.93z"/><path class="aj" d="M3 352l-3-1.52A3.33 3.33 0 1 1 .32 354z"/><circle class="x" cx="29.08" cy="340.62" r="1.42"/></svg>