<svg xmlns="http://www.w3.org/2000/svg" width="687.87" height="369.72" viewBox="0 0 687.87 369.72"><defs><style>.a{opacity:.15}.ah,.b,.i,.j,.m{fill:none;stroke-miterlimit:10}.b{stroke:#1a1a1a;stroke-linecap:round}.b,.i{stroke-width:15.36px}.c{fill:#f5be82}.d{fill:#333}.e{fill:#ffc687}.f{fill:#ffaf73}.g{opacity:.1}.g,.p{isolation:isolate}.h,.s,.v{fill:#fff}.i{stroke:#000}.j{stroke:#ffaf73;stroke-width:1.77px}.k{fill:#700d11}.l{fill:#f57b71}.m{stroke:#534741;stroke-width:3px}.n{fill:#d9e5b7}.o{fill:#09632d}.p{opacity:.05}.q{fill:#30446a}.r{fill:#f7f36b}.s{opacity:.2}.t,.z{fill:#f4c44e}.u,.x{fill:#f2f2f2}.u,.v,.w,.z{fill-rule:evenodd}.w,.y{fill:#ffd65c}.aa{fill:#ccc}.ab{fill:#5fa9ff}.ac{fill:#4d4d4d}.ad{fill:#ffd727}.ae{fill:#ed5641}.af{fill:#e6e6e6}.ag{fill:#1a1a1a}.ah{stroke:#e6e6e6;stroke-width:2px}</style></defs><title>MAH-theft</title><ellipse class="a" cx="95.57" cy="361.88" rx="95.57" ry="7.83"/><path class="b" d="M127.75 168.9s-25 68.48 58.35 58.15"/><path class="c" d="M187.19 233.55s10.16 3.48 14.63-.4 3.83-13 0-17.84c-3.89-4.16-9.81-4-10.4-2.85-1-2.19-3.32-4.88-6.26-1.79s-4.34 8-3.54 11.44 5.57 11.44 5.57 11.44z"/><path class="d" d="M76.08 238s12.69-56 37.07-71.82 55.25 18.35 55.25 18.35-9.18 21.82-9.19 29.13-3.13 39.94-11.84 44.48-52.37-1.77-57.06-4.67S76.08 238 76.08 238z"/><path d="M113.09 248.72c-15.3-3.72-28.62-8.63-36.47-13.19a9.37 9.37 0 0 0-2.11 3.77c-2.26 9.35 13.09 21.24 34.45 26.42s40.43 1.87 42.69-7.59a8.48 8.48 0 0 0-.12-4.3c-9.14.43-23.14-1.4-38.44-5.11zM132.4 342.74s-14.71 2.2-6.7 15c5.29 6.38 26.56 7.9 30.24 6.52s3.88-15.59-13.33-15.72z"/><path class="e" d="M129.76 130c-1.82 9.27-8.36 15.84-14.43 14.59s-9.54-9.79-7.61-19.05 8.26-15.85 14.43-14.59 9.44 9.77 7.61 19.05z"/><path class="f" d="M126.77 129.63c-1.1 5.22-5.13 8.79-9.19 8.07s-6.51-5.67-5.4-11 5.14-8.79 9.19-8.07 6.5 5.68 5.4 11z"/><path class="e" d="M110.3 169.6l50.48 26.19 5.05-7s36.24-19.17 40.65-58.73c0 0 5.93-23.69-6.82-43.09S141.2 75.24 141.2 75.24l-15.66-.72z"/><path class="g" d="M114.22 144.28l-3 22.36 55.22 21.67c19.44-9 32.16-33.12 32.51-33.85-5.92 7.25-15.14 6.72-31.74.79s-52.87-11.08-52.99-10.97zM155 157.7c.64-2.12 6.13-2.4 12.28-.62s10.62 5.11 10 7.23-7.25 3.43-13.4 1.64-9.49-6.13-8.88-8.25z"/><ellipse class="d" cx="162.56" cy="120.32" rx="6.98" ry="3.22" transform="rotate(-82.36 162.572 120.317)"/><ellipse class="h" cx="162.74" cy="116.35" rx="1.5" ry="1.29" transform="rotate(-76.26 162.732 116.35)"/><ellipse class="d" cx="190.59" cy="121.57" rx="6.66" ry="3.11" transform="rotate(-82.37 190.6 121.57)"/><path class="i" d="M132.8 261.77s10.2 23.95 9.2 45.95-6.7 44.13-6.7 44.13"/><path d="M76.31 333.36s-14.79-1.6-10.28 12.8c3.51 7.51 23.69 14.37 27.61 14s7.7-14.1-8.91-18.58z"/><path class="i" d="M93 251.85S105.75 278 104.75 300s-26.42 41.25-26.42 41.25"/><ellipse class="h" cx="190.89" cy="117.89" rx="1.5" ry="1.18" transform="rotate(-76.29 190.892 117.888)"/><path class="j" d="M178.32 134.81s11.36 7.72 9.16 13.43c-1.05 4.25-6.69.66-6.69.66"/><path class="k" d="M108.89 165.34s49.81 22.18 62.9 24.83c-6.36 7.44-8.34 12.94-8.38 16.16 0 0-48.79-32.56-55.66-34.92z"/><path d="M117.52 113.4c-14-2-7.24-34-2.52-40.74 5.4-7.7 35.14-7.08 44.77-8.46 10.5-1.56 45.12-4.25 54.13.68 26.94 14.79-87.73 49.78-96.38 48.52z"/><path class="l" d="M175.3 163.15a12.79 12.79 0 0 1-7.51-.24 6.34 6.34 0 0 1-2.81-2 41.26 41.26 0 0 0-3.08-3c-.41-.34-1.63-2-2.19-1.39a4 4 0 0 0-.18 1.6 5.86 5.86 0 0 0 .43 2.38c1 3 4 4.48 7 4.94a11 11 0 0 0 5.29-.51c.61-.18 3.66-1.11 3.05-1.78z"/><path class="m" d="M193.52 108.21l-9.14 9.57M163.3 106.39l6.28 10.71"/><path class="j" d="M139 125.14s-3.24 19 9.55 23.55M141.61 129.24l-6.19 1.44M141.33 135.35l-4.3 2.38M144.49 141.52l-5.27 2.33M147.47 144.45l-4.82 4.29"/><path class="n" d="M181.91 219.67c7.87-7.49 14.89-12.74 24.15-20.37 3.44 4.18 6.57 8.39 10.19 13.21-7.87 7.49-14.89 12.74-24.15 20.37-3.55-4.17-6.58-8.4-10.19-13.21z"/><path class="o" d="M216.13 212.42c-3.62-4.81-6.64-9-10.19-13.21-9.26 7.63-16.27 13-24.15 20.37 3.62 4.81 6.64 9 10.19 13.21 9.38-7.54 16.39-12.9 24.15-20.37zm-30.57 10.33a5.19 5.19 0 0 0 .51-5.56c5.34-4.75 10.42-8.93 16.41-13.75a4.85 4.85 0 0 0 5.41.1c1.49 1.9 3 3.8 4.47 5.8a5.19 5.19 0 0 0-.51 5.56c-5.34 4.75-10.42 8.93-16.41 13.75a4.87 4.87 0 0 0-5.4-.1c-1.49-1.9-2.87-3.8-4.48-5.8z"/><path class="o" d="M187.07 217.42c5-4.51 9.93-8.45 15.4-13l.12.1a5.64 5.64 0 0 0 4.76.16.22.22 0 0 0 .2-.13c1.24 1.6 2.48 3.2 3.84 4.9a.11.11 0 0 1-.1.12 5.68 5.68 0 0 0-.47 4.9v.21c-5 4.51-9.93 8.46-15.4 13l-.12-.1a5.63 5.63 0 0 0-4.76-.16.22.22 0 0 0-.2.13c-1.24-1.6-2.48-3.2-3.84-4.9l.1-.12a5.69 5.69 0 0 0 .47-4.9.15.15 0 0 0 0-.21zm15.47-12.36c-5.27 4.42-10 8.24-14.9 12.63a6.7 6.7 0 0 1-.46 5c1.12 1.5 2.24 2.9 3.46 4.29a6.26 6.26 0 0 1 4.87.15c5.27-4.42 10-8.24 14.91-12.52a6.7 6.7 0 0 1 .46-5 72.81 72.81 0 0 0-3.46-4.29 6.77 6.77 0 0 1-4.88-.26z"/><path class="o" d="M206.14 212.89c.27-.57.53-1.13.7-1.58a9.6 9.6 0 0 0 1.17.86 20.91 20.91 0 0 0-1 2.26 9.22 9.22 0 0 1-1.2 1c-1.72-2.09-3.43-4.07-5.16-6.17a17.36 17.36 0 0 0 1.39-1.22c1.4 1.56 2.76 3.26 4.1 4.85zM196.63 218c-1.6-1.89-2-3.89-.43-5.24s3.51-.47 5 1.22 2 3.89.42 5.14c-1.62 1.41-3.53.52-4.99-1.12zm3.17-2.8c-1.22-1.39-2.13-1.84-2.62-1.35s-.29 1.43.93 2.82 2 1.84 2.62 1.35.27-1.37-.94-2.86zM191.38 222.59c-1.59-1.89-1.8-3.92-.33-5.36s3.51-.46 5 1.22 1.9 3.8.32 5.25c-1.83 1.38-3.64.59-4.99-1.11zm3.16-2.91c-1.11-1.4-2.13-1.83-2.62-1.35s-.29 1.43.83 2.83 2 1.84 2.62 1.35.38-1.44-.84-2.83z"/><path class="p" d="M216.13 212.42c-1.76-2.41-3.49-4.61-5.12-6.82-8.5 7.66-15.49 13.23-24 20.89 1.63 2.21 3.35 4.3 5.07 6.39 9.28-7.63 16.29-12.99 24.05-20.46z"/><path class="b" d="M113.75 192.9s-60.08 10.54 8.49 53.1"/><path class="c" d="M116.38 249.45s.47 10.72 5.72 13.48 13.54-1.2 16.6-6.55c2.45-5.14.14-10.59-1.15-10.72 1.69-1.71 3.33-4.87-.62-6.48s-9-1.13-11.94.89-8.61 9.38-8.61 9.38z"/><path class="q" d="M581.23 14.48L600.2 0l19.33 14.48h-38.3z"/><path class="q" d="M608.11 40.48h-15.62l-3.48-28h22.58l-3.48 28z"/><path class="r" d="M594.02 38.48l-3.04-24h18.64l-3.04 24h-12.56z"/><path class="s" d="M600.38 14.48L600.2 0l19.33 14.48h-19.15z"/><path class="q" d="M597.8 35.48h5v3h-5z"/><circle class="h" cx="600.2" cy="29.27" r="3.74"/><path class="h" d="M598.2 30.48h4v5h-4z"/><path class="q" d="M597.8 40.48h5v3h-5z"/><path class="q" d="M595.8 42.48h9v1h-9z"/><path class="q" d="M610.97 206.6l-22.85-102.48 13.72-33.32-5.47-28.06h7.73l6.06 28.89-13.61 33.02 32.14 99.85-17.72 2.1z"/><path class="t" d="M364.14 141.53l-44.31-6.2a.71.71 0 0 0-.17-.09 9.07 9.07 0 0 1-3.11-1.67 10.51 10.51 0 0 0 2.35-2.25 1.85 1.85 0 1 0-1.25-.81 9 9 0 0 1-2.18 2 9 9 0 0 1-1.54-2.52 1.86 1.86 0 1 0-1.43.43 10.51 10.51 0 0 0 1.64 2.81 9.07 9.07 0 0 1-3.44.75.71.71 0 0 0-.19 0l-44.31-6.19a3.3 3.3 0 0 0-3.72 2.81l-8.63 61.71L358.32 207l8.68-61.75a3.3 3.3 0 0 0-2.86-3.72zm-48.93-7.17c.15.14.32.26.48.39l-1.05-.15c.19-.07.36-.14.57-.23z"/><path class="u" d="M300.75 149.65L274.31 146a9.59 9.59 0 0 0-10.79 8.15 1 1 0 0 0 .84 1.12l43.43 6.07a1 1 0 0 0 1.12-.84 9.59 9.59 0 0 0-8.16-10.85zM351.37 156.72L324.92 153a9.59 9.59 0 0 0-10.79 8.15 1 1 0 0 0 .84 1.12l43.43 6.07a1 1 0 0 0 1.12-.84 9.59 9.59 0 0 0-8.15-10.78z"/><path class="v" d="M365.08 166.63l-107-15a7.14 7.14 0 0 0-8.06 6.09l-3.76 26.88 121.14 16.98 3.76-26.88a7.14 7.14 0 0 0-6.08-8.07z"/><path class="w" d="M369.59 198.22L245.4 180.86a1.92 1.92 0 0 0-2.17 1.64l-3 21.78a1.47 1.47 0 0 0 1.25 1.66l3.76.53a1.63 1.63 0 0 0 1.73-1l3.7-8.84a10.7 10.7 0 0 1 11.33-6.46l89.45 12.51a10.7 10.7 0 0 1 9.15 9.33l1.13 9.52a1.63 1.63 0 0 0 1.39 1.42l3.43.48a1.47 1.47 0 0 0 1.66-1.25l3-21.78a1.92 1.92 0 0 0-1.62-2.18z"/><path class="x" d="M254.482 175.814l110.366 15.433-.365 2.614-110.366-15.432z"/><rect class="y" x="341.78" y="187.8" width="6.26" height="3.96" rx=".89" ry=".89" transform="rotate(7.96 344.87 189.752)"/><path class="z" d="M346 190.59l-2.29-.32a.66.66 0 0 1-.56-.74.66.66 0 0 1 .74-.56l2.29.32a.66.66 0 0 1 .56.74.66.66 0 0 1-.74.56z"/><path d="M687.77 253.64c3.65 20-89.22 27-203.5 28.23-114.11 1.32-258-6.6-252.08-36.87 7.19-36.47 141.41-7.84 252.18-6.76 110.63 1.4 199.77-4.83 203.4 15.4z" class="a"/><path class="x" d="M308.55 192a86.44 86.44 0 0 0 .57 9.3c3.3 26.71 348.67 10.5 348.67 10.5a45 45 0 0 0 2.63-8.36c.39-2.12.46-4.16-.23-5.44-2-3.7-7.7-9.1-14.1-12.6-1.17-.64-2.93-1.59-5.06-2.71-9.47-5-26.1-13.77-29.45-15.89 0 0-7.47-5-9-6.6s-29.14-24.94-32.71-27c0 0-18.45-12.45-28.81-14.1 0 0-218.19-5-221.44-.6-.44.39-1.28 3-2.32 7.2-3.45 13.85-9.03 44.58-8.75 66.3z"/><path class="aa" d="M307.62 242.43c1 1.3 5.5 3 12.3 5.1a53.63 53.63 0 0 0 15.3 2.1c2.7.1 2.7-.9 2.7-.9l244.33 3.2h.63l63.6.83h2.46l9.44.12c2.9-.1 2.7-1.2 2.7-1.2s4.3-16.6 6-24-.4-10.8-1.8-13.8-6-5.4-6-5.4l-14.7-.3s-9.9-9.3-28.51-9.3-27 6.6-27 6.6l-186.94-3.9a72.62 72.62 0 0 0-30.31-6.9 82 82 0 0 0-31.51 6.9l-31.21-.3c-4.5 13.3-3.5 18.8-3.9 27.91s1.42 11.94 2.42 13.24z"/><path class="ab" d="M590.58 156.61s-23.7-20.1-35.71-25.2-23.3-7-32.71-6.3-11.2 3.9-11.1 7.2-.5 33.11 6 37.81 35.51 10.3 42 10.8 20.9 1.3 24 0 20.52-5.3 7.52-24.31z"/><rect class="ac" x="581.58" y="158.11" width="15.9" height="24.3" rx="3.6" ry="3.6" transform="rotate(180 589.525 170.265)"/><path class="ad" d="M641 182.71c2.16 14.49 3.9 14.51 10.16 17.72a31.47 31.47 0 0 0 9.23 3c.39-2.12.46-4.16-.23-5.44-2-3.7-7.7-9.1-14.1-12.6-1.15-.61-2.91-1.56-5.06-2.68z"/><rect class="ac" x="507.76" y="182.72" width="18.9" height="7.5" rx="3.6" ry="3.6" transform="rotate(180 517.215 186.47)"/><path class="ae" d="M308.55 192c2.47 0 5.07-4.43 5.37-5.7s7.65-52.74 6.6-56.11a10.52 10.52 0 0 0-3.22-4.5c-3.45 13.86-9.03 44.59-8.75 66.31z"/><path class="af" d="M333 175.68l126.56 5.63c20.84 1.18 37.74-17.5 37.74-41.72v-8.71c0-4-2.82-7.12-6.29-7l-139.59 6.21c-15.55.83-28.16 12.11-28.16 25.19V167c-.03 4.52 4.32 8.42 9.74 8.68z"/><path d="M581.88 247.53a25.11 25.11 0 0 0 .38 4.4h.63l63.6.83h2.46a26.43 26.43 0 0 0 1.34-8.28c0-20.7-15.15-31.21-34.21-31.21s-34.2 13.26-34.2 34.26z"/><circle class="ac" cx="616.08" cy="244.53" r="25.2"/><path class="af" d="M616.08 260.43a15.9 15.9 0 1 0-15.9-15.9 15.92 15.92 0 0 0 15.9 15.9z"/><circle class="ag" cx="616.08" cy="244.53" r="8.1"/><circle class="ag" cx="621.93" cy="234.4" r="1.5" transform="rotate(-60 621.933 234.4)"/><circle class="ag" cx="610.23" cy="254.66" r="1.5" transform="rotate(-60 610.233 254.665)"/><circle class="ag" cx="627.78" cy="244.53" r="1.5"/><circle class="ag" cx="604.38" cy="244.53" r="1.5"/><circle class="ag" cx="621.93" cy="254.66" r="1.5" transform="rotate(-30 621.904 254.659)"/><circle class="ag" cx="610.23" cy="234.4" r="1.5" transform="rotate(-30 610.254 234.397)"/><path d="M337.63 244.53a25.1 25.1 0 0 0 .38 4.4h.63l63.6.83h2.46a26.43 26.43 0 0 0 1.34-8.28c0-20.7-15.15-31.21-34.21-31.21s-34.2 13.26-34.2 34.26z"/><circle class="ac" cx="371.83" cy="241.53" r="25.2"/><path class="af" d="M371.83 257.43a15.9 15.9 0 1 0-15.9-15.9 15.92 15.92 0 0 0 15.9 15.9z"/><circle class="ag" cx="371.83" cy="241.53" r="8.1"/><circle class="ag" cx="377.69" cy="231.39" r="1.5" transform="rotate(-60 377.684 231.393)"/><circle class="ag" cx="365.98" cy="251.66" r="1.5" transform="rotate(-60 365.979 251.666)"/><circle class="ag" cx="383.54" cy="241.53" r="1.5"/><circle class="ag" cx="360.13" cy="241.53" r="1.5"/><circle class="ag" cx="377.69" cy="251.66" r="1.5" transform="rotate(-30 377.688 251.661)"/><circle class="ag" cx="365.98" cy="231.39" r="1.5" transform="rotate(-30 365.98 231.384)"/><path class="ah" d="M503.86 122.11v127.22"/></svg>