<svg xmlns="http://www.w3.org/2000/svg" xmlns:xlink="http://www.w3.org/1999/xlink" width="1900.6" height="1526.19" viewBox="0 0 1900.6 1526.19"><defs><style>.a,.c{opacity:.5}.b,.c{fill:#fff}.d{opacity:.35;fill:url(#a)}.e{opacity:.3}</style><radialGradient id="a" cx="941.32" cy="763.1" r="763.09" gradientUnits="userSpaceOnUse"><stop offset="0" stop-color="#fff"/><stop offset=".17" stop-color="#fff" stop-opacity=".78"/><stop offset=".4" stop-color="#fff" stop-opacity=".5"/><stop offset=".6" stop-color="#fff" stop-opacity=".29"/><stop offset=".78" stop-color="#fff" stop-opacity=".13"/><stop offset=".92" stop-color="#fff" stop-opacity=".04"/><stop offset="1" stop-color="#fff" stop-opacity="0"/></radialGradient><symbol id="b" viewBox="0 0 25.15 37.44"><path class="c" d="M23.76 19.61h-7.83a16.5 16.5 0 0 0 4.45-3.1l.21-.22h3.17c.83 0 1.39-.87 1.39-2.17a3.24 3.24 0 0 0-.27-1.36 1.23 1.23 0 0 0-1.12-.76h-.93a9.56 9.56 0 0 0-5.31-10.86A14.38 14.38 0 0 0 10.38.07c-2.15.21-5 .78-6.52 2.28-.7.7-1 3.11-.54 4.23a1.16 1.16 0 0 0 1.09.83 1.38 1.38 0 0 0 .53-.11 11.94 11.94 0 0 0 1.49-.77 12.66 12.66 0 0 1 1.21-.65A10.47 10.47 0 0 1 11 5h.94a5.61 5.61 0 0 1 4.46 1.73 4.48 4.48 0 0 1 0 5.31h-15C.56 12 0 12.83 0 14.13s.56 2.15 1.39 2.15H9.3A19.87 19.87 0 0 0 4 19.61H1.39c-.83 0-1.39.87-1.39 2.17s.56 2.14 1.39 2.14a10.62 10.62 0 0 0 6.69 12.57 15.88 15.88 0 0 0 5.56 1 18.79 18.79 0 0 0 2.45-.16 17.65 17.65 0 0 0 4.09-1h.11a6.5 6.5 0 0 0 3.1-2 4.71 4.71 0 0 0 .45-3.29 1.38 1.38 0 0 0-1.34-1.45 2.48 2.48 0 0 0-1.33.49 14.08 14.08 0 0 1-6.69 2.4h-.87C11.75 32.4 9.24 32 7.89 30a5 5 0 0 1 .36-6.06h15.5c.83 0 1.39-.87 1.39-2.15s-.55-2.18-1.38-2.18z"/></symbol><symbol id="j" viewBox="0 0 29.04 40.33"><g class="a"><path class="b" d="M12.71 24.58l.16 3.8a8 8 0 0 1-1.7 5.36H29v6.59H0v-6.59h2.6q2-.49 2-4.89l-.17-4.27H0v-6.45h4.21L4 11.92A11.44 11.44 0 0 1 7.4 3.2a12.6 12.6 0 0 1 9-3.2q5.8 0 9.11 3.08a10.82 10.82 0 0 1 3.31 8.33H21a4.91 4.91 0 0 0-1.19-3.55 4.52 4.52 0 0 0-3.4-1.23 3.83 3.83 0 0 0-3 1.34 5.81 5.81 0 0 0-1.19 4l.25 6.21h8.45v6.45h-8.2z"/></g></symbol><symbol id="m" viewBox="0 0 27.43 40.85"><g class="a"><path class="b" d="M22 26.22h-9.15q.14 4 2.15 6t6.25 2a15.07 15.07 0 0 0 5.2-.85l1 6.62a30.66 30.66 0 0 1-7 .79Q13.23 40.85 9 37T4.62 26.22H0v-4.15h4.62v-3.39H0v-4.16h4.68q.46-6.89 4.79-10.71T21 0a28.31 28.31 0 0 1 6.45.85l-1 6.64a15.65 15.65 0 0 0-5.06-.87q-7.74 0-8.48 7.9H22v4.16h-9.15v3.39H22v4.16z"/></g></symbol><symbol id="q" viewBox="0 0 26.99 52.01"><g class="a"><path class="b" d="M19.09 35.66a5 5 0 0 0-1.24-3.57 11.29 11.29 0 0 0-4.22-2.45 49.72 49.72 0 0 1-5.14-2.23 16.37 16.37 0 0 1-3.71-2.54 10.21 10.21 0 0 1-2.41-3.38 11.33 11.33 0 0 1-.86-4.62 10.25 10.25 0 0 1 3-7.57 12.46 12.46 0 0 1 7.79-3.45V0h4.37v5.93a11.42 11.42 0 0 1 7.57 4A13.29 13.29 0 0 1 27 18.65h-7.9a7.55 7.55 0 0 0-1.35-4.91 4.47 4.47 0 0 0-3.62-1.63 4.61 4.61 0 0 0-3.47 1.27 4.84 4.84 0 0 0-1.25 3.52 4.62 4.62 0 0 0 1.2 3.34 13.24 13.24 0 0 0 4.47 2.57 49.75 49.75 0 0 1 5.37 2.47A15.53 15.53 0 0 1 24 27.9a10.18 10.18 0 0 1 2.21 3.34A11.47 11.47 0 0 1 27 35.6a10.21 10.21 0 0 1-2.9 7.55 12.71 12.71 0 0 1-8 3.42V52h-4.34v-5.41a13.15 13.15 0 0 1-8.68-4 12.82 12.82 0 0 1-3.08-9h7.9a7.27 7.27 0 0 0 1.54 5 5.63 5.63 0 0 0 4.44 1.74 5.43 5.43 0 0 0 3.8-1.27 4.41 4.41 0 0 0 1.41-3.4z"/></g></symbol></defs><title>MAH-bg</title><circle class="d" cx="941.32" cy="763.1" r="763.09"/><g class="e"><use width="25.15" height="37.44" transform="matrix(.4 0 0 .4 191.61 1112.48)" xlink:href="#b"/><use width="25.15" height="37.44" transform="matrix(.88 0 0 .88 1205.91 430.49)" xlink:href="#b"/><use width="25.15" height="37.44" transform="matrix(.71 0 0 .71 1803.91 1232.94)" xlink:href="#b"/><use width="25.15" height="37.44" transform="translate(1031.53 1414.51)" xlink:href="#b"/><use width="25.15" height="37.44" transform="matrix(.68 0 0 .68 191.61 170.45)" xlink:href="#b"/><use width="25.15" height="37.44" transform="translate(0 641.39)" xlink:href="#b"/><use width="25.15" height="37.44" transform="matrix(.72 0 0 .72 922.39 117.48)" xlink:href="#b"/><use width="25.15" height="37.44" transform="matrix(1.1 0 0 1.1 1872.88 699.33)" xlink:href="#b"/><use width="29.04" height="40.33" transform="matrix(.59 0 0 .59 287.96 801.69)" xlink:href="#j"/><use width="29.04" height="40.33" transform="matrix(.77 0 0 .77 1502.95 359.67)" xlink:href="#j"/><use width="29.04" height="40.33" transform="matrix(1.17 0 0 1.17 732.73 546.89)" xlink:href="#j"/><use width="27.43" height="40.85" transform="matrix(1.31 0 0 1.31 1781.98 52.44)" xlink:href="#m"/><use width="27.43" height="40.85" transform="matrix(.61 0 0 .61 1715.63 840.21)" xlink:href="#m"/><use width="27.43" height="40.85" transform="translate(1562.42 1380.88)" xlink:href="#m"/><use width="27.43" height="40.85" transform="matrix(.87 0 0 .87 262.24 1352.25)" xlink:href="#m"/><use width="26.99" height="52.01" transform="translate(458.71 498.89)" xlink:href="#q"/><use width="26.99" height="52.01" transform="matrix(.77 0 0 .77 35.81 1299.67)" xlink:href="#q"/><use width="26.99" height="52.01" transform="matrix(1.11 0 0 1.11 1410.54 1010.79)" xlink:href="#q"/><use width="26.99" height="52.01" transform="matrix(.76 0 0 .76 1640.24 531.74)" xlink:href="#q"/><use width="26.99" height="52.01" transform="matrix(.58 0 0 .58 1487.88 42.14)" xlink:href="#q"/><use width="26.99" height="52.01" transform="matrix(.83 0 0 .83 419.63 264.27)" xlink:href="#q"/></g></svg>