<svg xmlns="http://www.w3.org/2000/svg" xmlns:xlink="http://www.w3.org/1999/xlink" width="1738.35" height="812.73" viewBox="0 0 1738.35 812.73"><defs><style>.a,.g,.i{fill:none;}.b{fill:#f2f2f2;}.c{fill:#557ece;}.d{fill:#fff;}.e{fill:#5075ba;}.f{fill:#4967a0;}.g{stroke:#fff;stroke-opacity:0;stroke-width:3px;}.g,.i{stroke-miterlimit:10;}.h{fill:#f4c44e;}.i{stroke:#f4c44e;stroke-linecap:round;stroke-width:5px;}.j{opacity:0.15;}.j,.m,.n{isolation:isolate;}.k{fill:#ffd65c;}.l{fill:url(#a);}.m{opacity:0.05;}.n{font-size:45px;fill:#606060;font-family:Roboto-Bold, Roboto;font-weight:700;}.o{letter-spacing:-0.01em;}.p{letter-spacing:0.01em;}</style><pattern id="a" width="8" height="8" patternTransform="translate(11.17 -495.63)" patternUnits="userSpaceOnUse" viewBox="0 0 8 8"><rect class="a" width="8" height="8"/><rect class="a" width="8" height="8"/><rect class="a" width="8" height="8"/><rect class="b" width="4" height="4"/><polygon class="b" points="4 4 8 4 8 8 4 8 4 4"/></pattern></defs><title>Artboard 1</title><circle class="c" cx="870.67" cy="384.37" r="345.24"/><polygon class="d" points="786.74 195.26 790.13 185.96 780.83 182.58 784.21 173.27 774.91 169.89 778.29 160.59 768.99 157.2 772.38 147.9 763.08 144.51 766.46 135.21 757.16 131.82 760.54 122.52 751.24 119.14 754.63 109.83 745.33 106.45 748.71 97.14 739.41 93.76 742.79 84.45 727.8 79 722.35 93.99 731.65 97.38 728.26 106.68 737.57 110.06 734.18 119.37 743.49 122.75 740.1 132.06 749.4 135.44 746.01 144.74 755.32 148.13 751.93 157.43 761.24 160.82 757.85 170.12 767.15 173.5 763.76 182.81 773.07 186.19 769.68 195.5 778.99 198.88 775.6 208.18 790.59 213.64 796.04 198.65 786.74 195.26"/><polygon class="d" points="1008.81 97.38 1018.11 93.99 1012.65 79 997.66 84.45 1001.05 93.76 991.75 97.14 995.13 106.45 985.83 109.83 989.22 119.14 979.91 122.52 983.3 131.82 974 135.21 977.38 144.51 968.08 147.9 971.47 157.2 962.16 160.59 965.55 169.89 956.25 173.27 959.63 182.58 950.33 185.96 953.72 195.26 944.41 198.65 949.87 213.64 964.86 208.18 961.47 198.88 970.78 195.5 967.39 186.19 976.69 182.81 973.31 173.5 982.61 170.12 979.22 160.82 988.53 157.43 985.14 148.13 994.44 144.74 991.06 135.44 1000.36 132.06 996.97 122.75 1006.28 119.37 1002.89 110.06 1012.19 106.68 1008.81 97.38"/><path class="e" d="M1215.67,384.37c0,190.54-154.46,345-345,345s-345-154.46-345-345c0-138.38,81.47-257.73,199.06-312.7L755,137,869.67,384.37,985.88,136.8l30.6-65.19C1134.17,126.55,1215.67,245.94,1215.67,384.37Z"/><path class="f" d="M1143.67,384.37c0,150.77-122.23,273-273,273s-273-122.23-273-273C597.67,274.94,662.06,180.55,755,137L869.67,384.37,985.88,136.8C1079.08,180.25,1143.67,274.77,1143.67,384.37Z"/><line class="g" x1="651.17" y1="508.02" x2="0.63" y2="811.37"/><line class="g" x1="1737.71" y1="1.36" x2="1086.17" y2="305.18"/><line class="g" x1="1737.71" y1="811.37" x2="1086.17" y2="507.55"/><line class="g" x1="651.17" y1="304.71" x2="0.63" y2="1.36"/><path class="h" d="M1020.67,261.37h-300a10,10,0,0,0-10,10v189h320v-189A10,10,0,0,0,1020.67,261.37Z"/><path class="i" d="M884,263.37a29.76,29.76,0,0,1-23.43-19.54"/><circle class="h" cx="860.74" cy="244.11" r="5.64" transform="translate(-33.75 225.47) rotate(-14.64)"/><path class="i" d="M857.29,263.37a29.76,29.76,0,0,0,23.43-19.54"/><circle class="h" cx="880.59" cy="244.08" r="5.64" transform="translate(421.87 1034.39) rotate(-75.36)"/><path class="b" d="M833.67,312.37h-81a29.09,29.09,0,0,0-29,29h0a3,3,0,0,0,3,3h133a3,3,0,0,0,3-3h0A29.09,29.09,0,0,0,833.67,312.37Z"/><path class="b" d="M988.67,312.37h-81a29.09,29.09,0,0,0-29,29h0a3,3,0,0,0,3,3h133a3,3,0,0,0,3-3h0A29.09,29.09,0,0,0,988.67,312.37Z"/><path class="j" d="M1079.17,505.49c0,17.13-93.57,17.13-209,17.13s-209,0-209-17.13,93.57-17.12,209-17.12S1079.17,488.37,1079.17,505.49Z"/><path class="d" d="M1034,336.37H706.32A21.66,21.66,0,0,0,684.67,358h0v82.33h371V358A21.66,21.66,0,0,0,1034,336.37Z"/><path class="k" d="M1060.84,429.37H680.5a5.83,5.83,0,0,0-5.83,5.83h0v66.72a4.45,4.45,0,0,0,4.45,4.45h11.55a4.94,4.94,0,0,0,4.77-3.68l7.4-28.12a32.46,32.46,0,0,1,31.33-24.2h274a32.46,32.46,0,0,1,31.39,24.2l7.4,28.12a4.94,4.94,0,0,0,4.77,3.68h10.5a4.45,4.45,0,0,0,4.45-4.45V435.2a5.83,5.83,0,0,0-5.83-5.83h0Z"/><rect class="l" x="705.67" y="410.37" width="338" height="8"/><rect class="k" x="973.67" y="408.37" width="19" height="12" rx="2.71" ry="2.71"/><path class="h" d="M986.67,416.37h-7a2,2,0,0,1-2-2h0a2,2,0,0,1,2-2h7a2,2,0,0,1,2,2h0A2,2,0,0,1,986.67,416.37Z"/><path class="m" d="M1060.84,429.37h-5.17V358A21.66,21.66,0,0,0,1034,336.37h-3.35v-65a10,10,0,0,0-10-10H885.53a2.47,2.47,0,0,0-1.09-.47,27.25,27.25,0,0,1-9.63-3.48,32.17,32.17,0,0,0,6-7.69,5.65,5.65,0,1,0-4.55-2.09,27.17,27.17,0,0,1-5.59,6.73v206h160v-.91a32.37,32.37,0,0,1,8.87,15.11l7.4,28.12a4.94,4.94,0,0,0,4.77,3.68h10.5a4.45,4.45,0,0,0,4.45-4.45V435.2A5.83,5.83,0,0,0,1060.84,429.37Z"/><text class="n" transform="translate(703.27 394.37)">ГРОШІ В<tspan class="o" x="181.34" y="0">Д</tspan><tspan x="214.45" y="0">О</tspan><tspan class="p" x="245.52" y="0">М</tspan><tspan x="285.34" y="0">А</tspan></text><circle class="c1" cx="870.67" cy="384.37" r="345.24" opacity="0"/></svg>