<svg xmlns="http://www.w3.org/2000/svg" xmlns:xlink="http://www.w3.org/1999/xlink" width="1188.08" height="325.1" viewBox="0 0 1188.08 325.1"><defs><style>.a{fill:#f9f9f9}.b{fill:#d9e5b7}.c{fill:#09632d}.d{opacity:.05;isolation:isolate}</style><symbol id="a" viewBox="0 0 126.64 65.19"><path class="a" d="M60.76 33.69C51.76 20 34.27 13.8 19.95 7.32A34.27 34.27 0 0 0 7.67 3.66C6 3.47 1.31 3.12.29 5.19s1 4.31 3.53 5.87a3.4 3.4 0 0 0-3.24 2.45c-.74 2.51 1.86 4 4 4.81a26.63 26.63 0 0 0 4.74 1.55C5.42 21 .16 24.28 3.77 28.24c1.62 1.78 4.09 2 6.68 1.51-2 1.89-1.55 4.69 1.42 5.51a5.58 5.58 0 0 0 2.33.09c-2.8 2.85-1.28 6.64 3 6.67a7.55 7.55 0 0 0 3.31-.81c-1.49 1.26-.48 3.26.78 4.51a5.3 5.3 0 0 0 5.71.88 9.26 9.26 0 0 0 3.16-2.28c.1 4.37 5 6.39 8.82 3.73 2.93-2 3.93-4.83 4.87-8.15 2.24-7.94 9.53-12.28 16-5.41a.57.57 0 0 0 .93-.49.3.3 0 0 0-.02-.31zM65.87 34a.57.57 0 0 0 .93.46c6.47-6.87 13.77-2.53 16 5.41.94 3.35 1.94 6.13 4.87 8.13 3.84 2.66 8.72.64 8.82-3.73a9.26 9.26 0 0 0 3.16 2.28 5.3 5.3 0 0 0 5.69-.89c1.26-1.25 2.27-3.25.78-4.51a7.55 7.55 0 0 0 3.31.81c4.3 0 5.83-3.82 3-6.67a5.58 5.58 0 0 0 2.33-.09c3-.82 3.46-3.62 1.42-5.51 2.59.45 5.06.27 6.68-1.51 3.61-4-1.65-7.21-5.56-8.37a18.25 18.25 0 0 0 4.74-1.55c1.8-.9 4.75-2.3 4-4.81A3.4 3.4 0 0 0 122.8 11c2.53-1.55 4.59-3.73 3.53-5.87s-5.69-1.66-7.33-1.47a34.27 34.27 0 0 0-12.27 3.66C92.37 13.8 74.88 20 65.88 33.69a.3.3 0 0 0-.01.31z"/><path class="b" d="M54.54 64.08c-6.86-21.82-8.85-39.83-8-64.08 12.68.3 24.87 1.11 38.64 2-4.34 21.47-8.18 39.18-7.81 63.09-7.37.2-14.37-.48-22.83-1.01z"/><path class="c" d="M84.82 2C71.06 1.16 59 .17 46.18.05c-.76 24.27 1.42 42.4 8.18 64.1 8.41.51 15.47 1.21 22.82 1C77 41.17 80.73 23.35 84.82 2zM60.65 62.34c-1.41-4-4.24-7.14-7.37-7.92A174.07 174.07 0 0 1 48.39 11a11.2 11.2 0 0 0 8.26-8.14c5.54.24 11.06.48 16.73.84a8.82 8.82 0 0 0 7.14 8 268.51 268.51 0 0 0-4.8 42.89c-2.82.89-4.75 4.23-4.81 8.22-3.35-.13-6.67-.42-10.26-.47z"/><path class="c" d="M54.26 53.15A183.29 183.29 0 0 1 50 12.25l.32-.05a13.3 13.3 0 0 0 7.34-7.08.42.42 0 0 0 .11-.48c4.59.22 9.16.43 14.07.6a.19.19 0 0 1 0 .3 9.76 9.76 0 0 0 6.32 7.11l.33.24c-2.2 13.51-3.8 26.17-3.91 40.42l-.23.06A9.38 9.38 0 0 0 70 60.53a.56.56 0 0 0 0 .47c-2.87-.11-5.75-.22-8.86-.29l-.1-.3c-1.52-3.47-3.8-5.94-6.44-7a.27.27 0 0 0-.34-.26zM51.15 13A189.33 189.33 0 0 0 55 52.61a14.88 14.88 0 0 1 6.56 7.15 69.91 69.91 0 0 0 7.91.11A10.29 10.29 0 0 1 74 52.54a224.67 224.67 0 0 1 3.68-39.06 11.6 11.6 0 0 1-6.5-7.24C67 6 63 5.83 58.8 5.86A16.42 16.42 0 0 1 51.15 13z"/><path class="c" d="M68.46 17.75c-.43-1.15-.85-2.29-1.27-3.14a24.37 24.37 0 0 0 3.08-.66 39.26 39.26 0 0 0 1.73 4.4 20.83 20.83 0 0 1-.41 3.11c-5.47-.09-10.77 0-16.24-.13.07-1.26 0-2.65-.09-3.74 4.36.01 8.87.15 13.2.16zM63.4 39c-4.29 0-7.67-1.93-8-6.15s3.34-6.05 7.69-6.11c4.54.06 8.13 2 7.7 6-.13 4.35-3.5 6.18-7.39 6.26zm-.3-8.54c-3.49.07-5.2.9-5 2.29.07 1.57 1.78 2.3 5.11 2.22 3.23.09 4.92-.74 5-2.29.1-1.25-1.47-2.17-5.11-2.21zM64.59 53.11c-3.75.05-6.73-2.23-7.58-6.39-.6-4.21 2.56-6.06 6.43-6.15 4 0 7.1 2 7.24 6.28-.18 4.55-2.76 6.34-6.09 6.26zm-1-8.64c-3-.08-4.54.94-4.29 2.32.17 1.56 1.74 2.29 4.59 2.36s4.29-.77 4.26-2.32-1.46-2.45-4.55-2.35z"/><path class="d" d="M84.82 2C78 1.5 71.54 1.24 65.21.79c-2.37 22.92-2.77 41.15 1.11 64 3.76.29 7.39.27 11.05.26C77 41.17 80.72 23.35 84.82 2z"/></symbol></defs><title>MAH-inflation</title><use width="126.64" height="65.19" transform="matrix(.67 0 0 .67 552.75 281.41)" xlink:href="#a"/><use width="126.64" height="65.19" transform="matrix(.49 -.79 .79 .49 290.23 266.64)" xlink:href="#a"/><use width="126.64" height="65.19" transform="rotate(-53.98 183.472 98.476) scale(.98)" xlink:href="#a"/><use width="126.64" height="65.19" transform="matrix(.58 .62 -.62 .58 845.1 55.21)" xlink:href="#a"/><use width="126.64" height="65.19" transform="rotate(35.2 153.845 1678.495) scale(.95)" xlink:href="#a"/><use width="126.64" height="65.19" transform="rotate(52.65 550.769 1111.037) scale(1.21)" xlink:href="#a"/><use width="126.64" height="65.19" transform="rotate(8.54 -405.298 3595.315) scale(.91)" xlink:href="#a"/><use width="126.64" height="65.19" transform="matrix(.93 -.68 .68 .93 154.34 81.19)" xlink:href="#a"/></svg>