<svg xmlns="http://www.w3.org/2000/svg" xmlns:xlink="http://www.w3.org/1999/xlink" width="2048" height="1551.558" viewBox="0 0 2048 1551.558"><symbol id="b" viewBox="-1159.233 -130.627 2318.467 261.253"><path fill="#F7F1CE" d="M1158.589 130.627l.645-.855c-32.88-9.174-58.543-19.585-83.758-29.807-49.391-20.029-100.468-40.749-204.079-51.636-103.611-10.89-157.882-1.247-210.36 8.077-52.418 9.309-106.604 18.939-210.086 8.063-103.47-10.88-154.473-31.561-203.806-51.569-49.394-20.027-100.474-40.74-204.08-51.635-103.612-10.888-157.882-1.246-210.361 8.077-52.41 9.315-106.604 18.939-210.077 8.068-103.468-10.879-154.481-31.565-203.813-51.573-49.393-20.028-100.473-40.739-204.08-51.636-103.611-10.887-157.873-1.24-210.359 8.078-41.402 7.354-83.92 14.908-150.959 12.397a729.66 729.66 0 0 1-12.648-.579l1.43 1.078c3.711.192 7.341.36 10.914.486 67.289 2.561 109.924-5.016 151.445-12.395 52.408-9.314 106.604-18.938 210.076-8.066 103.468 10.879 154.48 31.564 203.805 51.566 49.401 20.035 100.475 40.74 204.087 51.628 103.604 10.896 157.876 1.255 210.354-8.069 52.409-9.316 106.604-18.938 210.076-8.068C146.423-26.864 197.435-6.178 246.769 13.83c49.393 20.028 100.473 40.741 204.084 51.628 103.605 10.896 157.877 1.255 210.357-8.071 52.408-9.313 106.608-18.944 210.076-8.065 103.474 10.871 154.486 31.557 203.818 51.566 25.157 10.202 50.745 20.579 83.485 29.739z"/></symbol><defs><path id="a" d="M0 0h2048v1551.56H0z"/></defs><clipPath id="c"><use xlink:href="#a" overflow="visible"/></clipPath><use xlink:href="#b" width="2318.467" height="261.253" x="-1159.233" y="-130.627" transform="matrix(1 0 0 -1 1214.152 -103.128)" overflow="visible" clip-path="url(#c)"/><use xlink:href="#b" width="2318.467" height="261.253" x="-1159.233" y="-130.627" transform="matrix(1 .018 .018 -1 1215.776 -82.886)" overflow="visible" clip-path="url(#c)"/><g clip-path="url(#c)"><use xlink:href="#b" width="2318.467" height="261.253" x="-1159.233" y="-130.627" transform="scale(1 -1) rotate(-2 2397.296 -34730.761)" overflow="visible"/></g><g clip-path="url(#c)"><use xlink:href="#b" width="2318.467" height="261.253" x="-1159.233" y="-130.627" transform="matrix(.999 .052 .052 -.999 1217.962 -42.33)" overflow="visible"/></g><g clip-path="url(#c)"><use xlink:href="#b" width="2318.467" height="261.253" x="-1159.233" y="-130.627" transform="matrix(.998 .07 .07 -.998 1218.524 -22.03)" overflow="visible"/></g><g clip-path="url(#c)"><use xlink:href="#b" width="2318.467" height="261.253" x="-1159.233" y="-130.627" transform="scale(1 -1) rotate(-5 629.259 -13980.972)" overflow="visible"/></g><g clip-path="url(#c)"><use xlink:href="#b" width="2318.467" height="261.253" x="-1159.233" y="-130.627" transform="scale(1 -1) rotate(-5.97 430.818 -11694.69)" overflow="visible"/></g><g clip-path="url(#c)"><use xlink:href="#b" width="2318.467" height="261.253" x="-1159.233" y="-130.627" transform="scale(1 -1) rotate(-7 291.2 -9966.457)" overflow="visible"/></g><g clip-path="url(#c)"><use xlink:href="#b" width="2318.467" height="261.253" x="-1159.233" y="-130.627" transform="scale(1 -1) rotate(-8 185.124 -8744.096)" overflow="visible"/></g><g clip-path="url(#c)"><use xlink:href="#b" width="2318.467" height="261.253" x="-1159.233" y="-130.627" transform="scale(1 -1) rotate(-8.97 101.69 -7787.002)" overflow="visible"/></g><g clip-path="url(#c)"><use xlink:href="#b" width="2318.467" height="261.253" x="-1159.233" y="-130.627" transform="scale(1 -1) rotate(-10.02 38.477 -6976.248)" overflow="visible"/></g><g clip-path="url(#c)"><use xlink:href="#b" width="2318.467" height="261.253" x="-1159.233" y="-130.627" transform="scale(1 -1) rotate(-11 -16.022 -6349.91)" overflow="visible"/></g><g clip-path="url(#c)"><use xlink:href="#b" width="2318.467" height="261.253" x="-1159.233" y="-130.627" transform="scale(1 -1) rotate(-12 -60.955 -5825.016)" overflow="visible"/></g><g clip-path="url(#c)"><use xlink:href="#b" width="2318.467" height="261.253" x="-1159.233" y="-130.627" transform="scale(1 -1) rotate(-13 -98.974 -5378.617)" overflow="visible"/></g><use xlink:href="#b" width="2318.467" height="261.253" x="-1159.233" y="-130.627" transform="scale(1 -1) rotate(-14 -131.552 -4994.17)" overflow="visible" clip-path="url(#c)"/><g clip-path="url(#c)"><use xlink:href="#b" width="2318.467" height="261.253" x="-1159.233" y="-130.627" transform="scale(1 -1) rotate(-15 -159.777 -4659.488)" overflow="visible"/></g><g clip-path="url(#c)"><use xlink:href="#b" width="2318.467" height="261.253" x="-1159.233" y="-130.627" transform="scale(1 -1) rotate(-16.02 -183.859 -4365.318)" overflow="visible"/></g><g clip-path="url(#c)"><use xlink:href="#b" width="2318.467" height="261.253" x="-1159.233" y="-130.627" transform="scale(1 -1) rotate(-16.98 -207.715 -4118.909)" overflow="visible"/></g><g clip-path="url(#c)"><use xlink:href="#b" width="2318.467" height="261.253" x="-1159.233" y="-130.627" transform="scale(1 -1) rotate(-18 -226.37 -3884.718)" overflow="visible"/></g><use xlink:href="#b" width="2318.467" height="261.253" x="-1159.233" y="-130.627" transform="scale(1 -1) rotate(-19.01 -242.997 -3674.4)" overflow="visible" clip-path="url(#c)"/><g clip-path="url(#c)"><use xlink:href="#b" width="2318.467" height="261.253" x="-1159.233" y="-130.627" transform="scale(1 -1) rotate(-20 -259.723 -3494.706)" overflow="visible"/></g><g clip-path="url(#c)"><use xlink:href="#b" width="2318.467" height="261.253" x="-1159.233" y="-130.627" transform="matrix(.934 .358 .358 -.934 1174.135 319.07)" overflow="visible"/></g><g clip-path="url(#c)"><use xlink:href="#b" width="2318.467" height="261.253" x="-1159.233" y="-130.627" transform="scale(1 -1) rotate(-22.02 -285.649 -3171.311)" overflow="visible"/></g><g clip-path="url(#c)"><use xlink:href="#b" width="2318.467" height="261.253" x="-1159.233" y="-130.627" transform="matrix(.92 .391 .391 -.92 1162.318 357.928)" overflow="visible"/></g><g clip-path="url(#c)"><use xlink:href="#b" width="2318.467" height="261.253" x="-1159.233" y="-130.627" transform="scale(1 -1) rotate(-24.03 -308.445 -2905.693)" overflow="visible"/></g><g clip-path="url(#c)"><use xlink:href="#b" width="2318.467" height="261.253" x="-1159.233" y="-130.627" transform="scale(1 -1) rotate(-25.03 -318.362 -2787.333)" overflow="visible"/></g><g clip-path="url(#c)"><use xlink:href="#b" width="2318.467" height="261.253" x="-1159.233" y="-130.627" transform="scale(1 -1) rotate(-25.98 -329.435 -2683.446)" overflow="visible"/></g><g clip-path="url(#c)"><use xlink:href="#b" width="2318.467" height="261.253" x="-1159.233" y="-130.627" transform="scale(1 -1) rotate(-27 -337.12 -2580.177)" overflow="visible"/></g><g clip-path="url(#c)"><use xlink:href="#b" width="2318.467" height="261.253" x="-1159.233" y="-130.627" transform="matrix(.883 .469 .469 -.883 1126.91 453.062)" overflow="visible"/></g><use xlink:href="#b" width="2318.467" height="261.253" x="-1159.233" y="-130.627" transform="scale(1 -1) rotate(-29 -352.422 -2398.028)" overflow="visible" clip-path="url(#c)"/><g clip-path="url(#c)"><use xlink:href="#b" width="2318.467" height="261.253" x="-1159.233" y="-130.627" transform="matrix(.866 .5 .5 -.866 1110.447 490.19)" overflow="visible"/></g><g clip-path="url(#c)"><use xlink:href="#b" width="2318.467" height="261.253" x="-1159.233" y="-130.627" transform="scale(1 -1) rotate(-31 -365.951 -2240.785)" overflow="visible"/></g><g clip-path="url(#c)"><use xlink:href="#b" width="2318.467" height="261.253" x="-1159.233" y="-130.627" transform="scale(1 -1) rotate(-32 -371.933 -2168.362)" overflow="visible"/></g><g clip-path="url(#c)"><use xlink:href="#b" width="2318.467" height="261.253" x="-1159.233" y="-130.627" transform="scale(1 -1) rotate(-33 -377.459 -2099.628)" overflow="visible"/></g><g clip-path="url(#c)"><use xlink:href="#b" width="2318.467" height="261.253" x="-1159.233" y="-130.627" transform="scale(1 -1) rotate(-34 -383.546 -2037.955)" overflow="visible"/></g><g clip-path="url(#c)"><use xlink:href="#b" width="2318.467" height="261.253" x="-1159.233" y="-130.627" transform="scale(1 -1) rotate(-35.02 -387.64 -1975.468)" overflow="visible"/></g><g clip-path="url(#c)"><use xlink:href="#b" width="2318.467" height="261.253" x="-1159.233" y="-130.627" transform="scale(1 -1) rotate(-36.01 -392.893 -1919.245)" overflow="visible"/></g><g clip-path="url(#c)"><use xlink:href="#b" width="2318.467" height="261.253" x="-1159.233" y="-130.627" transform="scale(1 -1) rotate(-37 -397.763 -1865.373)" overflow="visible"/></g><g clip-path="url(#c)"><use xlink:href="#b" width="2318.467" height="261.253" x="-1159.233" y="-130.627" transform="scale(1 -1) rotate(-38.02 -401.682 -1813.63)" overflow="visible"/></g><g clip-path="url(#c)"><use xlink:href="#b" width="2318.467" height="261.253" x="-1159.233" y="-130.627" transform="scale(1 -1) rotate(-39 -406.666 -1766.827)" overflow="visible"/></g><g clip-path="url(#c)"><use xlink:href="#b" width="2318.467" height="261.253" x="-1159.233" y="-130.627" transform="scale(1 -1) rotate(-40.01 -409.936 -1718.92)" overflow="visible"/></g><g clip-path="url(#c)"><use xlink:href="#b" width="2318.467" height="261.253" x="-1159.233" y="-130.627" transform="matrix(.755 .656 .656 -.755 997.53 682.543)" overflow="visible"/></g><g clip-path="url(#c)"><use xlink:href="#b" width="2318.467" height="261.253" x="-1159.233" y="-130.627" transform="scale(1 -1) rotate(-42 -417.674 -1633.387)" overflow="visible"/></g><g clip-path="url(#c)"><use xlink:href="#b" width="2318.467" height="261.253" x="-1159.233" y="-130.627" transform="matrix(.731 .682 .682 -.731 973.136 715.016)" overflow="visible"/></g><g clip-path="url(#c)"><use xlink:href="#b" width="2318.467" height="261.253" x="-1159.233" y="-130.627" transform="matrix(.719 .695 .695 -.719 960.518 730.928)" overflow="visible"/></g><g clip-path="url(#c)"><use xlink:href="#b" width="2318.467" height="261.253" x="-1159.233" y="-130.627" transform="scale(1 -1) rotate(-45 -427.499 -1517.421)" overflow="visible"/></g><g clip-path="url(#c)"><use xlink:href="#b" width="2318.467" height="261.253" x="-1159.233" y="-130.627" transform="scale(1 -1) rotate(-45.97 -431.048 -1482.51)" overflow="visible"/></g><g clip-path="url(#c)"><use xlink:href="#b" width="2318.467" height="261.253" x="-1159.233" y="-130.627" transform="scale(1 -1) rotate(-46.99 -433.74 -1448.483)" overflow="visible"/></g><g clip-path="url(#c)"><use xlink:href="#b" width="2318.467" height="261.253" x="-1159.233" y="-130.627" transform="scale(1 -1) rotate(-48 -436.192 -1415.37)" overflow="visible"/></g><g clip-path="url(#c)"><use xlink:href="#b" width="2318.467" height="261.253" x="-1159.233" y="-130.627" transform="scale(1 -1) rotate(-49.01 -438.42 -1383.132)" overflow="visible"/></g><g clip-path="url(#c)"><use xlink:href="#b" width="2318.467" height="261.253" x="-1159.233" y="-130.627" transform="matrix(.643 .766 .766 -.643 879.157 821.56)" overflow="visible"/></g><g clip-path="url(#c)"><use xlink:href="#b" width="2318.467" height="261.253" x="-1159.233" y="-130.627" transform="scale(1 -1) rotate(-51 -443.778 -1324.576)" overflow="visible"/></g><g clip-path="url(#c)"><use xlink:href="#b" width="2318.467" height="261.253" x="-1159.233" y="-130.627" transform="matrix(.616 .788 .788 -.616 849.984 849.816)" overflow="visible"/></g><g clip-path="url(#c)"><use xlink:href="#b" width="2318.467" height="261.253" x="-1159.233" y="-130.627" transform="scale(1 -1) rotate(-53 -448.24 -1268.601)" overflow="visible"/></g><g clip-path="url(#c)"><use xlink:href="#b" width="2318.467" height="261.253" x="-1159.233" y="-130.627" transform="matrix(.588 .809 .809 -.588 819.842 877.037)" overflow="visible"/></g><use xlink:href="#b" width="2318.467" height="261.253" x="-1159.233" y="-130.627" transform="matrix(.574 .819 .819 -.574 804.42 890.25)" overflow="visible" clip-path="url(#c)"/><g clip-path="url(#c)"><use xlink:href="#b" width="2318.467" height="261.253" x="-1159.233" y="-130.627" transform="scale(1 -1) rotate(-56 -454.864 -1193.366)" overflow="visible"/></g><g clip-path="url(#c)"><use xlink:href="#b" width="2318.467" height="261.253" x="-1159.233" y="-130.627" transform="scale(1 -1) rotate(-57 -456.86 -1169.228)" overflow="visible"/></g><g clip-path="url(#c)"><use xlink:href="#b" width="2318.467" height="261.253" x="-1159.233" y="-130.627" transform="scale(1 -1) rotate(-58 -458.99 -1146.849)" overflow="visible"/></g><g clip-path="url(#c)"><use xlink:href="#b" width="2318.467" height="261.253" x="-1159.233" y="-130.627" transform="scale(1 -1) rotate(-59 -460.908 -1124.808)" overflow="visible"/></g><g clip-path="url(#c)"><use xlink:href="#b" width="2318.467" height="261.253" x="-1159.233" y="-130.627" transform="matrix(.5 .866 .866 -.5 723.98 952.165)" overflow="visible"/></g><g clip-path="url(#c)"><use xlink:href="#b" width="2318.467" height="261.253" x="-1159.233" y="-130.627" transform="scale(1 -1) rotate(-61 -464.169 -1081.72)" overflow="visible"/></g><g clip-path="url(#c)"><use xlink:href="#b" width="2318.467" height="261.253" x="-1159.233" y="-130.627" transform="scale(1 -1) rotate(-62.02 -465.78 -1061.825)" overflow="visible"/></g><g clip-path="url(#c)"><use xlink:href="#b" width="2318.467" height="261.253" x="-1159.233" y="-130.627" transform="scale(1 -1) rotate(-63 -467.787 -1042.25)" overflow="visible"/></g><g clip-path="url(#c)"><use xlink:href="#b" width="2318.467" height="261.253" x="-1159.233" y="-130.627" transform="matrix(.438 .899 .899 -.438 655.933 996.501)" overflow="visible"/></g><g clip-path="url(#c)"><use xlink:href="#b" width="2318.467" height="261.253" x="-1159.233" y="-130.627" transform="scale(1 -1) rotate(-64.97 -471.452 -1004.883)" overflow="visible"/></g><g clip-path="url(#c)"><use xlink:href="#b" width="2318.467" height="261.253" x="-1159.233" y="-130.627" transform="scale(1 -1) rotate(-65.97 -473.102 -987.027)" overflow="visible"/></g><g clip-path="url(#c)"><use xlink:href="#b" width="2318.467" height="261.253" x="-1159.233" y="-130.627" transform="matrix(.391 .92 .92 -.391 602.958 1026.58)" overflow="visible"/></g><use xlink:href="#b" width="2318.467" height="261.253" x="-1159.233" y="-130.627" transform="scale(1 -1) rotate(-67.97 -475.845 -951.835)" overflow="visible" clip-path="url(#c)"/><use xlink:href="#b" width="2318.467" height="261.253" x="-1159.233" y="-130.627" transform="scale(1 -1) rotate(-69.03 -476.37 -934.423)" overflow="visible" clip-path="url(#c)"/><use xlink:href="#b" width="2318.467" height="261.253" x="-1159.233" y="-130.627" transform="scale(1 -1) rotate(-70 -478.047 -918.268)" overflow="visible" clip-path="url(#c)"/><g clip-path="url(#c)"><use xlink:href="#b" width="2318.467" height="261.253" x="-1159.233" y="-130.627" transform="scale(1 -1) rotate(-70.99 -479.545 -902.234)" overflow="visible"/></g><g clip-path="url(#c)"><use xlink:href="#b" width="2318.467" height="261.253" x="-1159.233" y="-130.627" transform="scale(1 -1) rotate(-72 -480.98 -887.205)" overflow="visible"/></g><g clip-path="url(#c)"><use xlink:href="#b" width="2318.467" height="261.253" x="-1159.233" y="-130.627" transform="scale(1 -1) rotate(-73.02 -482.228 -872.256)" overflow="visible"/></g><g clip-path="url(#c)"><use xlink:href="#b" width="2318.467" height="261.253" x="-1159.233" y="-130.627" transform="scale(1 -1) rotate(-73.98 -483.884 -857.468)" overflow="visible"/></g><g clip-path="url(#c)"><use xlink:href="#b" width="2318.467" height="261.253" x="-1159.233" y="-130.627" transform="scale(1 -1) rotate(-75 -484.78 -842.688)" overflow="visible"/></g><use xlink:href="#b" width="2318.467" height="261.253" x="-1159.233" y="-130.627" transform="scale(1 -1) rotate(-76 -486.16 -828.87)" overflow="visible" clip-path="url(#c)"/><g clip-path="url(#c)"><use xlink:href="#b" width="2318.467" height="261.253" x="-1159.233" y="-130.627" transform="scale(1 -1) rotate(-77 -487.36 -815.103)" overflow="visible"/></g><g clip-path="url(#c)"><use xlink:href="#b" width="2318.467" height="261.253" x="-1159.233" y="-130.627" transform="scale(1 -1) rotate(-78 -488.389 -801.39)" overflow="visible"/></g><g clip-path="url(#c)"><use xlink:href="#b" width="2318.467" height="261.253" x="-1159.233" y="-130.627" transform="scale(1 -1) rotate(-79 -489.253 -787.735)" overflow="visible"/></g><g clip-path="url(#c)"><use xlink:href="#b" width="2318.467" height="261.253" x="-1159.233" y="-130.627" transform="scale(1 -1) rotate(-79.98 -490.56 -774.942)" overflow="visible"/></g><g clip-path="url(#c)"><use xlink:href="#b" width="2318.467" height="261.253" x="-1159.233" y="-130.627" transform="scale(1 -1) rotate(-81.03 -491.11 -762.1)" overflow="visible"/></g><g clip-path="url(#c)"><use xlink:href="#b" width="2318.467" height="261.253" x="-1159.233" y="-130.627" transform="scale(1 -1) rotate(-82 -492.658 -750.137)" overflow="visible"/></g><g clip-path="url(#c)"><use xlink:href="#b" width="2318.467" height="261.253" x="-1159.233" y="-130.627" transform="scale(1 -1) rotate(-83 -493.458 -737.427)" overflow="visible"/></g><g clip-path="url(#c)"><use xlink:href="#b" width="2318.467" height="261.253" x="-1159.233" y="-130.627" transform="scale(1 -1) rotate(-84.03 -494.08 -725.415)" overflow="visible"/></g><g clip-path="url(#c)"><use xlink:href="#b" width="2318.467" height="261.253" x="-1159.233" y="-130.627" transform="scale(1 -1) rotate(-85 -495.665 -714.22)" overflow="visible"/></g><g clip-path="url(#c)"><use xlink:href="#b" width="2318.467" height="261.253" x="-1159.233" y="-130.627" transform="matrix(.07 .998 .998 -.07 238.899 1148.999)" overflow="visible"/></g><g clip-path="url(#c)"><use xlink:href="#b" width="2318.467" height="261.253" x="-1159.233" y="-130.627" transform="scale(1 -1) rotate(-87.02 -497.194 -691.024)" overflow="visible"/></g><use xlink:href="#b" width="2318.467" height="261.253" x="-1159.233" y="-130.627" transform="scale(1 -1) rotate(-88 -498.787 -680.505)" overflow="visible" clip-path="url(#c)"/><use xlink:href="#b" width="2318.467" height="261.253" x="-1159.233" y="-130.627" transform="matrix(.018 1 1 -.018 178.514 1157.041)" overflow="visible" clip-path="url(#c)"/><g clip-path="url(#c)"><use xlink:href="#b" width="2318.467" height="261.253" x="-1159.233" y="-130.627" transform="matrix(0 1 1 0 158.303 1159.017)" overflow="visible"/></g><g clip-path="url(#c)"><use xlink:href="#b" width="2318.467" height="261.253" x="-1159.233" y="-130.627" transform="matrix(-.018 1 1 .018 138.059 1160.64)" overflow="visible"/></g><g clip-path="url(#c)"><use xlink:href="#b" width="2318.467" height="261.253" x="-1159.233" y="-130.627" transform="scale(-1 1) rotate(88 -660.818 520.162)" overflow="visible"/></g><g clip-path="url(#c)"><use xlink:href="#b" width="2318.467" height="261.253" x="-1159.233" y="-130.627" transform="scale(-1 1) rotate(87.02 -660.984 529.872)" overflow="visible"/></g><g clip-path="url(#c)"><use xlink:href="#b" width="2318.467" height="261.253" x="-1159.233" y="-130.627" transform="matrix(-.07 .998 .998 .07 77.203 1163.39)" overflow="visible"/></g><g clip-path="url(#c)"><use xlink:href="#b" width="2318.467" height="261.253" x="-1159.233" y="-130.627" transform="scale(-1 1) rotate(85 -663.42 550.872)" overflow="visible"/></g><g clip-path="url(#c)"><use xlink:href="#b" width="2318.467" height="261.253" x="-1159.233" y="-130.627" transform="scale(-1 1) rotate(84.03 -663.713 561.183)" overflow="visible"/></g><g clip-path="url(#c)"><use xlink:href="#b" width="2318.467" height="261.253" x="-1159.233" y="-130.627" transform="scale(-1 1) rotate(83 -665.12 572.002)" overflow="visible"/></g><g clip-path="url(#c)"><use xlink:href="#b" width="2318.467" height="261.253" x="-1159.233" y="-130.627" transform="scale(-1 1) rotate(82 -666.518 583.518)" overflow="visible"/></g><g clip-path="url(#c)"><use xlink:href="#b" width="2318.467" height="261.253" x="-1159.233" y="-130.627" transform="scale(-1 1) rotate(81.03 -666.984 594.504)" overflow="visible"/></g></svg>