<svg xmlns="http://www.w3.org/2000/svg" width="2048" height="376.813" viewBox="0 0 2048 376.813"><path fill="#239ABB" d="M2048 235.964v140.848H406.215z"/><path fill="#FFC600" d="M2048 376.812v-76.386L406.215 376.812z"/><path stroke="#2D2D2D" stroke-miterlimit="10" fill="none" d="M291.627 146.256h461"/><text transform="translate(339.173 187.143)" fill="#2D2D2D" font-family="'Roboto-Regular'" font-size="36">ТОВ «Порше Україна»</text><path fill="#239ABB" d="M689.392 113.037c-8.096 5.549-16.105 8.766-25.968 7.169-7.401-1.198-14.789-3.997-22.362-3.737-7.16.246-14.249 2.231-21.343 3.115-6.717.838-16.122 1.601-19.951-5.281-.368-.662-1.398-1.012-2.052-.537-8.907 6.451-10.512-10.147-11.621-15.84-.194-.994-1.402-1.314-2.203-.896-6.646 3.476-13.455 7.192-20.83 8.838-10.673 2.38-8.28-8.433-6.07-15.146.526-1.599-2.064-2.725-2.741-1.155-4.657 10.811-10.337 21.671-19.325 29.521-4.836 4.222-10.229 6.117-15.734 6.159 1.797-4.563.595-10.208-.951-14.635-4.763-13.642-15.755-28.331-29.54-33.596-4.06-1.552-10.304-2.622-12.448 2.313-2.041 4.697.454 10.945 2.313 15.276.092.214-11.145 10.708-17.745 14.449-.246-4.807.316-9.568.912-14.362.198-1.598-2.059-1.881-2.795-.757-5.162 7.873-9.395 16.978-16.496 23.346-3.998-22.478-30.057-7.844-45.103 5.582 1.94-6.195 3.767-12.465 5.271-18.803 7.36-5.732 14.18-12.394 20.117-19.123 5.587-6.334 14.862-17.706 9.225-26.562-5.093-7.999-14.842-6.664-20.046-.031-2.715 3.461-4.803 7.46-6.488 11.698-.886-.288-1.943 4.172-1.962 5.574-1.813 5.8-3.08 11.802-4.281 17.342-.81 3.736-1.498 7.487-2.128 11.247-2.687 2.062-5.499 4.137-8.496 5.731-1.88-6.306-5.112-11.768-10.684-14.269-7.087-3.18-14.938 1.773-20.354 5.984-3.462 2.691-7.334 7.95-2.698 11.507 4.902 3.761 12.74 3.607 18.57 3.358 4.262-.182 8.662-.764 12.715-2.22 1.601 6.925 2.035 14.397 2.053 18.952.006 1.567 1.978 1.947 2.795.757 7.439-10.816 46.44-42.212 48.863-13.854.084.988 1.266 2.059 2.257 1.295 6.994-5.383 11.432-12.962 15.956-20.406-.301 3.448-.407 6.898-.022 10.379.131 1.181 1.16 1.805 2.257 1.295 7.521-3.49 12.934-10.43 19.827-14.783 1.908 3.941 4.183 7.808 6.821 11.4 1.583 9.24 5.061 18.337 12.522 22.583 5.563 3.166 13.514 1.178 17.709-3.359l.052-.063c16.14 1.285 27.448-13.271 34.808-27.22.173 4.043 1.917 7.409 7.117 7.93 8.056.807 17.272-4.701 24.45-8.598 1.554 8.045 4.675 22.36 14.457 16.542 8.289 11.682 29.856 3.67 41.164 2.464 8.826-.942 17.367 2.907 26.041 3.874 9.672 1.077 17.805-2.459 25.679-7.856 1.584-1.087.086-3.689-1.514-2.591zM422.227 55.65c6.51.397 9.377 6.734 7.793 12.287-2.027 7.108-7.782 13.274-12.736 18.497-4.22 4.448-8.784 8.594-13.534 12.492 1.501-7.277 2.497-14.638 2.685-22.071 1.216-3.783 2.64-7.496 4.388-11.051 2.167-4.409 5.731-10.502 11.404-10.154zm-59.346 57.37c-2.097-.341-7.086-1.163-7.274-3.97-.263-3.927 7.437-7.789 10.074-9.237 11.046-6.066 16.771 1.613 19.668 11.592-6.852 2.611-15.342 2.774-22.468 1.615zm28.215 16.038c-.129-4.941-.533-10.738-1.774-16.176.297-.153.601-.291.892-.456a95.597 95.597 0 0 0 6.117-3.806c-.775 4.911-1.495 9.833-2.296 14.748l-.007.023.003.001v.003c-.136.831.299 1.448.876 1.718a68.621 68.621 0 0 0-3.811 3.945zm87.493-46.444c.064-8.087 12.758-1.585 15.844.462 6.646 4.409 11.878 11.805 16.013 18.459 3.871 6.229 9.109 15.965 5.575 23.374l-.079.145c-4.242-.516-8.499-2.06-12.573-4.459-5.527-3.256-9.854-7.496-13.537-12.405-.872-5.06-1.156-10.239-1.181-14.954-.005-1-.951-1.673-1.897-1.446-1.945.465-3.734 1.181-5.43 2.049-1.61-3.628-2.765-7.456-2.735-11.225zm7.011 19.25c-1.001-1.678-2.034-3.475-2.99-5.345.986-.495 2-.94 3.065-1.298.045 2.303.156 4.795.379 7.372l-.454-.729zm10.009 22.237c-1.862-2.807-3.238-6.001-4.257-9.376 5.969 6.423 13.346 11.346 22.089 13.208-2.205 1.613-5.153 2.37-7.739 2.492-4.427.21-7.807-2.879-10.093-6.324z"/><path stroke="#2D2D2D" stroke-miterlimit="10" fill="none" d="M1295.373 146.256h461"/><text transform="translate(1384.219 187.143)" fill="#2D2D2D" font-family="'Roboto-Regular'" font-size="36">Петреченко В. С.</text><path fill="#239ABB" d="M1618.592 130.932c-2.263-5.099-5.498-9.828-9.539-13.386.027-1.417.023-2.824-.004-4.208-.023-1.138-1.257-1.867-2.257-1.295a676.792 676.792 0 0 1-3.114 1.773c-4.247-2.232-9.103-3.231-14.454-2.381-4.183.664-8.336 2.511-12.2 4.51.363-1.128.763-2.134 1.008-2.782.391-1.031-.816-2.229-1.846-1.845-6.173 2.31-13.275 5.036-20.517 6.803.702-4.111-2.579-8.222-5.837-10.381-5.407-3.585-13.434-5.571-19.869-4.651-6.102.871-8.718 5.021-6.731 10.872 1.245 3.667 4.075 5.863 7.396 7.149a99.193 99.193 0 0 0-7.576-.047c-4.969.167-12.57.726-15.608 5.408a7.676 7.676 0 0 0-.656 1.276c-3.641.212-7.28.462-10.942.745-5.305.409-10.337.449-15.324.051 2.52-3.214 4.389-7.148 5.813-11.069 5.938-2.079 12.228-4.459 16.456-9.145 4.273-4.737 3.477-11.828-.751-16.293-2.469-2.605-6-3.678-9.729-4.078 1.343-14.603.938-29.447.914-44.002-.002-1.932-3.002-1.932-2.999.003.02 12.32.26 24.604-.502 36.913-.139 2.25-.294 4.556-.479 6.889-2.904-.073-5.787.117-8.256.183-3.625.098-7.73.397-11.103-1.183-3.539-1.657-1.389-6.364-.464-9.097 2.893-8.543 7.398-16.457 10.118-25.07 4.198-13.298-3.916-30.513-19.509-28.37-16.649 2.285-25.769 17.918-28.99 32.949-3.708 17.298-2.379 37.166 4.767 53.438 5.497 12.518 17.709 27.041 33.064 25.041 3.624-.473 6.612-2.068 9.095-4.336 5.322.572 10.674.66 16.384.287 3.964-.259 7.905-.543 11.848-.792.024 4.118 2.937 8.364 5.619 11.185 7.013 7.369 18.238 10.547 27.839 12.627 11.078 2.4 22.769 3.271 34.063 2.241 10.161-.925 20.306-4.235 27.095-12.177 3.41 1.563 6.969 2.896 10.592 3.274 3.241.338 9.275.741 10.75-3.192 1.64-4.385-1.847-9.968-3.565-13.837zm-150.977-4.451c3.408-4.117 10.148-6.078 15.045-7.73-.916 2.062-1.944 4.06-3.137 5.957-.843 1.341-1.755 2.488-2.722 3.457-3.039-.38-6.088-.95-9.186-1.684zm34.553-22.757c-1.735 5.335-8.7 8.245-14.678 10.275a95.885 95.885 0 0 0 1.047-3.69c1.642-6.25 2.716-12.601 3.431-19.006 6.573 1.076 12.846 4.289 10.2 12.421zm-57.083 16.918c-12.077-14.858-14.269-37.279-12.283-55.619 1.778-16.432 10.604-37.824 30.17-37.982 10.544-.085 14.32 10.328 14.638 19.213.291 8.146-5.596 17.189-8.663 24.45-1.608 3.808-6.486 12.738-2.938 16.747 4.414 4.988 13.162 3.518 19.035 3.393 1.205-.025 2.541 0 3.924.104-.763 8.153-2.063 16.529-4.834 24.16-.773.252-1.511.495-2.173.728-3.97 1.396-8.009 2.765-11.682 4.849-2.181 1.236-5.271 3.805-6.411 5.998-.439.845-.078 1.948.896 2.203a92.307 92.307 0 0 0 8.688 1.825c-9.205 5.143-21.432-1.537-28.367-10.069zm154.788 20.273c-4.762-2.228-9.358-4.797-14.288-6.66-6.72-2.541-13.684-4.962-20.783-7.033 2.251-1.892 4.793-3.507 7.045-4.937a116.26 116.26 0 0 1 1.909-1.184c.55 3.68 3.171 6.036 9.095 5.083 7.388-1.188 14.497-5.167 21.114-9.024.715.455 1.398.957 2.051 1.498-.273 7.852-1.711 15.742-6.143 22.257zm.789-25.415c-4.051 2.225-8.174 4.314-12.487 5.989-2.915 1.132-6.456 2.444-9.63 1.89-1.922-.336-2.429-1.886-2.317-3.72 7.535-4.214 16.227-7.322 24.434-4.159zm-26.984 2.229c-4.207 2.292-8.64 5.092-12.17 8.562a176.05 176.05 0 0 0-9.902-2.414c1.014-.715 1.901-1.556 2.619-2.534 6.854-1.438 13.63-3.756 20.001-6.105a20.006 20.006 0 0 0-.465 2.446l-.083.045zm-48.265-7.365c-.432-3.973 4.614-4.426 7.405-4.455 6.435-.066 15.896 2.329 19.181 8.405.939 1.739.982 3.241.364 4.541-6.854 1.361-13.726 1.683-19.949-.203-3.828-1.159-6.567-4.283-7.001-8.288zm23.034 11.963c-.443.227-.913.443-1.407.649-.647-.116-1.297-.214-1.946-.321a59.683 59.683 0 0 0 3.353-.328zm-31.793 2.454c7.144-1.602 15.027-.758 22.216.12l1.064.152c-8.568 1.785-18.753 2.076-21.545 2.165-2.689.085-5.364.206-8.037.342 1.549-1.636 4.339-2.34 6.302-2.779zm54.124 29.313c-10.113.661-20.418-.338-30.325-2.362-9.358-1.914-19.507-5.055-26.514-11.855-2.271-2.205-4.806-5.835-4.753-9.237a315.22 315.22 0 0 1 9.204-.419c7.448-.21 14.938-.79 22.244-2.306 1.972-.408 4.214-.936 6.366-1.721 4.056.771 8.078 1.719 12.069 2.794l-.186.22c-1.904 2.476-5.039 8.533-1.895 11.309 3.688 3.255 10.016-.776 13.688-2.222 1.779-.698 1.005-3.602-.797-2.893-2.32.912-4.612 1.894-6.966 2.719-4.002 1.401-4.529-2.12-3.031-5.079.584-1.151 1.348-2.222 2.229-3.224 4.572 1.302 9.104 2.743 13.604 4.23 6.709 2.22 13.067 4.718 19.396 7.857.954.474 1.931.962 2.917 1.449-6.645 7.777-17.501 10.103-27.25 10.74zm48.685-10.667c-.915 4.789-13.724.01-16.76-1.245 4.071-6.03 5.688-13.398 6.183-20.717 1.973 2.235 3.642 4.774 5.115 7.254 2.162 3.639 6.318 10.22 5.462 14.708z"/><path opacity=".15" d="M975.457 333.232l-8.753-35.985c-.651-2.683-3.331-4.23-5.981-3.459l-35.554 10.368c-2.651.772-3.681-.539-2.299-2.93l80.101-165.827a5 5 0 0 1 6.832-1.826l47.613 27.531a4.997 4.997 0 0 1 1.825 6.831l-80.1 165.827c-1.381 2.391-3.03 2.154-3.684-.53z"/><path fill="#E64A19" d="M966.457 323.232l-8.753-35.985c-.651-2.683-3.331-4.23-5.981-3.459l-35.554 10.368c-2.651.772-3.681-.539-2.299-2.93l90.101-155.827a5 5 0 0 1 6.832-1.826l47.613 27.531a4.997 4.997 0 0 1 1.825 6.831l-90.1 155.827c-1.381 2.391-3.03 2.154-3.684-.53z"/><path stroke="#fff" stroke-miterlimit="10" d="M961.592 286.302c-.962-3.951-4.454-6.712-8.492-6.712-.84 0-1.68.12-2.496.358l-30.779 8.976 87.609-151.521a1.004 1.004 0 0 1 1.367-.365l47.612 27.531a.98.98 0 0 1 .466.606.977.977 0 0 1-.101.76l-87.608 151.52-7.578-31.153z" fill="none"/><path opacity=".15" d="M1072.543 333.232l8.753-35.985c.651-2.683 3.331-4.23 5.981-3.459l35.555 10.368c2.65.772 3.68-.539 2.298-2.93l-80.101-165.827a5 5 0 0 0-6.832-1.826l-47.612 27.531a4.997 4.997 0 0 0-1.826 6.831l80.1 165.827c1.381 2.391 3.031 2.154 3.684-.53z"/><path fill="#E64A19" d="M1081.543 323.232l8.753-35.985c.651-2.683 3.331-4.23 5.981-3.459l35.555 10.368c2.65.772 3.68-.539 2.298-2.93l-90.101-155.827a5 5 0 0 0-6.832-1.826l-47.612 27.531a4.997 4.997 0 0 0-1.826 6.831l90.1 155.827c1.381 2.391 3.031 2.154 3.684-.53z"/><path stroke="#fff" stroke-miterlimit="10" d="M991.222 165.934a.996.996 0 0 1 .365-1.366l47.612-27.531a1 1 0 0 1 1.367.366l87.61 151.521-30.779-8.976a8.925 8.925 0 0 0-2.497-.358c-4.039 0-7.531 2.761-8.492 6.712l-7.577 31.153-87.609-151.521z" fill="none"/><g opacity=".15"><path d="M1131.893 152.27c-5.635 5.646-6.225 11.288-1.824 17.787.929 1.372.6 2.979-.798 3.872-6.562 4.188-8.203 9.427-5.146 16.504.656 1.521.027 3.01-1.521 3.596-7.188 2.718-9.767 7.448-8.105 14.906.36 1.616-.535 2.945-2.171 3.216-7.531 1.241-10.938 5.362-10.713 12.978.049 1.656-1.083 2.789-2.739 2.74-7.614-.223-11.738 3.183-12.979 10.716-.27 1.636-1.599 2.533-3.216 2.172-7.457-1.663-12.189.916-14.907 8.104-.586 1.55-2.075 2.179-3.597 1.521-7.074-3.06-12.313-1.418-16.501 5.145-.893 1.396-2.499 1.728-3.871.798-6.499-4.402-12.143-3.811-17.79 1.825-1.173 1.171-2.855 1.171-4.027 0-5.647-5.636-11.291-6.228-17.787-1.825-1.372.929-2.979.599-3.872-.798-4.189-6.563-9.428-8.203-16.505-5.145-1.521.658-3.01.029-3.596-1.521-2.717-7.188-7.449-9.769-14.906-8.104-1.617.36-2.945-.536-3.216-2.172-1.241-7.534-5.362-10.938-12.979-10.717-1.656.049-2.788-1.085-2.739-2.741.225-7.613-3.182-11.734-10.715-12.977-1.636-.271-2.532-1.601-2.173-3.217 1.663-7.457-.913-12.188-8.103-14.905-1.551-.586-2.18-2.076-1.522-3.597 3.061-7.076 1.419-12.313-5.144-16.503-1.396-.893-1.726-2.5-.797-3.872 4.397-6.499 3.809-12.141-1.826-17.786-1.17-1.173-1.17-2.856 0-4.029 5.635-5.648 6.227-11.291 1.826-17.787-.93-1.372-.6-2.979.797-3.872 6.563-4.189 8.203-9.427 5.144-16.503-.656-1.521-.027-3.011 1.521-3.597 7.19-2.718 9.769-7.451 8.104-14.908-.36-1.617.535-2.946 2.171-3.215 7.534-1.239 10.94-5.362 10.716-12.98-.049-1.655 1.083-2.788 2.739-2.738 7.615.226 11.737-3.18 12.979-10.712.271-1.636 1.599-2.533 3.216-2.174 7.457 1.663 12.189-.916 14.906-8.104.586-1.55 2.076-2.179 3.597-1.521 7.076 3.06 12.313 1.417 16.503-5.145.894-1.396 2.501-1.729 3.873-.798 6.496 4.397 12.139 3.811 17.785-1.823 1.174-1.171 2.857-1.172 4.029-.001 5.647 5.635 11.29 6.224 17.789 1.824 1.371-.93 2.979-.6 3.871.798 4.188 6.563 9.428 8.203 16.503 5.144 1.521-.656 3.01-.027 3.596 1.521 2.718 7.188 7.45 9.768 14.907 8.104 1.617-.359 2.947.537 3.216 2.172 1.239 7.534 5.363 10.938 12.979 10.714 1.656-.05 2.788 1.084 2.739 2.739-.226 7.617 3.18 11.74 10.712 12.979 1.636.269 2.532 1.599 2.172 3.216-1.661 7.456.918 12.189 8.105 14.907 1.549.586 2.179 2.076 1.521 3.597-3.058 7.077-1.416 12.313 5.146 16.504 1.396.893 1.726 2.499.797 3.871-4.4 6.496-3.811 12.139 1.825 17.787 1.171 1.175 1.171 2.857.001 4.03zm0-2c-5.635 5.646-6.225 11.288-1.824 17.787.929 1.372.6 2.979-.798 3.872-6.562 4.188-8.203 9.427-5.146 16.504.656 1.521.027 3.01-1.521 3.596-7.188 2.718-9.767 7.448-8.105 14.906.36 1.616-.535 2.945-2.171 3.216-7.531 1.241-10.938 5.362-10.713 12.978.049 1.656-1.083 2.789-2.739 2.74-7.614-.223-11.738 3.183-12.979 10.716-.27 1.636-1.599 2.533-3.216 2.172-7.457-1.663-12.189.916-14.907 8.104-.586 1.55-2.075 2.179-3.597 1.521-7.074-3.06-12.313-1.418-16.501 5.145-.893 1.396-2.499 1.728-3.871.798-6.499-4.402-12.143-3.811-17.79 1.825-1.173 1.171-2.855 1.171-4.027 0-5.647-5.636-11.291-6.228-17.787-1.825-1.372.929-2.979.599-3.872-.798-4.189-6.563-9.428-8.203-16.505-5.145-1.521.658-3.01.029-3.596-1.521-2.717-7.188-7.449-9.769-14.906-8.104-1.617.36-2.945-.536-3.216-2.172-1.241-7.534-5.362-10.938-12.979-10.717-1.656.049-2.788-1.085-2.739-2.741.225-7.613-3.182-11.734-10.715-12.977-1.636-.271-2.532-1.601-2.173-3.217 1.663-7.457-.913-12.188-8.103-14.905-1.551-.586-2.18-2.076-1.522-3.597 3.061-7.076 1.419-12.313-5.144-16.503-1.396-.893-1.726-2.5-.797-3.872 4.397-6.499 3.809-12.141-1.826-17.786-1.17-1.173-1.17-2.856 0-4.029 5.635-5.648 6.227-11.291 1.826-17.787-.93-1.372-.6-2.979.797-3.872 6.563-4.189 8.203-9.427 5.144-16.503-.656-1.521-.027-3.011 1.521-3.597 7.19-2.718 9.769-7.451 8.104-14.908-.36-1.617.535-2.946 2.171-3.215 7.534-1.239 10.94-5.362 10.716-12.98-.049-1.655 1.083-2.788 2.739-2.738 7.615.226 11.737-3.18 12.979-10.712.271-1.636 1.599-2.533 3.216-2.174 7.457 1.663 12.189-.916 14.906-8.104.586-1.55 2.076-2.179 3.597-1.521 7.076 3.06 12.313 1.417 16.503-5.145.894-1.396 2.501-1.729 3.873-.798 6.496 4.397 12.139 3.811 17.785-1.823 1.174-1.171 2.857-1.172 4.029-.001 5.647 5.635 11.29 6.224 17.789 1.824 1.371-.93 2.979-.6 3.871.798 4.188 6.563 9.428 8.203 16.503 5.144 1.521-.656 3.01-.027 3.596 1.521 2.718 7.188 7.45 9.768 14.907 8.104 1.617-.359 2.947.537 3.216 2.172 1.239 7.534 5.363 10.938 12.979 10.714 1.656-.05 2.788 1.084 2.739 2.739-.226 7.617 3.18 11.74 10.712 12.979 1.636.269 2.532 1.599 2.172 3.216-1.661 7.456.918 12.189 8.105 14.907 1.549.586 2.179 2.076 1.521 3.597-3.058 7.077-1.416 12.313 5.146 16.504 1.396.893 1.726 2.499.797 3.871-4.4 6.496-3.811 12.139 1.825 17.787 1.171 1.175 1.171 2.857.001 4.03z"/><path stroke="#000" stroke-width="2" stroke-miterlimit="10" d="M1131.893 150.27c-5.635 5.646-6.225 11.288-1.824 17.787.929 1.372.6 2.979-.798 3.872-6.562 4.188-8.203 9.427-5.146 16.504.656 1.521.027 3.01-1.521 3.596-7.188 2.718-9.767 7.448-8.105 14.906.36 1.616-.535 2.945-2.171 3.216-7.531 1.241-10.938 5.362-10.713 12.978.049 1.656-1.083 2.789-2.739 2.74-7.614-.223-11.738 3.183-12.979 10.716-.27 1.636-1.599 2.533-3.216 2.172-7.457-1.663-12.189.916-14.907 8.104-.586 1.55-2.075 2.179-3.597 1.521-7.074-3.06-12.313-1.418-16.501 5.145-.893 1.396-2.499 1.728-3.871.798-6.499-4.402-12.143-3.811-17.79 1.825-1.173 1.171-2.855 1.171-4.027 0-5.647-5.636-11.291-6.228-17.787-1.825-1.372.929-2.979.599-3.872-.798-4.189-6.563-9.428-8.203-16.505-5.145-1.521.658-3.01.029-3.596-1.521-2.717-7.188-7.449-9.769-14.906-8.104-1.617.36-2.945-.536-3.216-2.172-1.241-7.534-5.362-10.938-12.979-10.717-1.656.049-2.788-1.085-2.739-2.741.225-7.613-3.182-11.734-10.715-12.977-1.636-.271-2.532-1.601-2.173-3.217 1.663-7.457-.913-12.188-8.103-14.905-1.551-.586-2.18-2.076-1.522-3.597 3.061-7.076 1.419-12.313-5.144-16.503-1.396-.893-1.726-2.5-.797-3.872 4.397-6.499 3.809-12.141-1.826-17.786-1.17-1.173-1.17-2.856 0-4.029 5.635-5.648 6.227-11.291 1.826-17.787-.93-1.372-.6-2.979.797-3.872 6.563-4.189 8.203-9.427 5.144-16.503-.656-1.521-.027-3.011 1.521-3.597 7.19-2.718 9.769-7.451 8.104-14.908-.36-1.617.535-2.946 2.171-3.215 7.534-1.239 10.94-5.362 10.716-12.98-.049-1.655 1.083-2.788 2.739-2.738 7.615.226 11.737-3.18 12.979-10.712.271-1.636 1.599-2.533 3.216-2.174 7.457 1.663 12.189-.916 14.906-8.104.586-1.55 2.076-2.179 3.597-1.521 7.076 3.06 12.313 1.417 16.503-5.145.894-1.396 2.501-1.729 3.873-.798 6.496 4.397 12.139 3.811 17.785-1.823 1.174-1.171 2.857-1.172 4.029-.001 5.647 5.635 11.29 6.224 17.789 1.824 1.371-.93 2.979-.6 3.871.798 4.188 6.563 9.428 8.203 16.503 5.144 1.521-.656 3.01-.027 3.596 1.521 2.718 7.188 7.45 9.768 14.907 8.104 1.617-.359 2.947.537 3.216 2.172 1.239 7.534 5.363 10.938 12.979 10.714 1.656-.05 2.788 1.084 2.739 2.739-.226 7.617 3.18 11.74 10.712 12.979 1.636.269 2.532 1.599 2.172 3.216-1.661 7.456.918 12.189 8.105 14.907 1.549.586 2.179 2.076 1.521 3.597-3.058 7.077-1.416 12.313 5.146 16.504 1.396.893 1.726 2.499.797 3.871-4.4 6.496-3.811 12.139 1.825 17.787 1.171 1.175 1.171 2.857.001 4.03z" fill="none"/></g><path d="M1131.893 150.27c-5.635 5.646-6.225 11.288-1.824 17.787.929 1.372.6 2.979-.798 3.872-6.562 4.188-8.203 9.427-5.146 16.504.656 1.521.027 3.01-1.521 3.596-7.188 2.718-9.767 7.448-8.105 14.906.36 1.616-.535 2.945-2.171 3.216-7.531 1.241-10.938 5.362-10.713 12.978.049 1.656-1.083 2.789-2.739 2.74-7.614-.223-11.738 3.183-12.979 10.716-.27 1.636-1.599 2.533-3.216 2.172-7.457-1.663-12.189.916-14.907 8.104-.586 1.55-2.075 2.179-3.597 1.521-7.074-3.06-12.313-1.418-16.501 5.145-.893 1.396-2.499 1.728-3.871.798-6.499-4.402-12.143-3.811-17.79 1.825-1.173 1.171-2.855 1.171-4.027 0-5.647-5.636-11.291-6.228-17.787-1.825-1.372.929-2.979.599-3.872-.798-4.189-6.563-9.428-8.203-16.505-5.145-1.521.658-3.01.029-3.596-1.521-2.717-7.188-7.449-9.769-14.906-8.104-1.617.36-2.945-.536-3.216-2.172-1.241-7.534-5.362-10.938-12.979-10.717-1.656.049-2.788-1.085-2.739-2.741.225-7.613-3.182-11.734-10.715-12.977-1.636-.271-2.532-1.601-2.173-3.217 1.663-7.457-.913-12.188-8.103-14.905-1.551-.586-2.18-2.076-1.522-3.597 3.061-7.076 1.419-12.313-5.144-16.503-1.396-.893-1.726-2.5-.797-3.872 4.397-6.499 3.809-12.141-1.826-17.786-1.17-1.173-1.17-2.856 0-4.029 5.635-5.648 6.227-11.291 1.826-17.787-.93-1.372-.6-2.979.797-3.872 6.563-4.189 8.203-9.427 5.144-16.503-.656-1.521-.027-3.011 1.521-3.597 7.19-2.718 9.769-7.451 8.104-14.908-.36-1.617.535-2.946 2.171-3.215 7.534-1.239 10.94-5.362 10.716-12.98-.049-1.655 1.083-2.788 2.739-2.738 7.615.226 11.737-3.18 12.979-10.712.271-1.636 1.599-2.533 3.216-2.174 7.457 1.663 12.189-.916 14.906-8.104.586-1.55 2.076-2.179 3.597-1.521 7.076 3.06 12.313 1.417 16.503-5.145.894-1.396 2.501-1.729 3.873-.798 6.496 4.397 12.139 3.811 17.785-1.823 1.174-1.171 2.857-1.172 4.029-.001 5.647 5.635 11.29 6.224 17.789 1.824 1.371-.93 2.979-.6 3.871.798 4.188 6.563 9.428 8.203 16.503 5.144 1.521-.656 3.01-.027 3.596 1.521 2.718 7.188 7.45 9.768 14.907 8.104 1.617-.359 2.947.537 3.216 2.172 1.239 7.534 5.363 10.938 12.979 10.714 1.656-.05 2.788 1.084 2.739 2.739-.226 7.617 3.18 11.74 10.712 12.979 1.636.269 2.532 1.599 2.172 3.216-1.661 7.456.918 12.189 8.105 14.907 1.549.586 2.179 2.076 1.521 3.597-3.058 7.077-1.416 12.313 5.146 16.504 1.396.893 1.726 2.499.797 3.871-4.4 6.496-3.811 12.139 1.825 17.787 1.171 1.175 1.171 2.857.001 4.03z" opacity=".15"/><linearGradient id="a" gradientUnits="userSpaceOnUse" x1="1071.601" y1="-48.205" x2="1071.601" y2="169.337" gradientTransform="matrix(1 0 0 -1 -47.6 206.822)"><stop offset="0" stop-color="#C58300"/><stop offset="1" stop-color="#F4DA56"/></linearGradient><path fill="url(#a)" d="M1131.893 148.27c-5.635 5.646-6.225 11.288-1.824 17.787.929 1.372.6 2.979-.798 3.872-6.562 4.188-8.203 9.427-5.146 16.504.656 1.521.027 3.01-1.521 3.596-7.188 2.718-9.767 7.448-8.105 14.906.36 1.616-.535 2.945-2.171 3.216-7.531 1.241-10.938 5.362-10.713 12.978.049 1.656-1.083 2.789-2.739 2.74-7.614-.223-11.738 3.183-12.979 10.716-.27 1.636-1.599 2.533-3.216 2.172-7.457-1.663-12.189.916-14.907 8.104-.586 1.55-2.075 2.179-3.597 1.521-7.074-3.06-12.313-1.418-16.501 5.145-.893 1.396-2.499 1.728-3.871.798-6.499-4.402-12.143-3.811-17.79 1.825-1.173 1.171-2.855 1.171-4.027 0-5.647-5.636-11.291-6.228-17.787-1.825-1.372.929-2.979.599-3.872-.798-4.189-6.563-9.428-8.203-16.505-5.145-1.521.658-3.01.029-3.596-1.521-2.717-7.188-7.449-9.769-14.906-8.104-1.617.36-2.945-.536-3.216-2.172-1.241-7.534-5.362-10.938-12.979-10.717-1.656.049-2.788-1.085-2.739-2.741.225-7.613-3.182-11.734-10.715-12.977-1.636-.271-2.532-1.601-2.173-3.217 1.663-7.457-.913-12.188-8.103-14.905-1.551-.586-2.18-2.076-1.522-3.597 3.061-7.076 1.419-12.313-5.144-16.503-1.396-.893-1.726-2.5-.797-3.872 4.397-6.499 3.809-12.141-1.826-17.786-1.17-1.173-1.17-2.856 0-4.029 5.635-5.648 6.227-11.291 1.826-17.787-.93-1.372-.6-2.979.797-3.872 6.563-4.189 8.203-9.427 5.144-16.503-.656-1.521-.027-3.011 1.521-3.597 7.19-2.718 9.769-7.451 8.104-14.908-.36-1.617.535-2.946 2.171-3.215 7.534-1.239 10.94-5.362 10.716-12.98-.049-1.655 1.083-2.788 2.739-2.738 7.615.226 11.737-3.18 12.979-10.712.271-1.636 1.599-2.533 3.216-2.174 7.457 1.663 12.189-.916 14.906-8.104.586-1.55 2.076-2.179 3.597-1.521 7.076 3.06 12.313 1.417 16.503-5.145.894-1.396 2.501-1.729 3.873-.798 6.496 4.397 12.139 3.811 17.785-1.823 1.174-1.171 2.857-1.172 4.029-.001 5.647 5.635 11.29 6.224 17.789 1.824 1.371-.93 2.979-.6 3.871.798 4.188 6.563 9.428 8.203 16.503 5.144 1.521-.656 3.01-.027 3.596 1.521 2.718 7.188 7.45 9.768 14.907 8.104 1.617-.359 2.947.537 3.216 2.172 1.239 7.534 5.363 10.938 12.979 10.714 1.656-.05 2.788 1.084 2.739 2.739-.226 7.617 3.18 11.74 10.712 12.979 1.636.269 2.532 1.599 2.172 3.216-1.661 7.456.918 12.189 8.105 14.907 1.549.586 2.179 2.076 1.521 3.597-3.058 7.077-1.416 12.313 5.146 16.504 1.396.893 1.726 2.499.797 3.871-4.4 6.496-3.811 12.139 1.825 17.787 1.171 1.175 1.171 2.857.001 4.03z"/><path stroke="#FFF2B0" stroke-width="2" stroke-miterlimit="10" d="M1131.893 148.27c-5.635 5.646-6.225 11.288-1.824 17.787.929 1.372.6 2.979-.798 3.872-6.562 4.188-8.203 9.427-5.146 16.504.656 1.521.027 3.01-1.521 3.596-7.188 2.718-9.767 7.448-8.105 14.906.36 1.616-.535 2.945-2.171 3.216-7.531 1.241-10.938 5.362-10.713 12.978.049 1.656-1.083 2.789-2.739 2.74-7.614-.223-11.738 3.183-12.979 10.716-.27 1.636-1.599 2.533-3.216 2.172-7.457-1.663-12.189.916-14.907 8.104-.586 1.55-2.075 2.179-3.597 1.521-7.074-3.06-12.313-1.418-16.501 5.145-.893 1.396-2.499 1.728-3.871.798-6.499-4.402-12.143-3.811-17.79 1.825-1.173 1.171-2.855 1.171-4.027 0-5.647-5.636-11.291-6.228-17.787-1.825-1.372.929-2.979.599-3.872-.798-4.189-6.563-9.428-8.203-16.505-5.145-1.521.658-3.01.029-3.596-1.521-2.717-7.188-7.449-9.769-14.906-8.104-1.617.36-2.945-.536-3.216-2.172-1.241-7.534-5.362-10.938-12.979-10.717-1.656.049-2.788-1.085-2.739-2.741.225-7.613-3.182-11.734-10.715-12.977-1.636-.271-2.532-1.601-2.173-3.217 1.663-7.457-.913-12.188-8.103-14.905-1.551-.586-2.18-2.076-1.522-3.597 3.061-7.076 1.419-12.313-5.144-16.503-1.396-.893-1.726-2.5-.797-3.872 4.397-6.499 3.809-12.141-1.826-17.786-1.17-1.173-1.17-2.856 0-4.029 5.635-5.648 6.227-11.291 1.826-17.787-.93-1.372-.6-2.979.797-3.872 6.563-4.189 8.203-9.427 5.144-16.503-.656-1.521-.027-3.011 1.521-3.597 7.19-2.718 9.769-7.451 8.104-14.908-.36-1.617.535-2.946 2.171-3.215 7.534-1.239 10.94-5.362 10.716-12.98-.049-1.655 1.083-2.788 2.739-2.738 7.615.226 11.737-3.18 12.979-10.712.271-1.636 1.599-2.533 3.216-2.174 7.457 1.663 12.189-.916 14.906-8.104.586-1.55 2.076-2.179 3.597-1.521 7.076 3.06 12.313 1.417 16.503-5.145.894-1.396 2.501-1.729 3.873-.798 6.496 4.397 12.139 3.811 17.785-1.823 1.174-1.171 2.857-1.172 4.029-.001 5.647 5.635 11.29 6.224 17.789 1.824 1.371-.93 2.979-.6 3.871.798 4.188 6.563 9.428 8.203 16.503 5.144 1.521-.656 3.01-.027 3.596 1.521 2.718 7.188 7.45 9.768 14.907 8.104 1.617-.359 2.947.537 3.216 2.172 1.239 7.534 5.363 10.938 12.979 10.714 1.656-.05 2.788 1.084 2.739 2.739-.226 7.617 3.18 11.74 10.712 12.979 1.636.269 2.532 1.599 2.172 3.216-1.661 7.456.918 12.189 8.105 14.907 1.549.586 2.179 2.076 1.521 3.597-3.058 7.077-1.416 12.313 5.146 16.504 1.396.893 1.726 2.499.797 3.871-4.4 6.496-3.811 12.139 1.825 17.787 1.171 1.175 1.171 2.857.001 4.03z" fill="none"/><path d="M1023.955 124.789l4.107 12.63h13.28l-10.744 7.809 4.102 12.631-10.745-7.807-10.744 7.807 4.103-12.631-10.744-7.809h13.282zm-4.103 13.63l4.103-12.63 4.107 12.63h11.904l1.376-1h-13.28l-4.107-12.63-4.103 12.63h-13.282l1.375 1zm10.746 7.809l3.677 11.323.425.308-3.84-11.823zm-13.546-.192l-3.841 11.823.426-.308 3.677-11.323zm-24.641-1.135l2.2 6.766h7.116l-5.756 4.183 2.197 6.765-5.757-4.18-5.755 4.18 2.199-6.765-5.755-4.183h7.114zm-2.197 7.766l2.197-6.766 2.2 6.766h5.74l1.376-1h-7.116l-2.2-6.766-2.197 6.766H983.1l1.375 1zm-1.622 3.992l-1.936 5.956.425-.308 1.774-5.457zm7.379.191l1.771 5.457.426.308-1.935-5.956zm59.746-11.949l2.196 6.766h7.118l-5.756 4.183 2.198 6.765-5.756-4.18-5.756 4.18 2.196-6.765-5.755-4.183h7.116zm3.558 11.949l1.773 5.457.425.308-1.936-5.956zm-5.757-4.183l2.199-6.766 2.196 6.766h5.742l1.376-1h-7.118l-2.196-6.766-2.199 6.766h-7.116l1.376 1zm-1.622 3.992l-1.935 5.956.425-.308 1.771-5.457z" opacity=".15"/><linearGradient id="b" gradientUnits="userSpaceOnUse" x1="1071.557" y1="50.963" x2="1071.557" y2="84.033" gradientTransform="matrix(1 0 0 -1 -47.6 206.822)"><stop offset="0" stop-color="#FFE45A"/><stop offset="1" stop-color="#C98600"/></linearGradient><path fill="url(#b)" d="M1023.955 122.789l4.107 12.63h13.28l-10.744 7.809 4.102 12.631-10.745-7.807-10.744 7.807 4.103-12.631-10.744-7.809h13.282z"/><path d="M1019.852 136.419l4.103-12.63 4.107 12.63h11.904l1.376-1h-13.28l-4.107-12.63-4.103 12.63h-13.282l1.375 1zm10.746 7.809l3.677 11.323.425.308-3.84-11.823zm-13.546-.192l-3.841 11.823.426-.308 3.677-11.323z" opacity=".5" fill="#fff"/><linearGradient id="c" gradientUnits="userSpaceOnUse" x1="1040.014" y1="46.207" x2="1040.014" y2="63.921" gradientTransform="matrix(1 0 0 -1 -47.6 206.822)"><stop offset="0" stop-color="#FFE45A"/><stop offset="1" stop-color="#C98600"/></linearGradient><path fill="url(#c)" d="M992.411 142.901l2.2 6.766h7.116l-5.756 4.183 2.197 6.765-5.757-4.18-5.755 4.18 2.199-6.765-5.755-4.183h7.114z"/><path d="M990.214 150.667l2.197-6.766 2.2 6.766h5.74l1.376-1h-7.116l-2.2-6.766-2.197 6.766H983.1l1.375 1zm-1.622 3.992l-1.936 5.956.425-.308 1.774-5.457zm7.379.191l1.771 5.457.426.308-1.935-5.956z" opacity=".5" fill="#fff"/><linearGradient id="d" gradientUnits="userSpaceOnUse" x1="1103.317" y1="46.207" x2="1103.317" y2="63.921" gradientTransform="matrix(1 0 0 -1 -47.6 206.822)"><stop offset="0" stop-color="#FFE45A"/><stop offset="1" stop-color="#C98600"/></linearGradient><path fill="url(#d)" d="M1055.717 142.901l2.196 6.766h7.118l-5.756 4.183 2.198 6.765-5.756-4.18-5.756 4.18 2.196-6.765-5.755-4.183h7.116z"/><path d="M1059.275 154.85l1.773 5.457.425.308-1.936-5.956zm-5.757-4.183l2.199-6.766 2.196 6.766h5.742l1.376-1h-7.118l-2.196-6.766-2.199 6.766h-7.116l1.376 1zm-1.622 3.992l-1.935 5.956.425-.308 1.771-5.457z" opacity=".5" fill="#fff"/><circle opacity=".2" stroke="#000" stroke-width="2" stroke-miterlimit="10" cx="1024" cy="146.256" r="92.98" fill="none"/><path d="M1024 92.933c29.4 0 53.319 23.921 53.319 53.322 0 29.402-23.919 53.322-53.319 53.322s-53.32-23.92-53.32-53.322c0-29.401 23.92-53.322 53.32-53.322m0-25c-43.255 0-78.32 35.065-78.32 78.322 0 43.258 35.065 78.322 78.32 78.322 43.257 0 78.319-35.064 78.319-78.322.001-43.256-35.062-78.322-78.319-78.322z" opacity=".3"/><path fill="#fff" d="M1024 93.771c28.938 0 52.481 23.544 52.481 52.483s-23.543 52.483-52.481 52.483-52.482-23.544-52.482-52.483S995.062 93.771 1024 93.771m0-1c-29.537 0-53.482 23.944-53.482 53.483 0 29.538 23.945 53.483 53.482 53.483 29.538 0 53.481-23.945 53.481-53.483S1053.538 92.771 1024 92.771z" opacity=".2"/><g opacity=".2" fill="#1C75BC"><path d="M1434.83 212.103c-.966 1.608-3.674 4.401-7.828 7.046-11.804 7.514-22.559 4.034-28.749-5.692-7.416-11.65-3.232-23.425 7.102-30.004 4.002-2.545 7.56-3.669 9.377-3.829l2.33 7.129c-1.989.34-4.553 1.119-7.29 2.862-6.131 3.899-8.538 10.628-3.702 18.229 4.354 6.841 11.146 8.565 18.035 4.182 2.33-1.482 4.594-3.633 5.725-5.209l5 5.286zm11.556-53.978l21.729 34.146-7.751 4.935-17.701-27.813-12.105 7.706 17.7 27.811-7.75 4.937-21.73-34.146 27.608-17.576zm32.621-20.76l21.729 34.146-7.702 4.9-17.7-27.813-7.75 4.934 5.158 8.104c5.576 8.767 8.748 16.214 5.519 22.543-1.109 2.06-2.988 4.25-5.725 5.991l-4.929-5.62c1.542-1.267 2.458-2.846 2.74-4.307.723-3.451-1.544-8.129-4.832-13.296l-9.51-14.944 23.002-14.638zm30.839 16.035l3.144 10.313-8.005 5.097-11.293-40.79 10.132-6.448 32.319 27.408-8.309 5.287-8.215-7.089-9.773 6.222zm4.986-11.286l-6.738-5.895c-1.898-1.64-4.118-3.784-5.915-5.486l-.102.063c.783 2.35 1.921 5.256 2.618 7.586l2.588 8.533 7.549-4.801zm11.531-34.888l6.287 9.882c2.481 3.899 5.752 4.453 9.399 2.13 1.722-1.096 3.223-2.765 4.21-4.457l-9.157-14.389 7.699-4.901 21.73 34.146-7.699 4.901-8.964-14.083-.151.098c-1.709 2.796-3.686 4.837-6.521 6.642-6.181 3.933-12.731 3.478-17.411-3.87l-7.125-11.195 7.703-4.904zm57.98-9.208l-12.563 7.994 5.157 8.105 14.032-8.929 4.029 6.332-21.782 13.862-21.73-34.146 21.074-13.414 4.029 6.334-13.322 8.479 4.513 7.094 12.564-7.997 3.999 6.286zm1.941-28.926l8.353 13.121 12.716-8.092L1599 60.998l7.7-4.899 21.731 34.146-7.701 4.901-9.092-14.285-12.717 8.092 9.093 14.287-7.751 4.934-21.731-34.146 7.752-4.936zm69.046-20.454c7.129 11.195 4.658 22.306-5.32 28.657-10.135 6.448-20.928 2.57-27.118-7.155-6.515-10.235-4.849-22.043 5.235-28.459 10.487-6.676 21.207-2.466 27.203 6.957zm-24.381 16.159c4.256 6.688 10.396 9.398 15.563 6.109 5.219-3.32 5.047-10.188.826-16.825-3.902-6.13-10.194-9.528-15.515-6.143-5.216 3.321-5.095 10.222-.874 16.859z"/><path d="M1681.654 86.21l-261.116 166.179a5.812 5.812 0 0 1-8.016-1.781l-39.719-62.408a5.814 5.814 0 0 1 1.78-8.017l261.116-166.179a5.813 5.813 0 0 1 8.019 1.78l39.719 62.409a5.815 5.815 0 0 1-1.783 8.017zm-305.509 96.421a2.904 2.904 0 0 0-.891 4.008l39.716 62.409a2.909 2.909 0 0 0 4.009.892l261.116-166.177a2.904 2.904 0 0 0 .89-4.009l-39.716-62.408a2.908 2.908 0 0 0-4.008-.894l-261.116 166.179zm316.256-90.353l-270.916 172.413c-5.066 3.223-11.81 1.725-15.03-3.34l-45.956-72.207c-3.222-5.065-1.724-11.81 3.34-15.03L1634.755 1.699c5.063-3.223 11.809-1.725 15.029 3.341l45.954 72.206c3.225 5.067 1.727 11.81-3.337 15.032zm-325.444 86.735a5.088 5.088 0 0 0-1.558 7.015l45.953 72.208a5.09 5.09 0 0 0 7.015 1.558L1689.281 87.38a5.088 5.088 0 0 0 1.559-7.015l-45.953-72.208a5.089 5.089 0 0 0-7.016-1.559l-270.914 172.415z"/></g></svg>