<svg xmlns="http://www.w3.org/2000/svg" width="80" height="80" viewBox="0 0 80 80"><path opacity=".1" d="M62.791 60.129c0 1.143-9.598 2.066-22.894 2.066-13.3 0-22.897-.924-22.897-2.066s9.597-2.068 22.897-2.068c13.296 0 22.894.925 22.894 2.068z"/><path fill="#FFC600" d="M26.785 18v4.232c0 .44.357.798.798.798h2.219c.44 0 .798-.357.798-.798V18h-3.815z"/><path fill="#239ABB" d="M58.983 19.977h-4.078v3.133c0 .879-.713 1.591-1.594 1.591h-4.426a1.591 1.591 0 0 1-1.592-1.591v-3.133H32.498v3.133c0 .879-.713 1.591-1.594 1.591h-4.426a1.591 1.591 0 0 1-1.592-1.591v-3.133h-4.079a2.36 2.36 0 0 0-2.361 2.36V57.77a2.359 2.359 0 0 0 2.361 2.357h38.176a2.359 2.359 0 0 0 2.361-2.357V22.337a2.36 2.36 0 0 0-2.361-2.36zm0 35.433a2.36 2.36 0 0 1-2.362 2.359H23.17a2.36 2.36 0 0 1-2.362-2.359V36.486a2.358 2.358 0 0 1 2.362-2.356h33.451a2.358 2.358 0 0 1 2.362 2.356V55.41z"/><path fill="#FFC600" d="M49.192 18v4.232c0 .44.357.798.798.798h2.219c.44 0 .798-.357.798-.798V18h-3.815zM34.877 42.494h10.561v8.26H34.877z"/><path stroke="#239ABB" stroke-miterlimit="10" fill="none" d="M24.736 42.342H55.44m-30.704 8.412H55.44M45.438 37.69v17.714m-10.7-17.714v17.714"/></svg>