<svg xmlns="http://www.w3.org/2000/svg" width="80" height="80" viewBox="0 0 80 80"><path fill="#239ABB" d="M39.41 15.744c12.498 0 22.666 10.168 22.666 22.667S51.908 61.078 39.41 61.078c-12.499 0-22.667-10.169-22.667-22.667S26.912 15.744 39.41 15.744m0-2c-13.623 0-24.667 11.043-24.667 24.667 0 13.625 11.044 24.667 24.667 24.667s24.666-11.043 24.666-24.667c0-13.623-11.043-24.667-24.666-24.667zm0 11.514c7.252 0 13.152 5.9 13.152 13.152s-5.9 13.152-13.152 13.152c-7.252 0-13.152-5.899-13.152-13.152s5.9-13.152 13.152-13.152m0-2c-8.368 0-15.152 6.784-15.152 15.152s6.784 15.152 15.152 15.152c8.367 0 15.152-6.783 15.152-15.152S47.777 23.258 39.41 23.258z"/><circle fill="#FFC600" cx="39.41" cy="38.411" r="8.084"/><path stroke="#FFC600" stroke-width="2" stroke-miterlimit="10" fill="none" d="M10 38.411h58.82"/><path opacity=".1" d="M51.213 67.848c0 1.141-5.283 2.066-11.802 2.066-6.52 0-11.802-.926-11.802-2.066 0-1.145 5.282-2.068 11.802-2.068 6.519-.001 11.802.923 11.802 2.068z"/><path stroke="#FFC600" stroke-width="2" stroke-miterlimit="10" fill="none" d="M39.41 67.82V9"/></svg>