<svg xmlns="http://www.w3.org/2000/svg" width="80" height="80" viewBox="0 0 80 80"><path opacity=".1" d="M61.928 58.959c0 1.143-9.205 2.066-21.962 2.066-12.76 0-21.966-.923-21.966-2.066 0-1.145 9.206-2.068 21.966-2.068 12.757 0 21.962.923 21.962 2.068z"/><path fill="#239ABB" d="M45.564 44.133h-17.24c-1.858 1.965-2.164 4.986-.733 7.313 1.564 2.541 4.762 3.21 7.536 3.072 2.708-.135 5.351-1.134 7.637-2.565 1.045-.654 2.123-1.132 2.353.503.161 1.167.204 2.801-.774 3.643-1.922 1.653-4.912 2.396-7.367 2.703-2.945.366-6.084.117-8.842-1.023-5.232-2.163-8.214-8.174-6.314-13.644h-.779c-1.325 0-1.305-3.627.086-3.627h3.002c2.257-2.198 5.258-3.416 8.066-4.737H21.041c-1.287 0-1.212-3.177-.229-3.61.282-.124 13.514-.048 16.96-.048 1.511-1.88 1.662-4.791.117-6.717-1.537-1.914-4.236-2.27-6.53-2.036-2.544.258-4.349 1.67-6.626 2.592-1.672.679-1.478-3.489-.824-4.273 1.361-1.633 4.39-2.229 6.367-2.512 2.531-.364 5.226-.129 7.622.784 4.944 1.882 7.345 7.09 5.96 12.162h1.709c1.356 0 1.356 3.658-.274 3.658h-3.442s-4.855 3.648-7.346 4.737h11.063c1.302-.002 1.3 3.625-.004 3.625z"/><circle fill="#FFC600" cx="50.443" cy="47.473" r="11.484"/><path stroke="#fff" stroke-miterlimit="10" d="M50.443 56.993c-5.25 0-9.521-4.271-9.521-9.521s4.271-9.521 9.521-9.521 9.521 4.271 9.521 9.521-4.271 9.521-9.521 9.521z" fill="none"/><path fill="#fff" d="M53.372 48.706h-4.117a1.444 1.444 0 0 0-.175 1.744c.373.608 1.136.768 1.799.735.646-.033 1.277-.271 1.824-.613.25-.157.508-.271.563.119.039.276.049.67-.187.869-.458.396-1.173.572-1.759.646-.703.087-1.453.027-2.112-.245-1.249-.517-1.962-1.951-1.508-3.257h-.187c-.316 0-.312-.867.021-.867h.719c.537-.525 1.255-.816 1.927-1.132h-2.664c-.309 0-.289-.759-.056-.863.065-.028 3.226-.011 4.05-.011.36-.45.396-1.145.028-1.604-.366-.457-1.011-.543-1.56-.486-.607.063-1.039.398-1.584.617-.397.162-.353-.832-.196-1.02.325-.393 1.049-.533 1.521-.604a3.749 3.749 0 0 1 1.821.189c1.181.45 1.754 1.693 1.424 2.904h.407c.324 0 .324.874-.066.874h-.82s-1.159.871-1.756 1.132h2.644c.313.006.311.873-.001.873z"/></svg>