<svg xmlns="http://www.w3.org/2000/svg" width="80" height="80" viewBox="0 0 80 80"><ellipse opacity=".1" cx="40.017" cy="65.955" rx="21.206" ry="2.066"/><path fill="#239ABB" d="M65.016 32.358a7.647 7.647 0 0 1-6.547-3.824c-1.41-2.442-1.319-5.319-.028-7.606.841-1.491 1.042-3.322-.298-4.392a29.04 29.04 0 0 0-7.573-4.358c-1.599-.621-3.089.47-3.964 1.942-1.338 2.249-3.778 3.758-6.589 3.758a7.646 7.646 0 0 1-6.587-3.758c-.877-1.472-2.366-2.563-3.964-1.942a28.946 28.946 0 0 0-7.577 4.358c-1.338 1.069-1.14 2.9-.297 4.392a7.648 7.648 0 0 1-.027 7.603 7.648 7.648 0 0 1-6.546 3.828c-1.716.024-3.404.77-3.67 2.463A27.744 27.744 0 0 0 11 39.186c0 1.485.123 2.944.349 4.368.266 1.691 1.954 2.437 3.67 2.461a7.648 7.648 0 0 1 6.573 11.428c-.843 1.491-1.043 3.322.297 4.391a29.001 29.001 0 0 0 7.577 4.359c1.596.62 3.087-.47 3.964-1.943a7.644 7.644 0 0 1 6.587-3.758c2.811 0 5.251 1.509 6.589 3.758.875 1.474 2.365 2.563 3.964 1.943a29.027 29.027 0 0 0 7.573-4.359c1.34-1.066 1.139-2.896.298-4.391a7.65 7.65 0 0 1 .026-7.604 7.647 7.647 0 0 1 6.549-3.827c1.712-.021 3.402-.767 3.67-2.462.225-1.42.347-2.879.347-4.364 0-1.488-.122-2.942-.347-4.364-.268-1.694-1.958-2.44-3.67-2.464z"/><circle fill="#FFC600" cx="40.017" cy="39.186" r="11.574"/></svg>