<svg xmlns="http://www.w3.org/2000/svg" xmlns:xlink="http://www.w3.org/1999/xlink" width="385" height="543.38" viewBox="0 0 385 543.38"><defs><style>.a{fill:#fdd48d}.b{fill:#fddfa5}.c,.d{opacity:.4}.c{fill:url(#a)}.d{fill:url(#b)}.e{opacity:.89;fill:url(#c)}.ah,.f,.h,.x{fill:none;stroke-miterlimit:10}.f{stroke:#fbbd80}.f,.h{stroke-width:17.99px}.g{fill:#fbbd80}.h{stroke:#fdc887}.i{fill:#fdc887}.j{fill:#fcc687}.k{fill:#fcc587}.l{fill:#ec5b4c}.m{fill:#f9a766}.n{fill:#f4a66a;opacity:.5}.o{fill:#efbb80}.p{fill:#fbbd76}.q,.r,.u{opacity:.1}.q{fill:url(#d)}.r{fill:url(#e)}.s{fill:#e5e5e4}.t{fill:#333}.v{fill:#231f20}.w{fill:#fff}.x{stroke:#f9ad74;stroke-width:2.28px}.y{fill:#b44a37}.z{fill:#f05e4b}.aa{clip-path:url(#f)}.ab{fill:#ffe1a5}.ab,.ad{fill-rule:evenodd}.ac{clip-path:url(#g)}.ad{fill:#fdda93}.ae{opacity:.3}.af{fill:#fcc38c}.ag{fill:#d65345}.ah{stroke:#f9ce62;stroke-width:12.17px}.ai{fill:#faaf3a}.aj{fill:#f89c1c}</style><radialGradient id="a" cx="328.55" cy="645.99" r="100.03" gradientTransform="matrix(.7 0 0 .12 -49.09 419.42)" gradientUnits="userSpaceOnUse"><stop offset=".1" stop-color="#172c3d"/><stop offset=".18" stop-color="#172c3d" stop-opacity=".74"/><stop offset=".32" stop-color="#172c3d" stop-opacity=".41"/><stop offset=".48" stop-color="#172c3d" stop-opacity=".18"/><stop offset=".68" stop-color="#172c3d" stop-opacity=".04"/><stop offset="1" stop-color="#172c3d" stop-opacity="0"/></radialGradient><radialGradient id="b" cx="192.5" cy="460.78" r="192.1" gradientTransform="matrix(1 0 0 .23 0 390.58)" gradientUnits="userSpaceOnUse"><stop offset="0" stop-color="#172c3d"/><stop offset=".09" stop-color="#172c3d" stop-opacity=".74"/><stop offset=".25" stop-color="#172c3d" stop-opacity=".41"/><stop offset=".43" stop-color="#172c3d" stop-opacity=".18"/><stop offset=".64" stop-color="#172c3d" stop-opacity=".04"/><stop offset="1" stop-color="#172c3d" stop-opacity="0"/></radialGradient><radialGradient id="c" cx="210.47" cy="506.71" r="65.29" gradientTransform="matrix(.96 0 0 .19 -2.5 403.65)" gradientUnits="userSpaceOnUse"><stop offset=".15" stop-color="#172c3d"/><stop offset=".23" stop-color="#172c3d" stop-opacity=".74"/><stop offset=".36" stop-color="#172c3d" stop-opacity=".41"/><stop offset=".51" stop-color="#172c3d" stop-opacity=".18"/><stop offset=".7" stop-color="#172c3d" stop-opacity=".04"/><stop offset="1" stop-color="#172c3d" stop-opacity="0"/></radialGradient><radialGradient id="d" cx="159.57" cy="111.02" r="17.27" gradientUnits="userSpaceOnUse"><stop offset="0" stop-color="#eb2027"/><stop offset=".06" stop-color="#eb2027" stop-opacity=".88"/><stop offset=".2" stop-color="#eb2027" stop-opacity=".65"/><stop offset=".34" stop-color="#eb2027" stop-opacity=".45"/><stop offset=".48" stop-color="#eb2027" stop-opacity=".29"/><stop offset=".61" stop-color="#eb2027" stop-opacity=".16"/><stop offset=".75" stop-color="#eb2027" stop-opacity=".07"/><stop offset=".88" stop-color="#eb2027" stop-opacity=".02"/><stop offset="1" stop-color="#eb2027" stop-opacity="0"/></radialGradient><radialGradient id="e" cx="202.44" cy="111.02" r="17.27" xlink:href="#d"/><clipPath id="f"><path class="a" d="M195.3 21.72C204.88 14.07 214 1.37 226.6.26c11-1 32.72 0 34.14 15.92 1.55 17.36-25 41.74 3.43 47.27 5.16 1 14.82 0 14.56 7.88-.2 6.35-5.24 14-8.67 18.9s-22 28.16-4 23.07c-2.76 9.07-16.27 10.08-22 3.92-2-2.12-3.94-5.13-4.16-8.19s1.82-5.64 3-8.35a12.87 12.87 0 0 0 1.37-4.68c0-8.16-19.51-.27-19.51-.41-.1-5.07-2.91-46-2.91-46z"/></clipPath><clipPath id="g"><path class="b" d="M144.43 158c9.08-3.21 1.57-23-.71-28-5.64-12.44-11.51-22.81-13.23-36.64-2.87-23-2-53 20.8-66.57 19.12-11.42 54.9-7.07 68.73 11 11.83 15.47 11 37.74 7.75 55.92-1.93 10.84-5.4 20.94-9.19 31.23-4.06 11-8.86 26.1 2 34.89-24.51-8-4.7-44.09-4-59.65.62-13-3-27.92-12.5-37.38-8.78-8.78-18.34-1.54-27.75 2.31-9.76 4-22 7.57-28.32 16.73-7.63 11.13-1.84 25.84 1.2 37.52 2.34 8.71 8.45 33.92-4.78 38.64z"/></clipPath></defs><title>female-1</title><ellipse class="c" cx="180.72" cy="497.58" rx="70.34" ry="12.8"/><ellipse class="d" cx="192.5" cy="498.85" rx="192.5" ry="44.53"/><ellipse class="e" cx="200.19" cy="497.58" rx="63.22" ry="12.8"/><path class="f" d="M154.77 311.08l11.7 74.64 29.18 99.7"/><ellipse class="g" cx="185.42" cy="448.23" rx="10.1" ry="46.02" transform="rotate(-18.29 185.385 448.163)"/><path class="h" d="M194.75 311.08l-12.18 173.13"/><ellipse class="i" cx="184.79" cy="443.47" rx="46.02" ry="10.1" transform="rotate(-84.4 184.786 443.47)"/><path class="j" d="M140.32 285.9a9 9 0 0 1-5.84-2.16c-12.78-10.94-20.18-46.91-15.83-77 3.39-23.43 13.26-39.43 28.55-46.27a9 9 0 0 1 7.34 16.42c-12.46 5.57-16.68 22.71-18.09 32.42-4 27.4 3.94 55.78 9.72 60.73a9 9 0 0 1-5.85 15.83zM222.59 285.9a9 9 0 0 1-7-14.63c7.36-9.16 15.5-48.85 7.89-75.14-3-10.31-7.81-16.68-14.34-18.92a9 9 0 1 1 5.84-17c8.53 2.92 19.92 10.66 25.78 30.93 8.73 30.17 1 76.25-11.15 91.41a9 9 0 0 1-7.02 3.35z"/><path class="k" d="M226.68 173.57s-1.25-7.81-2.76-8.53c-3.31-1.59-3.5-2.24-7-3.24-4.71-1.36-10.2-2-14.58-4.44a20.21 20.21 0 0 1-8.47-9.86c-2-4.86-1.7-9.6-1.64-14.82 0-.62.19-10.18 0-10.18h-22.48c0 6.4.8 13.23 0 19.58a22.27 22.27 0 0 1-9.91 15.38c-2 1.22-4.23 1.41-6.44 2-4.85 1.24-4.57 2.73-9.38 4.2a19.79 19.79 0 0 0-3.43 1.41c-1.5.72-2.76 8.53-2.76 8.53l43.49 33.31z"/><path class="l" d="M214.18 270.85c-13.42-26-7.21-27.56 7.16-53a75.87 75.87 0 0 0 4-7.93c3.55-10.78 1.18-18.57-1.45-23.22-2.47-4.36-8.14-27.09-8.14-27.09L201.82 158l-6.18 12.07h-29.16L160.3 158l-13.92 1.56s-5.67 22.73-8.14 27.09c-2.63 4.65-5 12.44-1.45 23.22a75.85 75.85 0 0 0 4 7.93c14.37 25.45 20.58 27 7.16 53a82.5 82.5 0 0 0-13.2 62l20 83.06 26.29 2.7 26.29-2.7 20-83.06a82.5 82.5 0 0 0-13.15-61.95z"/><path class="k" d="M229.58 280.43s-1.45 11.28-7.21 13.71-14.09-2.52-16.88-8.56c-2.19-5.71.75-11.12 2.24-11.21-1.65-2-3.07-5.39 1.19-6.76s9.56-.39 12.43 2 8.23 10.82 8.23 10.82zM166.38 163.01l1.46 8.87 13.19 11.8 14.77-12.87 2.74-6.74-32.16-1.06z"/><path class="m" d="M192.27 130.66c0 2.27-.1 3.92-.06 6.58-2.37 2.32-5.34 3.68-11.2 3.68s-8.62-1.13-11-3.33c0-4.16 0-7.4-.15-11 0-1.91-.08-3.83-.16-5.73v-.33h22.56c.2-.04.02 9.47.01 10.13z"/><path class="n" d="M168.79 162.82a73.81 73.81 0 0 1 8.55-1.16c.36 0 1.05-.25 1.32 0a2 2 0 0 1 .23.48 2.5 2.5 0 0 0 2.33 1.65 3.27 3.27 0 0 0 2.34-1.64 3.18 3.18 0 0 1 .22-.36c.19-.39.82-.16 1.13-.13a74.47 74.47 0 0 1 8.36 1.16c-1.45-.08-2.9-.2-4.35-.35-1.6-.16-3.24-.13-4.85-.23.11 0 .23 0 .28-.15a4.07 4.07 0 0 1-3 2.39 3.28 3.28 0 0 1-3.26-2.45c0 .11.22.17.31.19-1.61.09-3.21.15-4.82.2s-3.22.3-4.83.39c.83-.15.85-.04.04.01z"/><path class="k" d="M214.71 34.33c-13.05-15.9-24.87-10.12-33.71-10.12s-20.63-5.78-33.68 10.12-9.05 50-9.05 50-.84 13.21 6.31 22.51c13.47 23.13 24.4 30.76 36.41 30.76s22.94-7.63 36.41-30.76c7.15-9.29 6.31-22.51 6.31-22.51s4.05-34.1-9-50z"/><path class="o" d="M144.46 107.64s0-.29-.05-.82c-.22-4.28-.76-24 7.76-29 9.57-5.69 35.84-17.22 39-17.6s14.21.11 19.06 13.16 5.49 24.36 5.67 34.31 4.9-26.11 4.9-26.11l-22.24-31.24-27.5 9.84-29.71 18.59 1 25.69"/><path class="p" d="M138.3 82.5s-.52-4.5-.57-11a118 118 0 0 0 .55 12.5c-.01-.93.02-1.5.02-1.5zM223.76 82.5v1.53a118.07 118.07 0 0 0 .54-12.52c-.02 6.49-.54 10.99-.54 10.99zM217.45 105C204 128.14 193 135.77 181 135.77s-22.94-7.63-36.41-30.76c-5.35-6.95-6.23-16.09-6.33-20.26-.07 2.37 0 13.77 6.33 22.06 13.47 23.13 24.4 30.76 36.41 30.76s22.94-7.63 36.41-30.76c6.37-8.28 6.4-19.67 6.33-22.05-.07 4.17-.95 13.3-6.29 20.24z"/><circle class="q" cx="159.57" cy="111.02" r="17.27"/><circle class="r" cx="202.44" cy="111.02" r="17.27"/><path class="s" d="M170.43 177.42l11.33 31.56 9.87-31.56-10.6 6.21-10.6-6.21z"/><circle class="t" cx="181.03" cy="186.8" r="1.24"/><circle class="t" cx="181.03" cy="193.2" r="1.24"/><circle class="t" cx="181.03" cy="199.6" r="1.24"/><g class="u"><path class="v" d="M193.37 147.47l-.1-.54 10.06 2.93 16.32 32.36-14.6-10.56-24 13 20.73-25.64-5.11-5.22a12.16 12.16 0 0 1-1.88-2.49 12.16 12.16 0 0 1-1.42-3.84zM168.69 147.47l.1-.54-10.06 2.93-16.32 32.36L157 171.67l24 13-20.7-25.62 5.11-5.22a12.16 12.16 0 0 0 1.88-2.49 12.16 12.16 0 0 0 1.4-3.87z"/></g><path class="w" d="M193.37 146.46l-.1-.54 10.06 2.93 16.32 32.36-14.6-10.56-24 13L201.76 158l-5.11-5.22a12.16 12.16 0 0 1-1.88-2.49 12.16 12.16 0 0 1-1.4-3.83zM168.69 146.46l.1-.54-10.06 2.93-16.32 32.36L157 170.65l24 13L160.3 158l5.11-5.22a12.16 12.16 0 0 0 1.88-2.49 12.16 12.16 0 0 0 1.4-3.83z"/><path class="x" d="M177.77 103.12c3 3.75 6 3.39 9.15 0"/><path class="t" d="M194.48 88c.05 3.53 1.6 6.37 3.46 6.35s3.32-2.9 3.27-6.43-1.6-6.37-3.45-6.35-3.33 2.86-3.28 6.43z"/><path class="w" d="M196.71 84.54a1.4 1.4 0 0 0 1.47 1.25 1.3 1.3 0 0 0 1.1-1.52 1.4 1.4 0 0 0-1.47-1.27 1.3 1.3 0 0 0-1.1 1.54z"/><path class="t" d="M162.52 88c.05 3.53 1.6 6.37 3.46 6.35s3.32-2.9 3.27-6.43-1.6-6.38-3.45-6.35-3.33 2.86-3.28 6.43z"/><path class="w" d="M164.75 84.54a1.4 1.4 0 0 0 1.47 1.25 1.3 1.3 0 0 0 1.1-1.52 1.4 1.4 0 0 0-1.48-1.27 1.3 1.3 0 0 0-1.09 1.54z"/><path class="t" d="M156.93 78.69a8.5 8.5 0 0 1 3-3 9.88 9.88 0 0 1 4.07-1.25 9.35 9.35 0 0 1 4.32.29 7.76 7.76 0 0 1 3.52 2.5l-.11.23a25.36 25.36 0 0 1-4-.28c-1.25-.13-2.41-.63-3.66-.72a9.7 9.7 0 0 0-3.66.4 8.52 8.52 0 0 0-3.29 2zM205.86 78.85a8.52 8.52 0 0 0-3.29-2 9.7 9.7 0 0 0-3.66-.4c-1.25.09-2.41.59-3.66.72a25.36 25.36 0 0 1-4 .28l-.11-.23a7.76 7.76 0 0 1 3.52-2.5 9.35 9.35 0 0 1 4.32-.29 9.88 9.88 0 0 1 4.16 1.27 8.5 8.5 0 0 1 3 3z"/><path class="y" d="M178.2 115.21c5.35.47 13.07.31 15.47-1a18.59 18.59 0 0 1-2.19 3.85c-1.79 2.28-4.63 2.94-9.39 2.85-7.33-.14-7.59.31-9.83-3.66a31.85 31.85 0 0 0-2.49-4 27.09 27.09 0 0 0 8.43 1.96z"/><path class="w" d="M191 116.54c-3.65 2.43-12.4 3-17.23.38-.36-.2-.66-1.1-1.95-2l20.67-.75z"/><path class="z" d="M192.41 116c-1 1.37-4.48 4-10.39 4a13.32 13.32 0 0 1-10.5-4.45c-.44-.57-1.34-1.66-1.34-1.66a34.12 34.12 0 0 0 2.31 4.73 11.27 11.27 0 0 0 4 4 11.56 11.56 0 0 0 5.52 1.6h.11a11.54 11.54 0 0 0 5.51-1.6 10.81 10.81 0 0 0 4-3.87 35.23 35.23 0 0 0 2.31-4.78s-1.09 1.45-1.53 2.03z"/><path class="z" d="M194.55 113.24c-.47.33-1.4.64-3.33.42a44.25 44.25 0 0 0-9.17-.11 40.76 40.76 0 0 0-9.19 0c-1.93.21-2.83-.11-3.3-.44 2.51 2.84 7.32 3.35 12.48 3.33 5.16.09 9.96-.38 12.51-3.2z"/><path class="y" d="M194.92 112.92a4.14 4.14 0 0 0-1.3 1c-1.71 1.88-7.81 2.34-9.49 2.33-.51 0-1.19 0-2 .05s-1.44-.05-2-.05c-1.68 0-7.78-.45-9.49-2.33a4.12 4.12 0 0 0-1.3-1c-.83-.29-1.22 0-.52.38.24.14.69-.12 1.4.82 1.08 1.42 5.07 2.11 7.59 2.35 1.27.12 2.77.19 4.29.22s3-.1 4.29-.22c2.52-.24 6.51-.93 7.59-2.35.71-.94 1.15-.67 1.4-.82.76-.42.37-.67-.46-.38z"/><path class="a" d="M195.3 21.72C204.88 14.07 214 1.37 226.6.26c11-1 32.72 0 34.14 15.92 1.55 17.36-25 41.74 3.43 47.27 5.16 1 14.82 0 14.56 7.88-.2 6.35-5.24 14-8.67 18.9s-22 28.16-4 23.07c-2.76 9.07-16.27 10.08-22 3.92-2-2.12-3.94-5.13-4.16-8.19s1.82-5.64 3-8.35a12.87 12.87 0 0 0 1.37-4.68c0-8.16-19.51-.27-19.51-.41-.1-5.07-2.91-46-2.91-46z"/><g class="aa"><path class="ab" d="M230.25-6.12c.85-.34 10.92-1.42 9.3-1A47.31 47.31 0 0 0 223.5.64c-7.76 5.66-11.85 14.21-11.38 13.78S215.74 8.7 225.86 4A20.75 20.75 0 0 1 231 2.46c-6.93 5.45-13.1 11.54-17.17 19.32a24.15 24.15 0 0 1 26.33-1.44c-15.42 16.29-.4 28.87 2.14 45.19-.62-4 1.9-10 3-13.84 8 6.52 20.94 33.57 15.25 44.76 2.06-3.87 6.71-15.7 6.28-18.92 1.52 7.15 4.95 9.16.2 17.09-4.56 7.91-5.91 19.1-5.91 19.1s17.69-8.62 20-12.57 5.81-19.21 3.72-21.67c2.21 2.59 1.83 10.47 2.1 13.8a34.57 34.57 0 0 0 5.42-21.23C287.68 58 278 43.12 272.43 37c-6.09-6.64-24.94-43.2-16.51-52.14l3.38-3.58s-11.89 3.55-19.3 7.32-10.6 5.62-9.75 5.28z"/></g><path class="b" d="M144.43 158c9.08-3.21 1.57-23-.71-28-5.64-12.44-11.51-22.81-13.23-36.64-2.87-23-2-53 20.8-66.57 19.12-11.42 54.9-7.07 68.73 11 11.83 15.47 11 37.74 7.75 55.92-1.93 10.84-5.4 20.94-9.19 31.23-4.06 11-8.86 26.1 2 34.89-24.51-8-4.7-44.09-4-59.65.62-13-3-27.92-12.5-37.38-8.78-8.78-18.34-1.54-27.75 2.31-9.76 4-22 7.57-28.32 16.73-7.63 11.13-1.84 25.84 1.2 37.52 2.34 8.71 8.45 33.92-4.78 38.64z"/><g class="ac"><path class="ad" d="M122.85 45.23c10.46 1.84 21 3.11 31.56 4.45-2.29-1-18.56-9.54-19.73-8.29 6.27-6.72 29-5.09 37.36-3.55-3.37-1.17-12-6.32-15.52-5.16 9.55-3.18 22.09-3.06 31.74-1.08 5.28 1.08 22.08 4.83 24.9 10.45-1.78-3.56-2.12-8.35-4.18-12.16-4.76-8.77-9.23-12.34-19.09-13-13.66-.85-27.26 6-39.6 11-15.13 6.16-49.19 23.94-60.66 2.51 3.83 10.79 23.67 13.15 33.22 14.83z"/><path class="ad" d="M199.19 60.34c-16.75 20.13-38.12 27.71-63.93 26.1 9.48.59 17-6.82 25.42-9.79a73.75 73.75 0 0 1-29.25-3.2c13.27 4 23.91-4.31 35.43-9.42-6.89.21-14.7-3.51-21.37-.64 12.9-5.55 25.74-11.74 40.13-11.41L174.4 41.35c6.95 2.22 25.87 9.49 24.79 18.99z"/></g><path class="l" d="M209.1 14.93s8.7-3.11 13-1.06c5.54 2.65-1.28 21.05-6.21 21.93s-9.7-5.12-11-9.51a22.83 22.83 0 0 0 4.21-11.36z"/><g class="ae"><path d="M207.3 20.3c1.73-2.78 4.91-2.69 6.94-2 .13 0 .89-.07.57-.17-2.3-.75-6.21-1.1-8.23 2.12-.09.15.6.27.72.08zM207.74 21.9a6.45 6.45 0 0 1 6.14 2.43c.14.18.91.12.85 0-1.68-2.32-4.84-3.05-7.59-2.69-.39.06.45.24.6.22zM205.55 24.94c2.15-1.75 4.45.56 5.73 2.67.08.14.68.55.47.21-1.45-2.4-4.21-5.5-6.71-3.46-.11.09.35.71.5.58z"/></g><path class="l" d="M201.41 12.07s-4.53-8.62-9.09-9.29C186.87 2 179.23 20 182.66 23.43c4.29 4.25 10.69 2.48 14.51 0a22.81 22.81 0 0 1 4.24-11.36z"/><g class="ae"><path d="M198.86 16.43c.42-2.78-1.79-4.54-3.55-5.28-.11 0-.56-.55-.29-.44 2 .84 4.86 2.85 4.38 6.08 0 .14-.56-.17-.54-.36zM197.81 18.2a7.71 7.71 0 0 0-6.81-2.41c-.24 0-.85-.54-.74-.56 3-.57 6.19 1.06 8.25 3.22.3.31-.54-.12-.66-.25zM198 20.66c-.83-1.93-3.87-.71-6 .62-.14.09-.82.25-.49 0 2.4-1.51 6.21-3.24 7.17-1 0 .09-.65.46-.71.33z"/></g><path class="af" d="M201.41 12s5.27-.24 7.68 3c0 0-.47 6.74-4.23 11.36 0 0-5.16.18-7.71-2.87 0-.07.02-7.08 4.26-11.49z"/><path class="ag" d="M209.62 261.76L207 249.87a121.44 121.44 0 0 1-19.52 2.61 9.09 9.09 0 0 0-12.88 0 119.8 119.8 0 0 1-19.36-2.61l-2.61 11.89a131.91 131.91 0 0 0 21.37 2.87 9.09 9.09 0 0 0 14.11 0 133.59 133.59 0 0 0 21.51-2.87z"/><path class="ag" d="M225.33 209.9c1.23-1.81-3.78 7.59-4 7.94-10.12 17.91-16.19 24-14.21 35.09l-4.7 3h-48.13c3.69-13.13-2.53-18.63-13.52-38.09-.09-.17-.8-1.43-1.61-3 3.82 5 10.67 8.66 22.7 8.19 34.32-1.34 30.92-.28 43.13-.28.01.05 11.95-.49 20.34-12.85z"/><path class="ah" d="M154 254.8a128.44 128.44 0 0 0 54.37 0"/><circle class="ai" cx="181.06" cy="257.89" r="9.09"/><path class="aj" d="M189 262.22a9.09 9.09 0 1 1-14.5-10.68 17.44 17.44 0 0 1 6.51 6.34 8.36 8.36 0 0 0 7.99 4.34z"/><path class="k" d="M133.34 280.43s1.45 11.28 7.21 13.71 14.09-2.52 16.88-8.56c2.19-5.71-.75-11.12-2.24-11.21 1.65-2 3.07-5.39-1.19-6.76s-9.56-.39-12.43 2-8.23 10.82-8.23 10.82z"/><path class="ag" d="M205 477.4c.7.5.29 6.62.32 8.76 0 3.06.1 6.61-.91 9.57-1.06 3.13-4.74 3.15-7.92 2.67-3.74-.56-9.14-.21-12.07-2.85a6.63 6.63 0 0 1-1.83-4.66c.14-2 2.29-3.16 4-4.34l12.35-7.22c2.76-1.62 5.06-2.67 6.06-1.93z"/><path class="l" d="M172.25 488.06l-.51 9.77a.81.81 0 0 0 .62.93l1.62.08a.58.58 0 0 0 .45-.19 1 1 0 0 0 .27-.67l.48-9.19z"/><path class="l" d="M172.94 474.34l-.69 13.73 2.09 1.47c2.06-1.48 3.2-1.63 11.24 6.17a10.75 10.75 0 0 0 7.48 3h15.68s-.79-4-12.13-10.85z"/></svg>