<svg xmlns="http://www.w3.org/2000/svg" xmlns:xlink="http://www.w3.org/1999/xlink" width="314.66" height="773.25" viewBox="0 0 314.66 773.25"><defs><style>.a{fill:#fb9a18}.b{opacity:.1;isolation:isolate}.c,.i,.n{fill:none;stroke-miterlimit:10}.c{stroke:#ffd1a4;stroke-width:28.77px}.d{fill:#fb8029}.e{fill:#f3c581}.f{fill:#fc9}.g{fill:#f6a76a;opacity:.5}.h{fill:#ffb97f}.i{stroke:#ffaf73;stroke-linecap:round;stroke-width:3.08px}.j{fill:#333}.k,.u{fill:#fff}.l{clip-path:url(#a)}.m{fill:#ff8b2d}.n{stroke:#fee0a6;stroke-width:7.58px}.o,.p{opacity:.2}.o{fill:url(#b)}.p{fill:url(#c)}.q{fill:#fee0a6}.r{fill:#ffc491}.s{fill:#b54a37}.t{fill:#ff5d47}.u,.w{opacity:.3}.v{fill:#68ccff}</style><clipPath id="a"><path class="a" d="M288 568.67c-10.76-38.9-29.34-89-61-169.56-9-23.83-8.62-21.71-7.62-46.27.12-.57 4.35-62.94 2-93.8-1.25-12.84-2.6-52.5-2.41-56.76-6.76-.19-20.85 1.15-22.27 7.71a59 59 0 0 1-5.78 15.65c-5.74 11-13.38 16.62-21.91 19.45-3.79 1.26-20 1.26-23.75 0-8.53-2.83-16.17-8.46-21.91-19.45a59.08 59.08 0 0 1-5.87-15.64c-1.43-6.57-15.52-7.91-22.27-7.71.19 4.25-1.21 43.91-2.41 56.71-2.39 30.86 1.84 93.23 2 93.8 1 24.56 2.75 22.88-7.62 46.27C57.37 464 37 529.79 26.11 568.67c-3.36 11.07 10.47 21.71 22.64 16.8 5.4-2.18 12.36-.91 17 2.7q7.46 5.83 15.06 11.6a17.56 17.56 0 0 0 18.24 1.53q7.53-4 14.89-8.26a17.19 17.19 0 0 1 19.06 1.4q6.88 5.51 14 10.93a17.3 17.3 0 0 0 20.17 0q7.08-5.41 14-10.93a17.18 17.18 0 0 1 18.99-1.44q7.36 4.22 14.89 8.26a17.55 17.55 0 0 0 18.24-1.53q7.61-5.76 15.06-11.6c4.63-3.61 11.59-4.88 17-2.7 12.17 4.95 26-5.69 22.65-16.76z"/></clipPath><radialGradient id="b" cx="115.95" cy="139.69" r="31.09" gradientUnits="userSpaceOnUse"><stop offset="0" stop-color="#ed1c24"/><stop offset=".07" stop-color="#ed1c24" stop-opacity=".88"/><stop offset=".2" stop-color="#ed1c24" stop-opacity=".65"/><stop offset=".34" stop-color="#ed1c24" stop-opacity=".45"/><stop offset=".48" stop-color="#ed1c24" stop-opacity=".29"/><stop offset=".62" stop-color="#ed1c24" stop-opacity=".16"/><stop offset=".75" stop-color="#ed1c24" stop-opacity=".07"/><stop offset=".88" stop-color="#ed1c24" stop-opacity=".02"/><stop offset="1" stop-color="#ed1c24" stop-opacity="0"/></radialGradient><radialGradient id="c" cx="197.75" cy="139.69" r="31.09" xlink:href="#b"/></defs><title>female-child</title><path class="b" d="M314.66 742.16c0 17.14-70.49 31.09-157.33 31.09S0 759.3 0 742.16s70.49-31.09 157.33-31.09 157.33 13.83 157.33 31.09z"/><path class="c" d="M121.68 506.13V730"/><path class="d" d="M151.06 743c0 10.94-9.92 11.59-28.71 11.59S93.63 754 93.63 743s9.93-24 28.72-24 28.71 13.23 28.71 24z"/><path class="c" d="M192.48 506.13V730"/><path class="d" d="M220.47 743c0 10.94-9.92 11.59-28.71 11.59S163 754 163 743s9.93-24 28.72-24 28.75 13.23 28.75 24z"/><path class="e" d="M99.4 215.5L93.71 81.37l127.62 6.92-7.45 127.21H99.4z"/><path class="f" d="M204.76 208.92c-11.22-4.46-8.21-1.19-17.52-9.74-6.34-5.83-8.17-13.42-8-24 .06-4.8 0-28.74 0-35.89h-44.65v35.89c.15 10.61-1.69 18.21-8 24-9.31 8.55-6.3 5.28-17.52 9.74-57.59 22.87-26.89 45.41-26.89 45.41h149.47c3.9-7.99 26.8-24.09-26.89-45.41z"/><path class="g" d="M127.52 214.35a180.13 180.13 0 0 1 20.82-2.84c.87-.07 2.56-.6 3.23 0a4.78 4.78 0 0 1 .56 1.16c1.08 2.27 3 4.18 5.68 4 2.46-.16 4.4-2 5.7-4a7.56 7.56 0 0 1 .53-.87c.47-.95 2-.39 2.75-.32a181.1 181.1 0 0 1 20.35 2.83c-3.53-.2-7.06-.5-10.58-.85-3.91-.39-7.89-.33-11.81-.56.26-.05.56-.07.69-.36-1.39 2.71-4 5.58-7.23 5.82-3.85.29-6.74-2.46-7.94-6 .07.26.53.42.76.46-3.91.22-7.82.35-11.73.48-3.92.39-7.84.74-11.77 1 1.92-.3 1.96-.06-.01.05z"/><path class="h" d="M179.23 175.79c-7.9 5.9-14.29 8.7-22 8.7-7.92 0-14.58-3-22.61-9.13v-20.67h44.67c-.04 4.18 0 17.99-.06 21.1z"/><path class="f" d="M215.67 87c.2-13.79-3.27-41.89-3.27-41.89H101.71s-1.29 26.2-3.27 41.89c-1.74 13.79-5.14 28.95 2.81 46.32s34.76 46.32 55.81 46.32 47.86-28.95 55.81-46.32 2.59-32.42 2.8-46.32z"/><path class="i" d="M150.31 133.34q6.85 6.11 13.42.41"/><path class="j" d="M178.22 103.36c.1 6.55 3 11.82 6.41 11.79s6.17-5.38 6.07-11.93-3-11.83-6.41-11.79-6.16 5.38-6.07 11.93z"/><path class="k" d="M182.35 97a2.6 2.6 0 0 0 2.74 2.31 2.41 2.41 0 0 0 2-2.81 2.6 2.6 0 0 0-2.74-2.31 2.41 2.41 0 0 0-2 2.81z"/><path class="j" d="M124.31 103.36c.09 6.55 3 11.83 6.41 11.79s6.17-5.38 6.07-11.93-3-11.83-6.41-11.79-6.16 5.38-6.07 11.93z"/><path class="k" d="M128.45 97a2.59 2.59 0 0 0 2.73 2.31 2.41 2.41 0 0 0 2-2.81 2.59 2.59 0 0 0-2.74-2.31 2.41 2.41 0 0 0-1.99 2.81z"/><path class="j" d="M115.53 87.72a22.55 22.55 0 0 1 5.67-3.46 26.66 26.66 0 0 1 6.49-1.81 18.46 18.46 0 0 1 6.8-.19 14.8 14.8 0 0 1 3.28 1.08 9.32 9.32 0 0 1 2.86 2l-.13.26c-2.28-.18-4.3-.33-6.38-.42s-4.11-.45-6.21-.38a30.23 30.23 0 0 0-6.24.87 24.45 24.45 0 0 0-6 2.32zM198.89 88a24.45 24.45 0 0 0-6-2.32 30.23 30.23 0 0 0-6.24-.87c-2.1-.07-4.16.34-6.21.38s-4.1.23-6.38.42l-.13-.26a9.32 9.32 0 0 1 2.86-2 14.8 14.8 0 0 1 3.28-1.08 18.46 18.46 0 0 1 6.8.19 26.66 26.66 0 0 1 6.49 1.81 22.55 22.55 0 0 1 5.67 3.46z"/><path class="a" d="M288 568.67c-10.76-38.9-29.34-89-61-169.56-9-23.83-8.62-21.71-7.62-46.27.12-.57 4.35-62.94 2-93.8-1.25-12.84-2.6-52.5-2.41-56.76-6.76-.19-20.85 1.15-22.27 7.71a59 59 0 0 1-5.78 15.65c-5.74 11-13.38 16.62-21.91 19.45-3.79 1.26-20 1.26-23.75 0-8.53-2.83-16.17-8.46-21.91-19.45a59.08 59.08 0 0 1-5.87-15.64c-1.43-6.57-15.52-7.91-22.27-7.71.19 4.25-1.21 43.91-2.41 56.71-2.39 30.86 1.84 93.23 2 93.8 1 24.56 2.75 22.88-7.62 46.27C57.37 464 37 529.79 26.11 568.67c-3.36 11.07 10.47 21.71 22.64 16.8 5.4-2.18 12.36-.91 17 2.7q7.46 5.83 15.06 11.6a17.56 17.56 0 0 0 18.24 1.53q7.53-4 14.89-8.26a17.19 17.19 0 0 1 19.06 1.4q6.88 5.51 14 10.93a17.3 17.3 0 0 0 20.17 0q7.08-5.41 14-10.93a17.18 17.18 0 0 1 18.99-1.44q7.36 4.22 14.89 8.26a17.55 17.55 0 0 0 18.24-1.53q7.61-5.76 15.06-11.6c4.63-3.61 11.59-4.88 17-2.7 12.17 4.95 26-5.69 22.65-16.76z"/><g class="l"><circle class="m" cx="262.2" cy="508.53" r="18.14"/><circle class="m" cx="157.52" cy="423.61" r="16.59"/><circle class="m" cx="211.61" cy="363.92" r="22.75"/><circle class="m" cx="34.83" cy="570.12" r="22.75"/><circle class="m" cx="215.23" cy="592.87" r="22.75"/><circle class="m" cx="98.07" cy="357.09" r="18.41"/><circle class="m" cx="103.44" cy="487.98" r="10.26"/><circle class="m" cx="155.82" cy="533.96" r="6.47"/><circle class="m" cx="153.14" cy="330.51" r="6.47"/><circle class="m" cx="208.76" cy="466.24" r="6.47"/><circle class="m" cx="116.49" cy="291.18" r="6.47"/><path class="n" d="M89.28 366.92c48.07 18.82 88.23 18.57 136.92 0"/></g><circle class="o" cx="115.95" cy="139.69" r="31.09"/><circle class="p" cx="197.75" cy="139.69" r="31.09"/><path class="f" d="M83.94 240.55l-25.62-10.92-3.5 28.1c-7.05 56.64-9.66 65.16-10.49 122.48 0 0-1.18 47.66-1.22 49l23 .33c0-.31-1.84-.61-1.77-4.19.47-25.08.92-25.51 3-50.48z"/><path class="f" d="M43.11 429.2s-5.95 7.57-4.37 14.82 12 11.92 19.72 10.48c7-1.79 10.19-8.35 9.28-9.85 3 .25 7.27-.72 5.71-5.79s-6.13-9.53-10.4-10.65-19.94.99-19.94.99z"/><path class="d" d="M82.93 284.7c23.66-12.26 10.61-54.57 7.23-64.3a4.93 4.93 0 0 0-3.08-3c-7.77-2.77-32.45-8.59-38.71 26a4.61 4.61 0 0 0 3.27 5.08c9.13 3.17 31.25 13.2 31.29 36.22z"/><path class="f" d="M229.9 240.55l25.61-10.91 3.5 28.1c7.05 56.64 9.66 65.16 10.49 122.48 0 0 1.18 47.66 1.22 49l-22.89.29c0-.31 1.77-.57 1.7-4.15-.47-25.08-.92-25.51-3-50.48z"/><path class="f" d="M270.72 429.2s5.95 7.57 4.37 14.82-12 11.92-19.72 10.48c-7-1.79-10.19-8.35-9.28-9.85-3 .25-7.27-.72-5.71-5.79s6.13-9.53 10.4-10.65 19.94.99 19.94.99z"/><path class="d" d="M230.91 284.7c-23.66-12.26-10.61-54.57-7.23-64.3a4.93 4.93 0 0 1 3.08-3c7.77-2.77 32.45-8.59 38.71 26a4.61 4.61 0 0 1-3.27 5.08c-9.14 3.17-31.25 13.2-31.29 36.22z"/><path class="q" d="M248.11 269.67c2.14-8.08-4.75-21.71-4.75-21.71a51.84 51.84 0 0 1-9 43c1.71-33.66-14.21-33.23-14.21-33.23-3 18.73 6.46 36.63 6.46 36.63s-22.38-11.08-31.41-38.32 14.43-76.43 14.43-76.43c9-17 2.26-69.42 4.4-90.73S196 51 196 51c-9 4.77-20.07 8.09-31.5 11.27a51 51 0 0 0 19-12.1l-33.09 7.65s-43.45 10.91-49.06 35.78c-8.25 36.53-6.4 69.36 5.41 86 7.41 10.44 15.67 56.84 6.53 82.82s-26.15 31.94-26.15 31.94c13.34-23.43-1.74-40.47-1.74-40.47C78.49 262.45 73.77 291 73.77 291c-9.47-11.08-8.19-42.59-8.19-42.59l-6 20.45c-8.6-15.35-.43-44.31 9-57.94s26-29 26-29c-2.26-22.32-10.64-47.48-14-73.26C79.33 98 76.3 90.45 76.29 80.09c0-8.94 2.92-22.1 3.07-23.36.69-5.63 3.09-12.37 6.86-19.29C94.13 22.87 108.06 12.5 125 4.7a50.06 50.06 0 0 1 45.62 1.72s23.68-2.93 38.3 8.16c2.37 1.79 30 30.2 31.43 55.19 2.14 37.05-23.35 112.1-23.35 112.1 59.37 51.55 31.11 87.8 31.11 87.8z"/><path class="r" d="M183.48 50.19l-33.09 7.65s-41.33 11.49-49.06 35.78c-2.65 8.29-3.59 18.1-3.5 27.88.14-8.66 1.16-17.21 3.5-24.56 7.73-24.29 49.06-35.78 49.06-35.78l28-6.48c3.01-2.34 4.61-4.19 5.09-4.49z"/><path class="r" d="M214.06 87.22C215 66.76 196 51 196 51a113.37 113.37 0 0 1-17.94 7.22 51.26 51.26 0 0 1-13.56 7.36c11.43-3.18 22.47-6.5 31.5-11.27 0 .03 17 14.09 18.06 32.91z"/><path class="s" d="M151.55 147.11c7.37.77 18 .5 21.34-1.61a31.68 31.68 0 0 1-3 6.22c-2.47 3.68-6.39 4.75-12.94 4.61-10.1-.23-10.47.5-13.56-5.92a53.14 53.14 0 0 0-3.44-6.46 33.07 33.07 0 0 0 11.6 3.16z"/><path class="k" d="M169.16 149.25c-5 3.93-17.11 4.92-23.77.62-.5-.32-.91-1.78-2.68-3.23l28.51-1.21z"/><path class="t" d="M171.15 148.36c-1.43 2.21-6.18 6.51-14.33 6.44a17.43 17.43 0 0 1-14.49-7.19c-.6-.92-1.85-2.67-1.85-2.67a59.9 59.9 0 0 0 3.2 7.65 15.51 15.51 0 0 0 5.46 6.11 14 14 0 0 0 7.6 2.3h.15a14 14 0 0 0 7.6-2.3 15.52 15.52 0 0 0 5.46-6.1 59.72 59.72 0 0 0 3.2-7.65s-1.4 2.49-2 3.41z"/><path class="t" d="M174.12 143.92c-.64.52-1.94 1-4.61.66a52.75 52.75 0 0 0-12.66-.17 48 48 0 0 0-12.68 0c-2.67.33-4-.18-4.6-.72 3.46 4.6 10.6 5.42 17.17 5.37V149h.16v.06c6.57.17 13.72-.58 17.22-5.14z"/><path class="s" d="M174.61 143.39a6 6 0 0 0-1.79 1.6c-2.36 3-10.77 3.78-13.09 3.77-.71 0-1.64 0-2.7.09s-2-.09-2.71-.09c-2.32 0-10.73-.73-13.09-3.77a6 6 0 0 0-1.8-1.6c-1.15-.45-1.68 0-.72.61.33.23.94-.19 1.93 1.32 1.49 2.31 7 3.42 10.47 3.81 1.75.2 3.83.31 5.92.36s4.16-.16 5.92-.36c3.48-.39 9-1.5 10.46-3.81 1-1.51 1.6-1.09 1.93-1.32.95-.65.41-1.06-.73-.61z"/><path class="u" d="M216.36 22.41c-2.6 2.89-6.35 5.31-13 7.18a.13.13 0 0 1-.07 0c-20.86 6-33.53-14.62-51.22 4.11-9.13 9.71-18.48 17.72-33.28 11.95-19.38-7.47-27.4-6.57-35.55-2.24.87-2 1.84-4 3-6a59.45 59.45 0 0 1 10.11-13.5c22.6 5.45 30.18 16.86 48-1.7 15.7-16.31 30.17-7.62 50.89-3.68 8.34 1.59 12.45.18 15-2.74 1.35 1.32 3.56 3.63 6.12 6.62z"/><path class="v" d="M107.57 175.34s8.59-2.93 12.73-.87c5.4 2.69-1.55 20.66-6.4 21.46s-9.46-5.17-10.64-9.49a22.44 22.44 0 0 0 4.31-11.1z"/><path class="w" d="M105.73 180.58c1.74-2.71 4.86-2.58 6.84-1.9.13 0 .87-.06.56-.16-2.25-.77-6.09-1.17-8.11 2-.09.14.59.27.71.09zM106.14 182.16a6.32 6.32 0 0 1 6 2.47c.13.18.89.13.83 0-1.62-2.3-4.72-3.06-7.41-2.74-.39 0 .43.24.58.23zM103.94 185.12c2.14-1.69 4.36.61 5.59 2.7.08.14.65.55.46.22-1.39-2.38-4.06-5.46-6.54-3.5-.11.08.34.7.49.58z"/><path class="v" d="M100.06 172.42s-4.33-8.53-8.8-9.25c-5.34-.86-13.09 16.75-9.77 20.14 4.15 4.24 10.46 2.59 14.25.2a22.37 22.37 0 0 1 4.32-11.09z"/><path class="w" d="M97.49 176.67c.45-2.73-1.7-4.48-3.42-5.23-.11 0-.54-.55-.27-.43 1.94.85 4.73 2.86 4.21 6 0 .14-.55-.17-.52-.36zM96.43 178.39a7.57 7.57 0 0 0-6.7-2.46c-.23 0-.83-.54-.71-.56 3-.52 6.06 1.13 8.06 3.27.29.31-.53-.13-.65-.25zM96.56 180.81c-.79-1.91-3.79-.75-5.88.52-.13.08-.81.24-.48 0 2.38-1.45 6.14-3.09 7.05-.88 0 .1-.64.45-.7.31z"/><path class="a" d="M100.06 172.32s5.18-.16 7.5 3c0 0-.56 6.61-4.31 11.1 0 0-5.07.11-7.54-2.93.01.02.13-6.87 4.35-11.17z"/><path class="v" d="M207.48 175.34s-8.59-2.93-12.73-.87c-5.4 2.69 1.55 20.66 6.4 21.46s9.46-5.17 10.64-9.49a22.44 22.44 0 0 1-4.31-11.1z"/><path class="w" d="M209.32 180.58c-1.74-2.71-4.86-2.58-6.84-1.9-.13 0-.87-.06-.56-.16 2.25-.77 6.09-1.17 8.11 2 .09.14-.59.27-.71.09zM208.91 182.16a6.32 6.32 0 0 0-6 2.47c-.13.18-.89.13-.83 0 1.62-2.3 4.72-3.06 7.41-2.74.39 0-.43.24-.58.23zM211.1 185.12c-2.14-1.69-4.36.61-5.59 2.7-.08.14-.65.55-.46.22 1.39-2.38 4.06-5.46 6.54-3.5.11.08-.34.7-.49.58z"/><path class="v" d="M215 172.42s4.33-8.53 8.8-9.25c5.34-.86 13.09 16.75 9.77 20.14-4.15 4.24-10.46 2.59-14.25.2a22.37 22.37 0 0 0-4.32-11.09z"/><path class="w" d="M217.55 176.67c-.45-2.73 1.7-4.48 3.42-5.23.11 0 .54-.55.27-.43-1.94.85-4.73 2.86-4.21 6 0 .14.55-.17.52-.36zM218.61 178.39a7.57 7.57 0 0 1 6.7-2.46c.23 0 .83-.54.71-.56-3-.52-6.06 1.13-8.06 3.27-.29.31.53-.13.65-.25zM218.49 180.81c.79-1.91 3.79-.75 5.88.52.13.08.81.24.48 0-2.38-1.45-6.14-3.09-7.05-.88 0 .1.64.45.7.31z"/><path class="a" d="M215 172.32s-5.18-.16-7.5 3c0 0 .56 6.61 4.31 11.1 0 0 5.07.11 7.54-2.93-.02.02-.14-6.87-4.35-11.17z"/><path class="f" d="M147.77 242.98l9.19 18.2 9.37-18.2h-18.56z"/><circle class="d" cx="146.66" cy="248.79" r="1.22"/><circle class="d" cx="149.91" cy="255.66" r="1.22"/><circle class="d" cx="153.27" cy="261.85" r="1.22"/><circle class="d" cx="167.44" cy="248.79" r="1.22"/><circle class="d" cx="164.69" cy="255.66" r="1.22"/><circle class="d" cx="162.25" cy="261.85" r="1.22"/></svg>