<svg xmlns="http://www.w3.org/2000/svg" width="287.55" height="803.25" viewBox="0 0 287.55 803.25"><defs><style>.a{opacity:.1;isolation:isolate}.b,.h,.m{fill:none;stroke-miterlimit:10}.b{stroke:#a1cf72;stroke-linecap:round;stroke-width:26.52px}.c{fill:#ffd1a4}.d{fill:#a1cf72}.e{fill:#84aa5e}.f{fill:#fff}.g{fill:#4a4639}.h{stroke:#4a4639;stroke-width:33.77px}.i{fill:#f9b578}.j{fill:#ffc687}.k{fill:#ffaf73}.l{fill:#333}.m{stroke:#ffaf73;stroke-width:3.27px}.n{fill:#b54a37}.o{fill:#ff5d47}.p{fill:#ffac81}</style></defs><title>male-child</title><path class="a" d="M287.55 773.53c0 16.38-64.42 29.72-143.77 29.72S0 789.91 0 773.53s64.42-29.73 143.78-29.73 143.77 13.2 143.77 29.73z"/><path class="b" d="M117.3 275.72s-93.2 0-75.07 206.11"/><path class="c" d="M28.94 478.35s-14.67 13.9-12.18 24.75S35 520.79 46.55 518.5c10.46-2.8 15.16-12.72 13.75-15 4.53.33 10.91-1.21 8.47-8.79S59.4 480.55 53 478.95s-24.06-.6-24.06-.6z"/><path class="b" d="M171.19 275.72s93.2 0 75.07 206.11"/><path class="c" d="M259.54 478.35s14.67 13.89 12.18 24.75-18.23 17.69-29.79 15.39c-10.46-2.8-15.16-12.72-13.75-15-4.53.33-10.91-1.21-8.47-8.79s9.37-14.2 15.8-15.81 24.03-.54 24.03-.54z"/><path class="d" d="M168.93 260.8c-11.26-1.62-38.56-1.62-49.82 0-72.46 10.18-46.37 209-46.37 209l3.81 4.86 65.83 20.6 1.46.46 1.45-.46 65.83-20.6 3.81-4.86c.37-.04 26.28-198.8-46-209z"/><ellipse class="e" cx="143.97" cy="271.11" rx="29.87" ry="18.47"/><circle class="f" cx="142.14" cy="357.78" r="34.6"/><circle class="d" cx="142.14" cy="357.78" r="23.53"/><circle class="f" cx="142.14" cy="357.78" r="12.59"/><path class="g" d="M144 481.74c-41.32 0-48.86-4.67-71.9-12-1.83 3.85-.89 10.23-.89 14.29 0 28 15.2 43.16 72.61 43.16s72.61-15 72.61-43.16c0-4.06 1.12-10.43-.9-14.29-22.53 7.33-30.03 12-71.53 12z"/><path class="h" d="M104.38 493.94V743.8"/><path class="g" d="M134.34 761.31c0 11.2-10.16 11.86-29.39 11.86s-29.4-.67-29.4-11.86 10.16-24.52 29.4-24.52 29.39 13.46 29.39 24.52z"/><path class="h" d="M185.06 493.94V743.8"/><path class="g" d="M214.45 761.31c0 11.2-10.16 11.86-29.39 11.86s-29.4-.67-29.4-11.86 10.16-24.52 29.4-24.52 29.39 13.46 29.39 24.52z"/><path class="i" d="M172.2 219.16a88.45 88.45 0 0 0-56.49 0c1.2 6.31 2.1 12.57 2.68 18.88a191.82 191.82 0 0 1 .62 27.43 49.16 49.16 0 0 0 .57 6.93c1.68 7.94 11.89 14.07 24.35 14.07s22.67-6.13 24.35-14.07a46.5 46.5 0 0 0 .62-6.93 188.81 188.81 0 0 1 1-31c.56-5.1 1.34-10.21 2.3-15.31z"/><path class="j" d="M210.67 132c-2.14 16.33 3 30.74 11.47 32.18s17.08-10.63 19.22-27-3-30.73-11.46-32.18-17.09 10.72-19.23 27z"/><path class="k" d="M214.71 133c-1.21 9.21 2.38 17.45 8 18.41s11.17-5.73 12.38-14.94-2.37-17.45-8-18.41-11.17 5.77-12.38 14.94z"/><path class="j" d="M75.73 132.32c1.85 16.37-3.55 30.68-12 32S46.8 153.36 45 137s3.55-30.68 12-32 16.89 11 18.73 27.32z"/><path class="k" d="M71.68 133.23c1 9.23-2.7 17.41-8.34 18.26s-11.07-5.93-12.11-15.16 2.69-17.4 8.34-18.26 11.06 5.93 12.11 15.16z"/><path class="j" d="M143.78 40.15c-28.64 3.9-83.9 50.49-83.9 50.49s-4.17 92.45 22.47 129.46c11.41 15.85 43.1 24.18 61.43 24.18s50-8.33 61.43-24.18c26.64-37 22.48-129.46 22.48-129.46S172.41 44 143.78 40.15z"/><path class="l" d="M69.37 154.94s-4.72-34.69 25.28-56a26.58 26.58 0 0 1-6.77 14.89s19-13.57 22.07-18c.9 3.51-.4 9.82-.4 9.82S139.19 93 151.69 78.33s-18 19.76-18 19.76a90.22 90.22 0 0 0 31.84-26.16c-.74 7.36-4.7 14.57-4.7 14.57s8.67-1.28 16.18-24.35c6.4 13.79 11.73 23.86 17.34 27 0 0-4.47-10.85-2-21 0 0 14.23 30.84 18.91 38.35s12.35 37.72 12.35 37.72 8.46-8.46 10.15-29.6 2.82-42.9-.68-50.81-10.62-37.43-29.62-43.54S176.58 16 176.58 16 162.46 1.37 151 .89s-24.6-2.29-34.95 1.22S84 13.2 67.81 33s-18.6 40.51-18.6 40.51S47.12 99 55 124s10 25.57 10 25.57z"/><path class="m" d="M132.82 171.22c6.84 6.1 14.09 6.6 21.91.66"/><ellipse class="l" cx="181.19" cy="139.57" rx="7.11" ry="15.37" transform="rotate(-.74 181.83 139.772)"/><ellipse class="f" cx="181.51" cy="131.11" rx="2.74" ry="3.34" transform="rotate(-6.83 181.46 131.073)"/><ellipse class="l" cx="111.81" cy="139.57" rx="7.1" ry="15.37" transform="rotate(-.74 112.141 140.096)"/><ellipse class="f" cx="112.13" cy="131.11" rx="2.74" ry="3.34" transform="rotate(-6.83 112.167 131.143)"/><path class="l" d="M96.54 115.07s1.88-.5 4.74-1.06c1.43-.27 3.11-.58 4.91-.84.9-.12 1.84-.28 2.79-.36s1.92-.21 2.9-.28l2.93-.31a17 17 0 0 1 2.86-.14 13.31 13.31 0 0 1 2.67.41 16.28 16.28 0 0 1 2.35.74 12.27 12.27 0 0 1 1.93.93l.77.46c.23.17.44.34.63.48a8.89 8.89 0 0 1 1.11 1l-.17.5a13.59 13.59 0 0 1-1.43.31l-1.54.26c-.59.1-1.22.15-1.93.25s-1.44.11-2.25.17a19.41 19.41 0 0 1-2.49 0c-.86-.06-1.75-.25-2.67-.4s-1.85-.33-2.79-.41c-1.88-.2-3.78-.31-5.56-.48l-4.9-.36-4.81-.32zM196.41 115.6l-4.8.39-4.89.41c-1.78.18-3.68.31-5.56.51-.94.09-1.88.25-2.79.42s-1.81.34-2.68.4a18.87 18.87 0 0 1-2.5 0c-.81-.06-1.55-.09-2.26-.19s-1.35-.16-1.94-.28l-1.54-.29a13.21 13.21 0 0 1-1.42-.35l-.15-.51a9 9 0 0 1 1.13-1c.19-.14.4-.31.64-.46l.78-.44a12.69 12.69 0 0 1 1.93-.89 16.72 16.72 0 0 1 2.35-.72 13.49 13.49 0 0 1 2.65-.39 17.31 17.31 0 0 1 2.85.15c1 .11 1.94.22 2.91.3s1.94.17 2.89.27 1.88.23 2.79.35c1.8.24 3.48.53 4.91.79 2.86.53 4.75 1 4.75 1z"/><path class="n" d="M171.53 201.28a72.84 72.84 0 0 1-5.11 10.35c-.25.39-.49.77-.75 1.12a23.79 23.79 0 0 1-8.62 7.87A27 27 0 0 1 144 224h-.26a27 27 0 0 1-13.06-3.39 23.24 23.24 0 0 1-7.36-6.18 32.59 32.59 0 0 1-2-2.81c-2.13-3.31-3.77-7.63-5.11-10.81.08.1 4.07-.65 6.31-.89a103.26 103.26 0 0 1 15.07-.56c2.18.07 4.24.23 6.19.44l.49.06c1.8-.15 3.7-.27 5.7-.35a100.55 100.55 0 0 1 15.71 1c4.58.49 6.72.14 5.85.77z"/><path class="o" d="M165.67 212.75a23.79 23.79 0 0 1-8.62 7.87A27 27 0 0 1 144 224h-.26a27 27 0 0 1-13.06-3.39 23.24 23.24 0 0 1-7.36-6.18c5.32-2.18 14-3.58 23.91-3.58a83.48 83.48 0 0 1 18.44 1.9z"/><path class="f" d="M171.12 201.29l-54.46-.47s-2.55 6.14 25.86 5.82h2.53c28.41.3 26.07-5.35 26.07-5.35z"/><path class="p" d="M115.74 200.81c0-.3 9.51-1.06 10.46-1.33 5.67-.83 12.05-1.33 17.59-.38 5.31-.85 11.88-.3 17.53.56 1 .27 10.51 1.06 10.5 1.36.09 2.92-56.18 2.54-56.08-.21z"/></svg>