<svg xmlns="http://www.w3.org/2000/svg" width="385" height="439.3" viewBox="0 0 385 439.3"><defs><style>.a{fill:#2d5162}.b{fill:#faaf3a}.c{opacity:.4;fill:url(#a)}.d{fill:url(#b)}.e{fill:#83551e}.f{opacity:.89;fill:url(#c)}.g{fill:#573914}.g,.h,.u,.v,.w{fill-rule:evenodd}.h{fill:#442c0f}.i{fill:url(#d)}.j{clip-path:url(#e)}.k{fill:#2a4b5b}.l{fill:#213b48}.m{clip-path:url(#f)}.n{fill:#f89c1c}.o{fill:#bbbdbf}.p{fill:#fcc587}.q{fill:#f7b478}.r{fill:#f9a766}.s{fill:#f9ad74}.t{fill:#fbbd76}.u{fill:#fddfa5}.v{fill:#fdda93}.w{fill:#efbb80}.x{fill:#544741}.y{fill:#f27b71}.z{fill:#fff}.aa{fill:#333}.ab{fill:#de9c34}.ac{fill:#fbb03b}.ad{opacity:.2}</style><radialGradient id="a" cx="192.5" cy="403.41" r="192.1" gradientTransform="matrix(1 0 0 .19 0 327.01)" gradientUnits="userSpaceOnUse"><stop offset="0" stop-color="#172c3d"/><stop offset=".09" stop-color="#172c3d" stop-opacity=".74"/><stop offset=".25" stop-color="#172c3d" stop-opacity=".41"/><stop offset=".43" stop-color="#172c3d" stop-opacity=".18"/><stop offset=".64" stop-color="#172c3d" stop-opacity=".04"/><stop offset="1" stop-color="#172c3d" stop-opacity="0"/></radialGradient><radialGradient id="b" cx="186.93" cy="426.26" r="77.65" gradientTransform="matrix(.99 0 0 .17 -1.84 329.46)" gradientUnits="userSpaceOnUse"><stop offset=".1" stop-color="#172c3d"/><stop offset=".18" stop-color="#172c3d" stop-opacity=".74"/><stop offset=".32" stop-color="#172c3d" stop-opacity=".41"/><stop offset=".48" stop-color="#172c3d" stop-opacity=".18"/><stop offset=".68" stop-color="#172c3d" stop-opacity=".04"/><stop offset="1" stop-color="#172c3d" stop-opacity="0"/></radialGradient><radialGradient id="c" cx="206.92" cy="402.39" r="50.68" gradientTransform="matrix(1 0 0 .19 0 324.94)" gradientUnits="userSpaceOnUse"><stop offset=".15" stop-color="#172c3d"/><stop offset=".23" stop-color="#172c3d" stop-opacity=".74"/><stop offset=".36" stop-color="#172c3d" stop-opacity=".41"/><stop offset=".51" stop-color="#172c3d" stop-opacity=".18"/><stop offset=".7" stop-color="#172c3d" stop-opacity=".04"/><stop offset="1" stop-color="#172c3d" stop-opacity="0"/></radialGradient><linearGradient id="d" x1="207.82" y1="373.98" x2="166.11" y2="301.72" gradientUnits="userSpaceOnUse"><stop offset="0" stop-color="#613f16"/><stop offset="1" stop-color="#83551e"/></linearGradient><clipPath id="e"><path class="a" d="M212.79 176.6a324.7 324.7 0 0 1-5 47.75 23.46 23.46 0 0 1-2.34 5.54l-31.09 9.4-31.1-9.4-1.67-2.17s-18.88-95.64 12.82-100.19c4.92-.72 35.12-.72 40 0 10 1.43 14.94 11.94 17 25.66a141.66 141.66 0 0 1 1.38 23.41z"/></clipPath><clipPath id="f"><path class="b" d="M184.32 234.3a3.85 3.85 0 0 1-3.72 4h-13.22a3.85 3.85 0 0 1-3.72-4 3.85 3.85 0 0 1 3.72-4h13.22a3.85 3.85 0 0 1 3.72 4z"/></clipPath></defs><title>male-2</title><ellipse class="c" cx="192.5" cy="403.41" rx="192.5" ry="35.89"/><ellipse class="d" cx="183.05" cy="402.39" rx="77.22" ry="14.05"/><path class="e" d="M204.73 375.76l-58.82-60.86a14.25 14.25 0 0 1-4-9.9v-67.85h28.5v62.08L225.22 356z"/><ellipse class="f" cx="206.92" cy="402.39" rx="50.96" ry="10.32"/><path class="g" d="M173.38 382.61l-5.75 9.21c-3.92 3.21-3.92 3.27-3.9 6.71a2.27 2.27 0 0 0 2.32 2 81.94 81.94 0 0 0 29.29 2c1.42.1 2.61-.76 2.57-1.86-.06-2-.5-5-2.43-6.35-3.25-1.27-6.87-10.85-6.87-10.85z"/><path class="h" d="M219.25 355s-6.82 14.81-13.09 18.85c-1.33 7.5 3.38 16-1.36 21.22-2.65 1.13-7.53 7.88-2.51 7.65a20.63 20.63 0 0 0 7.56-.16 5.09 5.09 0 0 0 4.61-3.16l8.77-21.4a1.1 1.1 0 0 0 0-.71l-.52-1.88a1.1 1.1 0 0 1 1.42-1.34 1.1 1.1 0 0 0 1.41-.74l2.66-9.05s-3.48-10.23-8.95-9.28z"/><path class="i" d="M204.73 375.76l-58.82-60.86 24.5-15.67 54.81 56.73-20.49 19.8z"/><path class="e" d="M166.881 391.035l11.404-154.921 28.423 2.092-11.404 154.92z"/><path class="a" d="M212.79 176.6a324.7 324.7 0 0 1-5 47.75 23.46 23.46 0 0 1-2.34 5.54l-31.09 9.4-31.1-9.4-1.67-2.17s-18.88-95.64 12.82-100.19c4.92-.72 35.12-.72 40 0 10 1.43 14.94 11.94 17 25.66a141.66 141.66 0 0 1 1.38 23.41z"/><g class="j"><path class="k" d="M136 172.67s-5.2 17.52 21.46 38.16c30.29 23.46 48.59 4.66 54.32 2.87s1.76 36.55 1.76 36.55l-92.09 3.39z"/></g><path class="e" d="M174.44 233.07c-18.08 0-22.75-2.08-32.83-5.34 0 17.52.31 28.61 32.75 28.61s32.77-11.69 32.77-28.61c-9.84 3.27-14.54 5.34-32.69 5.34z"/><path class="l" d="M174 236.08c-14.23 0-31.63-6.19-32.39-6.47l-.33-3.64c.18.06 19.11 6.55 32.72 6.55s33.37-6.8 33.56-6.87l-.42 4c-.8.23-18.92 6.43-33.14 6.43z"/><path class="b" d="M184.32 234.3a3.85 3.85 0 0 1-3.72 4h-13.22a3.85 3.85 0 0 1-3.72-4 3.85 3.85 0 0 1 3.72-4h13.22a3.85 3.85 0 0 1 3.72 4z"/><g class="m"><path class="n" d="M162.12 234.49s6.05-2.25 10.09.17 6.19 3 8.39 2.89 6.61 5.19 6.61 5.19l-26.3-4.18z"/><path class="n" d="M180.61 237.55h-13.23a3.82 3.82 0 0 1-3.7-3.61v.36a3.85 3.85 0 0 0 3.72 4h13.22a3.85 3.85 0 0 0 3.72-4v-.36a3.82 3.82 0 0 1-3.73 3.61z"/></g><path class="o" d="M192 130.99h-35.16l-1.37-7.73 37.87.01-1.34 7.72z"/><path class="p" d="M128.83 227.34s1.13 8.53 5.49 10.39 10.66-1.87 12.75-6.43c1.65-4.31-.6-8.41-1.72-8.48 1.25-1.48 2.31-4.06-.92-5.12a10.6 10.6 0 0 0-9.4 1.5c-2.15 1.8-6.2 8.14-6.2 8.14z"/><path class="q" d="M188.22 114.49a86.42 86.42 0 0 0-.53 15.28c.06 1.16.14 2.32.25 3.48h-27c.11-1.16.19-2.32.25-3.48a87.41 87.41 0 0 0-.33-13.5 90.44 90.44 0 0 0-1.43-9.29 50.8 50.8 0 0 1 30 0c-.5 2.51-.91 5.02-1.21 7.51z"/><path class="r" d="M189.82 102q-.8 3.75-1.26 7.51c-.5 4-.61 7.25-.91 11.88a69.09 69.09 0 0 1-13.32 1.61 68.33 68.33 0 0 1-13.18-1.5c-.3-4.8-.31-6.83-.67-10.23A88.18 88.18 0 0 0 159 102a53.34 53.34 0 0 1 30.82 0z"/><path class="q" d="M187.69 129.77h-26.54s3.7 6.92 13.27 6.92"/><path class="p" d="M205 72c-.18 7.39 2.79 13.57 6.64 13.82s7.12-5.55 7.3-12.94-2.79-13.57-6.64-13.81-7.17 5.55-7.3 12.93z"/><path class="s" d="M206.8 72.25c-.1 4.17 1.89 7.67 4.44 7.84s4.76-3.09 4.82-7.25-1.89-7.67-4.44-7.83-4.72 3.08-4.82 7.24z"/><path class="p" d="M144 72c.18 7.39-2.79 13.57-6.64 13.82s-7.12-5.55-7.3-12.94 2.79-13.57 6.64-13.81 7.13 5.55 7.3 12.93z"/><path class="s" d="M142.17 72.25c.1 4.17-1.89 7.67-4.44 7.84S133 77 132.91 72.84s1.89-7.67 4.44-7.83 4.71 3.08 4.82 7.24z"/><path class="p" d="M199.26 34.25A98.58 98.58 0 0 0 174.48 27a98.58 98.58 0 0 0-24.78 7.2l-12.37 2.61s-3.65 56.71 8.14 72.35c5.05 6.7 20.89 10.22 29 10.22s24-3.52 29-10.22c11.8-15.64 8.15-72.35 8.15-72.35z"/><path class="t" d="M203.49 108c-5.05 6.7-20.89 10.22-29 10.22s-24-3.52-29-10.22c-7.21-9.56-8.65-34.46-8.68-52.37 0 18 1.3 43.84 8.68 53.62 5.05 6.7 20.89 10.22 29 10.22s24-3.52 29-10.22c7.38-9.79 8.71-35.64 8.68-53.63-.03 17.89-1.47 42.79-8.68 52.38z"/><path class="s" d="M174 92a9.5 9.5 0 0 1-5.55-2.12l1-1.14s2.77 2.31 5.79 1.62a12 12 0 0 0 4.46-1.51l.78 1.27a13.16 13.16 0 0 1-5 1.71A6.51 6.51 0 0 1 174 92z"/><path class="u" d="M140.41 23.85c-5.92.64-13.61.32-14.57 6.08s11.34 41.86 11.43 39.93 3.14-46.01 3.14-46.01z"/><path class="u" d="M211.68 69.49c-.75-10.37-1.51-15.74-2.27-26.1-1 .19-28.24 5.23-35 5.23-6.18 0-19.2-2.17-29.33-6.7-1.12-.49-2.19-1-3.22-1.58-10.4-5.6-11.53-16.81-10.89-24.81S139.77 0 139.77 0s.64 6.4 9.92 9.61 33.62-1.6 44.82.32 19.05 12.81 19.05 12.81 7.84 0 11 8.65c3.44 9.09-8.76 27.52-12.88 38.1z"/><path class="v" d="M134.54 33.63a48.46 48.46 0 0 1-3.74-5.28s1.84 7.36 3 10.73 2.48 5.28 1.76 4.64-5.6-5.68-5.6-5.68 2.24 10.21 3.56 12.61 2.24 4.12 2.08 3.92-3.08-2.24-3.08-2.24 2.82 7.61 5.15 12.17c.42-6.18 1.13-16.53 1.73-25.24l-.28-.7s-2.53-2.46-4.58-4.93zM219.41 47.17c-.24.64-4.72 6.72-4.16 5.6A35.3 35.3 0 0 0 219.08 40c.8-7.12-1.84-13.69-1.84-13.21s1.33 4.87-1.2 12.81a15.48 15.48 0 0 1-1.72 3.59c.49-6.54.25-13-2-19.17a18 18 0 0 1-12.48 15.21c-1.18-16.7-15.68-14.77-25.94-21.61 2.53 1.69 4.53 6.08 6.08 8.65-7.64 1.13-29-5.41-32.31-14.18 1.09 3.09 5.25 11.61 7.24 13-4.7-2.77-7.53-1.9-9.5-8.5S137.9 3.74 137.9 3.74s-4.18 14.07-3.15 17.32 7.64 12.88 10 13c-2.54-.09-6.68-4.27-8.65-5.8a25.8 25.8 0 0 0 8.94 13.69c10.13 4.53 23.16 6.7 29.33 6.7 6.73 0 34-5 35-5.23.67 9.15 1.34 13.3 2 22.44l.27 3.66a108.47 108.47 0 0 0 5.73-14.32c1.71-6.03 2.27-8.67 2.04-8.03z"/><path class="v" d="M155.82 14.67c4.88 2.64 17 8.48 17 8.48s-9-8.24-9.61-8.32 2.56-1.08 6.76-.08a138.3 138.3 0 0 1 15.07 5c-.89-.68-6.73-5.49-7.73-5.84h-.09.09A52 52 0 0 1 193 18c7.68 3.6 14.49 11.37 14.57 11.93s1.36-6.08-1.76-13.37c-.35-.81-.69-1.54-1-2.2a26 26 0 0 0-10.29-4.43C183.32 8 159 12.81 149.7 9.61S139.77 0 139.77 0c.14 6.21 13.36 13.21 16.05 14.67z"/><path class="u" d="M188.85 46.06c-19.6 4.49-32.68 0-47.55-12.85 5 4.3 12.9 3.57 18.65 5.44-8.36-5.34-9.34-6.4-15.21-14.46 6.11 8.41 14.36 7.64 24.17 10-3.56-2.55-7.48-8.51-11.85-9.61 10.14 2.53 19.34 4.2 27.69 10.89L183 24.56c2.57 3.68 9.93 17.24 5.85 21.5z"/><path class="w" d="M209.55 45.21s-28.41 5.28-35.14 5.28c-6.18 0-19.2-2.17-29.33-6.7-1.12-.49-2.19-1-3.22-1.58a22.73 22.73 0 0 1-2.59-1.65c0 .33.06-1 .12-1.79a20.65 20.65 0 0 0 2.47 1.56c1 .55 2.11 1.08 3.22 1.58 10.13 4.53 23.16 6.7 29.33 6.7 6.73 0 34-5 35-5.23.05.81.16 2.15.14 1.83z"/><path class="p" d="M220.59 227.34s-1.13 8.53-5.49 10.39-10.66-1.87-12.75-6.43c-1.65-4.31.6-8.41 1.72-8.48-1.25-1.48-2.31-4.06.92-5.12a10.6 10.6 0 0 1 9.4 1.5c2.16 1.8 6.2 8.14 6.2 8.14z"/><path class="x" d="M153.61 61.81l-.61-1.38a25 25 0 0 1 13.51-1.7l-.22 1.48a23.58 23.58 0 0 0-12.68 1.6zM195.35 62.44a23.54 23.54 0 0 0-12.72-1.59l-.22-1.48a25.05 25.05 0 0 1 13.51 1.7z"/><path class="y" d="M174.15 106.25c-5.77-.22-10.3-4.34-10.11-9.19l20.9.81c-.19 4.85-5.02 8.6-10.79 8.38z"/><path class="z" d="M175 100.68a22.94 22.94 0 0 1-11-2.78 7.11 7.11 0 0 1 0-.85l20.9.81c0 .2 0 .41-.06.61a20.4 20.4 0 0 1-9.84 2.21z"/><path class="q" d="M174.42 136.69c9.57 0 13.27-6.92 13.27-6.92"/><ellipse class="aa" cx="189.09" cy="69.89" rx="2.77" ry="6" transform="rotate(-.74 188.479 69.355)"/><ellipse class="z" cx="189.21" cy="66.58" rx="1.07" ry="1.31" transform="rotate(-6.83 189.178 66.534)"/><ellipse class="aa" cx="159.88" cy="69.89" rx="2.77" ry="6" transform="rotate(-.74 159.826 69.944)"/><ellipse class="z" cx="160" cy="66.58" rx="1.07" ry="1.31" transform="rotate(-6.83 160.077 66.648)"/><path class="ab" d="M179.75 162.44c-2.95-26.17-7.66-26.18-10.43.09S169 210 174.69 210s8.01-21.39 5.06-47.56z"/><path class="ac" d="M179.63 141.81c-.15 1.89-3.37 5.11-5.26 5.25-1.89-.15-5.11-3.37-5.25-5.25.15-1.89 3.37-5.11 5.25-5.26 1.89.15 5.12 3.37 5.26 5.26z"/><path class="ad" d="M174.05 136.53a22.09 22.09 0 0 0-7.25 8.7 53.11 53.11 0 0 0-3.32 7.78s2.3-12.23 10.57-16.48z"/><path class="z" d="M154.26 125.13c2.18 8.88 9.23 27.88 9.23 27.88.51-1.39 1-2.67 1.49-3.83 2.53-6 4.9-9.16 6.64-10.82a7 7 0 0 1 2.66-1.75l.3-.07-.43-.05c-4.78.46-10.94-2.73-18.68-13.17 0-.06-.03.55-1.21 1.81z"/><path class="ad" d="M174.55 136.5a23.53 23.53 0 0 1 7.32 8.89 46.71 46.71 0 0 1 3.46 7.69s-2.5-12.33-10.78-16.58z"/><path class="z" d="M194.55 125.15c-2.18 8.85-9.23 27.85-9.23 27.85q-.76-2.09-1.49-3.83c-2.54-6-4.9-9.16-6.64-10.82a7 7 0 0 0-2.66-1.75l-.3-.07.43-.05c4.78.46 10.94-2.73 18.68-13.17 0-.04.03.57 1.21 1.84z"/><path class="a" d="M127.68 231.08c-21.47-15.79-28.48-40.18-18.76-65.25 9-23.12 29.15-39.82 45.95-38.06L153 145.49c-6.5-.71-20.81 9.63-27.46 26.78-4 10.21-7.57 29.56 12.71 44.46zM221.88 230l-11.59-13.53c15.57-13.34 14.28-29.95 10.47-41.53-5.71-17.33-18.88-29-22.91-29.31a1.85 1.85 0 0 0 .48-.06l-4-17.36c13.67-3.15 30.26 13.36 38.92 30.5 13.57 26.88 9.33 53.53-11.37 71.29z"/><path class="k" d="M138.53 156.55a10 10 0 0 0-.62-1.95c-.08-.16-.17-.31-.26-.46a3 3 0 0 0-.39-1.29 5 5 0 0 0-1.73-1.83v.05a9.81 9.81 0 0 1 1.2 2 3.62 3.62 0 0 1 .24 1.06 10.89 10.89 0 0 1-.08 1.16c-.12 1.63-.19 3.26-.28 4.89-.18 3.26-.3 6.52-.42 9.78h.07l.85-9.75c.14-1.56.29-3.12.47-4.67.16.37.32.75.46 1.13a16.62 16.62 0 0 1 1 3.87H139a13.66 13.66 0 0 0-.47-3.99zM211.87 155.1a4.09 4.09 0 0 1 1-2.1 23.57 23.57 0 0 1 1.7-1.95v-.06a9.46 9.46 0 0 0-2.1 1.63 4.32 4.32 0 0 0-1.23 2.05c-.09.15-.19.3-.27.45a8.16 8.16 0 0 0-.57 1.8 12.55 12.55 0 0 0-.4 3.73 15.54 15.54 0 0 1 .87-3.57c.11-.3.24-.6.37-.89.16 1.39.33 2.74.46 4.13l1.06 10.39h.07c-.18-3.48-.37-7-.61-10.43a207.6 207.6 0 0 0-.35-5.18z"/></svg>