<svg xmlns="http://www.w3.org/2000/svg" width="100" height="100" viewBox="0 0 100 100"><path fill-rule="evenodd" clip-rule="evenodd" d="M27 82V67.262c0-4.986 8.877-8.842 23.5-8.842S74 62.275 74 67.262V82H27zm23.477-29.477c-6.491 0-11.738-6.89-11.738-17.714S43.985 23 50.477 23c6.493 0 11.738.985 11.738 11.81S56.97 52.523 50.477 52.523z" opacity=".15"/><path fill-rule="evenodd" clip-rule="evenodd" fill="#fff" d="M27 80V65.262c0-4.986 8.877-8.842 23.5-8.842S74 60.275 74 65.262V80H27zm23.477-29.477c-6.491 0-11.738-6.89-11.738-17.714S43.985 21 50.477 21c6.493 0 11.738.985 11.738 11.81S56.97 50.523 50.477 50.523z"/></svg>