<svg xmlns="http://www.w3.org/2000/svg" width="100" height="100" viewBox="0 0 100 100"><path fill-rule="evenodd" clip-rule="evenodd" d="M69.714 62c-4.575 0-8.285-4.029-8.285-9s3.71-9 8.285-9C74.291 44 78 48.029 78 53s-3.709 9-8.286 9zM49 62c-4.576 0-8.286-4.029-8.286-9s3.71-9 8.286-9 8.286 4.029 8.286 9-3.71 9-8.286 9zm-20.714 0C23.71 62 20 57.971 20 53s3.71-9 8.286-9c4.575 0 8.285 4.029 8.285 9s-3.71 9-8.285 9z" opacity=".15"/><path fill-rule="evenodd" clip-rule="evenodd" fill="#fff" d="M69.714 60c-4.575 0-8.285-4.029-8.285-9s3.71-9 8.285-9C74.291 42 78 46.029 78 51s-3.709 9-8.286 9zM49 60c-4.576 0-8.286-4.029-8.286-9s3.71-9 8.286-9 8.286 4.029 8.286 9-3.71 9-8.286 9zm-20.714 0C23.71 60 20 55.971 20 51s3.71-9 8.286-9c4.575 0 8.285 4.029 8.285 9s-3.71 9-8.285 9z"/></svg>