<svg xmlns="http://www.w3.org/2000/svg" width="42.12" height="46.84" viewBox="0 0 42.12 46.84"><defs><style>.a{opacity:.4}</style></defs><title>meetings</title><path class="a" d="M36.75 17.46A8.75 8.75 0 1 1 28 8.65a8.75 8.75 0 0 1 8.75 8.81zM14.28 0a8.41 8.41 0 0 1 8.42 6.75 12 12 0 0 0-6.59 10.41 8.5 8.5 0 0 1-2 .23A8.7 8.7 0 0 1 13.71 0zM0 32.29a14.19 14.19 0 0 1 14.13-14.24 14.71 14.71 0 0 1 2 .14A11.91 11.91 0 0 0 19.61 26c-4.48 2.52-7.15 8.27-8.05 13.55C5.28 39.79 0 39.05 0 32.29zm27.9 14.5c-7.8 0-14 0-14-5.61a14.13 14.13 0 0 1 28.26 0c-.03 5.65-6.45 5.61-14.26 5.61z"/></svg>