<svg xmlns="http://www.w3.org/2000/svg" width="33.93" height="46.85" viewBox="0 0 33.93 46.85"><defs><style>.a{opacity:.4}</style></defs><title>sales</title><path class="a" d="M12.2 8.15l-.6.62c-1.1-1.24-4.23-4.39-6.79-3.46l-.33-.89c3-1.09 6.32 2.05 7.67 3.53L10.29.06l13-.07-2.43 8.12zM22 9.26v.07l-10.77.05.33-.61c-1.8.67-4.17 1.14-5.56-.09l-.64.71a4.41 4.41 0 0 0 3 1 9.49 9.49 0 0 0 2-.25C4.21 14.24-.06 23.38 0 30.3a17 17 0 0 0 34-.18c0-7.41-5-17.32-11.9-20.86zm-.21 26.4a6.61 6.61 0 0 1-3.35 1.49v2.65H15.6v-2.64a7.36 7.36 0 0 1-3.51-1.59A4.69 4.69 0 0 1 10.18 32l.05-.73H13v.28a3.15 3.15 0 0 0 1 2.49 4.25 4.25 0 0 0 3 .96 4.48 4.48 0 0 0 2.9-1 3.08 3.08 0 0 0 1-2.45 2.49 2.49 0 0 0-1-2.05 9.67 9.67 0 0 0-3.5-1.35 9.17 9.17 0 0 1-4.15-1.9 4.36 4.36 0 0 1-1.4-3.25 4.61 4.61 0 0 1 1.77-3.73A6.33 6.33 0 0 1 15.48 18v-2.3h2.89v2.23a6.4 6.4 0 0 1 3.24 1.31A5.14 5.14 0 0 1 23.48 23v.28h-2.83v-.23a3.48 3.48 0 0 0-1-2.25 3.64 3.64 0 0 0-2.42-.72 4 4 0 0 0-2.57.77 2.41 2.41 0 0 0-.88 2 2.24 2.24 0 0 0 .82 1.82 7.52 7.52 0 0 0 3 1.18A10.59 10.59 0 0 1 22.16 28a4.5 4.5 0 0 1 1.58 3.49 5.09 5.09 0 0 1-1.91 4.14z"/></svg>