<svg xmlns="http://www.w3.org/2000/svg" width="61" height="57.1" viewBox="0 0 61 57.1"><path fill="#231F20" d="M42.7 23.5c-.3-1.1-.9-1.7-1.3-2.8.7-1.5 1.3-3.6 1.3-5.3 0-6.4-5.1-11.7-11.5-11.9h-.5c-6.6 0-11.9 5.3-11.9 11.9 0 2 .5 3.8 1.3 5.4-3.8 8-6.3 18.1-6.3 22.4 0 7.6 7.6 13.8 17 13.8s17-6.2 17-13.8c-.1-3.8-2-12.2-5.1-19.7z"/><radialGradient id="a" cx="30.798" cy="30.32" r="18.127" gradientUnits="userSpaceOnUse"><stop offset="0" stop-color="#FFF"/><stop offset=".515" stop-color="#FDFDFD"/><stop offset=".7" stop-color="#F6F6F6"/><stop offset=".833" stop-color="#EBEBEB"/><stop offset=".939" stop-color="#DADADA"/><stop offset="1" stop-color="#CCC"/></radialGradient><path fill="url(#a)" d="M40.4 24.8c-.3-.9-.7-1.3-1-2.2.5-1.2 1-3 1-4.4 0-5.2-4.1-9.4-9.3-9.6h-.4c-5.3 0-9.6 4.3-9.6 9.6 0 1.6.4 3.1 1.1 4.4-3.1 6.4-5.1 14.6-5.1 18.1C17.1 47 23.2 52 30.8 52s13.7-5 13.7-11.2c0-3.1-1.6-10-4.1-16z"/><linearGradient id="b" gradientUnits="userSpaceOnUse" x1="23.23" y1="53.23" x2="23.23" y2="57.126"><stop offset="0" stop-color="#FFE773"/><stop offset=".22" stop-color="#FFE36E"/><stop offset=".482" stop-color="#FFD960"/><stop offset=".765" stop-color="#FFC748"/><stop offset="1" stop-color="#FFB42E"/></linearGradient><path fill="url(#b)" d="M23.2 53.2c-2.2 0-3.9 1.7-3.9 3.9h7.8c0-2.1-1.7-3.9-3.9-3.9z"/><linearGradient id="c" gradientUnits="userSpaceOnUse" x1="38.615" y1="53.23" x2="38.615" y2="57.126"><stop offset="0" stop-color="#FFE773"/><stop offset=".22" stop-color="#FFE36E"/><stop offset=".482" stop-color="#FFD960"/><stop offset=".765" stop-color="#FFC748"/><stop offset="1" stop-color="#FFB42E"/></linearGradient><path fill="url(#c)" d="M38.6 53.2c-2.2 0-3.9 1.7-3.9 3.9h7.8c0-2.1-1.7-3.9-3.9-3.9z"/><linearGradient id="d" gradientUnits="userSpaceOnUse" x1="30.798" y1="8.1" x2="30.798" y2="25.962"><stop offset="0" stop-color="#FFE773"/><stop offset=".22" stop-color="#FFE36E"/><stop offset=".482" stop-color="#FFD960"/><stop offset=".765" stop-color="#FFC748"/><stop offset="1" stop-color="#FFB42E"/></linearGradient><ellipse fill="url(#d)" cx="30.8" cy="17" rx="9.8" ry="8.9"/><circle fill="#231F20" cx="30.8" cy="16" r="9.6"/><circle fill="#FFF" cx="25.1" cy="13.4" r="3.9"/><circle fill="#231F20" cx="26.3" cy="13.4" r="1.5"/><circle fill="#FFF" cx="26.9" cy="12.8" r=".4"/><circle fill="#FFF" cx="27.5" cy="13.4" r=".2"/><circle fill="#FFF" cx="26.8" cy="13.9" r=".2"/><circle fill="#FFF" cx="36.5" cy="13.4" r="3.9"/><circle fill="#231F20" cx="35.1" cy="13.4" r="1.5"/><circle fill="#FFF" cx="35.6" cy="12.8" r=".4"/><circle fill="#FFF" cx="36.2" cy="13.4" r=".2"/><circle fill="#FFF" cx="35.5" cy="13.9" r=".2"/><g><path fill="#FFD8F4" d="M32.9 17.7l-.8 1.4c-.4.6-.8 1.4-1.3 1.4s-.9-.8-1.3-1.4l-.8-1.4c-.5-.8-.4-1.5.2-1.9l1.4-.3h1.3c1.4 0 2 1 1.3 2.2z"/><radialGradient id="e" cx="30.804" cy="17.178" r="2.067" gradientUnits="userSpaceOnUse"><stop offset="0" stop-color="#F7E563"/><stop offset=".095" stop-color="#F4DF5A"/><stop offset=".321" stop-color="#F0D44B"/><stop offset=".588" stop-color="#EECE43"/><stop offset="1" stop-color="#EDCC40"/></radialGradient><path fill="url(#e)" d="M31.6 15.5H30c-1.4 0-2 .7-1.3 1.5l.8.9c.4.4.8 1 1.3 1s.9-.6 1.3-1l.8-.9c.7-.9.1-1.5-1.3-1.5z"/></g><path fill="#231F20" d="M30.1 3.8S32.4.3 34.7 0c-2.5 2.4-2.1 3-2.1 3s1.2-1.9 2.5-2.2c-1.8 1.9-1.3 3-1.3 3s.2-1.1 1.4-1.9c-.9 1.2-1 2.8-1 2.8"/><g><ellipse transform="rotate(147.024 14.64 15.843)" fill="#231F20" cx="14.6" cy="15.8" rx="2.3" ry="9.7"/></g><g><ellipse transform="rotate(32.976 46.943 15.846)" fill="#231F20" cx="46.9" cy="15.8" rx="2.3" ry="9.7"/></g></svg>