<svg xmlns="http://www.w3.org/2000/svg" xmlns:xlink="http://www.w3.org/1999/xlink" width="320" height="134" viewBox="0 435 320 134"><symbol id="e" viewBox="-15.4 -21.2 30.9 42.4"><path fill="#5A4521" d="M-11.6 2.1c-7.1-7.7-3.5-17.7 4.6-21.5 7.9-4.2 18.1-1 20 9.3 3.7 21.3 2.8 29.9.2 31.1-2.7 1.4-10.1-3.2-24.8-18.9z"/><path fill="#8C5518" d="M-6.8-18.2c.1 0 .2-.1.3-.1.1-.1.2-.1.3-.2 3.8-1.9 8.2-2 11.7-.2 3.3 1.6 5.5 4.8 6.2 8.8 4.7 27.1 1.3 29.6.8 29.8-.4.2-4.5 1.4-23.2-18.7-2.8-3-3.9-6.6-3.3-10.2.7-3.9 3.4-7.3 7.2-9.2z"/><path fill="#A56929" d="M11.4-.3c-.5.5-1.5.8-2.2.8L4.4.3c-.7 0-1.7.3-2.2.8l-3.6 3.2c-.5.4-1.5.8-2.2.7h-.6C6.1 16.1 10.3 18 11.4 18.4c.5-1.1 1.7-5.2.3-18.9l-.3.2zM-6.8 2.2l2.2.1c.7 0 1.7-.3 2.2-.8l3.6-3.2c.5-.5 1.5-.8 2.2-.8l4.8.2c.7 0 1.7-.3 2.2-.8l.9-.8c-.2-1.6-.4-3.2-.6-5C5-11-3.8-12-10.3-2c.3.5.7 1 1.1 1.5.9 1 1.7 1.8 2.4 2.7z"/><path fill="#C68239" d="M8.8 9.3c-.2-1.1.1-2 .7-2.1.5-.1 1.1.7 1.3 1.8.2 1.1-.1 2-.7 2.1-.5.1-1.1-.7-1.3-1.8zM1 8.5c-.7-.7-.8-1.6-.4-2s1.3-.2 2 .5.8 1.6.4 2-1.3.2-2-.5zM4.4-5.9c.1-.8.6-1.4 1.1-1.3.5.1.8.8.7 1.5-.1.8-.6 1.4-1.1 1.3-.5-.1-.8-.8-.7-1.5zM-8.4-4.7c-.2-.9.2-1.7.7-1.8.5 0 1.1.6 1.2 1.5.2.9-.2 1.7-.7 1.8-.5 0-1.1-.6-1.2-1.5z"/></symbol><symbol id="f" viewBox="-17.9 -27.4 35.8 54.8"><path fill="#425529" d="M17.8-11C17.5-24.1 5.5-29.9-5-26.3c-10.7 3.2-17.1 14.8-9.8 25.6C.4 21.6 8.6 28.5 12.1 27.3c3.6-1 6.2-11.4 5.7-38.3z"/><path fill="#527129" d="M-4.1-24.9c-.1 0-.3.1-.4.1s-.3.1-.4.1c-5.1 1.6-9.1 5.3-10.7 10-1.5 4.3-.7 9 2.1 13.2C5.8 26.8 11.1 26.1 11.6 25.9h.1c.5-.2 5.3-2.7 4.6-36.9-.1-5.1-2.3-9.4-6-12-3.9-2.8-9.3-3.5-14.4-1.9z"/><path fill="#6B8A39" d="M-4.8 6.9c.9 0 2-.6 2.6-1.2L2 1.3C2.6.7 3.7.1 4.6.1l6-.3c.9 0 2-.6 2.6-1.2l.6-.5c.4 18.9-1.6 24.2-2.4 25.6-1.4-.6-6-3.3-16.7-16.8h.5zM13.6-6.7l-1.9 2c-.6.6-1.8 1.2-2.6 1.2l-6 .3c-.9 0-2 .6-2.6 1.2l-4.1 4.4c-.6.6-1.8 1.2-2.6 1.2l-1.6.1c-1.2-1.6-2.4-3.2-3.8-5 3.2-6.9 10.3-15.5 24.8-12 .2.8.3 1.5.3 2.4 0 1.3.1 2.8.1 4.2z"/><path fill="#84AA4A" d="M5.8 13.2C5 12.1 4 11.5 3.4 11.9c-.6.4-.4 1.6.3 2.8.8 1.1 1.9 1.7 2.5 1.4.6-.5.4-1.7-.4-2.9zm6.3-7.5c0-1.2-.6-2.1-1.4-2.1-.7 0-1.3 1-1.3 2.1 0 1.2.6 2.1 1.4 2.1.7.1 1.3-.9 1.3-2.1zM-3.5-4.2c-.7-.6-1.7-.7-2-.2-.4.5 0 1.4.7 2 .8.5 1.7.6 2.1.1.4-.5 0-1.4-.8-1.9zM9.1-14.3c-.6-.9-1.6-1.3-2.2-1-.5.4-.5 1.5.1 2.4s1.6 1.3 2.2 1c.6-.4.5-1.5-.1-2.4z"/></symbol><symbol id="g" viewBox="-1.7 -1.5 3.4 3.1"><path fill="#7B7121" d="M.8-.5c0 .1-.2 1.1.6 1.8C.7 1 .4.5.3.1.1.6-.2 1.5-1 1.5.2.8-.3-.6-.3-.6S-.5.5-1.7.4c.9-.1 1-1 1-1V-1c0-.2.2-.4.5-.5 0 .1-.1.3-.2.3h-.1.1c.3-.1.4-.3.4-.3 0 .1 0 .4-.2.7.2-.2.3-.4.3-.5.1.3.2.5.5.6-.4-.3-.3-.8-.2-.8 0 0 .1.4.5.4-.3.1-.4-.3-.4-.4.4 0 .6.2.6.5v.5c0 .1.1.8.6.9C1 .3.8-.4.8-.5z"/></symbol><defs><path id="a" d="M0 440h320v129H0z"/></defs><clipPath id="b"><use xlink:href="#a" overflow="visible"/></clipPath><circle clip-path="url(#b)" fill="#89A85D" cx="160" cy="738" r="285"/><defs><path id="c" d="M0 435h320v134H0z"/></defs><clipPath id="d"><use xlink:href="#c" overflow="visible"/></clipPath><g clip-path="url(#d)"><use xlink:href="#e" width="30.9" height="42.4" x="-15.4" y="-21.2" transform="rotate(-132.993 214.762 225.859) scale(.6844)" overflow="visible"/><use xlink:href="#f" width="35.8" height="54.8" x="-17.9" y="-27.4" transform="matrix(.5292 -.3659 -.3659 -.5292 151.812 540.088)" overflow="visible"/><use xlink:href="#f" width="35.8" height="54.8" x="-17.9" y="-27.4" transform="matrix(.6411 -.05352 -.05352 -.6411 174.193 549.852)" overflow="visible"/><use xlink:href="#e" width="30.9" height="42.4" x="-15.4" y="-21.2" transform="matrix(-.6391 -.2447 .2447 -.6391 170.98 544.366)" overflow="visible"/><path fill="#809E57" d="M304.9 507.3c1.8-1.9 3.2-4.4 3.8-7.6 4.1-22.7 3.3-31.9.4-33.3-2.2-1.2-7.7 1.6-18 11.4.5-8.1-.5-11.8-2.2-12.6-2-1-6.8 1.4-15.7 9.8-.9-11-2.9-15.8-5.2-16.5-1.4-.5-3.4.3-6.3 2.7-1.3-4.8-2.6-6.8-3.8-6.9-1.2-.2-3.2 1.6-6.1 6.5-.7-1-1.4-1.5-2-1.5-1.7-.2-4.3 2.3-8.1 9.3-2.4-6.5-4.4-9-5.8-9-2.1-.1-5.4 5-10.1 19.5-2.2 7.1 3.1 12.4 9.4 12.4.6 0 1.3 0 1.9-.1.4.5.8.9 1.2 1.3-2 8.8 3.9 16.9 12.5 19.5 7.4 2.6 15.5.4 19.8-5.6 3.8 1.4 8 1.2 11.3-.5.5 3.3 2.7 6.3 5.8 8.1 6.1 3.9 14.6 2.1 16.9-6.1.2-.4.2-.6.3-.8z"/><use xlink:href="#f" width="35.8" height="54.8" x="-17.9" y="-27.4" transform="matrix(.8337 .1117 .1117 -.8337 297.253 485.545)" overflow="visible"/><use xlink:href="#e" width="30.9" height="42.4" x="-15.4" y="-21.2" transform="matrix(.9977 0 0 -.9977 277.13 483.969)" overflow="visible"/><use xlink:href="#e" width="30.9" height="42.4" x="-15.4" y="-21.2" transform="scale(.6844 -.6844) rotate(23.197 1858.885 489.62)" overflow="visible"/><use xlink:href="#e" width="30.9" height="42.4" x="-15.4" y="-21.2" transform="matrix(.7588 -.2727 -.2727 -.7588 255.13 471.35)" overflow="visible"/><use xlink:href="#f" width="35.8" height="54.8" x="-17.9" y="-27.4" transform="matrix(.6621 -.1465 -.1465 -.6621 246.911 476.503)" overflow="visible"/><use xlink:href="#f" width="35.8" height="54.8" x="-17.9" y="-27.4" transform="matrix(1.0004 0 0 -1.0004 257.197 483.545)" overflow="visible"/><use xlink:href="#f" width="35.8" height="54.8" x="-17.9" y="-27.4" transform="matrix(.63 .1305 .1305 -.63 297.261 496.045)" overflow="visible"/><use xlink:href="#e" width="30.9" height="42.4" x="-15.4" y="-21.2" transform="matrix(.9977 0 0 -.9977 282.806 505.73)" overflow="visible"/><use xlink:href="#f" width="35.8" height="54.8" x="-17.9" y="-27.4" transform="scale(.64333 -.64333) rotate(4.772 9888.296 4161.4)" overflow="visible"/><use xlink:href="#f" width="35.8" height="54.8" x="-17.9" y="-27.4" transform="matrix(.5292 -.3659 -.3659 -.5292 221.972 531.017)" overflow="visible"/><use xlink:href="#e" width="30.9" height="42.4" x="-15.4" y="-21.2" transform="matrix(.8398 -.5388 -.5388 -.8398 233.652 533.322)" overflow="visible"/><use xlink:href="#f" width="35.8" height="54.8" x="-17.9" y="-27.4" transform="matrix(1.0004 0 0 -1.0004 304.228 514.86)" overflow="visible"/><path fill="#809E57" d="M100.9 472.9c-2.9-11.7-5.3-15.9-6.9-16-1.2-.1-2.9 1.9-5.3 7.3-2.8-6-4.8-8.3-6.2-8.2-1.5.1-3.3 2.8-5.6 10-4.5-9.5-7.6-13-9.5-12.8-.9.1-1.9.9-2.9 2.8-3.6-6.5-6.1-9-7.7-8.7-1.8.2-4 3.9-6.2 13.2-.6-.1-1-.1-1.4 0-1.5.4-2.8 2.8-3.6 7.9-8.4-8.7-13.2-11.4-15.4-10.4-.6.3-1.2.9-1.7 1.9-6.5-6.9-10.4-9-12.4-8.3-2.8 1-4.4 9-3 28.9-1.1-.3-1.8-.3-2.4 0-2.1 1.1-2.4 8 1.4 24.9 1.9 8.2 10.2 10.3 16.3 6.6 3.3-1.8 5.6-4.9 6.1-8.3 4.3 2.8 10.2 3.2 15.3.8.3-.1.6-.3 1-.4 3.6 2.1 8.2 2.6 12.6 1.1 6.7-2 11.4-8 10.7-14.7 2.9-.9 5.3-2.8 6.7-5.4 1.1.3 2.3.4 3.4.3 2.9-.1 5.6-1.4 7.3-3.6.4.1.9.1 1.3.1 5 .5 9.5-3.3 8.1-9z"/><use xlink:href="#f" width="35.8" height="54.8" x="-17.9" y="-27.4" transform="matrix(-.4197 -.1565 .1565 -.4197 93.859 467.262)" overflow="visible"/><use xlink:href="#f" width="35.8" height="54.8" x="-17.9" y="-27.4" transform="matrix(-.8395 .05292 -.05292 -.8395 26.686 470.952)" overflow="visible"/><use xlink:href="#e" width="30.9" height="42.4" x="-15.4" y="-21.2" transform="matrix(-.6011 -.2576 .2576 -.6011 84.06 469.024)" overflow="visible"/><use xlink:href="#f" width="35.8" height="54.8" x="-17.9" y="-27.4" transform="matrix(.7597 -.3613 -.3613 -.7597 126.296 530.7)" overflow="visible"/><use xlink:href="#f" width="35.8" height="54.8" x="-17.9" y="-27.4" transform="matrix(1.0004 0 0 -1.0004 205.427 548.662)" overflow="visible"/><use xlink:href="#e" width="30.9" height="42.4" x="-15.4" y="-21.2" transform="rotate(-160.235 70.437 226.681) scale(.8063)" overflow="visible"/><use xlink:href="#f" width="35.8" height="54.8" x="-17.9" y="-27.4" transform="rotate(-167.529 60.954 231.161) scale(.6781)" overflow="visible"/><use xlink:href="#e" width="30.9" height="42.4" x="-15.4" y="-21.2" transform="matrix(-1.117 -.06765 .06765 -1.117 42.355 479.408)" overflow="visible"/><use xlink:href="#f" width="35.8" height="54.8" x="-17.9" y="-27.4" transform="rotate(180 29.144 240.144) scale(.8352)" overflow="visible"/><use xlink:href="#f" width="35.8" height="54.8" x="-17.9" y="-27.4" transform="matrix(-.63 .1305 -.1305 -.63 20.88 493.137)" overflow="visible"/><use xlink:href="#e" width="30.9" height="42.4" x="-15.4" y="-21.2" transform="matrix(.6998 -.6221 -.6221 -.6998 9.394 507.202)" overflow="visible"/><use xlink:href="#e" width="30.9" height="42.4" x="-15.4" y="-21.2" transform="matrix(-.6011 -.2576 .2576 -.6011 55.06 500.29)" overflow="visible"/><use xlink:href="#e" width="30.9" height="42.4" x="-15.4" y="-21.2" transform="matrix(.4229 -.5381 -.5381 -.4229 36.413 508.57)" overflow="visible"/><use xlink:href="#f" width="35.8" height="54.8" x="-17.9" y="-27.4" transform="matrix(.5783 -.3542 -.3542 -.5783 26.745 522.941)" overflow="visible"/><use xlink:href="#f" width="35.8" height="54.8" x="-17.9" y="-27.4" transform="matrix(1.0766 -.7093 -.7093 -1.0766 61.732 517.796)" overflow="visible"/><use xlink:href="#f" width="35.8" height="54.8" x="-17.9" y="-27.4" transform="matrix(.9888 -.152 -.152 -.9888 43.96 536.209)" overflow="visible"/><use xlink:href="#e" width="30.9" height="42.4" x="-15.4" y="-21.2" transform="rotate(-132.993 243.545 195.555) scale(.6844)" overflow="visible"/><use xlink:href="#f" width="35.8" height="54.8" x="-17.9" y="-27.4" transform="matrix(1.0766 -.7093 -.7093 -1.0766 11.066 546.08)" overflow="visible"/><use xlink:href="#e" width="30.9" height="42.4" x="-15.4" y="-21.2" transform="rotate(-154.185 105.286 250.398) scale(.6844)" overflow="visible"/><use xlink:href="#e" width="30.9" height="42.4" x="-15.4" y="-21.2" transform="matrix(-.4711 -.4965 .4965 -.4711 186.972 558.767)" overflow="visible"/><use xlink:href="#e" width="30.9" height="42.4" x="-15.4" y="-21.2" transform="rotate(175.786 69.787 282.688) scale(.68435)" overflow="visible"/><use xlink:href="#e" width="30.9" height="42.4" x="-15.4" y="-21.2" transform="rotate(-163.154 112.898 266.515) scale(.8809)" overflow="visible"/><use xlink:href="#f" width="35.8" height="54.8" x="-17.9" y="-27.4" transform="matrix(.6339 -.11 -.11 -.6339 272.976 519.79)" overflow="visible"/><use xlink:href="#f" width="35.8" height="54.8" x="-17.9" y="-27.4" transform="matrix(-.5783 -.3542 .3542 -.5783 291.244 530.723)" overflow="visible"/><use xlink:href="#e" width="30.9" height="42.4" x="-15.4" y="-21.2" transform="matrix(-.7734 -.6379 .6379 -.7734 112.05 522.596)" overflow="visible"/><use xlink:href="#e" width="30.9" height="42.4" x="-15.4" y="-21.2" transform="matrix(.7588 -.2727 -.2727 -.7588 87.942 538.872)" overflow="visible"/><use xlink:href="#e" width="30.9" height="42.4" x="-15.4" y="-21.2" transform="matrix(-1.0411 -.4104 .4104 -1.0411 77.46 554.922)" overflow="visible"/><use xlink:href="#f" width="35.8" height="54.8" x="-17.9" y="-27.4" transform="matrix(.9832 -.3761 -.3761 -.9832 254.948 541.35)" overflow="visible"/><use xlink:href="#e" width="30.9" height="42.4" x="-15.4" y="-21.2" transform="matrix(-.7734 -.6379 .6379 -.7734 285.49 546.255)" overflow="visible"/><use xlink:href="#f" width="35.8" height="54.8" x="-17.9" y="-27.4" transform="rotate(-154.544 218.457 243.264) scale(1.4935)" overflow="visible"/><use xlink:href="#f" width="35.8" height="54.8" x="-17.9" y="-27.4" transform="matrix(.751 -.2426 -.2426 -.751 265.773 556.014)" overflow="visible"/><use xlink:href="#f" width="35.8" height="54.8" x="-17.9" y="-27.4" transform="matrix(.8337 .1117 .1117 -.8337 52.566 554.033)" overflow="visible"/><use xlink:href="#f" width="35.8" height="54.8" x="-17.9" y="-27.4" transform="matrix(.6621 -.1465 -.1465 -.6621 104.13 538.784)" overflow="visible"/><use xlink:href="#f" width="35.8" height="54.8" x="-17.9" y="-27.4" transform="matrix(.7859 .03051 .03051 -.7859 119.384 556.919)" overflow="visible"/><use xlink:href="#f" width="35.8" height="54.8" x="-17.9" y="-27.4" transform="matrix(.6726 -.2495 -.2495 -.6726 95.902 557.208)" overflow="visible"/><use xlink:href="#e" width="30.9" height="42.4" x="-15.4" y="-21.2" transform="matrix(.6362 -.3477 -.3477 -.6362 226.425 557.3)" overflow="visible"/><use xlink:href="#e" width="30.9" height="42.4" x="-15.4" y="-21.2" transform="matrix(.7726 -.3641 -.3641 -.7726 247.525 552.395)" overflow="visible"/><use xlink:href="#f" width="35.8" height="54.8" x="-17.9" y="-27.4" transform="scale(.7184 -.7184) rotate(17.941 2629.66 666.58)" overflow="visible"/><use xlink:href="#f" width="35.8" height="54.8" x="-17.9" y="-27.4" transform="matrix(.6835 -.2213 -.2213 -.6835 173.972 555.69)" overflow="visible"/></g><g><use xlink:href="#g" width="3.4" height="3.1" x="-1.7" y="-1.5" transform="matrix(.7519 -.3573 -.3573 -.7519 159.118 487.864)" overflow="visible"/><use xlink:href="#g" width="3.4" height="3.1" x="-1.7" y="-1.5" transform="matrix(1.142 -.1503 -.1503 -1.142 189.04 518.443)" overflow="visible"/><use xlink:href="#g" width="3.4" height="3.1" x="-1.7" y="-1.5" transform="matrix(.5957 .2129 .2129 -.5957 226.367 486.588)" overflow="visible"/><use xlink:href="#g" width="3.4" height="3.1" x="-1.7" y="-1.5" transform="matrix(.8191 .05217 .05217 -.8191 233.287 503.144)" overflow="visible"/><use xlink:href="#g" width="3.4" height="3.1" x="-1.7" y="-1.5" transform="matrix(1.156 -.2111 -.2111 -1.156 83.75 498.416)" overflow="visible"/><use xlink:href="#g" width="3.4" height="3.1" x="-1.7" y="-1.5" transform="matrix(.6115 .1761 .1761 -.6115 107.163 460.228)" overflow="visible"/><use xlink:href="#g" width="3.4" height="3.1" x="-1.7" y="-1.5" transform="matrix(.714 -.1492 -.1492 -.714 110.898 472.382)" overflow="visible"/><use xlink:href="#g" width="3.4" height="3.1" x="-1.7" y="-1.5" transform="matrix(.4706 .2615 .2615 -.4706 217.022 472.184)" overflow="visible"/><use xlink:href="#g" width="3.4" height="3.1" x="-1.7" y="-1.5" transform="matrix(.9979 .04534 .04534 -.9979 159.992 517.916)" overflow="visible"/><use xlink:href="#g" width="3.4" height="3.1" x="-1.7" y="-1.5" transform="matrix(1.1143 .2014 .2014 -1.1143 217.405 502.934)" overflow="visible"/><use xlink:href="#g" width="3.4" height="3.1" x="-1.7" y="-1.5" transform="matrix(.7622 -.0513 -.0513 -.7622 140.82 481.769)" overflow="visible"/><use xlink:href="#g" width="3.4" height="3.1" x="-1.7" y="-1.5" transform="matrix(.9049 -.01855 -.01855 -.9049 100.652 491.848)" overflow="visible"/><use xlink:href="#g" width="3.4" height="3.1" x="-1.7" y="-1.5" transform="matrix(.8025 -.2241 -.2241 -.8025 183.073 492.612)" overflow="visible"/><use xlink:href="#g" width="3.4" height="3.1" x="-1.7" y="-1.5" transform="matrix(.7805 -.01717 -.01717 -.7805 199.047 507.725)" overflow="visible"/><use xlink:href="#g" width="3.4" height="3.1" x="-1.7" y="-1.5" transform="matrix(1.0152 -.1122 -.1122 -1.0152 143.001 502.738)" overflow="visible"/><use xlink:href="#g" width="3.4" height="3.1" x="-1.7" y="-1.5" transform="scale(.8325 -.8325) rotate(25.417 1434.952 126.28)" overflow="visible"/><use xlink:href="#g" width="3.4" height="3.1" x="-1.7" y="-1.5" transform="matrix(.8025 -.2241 -.2241 -.8025 175.372 499.826)" overflow="visible"/><use xlink:href="#g" width="3.4" height="3.1" x="-1.7" y="-1.5" transform="matrix(.8025 -.2241 -.2241 -.8025 175.14 506.993)" overflow="visible"/><use xlink:href="#g" width="3.4" height="3.1" x="-1.7" y="-1.5" transform="scale(1.0214 -1.0214) rotate(6.307 4481.673 937.783)" overflow="visible"/><use xlink:href="#g" width="3.4" height="3.1" x="-1.7" y="-1.5" transform="matrix(.8217 .04524 .04524 -.8217 116.801 484.495)" overflow="visible"/><use xlink:href="#g" width="3.4" height="3.1" x="-1.7" y="-1.5" transform="matrix(.8217 .04524 .04524 -.8217 114.133 494.17)" overflow="visible"/><use xlink:href="#g" width="3.4" height="3.1" x="-1.7" y="-1.5" transform="matrix(.978 -.1018 -.1018 -.978 144.432 491.464)" overflow="visible"/><use xlink:href="#g" width="3.4" height="3.1" x="-1.7" y="-1.5" transform="scale(.8332 -.8332) rotate(15.603 2222.52 542.695)" overflow="visible"/><use xlink:href="#g" width="3.4" height="3.1" x="-1.7" y="-1.5" transform="matrix(.6922 .0027 .0027 -.6922 203.492 490.353)" overflow="visible"/><use xlink:href="#g" width="3.4" height="3.1" x="-1.7" y="-1.5" transform="matrix(.6454 .08786 .08786 -.6454 214.892 480.445)" overflow="visible"/><use xlink:href="#g" width="3.4" height="3.1" x="-1.7" y="-1.5" transform="matrix(.6342 .1197 .1197 -.6342 221.768 480.716)" overflow="visible"/><use xlink:href="#g" width="3.4" height="3.1" x="-1.7" y="-1.5" transform="matrix(1.0108 .1397 .1397 -1.0108 227.912 500.854)" overflow="visible"/><use xlink:href="#g" width="3.4" height="3.1" x="-1.7" y="-1.5" transform="matrix(1.0364 .1345 .1345 -1.0364 214.37 511.831)" overflow="visible"/><use xlink:href="#g" width="3.4" height="3.1" x="-1.7" y="-1.5" transform="matrix(.8025 -.2241 -.2241 -.8025 181.014 511.955)" overflow="visible"/><use xlink:href="#g" width="3.4" height="3.1" x="-1.7" y="-1.5" transform="matrix(1.0152 -.1122 -.1122 -1.0152 142.372 513.508)" overflow="visible"/><use xlink:href="#g" width="3.4" height="3.1" x="-1.7" y="-1.5" transform="matrix(.8706 .00966 .00966 -.8706 96.251 486.9)" overflow="visible"/><use xlink:href="#g" width="3.4" height="3.1" x="-1.7" y="-1.5" transform="scale(.8842 -.8842) rotate(.08 399593.656 74075.7)" overflow="visible"/></g></svg>