<svg xmlns="http://www.w3.org/2000/svg" xmlns:xlink="http://www.w3.org/1999/xlink" width="320" height="569" viewBox="0 0 320 569"><symbol id="a" viewBox="-6 -5.5 12 11"><path fill="#FFECD3" d="M5.5 0C5.5-3 3-5.5 0-5.5S-5.5-3-5.5 0-3 5.5 0 5.5 5.5 3 5.5 0z"/></symbol><path opacity=".4" fill="none" stroke="#FFF" stroke-width=".25" stroke-miterlimit="10" d="M221 314.9l59 26.4"/><use xlink:href="#a" width="12" height="11" x="-6" y="-5.5" transform="matrix(.4908 0 0 -.4908 16.945 175.592)" overflow="visible"/><use xlink:href="#a" width="12" height="11" x="-6" y="-5.5" transform="matrix(.2728 0 0 -.2728 63.328 119.844)" overflow="visible"/><use xlink:href="#a" width="12" height="11" x="-6" y="-5.5" transform="matrix(.5898 0 0 -.5898 263.234 171.232)" overflow="visible"/><use xlink:href="#a" width="12" height="11" x="-6" y="-5.5" transform="matrix(.6561 0 0 -.6561 208.98 146.506)" overflow="visible"/><use xlink:href="#a" width="12" height="11" x="-6" y="-5.5" transform="matrix(1.0898 0 0 -1.0898 299.293 234.593)" overflow="visible"/><use xlink:href="#a" width="12" height="11" x="-6" y="-5.5" transform="matrix(1.6259 0 0 -1.6259 27.44 346.346)" overflow="visible"/><use xlink:href="#a" width="12" height="11" x="-6" y="-5.5" transform="matrix(.6149 0 0 -.6149 147.244 407.198)" overflow="visible"/><use xlink:href="#a" width="12" height="11" x="-6" y="-5.5" transform="matrix(.9248 0 0 -.9248 214.504 368.593)" overflow="visible"/><use xlink:href="#a" width="12" height="11" x="-6" y="-5.5" transform="matrix(1.1802 0 0 -1.1802 82.494 377.118)" overflow="visible"/><use xlink:href="#a" width="12" height="11" x="-6" y="-5.5" transform="matrix(1.047 0 0 -1.047 180.457 243.975)" overflow="visible"/><use xlink:href="#a" width="12" height="11" x="-6" y="-5.5" transform="matrix(1.2471 0 0 -1.2471 214.96 534.976)" overflow="visible"/><use xlink:href="#a" width="12" height="11" x="-6" y="-5.5" transform="matrix(1.2973 0 0 -1.2973 64.96 523.125)" overflow="visible"/><use xlink:href="#a" width="12" height="11" x="-6" y="-5.5" transform="matrix(1.214 0 0 -1.214 93.602 255.547)" overflow="visible"/><use xlink:href="#a" width="12" height="11" x="-6" y="-5.5" transform="matrix(1.3805 0 0 -1.3805 271.698 45.285)" overflow="visible"/><use xlink:href="#a" width="12" height="11" x="-6" y="-5.5" transform="matrix(1.7814 0 0 -1.7814 72.283 36.774)" overflow="visible"/><use xlink:href="#a" width="12" height="11" x="-6" y="-5.5" transform="matrix(.9248 0 0 -.9248 249.185 438.62)" overflow="visible"/><use xlink:href="#a" width="12" height="11" x="-6" y="-5.5" transform="matrix(1.047 0 0 -1.047 164.313 304.346)" overflow="visible"/><use xlink:href="#a" width="12" height="11" x="-6" y="-5.5" transform="matrix(.7856 0 0 -.7856 151.495 156.92)" overflow="visible"/><path opacity=".4" fill="none" stroke="#FFF" stroke-width=".25" stroke-miterlimit="10" d="M148.1 35l48.4-22"/></svg>