<svg xmlns="http://www.w3.org/2000/svg" xmlns:xlink="http://www.w3.org/1999/xlink" width="320" height="235.1" viewBox="0 0 320 235.1"><defs><path id="a" d="M0 0h320v235.1H0z"/></defs><clipPath id="b"><use xlink:href="#a" overflow="visible"/></clipPath><radialGradient id="c" cx="160" cy="88.897" r="143.514" gradientUnits="userSpaceOnUse"><stop offset="0" stop-color="#FFFCC8"/><stop offset="1" stop-color="#384349" stop-opacity="0"/></radialGradient><path opacity=".5" clip-path="url(#b)" fill="url(#c)" d="M229.3-36.7c69.4 38.3 94.6 125.6 56.3 194.9-38.3 69.4-125.6 94.6-194.9 56.3C21.3 176.3-3.9 89 34.4 19.6 72.6-49.8 159.9-75 229.3-36.7z"/><g clip-path="url(#b)"><path fill="#FFFFD8" d="M155.3 116.8c.1-1.7-.4-3.3-1.4-4.6-1.3-1.6-3.1-2.5-5.2-2.5-1.1 0-2.2.3-3.1.8l-5.2-3.4-6.1-19.7c.6-.2 1.1-.5 1.5-.9 2.2-1.8 2.8-4.8 1.4-7.2L146 65l22.6-3.1-8.5 4.3c-.4-.1-.8-.2-1.2-.2-1 0-1.9.3-2.7.9-.6.5-1.1 1.1-1.4 1.9l-3.9 2-5.7 12 1 5.5c-.4.2-.7.4-1.1.6-1.9 1.5-2.2 4.3-.7 6.1.8 1 2 1.6 3.3 1.6l.4 2.3 11.5 8.9 17.2-2.6 9-9.1-5.7 13.2-5 2-.1-.1c-1.1-1.3-2.6-2.1-4.3-2.1-1.3 0-2.5.4-3.5 1.2-1.4 1.2-2.2 3-2.1 4.8l-7.8 3-2-1.3z"/><path fill="#FFFDC7" d="M166.2 62.7l-6.1 3.1c-.4-.1-.8-.1-1.2-.1-1.1 0-2.1.4-2.9 1-.6.5-1.1 1.2-1.4 1.9l-3.6 1.8-.3.1-.1.3-5.6 11.8-.1.3.1.3.9 5.1c-.3.2-.6.3-.8.5-2.1 1.6-2.4 4.7-.7 6.7.8 1 2 1.7 3.3 1.8l.3 1.7.1.3.3.2 11.3 8.7.3.2.4-.1 16.9-2.5h.3l.2-.2 7.3-7.4-4.7 10.9-4.6 1.8c-1.1-1.3-2.8-2.1-4.5-2.1-1.4 0-2.7.5-3.7 1.3-1.5 1.2-2.3 3-2.2 4.8l-7.3 2.8-2.1-1.4c.1-1.7-.5-3.3-1.5-4.6-1.3-1.7-3.4-2.6-5.5-2.6-1.1 0-2.1.2-3.1.7l-4.9-3.2-5.9-19.2c.5-.2.9-.5 1.3-.8 2.3-1.8 2.9-5 1.6-7.6l8.6-13.9 19.6-2.4m5-1.6l-25.3 3.5-9.1 14.7c1.4 2.2 1 5.2-1.1 6.9-.5.4-1.2.7-1.8.9l6.2 20.3 5.6 3.6c1-.6 2.1-.8 3.1-.8 1.8 0 3.6.8 4.8 2.3 1.1 1.3 1.5 3 1.3 4.5l2.9 1.9 8.3-3.2c-.3-1.7.4-3.6 1.9-4.7.9-.8 2.1-1.1 3.2-1.1 1.5 0 3 .7 4 1.9.1.1.2.2.2.3l5.5-2.1 6.6-15.4-10.5 10.5-16.9 2.5-11.3-8.7-.5-2.5h-.3c-1.2 0-2.3-.5-3.1-1.5-1.4-1.7-1.1-4.2.6-5.5.4-.3.8-.5 1.3-.7l-1.1-5.7 5.6-11.8 3.9-2c.2-.7.7-1.4 1.3-1.9.7-.6 1.6-.8 2.4-.8.4 0 .9.1 1.3.2l11-5.6z"/><defs><path id="d" d="M160 107.6l-11.3-8.7-.5-2.5c-1.2.1-2.5-.4-3.3-1.5-1.4-1.7-1.1-4.2.6-5.5.4-.3.8-.5 1.3-.7l-1.1-5.7 5.6-11.8 3.9-2c.2-.7.7-1.4 1.3-1.9 1.1-.9 2.4-1 3.7-.6l10.9-5.5-25.3 3.5-9.1 14.7c1.4 2.2 1 5.2-1.1 6.9-.5.4-1.2.7-1.8.9l6.2 20.3 5.6 3.6c2.6-1.5 6-1 8 1.5 1.1 1.3 1.5 3 1.3 4.5l2.9 1.9 8.3-3.2c-.3-1.7.4-3.6 1.9-4.7 2.2-1.8 5.4-1.4 7.2.8.1.1.2.2.2.3l5.5-2.1 6.6-15.4-10.5 10.4-17 2.5z"/></defs><clipPath id="e"><use xlink:href="#d" overflow="visible"/></clipPath><g opacity=".1" clip-path="url(#e)" fill="#FFC661"><path d="M147.1 72.7c2.2 1.2 3 4 1.8 6.2s-4 3-6.2 1.8-3-4-1.8-6.2 3.9-3 6.2-1.8zm6 23.3c2.7 1.5 3.7 4.9 2.2 7.6-1.5 2.7-4.9 3.7-7.6 2.2s-3.7-4.9-2.2-7.6c1.5-2.8 4.9-3.7 7.6-2.2zm9.7 14.1c1 .5 1.4 1.8.8 2.8-.5 1-1.8 1.4-2.8.8-1-.5-1.3-1.8-.8-2.8.6-1 1.8-1.4 2.8-.8zm12.5-6.1c.6.4.9 1.1.5 1.8-.3.6-1.1.9-1.8.5-.6-.3-.9-1.2-.5-1.8.4-.6 1.2-.8 1.8-.5zm5.4 1.9c.9.5 1.2 1.6.7 2.4-.5.9-1.6 1.2-2.4.7-.9-.5-1.2-1.6-.7-2.4.4-.9 1.5-1.2 2.4-.7zm-25.3-44.4c1.7 1 2.4 3.1 1.4 4.9-1 1.7-3.1 2.4-4.8 1.4-1.7-1-2.4-3.1-1.4-4.8.9-1.9 3.1-2.5 4.8-1.5zm11.3 1c1.3.7 1.8 2.4 1.1 3.6s-2.3 1.8-3.6 1.1c-1.3-.7-1.8-2.3-1.1-3.6.7-1.4 2.3-1.8 3.6-1.1z"/><circle cx="145.3" cy="87.3" r="1"/><path d="M136.7 91c1.1.6 1.5 2 .9 3.1s-2 1.5-3.1.9-1.5-2-.9-3.1c.5-1.1 2-1.6 3.1-.9z"/></g></g><path clip-path="url(#b)" fill="#FFFFD8" stroke="#FFFDC7" stroke-width=".829" stroke-miterlimit="10" d="M129.7 94.3c.1-4.1-2.8-1.8-5.6-1.8-.1-6.5-.1-13 .5-19.5.3-3.9 1.8-7.6-2.9-8-3.9-.3-7.6-1.5-11.3-2.6-3.2-1-4.3-1.1-5.5.3.8.8 1.3 1.9 1.3 3.1 0 2.4-1.9 4.3-4.3 4.3-.4 0-.8-.1-1.2-.2-2 3.3-4.2 6.5-6.4 9.5-2.6 3.6-5.3 7.1-8.4 10.2-1.6 1.7-3.3 2.8-3.3 5.3s-1.5 12.1 1.7 13.2c3.9 1.4 9.9 0 13.9-.1 5.3-.1 4.7 1.4 3 6-.6 1.5 1.2 1.8 3.2 1.8 0-2.4 2-4.4 4.4-4.4 2.2 0 4 1.6 4.3 3.6 2.8-.1 5.5.1 8.4.3 4.7.4 2.3-2.9 3-6 .4-1.9 4.2-1 3.7-1 1 0 1.6-.4 1.7-1.4.1-4.2-.2-8.4-.2-12.6zm-26.2.4c-.6 0-7.2.4-7.2-.4 0-.7 8.3-13.2 8.3-13.3.2.3.4.6.6.8 0 1.5-1.8 12.9-1.7 12.9zm134.4 4.5c-.1-1.6-.1-3.3-.1-4.9.1-4.1-2.8-1.8-5.6-1.8-.1-3.1-.1-6.3 0-9.4-2.5-.7-4.4-3-4.4-5.8 0-3 2.2-5.5 5.1-5.9.5-3.3 1-6.1-3.1-6.4-3.9-.3-7.6-1.5-11.3-2.6-4.6-1.4-5-1.1-7.3 3.2-2.5 4.8-5.6 9.4-8.8 13.8-2.6 3.6-5.3 7.1-8.4 10.2-1.6 1.7-3.3 2.8-3.3 5.3 0 1.1-.3 3.4-.3 5.8 1-.5 2.1-.7 3.2-.7 4.2 0 7.5 3.4 7.5 7.5 0 .3 0 .6-.1.9 1.9-.2 3.7-.4 5.2-.4 5.3-.1 4.7 1.4 3 6-1.1 2.9 6.6 1.4 7.8 1.3 4.3-.4 8.3-.3 12.6.1 4.7.4 2.3-2.9 3-6 .1-.7.8-1.1 1.5-1.2-.3-.8-.4-1.6-.4-2.4 0-2.9 1.7-5.4 4.2-6.6zm-26.3-4.5c-.6 0-7.2.4-7.2-.4 0-.7 8.3-13.2 8.3-13.3.2.3.4.6.6.8 0 1.5-1.8 12.9-1.7 12.9z"/></svg>