<svg xmlns="http://www.w3.org/2000/svg" width="180.4" height="297.9" viewBox="0 0 180.4 297.9"><path opacity=".5" fill="#FFD8A4" d="M127.2 291.5h-74l-15-205h104"/><ellipse fill="#9F3025" cx="90.2" cy="68.8" rx="90.2" ry="29.3"/><ellipse fill="#D44F40" cx="90.2" cy="64.8" rx="90.2" ry="25.3"/><path fill="#598DA3" d="M142.1 51.9c0 2.4-.2 4.8-.5 7.1-15 3.6-32.6 5.7-51.4 5.7S53.9 62.6 38.8 59c-.3-2.3-.5-4.7-.5-7.1C38.3 23.3 61.5 0 90.2 0c28.6 0 51.9 23.2 51.9 51.9z"/><ellipse fill="#FFD8A4" cx="45.8" cy="70.7" rx="7.6" ry="5.1"/><ellipse fill="#FFD8A4" cx="89.8" cy="77.7" rx="7.6" ry="5.1"/><ellipse fill="#FFD8A4" cx="136.8" cy="70.7" rx="7.6" ry="5.1"/><path fill="#7DADC4" d="M90.2 0C61.6 0 38.3 23.2 38.3 51.9c0 1.7.1 3.4.2 5 2-20.5 15.9-37.6 34.8-44.1 1.4 4.9 8.4 8.7 16.9 8.7s15.5-3.7 16.9-8.7c18.9 6.5 32.8 23.5 34.8 44.1.2-1.6.2-3.3.2-5C142.1 23.2 118.8 0 90.2 0z"/><ellipse fill="#FFD8A4" cx="90.2" cy="292.1" rx="37" ry="5.8"/></svg>