<svg xmlns="http://www.w3.org/2000/svg" width="90" height="60" viewBox="0 0 90 60"><defs><style>.a{fill:none;stroke:#6a911f;stroke-linecap:round;stroke-linejoin:round;stroke-width:2px}</style></defs><title>icon-calculation</title><path class="a" d="M29 2h-7a2 2 0 0 0-2 2v22a2 2 0 0 0 2 2h22a2 2 0 0 0 2-2V4a2 2 0 0 0-2-2h-5M33 10v10M38 15H28"/><rect class="a" x="50" y="2" width="26" height="26" rx="2" ry="2"/><path class="a" d="M68 15H58"/><rect class="a" x="20" y="32" width="26" height="26" rx="2" ry="2"/><path class="a" d="M38 45H28"/><circle class="a" cx="33" cy="41" r="1"/><circle class="a" cx="33" cy="49" r="1"/><path class="a" d="M76 42v-8a2 2 0 0 0-2-2H52a2 2 0 0 0-2 2v22a2 2 0 0 0 2 2h22a2 2 0 0 0 2-2v-4M67 41l-8 8M67 49l-8-8M33 2h2M76 46v2"/></svg>