<svg xmlns="http://www.w3.org/2000/svg" width="90" height="60" viewBox="0 0 90 60"><defs><style>.a,.b{fill:none;stroke:#6a911f;stroke-linecap:round;stroke-linejoin:round;stroke-width:2px}.a{fill-rule:evenodd}</style></defs><title>icon-clients</title><path class="a" d="M43 14c0 6.08-2.92 14-9 14s-9-7.92-9-14 2.92-8 9-8 9 1.92 9 8zM52 47v-9c0-2.76-8.06-5-18-5s-18 2.24-18 5v15M68 16.82C68 21.24 65.73 27 61 27s-7-5.76-7-10.18S56.27 11 61 11s7 1.4 7 5.82zM52.27 32.41a38.05 38.05 0 0 1 9.23-1C69 31.39 75 33.08 75 35.16V48"/><path class="b" d="M52 53v-2"/></svg>