<svg xmlns="http://www.w3.org/2000/svg" width="72" height="100" viewBox="0 0 72 100"><defs><style>.a{fill:#678917}</style></defs><title>goal</title><path class="a" d="M64.79 39c-4.47-8.21-10.75-15.39-18-19.16v.15L23.94 20l.69-1.31c-3.89 1.42-8.94 2.44-11.92-.19l-1.35 1.51a9.22 9.22 0 0 0 6.39 2.1 19.69 19.69 0 0 0 4.19-.52C9 30.42-.08 49.92 0 64.69.1 84.31 16.32 100.11 36.17 100A35.76 35.76 0 0 0 72 64.32c-.06-7.91-2.73-17.16-7.21-25.32zM49 60.67a.83.83 0 0 1 .73.54 4 4 0 0 1 .27 1.7 4.3 4.3 0 0 1-.27 1.73.84.84 0 0 1-.73.56H32.11A5.94 5.94 0 0 0 31 66.7a3.92 3.92 0 0 0-.39 1.78 4.54 4.54 0 0 0 1.63 3.7 7 7 0 0 0 4.57 1.34 13.16 13.16 0 0 0 3.89-.5 17.76 17.76 0 0 0 2.89-1.11 21.4 21.4 0 0 0 2-1.12 2.51 2.51 0 0 1 1.2-.5.93.93 0 0 1 .89.73 9.37 9.37 0 0 1 .26 2.64q0 1.1-.06 1.74a3 3 0 0 1-.27 1.06 2.14 2.14 0 0 1-.62.72c-.28.2-.63.43-1.08.7a14 14 0 0 1-1.56.75 18.93 18.93 0 0 1-2.09.69 23.88 23.88 0 0 1-2.52.5 21.33 21.33 0 0 1-2.88.2 19.5 19.5 0 0 1-5.63-.8 13.63 13.63 0 0 1-4.6-2.38 11.27 11.27 0 0 1-3.12-3.93 12.49 12.49 0 0 1-1.15-5.48 11.13 11.13 0 0 1 .06-1.16 9.57 9.57 0 0 1 .18-1.07H21a.85.85 0 0 1-.73-.57A4.25 4.25 0 0 1 20 62.9a5.15 5.15 0 0 1 .2-1.7.73.73 0 0 1 .68-.54h4.18a13.73 13.73 0 0 1 2.8-2.23c1-.63 2.1-1.22 3.19-1.78H20.88a.69.69 0 0 1-.67-.52 5.1 5.1 0 0 1-.21-1.74 3.83 3.83 0 0 1 .29-1.74.81.81 0 0 1 .71-.49h17.22a4.72 4.72 0 0 0 .72-1.2 3.94 3.94 0 0 0 .25-1.44 4.22 4.22 0 0 0-.32-1.68 3.59 3.59 0 0 0-1-1.35 4.69 4.69 0 0 0-1.62-.9 7.55 7.55 0 0 0-2.25-.32 10.52 10.52 0 0 0-3 .43 17.64 17.64 0 0 0-2.45.93c-.71.34-1.3.65-1.79.92a2.57 2.57 0 0 1-1.06.42.85.85 0 0 1-.83-.77 11.14 11.14 0 0 1-.2-2.51v-1.35a4.28 4.28 0 0 1 .09-.87 2 2 0 0 1 .21-.58 2.8 2.8 0 0 1 .41-.5 5 5 0 0 1 1.24-.77 14.66 14.66 0 0 1 2.15-.82 17.75 17.75 0 0 1 2.6-.58 18.64 18.64 0 0 1 2.77-.22 18.37 18.37 0 0 1 5.11.7 12 12 0 0 1 4.18 2.13 10.12 10.12 0 0 1 2.82 3.57 11.55 11.55 0 0 1 1 5 8.63 8.63 0 0 1 0 .88c0 .29-.07.58-.11.86H49a.82.82 0 0 1 .73.49 4 4 0 0 1 .27 1.76 4 4 0 0 1-.27 1.75.84.84 0 0 1-.73.52h-3.84a11.92 11.92 0 0 1-2.4 2.25 26.81 26.81 0 0 1-2.84 1.76zM21.84.14L25.8 17c-2.86-3.16-9.88-9.86-16.26-7.53l.68 1.89c5.44-2 12.08 4.75 14.41 7.39l1.28-1.33 18.34-.09L49.42 0z"/></svg>