<svg xmlns="http://www.w3.org/2000/svg" width="100" height="100" viewBox="0 0 100 100"><defs><style>.a{fill:#1582c6}</style></defs><title>time</title><path class="a" d="M50 100a50 50 0 1 1 50-50 50 50 0 0 1-50 50zm0-98a48 48 0 1 0 48 48A48 48 0 0 0 50 2zm42 50a2 2 0 1 1 2-2 2 2 0 0 1-2 2zm-6.63 20.73a2 2 0 1 1 2.74-.73 2 2 0 0 1-2.74.73zm2-42a2 2 0 1 1 .74-2.73 2 2 0 0 1-.74 2.73zM70 15.36a2 2 0 1 1 2.73-.73 2 2 0 0 1-2.73.73zm0 69.28a2 2 0 1 1-.73 2.73 2 2 0 0 1 .73-2.73zM50 55a5 5 0 0 1-1-9.9V23h2v22.1a5 5 0 0 1 3.89 3.9H68v2H54.9a5 5 0 0 1-4.9 4zm0-8a3 3 0 1 0 3 3 3 3 0 0 0-3-3zm0-37a2 2 0 1 1 2-2 2 2 0 0 1-2 2zM28 88.1a2 2 0 1 1 2.73-.73 2 2 0 0 1-2.73.73zm2-72.75a2 2 0 1 1 .73-2.73 2 2 0 0 1-.73 2.74zM50 90a2 2 0 1 1-2 2 2 2 0 0 1 2-2zM14.63 72.73a2 2 0 1 1 .73-2.73 2 2 0 0 1-.73 2.73zm-2-42a2 2 0 1 1 2.73-.73 2 2 0 0 1-2.73.73zM8 52a2 2 0 1 1 2-2 2 2 0 0 1-2 2z"/></svg>