<svg xmlns="http://www.w3.org/2000/svg" width="157" height="100" viewBox="0 0 157 100"><defs><style>.a{fill:#678917}</style></defs><title>UM</title><path class="a" d="M153.32 100h-27.85a3.76 3.76 0 0 1-3.7-3.81V82.77c0-3.89 7.89-7 17.62-7s17.62 3.15 17.62 7V96.2a3.75 3.75 0 0 1-3.68 3.81zm-13.93-28.52A10.9 10.9 0 1 1 150 60.25v.33a10.74 10.74 0 0 1-10.57 10.89zM97.86 69H59.14A5.24 5.24 0 0 1 54 63.67V44.86c0-4.6 7.86-8.46 18.47-9.54L78.5 52l6-16.67c10.64 1.08 18.5 4.93 18.5 9.53v18.81A5.24 5.24 0 0 1 97.86 69zM78.49 29.52A14.76 14.76 0 1 1 93 14.49v.28a14.61 14.61 0 0 1-14.49 14.76zM31.53 100H3.68A3.75 3.75 0 0 1 0 96.2V82.77c0-3.89 7.88-7 17.61-7s17.62 3.15 17.62 7V96.2a3.75 3.75 0 0 1-3.69 3.8zM17.6 71.47a10.9 10.9 0 1 1 10.58-11.21v.32a10.74 10.74 0 0 1-10.57 10.9z"/></svg>