<svg xmlns="http://www.w3.org/2000/svg" width="19" height="25" viewBox="0 0 19 25"><path fill-rule="evenodd" clip-rule="evenodd" fill="#56A7D5" d="M17.5 25h-16C.7 25 0 24.4 0 23.5v-22C0 .6.7 0 1.5 0h16.1c.8 0 1.4.6 1.4 1.5v22.1c0 .8-.6 1.4-1.5 1.4zM18 2.3c0-.7-.5-1.3-1.2-1.3H2.3C1.6 1 1 1.6 1 2.3v20.5c0 .6.6 1.2 1.3 1.2h14.5c.7 0 1.2-.6 1.2-1.3V2.3zM13 19h3v3h-3v-3zm0-5h3v3h-3v-3zm0-5h3v3h-3V9zM3 3h13v3H3V3zm3 9H3V9h3v3zm0 5H3v-3h3v3zm0 5H3v-3h3v3zm5-10H8V9h3v3zm0 5H8v-3h3v3zm0 5H8v-3h3v3z"/></svg>