<svg xmlns="http://www.w3.org/2000/svg" width="17" height="18" viewBox="0 0 17 18"><path fill="#86B52B" d="M11.8 16.1c-1.3.7-2.7 1-4.4 1-4-.1-7.4-3-7.4-7.7C0 4.4 3.5 0 8.9 0 13.2 0 16 3 16 7.1c0 3.7-2.1 5.8-4.4 5.8-1 0-1.9-.7-1.8-2.1-.9 1.4-2 2.1-3.5 2.1-1.4 0-2.6-1.1-2.6-3.1 0-3 2.4-5.8 5.8-5.8 1.1 0 2 .2 2.6.5L11.3 9c-.4 1.9-.1 2.7.7 2.7 1.2 0 2.6-1.6 2.6-4.5 0-3.5-2.1-6.1-5.9-6.1-4 0-7.3 3.1-7.3 8.1 0 4.1 2.7 6.6 6.3 6.6 1.4 0 2.7-.3 3.7-.9l.4 1.2zM10.4 5.5c-.2-.1-.7-.2-1.2-.2-2.2 0-3.9 2-3.9 4.4 0 1.1.5 1.9 1.6 1.9 1.4 0 2.7-1.8 3-3.3l.5-2.8z"/></svg>