<svg xmlns="http://www.w3.org/2000/svg" xmlns:xlink="http://www.w3.org/1999/xlink" width="72" height="56" viewBox="0 0 72 56"><path fill-rule="evenodd" clip-rule="evenodd" fill="#FFF" d="M.5.5h71v46H.5z"/><path fill="#D0D0D0" d="M71 1v45H1V1h70m1-1H0v47h72V0z"/><path fill-rule="evenodd" clip-rule="evenodd" fill="#999" d="M1 0h71v1H1zm71 39H1v8h31c.4 0 1 .6 1 1v5c0 .4-.6 1-1 1h-7.6c-.7 0-1.2.3-1.2 1s.5 1 1.2 1h23.8c.7 0 1.2-.3 1.2-1s-.5-1-1.2-1H41c-.4 0-1-.6-1-1v-5c0-.4.6-1 1-1h31v-8z"/><path fill-rule="evenodd" clip-rule="evenodd" fill="#8EE6F4" d="M39 43.5c0 1.4-1.1 2.5-2.5 2.5S34 44.9 34 43.5s1.1-2.5 2.5-2.5 2.5 1.1 2.5 2.5"/><path fill-rule="evenodd" clip-rule="evenodd" fill="#999" d="M38 43.5c0 .8-.7 1.5-1.5 1.5s-1.5-.7-1.5-1.5.7-1.5 1.5-1.5 1.5.7 1.5 1.5"/><path fill-rule="evenodd" clip-rule="evenodd" fill="#B3CC57" d="M25 26h3v4h-3zm7-3h3v7h-3zm7-3h3v10h-3zm7-4h3v14h-3zm7-5h3v19h-3z"/><path fill-rule="evenodd" clip-rule="evenodd" fill="#D0D0D0" d="M19 31h42v1H19z"/><g opacity=".1"><defs><path id="a" d="M1 1h9v38H1z"/></defs><clipPath id="b"><use xlink:href="#a" overflow="visible"/></clipPath><path clip-path="url(#b)" fill-rule="evenodd" clip-rule="evenodd" d="M1 1h9v38H1z"/></g><path fill-rule="evenodd" clip-rule="evenodd" fill="#FFF" d="M7 3.5C7 4.3 6.3 5 5.5 5S4 4.3 4 3.5 4.7 2 5.5 2 7 2.7 7 3.5m1 4C8 8.3 6.9 9 5.5 9S3 8.3 3 7.5 4.1 6 5.5 6 8 6.7 8 7.5"/><path fill-rule="evenodd" clip-rule="evenodd" fill="#FFF" d="M3 8h5v1H3zm0 3h5v1H3zm0 2h5v1H3z"/><path fill-rule="evenodd" clip-rule="evenodd" fill="#D0D0D0" d="M59 30h1v3h-1zM21 8h1v26h-1z"/><path fill-rule="evenodd" clip-rule="evenodd" fill="#D0D0D0" d="M20 9h3v1h-3z"/><path fill-rule="evenodd" clip-rule="evenodd" fill="#FFF" d="M0 0h72v47" opacity=".4"/></svg>