<svg xmlns="http://www.w3.org/2000/svg" xmlns:xlink="http://www.w3.org/1999/xlink" width="52" height="60" viewBox="0 0 52 60"><path fill-rule="evenodd" clip-rule="evenodd" fill="#FFF" d="M1.5 58.5V.5H43c.2 0 .5.4.5.5v9c0 .1-.4.5-.5.5h-2.5v48h-39z"/><path fill="#D0D0D0" d="M42.9 1l.1.1v8.8l-.1.1H40v48H2V1h40.9m.1-1H1v59h40V11h2c.4 0 1-.6 1-1V1c0-.4-.6-1-1-1z"/><path fill-rule="evenodd" clip-rule="evenodd" fill="#B3CC57" d="M13 14h18v4H13z"/><g opacity=".9"><defs><path id="a" d="M1.1 55h39.4v4H1.1z"/></defs><clipPath id="b"><use xlink:href="#a" overflow="visible"/></clipPath><path clip-path="url(#b)" fill-rule="evenodd" clip-rule="evenodd" fill="#B3CC57" d="M1 55h40v4H1z"/></g><path fill-rule="evenodd" clip-rule="evenodd" fill="#B3CC57" d="M8 23h27v1H8zm0 2h27v1H8z"/><path fill-rule="evenodd" clip-rule="evenodd" d="M7 17.5C7 18.9 5.9 20 4.5 20S2 18.9 2 17.5 3.1 15 4.5 15 7 16.1 7 17.5" opacity=".05"/><path fill="#B3CC57" d="M26 34c1.1 0 2 .9 2 2s-.9 2-2 2c-.3 0-.6-.1-.9-.2-.1-.8-.5-1.5-1.1-2 .1-1 1-1.8 2-1.8m-2 4c0 1.1-.9 2-2 2s-2-.9-2-2 .9-2 2-2 2 .9 2 2m-5.9-4c1 0 1.8.6 1.9 1.6-.9.4-1.5 1.3-1.5 2.4H18c-1.1 0-2-.9-2-2s.9-2 2.1-2M13 42.3c0-1.8 1.9-3.3 4.3-3.3h.6c.1.7.4 1.3 1.1 1.8-1.4.6-2.2 1.9-2.5 3.1-1.9.2-3.5 0-3.5-1.6m9.1 3.6c-2.3 0-4.1 0-4.1-1.4 0-1.9 1.8-3.5 4.1-3.5s4.1 1.6 4.1 3.5c0 1.4-1.9 1.4-4.1 1.4m5.3-1.9c-.3-1.2-1.1-2.6-2.4-3.2.5-.4.9-1 1-1.7.3-.1.7-.1 1.1-.1 2.2 0 3.9 1.5 3.9 3.3 0 1.7-1.6 1.7-3.6 1.7"/><path fill-rule="evenodd" clip-rule="evenodd" fill="#56B7C1" d="M5.5 17.5c0 .8-.7 1.5-1.5 1.5H1.5C.7 19 0 18.3 0 17.5S.7 16 1.5 16H4c.8 0 1.5.7 1.5 1.5z"/><path fill-rule="evenodd" clip-rule="evenodd" d="M7 29.5C7 30.9 5.9 32 4.5 32S2 30.9 2 29.5 3.1 27 4.5 27 7 28.1 7 29.5" opacity=".05"/><path fill-rule="evenodd" clip-rule="evenodd" fill="#56B7C1" d="M5.5 29.5c0 .8-.7 1.5-1.5 1.5H1.5C.7 31 0 30.3 0 29.5S.7 28 1.5 28H4c.8 0 1.5.7 1.5 1.5z"/><path fill-rule="evenodd" clip-rule="evenodd" d="M7 41.5C7 42.9 5.9 44 4.5 44S2 42.9 2 41.5 3.1 39 4.5 39 7 40.1 7 41.5" opacity=".05"/><path fill-rule="evenodd" clip-rule="evenodd" fill="#56B7C1" d="M5.5 41.5c0 .8-.7 1.5-1.5 1.5H1.5C.7 43 0 42.3 0 41.5S.7 40 1.5 40H4c.8 0 1.5.7 1.5 1.5z"/><path fill-rule="evenodd" clip-rule="evenodd" fill="#B3CC57" d="M43.1 21.3L41 22V12l2.1.7c.5.2.9.8.9 1.3v6c0 .6-.4 1.1-.9 1.3zm0 11L41 33V23l2.1.7c.5.2.9.8.9 1.3v6c0 .6-.4 1.1-.9 1.3zm0 11L41 44V34l2.1.7c.5.2.9.8.9 1.3v6c0 .6-.4 1.1-.9 1.3zm0 11L41 55V45l2.1.7c.5.2.9.8.9 1.3v6c0 .6-.4 1.1-.9 1.3z"/></svg>