<svg xmlns="http://www.w3.org/2000/svg" xmlns:xlink="http://www.w3.org/1999/xlink" width="52" height="60" viewBox="0 0 52 60"><path fill-rule="evenodd" clip-rule="evenodd" fill="#FFF" d="M0 0h35.9L45 8.9V60H0"/><path fill-rule="evenodd" clip-rule="evenodd" fill="#FFF" d="M.5 59.5V.5h35.2l8.8 8.6v50.4"/><path fill="#D0D0D0" d="M35.5 1L44 9.3V59H1V1h34.5m.4-1H0v60h45V8.9l-.3-.3L36.2.3l-.3-.3z"/><path fill-rule="evenodd" clip-rule="evenodd" fill="#D0D0D0" d="M45 9h-9V0"/><path fill-rule="evenodd" clip-rule="evenodd" fill="#FFF" d="M0 0h35.8L45 8.8v51.3" opacity=".4"/><path fill-rule="evenodd" clip-rule="evenodd" fill="#B3CC57" d="M16 15h22v-1H16v1zm0 2h22v-1H16v1zm0 2h12v-1H16v1z"/><path fill-rule="evenodd" clip-rule="evenodd" fill="#51BAD7" d="M14 16c0 2.2-1.8 4-4 4s-4-1.8-4-4 1.8-4 4-4 4 1.8 4 4"/><path fill-rule="evenodd" clip-rule="evenodd" fill="#FFF" d="M12 16c0 1.1-.9 2-2 2s-2-.9-2-2 .9-2 2-2 2 .9 2 2"/><path fill-rule="evenodd" clip-rule="evenodd" fill="#51BAD7" d="M14 27c0 2.2-1.8 4-4 4s-4-1.8-4-4 1.8-4 4-4 4 1.8 4 4"/><path fill-rule="evenodd" clip-rule="evenodd" fill="#FFF" d="M12 27c0 1.1-.9 2-2 2s-2-.9-2-2 .9-2 2-2 2 .9 2 2"/><path fill-rule="evenodd" clip-rule="evenodd" fill="#51BAD7" d="M14 38c0 2.2-1.8 4-4 4s-4-1.8-4-4 1.8-4 4-4 4 1.8 4 4"/><path fill-rule="evenodd" clip-rule="evenodd" fill="#FFF" d="M12 38c0 1.1-.9 2-2 2s-2-.9-2-2 .9-2 2-2 2 .9 2 2"/><path fill-rule="evenodd" clip-rule="evenodd" fill="#B3CC57" d="M16 26h22v-1H16v1zm0 2h19v-1H16v1zm0 9h22v-1H16v1zm0 2h15v-1H16v1z"/><path fill="#606060" d="M32.5 48.4c-1 .7-2 1.8-3.3 1.1-.6-.3-1.7 1.5-2 0 0-.1-.1-.1-.2 0-.2.6-.7.8-1.3.6-.2-.4-.2-1.1-.2-1.4 0-.1-.1-.1-.1-.1-.1-.4-.2-.8-.2-1-.8-2.3-3.2 1.1-2 1.8.2.1.4.1.6.1.2.9.6 1.8 1.1 1.6.5-.1.6-.7.6-1.4.2.8.4 1.3 1.3.4.6-.6.1-.1.6.2.4.2.8-.2 1.1-.4.4-.3 1.2.1 1.7.1.8-.1 1.8-1 2.4-1.5.1 0 0-.2-.1-.1m-9.1-.6c0 .3.1.9.3 1.5-.8.1-.6-.8-.3-1.5m.6 1.4c-.1-.5-.3-1-.4-1.5 0 0 0-.1-.1-.1.1-.1.2-.3.2-.3 1-1.2 1.4.7 1.4 1.4-.3.2-.7.4-1.1.5m1.1 1.2l-.9-.3c-.1-.2-.1-.4-.2-.7.1 0 .2-.1.3-.1.3-.1.7-.5 1-.4 0 .5-.1 1-.2 1.5"/><path fill-rule="evenodd" clip-rule="evenodd" d="M51.1 34.6c-.1-.1-.3-.1-.4 0l-.2.2-.4-.4.4-.4.2-.2-.4-.4c.1 0 .2-.1.2-.1l1.3-1.3c.2-.2.2-.5 0-.8l-.8-.8-.9-.9c-.2-.2-.5-.2-.8 0L48 30.8v.3l-.4-.4-.2.2-1.2 1.1-11.6 11.6-.6.6-1.6 4.4-.6.9.1.1.9-.6 4.4-1.6.6-.6 11.6-11.6.4-.4.4.4-4.3 4.3c-.1.1-.1.3 0 .4.1.1.3.1.4 0l4.3-4.3.4-.4.2-.2c0-.1 0-.3-.1-.4" opacity=".1"/><path fill-rule="evenodd" clip-rule="evenodd" fill="#47A8AD" d="M32.8 48.2l-.4-.4 1.6-4.4 3.2 3.2"/><path fill-rule="evenodd" clip-rule="evenodd" fill="#27686B" d="M31.9 48.8l-.1-.1.6-.9.4.4"/><path fill-rule="evenodd" clip-rule="evenodd" fill="#56B7C1" d="M47.512 29.89l3.183 3.18-13.502 13.51-3.183-3.18z"/><path fill-rule="evenodd" clip-rule="evenodd" fill="#27686B" d="M34.566 42.8l3.182 3.182-.566.566L34 43.366zm12.792-12.76l3.182 3.183-1.13 1.132-3.183-3.183zm2.816 3.566l.78.777-.355.354-.78-.777z"/><path fill-rule="evenodd" clip-rule="evenodd" fill="#27686B" d="M45.8 39.1c-.1-.1-.1-.3 0-.4l4.9-4.9c.1-.1.3-.1.4 0s.1.3 0 .4l-4.9 4.9c-.1.1-.3.1-.4 0"/><path fill-rule="evenodd" clip-rule="evenodd" fill="#47A8AD" d="M51.8 31.2c.2-.2.2-.5 0-.8l-1.7-1.7c-.2-.2-.5-.2-.8 0L48 30c-.2.2-.2.5 0 .8l1.7 1.7c.2.2.5.2.8 0l1.3-1.3z"/><g opacity=".3"><defs><path id="a" d="M33 44h3v4h-3z"/></defs><clipPath id="b"><use xlink:href="#a" overflow="visible"/></clipPath><path clip-path="url(#b)" fill-rule="evenodd" clip-rule="evenodd" fill="#FFF" d="M34.8 44.2l.9.9-3 3"/></g><path fill-rule="evenodd" clip-rule="evenodd" fill="#FFF" d="M48.08 30.41l.918.92-13.51 13.5-.918-.92z" opacity=".3"/><path fill-rule="evenodd" clip-rule="evenodd" fill="#FFF" d="M50.17 28.717l.92.92-1.91 1.908-.92-.92z" opacity=".3"/></svg>