<svg xmlns="http://www.w3.org/2000/svg" width="20" height="32" viewBox="0 0 20 32"><path fill-rule="evenodd" clip-rule="evenodd" fill="#FFF" d="M19.5 19.4c.7-.7.7-1.5.1-2.4-.5-.7-1.3-1.1-2.2-.8-.5.1-.9.3-1.2.6-3.7 2.4-8.8 2.3-12.5-.1l-.6-.3c-1-.5-2-.2-2.6.6-.7 1-.6 1.9.3 2.7.2.1.4.3.7.5 2 1.5 4.3 2.1 6.9 2.4L8 23c-1.9 1.8-3.8 3.6-5.7 5.5-.4.4-.7.8-.7 1.3 0 .8.5 1.6 1.3 2 .8.4 1.6.2 2.2-.4 1.5-1.4 3-2.8 4.4-4.3.4-.4.6-.4 1 0 1.4 1.4 2.9 2.8 4.3 4.2.4.4.8.6 1.3.7.9.1 1.7-.5 2.1-1.3.4-.7.2-1.5-.4-2.2-1.8-1.8-3.8-3.7-5.7-5.5-.1-.1-.2-.2-.4-.5 1.4-.2 2.8-.4 4.1-.9 1.4-.5 2.6-1.2 3.7-2.2zm-9.6-3.2c4.7 0 8.5-3.6 8.5-8C18.4 3.7 14.7 0 10 0 5.4 0 1.6 3.6 1.6 8.1c0 4.4 3.7 8.1 8.3 8.1zM10 4.1c2.3 0 4.1 1.8 4.1 4s-1.8 4-4.1 4-4.1-1.7-4.1-3.9c0-2.3 1.8-4.1 4.1-4.1z"/></svg>