<svg xmlns="http://www.w3.org/2000/svg" width="19" height="19" viewBox="0 0 19 19"><path fill="none" stroke="#88B626" stroke-miterlimit="10" d="M16.5 9.5c0-.7.4-1.3 1.1-1.6.3-.1.5-.4.4-.7-.2-.7-.5-1.4-.8-2-.2-.3-.5-.4-.8-.3-.7.3-1.4.1-1.9-.4s-.6-1.3-.4-1.9c.1-.3 0-.6-.3-.8-.6-.4-1.3-.6-2-.8-.3-.1-.6.1-.7.4-.3.6-.9 1.1-1.6 1.1S8.2 2 7.9 1.4c-.1-.3-.4-.5-.7-.4-.7.2-1.4.5-2 .8-.3.2-.4.5-.3.8.3.7.1 1.4-.4 1.9s-1.2.7-1.9.4c-.3-.1-.6 0-.8.3-.3.6-.6 1.3-.8 2-.1.3.1.6.4.7.6.3 1.1.9 1.1 1.6s-.5 1.3-1.1 1.6c-.3.1-.5.4-.4.7.2.7.5 1.4.8 2 .2.3.5.4.8.3.7-.3 1.4-.1 1.9.4s.7 1.2.4 1.9c-.1.3 0 .6.3.8.6.4 1.3.6 2 .8.3.1.6-.1.7-.4.3-.6.9-1.1 1.6-1.1s1.3.4 1.6 1.1c.1.3.4.5.7.4.7-.2 1.4-.5 2-.8.3-.2.4-.5.3-.8-.3-.6-.1-1.4.4-1.9s1.3-.6 1.9-.4c.3.1.6 0 .8-.3.4-.6.6-1.3.8-2 .1-.3-.1-.6-.4-.7-.6-.3-1.1-.9-1.1-1.6zm-7 2.8c-1.6 0-2.8-1.3-2.8-2.8 0-1.6 1.3-2.8 2.8-2.8 1.6 0 2.8 1.3 2.8 2.8 0 1.6-1.2 2.8-2.8 2.8z"/></svg>