<svg xmlns="http://www.w3.org/2000/svg" width="125" height="125" viewBox="0 0 250 250"><path d="M165 53H94v-2h1.5c1.375 0 2.5-1.125 2.5-2.5S96.875 46 95.5 46h-10c-1.375 0-2.5 1.125-2.5 2.5s1.125 2.5 2.5 2.5H87v2h-2c-13.75 0-25 11.145-25 24.895v80C60 171.645 71.25 183 85 183h23.948l-18.382 18.33a3.967 3.967 0 0 0 0 5.629c.781.782 1.805 1.16 2.829 1.16s2.047-.345 2.829-1.127L120.261 183h9.479l24.038 23.985c.781.782 1.805 1.146 2.829 1.146a3.992 3.992 0 0 0 2.828-1.187 3.94 3.94 0 0 0 0-5.608L141.053 183H165c13.75 0 25-11.355 25-25.105v-80C190 64.145 178.75 53 165 53zm-4.279 67.22c-1.126 17.814-15.581 32.27-33.396 33.396-21.602 1.365-39.411-16.443-38.045-38.045 1.125-17.814 15.581-32.27 33.395-33.395 21.601-1.366 39.41 16.442 38.046 38.044zM174 73a4 4 0 0 1-4 4h-16a4 4 0 0 1-4-4v-3a4 4 0 0 1 4-4h16a4 4 0 0 1 4 4v3zm-49 13.101c-17.531 0-31.794 14.263-31.794 31.794 0 17.532 14.263 31.794 31.794 31.794s31.794-14.263 31.794-31.794S142.531 86.101 125 86.101zm0 57.588c-14.223 0-25.794-11.571-25.794-25.794S110.777 92.101 125 92.101s25.794 11.571 25.794 25.794-11.571 25.794-25.794 25.794zm0-48.182a2 2 0 0 0 0 4c10.139 0 18.388 8.249 18.388 18.388a2 2 0 0 0 4 0c0-12.345-10.043-22.388-22.388-22.388z" opacity=".15"/><path d="M165 51H94v-2h1.5c1.375 0 2.5-1.125 2.5-2.5S96.875 44 95.5 44h-10c-1.375 0-2.5 1.125-2.5 2.5s1.125 2.5 2.5 2.5H87v2h-2c-13.75 0-25 11.145-25 24.895v80C60 169.645 71.25 181 85 181h23.948l-18.382 18.33a3.967 3.967 0 0 0 0 5.629c.781.782 1.805 1.16 2.829 1.16s2.047-.345 2.829-1.127L120.261 181h9.479l24.038 23.985c.781.782 1.805 1.146 2.829 1.146a3.992 3.992 0 0 0 2.828-1.187 3.94 3.94 0 0 0 0-5.608L141.053 181H165c13.75 0 25-11.355 25-25.105v-80C190 62.145 178.75 51 165 51zm-4.279 67.22c-1.126 17.814-15.581 32.27-33.396 33.396-21.602 1.365-39.411-16.443-38.045-38.045 1.125-17.814 15.581-32.27 33.395-33.395 21.601-1.366 39.41 16.442 38.046 38.044zM174 71a4 4 0 0 1-4 4h-16a4 4 0 0 1-4-4v-3a4 4 0 0 1 4-4h16a4 4 0 0 1 4 4v3zm-49 13.101c-17.531 0-31.794 14.263-31.794 31.794 0 17.532 14.263 31.794 31.794 31.794s31.794-14.263 31.794-31.794S142.531 84.101 125 84.101zm0 57.588c-14.223 0-25.794-11.571-25.794-25.794S110.777 90.101 125 90.101s25.794 11.571 25.794 25.794-11.571 25.794-25.794 25.794zm0-48.182a2 2 0 0 0 0 4c10.139 0 18.388 8.249 18.388 18.388a2 2 0 0 0 4 0c0-12.345-10.043-22.388-22.388-22.388z" fill="#fff"/></svg>