<svg height="55" width="50" xmlns="http://www.w3.org/2000/svg" viewBox="0 0 50 55"><path fill="#fff" fill-rule="evenodd" d="M43.61 20.5c0 5.72-4.66 10.35-10.39 10.35S22.84 26.22 22.84 20.5c0-5.71 4.65-10.34 10.38-10.34s10.39 4.63 10.39 10.34zM16.95 0c4.99 0 8.99 3.24 9.99 7.92-4.54 2.26-7.68 6.87-7.82 12.22-.75.18-1.53.28-2.34.28-5.74 0-10.38-4.64-10.38-10.35C6.4 4.35 11.21 0 16.95 0zM.01 37.91c0-9.23 7.51-16.72 16.77-16.72.81 0 1.59.06 2.37.17.21 3.55 1.74 6.76 4.12 9.11-5.32 2.97-8.48 9.72-9.54 15.92-7.45.33-13.72-.54-13.72-8.48zm33.1 17.02c-9.26 0-16.65.06-16.65-6.59 0-9.23 7.51-16.71 16.76-16.71 9.26 0 16.77 7.48 16.77 16.71 0 6.65-7.62 6.59-16.88 6.59z"/></svg>