<svg id="Layer_1" xmlns="http://www.w3.org/2000/svg" viewBox="0 0 100 100"><style>.st0{opacity:.15}.st1{fill:#fff}</style><title>birthCertificate</title><g class="st0"><circle cx="49.1" cy="57.5" r="4.7"/><path d="M69 21H30c-1.1 0-2 .9-2 2v56c0 1.1.9 2 2 2h39c1.1 0 2-.9 2-2V23c0-1.1-.9-2-2-2zm-7.9 30.4h-6c3.4 3.3 3.4 8.7.1 12-3.3 3.4-8.7 3.4-12 .1s-3.4-8.7-.1-12l.1-.1h-6c-1.2 0-2.1-.9-2.1-2.1 0-1.2.9-2.1 2.1-2.1h6.6c1.5-.1 2.6-1.3 2.6-2.8 0-.7-.3-1.4-.9-1.9-1.9-2-1.8-5.2.2-7.1 2-1.9 5.2-1.8 7.1.2 1.8 1.9 1.8 4.9 0 6.8-1.1 1-1.2 2.7-.2 3.8.5.5 1.2.9 1.9.9h6.6c1 .5 1.3 2.1.7 3.1-.1.5-.5.8-.7 1.2z"/></g><circle class="st1" cx="49.1" cy="55.5" r="4.7"/><path class="st1" d="M69 19H30c-1.1 0-2 .9-2 2v56c0 1.1.9 2 2 2h39c1.1 0 2-.9 2-2V21c0-1.1-.9-2-2-2zm-7.9 30.4h-6c3.4 3.3 3.4 8.7.1 12-3.3 3.4-8.7 3.4-12 .1s-3.4-8.7-.1-12l.1-.1h-6c-1.2 0-2.1-.9-2.1-2.1 0-1.2.9-2.1 2.1-2.1h6.6c1.5-.1 2.6-1.3 2.6-2.8 0-.7-.3-1.4-.9-1.9-1.9-2-1.8-5.2.2-7.1 2-1.9 5.2-1.8 7.1.2 1.8 1.9 1.8 4.9 0 6.8-1.1 1-1.2 2.7-.2 3.8.5.5 1.2.9 1.9.9h6.6c1.2 0 2.1.9 2.1 2.1s-.9 2.2-2.1 2.2z"/></svg>