<svg xmlns="http://www.w3.org/2000/svg" width="50" height="50" viewBox="0 0 50 50"><path fill-rule="evenodd" clip-rule="evenodd" d="M41 47H11a3 3 0 0 1-3-3V13a3 3 0 0 1 3-3h2v5a1 1 0 0 0 1 1h2a1 1 0 0 0 1-1v-5h18v5a1 1 0 0 0 1 1h2a1 1 0 0 0 1-1v-5h2a3 3 0 0 1 3 3v31c0 1.656-1.344 3-3 3zm1-25.205C42 20.251 40.76 19 39.23 19H12.77C11.24 19 10 20.251 10 21.795v20.409C10 43.748 11.239 45 12.77 45h26.46c1.53 0 2.77-1.252 2.77-2.796V21.795zM32 43h-2v-5h-8v5h-2v-5h-6v-2h6v-7h-6v-2h6v-6h2v6h8v-6h2v6h6v2h-6v7h6v2h-6v5zm-2-14h-8v7h8v-7zm6-21h2v6h-2V8zM14 8h2v6h-2V8z" opacity=".15"/><path fill-rule="evenodd" clip-rule="evenodd" fill="#fff" d="M41 45H11a3 3 0 0 1-3-3V11a3 3 0 0 1 3-3h2v5a1 1 0 0 0 1 1h2a1 1 0 0 0 1-1V8h18v5a1 1 0 0 0 1 1h2a1 1 0 0 0 1-1V8h2a3 3 0 0 1 3 3v31c0 1.656-1.344 3-3 3zm1-25.205C42 18.251 40.76 17 39.23 17H12.77C11.24 17 10 18.251 10 19.795v20.409C10 41.748 11.239 43 12.77 43h26.46c1.53 0 2.77-1.252 2.77-2.796V19.795zM32 41h-2v-5h-8v5h-2v-5h-6v-2h6v-7h-6v-2h6v-6h2v6h8v-6h2v6h6v2h-6v7h6v2h-6v5zm-2-14h-8v7h8v-7zm6-21h2v6h-2V6zM14 6h2v6h-2V6z"/></svg>