<svg id="Layer_1" xmlns="http://www.w3.org/2000/svg" viewBox="0 0 20 17"><style>.st0{fill:#6a911f}</style><path id="icon-calendar" class="st0" d="M18 17H2c-1.1 0-2-.9-2-2V3c0-1.1.9-2 2-2h1v2c0 .6.4 1 1 1h1c.6 0 1-.4 1-1V1h8v2c0 .6.4 1 1 1h1c.6 0 1-.4 1-1V1h1c1.1 0 2 .9 2 2v12c0 1.1-.9 2-2 2zm1-11c0-.6-.4-1-1-1H2c-.6 0-1 .4-1 1v9c0 .6.4 1 1 1h16c.6 0 1-.4 1-1V6zm-6 8h-1v-3H8v3H7v-3H3v-1h4V7h1v3h4V7h1v3h4v1h-4v3zm2.5-11c-.3 0-.5-.2-.5-.5v-2c0-.3.2-.5.5-.5s.5.2.5.5v2c0 .3-.2.5-.5.5zm-11 0c-.3 0-.5-.2-.5-.5v-2c0-.3.2-.5.5-.5s.5.2.5.5v2c0 .3-.2.5-.5.5z"/></svg>