<svg xmlns="http://www.w3.org/2000/svg" width="50" height="50" viewBox="0 0 50 50"><path fill="#CBCBCB" d="M38.916 37.36c-.724.135-.81.137-.836.837-.019.521-.122 1.304.417 1.613.376.216.865.181 1.281.165.762-.029 1.538.053 2.295-.033.834-.094.952-.718.905-1.438-.053-.827-.011-1.665-.011-2.493-.96.527-2.64 1.087-4.051 1.349zm-28.649 2.619c1.119.032 3.639.538 3.733-1.071.021-.367.188-1.269-.233-1.362-.434-.096-.865-.2-1.294-.313-1.162-.303-2.417-.617-3.455-1.244-.001.532-.691 3.936 1.249 3.99zm2.952-2.52l.244.043-.244-.043zM42.801 20.19c.579-.061 1.229-.085 1.708-.461.514-.403.726-1.279.115-1.704l.233.16-.424-.289c.325.232-.554-.215-.728-.252a4.142 4.142 0 0 0-1.262-.058c-.359.035-.762.082-1.083.262-.514.289-.299.762-.51 1.205-.076-.709-.639-1.625-.955-2.253a23.72 23.72 0 0 0-1.794-3.009c-1.429-2.025-3.095-2.452-5.486-2.612-2.588-.173-12.843-.338-15.281.048-2.267.358-3.447 2.126-4.397 4.047-.502 1.014-.854 2.083-1.323 3.108-.025.055-.316.789-.395.736-.286-.192-.131-.679-.264-.953-.6-1.211-4.444-.792-3.906.953.301.977 1.481 1.012 2.319 1.094.344.034.731.049 1.06.167a.578.578 0 0 1 .281.187l.083.186c.038.461-.326 1.322-.527 1.73-.29.586-.703 1.102-1.048 1.654-.811 1.296-.95 2.849-.922 4.346.025 1.335.053 2.698.146 4.029.037.535.004 1.142.131 1.664.159.655.979.953 1.521 1.216 2.818 1.362 5.901 1.61 8.964 1.61h16.394c.953 0 1.834-.242 2.764-.449 1.559-.352 5.257-.789 5.44-2.838.202-2.255.267-4.667-.023-6.913-.154-1.194-.452-2.336-1.094-3.366-.439-.707-1.421-1.769-1.352-2.67 0-.546 1.166-.529 1.615-.575zM10.365 32.424c.043.314-1.359-.264-1.366-.785-.02-.945 1.385.151 1.366.785.063.461.009-.298 0 0zm6.954-2.672c-1.202 1.043-3.71-.047-5.033-.384-.862-.221-2.08-.563-2.436-1.486-.281-.729.003-1.629.315-2.304.259-.56.804-1.513 1.565-1.308.896.24 1.788.783 2.588 1.233 1.32.745 4.511 2.218 3.001 4.249-.063.055.495-.666 0 0zm14.688 6.23H20.062l-.067-2.955 11.908-.064c-.001 0 .104 2.622.104 3.019zM18.254 21.681c-.943-.05-1.887-.108-2.829-.174-.856-.064-1.9-.34-2.75-.22.195 0 .237-1.876.217-1.717.24-1.922.682-4.02 2.175-5.383 1.803-1.649 4.678-1.218 6.92-1.185h8.006c2.115.032 5.277-.633 6.851 1.154 1.397 1.57 1.993 3.687 2.458 5.688l.263 1.041c.114.515-.373.385-.76.424-1.379.138-2.76.26-4.144.348-5.462.348-10.944.321-16.407.024-.943-.05 5.203.283 0 0zm25.002 10.155c0 .344-1.583 1.322-1.374.254.084-.432.654-.607.985-.805.435-.251.389.283.389.551zm-1.735-6.631zm-.06-.081c-.044-.064.753 1.514.739 2.159-.02.974-.81 1.504-1.64 1.813-.946.353-1.972.537-2.955.753-.727.159-1.683.512-2.436.297-.962-.275-1.063-1.47-.73-2.259.389-.927 1.414-1.4 2.235-1.871 1.134-.65 3.616-2.592 4.787-.892z"/></svg>