<svg xmlns="http://www.w3.org/2000/svg" width="50" height="50" viewBox="0 0 50 50"><path fill-rule="evenodd" clip-rule="evenodd" fill="#CBCBCB" d="M37.941 34.888c-.586 0-1.061-.451-1.061-1.008 0-1.271-.408-1.924-.877-2.881v12.999c0 .632-.178 1.001-.842 1.001s-1.158-.369-1.158-1.001v-6.999h-1v6.999c0 .632-.502 1.001-1.166 1.001-.663 0-.834-.369-.834-1.001V30.999c-.516 1.008-.885 1.637-.884 2.757v.124c0 .557-.475 1.008-1.06 1.008s-1.06-.451-1.06-1.008v-.123c-.001-1.57-.002-3.722 1.661-5.473l.043-.043c1.005-.94 2.352-1.458 3.795-1.458s2.791.518 3.796 1.458l.043.043C39 30.033 39 32.348 39 33.88c0 .557-.475 1.008-1.059 1.008zm-4.424-8.897c-1.38 0-2.499-1.118-2.499-2.496s1.119-2.496 2.499-2.496 2.5 1.117 2.5 2.496a2.5 2.5 0 0 1-2.5 2.496zm-6.252 2.357c-.957 0-1.732-.744-1.732-1.661 0-2.094.24-4.11-.527-5.686v21.998c0 1.04-1.201 2.002-2.287 2.002-1.086 0-1.713-.962-1.713-2.002v-11h-2v10.999c0 1.04-.639 2.002-1.725 2.002s-2.275-.962-2.275-2.002V21c-.845 1.659-.54 3.635-.539 5.481v.205c0 .917-.775 1.661-1.733 1.661-.957 0-1.733-.744-1.733-1.661v-.203c-.002-2.587-.004-6.13 2.718-9.015l.07-.07c1.644-1.548 3.85-2.401 6.211-2.401s4.567.854 6.211 2.401l.07.07C29 20.348 29 24.162 29 26.686c-.001.918-.777 1.662-1.735 1.662zm-7.266-14.341a4 4 0 0 1-3.997-4.003 4 4 0 0 1 3.997-4.003 4 4 0 0 1 3.996 4.003 4 4 0 0 1-3.996 4.003z"/></svg>