<svg id="Layer_1" xmlns="http://www.w3.org/2000/svg" viewBox="0 0 25.3 25.3"><style>.st0{fill:#fff}</style><path id="icon-cog" class="st0" d="M22.7 12.7c0 1.5 1.1 2.8 2.6 3-.3 1.4-.9 2.7-1.6 3.9-1.3-1-3.2-.8-4.2.5-.8 1.1-.8 2.6 0 3.7-1.2.8-2.5 1.3-3.9 1.6-.2-1.6-1.7-2.8-3.3-2.6-1.4.2-2.5 1.2-2.6 2.6-1.4-.4-2.7-1-3.9-1.7 1-1.3.8-3.2-.5-4.2-1.1-.9-2.6-.9-3.7 0C.9 18.3.3 17 0 15.6c1.6-.2 2.8-1.7 2.6-3.3-.1-1.4-1.2-2.5-2.6-2.6C.3 8.3.9 7 1.6 5.8c1.3 1 3.2.8 4.2-.5.8-1.1.8-2.6 0-3.7C7 .9 8.3.3 9.7 0c.2 1.6 1.7 2.8 3.3 2.6 1.4-.2 2.5-1.2 2.6-2.6 1.4.3 2.7.9 3.9 1.6-1 1.3-.8 3.2.5 4.2 1.1.9 2.6.9 3.7 0 .7 1.2 1.3 2.5 1.6 3.9-1.5.2-2.6 1.4-2.6 3zm-10-4c-2.2 0-4 1.8-4 4s1.8 4 4 4 4-1.8 4-4-1.8-4-4-4z"/></svg>