<svg xmlns="http://www.w3.org/2000/svg" width="100" height="100" viewBox="0 0 100 100"><path d="M70.012 63.334l-5.868-3.924c-3.501-1.34-7.43 1.348-8.785 4.818l-.593 1.532c-9.185-4.638-15.061-12.301-17.043-22.27l2.243-.289c3.729-.478 7.056-3.65 6.573-7.336l-1.957-7.849c-.48-3.687-3.387-4.361-7.114-3.882l-3.795.487a6.75 6.75 0 0 0-5.903 6.444l-.022.01c-4.162 26.018 9.249 43.898 35.543 47.462l.02.008c3.505 1.342 7.439-.391 8.795-3.862l1.373-3.532c1.352-3.472.035-6.478-3.467-7.817z" opacity=".15"/><path fill="#fff" d="M70.012 61.334l-5.868-3.924c-3.501-1.34-7.43 1.348-8.785 4.818l-.593 1.532c-9.185-4.638-15.061-12.301-17.043-22.27l2.243-.289c3.729-.478 7.056-3.65 6.573-7.336l-1.957-7.849c-.48-3.687-3.387-4.361-7.114-3.882l-3.795.487a6.75 6.75 0 0 0-5.903 6.444l-.022.01c-4.162 26.018 9.249 43.898 35.543 47.462l.02.008c3.505 1.342 7.439-.391 8.795-3.862l1.373-3.532c1.352-3.472.035-6.478-3.467-7.817z"/></svg>