<svg xmlns="http://www.w3.org/2000/svg" width="50" height="50" viewBox="0 0 50 50"><path fill-rule="evenodd" clip-rule="evenodd" fill="#CBCBCB" d="M41 37H10a2 2 0 0 1-2-2V15a2 2 0 0 1 2-2h31a2 2 0 0 1 2 2v20a2 2 0 0 1-2 2zm0-20.25A1.74 1.74 0 0 0 39.271 15H11.729A1.74 1.74 0 0 0 10 16.75V19h31v-2.25zM41 23H10v10.25c0 .967.774 1.75 1.729 1.75H39.27A1.74 1.74 0 0 0 41 33.25V23zm-5.496 9.99a2.5 2.5 0 1 1 0-5 2.5 2.5 0 0 1 0 5zm-3.499-2.504c0 .855.319 1.628.828 2.236a3.5 3.5 0 1 1-1.328-6.736c1.078 0 2.03.498 2.673 1.264a3.497 3.497 0 0 0-2.173 3.236z"/></svg>