<svg xmlns="http://www.w3.org/2000/svg" width="50" height="50" viewBox="0 0 50 50"><path d="M38.004 30.933a2.5 2.5 0 0 0-2.5-2.5 2.48 2.48 0 0 0-1.574.572l3.502 3.502c.351-.431.572-.974.572-1.574zm-26.275 4.509A1.74 1.74 0 0 1 10 33.692v-10.25h9.852l-4-4H10v-2.25c0-.967.774-1.75 1.729-1.75h.122l-1.986-1.986A1.994 1.994 0 0 0 8 15.442v20a2 2 0 0 0 2 2h23.853l-2-2H11.729zm19.637-9l1.85 1.85c.286-.247.607-.454.962-.6a3.481 3.481 0 0 0-2.673-1.264l-.139.014zm9.634-13H18.367l2 2h18.904A1.74 1.74 0 0 1 41 17.192v2.25H24.367l4 4H41v10.25a1.75 1.75 0 0 1-.872 1.512l1.93 1.93c.564-.354.942-.977.942-1.692v-20a2 2 0 0 0-2-2zm-2.877 25.443L12.667 13.429 14.096 12l25.456 25.456z" fill-rule="evenodd" clip-rule="evenodd" fill="#CBCBCB"/></svg>