<svg xmlns="http://www.w3.org/2000/svg" width="58" height="50" viewBox="0 0 58 50"><path fill-rule="evenodd" clip-rule="evenodd" fill="#F4BB00" d="M58 46.854L54.78 50 41.486 37.016c-6.245 4.566-15.155 4.096-20.83-1.447a15.35 15.35 0 0 1 0-22.044c6.221-6.078 16.345-6.078 22.568 0a15.33 15.33 0 0 1 1.482 20.345L58 46.854zM40.005 16.67c-4.447-4.343-11.681-4.343-16.128 0a10.968 10.968 0 0 0 .001 15.752c4.446 4.343 11.681 4.344 16.127.001s4.446-11.41 0-15.753zm-6 16.343V14.994c1.68.344 3.229 1.213 4.456 2.519 1.626 1.729 2.519 4.041 2.519 6.491 0 2.461-.893 4.762-2.519 6.492-1.228 1.304-2.776 2.174-4.456 2.517zm-8.469-2.177c-1.629-1.687-2.524-3.941-2.524-6.332 0-2.39.896-4.646 2.524-6.332a8.505 8.505 0 0 1 3.452-2.177v17.018a8.512 8.512 0 0 1-3.452-2.177zm8.469-24.518V0H45.99v13.007a16.98 16.98 0 0 0-1.308-1.515C41.784 8.507 38.036 6.7 34.005 6.318zm-14.399 5.416a19.41 19.41 0 0 0-2.604 3.246V9h5.997a19.58 19.58 0 0 0-3.393 2.734zM0 17.999h12.016v22.998H0V17.999zm24.013 22.998h-7.01v-6.989a18.452 18.452 0 0 0 2.304 3.209c1.393 1.576 2.98 2.847 4.706 3.78zm17.972-.001h-1.981c.444-.284.877-.63 1.3-.989l.681.989z"/></svg>