<svg id="Layer_1" xmlns="http://www.w3.org/2000/svg" viewBox="0 0 20 20"><style>.st0{fill:#999}</style><path id="icon-earth" class="st0" d="M11.8.2C6.4-.8 1.2 2.8.1 8.2c0 .4 0 .7-.1 1.1V11c.5 5.5 5.4 9.5 10.9 9 1.6-.2 3.1-.7 4.4-1.5 4.7-3 6-9.2 3-13.8-1.4-2.4-3.8-4-6.5-4.5zm7.1 11.5c-.4 2-1.4 3.8-2.9 5.1-.4.4-.9.7-1.3 1-.2-.1-.3-.3-.5-.4-.9-.8-1.4-1.9-2.5-2.6-1.1-.8-3.8.5-4.7-.3-2.6-2-3.9-4.2-6-3.8 0-.6 0-1.2.1-1.9 0-.1 0-.3.1-.4C1.9 3.8 6.1.6 10.8 1 9.9 2.9 8 4.5 9 6.5c.7 1.5 2.8-1.8 4.8 2 .9 5.4 4.6 3.6 5.2.2.1 1 .1 2-.1 3z"/></svg>