<svg xmlns="http://www.w3.org/2000/svg" width="50" height="50" viewBox="0 0 50 50"><path fill="#CBCBCB" d="M24.683 17L6 20.86v.628l2.859.649-.02 3.193a.575.575 0 0 0-.11.877c-.07.027-.144.084-.144.133v.502c0 .069.145.143.223.143h.019v.002a.267.267 0 0 0-.256.263l-.904 4.53c0 .146.121.27.271.27h2.533a.272.272 0 0 0 .271-.27l-.905-4.53c0-.146-.174-.265-.174-.265.078 0 .105-.072.105-.143v-.502c0-.068-.027-.152-.105-.152h-.045a.566.566 0 0 0-.031-.779l.044-3.095 5.31 1.207v6.141l.01.01c.032 1.593 4.276 3.006 8.856 3.285v-.008c.544.033 1.093.051 1.644.051 5.193 0 10.374-1.604 10.41-3.34l-.002.002-.041-5.523 9.121-2.188v-.613L24.683 17z"/></svg>