<svg xmlns="http://www.w3.org/2000/svg" width="50" height="50" viewBox="0 0 50 50"><path fill="#CBCBCB" d="M32.128 26.07l13.226 9.55c.404-.559.646-1.444.646-2.192V16.365c-1.744 1.419-8.366 6.591-13.872 9.705zM26 27.079c3.965 0 19.807-12.365 19.934-12.377C45.626 13.158 44.477 12 42.861 12H9.137c-1.613 0-2.763 1.158-3.07 2.702.126.013 15.968 12.377 19.933 12.377zm0 1.191c-1.156 0-2.896-.276-4.706-1.189L7.897 36.672c.436.211.725.328 1.24.328H42.47c.477 0 1.159-.215 1.568-.396L30.313 27.08c-1.77.884-3.178 1.19-4.313 1.19zM6 16.365v17.46c0 .712.219 1.172.59 1.717l13.136-9.653C14.237 22.768 7.734 17.776 6 16.365z"/></svg>