<svg id="Layer_1" xmlns="http://www.w3.org/2000/svg" viewBox="0 0 141 187"><style>.st0{fill:#231f20}.st1{fill:url(#SVGID_1_)}.st2{fill:url(#SVGID_2_)}.st3{fill:url(#SVGID_3_)}.st4{fill:url(#SVGID_4_)}.st5{fill:#fff}.st6{fill:#ffd8f4}.st7{fill:url(#SVGID_5_)}.st8{fill:#eec631}.st9{fill:#6262bb}</style><path class="st0" d="M109.4 77.1c-1.1-3.5-2.9-5.6-4.1-9.1 2.5-5.5 3.9-11.4 4.1-17.4 0-20.9-16.6-38.1-37.5-39-.2 0-.4-.1-.7-.1H70.3c-21.5 0-39 17.5-39 39 0 6.2 1.5 12.3 4.3 17.7C23.1 94.3 15 127.5 15 141.7c0 25 24.8 45.3 55.5 45.3s55.5-20.3 55.5-45.3c0-12.6-6.3-40.3-16.6-64.6z"/><radialGradient id="SVGID_1_" cx="70.53" cy="88.64" r="59.34" gradientTransform="matrix(1 0 0 -1 0 187.89)" gradientUnits="userSpaceOnUse"><stop offset="0" stop-color="#fff"/><stop offset=".51" stop-color="#fdfdfd"/><stop offset=".7" stop-color="#f6f6f6"/><stop offset=".83" stop-color="#ebebeb"/><stop offset=".94" stop-color="#dadada"/><stop offset="1" stop-color="#ccc"/></radialGradient><path class="st1" d="M102 81.3c-.9-2.8-2.4-4.2-3.4-7.1 2-4.5 3.2-9.4 3.4-14.4 0-16.9-13.4-30.8-30.3-31.5-.2 0-.3-.1-.5-.1h-.7C53.1 28.2 39 42.3 39 59.7c0 5 1.2 9.9 3.5 14.4-10.2 21-16.7 47.9-16.7 59.4 0 20.2 20.1 36.6 44.8 36.6s44.8-16.4 44.8-36.6c0-10.1-5.2-32.5-13.4-52.2z"/><linearGradient id="SVGID_2_" gradientUnits="userSpaceOnUse" x1="45.755" y1="13.63" x2="45.755" y2=".89" gradientTransform="matrix(1 0 0 -1 0 187.89)"><stop offset="0" stop-color="#ffe773"/><stop offset=".22" stop-color="#ffe36e"/><stop offset=".48" stop-color="#ffd960"/><stop offset=".76" stop-color="#ffc748"/><stop offset="1" stop-color="#ffb42e"/></linearGradient><path class="st2" d="M45.8 174.3c-7 0-12.7 5.7-12.8 12.7h25.5c0-7-5.7-12.7-12.7-12.7z"/><linearGradient id="SVGID_3_" gradientUnits="userSpaceOnUse" x1="96.125" y1="13.63" x2="96.125" y2=".89" gradientTransform="matrix(1 0 0 -1 0 187.89)"><stop offset="0" stop-color="#ffe773"/><stop offset=".22" stop-color="#ffe36e"/><stop offset=".48" stop-color="#ffd960"/><stop offset=".76" stop-color="#ffc748"/><stop offset="1" stop-color="#ffb42e"/></linearGradient><path class="st3" d="M96.1 174.3c-7 0-12.7 5.7-12.8 12.7h25.5c.1-7-5.6-12.7-12.7-12.7z"/><linearGradient id="SVGID_4_" gradientUnits="userSpaceOnUse" x1="70.535" y1="161.38" x2="70.535" y2="102.91" gradientTransform="matrix(1 0 0 -1 0 187.89)"><stop offset="0" stop-color="#ffe773"/><stop offset=".22" stop-color="#ffe36e"/><stop offset=".48" stop-color="#ffd960"/><stop offset=".76" stop-color="#ffc748"/><stop offset="1" stop-color="#ffb42e"/></linearGradient><path class="st4" d="M102.5 55.7c0 16.1-14.3 29.2-32 29.2s-31.9-13-31.9-29.2 14.3-29.2 31.9-29.2 32 13.1 32 29.2z"/><path class="st0" d="M102 52.3c0 17.4-14.1 31.4-31.4 31.4s-31.4-14-31.4-31.4c0-17.3 14-31.4 31.4-31.4C87.9 20.9 102 35 102 52.3z"/><path class="st5" d="M51.8 56.5c-7 0-12.7-5.7-12.7-12.7 0-7 5.7-12.7 12.7-12.7s12.7 5.7 12.7 12.7c0 7-5.7 12.7-12.7 12.7z"/><path class="st0" d="M55.9 38.8c-2.8 0-5 2.3-4.9 5 0 2.8 2.3 5 5 4.9 2.7 0 4.9-2.3 5-5 0-2.7-2.2-4.9-5.1-4.9.1 0 .1 0 0 0z"/><path class="st5" d="M59.4 41.8c0 .8-.7 1.5-1.5 1.5s-1.5-.7-1.5-1.5.6-1.4 1.4-1.5c.9 0 1.5.7 1.6 1.5zM60.5 43.9c0 .4-.3.7-.7.7-.4 0-.7-.3-.7-.7 0-.4.3-.7.7-.7.4.1.7.4.7.7zM58.2 45.6c0 .4-.3.6-.6.6-.4 0-.6-.3-.6-.6s.3-.6.6-.6.6.3.6.6zM89.2 56.5c7 0 12.7-5.7 12.7-12.7 0-7-5.7-12.7-12.7-12.7s-12.7 5.7-12.7 12.7c.1 7 5.7 12.7 12.7 12.7z"/><path class="st0" d="M84.5 38.8c2.8 0 5 2.2 5 5s-2.2 5-5 5-5-2.2-5-5 2.2-5 5-5z"/><path class="st5" d="M87.8 41.8c0 .8-.7 1.5-1.5 1.5s-1.5-.7-1.5-1.5.7-1.5 1.5-1.5c.9 0 1.5.7 1.5 1.5zM88.9 43.9c0 .4-.3.7-.7.7-.4 0-.7-.3-.7-.7s.3-.7.7-.7c.4.1.7.4.7.7zM86.7 45.6c0 .4-.3.6-.6.6-.4 0-.6-.3-.6-.6 0-.4.3-.6.6-.6s.6.3.6.6z"/><path class="st6" d="M77.3 58l-2.6 4.5c-1.2 2-2.7 4.7-4.2 4.7s-3-2.8-4.2-4.7L63.7 58c-1.5-2.7-1.2-5 .6-6.2l4.5-1h4.3c4.6 0 6.5 3.2 4.2 7.2z"/><radialGradient id="SVGID_5_" cx="70.552" cy="131.665" r="6.764" gradientTransform="matrix(1 0 0 -1 0 187.89)" gradientUnits="userSpaceOnUse"><stop offset="0" stop-color="#f7e563"/><stop offset=".09" stop-color="#f4df5a"/><stop offset=".32" stop-color="#f0d44b"/><stop offset=".59" stop-color="#eece43"/><stop offset="1" stop-color="#edcc40"/></radialGradient><path class="st7" d="M73.2 50.6H68c-4.6 0-6.5 2.2-4.2 4.9l2.6 3.1c1.2 1.4 2.6 3.2 4.2 3.2s3-1.8 4.2-3.2l2.6-3.1c2.3-2.7.4-4.9-4.2-4.9z"/><path class="st0" d="M68.1 12.4S75.6 1.1 83.1 0c-8.1 8-6.8 9.7-6.8 9.7s4-6.2 8.1-7.2c-5.7 6.2-4.3 10-4.3 10 .6-2.6 2.3-4.8 4.6-6.2-1.9 2.7-3 5.8-3.2 9.1M24.4 109.6c9.3-15 14.1-28.8 10.6-31s-13.9 8.2-23.2 23.1-14.1 28.8-10.6 31 13.8-8.1 23.2-23.1zM116.6 109.6c-9.3-15-14.1-28.8-10.6-31s13.9 8.2 23.2 23.1 14.1 28.8 10.6 31-13.8-8.1-23.2-23.1z"/><path class="st8" d="M46.8 67.6c-.1.5 0 .5.2.1-.2.1-.2.1-.2-.1zM47.5 68.3s0 .1 0 0zM47.4 68.4c-.1-.1-.1-.2-.1-.3-.1.1 0 .4.1.3zM46.9 67.3c-.1-.2-.1-.2 0 0-.1 0 0 .1 0 0zM47.7 68.4v-.2.2zM47.5 68c0-.2 0-.4-.1-.6.1.2.1.4.1.6zM48.3 68.4l-.1-.1c.1 0 .2.2.1.1zM48.3 68.1v.2c.2-.2.1-.3 0-.2zM48.2 68.1c.1 0 0-1 0 0zM48.2 67.7c0-.3 0-.2 0 0zM47.4 66.9s0-.1 0 0zM55.7 62.8v.3-.3zM49.4 65.7c0-.1 0-.2-.1-.5 0 .5 0 .7.1.5zM49.5 65.7c-.1 0-.1 0 0 0-.1.1 0 .1 0 0zM53.1 66.9c0 .2.1.3.2.5 0-.2 0-.4-.2-.5zM58.2 66.1s-.1.1 0 0c0 .1 0 .1 0 0z"/><path class="st8" d="M60.2 63.2c-.4-1.3-.7.2-.7-.7.9 1.9-2.5.4-2.2.5 0 1.1-2.8-.8-2.8 1.1-.1-.3-.1-.7-.3-1-.1 0-.2 1.6-.5.2-.5 0-.4 2.1-.5 2.8l-.3-1.8c-.5.1-.6.5-.2 1.3-.1-1.4-.2-1.6-.3-.7 0-1.2-.1.3-.1-.1 0 1.4-1.4-3-.3 1.6.1.5-.6-1.5-.6-1.8-.3 1.9 0 4.4-.9-.5.6 2.5-.3-.3.1 2.9-2-3.5-1.2.7-1.3.5-.7-2.5-.6.3-.4.6.3.1.4-.2.1-.7 0-.8.2.9.1.8.1.4 3-1.4 3-1.7.2-.1 2.4-1.1 2.4.6 0-.7 0-.7.2.1.8.4.3-2.4 2-.7 0-.5 0-1-.1-1.5.2.7 1.1.7 1.6 1.2 1.4-1.6 2.2-.7 2-3z"/><path class="st8" d="M50.4 65.1c-.3-1.6-.2-.7 0 0zM49.5 65.7s0-.4 0 0zM49.5 65.7c.1.2 0 0 0 0zM52.9 64.3c0-.3-.1 0 0 0zM50 64.8l.1.1-.1-.1zM48.5 67.2c0 .1 0 .2 0 0zM49.2 65.3s-.1.2 0 .3v-.3zM55.1 62.6s0 .1 0 0c-.1 0 .1.4 0 0zM95.3 65.4s.1-.2.1-.3c-.1.1-.1.2-.1.3zM94.2 65.2c0-.1 0 0 0 0zM94.2 65.1c0 .1 0 0 .1-.1l-.1.1zM94.3 65.1v.3s.1-.3 0-.3zM94 65l-.1.2s.1-.1.1-.2zM93.6 64.5c0 .1-.1.1-.1.2l.1-.2zM94 65.5c-.1.2-.2.4-.2.5.1-.2.1-.3.2-.5zM93.7 65zM93.7 65zM93.4 64.8v0zM93.4 64.9c-.2.1-.2.1 0 .2-.4 1 0 .4 0-.2zM93.6 66.6c0-.1 0 0 0 0zM93.4 66.2c0-.1 0-.3.1-.4-.2.1-.2.2-.1.4zM84.6 66.7l-.1.3s.1-.1.1-.3zM86.1 67.2c.2-.5.1-.3 0 0zM87 63.8c0-.1.1-.2.1-.3-.1.1-.1.2-.1.3zM83.3 63zM82.5 65.6v0zM83.3 66.3V66c-.6.1-1.2.3 0 .3zM83.4 66.4zM88.4 63.7c-.1.1-.1.2 0 .2.1-.2.1-.2 0-.2zM84.1 66.1c-.2.2-.1.2 0 0zM89.7 66.8c-.2 1 1-1.1 0 0z"/><path class="st8" d="M92.5 64.7c-.2.9-5.4-.8-5.4.1-.1-.3-.3-.9-.2-1.3-.7-.7-1.5 2.1-2.3-.2-.2.4-.4.9-.5 1.4 0-2-2-.8-2-1.7-.7.4-1.4.3-1.9-.5 0 .6-.1.6-.2.2-.4 1.7 1 2.9.7 3.1.5-.3 1.1-.6 1.6-.9-1 1.9.3-.1.3 0 .4.4.5.8.2 1.2.2-.6.7.1 1-.4 0 .2.1.2.2 0 0 .5.3.5.2 1.2 0-.3 1.8-.2 2-.7-.1.4 0 .7 0 1.1.2-.7 1-1.2 1.7-2.3-.2.6-.3 1.1-.4 1.7 1.6-2.7.3 0 .2 0 .3.1.3.2.3.3.2-1 .5.8 1.3-1.8-.3 1.6-.2 2.2 0 1.1 0 2.4 1-1 1.1-1.2-.3 1-.5 1.8-.7 2.9.2-.5.3-1 .5-1.5.1.5 0 .9-.1 1.4.2-.9.4-1.7.6-2.6-.2.7-.2 1.3-.2 2 .2-1.1 2 .2 1.7-2-.2.5-.3.9-.1 1.4.6-1.1.9-1.9.4-2z"/><path class="st8" d="M89.6 64.8c.1 0 .1-.1 0 0zM83.7 66c-.7.7.6 0 0 0zM91.4 66.8c0-.1 0-.1 0 0zM87.6 66.8s0-.1 0 0c-.7 1.1.4-.3 0 0zM90.1 67.8c0 .2 0 .1 0 0zM86 67s.1 0 .1-.1c.1-.4 0-.4-.1.1zM91.4 66.8c0 .1-.1.2-.1.5.3-.4.3-.6.1-.5zM90.5 66.9s0 .1-.1.3c.1-.1.1-.2.1-.3zM86.3 67.4v-.1.1zM86 67.7V67c-.1.1-.2.3 0 .7zM86.3 66.9c0-.1-.1 0 0 0zM90.5 67.4v-.2c-.1.1-.1.1 0 .2zM92.8 65.7s0-.1 0 0z"/><path class="st8" d="M91.4 67.3c.1 0 .1-.2.1-.3 0 .1-.2.3-.1.3zM84.9 67.4s.1 0 0 0c.1.1.1-.4 0 0z"/><g><path class="st9" d="M45 63c-.1.4.1-.6 0 0zM45.1 62.8c-.1.5 0 .5.2.1-.1.1-.2 0-.2-.1zM45.7 63.9s.1.1 0 0zM45.9 63.7c0 .4.2.5 0 0zM45.8 63.5zM45.8 63.5c-.1-.1-.1-.2-.1-.3-.1.1 0 .4.1.3zM45.3 62.4c-.1-.1-.1-.1 0 0-.1 0 0 .2 0 0zM46.2 63.9c0-.3-.1-.5 0 0zM46.1 63.5v-.2.2zM45.7 63.1c0 .2 0 .3 0 0zM45.7 63.1v-.3.3zM46.4 63.9c.1.8-.1-.5 0 0zM46.5 63.8c0 .8.2.3 0 0zM46.2 63.4c.2.6.1.1 0 0zM45.8 62.5c0 .2.1.4.1.6.1-.2 0-.4-.1-.6zM46.1 63s0 .1-.1.2c0 0 .1-.1.1-.2zM46.1 63zM46 63.2zM46 63.2c0 .1 0 .1 0 0zM46.1 62.9c0 .1 0 .3 0 0zM46.5 63.4c0-.5 0 0 0 0zM46.7 63.5l-.1-.1c.1.1.1.2.1.1zM46.4 63.4c0-.3 0 0 0 0zM46.6 61.4c0 3 .3.7 0 0zM46.6 62.8c0-.2 0-.2 0 0z"/><path class="st9" d="M46.6 63.2c.1 0 0-1 0 0zM45.8 62s0-.1 0 0zM45.9 62.1c.6 1.8-.2-.4 0 0zM46.2 62.6c0-.4-.1-.5 0 0zM47 63.6c-.2-.5-.2-.6 0 0zM46.9 63.3c0-.1 0-.1 0 0zM47 63.6c0 .1 0 .1 0 0zM47.1 63.5c0 .1 0 .1 0 0zM47 63.4v.1c.1 0 0-.1 0-.1zM47 63.4v-.1.1zM49.9 62.7c.3.6.1 0 0 0zM48.4 63.1c-.1 0-.1 0 0 0zM50 59.4c0 .4.4 2.3 0 0zM56.7 60.8zM48.8 60.1c-.2-1.6-.2-.7 0 0zM47.8 60.9c.1-.1.1-.5 0 0zM47.9 60.8c0 .2 0 0 0 0zM51.2 59.5c0-.3-.1 0 0 0z"/><path class="st9" d="M58.2 57.7c.3.9.2.8-.2-.1-.5 1.3-1.1.9-2.3.5 0 .8-2.7 0-2.6.2.1.3.1.6-.1.9-.1-.3-.1-.7-.3-1-.1 0-.2 1.6-.5.2-.5 0-.4 2.1-.5 2.8l-.3-1.8c-.5.1-.6.5-.2 1.3-.1-1.4-.2-1.6-.3-.7 0-1.2-.1.3-.1-.1 0 1.4-1.4-3-.3 1.6.1.4-.6-1.6-.6-1.9-.3 1.7 0 4.7-.8-.5.6 2.5-.3-.3.1 2.9-.6-1-.5-.7-.5-1.9.1 1.6-1.7 1-.8 2.5-.7-2.5-.6.3-.4.6-.2-.3 3.3-.2 3.3-1.6.2 0 1.6.3 2.1-.6.9 1.2.4.5.5 1.2.8.4.3-2.4 2-.7 0-.5 0-1-.1-1.5.1.3 1 1.2 1.3 1.2.1-.2 4.9-1.6 1.6-3.5z"/><path class="st9" d="M47.8 60.9c0-.1 0-.2-.1-.5-.1.4 0 .6.1.5zM56.7 60.8zM51.4 62c0 .2.1.3.2.5.1-.2 0-.4-.2-.5zM47.8 60.9zM56.7 60.8c0 .1 0 .1 0 0zM48.4 60s.1.1.1.2c0-.2-.1-.2-.1-.2zM47.3 63.5c-.1-.3 0 0 0 0zM46.9 62.4s0 .1 0 0zM47.5 63.1c0-.1.1.3 0 .2.1.3.1-.4 0-.2zM46.9 61.9c0 .1 0 .1 0 0zM46.8 61.6c0 .1.1.2.1.2s-.1-.1-.1-.2zM47.2 61.8c-.3-.1 0 0 0 0zM46.9 61.5s.1.2 0 0zM47.8 61.7c0-.2-.1-.3 0 0zM47.4 60.9c-.2-.4.3.7 0 0zM47.6 60.4s-.1.2 0 .3v-.3zM49.3 59.3s.4 1.4 0 0zM59.9 60.6c.1.1.1 0 0 0zM59.9 60.6c-.1-.1-.1 0 0 0zM59.9 60.1s.3.9 0 0zM52.3 58.3s0-.1 0 0c0-.1 0 0 0 0zM52.3 58.3zM52.3 58.2zM52.3 58.3c0 .1 0 .1 0 0zM53.5 57.7s0 .1 0 0c-.1.1.1.5 0 0zM96.9 60.5s.1-.2.1-.3c-.1.1-.1.2-.1.3zM96.4 61.1c0-.1.1-.1 0 0zM96.3 61.1s.1 0 0 0c.1 0 0 0 0 0zM96.3 61.1c-.1.1 0 .1 0 0zM96 61c0 .2.1.2 0 0zM95.9 60c.1-.3 0-.5 0 0zM95.8 60.3c0-.1 0 0 0 0zM95.9 60.2l-.1.1c0 .1.1 0 .1-.1zM95.9 60.2v.3c.1 0 .1-.3 0-.3zM95.9 61.5c.1.3.1-.1 0 0zM95.7 59.7c-.1.3 0 .8 0 0zM95.6 60.1l-.1.2s.1-.1.1-.2zM95.7 60.9c.3-.8 0-.1 0 0zM95.5 59.7c-.1.1-.1.2 0 0zM95.5 59.7c0-.2.1-.4 0 0zM95.3 59.7c.3-.8 0-.3 0 0zM95.1 59.8s.1-.1.1-.2c0 .1 0 .1-.1.2zM95.4 60.2c.1-.6 0-.1 0 0zM95.6 60.6c-.1.2-.2.4-.2.6.1-.2.1-.4.2-.6zM95.4 60.6c0-.1.1-.1.1-.2-.1.1-.2.3-.1.2zM95.5 60.4z"/><path class="st9" d="M95.3 60.7c.1-.2.1-.1 0 0zM95.2 60.1c-.2 0 0 .4 0 0z"/><path class="st9" d="M95.1 60.4c.1-.1 0-.2 0 0zM95.3 60.1s0-.1 0 0zM95.3 60.1c-.2.3-.1.1 0 0zM94.3 61.9c.1-.5.7-3.1 0 0zM94.9 60.2zM94.8 59.9zM94.8 60.1v.1c.1-.1 0-.1 0-.1zM94.8 59.9v0zM94.8 59.9zM95 60.2c-.4 1 0 .4 0-.2-.1.2-.1.2 0 .2zM95.3 61.7zM95.3 61.6c.1-1.6-.1.1 0 0zM95 61.4c0-.1 0-.3.1-.4-.1.1-.2.2-.1.4zM94.8 59.8c0-.2 0-.1 0 0zM94.8 60c0-.1 0-.1 0 0 0-.1 0-.1 0 0zM94.8 59.9v-.1.1zM94.8 60c0 .2 0 .1 0 0zM94.7 59.8c0-.1 0-.1 0 0zM94.7 59.8v0zM89.5 60.6c0-.1.1-.1 0 0zM89.5 60.6c-.2.3 0 0 0 0zM86.2 61.9c0 .1-.1.3-.1.3l.1-.3zM88.6 58.9c0-.1.1-.2.1-.3 0 .2-.1.2-.1.3zM84.8 61.5v-.3c-.6 0-1.2.3 0 .3z"/><path class="st9" d="M94.4 59.5c-.7 1.1-5.6-.5-5.6.3-.1-.3-.3-.9-.2-1.3-.6-.6-1.5 2.2-2.3-.1-.2.4-.4.9-.5 1.4 0-2-2-.8-2-1.7-.7.4-1.4.3-1.8-.5 0 .7 0 3.7.4 3.3.5-.3 1.1-.6 1.6-.9-1 1.9.3-.1.3 0 .4.4.5.8.2 1.2.2-.5.7.1 1-.4 0 .2 0 .2.2 0 0 .4.3.5.2 1.1 0-.2 1.9-.2 2.1-.7 0 .6.3.4 0 1.1.1-.4 1.2-1.2 1.7-2.3-.4 2.5-.5.1.1 2 .1-.7.9-.5.6.3.8-2.5-1.5 4.9.7-2.1-.3 1.6-.2 2.2 0 1.1 0 2.4 1-.9 1.1-1.2-.3 1-.5 1.8-.7 2.8.2-.5.3-1 .5-1.5.1.5 0 .9-.1 1.4.2-.9.4-1.7.6-2.6-.2.7-.2 1.3-.2 2 .1-.5.2-.9.4-1.3-.7 3.6.3 1 .3 1-.1.3.8-2.2.9-1.5-.2.5-.3.9-.1 1.4.4-.7.6-1.5.6-2.3zm-4.9 1.8c0-.2 0 0 0 0zm4.4-1.3c0-.1 0-.1 0 0zM84 60.7v0z"/><path class="st9" d="M84.9 58.2c.1 0 .1 0 0 0 0-.1 0 0 0 0zM90.1 58.8c-.1.1-.1.2 0 .2v-.2zM87.9 61.8c-.2.1 0 0 0 0zM91.3 60c0-.1 0-.1 0 0zM91.5 61.9c-.1.4.9-1 0 0zM85.2 61.1c-.7.8.6 0 0 0zM92.3 62s0 .1-.1.3c0-.1.1-.2.1-.3zM89.3 61.9c0-.1 0-.1 0 0-.6 1 .4-.3 0 0zM93 61.9c0 .1-.1.2-.1.5.3-.4.4-.6.1-.5zM89.6 61.7c.1.7 0 0 0 0zM91.9 62.9c-.1.2-.1.1 0 0zM84.9 61.6c0-.1 0 0 0 0zM87.8 62.7c0-.4 0-.7.1-.9-.2.2-.3.5-.1.9zM85.6 61.2c-.2.2-.1.3 0 0zM88.1 62.5v-.1.1zM89.6 61.7zM93 61.9c0-.1 0-.1 0 0zM92.1 62.5v-.2.2zM94.5 59.7s-.2.3 0 0zM94.4 60.9c0-.1.1-.2 0 0zM94.2 61.5v0zM94.2 61.4c0-.1 0-.2 0 0zM94.2 61.5v-.1.1zM94.1 61.7c-.1-.2 0-.1 0 0zM93.3 62c.2.3 0-.6 0 0z"/><path class="st9" d="M93 62.4c.1 0 .1-.2.1-.3 0 .1-.2.3-.1.3zM91 62.8c.2-1.4 0 0 0 0zM81.8 57.4s0 .1 0 0zM81.8 57.4c-.1-.1-.1-.2 0 0zM81.6 57.9c.1-1 0-.2 0 0zM87.2 61.8c.1 0 .1 0 0 0 .1 0 .1 0 0 0zM87.2 62.1V62v.1zM87.3 61.8zM87.2 62v-.1.1zM87.2 62.1v0zM86.5 62.6s.1-.1 0 0c.1 0 .1-.5 0 0z"/></g></svg>