<svg xmlns="http://www.w3.org/2000/svg" width="107.5" height="36" viewBox="0 0 107.5 36"><defs><style>.a{fill:none}.b{fill:#51bad7}.c{fill:#fff}.d{fill:#d1f2f9}.e{fill:#ffc500}.f{clip-path:url(#a)}.g{fill:#231f20}.h{fill:url(#b)}.i{fill:url(#c)}.j{fill:#ffd8f4}.k{fill:url(#d)}</style><clipPath id="a"><circle class="a" cx="18" cy="18" r="18"/></clipPath><radialGradient id="b" cx="17.93" cy="26.12" r="13.13" gradientUnits="userSpaceOnUse"><stop offset="0" stop-color="#fff"/><stop offset=".51" stop-color="#fdfdfd"/><stop offset=".7" stop-color="#f6f6f6"/><stop offset=".83" stop-color="#ebebeb"/><stop offset=".94" stop-color="#dadada"/><stop offset="1" stop-color="#ccc"/></radialGradient><linearGradient id="c" x1="17.93" y1="10.02" x2="17.93" y2="22.96" gradientUnits="userSpaceOnUse"><stop offset="0" stop-color="#ffe773"/><stop offset=".22" stop-color="#ffe36e"/><stop offset=".48" stop-color="#ffd960"/><stop offset=".76" stop-color="#ffc748"/><stop offset="1" stop-color="#ffb42e"/></linearGradient><radialGradient id="d" cx="17.93" cy="16.6" r="1.5" gradientUnits="userSpaceOnUse"><stop offset="0" stop-color="#f7e563"/><stop offset=".09" stop-color="#f4df5a"/><stop offset=".32" stop-color="#f0d44b"/><stop offset=".59" stop-color="#eece43"/><stop offset="1" stop-color="#edcc40"/></radialGradient></defs><title>epic-logo</title><path class="b" d="M42 27V5h12v5h-7v4h7v4h-7v4h7v5zM57 27V5h6.77a16.15 16.15 0 0 1 3.91.38 6 6 0 0 1 2.46 1.26 7.29 7.29 0 0 1 2.44 5.8 7.53 7.53 0 0 1-2.23 5.67Q68.41 20 64.23 20H62v7zm5-12h2.19a4.14 4.14 0 0 0 2.57-.6 2.41 2.41 0 0 0 .82-1.9 2.2 2.2 0 0 0-1-2A4.84 4.84 0 0 0 64 10h-2zM76 27V5h6v22zM88.17 23.84A10.45 10.45 0 0 1 85 16.15a10.35 10.35 0 0 1 3.14-7.65 10.55 10.55 0 0 1 7.73-3.12 10.37 10.37 0 0 1 8.43 3.88 9.7 9.7 0 0 1 2.14 4.41h-5.54a5.51 5.51 0 0 0-2-2.63 5.35 5.35 0 0 0-4.09-.89 4.72 4.72 0 0 0-2.28 1 6.1 6.1 0 0 0-2.24 4.92 6.34 6.34 0 0 0 1.61 4.41 5.13 5.13 0 0 0 4 1.78q3.28 0 5-3.51h5.54a10.3 10.3 0 0 1-3.78 5.93 11.09 11.09 0 0 1-14.48-.9z"/><path class="c" d="M42.5 35.66v-3.54h-.81v-.74h2.39v.74h-.81v3.54zM44.14 35.66l1.78-4.29h.62l1.79 4.29h-.87l-.46-1.1h-1.52l-.48 1.1zm1.63-1.85h.92l-.46-1.32zM48.74 35.22a1.39 1.39 0 0 1-.27-.79h.77a.57.57 0 0 0 .17.41.58.58 0 0 0 .42.16.59.59 0 0 0 .41-.15.5.5 0 0 0 .16-.39.53.53 0 0 0-.13-.37 1.14 1.14 0 0 0-.45-.26q-.47-.17-.61-.25a1 1 0 0 1-.28-.21 1.18 1.18 0 0 1-.35-.88 1.16 1.16 0 0 1 .37-.86 1.25 1.25 0 0 1 1.85.11 1.24 1.24 0 0 1 .27.75h-.8a.54.54 0 0 0-.14-.35.45.45 0 0 0-.33-.14.44.44 0 0 0-.32.12.43.43 0 0 0-.12.32.4.4 0 0 0 .17.34 2 2 0 0 0 .55.26 2.1 2.1 0 0 1 .73.4 1.2 1.2 0 0 1 .38.9 1.32 1.32 0 0 1-.39 1 1.36 1.36 0 0 1-1.59.28 1.3 1.3 0 0 1-.47-.4zM53.42 35.66v-4.28h2.18v.74h-1.4v1h1.34v.74h-1.35v1.76zM56.15 35.66v-4.28h.77v4.29zM57.73 35.66v-4.28h.92l1.75 3.06v-3.06h.77v4.29h-.85l-1.82-3.16v3.15zM61.59 35.66l1.78-4.29H64l1.79 4.29h-.87l-.45-1.11h-1.54l-.47 1.11zm1.63-1.85h.92l-.46-1.32zM66.17 35.66v-4.28h.92l1.75 3.06v-3.06h.77v4.29h-.85l-1.81-3.15v3.15zM70.24 33.5a2.14 2.14 0 0 1 .64-1.56 2.1 2.1 0 0 1 1.55-.65 2.3 2.3 0 0 1 1.76.86 2.27 2.27 0 0 1 .25.45h-.9a1.47 1.47 0 0 0-1.13-.6 1.3 1.3 0 0 0-1 .44 1.51 1.51 0 0 0 0 2.09 1.34 1.34 0 0 0 1 .44 1.22 1.22 0 0 0 .55-.12 1.93 1.93 0 0 0 .52-.41h.92a2 2 0 0 1-.79.92 2.17 2.17 0 0 1-1.19.35 2.11 2.11 0 0 1-1.56-.66 2.19 2.19 0 0 1-.62-1.55zM75 35.66v-4.28h.77v4.29zM76.15 35.66l1.78-4.29h.62l1.79 4.29h-.87l-.47-1.1h-1.51l-.49 1.1zm1.63-1.85h.92l-.46-1.32zM80.73 35.66v-4.28h.77v3.54h1.32v.74zM84.53 35.66l1.78-4.29h.62l1.79 4.29h-.87l-.45-1.11h-1.53l-.47 1.11zm1.63-1.85h.92l-.46-1.32zM89.11 35.66v-4.28h1a2.89 2.89 0 0 1 1.5.33 1.81 1.81 0 0 1 .69.75 2.33 2.33 0 0 1 .26 1.08 2.24 2.24 0 0 1-.29 1.12 1.81 1.81 0 0 1-.77.75 3.08 3.08 0 0 1-1.37.26zm.77-.74H90a2.11 2.11 0 0 0 1.05-.21 1.27 1.27 0 0 0 .47-.49 1.4 1.4 0 0 0 .17-.68 1.45 1.45 0 0 0-.18-.71 1.31 1.31 0 0 0-.49-.51 2.15 2.15 0 0 0-1-.2h-.15zM94.3 35.66l-1.6-4.29h.77l1.15 3.26 1.16-3.26h.77L95 35.66zM97 35.66v-4.28h.77v4.29zM98.61 35.22a1.4 1.4 0 0 1-.27-.79h.77a.57.57 0 0 0 .17.41.58.58 0 0 0 .42.16.59.59 0 0 0 .41-.15.5.5 0 0 0 .16-.39.54.54 0 0 0-.13-.37 1.14 1.14 0 0 0-.45-.26q-.47-.17-.61-.25a1 1 0 0 1-.28-.21 1.18 1.18 0 0 1-.35-.88 1.16 1.16 0 0 1 .37-.86 1.25 1.25 0 0 1 1.85.11 1.24 1.24 0 0 1 .27.75h-.8a.54.54 0 0 0-.15-.35.44.44 0 0 0-.33-.13.44.44 0 0 0-.32.12.43.43 0 0 0-.12.32.4.4 0 0 0 .17.34 2 2 0 0 0 .55.26 2.1 2.1 0 0 1 .73.4 1.2 1.2 0 0 1 .38.9 1.32 1.32 0 0 1-.39 1 1.36 1.36 0 0 1-1.59.28 1.3 1.3 0 0 1-.46-.41zM101.69 35.66v-4.28H104v.74h-1.53v1h1.47v.74h-1.47v1H104v.74zM104.64 35.66v-4.28h1.29a1.57 1.57 0 0 1 1.08.33 1.28 1.28 0 0 1 .45 1 1.54 1.54 0 0 1-.12.59 1.27 1.27 0 0 1-.32.47 1.49 1.49 0 0 1-.66.32l1.14 1.57h-1L105.41 34v1.62zm.77-2.24h.51a.84.84 0 0 0 .56-.18.61.61 0 0 0 .21-.48.59.59 0 0 0-.21-.47.83.83 0 0 0-.55-.18h-.51z"/><path class="b" d="M75 1h2v2h-2z"/><path class="d" d="M78 1h2v2h-2z"/><path class="e" d="M81 1h2v2h-2z"/><circle class="b" cx="18" cy="18" r="18"/><g class="f"><path class="g" d="M26.53 21.22c-.24-.78-.64-1.24-.91-2a10.29 10.29 0 0 0 .91-3.86 8.63 8.63 0 0 0-8.3-8.62h-.33a8.63 8.63 0 0 0-7.69 12.56C7.43 25 5.65 32.37 5.65 35.52c0 5.54 5.5 10 12.28 10s12.28-4.49 12.28-10c0-2.8-1.41-8.93-3.68-14.3z"/><path class="h" d="M24.88 22.16c-.2-.63-.54-.93-.75-1.57a8.65 8.65 0 0 0 .75-3.18 7 7 0 0 0-6.71-7h-.27a7 7 0 0 0-6.21 10.15C9.44 25.23 8 31.17 8 33.72c0 4.47 4.44 8.1 9.93 8.1s9.93-3.63 9.93-8.1c0-2.26-1.14-7.22-2.98-11.56z"/><ellipse class="i" cx="17.93" cy="16.49" rx="7.07" ry="6.47"/><circle class="g" cx="17.93" cy="15.74" r="6.95"/><circle class="c" cx="13.79" cy="13.86" r="2.81"/><circle class="g" cx="14.7" cy="13.86" r="1.12"/><circle class="c" cx="15.13" cy="13.4" r=".32"/><circle class="c" cx="15.55" cy="13.88" r=".15"/><circle class="c" cx="15.06" cy="14.26" r=".14"/><circle class="c" cx="22.07" cy="13.86" r="2.81"/><circle class="g" cx="21.02" cy="13.86" r="1.12"/><circle class="c" cx="21.44" cy="13.4" r=".32"/><circle class="c" cx="21.85" cy="13.88" r=".15"/><circle class="c" cx="21.36" cy="14.26" r=".14"/><path class="j" d="M19.42 17l-.58 1c-.25.44-.59 1-.92 1s-.67-.6-.93-1l-.58-1c-.34-.59-.26-1.11.13-1.38l1-.22h.94c1.04-.01 1.46.71.94 1.6z"/><path class="k" d="M18.51 15.37h-1.15c-1 0-1.43.48-.92 1.08l.58.68c.26.3.59.71.93.71s.67-.41.92-.71l.58-.68c.5-.6.08-1.08-.94-1.08z"/><path class="g" d="M17.4 6.91s1.6-2.5 3.32-2.76c-1.8 1.77-1.52 2.16-1.52 2.16s.9-1.37 1.79-1.6c-1.27 1.37-1 2.2-1 2.2a2.19 2.19 0 0 1 1-1.38 3.88 3.88 0 0 0-.71 2"/><ellipse class="g" cx="6.32" cy="27.55" rx="7.06" ry="1.65" transform="rotate(-57.98 6.319 27.55)"/><ellipse class="g" cx="29.53" cy="27.55" rx="1.65" ry="7.06" transform="rotate(-32.02 29.535 27.542)"/></g></svg>