<svg xmlns="http://www.w3.org/2000/svg" width="50" height="50" viewBox="0 0 50 50"><path fill-rule="evenodd" clip-rule="evenodd" fill="#CBCBCB" d="M37.414 27c-.677 5.713-5.203 10.236-10.914 10.916V41h-3v-3.086C17.799 37.225 13.283 32.705 12.606 27H9.5v-3h3.111A12.493 12.493 0 0 1 23.5 13.117V10h3v3.113c5.7.679 10.22 5.189 10.91 10.887h3.09v3h-3.086zM23.5 34.885V27h-7.864a9.498 9.498 0 0 0 7.864 7.885zM15.64 24h7.86v-7.862A9.497 9.497 0 0 0 15.64 24zm10.86-7.864V24h7.877a9.497 9.497 0 0 0-7.877-7.864zM26.5 27v7.887A9.496 9.496 0 0 0 34.38 27H26.5z"/></svg>