<svg xmlns="http://www.w3.org/2000/svg" width="50" height="50" viewBox="0 0 50 50"><path fill="#CBCBCB" d="M38.23 11.36c-.49-.479-1-.92-1.54-1.33A18.85 18.85 0 0 0 25 6C14.51 6 6 14.5 6 25c0 10.49 8.51 19 19 19 4.41 0 8.47-1.5 11.69-4.029.54-.41 1.05-.86 1.54-1.341A18.914 18.914 0 0 0 44 25c0-5.35-2.21-10.189-5.77-13.64zM24 41.949a16.887 16.887 0 0 1-9.215-3.386A18.882 18.882 0 0 0 20.503 25c0-5.32-2.188-10.123-5.714-13.569A16.886 16.886 0 0 1 24 8.051v33.898zM8 25c0-4.827 2.021-9.174 5.251-12.269A16.905 16.905 0 0 1 18.503 25c0 4.819-2.017 9.181-5.25 12.267C10.021 34.171 8 29.823 8 25zm18 16.959V8.041a16.837 16.837 0 0 1 9.15 3.329A18.917 18.917 0 0 0 29.38 25c0 5.351 2.21 10.181 5.78 13.63A16.943 16.943 0 0 1 26 41.959zm10.69-4.629A16.926 16.926 0 0 1 31.38 25c0-4.859 2.04-9.24 5.311-12.33.55.521 1.069 1.08 1.54 1.68A16.862 16.862 0 0 1 42 25c0 4.03-1.41 7.74-3.77 10.65-.47.6-.99 1.161-1.54 1.68z"/></svg>