<svg xmlns="http://www.w3.org/2000/svg" width="100" height="100" viewBox="0 0 100 100"><path fill-rule="evenodd" clip-rule="evenodd" d="M69 82H31a2 2 0 0 1-2-2V27a2 2 0 0 1 2-2h6v4a2 2 0 0 0 2 2h22a2 2 0 0 0 2-2v-4h6a2 2 0 0 1 2 2v53a2 2 0 0 1-2 2zM40 37a4 4 0 1 0 0 8 4 4 0 0 0 0-8zm0 13a4 4 0 1 0 0 8 4 4 0 0 0 0-8zm0 13a4 4 0 1 0 0 8 4 4 0 0 0 0-8zm24-23H47v2h17v-2zm0 13H47v2h17v-2zm0 13H47v2h17v-2zm-5-37H41a2 2 0 0 1-2-2v-2a2 2 0 0 1 2-2h18a2 2 0 0 1 2 2v2a2 2 0 0 1-2 2z" opacity=".15"/><path fill-rule="evenodd" clip-rule="evenodd" fill="#fff" d="M69 80H31a2 2 0 0 1-2-2V25a2 2 0 0 1 2-2h6v4a2 2 0 0 0 2 2h22a2 2 0 0 0 2-2v-4h6a2 2 0 0 1 2 2v53a2 2 0 0 1-2 2zM40 35a4 4 0 1 0 0 8 4 4 0 0 0 0-8zm0 13a4 4 0 1 0 0 8 4 4 0 0 0 0-8zm0 13a4 4 0 1 0 0 8 4 4 0 0 0 0-8zm24-23H47v2h17v-2zm0 13H47v2h17v-2zm0 13H47v2h17v-2zm-5-37H41a2 2 0 0 1-2-2v-2a2 2 0 0 1 2-2h18a2 2 0 0 1 2 2v2a2 2 0 0 1-2 2z"/></svg>