<svg xmlns="http://www.w3.org/2000/svg" width="50" height="50" viewBox="0 0 50 50"><path fill="#CBCBCB" d="M44.939 22.691v.615l-9.121 2.197.041 5.547.002-.002c-.006.328-.195.651-.531.959l-13.116-13.17 2.436-.494 20.289 4.348zM36.62 39L11.164 13.436 12.593 12l25.456 25.564L36.62 39zm-7.634-4.839a26.678 26.678 0 0 1-3.535.243c-.551 0-1.102-.02-1.645-.053v.008c-4.58-.281-8.824-1.701-8.856-3.301l-.011-.011V24.88L9.63 23.67l-.044 3.107a.576.576 0 0 1 .031.783h.045c.078 0 .105.084.105.152v.504c0 .069-.027.145-.105.145h-.096c.15 0 .271.117.271.266l.905 4.55a.273.273 0 0 1-.271.271H7.938a.272.272 0 0 1-.271-.271l.904-4.55c0-.143.114-.256.256-.264v-.002h-.018c-.078 0-.223-.073-.223-.145v-.504c0-.05.073-.104.144-.134a.573.573 0 0 1 .11-.881l.021-3.206L6 22.843v-.63l9.186-1.913 13.8 13.861z"/></svg>