<svg height="33" width="33" xmlns="http://www.w3.org/2000/svg" viewBox="0 0 33 33"><path fill="#cbcbcb" fill-rule="evenodd" d="M30.16 16.5c0-1.41.85-2.61 2.07-3.12.57-.24.89-.84.73-1.43-.38-1.37-.92-2.66-1.61-3.87-.3-.53-.95-.72-1.52-.49-1.23.49-2.68.25-3.67-.74-1-1-1.24-2.45-.75-3.68.23-.56.04-1.21-.49-1.52-1.21-.68-2.5-1.22-3.87-1.6-.59-.16-1.19.16-1.43.72-.52 1.22-1.71 2.08-3.12 2.08-1.41 0-2.61-.86-3.13-2.08-.24-.56-.83-.88-1.42-.72-1.37.38-2.67.92-3.87 1.6-.54.31-.73.96-.5 1.52a3.4 3.4 0 0 1-.74 3.68c-1 .99-2.45 1.23-3.68.74-.56-.23-1.21-.04-1.52.49-.68 1.21-1.23 2.5-1.6 3.87-.16.59.16 1.19.72 1.43 1.22.51 2.08 1.71 2.08 3.12 0 1.4-.86 2.6-2.08 3.12-.56.24-.88.84-.72 1.43.37 1.36.92 2.66 1.6 3.87.31.53.96.72 1.52.49a3.4 3.4 0 0 1 3.68.74c.99 1 1.24 2.45.74 3.67-.23.57-.04 1.22.5 1.52 1.2.69 2.5 1.23 3.87 1.61.59.16 1.18-.16 1.42-.73a3.394 3.394 0 0 1 3.13-2.07c1.41 0 2.6.85 3.12 2.07.24.57.84.89 1.43.73 1.37-.38 2.66-.92 3.87-1.61.53-.3.72-.95.49-1.52a3.391 3.391 0 0 1 4.42-4.41c.57.23 1.22.04 1.52-.49.69-1.21 1.23-2.51 1.61-3.87.16-.59-.16-1.19-.73-1.43a3.39 3.39 0 0 1-2.07-3.12zM16.5 21.96a5.47 5.47 0 0 1-5.47-5.46 5.47 5.47 0 0 1 5.47-5.46c3.01 0 5.46 2.45 5.46 5.46s-2.45 5.46-5.46 5.46z"/></svg>