<svg xmlns="http://www.w3.org/2000/svg" width="50" height="50" viewBox="0 0 50 50"><path d="M37.996 42s-8.004-7.477-8.004-12.998c0-.749.07-1.416.195-2.021 2.114-.106 3.803-1.839 3.803-3.979l-.041-.4c1.188-.427 2.568-.598 4.047-.598 1.475 0 2.852.17 4.038.595l-.04.404a3.988 3.988 0 0 0 3.811 3.98c.125.603.195 1.271.195 2.019C46 34.523 37.996 42 37.996 42zm-4.155-25.844c-1.518-1.72-4.449-1.134-6.491-1.15-2.663-.021-5.325.026-7.987 0-2.239-.022-5.161-.509-7.054.977-1.682 1.32-2.164 3.578-2.415 5.586l.06-.476c-.039.303-.082 2.192-.277 2.192.647-.092 1.402.12 2.052.168a168.186 168.186 0 0 0 8.213.411c3.711.09 7.429.051 11.135-.177a5.33 5.33 0 0 1-2.347 1.73 5.08 5.08 0 0 1-1.481.303 13.49 13.49 0 0 0-.239 1.992c-.121 2.581.767 4.997 1.959 7.249H17.033c-.088 0-.039 2.408-.039 3.004 0 .036 9.409.017 11.943.017.143 0 .067-2.6.067-2.95A34.553 34.553 0 0 0 31.495 39H14.044c-2.064 0-4.378-.56-6.297-1.324-1.174-.467-2.199-.87-2.24-2.245a160.942 160.942 0 0 0-.184-4.228c-.077-1.378-.078-2.9.442-4.203.539-1.35 1.507-2.316 1.884-3.757.073-.157.121-.321.143-.492-.076.312.01-.158-.202-.294-.263-.169-.611-.169-.91-.209-.801-.111-1.877-.024-2.429-.743-1.385-1.804 2.162-2.158 3.187-1.762.301.117.537.325.584.659.002.014.205.888.265.688.557-.512.784-1.903 1.081-2.583.754-1.729 1.663-3.855 3.417-4.79 1.91-1.017 4.62-.675 6.707-.696 2.468-.026 4.936-.035 7.403.039 2.04.062 4.681-.164 6.489.954 1.697 1.049 2.745 3.271 3.59 5.005-.367.008-.734.027-1.101.055-.571.044-.535-.45-.756-.925-.335-.716-.749-1.4-1.276-1.993zM6.295 33.238c-.261-.124-.301.217-.297.398.004.29.131.396.38.543.155.084 1.05.703.986.242.009-.298.048-.479-.233-.658-.273-.17-.535-.363-.82-.515l-.016-.01zm2.639-6.886c-1.381-.761-2.259 2.172-2.187 3.072.16 1.966 3.613 2.199 5.061 2.546.836.2 1.709.327 2.468-.188.679-.462.316-1.805-.05-2.327-.574-.832-1.762-1.303-2.615-1.786-.867-.49-1.816-.835-2.677-1.317zM6.016 37.989c1.445.872 4.948 1.599 4.948 1.599 0 .534.095 1.113-.002 1.641-.063.342-.293.599-.708.693-.63.145-1.379.041-2.033.041-.798 0-1.967.188-2.179-.663-.134-.542-.029-1.163-.026-1.714v-1.597zm4.446 1.512l-.245-.043.245.043z" opacity=".15"/><path fill="#fff" d="M37.996 40s-8.004-7.477-8.004-12.998c0-.749.07-1.417.195-2.022 2.114-.106 3.803-1.839 3.803-3.979l-.041-.4c1.188-.427 2.568-.598 4.047-.598 1.475 0 2.852.17 4.038.595l-.04.404a3.988 3.988 0 0 0 3.811 3.98c.125.604.195 1.272.195 2.02C46 32.523 37.996 40 37.996 40zm-4.155-25.844c-1.518-1.72-4.449-1.134-6.491-1.15-2.663-.021-5.325.026-7.987 0-2.239-.022-5.161-.509-7.054.977-1.682 1.32-2.164 3.578-2.415 5.586l.06-.476c-.039.303-.082 2.192-.277 2.192.647-.092 1.402.12 2.052.168a168.186 168.186 0 0 0 8.213.411c3.711.09 7.429.051 11.135-.177a5.322 5.322 0 0 1-2.347 1.73 5.073 5.073 0 0 1-1.481.303 13.473 13.473 0 0 0-.239 1.992c-.121 2.581.767 4.997 1.959 7.249H17.033c-.088 0-.039 2.408-.039 3.004 0 .036 9.409.017 11.943.017.143 0 .067-2.6.067-2.95A34.553 34.553 0 0 0 31.495 37H14.044c-2.064 0-4.378-.56-6.297-1.324-1.174-.467-2.199-.87-2.24-2.245a160.942 160.942 0 0 0-.184-4.228c-.077-1.378-.077-2.9.442-4.203.539-1.35 1.507-2.317 1.884-3.757.073-.157.121-.321.143-.492-.076.312.01-.158-.202-.294-.263-.169-.611-.169-.91-.209-.801-.111-1.877-.024-2.429-.743-1.385-1.804 2.162-2.158 3.187-1.762.301.117.537.325.584.659.002.014.205.888.265.688.557-.512.784-1.903 1.081-2.583.754-1.729 1.663-3.855 3.417-4.79 1.91-1.017 4.62-.675 6.707-.696 2.468-.026 4.936-.035 7.403.039 2.04.062 4.681-.164 6.489.954 1.697 1.049 2.745 3.271 3.59 5.005-.367.008-.734.027-1.101.055-.571.044-.535-.45-.756-.925-.335-.716-.749-1.4-1.276-1.993zM6.295 31.238c-.261-.124-.301.217-.297.398.004.29.131.396.38.543.155.084 1.05.703.986.242.009-.298.048-.479-.233-.658-.273-.17-.535-.363-.82-.515l-.016-.01zm2.639-6.886c-1.381-.764-2.259 2.171-2.187 3.072.16 1.966 3.613 2.199 5.061 2.546.836.2 1.709.327 2.468-.188.679-.462.316-1.805-.05-2.327-.575-.834-1.762-1.3-2.615-1.786-.867-.493-1.814-.836-2.677-1.317zM6.016 35.989c1.445.872 4.948 1.599 4.948 1.599 0 .534.095 1.113-.002 1.641-.063.342-.293.599-.708.693-.63.145-1.379.041-2.033.041-.798 0-1.967.188-2.179-.663-.134-.542-.029-1.163-.026-1.714v-1.597zm4.446 1.512l-.245-.043.245.043z"/></svg>