<svg id="Layer_1" xmlns="http://www.w3.org/2000/svg" viewBox="0 0 100 100"><style>.st0{opacity:.15}.st1{fill:#fff}</style><title>intPassport</title><g class="st0"><path d="M42.3 48H48V35.1l-1.2.2c-2.5 3.8-4 8.2-4.5 12.7zM46 65.6l2 .3V51h-5.9c0 5.1 1.3 10.2 3.9 14.6zM34 51c.2 5.4 3.1 10.3 7.8 13-1.8-4.1-2.7-8.5-2.7-13H34zm18.2-15.8l-1.2-.1V48h5.7c-.5-4.6-2-9-4.5-12.8z"/><path d="M69 21H30c-1.1 0-2 .9-2 2v56c0 1.1.9 2 2 2h39c1.1 0 2-.9 2-2V23c0-1.1-.9-2-2-2zm-1 29.5C68 60.7 59.7 69 49.5 69S31 60.7 31 50.5 39.3 32 49.5 32 68 40.3 68 50.5z"/><path d="M42.5 36.7c-4.4 2.2-7.5 6.4-8.3 11.3h5c.4-3.9 1.5-7.8 3.3-11.3zM51 65.9l2-.3c2.6-4.4 4-9.5 4-14.6h-6v14.9zm5.5-29.2c1.8 3.5 2.9 7.4 3.3 11.3h5c-.8-4.9-3.9-9.1-8.3-11.3zm.7 27.3c4.7-2.7 7.6-7.6 7.8-13h-5.1c0 4.5-.9 8.9-2.7 13z"/></g><path class="st1" d="M42.3 46H48V33.1l-1.2.2c-2.5 3.8-4 8.2-4.5 12.7zM46 63.6l2 .3V49h-5.9c0 5.1 1.3 10.2 3.9 14.6zM34 49c.2 5.4 3.1 10.3 7.8 13-1.8-4.1-2.7-8.5-2.7-13H34zm18.2-15.8l-1.2-.1V46h5.7c-.5-4.6-2-9-4.5-12.8z"/><path class="st1" d="M69 19H30c-1.1 0-2 .9-2 2v56c0 1.1.9 2 2 2h39c1.1 0 2-.9 2-2V21c0-1.1-.9-2-2-2zm-1 29.5C68 58.7 59.7 67 49.5 67S31 58.7 31 48.5 39.3 30 49.5 30 68 38.3 68 48.5z"/><path class="st1" d="M42.5 34.7c-4.4 2.2-7.5 6.4-8.3 11.3h5c.4-3.9 1.5-7.8 3.3-11.3zM51 63.9l2-.3c2.6-4.4 4-9.5 4-14.6h-6v14.9zm5.5-29.2c1.8 3.5 2.9 7.4 3.3 11.3h5c-.8-4.9-3.9-9.1-8.3-11.3zm.7 27.3c4.7-2.7 7.6-7.6 7.8-13h-5.1c0 4.5-.9 8.9-2.7 13z"/></svg>