<svg id="Layer_1" xmlns="http://www.w3.org/2000/svg" viewBox="0 0 100 100"><style>.st0{opacity:.15;enable-background:new}.st1{fill:#fff}</style><title>residencePermit</title><path class="st0" d="M69 21H30c-1.1 0-2 .9-2 2v56c0 1.1.9 2 2 2h39c1.1 0 2-.9 2-2V23c0-1.1-.9-2-2-2zm-6.6 29.7h-1.9v10.5c0 1.2-1 2.2-2.2 2.2h-6v-6.9c0-.6-.5-1.1-1.1-1.1h-2.8c-.6 0-1.1.5-1.1 1.1v6.9h-6c-1.2 0-2.2-1-2.2-2.2V50.7h-1.9c-.7 0-1.2-.6-1.1-1.3 0-.3.2-.6.4-.8l12.6-10.4c.4-.3 1-.3 1.4 0l12.6 10.3c.6.4.7 1.1.3 1.7-.2.3-.6.5-1 .5z"/><path class="st1" d="M69 19H30c-1.1 0-2 .9-2 2v56c0 1.1.9 2 2 2h39c1.1 0 2-.9 2-2V21c0-1.1-.9-2-2-2zm-6.6 29.7h-1.9v10.5c0 1.2-1 2.2-2.2 2.2h-6v-6.9c0-.6-.5-1.1-1.1-1.1h-2.8c-.6 0-1.1.5-1.1 1.1v6.9h-6c-1.2 0-2.2-1-2.2-2.2V48.7h-1.9c-.7 0-1.2-.6-1.1-1.3 0-.3.2-.6.4-.8l12.6-10.4c.4-.3 1-.3 1.4 0l12.6 10.3c.6.4.7 1.1.3 1.7-.2.3-.6.5-1 .5z"/></svg>