<svg xmlns="http://www.w3.org/2000/svg" width="50" height="50" viewBox="0 0 50 50"><path fill="#CBCBCB" d="M38.747 27.172c.112-.708.171-1.433.171-2.173 0-7.687-6.23-13.919-13.919-13.919-.737 0-1.464.062-2.172.172a8.411 8.411 0 0 0-11.575 11.576c-.109.709-.17 1.432-.17 2.172 0 7.688 6.231 13.917 13.917 13.917.737 0 1.465-.058 2.173-.169a8.412 8.412 0 0 0 11.575-11.576zm-7.14 4.158c-1.524 2.191-4.471 2.757-6.968 2.697-2.646-.063-5.379-.953-6.678-3.444-.497-.952-.786-2.317.25-3.027 1.172-.802 2.362.016 2.833 1.144.476 1.111 1.151 2.088 2.367 2.44 1.173.341 2.651.267 3.753-.277.979-.482 1.68-1.419 1.401-2.547-.292-1.18-1.658-1.584-2.686-1.855-2.444-.646-5.517-.895-7.208-3.027-1.688-2.151-.633-5.226 1.612-6.458 2.282-1.252 5.548-1.377 7.976-.508 1.396.501 2.796 1.467 3.274 2.94.471 1.452-.814 3.251-2.425 2.373-.64-.349-.915-1.18-1.306-1.745-.409-.593-.928-1.087-1.633-1.283-1.369-.38-3.612-.295-4.46 1.06-.932 1.489 1.011 2.403 2.14 2.708 1.605.434 3.251.711 4.823 1.268 1.479.522 2.947 1.371 3.529 2.912.571 1.505.321 3.317-.594 4.629z"/></svg>