<svg xmlns="http://www.w3.org/2000/svg" width="50" height="50" viewBox="0 0 50 50"><path fill="#CBCBCB" d="M38 38H12a2 2 0 0 1-2-2V18a2 2 0 0 1 2-2h6v-1a2 2 0 0 1 2-2h10a2 2 0 0 1 2 2v1h6a2 2 0 0 1 2 2v18a2 2 0 0 1-2 2zm-7-22.4c0-.883-.768-1.6-1.715-1.6h-8.571c-.946 0-1.714.717-1.714 1.6v.4h12v-.4zm7 9.4H28v-2h10v-3.363c0-.905-.775-1.637-1.732-1.637H13.733c-.957 0-1.733.732-1.733 1.637V23h10v2H12v9.363c0 .905.776 1.637 1.733 1.637h22.533c.959 0 1.734-.732 1.734-1.637V25zm-14-3h2v4h-2v-4z"/></svg>