<svg id="Layer_1" xmlns="http://www.w3.org/2000/svg" viewBox="0 0 26 20.4"><style>.st0{fill:#f9ac48}</style><path class="st0" d="M11.6 11.6l-8.2 8.2c-.8.8-2 .8-2.8 0-.4-.4-.6-.9-.6-1.4V2C0 .9.9 0 2 0c.5 0 1 .2 1.4.6l8.2 8.2c.8.8.8 2 0 2.8zm0 0l-8.2 8.2c-.8.8-2 .8-2.8 0-.4-.4-.6-.9-.6-1.4V2C0 .9.9 0 2 0c.5 0 1 .2 1.4.6l8.2 8.2c.8.8.8 2 0 2.8zm0 0l-8.2 8.2c-.8.8-2 .8-2.8 0-.4-.4-.6-.9-.6-1.4V2C0 .9.9 0 2 0c.5 0 1 .2 1.4.6l8.2 8.2c.8.8.8 2 0 2.8zm2.8 0l8.2 8.2c.8.8 2 .8 2.8 0 .4-.4.6-.9.6-1.4V2c0-1.1-.9-2-2-2-.5 0-1 .2-1.4.6l-8.2 8.2c-.8.8-.8 2 0 2.8z"/></svg>