<svg height="27" width="49" xmlns="http://www.w3.org/2000/svg" viewBox="0 0 49 27"><path fill="#cbcbcb" fill-rule="evenodd" d="M47 27H2c-1.11 0-2-.89-2-2V4c0-1.11.89-2 2-2h35c0-1.11.89-2 2-2h4a2 2 0 0 1 2 2h2a2 2 0 0 1 2 2v21a2 2 0 0 1-2 2zM11 6a2 2 0 0 0-2-2H5c-1.11 0-2 .89-2 2v1c0 1.11.89 2 2 2h4a2 2 0 0 0 2-2V6zm17.51-3.01c-6.35 0-11.5 5.15-11.5 11.5s5.15 11.5 11.5 11.5 11.5-5.15 11.5-11.5-5.15-11.5-11.5-11.5zm0 21c-5.25 0-9.5-4.25-9.5-9.5 0-5.24 4.25-9.5 9.5-9.5s9.5 4.26 9.5 9.5c0 5.25-4.25 9.5-9.5 9.5zM28.5 11c-1.93 0-3.5 1.56-3.5 3.5 0 1.93 1.57 3.5 3.5 3.5 1.94 0 3.5-1.57 3.5-3.5 0-1.94-1.56-3.5-3.5-3.5z"/></svg>