<svg xmlns="http://www.w3.org/2000/svg" width="50" height="50" viewBox="0 0 50 50"><path d="M39.615 19.808c.135-.476.213-.975.213-1.494a5.43 5.43 0 0 0-5.025-5.412 5.436 5.436 0 0 0-7.303-3.42A5.427 5.427 0 0 0 22.941 7a5.435 5.435 0 0 0-5.179 3.791 5.422 5.422 0 0 0-.703-.051 5.433 5.433 0 0 0-5.399 6.025 5.429 5.429 0 0 0-2.975 4.84 5.425 5.425 0 0 0 2.975 4.839 5.432 5.432 0 0 0 5.399 6.026c.94 0 1.817-.247 2.588-.668.7.888 1.977 2.267 3.464 2.719l.288 4.72-1.009 6.473h5.27l-.35-5.681.295-4.9s1.667-1.093 2.944-2.217c.647.272 1.35.438 2.096.438 2.719 0 4.965-2 5.363-4.606a5.438 5.438 0 0 0 3.305-5 5.413 5.413 0 0 0-1.698-3.94zm-17.671 12.34l-1.207-1.13c.222-.204.429-.424.614-.662l.924 1.521c.45.742.301.862-.331.271zm1.311-.585l-1.149-1.769a5.376 5.376 0 0 0 2.068.422l.412-.033-.204 1.15c-.151.853-.655.956-1.127.23zm4.942.79c-.766.406-1.467.039-1.567-.822l-.212-1.818a5.4 5.4 0 0 0 .945-.538 5.426 5.426 0 0 0 1.64 2.749l-.806.429z" opacity=".15"/><path fill="#fff" d="M39.615 17.808c.135-.476.213-.975.213-1.494a5.43 5.43 0 0 0-5.025-5.412 5.436 5.436 0 0 0-7.303-3.42A5.427 5.427 0 0 0 22.941 5a5.435 5.435 0 0 0-5.179 3.791 5.422 5.422 0 0 0-.703-.051 5.433 5.433 0 0 0-5.399 6.025 5.429 5.429 0 0 0-2.975 4.84 5.425 5.425 0 0 0 2.975 4.839 5.432 5.432 0 0 0 5.399 6.025c.94 0 1.817-.247 2.588-.668.7.888 1.977 2.267 3.464 2.719l.288 4.72-1.009 6.473h5.27l-.35-5.681.295-4.9s1.667-1.093 2.944-2.217c.647.272 1.35.438 2.096.438 2.719 0 4.965-2 5.363-4.606a5.438 5.438 0 0 0 3.305-5c0-1.553-.655-2.95-1.698-3.939zm-17.671 12.34l-1.207-1.13c.222-.204.429-.424.614-.662l.924 1.521c.45.742.301.862-.331.271zm1.311-.585l-1.149-1.769a5.376 5.376 0 0 0 2.068.422l.412-.033-.204 1.15c-.151.853-.655.956-1.127.23zm4.942.79c-.766.406-1.467.039-1.567-.822l-.212-1.818a5.4 5.4 0 0 0 .945-.538 5.426 5.426 0 0 0 1.64 2.749l-.806.429z"/></svg>