<svg id="Layer_1" xmlns="http://www.w3.org/2000/svg" viewBox="0 0 21 21"><style>.st0{fill:#fff}</style><path id="icon-two-users" class="st0" d="M20.2 21H6.8c-.5 0-.8-.3-.8-.8v-3.9c.3-2.5 3.5-4.3 7.5-4.3s7.3 1.8 7.5 4.3v3.9c0 .5-.3.8-.8.8zm-6.7-10C11.6 11 10 9.4 10 7.5S11.6 4 13.5 4 17 5.6 17 7.5 15.4 11 13.5 11zM7.9 6.7c-1.8.8-3.9-.1-4.6-1.9C2.6 3 3.5 1 5.3.2c1.8-.7 3.8.2 4.5 2 .1.2.2.4.2.6-1.2 1-2 2.4-2.1 3.9zm.4 1.4c.3 1.1.9 2.1 1.7 2.8-3 1-5.1 3-5.3 5.4v.7h-4c-.4 0-.7-.3-.7-.7V12c.3-2.2 3.3-4 6.9-4 .5 0 .9 0 1.4.1z"/></svg>