<svg id="Layer_1" xmlns="http://www.w3.org/2000/svg" viewBox="0 0 19 23"><style>.st0{fill:#fff}</style><path id="icon-uah" class="st0" d="M18 11h-5.1c-.5.4-.9.7-1.3 1H18c.6 0 1 .4 1 1s-.4 1-1 1H9c-1.4 1.2-3.2 2.9-3.3 4.1 0 .3.1.5.4.7.3.3 1.6 1 7.1-.8 1-.3 2 .3 2.3 1.3v.1c.3 1-.3 2.1-1.3 2.4-2.1.7-4.4 1.2-6.6 1.3-1.5.1-3-.4-4.1-1.4-1.1-1-1.6-2.3-1.6-3.8.1-1.4.7-2.8 1.6-3.8H1c-.6 0-1-.4-1-1s.4-1 1-1h4.5c.4-.3.7-.7 1.1-1H1c-.6 0-1-.4-1-1s.4-1 1-1h8.2l.2-.1c1.1-1 3.8-3 3.9-4.1 0-.3-.2-.5-.4-.7-.3-.2-1.6-.9-7.2.8-1 .3-2-.3-2.3-1.3v-.1c-.3-1 .3-2.1 1.3-2.4C8.6 0 13-.9 15.4 1.4c1.1 1 1.7 2.4 1.6 3.8-.2 1.4-.8 2.8-1.9 3.8H18c.6 0 1 .4 1 1s-.4 1-1 1z"/></svg>