<svg height="35" width="40" xmlns="http://www.w3.org/2000/svg" viewBox="0 0 40 35"><path fill="#606060" fill-rule="evenodd" d="M39.9 12.19l-2.36 4.59c-.25.47-.83.6-1.26.28l-4.21-3.08c-.64-.47-.48-1.5.26-1.67l1.64-.37c-2.28-5.24-7.56-8.83-13.71-8.83-6.84 0-12.11 4.2-13.86 10.41H2.39C4.22 5.44 11.65 0 20.26 0c7.67 0 14.23 4.52 16.86 11.22l1.78-.41c.74-.17 1.36.68 1 1.38zM4.49 16.52l3.7 3.65c.56.55.25 1.55-.51 1.61l-1.57.13c1.97 5.85 7.56 9.98 14.15 9.98 6.85 0 12.4-4.2 14.16-10.41h4C36.59 29.56 28.87 35 20.26 35c-8.27 0-15.24-5.26-17.4-12.82l-1.9.16c-.76.06-1.24-.87-.78-1.51l3.02-4.21c.31-.43.91-.48 1.29-.1z"/></svg>