<svg id="Layer_1" xmlns="http://www.w3.org/2000/svg" viewBox="0 0 17 17.2"><style>.st0{fill:#fff}</style><path id="viber" class="st0" d="M13.6 17.2c-.3-.1-.6-.1-.9-.2C7.1 14.7 2.6 10.3.3 4.7-.4 3.2.2 1.5 1.6.7c.2-.1.5-.2.7-.2.3-.1.7-.1 1.1 0 .9.3 3 3.3 3.1 4.1 0 .6-.4 1.1-.9 1.4-.7.4-1 1.3-.6 2.1 0 0 0 .1.1.1.8 1.8 2.3 3.2 4.2 4 .6.4 1.4.2 1.8-.4.8-1.2 1.8-1.2 3-.4.6.4 1.1.8 1.6 1.2.7.6 1.6 1 1.2 2.2-.6 1.3-1.8 2.2-3.3 2.4zM9.3.2c4.1.2 7.4 3.6 7.5 7.7 0 .4.1 1-.5.9-.6 0-.4-.6-.5-1-.5-4.2-2.5-6.2-6.7-6.8-.3 0-.8.1-.8-.3.1-.7.7-.5 1-.5zm5.5 7c0 .3.1.8-.3.9-.6.1-.5-.5-.6-.9-.4-2.5-1.3-3.5-4-4.1-.4-.1-1 0-.9-.6.1-.5.6-.3 1-.3 2.6.3 4.6 2.4 4.8 5zm-2-.4c.1.3-.1.6-.3.7h-.1c-.3 0-.5-.2-.5-.4 0-1-.8-1.8-1.7-1.8-.4-.2-.7-.3-.6-.7.1-.2.4-.4.6-.3 1.4.1 2.4 1.1 2.6 2.5z"/></svg>