<svg id="Layer_1" xmlns="http://www.w3.org/2000/svg" viewBox="0 0 17 17"><style>.st0{fill:#fff}</style><path id="whatsup" class="st0" d="M8.6 0C4 0 .3 3.7.2 8.3c.1 1.5.5 3 1.2 4.3L0 17l4.6-1.5c1.2.7 2.6 1 4 1 4.6.1 8.4-3.5 8.5-8 .1-4.6-3.5-8.4-8-8.5h-.5zm0 15.3c-1.4 0-2.7-.4-3.9-1.2l-2.6.9.9-2.6c-.8-1.2-1.3-2.7-1.4-4.1 0-3.9 3.1-7.1 7-7.1s7.1 3.1 7.1 7-3.1 7-7.1 7.1c.1-.1 0 0 0 0zm4.1-5.3l-1.6-.8c-.1-.1-.3 0-.4.1 0 0-.4.5-.5.7-.1.2-.3.3-.5.2-.7-.2-1.3-.5-1.8-1-.4-.4-.8-.8-1.1-1.3-.1-.1-.1-.2 0-.3 0 0 .4-.4.5-.6.1-.2.1-.4 0-.6 0-.1-.6-1.4-.7-1.6 0-.2 0-.2-.2-.3h-.6c-.1 0-.2.1-.4.1-.5.4-.8 1-.8 1.6 0 .5.1 1 .3 1.4.6 1.1 1.4 2 2.3 2.8.9.8 2.1 1.3 3.2 1.6.7.1 1.5-.1 2.1-.6.3-.3.5-.8.4-1.3 0 .1-.1 0-.2-.1z"/></svg>