<svg class="life-graph" xmlns="http://www.w3.org/2000/svg" xmlns:xlink="http://www.w3.org/1999/xlink" width="1983" height="1294.2" viewBox="0 0 1983 1294.2" font-family="'DINPro-Black'"><symbol id="a" viewBox="-38.7 -54.3 77.4 108.6"><path fill="#FFDE0A" d="M11.6 32.8v-.2l-24.6-.1.8 1.4 1.4 1.4 19.7.1 5.5 18.8-29.6-.2 4.2-18.3c-3 3.6-10.6 10.9-17.4 8.3l.7-2.1c5.8 2.2 13-5.2 15.5-8-4.2-1.5-9.6-2.6-12.8.2l-1.5-1.6c1.9-1.7 4.3-2.3 6.9-2.3 1.5 0 3 .2 4.5.6C-29 21.3-38.8.1-38.7-16c.1-21.3 17.5-38.5 38.9-38.4 21.4.1 38.6 17.5 38.5 38.8-.1 17.2-11.5 40.2-27.1 48.4z"/><path fill="#FFF" d="M11.1-28.4c-2.1-1.8-4.6-3-7.6-3.5V-38h-6.6v6.1c-3 .5-5.7 1.8-8 3.7-2.8 2.4-4.2 5.2-4.3 8.2l.1 1.7h6.4v-.6c0-2.5.8-4.4 2.4-5.8 1.5-1.3 3.8-2 6.6-2s5.1.7 6.6 2.1C8.2-23.3 9-21.4 9-19c0 2-.7 3.6-2.2 4.8-1.5 1.2-4.2 2.3-8 3.1-4.2 1-7.3 2.4-9.4 4.4-2.1 2-3.3 4.6-3.3 7.6 0 3.5 1.3 6.4 4 8.6 1.8 1.5 4 2.5 6.5 3v5.3h6.6v-5.2c3-.4 5.4-1.4 7.4-3 2.6-2.2 4-5.2 4.2-8.9V0H8.3v.7C8 3.1 7.2 4.8 5.9 5.9 4.7 7 2.8 7.6.4 7.6c-2.5 0-4.5-.6-5.9-1.8-1.4-1.1-2-2.7-2-4.7 0-1.8.6-3.2 1.9-4.2 1.3-1.1 3.6-2 6.8-2.8C5.9-7 9.5-8.6 11.9-10.7c2.4-2.1 3.6-4.9 3.6-8.1 0-3.9-1.5-7.1-4.4-9.6z"/><path opacity=".1" d="M14.4 54.3L0 54.2V35.5h8.9zm-2.8-21.5v-.1L0 32.6v-86.9h.2c21.4.1 38.6 17.5 38.5 38.8-.1 17.1-11.5 40.1-27.1 48.3z"/></symbol><symbol id="b" viewBox="-38.7 -54.3 77.4 108.6"><path fill="#B0E81B" d="M11.6 32.8v-.1l-24.6-.2.8 1.4 1.4 1.4 19.7.1 5.5 18.8-29.6-.2 4.2-18.3c-3 3.6-10.6 10.9-17.4 8.3l.7-2c5.8 2.2 13-5.2 15.5-8-4.2-1.5-9.6-2.6-12.8.2l-1.5-1.7c1.9-1.7 4.3-2.3 6.9-2.3 1.5 0 3 .2 4.5.6C-29 21.3-38.8.1-38.7-16c.1-21.3 17.5-38.5 38.9-38.4 21.4.1 38.6 17.5 38.5 38.8-.1 17.2-11.5 40.2-27.1 48.4z"/><path opacity=".1" d="M14.4 54.3L0 54.2V35.5h8.9zm-2.8-21.5v-.1L0 32.6v-86.9h.2c21.4.1 38.6 17.5 38.5 38.8-.1 17.1-11.5 40.1-27.1 48.3z"/><path fill="#FFF" d="M11.1-28.4c-2.1-1.8-4.6-3-7.6-3.5V-38h-6.6v6.1c-3 .5-5.7 1.8-8 3.7-2.8 2.4-4.2 5.2-4.3 8.2l.1 1.7h6.4v-.6c0-2.5.8-4.4 2.4-5.8 1.5-1.3 3.8-2 6.6-2s5.1.7 6.6 2.1C8.2-23.3 9-21.4 9-19c0 2-.7 3.6-2.2 4.8-1.5 1.2-4.2 2.3-8 3.1-4.2 1-7.3 2.4-9.4 4.4-2.1 2-3.3 4.6-3.3 7.6 0 3.5 1.3 6.4 4 8.6 1.8 1.5 4 2.5 6.5 3v5.3h6.6v-5.2c3-.4 5.4-1.4 7.4-3 2.6-2.2 4-5.2 4.2-8.9V0H8.3v.7C8 3.1 7.2 4.8 5.9 5.9 4.7 7 2.8 7.6.4 7.6c-2.5 0-4.5-.6-5.9-1.8-1.4-1.1-2-2.7-2-4.7 0-1.8.6-3.2 1.9-4.2 1.3-1.1 3.6-2 6.8-2.7C5.9-7 9.5-8.6 11.9-10.7c2.4-2.1 3.6-4.9 3.6-8.1 0-3.9-1.5-7.1-4.4-9.6z"/></symbol><symbol id="d" viewBox="-17.5 -19.6 35 39.1"><path fill="#FFF" d="M-17.5 11.7c0 2.4.8 4.3 2.3 5.7 1.5 1.4 3.6 2.2 6.2 2.2s4.7-.7 6.2-2.2C-1.3 16-.5 14-.5 11.6V9.7c0-2.4-.8-4.2-2.3-5.7C-4.4 2.6-6.4 1.9-9 1.9s-4.6.7-6.2 2.1c-1.6 1.4-2.3 3.4-2.3 5.8v1.9zm5.7-2c0-.9.3-1.6.8-2.2.5-.6 1.2-.8 2.1-.8 1.8 0 2.7 1.2 2.7 3.5v1.6c0 .9-.2 1.6-.7 2.2-.5.6-1.2.9-2.1.9-.9 0-1.5-.3-2-.8-.5-.6-.8-1.3-.8-2.3V9.7zm4.5-25.9l-4.1 2.1L7.1 15.6l4.1-2.1-18.5-29.7zM.6-9.7c0 2.4.8 4.3 2.3 5.7C4.4-2.6 6.5-1.9 9-1.9c2.6 0 4.7-.7 6.2-2.1 1.5-1.4 2.3-3.4 2.3-5.9v-1.8c0-2.4-.8-4.3-2.3-5.7-1.5-1.4-3.6-2.1-6.2-2.1s-4.6.7-6.2 2.1C1.2-16 .5-14 .5-11.6v1.9zm5.6-2c0-.8.3-1.5.8-2.1.6-.6 1.2-.9 2-.9 1.7 0 2.6.8 2.7 2.4v2.7c0 .9-.3 1.7-.8 2.2-.3.5-1 .8-1.9.8-.8 0-1.5-.3-2-.8-.5-.6-.8-1.3-.8-2.2v-2.1z" opacity=".5"/></symbol><symbol id="c" viewBox="-12.6 -18.7 25.2 37.4"><path opacity=".5" fill="#FFF" d="M11.2-.9H3.4C5-.1 6.5.9 7.8 2.2l.2.2h3.2c.8 0 1.4.9 1.4 2.2 0 .5-.1 1-.3 1.4-.3.7-.8.8-1.1.8h-.9c.9 4.5-1.2 9-5.3 10.8-2.1.9-4.6 1.3-7.1 1.1-2.1-.2-5-.8-6.5-2.3-.7-.7-1-3.1-.5-4.2.3-.7.8-.8 1.1-.8.2 0 .3 0 .5.1.5.2 1 .5 1.5.8.4.2.8.5 1.2.6 1.2.5 2.3.8 3.3.9h.9c1.4 0 3.3-.3 4.5-1.7C5 10.6 5 8.4 3.8 6.8h-15c-.8 0-1.4-.9-1.4-2.2 0-1.3.6-2.2 1.4-2.2h7.9C-5.2 1.5-7 .6-8.6-.9h-2.6c-.8 0-1.4-.9-1.4-2.2 0-1.3.6-2.1 1.4-2.1-1.4-5.1 1.5-10.6 6.7-12.6 1.7-.6 3.6-1 5.6-1 .8 0 1.6.1 2.5.2 1.4.2 2.8.5 4.1 1h.1c1 .4 2.4.9 3.1 2 .5.8.7 1.8.4 3.3-.2 1.3-1 1.5-1.3 1.5-.4 0-.8-.2-1.3-.5-2.1-1.4-4.5-2.2-6.7-2.4h-.9c-1.9 0-4.4.4-5.7 2.4-1.3 1.9-1.1 4.4.4 6.1h15.5c.8 0 1.4.9 1.4 2.2S12-.9 11.2-.9z"/></symbol><path fill="#51BAD7" d="M1983 183.2v1097H73l886-598.5 738-498.5"/><g fill="none" stroke="#FFF" stroke-width="2" stroke-miterlimit="10"><path d="M959 73.2v12"/><path stroke-dasharray="24.1429,24.1429" d="M959 109.3v1146.8"/><path d="M959 1268.2v12"/></g><path d="M1697 209.2c-13.8 0-25-11.2-25-25s11.2-25 25-25 25 11.2 25 25-11.2 25-25 25zm0-41c-8.8 0-16 7.2-16 16s7.2 16 16 16 16-7.2 16-16-7.2-16-16-16zm.1 25.8c-5.5 0-9.9-4.4-9.9-9.9s4.4-9.9 9.9-9.9 9.9 4.4 9.9 9.9-4.4 9.9-9.9 9.9zm-.1 515.2c-13.8 0-25-11.2-25-25s11.2-25 25-25 25 11.2 25 25-11.2 25-25 25zm0-41c-8.8 0-16 7.2-16 16s7.2 16 16 16 16-7.2 16-16-7.2-16-16-16zm.1 25.8c-5.5 0-9.9-4.4-9.9-9.9s4.4-9.9 9.9-9.9 9.9 4.4 9.9 9.9-4.4 9.9-9.9 9.9z" fill-rule="evenodd" clip-rule="evenodd" fill="#FFF"/><path opacity=".15" fill="#FFF" d="M959 681.7v598.5H73"/><g opacity=".8"><path fill="none" stroke="#FFF" stroke-width="2" stroke-miterlimit="10" d="M1098 584.2v12"/><path fill="none" stroke="#FFF" stroke-width="2" stroke-miterlimit="10" stroke-dasharray="25,25" d="M1098 621.2v633"/><path fill="none" stroke="#FFF" stroke-width="2" stroke-miterlimit="10" d="M1098 1266.2v12"/><path fill="#FFF" d="M1089.8 1271.7l1.5-1.4 6.7 7.3 6.7-7.3 1.5 1.4-8.2 8.8"/></g><g opacity=".8"><path fill="none" stroke="#FFF" stroke-width="2" stroke-miterlimit="10" d="M1237 492.2v12"/><path fill="none" stroke="#FFF" stroke-width="2" stroke-miterlimit="10" stroke-dasharray="25,25" d="M1237 529.2v725"/><path fill="none" stroke="#FFF" stroke-width="2" stroke-miterlimit="10" d="M1237 1266.2v12"/><path fill="#FFF" d="M1228.8 1271.4l1.5-1.4 6.7 7.2 6.7-7.2 1.5 1.4-8.2 8.8"/></g><g opacity=".8"><path fill="none" stroke="#FFF" stroke-width="2" stroke-miterlimit="10" d="M1376 411.2v12"/><path fill="none" stroke="#FFF" stroke-width="2" stroke-miterlimit="10" stroke-dasharray="24,24" d="M1376 447.2v807"/><path fill="none" stroke="#FFF" stroke-width="2" stroke-miterlimit="10" d="M1376 1266.2v12"/><path fill="#FFF" d="M1367.8 1271.4l1.5-1.4 6.7 7.2 6.7-7.2 1.5 1.4-8.2 8.8"/></g><g opacity=".8"><path fill="none" stroke="#FFF" stroke-width="2" stroke-miterlimit="10" d="M1515 312.2v12"/><path fill="none" stroke="#FFF" stroke-width="2" stroke-miterlimit="10" stroke-dasharray="24,24" d="M1515 348.2v906"/><path fill="none" stroke="#FFF" stroke-width="2" stroke-miterlimit="10" d="M1515 1266.2v12"/><path fill="#FFF" d="M1506.8 1271.4l1.5-1.4 6.7 7.2 6.7-7.2 1.5 1.4-8.2 8.8"/></g><path fill="none" stroke="#B0E81B" stroke-width="16" stroke-linecap="round" stroke-linejoin="round" d="M64 1286.2L1685.6 190.9"/><path fill="#B0E81B" d="M1677.2 221.1l5.5-28.3-28.3-5.4 14.4-9.7 28.2 5.5-5.5 28.2"/><path fill="none" stroke="#FFDE0A" stroke-width="16" stroke-linecap="round" stroke-linejoin="round" d="M64 1286.2l891-602h728.3"/><path fill="#FFDE0A" d="M1659.4 704.5l20.3-20.3-20.3-20.4h17.3l20.3 20.4-20.3 20.3"/><use xlink:href="#a" width="77.4" height="108.6" x="-38.7" y="-54.3" transform="matrix(1 0 0 -1 403 964.5)" overflow="visible"/><use xlink:href="#a" width="77.4" height="108.6" x="-38.7" y="-54.3" transform="matrix(1 0 0 -1 542 869.5)" overflow="visible"/><use xlink:href="#a" width="77.4" height="108.6" x="-38.7" y="-54.3" transform="matrix(1 0 0 -1 681 776.86)" overflow="visible"/><use xlink:href="#b" width="77.4" height="108.6" x="-38.7" y="-54.3" transform="matrix(1 0 0 -1 1098 494.498)" overflow="visible"/><use xlink:href="#b" width="77.4" height="108.6" x="-38.7" y="-54.3" transform="matrix(1 0 0 -1 1237 400.86)" overflow="visible"/><use xlink:href="#b" width="77.4" height="108.6" x="-38.7" y="-54.3" transform="matrix(1 0 0 -1 1377 306.498)" overflow="visible"/><g opacity=".8"><path fill="none" stroke="#FFF" stroke-width="2" stroke-miterlimit="10" d="M403 1067.2v12"/><path fill="none" stroke="#FFF" stroke-width="2" stroke-miterlimit="10" stroke-dasharray="27,27" d="M403 1106.2v146"/><path fill="none" stroke="#FFF" stroke-width="2" stroke-miterlimit="10" d="M403 1266.2v12"/><path fill="#FFF" d="M394.8 1271.4l1.5-1.4 6.7 7.2 6.7-7.2 1.5 1.4-8.2 8.8"/></g><use xlink:href="#a" width="77.4" height="108.6" x="-38.7" y="-54.3" transform="matrix(1 0 0 -1 264 1057.86)" overflow="visible"/><g opacity=".8"><path fill="none" stroke="#FFF" stroke-width="2" stroke-miterlimit="10" d="M264 1160.2v12"/><path fill="none" stroke="#FFF" stroke-width="2" stroke-miterlimit="10" stroke-dasharray="19,19" d="M264 1191.2v65"/><path fill="none" stroke="#FFF" stroke-width="2" stroke-miterlimit="10" d="M264 1266.2v12"/><path fill="#FFF" d="M255.8 1271.4l1.5-1.4 6.7 7.2 6.7-7.2 1.5 1.4-8.2 8.8"/></g><g opacity=".8"><path fill="none" stroke="#FFF" stroke-width="2" stroke-miterlimit="10" d="M542 972.2v12"/><path fill="none" stroke="#FFF" stroke-width="2" stroke-miterlimit="10" stroke-dasharray="26,26" d="M542 1010.2v243"/><path fill="none" stroke="#FFF" stroke-width="2" stroke-miterlimit="10" d="M542 1266.2v12"/><path fill="#FFF" d="M533.8 1271.4l1.5-1.4 6.7 7.2 6.7-7.2 1.5 1.4-8.2 8.8"/></g><g opacity=".8"><path fill="none" stroke="#FFF" stroke-width="2" stroke-miterlimit="10" d="M681 879.2v12"/><path fill="none" stroke="#FFF" stroke-width="2" stroke-miterlimit="10" stroke-dasharray="25,25" d="M681 916.2v337"/><path fill="none" stroke="#FFF" stroke-width="2" stroke-miterlimit="10" d="M681 1266.2v12"/><path fill="#FFF" d="M672.8 1271.4l1.5-1.4 6.7 7.2 6.7-7.2 1.5 1.4-8.2 8.8"/></g><g opacity=".8"><path fill="none" stroke="#FFF" stroke-width="2" stroke-miterlimit="10" d="M820 785.2v12"/><path fill="none" stroke="#FFF" stroke-width="2" stroke-miterlimit="10" stroke-dasharray="25,25" d="M820 822.2v431"/><path fill="none" stroke="#FFF" stroke-width="2" stroke-miterlimit="10" d="M820 1266.2v12"/><path fill="#FFF" d="M811.8 1271.4l1.5-1.4 6.7 7.2 6.7-7.2 1.5 1.4-8.2 8.8"/></g><path fill="none" stroke="#FFF" stroke-width="2" stroke-miterlimit="10" d="M959 689.2v220"/><path fill="#FFF" d="M950.8 902.4l1.5-1.4 6.7 7.2 6.7-7.2 1.5 1.4-8.2 8.8"/><path fill="#CB9573" d="M351.4 683.9s-26.4 9.7-49 16c-22.5 6.3-58.6 8.4-58.6 8.4l36.7 18.8s18.1-5 29.1-13.2c11-8.3 45.4-11 41.8-30z"/><path fill="#E2A881" d="M387 710.3l-57-5.7-86.1 3.7 52.7 18.7s21 2 35.5-2.2c14.5-4.1 52 6.9 54.9-14.5z"/><path fill="#EFB38C" d="M398 750l-58-32.3-134.6-14L299 738s15.6-.3 32.3.9c16.6 1.2 56.2 32.3 66.7 11.1z"/><path fill="#FABD96" d="M266.1 794.6c-14-9-12-14.6-12-14.6l2.7-18.2c10.9-5.9 20.5-21.2 20.5-21.2 4.4 6.5 17.9 7.2 17.9 7.2-1.3 12.5 12.2 21.2 12.2 21.2-17.3 35.2.5 48.6.5 48.6l7.2-18.6 14.7-32.9-27.3-48c-26.5-7-97.4-14.5-97.4-14.5l-45.8-18-5.7 51.9 44.4 16.4c1.5 23.3 33.2 38.1 33.2 38.1l42.6 29.9c.2.2 6.4-18.3-7.7-27.3z"/><path fill="#FDE0D0" d="M314.5 801.5s-2.3-3.1-5.8-2.7c0 0-7.3 11.1.1 16.7l5.7-14zm-57.1 9s0-2.6 3.4-4.5c0 0 13.7 5.3 11.2 14.8l-14.6-10.3z"/><path opacity=".08" d="M201.2 733.2s-6 4.6-3 20.9l-40.6-15.3s-1.5-8 .1-18l43.5 12.4z"/><path fill="#FFF" d="M180.6 685.1l-15.4 68-61.7-17.1 27.9-64.2"/><path fill="#FFDE0A" d="M172.7 676.3l-17.3 84.3L0 743.6V630.2"/><path opacity=".1" d="M160.7 735L0 698v45.6l155.4 17"/><circle fill="#4A401A" cx="118.7" cy="742.5" r="5"/><circle fill="#4A401A" cx="137" cy="746" r="5"/><path fill="#FFDE0A" d="M300.6 850.3c0 6.6-5.8 11.9-13 11.9s-13-5.3-13-11.9v-54.6c0-6.6 5.8-11.9 13-11.9s13 5.3 13 11.9v54.6z"/><g font-size="42"><text transform="rotate(15 -2408.22 350.518)" opacity=".15">клієнт</text><text transform="rotate(15 -2400.49 349.518)" fill="#FFF">клієнт</text></g><g fill="none" stroke="#FFF" stroke-width="2" stroke-miterlimit="10"><path d="M1697 1280.2v-12"/><path stroke-dasharray="23.8444,23.8444" d="M1697 1244.3V207.1"/><path d="M1697 195.2v-12"/></g><path fill="#CB9573" d="M1310.4 98.8s-26.4 9.7-49 16-58.6 8.4-58.6 8.4l36.7 18.8s18.1-5 29.1-13.2c11-8.3 45.4-11 41.8-30z"/><path fill="#E2A881" d="M1346 125.2l-57-5.7-86.1 3.7 52.7 18.7s21 2 35.5-2.2c14.5-4.1 52 6.9 54.9-14.5z"/><path fill="#EFB38C" d="M1357 164.9l-58-32.3-134.6-14 93.6 34.3s15.6-.3 32.3.9c16.6 1.2 56.2 32.3 66.7 11.1z"/><path fill="#FABD96" d="M1225.1 209.5c-14-9-12-14.6-12-14.6l2.7-18.2c10.9-5.9 20.5-21.2 20.5-21.2 4.4 6.5 17.9 7.2 17.9 7.2-1.3 12.5 12.2 21.2 12.2 21.2-17.3 35.2.5 48.6.5 48.6l7.2-18.6 14.7-32.9-27.3-48c-26.5-7-97.4-14.5-97.4-14.5l-45.8-18-5.7 51.9 44.4 16.4c1.5 23.3 33.2 38.1 33.2 38.1L1233 237s6.2-18.5-7.9-27.5z"/><path fill="#FDE0D0" d="M1273.5 216.4s-2.3-3.1-5.8-2.7c0 0-7.3 11.1.1 16.7l5.7-14zm-57.1 8.9s0-2.6 3.4-4.5c0 0 13.7 5.3 11.2 14.8l-14.6-10.3z"/><path opacity=".08" d="M1160.2 148s-6 4.6-3 20.9l-40.6-15.3s-1.5-8 .1-18l43.5 12.4z"/><path fill="#FFF" d="M1139.6 100l-15.4 68-61.7-17.1 27.9-64.2"/><path fill="#B0E81B" d="M1131.7 91.1l-17.3 84.4L959 158.2V44.8"/><path opacity=".1" d="M1119.7 149.9L959 112.6v45.6l155.4 17.3"/><circle fill="#4A401A" cx="1077.7" cy="157.3" r="5"/><circle fill="#4A401A" cx="1096" cy="160.9" r="5"/><g font-size="42"><text transform="rotate(15 341.252 3839.974)" opacity=".15">СК ТАС</text><text transform="rotate(15 349.1 3838.974)" fill="#FFF">СК ТАС</text></g><path fill="#FFDE0A" d="M1260 265.3c0 6.6-5.8 11.9-13 11.9s-13-5.3-13-11.9v-54.6c0-6.6 5.8-11.9 13-11.9s13 5.3 13 11.9v54.6z"/><g><use xlink:href="#c" width="25.2" height="37.4" x="-12.6" y="-18.7" transform="matrix(.7105 0 0 -.7105 1303.065 1189.88)" overflow="visible"/><use xlink:href="#c" width="25.2" height="37.4" x="-12.6" y="-18.7" transform="matrix(1.1403 0 0 -1.1403 1490.66 828.523)" overflow="visible"/><use xlink:href="#c" width="25.2" height="37.4" x="-12.6" y="-18.7" transform="matrix(.6632 0 0 -.6632 1604.172 608.79)" overflow="visible"/><use xlink:href="#c" width="25.2" height="37.4" x="-12.6" y="-18.7" transform="matrix(1.6424 0 0 -1.6424 481.32 1189.978)" overflow="visible"/><use xlink:href="#d" width="35" height="39.1" x="-17.5" y="-19.6" transform="matrix(1.358 0 0 -1.358 1460.52 1061.623)" overflow="visible"/><use xlink:href="#d" width="35" height="39.1" x="-17.5" y="-19.6" transform="matrix(1.1867 0 0 -1.1867 1323.79 591.973)" overflow="visible"/><use xlink:href="#d" width="35" height="39.1" x="-17.5" y="-19.6" transform="matrix(.8858 0 0 -.8858 1013.638 1197.722)" overflow="visible"/><use xlink:href="#d" width="35" height="39.1" x="-17.5" y="-19.6" transform="matrix(.6302 0 0 -.6302 1181.76 876.325)" overflow="visible"/><use xlink:href="#d" width="35" height="39.1" x="-17.5" y="-19.6" transform="matrix(.6302 0 0 -.6302 1671.96 278.504)" overflow="visible"/><use xlink:href="#d" width="35" height="39.1" x="-17.5" y="-19.6" transform="matrix(.6302 0 0 -.6302 664.96 1020.504)" overflow="visible"/></g><g><path opacity=".15" fill="#FFF" d="M959 787.2c-55.1 0-100-44.9-100-100s44.9-100 100-100 100 44.9 100 100-44.9 100-100 100z"/><path opacity=".15" fill="#FFF" d="M958.5 763.2c-42.7 0-77.5-34.5-77.5-77s34.8-77 77.5-77 77.5 34.5 77.5 77c0 42.4-34.8 77-77.5 77z"/><path opacity=".15" fill="#FFF" d="M959 744.2c-31.4 0-57-25.6-57-57s25.6-57 57-57 57 25.6 57 57-25.6 57-57 57z"/><circle fill="#FF715B" cx="959.5" cy="687.7" r="34.5"/><path fill="#FFF" d="M955 671.2h8v32h-8z"/><path fill="#FFF" d="M943 683.2h32v8h-32z"/></g></svg>