<svg class="life-graph" xmlns="http://www.w3.org/2000/svg" xmlns:xlink="http://www.w3.org/1999/xlink" width="1983" height="1221.1" viewBox="0 0 1983 1221.1" font-family="'DINPro-Black'"><symbol id="c" viewBox="-199 -116 398 232"><path fill="#CB9573" d="M152.4 62.3s-26.4-9.7-49-16c-22.5-6.3-58.6-8.4-58.6-8.4l36.7-18.8s18.1 5 29.1 13.2c11 8.3 45.4 10.9 41.8 30z"/><path fill="#E2A881" d="M188 35.8l-57 5.7-86.1-3.7 52.7-18.7s21-2 35.5 2.2 52-6.8 54.9 14.5z"/><path fill="#EFB38C" d="M199-3.9l-58 32.3-134.7 14L99.9 8.1s15.6.3 32.3-.9C148.9 6 188.5-25 199-3.9z"/><path fill="#FABD96" d="M67.1-48.5c-14 9-12 14.6-12 14.6l2.7 18.2c10.9 6 20.6 21.3 20.6 21.3 4.4-6.5 17.9-7.2 17.9-7.2-1.3-12.5 12.2-21.2 12.2-21.2-17.3-35.3.5-48.7.5-48.7l7.2 18.6L131-20l-27.3 48C77.2 35 6.3 42.5 6.3 42.5l-45.8 18-5.7-51.9L-.8-7.9C.7-31.1 32.4-46 32.4-46L75-75.9s6.2 18.5-7.9 27.4z"/><path fill="#FDE0D0" d="M115.5-55.4s-2.3 3.1-5.8 2.7c0 0-7.3-11.1.1-16.7l5.7 14zm-57.1-8.9s0 2.6 3.4 4.5c0 0 13.7-5.3 11.2-14.8L58.4-64.3z"/><path opacity=".08" d="M2.2 13s-6-4.6-3-20.9L-41.4 7.4s-1.5 8 .1 18L2.2 13z"/><path fill="#FFF" d="M-18.4 61.1l-15.4-68-61.7 17.1 27.9 64.2z"/><path fill="#FFDE0A" d="M-26.3 69.9l-17.3-84.3-155.4 17V116z"/><path opacity=".1" d="M-38.3 11.1L-199 48.2V2.6l155.4-17z"/><path fill="#4A401A" d="M-75.2 3.7c0-2.8-2.2-5-5-5s-5 2.2-5 5 2.2 5 5 5c2.7 0 5-2.2 5-5zM-57 .2c0-2.8-2.2-5-5-5s-5 2.2-5 5 2.2 5 5 5 5-2.3 5-5z"/><path fill="#FFDE0A" d="M101.6-104.1c0-6.6-5.8-11.9-13-11.9s-13 5.3-13 11.9v54.6c0 6.6 5.8 11.9 13 11.9s13-5.3 13-11.9v-54.6z"/></symbol><symbol id="d" viewBox="-38.7 -54.3 77.4 108.6"><path fill="#FFDE0A" d="M11.6 32.8v-.2l-24.6-.1.8 1.4 1.4 1.4 19.7.1 5.5 18.8-29.6-.2 4.2-18.3c-3 3.6-10.6 10.9-17.4 8.3l.7-2.1c5.8 2.2 13-5.2 15.5-8-4.2-1.5-9.6-2.6-12.8.2l-1.5-1.6c1.9-1.7 4.3-2.3 6.9-2.3 1.5 0 3 .2 4.5.6C-29 21.3-38.8.1-38.7-16c.1-21.3 17.5-38.5 38.9-38.4 21.4.1 38.6 17.5 38.5 38.8-.1 17.2-11.5 40.2-27.1 48.4z"/><path fill="#FFF" d="M11.1-28.4c-2.1-1.8-4.6-3-7.6-3.5V-38h-6.6v6.1c-3 .5-5.7 1.8-8 3.7-2.8 2.4-4.2 5.2-4.3 8.2l.1 1.7h6.4v-.6c0-2.5.8-4.4 2.4-5.8 1.5-1.3 3.8-2 6.6-2s5.1.7 6.6 2.1C8.2-23.3 9-21.4 9-19c0 2-.7 3.6-2.2 4.8-1.5 1.2-4.2 2.3-8 3.1-4.2 1-7.3 2.4-9.4 4.4-2.1 2-3.3 4.6-3.3 7.6 0 3.5 1.3 6.4 4 8.6 1.8 1.5 4 2.5 6.5 3v5.3h6.6v-5.2c3-.4 5.4-1.4 7.4-3 2.6-2.2 4-5.2 4.2-8.9V0H8.3v.7C8 3.1 7.2 4.8 5.9 5.9 4.7 7 2.8 7.6.4 7.6c-2.5 0-4.5-.6-5.9-1.8-1.4-1.1-2-2.7-2-4.7 0-1.8.6-3.2 1.9-4.2 1.3-1.1 3.6-2 6.8-2.8C5.9-7 9.5-8.6 11.9-10.7c2.4-2.1 3.6-4.9 3.6-8.1 0-3.9-1.5-7.1-4.4-9.6z"/><path opacity=".1" d="M14.4 54.3L0 54.2V35.5h8.9zm-2.8-21.5v-.1L0 32.6v-86.9h.2c21.4.1 38.6 17.5 38.5 38.8-.1 17.1-11.5 40.1-27.1 48.3z"/></symbol><symbol id="e" viewBox="-38.7 -54.3 77.4 108.6"><path fill="#B0E81B" d="M11.6 32.8v-.1l-24.6-.2.8 1.4 1.4 1.4 19.7.1 5.5 18.8-29.6-.2 4.2-18.3c-3 3.6-10.6 10.9-17.4 8.3l.7-2c5.8 2.2 13-5.2 15.5-8-4.2-1.5-9.6-2.6-12.8.2l-1.5-1.7c1.9-1.7 4.3-2.3 6.9-2.3 1.5 0 3 .2 4.5.6C-29 21.3-38.8.1-38.7-16c.1-21.3 17.5-38.5 38.9-38.4 21.4.1 38.6 17.5 38.5 38.8-.1 17.2-11.5 40.2-27.1 48.4z"/><path opacity=".1" d="M14.4 54.3L0 54.2V35.5h8.9zm-2.8-21.5v-.1L0 32.6v-86.9h.2c21.4.1 38.6 17.5 38.5 38.8-.1 17.1-11.5 40.1-27.1 48.3z"/><path fill="#FFF" d="M11.1-28.4c-2.1-1.8-4.6-3-7.6-3.5V-38h-6.6v6.1c-3 .5-5.7 1.8-8 3.7-2.8 2.4-4.2 5.2-4.3 8.2l.1 1.7h6.4v-.6c0-2.5.8-4.4 2.4-5.8 1.5-1.3 3.8-2 6.6-2s5.1.7 6.6 2.1C8.2-23.3 9-21.4 9-19c0 2-.7 3.6-2.2 4.8-1.5 1.2-4.2 2.3-8 3.1-4.2 1-7.3 2.4-9.4 4.4-2.1 2-3.3 4.6-3.3 7.6 0 3.5 1.3 6.4 4 8.6 1.8 1.5 4 2.5 6.5 3v5.3h6.6v-5.2c3-.4 5.4-1.4 7.4-3 2.6-2.2 4-5.2 4.2-8.9V0H8.3v.7C8 3.1 7.2 4.8 5.9 5.9 4.7 7 2.8 7.6.4 7.6c-2.5 0-4.5-.6-5.9-1.8-1.4-1.1-2-2.7-2-4.7 0-1.8.6-3.2 1.9-4.2 1.3-1.1 3.6-2 6.8-2.7C5.9-7 9.5-8.6 11.9-10.7c2.4-2.1 3.6-4.9 3.6-8.1 0-3.9-1.5-7.1-4.4-9.6z"/></symbol><symbol id="b" viewBox="-17.5 -19.6 35 39.1"><path fill="#FFF" d="M-17.5 11.7c0 2.4.8 4.3 2.3 5.7 1.5 1.4 3.6 2.2 6.2 2.2s4.7-.7 6.2-2.2C-1.3 16-.5 14-.5 11.6V9.7c0-2.4-.8-4.2-2.3-5.7C-4.4 2.6-6.4 1.9-9 1.9s-4.6.7-6.2 2.1c-1.6 1.4-2.3 3.4-2.3 5.8v1.9zm5.7-2c0-.9.3-1.6.8-2.2.5-.6 1.2-.8 2.1-.8 1.8 0 2.7 1.2 2.7 3.5v1.6c0 .9-.2 1.6-.7 2.2-.5.6-1.2.9-2.1.9-.9 0-1.5-.3-2-.8-.5-.6-.8-1.3-.8-2.3V9.7zm4.5-25.9l-4.1 2.1L7.1 15.6l4.1-2.1-18.5-29.7zM.6-9.7c0 2.4.8 4.3 2.3 5.7C4.4-2.6 6.5-1.9 9-1.9c2.6 0 4.7-.7 6.2-2.1 1.5-1.4 2.3-3.4 2.3-5.9v-1.8c0-2.4-.8-4.3-2.3-5.7-1.5-1.4-3.6-2.1-6.2-2.1s-4.6.7-6.2 2.1C1.2-16 .5-14 .5-11.6v1.9zm5.6-2c0-.8.3-1.5.8-2.1.6-.6 1.2-.9 2-.9 1.7 0 2.6.8 2.7 2.4v2.7c0 .9-.3 1.7-.8 2.2-.3.5-1 .8-1.9.8-.8 0-1.5-.3-2-.8-.5-.6-.8-1.3-.8-2.2v-2.1z" opacity=".5"/></symbol><symbol id="a" viewBox="-12.6 -18.7 25.2 37.4"><path opacity=".5" fill="#FFF" d="M11.2-.9H3.4C5-.1 6.5.9 7.8 2.2l.2.2h3.2c.8 0 1.4.9 1.4 2.2 0 .5-.1 1-.3 1.4-.3.7-.8.8-1.1.8h-.9c.9 4.5-1.2 9-5.3 10.8-2.1.9-4.6 1.3-7.1 1.1-2.1-.2-5-.8-6.5-2.3-.7-.7-1-3.1-.5-4.2.3-.7.8-.8 1.1-.8.2 0 .3 0 .5.1.5.2 1 .5 1.5.8.4.2.8.5 1.2.6 1.2.5 2.3.8 3.3.9h.9c1.4 0 3.3-.3 4.5-1.7C5 10.6 5 8.4 3.8 6.8h-15c-.8 0-1.4-.9-1.4-2.2 0-1.3.6-2.2 1.4-2.2h7.9C-5.2 1.5-7 .6-8.6-.9h-2.6c-.8 0-1.4-.9-1.4-2.2 0-1.3.6-2.1 1.4-2.1-1.4-5.1 1.5-10.6 6.7-12.6 1.7-.6 3.6-1 5.6-1 .8 0 1.6.1 2.5.2 1.4.2 2.8.5 4.1 1h.1c1 .4 2.4.9 3.1 2 .5.8.7 1.8.4 3.3-.2 1.3-1 1.5-1.3 1.5-.4 0-.8-.2-1.3-.5-2.1-1.4-4.5-2.2-6.7-2.4h-.9c-1.9 0-4.4.4-5.7 2.4-1.3 1.9-1.1 4.4.4 6.1h15.5c.8 0 1.4.9 1.4 2.2S12-.9 11.2-.9z"/></symbol><path fill="#51BAD7" d="M1983 110.1v1097H73l702-575 2-1.6 265-.4 655-520"/><path fill="#1D93C5" d="M776 630.1h266l655-520h-285"/><g fill="none" stroke="#FFF" stroke-width="2" stroke-miterlimit="10"><path d="M775 .1v12"/><path stroke-dasharray="24.1429,24.1429" d="M775 36.2V1183"/><path d="M775 1195.1v12"/></g><g fill="none" stroke="#FFF" stroke-width="2" stroke-miterlimit="10"><path d="M1042 .1v12"/><path stroke-dasharray="24.1429,24.1429" d="M1042 36.2V1183"/><path d="M1042 1195.1v12"/></g><path fill="#CB9573" d="M999.3 194.2s-16.9 6.2-31.2 10.2c-14.4 4-37.4 5.4-37.4 5.4l23.5 12s11.5-3.2 18.6-8.4c6.8-5.3 28.8-7 26.5-19.2z"/><path fill="#E2A881" d="M1022 211.1l-36.4-3.6-55 2.4 33.6 11.9s13.4 1.3 22.7-1.4c9.3-2.7 33.2 4.4 35.1-9.3z"/><path fill="#EFB38C" d="M1029 236.4l-37-20.6-85.9-8.9 59.7 21.9s10-.2 20.6.6c10.6.7 35.9 20.5 42.6 7z"/><path fill="#FABD96" d="M944.8 264.9c-9-5.7-7.7-9.3-7.7-9.3l1.7-11.6c7-3.8 13.1-13.5 13.1-13.5 2.8 4.1 11.5 4.6 11.5 4.6-.8 8 7.8 13.5 7.8 13.5-11.1 22.5.3 31 .3 31l4.6-11.9 9.4-21-17.4-30.6c-16.9-4.4-62.2-9.2-62.2-9.2l-29.2-11.5-3.6 33.1 28.3 10.5c.9 14.8 21.2 24.3 21.2 24.3l27.2 19.1c.1 0 4-11.8-5-17.5z"/><path fill="#FDE0D0" d="M975.7 269.3s-1.4-2-3.7-1.7c0 0-4.6 7.1 0 10.7l3.7-9zm-36.4 5.7s0-1.6 2.2-2.9c0 0 8.7 3.4 7.2 9.4l-9.4-6.5z"/><path opacity=".08" d="M903.4 225.7s-3.8 3-1.9 13.3l-25.9-9.8s-1-5.1.1-11.5l27.7 8z"/><path fill="#FFF" d="M890.2 195l-9.8 43.4-39.4-10.9 17.9-41"/><path fill="#B0E81B" d="M885.2 189.4l-11 53.8-99.2-11.1v-72.3"/><path opacity=".1" d="M877.5 226.9L775 203v29.1l99.2 11.1"/><circle fill="#4A401A" cx="850.8" cy="231.6" r="3.2"/><circle fill="#4A401A" cx="862.4" cy="233.9" r="3.2"/><text transform="rotate(15 -201.956 3175.55)" font-size="42" opacity=".15">СК ТАС</text><text transform="rotate(15 -194.11 3174.55)" fill="#FFF" font-size="42">СК ТАС</text><path fill="#FFDE0A" d="M967.1 300.5c0 4.2-3.7 7.6-8.3 7.6-4.6 0-8.3-3.4-8.3-7.6v-34.9c0-4.2 3.7-7.6 8.3-7.6 4.6 0 8.3 3.4 8.3 7.6v34.9z"/><text transform="rotate(15 382.754 4165.626)" font-size="42" opacity=".15">КЛІЄНТ</text><text transform="rotate(15 390.6 4164.626)" fill="#FFF" font-size="42">КЛІЄНТ</text><path fill="#FFDE0A" d="M1234.1 185.5c0 4.2-3.7 7.6-8.3 7.6-4.6 0-8.3-3.4-8.3-7.6v-34.9c0-4.2 3.7-7.6 8.3-7.6 4.6 0 8.3 3.4 8.3 7.6v34.9z"/><path fill="#1D93C5" d="M1411 110.1h286v1097h-286z"/><path fill-rule="evenodd" clip-rule="evenodd" fill="#FFF" d="M1697 135.1c-13.8 0-25-11.2-25-25s11.2-25 25-25 25 11.2 25 25-11.2 25-25 25zm0-41c-8.8 0-16 7.2-16 16s7.2 16 16 16 16-7.2 16-16-7.2-16-16-16zm.1 25.8c-5.5 0-9.9-4.4-9.9-9.9s4.4-9.9 9.9-9.9 9.9 4.4 9.9 9.9-4.4 9.9-9.9 9.9z"/><g fill="none" stroke="#FFDE0A" stroke-width="1.965" stroke-miterlimit="10"><path d="M1697 1207.1v-11.8"/><path stroke-dasharray="23.8538,23.8538" d="M1697 1171.5V133.8"/><path d="M1697 121.9v-11.8"/></g><g fill="none" stroke="#B0E81B" stroke-width="1.965" stroke-miterlimit="10"><path d="M1411 1207.1v-11.8"/><path stroke-dasharray="23.8538,23.8538" d="M1411 1171.5V133.8"/><path d="M1411 121.9v-11.8"/></g><path opacity=".15" fill="#FFF" d="M775 632.1v575H73"/><path fill-rule="evenodd" clip-rule="evenodd" fill="#FFF" d="M1411 136.1c-13.8 0-25-11.2-25-25s11.2-25 25-25 25 11.2 25 25-11.2 25-25 25zm0-41c-8.8 0-16 7.2-16 16s7.2 16 16 16 16-7.2 16-16-7.2-16-16-16zm.1 25.8c-5.5 0-9.9-4.4-9.9-9.9s4.4-9.9 9.9-9.9 9.9 4.4 9.9 9.9-4.4 9.9-9.9 9.9z"/><path fill="none" stroke="#B0E81B" stroke-width="16" stroke-linejoin="round" stroke-miterlimit="10" d="M64 1213.1l1335-1093"/><path fill="none" stroke="#FFDE0A" stroke-width="16" stroke-linejoin="round" d="M1042 412.1l358.4-293.3"/><path fill="#FFDE0A" d="M1394.8 149.7l2.8-28.7-28.6-2.8 13.4-11 28.6 2.9-2.9 28.6"/><path fill="none" stroke="#FFDE0A" stroke-width="16" stroke-linecap="round" stroke-linejoin="round" d="M64 1213.1l712-583h266l644.3-511.5"/><path fill="#FFDE0A" d="M1680.2 149.4l3.3-28.6-28.6-3.2 13.5-10.8 28.6 3.3-3.3 28.6"/><g opacity=".8"><path fill="none" stroke="#FFF" stroke-width="2" stroke-miterlimit="10" d="M1176 314.1v12"/><path fill="none" stroke="#FFF" stroke-width="2" stroke-miterlimit="10" stroke-dasharray="23,23" d="M1176 349.1v832"/><path fill="none" stroke="#FFF" stroke-width="2" stroke-miterlimit="10" d="M1176 1193.1v12"/><path fill="#FFF" d="M1167.8 1198.3l1.5-1.4 6.7 7.3 6.7-7.3 1.5 1.4-8.2 8.8"/></g><g opacity=".8"><path fill="none" stroke="#FFF" stroke-width="2" stroke-miterlimit="10" d="M908 536.1v12"/><path fill="none" stroke="#FFF" stroke-width="2" stroke-miterlimit="10" stroke-dasharray="24,24" d="M908 572.1v609"/><path fill="none" stroke="#FFF" stroke-width="2" stroke-miterlimit="10" d="M908 1193.1v12"/><path fill="#FFF" d="M899.8 1198.3l1.5-1.4 6.7 7.3 6.7-7.3 1.5 1.4-8.2 8.8"/></g><use xlink:href="#a" width="25.2" height="37.4" x="-12.6" y="-18.7" transform="matrix(.7105 0 0 -.7105 1303.065 1116.796)" overflow="visible"/><use xlink:href="#a" width="25.2" height="37.4" x="-12.6" y="-18.7" transform="matrix(1.1403 0 0 -1.1403 1490.66 755.438)" overflow="visible"/><use xlink:href="#a" width="25.2" height="37.4" x="-12.6" y="-18.7" transform="matrix(.6632 0 0 -.6632 1604.172 535.705)" overflow="visible"/><use xlink:href="#a" width="25.2" height="37.4" x="-12.6" y="-18.7" transform="matrix(1.6424 0 0 -1.6424 481.32 1116.894)" overflow="visible"/><use xlink:href="#b" width="35" height="39.1" x="-17.5" y="-19.6" transform="matrix(1.358 0 0 -1.358 1460.52 988.538)" overflow="visible"/><use xlink:href="#b" width="35" height="39.1" x="-17.5" y="-19.6" transform="matrix(1.1867 0 0 -1.1867 1323.79 518.888)" overflow="visible"/><use xlink:href="#b" width="35" height="39.1" x="-17.5" y="-19.6" transform="matrix(.8858 0 0 -.8858 1013.638 1124.637)" overflow="visible"/><use xlink:href="#b" width="35" height="39.1" x="-17.5" y="-19.6" transform="matrix(.6302 0 0 -.6302 1181.76 803.24)" overflow="visible"/><use xlink:href="#b" width="35" height="39.1" x="-17.5" y="-19.6" transform="matrix(.6302 0 0 -.6302 1671.96 205.42)" overflow="visible"/><use xlink:href="#b" width="35" height="39.1" x="-17.5" y="-19.6" transform="matrix(.6302 0 0 -.6302 664.96 947.42)" overflow="visible"/><path fill="none" stroke="#FF715B" stroke-width="16" stroke-linecap="round" stroke-linejoin="round" stroke-miterlimit="10" d="M776 630.1h266"/><use xlink:href="#c" width="398" height="232" x="-199" y="-116" transform="matrix(1 0 0 -1 199 673.095)" overflow="visible"/><g font-size="42"><text transform="rotate(15 -2125.663 313.977)" opacity=".15">клієнт</text><text transform="rotate(15 -2117.93 312.977)" fill="#FFF">клієнт</text></g><use xlink:href="#d" width="77.4" height="108.6" x="-38.7" y="-54.3" transform="matrix(1 0 0 -1 544 723.774)" overflow="visible"/><use xlink:href="#e" width="77.4" height="108.6" x="-38.7" y="-54.3" transform="matrix(1 0 0 -1 908 426.093)" overflow="visible"/><use xlink:href="#d" width="77.4" height="108.6" x="-38.7" y="-54.3" transform="matrix(1 0 0 -1 1176 206.095)" overflow="visible"/><use xlink:href="#d" width="77.4" height="108.6" x="-38.7" y="-54.3" transform="matrix(1 0 0 -1 313 912.774)" overflow="visible"/><g><path opacity=".15" fill="#FFF" d="M774 729.1c-55.1 0-100-44.9-100-100s44.9-100 100-100 100 44.9 100 100-44.9 100-100 100z"/><path opacity=".15" fill="#FFF" d="M773.5 705.1c-42.7 0-77.5-34.5-77.5-77s34.8-77 77.5-77 77.5 34.5 77.5 77-34.8 77-77.5 77z"/><path opacity=".15" fill="#FFF" d="M774 686.1c-31.4 0-57-25.6-57-57s25.6-57 57-57 57 25.6 57 57-25.6 57-57 57z"/><circle fill="#FF715B" cx="774.5" cy="629.6" r="34.5"/><path fill="#FFF" d="M770 613.1h8v32h-8z"/><path fill="#FFF" d="M758 625.1h32v8h-32z"/></g><g><path opacity=".15" fill="#FFF" d="M1042 729.1c-55.1 0-100-44.9-100-100s44.9-100 100-100 100 44.9 100 100-44.9 100-100 100z"/><path opacity=".15" fill="#FFF" d="M1041.5 705.1c-42.7 0-77.5-34.5-77.5-77s34.8-77 77.5-77 77.5 34.5 77.5 77-34.8 77-77.5 77z"/><path opacity=".15" fill="#FFF" d="M1042 686.1c-31.4 0-57-25.6-57-57s25.6-57 57-57 57 25.6 57 57-25.6 57-57 57z"/><circle fill="#FFDE0A" cx="1042.5" cy="629.6" r="34.5"/><path fill="none" stroke="#FFF" stroke-width="6" stroke-linecap="round" stroke-linejoin="round" stroke-miterlimit="10" d="M1030 632.1l9 9 15-24"/></g><g opacity=".8"><path fill="none" stroke="#FFF" stroke-width="2" stroke-miterlimit="10" d="M544 830.1v12"/><path fill="none" stroke="#FFF" stroke-width="2" stroke-miterlimit="10" stroke-dasharray="23,23" d="M544 865.1v316"/><path fill="none" stroke="#FFF" stroke-width="2" stroke-miterlimit="10" d="M544 1193.1v12"/><path fill="#FFF" d="M535.8 1198.3l1.5-1.4 6.7 7.3 6.7-7.3 1.5 1.4-8.2 8.8"/></g><g opacity=".8"><path fill="none" stroke="#FFF" stroke-width="2" stroke-miterlimit="10" d="M313 1019.1v12"/><path fill="none" stroke="#FFF" stroke-width="2" stroke-miterlimit="10" stroke-dasharray="23,23" d="M313 1054.1v127"/><path fill="none" stroke="#FFF" stroke-width="2" stroke-miterlimit="10" d="M313 1193.1v12"/><path fill="#FFF" d="M304.8 1198.3l1.5-1.4 6.7 7.3 6.7-7.3 1.5 1.4-8.2 8.8"/></g><g><path fill="none" stroke="#FFF" stroke-width="2" stroke-miterlimit="10" d="M775 649.1v220"/><path fill="#FFF" d="M766.8 862.3l1.5-1.4 6.7 7.3 6.7-7.3 1.5 1.4-8.2 8.8"/></g><use xlink:href="#c" width="398" height="232" x="-199" y="-116" transform="matrix(.6382 0 0 -.6382 1169 119.064)" overflow="visible"/></svg>