<svg class="life-graph" xmlns="http://www.w3.org/2000/svg" xmlns:xlink="http://www.w3.org/1999/xlink" width="1983" height="965.1" viewBox="0 0 1983 965.1" font-family="'DINPro-Black'"><symbol id="a" viewBox="-175 -102 350 204"><path fill="#CB9573" d="M134 54.8s-23.2-8.5-43.1-14.1c-19.8-5.6-51.5-7.4-51.5-7.4l32.3-16.5s15.9 4.4 25.6 11.6c9.7 7.3 39.9 9.6 36.7 26.4z"/><path fill="#E2A881" d="M165.3 31.5l-50.1 5-75.7-3.3 46.3-16.5s18.4-1.8 31.2 1.9c12.8 3.8 45.8-5.9 48.3 12.9z"/><path fill="#EFB38C" d="M175-3.4L124 25 5.6 37.3 87.8 7.1s13.7.2 28.4-.8C131 5.3 165.8-22 175-3.4z"/><path fill="#FABD96" d="M59-42.6c-12.3 7.9-10.5 12.9-10.5 12.9l2.4 16C60.5-8.5 68.9 5 68.9 5c3.9-5.7 15.8-6.3 15.8-6.3-1.1-11 10.8-18.6 10.8-18.6-15.3-31 .4-42.8.4-42.8l6.4 16.3 13 28.9-24 42.2C68 30.7 5.6 37.3 5.6 37.3l-40.3 15.8-5-45.6 39-14.4C.6-27.3 28.5-40.4 28.5-40.4L66-66.8s5.4 16.3-7 24.2z"/><path fill="#FDE0D0" d="M101.6-48.7s-2 2.8-5.1 2.3c0 0-6.4-9.7.1-14.7l5 12.4zm-50.2-7.8s0 2.2 3 4c0 0 12-4.6 9.9-13l-12.9 9z"/><path opacity=".08" d="M1.9 11.4S-3.3 7.3-.7-7L-36.4 6.5s-1.3 7 .1 15.8L1.9 11.4z"/><path fill="#FFF" d="M-16.2 53.7L-29.7-6.1-84 8.9l24.6 56.5z"/><path fill="#FFDE0A" d="M-23.1 61.5l-15.2-74.2-136.7 15V102z"/><path opacity=".1" d="M-33.7 9.8L-175 42.4V2.3l136.7-15z"/><path fill="#4A401A" d="M-66.2 3.3c0-2.4-2-4.4-4.4-4.4-2.4 0-4.4 2-4.4 4.4 0 2.4 2 4.4 4.4 4.4 2.5 0 4.4-2 4.4-4.4zM-50.1.1c0-2.4-2-4.4-4.4-4.4-2.4 0-4.4 2-4.4 4.4 0 2.4 2 4.4 4.4 4.4 2.4 0 4.4-1.9 4.4-4.4z"/><path fill="#FFDE0A" d="M89.3-91.6c0-5.8-5.1-10.4-11.4-10.4-6.3 0-11.4 4.7-11.4 10.4v48.1c0 5.8 5.1 10.4 11.4 10.4 6.3 0 11.4-4.7 11.4-10.4v-48.1z"/></symbol><symbol id="d" viewBox="-38.7 -54.3 77.4 108.6"><path fill="#FFDE0A" d="M11.6 32.8v-.2l-24.6-.1.8 1.4 1.4 1.4 19.7.1 5.5 18.8-29.6-.2 4.2-18.3c-3 3.6-10.6 10.9-17.4 8.3l.7-2.1c5.8 2.2 13-5.2 15.5-8-4.2-1.5-9.6-2.6-12.8.2l-1.5-1.6c1.9-1.7 4.3-2.3 6.9-2.3 1.5 0 3 .2 4.5.6C-29 21.3-38.8.1-38.7-16c.1-21.3 17.5-38.5 38.9-38.4 21.4.1 38.6 17.5 38.5 38.8-.1 17.2-11.5 40.2-27.1 48.4z"/><path fill="#FFF" d="M11.1-28.4c-2.1-1.8-4.6-3-7.6-3.5V-38h-6.6v6.1c-3 .5-5.7 1.8-8 3.7-2.8 2.4-4.2 5.2-4.3 8.2l.1 1.7h6.4v-.6c0-2.5.8-4.4 2.4-5.8 1.5-1.3 3.8-2 6.6-2s5.1.7 6.6 2.1C8.2-23.3 9-21.4 9-19c0 2-.7 3.6-2.2 4.8-1.5 1.2-4.2 2.3-8 3.1-4.2 1-7.3 2.4-9.4 4.4-2.1 2-3.3 4.6-3.3 7.6 0 3.5 1.3 6.4 4 8.6 1.8 1.5 4 2.5 6.5 3v5.3h6.6v-5.2c3-.4 5.4-1.4 7.4-3 2.6-2.2 4-5.2 4.2-8.9V0H8.3v.7C8 3.1 7.2 4.8 5.9 5.9 4.7 7 2.8 7.6.4 7.6c-2.5 0-4.5-.6-5.9-1.8-1.4-1.1-2-2.7-2-4.7 0-1.8.6-3.2 1.9-4.2 1.3-1.1 3.6-2 6.8-2.8C5.9-7 9.5-8.6 11.9-10.7c2.4-2.1 3.6-4.9 3.6-8.1 0-3.9-1.5-7.1-4.4-9.6z"/><path opacity=".1" d="M14.4 54.3L0 54.2V35.5h8.9zm-2.8-21.5v-.1L0 32.6v-86.9h.2c21.4.1 38.6 17.5 38.5 38.8-.1 17.1-11.5 40.1-27.1 48.3z"/></symbol><symbol id="e" viewBox="-38.7 -54.3 77.4 108.6"><path fill="#B0E81B" d="M11.6 32.8v-.1l-24.6-.2.8 1.4 1.4 1.4 19.7.1 5.5 18.8-29.6-.2 4.2-18.3c-3 3.6-10.6 10.9-17.4 8.3l.7-2c5.8 2.2 13-5.2 15.5-8-4.2-1.5-9.6-2.6-12.8.2l-1.5-1.7c1.9-1.7 4.3-2.3 6.9-2.3 1.5 0 3 .2 4.5.6C-29 21.3-38.8.1-38.7-16c.1-21.3 17.5-38.5 38.9-38.4 21.4.1 38.6 17.5 38.5 38.8-.1 17.2-11.5 40.2-27.1 48.4z"/><path opacity=".1" d="M14.4 54.3L0 54.2V35.5h8.9zm-2.8-21.5v-.1L0 32.6v-86.9h.2c21.4.1 38.6 17.5 38.5 38.8-.1 17.1-11.5 40.1-27.1 48.3z"/><path fill="#FFF" d="M11.1-28.4c-2.1-1.8-4.6-3-7.6-3.5V-38h-6.6v6.1c-3 .5-5.7 1.8-8 3.7-2.8 2.4-4.2 5.2-4.3 8.2l.1 1.7h6.4v-.6c0-2.5.8-4.4 2.4-5.8 1.5-1.3 3.8-2 6.6-2s5.1.7 6.6 2.1C8.2-23.3 9-21.4 9-19c0 2-.7 3.6-2.2 4.8-1.5 1.2-4.2 2.3-8 3.1-4.2 1-7.3 2.4-9.4 4.4-2.1 2-3.3 4.6-3.3 7.6 0 3.5 1.3 6.4 4 8.6 1.8 1.5 4 2.5 6.5 3v5.3h6.6v-5.2c3-.4 5.4-1.4 7.4-3 2.6-2.2 4-5.2 4.2-8.9V0H8.3v.7C8 3.1 7.2 4.8 5.9 5.9 4.7 7 2.8 7.6.4 7.6c-2.5 0-4.5-.6-5.9-1.8-1.4-1.1-2-2.7-2-4.7 0-1.8.6-3.2 1.9-4.2 1.3-1.1 3.6-2 6.8-2.7C5.9-7 9.5-8.6 11.9-10.7c2.4-2.1 3.6-4.9 3.6-8.1 0-3.9-1.5-7.1-4.4-9.6z"/></symbol><symbol id="c" viewBox="-17.5 -19.6 35 39.1"><path fill="#FFF" d="M-17.5 11.7c0 2.4.8 4.3 2.3 5.7 1.5 1.4 3.6 2.2 6.2 2.2s4.7-.7 6.2-2.2C-1.3 16-.5 14-.5 11.6V9.7c0-2.4-.8-4.2-2.3-5.7C-4.4 2.6-6.4 1.9-9 1.9s-4.6.7-6.2 2.1c-1.6 1.4-2.3 3.4-2.3 5.8v1.9zm5.7-2c0-.9.3-1.6.8-2.2.5-.6 1.2-.8 2.1-.8 1.8 0 2.7 1.2 2.7 3.5v1.6c0 .9-.2 1.6-.7 2.2-.5.6-1.2.9-2.1.9-.9 0-1.5-.3-2-.8-.5-.6-.8-1.3-.8-2.3V9.7zm4.5-25.9l-4.1 2.1L7.1 15.6l4.1-2.1-18.5-29.7zM.6-9.7c0 2.4.8 4.3 2.3 5.7C4.4-2.6 6.5-1.9 9-1.9c2.6 0 4.7-.7 6.2-2.1 1.5-1.4 2.3-3.4 2.3-5.9v-1.8c0-2.4-.8-4.3-2.3-5.7-1.5-1.4-3.6-2.1-6.2-2.1s-4.6.7-6.2 2.1C1.2-16 .5-14 .5-11.6v1.9zm5.6-2c0-.8.3-1.5.8-2.1.6-.6 1.2-.9 2-.9 1.7 0 2.6.8 2.7 2.4v2.7c0 .9-.3 1.7-.8 2.2-.3.5-1 .8-1.9.8-.8 0-1.5-.3-2-.8-.5-.6-.8-1.3-.8-2.2v-2.1z" opacity=".5"/></symbol><symbol id="b" viewBox="-12.6 -18.7 25.2 37.4"><path opacity=".5" fill="#FFF" d="M11.2-.9H3.4C5-.1 6.5.9 7.8 2.2l.2.2h3.2c.8 0 1.4.9 1.4 2.2 0 .5-.1 1-.3 1.4-.3.7-.8.8-1.1.8h-.9c.9 4.5-1.2 9-5.3 10.8-2.1.9-4.6 1.3-7.1 1.1-2.1-.2-5-.8-6.5-2.3-.7-.7-1-3.1-.5-4.2.3-.7.8-.8 1.1-.8.2 0 .3 0 .5.1.5.2 1 .5 1.5.8.4.2.8.5 1.2.6 1.2.5 2.3.8 3.3.9h.9c1.4 0 3.3-.3 4.5-1.7C5 10.6 5 8.4 3.8 6.8h-15c-.8 0-1.4-.9-1.4-2.2 0-1.3.6-2.2 1.4-2.2h7.9C-5.2 1.5-7 .6-8.6-.9h-2.6c-.8 0-1.4-.9-1.4-2.2 0-1.3.6-2.1 1.4-2.1-1.4-5.1 1.5-10.6 6.7-12.6 1.7-.6 3.6-1 5.6-1 .8 0 1.6.1 2.5.2 1.4.2 2.8.5 4.1 1h.1c1 .4 2.4.9 3.1 2 .5.8.7 1.8.4 3.3-.2 1.3-1 1.5-1.3 1.5-.4 0-.8-.2-1.3-.5-2.1-1.4-4.5-2.2-6.7-2.4h-.9c-1.9 0-4.4.4-5.7 2.4-1.3 1.9-1.1 4.4.4 6.1h15.5c.8 0 1.4.9 1.4 2.2S12-.9 11.2-.9z"/></symbol><path fill="#51BAD7" d="M1983 110.1v841H73l702-437.8 2-1.2 265-.4 655-401.6"/><path fill="#1D93C5" d="M776 510.1h266l655-400h-285"/><g fill="none" stroke="#FFF" stroke-width="2" stroke-miterlimit="10"><path d="M775 .1v12"/><path stroke-dasharray="23.7692,23.7692" d="M775 35.9v891.3"/><path d="M775 939.1v12"/></g><g fill="none" stroke="#FFF" stroke-width="2" stroke-miterlimit="10"><path d="M1042 .1v12"/><path stroke-dasharray="23.7692,23.7692" d="M1042 35.9v891.3"/><path d="M1042 939.1v12"/></g><path fill="#CB9573" d="M978.1 191s-15.3 5.6-28.3 9.3c-13 3.7-33.9 4.9-33.9 4.9l21.2 10.8s10.4-2.9 16.8-7.6c6.4-4.9 26.3-6.4 24.2-17.4z"/><path fill="#E2A881" d="M998.6 206.3l-32.9-3.3-49.8 2.1 30.5 10.8s12.1 1.2 20.5-1.2c8.4-2.5 30.1 3.9 31.7-8.4z"/><path fill="#EFB38C" d="M1005 229.2l-33.5-18.7-77.8-8.1 54.1 19.8s9-.2 18.7.5c9.6.8 32.4 18.7 38.5 6.5z"/><path fill="#FABD96" d="M928.8 255c-8.1-5.2-6.9-8.5-6.9-8.5l1.6-10.5c6.3-3.4 11.9-12.3 11.9-12.3 2.5 3.7 10.4 4.2 10.4 4.2-.8 7.2 7.1 12.3 7.1 12.3-10 20.4.3 28.1.3 28.1l4.2-10.7 8.5-19-15.7-27.7c-15.3-4-56.3-8.4-56.3-8.4l-26.5-10.4-3.3 30 25.7 9.5c.8 13.4 19.2 22 19.2 22l24.6 17.3c-.3 0 3.3-10.7-4.8-15.9z"/><path fill="#FDE0D0" d="M956.8 259s-1.3-1.8-3.4-1.5c0 0-4.2 6.4 0 9.7l3.4-8.2zm-33.1 5.1s0-1.5 2-2.6c0 0 7.9 3 6.5 8.6l-8.5-6z"/><path opacity=".08" d="M891.3 219.5s-3.4 2.7-1.7 12.1l-23.5-8.8s-.9-4.6.1-10.4l25.1 7.1z"/><path fill="#FFF" d="M879.3 191.7l-8.8 39.3-35.7-9.9 16.1-37.1"/><path fill="#B0E81B" d="M874.8 186.6l-10 48.7-89.8-10v-65.5"/><path opacity=".1" d="M867.8 220.5L775 199v26.3l89.8 10"/><circle fill="#4A401A" cx="843.6" cy="224.8" r="2.9"/><circle fill="#4A401A" cx="854.2" cy="226.9" r="2.9"/><text transform="rotate(14.525 -201.956 3175.55)" font-size="42" opacity=".15">СК ТАС</text><text transform="rotate(14.525 -194.11 3174.55)" fill="#FFF" font-size="42">СК ТАС</text><path fill="#FFDE0A" d="M948.9 287.2c0 3.8-3.4 6.9-7.5 6.9s-7.5-3.1-7.5-6.9v-31.6c0-3.8 3.4-6.9 7.5-6.9s7.5 3.1 7.5 6.9v31.6z"/><text transform="rotate(14.525 382.754 4165.626)" font-size="42" opacity=".15">КЛІЄНТ</text><text transform="rotate(14.525 390.6 4164.626)" fill="#FFF" font-size="42">КЛІЄНТ</text><use xlink:href="#a" width="350" height="204" x="-175" y="-102" transform="matrix(.657 0 0 -.657 1157 112.045)" overflow="visible"/><path fill="#1D93C5" d="M1411 110.1h286v841h-286z"/><path fill-rule="evenodd" clip-rule="evenodd" fill="#FFF" d="M1697 135.1c-13.8 0-25-11.2-25-25s11.2-25 25-25 25 11.2 25 25-11.2 25-25 25zm0-41c-8.8 0-16 7.2-16 16s7.2 16 16 16 16-7.2 16-16-7.2-16-16-16zm.1 25.8c-5.5 0-9.9-4.4-9.9-9.9s4.4-9.9 9.9-9.9 9.9 4.4 9.9 9.9-4.4 9.9-9.9 9.9z"/><g fill="none" stroke="#FFDE0A" stroke-width="1.965" stroke-miterlimit="10"><path d="M1697 951.1v-11.8"/><path stroke-dasharray="23.3549,23.3549" d="M1697 916V133.6"/><path d="M1697 121.9v-11.8"/></g><g fill="none" stroke="#B0E81B" stroke-width="1.965" stroke-miterlimit="10"><path d="M1411 951.1v-11.8"/><path stroke-dasharray="23.3549,23.3549" d="M1411 916V133.6"/><path d="M1411 121.9v-11.8"/></g><path opacity=".15" fill="#FFF" d="M775 513.3v437.8H73"/><path fill-rule="evenodd" clip-rule="evenodd" fill="#FFF" d="M1411 136.1c-13.8 0-25-11.2-25-25s11.2-25 25-25 25 11.2 25 25-11.2 25-25 25zm0-41c-8.8 0-16 7.2-16 16s7.2 16 16 16 16-7.2 16-16-7.2-16-16-16zm.1 25.8c-5.5 0-9.9-4.4-9.9-9.9s4.4-9.9 9.9-9.9 9.9 4.4 9.9 9.9-4.4 9.9-9.9 9.9z"/><path fill="none" stroke="#B0E81B" stroke-width="16" stroke-linejoin="round" stroke-miterlimit="10" d="M64 957.1l1335-837"/><path fill="none" stroke="#FFDE0A" stroke-width="16" stroke-linejoin="round" d="M1042 344.1l357.4-223.7"/><path fill="#FFDE0A" d="M1389.9 150.3l6.5-28-28.1-6.5 14.7-9.2 28 6.5-6.4 28"/><path fill="none" stroke="#FFDE0A" stroke-width="16" stroke-linecap="round" stroke-linejoin="round" d="M64 957.1l712-446h266l643.3-393.8"/><path fill="#FFDE0A" d="M1675.5 147.1l6.8-28-28-6.7 14.7-9 28 6.7-6.7 28"/><g opacity=".8"><path fill="none" stroke="#FFF" stroke-width="2" stroke-miterlimit="10" d="M1176 270.1v12"/><path fill="none" stroke="#FFF" stroke-width="2" stroke-miterlimit="10" stroke-dasharray="24,24" d="M1176 306.1v619"/><path fill="none" stroke="#FFF" stroke-width="2" stroke-miterlimit="10" d="M1176 937.1v12"/><path fill="#FFF" d="M1167.8 942.3l1.5-1.4 6.7 7.3 6.7-7.3 1.5 1.4-8.2 8.8"/></g><g opacity=".8"><path fill="none" stroke="#FFF" stroke-width="2" stroke-miterlimit="10" d="M908 438.1v12"/><path fill="none" stroke="#FFF" stroke-width="2" stroke-miterlimit="10" stroke-dasharray="23,23" d="M908 473.1v452"/><path fill="none" stroke="#FFF" stroke-width="2" stroke-miterlimit="10" d="M908 937.1v12"/><path fill="#FFF" d="M899.8 942.3l1.5-1.4 6.7 7.3 6.7-7.3 1.5 1.4-8.2 8.8"/></g><use xlink:href="#b" width="25.2" height="37.4" x="-12.6" y="-18.7" transform="matrix(.7105 0 0 -.7105 1308.327 817.82)" overflow="visible"/><use xlink:href="#b" width="25.2" height="37.4" x="-12.6" y="-18.7" transform="matrix(1.1403 0 0 -1.1403 1490.66 681.44)" overflow="visible"/><use xlink:href="#b" width="25.2" height="37.4" x="-12.6" y="-18.7" transform="matrix(.6632 0 0 -.6632 1604.172 461.706)" overflow="visible"/><use xlink:href="#b" width="25.2" height="37.4" x="-12.6" y="-18.7" transform="matrix(1.6424 0 0 -1.6424 425.347 805.838)" overflow="visible"/><use xlink:href="#c" width="35" height="39.1" x="-17.5" y="-19.6" transform="matrix(1.358 0 0 -1.358 1745.788 867.65)" overflow="visible"/><use xlink:href="#c" width="35" height="39.1" x="-17.5" y="-19.6" transform="matrix(1.1867 0 0 -1.1867 1323.79 444.89)" overflow="visible"/><use xlink:href="#c" width="35" height="39.1" x="-17.5" y="-19.6" transform="matrix(.8858 0 0 -.8858 642.52 716.773)" overflow="visible"/><use xlink:href="#c" width="35" height="39.1" x="-17.5" y="-19.6" transform="matrix(.6302 0 0 -.6302 1107.803 724.622)" overflow="visible"/><use xlink:href="#c" width="35" height="39.1" x="-17.5" y="-19.6" transform="matrix(.6302 0 0 -.6302 1671.96 194.42)" overflow="visible"/><use xlink:href="#c" width="35" height="39.1" x="-17.5" y="-19.6" transform="matrix(.6302 0 0 -.6302 664.96 873.42)" overflow="visible"/><path fill="none" stroke="#FF715B" stroke-width="16" stroke-linecap="round" stroke-linejoin="round" stroke-miterlimit="10" d="M776 511.1h266"/><g><use xlink:href="#a" width="350" height="204" x="-175" y="-102" transform="matrix(1 0 0 -1 175 597.085)" overflow="visible"/><text transform="rotate(14.738 -1885.882 282.967)" font-size="42" opacity=".15">клієнт</text><text transform="rotate(14.738 -1878.15 281.968)" fill="#FFF" font-size="42">клієнт</text></g><use xlink:href="#d" width="77.4" height="108.6" x="-38.7" y="-54.3" transform="matrix(.7754 0 0 -.7754 544 579.095)" overflow="visible"/><use xlink:href="#e" width="77.4" height="108.6" x="-38.7" y="-54.3" transform="matrix(.7754 0 0 -.7754 908 351.095)" overflow="visible"/><use xlink:href="#d" width="77.4" height="108.6" x="-38.7" y="-54.3" transform="matrix(.7754 0 0 -.7754 313 724.095)" overflow="visible"/><g><path fill="none" stroke="#FFF" stroke-width="2" stroke-miterlimit="10" d="M775 527.1v146"/><path fill="#FFF" d="M766.8 666.3l1.5-1.4 6.7 7.3 6.7-7.3 1.5 1.4-8.2 8.8"/></g><g><path opacity=".15" fill="#FFF" d="M775 610.1c-55.1 0-100-44.9-100-100s44.9-100 100-100 100 44.9 100 100-44.9 100-100 100z"/><path opacity=".15" fill="#FFF" d="M774.5 586.1c-42.7 0-77.5-34.5-77.5-77s34.8-77 77.5-77 77.5 34.5 77.5 77-34.8 77-77.5 77z"/><path opacity=".15" fill="#FFF" d="M775 567.1c-31.4 0-57-25.6-57-57s25.6-57 57-57 57 25.6 57 57-25.6 57-57 57z"/><circle fill="#FF715B" cx="775.5" cy="510.6" r="34.5"/><path fill="#FFF" d="M771 494.1h8v32h-8z"/><path fill="#FFF" d="M759 506.1h32v8h-32z"/></g><g><path opacity=".15" fill="#FFF" d="M1042 610.1c-55.1 0-100-44.9-100-100s44.9-100 100-100 100 44.9 100 100-44.9 100-100 100z"/><path opacity=".15" fill="#FFF" d="M1041.5 586.1c-42.7 0-77.5-34.5-77.5-77s34.8-77 77.5-77 77.5 34.5 77.5 77-34.8 77-77.5 77z"/><path opacity=".15" fill="#FFF" d="M1042 567.1c-31.4 0-57-25.6-57-57s25.6-57 57-57 57 25.6 57 57-25.6 57-57 57z"/><circle fill="#FFDE0A" cx="1042.5" cy="510.6" r="34.5"/><path fill="none" stroke="#FFF" stroke-width="6" stroke-linecap="round" stroke-linejoin="round" stroke-miterlimit="10" d="M1030 513.1l9 9 15-24"/></g><g opacity=".8"><path fill="none" stroke="#FFF" stroke-width="2" stroke-miterlimit="10" d="M544 666.1v12"/><path fill="none" stroke="#FFF" stroke-width="2" stroke-miterlimit="10" stroke-dasharray="24,24" d="M544 702.1v223"/><path fill="none" stroke="#FFF" stroke-width="2" stroke-miterlimit="10" d="M544 937.1v12"/><path fill="#FFF" d="M535.8 942.3l1.5-1.4 6.7 7.3 6.7-7.3 1.5 1.4-8.2 8.8"/></g><g opacity=".8"><path fill="none" stroke="#FFF" stroke-width="2" stroke-miterlimit="10" d="M313 810.1v12"/><path fill="none" stroke="#FFF" stroke-width="2" stroke-miterlimit="10" stroke-dasharray="23,23" d="M313 845.1v80"/><path fill="none" stroke="#FFF" stroke-width="2" stroke-miterlimit="10" d="M313 937.1v12"/><path fill="#FFF" d="M304.8 942.3l1.5-1.4 6.7 7.3 6.7-7.3 1.5 1.4-8.2 8.8"/></g></svg>