<svg class="life-graph" xmlns="http://www.w3.org/2000/svg" xmlns:xlink="http://www.w3.org/1999/xlink" width="1983" height="1038.2" viewBox="0 0 1983 1038.2" font-family="'DINPro-Black'"><symbol id="a" viewBox="-38.7 -54.3 77.4 108.6"><path fill="#FFDE0A" d="M11.6 32.8v-.2l-24.6-.1.8 1.4 1.4 1.4 19.7.1 5.5 18.8-29.6-.2 4.2-18.3c-3 3.6-10.6 10.9-17.4 8.3l.7-2.1c5.8 2.2 13-5.2 15.5-8-4.2-1.5-9.6-2.6-12.8.2l-1.5-1.6c1.9-1.7 4.3-2.3 6.9-2.3 1.5 0 3 .2 4.5.6C-29 21.3-38.8.1-38.7-16c.1-21.3 17.5-38.5 38.9-38.4 21.4.1 38.6 17.5 38.5 38.8-.1 17.2-11.5 40.2-27.1 48.4z"/><path fill="#FFF" d="M11.1-28.4c-2.1-1.8-4.6-3-7.6-3.5V-38h-6.6v6.1c-3 .5-5.7 1.8-8 3.7-2.8 2.4-4.2 5.2-4.3 8.2l.1 1.7h6.4v-.6c0-2.5.8-4.4 2.4-5.8 1.5-1.3 3.8-2 6.6-2s5.1.7 6.6 2.1C8.2-23.3 9-21.4 9-19c0 2-.7 3.6-2.2 4.8-1.5 1.2-4.2 2.3-8 3.1-4.2 1-7.3 2.4-9.4 4.4-2.1 2-3.3 4.6-3.3 7.6 0 3.5 1.3 6.4 4 8.6 1.8 1.5 4 2.5 6.5 3v5.3h6.6v-5.2c3-.4 5.4-1.4 7.4-3 2.6-2.2 4-5.2 4.2-8.9V0H8.3v.7C8 3.1 7.2 4.8 5.9 5.9 4.7 7 2.8 7.6.4 7.6c-2.5 0-4.5-.6-5.9-1.8-1.4-1.1-2-2.7-2-4.7 0-1.8.6-3.2 1.9-4.2 1.3-1.1 3.6-2 6.8-2.8C5.9-7 9.5-8.6 11.9-10.7c2.4-2.1 3.6-4.9 3.6-8.1 0-3.9-1.5-7.1-4.4-9.6z"/><path opacity=".1" d="M14.4 54.3L0 54.2V35.5h8.9zm-2.8-21.5v-.1L0 32.6v-86.9h.2c21.4.1 38.6 17.5 38.5 38.8-.1 17.1-11.5 40.1-27.1 48.3z"/></symbol><symbol id="b" viewBox="-38.7 -54.3 77.4 108.6"><path fill="#B0E81B" d="M11.6 32.8v-.1l-24.6-.2.8 1.4 1.4 1.4 19.7.1 5.5 18.8-29.6-.2 4.2-18.3c-3 3.6-10.6 10.9-17.4 8.3l.7-2c5.8 2.2 13-5.2 15.5-8-4.2-1.5-9.6-2.6-12.8.2l-1.5-1.7c1.9-1.7 4.3-2.3 6.9-2.3 1.5 0 3 .2 4.5.6C-29 21.3-38.8.1-38.7-16c.1-21.3 17.5-38.5 38.9-38.4 21.4.1 38.6 17.5 38.5 38.8-.1 17.2-11.5 40.2-27.1 48.4z"/><path opacity=".1" d="M14.4 54.3L0 54.2V35.5h8.9zm-2.8-21.5v-.1L0 32.6v-86.9h.2c21.4.1 38.6 17.5 38.5 38.8-.1 17.1-11.5 40.1-27.1 48.3z"/><path fill="#FFF" d="M11.1-28.4c-2.1-1.8-4.6-3-7.6-3.5V-38h-6.6v6.1c-3 .5-5.7 1.8-8 3.7-2.8 2.4-4.2 5.2-4.3 8.2l.1 1.7h6.4v-.6c0-2.5.8-4.4 2.4-5.8 1.5-1.3 3.8-2 6.6-2s5.1.7 6.6 2.1C8.2-23.3 9-21.4 9-19c0 2-.7 3.6-2.2 4.8-1.5 1.2-4.2 2.3-8 3.1-4.2 1-7.3 2.4-9.4 4.4-2.1 2-3.3 4.6-3.3 7.6 0 3.5 1.3 6.4 4 8.6 1.8 1.5 4 2.5 6.5 3v5.3h6.6v-5.2c3-.4 5.4-1.4 7.4-3 2.6-2.2 4-5.2 4.2-8.9V0H8.3v.7C8 3.1 7.2 4.8 5.9 5.9 4.7 7 2.8 7.6.4 7.6c-2.5 0-4.5-.6-5.9-1.8-1.4-1.1-2-2.7-2-4.7 0-1.8.6-3.2 1.9-4.2 1.3-1.1 3.6-2 6.8-2.7C5.9-7 9.5-8.6 11.9-10.7c2.4-2.1 3.6-4.9 3.6-8.1 0-3.9-1.5-7.1-4.4-9.6z"/></symbol><symbol id="d" viewBox="-17.5 -19.6 35 39.1"><path fill="#FFF" d="M-17.5 11.7c0 2.4.8 4.3 2.3 5.7 1.5 1.4 3.6 2.2 6.2 2.2s4.7-.7 6.2-2.2C-1.3 16-.5 14-.5 11.6V9.7c0-2.4-.8-4.2-2.3-5.7C-4.4 2.6-6.4 1.9-9 1.9s-4.6.7-6.2 2.1c-1.6 1.4-2.3 3.4-2.3 5.8v1.9zm5.7-2c0-.9.3-1.6.8-2.2.5-.6 1.2-.8 2.1-.8 1.8 0 2.7 1.2 2.7 3.5v1.6c0 .9-.2 1.6-.7 2.2-.5.6-1.2.9-2.1.9-.9 0-1.5-.3-2-.8-.5-.6-.8-1.3-.8-2.3V9.7zm4.5-25.9l-4.1 2.1L7.1 15.6l4.1-2.1-18.5-29.7zM.6-9.7c0 2.4.8 4.3 2.3 5.7C4.4-2.6 6.5-1.9 9-1.9c2.6 0 4.7-.7 6.2-2.1 1.5-1.4 2.3-3.4 2.3-5.9v-1.8c0-2.4-.8-4.3-2.3-5.7-1.5-1.4-3.6-2.1-6.2-2.1s-4.6.7-6.2 2.1C1.2-16 .5-14 .5-11.6v1.9zm5.6-2c0-.8.3-1.5.8-2.1.6-.6 1.2-.9 2-.9 1.7 0 2.6.8 2.7 2.4v2.7c0 .9-.3 1.7-.8 2.2-.3.5-1 .8-1.9.8-.8 0-1.5-.3-2-.8-.5-.6-.8-1.3-.8-2.2v-2.1z" opacity=".5"/></symbol><symbol id="c" viewBox="-12.6 -18.7 25.2 37.4"><path opacity=".5" fill="#FFF" d="M11.2-.9H3.4C5-.1 6.5.9 7.8 2.2l.2.2h3.2c.8 0 1.4.9 1.4 2.2 0 .5-.1 1-.3 1.4-.3.7-.8.8-1.1.8h-.9c.9 4.5-1.2 9-5.3 10.8-2.1.9-4.6 1.3-7.1 1.1-2.1-.2-5-.8-6.5-2.3-.7-.7-1-3.1-.5-4.2.3-.7.8-.8 1.1-.8.2 0 .3 0 .5.1.5.2 1 .5 1.5.8.4.2.8.5 1.2.6 1.2.5 2.3.8 3.3.9h.9c1.4 0 3.3-.3 4.5-1.7C5 10.6 5 8.4 3.8 6.8h-15c-.8 0-1.4-.9-1.4-2.2 0-1.3.6-2.2 1.4-2.2h7.9C-5.2 1.5-7 .6-8.6-.9h-2.6c-.8 0-1.4-.9-1.4-2.2 0-1.3.6-2.1 1.4-2.1-1.4-5.1 1.5-10.6 6.7-12.6 1.7-.6 3.6-1 5.6-1 .8 0 1.6.1 2.5.2 1.4.2 2.8.5 4.1 1h.1c1 .4 2.4.9 3.1 2 .5.8.7 1.8.4 3.3-.2 1.3-1 1.5-1.3 1.5-.4 0-.8-.2-1.3-.5-2.1-1.4-4.5-2.2-6.7-2.4h-.9c-1.9 0-4.4.4-5.7 2.4-1.3 1.9-1.1 4.4.4 6.1h15.5c.8 0 1.4.9 1.4 2.2S12-.9 11.2-.9z"/></symbol><path fill="#51BAD7" d="M1983 183.2v841H73l886-458.8 738-382.2"/><g fill="none" stroke="#FFF" stroke-width="2" stroke-miterlimit="10"><path d="M959 73.2v12"/><path stroke-dasharray="23.7692,23.7692" d="M959 108.9v891.4"/><path d="M959 1012.2v12"/></g><path d="M1697 209.2c-13.8 0-25-11.2-25-25s11.2-25 25-25 25 11.2 25 25-11.2 25-25 25zm0-41c-8.8 0-16 7.2-16 16s7.2 16 16 16 16-7.2 16-16-7.2-16-16-16zm.1 25.8c-5.5 0-9.9-4.4-9.9-9.9s4.4-9.9 9.9-9.9 9.9 4.4 9.9 9.9-4.4 9.9-9.9 9.9zm-.1 397.2c-13.8 0-25-11.2-25-25s11.2-25 25-25 25 11.2 25 25-11.2 25-25 25zm0-41c-8.8 0-16 7.2-16 16s7.2 16 16 16 16-7.2 16-16-7.2-16-16-16zm.1 25.8c-5.5 0-9.9-4.4-9.9-9.9s4.4-9.9 9.9-9.9 9.9 4.4 9.9 9.9-4.4 9.9-9.9 9.9z" fill-rule="evenodd" clip-rule="evenodd" fill="#FFF"/><path opacity=".15" fill="#FFF" d="M959 565.4v458.8H73"/><g opacity=".8"><path fill="none" stroke="#FFF" stroke-width="2" stroke-miterlimit="10" d="M1098 502.2v12"/><path fill="none" stroke="#FFF" stroke-width="2" stroke-miterlimit="10" stroke-dasharray="24,24" d="M1098 538.2v460"/><path fill="none" stroke="#FFF" stroke-width="2" stroke-miterlimit="10" d="M1098 1010.2v12"/><path fill="#FFF" d="M1089.8 1015.7l1.5-1.4 6.7 7.3 6.7-7.3 1.5 1.4-8.2 8.8"/></g><g opacity=".8"><path fill="none" stroke="#FFF" stroke-width="2" stroke-miterlimit="10" d="M1237 430.2v12"/><path fill="none" stroke="#FFF" stroke-width="2" stroke-miterlimit="10" stroke-dasharray="25,25" d="M1237 467.2v530"/><path fill="none" stroke="#FFF" stroke-width="2" stroke-miterlimit="10" d="M1237 1010.2v12"/><path fill="#FFF" d="M1228.8 1015.4l1.5-1.4 6.7 7.2 6.7-7.2 1.5 1.4-8.2 8.8"/></g><g opacity=".8"><path fill="none" stroke="#FFF" stroke-width="2" stroke-miterlimit="10" d="M1376 358.2v12"/><path fill="none" stroke="#FFF" stroke-width="2" stroke-miterlimit="10" stroke-dasharray="24,24" d="M1376 394.2v604"/><path fill="none" stroke="#FFF" stroke-width="2" stroke-miterlimit="10" d="M1376 1010.2v12"/><path fill="#FFF" d="M1367.8 1015.4l1.5-1.4 6.7 7.2 6.7-7.2 1.5 1.4-8.2 8.8"/></g><g opacity=".8"><path fill="none" stroke="#FFF" stroke-width="2" stroke-miterlimit="10" d="M1515 283.2v12"/><path fill="none" stroke="#FFF" stroke-width="2" stroke-miterlimit="10" stroke-dasharray="25,25" d="M1515 320.2v678"/><path fill="none" stroke="#FFF" stroke-width="2" stroke-miterlimit="10" d="M1515 1010.2v12"/><path fill="#FFF" d="M1506.8 1015.4l1.5-1.4 6.7 7.2 6.7-7.2 1.5 1.4-8.2 8.8"/></g><path fill="none" stroke="#B0E81B" stroke-width="16" stroke-linecap="round" stroke-linejoin="round" d="M64 1030.2l1620.8-840.7"/><path fill="#B0E81B" d="M1673 218.6l8.7-27.5-27.5-8.7 15.4-7.9 27.4 8.7-8.7 27.4"/><path fill="none" stroke="#FFDE0A" stroke-width="16" stroke-linecap="round" stroke-linejoin="round" d="M64 1030.2l895-464h724.3"/><path fill="#FFDE0A" d="M1659.4 586.5l20.3-20.3-20.3-20.4h17.3l20.3 20.4-20.3 20.3"/><use xlink:href="#a" width="77.4" height="108.6" x="-38.7" y="-54.3" transform="matrix(.7754 0 0 -.7754 403 766.18)" overflow="visible"/><use xlink:href="#a" width="77.4" height="108.6" x="-38.7" y="-54.3" transform="matrix(.7754 0 0 -.7754 542 694.18)" overflow="visible"/><use xlink:href="#a" width="77.4" height="108.6" x="-38.7" y="-54.3" transform="matrix(.7754 0 0 -.7754 681 622.18)" overflow="visible"/><use xlink:href="#b" width="77.4" height="108.6" x="-38.7" y="-54.3" transform="matrix(.7754 0 0 -.7754 1098 405.18)" overflow="visible"/><use xlink:href="#b" width="77.4" height="108.6" x="-38.7" y="-54.3" transform="matrix(.7754 0 0 -.7754 1237 333.18)" overflow="visible"/><use xlink:href="#b" width="77.4" height="108.6" x="-38.7" y="-54.3" transform="matrix(.7754 0 0 -.7754 1377 261.18)" overflow="visible"/><g opacity=".8"><path fill="none" stroke="#FFF" stroke-width="2" stroke-miterlimit="10" d="M403 1022.2v-12"/><path fill="none" stroke="#FFF" stroke-width="2" stroke-miterlimit="10" stroke-dasharray="27,27" d="M403 983.2v-95"/><path fill="none" stroke="#FFF" stroke-width="2" stroke-miterlimit="10" d="M403 875.2v-12"/><path fill="#FFF" d="M411.2 1015.4l-1.5-1.4-6.7 7.2-6.7-7.2-1.5 1.4 8.2 8.8"/></g><use xlink:href="#a" width="77.4" height="108.6" x="-38.7" y="-54.3" transform="matrix(.7754 0 0 -.7754 264 838.18)" overflow="visible"/><g opacity=".8"><path fill="none" stroke="#FFF" stroke-width="2" stroke-miterlimit="10" d="M264 935.2v12"/><path fill="none" stroke="#FFF" stroke-width="2" stroke-miterlimit="10" stroke-dasharray="21,21" d="M264 968.2v31"/><path fill="none" stroke="#FFF" stroke-width="2" stroke-miterlimit="10" d="M264 1010.2v12"/><path fill="#FFF" d="M255.8 1015.4l1.5-1.4 6.7 7.2 6.7-7.2 1.5 1.4-8.2 8.8"/></g><g opacity=".8"><path fill="none" stroke="#FFF" stroke-width="2" stroke-miterlimit="10" d="M542 791.2v12"/><path fill="none" stroke="#FFF" stroke-width="2" stroke-miterlimit="10" stroke-dasharray="23,23" d="M542 826.2v172"/><path fill="none" stroke="#FFF" stroke-width="2" stroke-miterlimit="10" d="M542 1010.2v12"/><path fill="#FFF" d="M533.8 1015.4l1.5-1.4 6.7 7.2 6.7-7.2 1.5 1.4-8.2 8.8"/></g><g opacity=".8"><path fill="none" stroke="#FFF" stroke-width="2" stroke-miterlimit="10" d="M681 719.2v12"/><path fill="none" stroke="#FFF" stroke-width="2" stroke-miterlimit="10" stroke-dasharray="25,25" d="M681 756.2v241"/><path fill="none" stroke="#FFF" stroke-width="2" stroke-miterlimit="10" d="M681 1010.2v12"/><path fill="#FFF" d="M672.8 1015.4l1.5-1.4 6.7 7.2 6.7-7.2 1.5 1.4-8.2 8.8"/></g><g opacity=".8"><path fill="none" stroke="#FFF" stroke-width="2" stroke-miterlimit="10" d="M820 647.2v12"/><path fill="none" stroke="#FFF" stroke-width="2" stroke-miterlimit="10" stroke-dasharray="23,23" d="M820 682.2v316"/><path fill="none" stroke="#FFF" stroke-width="2" stroke-miterlimit="10" d="M820 1010.2v12"/><path fill="#FFF" d="M811.8 1015.4l1.5-1.4 6.7 7.2 6.7-7.2 1.5 1.4-8.2 8.8"/></g><path fill="none" stroke="#FFF" stroke-width="2" stroke-miterlimit="10" d="M959 600.2v146"/><path fill="#FFF" d="M950.8 739.4l1.5-1.4 6.7 7.2 6.7-7.2 1.5 1.4-8.2 8.8"/><path fill="#CB9573" d="M309 594.4s-23.2 8.5-43.1 14.1c-19.8 5.6-51.5 7.4-51.5 7.4l32.3 16.5s15.9-4.4 25.6-11.6c9.7-7.3 39.9-9.7 36.7-26.4z"/><path fill="#E2A881" d="M340.3 617.7l-50.1-5-75.7 3.3 46.3 16.5s18.4 1.8 31.2-1.9c12.8-3.8 45.8 5.9 48.3-12.9z"/><path fill="#EFB38C" d="M350 652.6l-51-28.4-118.4-12.3 82.3 30.2s13.7-.2 28.4.8 49.5 28.3 58.7 9.7z"/><path fill="#FABD96" d="M234 691.8c-12.3-7.9-10.5-12.9-10.5-12.9l2.4-16c9.6-5.2 18-18.7 18-18.7 3.9 5.7 15.8 6.3 15.8 6.3-1.1 11 10.8 18.6 10.8 18.6-15.3 31 .4 42.8.4 42.8l6.4-16.3 13-28.9-24-42.2c-23.3-6.1-85.7-12.7-85.7-12.7L140.3 596l-5 45.6 39.1 14.4c1.3 20.4 29.2 33.5 29.2 33.5l37.4 26.3c0 .1 5.4-16.1-7-24z"/><path fill="#FDE0D0" d="M276.6 697.9s-2-2.8-5.1-2.3c0 0-6.4 9.7.1 14.7l5-12.4zm-50.2 7.8s0-2.2 3-4c0 0 12 4.6 9.9 13l-12.9-9z"/><path opacity=".08" d="M176.9 637.7s-5.2 4.1-2.6 18.4l-35.7-13.4s-1.3-7 .1-15.8l38.2 10.8z"/><path fill="#FFF" d="M158.8 595.5l-13.5 59.8L91 640.2l24.6-56.4"/><path fill="#FFDE0A" d="M151.9 587.7l-15.2 74.2L0 646.9v-99.7"/><path opacity=".1" d="M141.3 639.4L0 606.8v40.1l136.7 15"/><circle fill="#4A401A" cx="104.4" cy="645.9" r="4.4"/><circle fill="#4A401A" cx="120.5" cy="649" r="4.4"/><path fill="#FFDE0A" d="M264.3 740.7c0 5.8-5.1 10.4-11.4 10.4-6.3 0-11.4-4.7-11.4-10.4v-48.1c0-5.8 5.1-10.4 11.4-10.4 6.3 0 11.4 4.7 11.4 10.4v48.1z"/><g font-size="42"><text transform="rotate(14.738 -2087.25 309.01)" opacity=".15">клієнт</text><text transform="rotate(14.738 -2079.52 308.01)" fill="#FFF">клієнт</text></g><g fill="none" stroke="#FFF" stroke-width="2" stroke-miterlimit="10"><path d="M1697 1024.2v-12"/><path stroke-dasharray="23.3429,23.3429" d="M1697 988.8V206.9"/><path d="M1697 195.2v-12"/></g><path fill="#CB9573" d="M1268 92.3s-23.2 8.5-43.1 14.1c-19.8 5.6-51.5 7.4-51.5 7.4l32.3 16.5s15.9-4.4 25.6-11.6c9.7-7.3 39.9-9.7 36.7-26.4z"/><path fill="#E2A881" d="M1299.3 115.5l-50.1-5-75.7 3.3 46.3 16.5s18.4 1.8 31.2-1.9c12.8-3.8 45.8 5.9 48.3-12.9z"/><path fill="#EFB38C" d="M1309 150.4l-51-28.4-118.4-12.3 82.3 30.2s13.7-.2 28.4.8 49.5 28.3 58.7 9.7z"/><path fill="#FABD96" d="M1193 189.6c-12.3-7.9-10.5-12.9-10.5-12.9l2.4-16c9.6-5.2 18-18.7 18-18.7 3.9 5.7 15.8 6.3 15.8 6.3-1.1 11 10.8 18.6 10.8 18.6-15.3 31 .4 42.8.4 42.8l6.4-16.3 13-28.9-24-42.2c-23.3-6.1-85.7-12.7-85.7-12.7l-40.3-15.8-5 45.6 39.1 14.4c1.3 20.4 29.2 33.5 29.2 33.5l37.4 26.3c0 .2 5.4-16-7-24z"/><path fill="#FDE0D0" d="M1235.6 195.7s-2-2.8-5.1-2.3c0 0-6.4 9.7.1 14.7l5-12.4zm-50.2 7.9s0-2.2 3-4c0 0 12 4.6 9.9 13l-12.9-9z"/><path opacity=".08" d="M1135.9 135.6s-5.2 4.1-2.6 18.4l-35.7-13.4s-1.3-7 .1-15.8l38.2 10.8z"/><path fill="#FFF" d="M1117.8 93.3l-13.5 59.8-54.3-15 24.5-56.5"/><path fill="#B0E81B" d="M1110.9 85.5l-15.2 74.2L959 144.5V44.8"/><path opacity=".1" d="M1100.3 137.2L959 104.4v40.1l136.7 15.2"/><circle fill="#4A401A" cx="1063.4" cy="143.8" r="4.4"/><circle fill="#4A401A" cx="1079.5" cy="146.9" r="4.4"/><g font-size="42"><text transform="rotate(14.525 341.252 3839.974)" opacity=".15">СК ТАС</text><text transform="rotate(14.525 349.1 3838.974)" fill="#FFF">СК ТАС</text></g><path fill="#FFDE0A" d="M1223.7 238.7c0 5.8-5.1 10.4-11.4 10.4-6.3 0-11.4-4.7-11.4-10.4v-48.1c0-5.8 5.1-10.4 11.4-10.4 6.3 0 11.4 4.7 11.4 10.4v48.1z"/><g><use xlink:href="#c" width="25.2" height="37.4" x="-12.6" y="-18.7" transform="matrix(.7105 0 0 -.7105 1303.065 817.882)" overflow="visible"/><use xlink:href="#c" width="25.2" height="37.4" x="-12.6" y="-18.7" transform="matrix(1.1403 0 0 -1.1403 1490.66 712.524)" overflow="visible"/><use xlink:href="#c" width="25.2" height="37.4" x="-12.6" y="-18.7" transform="matrix(.6632 0 0 -.6632 1604.172 492.79)" overflow="visible"/><use xlink:href="#c" width="25.2" height="37.4" x="-12.6" y="-18.7" transform="matrix(1.6424 0 0 -1.6424 470.653 912.437)" overflow="visible"/><use xlink:href="#d" width="35" height="39.1" x="-17.5" y="-19.6" transform="matrix(1.358 0 0 -1.358 1460.52 945.624)" overflow="visible"/><use xlink:href="#d" width="35" height="39.1" x="-17.5" y="-19.6" transform="matrix(1.1867 0 0 -1.1867 1323.79 475.974)" overflow="visible"/><use xlink:href="#d" width="35" height="39.1" x="-17.5" y="-19.6" transform="matrix(.8858 0 0 -.8858 1013.638 825.723)" overflow="visible"/><use xlink:href="#d" width="35" height="39.1" x="-17.5" y="-19.6" transform="matrix(.6302 0 0 -.6302 1181.76 760.326)" overflow="visible"/><use xlink:href="#d" width="35" height="39.1" x="-17.5" y="-19.6" transform="matrix(.6302 0 0 -.6302 1657.673 301.37)" overflow="visible"/><use xlink:href="#d" width="35" height="39.1" x="-17.5" y="-19.6" transform="matrix(.6302 0 0 -.6302 664.96 904.505)" overflow="visible"/></g><g><path opacity=".15" fill="#FFF" d="M959 665.2c-55.1 0-100-44.9-100-100s44.9-100 100-100 100 44.9 100 100-44.9 100-100 100z"/><path opacity=".15" fill="#FFF" d="M958.5 641.2c-42.7 0-77.5-34.5-77.5-77s34.8-77 77.5-77 77.5 34.5 77.5 77c0 42.4-34.8 77-77.5 77z"/><path opacity=".15" fill="#FFF" d="M959 622.2c-31.4 0-57-25.6-57-57s25.6-57 57-57 57 25.6 57 57-25.6 57-57 57z"/><circle fill="#FF715B" cx="959.5" cy="565.7" r="34.5"/><path fill="#FFF" d="M955 549.2h8v32h-8z"/><path fill="#FFF" d="M943 561.2h32v8h-32z"/></g></svg>