<svg xmlns="http://www.w3.org/2000/svg" viewBox="0 0 515 515"><style>.st0{opacity:.1}.st1{fill-rule:evenodd;clip-rule:evenodd}.st2{fill:none;stroke:#000;stroke-miterlimit:10}.st3{fill-rule:evenodd;clip-rule:evenodd;fill:#fff}.st4{fill:none;stroke:#ebebeb;stroke-miterlimit:10}.st5{fill:#51bad7}.st6{fill:url(#SVGID_1_)}.st7{opacity:.6;fill:url(#SVGID_2_)}.st8{opacity:.51;fill:#fff}.st9{fill:url(#SVGID_3_)}.st10{opacity:.15}.st11{opacity:.48;fill:#fff}.st12{fill:url(#SVGID_4_)}.st13{fill:url(#SVGID_5_)}.st14{fill:url(#SVGID_6_)}.st15,.st16{fill:#fff}.st16{opacity:.3}.st17{fill:#c69c6d}.st18{fill:#009245}.st19{fill:#0071bc}.st20{fill:#4d4d4d}.st21{fill:#333}.st22{fill:#666}.st23{fill:#fec642}.st24{fill:#e6b33c}.st25{fill:#cdaf8b}.st26{fill:#9b7b62}.st27{fill:#edd2b5}.st28{fill:#b59475}.st29{fill:#b53737}.st30,.st31{fill-rule:evenodd;clip-rule:evenodd}.st30{opacity:.15}.st31{fill:#c44949}.st32{fill:#ffbf0b}</style><g class="st0"><path class="st1" d="M181.2 327.1c-51.4 0-93.1 41.7-93.1 93.1 0 51.4 41.7 93.1 93.1 93.1 51.4 0 93.1-41.7 93.1-93.1 0-51.4-41.6-93.1-93.1-93.1z"/><path class="st2" d="M181.2 327.1c-51.4 0-93.1 41.7-93.1 93.1 0 51.4 41.7 93.1 93.1 93.1 51.4 0 93.1-41.7 93.1-93.1 0-51.4-41.6-93.1-93.1-93.1z"/></g><path class="st3" d="M181.2 324.1c-51.4 0-93.1 41.7-93.1 93.1 0 51.4 41.7 93.1 93.1 93.1 51.4 0 93.1-41.7 93.1-93.1 0-51.4-41.6-93.1-93.1-93.1z"/><path class="st4" d="M181.2 324.1c-51.4 0-93.1 41.7-93.1 93.1 0 51.4 41.7 93.1 93.1 93.1 51.4 0 93.1-41.7 93.1-93.1 0-51.4-41.6-93.1-93.1-93.1z"/><path class="st5" d="M181.2 333.1c46.5 0 84.1 37.7 84.1 84.1 0 46.4-37.7 84.1-84.1 84.1-46.5 0-84.1-37.7-84.1-84.1 0-46.4 37.7-84.1 84.1-84.1zm0 157.7c40.6 0 73.6-33 73.6-73.6 0-40.6-33-73.6-73.6-73.6s-73.6 33-73.6 73.6c0 40.6 33 73.6 73.6 73.6z"/><linearGradient id="SVGID_1_" gradientUnits="userSpaceOnUse" x1="177.658" y1="414.259" x2="185.976" y2="414.259"><stop offset="0" stop-color="#606060"/><stop offset=".176" stop-color="#575757"/><stop offset=".469" stop-color="#3D3D3D"/><stop offset=".84" stop-color="#141414"/><stop offset="1"/></linearGradient><path class="st6" d="M186 380.8v66.5c0 2.7-1.7 5-3.8 5h-.8c-2.1 0-3.8-2.2-3.8-5v-66.5c0-2.7 1.7-4.5 3.8-4.5h.8c.5 0 1.1.1 1.5.4 1.3.5 2.3 2 2.3 4.1z"/><linearGradient id="SVGID_2_" gradientUnits="userSpaceOnUse" x1="177.658" y1="414.259" x2="185.976" y2="414.259"><stop offset="0" stop-color="#fff"/><stop offset=".085" stop-color="#F6F6F6"/><stop offset=".226" stop-color="#DCDCDC"/><stop offset=".407" stop-color="#B2B2B2"/><stop offset=".619" stop-color="#797979"/><stop offset=".855" stop-color="#303030"/><stop offset="1"/></linearGradient><path class="st7" d="M186 380.8v66.5c0 2.7-1.7 5-3.8 5h-.8c-2.1 0-3.8-2.2-3.8-5v-66.5c0-2.7 1.7-4.5 3.8-4.5h.8c.5 0 1.1.1 1.5.4 1.3.5 2.3 2 2.3 4.1z"/><path class="st8" d="M186 380.8v2.2c0-2.6-1.6-4.2-3.5-4.4h-1c-2.1 0-3.8 1.6-3.8 4.4v-2.2c0-2.7 1.7-4.5 3.8-4.5h.8c.5 0 1.1.1 1.5.4 1.2.5 2.2 2 2.2 4.1z"/><linearGradient id="SVGID_3_" gradientUnits="userSpaceOnUse" x1="181.223" y1="441.592" x2="181.223" y2="458.23"><stop offset="0" stop-color="#FF3D51"/><stop offset="1" stop-color="#F50A0E"/></linearGradient><path class="st9" d="M221.6 449.6v.5c0 4.5-3 8.1-6.2 8.1H147c-3.2 0-6.2-3.6-6.2-8.1v-.5c0-4.5 3-8.1 6.2-8.1h68.4c3.2.1 6.2 3.7 6.2 8.1z"/><path class="st10" d="M221.6 449.6v.5c0 4.5-3 8.1-6.2 8.1H147c-3.2 0-6.2-3.6-6.2-8.1v-.5c0-.1.2-.2.2-.4 0 .4 0 .8.1 1.1.5 3.8 3.1 6.6 5.9 6.6h68.4c2.9 0 5.4-2.8 5.9-6.6l.1-1.1c0 .2.2.3.2.4z"/><path class="st11" d="M221.6 449.6v.5l-.2 1c0-.2 0-.5-.1-.7-.5-3.7-3.1-6.5-5.9-6.5H147c-2.8 0-5.4 2.7-5.9 6.5l-.1.7-.2-1v-.5c0-4.5 3-8.1 6.2-8.1h68.4c3.2.1 6.2 3.7 6.2 8.1z"/><linearGradient id="SVGID_4_" gradientUnits="userSpaceOnUse" x1="181.223" y1="423.766" x2="181.223" y2="440.404"><stop offset="0" stop-color="#FFAF47"/><stop offset="1" stop-color="#FD660C"/></linearGradient><path class="st12" d="M213.3 431.9v1c-.2 4.2-2.8 7.6-5.9 7.6H155c-3.1 0-5.7-3.3-5.9-7.6v-1c0-4.5 2.7-8.1 5.9-8.1h52.4c3.2 0 5.9 3.6 5.9 8.1z"/><path class="st10" d="M213.3 431.9v1c-.2 4.2-2.8 7.6-5.9 7.6H155c-3.1 0-5.7-3.3-5.9-7.6v-1.4c0 .4 0 .8.1 1.1.5 3.8 2.9 6.6 5.8 6.6h52.4c2.9 0 5.3-2.8 5.8-6.6.1-.4.1-.7.1-1.1v.4z"/><path class="st11" d="M213.3 431.9v1.5c0-.2 0-.4-.1-.7-.5-3.7-2.9-6.5-5.8-6.5H155c-2.8 0-5.2 2.8-5.8 6.5 0 .2-.1.4-.1.7v-1.5c0-4.5 2.7-8.1 5.9-8.1h52.4c3.2 0 5.9 3.6 5.9 8.1z"/><linearGradient id="SVGID_5_" gradientUnits="userSpaceOnUse" x1="181.223" y1="405.94" x2="181.223" y2="422.578"><stop offset="0" stop-color="#9ADA7B"/><stop offset="1" stop-color="#4DAC23"/></linearGradient><path class="st13" d="M205 414.1v1c-.1 4.3-2.5 7.6-5.6 7.6h-36.7c-2.9-.2-5.1-3.5-5.2-7.6v-1c0-4.5 2.4-8.1 5.6-8.1h36.4c3.1-.1 5.5 3.6 5.5 8.1z"/><path class="st10" d="M157.5 414.7v.3c0-.1-.1-.1 0-.3-.1-.3-.1-.6-.1-1l.1.3v.7zm47.5.3c-.1 4.3-2.5 7.6-5.6 7.6h-36.7c-2.9-.2-5.1-3.5-5.2-7.6.5 3.7 2.8 6.4 5.6 6.4h36.4c2.7 0 5-2.7 5.5-6.4zm.1-1.2c0 .3 0 .7-.1 1v.2-1s.1-.1.1-.2z"/><path class="st11" d="M205.1 415.5c0-.2 0-.4-.1-.7v-.1c-.5-3.7-2.8-6.4-5.6-6.4H163c-2.8 0-5.1 2.7-5.6 6.4v.1c0 .2-.1.4-.1.7 0-.2 0-.5.1-.7v-.7c0-4.5 2.4-8.1 5.6-8.1h36.4c3.2 0 5.6 3.6 5.6 8.1v.7l.1.7z"/><linearGradient id="SVGID_6_" gradientUnits="userSpaceOnUse" x1="181.223" y1="388.114" x2="181.223" y2="404.752"><stop offset="0" stop-color="#5ABFF8"/><stop offset="1" stop-color="#1E84EF"/></linearGradient><path class="st14" d="M196.7 396.3v.5c0 .7 0 1.3-.1 1.9-.5 3.5-2.4 6.1-5.1 6.1H171c-.6 0-1.2-.1-1.8-.4-1.8-.8-3-3-3.4-5.7-.1-.6-.1-1.2-.1-1.9v-.8c.1-4.3 2.1-7.8 5.3-7.8h20.4c3.1 0 5.2 3.5 5.3 7.8v.3z"/><path class="st10" d="M165.8 396.8c0 .7 0 1.3.1 1.9-.1-.4-.2-.9-.3-1.4v-.2c-.1-.4-.1-.8-.1-1.2l.2.3v.6zm30.7 1.9c-.5 3.5-2.4 6.1-5.1 6.1H171c-.6 0-1.2-.1-1.8-.4-1.8-.8-3-3-3.4-5.7.6 2.3 2 4.1 3.8 4.7.4.2.9.2 1.3.2h20.4c2.5 0 4.4-2 5.2-4.9zm.4-2.8c0 .4 0 .8-.1 1.2v.2c-.1.5-.2 1-.3 1.4.1-.6.1-1.2.1-1.9v-.6c.2-.1.3-.3.3-.3z"/><path class="st15" d="M165.7 396.2c0-.1 0-.1.1-.2 0 .1 0 .2-.1.2v.6c0 .2-.1.3-.2.5l-.1.3c0-.2 0-.4.1-.6.1-.3.2-.5.2-.8z"/><path class="st11" d="M196.7 396c-.7-3.2-2.7-5.5-5.3-5.5H171c-2.6 0-4.5 2.3-5.3 5.5.1-4.3 2.1-7.8 5.3-7.8h20.4c3.1-.1 5.2 3.4 5.3 7.8z"/><path class="st15" d="M196.9 397.6c0-.1 0-.2-.1-.3-.1-.2-.2-.4-.2-.5v-.8c0 .1 0 .1.1.2l.1.9c.1.1.1.3.1.5z"/><path class="st16" d="M147 441.6h10.8c-.2.8-.3 1.6-.4 2.4-.8 4.6-1.4 9-1.7 13.1l-.1 1.2H147c-3.2 0-6.2-3.6-6.2-8.1v-.5c0-4.5 3-8.1 6.2-8.1zm8-17.8h7.3l-.7 2.4c-1.3 4.5-2.4 8.9-3.3 13.1-.1.4-.2.8-.2 1.2H155c-3.1 0-5.7-3.3-5.9-7.6v-1c0-4.5 2.7-8.1 5.9-8.1zm8-17.9h5.6c-.3.8-.6 1.6-1 2.4l-1.5 4c-1.1 3.1-2.2 6.1-3.1 9.1-.1.4-.2.8-.4 1.2-2.9-.2-5.1-3.5-5.2-7.6v-.2c0 .2-.1.4-.1.7 0-.2 0-.5.1-.7l-.1-1 .1.3c.1-4.5 2.4-8.2 5.6-8.2zm8-17.8h5.9l-1.2 2.4c-2.1 4-4.1 8.3-6 12.8l-.4 1c-1.8-.8-3-3-3.4-5.7-.1-.4-.2-.9-.3-1.4l-.1.3c0-.2 0-.4.1-.6-.1-.4-.1-.8-.1-1.2l.2.3c0-.1 0-.1.1-.2.1-4.2 2.1-7.7 5.2-7.7zm12.7-11.5l-1.3 2c-1.6 2.6-3.2 5.3-4.8 8.2v-6c0-2.7 1.7-4.5 3.8-4.5h.8c.5-.1 1.1.1 1.5.3z"/><g class="st0"><path class="st1" d="M342.5 175.3c-66.1 0-119.7 53.6-119.7 119.7s53.6 119.7 119.7 119.7S462.2 361.1 462.2 295s-53.6-119.7-119.7-119.7z"/><path class="st2" d="M342.5 175.3c-66.1 0-119.7 53.6-119.7 119.7s53.6 119.7 119.7 119.7S462.2 361.1 462.2 295s-53.6-119.7-119.7-119.7z"/></g><path class="st3" d="M342.5 172.3c-66.1 0-119.7 53.6-119.7 119.7s53.6 119.7 119.7 119.7S462.2 358.1 462.2 292s-53.6-119.7-119.7-119.7z"/><path class="st4" d="M342.5 172.3c-66.1 0-119.7 53.6-119.7 119.7s53.6 119.7 119.7 119.7S462.2 358.1 462.2 292s-53.6-119.7-119.7-119.7z"/><path class="st5" d="M342.5 183.9c59.7 0 108.1 48.4 108.1 108.1 0 59.7-48.4 108.1-108.1 108.1-59.7 0-108.1-48.4-108.1-108.1 0-59.7 48.4-108.1 108.1-108.1zm0 202.7c52.2 0 94.6-42.4 94.6-94.6 0-52.2-42.5-94.6-94.6-94.6-52.2 0-94.6 42.4-94.6 94.6 0 52.1 42.4 94.6 94.6 94.6z"/><path class="st17" d="M337.525 317.61l4.95 4.95-17.465 17.465-4.95-4.95zm27.347 17.412l-4.95 4.95-17.465-17.465 4.95-4.95zM287.4 244h110.2v79.2H287.4z"/><path class="st18" d="M293 249.5h99.1v68.1H293z"/><path class="st15" d="M311.7 293.2c-2.4 2-5.2-1.7-7.7-1.7-.6 0-6.4 3.3-5.7.8.5-1.8 3.4-1.5 4.6-2.3 1.5-1 6.6-7 4.7-9-1.7-1.8-3.7 2.5-5 2.9-3.9 1 1.3-3 2.3-3.4 2.9-1.4 5.8-1.9 5.6 2.2-.1 3.3-3 4.2-4.4 6.5 1.7.7 5.1 2.1 5.6 4zm21.3-8.7c-.6 3.1-8-.2-9.4 2-1.1 1.8.2 4.2-1.7 5.8-.7.6-2.3 1.9-2.9.6-.5-1.2.9-1.2 1.2-2.1.4-1.1 1.9-4.3 1.4-5.1-.9-1.2-4.8.6-5.7.2-4.7-2 6.2-1.4 7.1-2 1.4-1 1.3-5.1 3-6.1 4.8-2.6.2 5.2-.5 6.5 1.6-.2 6.4-.8 7.5.2zm14 8.7c-2.4 2-5.2-1.7-7.7-1.7-.6 0-6.4 3.3-5.7.8.5-1.8 3.4-1.5 4.6-2.3 1.5-1 6.6-7 4.7-9-1.7-1.8-3.7 2.5-5 2.9-3.9 1 1.3-3 2.3-3.4 2.9-1.4 5.8-1.9 5.6 2.2-.1 3.3-3 4.2-4.4 6.5 1.8.7 5.1 2.1 5.6 4zm19.7-6.4c-.4 2.2-15.6 2-16.5.5-1.1-1.7 6.7-.9 7.9-.8 1.8.1 7.7-.9 8.6.3zm1.7-4.9c-.1 3.9-13 .1-15 1.6-2.4 0-1.5-1.4-.1-2 1.7-.8 3.5.1 5.3.2 2 0 7.9-.8 9.8.2zm17.5 8.8c-2 2-4.9 3.2-6.6 4.8-1.5 1.3-1.8 3.6-2.8 5.5-3 5.7-.9-1.9-.5-3.9.6-2.6 1-2.7-1.1-3.8-2.9-1.5-3.7 2-6 1 2.1-2.9 3.8-5 4.8-8.7.5-2 2.5-8.6 6.2-7-2.4 2.2-2.5 5-3.8 8-.7 1.5-2.5 4.9.8 4.2 1-.2 1.7-2.3 2.8-2.7 4-1.3.3 1.5.5 1.8 1.8 3.7 3.2-.8 5.7.8z"/><path class="st19" d="M379 316.6c0-1.2-1-2.2-2.2-2.2h-13.9c-1.2 0-2.2 1-2.2 2.2v2c0 1.2 1 2.2 2.2 2.2h13.9c1.2 0 2.2-1 2.2-2.2v-2z"/><path class="st15" d="M347.104 319.317l9.947-1.032.093.895-9.947 1.032z"/><g class="st0"><path class="st1" d="M178 5.6c-69.2 0-125.2 56.1-125.2 125.2C52.7 200 108.8 256 178 256s125.2-56.1 125.2-125.2S247.1 5.6 178 5.6z"/><path class="st2" d="M178 5.6c-69.2 0-125.2 56.1-125.2 125.2C52.7 200 108.8 256 178 256s125.2-56.1 125.2-125.2S247.1 5.6 178 5.6z"/></g><path class="st3" d="M178 2.6c-69.2 0-125.2 56.1-125.2 125.2C52.7 197 108.8 253 178 253s125.2-56.1 125.2-125.2S247.1 2.6 178 2.6z"/><path class="st4" d="M178 2.6c-69.2 0-125.2 56.1-125.2 125.2C52.7 197 108.8 253 178 253s125.2-56.1 125.2-125.2S247.1 2.6 178 2.6z"/><path class="st5" d="M178 14.8c62.5 0 113.1 50.6 113.1 113.1 0 62.4-50.6 113.1-113.1 113.1-62.5 0-113.1-50.6-113.1-113.1 0-62.5 50.6-113.1 113.1-113.1zm0 212c54.6 0 99-44.4 99-98.9S232.6 29 178 29s-99 44.4-99 98.9 44.4 98.9 99 98.9z"/><path class="st20" d="M217.1 148c-24.8 11.3-53.4 11.3-78.2 0-2.3-1-3.7-3.3-3.7-5.8v-34.5h85.7v34.5c-.1 2.5-1.6 4.7-3.8 5.8z"/><path class="st21" d="M171.4 107.7v48.5c14.4 1 29-1.3 42.6-6.9 4.1-1.7 6.7-5.7 6.7-10.1v-31.5h-49.3z"/><path class="st20" d="M184.2 124l-85.6-18.9 76.2-16.7 82.5 17.8z"/><path class="st21" d="M257.3 106.2v2.2l-73.1 17.8V124z"/><path class="st22" d="M98.6 107.3v-2.2l85.6 18.9v2.2z"/><path class="st23" d="M112.9 124.4h-3.2v-16.7l3.2.6z"/><circle class="st24" cx="111.3" cy="123.8" r="2.7"/><path class="st24" d="M113.2 129.7h-3.7c-.4 0-.8-.4-.8-.8v-2.3c0-.4.4-.8.8-.8h3.7c.4 0 .8.4.8.8v2.3c0 .4-.3.8-.8.8z"/><path class="st23" d="M112.5 129.7h-2.1c-.5 0-.9.4-1 .8l-3.9 19.1c-.1.7.4 1.3 1 1.3h10c.7 0 1.2-.6 1-1.3l-3.9-19.1c-.2-.5-.6-.8-1.1-.8zm-2.8-22l63-4.7 1.8 1-61.6 4.3z"/><ellipse class="st21" cx="178" cy="104" rx="12.2" ry="3.3"/><ellipse transform="scale(-1) rotate(73.8 175.18 -329.739)" class="st25" cx="247.4" cy="131.5" rx="9.8" ry="2.3"/><path class="st26" d="M247.8 121.2l5.5 18.8s-3.8 1.1-10.4 2.8c-25 5.3-48.8 13.2-72.9 21.2-5.9 1.7-10.4 3.2-10.4 3.2l-5.5-18.8s4.5-1.1 10.4-2.9c24.9-5.5 49.1-12.1 73-21.2 6.5-2 10.3-3.1 10.3-3.1z"/><path class="st25" d="M249.2 126l4.1 14s-3.8 1.1-10.4 2.8c-25 5.3-48.8 13.2-72.9 21.2-5.9 1.7-10.4 3.2-10.4 3.2l-4.1-14s4.7-1.2 10.5-3c24.5-6.3 48.7-12.9 72.7-21.1 6.7-2 10.5-3.1 10.5-3.1z"/><path class="st26" d="M154.2 148.4c1.2-.3 2.8 1.3 4.1 4 .7 1.3 1.3 2.8 1.7 4.5l.1.2c1.5 5.1 1.3 9.6-.5 10.1-1.2.4-2.9-1.5-4.3-4.4l1.3-1.7-1.9.2c-.3-.8-.6-1.7-.9-2.6-1.5-5.1-1.3-9.8.4-10.3z"/><path class="st27" d="M160.7 153.6l2.6-.4-2 1.8.5 1.4c.3 1.1.5 2.2.7 3.2 0 0 3.6-1.1 10-3 23-7.1 45.8-13.7 69-20.1 6.3-1.8 9.9-2.8 9.9-2.8l-3.7-12.5s-3.7 1.1-10.2 3.2c-23.9 9.1-48.1 15.7-73 21.2-5.9 1.7-10.4 2.9-10.4 2.9 1.8-.6 5 1.4 6.6 5.1z"/><path class="st28" d="M158.2 152.4c.7 1.3 1.3 2.8 1.8 4.5l.1.2-3.7.8c-.5-2.6.9-5.2 1.8-5.5z"/><path class="st27" d="M248.3 134.7l6.9-2c-.5-1.7-1-3.2-1.5-4.5l-3.2.6 2.6-2c-.8-1.7-1.5-3-2.1-3.9-.8-1.3-2.3-1.8-3.7-1.4l-2.6.7 3.6 12.5z"/><path class="st10" d="M201.8 136l5 7.5-.2 9-5.8 1.7.3-9-5.1-7.5z"/><path class="st29" d="M201.3 136.1l5.1 7.5-.2 9.1-5.8 1.6.3-9-5.1-7.5zm0 0l5.1 7.5-.2 9.1-5.8 1.6.3-9-5.1-7.5z"/><path class="st15" d="M201.5 145l-.2 9.1.4-.1.2-9.1-5-7.5-.4.1zm3.9-1.1l-.3 9.1.5-.2.2-9-5-7.5-.5.1z"/><path class="st30" d="M208.5 149.2c.4-1.1.5-2.3.1-3.4-.9-2.7-3.7-4.1-6.4-3.3-2.7.9-4.1 3.7-3.3 6.4.3 1.1 1 1.9 1.8 2.5l-1.8 8.4 2.8-3.5 1.5 4.6 1.8-8.7h.1l6.4 6.1-1.5-4.7 4.3 1.2-5.8-5.6z"/><path class="st31" d="M208.1 148c.4-1.1.5-2.3.1-3.4-.9-2.7-3.7-4.1-6.4-3.3-2.7.9-4.1 3.7-3.3 6.4.3 1.1 1 1.9 1.8 2.5l-1.8 8.4 2.8-3.5 1.5 4.6 1.8-8.7h.1l6.4 6.1-1.5-4.7 4.3 1.2-5.8-5.6z"/><path class="st15" d="M202.7 157.1l-1.1-3.4-1.8 2.3 1.3-6.1-.4-.3c-.7-.5-1.3-1.3-1.6-2.2-.7-2.3.5-4.8 2.8-5.5 2.3-.7 4.8.5 5.5 2.8.3 1 .3 2-.1 3l-.2.4 4.1 4-3-.8 1.1 3.4-4.6-4.6-.8.2-1.2 6.8zm-.9-4l.9 2.9 1.2-5.7 1.2-.3 4.1 3.9-.9-2.8 2.3.7-3.5-3.4.2-.6c.4-.9.4-1.9.1-2.8-.7-2.2-3-3.4-5.2-2.7-2.2.7-3.4 3-2.7 5.2.3.8.8 1.5 1.5 2l.5.4-1.1 5 1.4-1.8zm7.7 1.7l-1.2-3.8.4.1 1.3 4.1z"/><path class="st32" d="M203.2 147.3l.1 1.3-1.1.3-.1-5.1 1.4-.4 3 4.2-1.1.4-.7-1.1-1.5.4zm1-1.2l-.6-.9c-.2-.3-.4-.6-.5-.8l.1 1v1.1l1-.4z"/></svg>