<svg xmlns="http://www.w3.org/2000/svg" viewBox="0 0 160 160"><style>.st0{fill:#ffe783}.st1{fill:#fff793}.st2{fill:#ffdf52}.st3{fill:#f29120}.st4{opacity:.3;fill:#ffdf52}</style><path class="st0" d="M102.6 113c0 2.5-10.2 4.4-22.8 4.4l-4.1-.3c-5.4 0-10.2-.6-13.6-1.4v.1c-3.2-.8-5.1-1.7-5.1-2.7 0-.2.1-.4.2-.5 0-.1.1-.1.1-.1.6-.8 2.4-1.6 5-2.2 4.2-1 10.5-1.6 17.5-1.6 11.7 0 21.4 1.7 22.7 4 .1 0 .1.1.1.3z"/><path class="st1" d="M68.7 54.3l-19 19.2-10.4-10.6L57 45.2z"/><path class="st0" d="M42.8 69.9c2.9 2.9 5.9 4.5 6.8 3.6.9-.9-.7-4-3.6-6.9-2.9-2.9-5.9-4.5-6.8-3.6-.9.9.8 4 3.6 6.9z"/><path class="st2" d="M42.8 69.9c2.9 2.9 5.9 4.5 6.8 3.6.9-.9-.7-4-3.6-6.9-2.9-2.9-5.9-4.5-6.8-3.6-.9.9.8 4 3.6 6.9z"/><path class="st1" d="M120.7 62.9l-10.4 10.6-7.7-7.8-11.3-11.4 11.3-9.1z"/><path class="st0" d="M117.2 69.9c-2.9 2.9-5.9 4.5-6.8 3.6-.8-.9.8-4 3.6-6.9 2.8-2.9 5.9-4.5 6.8-3.6.8.9-.8 4-3.6 6.9z"/><path class="st2" d="M117.2 69.9c-2.9 2.9-5.9 4.5-6.8 3.6-.8-.9.8-4 3.6-6.9 2.8-2.9 5.9-4.5 6.8-3.6.8.9-.8 4-3.6 6.9z"/><path class="st1" d="M102.6 45.2V113H57V45.2l9.6-2.3h.1l1.5-.4c.4.8 1.1 1.7 2.1 2.7l.6.5.3.3c2 1.7 4.8 3.1 7.9 3.3h.8c2 0 3.8-.5 5.5-1.3 1.4-.7 2.6-1.6 3.6-2.5.4-.4.8-.7 1.1-1 .5-.5.9-1.1 1.2-1.5l.1-.2v-.1l.1-.1 1.2.3 9.9 2.3z"/><path class="st3" d="M92.7 42.7c-1.2 2.4-7.3 7.9-12.9 7.9h-.2c-5.7 0-11.7-5.4-13-7.9l1.5-.3c.4.8 1.1 1.8 2.1 2.7l.6.5c2.1 1.9 5.2 3.6 8.7 3.6h.2c5.2-.1 9.8-3.9 11.4-6.3.1-.2.2-.4.3-.5l1.3.3zm9.9 69.7v.7c0 2.5-10.2 4.3-22.8 4.3-1.4 0-4.1-.1-4.1-.1-5.4 0-13.6-1.5-13.6-1.5-3.2-.8-5.1-1.7-5.1-2.7v-.7l.2.2c.2.2.4.4.7.5.2.1.4.2.7.4 3.2 1.5 10.3 2.6 18.6 2.8h2.6c10.2 0 19.1-1.3 22-3.2.3-.1.5-.3.6-.5l.2-.2z"/><path class="st4" d="M117.2 69.7c-2.9 2.9-5.9 4.5-6.8 3.6l-7.7-7.8v47.3c0 2.5-10.2 4.5-22.8 4.5v-68c5.2-.1 9.8-4 11.4-6.5l.3-.5 1.3.3 9.9 2.4 18.1 17.7c.7 1-.9 4.1-3.7 7z"/></svg>