<svg xmlns="http://www.w3.org/2000/svg" viewBox="0 0 160 160" enable-background="new 0 0 160 160"><style>.st0{fill:#ddd}.st1{fill:#ebebeb}.st2{fill:#fafafa}.st3{fill:#666}.st4{fill:#6bc3f9}.st5{opacity:.2;fill:#fff}.st6{filter:url(#Adobe_OpacityMaskFilter)}.st7{fill:url(#SVGID_2_)}.st8{opacity:.5;mask:url(#SVGID_1_);fill:#fff}.st9{fill:#fafaff}</style><path class="st0" d="M101 56.5c0 .2-.2.4-.4.4h-.1c-.2 0-.4-.2-.4-.4v-5.6c0-.2.2-.4.4-.4h.1c.2 0 .4.2.4.4v5.6zm0 44.4c0 .2-.2.4-.4.4h-.1c-.2 0-.4-.2-.4-.4v-5.6c0-.2.2-.4.4-.4h.1c.2 0 .4.2.4.4v5.6zm0-32.4c0 .2-.2.4-.4.4h-.1c-.2 0-.4-.2-.4-.4V58.2c0-.2.2-.4.4-.4h.1c.2 0 .4.2.4.4v10.3z"/><path class="st1" d="M100.6 116.1c0 .5-.4.9-.9.9H59.9c-.5 0-.9-.4-.9-.9V43.9c0-.5.4-.9.9-.9h39.8c.5 0 .9.4.9.9v72.2z"/><path class="st2" d="M59.9 116.5c-.3 0-.5-.2-.5-.5V43.9c0-.3.2-.5.5-.5h39.8c.3 0 .5.2.5.5V116c0 .3-.2.5-.5.5H59.9z"/><path class="st1" d="M59.9 48.5h39.8V110H59.9z"/><path class="st3" d="M60.3 49h38.8v60.6H60.3z"/><path class="st4" d="M73.5 80.5l2.1 2.1c2.3-2.3 6.1-2.3 8.4 0l2.1-2.1c-3.5-3.4-9.2-3.4-12.6 0zm13.4-.8l2.1-2.1c-5.1-5.1-13.4-5.1-18.5 0l2.1 2.1c4-4 10.4-3.9 14.3 0zm-19.3-5l2.1 2.1c5.6-5.6 14.6-5.6 20.2 0l2.1-2.1c-6.8-6.8-17.7-6.8-24.4 0zm15.6 8.8c-1.9-1.9-4.9-1.9-6.8 0l3.4 3.4 3.4-3.4z"/><path class="st5" d="M60.3 49h38.9v60.6z"/><path class="st3" d="M84.4 44.4h-9.3l-2.3-.9h13.9z"/><circle class="st3" cx="89.5" cy="46.4" r="1.1"/><defs><filter id="Adobe_OpacityMaskFilter" filterUnits="userSpaceOnUse" x="88.4" y="45.3" width="2" height="1.9"><feColorMatrix values="1 0 0 0 0 0 1 0 0 0 0 0 1 0 0 0 0 0 1 0"/></filter></defs><mask maskUnits="userSpaceOnUse" x="88.4" y="45.3" width="2" height="1.9" id="SVGID_1_"><g class="st6"><linearGradient id="SVGID_2_" gradientUnits="userSpaceOnUse" x1="88.921" y1="45.422" x2="89.599" y2="46.596"><stop offset="0" stop-color="#fff"/><stop offset="1"/></linearGradient><path class="st7" d="M90.4 45.7c-.2-.3-.5-.5-.9-.5-.6 0-1.1.5-1.1 1.1 0 .3.1.6.3.7.5-1.2 1.7-1.3 1.7-1.3z"/></g></mask><path class="st8" d="M90.4 45.7c-.2-.3-.5-.5-.9-.5-.6 0-1.1.5-1.1 1.1 0 .3.1.6.3.7.5-1.2 1.7-1.3 1.7-1.3z"/><path class="st3" d="M69.1 46.7c0 .3-.2.5-.5.5h-1.4c-.3 0-.5-.2-.5-.5s.2-.5.5-.5h1.4c.3 0 .5.2.5.5zm2 0c0 .3-.1.5-.3.5h-.9c-.2 0-.3-.2-.3-.5s.1-.5.3-.5h.9c.2 0 .3.2.3.5z"/><path class="st1" d="M83.5 114.6c0 .5-.4 1-1 1H77c-.5 0-1-.4-1-1V112c0-.5.4-1 1-1h5.4c.5 0 1 .4 1 1v2.6z"/><path class="st9" d="M77 115.2c-.3 0-.5-.2-.5-.5V112c0-.3.2-.5.5-.5h5.4c.3 0 .5.2.5.5v2.7c0 .3-.2.5-.5.5H77z"/><path class="st1" d="M80.7 113.8c0 .3-.2.5-.5.5h-.9c-.3 0-.5-.2-.5-.5v-.9c0-.3.2-.5.5-.5h.9c.3 0 .5.2.5.5v.9z"/><path class="st2" d="M79.3 112.8h.9v.9h-.9z"/></svg>