<svg xmlns="http://www.w3.org/2000/svg" xmlns:xlink="http://www.w3.org/1999/xlink" viewBox="0 0 160 160"><style>.st0{fill:url(#SVGID_1_)}.st1{fill:url(#SVGID_2_)}.st2{fill:url(#SVGID_3_)}.st3{fill:#f4cc7a}.st4{fill:#efa154}.st5{fill:#f7ce80}.st6{fill:#fcad65}.st7{fill:#ffbb71}.st8{fill:none}.st9{fill:#ff9750}.st10{fill:#d85555}.st11{fill:#721919}.st12{fill:#ffd0a9}.st13{fill:#ffe5d2}.st14{fill:#230303}.st15{fill:#d3d3d3}.st16{fill:#eaeaea}.st17{fill:#fff}.st18{fill:#a0a0a0}.st19{fill:#fcb77e}.st20{fill:#ffcea9}.st21{fill:#9b511b}.st22{fill:#24630d}.st23{fill:#327214}.st24{fill:#21540b}.st25{fill:#85d348}.st26{fill:#194705}.st27{fill:#ace298}.st28{fill:#518e1b}.st29{fill:#448c1e}.st30{fill:#bcb23f}.st31{clip-path:url(#SVGID_5_);fill:#a89d35}.st32{fill:#e5d96a}.st33{fill:#f4e782}.st34{fill:#fff7ae}.st35{fill:#e26666}.st36{fill:#141e08}.st37{fill:#8e852d}.st38{fill:#bf2201}.st39{clip-path:url(#SVGID_7_);fill:#ad1800}.st40{fill:#dd2a12}.st41{fill:#f22f20}.st42{fill:#ff8b7b}.st43{fill:#ad1800}.st44{fill:#2c4711}.st45{fill:#557a25}.st46{fill:#931602}.st47{fill:#b7b7b7}.st48{fill:#335d8c}.st49{fill:#19415e}.st50{fill:#898989}.st51{fill:#e5e5e5}.st52{fill:#71a5d3}.st53{fill:#383838}.st54{fill:#d0d5d8}.st55{fill:#edeeef}.st56{fill:#ffc464}.st57{fill:#df6e00}.st58{fill:#f8a244}</style><linearGradient id="SVGID_1_" gradientUnits="userSpaceOnUse" x1="-185.758" y1="75.804" x2="-177.697" y2="75.804" gradientTransform="matrix(-1 .011 .011 1 -136.386 3.267)"><stop offset="0" stop-color="#DF6E00"/><stop offset=".658" stop-color="#FFC464"/><stop offset=".99" stop-color="#DF6E00"/></linearGradient><path class="st0" d="M45.7 79.4s-5.3-2.7-2.9-4.3c1.6-1 5.8-.5 5.8-.5l1.6 3.7-4.5 1.1z"/><linearGradient id="SVGID_2_" gradientUnits="userSpaceOnUse" x1="44.966" y1="76.835" x2="115.674" y2="76.835"><stop offset="0" stop-color="#CC6B11"/><stop offset=".658" stop-color="#EFB85E"/><stop offset=".99" stop-color="#CC6B11"/></linearGradient><ellipse class="st1" cx="80.3" cy="76.8" rx="35.4" ry="4.8"/><linearGradient id="SVGID_3_" gradientUnits="userSpaceOnUse" x1="106.504" y1="71.806" x2="114.362" y2="71.806" gradientTransform="translate(3.621 3.267)"><stop offset="0" stop-color="#DF6E00"/><stop offset=".658" stop-color="#FFC464"/><stop offset=".99" stop-color="#DF6E00"/></linearGradient><path class="st2" d="M113.8 78.8s4.8-2.1 2.9-4.3c-1.9-2.2-6.9 2-6.9 2l-.5 1.2 4.5 1.1z"/><path class="st3" d="M110.7 82c-.9 0-1.6-.7-1.7-1.5-1.5-18.6-15.7-26.9-29.1-26.9-13.4 0-27.6 8.3-29.1 26.9-.1.8-.9 1.5-1.8 1.5-.9-.1-1.6-.9-1.5-1.8 1.6-20.6 18-30 32.5-30s30.8 9.4 32.5 30c.1.9-.6 1.7-1.5 1.8h-.3z"/><path class="st4" d="M69 93.1c-3.9 1-7.6-7.8-9.5-13.2-1.9-5.4-7.3-23.3-4.9-26.5 2.3-3.1 8.2 2.7 9.2 8 0 0 2.7 2.9 3 7.6 0 0 2.6 2 2.3 6.8 0 0 2.1 3.4 1.5 6.9-.1.1 3.2 9.2-1.6 10.4z"/><path class="st5" d="M63.5 61.7s-1.6-1.2-3.6-.7c-2 .4-3.2 3.1-3.2 3.1s3.2-2.8 6.8-2.4zm3 7.6s-1.4-1.2-3.9-.7c-2.5.4-3.3 3.7-3.3 3.7s2.9-3.4 7.2-3zm2.3 6.8s-4.9-2.7-7.1 2.5c0 0 2.2-2.2 7.1-2.5zm1.7 6.7s-4.2-1.4-5 2.1c-.1 0 1.5-1.6 5-2.1z"/><path class="st6" d="M56.7 61.8c-1 1.3-2.1-6.1-1.3-7.5.8-1.3 3.4-.3 4.7 1.4 1.3 1.8 2.9 4.2 1.9 4.4-1 .3-3.3-1-5.3 1.7zm2 8.3c-.9.2-1.4-5.2.6-6.5 2-1.3 3.7-1.4 4.9 0 1.3 1.5 1.6 3.7 1.1 3.8-.6.1-2.4.1-3.5.5l-3.1 2.2zm2.7 6.9c-1.1.1-2.1-2-1.4-4.1.8-2 5.2-3.9 6.7-2.7 1.5 1.1 1.7 3.4 1.2 4.2-.6.8-3-.3-3.9 0-1 .4-1.3 2.4-2.6 2.6zm2.6 6.5c-.8 0-2.3-5.2 1.2-6.3 3.5-1.1 4.2.7 4.3 2.2.1 1.6-.3 2.6-1.3 2.3-1-.3-2.5 1.7-4.2 1.8zm6.2 8.2c-1.4 1-5.6-3.5-5.3-4.9.2-1.4 3.4-3.5 5-2.8 1.6.7 1.4 6.9.3 7.7z"/><path class="st7" d="M59.3 59.4c-1.6.2-1.8-1.9-.6-2.1 1.1-.2 2.9 1.9.6 2.1zm-2.1-3.1c-1 .4.8 2.3 1.4 1.7.6-.6-.1-2.2-1.4-1.7zm2.1.7c-.8 0-.7-.8 0-.6.7.1.9.5 0 .6zm-2.1 1.2H57c-.1 0-.2.1-.2.2s.1.3.3.3c.1 0 .3-.1.3-.3-.1 0-.1-.1-.2-.2zm5.3 6c-.2-.6-1-1.3-1.6-.8-.2.1-.2.4-.2.6 0 .1 0 .2.1.3 0 0-.1 0-.1.1-.2.1-.1.4 0 .6 0 .1.2.2.3.2h.1c.2 0 .3-.2.2-.4.2.2.6.2.9.1.2-.2.3-.4.3-.7zM61.6 66.4v-.3c-.1-.4-.6-.7-.9-.8-.3-.1-.6-.1-.9.1-.1.1-.2.2-.3.4-.2.4.2 1 .5 1.2.1.1.3.2.5.3h.6c.4-.1.6-.5.5-.9zm.8-.6c0-.2-.1-.3-.3-.3-.2 0-.3.1-.3.3 0 .1.1.3.2.3.1.1.2 0 .4 0 0-.1.1-.3 0-.3zm4.1 5.8c-.1-.2-.3-.3-.5-.4-.5-.6-1.8-.9-1.9.2v.2l-.1-.1c-.1-.1-.3-.1-.5-.1 0 0-.1 0-.1.1l-.1.1v.1h-.2.1l.1.1.1.2s.1 0 .1.1c.1.1.2.2.3.2.1 0 .3-.1.3-.2.1.4.4.7.7.9.5.2 1.3.3 1.7-.2.2-.5.2-.9 0-1.2zm-3 1.9c0-.2-.2-.4-.4-.5-.1-.1-.3-.1-.5-.1 0 0-.1 0-.1-.1-.2-.1-.5 0-.6.2-.2.2-.3.4-.2.7.1.3.4.5.7.6.3.1.6.1.8 0 .3-.3.4-.5.3-.8zm2.9 4.9c-.4 0-.7.2-.9.5-.1-.2-.3-.4-.5-.5-.3-.1-.6.1-.8.3l-.1.1c-.1.1-.1.2-.2.4 0 .1 0 .1-.1.2-.1.3-.2.9.1 1.1 0 .1.1.2.2.3.3.3.7.2 1-.1.1-.1.2-.3.3-.5.3.7 1.3.4 1.7-.2.4-.6.1-1.5-.7-1.6zm1.1.8c-.2 0-.3.3-.1.4h.2c.2-.1.1-.4-.1-.4zm2 6.7c0-.1 0-.1-.1-.2 0-.1-.1-.2-.1-.4-.1-.2-.2-.4-.4-.5-.1-.2-.3-.3-.5-.4-.4-.1-1 .1-1.2.4-.2.3-.1.6.1.8h-.1c-.1 0-.3.1-.3.3 0 .2.1.2.3.3.1 0 .2 0 .2-.1l.1-.1c.2.2.4.3.6.4l.6.3c.6.1.9-.3.8-.8z"/><path class="st9" d="M75.7 48.2l.4-2.7s3-.3 4.8 1.1l-1.1 2.5-4.1-.9z"/><path class="st10" d="M75.7 47.6c-1.1-.1-1.1 1.2 0 1.7 0 0-.9 6.2-2 7.2-1.1 1.1-3.8 2-5.3 4.7-1.5 2.6-5.3 22.3-5.6 23.9-.4 1.6 11.5 6.7 12.9 2.7 1.4-4.1 4.7-22 4.5-23.9-.2-1.9-2.3-5.4-2.5-6.6-.1-1.3 1.3-6.8 1.5-7.3 1.2.2 1.9-.9 1.1-1.5-.9-.6-3.3-.9-4.6-.9z"/><path class="st11" d="M76.1 47.9c-1-.1-1.1.7 0 1.2 0 0-.6 6.8-1.6 7.8s-4 2.1-5.5 4.6c-1.5 2.6-5 21.2-5.4 22.7-.3 1.6 10.1 6.2 11.5 2.2 1.4-4 4.6-20.5 4.4-22.4-.2-1.9-2.4-5.6-2.5-6.8-.2-1.1 1.5-7 1.7-7.5 1.1.2 1.7-.4.9-1-.9-.5-2.3-.7-3.5-.8z"/><path class="st12" d="M69.2 63.1s5.6 1.6 9.4 1.8c0 0-2.1 12.2-2.4 13.6-.3.7-8.9-1-9.8-2.1-.1 0 2.2-11.8 2.8-13.3z"/><path class="st13" d="M69.4 63.6s5.2 1.5 8.7 1.7c0 0-1.9 11.3-2.3 12.7-.3.7-8.3-.9-9.1-2 .1 0 2.2-11 2.7-12.4z"/><path class="st14" d="M76.1 49.1s2.3.7 2.8.7c.1 0-1.5-.7-2.8-.7z"/><path class="st10" d="M74.3 58.5c-1.1-.2-4.3 1.9-4.6 3.3-.3 1.4 4 1.9 4.9 1.6 1-.3 1.4-4.6-.3-4.9z"/><path class="st15" d="M82.5 84s10.3-16.8 12-18c1.7-1.2 4.9-1.1 5.4-1.2.5-.1 3.3-3.8 3.7-4.5 0 0-.7-.9-.2-1.4.5-.5 1.3-.8 3.9.8 2.6 1.6 3.6 2.7 3 3.6-.6.9-2.1.2-2.1.2s-2.9 4.2-3 4.6c-.1.4 1.3 3.3 1 4.9-.3 1.6-10.9 18.1-11.5 18.9-.7.9-11.4-.4-12.2-7.9z"/><path class="st16" d="M83.4 83.9S93 67.7 94.7 66.4c1.7-1.2 4.9-.9 5.4-1 .5-.1 3.7-4.3 4-5 0 0-.6-.5-.2-1.2.3-.5.6-1 3.2.6s3.6 2.2 3.1 3.1c-.6.9-2.2.1-2.2.1s-3.2 4.4-3.4 4.9c-.1.4 1.3 3.4 1 5.1-.3 1.6-10.5 17.7-11.2 18.6-.7.8-10.1-.2-11-7.7z"/><path class="st17" d="M94.1 67.4s-10 15-10.7 16.5c-.6 1.4 2.4 4.5 3.8 5.5s5.9 1.9 6.7 1.6c.8-.3 10.5-16.2 10.9-17.3.4-1.1.2-2.5-.5-2.9-.8-.4-2.3-.5-2.8-.7-.5-.2-.2-1.6-1.1-2-.9-.4-1.7.7-2.3.4-.6-.2-.3-.8-1.4-1.4-.7-.4-2.2-.3-2.6.3z"/><path class="st18" d="M104.1 60.7s1.3 1.7 3.7 2.7c0 .1-3-.8-3.7-2.7z"/><path class="st19" d="M104.9 58.9s.9-2.1 1.1-2.3c.2-.2 5.8 3.1 5.7 3.5-.1.4-1.7 2.2-1.7 2.2s-4.2-1.3-5.1-3.4z"/><path class="st17" d="M107.4 62.4c-.1-.3-.4-.4-.6-.6-.3-.2-.7-.5-1-.8l-1.4-1.6c-.1-.1-.3.1-.3.2.1.8.8 1.4 1.3 1.9.4.4 1.2 1.1 1.8 1 .2.1.2 0 .2-.1zM96.8 66c1.6-.1 3.1.4 4.2-.9.7-.7 2.1-3.1 2.6-3.1s.9.6.8.9c-.1.3-2.5 3.5-2.7 3.8-.2.3-2.8 1-3.3.6-.6-.2-1.1-.9-1.6-1.3z"/><path class="st20" d="M105.2 58.9l.8-1.7s2.5 1.2 3.6 1.9-.3 2.2-.3 2.2-2.2-.4-4.1-2.4z"/><path class="st21" d="M104.9 58.9s.5 1.8 5.1 3.4c0 0-2-.5-3.4-1.4-1.5-.9-1.7-2-1.7-2z"/><path class="st22" d="M89 57.6c-1.1-.3-1.7 0-2.2.5-.6.5-2.2 4.6-3.3 6.6-1.1 2-3.6 8.4-3.7 11.7-.1 3.3.5 6.3 1.2 7 .7.7 2 1.3 2.9 1.4.9.1 3.6-.1 4-1.4.4-1.3.1-9.9.6-11.9s4-10.7 3.8-11.4c-.4-.9-1.3-2.1-3.3-2.5z"/><path class="st23" d="M89.5 59.2c-1.1-.5-2 .2-3.4 2.9-1.5 2.7-4 10.3-4 11.5-.1 1.2-.2 7.5 0 8.2.2.8 2.8 1.5 3.4 1 .6-.5.8-10 .8-11.2 0-1.2 1.4-4.7 2.4-6.7.8-1.9 2.1-5.1.8-5.7z"/><path class="st24" d="M84.7 83.8s1.8-.5 2-1.1c.1-.6.4-9.6.8-11.6s2.7-7.2 2.9-8c.3-.8 1.1-2.3.9-2.9l-1-1.5s1.8.7 1.9 1.3c.1.6-3.8 10.7-3.9 12.1-.1 1.4 0 11.1-.6 11.6S84.9 85 84 84.8c-.9-.3.7-1 .7-1z"/><path class="st25" d="M89.6 56.1s-1.1-.5-1.4-.3c-.2.2-1 1.9-1 1.9s1.4.5 1.6.5c.2 0 .6-.2.6-.2l.6.6c.2.1 1.2.6 1.3.6.1 0 .3-.1.3-.1s0 .4.1.5c.1.1.3.2.3.2s.3-.3.3-.5c.1-.1.3-1.1.3-1.2-.1-.1-.5-.3-.5-.3s0-.4-.1-.5c-.1-.1-.3-.2-.3-.2s.1-.6.1-.7c-.1-.1-1.3-.8-1.5-.7-.1-.1-.7.4-.7.4z"/><path class="st26" d="M90.4 59.2s.6 1 .5 1.5c-.1.5-.9 2.2-.9 2.2s.7-1.7.6-2.3c0-.6-.2-1.4-.2-1.4zm-1.5-.7s-1.1.1-1.5.5c-.4.3-1.2 2.2-1.2 2.2s1.1-1.8 1.4-2c.3-.3 1.3-.7 1.3-.7zm0 7s-1.3 3.3-1.6 4.6c-.3 1.3-.7 4.8-.7 4.8s.1-3.8.4-4.8c.3-1.1 1.9-4.6 1.9-4.6zm-7.8 10.8s.2 5 .6 5.8c.3.5 1.9 1.2 1.9 1.2s-1.8-.7-2-1c-.6-.6-.6-4.2-.5-6zm3.7 7.3s1-.4 1.3-1.5c.4-1.1.3-4.1.3-4.1s.3 2.6-.1 4.1c-.5 1.5-1.5 1.5-1.5 1.5z"/><path class="st27" d="M84.1 84.2c-1-.1-1.8-.2-1.7.1 0 0 .2.6.7.5 0 0 .4.5 1.3.1 0 0 .8.4 1-.2.2-.4-.6-.5-1.3-.5z"/><path class="st28" d="M89.8 56.3s.4.3.4.6-.4.9-.4.9l-.2-.3c-.1 0 .2-1 .2-1.2zm2.4 1.6s.1.5-.4 1-.1.2-.1.2l.5-1.2z"/><path class="st26" d="M91.4 59.6s.4.4.3.9c-.1.5-.4 1.4-.4 1.4s.4-1.2.1-2.3z"/><path class="st29" d="M89 59.6c-1.1-.4-3 2.5-5 8.4-2.3 6.6-1.8 8.1-.7 8.2 1.1.1 1.9-5.1 2.2-6.2 1-3.8 4.9-9.9 3.5-10.4z"/><path class="st30" d="M82 68.2c-.2 0-.6-.4-.8-.3-.8.3-1.6 1.2-2 2.4-.4 1.6-1.2 4.4-1.9 5.9-.6 1.5.2 3.2 1.6 4.6 1.4 1.3 2.6 1.3 3.2 1.3.6 0 .7-.8 1.5-.6.9.1 2 .7 2.9-.2.9-.9 2.3-2.5 2-4.3-.3-2-3.2-3.3-3.6-4.2-.3-.8-.3-3.5-2.4-4.5 0-.3-.2 0-.5-.1z"/><defs><path id="SVGID_4_" d="M81.2 67.9c-.8.3-1.6 1.2-2 2.4-.4 1.6-1.2 4.4-1.9 5.9-.6 1.5.2 3.2 1.6 4.6 1.4 1.3 2.6 1.3 3.2 1.3.6 0 .7-.8 1.5-.6.9.1 2 .7 2.9-.2.9-.9 2.3-2.5 2-4.3-.3-2-3.2-3.3-3.6-4.2-.3-.8-.3-3.5-2.4-4.5-.1-.1-.2 0-.4 0-.1 0-.2.1-.4.1.1-.2-.2-.5-.5-.5"/></defs><clipPath id="SVGID_5_"><use xlink:href="#SVGID_4_" overflow="visible"/></clipPath><path class="st31" d="M81.1 67.9s-1 .6-1.5 2.6-1.2 5.8-.6 7.2c.6 1.4 2 2.6 2.8 2.6.8 0 2.1-.1 2.6.3s2.2.7 3.4-.7c0 0-.5 1.4-1.5 2.1-1 .7-2.3-.1-3 .3-.6.4-2.3.8-4.7-1.2-2.3-2-2.8-2.9-2.1-4.9.7-1.9 2.1-4 2.2-5.2.1-1.1 1.5-3.3 2.4-3.1"/><path class="st32" d="M84.1 69.5c-.4-.6-.8-.9-1.1-.8-.3.2-.6 1-1.7.2-.6-.5-1.4 1.5-1.6 2.9-.2 1.5-.3 4.9 1.2 6.2 1.5 1.2 2.5.6 3.4 1.1 1.9 1.3 3.6 0 3.9-1.3.3-1.3-.4-2.9-1.8-3.8-1.4-.8-1.7-1.6-1.7-2.5-.1-.8-.4-1.6-.6-2z"/><path class="st33" d="M83.3 69.3c-.5-.2-1.5.3-2 1.3s.1 3.1 1 4.9c1 1.9 4 3.9 4.9 3.1.9-.8.7-2.8-.5-3.6-1.2-.8-1.8-1-2.2-1.7-.4-.7.2-3.4-1.2-4z"/><path class="st34" d="M83.9 70.5c-.4-.8-1-.9-1.5-.5-.6.4-.3 3.1.6 3.6 1 .4 1.4-2.2.9-3.1zm3.5 6.2c0-1-.5-1.6-1.3-2-.8-.4-2 .6-2 1.7s3.4 3 3.3.3z"/><path class="st35" d="M75.5 69.2c0-.1.1-.2.2-.4.1-.4-.3-.9-.9-1h-.3c0-.2-.1-.5-.4-.5-.4 0-.7.3-.6.6h-.2c.1-.3.4-.8.7-1 .5-.2 1.8.2 1.8.2l-.1-.3s-1.2-.3-1.8-.1c-.7.2-.9 1.3-.9 1.3-.1-.2-.4-.3-.6-.4-.3-.2-1 .2-1.1.6-.1-.2-.4-.5-.7-.5-.4-.1-.8.5-.6.8.1.2.4.4.7.4-.2.2-.3.5-.3.7 0 .2.2.4.4.6h-.1c-.2 0-.3.2-.2.4-.2-.1-.4-.1-.6.1-.2.2-.1.6.1.8-.3.1-.6.4-.5.6 0 .3.3.5.6.6-.1.3-.3.6-.1.9.1.1.3.3.5.4-.1.2-.1.5.4.6.5.1.7-.3.5-.6.1 0 .1 0 .2.1.2 0 .5-.3.5-.7 0-.1-.1-.3-.2-.3h.1c.4.1.6-.2.6-.4.1 0 .2.1.3 0 .3-.1.4-.3.5-.5.5.2 1.1-.2.7-.8-.1-.1-.2-.2-.3-.2h.1c.1 0 .3-.2.4-.4v.1c.2.4 1 .8 1.3-.1v-.2c.3 0 .5-.1.7-.5 0-.4-.4-.8-.8-.9"/><path class="st32" d="M82.9 68.4c0-.2-.1-.2-.3-.2-.3 0-.4.2-.7 0-.2-.1-.6-.3-.8-.1-.1.1 0 .2.1.1.3 0 .6.2.8.3h.4c.1 0 .1 0 .2-.1h.3c0 .1.1.1 0 0z"/><path class="st33" d="M82.8 68.4c0-.2-.4-.2-.5-.1 0 0-.1.1 0 .1h.3s.1.1.2 0z"/><path class="st34" d="M82.8 68.3c0-.1-.1-.1-.2-.1s-.2 0-.2.1.1.1.1.1c.1 0 .2 0 .3-.1z"/><path class="st33" d="M82.7 68.3c-.1-.1-.2-.1-.2-.1-.1 0-.2 0-.3.1v.1h.2c.2 0 .2 0 .3-.1z"/><path class="st36" d="M81.9 68.8s.5-.8.2-2.1-1.2-2.1-1.2-2.1-.6 0-.6.2c0 0 1.2 1.1 1.4 2.1.3 1 0 1.9 0 2-.1.1.1.1.2-.1z"/><path class="st37" d="M81 68.6s.4 0 .6.2c.2.2.6.1.8-.1 0 0-.1.6-.6.5-.3-.2-.2-.5-.8-.6z"/><path class="st38" d="M74.4 74.3c-.7-.1-2.1-1.9-4.1-2.1-2-.1-5 2.1-4.8 5.6.2 3.5 2.7 6.6 4.3 7.1 1.6.5 2.1 0 2.5 0 .3 0 .7.8 1.9 1 1.2.2 4.9-2.3 6-5.1 1.1-2.9-.6-5.6-2.1-6.2-1.8-.5-2.8-.2-3.7-.3z"/><defs><path id="SVGID_6_" d="M65.4 77.9c.2 3.5 2.7 6.6 4.3 7.1 1.6.5 2.1 0 2.5 0 .3 0 .7.8 1.9 1 1.2.2 4.9-2.3 6-5.1 1.1-2.9-.6-5.6-2.1-6.2-1-.3-1.8-.3-2.5-.3h-1c-.7-.1-2.1-1.9-4.1-2.1h-.2c-2.1 0-5 2.2-4.8 5.6"/></defs><clipPath id="SVGID_7_"><use xlink:href="#SVGID_6_" overflow="visible"/></clipPath><path class="st39" d="M77.9 74.6c-.2 0 1.3.9 1.6 2.6.3 1.8-.4 4.1-2.9 5.6-4 2.4-7.4 2.6-10.7-1.2 0 0 .5 4.4 5.7 5.5 5.3 1.1 7.5-2.7 8.8-5.4 1.3-2.5-.3-6.9-2.5-7.1"/><path class="st40" d="M69.9 83.9c-.9-.1-2.6-.7-3.6-3.9-1-3.1.3-5.2 1-5.9.7-.7 1.8-1.4 3.2-.8 1.4.6 1.5 2.1 3.1 2.9 1.5.8 3.1.1 3.7-.1.6-.2 1.7.9.9 3.3-1 3.4-5.6 4.7-8.3 4.5z"/><path class="st41" d="M76.5 78.8c-.3.9-3 3.6-5.6 3.2-2.6-.5-4.6-2.5-4.6-4.4 0-1.9 1-4.2 2.8-4 1.7.2 2.8 1.3 3.2 1.8 2 2.8 5.2.7 4.2 3.4z"/><path class="st42" d="M73.8 78.7c.9-.7.6-1.3-.5-1.8s-1.6-.7-1.9-1.9c-.3-1.2-1.5-1.6-2.4-1.2-.9.4-1.6 2.1.5 3.8 2.3 1.7 3.8 1.4 4.3 1.1zm-6.1-3.8l.1-.4c0-.1 0-.2-.1-.2s-.2.1-.2.2c-.1.1-.1.2-.1.3-.1.2.2.3.3.1z"/><path class="st40" d="M77.4 74.9c-.6-.6-1.6-.4-2.3-.3-1.1.1-1.8-.7-2.6-1.4-.5-.4-1.1-.6-1.6-.7-.3-.1-1.1-.3-1.3.1v.1c1.3-.1 2.4.6 3.3 1.5.5.5 1.1.9 1.9.9.4 0 .7 0 1.1-.1.5 0 .9.1 1.4.2.1 0 .2-.2.1-.3z"/><path class="st42" d="M73.1 73.8c-.1-.3-.5-.6-.8-.7-.3-.2-.7-.4-1.1-.4 0 0-.1.1 0 .1l1 .5c.3.2.5.5.8.6 0 0 .1 0 .1-.1z"/><path class="st43" d="M74.2 75.9c-.3-.1-.6-.3-1-.7-.4-.4-.4-.6-.4-.7 0-.1.5.1.8.4.3.2.6.5 1.2.5s1.5-.2 1.5 0-1.6.6-2.1.5z"/><path class="st44" d="M74.1 75.7s.6-2.7-1-4.7l.7-.6s1.7 3.8.5 5.5c0-.1-.3.1-.2-.2z"/><path class="st45" d="M74.3 72.6c-.2-.5-.3-1.3-.8-1.7 0 0-.1 0-.1.1.3.5.5 1.1.7 1.7l.2.9.1 1c0 .1.1.1.1 0 .2-.6-.1-1.4-.2-2z"/><path class="st46" d="M72.1 73.8s.7.4 1 1c.3.6 1.1 1.2 1.8.9.8-.3 1.5-.6 1.8-.5 0 0-1 .5-1.7.8-.7.3-1.6-.2-2.1-1-.4-.8-.4-1.1-.8-1.2z"/><path class="st47" d="M87.3 72.4s-1 0-1.2.5c-.2.5.4 2.6 3.9 4.9 3.4 2.3 5.9 2.5 7.2 2.5 1 0 1-.9.5-1.3-.6-.5-10.4-6.6-10.4-6.6z"/><path class="st48" d="M89 69.6s-1.5 2.2-2.2 3.2c-.7 1 4.7 6.7 10.6 6.7.2 0 2.2-3.6 2.2-3.6S91.8 74 89 69.6z"/><path class="st49" d="M87.5 74.5l2.3-3.8s6.3 4.3 8.8 5.1l-2 3.7c.1 0-4.9.1-9.1-5z"/><path class="st47" d="M100.5 75.7c-.6.9-3.6.1-6.8-1.8-3.2-1.9-5.5-4.2-4.9-5.1 1-1.4 3.6-.1 6.8 1.8 3.2 2 5.6 4.1 4.9 5.1z"/><path class="st50" d="M95.4 70.9c-2.8-1.6-5.3-2.4-5.7-1.8v.2c.6-.3 2.9.6 5.4 2.1 2.6 1.5 4.5 3.1 4.5 3.7.1 0 .1-.1.1-.1.5-.6-1.5-2.5-4.3-4.1z"/><path class="st51" d="M95.2 71.4c-2.6-1.5-4.9-2.4-5.4-2.1 0 .7 1.8 2.4 4.4 3.9 2.6 1.5 4.9 2.3 5.6 1.9-.2-.6-2.1-2.2-4.6-3.7z"/><path class="st47" d="M91.5 70.5c.5-.7 6.6 2.5 6.1 3.6-.5.6-6.7-2.9-6.1-3.6z"/><path class="st52" d="M91.4 77.2c-2.8-1.8-3.7-4.2-3.3-4.8.5-.7 3.1.4 5 1.7 1.9 1.3 4.2 2.8 3.6 4-.5 1-4 0-5.3-.9z"/><path class="st51" d="M88.9 73s4.2.3 5.8 4l1.6.1-1.3 1.3-.4-.8c-.1 0-5.2-1-5.7-4.6z"/><path class="st53" d="M90.6 73.7h-.2v-.2h-.1l-.1.2h-.4v.2h.4v.2h.1l.1-.2h.2z"/><path class="st54" d="M97.9 75.1l-2.5-1c-.9-.4-1.7-.9-2.5-1.5l-2-1.5c-.7-.5-1.1-1.1-1.6-1.9-.1-.1-.3 0-.3.1.3 1.5 2.1 2.6 3.2 3.4.8.6 1.7 1.1 2.6 1.6.9.4 1.9.9 2.9.9.3 0 .3-.1.2-.1zM90 68.5c-.1-.1-.3-.1-.5 0l-.2.1c-.1 0-.1.1-.2.2s0 .2.1.2h.3c.1 0 .3 0 .4-.1.2-.2.2-.3.1-.4zm.3 8.9c-.2-.3-.6-.6-.9-.8l-1.2-1c-.7-.7-1.4-1.5-1.8-2.4 0-.1-.2 0-.2.1.3 1 .8 1.8 1.5 2.5.4.4.8.7 1.2 1 .4.3.7.7 1.2.7.2.1.2 0 .2-.1z"/><path class="st55" d="M91.1 71.6l-.7-.9c-.2-.3-.4-.5-.8-.8h-.1c.1.4.3.6.6.9.4.3.7.6 1 .8zm.8.4l-.3-.2c-.1-.1-.2.1-.1.2l.2.2c.1.1.2.2.3.1l.1-.1c0-.1-.1-.1-.2-.2zm-3.6 3.9l-.1-.2-.3-.3c-.2-.2-.4-.4-.6-.7h-.1c.1.3.2.5.4.8.1.2.4.5.7.4zm1.4-7.4h-.2c-.1 0-.1.2 0 .2s.2 0 .3-.1c0 0 0-.1-.1-.1z"/><path class="st56" d="M116.7 75.7c0 .2-1.6 6.1-1.7 6.3l-10.8 27.7c-.3.8-.8 1.5-1.5 2.1-.4.4-.9.8-1.4 1.1-.6.3-2.7 1.2-3.1 1.2H60.9c-.3 0-3.1-1.1-4-1.8l-.4-.4c-.4-.4-.8-.9-1.1-1.3-.2-.2-10.6-26.6-10.6-26.6L43 77.5c-.4-1.1 1.1 1.4 2.3 1.4L79 81.6l34.7-2.9c1.5-.9 3-3.7 3-3z"/><path class="st57" d="M65.4 114.2h-1.9l-11.3-11.4-.4-1-.7-1.7v-.2l-.1-.2zm9.5 0H73L46.1 87.3l-.2-.4v-.1l-.4-1-.6-1.6zm9.5 0h-1.9l-.8-.9-3.8-3.8-1-.9-3.8-3.8-5.7-5.7-3.8-3.8-.9-1-3.8-3.7-1-1-3.8-3.8-4.7-4.8-1-.9-.9-.9 1.7.1.4.1.7.7 3.8 3.8 4.8 4.8.9.9 3.8 3.8 1 .9 3.8 3.8 4.7 4.8 1 .9 3.8 3.8.9 1 3.8 3.8 1 .9zm9.5 0H92l-.8-.9-3.8-3.8-1-.9-3.8-3.8-.9-1-4.8-4.7-3.8-3.8-4.7-4.8-1-.9-4.7-4.8-3.8-3.8-1-.9-.1-.1h.2l1.8.2h.1l3.7 3.7 1 .9 3.8 3.9.9.9 3.8 3.8 1 .9 4.7 4.8 3.8 3.8 5.7 5.7 3.8 3.8zm8-1.6c-.2.1-.4.2-.5.3-.2.1-.4.2-.6.4l-3.8-3.8-1-1-3.8-3.8-1-1-3.8-3.8-4.7-4.7-.9-.9-3.8-3.8-.9-.9-3.8-3.8-4.9-4.8-.2-.2h.4l1.6.1 3.9 3.9 3.8 3.8 1 1 3.8 3.8.9.9 3.8 3.8 4.7 4.7.9.9 3.8 3.8.9.9 3.8 3.8.4.4zm3.5-5.9l-.1.3-.4 1.1-26.5-26.5.7.1 1.2-.1zm2.7-6.8l-.5 1.3-1.2-1.2-1-.9-3.8-3.8-4.7-4.8-1-.9-4.7-4.8-3.8-3.8h-.1.1l1.7-.2 3 3.1 1 .9 4.7 4.8 3.8 3.8 4.8 4.7.9 1zm2.7-6.9l-.5 1.2-.1.2v-.1l-3.8-3.7-1-1-3.8-3.8-5.5-5.5-.1-.1h.1l1.6-.2.1.1 8.6 8.6.9.9zm2.6-6.8v.1l-.1.1-.3.9-.1.3-2.7-2.8-3.8-3.8-1.7-1.6h.2l1.2-.1h.4l.8.8zm2.4-7.1c-.2.6-.3 1.1-.4 1.5l-1.8-1.8h.2c.3-.2.6-.5.9-.8l1.1 1.1z"/><path class="st58" d="M50.9 79.5l-.6.6-.9.9-3.8 3.8-.3.3-.4-.9-.1-.2-.1-.2 3.7-3.7.8-.8.4.1zm8.9.7l-.9.8-3.8 3.8-1 1-3.8 3.8-.9 1-1.5 1.4-.3-.9-.2-.5 1-1 1-.9 3.8-3.9.9-.9 3.8-3.8.1-.1zm8.8.6l-.2.2-3.8 3.8-4.8 4.8-.9 1-3.8 3.7-1 1-3.5 3.5-.5-1.4 3.1-3.1.9-.9 3.8-3.8 1-.9 3.8-3.9.9-.9 3.2-3.2 1.3.1zm8.8.7l-3.3 3.3-1 1-3.8 3.8-.9.9-3.8 3.8-1 1-3.8 3.8-.9.9-3.8 3.8-1 1-.8.9-.1-.3-.5-1.1.5-.5.9-.9 3.8-3.8 1-1 3.8-3.8.9-.9 3.8-3.8 1-.9 3.8-3.9.9-.9 2.5-2.5zm10-.5l-3.9 3.9-1 .9-3.8 3.8-1 .9-3.8 3.8-.9.9-3.8 3.8-.9 1-3.8 3.8-.9 1-3.8 3.8-.9 1-2.5 2.5-.9-1 2.4-2.4 1-.9 3.8-3.8 1-.9 3.8-3.8 1-.9 4.7-4.7 3.8-3.8.9-1 3.8-3.8.9-1 2.8-2.8 1.9-.2.1-.1zM98 79.9l-.2.2-.9.9-3.8 3.8-1 1-3.8 3.8-.9.9-3.8 3.8-1 1-3.8 3.8-4.7 4.7-1 1-3.8 3.8-.9.9-3.8 3.8-.9.9h-1.9l.9-.9.9-.9 3.8-3.8 1-1 3.8-3.7.9-1 3.8-3.8 4.8-4.8.9-.9 3.8-3.8 1-.9 3.8-3.9.9-.9 3.6-3.6.3-.1h.1l1.6-.2h.1zm10.1-.6l-.8.8-.9.9-3.8 3.8-1 1-3.8 3.8-.9.9-3.8 3.8-1 1-3.8 3.8-.9.9-4.8 4.8-3.8 3.8-.9.9-3.8 3.8-.9.9h-1.9l.9-.9.9-.9 3.8-3.8 1-1 3.8-3.8.9-.9 3.8-3.8 1-1 3.8-3.8.9-.9 3.8-3.8 1-.9 3.8-3.9.9-.9 3.8-3.8.7-.7.1-.1h.4zm7.7-.1c-.1.5-.3 1-.4 1.4-.1.5-.3 1-.4 1.2l-32.4 32.4h-1.9l35.1-35zm-5.5 15l-.1.2-.8 2-.3.9-16.9 16.9h-1.9zm-6.1 15.6c-.3.8-.8 1.5-1.5 2.1-.3.3-.6.5-.9.7-.2.1-.4.2-.5.3-.2.1-.4.2-.6.4 0 0-.1 0-.1.1l3.6-3.6zM48.9 76.6c-1-.2-2.2.6-3.1.9-1 .3-2.4.5-3.2-.4 2.1-.2 4.6-2.9 6.3-.5z"/><path class="st57" d="M47.9 75.6c-.9-.2-2 .5-2.8.8-.9.3-2.2.4-2.9-.4 1-.2 2-.7 2.9-1.1 1.1-.5 2.2-.4 2.8.7zm7.4 3.1c-1.4-.1-2.9.8-4.1 1.2-1.3.4-3.2.7-4.4-.1 2.7-.5 5.9-3.6 8.5-1.1z"/><path class="st58" d="M58.9 79c-1.6-.1-3.3 1-4.7 1.6-1.5.5-3.6.9-5 .1 1.7-.4 3.4-1.3 5-2.1 1.4-.7 3.3-.7 4.7.4z"/><path class="st57" d="M62 79.4c-.8 0-1.6.3-2.3.6-.9.4-1.8.8-2.8 1.2-1.5.6-3.6 1-5.2.2 3.4-.8 6.9-4.5 10.3-2z"/><path class="st58" d="M65.8 79.8c-.8 0-1.6.3-2.3.6l-2.8 1.2c-1.6.6-3.7 1-5.3.2 3.2-.8 6.9-4.4 10.4-2z"/><path class="st57" d="M70.5 80c-.9 0-1.7.3-2.5.6l-3 1.2c-1.7.6-4 1-5.7.2 2-.5 3.8-1.5 5.6-2.3 1.8-.8 3.9-.8 5.6.3z"/><path class="st58" d="M75.5 80.3c-.9 0-1.9.3-2.7.6l-3.3 1.2c-1.8.5-4.2.9-5.9.1 3.8-.8 7.9-4.5 11.9-1.9z"/><path class="st57" d="M80.6 80.4c-.9 0-1.9.3-2.7.6l-3.3 1.2c-1.8.5-4.2.9-5.9.1 3.8-.8 7.9-4.5 11.9-1.9z"/><path class="st58" d="M85.5 80.5c-.9 0-1.9.3-2.8.6l-3.3 1.2c-1.9.6-4.4 1-6.3.1 2.3-.5 4.4-1.6 6.5-2.4 1.9-.7 4.2-.7 5.9.5z"/><path class="st57" d="M90.7 80.5c-.9 0-1.9.3-2.7.6l-3.3 1.2c-1.8.5-4.2.9-5.9.1 3.8-.8 7.9-4.5 11.9-1.9z"/><path class="st58" d="M95.6 80.3c-.9 0-1.7.3-2.5.6l-3 1.2c-1.7.6-4 1-5.7.2 2-.5 3.8-1.5 5.6-2.3 1.8-.8 4-.8 5.6.3z"/><path class="st57" d="M99.8 80c-.8 0-1.6.4-2.3.7L94.7 82c-1.6.6-3.7 1.1-5.3.4 1.9-.6 3.6-1.7 5.4-2.5 1.6-.8 3.5-.8 5 .1z"/><path class="st58" d="M103.7 79.6c-.8 0-1.5.4-2.2.8-.9.5-1.8 1-2.7 1.4-1.5.7-3.5 1.3-5.1.6 3.2-1.1 6.5-5 10-2.8z"/><path class="st57" d="M107.5 78.7c-1.6.2-3.1 1.6-4.4 2.4-1.4.8-3.4 1.5-4.9.9 1.6-.7 3.1-1.9 4.5-2.9 1.4-.9 3.2-1.2 4.8-.4z"/><path class="st58" d="M110.3 78.5c-1.4.2-2.7 1.5-3.8 2.2-1.2.8-3.1 1.5-4.5.9 1.5-.7 2.8-1.9 4.1-2.8 1.2-.9 2.9-1.2 4.2-.3z"/><path class="st57" d="M112.3 78c-1.1.2-2.1 1.6-2.9 2.2-.9.7-2.4 1.5-3.6.9 1.2-.7 2.1-1.9 3-2.8 1.1-.9 2.4-1.1 3.5-.3z"/><path class="st58" d="M114.3 75.7c-1 .5-1.5 2.1-2.1 2.9-.7 1-1.8 2.2-3.2 2 .9-1 1.5-2.4 2.1-3.6.6-1.1 1.8-1.8 3.2-1.3z"/><path class="st57" d="M116.7 74.9c-1 .5-1.5 2.1-2.1 2.9-.7 1-1.8 2.2-3.2 2 .9-1 1.5-2.4 2.1-3.6.7-1.2 1.9-1.8 3.2-1.3zm-66.9 2.8c-1-.2-2.3.6-3.3.9-1 .3-2.5.5-3.4-.4 2.2-.3 4.9-2.9 6.7-.5z"/><path class="st58" d="M52.9 77.8c-1.4-.1-2.8 1-4.1 1.4-1.3.5-3.1.9-4.4.1 1.5-.4 2.9-1.2 4.3-1.9 1.3-.6 3-.6 4.2.4z"/></svg>