<svg xmlns="http://www.w3.org/2000/svg" viewBox="0 0 160 160"><style>.st0,.st1{fill-rule:evenodd;clip-rule:evenodd}.st0{stroke:#ea6060;stroke-miterlimit:10;fill:#f9806d}.st1{opacity:.2;fill:#fff}</style><path class="st0" d="M117 79.8c0 5.5-1.2 11.3-3.3 15.3H95.5v18.5c-5.3 2.2-9.6 3.4-15.1 3.4s-11.2-1.2-15.1-3.4V95.1H46.4c-2.2-3.9-3.4-9.8-3.4-15.3 0-1.8.1-3.3.4-5 .5-3.6 1.5-7.3 3-9.9h18.9V46.3c3.9-2.2 9.6-3.3 15.1-3.3s9.8 1.2 15.1 3.4v18.5h18.2c1.5 2.6 2.5 6.4 3 9.9.2 1.7.3 3.3.3 5z"/><path class="st1" d="M116.6 74.6C106.7 77.9 93.9 80 80 80c-14 0-26.8-2.1-36.6-5.4.5-3.6 1.5-6.4 3-10.3h18.2v-18c5.3-2.2 9.6-3.3 15.1-3.3s11.2 1.2 15.1 3.4v17.9h18.8c1.5 3.9 2.5 6.7 3 10.3z"/></svg>