<svg xmlns="http://www.w3.org/2000/svg" viewBox="0 0 160 160"><style>.st0{fill:url(#SVGID_1_)}.st1{fill:url(#SVGID_2_)}.st2{fill:url(#SVGID_3_)}.st3{fill:url(#SVGID_4_)}.st4{fill:url(#SVGID_5_)}</style><linearGradient id="SVGID_1_" gradientUnits="userSpaceOnUse" x1="80" y1="43" x2="80" y2="117"><stop offset="0" stop-color="#3980B8"/><stop offset="1" stop-color="#50D6EB"/></linearGradient><path class="st0" d="M102.9 94.1c0 12.7-10.3 22.9-22.9 22.9-12.7 0-22.9-10.3-22.9-22.9 0-2.1.6-4.9 1.7-8.2.5-1.6 1.2-3.3 1.9-5.1C67.2 68.1 75.1 56 80.2 43c4.6 13 13 24.2 19.2 36.9.7 1.8 1.4 3.6 1.9 5.3 1 3.3 1.6 6.4 1.6 8.9z"/><radialGradient id="SVGID_2_" cx="72.594" cy="98.939" r="20.424" gradientUnits="userSpaceOnUse"><stop offset="0" stop-color="#141414" stop-opacity=".1"/><stop offset="1" stop-opacity="0"/></radialGradient><path class="st1" d="M102.9 94.1c0 12.7-10.3 22.9-22.9 22.9-12.7 0-22.9-10.3-22.9-22.9 0-2.1.6-4.9 1.7-8.2.5-1.6 1.2-3.3 1.9-5.1C67.2 68.1 75.1 56 80.2 43c4.6 13 13 24.2 19.2 36.9.7 1.8 1.4 3.6 1.9 5.3 1 3.3 1.6 6.4 1.6 8.9z"/><radialGradient id="SVGID_3_" cx="88.554" cy="94.503" r="23.05" gradientTransform="matrix(1 0 0 3 0 -189.005)" gradientUnits="userSpaceOnUse"><stop offset="0" stop-color="#fff" stop-opacity=".8"/><stop offset="1" stop-color="#fff" stop-opacity="0"/><stop offset="1" stop-color="#fff" stop-opacity="0"/></radialGradient><path class="st2" d="M102.9 94.1c0 12.7-10.3 22.9-22.9 22.9-12.7 0-22.9-10.3-22.9-22.9 0-2.1.6-4.9 1.7-8.2.5-1.6 1.2-3.3 1.9-5.1C67.2 68.1 75.1 56 80.2 43c4.6 13 13 24.2 19.2 36.9.7 1.8 1.4 3.6 1.9 5.3 1 3.3 1.6 6.4 1.6 8.9z"/><radialGradient id="SVGID_4_" cx="72.014" cy="81.855" r="24.148" gradientUnits="userSpaceOnUse"><stop offset="0" stop-color="#fff" stop-opacity=".4"/><stop offset="1" stop-color="#fff" stop-opacity="0"/><stop offset="1" stop-color="#fff" stop-opacity="0"/></radialGradient><path class="st3" d="M80 49.9c-4.9 9.4-8.4 22.4-13.8 31.7-.7 1.6-1.4 3.1-1.9 4.5-1.1 2.9-1.7 5.4-1.7 7.2 0 10.4 8.8 19 20.2 20.2l1.4.1h-2.8c-12-.6-21.6-9.5-21.6-20.3 0-1.9.6-4.4 1.7-7.2.5-1.4 1.2-3 1.9-4.5 6-10.2 11.5-21.3 16.6-31.7z"/><radialGradient id="SVGID_5_" cx="94.486" cy="89.694" r="11.104" gradientUnits="userSpaceOnUse"><stop offset="0" stop-color="#fff" stop-opacity=".7"/><stop offset="1" stop-color="#fff" stop-opacity="0"/><stop offset="1" stop-color="#fff" stop-opacity="0"/></radialGradient><path class="st4" d="M98.7 87.7c1.8 9.7-4.6 17-4.6 17s3.2-8.1 1.7-16.3c-1.3-8.2-5.9-13.7-5.9-13.7s7.1 3.4 8.8 13z"/></svg>