<svg xmlns="http://www.w3.org/2000/svg" width="48" height="22" viewBox="0 0 48 22"><g fill="#FFF"><path d="M38 8h-3c0-3-4-7-9-7H5C2 1 0 5 0 8v5c0 1.7 1.3 3 3 3h4c.3-2.3 2.2-4 4.5-4s4.2 1.8 4.5 4h18c.3-2.3 2.2-4 4.5-4s4.2 1.8 4.5 4h2c.8 0 1.6-.3 2.1-.9.5-.5.9-1.3.9-2.1 0-2.2-1-5-10-5zM26 3c4 0 7 3.3 7 5H23V3h3zm-4 0v5h-8V3h8zM5 3h8v5H2c0-2.2 1.5-5 3-5z"/><path d="M11.5 13C9.6 13 8 14.6 8 16.5S9.6 20 11.5 20s3.5-1.6 3.5-3.5-1.6-3.5-3.5-3.5zm27 0c-1.9 0-3.5 1.6-3.5 3.5s1.6 3.5 3.5 3.5 3.5-1.6 3.5-3.5-1.6-3.5-3.5-3.5z"/></g></svg>