<svg xmlns="http://www.w3.org/2000/svg" width="48" height="22" viewBox="0 0 48 22"><g fill="#FFF"><path d="M42 7h-8l-4-7H7L6 7V6c0-.6-.4-1-1-1H3c-.6 0-1 .4-1 1v6c0 .6.4 1 1 1h2c.6 0 1-.4 1-1v1c0 1.7 1.3 3 3 3h1c.3-2.8 2.6-5 5.5-5s5.2 2.2 5.5 5h9c.3-2.8 2.6-5 5.5-5s5.2 2.2 5.5 5h2c1.7 0 3-1.3 3-3v-2c0-2.2-2-4-4-4zM28.8 2l2.9 5H22V2h6.8zM8.7 2H21v5H9c-.4 0-1 .1-1 .1L8.7 2z"/><path d="M15.5 12C13 12 11 14 11 16.5s2 4.5 4.5 4.5 4.5-2 4.5-4.5-2-4.5-4.5-4.5zm20 0C33 12 31 14 31 16.5s2 4.5 4.5 4.5 4.5-2 4.5-4.5-2-4.5-4.5-4.5z"/></g></svg>