<svg xmlns="http://www.w3.org/2000/svg" width="48" height="22" viewBox="0 0 48 22"><g fill="#FFF"><path d="M36 8h-3c0-3-4-7-9-7H14c-2.8 0-6 4.2-6 7H5c-1.7 0-3 1.3-3 3v2c0 1.7 1.3 3 3 3h2c.3-2.3 2.2-4 4.5-4s4.2 1.8 4.5 4h16c.3-2.3 2.2-4 4.5-4s4.2 1.8 4.5 4h2c.8 0 1.6-.3 2.1-.9s.9-1.3.9-2.1c0-2.2-1-5-10-5zM24 3c4 0 7 3.3 7 5H21V3h3zM14 3h6v5H10c0-1.8 2.5-5 4-5z"/><path d="M11.5 13C9.6 13 8 14.6 8 16.5S9.6 20 11.5 20s3.5-1.6 3.5-3.5-1.6-3.5-3.5-3.5zm25 0c-1.9 0-3.5 1.6-3.5 3.5s1.6 3.5 3.5 3.5 3.5-1.6 3.5-3.5-1.6-3.5-3.5-3.5z"/></g></svg>