<svg xmlns="http://www.w3.org/2000/svg" width="260" height="260" viewBox="0 0 260 260"><g opacity=".15"><path fill-rule="evenodd" clip-rule="evenodd" d="M129.5 2.5c-70.7 0-128 57.3-128 128s57.3 128 128 128 128-57.3 128-128-57.3-128-128-128z"/><path fill="none" stroke="#000" stroke-miterlimit="10" d="M129.5 2.5c-70.7 0-128 57.3-128 128s57.3 128 128 128 128-57.3 128-128-57.3-128-128-128z"/></g><path fill-rule="evenodd" clip-rule="evenodd" fill="#FFF" d="M129.5.5c-70.7 0-128 57.3-128 128s57.3 128 128 128 128-57.3 128-128S200.2.5 129.5.5z"/><path fill="none" stroke="#EBEBEB" stroke-miterlimit="10" d="M129.5.5c-70.7 0-128 57.3-128 128s57.3 128 128 128 128-57.3 128-128S200.2.5 129.5.5z"/><path fill="#51BAD7" d="M129 13.5c63.8 0 115.5 51.7 115.5 115.5S192.8 244.5 129 244.5 13.5 192.8 13.5 129 65.2 13.5 129 13.5zm0 216.6c55.7 0 101.1-45.3 101.1-101.1 0-55.7-45.3-101.1-101.1-101.1C73.3 27.9 27.9 73.3 27.9 129c0 55.7 45.4 101.1 101.1 101.1z"/><path fill="#C69C6D" d="M196.5 69.5h-134v96.3h54.2l-14.5 14.4 6 6.1 20.5-20.5h1.6l20.4 20.4 6-6-14.4-14.4h54.2"/><path fill="#C69C6D" d="M196.5 69.5h-134v96.3h54.2l-14.5 14.4 6 6.1 20.5-20.5h1.6l20.4 20.4 6-6-14.4-14.4h54.2"/><path fill="#009245" d="M69.3 76.2h120.5V159H69.3z"/><path d="M92 129.3c-2.9 2.4-6.3-2.1-9.4-2.1-.7 0-7.8 4-6.9 1 .6-2.2 4.1-1.8 5.6-2.8 1.8-1.2 8-8.5 5.7-10.9-2.1-2.2-4.5 3-6.1 3.5-4.7 1.2 1.6-3.6 2.8-4.1 3.5-1.7 7.1-2.3 6.8 2.7-.1 4-3.6 5.1-5.4 7.9 2.2.8 6.3 2.5 6.9 4.8zm25.9-10.6c-.7 3.8-9.7-.2-11.4 2.4-1.3 2.2.2 5.1-2.1 7.1-.9.7-2.8 2.3-3.5.7-.6-1.5 1.1-1.5 1.5-2.6.5-1.3 2.3-5.2 1.7-6.2-1.1-1.5-5.8.7-6.9.2-5.7-2.4 7.5-1.7 8.6-2.4 1.7-1.2 1.6-6.2 3.6-7.4 5.8-3.2.2 6.3-.6 7.9 2-.1 7.8-.9 9.1.3zm17.1 10.6c-2.9 2.4-6.3-2.1-9.4-2.1-.7 0-7.8 4-6.9 1 .6-2.2 4.1-1.8 5.6-2.8 1.8-1.2 8-8.5 5.7-10.9-2.1-2.2-4.5 3-6.1 3.5-4.7 1.2 1.6-3.6 2.8-4.1 3.5-1.7 7.1-2.3 6.8 2.7-.1 4-3.6 5.1-5.4 7.9 2.3.8 6.3 2.5 6.9 4.8zm23.9-7.8c-.5 2.7-19 2.4-20.1.6-1.3-2.1 8.1-1.1 9.6-1 2.3.2 9.4-1 10.5.4zm2.1-5.9c-.1 4.7-15.8.1-18.2 1.9-2.9 0-1.8-1.7-.1-2.4 2.1-1 4.3.1 6.4.2 2.4 0 9.6-.9 11.9.3zm21.3 10.7c-2.4 2.4-6 3.9-8 5.8-1.8 1.6-2.2 4.4-3.4 6.7-3.6 6.9-1.1-2.3-.6-4.7.7-3.2 1.2-3.3-1.3-4.6-3.5-1.8-4.5 2.4-7.3 1.2 2.6-3.5 4.6-6.1 5.8-10.6.6-2.4 3-10.5 7.5-8.5-2.9 2.7-3 6.1-4.6 9.7-.9 1.8-3 6 1 5.1 1.2-.2 2.1-2.8 3.4-3.3 4.9-1.6.4 1.8.6 2.2 2.1 4.5 3.8-1 6.9 1z" fill="#FFF"/><path fill="#0071BC" d="M173.9 157.8c0-1.5-1.2-2.7-2.7-2.7h-16.9c-1.5 0-2.7 1.2-2.7 2.7v2.4c0 1.5 1.2 2.7 2.7 2.7h16.9c1.5 0 2.7-1.2 2.7-2.7v-2.4z"/><path fill="#FFF" d="M147.316 160.864l-12.135 1.26-.113-1.096 12.135-1.26z"/><path fill="#C69C6D" d="M196.5 69.5h-134v96.3h54.2l-14.5 14.4 6 6.1 20.5-20.5h1.6l20.4 20.4 6-6-14.4-14.4h54.2"/><path fill="#C69C6D" d="M196.5 69.5h-134v96.3h54.2l-14.5 14.4 6 6.1 20.5-20.5h1.6l20.4 20.4 6-6-14.4-14.4h54.2"/><path fill="#009245" d="M69.3 76.2h120.5V159H69.3z"/><path d="M92 129.3c-2.9 2.4-6.3-2.1-9.4-2.1-.7 0-7.8 4-6.9 1 .6-2.2 4.1-1.8 5.6-2.8 1.8-1.2 8-8.5 5.7-10.9-2.1-2.2-4.5 3-6.1 3.5-4.7 1.2 1.6-3.6 2.8-4.1 3.5-1.7 7.1-2.3 6.8 2.7-.1 4-3.6 5.1-5.4 7.9 2.2.8 6.3 2.5 6.9 4.8zm25.9-10.6c-.7 3.8-9.7-.2-11.4 2.4-1.3 2.2.2 5.1-2.1 7.1-.9.7-2.8 2.3-3.5.7-.6-1.5 1.1-1.5 1.5-2.6.5-1.3 2.3-5.2 1.7-6.2-1.1-1.5-5.8.7-6.9.2-5.7-2.4 7.5-1.7 8.6-2.4 1.7-1.2 1.6-6.2 3.6-7.4 5.8-3.2.2 6.3-.6 7.9 2-.1 7.8-.9 9.1.3zm17.1 10.6c-2.9 2.4-6.3-2.1-9.4-2.1-.7 0-7.8 4-6.9 1 .6-2.2 4.1-1.8 5.6-2.8 1.8-1.2 8-8.5 5.7-10.9-2.1-2.2-4.5 3-6.1 3.5-4.7 1.2 1.6-3.6 2.8-4.1 3.5-1.7 7.1-2.3 6.8 2.7-.1 4-3.6 5.1-5.4 7.9 2.3.8 6.3 2.5 6.9 4.8zm23.9-7.8c-.5 2.7-19 2.4-20.1.6-1.3-2.1 8.1-1.1 9.6-1 2.3.2 9.4-1 10.5.4zm2.1-5.9c-.1 4.7-15.8.1-18.2 1.9-2.9 0-1.8-1.7-.1-2.4 2.1-1 4.3.1 6.4.2 2.4 0 9.6-.9 11.9.3zm21.3 10.7c-2.4 2.4-6 3.9-8 5.8-1.8 1.6-2.2 4.4-3.4 6.7-3.6 6.9-1.1-2.3-.6-4.7.7-3.2 1.2-3.3-1.3-4.6-3.5-1.8-4.5 2.4-7.3 1.2 2.6-3.5 4.6-6.1 5.8-10.6.6-2.4 3-10.5 7.5-8.5-2.9 2.7-3 6.1-4.6 9.7-.9 1.8-3 6 1 5.1 1.2-.2 2.1-2.8 3.4-3.3 4.9-1.6.4 1.8.6 2.2 2.1 4.5 3.8-1 6.9 1z" fill="#FFF"/><path fill="#0071BC" d="M173.9 157.8c0-1.5-1.2-2.7-2.7-2.7h-16.9c-1.5 0-2.7 1.2-2.7 2.7v2.4c0 1.5 1.2 2.7 2.7 2.7h16.9c1.5 0 2.7-1.2 2.7-2.7v-2.4z"/><path fill="#FFF" d="M147.316 160.864l-12.135 1.26-.113-1.096 12.135-1.26z"/><path opacity=".1" d="M151.6 159v1.2c0 1.5 1.2 2.7 2.7 2.7h16.9c1.5 0 2.7-1.2 2.7-2.7V159h-22.3z"/><path opacity=".1" d="M196.5 69.5h-67v96.3h.8l20.4 20.4 6-6-14.4-14.4h54.2"/></svg>