<svg xmlns="http://www.w3.org/2000/svg" width="23" height="200" viewBox="0 0 23 200"><path d="M11.365 72a5 5 0 1 0 0 10 5 5 0 0 0 0-10zm0 29a5 5 0 1 0 0 10 5 5 0 0 0 0-10zm0 30a5 5 0 1 0 0 10 5 5 0 0 0 0-10zm0 30a5 5 0 1 0 0 10 5 5 0 0 0 0-10zm0 30a5 5 0 1 0 0 10 5 5 0 0 0 0-10zm1.781-156.192l-.217-.036v-6.947c2.196.251 3.492 1.26 3.492 3.599v.252h4.787v-.504c0-4.247-3.132-6.875-8.279-6.983v-2.736h-1.943v2.736c-4.5.324-8.423 2.375-8.423 7.451 0 5.003 4.211 6.551 8.423 7.271v7.667c-2.7-.216-4.067-1.692-4.067-4.427v-.324H1.806l-.036.216c0 5.543 4.031 8.351 9.215 8.423v3.023h1.943v-3.023C18.364 50.394 22 47.227 22 42.511c0-5.255-4.464-6.983-8.854-7.703zm-2.161-.468c-1.8-.504-3.672-.972-3.672-3.276 0-1.872 1.368-3.095 3.672-3.204v6.48zm1.944 12.275v-7.271c2.736.54 3.996 1.656 3.996 3.564 0 2.159-1.584 3.634-3.996 3.707z" opacity=".15"/><path fill="#FFF" d="M11.365 71a5 5 0 1 0 0 10 5 5 0 0 0 0-10zm0 29a5 5 0 1 0 0 10 5 5 0 0 0 0-10zm0 30a5 5 0 1 0 0 10 5 5 0 0 0 0-10zm0 30a5 5 0 1 0 0 10 5 5 0 0 0 0-10zm0 30a5 5 0 1 0 0 10 5 5 0 0 0 0-10zm1.781-156.192l-.217-.036v-6.947c2.196.251 3.492 1.26 3.492 3.599v.252h4.787v-.504c0-4.247-3.132-6.875-8.279-6.983v-2.736h-1.943v2.736c-4.5.324-8.423 2.375-8.423 7.451 0 5.003 4.211 6.551 8.423 7.271v7.667c-2.7-.216-4.067-1.692-4.067-4.427v-.324H1.806l-.036.216c0 5.543 4.031 8.351 9.215 8.423v3.023h1.943v-3.023C18.364 49.394 22 46.227 22 41.511c0-5.255-4.464-6.983-8.854-7.703zm-2.161-.468c-1.8-.504-3.672-.972-3.672-3.276 0-1.872 1.368-3.095 3.672-3.204v6.48zm1.944 12.275v-7.271c2.736.54 3.996 1.656 3.996 3.564 0 2.159-1.584 3.634-3.996 3.707z"/></svg>