<svg id="Слой_1" xmlns="http://www.w3.org/2000/svg" viewBox="0 0 180 180"><style>.st0{fill:#56b6ce}</style><path class="st0" d="M90 .5c-.5 0-5.8.2-8 .4l.2 2c2.6-.2 5.2-.3 7.8-.3V.5zm-12 .8c-2.6.4-5.3.8-7.9 1.4l.4 2c2.5-.6 5.1-1 7.7-1.4l-.2-2zM66.3 3.7c-2.6.7-5.1 1.5-7.6 2.5l.7 1.8c2.4-.9 4.9-1.7 7.4-2.4l-.5-1.9zM55 7.6c-1.5.7-6.3 3-7.2 3.5l.9 1.8c2.3-1.2 4.7-2.4 7-3.4L55 7.6zm-10.7 5.5c-2.3 1.4-4.5 2.8-6.7 4.4l1.2 1.6c2.1-1.5 4.3-3 6.5-4.3l-1-1.7zm-9.9 6.8c-2.1 1.7-4.1 3.4-6 5.2l1.4 1.4c1.9-1.8 3.9-3.5 5.9-5.1l-1.3-1.5zm-8.9 8c-1.8 1.9-3.6 3.9-5.3 6l1.6 1.3c1.6-2 3.4-4 5.2-5.9l-1.5-1.4zm-7.7 9.2c-1.6 2.1-3.1 4.4-4.4 6.7l1.7 1c1.3-2.2 2.8-4.4 4.3-6.5l-1.6-1.2zm-6.4 10.1c-1.3 2.3-2.4 4.7-3.5 7.2l1.8.8c1-2.4 2.2-4.7 3.4-7l-1.7-1zM6.3 58.1c-1 2.5-1.8 5-2.5 7.6l1.9.5c.7-2.5 1.5-5 2.5-7.4l-1.9-.7zM2.8 69.6c-.6 2.6-1.1 5.2-1.5 7.9l2 .3c.4-2.6.8-5.2 1.4-7.7l-1.9-.5zM.9 81.4c-.3 2.6-.4 5.3-.4 8h2c0-2.6.2-5.2.4-7.8l-2-.2zm1.7 11.9l-2 .1c.1 2.7.3 5.3.7 8l2-.3c-.4-2.6-.6-5.2-.7-7.8zM3.8 105l-2 .3c.3 1.5 1.4 6.7 1.7 7.8l1.9-.5c-.6-2.5-1.2-5.1-1.6-7.6zm2.7 11.4l-1.9.6c.8 2.5 1.7 5 2.7 7.5l1.8-.8c-.9-2.4-1.8-4.8-2.6-7.3zm4.3 10.9l-1.8.8c.4.8 3.3 6.4 3.7 7.1l1.7-1c-1.2-2.2-2.5-4.6-3.6-6.9zm5.7 10.2l-1.7 1.1c1.1 1.6 4.2 5.9 4.6 6.5l1.6-1.2c-1.5-2.1-3.1-4.2-4.5-6.4zm7 9.4l-1.5 1.3c1.7 2 3.6 4 5.5 5.8l1.4-1.4c-1.9-1.8-3.7-3.7-5.4-5.7zm8.3 8.4l-1.3 1.5c2 1.8 4.1 3.5 6.2 5.1l1.2-1.6c-2.2-1.6-4.2-3.3-6.1-5zm9.2 7.2l-1.1 1.7c2.2 1.5 4.5 2.9 6.8 4.2l1-1.7c-2.3-1.4-4.6-2.7-6.7-4.2zm10.1 5.9l-.9 1.8c2.4 1.2 4.8 2.3 7.3 3.2l.7-1.9c-2.3-.9-4.8-1.9-7.1-3.1zm10.8 4.5l-.6 1.9c2.5.9 5.1 1.6 7.7 2.2l.5-1.9c-2.6-.6-5.1-1.4-7.6-2.2zm11.4 3l-.4 2c2.6.5 5.3.9 7.9 1.2l.2-2c-2.6-.3-5.2-.7-7.7-1.2zm11.6 1.5l-.1 2c1.1.1 7.2.1 8 .1l-.1-2c-2.6 0-5.2 0-7.8-.1zm19.5-1.1c-2.6.4-5.2.7-7.8.9l.1 2c2.7-.2 5.3-.5 7.9-1l-.2-1.9zm11.4-2.7c-2.5.8-5 1.4-7.6 2l.4 2c1.2-.2 6.3-1.6 7.7-2l-.5-2zm11-4.2c-2.4 1.1-4.8 2.1-7.2 3l.7 1.9c2.2-.8 7.1-2.9 7.4-3l-.9-1.9zm10.2-5.6c-2.2 1.4-4.5 2.7-6.8 3.9l.9 1.8c2.4-1.2 4.7-2.6 6.9-4l-1-1.7zm9.5-7c-2 1.7-4.1 3.3-6.2 4.8l1.2 1.6c2.2-1.5 4.3-3.2 6.3-4.9l-1.3-1.5zm8.4-8.1c-1.7 1.9-3.6 3.8-5.5 5.6l1.4 1.5c2-1.8 3.8-3.7 5.6-5.7l-1.5-1.4zm7.3-9.2c-1.5 2.1-3.1 4.2-4.7 6.2l1.5 1.3c1.7-2.1 3.3-4.2 4.8-6.4l-1.6-1.1zm5.9-10.1c-1.2 2.3-2.5 4.6-3.8 6.8l1.7 1.1c.7-1.1 3.3-5.7 3.9-7l-1.8-.9zm4.6-10.8c-.8 2.5-1.8 4.9-2.9 7.3l1.8.8c1.1-2.4 2.1-4.9 3-7.4l-1.9-.7zm3.1-11.3c-.5 2.5-1.1 5.1-1.9 7.6l1.9.6c.4-1.2 1.7-6.8 1.9-7.8l-1.9-.4zm1.5-11.6c-.2 2.6-.5 5.2-.8 7.8l2 .3c.4-2.6.7-5.3.9-8l-2.1-.1zm2-11.9l-2 .1c.2 2.6.2 5.2.2 7.8h2c0-.5-.1-5.8-.2-7.9zm-1.6-11.9l-2 .4c.5 2.5.9 5.1 1.2 7.7l2-.2c-.3-2.6-.7-5.3-1.2-7.9zm-3.2-11.5l-1.9.7c.9 2.4 1.6 5 2.3 7.5l1.9-.5c-.6-2.5-2.3-7.6-2.3-7.7zm-4.7-11.1l-1.8.9c1.2 2.3 2.3 4.7 3.2 7.1l1.9-.7c-1-2.4-2.1-4.9-3.3-7.3zm-6.2-10.2l-1.6 1.1c1.5 2.1 2.9 4.4 4.2 6.6l1.7-1c-1-1.7-3.9-6.2-4.3-6.7zm-7.5-9.4l-1.5 1.3c1.8 1.9 3.4 3.9 5 6l1.6-1.2c-1.6-2.1-3.3-4.1-5.1-6.1zm-8.6-8.3l-1.3 1.5c2 1.7 3.9 3.4 5.8 5.3l1.4-1.4c-1.9-1.9-3.9-3.7-5.9-5.4zm-9.7-7.1l-1.1 1.7c2.2 1.4 4.4 2.9 6.4 4.5l1.2-1.6c-.9-.8-5.3-3.8-6.5-4.6zm-10.6-5.7l-.8 1.8c2.4 1.1 4.7 2.3 7 3.6l1-1.7c-2.4-1.4-4.7-2.6-7.2-3.7zM116 4.3l-.6 1.9c2.5.8 5 1.6 7.4 2.6l.8-1.9c-2.5-.9-5-1.8-7.6-2.6zm-11.7-2.7l-.3 2c2.6.4 5.1.9 7.7 1.6l.5-1.9c-.1-.1-5.3-1.3-7.9-1.7zM92.4.5l-.1 2c2.6.1 5.2.3 7.8.6l.2-2C97.8.8 95.1.6 92.4.5z"/></svg>