<svg xmlns="http://www.w3.org/2000/svg" width="93" height="31.14" viewBox="0 0 93 31.14"><defs><style>.a{fill:none}.b{fill:#fff}.c{clip-path:url(#a)}.d{fill:#231f20}.e{fill:url(#b)}.f{fill:url(#c)}.g{fill:#ffd8f4}.h{fill:url(#d)}</style><clipPath id="a"><circle class="a" cx="15.57" cy="15.57" r="15.57"/></clipPath><radialGradient id="b" cx="15.51" cy="22.6" r="11.36" gradientUnits="userSpaceOnUse"><stop offset="0" stop-color="#fff"/><stop offset=".51" stop-color="#fdfdfd"/><stop offset=".7" stop-color="#f6f6f6"/><stop offset=".83" stop-color="#ebebeb"/><stop offset=".94" stop-color="#dadada"/><stop offset="1" stop-color="#ccc"/></radialGradient><linearGradient id="c" x1="15.51" y1="8.67" x2="15.51" y2="19.87" gradientUnits="userSpaceOnUse"><stop offset="0" stop-color="#ffe773"/><stop offset=".22" stop-color="#ffe36e"/><stop offset=".48" stop-color="#ffd960"/><stop offset=".76" stop-color="#ffc748"/><stop offset="1" stop-color="#ffb42e"/></linearGradient><radialGradient id="d" cx="15.51" cy="14.36" r="1.3" gradientUnits="userSpaceOnUse"><stop offset="0" stop-color="#f7e563"/><stop offset=".09" stop-color="#f4df5a"/><stop offset=".32" stop-color="#f0d44b"/><stop offset=".59" stop-color="#eece43"/><stop offset="1" stop-color="#edcc40"/></radialGradient></defs><title>epic-logo-white</title><path class="b" d="M36.34 23.62v-19h10.52v4.32H40.6v2.91h6.07v4.27H40.6v3.22h6.26v4.27zM49.63 23.62v-19h5.87a14 14 0 0 1 3.39.38A5.22 5.22 0 0 1 61 6.08a6.32 6.32 0 0 1 2.12 5A6.53 6.53 0 0 1 61.21 16q-1.69 1.64-5.31 1.64h-2v5.94zm4.26-10.22h2a3.7 3.7 0 0 0 2.3-.54 2.16 2.16 0 0 0 .74-1.7A2 2 0 0 0 58 9.39a4.32 4.32 0 0 0-2.33-.45h-1.78zM66 23.62v-19h4.82v19zM76.16 21.1a9.52 9.52 0 0 1-2.89-7 9.43 9.43 0 0 1 2.86-7 9.61 9.61 0 0 1 7-2.84A9.44 9.44 0 0 1 90.8 7.8a8.83 8.83 0 0 1 1.95 4h-5a5 5 0 0 0-1.81-2.4 4.87 4.87 0 0 0-6.39.7 5.58 5.58 0 0 0-1.45 3.92 5.77 5.77 0 0 0 1.47 4 4.68 4.68 0 0 0 3.61 1.62q3 0 4.57-3.2h5a9.38 9.38 0 0 1-3.44 5.4 10.11 10.11 0 0 1-13.19-.82zM36.77 30.85v-3.06h-.7v-.64h2.07v.64h-.7v3.07zM38.19 30.85l1.54-3.71h.54l1.55 3.71h-.76l-.39-1h-1.32l-.4 1zm1.41-1.6h.79L40 28.11zM42.16 30.47a1.2 1.2 0 0 1-.23-.68h.67a.49.49 0 0 0 .14.36.56.56 0 0 0 .72 0 .48.48 0 0 0 0-.66 1 1 0 0 0-.39-.22l-.53-.21a.9.9 0 0 1-.24-.18c-1-1 .71-2.53 1.62-1.4a1.07 1.07 0 0 1 .23.65h-.65a.47.47 0 0 0-.13-.3.43.43 0 0 0-.57 0 .39.39 0 0 0 0 .57 1.7 1.7 0 0 0 .48.22 1.82 1.82 0 0 1 .63.34 1.16 1.16 0 0 1 0 1.61 1.2 1.2 0 0 1-1.37.24 1.12 1.12 0 0 1-.38-.34zM46.21 30.85v-3.71h1.89v.64h-1.22v.9H48v.64h-1.12v1.52zM48.58 30.85v-3.71h.67v3.71zM49.94 30.85v-3.71h.8l1.51 2.65v-2.65h.67v3.71h-.74l-1.57-2.72v2.72zM53.28 30.85l1.54-3.71h.54l1.55 3.71h-.76l-.39-1h-1.32l-.4 1zm1.41-1.6h.79l-.4-1.14zM57.25 30.85v-3.71H58l1.51 2.65v-2.65h.67v3.71h-.74l-1.57-2.72v2.72zM60.77 29a1.85 1.85 0 0 1 .55-1.35 1.92 1.92 0 0 1 2.56-.13 1.85 1.85 0 0 1 .31.31 2 2 0 0 1 .22.39h-.78a1.22 1.22 0 0 0-1.84-.11 1.31 1.31 0 0 0 0 1.8 1.17 1.17 0 0 0 1.34.28 1.67 1.67 0 0 0 .45-.35h.8a1.71 1.71 0 0 1-.68.8A1.92 1.92 0 0 1 60.77 29zM64.86 30.85v-3.71h.67v3.71zM65.87 30.85l1.54-3.71H68l1.55 3.71h-.76l-.39-1H67l-.4 1zm1.41-1.6h.79l-.4-1.14zM69.84 30.85v-3.71h.67v3.07h1.14v.64zM73.12 30.85l1.54-3.71h.54l1.55 3.71H76l-.39-1h-1.33l-.4 1zm1.41-1.6h.79l-.4-1.14zM77.09 30.85v-3.71h.83a2.5 2.5 0 0 1 1.3.28 1.57 1.57 0 0 1 .59.65 2 2 0 0 1 0 1.9 1.56 1.56 0 0 1-.66.65 2.66 2.66 0 0 1-1.18.22zm.67-.64h.14a1.82 1.82 0 0 0 .91-.18 1.1 1.1 0 0 0 .41-.42 1.27 1.27 0 0 0 0-1.21 1.13 1.13 0 0 0-.42-.44 1.86 1.86 0 0 0-.89-.17h-.13zM81.58 30.85l-1.39-3.71h.67l1 2.82 1-2.82h.67l-1.38 3.71zM83.93 30.85v-3.71h.67v3.71zM85.31 30.47a1.21 1.21 0 0 1-.23-.68h.67a.49.49 0 0 0 .14.36.56.56 0 0 0 .72 0 .49.49 0 0 0 0-.66 1 1 0 0 0-.39-.22l-.53-.21a.9.9 0 0 1-.24-.18c-1-1 .71-2.53 1.62-1.4a1.07 1.07 0 0 1 .23.65h-.69a.47.47 0 0 0-.13-.3.43.43 0 0 0-.57 0 .39.39 0 0 0 0 .57 1.69 1.69 0 0 0 .48.22 1.81 1.81 0 0 1 .63.34 1.16 1.16 0 0 1 0 1.61 1.19 1.19 0 0 1-1.71-.1zM88 30.85v-3.71h2v.64h-1.36v.9h1.27v.64h-1.27v.88H90v.64zM90.53 30.85v-3.71h1.12a1.36 1.36 0 0 1 .93.28 1.21 1.21 0 0 1 .28 1.38 1.1 1.1 0 0 1-.28.41 1.29 1.29 0 0 1-.57.28l1 1.36h-.83l-1-1.4v1.4zm.67-1.94h.44a.73.73 0 0 0 .49-.15c.46-.4 0-1-.48-1h-.44zM64.24.02h1.98V2h-1.98zM67.21.02h1.98V2h-1.98zM70.17.02h1.98V2h-1.98z"/><circle class="b" cx="15.57" cy="15.57" r="15.57"/><g class="c"><path class="d" d="M23 18.35c-.21-.67-.56-1.07-.79-1.75a8.9 8.9 0 0 0 .79-3.33 7.47 7.47 0 0 0-7.18-7.46h-.29a7.46 7.46 0 0 0-6.7 10.85C6.42 21.65 4.89 28 4.89 30.73c0 4.79 4.76 8.67 10.62 8.67s10.62-3.88 10.62-8.67c.01-2.42-1.21-7.73-3.13-12.38z"/><path class="e" d="M21.53 19.17c-.17-.54-.46-.81-.65-1.36a7.48 7.48 0 0 0 .65-2.75 6 6 0 0 0-5.81-6h-.23a6 6 0 0 0-5.38 8.78c-1.95 4-3.19 9.17-3.19 11.37 0 3.87 3.84 7 8.59 7s8.59-3.14 8.59-7a32.11 32.11 0 0 0-2.57-10.04z"/><ellipse class="f" cx="15.51" cy="14.27" rx="6.12" ry="5.6"/><circle class="d" cx="15.51" cy="13.61" r="6.02"/><circle class="b" cx="11.93" cy="11.99" r="2.43"/><circle class="d" cx="12.72" cy="11.99" r=".97"/><circle class="b" cx="13.09" cy="11.6" r=".28"/><circle class="b" cx="13.45" cy="12.01" r=".13"/><circle class="b" cx="13.03" cy="12.33" r=".12"/><circle class="b" cx="19.1" cy="11.99" r="2.43"/><circle class="d" cx="18.18" cy="11.99" r=".97"/><circle class="b" cx="18.55" cy="11.6" r=".28"/><circle class="b" cx="18.91" cy="12.01" r=".13"/><circle class="b" cx="18.48" cy="12.33" r=".12"/><path class="g" d="M16.8 14.7l-.5.86c-.22.38-.51.91-.8.91s-.58-.52-.8-.91l-.5-.86c-.3-.51-.23-1 .11-1.2l.87-.19H16c.89 0 1.25.62.8 1.39z"/><path class="h" d="M16 13.29h-1c-.88 0-1.24.42-.8.94l.5.59c.22.26.51.62.8.61s.58-.35.8-.61l.5-.59c.46-.52.1-.94-.8-.94z"/><path class="d" d="M15.05 6s1.43-2.17 2.87-2.38c-1.55 1.53-1.31 1.87-1.31 1.87s.78-1.19 1.55-1.38c-1.1 1.18-.83 1.9-.83 1.9a1.9 1.9 0 0 1 .88-1.19 3.36 3.36 0 0 0-.62 1.75"/><ellipse class="d" cx="5.47" cy="23.83" rx="6.11" ry="1.42" transform="rotate(-57.98 5.465 23.833)"/><ellipse class="d" cx="25.54" cy="23.83" rx="1.42" ry="6.11" transform="rotate(-32.02 25.545 23.832)"/></g></svg>