<svg id="Слой_1" xmlns="http://www.w3.org/2000/svg" viewBox="0 0 423.2 192.9"><style>.st0{fill:#606161}</style><path class="st0" d="M90.8 42.4L84 67.8c-21.8.1-41.2.4-55.5.8l7-26.2H.1L11.5 0h147l-43.3 42.4H90.8zM82 75.5l-2.7 10c-22 .1-41.4.4-55.5.8l2.6-9.9c14.2-.4 33.5-.8 55.6-.9zm-7.3 27.4l-6.9 26H12.3l6.7-25.1c13.5-.3 33-.7 55.7-.9zM94 129c1.9-8.2 5.1-17 9.4-26.1 18.6.1 38.3.4 57.9 1.2-3.8 8.3-6.8 16.7-8.8 24.9H94zm18.9-43.5c2-3.3 4.1-6.6 6.3-9.9 18.7.2 38.1.7 57.2 1.5-2 3.1-4 6.3-5.9 9.5-19.2-.7-38.9-1-57.6-1.1zm11.7-17.7C146.8 37.3 177.2 9.5 204.7 0h58.5l-19.3 73.7c-11.2-1.2-22.1-2.2-32.7-2.9l-9.3-.6 9.3-34.4c-9.3 8.3-19.7 20-29.3 33.5-19-.8-38.5-1.3-57.3-1.5zm117 14.3l-2.4 9.1c-10.6-1.1-21-2.1-31-2.7-3.7-.3-7.4-.5-11.2-.7l2.5-9.5c4 .3 8 .5 11.9.8 9.9.8 20 1.8 30.2 3zm-7.1 26.9l-5.2 19.9H186l6.3-23.5c5.7.4 11.2.7 16.8 1.2 8.3.7 16.8 1.5 25.4 2.4zm115.2-19c1.6-.9 2.9-1.9 4.1-3.2 3.3-3.7 5.9-8.4 8-14.3 2.2-5.9 3.2-11.4 3.2-16.7s-1.2-8.9-3.7-10.9-7.4-3-14.7-3H334l-11.5 43.2c-16.8-2.9-34.7-5.8-52.6-8.2L290.5 0h82.7c6.6 0 12.4.2 17.4.6s8.5.9 10.7 1.6c7.8 2.6 13.4 6.6 16.8 11.9s5.1 12.8 5.1 22.5c0 3.8-.3 8.1-1 12.9-.6 4.8-1.6 9.9-2.8 15.2-2.1 8.8-4.5 16.6-7.2 23.4-2 5.2-4.2 9.6-6.4 13.2-13.1-2.8-32.8-6.9-56.1-11.3zM256 129l4.5-16.8c36 4.8 71.6 11.1 99.6 16.5-3.9.4-8.2.5-12.9.5-1.4 0-3.5 0-6.2-.1s-4.8-.1-6.2-.1H256zm9.2-34.6l2.4-9c54 7.3 106.5 18 132.7 23.6-2.5 3-5 5.6-7.7 7.9-29.2-6.2-78.3-16-127.4-22.5zM11.1 192.1v-29.5H0v-3.9h26.6v3.9H15.5v29.5h-4.4zm12.7 0L35 158.7h5.4l11.1 33.4h-4.7l-3-9.4H31.3l-3 9.4h-4.5zM42.7 179l-5.1-15.8-5.1 15.8h10.2zm21.1 13.7c-2.4 0-4.5-.3-6.1-.8-1.7-.5-3.2-1.1-4.7-1.9v-5.6h.3c1.4 1.4 3.1 2.4 4.9 3.2 1.8.8 3.6 1.1 5.3 1.1 2.4 0 4.3-.5 5.5-1.5 1.3-1 1.8-2.4 1.8-4.1 0-1.3-.3-2.4-1-3.2-.6-.8-1.7-1.5-3.1-1.8-1-.3-2-.6-2.8-.7-.8-.2-1.9-.5-3.2-.8-1.1-.3-2.1-.7-3-1.1-.9-.5-1.7-1.1-2.4-1.8-.7-.8-1.2-1.6-1.6-2.6-.4-1-.6-2.1-.6-3.4 0-2.7 1.1-5 3.1-6.8 2.1-1.9 4.8-2.8 8-2.8 1.8 0 3.6.2 5.2.6 1.7.4 3.2.9 4.6 1.6v5.3h-.3c-1.1-.9-2.4-1.8-4-2.5-1.6-.8-3.4-1.1-5.2-1.1-2 0-3.7.5-4.9 1.5-1.3.9-1.9 2.2-1.9 3.8 0 1.4.4 2.6 1.1 3.4.7.8 1.8 1.5 3.2 1.9.9.2 2.1.5 3.4.8 1.3.4 2.5.6 3.3.9 2.3.7 3.9 1.8 5 3.2 1.1 1.5 1.6 3.2 1.6 5.3 0 1.3-.3 2.6-.8 3.8-.5 1.3-1.3 2.4-2.2 3.2-1.1 1-2.3 1.7-3.6 2.2-1.2.5-2.9.7-4.9.7zm48-30H96.4v9.4h14.8v3.9H96.4v16.1H92v-33.4h19.8v4zm7.9 29.4h-4.2V167h4.2v25.1zm.3-29.2h-4.8v-4.4h4.8v4.4zm25.3 29.2h-4.2v-14.3c0-1.1-.1-2.2-.2-3.2s-.3-1.8-.6-2.4-.8-1.1-1.4-1.4c-.6-.3-1.4-.4-2.5-.4-1 0-2.1.3-3.2.8-1.1.6-2.2 1.3-3.2 2.2v18.7h-4.2V167h4.2v2.8c1.2-1.1 2.5-2 3.7-2.6s2.5-.9 3.8-.9c2.5 0 4.4.8 5.7 2.5 1.4 1.6 2.1 3.9 2.1 7v16.3zM165 186v-7c-1 .1-2.2.2-3.8.4-1.5.2-2.7.4-3.7.7-1.1.4-2 .9-2.7 1.6s-1.1 1.7-1.1 3c0 1.5.4 2.5 1.2 3.3s2 1.1 3.5 1.1c1.3 0 2.5-.3 3.6-.9 1.1-.7 2.1-1.4 3-2.2zm0 3.5c-.3.2-.8.6-1.4 1.1-.5.4-1.1.8-1.6 1.1-.7.4-1.5.7-2.2.9-.7.2-1.6.3-2.9.3-1 0-2-.2-2.9-.6s-1.8-.9-2.4-1.6c-.7-.7-1.2-1.5-1.6-2.6-.4-1-.6-2.1-.6-3.2 0-1.7.4-3.2 1.1-4.4.7-1.2 1.9-2.2 3.4-2.9 1.4-.6 3-1.1 5-1.3 1.9-.3 3.9-.4 6.1-.6v-.8c0-1-.2-1.8-.4-2.4-.3-.6-.7-1.1-1.2-1.4-.5-.4-1.2-.6-1.9-.7-.8-.1-1.6-.2-2.4-.2-.9 0-2.1.2-3.4.5-1.3.3-2.6.7-3.9 1.3h-.2v-4.3c.8-.2 1.9-.5 3.3-.8 1.4-.2 2.9-.4 4.3-.4 1.7 0 3.1.2 4.3.4 1.2.3 2.2.8 3.2 1.5.9.7 1.6 1.6 2 2.7s.7 2.4.7 4v17.2H165v-2.8zm29.6 2.6h-4.2v-14.3c0-1.1 0-2.2-.2-3.2-.1-1-.3-1.8-.6-2.4-.4-.6-.8-1.1-1.5-1.4-.6-.3-1.4-.4-2.5-.4-1 0-2.1.3-3.2.8-1.1.6-2.2 1.3-3.2 2.2v18.7H175V167h4.2v2.8c1.2-1.1 2.5-2 3.7-2.6s2.5-.9 3.8-.9c2.5 0 4.4.8 5.7 2.5 1.4 1.6 2.1 3.9 2.1 7l.1 16.3zm15.7.6c-1.7 0-3.2-.3-4.7-.8-1.4-.5-2.6-1.3-3.6-2.4-1.1-1.1-1.8-2.4-2.4-4.1-.6-1.6-.9-3.5-.9-5.8 0-2.2.3-4.1.9-5.7.6-1.6 1.4-3 2.3-4.1 1-1.1 2.2-1.9 3.6-2.5 1.4-.6 3-.9 4.7-.9 1.4 0 2.7.2 3.9.6 1.3.3 2.4.8 3.4 1.3v4.7h-.2c-.3-.3-.7-.6-1.2-.9s-1-.6-1.7-1c-.6-.3-1.2-.6-2-.8-.8-.2-1.6-.3-2.3-.3-2.2 0-3.9.8-5.2 2.4-1.3 1.7-2 4-2 7s.6 5.3 1.9 6.9c1.3 1.7 3 2.5 5.3 2.5 1.3 0 2.7-.3 3.9-.9s2.3-1.3 3.3-2.2h.2v4.7c-.4.2-.9.4-1.6.7-.6.3-1.2.5-1.7.6-.7.2-1.4.4-1.9.5-.4.4-1.1.5-2 .5zm15.4-.6h-4.2V167h4.2v25.1zm.3-29.2h-4.8v-4.4h4.8v4.4zm19.7 23.1v-7c-1 .1-2.3.2-3.8.4s-2.8.4-3.7.7c-1.1.4-2 .9-2.7 1.6s-1.1 1.7-1.1 3c0 1.5.4 2.5 1.2 3.3s2 1.1 3.5 1.1c1.3 0 2.5-.3 3.6-.9 1-.7 2-1.4 3-2.2zm0 3.5c-.4.2-.8.6-1.4 1.1-.6.4-1.1.8-1.6 1.1-.7.4-1.5.7-2.2.9-.7.2-1.7.3-2.9.3-1.1 0-2-.2-2.9-.6s-1.7-.9-2.4-1.6-1.2-1.5-1.6-2.6c-.4-1-.6-2.1-.6-3.2 0-1.7.4-3.2 1.1-4.4.7-1.2 1.9-2.2 3.4-2.9 1.4-.6 3-1.1 4.9-1.3 1.9-.3 4-.4 6.1-.6v-.8c0-1-.2-1.8-.5-2.4s-.7-1.1-1.2-1.4c-.5-.4-1.2-.6-2-.7s-1.6-.2-2.4-.2c-1 0-2.1.2-3.4.5-1.3.3-2.6.7-3.9 1.3h-.2v-4.3c.7-.2 1.9-.5 3.3-.8 1.4-.2 2.9-.4 4.3-.4 1.7 0 3.2.2 4.3.4 1.2.3 2.2.8 3.1 1.5.9.7 1.6 1.6 2 2.7s.7 2.4.7 4v17.2h-4.1l.1-2.8zm14.2 2.6h-4.2v-34.9h4.2v34.9zm17.2 0l11.1-33.4h5.4l11.1 33.4h-4.6l-3-9.4h-12.7l-3 9.4h-4.3zm18.8-13.1l-5.1-15.8-5.1 15.8h10.2zm30.8 13.1h-4.2v-2.6c-.7.6-1.2 1-1.7 1.3-.5.4-1 .7-1.7 1-.6.3-1.2.5-1.8.6-.6.2-1.4.2-2.2.2-1.3 0-2.6-.3-3.8-.8-1.1-.6-2.1-1.4-2.9-2.5s-1.4-2.4-1.9-4.1c-.4-1.6-.7-3.5-.7-5.6 0-2.2.3-4.1.9-5.7s1.3-3 2.3-4.2c.9-1.1 2-2 3.2-2.6 1.3-.6 2.7-.9 4.1-.9 1.2 0 2.3.2 3.2.4.9.3 1.9.7 2.9 1.3V157h4.2v35.1h.1zm-4.2-6.1v-14.4c-1.1-.5-2-.9-2.8-1.1s-1.7-.3-2.7-.3c-2.1 0-3.8.8-5 2.4s-1.8 3.9-1.8 7c0 2.9.5 5.2 1.4 6.8.9 1.6 2.5 2.4 4.5 2.4 1.1 0 2.2-.3 3.3-.7 1.1-.5 2.1-1.2 3.1-2.1zm29.7-18.9l-9.3 25.1h-3.8l-9.2-25.1h4.5l6.8 19.3 6.7-19.3h4.3zm7.4 25h-4.2V167h4.2v25.1zm.3-29.2h-4.8v-4.4h4.8v4.4zm12.6 29.8c-1.7 0-3.2-.2-4.7-.7-1.4-.5-2.7-1-3.6-1.5v-4.7h.2c.4.3.7.6 1.3.9.5.4 1.1.7 1.9 1.1.7.3 1.5.6 2.3.9.9.2 1.7.4 2.7.4.7 0 1.4 0 2.1-.2.8-.1 1.3-.3 1.7-.6.5-.3.9-.7 1.1-1.1s.4-1 .4-1.8c0-1-.3-1.7-.8-2.3-.5-.5-1.5-1-2.9-1.3-.5-.1-1.2-.3-2.1-.5s-1.7-.4-2.4-.6c-1.9-.6-3.3-1.4-4.1-2.6-.9-1.2-1.3-2.6-1.3-4.2 0-2.3.8-4.1 2.6-5.5 1.7-1.4 3.9-2.1 6.7-2.1 1.4 0 2.8.2 4.1.5 1.4.4 2.6.8 3.5 1.3v4.5h-.2c-1.1-.8-2.3-1.5-3.6-2-1.3-.5-2.6-.7-3.9-.7-1.4 0-2.5.3-3.5.9s-1.5 1.5-1.5 2.6c0 1 .3 1.8.9 2.3.5.5 1.4.9 2.7 1.3.6.2 1.3.4 2.1.5.8.2 1.6.3 2.4.5 1.8.5 3.2 1.3 4.1 2.3.9 1.1 1.4 2.5 1.4 4.4 0 1.1-.2 2.1-.6 3.1-.4.9-1 1.8-1.8 2.5-.9.8-1.9 1.3-3 1.7-1.1.5-2.5.7-4.2.7zm24.4 0c-4 0-7-1.1-9.2-3.4s-3.3-5.4-3.3-9.6c0-4.1 1.1-7.3 3.2-9.8 2.2-2.4 4.9-3.6 8.3-3.6 1.5 0 2.9.2 4.1.7 1.2.4 2.2 1.2 3.1 2.1.9 1 1.6 2.1 2 3.6.5 1.3.7 3.1.7 5v2.3h-17.2c0 2.9.7 5.2 2.2 6.7s3.5 2.3 6.1 2.3c.9 0 1.8-.1 2.7-.3.9-.2 1.7-.5 2.4-.8.7-.4 1.4-.7 1.9-1s1-.6 1.3-.9h.3v4.6c-.5.2-1.1.4-1.8.7-.7.3-1.4.5-2 .7-.8.2-1.6.4-2.2.5-.8.2-1.7.2-2.6.2zm4.8-15.9c0-1.1-.2-2.1-.4-2.9-.2-.8-.6-1.5-1-2.1-.5-.6-1.1-1.1-1.9-1.4-.7-.4-1.7-.5-2.8-.5-1.1 0-2.1.2-2.9.5-.7.3-1.5.8-2.1 1.5s-1.1 1.4-1.4 2.2c-.4.8-.5 1.7-.6 2.8h13.1v-.1zm21.5-5.2h-.2c-.3-.1-.7-.1-1-.2h-1.3c-1.1 0-2.2.3-3.4.7-1.1.5-2.2 1.2-3.2 2.2v17.8H410V167h4.1v3.7c1.5-1.4 2.9-2.3 4-2.9 1.2-.6 2.3-.8 3.3-.8h1c.2 0 .4.1.7.1v4.5h.1z"/></svg>