<svg xmlns="http://www.w3.org/2000/svg" width="814.54" height="343.652" viewBox="0 0 814.54 343.652"><linearGradient id="a" gradientUnits="userSpaceOnUse" x1="409.88" y1="305.994" x2="427.477" y2="52.095"><stop offset=".016" stop-color="#a9c5e1"/><stop offset=".989" stop-color="#dcffec" stop-opacity=".2"/></linearGradient><path fill="url(#a)" d="M814.54 12.103v331.55H0c19.98-17 36.59-21.07 61.79-28.59 18.37-5.48 35.33-17.55 54.36-18.71 37.72-2.3 52.68-13.94 83.62-33.9 12.39-8 26.5-15.689 40.63-23.7-4.54 1.521-8.801 3-12.46 4.53 18.3-12.05 37.21-22.649 56.06-33.47 10.13-5.811 34.48-36.34 47.58-37.5l.01-.01c9.44-6.761 20.21-15.561 23.351-22.4 1.409-3.08 3.399-5.45 5.83-7.21.01-.01.01-.021.02-.021 2.07-2.409 4.75-3.789 8.25-3.55 18.92-4.14 48.76 9.46 60.01 17.15 31.2 0 59.25 31.38 91.04 30.38h.01c.16 0 .311 0 .471-.01 6.399-2.42 13.54-3.73 20.399-5.55.12-.061.24-.131.36-.19 1.18-.63 2.38-1.25 3.58-2 7.72-4.83 16.66-11.21 25.78-18.19 4.369-5 8.68-10.05 12.979-15.109a93.36 93.36 0 0 1-1.61 5.74l.011-.011c5.22-4.52 10.33-9.26 15.14-14.14.01-.01.01-.021.021-.03 7.22-13.34 21.14-24.47 27.63-38.33 0 0 .05-.05.16-.13 1.979-1.66 21.789-18.08 31.59-20.63 20.569-11.99 42.35-20.89 66.51-21 .53 0 1.03-.03 1.53-.07.01.011.01 0 .01 0 5.27-3.06 10.18-6.47 13.72-11.26 4.851-6.57 1.83-14.939 9.351-14.93.39-.87.77-1.74 1.159-2.61-1.3-7.04 4.79-15.109 12.601-20.8.149-.11.3-.22.46-.33 3.57-3.39 7.88-6.055 13.33-6.395 3.17-.761 6.109-1.025 8.46-.025h.01c3.2 0 6.7 1.315 10.57 2.726 7.397 2.689 13.627 6.104 20.217 8.725z"/><linearGradient id="b" gradientUnits="userSpaceOnUse" x1="506.123" y1="317.394" x2="407.194" y2="177.771"><stop offset=".011" stop-color="#c0d7e6"/><stop offset="1" stop-color="#aec7da"/></linearGradient><path fill="url(#b)" d="M814.54 12.103v331.55H0c19.98-17 36.59-21.07 61.79-28.59 18.37-5.48 35.33-17.55 54.36-18.71 37.72-2.3 52.68-13.94 83.62-33.9 12.39-8 26.5-15.689 40.63-23.7 0 0 0-.01.01-.01 20.75-11.78 41.53-24.27 56.96-39.53 8.75-8.659 13.27-13.09 23.13-19.399 2.9-1.86 6.85-4.48 11.08-7.5l.01-.01c9.44-6.761 20.21-15.561 23.351-22.4 1.409-3.08 3.399-5.45 5.83-7.21.01-.01.01-.021.02-.021 2.37-1.72 5.17-2.869 8.25-3.55 18.92-4.14 48.76 9.46 60.01 17.15 31.2 0 59.25 31.38 91.04 30.38h.01c.16 0 .311 0 .471-.01 6.62-.07 13.39-1.86 20.399-5.55.12-.061.24-.131.36-.19 1.18-.63 2.38-1.25 3.58-2 7.72-4.83 16.66-11.21 25.78-18.19.029-.02.05-.04.08-.06h.01c3.76-3 7.54-6.08 11.279-9.31l.011-.011c5.22-4.52 10.33-9.26 15.14-14.14.01-.01.01-.021.021-.03 12.279-12.42 22.609-25.72 27.63-38.33 0 0 .05-.05.16-.13 10.3-7.16 20.779-14.319 31.59-20.63 20.569-11.99 42.35-20.89 66.51-21 .53 0 1.03-.03 1.53-.07.01.011.01 0 .01 0 11.979-1.029 17.39-13.31 23.07-26.189.39-.87.77-1.74 1.159-2.61 3.45-7.74 7.15-15.439 12.601-20.8 0 0 .01.09.02.09.141-.14.29-.28.44-.42 3.57-3.39 7.88-6.05 13.33-6.39.38-.021.76-.03 1.149-.03h.021c.27 0 .54-.16.82-.18 1.859-.12 3.84.18 5.97.18h.51c3.2 0 6.7 1.315 10.57 2.726 7.398 2.688 13.628 6.103 20.218 8.724z"/><linearGradient id="c" gradientUnits="userSpaceOnUse" x1="320.678" y1="210.175" x2="308.937" y2="193.604"><stop offset=".006" stop-color="#cae1eb"/><stop offset="1" stop-color="#cad7dc"/></linearGradient><path fill="url(#c)" d="M401.89 160.803c-12.6 8.01-25.229 2.529-36.77-2.92-1.4 17.409-3.9 35.149-3.9 52.619 0-2.529-3.41-26.58-4.97-25.93-3.05 1.29-9.91 19.1-14.05 23.24-5.601 5.6-14.521 9.54-21.55 12.859-14.99 7.07-27.641 10.82-40.851 22.11 12.69-23.229 41.03-22.5 55.851-43.97-19.49 7.31-38.45 4.88-54.03 20.46-9.08 9.08-26.57 14.53-41.21 19.47-.01 0-.01.01-.01.01-4.54 1.521-8.801 3-12.46 4.53 18.3-12.05 37.21-22.649 56.06-33.47 10.13-5.811 34.48-36.34 47.58-37.5l.01-.01c1.33-.11 2.55.069 3.62.619-8.42 4.58-14.58 13.2-18.39 21.79 22.569.261 16.779-11.649 29.06-24.14 1.13 4.35 4.49 8.23 5.38 12.62 2.37-9.23 1.971-31.72 9.511-40.5.01-.01.01-.021.02-.021 2.07-2.409 4.75-3.789 8.25-3.55 2.17.141 4.66.891 7.52 2.4-8.56 3.91-11 10.2 6.561 18.81-.242.024 18.678.533 18.768.474z"/><linearGradient id="d" gradientUnits="userSpaceOnUse" x1="599.766" y1="69.107" x2="537.991" y2="217.132"><stop offset=".011" stop-color="#c0d7e6"/><stop offset="1" stop-color="#aec7da"/></linearGradient><path fill="url(#d)" d="M632.78 137.422c-4.061 9.65-10.03 18.561-17.19 26.19 1.59-14.3 5.771-22.06-4.06-31.9-16.2 16.19-22.86 41.631-39.53 58.311-18.2 18.189-37.36 22.77-59.979 33.01 10.39-10.39 26.75-13.29 36.449-23 1.41-1.399-22.21-4.39-28.649 2.05-9.49 9.5-30.37 10.08-42.971 11.311 12.95-5.141 35.46-12.57 41.921-26.04.59-.25 1.189-.49 1.8-.71 6.399-2.42 13.54-3.73 20.399-5.55 8.08-2.141 15.78-4.971 21.44-11.131 2.8-3.05 5.55-6.14 8.28-9.25 4.369-5 8.68-10.05 12.979-15.109a93.36 93.36 0 0 1-1.61 5.74c-4.949 15.699-13.199 26.25-25.399 38.46 8.26-6.801 36.01-24.42 36.01-36.021 0-6.04 1.78-11.479 4.54-16.59.01-.01.01-.021.021-.03 7.22-13.34 21.14-24.47 27.63-38.33 0 0 .05-.05.16-.13 1.979-1.66 21.789-18.08 31.59-20.63.83-.22 1.59-.34 2.26-.34-5.35 5.349-47.711 50.799-26.091 59.689z"/><linearGradient id="e" gradientUnits="userSpaceOnUse" x1="744.895" y1="-.832" x2="744.895" y2="73.256"><stop offset=".011" stop-color="#c0d7e6"/><stop offset="1" stop-color="#aec7da"/></linearGradient><path fill="url(#e)" d="M763.96 27.612c2.37 8.521-3.28 12.89-7.52 19.09-8.2 12.01-12.131 9.47-21.341 18.681-4.319 4.319 1.96 21.869 3.28 27.02-16.76-6.08-3.1-18.78-10.649-27.84-6.221-7.47-18.591 3.85-24.551 6.14 6.021-5.79 14.101-9.399 21.471-13.7.01.011.01 0 .01 0 5.27-3.06 10.18-6.47 13.72-11.26 4.851-6.57 1.83-14.939 9.351-14.93.619 0 1.329.06 2.109.189-.46-.909-.77-1.84-.95-2.8-1.3-7.04 4.79-15.109 12.601-20.8.149-.11.3-.22.46-.33 4.27-3.04 9.02-5.354 13.33-6.395 3.17-.761 6.109-1.025 8.46-.025h.01c1.09 0 2.06.976 2.86 1.775-8.551 2.95-18.66 6.242-25.5 12.373-5.251 4.7 1.429 7.692 2.849 12.812z"/><linearGradient id="f" gradientUnits="userSpaceOnUse" x1="473.872" y1="250.162" x2="455.891" y2="168.774"><stop offset=".011" stop-color="#bbd9cf"/><stop offset=".989" stop-color="#86aeb3"/></linearGradient><path fill="url(#f)" d="M814.54 104.103v239.55H121.59c11.771-6.35 23.681-12.98 35.87-21.08 13.26-8.81 15.39-6.99 27.61.16 19.67 11.52 28.08 4.62 47.72.68 5.2-1.05 11.29 3.12 15.07 2.41 3.239-.62 5.56-6.55 10.05-7.229 9.6-1.46 23.689.189 32.63-3.53 4.36-1.811 12.65-20.37 18.57-12.09 6.109 8.54 19.93-9.011 26.069-10.29 8.74-1.811 6.87-3.65 12.92-12.78 2.431-3.65 5.98-6.37 10.351-3.58 10.75 6.88 14.5-4.51 23.82-1.9 20.359 5.69 32.239-38.369 40.409-47.069 22.65-24.11 36.45 2.6 63.44 1.67 22.35-.78 41.81-1.62 61.14-12.68 9.69-5.54 20.9-4.69 29.351-8.62 5.59-2.61 9.31-8.61 15.43-10.28 7.79-2.13 14.13 2.3 23.5-1.58 5.09-2.1 23.03-22.15 25.33-20.43 2.78 2.069 9.95-23 12.71-26.971 12.71-18.3 11.85-43.75 24.1-60.88 20.29-28.38 41.48 10.49 66.92 8.46 17.391-1.39 11.021 6.66 17.44-7.699 6.43-14.4 41.21 15.619 43.39 14.159 2.81-1.892 5.87-.882 9.11 1.599z"/><linearGradient id="g" gradientUnits="userSpaceOnUse" x1="610.644" y1="331.849" x2="617.582" y2="231.74"><stop offset=".016" stop-color="#a9c5e1"/><stop offset=".989" stop-color="#dcffec" stop-opacity=".2"/></linearGradient><path fill="url(#g)" d="M814.54 235.252v108.4H405.11c4.6-2.11 8.93-4.79 12.41-9.01 5.359-6.5 11.439-14.221 16.05-21.561 3.12-4.97 10.12.42 15.34-2.42 3.18-1.729 11.92-11.7 11.49-11.93 5.02 2.729 16.189-9.54 17.689-13.39.87-2.23 3.63-19.101 7.69-13.591 3.81 5.181 8.439-12.83 9.91-9.02 0-.9 9.659-6.75 10.149-7.41 2.69-3.65 1.94-6.729 5.391-9.66 9.13-7.74 3.25 2.67 7.97 1.391 14.01-3.82 4.42-24.2 19.81-6.78 8.84 10 8.69-11.101 21.8-7.49 0-2.689 9.301 12.601 9.79 14.05.16.49 3.881 20.221 7.04 18 1.301-.91 6.301-6.6 8.261-4.75.149 3.221.46 6.42.939 9.61 3.58 3.5 9.72-2.13 11.48 5.05.05.2 17.14 5.59 18.76 4.82 8.68-4.101 10.78 4.729 15.17 2.12 6.17-3.66 13.021-1.82 20.85-4.88 16.16-6.32 21.851-10.9 34.801-19.7 11.979-8.141 26.479-24.29 35.75-35.7a16.73 16.73 0 0 0-1.471 2.25c10.48-10.68 13.03-13.02 26.45-13.02-1.2 0 15.141 14.329 15.2 14.659 1.22 6.62 20.95 9.67 26.49 10.49 8.801 1.292 16.691.912 24.221-.528z"/></svg>