<svg xmlns="http://www.w3.org/2000/svg" width="421.249" height="446.37" viewBox="0 0 421.249 446.37"><linearGradient id="a" gradientUnits="userSpaceOnUse" x1="332.17" y1="2.869" x2="313.314" y2="78.296"><stop offset="0" stop-color="#567700"/><stop offset="1" stop-color="#91ac00"/></linearGradient><path fill="url(#a)" d="M206.746 112.071c-7.755 3.979-4.29 9.666-8 14.5 7.042 1.554 6.68-5.006 12.311-5.006 8.064 0-4.923 7.602-5.311 8.506 4.833 3.253 9.275 2.831 14.75 2.5-7.056-.941-7.305 3.939-9 9 3.248 1.638 6.295-.016 8.125-3.125-.514 4.614-5.627 9.612-2.375 13.625 3.316-2.879 6.502-5.931 6.25-10.5-4.252 7.138 1.964 11.964 6.625 16.625 2.851-4.511-.543-8.615-2.813-12.375 2.713 4.425 6.033 7.821 11.283 8.564.051-2.226-1.114-7.564-4.096-7.564l7.822-1.709c-.333 5.769 5.507 4.885 9.678 4.459-1.438-1.34-5.393-4.453-4.4-5.787.412-.555 2.658-6.986-.224-5.717 7.086-3.121 5.761 3.641 8.624 6.504 4.674 4.673 5.512-4.756 1-8.75 6.223-.448 12.087 5.132 10.143 11.393 5.007-2.188 4.522-8.821 2.498-13.033.184 5.023 5.505 6.529 7.354 10.641 3.334-3.611 2.452-7.536-1.494-10.25 3.557 4.067 8.489 5.904 12 9.25 2.498-3.864-1.11-7.206-1.06-11.498 1.238 2.505 6.609 9.991 4.764 12.072-5.798 6.537 6.007 1.102 8.443-2.374-1.097 8.777 6.644 12.496 7.222 1.503.829-15.757 15.323 3.227 12.381-7.704 7.807 0 9.426.385 6.592-7.637-1.262-3.57-4.82-6.851-7.092-9.863 2.463 1.941 6.944 6.5 10.25 6.5 4.952 0 .72-5.58-1.625-7.125 11.075-1.179 7.002 5.55 7.91 14.113 4.488-1.984 5.255-6.094 4.715-10.738 6.976 3.074-1.463 11.314 5.145 16.424 3.118 2.412 4.801-10.701 4.855-12.674-3.255 7.396 4.901 8.344 8.5 12.683-.025-2.57-.321-7.254-2.25-9.183 10.563 4.61 3.615-7.974-1.314-5.509 2.258-1.129 8.951-2.596 10.792-.755 3.051 3.05.841 5.133 5.71 4.889 4.729-.236 7.438-.432 11.225-3.342-1.944 1.495-4.175 4.954-1.912 7.217 2.738 2.738 4.938-1.973 7-1.75 2.293.248 2.498 4.345 5.634 4.234 3.548-.126 6.137.537 8.282 3.6 1.144-4.869-2.815-8.972-6.957-10.85 11.193 3.868 19.885-6.44 7.594-4.287 6.146-1.4 12.863-4.375 14.697-10.947-3.256-.37-8.473-.61-11 1.917 2.152-5.279 7.962-5.838 11-10.167-5.971 1.08-12.194-2.131-17.75 1 7.319-5.677 9.979-3.261 18.473-6.606-3.029-5.161-10.531-6.191-15.223-2.644.246-.992 1.084-6.517.963-6.291 1.489-2.78 9.651-.811 12.178-5.924-4.743.29-9.477-.017-14.141.965 4.546-7.943 12.72-1.601 18-7-1.766-1.527-7.357-1.671-7.998-2.648-.063-.097 6.514-1.755 7.248-1.852-.712-2.241-1.664-5.352-1.23-7.71.312-1.69 3.73-.953 3.73-3.567v-17.83V.01l-69.85.02-29.669.008c-3.439.001-8.162 6.693-10.462 8.868a113069.47 113069.47 0 0 0-62.644 59.288c-11.381 10.781-35.902 43.313-54.626 40.128l12.75 3.749z"/><linearGradient id="b" gradientUnits="userSpaceOnUse" x1="-3.41" y1="68.887" x2="491.424" y2="68.887"><stop offset="0" stop-color="#567700"/><stop offset="1" stop-color="#91ac03"/></linearGradient><path fill="url(#b)" d="M14.339.041C9.548-.197 6.222 2.933 1.996 4.334c4.198 2.338 9.242 1.532 13.451-.407C11.838 6.422 1.87 7.481 0 10.948c4.347 2.874 9.761 2.866 14.338.37.03 4.033-8.6 4.864-12.393 8.291-6.051 5.467 10.02 1.038 11.801.355-5.716 1.562-5.886 7.292-9.802 11.039 4.738 1.714 9.205-1.266 11.945-5.2 2.426 6.054-5.792 7.702-2.963 15.02 1.904 4.926 7.884-3.33 8.801-5.265-4.198 8.071-1.969 11.2-12.933 13.451 3.204 5.223 9.703 2.372 14.337-.443-3.332 4.001-2.633 9.279-5.173 13.598 6.372 3.609 9.076-6.891 9.46-11.307.165 3.167 2.146 4.817 5.321 4.73-4.374 2.963-2.53 9.667-4.509 14.633 6.105-.015 10.592-6.126 9.829-11.972 1.069 6.68 4.908 9.121 8.352 14.189 4.371-4.129 4.523-9.895.599-14.375 6.683.878 8.347 11.752 10.265 17.331 6.73-5.338 1.234-10.236 1.7-16.702 2.235 2.771 5.822 3.681 9.238 2.956-8.473 2.654-1.033 12.769-4.381 14.737 5.556-3.497 9.806-9.189 11.254-15.624 4.39 9.215 1.299 6.192-3.696 14.78 5.132 1.969 10.112-1.313 13.82-4.656-1.361 9.168-15.801 4.707-22.171 7.76 5.143 2.456 10.219 1.769 15.668 1.552-9.001-1.802-16.421 4.531-25.275 1.7 5.272 8.008 16.318 6.548 23.501 2.069-1.521 3.75 2.129 8.88-2.882 11.455 7.162 4.688 8.833-6.706 8.647-11.456.289 1.474 4.352 8.999 4.271 9.206-1.643 4.259-5.833 5.928-2.72 11.118 3.17-6.381 9.07-8.836 9.386-16.998.017 5.73 4.946 7.607 6.577 12.268 4.603-4.205 1.122-9.144-.296-13.894 3.304 2.341 7.545 2.542 11.234 1.183-1.585 3.738-3.08 7.588-5.765 10.716 5.671 3.524 9.458-4.371 10.207-8.923.615-3.741 5.68-.733 7.308-4.896-.212 4.454 4.176 5.778 3.326 9.977 4.62-1.825 5.842-6.758 4.878-11.308 1.119 4.167 3.569 7.335 8.056 6.651-5.72 1.966-4.513 8.362-7.686 12.49 5.757 2.288 10.498-3.667 14.189-7.243-3.006 4.706-.905 9.388 4.804 10.051-7.714-.291-9.913 7.44-16.924 7.095 4.731 5.328 11.344 2.763 16.776 0-2.56 8.335-10.511 7.056-14.485 16.111 8.403-4.213 14.285-.392 19.511-10.272-2.772 6.139 1.803 13.06-1.847 17.663 9.023.458 8.714-8.461 8.425-15.076.29 1.495 1.844 6.282 3.843 6.282-1.322 0 1.766 10.544 2.439 11.603 6.234-4.543 6.087-11.821 1.33-17.515 3.765 3.996 11.069 5.458 13.229 10.051 2.197-6.576-.485-11.759-6.06-15.52 4.024 2.084 6.9.209 7.833-4.138-2.859 7.148 3.198 11.456 7.834 15.815 1.881-6.732 3.18-10.775-.739-16.998 3.104 4.133 7.013 6.855 12.194 4.877-2.816 3.201 3.37 6.985 6.134 10.051 5.368-3.752 1.393-10.319-.295-15.002 1.902 3.815 5.757 6.066 9.976 5.542-4.029 3.185 1.238 6.694 4.509 9.682 3.285-5.201 2.838-11.655-.045-16.933 1.902 5.459 9.631 9.556 9.578 14.494 6.235-3.216 5.641-10.055 2.809-15.52.909 1.966 3.179 6.793 5.469 7.391 6.459 1.685-.989 6.09-1.411 7.028-4.634 10.298 7.938 2.339 10.228-1.957.306 8.714 8.848 17.832 12.248 5.288 3.073-11.331 15.093-7.136 7.389-22.553 2.798 5.6 7.05 8.549 13.598 6.873-2.052-4.874-4.842-9.486-9.533-12.194 2.194.953 7.871 1.223 8.633 3.617 1.457 4.574 3.244 7.979 8.856 9.971 2.899 1.029-3.952-16.678-5.073-18.096 3.05 4.933 10.058 4.617 11.603 9.903 4.556-8.945-2.949-10.089-5.524-16.797.76 1.979 4.018 2.569 5.826 2.561 2.876-.012 2.119 4.658 2.533 6.581 1.307 6.062 8.455 7.414 13.433 5.417 1.157-.465 15.528-5.628 9.93 2.864-3.183 4.828 4.307 8.221 5.584 12.826 9.536-3.778 3.944-15.447-.665-21.063 1.154.7 8.101 3.01 8.017 3.365-1.72 7.284 3.789 10.374 7.06 16.146 3.531-7.017 2.998-12.8 0-19.88 2.626 9.53 8.26 13.853 17.736 15.89-1.287-4.806-3.347-12.071-8.055-14.633 6.55 5.826 14.45 5.5 21.801 1.331-5.294-4.034-10.928-7.848-17.884-7.021 8.33-1.293 13.124-4.302 17.367-11.603-5.857-1.838-11.062-1.103-16.114 2.154 7.513-4.843 12.315-9.683 14.953-18.112-5.86-.833-11.886 3.347-14.375 8.5 2.529-12.279 14.498-10.016 19.75-20.625-3.4-2.461-8.474-3.401-11.75-.125.496-1.049 2.11-8.785 2.439-8.859 2.951-.668 12.329 3.782 16.255 4.126 1.341-6.018-3.302-10.145-8.361-12.304-3.115-1.33 3.278-6.018-2.458-7.838 8.492 5.286 15.152 2.588 20.537-5.355-4.73-1.745-10.82-3.426-15.787-1.77 6.653-1.657 14.241-5.064 14-13-5.147 4.201-14.871 4.24-21.25 6.75 3.665-4.729 9.653-5.311 14.375-8.5-3.313-.928-7.337-1.851-10.757-1.049-3.453.81-3.896-1.889-7.151-1.888h-5.521C353.2.01 341.959.011 330.718.012L207.539.023l-193.2.018z"/><linearGradient id="c" gradientUnits="userSpaceOnUse" x1="214.647" y1="-17.534" x2="203.036" y2="28.91"><stop offset=".006" stop-color="#305d00"/><stop offset="1" stop-color="#6f9b00"/></linearGradient><path fill="url(#c)" d="M52.672 6.497c-8.609-6.534-14.62 4.069-23.176-.926 4.096 9.78 9.483 4.652 16.205 7.25-2.321.814-7.198 2.624-7.713 5.44-.67 3.671 2.891 6.111-2.992 8.31 7.87 3.843 13.325-1.215 14.31-9.167 2.266 4.819 6.235 8.212 9.94 11.917.082-3.546.116-7.076-.75-10.5 3.225 3.225 8.294 6.624 8.75 11.5-2.976-1.314-6.364-2.24-9.632-2.24-3.551 0-8.153 5.125-9.575 4.658-9.332-3.069-8.807 8.692-18.043 6.707 3.305 8.709 8.956 1.23 14.75.875-.008 4.131 3.571 7.359-1 10.25 7.99 4.488 7.167-2.641 9.5-7.75.539.829 2.649 8.417 2.75 8.475 6.038 3.471 4.36-7.225 1.973-9.697 8.843 1.694 6.983 1.656 6.983 9.333 0 4.776 9.088.184 9.794-3.61 2.199 8.539 5.348 11.824 7.045.944 4.607.969 9.382 3.111 6.877 7.978 5.744-.528 8.379-4.591 7.188-10.171 3.1 1.175 6.365 1.499 9.641 1.499-4.787 0 .107 8.131-3.75 9.5 4.479 1.244 7.62-1.003 7.5-5.75 2.105 1.784 5.172 1.685 7.5 3.496.916.712-14.906 16.729 4 5.463-4.731 9.36 15.577 9.83 7-1.459 2.254 1.661 4.72 3.314 6.703 5.297 1.842 1.842 6.277-3.49 7.683-2.828 3.992 1.88-1.58 12.071 2.325 12.449 9.72.942 3.566-10.373 16.289-5.168 6.384 2.612 7.29-6.71 4-10 4.518 4.518 7.063 5.129 13.121 7.129-.917-1.415-7.265-7.796-6.51-9.055.584-.975 6.75-3.067 7.698-4.015 3.454-3.454-8.991-2.908-10.06-2.56 2.004-1.962 7.745-6.645 10.355-3.226 2.708 3.546 5.922 4.773 8.895.226-.722 3.683.905 8.103 4.875 7.125-3.09 2.367-6.467 5.683-3.983 9.518 3.186-2.842 7.229-4.172 9.858-7.643-3.871 6.574 3.939 8.255 8.892 9.086.524-4.21-1.903-6.863-2.642-10.836 2.462 4.158 7.366 4.005 11.791 3.358-.941-4.56-4.904-6.955-9.291-7.108 1.206.219 10.693 1.443 10.452-.484-.12-.954-4.694-5.516-5.202-5.516 6.841 0 11.304 3.708 17.75 4-1.229-5.051-4.27-9.405-9-11.75 1.729.183 9.747.982 9.747 3.519 0 3.231 8.382 9.326 10.579 6.545 1.894-2.398-4.597-8.16-6.076-9.814 2.906 1.619 15.083 9.178 18.148 5.766.808-.899-1.887-3.249-1.887-4.278 0 1.832 10.721-.091 8.531 6.498-1.303 3.921 11.302-.185 8.957-9.736 2.628 11.446 18.736 19.453 16.25 2.75.23 2.892 4.736 9.103 8.25 6.719 2.656-1.802.824-7.162 3.25-9.469-1.037 4.457-1.254 10.497 2.25 14 2.621-4.301 3.196-8.433 4.289-13.131-.449 1.935 1.903 9.881 4.461 9.881-1.78 1.958-5.561 8.184-2.687 10.242 3.655 2.617 7.989-3.726 12.187-3.492-4.808 2.98-6.943 8.834-4.67 14.081 3.978-2.095 7.289-5.374 8.92-9.581 3.929 3.219 9.775 9.708 15.078 10.071 5.01.343 6.428-4.05 10.939.955-.344-3.834-2.599-6.68-6.274-8.067.756-1.829 3.977-2.88 2.021-5.36 3.501 4.44 7.396 5.079 12.49 6.727 1.181-2.923.787-6.813-2.754-7.825 6.033 1.92 12.955-1.619 10.75-8.75 6.483 1.186 10.404-3.62 15.5-6.5-9.046-2.867-12.426.604-20.5 1.25 2.567-7.822 11.896-9.341 14.25-17.5-9.668-1.287-7.015 4.252-13 7.5 7.184-6.807-6.36-12.748-11.368-15 .964 2.037 2.618 4.959 2.618 7.25 0-1.336-8.686-.485-9.686-1.546-1.856-1.972 6.989-10.59 8.436-12.704-3.021-.351-7.716-.034-10 2.25 1.496-1.188 6.173-6.758 1.707-7.248 1.504-.703 2.703-2.258 4.26-2.814H211.597C168.319.01 123.443-1.726 81 1.877c.71 1.745 2.496 3.8 3.995 4.945-5.09-3.212-10.516-1.913-15.115-4.684-1.339 8.898 8.192 6.677 13.616 9.183-1.217-.025-9.75-.232-9.75 1.5 0-1.976-11.301-6.84-13.25-8.5-2.415 2.933-1.529 6.052 1.75 8-4.268-2.336-7.082-5.604-5.75-10.75-1.955.465-4.818 2.424-3.824 4.926z"/><linearGradient id="d" gradientUnits="userSpaceOnUse" x1="-6595.595" y1="115.138" x2="-3743.833" y2="115.138"><stop offset=".006" stop-color="#28353f"/><stop offset="1" stop-color="#3d4c28"/></linearGradient><path fill="url(#d)" d="M421.246 230.843c-30.196-20.471-64.32-36.908-89.545-63.439-9.978-10.495-16.946-20.301-30.78-25.443-16.047-5.965-38.314-9.938-50.356-23.075-7.519-8.203-16.178-15.785-25.712-21.57-7.011-4.254-13.795-4.113-21.466-6.238-16.374-4.536-34.176-10.903-48.21-20.501-18.646-12.753-45.492-13.875-59.201-33.295C85.63 22.626 69.82 14.067 58.722.009c10.452-1.226 12.03 8.411 19.636 14.139 4.371 3.292 9.213 5.743 13.463 9.376 5.38 4.601 7.881 10.626 12.737 15.135 13.165 12.226 29.646 10.487 44.93 17.657 5.737 2.692 9.463 7.559 15.204 10.174 5.724 2.608 12.57 3.473 18.055 6.413-5.133-5.133-5.792-17.291-5.258-23.867 1.048-12.889-15.858-13.116-23.973-14.845-18.948-4.038-26.129-17.857-32.341-34.183 6.8-2.047 7.029 1.647 9.252 6.631 3.455 7.748 9.335 16.319 17.408 19.639 10.163 4.18 23.904 1.756 31.809 10.276 8.429 9.087 6.454 23.069 12.661 33.626 4.888 8.313 9.879 6.958 18.684 7.665 13.798 1.109 4.748-9.144 8.68-19.614 3.498-9.316-2.454-19.649-4.082-29.251-.788-4.646-3.525-9.374-3.525-14.112 0-5.502 5.848-8.925 5.006-14.859h12.142c-.279 6.547-4.78 11.015-5.663 17.113-.479 3.31 3.425 12.581 4.599 16.018 1.679 4.914 7.383 10.963 6.935 16.348-.812 9.753-2.925 17.26-1.384 27.353 1.833 12.007 14.474 18.935 23.796 25.401 11.39 7.901 24.105 11.705 36.02 18.521 2.624-11.811 10.124-21.638 16.031-31.97 6.638-11.609 14.115-14.53 7.971-28.951-5.293-12.421-.43-25.289-7.663-36.451-5.386-8.31-5.182-18.364-14.563-23.391 9.297.007 18.549-2.811 24.244 6.012 2.058 3.188 1.117 5.843 1.822 9.316.965 4.744 3.973 8.727 6.361 12.813 4.321 7.393 1.149 17.319 5.512 25.453 11.363 21.185 1.934 35.112-9.691 53.244-3.872 6.04-11.002 12.216-3.811 17.193 6.323 4.376 12.281 9.292 18.309 14.059 5.617 4.442 20.995 21.766 22.538 8.778 1.232-10.368 1.662-20.576 8.183-29.117 7.845-10.274 7.407-16.729 6.604-29.324-2.018-31.65 23.763-56.12 22.161-88.417l20.388-.001c.173 11.137-.919 23.161-4.449 33.759-3.198 9.599-6.552 22.389-10.871 31.172-2.87 5.837-6.472 9.588-6.022 16.511.55 8.487 4.818 16.531 3.932 25.149-1.057 10.257-13.408 24.917-9.854 34.665 3.554 9.748 10.328 18.657 16.375 26.983 5.287 7.28 14.22 5.17 14.222 14.464-.003 16.043 0 32.087.004 48.131z"/><linearGradient id="e" gradientUnits="userSpaceOnUse" x1="210.711" y1="-3.339" x2="276.502" y2="58.3"><stop offset=".006" stop-color="#0b3219"/><stop offset=".994" stop-color="#3f4721"/></linearGradient><path fill="url(#e)" d="M249.547.01c.14 8.291 1.035 22.541 6.421 28.935 7.392 8.777 16.438 16.314 25.055 23.853-15.149 0-22.651-.311-31.886-13.367-6.31-8.923-10.617-15.903-21.984-17.672-13.773-2.143-27.083-6.04-38.486-14.336-7.673-5.582-7.548-7.414-17.113-7.414 9.18 7.895 19.564 17.676 31.094 21.852 16.906 6.124 28.83 5.005 39.896 20.33 4.121 5.708 8.971 13.667 15.492 16.928 7.779 3.89 17.253 1.188 25.251 4.2 17.267 6.503 18.11 19.531 21.298 35.453 6.513-7.877 10.717-12.728 7.291-22.84-3.433-10.135-11.36-16.733-17.18-25.417-2.281-3.403-7.555-5.509-10.86-7.689-5.736-3.783-10.424-8.707-15.956-12.602-7.955-5.601-14.743-20.112-10.863-30.216l-7.47.002z"/><linearGradient id="f" gradientUnits="userSpaceOnUse" x1="345.808" y1="27.143" x2="380.481" y2="59.628"><stop offset=".006" stop-color="#0b3219"/><stop offset=".994" stop-color="#384c21"/></linearGradient><path fill="url(#f)" d="M377.869 99.542c-5.283-5.124-9.494-11.543-11.967-18.481-3.52-9.875-.771-27.662-10.221-33.678-9.438-6.008-.913-16.027.114-24.54 1.124-9.323 2.028-13.338-3.553-22.833 2.33 0 9.346-1.275 10.565.774 1.326 2.229 3.826 12.889 4.094 13.119 8.464 7.247-14.223 21.507-.123 28.779 8.519 4.394 5.245 8.462 6.345 16.912.742 5.703 4.459 10.069 5.583 15.237 1.597 7.336-.581 17.165-.837 24.711z"/><linearGradient id="g" gradientUnits="userSpaceOnUse" x1="-1314.133" y1="74.348" x2="-721.411" y2="74.348"><stop offset=".006" stop-color="#474528"/><stop offset=".994" stop-color="#455d16"/></linearGradient><path fill="url(#g)" d="M137.353 60.268c-11.221 9.066-25.932 6.785-39.233 7.933-11.869 1.024-15.448 16.478-29.19 13.333 9.499 1.858 13.798-.047 20.885-6.853 7.288-6.998 20.696-3.494 30.298-3.494-8.71 14.185-23.798 4.151-32.183 17.24 8.594-9.065 22.728.109 29.125-9.03 2.372-3.389 5.853-7.898 9.771-9.725 5.69-2.654 12.802-1.739 17.452-6.237l-6.925-3.167z"/><linearGradient id="h" gradientUnits="userSpaceOnUse" x1="184.602" y1="9.833" x2="48.671" y2="32.727"><stop offset=".006" stop-color="#0b3219"/><stop offset=".994" stop-color="#3f4721"/></linearGradient><path fill="url(#h)" d="M138.369 27.683c-6.357-1.27-13.173-2.259-19.643-1.418-8.997 1.169-10.929 11.59-17.667 16.541-14.954 10.986-34.516-5.67-50.945-6.399 11.875-.415 19.938 4.496 31.178 7.249 15.301 3.748 22.483-6.022 30.054-17.683-12.271-1.568-28.171 4.453-39.296-1.059-10.72-5.31-16.422-12.188-28.092-14.676 2.634.138 6.13-.33 8.634.451 2.313.96 11.784 8.824 11.188 6.627 2.022 7.457 17.042 7.425 22.494 6.626 13.69-2.006 26.347-1.311 40.108-1.311 1.477 0-5.047-5.268-4.132-4.647-3.765-2.552-8.313-3.262-12.699-3.977-6.933-1.131-9.703-5.559-13.769-10.952 3.375 2.258 5.122 6.008 8.63 8.113 5.387 1.937 12.118.853 17.133 3.126 9.28 4.207 11.657 12.005 23.541 8.721 17.924-4.955 35.332-12.831 53.99-7.364-13.709 4.126-21.336 11.08-32.821 18.616-8.045 5.278-17.931 2.643-26.954 3.301-6.035.44-11.838 6.033-17.065 5.908 2.257.054 7.092-5.995 10.295-6.741 4.884-1.137 10.545-1.044 15.536-1.393 7.035-.492 13.411-.721 18.818-5.534 4.101-3.65 13.542-8.433 16.333-12.95-5.604 3.304-15.466 2.626-21.799 4.729-7.712 2.562-14.809 5.589-23.05 6.096z"/><linearGradient id="i" gradientUnits="userSpaceOnUse" x1="281.432" y1="109.527" x2="363.646" y2="186.554"><stop offset=".006" stop-color="#354921"/><stop offset=".994" stop-color="#495321"/></linearGradient><path fill="url(#i)" d="M306.076 145.314c5.535 4.4 73.979 53.309 78.186 48.03 1.353-1.697-10.155-7.476-10.311-9.677.144 2.042 20.896 12.899 23.266 14.472a2634.883 2634.883 0 0 1 23.351 15.69 794.884 794.884 0 0 0-21.33-22.656c-9.084-9.276-20.329-23.771-32.881-28.477 1.038 1.039 13.495 12.594 10.352 14.828-3.032 2.156-11.531-3.054-14.108-4.303-12.604-6.11-24.402-13.565-36.074-21.259-15.693-10.345-31.75-20.163-47.795-29.952-4.3-2.624-30.062-22.55-35.183-20.07-1.98.958 18.786 20.344 20.379 21.616 12.519 10.007 28.093 14.315 42.148 21.758z"/><linearGradient id="j" gradientUnits="userSpaceOnUse" x1="233.498" y1="86.175" x2="283.587" y2="133.103"><stop offset=".006" stop-color="#323d00"/><stop offset=".994" stop-color="#495321"/></linearGradient><path fill="url(#j)" d="M256.309 121.446c11.485 4.774 23.287 7.019 34.79 11.079 9.928 3.505 19.046 10.836 27.835 16.483-15.791-11.523-32.571-22.279-47.136-35.304-8.438-7.546-16.543-9.202-26.251-13.648-11.932-5.465-19.948-17.59-32.052-21.804 7.666 4.695 6.109 14.711 14.5 19.429 10.956 6.16 20.253 14.225 28.314 23.765z"/><linearGradient id="k" gradientUnits="userSpaceOnUse" x1="276.072" y1="107.45" x2="229.953" y2="58.036" gradientTransform="rotate(-8.545 445.725 58.818)"><stop offset=".006" stop-color="#475815"/><stop offset="1" stop-color="#495121"/></linearGradient><path fill="url(#k)" d="M231.493 94.06c11.272 11.356 24.223 23.951 39.448 29.755 2.132 2.429 26.774 15.433 28.579 12.657.267-.411-66.85-45.619-70.986-48.094l28.925 19.674-25.966-13.992z"/><linearGradient id="l" gradientUnits="userSpaceOnUse" x1="399.662" y1="214.613" x2="334.175" y2="144.449"><stop offset=".006" stop-color="#475815"/><stop offset="1" stop-color="#545121"/></linearGradient><path fill="url(#l)" d="M317.434 152.383c11.385 10.927 23.373 21.614 36.487 30.429 7.376 4.958 13.844 6.829 22.233 9.09 1.675.452 23.654 8.949 22.015 10.456-1.638 1.506-9.616-1.902-9.98-1.046-.803 1.883 29.69 18.318 33.058 20.259-.014-13.087-2.357-13.275-13.783-20.451-12.365-7.767-24.716-15.832-39.429-17.668-17.918-2.237-36.436-20.707-50.601-31.069z"/><linearGradient id="m" gradientUnits="userSpaceOnUse" x1="298.862" y1="170.964" x2="211.203" y2="96.312"><stop offset=".017" stop-color="#3f4500"/><stop offset=".978" stop-color="#496000"/></linearGradient><path fill="url(#m)" d="M331.407 167.094c-28.996 24.379-69.043 8.007-88.064-20.416-7.322-10.941-14.129-24.887-15.181-38.257-.665-8.445-1.975-16.641-4.675-24.717-1.549-4.632-10.413-14.292-12.885-5.65 15.072-.945 11.857 27.884 14.086 37.093 3.629 14.992 12.381 29.794 22.07 41.606 20.85 25.416 60.433 35.514 87.475 13.286-.942-.982-1.883-1.964-2.826-2.945z"/><linearGradient id="n" gradientUnits="userSpaceOnUse" x1="439.848" y1="315.124" x2="318.43" y2="211.723"><stop offset=".006" stop-color="#3f4500"/><stop offset=".978" stop-color="#496000"/></linearGradient><path fill="url(#n)" d="M351.672 148.555c8.561 20.182 6.863 39.183 9.622 60.066 3.144 23.803 9.333 47.49 15.828 70.569 10.931 38.839 27.988 77.041 44.117 114.032.012-16.527-7.121-30.044-12.529-45.664-6.84-19.758-14.854-39.08-21.91-58.701-8.522-23.7-14.827-48.813-19.829-73.475-1.898-9.354-6.021-74.943-17.163-68.183l1.864 1.356z"/><linearGradient id="o" gradientUnits="userSpaceOnUse" x1="411.435" y1="291.456" x2="388.238" y2="271.701"><stop offset=".006" stop-color="#3f4500"/><stop offset=".978" stop-color="#496000"/></linearGradient><path fill="url(#o)" d="M386.789 289.364c15.54.872-9.411-15.847-1.417-19.003 12.545-4.951 24.223 12.587 35.874 7.315-.003 10.556 2.63 17.611-11.071 17.611-4.893 0-13.228-8.332-15.601-5.624-3.125 3.568-7.065 8.085-7.785-.299z"/><g><linearGradient id="p" gradientUnits="userSpaceOnUse" x1="433.86" y1="347.886" x2="253.243" y2="194.069"><stop offset=".017" stop-color="#3f4500"/><stop offset=".978" stop-color="#496000"/></linearGradient><path fill="url(#p)" d="M289.162 119.784c9.837 23.979 8.889 50.433 16.673 75.222 3.932 12.517 8.228 25.784 15.333 36.923 7.438 11.662 19.168 20.448 26.846 32.312 9.499 14.678 13.916 31.252 20.426 47.294 6.645 16.372 13.89 32.545 19.498 49.316 9.18 27.449 11.98 63.893 33.309 85.52 0-13.348-1.399-18.357-6.8-30.365-6.955-15.465-10.156-30.767-14.988-46.587-8.501-27.832-25.958-52.985-33.337-81.095-7.952-30.291-38.638-48.543-49.793-76.949-6.194-15.772-13.193-33.911-14.482-50.978-.718-9.492-1.954-48.891-17.275-44.287 1.901.82 3.431 2.044 4.59 3.674z"/><linearGradient id="q" gradientUnits="userSpaceOnUse" x1="337.815" y1="301.346" x2="313.909" y2="280.988"><stop offset=".006" stop-color="#3f4500"/><stop offset=".978" stop-color="#496000"/></linearGradient><path fill="url(#q)" d="M356.823 282.022c-3.318 2.161-9.362-8.389-11.821-9.755-10.135-5.632-10.222-6.777-21.752-2.135-7.946 3.199-9.229 7.167-12.266 14.869-3.314 8.405-10.516 11.018-18.055 15.171 12.808.45 24.077 6.525 36.643 6.663 9.172.1 14.761-2.443 17.899-11.159 1.719-4.772 6.021-14.062 12.099-8.805-.138-2.899-.4-6.374-2.747-4.849-1.514.987 1.515-.984 0 0z"/><linearGradient id="r" gradientUnits="userSpaceOnUse" x1="388.273" y1="268.487" x2="357.112" y2="241.95"><stop offset=".017" stop-color="#3f4500"/><stop offset=".978" stop-color="#496000"/></linearGradient><path fill="url(#r)" d="M353.773 266.42c1.388-4.306 4.119-5.294 1.776-9.16-3.482-5.745-4.636-17.167 1.332-21.872 7.878-6.211 34.658 13.041 44.134 15.748 5.602 1.601 6.739 15.628-2.881 16.949-9.741 1.338-21.839-1.466-31.24-4.13-1.93-.547-5.025-2.883-7.02-2.321-1.981.558-1.534 9.513-2.993 8.783a9.485 9.485 0 0 1-3.108-3.997z"/><linearGradient id="s" gradientUnits="userSpaceOnUse" x1="372.047" y1="362.648" x2="348.036" y2="342.2"><stop offset=".006" stop-color="#3f4500"/><stop offset=".978" stop-color="#496000"/></linearGradient><path fill="url(#s)" d="M379.087 338.812c-4.649-.004-10.635.387-14.591-2.386-3.083-2.161-8.406-5.648-12.367-4.128-6.72 2.581 3.775 42.676-.64 42.677 6.846-.001 29.665-8.584 32.176-15.37 1.406-3.798-16.685-24.223-2.329-16.971-.356-1.52-1.455-2.975-2.249-3.822z"/><linearGradient id="t" gradientUnits="userSpaceOnUse" x1="406.957" y1="319.596" x2="384.017" y2="300.059"><stop offset=".006" stop-color="#3f4500"/><stop offset=".978" stop-color="#496000"/></linearGradient><path fill="url(#t)" d="M380.19 322.606c5.685-5.458-10.951-19.317-.659-20.213 11.267-.98 28.427 6.345 35.528-5.328 1.209 8.126 3.611 19.021-2.023 26.011-7.046 8.738-19.102 1.709-27.287-1.585-.918 6.288-5.469 9.214-5.559 1.115z"/><linearGradient id="u" gradientUnits="userSpaceOnUse" x1="338.994" y1="213.823" x2="316.824" y2="194.942"><stop offset=".017" stop-color="#3f4500"/><stop offset=".978" stop-color="#496000"/></linearGradient><path fill="url(#u)" d="M316.166 210.491c4.979-5.917-10.778-21.702 4.963-18.431 10.762 2.236 19.677 17.822 31.043 13.893-.75 8.162-9.125 8.982-15.723 8.09-4.005-.542-8.079-1.696-11.419-4.051-5.061-3.57-4.852 1.313-7.843 3.639-1.458 1.134-1.018-2.793-1.021-3.14z"/><linearGradient id="v" gradientUnits="userSpaceOnUse" x1="296.234" y1="205.931" x2="277.659" y2="190.111"><stop offset=".017" stop-color="#3f4500"/><stop offset=".978" stop-color="#496000"/></linearGradient><path fill="url(#v)" d="M304.366 190.219c-6.856.985-7.286-9.181-17.741-2.631-6.39 4.003-13.947 14.879-22.198 13.826 8.848 8.653 25.236 9.181 36.46 5.673 6.398-2 4.872-7.028.983-11.195-4.293-4.6 5.655-.077 2.496-5.673z"/><linearGradient id="w" gradientUnits="userSpaceOnUse" x1="289.095" y1="164.416" x2="273.234" y2="150.909"><stop offset=".017" stop-color="#3f4500"/><stop offset=".978" stop-color="#496000"/></linearGradient><path fill="url(#w)" d="M297.407 154.818c-6.43 1.619-7.553-7.523-14.143-6.393-6.526 1.12-13.447 8.237-20.048 10.629 8.521 2.777 21.942 8.59 30.91 6.141 3.868-1.056-2.426-5.082-1.638-6.84 1.577-3.518 6.143 2.911 4.919-3.537z"/></g><linearGradient id="x" gradientUnits="userSpaceOnUse" x1="412.627" y1="238.103" x2="397.902" y2="225.564"><stop offset=".028" stop-color="#3f4500"/><stop offset=".978" stop-color="#496000"/></linearGradient><path fill="url(#x)" d="M421.244 222.805c-8.31-1.519-17.226.162-23.182 6.488-3.791 4.025-6.403 9.557-12.991 7.98 6.551 3.276 23.381 11.884 29.752 5.04 5.056-5.431 6.421-12.514 6.421-19.508z"/></svg>