<svg xmlns="http://www.w3.org/2000/svg" width="575.91" height="398.692" viewBox="0 0 575.91 398.692"><defs><style>.a{opacity:.15}.b{fill:#2353e6}.c{fill:#fff}.d{fill:#e6e6e6}.e{fill:#ff5e25}.f{fill:#333}.g{fill:#ccc}.h,.j{fill:none;stroke-miterlimit:10}.h{stroke:#000;stroke-width:.68px;opacity:.2}.i{fill:#b3b3b3}.j{stroke:#333;stroke-width:8.093px}.k{fill:gray}.l{fill:#60e4ff;opacity:.5}.m{fill:#666}</style></defs><title>ambulance</title><path class="a" d="M572.43 378.006v20.48c-42.08-.02-86.91-.09-133.43-.09-242.46 0-439 3.01-439-10.15 0-9.67 106.12-10.61 258.6-10.43 20.61.02 42.07.07 64.23.12 37 .08 75.96.16 116.17.16 46.52 0 91.35-.07 133.43-.09z"/><rect class="b" x="526.809" y="25.731" width="50.911" height="24.225" rx="11.234" ry="11.234" transform="rotate(180 540.98 24.978)"/><path class="c" d="M572.43 73.776v-45.49c-.52-.4-1.02-.82-1.51-1.26a11.172 11.172 0 0 0-7.76-2.73H102.13a13.286 13.286 0 0 0-13.28 13.28v287.41h483.58v-2.38h3.14V73.776h-3.14zm-217.92-1.39a15.624 15.624 0 0 1 .96-5.41 15.02 15.02 0 0 1 .94-2.08c.13-.23.25-.45.39-.67a15.21 15.21 0 0 1 2.33-2.957 9.6 9.6 0 0 1 .81-.75c.2-.18.41-.36.63-.53a14.647 14.647 0 0 1 1.52-1.05 16.132 16.132 0 0 1 4.22-1.78c.01-.01.01 0 .01 0a15.847 15.847 0 0 1 3.93-.49H523.8a15.908 15.908 0 0 1 3.93.49 16.08 16.08 0 0 1 4.22 1.78 13.108 13.108 0 0 1 1.25.85 13.415 13.415 0 0 1 1.16.96 15.652 15.652 0 0 1 5.16 11.64v72.44a15.725 15.725 0 0 1-15.72 15.73H370.24a15.756 15.756 0 0 1-15.73-15.73V72.386z"/><path class="d" d="M88.854 123.828h-3.781v-30.5h3.781zM88.854 251.247h-3.781v-30.5h3.781z"/><path class="c" d="M6.49 44.076v272.3h78.58v-272.3H6.49zm8.66 34.76H76.4a3.009 3.009 0 0 1 3 3v53.5a2.913 2.913 0 0 1-.14.89 2.554 2.554 0 0 1-.22.54 3 3 0 0 1-.32.47 3.2 3.2 0 0 1-.89.74 2.656 2.656 0 0 1-.53.21 2.7 2.7 0 0 1-.9.15H15.15a3.009 3.009 0 0 1-3-3v-53.5a2.7 2.7 0 0 1 .15-.9 2.65 2.65 0 0 1 .21-.53 3.177 3.177 0 0 1 1.22-1.22 2.653 2.653 0 0 1 .53-.21 2.908 2.908 0 0 1 .89-.14z"/><path class="e" d="M6.49 73.786v69.6h78.58v-69.6H6.49zm72.55 62.98a3 3 0 0 1-.32.47 3.2 3.2 0 0 1-.89.74 2.656 2.656 0 0 1-.53.21 2.7 2.7 0 0 1-.9.15H15.15a3.009 3.009 0 0 1-3-3v-53.5a2.7 2.7 0 0 1 .15-.9 2.65 2.65 0 0 1 .21-.53 3.177 3.177 0 0 1 1.22-1.22 2.653 2.653 0 0 1 .53-.21 2.908 2.908 0 0 1 .89-.14H76.4a3.009 3.009 0 0 1 3 3v53.5a2.913 2.913 0 0 1-.14.89 2.554 2.554 0 0 1-.22.543z"/><path class="f" d="M359.73 322.605h212.7v13.72h-212.7zM97.295 336.324h125.776v-13.717H83.578a13.717 13.717 0 0 0 13.717 13.717z"/><path class="g" d="M193.313 39.539h-63.71v-1.474h63.71zM193.313 44.073h-63.71v-1.474h63.71zM193.313 48.608h-63.71v-1.474h63.71zM193.313 53.142h-63.71v-1.474h63.71z"/><path class="e" d="M539.52 73.775h36.05v69.6h-36.05zM88.854 73.777h265.659v69.601H88.854zM88.85 235.995h486.72v21.08H88.85zM88.85 263.095h486.72v8.27H88.85zM6.49 235.997h78.596v21.083H6.49zM6.49 263.093h78.595v8.271H6.49z"/><path class="h" d="M575.57 73.775V324.475M207.03 316.371h-91.144v-91.144h91.144z"/><path class="i" d="M174.631 316.372h-25.912v-3.397h25.912z"/><path class="e" d="M92.507 319.319h-3.656v-43.758h3.656a3.2 3.2 0 0 1 3.2 3.2v37.355a3.2 3.2 0 0 1-3.2 3.203z"/><path d="M356.647 337.598l-14.555-13.489-104.279 2.428-12.275 11.061s-4.3-30.362 6.617-44.1 28.7-31.546 58.521-30.343 48.512 13.328 55.286 22.508 15.541 38.986 10.685 51.935z"/><path class="j" d="M221.94 337.598s-5.425-74.457 70.268-74.457 67.24 74.457 67.24 74.457"/><ellipse class="a" cx="290.792" cy="387.461" rx="28.713" ry="4.047"/><circle class="f" cx="313.363" cy="359.653" r="54.43" transform="rotate(-23.822 241.076 400.282)"/><path class="k" d="M304.278 364.469a33.388 33.388 0 1 0-44.029-17.059 33.426 33.426 0 0 0 44.029 17.059z"/><path class="g" d="M302.644 360.763a29.341 29.341 0 1 0-38.693-14.994 29.375 29.375 0 0 0 38.693 14.994z"/><path class="i" d="M298.067 350.398a18.011 18.011 0 1 0-23.751-9.2 18.031 18.031 0 0 0 23.751 9.2z"/><path class="g" d="M296.106 345.956a13.155 13.155 0 1 0-17.348-6.721 13.17 13.17 0 0 0 17.348 6.721z"/><circle class="d" cx="313.363" cy="359.653" r="5.337" transform="rotate(-23.821 241.09 400.297)"/><circle cx="303.618" cy="337.581" r="3.147" transform="rotate(-23.822 231.332 378.21)"/><circle cx="323.108" cy="381.725" r="3.147" transform="rotate(-23.8 251 422.161)"/><circle cx="311.755" cy="335.579" r="3.147" transform="rotate(-3.62 -82.4 657.913)"/><circle cx="314.971" cy="383.727" r="3.147" transform="rotate(-3.62 -79.11 705.713)"/><circle cx="320.085" cy="336.481" r="3.147" transform="rotate(-73.821 291.673 338.64)"/><circle cx="306.64" cy="382.825" r="3.147" transform="rotate(-73.822 278.227 384.984)"/><circle cx="327.605" cy="340.177" r="3.147" transform="rotate(-53.822 290.971 349.545)"/><circle cx="299.12" cy="379.128" r="3.147" transform="rotate(-53.822 262.485 388.495)"/><circle cx="333.407" cy="346.223" r="3.147" transform="rotate(-33.822 279.8 370.473)"/><circle cx="293.318" cy="373.083" r="3.147" transform="rotate(-33.821 239.713 397.334)"/><circle cx="336.792" cy="353.889" r="3.147" transform="rotate(-13.821 219.366 434.144)"/><circle cx="289.933" cy="365.417" r="3.147" transform="rotate(-13.821 172.504 445.673)"/><circle cx="337.35" cy="362.25" r="3.147" transform="rotate(-83.822 311.732 361.957)"/><circle cx="289.375" cy="357.056" r="3.147" transform="rotate(-83.821 263.757 356.763)"/><circle cx="335.016" cy="370.297" r="3.147" transform="rotate(-63.822 303.068 375.553)"/><circle cx="291.71" cy="349.008" r="3.147" transform="rotate(-63.822 259.762 354.265)"/><circle cx="330.069" cy="377.061" r="3.147" transform="rotate(-43.821 286.799 392.254)"/><circle cx="296.656" cy="342.245" r="3.147" transform="rotate(-43.821 253.386 357.437)"/><circle cx="304.748" cy="356.315" r="2.641" transform="rotate(-68.822 274.68 359.924)"/><circle cx="321.977" cy="362.99" r="2.641" transform="rotate(-68.822 291.909 366.599)"/><circle cx="310.025" cy="368.267" r="2.641" transform="rotate(-68.822 279.957 371.876)"/><circle cx="316.7" cy="351.038" r="2.641" transform="rotate(-68.822 286.632 354.646)"/><rect class="l" x="377.086" y="82.388" width="185.009" height="103.897" rx="15.729" ry="15.729" transform="rotate(180 458.305 121.471)"/><path class="c" d="M135.56 98.462h15.782V82.68h20.233v15.782h15.781v20.233h-15.781v15.781h-20.233v-15.781H135.56V98.462z"/><ellipse class="g" cx="20.91" cy="195.159" rx="8.338" ry="7.239"/><rect class="m" x="33.493" y="219.394" width="19.443" height="2.994" rx="1.364" ry="1.364" transform="rotate(180 31.93 208.025)"/><rect class="l" x="34.726" y="104.56" width="67.251" height="59.5" rx="3" ry="3" transform="rotate(180 57.066 121.444)"/></svg>