<svg xmlns="http://www.w3.org/2000/svg" xmlns:xlink="http://www.w3.org/1999/xlink" width="1971.87" height="1374.85" viewBox="0 0 1971.87 1374.85"><defs><style>.a{fill:#fff}.b{opacity:.15}</style><symbol id="a" viewBox="0 0 107.58 107.58"><path class="a" d="M36.68 107.58a36.67 36.67 0 0 1-2.36-73.26A36.72 36.72 0 0 1 70.91 0a36.73 36.73 0 0 1 36.67 36.67 107.1 107.1 0 0 1-2.6 20 187.36 187.36 0 0 1-11.16 35.81 2.61 2.61 0 0 1-1.33 1.33A187.21 187.21 0 0 1 56.63 105a107 107 0 0 1-19.95 2.58zm0-68.12a31.45 31.45 0 1 0 0 62.9 103.6 103.6 0 0 0 18.89-2.49 183.73 183.73 0 0 0 33.88-10.43 183.83 183.83 0 0 0 10.41-33.87 103.65 103.65 0 0 0 2.49-18.9 31.45 31.45 0 0 0-62.9 0v.17a2.61 2.61 0 0 1-2.61 2.61h-.17z"/></symbol><symbol id="i" viewBox="0 0 109.92 127.79"><path class="a" d="M108.48 84.26a4.92 4.92 0 0 0-7 0l-.33.33a4.92 4.92 0 0 1-7 0A4.87 4.87 0 0 0 92 83.33l7.61-7.61a7.38 7.38 0 1 0-10.44-10.43l-1.91 1.91-27.83-27.84a22.18 22.18 0 0 0-26-3.92A7.36 7.36 0 0 0 23.17 31a3.72 3.72 0 0 0-.28-.32c-1.6-1.6-4.24-1.46-6.78.18L9 23.7a2.46 2.46 0 0 0-3.48 3.48l7.14 7.14c-1.64 2.54-1.78 5.18-.18 6.78a3.75 3.75 0 0 0 .32.28 7.36 7.36 0 0 0 4.46 10.25 22.18 22.18 0 0 0 3.92 26L49 105.47l-1.91 1.91a7.38 7.38 0 0 0 10.44 10.44l7.61-7.61a4.87 4.87 0 0 0 1.26 2.22 4.92 4.92 0 0 1 0 7 4.92 4.92 0 0 0 7 7l35.13-35.13a4.92 4.92 0 0 0-.05-7.04zM17.67 46.32a2.46 2.46 0 0 1 0-3.48l7-7a2.46 2.46 0 0 1 3.48 3.48l-7 7a2.46 2.46 0 0 1-3.48 0zm7 27.84a17.24 17.24 0 0 1 0-24.36l7-7a17.24 17.24 0 0 1 24.36 0l27.76 27.87L52.47 102zM54 114.34a2.46 2.46 0 0 1-3.48-3.48l42.13-42.09a2.46 2.46 0 0 1 3.48 3.48z"/><path class="a" d="M76.83 67.19l-3.48-3.48-3.48 3.48-3.48-3.48 3.48-3.48-3.48-3.48-3.48 3.48-3.48-3.48 3.48-3.48-3.48-3.47-3.48 3.47-3.48-3.47-3.48 3.47 3.48 3.48-3.48 3.48 3.48 3.48 3.48-3.48 3.48 3.48-3.48 3.48 3.48 3.48 3.48-3.48 3.48 3.48-3.48 3.48 3.48 3.48 3.48-3.48 3.48 3.48 3.48-3.48-3.48-3.48 3.48-3.48zM5.23 13.36c1.43-2.41 3.66-2.82 5.28-3.9 3.57-1.88 2.17-6.28 2-6.32A4.52 4.52 0 0 0 11.28 1c-1-.88-2.86-1.74-6.05.15A11.8 11.8 0 0 0 1 6.16a10.66 10.66 0 0 0-.66 6.92 10.34 10.34 0 0 0 2.24 4.28 7.77 7.77 0 0 0 1.33 1.26A10.64 10.64 0 0 1 4 16.9a9.77 9.77 0 0 1 1.23-3.54zM14.76 13.94a3.76 3.76 0 0 0 .61.58 4.94 4.94 0 0 1 .06-.8 4.48 4.48 0 0 1 .57-1.61c.65-1.11 1.68-1.3 2.42-1.79a2.31 2.31 0 0 0 .93-2.9 2 2 0 0 0-.57-1c-.45-.4-1.32-.8-2.78.07a5.43 5.43 0 0 0-2 2.31 4.89 4.89 0 0 0-.3 3.18 4.79 4.79 0 0 0 1.06 1.96z"/></symbol><symbol id="m" viewBox="0 0 118.47 82.2"><path class="a" d="M93.26 30.75a14.76 14.76 0 1 0 1.46-22.13 12.3 12.3 0 0 0-1.46 1.25c-.16.16-.31.33-.46.5-.44 0-.89-.06-1.33-.06a15.23 15.23 0 0 0-10.71 26L96.42 52a14.3 14.3 0 0 1-20.23 20.18L62.52 58.51l1-1.38a27.44 27.44 0 0 0-3-35.41L43.13 4.33A12.77 12.77 0 0 0 27 2.75l-1.58-1.59c-1.92-1.92-3.13-1.41-2.7 1.15l.78 4.62c-.86 2.58.53 4 3.11 3.11l4.63.78c2.56.43 3.07-.78 1.15-2.7L31.29 7A6.89 6.89 0 0 1 39 8.46l17.4 17.4a21.68 21.68 0 0 1-30.67 30.66L8.34 39.13A6.89 6.89 0 0 1 7 31.25l1.13 1.13c1.92 1.92 3.13 1.41 2.7-1.15S10 26.61 10 26.61c.86-2.58-.53-4-3.11-3.11l-4.62-.78c-2.56-.43-3.07.78-1.15 2.7L2.73 27A12.77 12.77 0 0 0 4.2 43.26l17.4 17.4a27.57 27.57 0 0 0 35.41 3l1.38-1L72.8 77.05l.94.75a20.2 20.2 0 0 0 12.58 4.4A20.12 20.12 0 0 0 102 49.5l-.75-.93-16.4-16.4a9.37 9.37 0 0 1 0-13.27 9.75 9.75 0 0 1 4.59-2.49 14.85 14.85 0 0 0 3.82 14.34zM100.67 11a9.84 9.84 0 1 1-3.93 16.32A10 10 0 0 1 94 18.61a9.88 9.88 0 0 1 6.67-7.61z"/><circle class="a" cx="103.7" cy="20.31" r="4.92" transform="rotate(-45 103.704 20.314)"/></symbol></defs><title>bg</title><g class="b"><use width="107.58" height="107.58" transform="matrix(.51 0 0 .51 0 617.4)" xlink:href="#a"/><use width="107.58" height="107.58" transform="matrix(.71 0 0 .71 47.42 1037.07)" xlink:href="#a"/><use width="107.58" height="107.58" transform="matrix(.53 0 0 .53 410.37 899.24)" xlink:href="#a"/><use width="107.58" height="107.58" transform="matrix(.54 0 0 .54 452.48 1198.28)" xlink:href="#a"/><use width="107.58" height="107.58" transform="matrix(.41 0 0 .41 148.9 1323.21)" xlink:href="#a"/><use width="107.58" height="107.58" transform="matrix(.55 0 0 .55 829.32 673.97)" xlink:href="#a"/><use width="107.58" height="107.58" transform="matrix(.42 0 0 .42 1034.25 1169.25)" xlink:href="#a"/><use width="107.58" height="107.58" transform="matrix(.44 0 0 .44 849.11 1104.23)" xlink:href="#a"/><use width="109.92" height="127.79" transform="matrix(.54 0 0 .54 565.37 1069.82)" xlink:href="#i"/><use width="109.92" height="127.79" transform="matrix(.45 0 0 .45 146.02 1178.1)" xlink:href="#i"/><use width="109.92" height="127.79" transform="matrix(.52 0 0 .52 104.5 791.1)" xlink:href="#i"/><use width="109.92" height="127.79" transform="matrix(.33 0 0 .33 136.5 583.31)" xlink:href="#i"/><use width="118.47" height="82.2" transform="matrix(.44 0 0 .44 821.42 1261.06)" xlink:href="#m"/><use width="118.47" height="82.2" transform="matrix(.45 0 0 .45 650.38 887.09)" xlink:href="#m"/><use width="118.47" height="82.2" transform="matrix(.57 0 0 .57 1022.41 804.91)" xlink:href="#m"/><use width="118.47" height="82.2" transform="matrix(.4 0 0 .4 406.95 667.21)" xlink:href="#m"/><use width="109.92" height="127.79" transform="matrix(.64 0 0 .64 1094.55 475.98)" xlink:href="#i"/><use width="109.92" height="127.79" transform="matrix(.64 0 0 .64 235.14 207.53)" xlink:href="#i"/><use width="109.92" height="127.79" transform="matrix(.64 0 0 .64 1137.13 24.17)" xlink:href="#i"/><use width="109.92" height="127.79" transform="matrix(.64 0 0 .64 1755.74 311.58)" xlink:href="#i"/><use width="109.92" height="127.79" transform="matrix(.64 0 0 .64 1757.26 972.02)" xlink:href="#i"/><use width="109.92" height="127.79" transform="matrix(.64 0 0 .64 1409.99 1255.89)" xlink:href="#i"/><use width="109.92" height="127.79" transform="matrix(.64 0 0 .64 1487.48 707.62)" xlink:href="#i"/><use width="118.47" height="82.2" transform="matrix(.64 0 0 .64 1314.53 812.84)" xlink:href="#m"/><use width="118.47" height="82.2" transform="matrix(.64 0 0 .64 1560.66 226.56)" xlink:href="#m"/><use width="118.47" height="82.2" transform="translate(1747.57) scale(.64)" xlink:href="#m"/><use width="118.47" height="82.2" transform="matrix(.64 0 0 .64 549.3 .18)" xlink:href="#m"/><use width="118.47" height="82.2" transform="matrix(.64 0 0 .64 87.63 84.12)" xlink:href="#m"/><use width="118.47" height="82.2" transform="matrix(.64 0 0 .64 1539.33 1017.78)" xlink:href="#m"/><use width="107.58" height="107.58" transform="matrix(.64 0 0 .64 1608.08 674.46)" xlink:href="#a"/><use width="107.58" height="107.58" transform="matrix(.64 0 0 .64 1484.76 60.94)" xlink:href="#a"/><use width="107.58" height="107.58" transform="matrix(.64 0 0 .64 1216.93 210.87)" xlink:href="#a"/><use width="107.58" height="107.58" transform="matrix(.64 0 0 .64 244.53 393.53)" xlink:href="#a"/><use width="107.58" height="107.58" transform="matrix(.64 0 0 .64 334.46 41.28)" xlink:href="#a"/><use width="107.58" height="107.58" transform="matrix(.64 0 0 .64 322.4 595.93)" xlink:href="#a"/><use width="107.58" height="107.58" transform="matrix(.64 0 0 .64 1903.55 684.64)" xlink:href="#a"/><use width="107.58" height="107.58" transform="matrix(.64 0 0 .64 1706.31 1306.53)" xlink:href="#a"/><use width="118.47" height="82.2" transform="matrix(.64 0 0 .64 1729.25 553.66)" xlink:href="#m"/></g></svg>