<svg xmlns="http://www.w3.org/2000/svg" width="743" height="401.9" viewBox="0 0 743 401.9"><defs><style>.a{fill:#302e2e}.b{fill:#333131}.c,.w{fill:#60e4ff}.c,.v{opacity:.5}.d{opacity:.25}.e{fill:#ff5e25}.aa,.ag,.f,.q,.y{fill:none;stroke-miterlimit:10}.f,.y{stroke:#000}.f,.q{stroke-width:2.27px}.af,.f,.g{opacity:.15}.h{fill:#575252}.i{fill:#1a1a1a}.af,.j,.u{fill:#fff}.j,.t{opacity:.05}.k{fill:#4d4d4d}.l{fill:#333}.m{fill:#b3b3b3}.n{fill:#999}.o{fill:#f15a24}.p{fill:#ccc}.aa,.q{stroke:#f15a24}.r{fill:#e6e6e6}.s{fill:#f2f2f2}.x{fill:#666}.y{stroke-width:2.24px}.z{fill:#f7e6b5}.aa{stroke-width:2.23px}.ab{fill:#f7d891}.ac{fill:#f79135}.ad{fill:#f5f5f5}.ae,.ah{fill:gray}.ae{opacity:.39}.ag{stroke:#333;stroke-width:10px}</style></defs><title>car</title><rect class="a" x="315.1" y="115" width="3.7" height="32.41" rx="1.7" ry="1.7" transform="rotate(171.4 319.169 101.987)"/><path class="a" d="M317.28 74.193l-7.02 1.061-.618-4.083 7.02-1.062z"/><rect class="a" x="386.3" y="96.6" width="15.7" height="21.37" rx="7.4" ry="7.4" transform="rotate(-174 392.66 78.142)"/><rect class="a" x="383.8" y="116.9" width="15.7" height="28.5" rx="7" ry="7" transform="rotate(-174 390.146 101.939)"/><rect class="a" x="518.4" y="96.6" width="15.7" height="21.37" rx="7.4" ry="7.4" transform="rotate(-174 524.671 78.143)"/><rect class="a" x="515.9" y="116.9" width="15.7" height="28.5" rx="7" ry="7" transform="rotate(-174 522.16 101.989)"/><path class="b" d="M638.1 119.5a35.7 35.7 0 0 1-6.1-5.6v-7.8-2.1-8-6.7-4.5c.1-4.1-1.2-7.3-1.9-10.4a24.4 24.4 0 0 0-2.8-5.7c-3.4.1-12.1.4-12.9 0s-37.6-37.4-37.6-37.4l5.5-2.4a2.6 2.6 0 0 0 2.4-2.9c-.1-2.6-7.1-4.5-21.1-6.6s-65.7-5.8-70.1-6-68.7-1.2-77.3-.7-38.4 3.5-52.2 7.1c-6.2 1.6-13.1 3.9-19.9 6.4a26 26 0 0 1 3.3 1.8c.5.5.7 1.3-.9 1.8s-19.9 8.7-24 10.8l-24.2 12.8-18.1 11-3.6 2.1c-1 .6-9.6 7.2-9.6 7.2h-.2v8.5c.9-1.8 4-4.2 4-4.2s4.5-3.6 9.6-7.4l6.7-4.9c1.8-1.2 3.5-2.3 4.8-3 4.6-2.6 12-7.3 17.4-10.5l4.9-2.7c4.3-2 25-12.9 38-17.1s34.1-9.4 43.4-9.9 26.4-.9 26.4-.9l-15 54.6-7.9.5-15.9 1.1-63 4.2-3.7.3-10 .7h-.3s-12.4 1.3-25.3 1.5h-9.8l-2.6-.2-1.2-.2-.5-.3V185h4.6l245-4.5v-2l4.9-.2 7.4-.3h.6l5-.2 13.9-.5 8.1-.3h6.1l8.6-.3h6l8.2-.3 13.8-.5 5-.2h.6l7.4-.3 4.8-.2v1.4c8.5.3 15.6-3.7 20.2-6.6s5-9.1 5-9.1.6-33.2.6-35.7-1.8-4-4.5-5.7zm-107-95c4.2.5 21.6 16.1 25.5 19.3s6.3 6.8 6.3 6.8v1.8a10 10 0 0 1-.7 3.1l-.3.6-.3.6-.9 1.3-.9 1.1-.5.5-.5.5-1.2 1-.5.4a25.2 25.2 0 0 1-3.6 2l-.7.3-.8.3-.7.3-.5.2a53.9 53.9 0 0 1-5.5 1.7l-5.4 1.1h-2.4l-1.9.2-2.5.2h-3.9l-12.7.9h-.3l-3.5.2-18.8 1.2h-1.7l-3.6.2h-1.8l-2.4.2h-3.6l-20.6 1.2h-2l-3.6.2h-1.4l-9.3.5h-3.4l-3.2.2H434l3-51s89.9 2.4 94.1 2.9z"/><path class="c" d="M576.7 31.1s36.7 36.8 37.6 37.4 9.5.2 12.9.1a63.1 63.1 0 0 0-9.4-11.9c-6.3-6.1-35.1-27.6-35.6-28zM562.8 50.7s-1-3-6.3-6.8-21.2-18.8-25.5-19.3-94-3-94-3l-3.3 52.9s98.7-5.7 105.8-6.9 24.5-4.9 23.3-16.9zM422 21.6l-15 54.6-7.9.5-15.9 1.1-63 4.2-3.7.3-10 .7h-.3s-13.5 1.5-27 1.5c-3.7 0-7.3 0-10.7-.3a2.5 2.5 0 0 1-1.7-.5 1.2 1.2 0 0 1 0-1.5c.9-1.8 4-4.2 4-4.2s9.3-7.5 16.3-12.3c1.8-1.2 3.5-2.3 4.8-3 4.6-2.6 12-7.3 17.4-10.5l4.9-2.7c4.3-2 25-12.9 38-17.1s34.1-9.4 43.4-9.9 26.4-.9 26.4-.9z"/><g class="d"><path d="M350.3 57.6v-.3a4.7 4.7 0 0 1 1.3 1zM357.3 55.1a1.5 1.5 0 0 0 .8.7 6 6 0 0 1-3.6 0 3.7 3.7 0 0 0 2.8-.7z"/><path d="M354.6 55.8h-2.8a5.9 5.9 0 0 1 2.8 0zM368.5 65.6c.1 2.5-2.5 2.4-3.3 4.5l-1.2-.8a5 5 0 0 0 4.5-3.7zM349.1 56.8a3.5 3.5 0 0 1 2.7-1.1 2.3 2.3 0 0 0-1.5 1.6zM354.1 64.5l.2.4c1.9.8 4.1 2.8 5.7 2.8-3.9.8-5.2-.9-5.9-3.2zM365.2 70.1a65.8 65.8 0 0 1 6.8 5.7zM353.3 61.8c.3.9.5 1.8.8 2.7a12.1 12.1 0 0 1-.8-2.7zM360 67.6a13.9 13.9 0 0 1 4 1.7 4.7 4.7 0 0 1-4-1.7zM358.1 52.3v-.5a1.1 1.1 0 0 1 0 .5zM358.1 52.3a3.6 3.6 0 0 1-.8 2.8c-.3-.8.7-1.9.8-2.8zM351.6 58.3c1.1.9 1.4 2.1 1.7 3.5a8.9 8.9 0 0 0-1.7-3.5zM384.7 63.8l-4-.8a9.1 9.1 0 0 1 4 .8zM379.2 63.6l-3.3-1a23.5 23.5 0 0 1 4.8.5 3.2 3.2 0 0 0-1.5.5zM371.2 63.8l.4-.3c1.2-1.3 2.7-1.3 4.3-.9a9.5 9.5 0 0 0-4.7 1.2zM371.2 63.8l-1.8 1.5a8.3 8.3 0 0 1 1.8-1.5zM384.7 63.8l3.1.5c-.5.6-1.7.1-3.1-.5zM389.122 63.733l.671-.198.255.864-.672.197zM392.2 62.6l1.8-1.7-.4.8-1.4.9zM393.1 53.9l1.2-1.6-.7 1.4-.5.2zM342.2 56.5a4.6 4.6 0 0 0-.6-1.4l.2.3c1.5.3 3.9 2.8 5.1 3.3-1.9.4-2.5-2.6-4.7-2.2zM341.6 55.1l-1.2-1.3a4.2 4.2 0 0 1 1.2 1.3zM347 58.7l.7-.3a.5.5 0 0 1-.7.3zM333.8 50.7a14.8 14.8 0 0 1 6.6 3.1c-1.8-1.2-4.6-1.4-6.6-3.1zM329 50.6c1.5-.2 3.4-.8 4.6 0h.1a10.8 10.8 0 0 0-4.6 0h-.1zM326.5 49.4l2.5 1.2c-1.2.2-2.2.1-2.5-1.2zM363.2 53.8l1.6-4 .3 1.1c-.6.9-.9 2.4-1.9 2.9zM319.3 48l1.9.2-1 .3-.9-.5z"/></g><path class="c" d="M346.5 29.6c-1.6.5-19.9 8.7-24 10.8l-24.2 12.8-21.7 13.1c-1 .6-9.6 7.2-9.6 7.2h-.2v-6.9c15.2-8.9 46.2-27.2 54.8-31.4 6.1-3 14.1-6.4 22.4-9.5a26 26 0 0 1 3.3 1.8c.6.9.8 1.7-.8 2.1z"/><path class="e" d="M622 103.7c2.4 2.5 4.6 2.7 10 2.5V96.1v-6.7-4.5c.1-4.1-1.2-7.3-1.9-10.4-4-.2-9-.4-10.2-.2s-6.1.9-6.5 5.6 6 21.1 8.6 23.8z"/><path class="b" d="M437 21.6l-3.2 53-26.7 1.6L422 21.6h15z"/><path class="a" d="M309.3 52.3v21.4l-1.4 4.7-1.4 4.6h-.3s-13.5 1.5-27 1.5c-3.7 0-7.3 0-10.7-.3a2.5 2.5 0 0 1-1.7-.5 1.2 1.2 0 0 1 0-1.5c.9-1.8 4-4.2 4-4.2s9.3-7.5 16.3-12.3c1.8-1.2 3.5-2.3 4.8-3 4.6-2.5 12-7.2 17.4-10.4z"/><path class="b" d="M315.1 69.6s-.2-4.4-5.5-4.6-8.5-.1-11.7 1.1-6.8 3.9-7 7.6 3.3 6.7 9.6 6.7 14.4-5.5 14.6-10.8z"/><path class="f" d="M429.7 21.6c-10.5 47.9-15.1 102.2-10.1 151.2"/><ellipse class="g" cx="522.6" cy="89.6" rx="9.7" ry="8.4"/><path d="M536.5 91.5a3 3 0 0 0-3.3-2.8c-3.2 0-20.1.7-20.1.7s-4 .8-3.8 3.2z" class="g"/><path class="h" d="M536.5 89.2a3 3 0 0 0-3.3-2.8c-3.2 0-20.1.7-20.1.7s-4 .8-3.8 3.2z"/><ellipse class="g" cx="392.7" cy="98" rx="9.7" ry="8.4"/><path d="M406.7 99.9a3 3 0 0 0-3.3-2.8c-3.2 0-20.1.7-20.1.7s-4 .8-3.8 3.2z" class="g"/><path class="h" d="M406.7 97.6a3 3 0 0 0-3.3-2.8c-3.2 0-20.1.7-20.1.7s-4 .8-3.8 3.2z"/><path class="f" d="M545 66.5c1.4 3.5 2.9 6.9 3 10.7a43.5 43.5 0 0 1-.4 8.3 55 55 0 0 1-1.8 6.5 67.7 67.7 0 0 1-4.2 11.8c-2.1 4.1-4.3 8.2-6.6 12.2s-6.1 10.4-9.4 15.6-7.6 12-11.7 17.7-8.6 10.9-13.1 16.1a15.4 15.4 0 0 1-10.3 5.5h-3.3l-27.3.8-48.5 1.5-55.4 1.9-48.4 1.5-27.1.8a5.3 5.3 0 0 1-1.8.1 3 3 0 0 1-.4-1.4c-.6-2.9-1.2-5.7-1.7-8.6a155.4 155.4 0 0 1-1.5-15.5c-.4-5.5-.7-11-.9-16.6-.2-9.6.5-19.3 1.2-28.9a121 121 0 0 1 2.1-14.3 65 65 0 0 1 3.8-13.1c1.9-4.4 3.8-8.9 5.9-13.2"/><path class="i" d="M617 174.8s2-51.6-51.6-52-48.9 55.6-48.9 55.6z"/><path class="j" d="M642.9 124.8c0 2.5-.6 35.7-.6 35.7s-.4 6.2-5 9.1-11.7 6.9-20.2 6.6v-1.4l-4.8.2-7.4.3h-.6l-5 .2-13.8.5-8.2.3h-6l-8.6.3h-6.1l-8.1.3-13.9.5-5 .2h-.6l-7.4.3-4.9.2v2l-249.5 4.6v-77.4l8.5-1.5c41-7.1 75.2-11.2 109.6-12.8l15-.6 19.3-.3c29.1-.2 59.9 1.1 96.4 3.4l12.8.8 15.8 1.1c23.3 1.6 48.8 3.6 77.5 5.8l10.3.8v9.9a35.7 35.7 0 0 0 6.1 5.6c2.3 1.7 4.4 2.8 4.4 5.3z"/><circle class="k" cx="566.7" cy="172.8" r="45.6"/><path class="l" d="M566.7 210.4a37.6 37.6 0 1 0-37.6-37.6 37.6 37.6 0 0 0 37.6 37.6z"/><path class="m" d="M563.8 191.4a18.9 18.9 0 1 0-15.7-21.6 18.9 18.9 0 0 0 15.7 21.6z"/><circle class="n" cx="568.9" cy="217.3" r="2" transform="rotate(-81 534.72 188.087)"/><circle class="n" cx="564.5" cy="245.2" r="2" transform="rotate(-81 530.36 215.952)"/><circle class="n" cx="576.7" cy="221.3" r="2" transform="rotate(-45 506.234 192.011)"/><circle class="n" cx="556.7" cy="241.2" r="2" transform="rotate(-45 486.215 212.003)"/><circle class="n" cx="580.7" cy="229" r="2" transform="rotate(-9 209.915 199.984)"/><circle class="n" cx="552.8" cy="233.4" r="2" transform="rotate(-9 181.46 204.137)"/><circle class="n" cx="579.3" cy="237.6" r="2" transform="rotate(-63 531.656 208.404)"/><circle class="n" cx="554.1" cy="224.8" r="2" transform="rotate(-63 506.518 195.58)"/><circle class="n" cx="573.1" cy="243.8" r="2" transform="rotate(-27 451.577 214.584)"/><circle class="n" cx="560.3" cy="218.7" r="2" transform="rotate(-27 438.666 189.457)"/><path class="o" d="M570.3 150l-1 6.5a16.5 16.5 0 0 0-18.9 13.7l-6.5-1a23.2 23.2 0 0 1 26.4-19.2z"/><path class="p" d="M566.7 135.2a37.6 37.6 0 0 0-37.6 37.6 38.9 38.9 0 0 0 .2 3.9l.2 1.3.2 1.5v.3l.3 1.5.4 1.7.4 1.4v.3l.5 1.4.6 1.6.6 1.3.2.3.7 1.3.8 1.4.8 1.3 1 1.4 1 1.3 1.1 1.3 1.1 1.2 1 1a37.6 37.6 0 0 0 8.9 6.4l.6.3 2 .9.8.3 2.7 1 1.6.4.9.2.8.2a37.6 37.6 0 0 0 7.8.8l3.7-.2h1.8a37 37 0 0 0 7-1.7l.8-.3 1.6-.7.8-.4.9-.4 1.3-.7.9-.5 1.5-.9 2.8-2 .7-.5.6-.5 2-1.8.6-.6 1.2-1.3 1.1-1.3.5-.7.5-.7.5-.7.5-.7.5-.7.5-.7.9-1.5.8-1.5a36.7 36.7 0 0 0 1.6-4v-.2l.5-1.6.2-.8.2-.9.4-1.7.2-.9.3-1.8c.1-.6.1-1.2.2-1.8s0-.7.1-1.1a.9.9 0 0 0 0-.2v-1.2a37.6 37.6 0 0 0-37.3-37.6zm2.8 9.6c.2-2.1 3.5-3.9 6-3.3a31.9 31.9 0 0 1 18.2 13.2c1.4 2.3.6 5.9-1.3 6.8l-6.2 3-2.2 1a11.7 11.7 0 0 1-15.5-8.6v-.5a13.7 13.7 0 0 1 .1-4.8l.3-1.8c.3-1.8.5-3.4.7-5zm-29.9 9.9a31.9 31.9 0 0 1 18.2-13.2c2.6-.6 5.8 1.2 6 3.3s.4 3.2.7 5l.3 1.8a13.7 13.7 0 0 1 .1 4.8 11.7 11.7 0 0 1-8.8 9.4 11.6 11.6 0 0 1-4 .3h-.5l-2.3-.6-2.2-1-1.6-.8-4.5-2.2c-1.9-.9-2.7-4.5-1.3-6.8zm8.3 39.1c-1.4 1.6-5.1 1.2-6.8-.8a31.9 31.9 0 0 1-6.6-15.1 30.9 30.9 0 0 1-.3-6.2c.2-2.7 3-5.2 5-4.7l4.9.9 1.8.3 2.3.5 2.2.9a11.8 11.8 0 0 1 3.8 17.6 13.5 13.5 0 0 1-1.6 1.8c-1.6 1.6-3.2 3.2-4.6 4.8zm30 9.6a31.9 31.9 0 0 1-22.5 0c-2.5-1-4-4.4-2.9-6.2s2.1-3.9 3.2-6.1a13.2 13.2 0 0 1 1.2-2.1 11.7 11.7 0 0 1 14.2-4.2 11.4 11.4 0 0 1 3.4 2.1 11.6 11.6 0 0 1 1.9 2.1 13.2 13.2 0 0 1 1.2 2.1c1.1 2.2 2.2 4.3 3.2 6.1s-.4 5.1-2.8 6.1zm14.3-10.4c-1.7 2-5.5 2.4-6.8.8s-3-3.2-4.8-4.9a13.5 13.5 0 0 1-1.6-1.8 11.7 11.7 0 0 1 3.4-17.4 12.1 12.1 0 0 1 2.6-1.1l2.4-.5 6.8-1.2c2-.5 4.8 2 5 4.7a30.1 30.1 0 0 1-.1 3.9 31.9 31.9 0 0 1-6.8 17.4z"/><circle class="q" cx="566.7" cy="172.8" r="38.2"/><path class="o" d="M566.7 168.8a4 4 0 1 1-4 4 4 4 0 0 1 4-4m0-3.4a7.4 7.4 0 1 0 7.4 7.4 7.4 7.4 0 0 0-7.4-7.4z"/><circle class="k" cx="566.7" cy="172.8" r="5.8"/><circle class="r" cx="566.7" cy="172.8" r="2.5"/><path class="f" d="M266.9 83.7s-24.1 10.9-95.9 24.6"/><path class="s" d="M628.7 92.7a3.4 3.4 0 0 0 3.3 3.4v-6.7a3.4 3.4 0 0 0-3.3 3.3z"/><path class="b" d="M284.6 177.4v-2.3h.3l-.3-1.2-2.5-64.7v-1.6l.3-.7-.3-.8v-1.2l-.7-18v-1.3l.2-.3.5-.6-.7.3-.4.2-1.7.8h-.1l-8.5 4 .8-5.5v-2.7l.7-4.4 3.6-1.7 2-.9 2.6-1.2v-9.2h-3l-9.1 8.2h-1.2l-1.8-.2-.5-.9-3-4.8L259 74l-.3.7-.4 1.1-.6 7.1-14.9-16.8-12.6 3.2-9.1 17.4-13.4-1.2-11.5 6.4-15.8-10.5-5.4 22.3-11.7 2.3-14-2.6-8.4 5.1-4.3 4.9-2.1 2.3-1-.8-6.2-4.8-5.1 10.1-2.2 6.9 5.6 1.2-10.1 3 2.8 2.7 5.7 5.4-2.8 2.4 5.7 12.3 1 12.1-4.9 12.5 1 1.5.7.7 10.9 10.3 5.8-7.6 6.7-8.7 7.3 10.3 4.4 6.1 12.1-10.3v-.7l-.5-8.1.7.8 9.3 10.3.8.9 3.4 3.8 6.1.8 7.3.9.8-.5.4-.2 4.7-2.7.3-.2 3.2-1.8 4.3-2.5 3.7 1.2 1.9.7 1 .3.7.3h.3l6 2h.7l7.1-.3 5.6-.3 6.3-1.2 1.6-.3 5.7-1.1.6-.2 2-.7.5-.2.6-.2 4.5-1.6 3-1.1 1.7-.6.6-.2h.5l-.4 6.8-.2 4.2 4.7-4.3 4.2-3.9 4-3.6 3.8 3 1.3 1.1v-4.1z"/><g class="t"><path class="u" d="M284.6 177.4l.1 2.3-1.3.8-3.6 2.3-4.1-1.7-8.5-3.5v.7l-.2 3.6-.8-.2-1.6-.4-3.1-.9-4.7-1.4-.6-.2-.4-.1-2.4-.7-6 5.5-.3.2-1.1 1.1-6.4 5.8-5.5-4.4-1.8-1.4-1.7-1.3-.4-.3-2-1.6-.6-.4-1.3-1.1-3.2 1.5-2.3 1.1-1.2.6-1.3.6-.7.3-.7.3-4.3 2.1-7.4-.3h-.5l-5.6-.2-2.2-.5-.6-.1-.6-.2-5.2-1.2h-.1l-1.1-.3-3.7-.9-2.5 1.1-1 .4-9.6 4.1-.7-7.8v-.2l-11.8 3.3-4.6 1.6-7.6 2.8-6.4-4.3-5.5-3.7-11.2.9-.8.1-10.7-2.3 6.4-12.2-6.8-12.3 4.7-13.2.7-7.1.4-3.3 17.3 11.2 12.7-1.4 10.8-9.4 12.3-3.1 12.6-1.7 7.3 2.5 6.7 2.3 12.4-2.6 2.6-4.9 6.7-12.3 11.9-5 13.9 4.6 13.8 4.7 11.9-5.3 9.7-1.3.7-.1 2.6 64.8.3 1.2-.3.1.1 2.3z"/></g><g class="v"><path class="w" d="M281.2 85.2l-.2.2.1 1.3-.9-.3-1.4-.5-4.4-1.5-3-1-.4-.1-.3-.1.5-.5.3-.3 3.1-2.9 3.3-4.7 1.5-2.3 1-1.4.1.5v1.9l.5 11.4.7-.3-.5.6z"/></g><g class="v"><path class="w" d="M258.7 73.7l.9.2-1.2.5-.1.1-.6-1 1 .2zM280.3 67l-1.2.6-10.7 5.1-3.3 2.5-5.5-1.3 2.2-.8 2.7-1.9 7.1-5 8.4-5.8.2 3.8.1 2.8z"/></g><path class="x" d="M281.7 84.6l-.5.6-.2-.1h-.4l-6.2-.7-3.1-.3-.6-.1.3-.7.2-.6.4-1 1.4-3.5 2.9-2.5 3.5-3.2 1.1-.9v1.9l.5 11.4.7-.3z"/><g class="g"><path class="y" d="M281.7 84.6l-.5.6-.2.2-.8 1-4.2 5.1 5.8 14.4.3.8-.2.7-.7 1.7-4.4 11.7-4.9 14.6 8.7 16.2 2 15.1 1.9 7.1.3 1.2-.3.1-3.9 2.1 1.7 1.1 2.3-.9"/></g><path class="z" d="M126.5 129.6l4.9 1 13.7-.1 13.8-.6 9.1-9 7.9-10.2-4.9-5.1-18.5 1.6-9.8 3.2-9.3 4.6-5.3 9.1-1.6 5.5z"/><path class="i" d="M266.2 182.5l.1-11.1-2.5-12.4-4.5-11.7-5.8-11.3-10.8-6.7-12.1-3.2-12.5-3-12.5 1.5-12.5 2.6-8.5 9.5-6.4 10.1-7.3 10.7.9 12.7.7 11.2 13.1 3.2 13.5-1.4 13.5 1.9 13.6-1.8 13.5.5 13.6-.6 12.9-.7z"/><path class="k" d="M190.2 185.9l5.4 11.8 10.4 7.8 9.8 8.1 11.6 6.1 13.3-.6 12.7-4 9.2-11 2.1-13.9-.2-13.9-4.1-13.4-9.1-10.8-8.3-7.9-8.8-7.6-11.1-3.5-11.5-.8-11.6 1.1-8.9 8.1-6.1 10.2-1.9 11.8 2.7 11.6 4.4 10.8z"/><path class="l" d="M247 205.5l8.7-11.4.2-13.9-1.6-13.8-7.2-12.1-8.3-9.2-11.7-4-11.4-3-12 1.2-9.4 8.1-4.1 11.7 2.4 12 2.2 12.2 8.4 9.2 8.9 8.2 10.6 6 12.2 2.4 12.1-3.6z"/><path class="m" d="M231.4 186.1l7.2-9.8-2.6-12.4-8.8-9.3-12.7-3-7.6 9.1.9 11.9 9.3 11.6 14.3 1.9z"/><path class="n" d="M215.1 156.4l2.2 1.2.7-2.1-2.3-1.2-.6 2.1zM227.4 182l2.7 1.4.6-2.5-2.6-1.5-.7 2.6zM222 155.7l1.5 2.3 1.9-1-1.6-2.3-1.8 1zM219.3 180.2l1.7 2.8 2.1-1.3-1.7-2.7-2.1 1.2zM229.2 159.7l.2 2.4 2.5.6-.2-2.6-2.5-.4zM212.7 173.7v2.8l2.6.5-.1-2.7-2.5-.6zM234.2 167l-1.4 1.7 2.3 2 1.3-1.8-2.2-1.9zM210.1 165.4l-1.4 1.8 2 2 1.5-1.8-2.1-2zM235 175l-2.5.4 1.1 2.8 2.4-.3-1-2.9zM212.2 158.6l-2.3.3.9 2.5 2.3-.2-.9-2.6z"/><path class="o" d="M213.1 149.2l.1-.5 2.4 5.2h-.1l-7.1 7.6 1.6 10.6-5.4 1.4-1.7-14.5 10.2-9.8z"/><path class="p" d="M256.2 178.8l-.7-2.8-2.3-9.1-4.2-9-.9-2.1-.7-1.5-.7-.5-4.1-3-5-3.7-4.9-4-3.2-2.6h-.1l-1.4-1.1-12.2-2.2-6.6 1.7-5 1.3-9.5 7.5-4.2 11.6v1.3l.7 10.8 2 7.3v.3l1.2 4.4.2.2 1.6 1.8 3.5 4 3 3.4 8.2 9.4 11.6 4.5 2.7.6 9.6 2.3 4.5-2 3.5-1.5 3.5-1.5 9.1-10.4h.2l.6-11.1v-2.8zm-22.3-21.5l2.4-4.5 5.7 3.2 7.2 8.7 2.3 11.1-3.8 4-6.3-2.8-3.3-2.7-6.6-5.5 1.6-7.8zm-17.8 39.5l-9.5-7.6-1.8-2.7v-.2l-1.7-2.6-3.1-4.7-.2-6.9 4.6-1.3.8-.2 2.6 1.2 1.2.6 3.8 1.8 2.5 1.2 2 .9 2.3 7 .3.9v.3l1.3 3.8.3 7.2zm-21.8-34l7.5-15.3 3.4.4 4.4 4.3v.2l1.1 3.5.7 2.2.2.5.8 2.5.4 1.1-3.9 2.2-1.6.9-2.6 1.4h-.8l-5.2.9zm38.4-12.8l-2.5 4.2-2.3 1.2-2.7 1.4-1.8 1-2.8 1.5-2.7-3.4-.6-.7-2.7-3.5-1.1-1.4-.7-.7-3.7-3.7 3.2-4 17.8 2.6zm9.3 48.3l-9 3.6-5.1-5.1-1.6-7.7.7-2.5.2-1 .5-2.1.2-1.1.2-.7.4-1.9.4-1.7 7.3 1.3 4.4.8 6 3.3.4.2.3.2v.6l1.6 7.3z"/><path class="aa" d="M194.4 183.5l7.3 10.4 9 9.2 12.1 4.1 12.2 1 11.9-2.9 9.5-10.7.7-14.2-2.6-13.9-7.6-11.9-9.2-8.2-9.9-7.2-12.2-1-11.6 1.9-9.2 7.6-3.4 11.5-.1 12.1 3.1 12.2z"/><path class="o" d="M218.5 162l-1.2 8.9 9.4 3.5.6-9zm2.5 6.7l.3-2 2.5 1v2z"/><path class="k" d="M218.4 170.3l7.3 2.6.6-7-7.1-2.9-.8 7.3z"/><path class="r" d="M223.8 170.1l.3-3-2.9-1.1-.4 2.9 3 1.2z"/><g class="g"><path class="y" d="M268.8 83.3l-10.9 5.3-11.8 2.9-11.7 2.8-11.2 5.1-12.4.2-11.2 5.1-12.3.4-11.5 3.7"/></g><path class="ab" d="M149.2 120.3l3.2 6.8 3.3-6.8-3.3-6.8-3.2 6.8z"/><path class="ac" d="M140.4 166.8h8.8l3.1-3.2.2-.1-3.3-3.5-8.8.2-3.2 3.3.1.1 3.1 3.2z"/><path class="ad" d="M24.2 0H0v257.8h38.1V13.9A13.9 13.9 0 0 0 24.2 0z"/><path class="ae" d="M0 26.5h27.3v2.96H0z"/><path class="r" d="M0 29.5h27.3v2.96H0z"/><path class="ae" d="M0 38.6h27.3v2.95H0z"/><path class="r" d="M0 41.5h27.3v2.96H0z"/><path class="ae" d="M0 50.6h27.3v2.96H0z"/><path class="r" d="M0 53.6h27.3v2.96H0z"/><path class="ae" d="M0 62.7h27.3v2.96H0z"/><path class="r" d="M0 65.6h27.3v2.96H0z"/><path class="ae" d="M0 74.7h27.3v2.96H0z"/><path class="r" d="M0 77.7h27.3v2.96H0z"/><rect x="241.4" y="300.6" width="130.5" height="25.25" rx="3.6" ry="3.6"/><path d="M160 236.3v95.6H65.5s-8.8-3.1-25.2-5.9l-5-.8-3.9-.5-6.4-.8-4-.4-6.3-.5-7.2-.5h-1l-3.2-.2H0v-86h160z"/><rect class="e" x="713.2" y="235.2" width="15" height="17.87" rx="3" ry="3"/><path d="M721.3 233.7H95.7v77.9h327l24.2 5 177.4-2.5-3.3-27.9 24.7-13.5h20.8l39.1 24.8.1 29.2 15.6 15.8V233.7z"/><path class="l" d="M39.3 215.7v25.9H0v-25.9h39.3z"/><path d="M455.3 331.8l18-16.7 128.8 3 15.2 13.7s5.3-37.5-8.2-54.5-35.5-39-72.3-37.5-59.9 16.5-68.3 27.8-19.2 48.2-13.2 64.2z"/><path class="l" d="M59.6 218.7h661.7v18H59.6z"/><rect class="ac" x="92.9" y="279.3" width="7.1" height="13.61" rx="1.8" ry="1.8" transform="rotate(-90 67.25 256.85)"/><rect class="ac" x="680.9" y="279.3" width="7.1" height="13.61" rx="1.8" ry="1.8" transform="rotate(-90 655.25 256.85)"/><rect class="ac" x="386.9" y="279.3" width="7.1" height="13.61" rx="1.8" ry="1.8" transform="rotate(-90 361.25 256.85)"/><rect class="l" x="81.8" y="243" width="79.3" height="93.33" rx="6.4" ry="6.4"/><path class="af" d="M154.7 243H88.2a6.4 6.4 0 0 0-6.4 6.4v2a6.4 6.4 0 0 1 6.4-6.4h66.5a6.4 6.4 0 0 1 6.4 6.4v-2a6.4 6.4 0 0 0-6.4-6.4z"/><path class="k" d="M221.6 236.7h8v74.96h-8zM383.6 236.7h8v74.96h-8z"/><circle class="l" cx="260.1" cy="277.8" r="10.5"/><circle class="l" cx="353.1" cy="277.8" r="10.5"/><path class="x" d="M182.5 258.3h248.3v10.25H182.5zM182.5 287.3h248.3v10.25H182.5z"/><path class="ag" d="M621.7 331.8s6.7-92-86.8-92-83.1 92-83.1 92"/><path class="g" d="M743 391.5c0 12-214.8 10.1-479.8 10.1-97.2 0-187.6.4-263.2.3v-20.8h39.4c66.8 0 143 .3 223.8.3 84.7 0 164.3-.2 233.4 0l79.7.4c102.1.7 166.7 3.1 166.7 9.7z"/><path class="g" d="M34.8 393.4c0 2.7-15.5 5-34.8 5v-10a189.3 189.3 0 0 1 23.8 1.4c6.8.9 11 2.2 11 3.6z"/><path class="l" d="M66.3 327.3c0 1.6 0 3.1-.2 4.6A67.1 67.1 0 0 1 39.4 381a67.1 67.1 0 0 1-15.6 8.8A66.9 66.9 0 0 1 0 394.5V260a67.3 67.3 0 0 1 66.3 67.3z"/><path class="ah" d="M40.3 327.3A41.3 41.3 0 0 1 0 368.5V286a41.3 41.3 0 0 1 40.2 40c.1.4.1.9.1 1.3z"/><path class="p" d="M35.3 327.3A36.3 36.3 0 0 1 0 363.5V291a36.3 36.3 0 0 1 35.2 34.2c0 .7.1 1.4.1 2.1z"/><path class="m" d="M21.3 327.3A22.3 22.3 0 0 1 0 349.5v-44.4a22.3 22.3 0 0 1 20.9 18.4 21.6 21.6 0 0 1 .4 3.8z"/><path class="p" d="M15.3 327.3A16.3 16.3 0 0 1 0 343.5v-32.4A16.3 16.3 0 0 1 14.7 323a16 16 0 0 1 .6 4.3z"/><path class="r" d="M5.6 327.3a6.6 6.6 0 0 1-5.6 6.5v-13a6.5 6.5 0 0 1 3.2 1.5 6.5 6.5 0 0 1 2.4 5z"/><path d="M2.9 297.5a3.9 3.9 0 0 1-2.9 3.7v-7.5a3.9 3.9 0 0 1 2.9 3.8zM2.9 357.1a3.9 3.9 0 0 1-2.9 3.7v-7.5a3.9 3.9 0 0 1 2.9 3.8z"/><circle cx="9.2" cy="413.7" r="3.9" transform="rotate(-20 -156.37 384.392)"/><circle cx="18.2" cy="408.5" r="3.9" transform="rotate(-40 -61.974 379.287)"/><circle cx="24.8" cy="400.6" r="3.9" transform="rotate(-60 -25.741 371.385)"/><circle cx="28.4" cy="390.9" r="3.9" transform="rotate(-80.2 -6.961 363)"/><circle cx="28.4" cy="380.5" r="3.9" transform="rotate(-10 -305.407 351.056)"/><circle cx="24.8" cy="370.8" r="3.9" transform="rotate(-30 -84.146 341.653)"/><circle cx="18.2" cy="362.8" r="3.9" transform="rotate(-50 -44.501 333.667)"/><circle cx="9.2" cy="357.7" r="3.9" transform="rotate(-70 -32.468 328.444)"/><circle cx="7.1" cy="377.6" r="3.3" transform="rotate(-45 -63.403 348.363)"/><circle cx="7.1" cy="393.8" r="3.3" transform="rotate(-45 -63.48 364.594)"/><ellipse class="g" cx="536.7" cy="393.4" rx="35.5" ry="5"/><circle class="l" cx="536.7" cy="327.3" r="67.3"/><path class="ah" d="M536.7 368.5a41.3 41.3 0 1 1 41.3-41.3 41.3 41.3 0 0 1-41.3 41.3z"/><path class="p" d="M536.7 363.5a36.3 36.3 0 1 1 36.3-36.3 36.3 36.3 0 0 1-36.3 36.3z"/><path class="m" d="M536.7 349.5a22.3 22.3 0 1 1 22.3-22.3 22.3 22.3 0 0 1-22.3 22.3z"/><path class="p" d="M536.7 343.5a16.3 16.3 0 1 1 16.3-16.3 16.3 16.3 0 0 1-16.3 16.3z"/><circle class="r" cx="536.7" cy="327.3" r="6.6"/><circle cx="536.7" cy="297.5" r="3.9"/><circle cx="536.7" cy="357.1" r="3.9"/><circle cx="526.5" cy="357.7" r="3.9" transform="rotate(-20 360.764 328.51)"/><circle cx="546.9" cy="413.7" r="3.9" transform="rotate(-20 381.304 384.467)"/><circle cx="517.5" cy="362.8" r="3.9" transform="rotate(-40 437.21 333.683)"/><circle cx="555.8" cy="408.5" r="3.9" transform="rotate(-40 475.503 379.358)"/><circle cx="510.8" cy="370.8" r="3.9" transform="rotate(-60 460.265 341.598)"/><circle cx="562.5" cy="400.6" r="3.9" transform="rotate(-60 511.88 371.398)"/><circle cx="507.3" cy="380.5" r="3.9" transform="rotate(-80 472.495 351.283)"/><circle cx="566" cy="390.9" r="3.9" transform="rotate(-80 531.21 361.661)"/><circle cx="507.3" cy="390.9" r="3.9" transform="rotate(-10 173.355 361.845)"/><circle cx="566" cy="380.5" r="3.9" transform="rotate(-10 232.427 351.464)"/><circle cx="510.8" cy="400.6" r="3.9" transform="rotate(-30 401.863 371.479)"/><circle cx="562.5" cy="370.8" r="3.9" transform="rotate(-30 453.492 341.513)"/><circle cx="517.5" cy="408.5" r="3.9" transform="rotate(-50 454.92 379.356)"/><circle cx="555.8" cy="362.8" r="3.9" transform="rotate(-50 493.21 333.637)"/><circle cx="526.5" cy="413.7" r="3.9" transform="rotate(-70 484.771 384.455)"/><circle cx="546.9" cy="357.7" r="3.9" transform="rotate(-70 505.132 328.476)"/><circle cx="544.7" cy="377.6" r="3.3" transform="rotate(-45 474.239 348.464)"/><circle cx="528.6" cy="393.8" r="3.3" transform="rotate(-45 458.1 364.548)"/><circle cx="544.7" cy="393.8" r="3.3" transform="rotate(-45 474.212 364.575)"/><circle cx="528.6" cy="377.6" r="3.3" transform="rotate(-45 458.127 348.437)"/><path class="l" d="M534.6 205l23 14.1h-23V205zM599 205l-23 14.1h23V205zM203.2 205l23 14.1h-23V205zM267.7 205l-23 14.1h23V205z"/></svg>