<svg xmlns="http://www.w3.org/2000/svg" width="567.781" height="303.607" viewBox="0 0 567.781 303.607"><defs><style>.a{opacity:.5}.b{fill:#60e4ff}.c,.e,.h,.p,.q,.r{fill:none;stroke-miterlimit:10}.c{stroke:#1c326b}.c,.e,.h{stroke-width:12.04px}.d{fill:#1c326b}.e{stroke:#213a7c}.f{fill:#213a7c}.g{fill:#f9b578}.h{stroke:#ffbf65;stroke-linecap:round}.i{fill:#ffbf65}.j{fill:#ffd1a4}.k{fill:#f58f00}.l{fill:#ffc687}.m{fill:#ffaf73}.n{fill:#333}.o{fill:#fff}.p{stroke:#ffaf73;stroke-width:1.19px}.q{stroke:#534741;stroke-width:1.27px}.r{stroke:#f57b71;stroke-width:1.34px}.s{opacity:.1}.s,.u{isolation:isolate}.t{fill:#fbb03b}.u{opacity:.15}.v{fill:#4d4d4d}.w{fill:#f2f2f2}.x{fill:#e6e6e6}.y{fill:#b3b3b3}.z{fill:#f79920}.aa{fill:#ccc}.ab{fill:#ff5825}</style></defs><title>man(2)</title><g class="a"><path class="b" d="M9.96 283.907l6.2 3.65 2.92-6.2-9.12 2.55zM30.76 281.357l7.76-2.27 3.45 4-8.05 1.37-3.16-3.1zM33.63 287.557l2.73 2.17 4.17-2.17h-6.9zM2.15 288.637l4.31-1.08 1.44 3.17H0l2.15-2.09zM19.54 291.617l5.81 4.22 3.5-5.89-9.31 1.67zM40.48 291.957l7.94-1.52 3.05 4.31-8.14.6-2.85-3.39zM33.22 297.887l2.51 2.42 4.36-1.76-6.87-.66zM16.87 300.977l4.39-.67 1.13 3.3-7.87-.76 2.35-1.87z"/></g><path class="c" d="M341.55 93.997l-49.65 5.72-44.95-5.71"/><path class="d" d="M243.51 80.537c-4.89-.47-5.6 3.94-6.4 12.34s-.93 12.86 4 13.33 11.13-3.41 11.93-11.81-4.75-13.397-9.53-13.86z"/><path class="e" d="M337.37 68.217l-45.47 22.64-48.95-3.5"/><path class="f" d="M236.79 75.3c-4.88.56-4.66 5-3.7 13.4s1.76 12.78 6.64 12.22 10.18-5.65 9.22-14-7.34-12.173-12.16-11.62z"/><path class="g" d="M422.06 55.537a57.379 57.379 0 0 1-10.31 2.69c-.8.13-1.57.24-2.37.34l4.3 19.32c.76-.25 1.51-.48 2.29-.7a58.26 58.26 0 0 1 9.26-1.81 60.559 60.559 0 0 1 6.56-.39 38.78 38.78 0 0 0-4.78-21.47q-2.46 1.125-4.95 2.02z"/><path class="d" d="M345.59 81.167c2.78 12.09 5.91 18.58 9.92 24.86-1.18.78-3.39.9-4.76 1.16-9.45 1.76-18.47-6-22.33-22.77s1-27.1 10.47-28.87c1.37-.25 3.44-1 4.88-.63-.95 7.03-.97 14.11 1.82 26.25z"/><path class="h" d="M411.18 84.117s12.76 42.22-59.66 12.78"/><path class="i" d="M345.59 81.117c2.75 12 5.84 18.43 9.78 24.63h.1s63.64-2.3 62.2-24.14c-.16-3.3-4.84-23.49-6.16-26.68-8.3-20.5-67.74.06-67.71.16l-.07.07c-.91 6.96-.89 14.01 1.86 25.96z"/><path class="j" d="M349.51 101.947s-7.15 3-10.56.41-3.36-9.14-.75-12.82c2.61-3.22 6.81-3.33 7.38-2.49.59-1.64 2.12-3.63 4.39-1.6a9.54 9.54 0 0 1 3.07 8c-.45 2.5-3.53 8.5-3.53 8.5z"/><path class="k" d="M407.72 61.447c-3 .57-4.71 4.53-3.71 8.86s4.27 7.37 7.31 6.81 4.7-4.53 3.71-8.86-4.27-7.38-7.31-6.81z"/><path class="g" d="M409.68 59.337c-3 .57-4.53 5.28-3.33 10.53s4.65 9 7.69 8.48 4.53-5.28 3.33-10.53-4.65-9.04-7.69-8.48z"/><path class="l" d="M442.51 23.917c-4.89 3.29-10.31 3.94-12.13 1.46s.68-7.16 5.56-10.45 10.31-3.94 12.13-1.46-.72 7.16-5.56 10.45z"/><path class="m" d="M441.51 22.787c-2.76 1.86-6 2-7.17.38s.05-4.49 2.81-6.35 6-2 7.17-.37-.06 4.48-2.81 6.34z"/><path class="l" d="M468.59 64.857c-5 3-7.92 7.69-6.44 10.38s6.78 2.4 11.82-.64 7.92-7.69 6.43-10.38-6.77-2.41-11.81.64z"/><path class="m" d="M469.21 66.2c-2.84 1.72-4.35 4.56-3.36 6.34s4.09 1.84 6.94.13 4.35-4.56 3.36-6.34-4.1-1.843-6.94-.13z"/><path class="l" d="M485.73 25.117c4.33 9.23 9.33 29.17 9.33 29.17s-39.4 26.89-55 25.67c-6.67-.52-15-8.44-18.53-13.89s-7.13-16.39-4.79-22.65c5.45-14.63 46.43-39 46.43-39s16.01 12.883 22.56 20.7z"/><path class="n" d="M466.72 70.617s7 .73 17.6-5.64 13.73-10 12.09-13.31c0 0 6.89-6.39 3.55-14.52-3.24-7.9-7.48-22.1-27-36.27a4.68 4.68 0 0 0-3.89-.73 24.93 24.93 0 0 0-8.3 3.56s-6.94.43-11 3.7-12.91 16.36-12.91 16.36 11.82-9.68 18.86-10S468.49 22 468.49 22l-4.07-2.33s15.02 23.39 19.09 27.05l-5.2-2.81s4 6.51 6.67 8.79-18.26 17.917-18.26 17.917z"/><ellipse class="n" cx="450.542" cy="33.738" rx="4.78" ry="2.21" transform="rotate(-31.81 450.542 33.737)"/><ellipse class="o" cx="452.714" cy="32.191" rx="1.04" ry=".85" transform="rotate(-25.72 452.713 32.192)"/><ellipse class="n" cx="463.063" cy="53.362" rx="4.78" ry="2.21" transform="rotate(-31.81 463.064 53.361)"/><ellipse class="o" cx="465.227" cy="51.849" rx="1.04" ry=".85" transform="rotate(-25.71 465.227 51.849)"/><path class="p" d="M447.94 54.477c-3-1.3-4.66-3.72-4.77-7.47"/><path class="q" d="M469.95 57.117c1.86-4 1.71-7.83-.49-11M449.8 25.577c4.41 0 7.82 1.75 9.81 5.09"/><path class="r" d="M437.22 65.847s.88-3.46-2.25-8.35-6.47-5.31-6.47-5.31"/><path class="s" d="M363.65 49.447c0 8.61 2.46 17.88 9.79 28.5l-13.09-9.1z"/><path class="h" d="M405.44 54.817c-.62-12.22-64.85-42.92-43.68 18.41"/><path class="t" d="M343.93 66.7a3.18 3.18 0 0 0-2.8 3.518v.012l1.18 10.28a3.18 3.18 0 0 0 3.518 2.8h.012a3.18 3.18 0 0 0 2.8-3.518v-.015L347.46 69.5a3.18 3.18 0 0 0-3.518-2.8h-.012z"/><path class="o" d="M420.74 87.337c-7.64-3.66-23.28-11.63-23.28-11.63l4.11-.51c6.41-1 8.56-2 10.65-3.16a10.5 10.5 0 0 0 2.62-2.17 131.331 131.331 0 0 0 7.77 16 3.92 3.92 0 0 1-1.87 1.47zM409.97 48.957c-4.77 6.59-14.27 20.5-14.27 20.5l3.87-1.37c6.13-2 8.55-2 11-1.95a11.62 11.62 0 0 1 3.44.74 126 126 0 0 1-1.63-17.47 4.32 4.32 0 0 0-2.41-.45z"/><path class="j" d="M356.51 73.857s-5 7-3.13 11.38 9.09 6 13.76 4.07c4.17-2 5.35-6.57 4.58-7.39 1.93-.23 4.49-1.39 2.85-4.38a10.65 10.65 0 0 0-7.92-5.37c-2.81-.16-10.14 1.69-10.14 1.69z"/><path class="u" d="M140.03 279.8c0 10.44 94.24 8.84 210.5 8.84s210.5 2.62 210.5-8.84-94.24-8.84-210.5-8.84-210.5-1.603-210.5 8.84z"/><circle class="v" cx="454.48" cy="266.447" r="15.77"/><path class="w" d="M441.13 266.447a13.345 13.345 0 1 1 0 .01v-.01zm2.43 0a10.915 10.915 0 1 0 0-.01v.01z"/><circle class="v" cx="519.8" cy="141.507" r="15.77"/><path class="o" d="M506.46 141.507a13.35 13.35 0 1 1 13.35 13.35 13.36 13.36 0 0 1-13.35-13.35zm2.43 0a10.92 10.92 0 1 0 10.92-10.92 10.93 10.93 0 0 0-10.93 10.92h.01z"/><path class="x" d="M445.79 249.6h10.52a1.75 1.75 0 0 1 1.75 1.75v16.85a1.75 1.75 0 0 1-1.75 1.75 12.27 12.27 0 0 1-12.27-12.27v-6.34a1.75 1.75 0 0 1 1.75-1.74z"/><circle class="o" cx="454.48" cy="266.447" r="1.75"/><path class="x" d="M448.08 149.197h6.4v100.4h-6.4z"/><rect class="y" x="445.38" y="245.417" width="11.93" height="3.24" rx="1.21" ry="1.21"/><circle class="v" cx="271.07" cy="266.447" r="15.77"/><path class="w" d="M257.72 266.447a13.35 13.35 0 1 1 13.35 13.35 13.36 13.36 0 0 1-13.35-13.35zm2.43 0a10.92 10.92 0 1 0 10.92-10.92 10.93 10.93 0 0 0-10.92 10.92z"/><path class="x" d="M262.37 249.6h10.52a1.75 1.75 0 0 1 1.75 1.75v16.85a1.75 1.75 0 0 1-1.75 1.75 12.27 12.27 0 0 1-12.27-12.27v-6.34a1.75 1.75 0 0 1 1.75-1.74z"/><circle class="o" cx="271.07" cy="266.447" r="1.75"/><circle class="v" cx="162.51" cy="172.007" r="13.26"/><path class="w" d="M151.29 172.007a11.22 11.22 0 1 1 11.22 11.23 11.22 11.22 0 0 1-11.22-11.23zm2 0a9.18 9.18 0 1 0 9.18-9.18 9.19 9.19 0 0 0-9.14 9.18h-.04z"/><path class="x" d="M155.2 145.707h8.84a1.47 1.47 0 0 1 1.47 1.47v26.31a1.47 1.47 0 0 1-1.47 1.47 10.32 10.32 0 0 1-10.32-10.32v-17.46a1.47 1.47 0 0 1 1.47-1.47h.01z"/><circle class="o" cx="162.51" cy="172.007" r="1.47"/><path class="x" d="M264.67 149.197h6.4v100.4h-6.4z"/><rect class="y" x="261.96" y="245.417" width="11.93" height="3.24" rx="1.21" ry="1.21"/><path class="x" d="M449.13 236.947l3.83-4.7-98.12-89.35-3.83 4.71 98.12 89.34zM265.72 236.947l3.83-4.7-98.12-89.35-3.83 4.71 98.12 89.34zM521.98 143.587l1.23-1.92a1.89 1.89 0 0 0-.57-2.61l-60.77-40a1.89 1.89 0 0 0-2.61.57l-1.23 1.92a1.89 1.89 0 0 0 .57 2.61l60.77 40a1.89 1.89 0 0 0 2.61-.57z"/><path class="y" d="M410.76 130.587h45v10.92h-45zM288.59 130.587h36.29v10.92h-36.29zM157.71 130.587h45v10.92h-45z"/><path class="z" d="M162.51 110.527v12.12H417.8l143.22-58.93a10.471 10.471 0 0 0-.76-2.82l-1.67-3.61-5.89-12.73a10.68 10.68 0 0 0-14-5.64l-135.54 57.73L397.64 99a10.74 10.74 0 0 1-4.19.85H173.2a10.68 10.68 0 0 0-10.69 10.67v.01z"/><path class="x" d="M284.01 83.357h93a21.59 21.59 0 0 1 21.32 18.56 22 22 0 0 1 .2 3v17.5H262.51v-17.87a21.52 21.52 0 0 1 21.52-21.18m0-4.85a26.38 26.38 0 0 0-26.37 26v22.8h145.75v-22.43a26.759 26.759 0 0 0-.25-3.62 26.39 26.39 0 0 0-26.13-22.76h-93v.01z"/><rect class="aa" x="145.4" y="140.327" width="322.66" height="9.26" rx="4.54" ry="4.54"/><rect class="x" x="145.41" y="122.657" width="322.66" height="9.26" rx="4.54" ry="4.54"/><path class="ab" d="M450.495 76.398l7.417-3.23 10.93 25.104-7.416 3.23zM222.18 99.887h8.95v22.76h-8.95z"/><path class="x" d="M397.51 127.287a3.44 3.44 0 0 0 3.18 2.13 3.4 3.4 0 0 0 1.31-.26l15.79-6.5 143.23-58.94 4.5-1.85a3.44 3.44 0 1 0-2.36-6.463q-.127.046-.25.1l-4.32 1.78-158.85 65.37-.34.14a3.44 3.44 0 0 0-1.893 4.481zM155.34 123.417h-5.06v-34.15a1.95 1.95 0 0 1 1.95-1.95h1.16a1.95 1.95 0 0 1 1.95 1.95v34.15z"/><circle class="o" cx="519.49" cy="140.867" r="1.75"/></svg>