<svg xmlns="http://www.w3.org/2000/svg" width="1068.66" height="1068.67" viewBox="0 0 1068.66 1068.67"><defs><style>.a{opacity:.35;fill:url(#a)}.b{opacity:.5}.c{fill:#60e4ff}.d,.f,.i,.q,.r,.s{fill:none;stroke-miterlimit:10}.d{stroke:#1c326b}.d,.f,.i{stroke-width:12.04px}.e{fill:#1c326b}.f{stroke:#213a7c}.g{fill:#213a7c}.h{fill:#f9b578}.i{stroke:#ffbf65;stroke-linecap:round}.j{fill:#ffbf65}.k{fill:#ffd1a4}.l{fill:#f58f00}.m{fill:#ffc687}.n{fill:#ffaf73}.o{fill:#333}.p{fill:#fff}.q{stroke:#ffaf73;stroke-width:1.19px}.r{stroke:#534741;stroke-width:1.27px}.s{stroke:#f57b71;stroke-width:1.34px}.t{opacity:.1}.u{fill:#fbb03b}.v{opacity:.15}.w{fill:#4d4d4d}.x{fill:#f2f2f2}.y{fill:#e6e6e6}.z{fill:#b3b3b3}.aa{fill:#f79920}.ab{fill:#ccc}.ac{fill:#ff5825}</style><radialGradient id="a" cx="534.33" cy="534.33" r="534.33" gradientUnits="userSpaceOnUse"><stop offset="0" stop-color="#fff540"/><stop offset=".17" stop-color="#fff540" stop-opacity=".78"/><stop offset=".4" stop-color="#fff540" stop-opacity=".5"/><stop offset=".6" stop-color="#fff540" stop-opacity=".29"/><stop offset=".78" stop-color="#fff540" stop-opacity=".13"/><stop offset=".92" stop-color="#fff540" stop-opacity=".04"/><stop offset="1" stop-color="#fff540" stop-opacity="0"/></radialGradient></defs><title>man</title><circle class="a" cx="534.33" cy="534.33" r="534.33"/><g class="b"><path class="c" d="M190.45 673.79l6.2 3.65 2.92-6.2-9.12 2.55zM211.25 671.24l7.76-2.27 3.45 4-8.05 1.37-3.16-3.1zM214.12 677.44l2.73 2.17 4.17-2.17h-6.9zM182.64 678.52l4.31-1.08 1.44 3.17h-7.9l2.15-2.09zM200.03 681.5l5.81 4.22 3.5-5.89-9.31 1.67zM220.97 681.84l7.94-1.52 3.05 4.31-8.14.6-2.85-3.39zM213.71 687.77l2.51 2.42 4.36-1.76-6.87-.66zM197.36 690.86l4.39-.67 1.13 3.3-7.87-.76 2.35-1.87z"/></g><path class="d" d="M522.04 483.88l-49.65 5.72-44.95-5.71"/><path class="e" d="M424 470.42c-4.89-.47-5.6 3.94-6.4 12.34s-.93 12.86 4 13.33 11.13-3.41 11.93-11.81-4.75-13.4-9.53-13.86z"/><path class="f" d="M517.86 458.1l-45.47 22.64-48.95-3.5"/><path class="g" d="M417.28 465.18c-4.88.56-4.66 5-3.7 13.4s1.76 12.78 6.64 12.22 10.18-5.65 9.22-14-7.34-12.17-12.16-11.62z"/><path class="h" d="M602.55 445.42a57.38 57.38 0 0 1-10.31 2.69c-.8.13-1.57.24-2.37.34l4.3 19.32c.76-.25 1.51-.48 2.29-.7a58.26 58.26 0 0 1 9.26-1.81 60.56 60.56 0 0 1 6.56-.39 38.78 38.78 0 0 0-4.78-21.47c-1.64.75-3.29 1.42-4.95 2.02z"/><path class="e" d="M526.08 471.05c2.78 12.09 5.91 18.58 9.92 24.86-1.18.78-3.39.9-4.76 1.16-9.45 1.76-18.47-6-22.33-22.77s1-27.1 10.47-28.87c1.37-.25 3.44-1 4.88-.63-.95 7.03-.97 14.11 1.82 26.25z"/><path class="i" d="M591.67 474s12.76 42.22-59.66 12.78"/><path class="j" d="M526.08 471c2.75 12 5.84 18.43 9.78 24.63h.1s63.64-2.3 62.2-24.14c-.16-3.3-4.84-23.49-6.16-26.68-8.3-20.5-67.74.06-67.71.16l-.07.07c-.91 6.96-.89 14.01 1.86 25.96z"/><path class="k" d="M530 491.83s-7.15 3-10.56.41-3.36-9.14-.75-12.82c2.61-3.22 6.81-3.33 7.38-2.49.59-1.64 2.12-3.63 4.39-1.6a9.54 9.54 0 0 1 3.07 8c-.45 2.5-3.53 8.5-3.53 8.5z"/><path class="l" d="M588.21 451.33c-3 .57-4.71 4.53-3.71 8.86s4.27 7.37 7.31 6.81 4.7-4.53 3.71-8.86-4.27-7.38-7.31-6.81z"/><path class="h" d="M590.17 449.22c-3 .57-4.53 5.28-3.33 10.53s4.65 9 7.69 8.48 4.53-5.28 3.33-10.53-4.65-9.04-7.69-8.48z"/><path class="m" d="M623 413.8c-4.89 3.29-10.31 3.94-12.13 1.46s.68-7.16 5.56-10.45 10.31-3.94 12.13-1.46-.72 7.16-5.56 10.45z"/><path class="n" d="M622 412.67c-2.76 1.86-6 2-7.17.38s.05-4.49 2.81-6.35 6-2 7.17-.37-.06 4.48-2.81 6.34z"/><path class="m" d="M649.08 454.74c-5 3-7.92 7.69-6.44 10.38s6.78 2.4 11.82-.64 7.92-7.69 6.43-10.38-6.77-2.41-11.81.64z"/><path class="n" d="M649.7 456.08c-2.84 1.72-4.35 4.56-3.36 6.34s4.09 1.84 6.94.13 4.35-4.56 3.36-6.34-4.1-1.84-6.94-.13z"/><path class="m" d="M666.22 415c4.33 9.23 9.33 29.17 9.33 29.17s-39.4 26.89-55 25.67c-6.67-.52-15-8.44-18.53-13.89s-7.13-16.39-4.79-22.65c5.45-14.63 46.43-39 46.43-39s16.01 12.88 22.56 20.7z"/><path class="o" d="M647.21 460.5s7 .73 17.6-5.64 13.73-10 12.09-13.31c0 0 6.89-6.39 3.55-14.52-3.24-7.9-7.48-22.1-27-36.27a4.68 4.68 0 0 0-3.89-.73 24.93 24.93 0 0 0-8.3 3.56s-6.94.43-11 3.7-12.91 16.36-12.91 16.36 11.82-9.68 18.86-10 12.77 8.23 12.77 8.23l-4.07-2.33s15.02 23.39 19.09 27.05l-5.2-2.81s4 6.51 6.67 8.79-18.26 17.92-18.26 17.92z"/><ellipse class="o" cx="631.03" cy="423.64" rx="4.78" ry="2.21" transform="rotate(-31.81 630.998 423.627)"/><ellipse class="p" cx="633.2" cy="422.14" rx="1.04" ry=".85" transform="rotate(-25.72 633.059 422.1)"/><ellipse class="o" cx="643.55" cy="443.26" rx="4.78" ry="2.21" transform="rotate(-31.81 643.525 443.246)"/><ellipse class="p" cx="645.72" cy="441.76" rx="1.04" ry=".85" transform="rotate(-25.71 645.658 441.752)"/><path class="q" d="M628.43 444.36c-3-1.3-4.66-3.72-4.77-7.47"/><path class="r" d="M650.44 447c1.86-4 1.71-7.83-.49-11M630.29 415.46c4.41 0 7.82 1.75 9.81 5.09"/><path class="s" d="M617.71 455.73s.88-3.46-2.25-8.35-6.47-5.31-6.47-5.31"/><path class="t" d="M544.14 439.33c0 8.61 2.46 17.88 9.79 28.5l-13.09-9.1z"/><path class="i" d="M585.93 444.7c-.62-12.22-64.85-42.92-43.68 18.41"/><path class="u" d="M524.42 456.58a3.18 3.18 0 0 0-2.8 3.53l1.18 10.28a3.18 3.18 0 0 0 3.53 2.8 3.18 3.18 0 0 0 2.8-3.53l-1.18-10.28a3.18 3.18 0 0 0-3.53-2.8z"/><path class="p" d="M601.23 477.22c-7.64-3.66-23.28-11.63-23.28-11.63l4.11-.51c6.41-1 8.56-2 10.65-3.16a10.5 10.5 0 0 0 2.62-2.17 131.33 131.33 0 0 0 7.77 16 3.92 3.92 0 0 1-1.87 1.47zM590.46 438.84c-4.77 6.59-14.27 20.5-14.27 20.5l3.87-1.37c6.13-2 8.55-2 11-1.95a11.62 11.62 0 0 1 3.44.74 126 126 0 0 1-1.63-17.47 4.32 4.32 0 0 0-2.41-.45z"/><path class="k" d="M537 463.74s-5 7-3.13 11.38 9.09 6 13.76 4.07c4.17-2 5.35-6.57 4.58-7.39 1.93-.23 4.49-1.39 2.85-4.38a10.65 10.65 0 0 0-7.92-5.37c-2.81-.16-10.14 1.69-10.14 1.69z"/><path class="v" d="M320.52 669.68c0 10.44 94.24 8.84 210.5 8.84s210.5 2.62 210.5-8.84-94.24-8.84-210.5-8.84-210.5-1.6-210.5 8.84z"/><circle class="w" cx="634.97" cy="656.33" r="15.77"/><path class="x" d="M621.62 656.33A13.35 13.35 0 1 1 635 669.68a13.36 13.36 0 0 1-13.38-13.35zm2.43 0A10.92 10.92 0 1 0 635 645.41a10.93 10.93 0 0 0-10.95 10.92z"/><circle class="w" cx="700.29" cy="531.39" r="15.77"/><path class="p" d="M686.95 531.39a13.35 13.35 0 1 1 13.35 13.35 13.36 13.36 0 0 1-13.35-13.35zm2.43 0a10.92 10.92 0 1 0 10.92-10.92 10.93 10.93 0 0 0-10.93 10.92z"/><path class="y" d="M626.28 639.48h10.52a1.75 1.75 0 0 1 1.75 1.75v16.85a1.75 1.75 0 0 1-1.75 1.75 12.27 12.27 0 0 1-12.27-12.27v-6.34a1.75 1.75 0 0 1 1.75-1.74z"/><circle class="p" cx="634.97" cy="656.33" r="1.75"/><path class="y" d="M634.97 639.48h-6.4v-100.4h6.4z"/><rect class="z" x="625.87" y="635.3" width="11.93" height="3.24" rx="1.21" ry="1.21" transform="rotate(-180 631.835 636.92)"/><circle class="w" cx="451.56" cy="656.33" r="15.77"/><path class="x" d="M438.21 656.33a13.35 13.35 0 1 1 13.35 13.35 13.36 13.36 0 0 1-13.35-13.35zm2.43 0a10.92 10.92 0 1 0 10.92-10.92 10.93 10.93 0 0 0-10.92 10.92z"/><path class="y" d="M442.86 639.48h10.52a1.75 1.75 0 0 1 1.75 1.75v16.85a1.75 1.75 0 0 1-1.75 1.75 12.27 12.27 0 0 1-12.27-12.27v-6.34a1.75 1.75 0 0 1 1.75-1.74z"/><circle class="p" cx="451.56" cy="656.33" r="1.75"/><circle class="w" cx="343" cy="561.89" r="13.26"/><path class="x" d="M331.78 561.89A11.22 11.22 0 1 1 343 573.12a11.24 11.24 0 0 1-11.22-11.23zm2 0a9.18 9.18 0 1 0 9.18-9.18 9.19 9.19 0 0 0-9.14 9.18z"/><path class="y" d="M335.69 535.59h8.84a1.47 1.47 0 0 1 1.47 1.47v26.31a1.47 1.47 0 0 1-1.47 1.47 10.32 10.32 0 0 1-10.32-10.32v-17.46a1.47 1.47 0 0 1 1.48-1.47z"/><circle class="p" cx="343" cy="561.89" r="1.47"/><path class="y" d="M451.56 639.48h-6.4v-100.4h6.4z"/><rect class="z" x="442.46" y="635.3" width="11.93" height="3.24" rx="1.21" ry="1.21" transform="rotate(-180 448.42 636.92)"/><path class="y" d="M629.62 626.83l3.83-4.7-98.12-89.35-3.83 4.71 98.12 89.34zM446.21 626.83l3.83-4.7-98.12-89.35-3.83 4.71 98.12 89.34zM702.47 533.47l1.23-1.92a1.89 1.89 0 0 0-.57-2.61l-60.77-40a1.89 1.89 0 0 0-2.61.57l-1.23 1.92a1.89 1.89 0 0 0 .57 2.61l60.77 40a1.89 1.89 0 0 0 2.61-.57z"/><path class="z" d="M636.25 531.39h-45v-10.92h45zM505.37 531.39h-36.29v-10.92h36.29zM383.2 531.39h-45v-10.92h45z"/><path class="aa" d="M343 500.41v12.12h255.29l143.22-58.93a10.47 10.47 0 0 0-.76-2.82l-1.67-3.61-5.89-12.73a10.68 10.68 0 0 0-14-5.64l-135.54 57.73-5.52 2.35a10.74 10.74 0 0 1-4.19.85H353.69A10.68 10.68 0 0 0 343 500.41z"/><path class="y" d="M464.5 473.24h93a21.59 21.59 0 0 1 21.32 18.56 22 22 0 0 1 .2 3v17.5H443v-17.53-.34a21.52 21.52 0 0 1 21.52-21.18m0-4.85a26.38 26.38 0 0 0-26.37 26v22.8H583.9v-22.43a26.76 26.76 0 0 0-.25-3.62 26.39 26.39 0 0 0-26.13-22.76h-93z"/><rect class="ab" x="325.9" y="530.2" width="322.66" height="9.26" rx="4.54" ry="4.54" transform="rotate(180 487.225 534.835)"/><rect class="y" x="325.9" y="512.54" width="322.66" height="9.26" rx="4.54" ry="4.54"/><path class="ac" d="M630.985 466.282l7.417-3.23 10.931 25.103-7.417 3.23zM411.62 512.53h-8.95v-22.76h8.95z"/><path class="y" d="M578 517.17a3.44 3.44 0 0 0 3.18 2.13 3.4 3.4 0 0 0 1.31-.26l15.79-6.5 143.23-58.94 4.5-1.85a3.44 3.44 0 1 0-2.61-6.36l-4.32 1.78-158.85 65.37-.34.14a3.44 3.44 0 0 0-1.89 4.49zM335.83 513.3h-5.06v-34.15a1.95 1.95 0 0 1 1.95-1.95h1.16a1.95 1.95 0 0 1 1.95 1.95v34.15z"/><circle class="p" cx="699.98" cy="530.75" r="1.75"/></svg>