<svg xmlns="http://www.w3.org/2000/svg" xmlns:xlink="http://www.w3.org/1999/xlink" width="754.7" height="762.5" viewBox="0 0 754.7 762.5"><defs><style>.a{fill:#006837}.b{fill:#009245}.c{fill:#39b54a}.d{opacity:.15}.e{fill:#b97e4d}.f{fill:#8b5f3a}.g{fill:#74573a}.h,.j{fill:none;stroke-miterlimit:10}.h{stroke:#4d4d4d;stroke-width:19.04px}.i{fill:#fff}.i,.k{opacity:.1}.j{stroke:#a67145;stroke-linecap:round;stroke-width:2px}</style><symbol id="a" viewBox="0 0 338 346.1"><path class="a" d="M297.1 221c-3.2-20.6 2.4-15.4.3-25.8-4.2 12.2-6.3 26.8-.3 25.8zM327.7 173.6a4.8 4.8 0 0 0-2.2-1.5c1.2 5.2 3.1 7.3 2.2 1.5z"/><path class="a" d="M277.9 99.6c2.8-4.2 6.1-9.5 10.8-14-5.8-.2-10.4-3.6-14.1-8.4-15.6 6.3-20.5-4.7-23.4-17-9.1.6-28.9-6.3-31-7.8 1.2 2-9.7-13.5-6.6-12.4 4.6-23.3-16.2 10.1-14.1 7.6 5 3.2 5.8 5.7 4 7.7a16.9 16.9 0 0 0-2.4-4.2 35.7 35.7 0 0 1 2.3 4.3c-1.3 1.4-3.9 2.5-7.3 3.4-.3-11.7-.2-22 4.9-20.8-28.6-20-26.6.9-53.1.1-.4 4.3-1.1 9.9 2.4 13.1-30.2-7.5-26.5 2.7-19.2 14 5.6 3.7-3.3-.2-9.5-7.4-1.7 9-13.6 8.8-15.8 8.8-3.4-26.1-17.9-6.7-15.6-4.3-4.2 2.4-13.6 7.9-15.5-11.7 3.9 47.9 2.8 45.8-7.7 50.2 3.2 3.4 6.1 11.7 5.4 20.7l-.9-.7c-14.6-28.3-10.8-10.2-11.8 5.2l-.4.6c-3.8-13.5-5.4-5.8-4.2 7.6-5.2-2.2-8.4-5.2-7.3 8.1 1.8-1.3 3.9-2.6 6.2-4l1.2-3.1.2 2.3-1.4.8c-1.8 4.9-3.4 10.2-4.8 15.2-.7-4.6-1.1-8.3-1.4-11.2-5.2 3.7-8.7 7.1-13.1 10.3 2.6 9.2 3 26.4-.2 40 5.8-46.9-4.2-17.2-31.5-31 7.8 14.3 12.3 22.5 14.9 26.6-11.9 16.7-.5 14.8-9.4 17.6 4 3.3 12.7 7.5 10.1 14.3 20.8-23.2 24 1.1 16.9-24.4 6 17.9 8.5 28.3 10.4 34.1a62.3 62.3 0 0 0-10.4-6.4c5.6 9.3 10 14.8 12.7 17.5a6.2 6.2 0 0 0-.7 3.4 24.7 24.7 0 0 0-11.6-3c7.5 9.4 10.5 7.8 11.8 4.1.6 2.1 2.3 4 5.2 5.5-4.4.7-.5 3.5 6.7 5a60.4 60.4 0 0 1 6.2 12.4c-1.4 3.8-3.2 8.1-7.6 12.5 1.7 3.2 5 2.9 8.9 1.3a13.4 13.4 0 0 0 1.3 4.5 28 28 0 0 0 12.7-13h.2c-.3 21.5 1.4 27.2 4.4 25.2-.5 6.7 1 10-9.9 9.2 8 2 14.1 3.2 18.9 3.9 0 1.1-.1 2.3-.1 3.4l2.4-3.1c15.2 2.4 14 .9 19.1 17.3 2.4-8.8 4-14.4 5.2-18.1a17 17 0 0 0-5.6-3.8c2.7-.8 5.6-1.5 8.4-2.5a5.6 5.6 0 0 1 2.4-1.4v.5l-2.5.9c-.8.9-1.6 2.6-2.8 6.3 8.4 8.7 3.7 22.7 7.8 6 .2 1.8.4 3.6.5 5.4 8.6-6.8 12.5-12 14.1-15.2a20.7 20.7 0 0 0 .8 4.1 98.9 98.9 0 0 1 2.7-11.9l2 1.5-.5-1.2-1.4-.7c2.6-7.5 3.3 1.5 2.5 2.3 5.3 4.1 13.6 11.8 8.2 17.9 5.3-4.1 9.5-7.6 12.9-10.4a63.1 63.1 0 0 0 11.3 6.1l-2.5-4.2a77.4 77.4 0 0 0 10.7 7.8c-5.4-18.3-4.1-22.2-14.3-14a2.8 2.8 0 0 0-.1.7l-.3-.4.3-.3c1-4.9 15-5.6 25.8-10.4l-1.6-1.6 3.6.7a23.5 23.5 0 0 0 6.2-4.4c.7 2.3 1.2 4.4 1.6 6.1l5 1.3c7.2-9.4 13.5-18.8 9.8-38.4 8.4 14.6 14 22.9 17.8 27.5 3.7-6.3 10.9-16.5 16.2-17.5-25.1-15.6 7.4-18.5-6-28 30.8 13.7 28.4 3.5 20.3-18.8 6.4-.9 13.8-4 18.3.2-10.6-14.4-11.7-19.4-19.5-23a15.6 15.6 0 0 0-1-2.1l-2.9.6-1.8-.6v-1.1c29.9 4.5 28.8-3.2 21.9-5.1a23.8 23.8 0 0 0 4.9-4.2 86.9 86.9 0 0 1 2.6 9c2.6-7.6 5.9-14.3 8.5-15.6-3.7-28.3 12.1.5 9.3 1.3 17.2 17 6.4-9.2 10.4-8.8-2-8.5-2.5-25.2 12.5-31.3-6.4-5.8-11.4-6.8-16.4-3.7 2.4-9.9-4.3-15.5 8.1-22.3-39.3 13-25.6-1.6-16.7-4.4-12.4-15.5-17.6-12.2-18-6.7-3.1-2-7.2-2.8-12.3-2 5.4-.1 9.9 3.3 13.5 7.8a7.9 7.9 0 0 0 1.7 2.3h.3c-7.3-4.9-12.2-8.1-15.8-10.1h-.1zM54.6 235.8l-1.4.7-.3-.3z"/><path class="a" d="M74.7 292a11.2 11.2 0 0 1-6.4-5.4c-13.3 7-25.8 3.2 6.4 5.4zM274.5 76.9l.2.3.5-.2h-.7zM309.1 75.9a34.9 34.9 0 0 0-20.3 9.6c5.5.3 12.2-2.4 20.3-9.6zM250.3 55.8c-1.3-6.3-2.3-12.4-4.3-16.2-4.3 3.5-10.6 19 4.3 16.2zM264.8 57.2a99.9 99.9 0 0 0 6.7 15.2c4.5-2.9 11.1-7.5-6.7-15.2zM255 54.5a34.7 34.7 0 0 1-4.7 1.3c.3 1.5.6 3 1 4.4 3.9-.2 5.8-1.8 3.7-5.7zM274.5 76.9a43.8 43.8 0 0 1-2.9-4.5c-3.1 2.1-5.1 3.4 2.9 4.5zM18.7 220.3c-1.6 1.8-3.4 3.9-5.2 6.4 2.8-2.4 4.4-4.5 5.2-6.4zM21.8 159.4a55.2 55.2 0 0 0 12.9-6.8c-2.6-8.9-7.3-10.2-12.9 6.8zM149.5 301.8l-.6-.5c.2.5.4.6.6.5zM241.9 290.5l3-4-.7-.8c-1.6 2.7-2.6 4.7-2.3 4.8zM211.6 295.3l-7.9-1.7-2 1c4.1 4.3 7.6 8.4 9.5 9.3l-2.3 3.6c13.7-2.1 26.1-5.7 7.8-11l-3.9 5.1a38.3 38.3 0 0 0-1.2-6.3zM249.8 290.8a13.6 13.6 0 0 1-4.2-3.5c-.6 2.3-.3 4.7 4.2 3.5z"/><path class="a" d="M244.9 286.5l.8.9c.7-3 2.9-5.8-.8-.9zM260.4 268.2l4.5 2.6c-1.2-2.2-2.7-2.9-4.5-2.6zM251.9 290.1l-2.1.7c1.7.7 2-.4 2.1-.7zM60.4 104.2a47.1 47.1 0 0 1 6.6-3.4c-2.5-2.6-5.2-2.2-6.6 3.4zM74.7 50.6zM147.1 37.6l.9-.9c.3-4-.2-6-6.4-1.6 1.3 3.3 2.9 4 4.7 3h1.5v-.8z"/><path class="a" d="M147.9 37.3c27.2-9.6 14.5-6.5 11.6-33.2-.5 9-6.2 26.9-11.5 32.6v.6z"/><path class="a" d="M159.5 4.1a10.9 10.9 0 0 0-.4-4.1c.1 1.4.3 2.8.4 4.1zM117.1 41.7c-2.3 6 .5 11.7 4.4 16.2.7-3.7-.3-8.9-4.4-16.2z"/><path class="b" d="M16.2 77.9c2.2 1.4 4.6 2.8 7 4-1.1-5.3-4.1-8.2-7-4zM337.9 184.4c-4.9-1-10.7-1.9-16.9-2.7 3.8 2.4 8.9 4.1 16.9 2.7zM219.4 105.1c0 1.5 1 2 0 0zM297 91.7v-1a9.3 9.3 0 0 0 0 1zM320.2 126.9a13.9 13.9 0 0 0 1.2-1.8h-.2zM250.6 75.6l.7 2.4c4.2-3.3 4.8-6.8-.7-2.4z"/><path class="b" d="M320.2 126.9c-5 6.5-13.4 6-14.6 36.3-3.5-58.3-3.9-49.6 15.6-38.1l1.1-2a15.3 15.3 0 0 1-1 2.1c2 1.2 4.2 2.4 6.7 3.6-5.1-15.9-31.6-24.2-31-37-2.1 22.2-6.9 13.1-10.5 11.9 16.4-22.2-18.5-3.4-19.2-15.2 2.4 30-9.3 11-16-10.4-5 4-15 7.7-25.9-2.2a161.9 161.9 0 0 0 3.1 18.4c-2.3-2.9-11.9 0-21.9-4.8 8.7 8.9 11.9 13.6 12.9 15.7 0-1.3.8-3.4 4.1-5.3 17.6 16.3-22.7 8-30.1-5.9 2.2-17.4 3.8-20.3 11.8-16.4-8.6-12.2-12.1-22.2-19.8-28-1.1-11-10.2-8.8-7.7-6.7-36.4-10.8-25.7-1.7-41.2-15 18.8 24.5 9.3 24.1 0 41.2 12.3 7.5 4.3 3.9 14.6-3.8 1.6 7.3-10.2 20.6-34 19.9 13.2 3.3 21 5.7 25.4 6.9l-1.1.9 1.8-.7c5.9 1.6 5.2.8 4.2-3.4a7.5 7.5 0 0 0 .9-2.5l-1.1 1.3a31.4 31.4 0 0 1-.5-8.2c12.4 1.7 12.4 12.8 6.6 26.3 5.4-.5 9.6 1.6 4.3 2.1a20 20 0 0 0 3 3.7l-1.6 2.4c5.5.9 8.2 6 9.8 12.2l.7.5-.6.2-.2-.6c-5.7-3.8-10.3-12.2-16.2-18.5l.8-1.8-2.2.3c-4.8-4.6-10.5-7.6-18.3-6.2.3-3.2 3.6-3.2 8.7-6.9-4.2 1.3-9.6 1.9-13.8 4.4-.9-3.6-7.5-7-15.8-11-.6-5.4-1.6-8.6-2.6-10.2.7-.9.1-1.6-2.6-1.7-6-8.1-16.3-9.4-1.7-21.6-21.8-8.2-33 12-27.7 13.5-22.3-1.7-18.1 15.3-48.9 8.2 16.7 13.5 20.9 13.4 27.2 15.1-4.1 3.1-19.1-.9-32.5-8 1.8 8.6-1.3 23.5-17.9 24.7 11.4 2 19.6 9.1 29.3 6.8-1.5 2.9-3.8 6.4-6 9.9a81.1 81.1 0 0 0-10.7 11.8c-7.2-25.8-4.2-1.1-15.8-10.9 19.3 19 11.3 26.9 23.5 33.7l.8 1.5c-27.2-2.6-7.2 8.2-8.8 10 13.8-9.9 5.9 11.7-12.7 3.3 14.5 6.8 21.7 11.3 24.4 14.2a63.6 63.6 0 0 0-6.6.1 36.3 36.3 0 0 0 7.2.6c2.5 3.6-3.2 4.3-10.5 3.6 6.1 5.2 2.7 20.8 13.1 29.8 9.6.8-2.9-1.5 8.7-3.2-3 4.4-2.4 6.6-1.3 8.3l-.7.7 1.6.5a4.4 4.4 0 0 1 1.1 3.2c-5.9 14.7-4.4 17.1 7.2 22.9.1 1.4.3 3.2.7 5.3a21.8 21.8 0 0 0 2.6-3.6c3.6 1.8 8 3.9 13.2 6.7a125.4 125.4 0 0 1-12.3-8.3 30.8 30.8 0 0 0 1.7-4.1c-3.1-2.2-5.3-2.9-5.8.3-7.6-8.3 9.5-5.4 6.1-4.4l.7.4a36.2 36.2 0 0 1-1 3.7c2.9 2.1 6.7 5.7 10.5 8.5.5 1.9 1 3.9 1.4 5.9-3.3 3.1 1.4 10.4 2.9 27.4l-7.1-.9 7.3 2.9c.2 2.2.3 4.6.3 7.2l3-6c16.5 6.2 22.9 7.1 27.2 13.1 1.5-8.3 18.7-3 36.5 1.6 1.4-.2 2.2-.5 2.5-1.1 1.7 12.9 3.2 26.4 8.5 38.1 2.6-45.6 3.7-32 7.7-29.3 5 4.2 7.9 5.6 9.4 5.9v.5l.4-.5c1.6.1 1.6-1.1 1.1-1.4 6.8-8.9 9.4-14.5 9.1-17.4 12.9-.3 16 3.4.4-6 7.5 2.4 13.4 4.1 18 5.1.1 4.6 2.3 10.4 7.5 17.6a48.1 48.1 0 0 0-3.5-16.8c11.7 1.8 12.9-2.5 13.9-11.3l-3.2-4.8 3.8-.7c-.2 2-.4 3.9-.6 5.6 3.4 5.1 4.3 5.8 3.3-5.8a9.8 9.8 0 0 1 4.3.5c26.9 2.1 10.8-3.3 21-19.6-.2 2.5.3 7.9.3 15.3 3.7-9.8 13.6-10.4 16.5-8.7 13.5-3.5 16.2-.7 20 .7a67.2 67.2 0 0 1 6.7-13.6c4.6-.2 11-.9 17.5-1.8-12.3-2-3.2-19-5-35.1-3.8 1.2-12.7 2.6-26.9 2.3 0-1.6 3.6-3.1 9.1-4.6a11.9 11.9 0 0 1 5.3 3.6c-.2-1.7-.4-3.3-.6-4.7 13.8-3.2 34.3-6.6 43.9-11.5-7.3-3.1-21.7-9.3-32.3-11.3 11.3-3.2 15-6.2 14.8-10.2l4.2-4.9-4.5 2.9a25 25 0 0 0-2.7-5.5c4.9.3 9.7.8 14.4 1.4-6.9-4.4-9.5-11.1-17.5-6.1l-1.8-2.7h-1a62.7 62.7 0 0 0 8.2-4.1l-6.6-1c5.7-8.5 21.6-16.2 26.2-17.3-17.6 3.2-16.3-9.1-8.6-23.9zM229 96.3a12.5 12.5 0 0 0 1.2 3c-.4-.1-1.2 0-2.6 1.5a13.4 13.4 0 0 0 1.4-4.5zm-37 .5c-.8 11.6-1 18 0 21.9l-6.8 2.4c4.2-15.8 5.5-22.3 0-9.4-11.6-5.9 2.3-18.1 6.8-15zm-11.4 26l-3.2 1.1a40.6 40.6 0 0 1-2.7-7.1 7.9 7.9 0 0 1 5.9 5.9zm-7.5 15.4l.3.7-2.6-.6-.4-2.8zM74.8 291.3c9.1-19.1 1.8-9.8 7.5-21 9.9 14.8 5.9 21-7.5 21zm64.5 14.6c-2.3-4.6-12.3-14.9-11.4-35.8 7.4 9.5 9.6 22.3 11.4 35.8zm162.6-135.5h-.8l.2-.5zM2.1 124.2L0 122.1zM17.6 169.4z"/><path class="b" d="M10.8 189.8a83.2 83.2 0 0 0 8.6 1.4c-1.8-1.6-4.5-2.2-8.6-1.4zM287.9 274c-5.7 2-8.4 1.7-10.6.8-2.3 7-.3 9.8 10.6-.8zM318.5 256.9l-17.1 2.5c3.6.6 9.1-.1 17.1-2.5zM240 298.1a132.8 132.8 0 0 0 .8-15.4c-1.4 3.8-1.9 8.8-.8 15.4zM328 208.9l-.9.5c5.3 2.2 7 3 .9-.5zM296.2 222.7c.1.5.2 1 .2 1.6 2.9-.9 2.8-1.7-.2-1.6zM124.3 61.8l7.2 4.1c-.7-3.1-1.1-5.5-1.3-7.3-.7 1.8-2.4 3.4-5.9 3.2zM206.1 77.9l-.7-.4 2.5 3.5zM133.7 75a67.4 67.4 0 0 1 2.9-6.1l-5.1-3c.6 2.5 1.3 5.6 2.2 9.1zM206.1 77.9c2.7 1.4 6.1 3.4 10.4 5.9-18.8-46.8-21.2-26-10.4-5.9z"/><path class="b" d="M130.2 58.6c1.5-3.8-1.2-8.5 0 0zM107.5 325.2c-2.7-9-4.4-14.3-6.9-17.7-.6 3.4 1.3 9 6.9 17.7z"/><path class="c" d="M245.6 43.8l.6 1.8c4.3.2 12-1.1-.6-1.8z"/><path class="c" d="M310.1 61.6c-39.3-17.1-46.6-.7-20 7.1-27.4 16.6-38-6.4-43.9-23.1-1.8-.1-3-.4-1.9-1.1-2.1 1-17.2 2.5-10.7 26.8-7.9-21.5-16.7-12.1-19.3-24.2-2 9.9-3.3 15.3-3 18.7a48.8 48.8 0 0 1 10.2-2.8 104.7 104.7 0 0 1-6.1 8.5c3.2 1.9 8.4 3.9 16.5 7.9-6-2-13.1-4.1-17.9-6.3-15 17.3-23.9 8.5-38.1 0 .3 9.2.4 13 2.2 15.7-5.1-3.5-9.7-9.4-11.2-20.3-1.3 6.8-2.2 12.6-2.9 17.5-.6 4.5-1 8.3-1.2 11.5-4.5-1.8-12.4-4.8-21.4-8.1 10.5-2.7 17.3-4 22.6-3.6-1.4-6.9.1-11.7-9.3-5.6 10.6-15.2 12.6-21.3 13-24.2-16.5 16.3-20.3-4.4-14-32.9-17.7 11.7-21.4 28.2-36.8 43.8v.4c28.1-10.5 3-6.3 12.4 9.2l-2.2-.7c-3.5-4.1-6.8-6-10.3-6.8q0-.9.1-1.7l-.6.2.6-.6a53.9 53.9 0 0 0-.8-9c-1.8 6.6-4.9 9.3-6 10.9-9.4.9-20.6 5.8-37.6-1.1 10.9 15.6 15.8 21.5 18 23.4-6.7-1.8-16.4-1.2-20.6 6.5a40.8 40.8 0 0 1-5.5-2.2c-3.4-6.5-4.5-6.4-2.9-1.7A28.4 28.4 0 0 1 52 82.6c-6.3 8.7-5.8 17.9-1.5 23.2l-1.2 4.6c-.8-.6-1.9-1.1-1.5-4.9-5.6 12.1-4.9 17.8-1.4 17.1l-.5 1.9.9-2c2.4-.8 5.8-4.3 9.4-10.6-10.2 25.2-13.9 31.5-19.4 34.4-1.1-2.2-2.5-3.1-4-3a38.8 38.8 0 0 0 .3-6l-1.5 6.3c-2.7.9-5.9 4-9.8 8l-.5.2v.2l-5.4 5.4a25.6 25.6 0 0 0 8.9-1.7 25.7 25.7 0 0 0 3.5 2.5c-1.8 11.5-1 19.3 5.6 23-5.8 6.6-6.3 22.9 2.1 29.6 12.8-14.1.2.5 10-16.8 2.6 34.6-13.3 34.9 6.6 20.6-12.5 23.3-4.9 21 7.5 38.5a76.6 76.6 0 0 0 12.2-.4c-2.4 2.4 1.2 5.8 2.4 12.1 5.6-3 16.9-.3 27.6-2.6a73.4 73.4 0 0 0 7.8 11.3c2.5-5.8 10.6-12.4 17.4-14.9l1.1-.3 2.5 1.6.2-.4 4.9 2.5c-1.2.1-2.9-.7-5.1-2.1-3.1 6.8-6.6 16.5-13 22.1a76.2 76.2 0 0 1-8-8.4c-1.8 4.2-.6 8.1 6.2 9.8a17.1 17.1 0 0 1-3.4 1.9c12.5 9.5 19.6 7.7 12 3.6 37.2 13.6 29.4 3.4 40.6 5.2-10.6 16.9-6.8 12.1-6.3 10.8 7.3 9.5 13.2-.6 29.1 7.3-14.9-3.6-4.9-.4 1.6 1.6-2.1-4.9-7.3-12.1-20.4-15.8 28.8 1 37.1 2.4 46.5 6.3-5-10.1-8.9-23.9-15.5-32a33.1 33.1 0 0 1 14.4.6 12 12 0 0 1-1 5.1c1.2 2.6 4.6.8 7.9-2.6 1.5.7 1.8.7.8-.9l.7-.8c8.1 6.3 6.8 2.9 2.4-3.3 2.1-3.3 3.5-6.8 3.1-9.2 5.3 1.7 6 .7 5.6-1.8 20.6 2.6 18 4.8 19.3-3.4 8.3 4.2 21.1-.4 36.1 3-3.5-6-4.4-17.9-5.2-30 2 1.3 4.6 2.6 7.3 4 1-6.3 7.1-14.7 9.5-16.3-.6-18.3-6.8-10.6 6.2-11.2-11.6-15.9-8.9-14.5-19.6-26.2-1 9.1-4.9 5.3-5.7-11.3-2.4-3.7-4.7-10.5-4.1-21.4 9.4 5.1 18.3 11.9 17.6 31.6 27.1-32.9 12.8-44.2 7.7-42.1 14.3-20.5 4.3-16.4.7-4.1-7.3-1.6-4.9-16.5-16.1-24.1 27.9 7.8 12.5-12.8 7.3.7-16.4-18.8-10.4-23.7 6.8-21.8l4.7 4.3a9.6 9.6 0 0 0 1.3-3.4c2.8-14-27.4-26.7 1.9-26.1zM209.8 179.2a33.5 33.5 0 0 0 1.5 9.6 67.8 67.8 0 0 0-5 7.1c.4-2.4.9-5.2 1.5-8.4-1.2 3.6-2.3 6.8-3.3 9.6l-5.5-.9c-1.4-2.7-5-4-10.2-13.8-.6 1.6-1.2 3.2-1.6 4.7a58.9 58.9 0 0 1-7.2-17.4 14.7 14.7 0 0 0 6.2 4l-.5 1.9-1.9 1 1.8-.5c-.3 1-.6 2-1 3.2l6.7-5.2c3.9-1.6 6-3.2 6.8-5 2.5-1.6 4-2.2 5.1-1.9l-.2-.3a28.1 28.1 0 0 0 7.4-2.6v-1.6l.4 1.4-.5.2c-.3 4.2-.8 9.4-.6 14.4l-2.1-3.6a43.4 43.4 0 0 0 2.2 4.1zm-47.2-62.8l1.3-2.5c.3 1 .6 2 .9 2.9l1.8.2a11.9 11.9 0 0 0-.9 2c1 2.4 2.2 4.9 3.4 8.2l-4.2-4.5a28.4 28.4 0 0 0-.1 4c-4.3-1.8-4.8-3.8-3.2-7.8l3.3 3.8a15.8 15.8 0 0 1 .8-3.7l-.9-2.2zm18.9 26.6a153.5 153.5 0 0 0 18.5 6.2l-8 7.8a80.9 80.9 0 0 1-10.5-14.1zm22.1 19.4l-1.5 2.3c-1.6-3.6-.4-3.1 1.4-2.4zm-16.5 45.2l-.2-.2h.1v.2zM173 224.5l.4.5-1.1 1.1zm24.6-12a88.8 88.8 0 0 0 2.1-12.1 14 14 0 0 0 3.1 1.2 82.3 82.3 0 0 1-5.2 10.8zm-11-6.1c-9.8-13.2-7.9-14.7-.8-13.3-1.1 6.6-.2 10.9.8 13.3zm-54.6-86a22.1 22.1 0 0 1 10.1 6.6 35.2 35.2 0 0 0 1.9 10c-4.8-6.2-8.7-12.3-12-16.6zm10.3 2.3l-1.1-3.1 1.4 1.5q-.2.8-.3 1.6zm24.3 108c-7.1 1.6-10.6-1-15.7-.6 3.4-4.7 8.8-3.2 15.6.6zM150.4 95.8l12.3 3.2a48.6 48.6 0 0 0 .8 13.5c-2.4 2.6-4.5 4.6-6.2 6.1-3.6-6.5-8-7.3-11.2-4.5-.3-21.5 6.9-6.1 4.3-18.3zm-56.7-3.6l-1.4-.6c.2-.6-.3-2.1 1.4.6zm159.6 163.3zm20.2-107.8a48.6 48.6 0 0 0-5-6.7c2.3 1.4 4.9 2.7 7.4 4z"/><path class="c" d="M211.3 65.8c-5.4 2.4-2.9 4.9 2.7 7.4l1.4-1.7c-2.6-1.5-3.8-3.1-4.1-5.7zM26.7 251l-7.4-.5c2.6.3 5.1.5 7.4.5zM72.8 279.7c2.9-6.4 3-11.3 2.3-15.1-3.5 1.9-4.8 6-2.3 15.1zM64 258.1c-1.2-1.9-2.3-3.6-3.5-5.2h-.6a60.6 60.6 0 0 1 4.1 5.2zM4.3 166.7a73.6 73.6 0 0 0 11.8-9.5c-7.4.4-14-.1-11.8 9.5zM26.7 251c15.8 1.1 26.2 1.7 33.3 1.9-9.1-10.2-11.8-1.3-33.3-1.9zM304.3 239c-2.7-1.7-7.6-3.9-12.2-6.2-.8 5.1 1.7 8.8 12.2 6.2zM282.5 165c0 1 .1 1.9.1 2.9 4 6 8.3 3.6-.1-2.9zM299.4 262a46 46 0 0 0-9.3-3.2c2 3.5 4.9 4.9 9.3 3.2zM167.7 56c1.3-1.2 2.6-2.7 4-4.3-4.6 2-3.5 1.5-4 4.3zM191.3 316.8c0 2.6.4 2.1 0 0zM191.3 313.8l-1.1-.4a17.9 17.9 0 0 1 1.1 3.3c-.1-.7 0-1.6 0-2.9zM238 313.9c-10.4-4.5-16.2-7.7-21.7-10 5 10.1 11 16.6 21.7 10z"/></symbol></defs><title>tree</title><path class="d" d="M754.7 745.9c0 13.4-123.3 11.3-275.5 11.3s-305.5 3.4-305.5-11.3 153.3-11.3 305.5-11.3 275.5-2.1 275.5 11.3z"/><use width="338" height="346.1" transform="matrix(.04 .35 .35 -.04 396.49 642.23)" xlink:href="#a"/><use width="338" height="346.1" transform="matrix(-.37 .06 .06 .37 597.25 621.71)" xlink:href="#a"/><path class="e" d="M410.8 666.1l-11.4-10.6L388 673l-5-9.6v78.8c0 3.1 10.9 5.6 24.3 5.6s24.3-2.5 24.3-5.6v-87.7l-9.3 11.8z"/><path class="f" d="M431.5 746.3c0 2.3-5.8 4.2-14.2 5.1a95.6 95.6 0 0 1-10.1.5c-13.4 0-24.3-2.5-24.3-5.6v-78.9l5 9.6 11.5-17.5 7.9 7.3 3.6 3.3 11.4.2 9.3-11.8v87.6z"/><path class="g" d="M373.8 609.7c-9-73.5-16.5-179.1 33.4-241.6-41 65.7-21.9 166.7-4.8 236.2z"/><path class="f" d="M269.2 351.3l60.3 165.6c-36.4-37-79.7-67.3-127.7-74.1 57.7 13 105.3 60.8 141.3 111.6l41.5 114 8 7.4 4.8-20.4 14.4 6 10.8-3.7 4.7-14.2-112.4-308.8z"/><circle class="h" cx="400.1" cy="569" r="26.4"/><path class="i" d="M400.1 542.6a26.4 26.4 0 1 0 26.4 26.4 26.4 26.4 0 0 0-26.4-26.4zm0 43.2a16.9 16.9 0 1 1 16.8-16.8 16.9 16.9 0 0 1-16.8 16.8z"/><path class="j" d="M400.1 552.1V409.9"/><use width="338" height="346.1" transform="translate(0 205.3)" xlink:href="#a"/><use width="338" height="346.1" transform="rotate(-43.1 410.292 88.416) scale(1.07)" xlink:href="#a"/><use width="338" height="346.1" transform="matrix(1.04 .24 -.24 1.04 72.47 -37.73)" xlink:href="#a"/><use width="338" height="346.1" transform="matrix(.69 -.65 .65 .69 180.81 226.06)" xlink:href="#a"/><path class="c" d="M247.2 99.8l1.5.8.6-.5zM429.7 411.2c1.9 2 1.9 1.3 0 0zM427.6 408.8l-1.2.6a19 19 0 0 1 3.2 1.8zM333.9 84.4a106.4 106.4 0 0 0 3.4 17.4c5.3-2 13.3-5.1-3.4-17.4zM237.2 4.4a11.6 11.6 0 0 0 .6-4.4c-.3 1.5-.5 3-.6 4.4zM184.9 51.2c1.6-3.6 1.7-9.3-.7-17.9-3.8 5.7-2.2 12.3.7 17.9zM519.5 133.9a4.5 4.5 0 0 0-2.5.4c4.3 2.8 6.9 3 2.5-.4zM400.7 94.2a94.5 94.5 0 0 0 14.5 6.2c1.2-4.9 2.9-12.4-14.5-6.2zM535.8 270.2l-.5-4.7h-1c.7 2.9 1.3 4.8 1.5 4.7zM541.6 265.3a12.9 12.9 0 0 1-5.1.3c1 2 2.7 3.5 5.1-.3zM535.3 265.5h1.1c-1.3-2.4-1.7-5.7-1.1 0zM542.6 263.5l-1 1.8c1.5-.6 1.1-1.6 1-1.8z"/><path class="k" d="M515.7 166.5c2.8-5.8 2.7-9 .6-11.1 0-1.8-.1-3.8-.3-6-.3 1.6-.8 3.2-1.3 4.9a23.8 23.8 0 0 0-5.4-2l6.5-5.2c10.1.2 10.7-1.9 8.6-4.5a24.1 24.1 0 0 0 9.2-7.7c-3.1 1.9-6.5 4.2-10.1 6.7-2.9-2.9-8-6.1-6.5-7.2-4.3-2.9-10.4-8.4-12.6-15.6l.9-1.5-.9 1.3a19.2 19.2 0 0 1 1.1-13.9c-8.2.2-12.2 2.7-13.7 8-2.2-3.9-5.2-5.9-7.3-8.2l6.3-1.7a23.1 23.1 0 0 0-8.7-2.6c-.5-2-.3-4.6.9-8.2-1.7 3.1-3.2 5.7-4.6 8a97.7 97.7 0 0 0-10.2.4l.3-.7c-9.2-1.3-14.2-.6-16.5.9a10.9 10.9 0 0 1-6.6-3.4 57.9 57.9 0 0 1 5.3 7.8l.4.7.4 1a13.1 13.1 0 0 0-4.1 1.6l-2.3-.5c-1.5-6.5-4-6-7-3.3-3.6-3.6-.2-8.6 7.7-14.5h6.1a9.2 9.2 0 0 0-1.3-3.2l.2-.2h-.3c-1.6-2.5-4.4-3.8-7.5-4.7.2-1.1.3-2.2.4-3.4a34.6 34.6 0 0 0-2.2 3c-10-2.1-21.4-.1-6.3-13.6-38.2 13.6-32.6 29.6-9.3 17.9-2 7.2-4.9 12-8.3 15.2l-2.1-.6a15.2 15.2 0 0 0-.5 2.6c-6.1 4-13.5 3.4-20.7 1.2 1.8-2.3 1.6-4.3-1.9-5.5a32.5 32.5 0 0 1-2.4 3.9c-2.8-2-5.6-4-8.1-5.6 2.5-2.6 4.6-5.7-1.4-.8a24.8 24.8 0 0 0-4-2 10.5 10.5 0 0 0 .1 3.1c-34-23.5-43.8-8.8-19 5.1-8 2.6-14.3 3-19.4 1.8l-.8-2.3a16.4 16.4 0 0 0-2.7 1.2c-7.6-3.2-11.7-10.4-14.2-18.5 3.3.2 5-1.2 3.9-5.2a37.2 37.2 0 0 1-5.1.2v.2-.3c.1-3.9.2-7.7.1-11.1 4 .8 8.2.7-.1-1.8a27.2 27.2 0 0 0-.7-5 16.7 16.7 0 0 0-5.3 4.9c-3.5.3-9.9 1.6-13.2 9.8-5.7-3.2-10.4-6.4-11.3-7.4.7 2.4-6.8-16.3-3.9-14.4 10.3-23.1-19.3 6.6-16.4 4.5 4.4 4.5 4.7 7.3 2.3 9a18 18 0 0 0-1.5-4.9 38.3 38.3 0 0 1 1.3 5l-1.3.6c-1.4-2-2.5-1.5-3.1.8l-4 .4c2.5-12.3 5-22.9 10-20.5-21.7-23.9-26.7-10.4-45.5-11l-5.5-2.3.2-.5c25.2-3.1 12.7-4.2 15.9-31.2-1.9 6.6-7.6 17.3-13.2 24.5q1.3-3 2.7-6.1a59.6 59.6 0 0 0-13.8 7.3l-5-6.7c1.3 2.9 2.4 5.5 3.3 7.9a159.7 159.7 0 0 0-14.3 12.8c-4.9-.3-6.6 2.2-6.5 6l-4 3.4-1.2-2.3a10.5 10.5 0 0 1-.8 1.6l220.3 605.6 7.2 3 10.8-3.7 4.7-14.2-38.7-106.6c-3.8-24.3-6.2-49.5-5.7-74.2 3.5 2.5 4 3.9.1-3v-1.3l2.9 2.5a75.4 75.4 0 0 0 .9-16.1c9.6 7.9 19.5 15.9 30.8 20.5-31.2-37.3-20.4-27.6-15.4-28.3l3.5-.3a6.6 6.6 0 0 1 .1 1l.2-1.1c4.4-.5 6.7-1.3 7.8-2l.3.5v-.7c1.3-1.1.4-2-.2-1.9a81.2 81.2 0 0 0-2.1-12.9 80.5 80.5 0 0 0 9.8-2.9l-5-1.4a82.9 82.9 0 0 0 14-1.8l-5.8-3.5 1.7-.8a23.8 23.8 0 0 0-5.8-1.7l-4.1-2.3c.6-.6.5-.7-.9-.4s-3.8-.8-4.8 1.1h-.4l1.3-2.3c4-2 7.3-3.8 10-5.4 3.4 3.5 9.3 6.4 18.7 8.2a51.1 51.1 0 0 0-15-10.6c5-3.5 7.1-6.2 7.3-9a12.9 12.9 0 0 0 2.8-.2 29.5 29.5 0 0 1-3.3 3l3.8-2.1c.2 1.2.4 2.3.7 3.5 1.9-2.4 3.7-4.8 5.2-7l.5-.3c8.3 2.8 15.4 3 19.4-3.7l3.7 1-3.3-1.9a21.9 21.9 0 0 0 1.7-4.4L458 377l-3-1.5c6.5-4.3 7.4-3.2 18.9 3.3-4-7.6-6.6-12.6-8.1-15.9a16.1 16.1 0 0 0-6.3 1c1.2-2 2.4-4 3.6-6.1l.7-.4a24 24 0 0 0 2.1 5.6c11.5.6 17.3 13.3 9.3-.9l3.8 3.4a66.1 66.1 0 0 0 .8-14.3c8.5 7.1 17.4 14.1 27.4 18.2-27.7-33.2-18.2-24.5-13.7-25.2l3.1-.2a8.5 8.5 0 0 1 .1.9l.2-1c3.9-.4 5.9-1.1 6.9-1.8l.2.5v-.6c1.1-.9.4-1.8-.2-1.7a73.1 73.1 0 0 0-1.9-11.5 71.4 71.4 0 0 0 8.7-2.6l-4.4-1.3a72.9 72.9 0 0 0 12.5-1.6l-5.1-3.1 1.5-.7a21.2 21.2 0 0 0-5.2-1.5l-3.6-2c.6-.5.4-.6-.8-.3s-3.4-.7-4.3 1h-.4l1.1-2.1c3.5-1.8 6.5-3.4 8.9-4.8 3.1 3.1 8.3 5.7 16.6 7.3a45.6 45.6 0 0 0-13.3-9.4c4.5-3.1 6.3-5.5 6.5-8a9.6 9.6 0 0 0 2.8-.3c.2 1.3.4 2.7.7 4 1.8-2.3 3.5-4.5 4.9-6.6 9.1 3.1 16.5 2.8 19.4-7.9-8.1 2.9-13.6 4.5-18.2 6 3.8-6.3 3.6-9.9-7.8-4.1l.4 3.5-3.8-1.7 3.4-1.8a72.4 72.4 0 0 0-1.7-10.5c12.9-10.6 6.9-9.4 2.3-17.1l6.2 1.4 1 1-.3-.9 4.5.7a72.3 72.3 0 0 1-1.8-14.3 7.7 7.7 0 0 1 3.3-2.2c7-11.2 10.8-11 14.3-12.4a64.6 64.6 0 0 1-4.2-13.7c1.4-1.4 3.1-3.2 4.8-5.2 2.7.2 4.9-1 6.4-4.2L553 215l4-4.8c-6.6 4.4-11-2.2-16.7-10 1.6-.9 3.5-2.8 5.5-5.8-2 .4-5 1.3-8.1 2.3a49.8 49.8 0 0 0-6.8-7.4l-.5.8-.3-1.5.8.7c1.3-2.4.8-2.9-.9-1.2a28.1 28.1 0 0 1-.6-6.8c5.5-8 10.9-16.2 13-22.2-5.1 1.9-13.7 5-21.3 8.6zM190.8 59.4l-.2-.2.2.2zm177.8 423l-1.7-4.6 2 .6c0 1.3-.2 2.6-.3 4zm.4-4.6l-2.6-1.5-2.4-6.6a8.4 8.4 0 0 1 5.8.7l-.8 7.4zm2.3-19l-.3-.7a18.1 18.1 0 0 0-7.1 1.1c1.3-2.2 2.8-4.5 4.1-6.9l.7-.4a27.2 27.2 0 0 0 2.4 6.2h.4v.6zm52.7-49.6l-.4.2h-.1zm11.1-28.2l-4.2-1.9 2.8-1.5 1.3 1.5zm-86.8-256.9l.3 1.8-.8-.2a6 6 0 0 1 .5-1.6zm8.9 8.4a15.9 15.9 0 0 0-4.3-1.3 32.9 32.9 0 0 1 4.3 1.5 7.6 7.6 0 0 1-.1 1v.3c-2 0-2.2 1-1.1 2.5l-.7 1.4-.4.8-.6 1-5-5.3c1.9-2 2.8-3.6 3-4.8 3.4-.3 4.9.8 4.9 2.9zm92.4 247.2v-.5l3.6-2.5 2.3 1.1zm-72.3-279.2c-1.5 2.8-3.8 8.1.6 14.6l-5.5 2.6-.5-1.5 3.5-1.8-4.2-.2c-4.1-10.2-12.5-19 5.6-15.2zm135.6 218.9l-.4.2h-.1zm-44.5-207.6c-2.2-3.6.2-4.4 5.6-5.4-2.6 3.4-4.4 5-5.6 5.4zm14.9-8.8v-.5zm19.1 43.5c.4-1.1.8-2.4 1.3-4l-2.7 1.8c-1.2-3.6 6.6-1.8 11.2.2-3.3.2-5.9.9-7.5 4.6a28.3 28.3 0 0 1-2.4-2.6z"/><path class="c" d="M557 229.1c-2.6 5.1-4.7 6.5-6.8 7.4 2.9 6.3 6.1 6.9 6.8-7.4zM556.9 210.2c2.9-1.9 6.2-5.9 10.2-12.8zM530.1 265.6c1.4 3.4 4.3 7.2 9.4 11.1a125.7 125.7 0 0 0-9.4-11.1zM542.6 158.1l-.3 1c5.1-1.9 6.7-2.5.3-1zM517.9 321.1c1.7 1.8 1.7 1.2 0 0zM516 319l-1 .5a16.9 16.9 0 0 1 2.9 1.6z"/><path class="k" d="M431.5 746.3c0 3.1-10.9 5.6-24.3 5.6v-85.1l3.6 3.3 11.4.2 9.3-11.8v87.6z"/><use width="338" height="346.1" transform="rotate(59 -369.205 642.174) scale(.33)" xlink:href="#a"/></svg>