<svg height="40" width="40" xmlns="http://www.w3.org/2000/svg" viewBox="0 0 40 40"><path fill="#fff" fill-rule="evenodd" d="M38.56 20.43c-1.32-.02-.97-1.39-1.09-2.3C36.2 8.29 31.61 3.64 21.64 2.14c-.82-.12-2.08.05-2.01-1.02.09-1.58 1.58-.99 2.3-1.1C31.5.34 39.74 8.93 39.62 18.2c-.01.91.32 2.26-1.06 2.23zM24.16 9.54c2.72-.07 5.92 3.14 5.88 5.91.02.76-.06 1.56-.97 1.67-.66.07-1.1-.47-1.17-1.14-.25-2.47-1.57-3.93-4.1-4.33-.75-.12-1.5-.35-1.14-1.36.23-.67.86-.73 1.5-.75zm-3.01-3.95c.22-1.31 1.48-.86 2.45-.75 6.14.73 11.16 5.96 11.11 11.7-.09.68.31 1.85-.81 2.01-1.51.23-1.22-1.13-1.36-2-1.02-5.99-3.16-8.18-9.31-9.53-.91-.2-2.32-.06-2.08-1.43zm.73 22.53c1.6.71 3.13.64 4.22-.99 1.95-2.89 4.33-2.75 6.94-.95 1.31.9 2.64 1.78 3.88 2.76 1.69 1.34 3.83 2.45 2.82 5.25-1.05 2.91-4.69 5.84-7.79 5.81-.44-.12-1.3-.25-2.07-.58C16.25 33.67 6.35 24.24.73 10.69-1.16 6.15.81 2.32 5.57.75c.85-.28 1.68-.3 2.52 0 2.03.74 7.16 7.66 7.28 9.74.08 1.59-1.02 2.45-2.11 3.18-2.07 1.37-2.08 3.12-1.19 5.06 1.99 4.4 5.4 7.42 9.81 9.39z"/></svg>