<svg height="42" width="40" xmlns="http://www.w3.org/2000/svg" viewBox="0 0 40 42"><path fill="#cbcbcb" fill-rule="evenodd" d="M20.29 40.18c-5.48 0-9.5-2.43-9.5-2.43L-.01 41.2l3.45-10.49S.58 25.89.58 20.49C.58 9.62 9.4.8 20.29.8s19.72 8.82 19.72 19.69c0 10.88-8.83 19.69-19.72 19.69zm0-36.23c-9.14 0-16.56 7.41-16.56 16.54 0 5.35 3.23 9.81 3.23 9.81l-2.02 6.02 6.23-2.03s4.05 2.74 9.12 2.74c9.15 0 16.56-7.4 16.56-16.54 0-9.13-7.41-16.54-16.56-16.54zm4.39 25.74c-1.18-.33-5.07-1.35-7.62-3.71-2.54-2.37-4.6-4.86-5.44-6.7-.84-1.84-.79-2.93-.75-3.44.05-.52.32-2.9 1.92-3.92 0 0 .53-.34.81-.34h1.55s.42.08.61.51 1.5 3.51 1.59 3.74c.1.24.36.82-.05 1.35-.41.53-1.26 1.51-1.26 1.51s-.34.3-.05.78c.3.49 1.32 2.08 2.67 3.29 1.35 1.2 2.99 2.09 3.82 2.36.82.27 1-.09 1.31-.5.32-.4 1.3-1.64 1.3-1.64s.33-.49 1-.19c.66.3 3.89 1.86 3.89 1.86s.4.07.42.51c.02.44.29 1.75-.88 3.01-1.17 1.26-3.66 1.85-4.84 1.52z"/></svg>