<svg height="35" width="23" xmlns="http://www.w3.org/2000/svg" viewBox="0 0 23 35"><path fill="#fff" fill-rule="evenodd" d="M10.87.01c-.46 0-.92.02-1.38.07-1.96.2-4.59.73-5.96 2.13-.64.65-.92 2.9-.49 3.95.27.67.74.77 1 .77.15 0 .31-.03.47-.1.49-.2.94-.47 1.37-.72.38-.23.73-.44 1.11-.61 1.08-.49 2.08-.77 3.03-.86.28-.02.57-.04.86-.04 1.28 0 3.03.28 4.08 1.62 1.08 1.37 1.08 3.46.03 4.96H1.26c-.76 0-1.27.82-1.27 2.04 0 1.2.51 2.01 1.27 2.01H8.5c-1.72.83-3.43 1.75-4.85 3.11H1.26c-.76 0-1.27.81-1.27 2.02 0 1.2.51 2 1.27 2h.03c-1.26 4.78 1.37 9.95 6.1 11.75 1.55.59 3.26.89 5.08.89.74 0 1.5-.05 2.24-.15 1.29-.18 2.55-.5 3.74-.98l.1-.04c.94-.37 2.22-.88 2.84-1.83.46-.7.6-1.7.41-3.08-.16-1.22-.91-1.35-1.23-1.35-.36 0-.77.15-1.21.45-1.91 1.31-4.09 2.1-6.12 2.24-.26.02-.53.03-.79.03-1.71 0-4-.39-5.24-2.26-1.15-1.74-1-4.09.33-5.67h14.18c.77 0 1.28-.81 1.28-2.01 0-1.21-.51-2.01-1.28-2.01h-7.16c1.48-.77 2.91-1.68 4.07-2.9l.19-.21h2.9c.77 0 1.28-.81 1.28-2.02 0-.48-.09-.93-.25-1.28-.31-.65-.77-.75-1.03-.75h-.84c.86-4.22-1.12-8.41-4.86-10.11C14.49.37 12.7.01 10.87.01"/></svg>