<svg height="34" width="23" xmlns="http://www.w3.org/2000/svg" viewBox="0 0 23 34"><path fill="#fff" fill-rule="evenodd" d="M21.85 21.34H7.28c-1.57 1.65-1.83 4.2-.62 6.16 1.32 2.13 4.03 2.7 6.37 2.58 2.29-.11 4.53-.95 6.46-2.16.88-.55 1.79-.95 1.98.43.14.98.18 2.35-.65 3.06-1.62 1.4-4.15 2.02-6.23 2.28-2.49.31-5.14.1-7.48-.86C2.69 31 .17 25.94 1.78 21.34h-.66c-1.12 0-1.1-3.06.07-3.06h2.54c1.91-1.86 4.44-2.88 6.82-3.99H1.12c-1.09 0-1.03-2.68-.2-3.04.24-.11 11.43-.04 14.34-.04 1.28-1.59 1.41-4.04.1-5.66-1.3-1.62-3.58-1.92-5.52-1.72-2.15.22-3.68 1.41-5.6 2.18-1.42.58-1.25-2.94-.7-3.6C4.69 1.04 7.25.54 8.93.3c2.14-.31 4.41-.11 6.44.66 4.18 1.58 6.21 5.97 5.04 10.25h1.44c1.15 0 1.15 3.08-.23 3.08h-2.91l-.33.35c-1.62 1.66-3.77 2.72-5.88 3.64h9.35c1.11 0 1.11 3.06 0 3.06z"/></svg>