<svg height="38" width="34" xmlns="http://www.w3.org/2000/svg" viewBox="0 0 34 38"><path fill="#fff" fill-rule="evenodd" d="M15 38.01c-4.09 0-7.87-1.31-10.97-3.51C6.16 35.46 8.51 36 11 36c9.39 0 17-7.61 17-17 0-9.38-7.61-17-17-17-2.48 0-4.84.55-6.97 1.51C7.13 1.31 10.91.01 15 .01c10.5 0 19 8.5 19 19 0 10.49-8.5 19-19 19zM22 19c0 6.08-4.92 11-11 11-6.07 0-11-4.92-11-11C0 12.93 4.93 8 11 8c6.08 0 11 4.93 11 11zM2 19a9 9 0 1 0 18.001-.001A9 9 0 0 0 2 19zm9 4c-2.21 0-4-1.79-4-4s1.79-4 4-4 4 1.79 4 4-1.79 4-4 4z"/></svg>