<svg xmlns="http://www.w3.org/2000/svg" width="80" height="60" viewBox="0 0 80 60"><path d="M75 2H10.991a5 5 0 0 0-5 5v17.985L0 31.49l5.99 6.505V55a5 5 0 0 0 5 5H75a5 5 0 0 0 5-5V7a5 5 0 0 0-5-5zM58.997 38H28.993v-3h30.004v3zm0-5H28.993v-3h30.004v3zm0-5H28.993v-3h30.004v3z" opacity=".15"/><path fill="#fff" d="M75 0H10.991a5 5 0 0 0-5 5v17.985L0 29.49l5.99 6.505V53a5 5 0 0 0 5 5H75a5 5 0 0 0 5-5V5a5 5 0 0 0-5-5zM58.997 36H28.993v-3h30.004v3zm0-5H28.993v-3h30.004v3zm0-5H28.993v-3h30.004v3z"/></svg>