<svg xmlns="http://www.w3.org/2000/svg" width="74" height="60" viewBox="0 0 74 60"><path fill-rule="evenodd" clip-rule="evenodd" d="M69 60H5a5 5 0 0 1-5-5V7a5 5 0 0 1 5-5h64a5 5 0 0 1 5 5v48a5 5 0 0 1-5 5z" opacity=".15"/><path fill-rule="evenodd" clip-rule="evenodd" fill="#fff" d="M69 58H5a5 5 0 0 1-5-5V5a5 5 0 0 1 5-5h64a5 5 0 0 1 5 5v48a5 5 0 0 1-5 5z"/><path fill-rule="evenodd" clip-rule="evenodd" fill="#8AB71F" d="M47 29c0-5.522-4.478-10-10-10s-10 4.478-10 10 4.478 10 10 10 10-4.478 10-10z"/><path opacity=".2" fill-rule="evenodd" clip-rule="evenodd" d="M37 21c5.185 0 9.447 3.947 9.949 9 .033-.329.051-.663.051-1 0-5.522-4.478-10-10-10s-10 4.478-10 10c0 .337.018.671.05 1 .502-5.053 4.765-9 9.95-9z"/></svg>