<svg xmlns="http://www.w3.org/2000/svg" width="60" height="83.906" viewBox="0 0 60 83.906"><path d="M6 83.406a5.506 5.506 0 0 1-5.5-5.5v-64c0-3.033 2.467-5.5 5.5-5.5h17.881l6.271-5.773a.501.501 0 0 1 .677-.001L37.1 8.406H54c3.032 0 5.5 2.467 5.5 5.5v64c0 3.032-2.468 5.5-5.5 5.5H6zM30.49 3l6.414 5.906H54a5 5 0 0 1 5 5v64a5 5 0 0 1-5 5H6a5 5 0 0 1-5-5v-64a5 5 0 0 1 5-5h18.076L30.49 3m0-1a.997.997 0 0 0-.677.264l-6.127 5.642H6c-3.309 0-6 2.691-6 6v64c0 3.309 2.691 6 6 6h48c3.309 0 6-2.691 6-6v-64c0-3.309-2.691-6-6-6H37.295l-6.127-5.642A.999.999 0 0 0 30.49 2z" opacity=".15"/><path fill="#FAFAFA" d="M6 81.406a5.506 5.506 0 0 1-5.5-5.5v-64c0-3.033 2.467-5.5 5.5-5.5h17.881L30.152.633a.501.501 0 0 1 .677-.001L37.1 6.406H54c3.032 0 5.5 2.467 5.5 5.5v64c0 3.032-2.468 5.5-5.5 5.5H6z"/><path fill="#CBCBCB" d="M30.49 1l6.414 5.906H54a5 5 0 0 1 5 5v64a5 5 0 0 1-5 5H6a5 5 0 0 1-5-5v-64a5 5 0 0 1 5-5h18.076L30.49 1m0-1a.997.997 0 0 0-.677.264l-6.127 5.642H6c-3.309 0-6 2.691-6 6v64c0 3.309 2.691 6 6 6h48c3.309 0 6-2.691 6-6v-64c0-3.309-2.691-6-6-6H37.295L31.168.264A.999.999 0 0 0 30.49 0z"/><path fill-rule="evenodd" clip-rule="evenodd" fill="#8AB71F" d="M30 30.953c5.522 0 10 4.478 10 10 0 5.523-4.478 10-10 10s-10-4.477-10-10 4.478-10 10-10z"/><path opacity=".2" fill-rule="evenodd" clip-rule="evenodd" d="M30 32.953c5.185 0 9.447 3.947 9.949 9 .033-.329.051-.662.051-1 0-5.522-4.478-10-10-10s-10 4.478-10 10c0 .338.018.671.05 1 .502-5.053 4.765-9 9.95-9z"/></svg>