<svg xmlns="http://www.w3.org/2000/svg" xmlns:xlink="http://www.w3.org/1999/xlink" width="290.768" height="146.605" viewBox="0 0 290.768 146.605"><ellipse opacity=".1" cx="145.384" cy="127.724" rx="145.384" ry="18.881"/><linearGradient id="a" gradientUnits="userSpaceOnUse" x1="5.232" y1="83.881" x2="141.052" y2="83.881" gradientTransform="matrix(1 0 0 -1 .04 144.065)"><stop offset="0" stop-color="#cc6b11"/><stop offset=".658" stop-color="#efb85e"/><stop offset=".99" stop-color="#cc6b11"/></linearGradient><path fill="url(#a)" d="M141.092 60.183c0 5.136-30.404 9.301-67.91 9.301s-67.91-4.166-67.91-9.301c0-5.134 30.402-9.3 67.908-9.3s67.912 4.166 67.912 9.3z"/><path fill="#F8A244" d="M137.526 63.941s9.168-3.986 5.572-8.173c-3.596-4.186-13.338 3.894-13.338 3.894l-.967 2.248 8.733 2.031z"/><path fill="#F4CC7A" d="M131.494 70.025a3.225 3.225 0 0 1-3.213-2.972c-2.812-35.704-30.107-51.686-55.912-51.686-25.806 0-53.1 15.982-55.912 51.687a3.227 3.227 0 0 1-6.431-.506c3.117-39.595 34.502-57.63 62.343-57.63 27.842 0 59.227 18.035 62.342 57.63a3.225 3.225 0 0 1-3.217 3.477z"/><path fill="#EFA154" d="M51.41 91.519C43.826 93.48 36.842 76.631 33.199 66.18c-3.644-10.453-13.939-44.815-9.505-50.835 4.437-6.018 15.683 5.226 17.58 15.36 0 0 5.228 5.542 5.701 14.569 0 0 4.908 3.802 4.435 13.146 0 0 4.116 6.49 2.85 13.301 0 .001 6.336 17.422-2.85 19.798z"/><path fill="#F7CE80" d="M40.891 31.09s-3.166-2.218-6.969-1.426c-3.801.793-6.174 6.018-6.174 6.018s6.174-5.383 13.143-4.592zM46.592 45.659s-2.762-2.216-7.479-1.425c-4.715.791-6.301 7.128-6.301 7.128s5.542-6.493 13.78-5.703zM51.026 58.805s-9.502-5.226-13.621 4.75c0 0 4.279-4.118 13.621-4.75zM54.26 71.722s-8.076-2.683-9.658 4.043c0 0 3.008-3.251 9.658-4.043z"/><path fill="#FCAD65" d="M27.748 31.249c-1.861 2.46-4.076-11.79-2.496-14.324 1.586-2.535 6.572-.635 9.065 2.771 2.494 3.404 5.504 8.043 3.604 8.494-1.9.452-6.231-2.156-10.173 3.059zM31.617 47.234c-1.75.347-2.644-10.043 1.194-12.497 3.844-2.451 7.103-2.687 9.357 0 2.463 2.936 3.115 7.05 2.047 7.209-1.068.156-4.529.229-6.758.906-2.228.677-3.754 3.968-5.84 4.382zM36.92 60.498c-2.154.254-4.086-3.921-2.603-7.829 1.486-3.914 9.945-7.409 12.812-5.23 2.869 2.181 3.358 6.623 2.303 8.088-1.057 1.463-5.676-.672-7.563 0-1.89.671-2.468 4.675-4.949 4.971zM41.869 73.01c-1.574.065-4.464-9.933 2.348-12.07 6.811-2.135 8.041 1.277 8.24 4.284.19 3.009-.629 5.014-2.515 4.407s-4.918 3.245-8.073 3.379zM53.68 88.746c-2.604 1.851-10.711-6.734-10.236-9.427.476-2.692 6.599-6.644 9.683-5.353 3.08 1.292 2.664 13.279.553 14.78z"/><path fill="#FFBB71" d="M32.813 26.767c-3.137.297-3.424-3.658-1.194-4.059 2.225-.399 5.512 3.646 1.194 4.059z"/><path fill="#FFBB71" d="M28.735 20.827c-1.893.813 1.563 4.43 2.73 3.198 1.172-1.23-.115-4.326-2.73-3.198z"/><path fill="#FFBB71" d="M32.813 22.025c-1.563.04-1.266-1.495 0-1.198 1.271.293 1.705 1.152 0 1.198zM28.713 24.462a.462.462 0 0 0-.428 0 .52.52 0 0 0-.291.459.51.51 0 0 0 .506.505c.272 0 .506-.23.506-.505a.52.52 0 0 0-.293-.459zM38.887 35.959c-.297-1.139-1.951-2.465-3.027-1.48-.305.275-.366.699-.405 1.085-.021.232.043.444.149.631a.844.844 0 0 0-.227.137c-.33.28-.234.811-.068 1.149a.63.63 0 0 0 .555.315c.097-.003.191-.021.285-.039.353-.068.496-.455.437-.77a.034.034 0 0 0-.004-.012c.473.341 1.145.297 1.668.113.473-.168.77-.616.637-1.129zM37.137 40.212c-.006-.017-.012-.028-.016-.044.02-.16.012-.329-.029-.494-.188-.791-1.09-1.252-1.777-1.519-.52-.197-1.241-.194-1.637.257a1.714 1.714 0 0 0-.613.782c-.342.843.379 1.827 1 2.316.271.211.568.424.904.514.09.026.184.044.279.053.002 0 .002.003.004.003.041.002.106.009.221.021.078.009.15.017.229.018.188.002.397-.025.575-.097.766-.292 1.079-1.037.86-1.81zM38.819 38.894a.445.445 0 0 0 .011-.052c.014-.323-.281-.592-.593-.592-.305 0-.61.269-.59.592.017.231.101.55.336.662.252.118.463.089.681-.082.153-.121.198-.342.155-.528zM46.561 50.099c-.254-.381-.619-.616-1.018-.796-1.021-1.222-3.408-1.664-3.717.348-.021.136-.029.27-.029.403a2.428 2.428 0 0 0-.164-.194.72.72 0 0 0-1.021 0c-.034.047-.071.094-.106.139a.447.447 0 0 0-.078.175c-.004.013-.008.027-.014.041a.424.424 0 0 0-.015.117v.021a.703.703 0 0 0 .06.301.555.555 0 0 0 .305.443c.127.178.353.29.564.29a.673.673 0 0 0 .614-.397c.236.702.736 1.313 1.427 1.639.973.464 2.563.606 3.207-.471.379-.639.397-1.439-.015-2.059zM40.924 53.753c-.074-.428-.475-.799-.824-1.022a1.618 1.618 0 0 0-.914-.264.943.943 0 0 0-.207-.106c-.434-.15-.92.063-1.229.364-.328.319-.496.847-.336 1.289.223.609.778.91 1.366 1.097.531.165 1.095.254 1.609-.018.5-.26.625-.83.535-1.34zM46.455 63.093c-.695-.084-1.381.461-1.771 1.04-.178-.447-.508-.813-1.029-.9-.629-.108-1.094.181-1.444.615a1.985 1.985 0 0 0-.238.286c-.145.212-.258.46-.338.728-.047.113-.092.221-.131.329-.244.645-.303 1.633.246 2.07.082.194.182.374.303.529.492.639 1.404.389 1.869-.117.25-.271.434-.576.572-.899.625 1.411 2.493.679 3.198-.341.855-1.232.371-3.142-1.237-3.34z"/><path fill="#FFBB71" d="M48.571 64.747c-.448 0-.581.586-.221.814a.39.39 0 0 0 .441 0c.36-.228.23-.814-.22-.814zM52.453 77.69a1.886 1.886 0 0 0-.14-.418 2.755 2.755 0 0 0-.217-.693c-.166-.374-.471-.721-.836-.997a2.262 2.262 0 0 0-1.045-.785c-.748-.271-1.828.131-2.219.819-.291.521-.16 1.065.121 1.53a.84.84 0 0 0-.142 0c-.274.029-.51.209-.51.509s.234.48.51.511a.567.567 0 0 0 .418-.111.45.45 0 0 0 .06-.048c.002-.001.006-.003.008-.008-.001.001-.001.004-.003.004a.482.482 0 0 0 .143-.259c.32.315.767.631 1.24.85.359.256.752.45 1.147.533.973.206 1.653-.479 1.465-1.437z"/><g><path fill="#D3D3D3" d="M77.377 73.948s19.877-32.228 23.119-34.591c3.241-2.362 9.414-2.109 10.373-2.309s6.414-7.226 7.157-8.621c0 0-1.383-1.722-.391-2.749.994-1.03 2.441-1.563 7.428 1.494s6.918 5.236 5.779 6.934c-1.143 1.695-4.061.426-4.061.426s-5.566 8.128-5.837 8.911c-.27.785 2.505 6.349 1.943 9.485-.557 3.137-20.957 34.748-22.172 36.364-1.211 1.614-21.725-1.021-23.338-15.344z"/><path fill="#EAEAEA" d="M79.147 73.747s18.441-31.181 21.687-33.543c3.242-2.364 9.336-1.757 10.297-1.954.957-.199 7.024-8.168 7.768-9.563 0 0-1.153-.981-.469-2.237.543-.984 1.07-1.884 6.055 1.176 4.986 3.06 6.996 4.237 5.857 5.934s-4.301.232-4.301.232-6.176 8.54-6.447 9.323c-.27.785 2.547 6.624 1.986 9.761-.56 3.137-20.259 34.026-21.472 35.644-1.215 1.611-19.344-.455-20.961-14.773z"/><path fill="#FFF" d="M99.606 42.133S80.389 71.035 79.147 73.746c-1.244 2.709 4.672 8.671 7.357 10.604 2.688 1.935 11.334 3.638 12.94 3.147 1.603-.488 20.104-31.196 20.935-33.283.83-2.088.459-4.72-1.014-5.526-1.476-.807-4.339-.983-5.354-1.373-1.016-.389-.309-3.136-2.082-3.842-1.771-.706-3.285 1.291-4.412.85-1.131-.442-.664-1.537-2.762-2.732-1.421-.815-4.306-.611-5.149.542z"/><path fill="#A0A0A0" d="M118.877 29.282s2.518 3.345 7.135 5.219c0-.001-5.9-1.612-7.135-5.219z"/><path fill="#FCB77E" d="M120.307 25.753s1.769-3.993 2.113-4.396c.346-.398 11.195 5.988 10.988 6.695-.205.703-3.261 4.157-3.261 4.157s-7.981-2.438-9.84-6.456z"/><path fill="#FFF" d="M125.143 32.388c-.246-.554-.717-.777-1.215-1.104a14.525 14.525 0 0 1-1.867-1.479c-.99-.911-1.646-2.161-2.678-3.011-.262-.219-.562.108-.525.372.188 1.458 1.543 2.76 2.574 3.71.861.795 2.23 2.166 3.482 2.015.239-.028.313-.319.229-.503zM104.852 39.337c3.099-.281 5.887.717 8.125-1.67 1.342-1.435 4.037-6.006 4.914-5.963.875.044 1.781 1.188 1.519 1.813-.267.624-4.867 6.773-5.211 7.315-.343.54-5.351 1.92-6.373 1.245-1.027-.68-2.019-1.997-2.974-2.74z"/><path fill="#FFCEA9" d="M120.918 25.775l1.631-3.217s4.746 2.241 6.949 3.584c2.205 1.343-.668 4.255-.668 4.255s-4.3-.862-7.912-4.622z"/><path fill="#9B511B" d="M120.307 25.753s1 3.39 9.842 6.456c0 0-3.922-.883-6.614-2.659-2.695-1.78-3.228-3.797-3.228-3.797z"/></g><g><path fill="#24630D" d="M89.946 23.191c-2.186-.5-3.198.007-4.323.905-1.121.898-4.15 8.836-6.261 12.73-2.108 3.896-6.942 16.07-7.2 22.409-.263 6.344.936 12.135 2.346 13.454 1.41 1.322 3.9 2.487 5.543 2.729s6.918-.28 7.615-2.771c.696-2.489.106-18.97 1.09-22.859.979-3.888 7.744-20.464 7.207-21.985-.535-1.519-2.334-3.767-6.017-4.612z"/><path fill="#327214" d="M90.729 26.315c-2.162-.918-3.797.376-6.598 5.563-2.803 5.188-7.6 19.819-7.732 22.151-.135 2.333-.473 14.333-.006 15.803.467 1.467 5.338 2.855 6.492 1.893s1.564-19.152 1.58-21.43c.014-2.274 2.713-8.937 4.521-12.858 1.807-3.92 4.333-10.02 1.743-11.122z"/><path fill="#21540B" d="M81.615 73.596s3.489-.884 3.778-2.043c.285-1.158.769-18.453 1.457-22.206.689-3.754 5.094-13.809 5.605-15.378.514-1.568 2.063-4.447 1.75-5.651l-1.863-2.932s3.398 1.271 3.619 2.416c.221 1.145-7.219 20.628-7.437 23.314-.217 2.684-.08 21.275-1.205 22.226-1.125.952-5.43 2.591-7.116 2.097-1.687-.498 1.412-1.843 1.412-1.843z"/><path fill="#85D348" d="M91.076 20.416s-2.164-.913-2.617-.534c-.453.378-1.865 3.557-1.865 3.557s2.715 1.036 3.096 1.021c.379-.019 1.121-.433 1.121-.433s.674.843 1.086 1.115c.418.271 2.267 1.119 2.492 1.165.225.046.533-.258.533-.258s-.012.694.178.921c.189.225.67.375.67.375s.517-.65.613-.911c.102-.264.631-2.177.488-2.394-.146-.22-.91-.607-.91-.607s-.033-.761-.187-.934c-.153-.171-.594-.31-.594-.31s.236-1.173.129-1.336c-.106-.163-2.479-1.445-2.856-1.429-.382.017-1.377.992-1.377.992z"/><path fill="#194705" d="M92.465 26.292s1.076 1.864.955 2.922c-.123 1.055-1.635 4.225-1.635 4.225s1.286-3.31 1.2-4.407c-.084-1.1-.52-2.74-.52-2.74zM89.688 24.926s-2.114.225-2.856.874c-.744.646-2.302 4.138-2.302 4.138s2.027-3.489 2.623-3.885c.599-.394 2.535-1.127 2.535-1.127zM89.674 38.482s-2.478 6.267-3.055 8.756c-.578 2.491-1.254 9.264-1.254 9.264s.135-7.233.698-9.305 3.611-8.715 3.611-8.715zM74.598 59.171s.351 9.532 1.244 11.184c.566 1.044 3.621 2.288 3.621 2.288s-3.49-1.326-3.92-1.855c-.957-1.184-1.002-8.244-.945-11.617zM81.692 73.098s1.851-.751 2.564-2.861c.711-2.111.609-7.845.609-7.845s.522 5.044-.271 7.912c-.795 2.869-2.902 2.794-2.902 2.794z"/><path fill="#ACE298" d="M80.533 74.27c-1.986-.229-3.375-.343-3.185.266 0 0 .348 1.146 1.344.982 0 0 .82.985 2.479.141 0 0 1.604.759 1.928-.37.194-.671-1.333-.872-2.566-1.019z"/><path fill="#518E1B" d="M91.438 20.771s.707.565.701 1.083c-.006.516-.815 1.747-.815 1.747l-.423-.638s.478-1.829.537-2.192zM95.94 23.754s.261 1.043-.782 2.004c-1.043.964-.236.29-.236.29l1.018-2.294z"/><path fill="#194705" d="M94.459 27.078s.715.799.594 1.669c-.119.867-.775 2.708-.775 2.708s.818-2.286.181-4.377z"/><path fill="#448C1E" d="M89.887 27.078c-2.158-.81-5.754 4.801-9.654 16.168-4.33 12.632-3.401 15.63-1.344 15.776 2.062.151 3.68-9.817 4.229-11.932 1.917-7.393 9.501-18.988 6.769-20.012z"/></g><g><path fill="#BCB23F" d="M76.473 43.594c-.432-.08-1.078-.726-1.52-.587-1.588.494-3.134 2.293-3.793 4.64-.849 3.003-2.354 8.419-3.572 11.271-1.219 2.852.44 6.221 3.16 8.791 2.719 2.564 5.021 2.546 6.135 2.506 1.111-.037 1.301-1.466 2.945-1.242 1.645.226 3.799 1.302 5.53-.457 1.73-1.76 4.361-4.807 3.873-8.349-.526-3.805-6.129-6.412-6.856-8.141-.648-1.55-.521-6.79-4.531-8.621-.465-.216-.785.303-1.371.189z"/><defs><path id="b" d="M74.953 43.007c-1.588.494-3.134 2.293-3.793 4.64-.849 3.003-2.354 8.419-3.572 11.271-1.219 2.852.44 6.221 3.16 8.787 2.719 2.568 5.021 2.55 6.135 2.511 1.111-.038 1.301-1.467 2.945-1.243 1.645.226 3.799 1.302 5.53-.457 1.73-1.76 4.361-4.807 3.873-8.349-.526-3.805-6.129-6.412-6.856-8.141-.648-1.55-.521-6.79-4.531-8.621-.25-.114-.459-.019-.688.076-.199.083-.414.165-.685.113-.389-.072-.957-.606-1.389-.606a.377.377 0 0 0-.129.019"/></defs><clipPath id="c"><use xlink:href="#b" overflow="visible"/></clipPath><path clip-path="url(#c)" fill="#A89D35" d="M74.666 43.11s-1.931 1.191-2.974 5.045c-1.039 3.854-2.272 11.185-1.172 13.784 1.099 2.603 3.931 4.949 5.396 4.927 1.463-.026 4.018-.162 5.024.565 1.008.729 4.269 1.426 6.519-1.372 0 0-.906 2.686-2.916 4.032-2.013 1.346-4.513-.19-5.744.636-1.23.825-4.465 1.557-8.955-2.231-4.488-3.786-5.426-5.64-4.107-9.386 1.318-3.742 3.994-7.679 4.229-9.946.235-2.269 2.89-6.538 4.7-6.054"/><path fill="#E5D96A" d="M80.348 46.101c-.715-1.096-1.496-1.804-2.076-1.5-.582.303-1.164 1.989-3.342.414-1.221-.884-2.699 2.805-3.061 5.615-.361 2.81-.486 9.495 2.307 11.876 2.795 2.381 4.861 1.067 6.572 2.192 3.668 2.41 6.996.028 7.494-2.409.5-2.439-.732-5.647-3.455-7.256-2.722-1.605-3.289-2.983-3.324-4.813-.033-1.828-.609-3.339-1.115-4.119z"/><path fill="#F4E782" d="M78.979 45.657c-.932-.427-2.889.499-3.869 2.438-.981 1.942.14 5.887 1.994 9.486 1.855 3.599 7.777 7.427 9.488 5.865 1.713-1.562 1.371-5.394-1.008-6.934-2.381-1.539-3.455-1.969-4.316-3.194-.858-1.223.41-6.436-2.289-7.661z"/><path fill="#FFF7AE" d="M80.115 47.92c-.779-1.55-1.861-1.798-2.931-.945-1.067.854-.631 5.868 1.203 6.834 1.834.962 2.654-4.045 1.728-5.889zM86.803 59.911c-.059-1.941-1.012-3.099-2.592-3.787-1.576-.691-3.76 1.073-3.779 3.228-.02 2.151 6.525 5.839 6.371.559z"/><path fill="#E5D96A" d="M78.209 43.992c-.088-.291-.258-.352-.556-.365-.521-.026-.838.315-1.389.078-.369-.16-1.201-.574-1.563-.257-.132.11.004.292.147.268.48-.091 1.152.476 1.601.621.239.079.508.025.745-.024.138-.028.265-.081.396-.119.139-.036.34.036.496 0 .09-.02.149-.116.123-.202z"/><path fill="#F4E782" d="M77.94 43.989c-.024-.399-.815-.39-1.049-.212-.096.072-.115.255.033.285.168.033.336-.007.502-.011.141-.002.301.08.438.033.041-.014.078-.047.076-.095z"/><path fill="#FFF7AE" d="M77.908 43.797c-.052-.117-.181-.151-.3-.165-.104-.013-.297.031-.33.151-.041.138.136.149.228.143.106-.005.209.028.309.03.088.002.123-.086.093-.159z"/><path fill="#F4E782" d="M77.844 43.839c-.111-.13-.289-.145-.451-.135-.172.008-.391.043-.512.178-.031.033-.021.088.025.099.139.044.29-.005.432-.025.152-.028.299.011.449.01a.076.076 0 0 0 .057-.127z"/><path fill="#141E08" d="M76.149 44.679s.922-1.527.429-4.018c-.496-2.49-2.273-4.021-2.273-4.021s-1.146-.003-1.231.321c0 0 2.262 2.123 2.782 3.976.521 1.854.072 3.651-.028 3.904-.103.25.149.203.321-.162z"/></g><g><path fill="#FF9750" d="M64.377 5.165l.83-5.106s5.817-.595 9.146 2.021l-2.137 4.869-7.839-1.784z"/><path fill="#D85555" d="M64.377 3.978c-2.021-.103-2.14 2.255 0 3.206 0 0-1.783 11.876-3.803 13.897-2.019 2.019-7.244 3.866-10.216 8.941-2.969 5.072-10.174 42.842-10.846 45.931-.674 3.088 22.133 12.944 24.863 5.106 2.731-7.839 9.024-42.164 8.668-45.846-.354-3.683-4.394-10.452-4.75-12.709-.354-2.257 2.377-12.945 2.729-13.896 2.261.478 3.713-1.662 2.035-2.851-1.676-1.188-6.305-1.661-8.68-1.779z"/><path fill="#721919" d="M65.168 4.67c-1.961-.099-2.076 1.354 0 2.276 0 0-1.127 13.014-3.086 14.973-1.963 1.961-7.717 3.952-10.601 8.881-2.885 4.928-9.68 40.653-10.332 43.654-.655 2.999 19.437 11.823 22.091 4.212 2.653-7.614 8.84-39.408 8.493-42.984-.348-3.575-4.522-10.813-4.868-13.002-.349-2.19 2.946-13.523 3.293-14.446 2.192.46 3.264-.692 1.637-1.846-1.631-1.157-4.318-1.601-6.627-1.718z"/><path fill="#FFD0A9" d="M51.844 33.708s10.744 3.091 17.99 3.443c0 0-3.955 23.361-4.666 26.211-.635 1.426-17.183-1.898-18.844-4.037 0 .001 4.442-22.646 5.52-25.617z"/><path fill="#FFE5D2" d="M52.271 34.737s10.008 2.881 16.754 3.209c0 0-3.68 21.758-4.344 24.41-.59 1.329-16.004-1.768-17.553-3.762.001.001 4.14-21.092 5.143-23.857z"/><path fill="#230303" d="M65.168 6.947s4.498 1.256 5.385 1.354c0 .001-2.977-1.354-5.385-1.354z"/><path fill="#D85555" d="M61.694 24.968c-2.202-.442-8.258 3.683-8.809 6.28-.549 2.6 7.709 3.608 9.482 3.056 1.779-.554 2.577-8.68-.673-9.336z"/><path fill="#E26666" d="M56.53 52.769c.005 0 .005-.006.005-.01.014.007.022.015.034.02-.012-.005-.024-.006-.039-.01m7.419-7.216c-.046-.009-.091-.009-.134-.009.177-.183.328-.438.438-.783.217-.674-.646-1.689-1.65-1.84-.205-.027-.403 0-.588.071.092-.433-.146-.933-.797-1.021-.684-.093-1.301.547-1.125 1.074a1.219 1.219 0 0 0-.391-.026c.209-.481.729-1.53 1.418-1.866.901-.438 3.537.336 3.537.336l-.162-.608s-2.228-.522-3.478-.145-1.729 2.461-1.729 2.461l-.058.056c-.264-.382-.776-.603-1.213-.824-.67-.34-1.889.382-2.106 1.146-.183-.463-.722-.929-1.32-1.015-.828-.123-1.521.884-1.16 1.613.197.405.791.831 1.367.855-.35.38-.613.933-.529 1.396.076.434.385.837.795 1.099a.643.643 0 0 0-.16.066c-.305.086-.524.345-.475.778-.412-.15-.813-.11-1.074.207-.393.473-.151 1.152.269 1.593-.527.168-1.062.679-.984 1.14.088.527.639 1.017 1.113 1.208-.459.302-.717.94-.467 1.448.143.284.481.585.871.74-.277.409-.191.971.682 1.187.932.229 1.361-.637 1.049-1.203.125.057.277.095.457.104.453.033.949-.658.885-1.301-.024-.272-.201-.488-.428-.619.047.016.098.032.15.044.721.179 1.141-.299 1.149-.786.197.083.396.1.566.021.485-.219.844-.573.867-.969.87.464 2.053-.465 1.377-1.62a1.316 1.316 0 0 0-.482-.476c.086.003.172.003.252-.005.207-.018.584-.328.81-.709.018.068.036.139.069.208.359.727 1.988 1.529 2.513-.099a.76.76 0 0 0-.027-.473c.502.063 1.014-.158 1.266-.944.175-.551-.538-1.39-1.363-1.51"/></g><g><path fill="#8E852D" d="M74.469 44.321s.789-.093 1.234.289c.446.385 1.225.223 1.541-.213 0 0-.275 1.065-1.062.904-.786-.161-.506-.704-1.713-.98z"/><path fill="#BF2201" d="M61.727 55.381c-1.305-.144-4.117-3.713-7.916-3.94-3.799-.229-9.625 4.011-9.303 10.823.326 6.813 5.229 12.678 8.205 13.573 2.979.896 4.113-.006 4.74-.085.627-.078 1.334 1.446 3.684 1.834 2.352.391 9.391-4.322 11.459-9.848 2.064-5.524-1.076-10.807-4.094-11.819-3.019-1.013-5.015-.343-6.775-.538z"/><defs><path id="d" d="M44.508 62.264c.326 6.813 5.229 12.678 8.205 13.573 2.979.896 4.113-.006 4.74-.085.627-.078 1.334 1.446 3.684 1.834 2.352.391 9.391-4.322 11.459-9.848 2.064-5.524-1.076-10.807-4.094-11.819-1.994-.671-3.543-.604-4.873-.539-.68.034-1.305.07-1.902.001-1.305-.144-4.117-3.713-7.916-3.94a3.666 3.666 0 0 0-.299-.011c-3.797 0-9.322 4.195-9.004 10.834"/></defs><clipPath id="e"><use xlink:href="#d" overflow="visible"/></clipPath><path clip-path="url(#e)" fill="#AD1800" d="M68.502 55.919c-.324-.022 2.504 1.723 3.067 4.913.634 3.549-.795 7.949-5.534 10.846-7.677 4.69-14.3 4.946-20.496-2.249 0 0 .916 8.477 11 10.565 10.088 2.085 14.422-5.242 16.842-10.299 2.418-5.054-.689-13.481-4.879-13.776"/><path fill="#DD2A12" d="M53.166 73.738c-1.814-.125-5.002-1.437-6.922-7.437-1.923-5.999.645-10.028 2.012-11.313 1.363-1.286 3.428-2.728 6.168-1.577 2.74 1.146 2.951 4.049 5.896 5.617 2.943 1.568 5.968.279 7.127-.177 1.158-.459 3.337 1.709 1.813 6.408-2.066 6.356-10.867 8.833-16.094 8.479z"/><path fill="#F22F20" d="M65.918 64.046c-.604 1.807-5.715 7.006-10.701 6.096-4.984-.916-8.764-4.796-8.84-8.485-.072-3.688 1.938-8.016 5.297-7.702 3.361.314 5.354 2.552 6.078 3.533 3.885 5.265 9.924 1.292 8.166 6.558z"/><path fill="#FF8B7B" d="M60.646 63.761c1.779-1.28 1.172-2.547-.901-3.483-2.08-.936-3.14-1.363-3.648-3.674-.516-2.313-2.904-3.013-4.547-2.266-1.644.747-3.127 4.117 1.031 7.359 4.154 3.244 7.152 2.722 8.065 2.064zM48.883 56.449c.09-.234.104-.496.217-.729.078-.165-.096-.399-.281-.352a.749.749 0 0 0-.473.335 1.04 1.04 0 0 0-.147.671c.043.355.557.405.684.075z"/><path fill="#DD2A12" d="M67.604 56.501c-1.104-1.101-3.041-.735-4.446-.671-2.156.098-3.412-1.399-4.98-2.616-.902-.697-2.045-1.108-3.146-1.338-.67-.14-2.096-.646-2.563.121-.035.059.006.128.078.123 2.512-.152 4.682 1.215 6.432 2.888 1.051 1.003 2.187 1.729 3.668 1.798.688.03 1.377-.067 2.062-.105.924-.055 1.729.228 2.629.293.233.014.465-.292.266-.493z"/><path fill="#FF8B7B" d="M59.266 54.338c-.192-.633-.988-1.093-1.551-1.381-.644-.324-1.35-.75-2.092-.704-.08.006-.115.137-.043.179.627.354 1.297.53 1.889.978.498.375.973 1.003 1.584 1.153.15.038.26-.077.213-.225z"/><path fill="#AD1800" d="M61.354 58.358c-.639-.119-1.217-.604-1.896-1.365-.68-.763-.822-1.199-.744-1.416.078-.213.992.265 1.473.734.484.47 1.14 1.056 2.373.998 1.232-.05 2.908-.474 2.906-.009s-3.149 1.24-4.112 1.058z"/><path fill="#2C4711" d="M61.182 58.046s1.207-5.17-1.932-9.083l1.289-1.214s3.303 7.315 1.037 10.492c0 .001-.58.379-.394-.195z"/><path fill="#557A25" d="M61.569 52.085c-.311-1.016-.668-2.56-1.571-3.213-.074-.053-.193.029-.144.117.586 1.033.97 2.068 1.277 3.22.147.557.264 1.121.348 1.69.099.655 0 1.344.183 1.981.03.117.172.14.229.025.549-1.101.017-2.715-.322-3.82z"/><path fill="#931602" d="M57.471 54.305s1.43.791 1.945 1.986c.514 1.195 2.02 2.298 3.477 1.731 1.455-.564 2.83-1.173 3.435-.938 0 0-1.97.94-3.271 1.584-1.297.643-3.012-.366-3.983-1.947-.976-1.58-1.005-2.179-1.603-2.416z"/></g><g><path fill="#B7B7B7" d="M86.528 51.613s-1.93-.085-2.239.897c-.308.98.856 5.073 7.428 9.403 6.574 4.325 11.24 4.794 13.859 4.761 1.979-.027 1.897-1.783.87-2.572-1.028-.794-19.918-12.489-19.918-12.489z"/><path fill="#335D8C" d="M89.936 46.324s-2.854 4.302-4.156 6.188c-1.383 2.006 9.105 12.801 20.431 12.801.461 0 4.164-6.871 4.164-6.871s-15.213-3.645-20.439-12.118z"/><path fill="#19415E" d="M87.014 55.64l4.467-7.247s12.121 8.219 16.968 9.816l-3.878 7.027c-.002.001-9.502.322-17.557-9.596z"/><path fill="#B7B7B7" d="M111.903 58.084c-1.104 1.684-6.883.191-13.1-3.447-6.215-3.642-10.549-8.077-9.416-9.739 1.846-2.693 6.883-.192 13.1 3.448 6.218 3.641 10.769 7.67 9.416 9.738z"/><path fill="#898989" d="M102.227 48.797c-5.326-3.121-10.211-4.68-10.914-3.481a.66.66 0 0 0-.078.299c1.063-.511 5.515 1.218 10.449 4.105 4.935 2.893 8.615 5.931 8.689 7.108a.63.63 0 0 0 .223-.218c.703-1.196-3.047-4.694-8.369-7.813z"/><path fill="#E5E5E5" d="M101.684 49.72c-4.936-2.889-9.387-4.616-10.449-4.105-.061 1.409 3.517 4.623 8.453 7.518 4.935 2.89 9.488 4.438 10.687 3.697-.076-1.18-3.758-4.218-8.691-7.11z"/><path fill="#B7B7B7" d="M94.569 47.948c.976-1.339 12.685 4.845 11.64 6.841-.711 1.364-12.615-5.502-11.64-6.841z"/><path fill="#71A5D3" d="M94.514 60.883c-5.305-3.526-7.15-7.979-6.279-9.271.869-1.289 5.896.793 9.56 3.354 3.664 2.561 8.043 5.431 6.832 7.755-.924 1.779-7.588-.159-10.113-1.838z"/><path fill="#E5E5E5" d="M89.582 52.774s8.014.558 11.094 7.645l3.027.229-2.482 2.425-.826-1.486c0-.002-9.707-1.926-10.813-8.813z"/><path fill="#383838" d="M92.942 54.186h-.381l.068-.433-.316-.049-.08.482h-.754v.322h.705l-.072.435.322.051.074-.486h.434z"/><path fill="#D0D5D8" d="M107.012 56.769c-1.6-.682-3.254-1.146-4.82-1.933-1.641-.819-3.209-1.79-4.721-2.826a65.999 65.999 0 0 1-3.818-2.833c-1.313-1.049-2.182-2.204-3.057-3.622-.164-.264-.549-.086-.488.209.607 2.868 3.998 4.957 6.197 6.562a35.378 35.378 0 0 0 5.064 3.085c1.674.838 3.643 1.73 5.545 1.719.178-.003.282-.283.098-.361zM91.789 44.179c-.232-.236-.582-.171-.873-.088-.136.04-.267.1-.396.159-.16.076-.203.208-.315.329-.191.2.045.459.278.359.054-.021.179.012.242-.008a1.7 1.7 0 0 1 .299-.057c.265-.024.576.017.767-.204.121-.146.135-.342-.002-.49zM92.33 61.285c-.386-.662-1.062-1.06-1.654-1.521A27.075 27.075 0 0 1 88.44 57.8c-1.354-1.326-2.649-2.907-3.397-4.668-.072-.17-.354-.048-.297.127.614 1.862 1.493 3.424 2.854 4.86.683.717 1.447 1.357 2.221 1.974.697.56 1.429 1.259 2.32 1.438.142.028.267-.113.189-.246z"/><path fill="#EDEEEF" d="M93.965 50.103c-.402-.611-.953-1.076-1.398-1.658-.442-.581-.854-1.039-1.453-1.468-.049-.034-.125.023-.104.079.277.677.615 1.213 1.197 1.663.602.472 1.021 1.065 1.696 1.443.039.023.091-.02.062-.059zM95.365 50.904c-.189-.101-.378-.181-.552-.308-.188-.14-.352.143-.229.296.121.148.26.276.401.402.154.143.388.354.609.271a.223.223 0 0 0 .16-.214c.012-.231-.209-.347-.389-.447zM88.432 58.326c-.031-.176-.125-.235-.26-.346a6.597 6.597 0 0 1-.613-.556c-.383-.379-.844-.841-1.088-1.318-.039-.074-.164-.023-.135.057.197.566.414 1.016.811 1.474.254.291.754.938 1.193.849.076-.015.1-.095.092-.16zM91.196 44.22c-.145-.014-.271.041-.416.065-.217.038-.219.397 0 .437.214.037.423.067.574-.121.125-.156.045-.363-.158-.381z"/></g><path fill="#FFC464" d="M143.078 58.082c0 .421-3.091 11.718-3.277 12.189l-20.727 53.239c-.582 1.494-1.568 2.887-2.812 4.076a14.342 14.342 0 0 1-2.725 2.052c-1.074.624-5.115 2.331-5.968 2.331H35.838c-.633 0-6-2.105-7.621-3.379-.025-.02-.563-.512-.801-.725a12.549 12.549 0 0 1-2.185-2.593c-.354-.562-20.239-51.385-20.239-51.385L.721 58.814c-.352-1.605 5.197 2.516 7.527 2.516l62.547 8.113 66.731-5.502c2.718-1.894 5.543-7.372 5.552-5.859z"/><g><g fill="#DF6E00"><path d="M44.598 131.249h-3.652l-21.815-21.456-.748-1.743-1.342-3.327-.027-.047-.027-.028-.024-.08-.154-.755zM62.842 131.249H59.19L7.467 79.887l-.309-.619-.025-.014-.801-1.98-1.187-3.382zM81.084 131.249h-3.65l-1.651-1.291-7.304-7.123-1.819-1.728-7.304-7.257-10.955-10.931-7.286-7.279-1.83-1.827-7.291-7.286-1.832-1.829-7.291-7.289-9.134-9.134-1.817-1.819-1.717-1.717 3.174.246.787.064 1.405 1.407 7.302 7.302 9.123 9.121 1.819 1.82L41.115 92l1.821 1.819 7.299 7.304 9.121 9.122 1.822 1.818 7.301 7.303 1.82 1.818 7.303 7.303 1.832 1.471zM99.328 131.249h-3.64l-1.664-1.306-7.289-7.108-1.832-1.741-7.301-7.257-1.819-1.795-9.123-9.112-7.304-7.298-9.121-9.117-1.817-1.817-9.121-9.12-7.303-7.303-1.818-1.819-.182-.181.323.026 3.379.269.246.014 7.173 7.174 1.821 1.82 7.299 7.301 1.822 1.82L59.356 92l1.822 1.819 9.121 9.122 7.303 7.304 10.953 10.952 7.289 6.93zM114.578 128.964c-.336.246-.685.465-1.047.672l-1.214.722-.051-.053-7.289-7.289-1.832-1.832-7.287-7.289-1.834-1.831-7.303-7.303-9.121-9.123-1.817-1.818-7.306-7.302-1.817-1.817-7.304-7.304-9.121-9.121-.465-.467.863.066 3.1.243 7.455 7.459 7.289 7.29 1.832 1.831L77.615 92l1.817 1.818 7.303 7.304 9.123 9.122 1.816 1.818 7.303 7.304 1.82 1.816 7.301 7.304.48.478zM121.401 117.546l-.246.619-.784 2-50.808-50.808 1.238.091 2.309-.194zM126.522 104.426l-1.018 2.631-2.285-2.285-1.83-1.831-7.289-7.29-9.135-9.133-1.819-1.819-9.122-9.121-7.301-7.303-.129-.129.283-.027 3.084-.258 5.897 5.897 1.818 1.82 9.123 9.121L114.1 92l9.119 9.123 1.822 1.818zM131.633 91.291l-.916 2.322-.115.298-.09-.092-7.293-7.289-1.83-1.831-7.303-7.303-10.646-10.644-.112-.115.112-.039 3.099-.402.26.26.025.026 16.395 16.397 1.822 1.82zM136.756 78.156l-.092.221-.076.206-.697 1.793-.158.413-5.211-5.211-7.303-7.303-3.158-3.162.244-.329 2.375-.535h.078l.193.328.604.222 1.486 1.564zM141.397 64.559c-.012.064-.037.115-.049.181-.262.941-.506 1.885-.725 2.697l-3.457-3.459.36-.024c.566-.4 1.138-.955 1.689-1.574l2.182 2.179z"/></g></g><g fill="#F8A244"><path d="M16.758 65.255l-1.189 1.201-1.832 1.819-7.288 7.303-.58.567-.724-1.871-.155-.387-.14-.374 7.07-7.057 1.457-1.471.787.064zM33.696 66.57l-1.702 1.705-7.302 7.303-1.821 1.831-7.302 7.29-1.819 1.831-2.746 2.736-.648-1.639-.385-.981 1.949-1.947 1.83-1.82 7.291-7.301 1.83-1.82 7.305-7.302.141-.155zM50.635 67.875l-.4.4-7.299 7.303-9.123 9.121-1.819 1.831-7.302 7.289-1.821 1.832-6.759 6.748-1.02-2.631 5.949-5.949L22.871 92l7.291-7.301 1.832-1.82 7.303-7.301 1.818-1.82 6.129-6.14 2.527.191zM67.551 69.204l-6.363 6.374-1.832 1.818-7.299 7.303-1.822 1.819-7.299 7.301-1.821 1.832-7.302 7.29-1.819 1.831-7.302 7.291-1.821 1.832-1.648 1.637-.16-.411-.862-2.221.84-.837 1.83-1.818 7.291-7.304 1.832-1.818 7.291-7.304L41.115 92l7.303-7.301 1.817-1.82 7.304-7.301 1.817-1.833 4.816-4.812zM86.877 68.119l-.154.156-7.289 7.303-1.832 1.818-7.291 7.303-1.832 1.818-7.301 7.302-1.82 1.818-7.301 7.304-1.82 1.831-7.301 7.291-1.819 1.831-7.304 7.289-1.817 1.832-4.724 4.709a12.075 12.075 0 0 1-1.701-1.948l4.593-4.593 1.832-1.816 7.291-7.304 1.83-1.818 7.286-7.304 1.834-1.818L59.356 92l7.304-7.302 1.817-1.831 7.306-7.29 1.817-1.833 5.289-5.29 3.703-.31.285-.025zM107.08 66.196l-.281.278-.039.019-1.795 1.785-7.289 7.303-1.832 1.815-7.289 7.302-1.832 1.82-7.289 7.302-1.832 1.818-7.303 7.303-9.121 9.122-1.822 1.832-7.299 7.289-1.822 1.832-7.299 6.927-1.653 1.306h-3.65l1.664-1.291 1.818-1.651 7.303-7.2 1.817-1.786 7.304-7.268 1.817-1.821 7.304-7.296 9.123-9.12L77.615 92l7.288-7.301 1.832-1.82 7.289-7.301 1.834-1.82 6.939-6.954.531-.167.112-.039 3.099-.364.221.015h.064zM126.602 64.881l-1.561 1.561-1.822 1.833-7.301 7.303-1.832 1.818-7.287 7.303-1.834 1.819-7.289 7.301-1.832 1.819-7.289 7.303-1.832 1.82-9.121 9.121-7.303 7.302-1.82 1.832-7.301 6.927-1.652 1.306h-3.649l1.662-1.291 1.817-1.651 7.304-7.2 1.819-1.786 7.304-7.279 1.819-1.81 7.301-7.296 1.832-1.816 7.289-7.303L95.858 92l7.288-7.301 1.833-1.82 7.289-7.301 1.832-1.82 7.301-7.302 1.279-1.291.271-.27.604.063.133.014zM141.35 64.379c-.262.94-.506 2.063-.725 2.877-.283 1.018-.527 1.588-.683 2.09L77.77 131.249h-3.651l67.231-66.87zM130.717 93.252l-.115.477-1.485 3.921-.013.085-.696 1.456-32.396 32.058h-3.654zM119.08 123.507c-.595 1.496-1.574 2.889-2.813 4.077-.529.502-1.096.967-1.688 1.38-.336.246-.685.465-1.048.672l-1.213.722c-.075.053-.155.091-.229.128l6.991-6.979z"/></g><g><path fill="#F8A244" d="M12.893 59.732c-1.908-.396-4.156 1.105-5.992 1.678-1.924.597-4.557.896-6.18-.703 3.986-.476 8.803-5.641 12.172-.975z"/><path fill="#DF6E00" d="M10.998 57.89c-1.688-.449-3.816.971-5.396 1.465-1.731.541-4.237.784-5.602-.852 1.94-.365 3.799-1.314 5.612-2.128 1.996-.895 4.117-.683 5.386 1.515zM25.211 63.799c-2.646-.264-5.531 1.578-7.965 2.37-2.556.829-6.115 1.396-8.511-.215 5.265-1.039 11.486-6.901 16.476-2.155z"/><path fill="#F8A244" d="M31.994 64.352c-3.07-.169-6.308 2.011-9.115 2.994-2.871 1.008-6.849 1.752-9.654.116 3.351-.793 6.461-2.583 9.576-3.981 2.986-1.344 6.553-1.333 9.193.871z"/><path fill="#DF6E00" d="M37.994 65.123c-1.507-.029-3.017.611-4.384 1.179-1.78.735-3.524 1.563-5.338 2.219-2.938 1.063-6.975 1.871-9.922.365 6.324-1.567 13.137-8.519 19.644-3.763z"/><path fill="#F8A244" d="M45.207 65.859c-1.545-.015-3.084.64-4.484 1.217-1.82.755-3.604 1.598-5.457 2.27-3.014 1.092-7.133 1.94-10.176.455 6.467-1.665 13.402-8.619 20.117-3.942z"/><path fill="#DF6E00" d="M54.295 66.292c-1.64-.033-3.275.621-4.773 1.205-1.938.757-3.838 1.607-5.807 2.283-3.252 1.114-7.633 1.946-10.887.364 3.78-.928 7.303-2.89 10.842-4.448 3.379-1.492 7.467-1.619 10.625.596z"/><path fill="#F8A244" d="M63.846 66.932c-1.779-.051-3.568.607-5.221 1.197-2.119.757-4.205 1.608-6.357 2.264-3.451 1.047-8.002 1.774-11.42.191 7.453-1.542 15.426-8.713 22.998-3.652z"/><path fill="#DF6E00" d="M73.692 67.044c-1.782-.05-3.569.607-5.221 1.199-2.121.755-4.205 1.607-6.363 2.262-3.444 1.049-7.993 1.774-11.416.191 7.451-1.553 15.433-8.704 23-3.652z"/><path fill="#F8A244" d="M83.227 67.155c-1.799-.051-3.604.577-5.283 1.151-2.146.735-4.258 1.567-6.434 2.222-3.664 1.104-8.453 1.902-12.104.27 4.337-.889 8.388-2.979 12.503-4.519 3.603-1.346 7.986-1.273 11.318.876z"/><path fill="#DF6E00" d="M93.084 67.268c-1.779-.049-3.57.609-5.224 1.198-2.118.758-4.205 1.61-6.358 2.265-3.447 1.046-7.998 1.774-11.416.191 7.453-1.556 15.424-8.704 22.998-3.654z"/><path fill="#F8A244" d="M102.563 66.85c-1.641-.035-3.276.619-4.772 1.204-1.939.758-3.84 1.608-5.81 2.285-3.252 1.113-7.631 1.944-10.889.363 3.785-.99 7.287-2.881 10.842-4.447 3.379-1.495 7.467-1.623 10.629.595z"/><path fill="#DF6E00" d="M110.608 66.355c-1.545.025-3.065.718-4.453 1.332-1.801.8-3.561 1.689-5.395 2.409-2.99 1.171-7.072 2.117-10.16.719 3.683-1.188 6.979-3.213 10.447-4.868 2.99-1.428 6.711-1.475 9.561.408z"/><path fill="#F8A244" d="M118.186 65.531c-1.504.096-2.957.856-4.272 1.533-1.715.879-3.384 1.846-5.138 2.646-2.844 1.3-6.803 2.438-9.858 1.175 6.162-2.076 12.403-9.566 19.268-5.354z"/><path fill="#DF6E00" d="M125.346 63.837c-3.055.366-5.863 3.076-8.457 4.533-2.65 1.485-6.445 2.916-9.488 1.788 3.156-1.381 5.916-3.657 8.738-5.582 2.717-1.846 6.215-2.438 9.207-.739z"/><path fill="#F8A244" d="M130.858 63.438c-2.688.317-5.149 2.904-7.354 4.282-2.387 1.492-5.914 2.978-8.729 1.786 2.855-1.318 5.302-3.589 7.797-5.454 2.413-1.802 5.62-2.34 8.286-.614z"/><path fill="#DF6E00" d="M134.641 62.506c-2.154.333-4.004 2.983-5.582 4.29-1.742 1.439-4.559 2.962-6.838 1.81 2.256-1.353 4.014-3.62 5.853-5.453 1.832-1.826 4.383-2.276 6.567-.647z"/><path fill="#F8A244" d="M138.391 58.051c-1.936.929-2.93 3.946-4.035 5.635-1.258 1.922-3.512 4.252-6.076 3.809 1.75-1.98 2.785-4.617 4.017-6.918 1.219-2.282 3.524-3.454 6.094-2.526z"/><path fill="#DF6E00" d="M143.078 56.371c-1.935.929-2.927 3.945-4.033 5.635-1.26 1.924-3.512 4.246-6.078 3.81 1.766-1.953 2.791-4.631 4.018-6.919 1.22-2.279 3.527-3.459 6.093-2.526zM14.612 61.882c-2-.412-4.342 1.074-6.26 1.633-2.004.584-4.762.865-6.469-.751 4.117-.576 9.234-5.51 12.729-.882z"/><path fill="#F8A244" d="M20.44 62.096c-2.651-.133-5.444 1.851-7.838 2.761-2.512.955-6.035 1.695-8.508.205 2.93-.787 5.619-2.398 8.33-3.701 2.6-1.252 5.721-1.242 8.016.735z"/></g><g><linearGradient id="f" gradientUnits="userSpaceOnUse" x1="223.856" y1="2462.546" x2="223.856" y2="2452.653" gradientTransform="translate(-87.38 -2626.48) scale(1.087)"><stop offset="0" stop-color="#d29d62"/><stop offset="1" stop-color="#e7c39b"/></linearGradient><path fill="url(#f)" d="M97.877 39.523h116.147v10.783H97.877z"/><linearGradient id="g" gradientUnits="userSpaceOnUse" x1="170.431" y1="2452.836" x2="277.282" y2="2452.836" gradientTransform="translate(-87.38 -2626.48) scale(1.087)"><stop offset="0"/><stop offset=".3" stop-color="#d29d62"/><stop offset=".7" stop-color="#d29d62"/><stop offset="1"/></linearGradient><path opacity=".1" fill="url(#g)" d="M97.877 39.523h116.147v.459H97.877z"/><linearGradient id="h" gradientUnits="userSpaceOnUse" x1="170.431" y1="2453.259" x2="277.282" y2="2453.259" gradientTransform="translate(-87.38 -2626.48) scale(1.087)"><stop offset="0" stop-color="#e7c39b" stop-opacity="0"/><stop offset=".5" stop-color="#fff"/><stop offset="1" stop-color="#f1ddc6" stop-opacity="0"/></linearGradient><path fill="url(#h)" d="M97.877 39.982h116.147v.459H97.877z"/><linearGradient id="i" gradientUnits="userSpaceOnUse" x1="223.883" y1="2457.587" x2="170.43" y2="2457.587" gradientTransform="translate(-87.38 -2626.48) scale(1.087)"><stop offset="0" stop-color="#ac8058"/><stop offset="1" stop-color="#9d7550" stop-opacity="0"/></linearGradient><path opacity=".1" fill="url(#i)" d="M97.877 39.523h58.104v10.783H97.877z"/><g><linearGradient id="j" gradientUnits="userSpaceOnUse" x1="268.092" y1="2464.326" x2="271.626" y2="2451.138" gradientTransform="translate(-87.38 -2626.48) scale(1.087)"><stop offset="0" stop-color="#e7c39b"/><stop offset="1" stop-color="#f6eadb"/></linearGradient><path fill="url(#j)" d="M214.024 50.307h-17.207v-6.481l17.207-4.303z"/><linearGradient id="k" gradientUnits="userSpaceOnUse" x1="277.256" y1="2454.606" x2="261.426" y2="2454.606" gradientTransform="translate(-87.38 -2626.48) scale(1.087)"><stop offset="0"/><stop offset="1" stop-opacity="0"/></linearGradient><path opacity=".1" fill="url(#k)" d="M196.817 43.826l17.207-4.303h-3.44z"/><path fill="#FFF" d="M196.817 43.826l17.207-3.442v-.861z"/><linearGradient id="l" gradientUnits="userSpaceOnUse" x1="272.323" y1="2462.547" x2="272.323" y2="2456.611" gradientTransform="translate(-87.38 -2626.48) scale(1.087)"><stop offset="0" stop-color="#d29d62"/><stop offset="1" stop-color="#e7c39b"/></linearGradient><path fill="url(#l)" d="M220.451 50.307h-23.634v-6.481z"/><linearGradient id="m" gradientUnits="userSpaceOnUse" x1="277.256" y1="2458.748" x2="261.426" y2="2458.748" gradientTransform="translate(-87.38 -2626.48) scale(1.087)"><stop offset="0"/><stop offset="1" stop-opacity="0"/></linearGradient><path opacity=".1" fill="url(#m)" d="M214.024 47.266l-17.207-3.44 17.207 4.702z"/><linearGradient id="n" gradientUnits="userSpaceOnUse" x1="261.425" y1="2459.566" x2="283.193" y2="2459.566" gradientTransform="translate(-87.38 -2626.48) scale(1.087)"><stop offset="0" stop-color="#fff"/><stop offset="1" stop-color="#e7c39b" stop-opacity="0"/></linearGradient><path fill="url(#n)" d="M220.451 50.307l-23.634-6.481v.459l22.027 6.022z"/><linearGradient id="o" gradientUnits="userSpaceOnUse" x1="261.639" y1="2456.605" x2="261.639" y2="2462.541" gradientTransform="translate(-87.38 -2626.48) scale(1.087)"><stop offset="0" stop-color="#fff"/><stop offset="1" stop-color="#fff" stop-opacity="0"/></linearGradient><path opacity=".5" fill="url(#o)" d="M196.817 43.826v6.481h.404v-6.368z"/><linearGradient id="p" gradientUnits="userSpaceOnUse" x1="283.193" y1="2462.152" x2="261.425" y2="2462.152" gradientTransform="translate(-87.38 -2626.48) scale(1.087)"><stop offset="0"/><stop offset="1" stop-opacity="0"/></linearGradient><path opacity=".1" fill="url(#p)" d="M196.817 50.307h23.634l-3.154-.861z"/></g><g><linearGradient id="q" gradientUnits="userSpaceOnUse" x1="2844.273" y1="2464.326" x2="2847.806" y2="2451.138" gradientTransform="matrix(-1.087 0 0 1.087 3199.592 -2626.48)"><stop offset="0" stop-color="#e7c39b"/><stop offset="1" stop-color="#f6eadb"/></linearGradient><path fill="url(#q)" d="M97.877 50.307h17.207v-6.481l-17.207-4.303z"/><linearGradient id="r" gradientUnits="userSpaceOnUse" x1="2853.486" y1="2454.606" x2="2837.656" y2="2454.606" gradientTransform="matrix(-1.087 0 0 1.087 3199.592 -2626.48)"><stop offset="0"/><stop offset="1" stop-opacity="0"/></linearGradient><path opacity=".1" fill="url(#r)" d="M115.084 43.826l-17.207-4.303h3.44z"/><path fill="#FFF" d="M115.084 43.826l-17.207-3.442v-.861z"/><linearGradient id="s" gradientUnits="userSpaceOnUse" x1="2848.529" y1="2462.547" x2="2848.529" y2="2456.611" gradientTransform="matrix(-1.087 0 0 1.087 3199.592 -2626.48)"><stop offset="0" stop-color="#d29d62"/><stop offset="1" stop-color="#e7c39b"/></linearGradient><path fill="url(#s)" d="M91.395 50.307h23.689v-6.481z"/><linearGradient id="t" gradientUnits="userSpaceOnUse" x1="2853.486" y1="2458.748" x2="2837.656" y2="2458.748" gradientTransform="matrix(-1.087 0 0 1.087 3199.592 -2626.48)"><stop offset="0"/><stop offset="1" stop-opacity="0"/></linearGradient><path opacity=".1" fill="url(#t)" d="M97.877 47.266l17.207-3.44-17.207 4.702z"/><linearGradient id="u" gradientUnits="userSpaceOnUse" x1="2837.657" y1="2459.566" x2="2859.426" y2="2459.566" gradientTransform="matrix(-1.087 0 0 1.087 3199.592 -2626.48)"><stop offset="0" stop-color="#fff"/><stop offset="1" stop-color="#e7c39b" stop-opacity="0"/></linearGradient><path fill="url(#u)" d="M91.395 50.307l23.689-6.481v.459L93 50.307z"/><linearGradient id="v" gradientUnits="userSpaceOnUse" x1="2837.846" y1="2456.604" x2="2837.846" y2="2462.54" gradientTransform="matrix(-1.087 0 0 1.087 3199.592 -2626.48)"><stop offset="0" stop-color="#fff"/><stop offset="1" stop-color="#fff" stop-opacity="0"/></linearGradient><path opacity=".5" fill="url(#v)" d="M115.084 43.826v6.481h-.459v-6.368z"/><linearGradient id="w" gradientUnits="userSpaceOnUse" x1="2859.427" y1="2462.152" x2="2837.658" y2="2462.152" gradientTransform="matrix(-1.087 0 0 1.087 3199.592 -2626.48)"><stop offset="0"/><stop offset="1" stop-opacity="0"/></linearGradient><path opacity=".1" fill="url(#w)" d="M115.084 50.307H91.395l3.154-.861z"/></g><linearGradient id="x" gradientUnits="userSpaceOnUse" x1="223.856" y1="2462.547" x2="223.856" y2="2456.827" gradientTransform="translate(-87.38 -2626.48) scale(1.087)"><stop offset="0"/><stop offset="1" stop-opacity="0"/></linearGradient><path opacity=".08" fill="url(#x)" d="M196.817 49.848v-5.793l-.803 5.793H115.83l-.746-5.793v5.793H97.877v.459h116.147v-.459z"/><g><path fill="#353535" stroke="#EAEAEA" stroke-miterlimit="10" d="M131.201 80.477L93.229 42.505c-1.549-1.548-1.549-4.129 0-5.678l23.517-23.518c1.551-1.549 4.131-1.549 5.68 0l37.971 37.971c1.547 1.55 1.547 4.132 0 5.68l-23.516 23.517c-1.551 1.547-4.131 1.547-5.68 0z"/><linearGradient id="y" gradientUnits="userSpaceOnUse" x1="391.471" y1="1946.077" x2="391.471" y2="1913.848" gradientTransform="scale(1.087) rotate(45 2531.656 654.834)"><stop offset="0" stop-color="#247aba"/><stop offset="1" stop-color="#3cf"/></linearGradient><path fill="url(#y)" d="M95.641 38.835l23.17-23.172c.459-.46 1.207-.46 1.607 0l37.627 37.626c.459.459.459 1.204 0 1.605l-23.174 23.172c-.457.459-1.203.459-1.604 0L95.641 40.499a1.178 1.178 0 0 1 0-1.664z"/><g fill="#FFF"><path d="M129.137 49.848c.803-.803 1.949-1.09 3.039-.803.174-.977-.115-1.951-.688-2.695-.688-.861-1.663-.92-2.409-1.55-.689-.573-.744-1.606-1.375-2.236-.746-.747-1.836-1.091-2.869-.859.518 2.063-1.146 4.07-3.213 3.958-1.031-.06-.976-.459-1.435.688-.459 1.203-1.031 3.27.115 4.187.459.4 1.092.459 1.607.804.516.344.743.86 1.03 1.376.806 1.605 2.008 1.664 3.67 1.263.347-.058 1.666-.345 1.836-.631.06-.173-.059-.229-.059-.459-.11-1.208-.167-2.126.751-3.043 1.26-1.262-1.492 1.548 0 0zM129.479 43.998c.115.172.229.344.345.459 1.204-1.033 1.434-3.155.288-4.417-1.091.918-1.434 2.695-.633 3.958 0 .057-.342-.518 0 0z"/></g><path opacity=".2" fill="#FFF" d="M130.914 80.189l-9.406-67.797 38.604 38.603a4.363 4.363 0 0 1 0 6.194l-23.004 23c-1.664 1.722-4.473 1.722-6.194 0z"/><g><linearGradient id="z" gradientUnits="userSpaceOnUse" x1="357.842" y1="2271.379" x2="373.747" y2="2271.379" gradientTransform="rotate(17.673 8096.694 583.826) scale(1.087)"><stop offset="0" stop-color="#ad2a27"/><stop offset="1" stop-color="#e4554f"/></linearGradient><path fill="url(#z)" d="M200.375 28.108s-.459-7.972-4.763-9.349c-4.356-1.377-8.831 3.212-10.036 6.021-.113.287-.287.633-.402.977-1.836 4.531-2.98 9.292-3.613 14.109-.858 7.056-2.235 17.666-2.522 18.471-.4 1.204-.172 7.284 4.301 8.774 3.156 1.09 6.139-2.236 7.631-4.243a7.34 7.34 0 0 0 1.262-2.813c.918-4.072 3.672-16.231 5.275-19.788 1.891-4.244 3.211-9.691 2.867-12.159z"/><path opacity=".15" d="M185.52 24.725c1.433-2.811 5.736-6.939 9.922-5.563 3.441 1.09 4.648 6.425 4.875 8.548-5.217-2.067-11.071-2.814-14.797-2.985z"/><linearGradient id="A" gradientUnits="userSpaceOnUse" x1="358.107" y1="2252.316" x2="371.678" y2="2252.316" gradientTransform="rotate(17.673 8096.694 583.826) scale(1.087)"><stop offset="0" stop-color="#afafaf"/><stop offset=".081" stop-color="#bcbcbc"/><stop offset=".247" stop-color="#d1d1d1"/><stop offset=".433" stop-color="#e0e0e0"/><stop offset=".654" stop-color="#e8e8e8"/><stop offset="1" stop-color="#ebebeb"/></linearGradient><path fill="url(#A)" d="M185.748 24.38c1.436-2.811 5.68-6.939 9.864-5.62 3.443 1.089 4.419 6.424 4.703 8.489-5.274-2.065-10.895-2.697-14.567-2.869z"/><path fill="#D9BB9F" d="M192.172 30.289s6.022.859 4.76 6.939c-1.262 6.139-5.274 17.15-5.904 18.643-.633 1.49-4.131 9.577-6.598 9.405-2.469-.172-2.522-2.753-2.522-2.753s-.689-1.377-.517-6.938c.17-5.564 1.375-15.431 1.375-15.431s.287-3.729 2.354-7.457c2.064-3.728 7.052-2.408 7.052-2.408z"/><path fill="#FFC07B" d="M183.567 65.622c-.284-.115-.573-.229-.803-.402.287-.286.402 0 .803.173.229.114.861 0 .746.401a1.624 1.624 0 0 1-.746-.172c-.284-.059.23.113 0 0zm1.607.056c-.229-.344.633-.688.805-.459-.289.173-.516.344-.805.459zm-3.096-1.032a3.64 3.64 0 0 1-.459-.803c.401-.231.746.631.459.803zm-.687-1.664c-.059-.286-.115-.573-.174-.859.344-.115.574.859.174.859zm5.215 1.664c-.344-.229.345-.859.576-.688-.172.229-.342.459-.576.688zm-5.561-3.384c-.058-.287-.058-.574-.113-.86.4-.115.4.86.113.86zm6.654 2.007c-.402-.172.229-.917.459-.745a5.456 5.456 0 0 1-.459.745zm-6.884-3.727c0-.286-.059-.574-.059-.86.461-.116.404.86.059.86zm7.859 2.236c-.4-.114.172-.918.459-.746-.172.23-.346.517-.459.746zm-7.916-3.958v-.859c.459-.116.344.859 0 .859zm8.777 2.409c-.402-.114.114-.974.399-.802-.17.287-.285.573-.399.802zm-8.777-4.187v-.86c.402-.057.344.918 0 .86zm9.52 2.639c-.401-.114.06-.976.402-.803-.117.287-.285.573-.402.803zm-9.463-4.36c0-.285.058-.572.058-.859.459-.115.287.859-.058.859zm10.211 2.811c-.403-.114.056-.977.343-.803-.113.23-.228.516-.343.803zm-10.094-4.589c0-.287.058-.573.058-.86.456-.058.284.918-.058.86zm10.781 2.982c-.344-.058 0-.975.287-.802-.058.23-.172.516-.287.802zm-10.611-4.703c0-.286.06-.573.06-.858.399-.06.229.916-.06.858zm11.244 3.04c-.459-.057 0-.688.113-.918.057 0 .115.059.229.059-.114.344-.229.574-.342.859zm-11.129-4.817c0-.229-.115-.977.287-.861 0 .287.115 1.032-.287.861zm11.758 3.211c-.057 0-.115-.058-.229-.058.112-.229.112-.976.518-.745-.117.23-.231.517-.289.803zm-11.584-4.933c0-.286.058-.572.058-.859.457-.058.284.917-.058.859zm12.158 3.27c-.4-.058 0-.975.287-.803-.113.23-.23.517-.287.803zm-11.988-4.99c.06-.286.06-.573.115-.858.459-.059.174.631.115.918-.115-.06-.172-.06-.23-.06zm12.562 3.327c-.459-.058-.058-.976.287-.803a3.365 3.365 0 0 0-.287.803zm-12.39-5.048c.058-.286.058-.573.115-.86.402-.001.23.917-.115.86zm12.908 3.384c-.059 0-.115-.057-.229-.057.057-.229.114-.976.459-.746-.06.287-.117.516-.23.803zm-12.68-5.162c.059-.287.059-.572.117-.858.399 0 .172.571.114.917-.114-.001-.172-.059-.231-.059zm13.022 3.441c.115-.287.17-.572.285-.802.459.057 0 .631-.057.918-.111-.058-.17-.116-.228-.116zm-12.848-5.161c.059-.287.059-.574.115-.86.344-.001.287.917-.115.86zm13.365 3.498c.059-.229.059-.976.459-.745-.058.286-.174.573-.23.86-.117-.058-.17-.115-.229-.115zm-13.135-5.219c.055-.286.112-.573.172-.86.457-.001.172.917-.172.86zm13.649 3.557c.06-.23.06-.976.459-.804-.055.287-.17.572-.227.858-.117.001-.175-.054-.232-.054zm-13.248-5.278c.06-.229.06-.976.461-.747-.059.231-.059.919-.461.747zm13.707 3.614c.06-.229.06-.976.459-.803-.055.286-.17.573-.229.859-.113-.056-.172-.056-.23-.056zm-12.961-5.22c-.059 0-.115-.059-.229-.059.112-.285.229-.572.344-.803.459.06 0 .632-.115.862zm13.365 3.499c.055-.229 0-.977.399-.805l-.172.86a.401.401 0 0 1-.227-.055zm-12.676-5.106c-.06-.058-.115-.058-.175-.114.115-.285.229-.517.402-.803.344.172-.115.689-.227.917zm13.075 3.443c.06-.229-.057-.978.345-.86 0 .286-.058.572-.115.86h-.23zm-12.272-4.934c-.06-.057-.115-.057-.174-.113.174-.229.344-.459.518-.688.342.17-.229.573-.344.801zm12.387 3.214c0-.287-.285-.918.115-.861.059.287.059.574.059.861h-.174zm-11.242-4.475c-.059-.058-.114-.114-.114-.172.229-.172.459-.345.745-.459.23.287-.399.459-.631.631zm10.955 2.811c-.059-.229-.574-.746-.174-.86.115.286.289.516.346.803 0-.002-.055-.002-.172.057zm-9.463-3.614c0-.058-.057-.115-.057-.229.285-.114.574-.173.858-.229.175.401-.573.343-.801.458zm8.662 2.122c-.174-.23-.803-.573-.459-.803.229.229.402.4.574.631 0 .058-.06.114-.115.172zm-6.998-2.525v-.228c.287-.06.572-.06.859-.06.114.461-.572.288-.859.288zm5.795 1.321c-.229-.173-.918-.287-.633-.632.287.115.518.287.746.459-.06.058-.113.116-.113.173zm-4.074-1.321v-.228c.285 0 .572.056.859.112.002.404-.572.116-.859.116zm1.72.288c0-.058.059-.114.059-.229.285.058.572.172.859.287-.172.343-.631 0-.918-.058z"/><path opacity=".15" d="M184.545 34.36c2.063-3.728 7.055-2.407 7.055-2.407s6.021.859 4.76 6.938c-.399 2.065-1.146 4.761-2.008 7.399 1.033-3.212 2.008-6.538 2.525-9.063 1.262-6.137-4.762-6.939-4.762-6.939s-4.99-1.262-7.056 2.408a19.257 19.257 0 0 0-1.776 4.417c.344-.918.743-1.835 1.262-2.753z"/><linearGradient id="B" gradientUnits="userSpaceOnUse" x1="369.79" y1="2275.3" x2="371.961" y2="2275.3" gradientTransform="rotate(17.673 8096.694 583.826) scale(1.087)"><stop offset="0" stop-color="#b68b68"/><stop offset="1" stop-color="#cfa285"/></linearGradient><path fill="url(#B)" d="M196.473 39.351s-2.865 2.236-3.498 4.072c-.629 1.835-1.604 4.761-1.547 6.94.055 2.18-1.377 7.515-1.377 7.515s2.408-5.163 3.557-8.662c.859-2.753 2.865-9.865 2.865-9.865z"/><radialGradient id="C" cx="368.494" cy="2257.767" r="4.039" gradientTransform="rotate(17.673 8096.694 583.826) scale(1.087)" gradientUnits="userSpaceOnUse"><stop offset="0" stop-color="#fff"/><stop offset="1" stop-color="#fff" stop-opacity="0"/></radialGradient><circle opacity=".2" fill="url(#C)" cx="195.959" cy="29.485" r="4.417"/><path opacity=".15" fill="#FFF" d="M195.67 19.849c2.983 2.524 3.672 6.826 3.957 10.325.059.516-.455.918-.974.803l-2.868-.573c-.517-.114-.859-.632-.687-1.09 1.148-2.926 2.064-6.482.572-9.465zM187.756 64.99l2.754-2.409 2.695-8.488c0 .056-4.072 9.693-5.449 10.897z"/><g><linearGradient id="D" gradientUnits="userSpaceOnUse" x1="-987.8" y1="2271.159" x2="-971.896" y2="2271.159" gradientTransform="matrix(-1.0357 -.33 -.33 1.0357 -58.808 -2627.197)"><stop offset="0" stop-color="#ad2a27"/><stop offset="1" stop-color="#e4554f"/></linearGradient><path fill="url(#D)" d="M205.422 29.715s4.99-6.252 9.291-4.876c4.305 1.377 5.336 7.743 4.705 10.727-.06.345-.174.688-.23 1.032-1.146 4.762-2.924 9.291-5.219 13.595-3.328 6.251-8.375 15.716-8.66 16.52-.401 1.205-4.016 6.021-8.604 4.703-3.211-.977-3.729-5.393-3.729-7.857 0-1.033.174-2.064.574-3.041 1.604-3.843 6.367-15.371 7.111-19.215.976-4.591 3.042-9.809 4.761-11.588z"/><path opacity=".15" d="M219.475 35.565c.459-3.097-.688-8.947-4.817-10.268-3.441-1.09-7.515 2.582-8.947 4.13 5.447 1.321 10.608 4.131 13.764 6.138z"/><linearGradient id="E" gradientUnits="userSpaceOnUse" x1="-987.545" y1="2252.1" x2="-973.98" y2="2252.1" gradientTransform="matrix(-1.0357 -.33 -.33 1.0357 -58.808 -2627.197)"><stop offset="0" stop-color="#afafaf"/><stop offset=".081" stop-color="#bcbcbc"/><stop offset=".247" stop-color="#d1d1d1"/><stop offset=".433" stop-color="#e0e0e0"/><stop offset=".654" stop-color="#e8e8e8"/><stop offset="1" stop-color="#ebebeb"/></linearGradient><path fill="url(#E)" d="M219.533 35.165c.459-3.1-.634-8.948-4.763-10.269-3.44-1.089-7.342 2.64-8.776 4.188 5.448 1.319 10.442 4.073 13.539 6.081z"/><path fill="#D9BB9F" d="M210.871 36.254s-5.392-2.813-7.916 2.925c-2.523 5.736-5.619 17.035-5.908 18.642-.344 1.55-2.178 10.209-.057 11.472 2.122 1.263 3.67-.804 3.67-.804s1.377-.688 4.475-5.333c3.1-4.646 7.801-13.364 7.801-13.364s1.951-3.213 2.353-7.457c.399-4.246-4.418-6.081-4.418-6.081z"/><path fill="#FFC07B" d="M197.391 70.038c-.229-.059-.459-.173-.688-.287.114-.401.573.058.86.114.4.114.631-.058.744.345a2.898 2.898 0 0 1-.916-.172zm-1.662-1.722c.285-.114.744.688.4.805a1.534 1.534 0 0 1-.4-.805zm4.302 1.377c-.23.172-.517.286-.806.401-.168-.286.633-.802.806-.401zm1.319-1.147c-.229.172-.459.344-.631.574-.287-.23.4-.86.631-.574zm-5.91-1.95c.345-.057.519.918.117.861-.117-.287-.117-.574-.117-.861zm7.17.746a5.968 5.968 0 0 1-.573.63c-.285-.228.289-.973.573-.63zm-7.17-2.524c.345 0 .402.976 0 .859a2.257 2.257 0 0 1 0-.859zm8.263 1.147c-.175.229-.347.459-.519.688-.287-.172.23-1.031.519-.688zm-8.144-2.868c.344 0 .344.975-.059.86 0-.286.059-.572.059-.86zm9.172 1.433c-.17.229-.344.46-.516.688-.283-.114.231-.973.516-.688zm-8.946-3.154c.344 0 .286 1.032-.115.86.059-.285.115-.572.115-.86zm9.924 1.721c-.174.23-.344.46-.459.746-.344-.172.172-.974.459-.746zm-9.638-3.442c.347.06.23 1.032-.17.86.113-.286.113-.573.17-.86zm10.613 2.009c-.172.229-.285.517-.459.745-.344-.172.115-1.09.459-.745zm-10.266-3.729c.344.059.229 1.032-.172.86.057-.286.112-.573.172-.86zm11.127 2.237c-.174.229-.287.516-.459.745-.287-.171.172-1.089.459-.745zm-10.728-3.958c.345.058.113.976-.229.859.115-.284.174-.572.229-.859zm11.646 2.409c-.174.229-.287.517-.459.747-.287-.115.115-1.033.459-.747zm-11.187-4.072c.06 0 .113.058.229.058-.057.229-.057.977-.459.805.058-.347.175-.635.23-.863zm11.873 2.467c.402.114-.114.631-.229.86-.457-.115.115-.63.229-.86zm-11.414-4.187c.459 0 .06.631 0 .918-.057 0-.114-.059-.229-.059.057-.287.174-.572.229-.859zm12.505 2.81c-.173.229-.287.516-.459.745-.287-.172.115-1.032.459-.745zm-11.986-4.474c.344.058.113 1.032-.23.859.056-.286.115-.572.23-.859zm12.217 3.612c.113-.229.285-.917.629-.63-.115.229-.285.517-.399.746-.117-.058-.175-.116-.23-.116zm-11.758-5.275c.344.056.113 1.031-.23.859.056-.286.17-.572.23-.859zm13.188 3.097c-.112.229-.284.518-.399.746-.344-.173.115-.975.399-.746zm-12.674-4.761c.459.058 0 .631-.055.918-.06 0-.115-.058-.23-.058.115-.344.23-.573.285-.86zm12.906 3.843c.172-.287.287-.86.633-.688-.117.229-.289.517-.404.745-.057.057-.172 0-.229-.057zm-12.617-4.704c.058-.229.111-.975.457-.745-.113.287-.172.572-.287.803-.059 0-.115 0-.17-.058zm14.109 2.525c-.115.286-.289.516-.4.744-.346-.171.111-.916.4-.744zm-13.594-4.188c.112-.287.172-.572.284-.803.459.057 0 .631-.057.916-.055-.054-.113-.054-.227-.113zm14.282 2.581c-.114.286-.229.517-.344.804-.287-.115 0-1.033.344-.804zm-13.709-4.187c.115-.287.172-.573.287-.804.459.058 0 .632-.057.919-.06-.115-.174-.115-.23-.115zm14.109 2.467c.402.058 0 .63-.058.917-.401-.057.001-.631.058-.917zm-13.535-4.13c.115-.287.23-.574.285-.803.459.057 0 .631-.113.917 0-.057-.057-.114-.172-.114zm14.223 2.523c-.057.287-.114.574-.229.859-.057 0-.113-.056-.229-.056.116-.228.059-.975.458-.803zm-13.592-4.186c.113-.287.229-.517.344-.804.402.058-.057.632-.114.918-.06-.057-.117-.057-.23-.114zm13.879 2.466c-.059.287-.059.573-.114.86-.058 0-.113 0-.229-.059.056-.228-.058-.973.343-.801zm-13.192-4.073c.114-.287.289-.517.401-.804.4.115-.112.632-.229.861.002.001-.113.001-.172-.057zm13.25 2.295c.059.287.059.572.059.859h-.229c-.002-.227-.23-.859.17-.859zm-12.332-3.785c.174-.23.344-.459.573-.688.345.229-.229.574-.399.803-.06-.059-.115-.059-.174-.115zm11.815 2.122c.115.286.23.517.345.804-.058 0-.113.057-.229.057-.058-.23-.517-.804-.116-.861zm-10.553-3.386c.229-.171.516-.344.746-.458.287.345-.4.458-.631.63-.06-.056-.115-.112-.115-.172zm9.578 1.894c.174.229.401.459.574.688-.058.058-.115.058-.172.114-.173-.171-.802-.573-.402-.802zm-8.029-2.695c.287-.058.574-.173.861-.173.172.402-.574.345-.803.402 0-.057 0-.115-.058-.229zm6.711 1.549c.23.172.459.344.689.572l-.172.172c-.175-.228-.861-.459-.517-.744zm-4.932-1.778c.285 0 .574 0 .858.057.06.402-.629.173-.858.173v-.23zm3.385.86c.285.114.514.286.803.401-.059.058-.059.113-.114.172-.23-.114-.863-.231-.689-.573zm-1.666-.575c.289.059.574.174.861.287 0 .059-.058.114-.058.229-.286-.17-.86-.17-.803-.516z"/><path opacity=".15" d="M214.713 43.939c.459-4.244-4.357-6.08-4.357-6.08s-5.391-2.811-7.916 2.927c-.86 1.949-1.778 4.53-2.639 7.227.975-3.212 2.121-6.539 3.213-8.891 2.521-5.735 7.916-2.927 7.916-2.927s4.816 1.836 4.357 6.08c-.172 1.779-.632 3.387-1.091 4.646.173-.916.404-1.892.517-2.982z"/><linearGradient id="F" gradientUnits="userSpaceOnUse" x1="-975.85" y1="2275.048" x2="-973.683" y2="2275.048" gradientTransform="matrix(-1.0357 -.33 -.33 1.0357 -58.808 -2627.197)"><stop offset="0" stop-color="#b68b68"/><stop offset="1" stop-color="#cfa285"/></linearGradient><path fill="url(#F)" d="M202.096 41.13s1.033 3.498.516 5.333c-.573 1.836-1.434 4.817-2.752 6.539-1.319 1.722-3.27 6.939-3.27 6.939s1.031-5.621 2.123-9.12c.914-2.752 3.383-9.691 3.383-9.691z"/><radialGradient id="G" cx="-977.142" cy="2257.533" r="4.035" gradientTransform="matrix(-1.0357 -.33 -.33 1.0357 -58.808 -2627.197)" gradientUnits="userSpaceOnUse"><stop offset="0" stop-color="#fff"/><stop offset="1" stop-color="#fff" stop-opacity="0"/></radialGradient><path opacity=".2" fill="url(#G)" d="M208.233 28.969c2.438 0 4.414 1.978 4.414 4.417a4.415 4.415 0 1 1-8.832 0 4.418 4.418 0 0 1 4.418-4.417z"/><path opacity=".15" fill="#FFF" d="M214.024 25.699c-3.844.346-6.938 3.441-9.178 6.139-.342.4-.172.976.344 1.204l2.64 1.146c.516.229 1.032 0 1.147-.517.804-2.923 2.066-6.421 5.047-7.972zM194.352 67.112l-.858-3.556 2.694-8.489c.058.058-2.237 10.267-1.836 12.045z"/></g></g><g><circle fill="#262626" stroke="#9B9B9B" stroke-width=".5" stroke-miterlimit="10" cx="157.012" cy="55.641" r="23.345"/><path fill="#3A3A3A" stroke="#5B5B5B" stroke-width=".5" stroke-miterlimit="10" d="M167.623 35.68c11.014 5.852 15.201 19.56 9.35 30.572-5.852 11.012-19.561 15.2-30.57 9.349-11.014-5.851-15.145-19.559-9.295-30.571 5.851-11.013 19.56-15.2 30.515-9.35z"/><radialGradient id="H" cx="-961.948" cy="1869.985" r="20.753" gradientTransform="rotate(-151.97 -691.029 894.068) scale(1.087)" gradientUnits="userSpaceOnUse"><stop offset="0" stop-color="#fff"/><stop offset="1"/></radialGradient><path opacity=".25" fill="url(#H)" d="M167.623 35.68c11.014 5.852 15.201 19.56 9.35 30.572-5.852 11.012-19.561 15.2-30.57 9.349-11.014-5.851-15.145-19.559-9.295-30.571 5.851-11.013 19.56-15.2 30.515-9.35z"/><path fill="#545454" stroke="#636363" stroke-width=".5" stroke-miterlimit="10" d="M164.928 40.786c8.203 4.358 11.299 14.567 6.941 22.714-4.361 8.202-14.57 11.299-22.716 6.938-8.145-4.357-11.299-14.511-6.938-22.714 4.356-8.143 14.51-11.241 22.713-6.938z"/><linearGradient id="I" gradientUnits="userSpaceOnUse" x1="-961.923" y1="1872.821" x2="-961.923" y2="1867.202" gradientTransform="rotate(-151.97 -691.029 894.068) scale(1.087)"><stop offset="0" stop-color="#ad2a27"/><stop offset="1" stop-color="#e4554f"/></linearGradient><path fill="url(#I)" d="M158.444 52.944c1.492.805 2.066 2.641 1.263 4.13-.804 1.492-2.64 2.064-4.131 1.264-1.488-.804-2.063-2.641-1.261-4.13.806-1.493 2.638-2.066 4.129-1.264z"/><path fill="#A0A0A0" d="M170.587 36.643l-5.37-2.856 1.16-2.178 5.368 2.856z"/><path opacity=".15" d="M167.909 35.188l-2.682-1.428 1.16-2.178 2.681 1.428z"/><linearGradient id="J" gradientUnits="userSpaceOnUse" x1="-961.947" y1="1916.01" x2="-961.947" y2="1893.577" gradientTransform="rotate(-151.97 -691.029 894.068) scale(1.087)"><stop offset="0" stop-color="#ad2a27"/><stop offset="1" stop-color="#e4554f"/></linearGradient><path fill="url(#J)" d="M171.235 34.188l10.783-20.304c.347-.688 0-1.55-.803-2.009l-1.434-.745c-.804-.401-1.722-.229-2.064.459l-10.783 20.305 4.301 2.294zm8.662-21.508c.459.229.459 1.032.058 1.777-.4.746-1.09 1.206-1.549.976-.46-.229-.46-1.032-.06-1.777.406-.804 1.092-1.205 1.551-.976z"/><path fill="none" d="M179.955 14.458c.401-.745.344-1.548-.058-1.777l-1.492 2.753c.46.23 1.15-.23 1.55-.976zM178.348 13.597c-.399.746-.344 1.549.06 1.778l1.491-2.753c-.461-.171-1.147.23-1.551.975z"/><path opacity=".15" d="M169.057 33.042l9.406-17.608c-.459-.229-.459-1.032-.057-1.777.399-.745 1.09-1.204 1.549-.976l.631-1.146-.746-.401c-.803-.401-1.719-.229-2.063.459l-10.784 20.305 2.064 1.144zM146.059 76.29l21.967-41.297c-11.416-6.023-25.582-1.723-31.604 9.692-6.082 11.357-1.779 25.524 9.637 31.605z"/></g></g><g><linearGradient id="K" gradientUnits="userSpaceOnUse" x1="223.831" y1="2538.664" x2="223.831" y2="2462.547" gradientTransform="translate(-87.38 -2626.48) scale(1.087)"><stop offset="0" stop-color="#e7c39b"/><stop offset="1" stop-color="#f6eadb"/></linearGradient><path fill="url(#K)" d="M219.188 131.583a1367.16 1367.16 0 0 1-126.473 0c-.746-.059-1.32-.63-1.32-1.377V50.308h129.058v79.898a1.382 1.382 0 0 1-1.265 1.377z"/><linearGradient id="L" gradientUnits="userSpaceOnUse" x1="223.831" y1="2538.664" x2="223.831" y2="2462.547" gradientTransform="translate(-87.38 -2626.48) scale(1.087)"><stop offset="0" stop-color="#e7c39b"/><stop offset="1" stop-color="#f6eadb"/></linearGradient><path fill="url(#L)" d="M219.188 131.583a1367.16 1367.16 0 0 1-126.473 0c-.746-.059-1.32-.63-1.32-1.377V50.308h129.058v79.898a1.382 1.382 0 0 1-1.265 1.377z"/><linearGradient id="M" gradientUnits="userSpaceOnUse" x1="164.468" y1="2535.616" x2="283.146" y2="2535.616" gradientTransform="translate(-87.38 -2626.48) scale(1.087)"><stop offset="0" stop-color="#e7c39b" stop-opacity="0"/><stop offset=".5" stop-color="#fff"/><stop offset="1" stop-color="#e9c9a4" stop-opacity="0"/></linearGradient><path fill="url(#M)" d="M219.188 129.403a1368.562 1368.562 0 0 1-126.473 0c-.746 0-1.32-.631-1.32-1.318v.459c0 .688.574 1.317 1.263 1.376 42.157 1.95 84.315 1.95 126.475 0a1.379 1.379 0 0 0 1.262-1.376v-.459c.056.687-.518 1.318-1.207 1.318z"/><linearGradient id="N" gradientUnits="userSpaceOnUse" x1="164.468" y1="2536.565" x2="283.146" y2="2536.565" gradientTransform="translate(-87.38 -2626.48) scale(1.087)"><stop offset="0" stop-color="#daaf7f"/><stop offset=".3" stop-color="#ddb68a" stop-opacity=".3"/><stop offset=".642" stop-color="#e9cfb2" stop-opacity=".7"/><stop offset="1" stop-color="#dbb081"/></linearGradient><path fill="url(#N)" d="M219.188 129.861a1367.861 1367.861 0 0 1-126.473 0c-.746-.057-1.32-.63-1.32-1.376v1.721c0 .688.574 1.318 1.263 1.377 42.157 1.95 84.315 1.95 126.475 0a1.378 1.378 0 0 0 1.262-1.377v-1.721c.056.746-.518 1.32-1.207 1.376z"/><path fill="#DAAF7F" d="M219.188 131.125a1368.562 1368.562 0 0 1-126.473 0c-.746 0-1.32-.632-1.32-1.319v.459c0 .688.574 1.318 1.263 1.376 42.157 1.95 84.315 1.95 126.475 0a1.378 1.378 0 0 0 1.262-1.376v-.459c.056.687-.518 1.319-1.207 1.319z"/><linearGradient id="O" gradientUnits="userSpaceOnUse" x1="194.624" y1="2462.546" x2="194.624" y2="2538.64" gradientTransform="translate(-87.38 -2626.48) scale(1.087)"><stop offset="0" stop-color="#fff"/><stop offset="1" stop-color="#e7c39b" stop-opacity="0"/></linearGradient><path fill="url(#O)" d="M94.836 131.583a1.378 1.378 0 0 1-1.262-1.377V50.308h-2.181v79.898c0 .688.574 1.318 1.262 1.377 21.453.976 42.849 1.491 64.298 1.435-20.705-.001-41.41-.518-62.117-1.435z"/><linearGradient id="P" gradientUnits="userSpaceOnUse" x1="194.758" y1="2462.546" x2="194.758" y2="2538.64" gradientTransform="translate(-87.38 -2626.48) scale(1.087)"><stop offset="0" stop-color="#fff"/><stop offset="1" stop-color="#e7c39b" stop-opacity="0"/></linearGradient><path fill="url(#P)" d="M93.977 131.583a1.378 1.378 0 0 1-1.262-1.377V50.308h-.861v79.898c0 .688.574 1.318 1.263 1.377 21.223.976 42.444 1.491 63.668 1.435-20.937-.001-41.873-.518-62.808-1.435z"/><linearGradient id="Q" gradientUnits="userSpaceOnUse" x1="164.467" y1="2500.594" x2="223.988" y2="2500.594" gradientTransform="translate(-87.38 -2626.48) scale(1.087)"><stop offset="0" stop-color="#e7c39b"/><stop offset="1" stop-color="#e9c9a5" stop-opacity="0"/></linearGradient><path opacity=".5" fill="url(#Q)" d="M93.115 131.583a1.38 1.38 0 0 1-1.263-1.377V50.308h-.459v79.898c0 .688.574 1.318 1.262 1.377 21.164.976 42.273 1.491 63.438 1.435-20.991-.001-41.985-.46-62.978-1.435z"/><linearGradient id="R" gradientUnits="userSpaceOnUse" x1="2380.37" y1="2462.547" x2="2380.37" y2="2538.641" gradientTransform="matrix(-1.087 0 0 1.087 2775.133 -2626.48)"><stop offset="0" stop-color="#fff"/><stop offset="1" stop-color="#e7c39b" stop-opacity="0"/></linearGradient><path fill="url(#R)" d="M217.008 131.583a1.378 1.378 0 0 0 1.262-1.377V50.308h2.183v79.898c0 .688-.574 1.318-1.265 1.377-21.451.976-42.846 1.491-64.297 1.435 20.705-.001 41.412-.518 62.117-1.435z"/><linearGradient id="S" gradientUnits="userSpaceOnUse" x1="2380.504" y1="2462.547" x2="2380.504" y2="2538.641" gradientTransform="matrix(-1.087 0 0 1.087 2775.133 -2626.48)"><stop offset="0" stop-color="#fff"/><stop offset="1" stop-color="#e7c39b" stop-opacity="0"/></linearGradient><path fill="url(#S)" d="M217.867 131.583a1.38 1.38 0 0 0 1.264-1.377V50.308h.861v79.898c0 .688-.574 1.318-1.265 1.377-21.223.976-42.442 1.491-63.666 1.435 20.937-.001 41.871-.518 62.806-1.435z"/><linearGradient id="T" gradientUnits="userSpaceOnUse" x1="2350.213" y1="2500.594" x2="2409.736" y2="2500.594" gradientTransform="matrix(-1.087 0 0 1.087 2775.133 -2626.48)"><stop offset="0" stop-color="#e7c39b"/><stop offset="1" stop-color="#e9c9a5" stop-opacity="0"/></linearGradient><path opacity=".5" fill="url(#T)" d="M218.729 131.583a1.38 1.38 0 0 0 1.265-1.377V50.308h.459v79.898c0 .688-.574 1.318-1.265 1.377-21.164.976-42.271 1.491-63.438 1.435 20.994-.001 41.985-.46 62.979-1.435z"/><linearGradient id="U" gradientUnits="userSpaceOnUse" x1="164.468" y1="2462.758" x2="283.195" y2="2462.758" gradientTransform="translate(-87.38 -2626.48) scale(1.087)"><stop offset="0" stop-color="#e7c39b" stop-opacity="0"/><stop offset=".5" stop-color="#eed5b9"/><stop offset="1" stop-color="#eed5b9" stop-opacity="0"/></linearGradient><path fill="url(#U)" d="M91.395 50.307v.458h129.058v-.458H91.395z"/><linearGradient id="V" gradientUnits="userSpaceOnUse" x1="164.468" y1="2463.126" x2="283.195" y2="2463.126" gradientTransform="translate(-87.38 -2626.48) scale(1.087)"><stop offset="0" stop-color="#fff"/><stop offset=".25" stop-color="#e7c39b" stop-opacity="0"/><stop offset=".5" stop-color="#f6e7d8"/><stop offset=".75" stop-color="#f6e8d9" stop-opacity="0"/><stop offset="1" stop-color="#fff"/></linearGradient><path fill="url(#V)" d="M91.395 50.708v.459h129.058v-.459H91.395z"/><linearGradient id="W" gradientUnits="userSpaceOnUse" x1="223.83" y1="2500.592" x2="283.195" y2="2500.592" gradientTransform="translate(-87.38 -2626.48) scale(1.087)"><stop offset=".004" stop-color="#e7c39b"/><stop offset="1" stop-color="#e9c9a4" stop-opacity="0"/></linearGradient><path opacity=".15" fill="url(#W)" d="M155.922 133.017c21.106 0 42.158-.459 63.266-1.435a1.38 1.38 0 0 0 1.265-1.377V50.307h-64.529l-.002 82.71z"/><linearGradient id="X" gradientUnits="userSpaceOnUse" x1="223.806" y1="2515.259" x2="223.806" y2="2538.629" gradientTransform="translate(-87.38 -2626.48) scale(1.087)"><stop offset="0" stop-color="#daaf7f"/><stop offset="1" stop-color="#f6eadb" stop-opacity="0"/></linearGradient><path opacity=".25" fill="url(#X)" d="M91.395 107.606v22.6c0 .688.574 1.318 1.263 1.377a1367.204 1367.204 0 0 0 126.475 0 1.378 1.378 0 0 0 1.262-1.377v-22.6h-129z"/><linearGradient id="Y" gradientUnits="userSpaceOnUse" x1="164.468" y1="2537.2" x2="283.146" y2="2537.2" gradientTransform="translate(-87.38 -2626.48) scale(1.087)"><stop offset="0" stop-color="#e7c39b"/><stop offset=".5" stop-color="#f6eadb"/><stop offset="1" stop-color="#eacaa7"/></linearGradient><path opacity=".35" fill="url(#Y)" d="M219.188 131.125a1368.562 1368.562 0 0 1-126.473 0c-.746 0-1.32-.632-1.32-1.319v.459c0 .688.574 1.318 1.263 1.376 42.157 1.95 84.315 1.95 126.475 0a1.378 1.378 0 0 0 1.262-1.376v-.459c.056.687-.518 1.319-1.207 1.319z"/><g fill="#FFF"><circle cx="131.946" cy="66.54" r="3.211"/><circle cx="131.946" cy="66.54" r=".918"/></g><radialGradient id="Z" cx="201.798" cy="2476.936" r="2.968" gradientTransform="translate(-87.38 -2626.48) scale(1.087)" gradientUnits="userSpaceOnUse"><stop offset="0" stop-color="#f6eadb"/><stop offset="1" stop-color="#e7c39b"/></radialGradient><circle fill="url(#Z)" cx="131.946" cy="65.964" r="3.212"/><circle fill="#DAAF7F" cx="131.946" cy="65.965" r=".918"/><path fill="#D9AF7F" d="M131.946 63.155c1.722 0 3.099 1.318 3.214 3.039v-.229a3.209 3.209 0 0 0-3.214-3.213 3.209 3.209 0 0 0-3.213 3.213v.229c.117-1.72 1.55-3.039 3.213-3.039z"/><g fill="#FFF"><circle cx="179.897" cy="66.54" r="3.211"/><circle cx="179.897" cy="66.54" r=".918"/></g><radialGradient id="aa" cx="245.86" cy="2476.936" r="2.967" gradientTransform="translate(-87.38 -2626.48) scale(1.087)" gradientUnits="userSpaceOnUse"><stop offset="0" stop-color="#f6eadb"/><stop offset="1" stop-color="#e7c39b"/></radialGradient><circle fill="url(#aa)" cx="179.897" cy="65.964" r="3.212"/><circle fill="#DAAF7F" cx="179.897" cy="65.965" r=".918"/><path fill="#D9AF7F" d="M179.897 63.155c1.722 0 3.097 1.318 3.211 3.039v-.229a3.207 3.207 0 0 0-3.211-3.213 3.21 3.21 0 0 0-3.213 3.213v.229c.06-1.72 1.494-3.039 3.213-3.039z"/><linearGradient id="ab" gradientUnits="userSpaceOnUse" x1="223.856" y1="1526.286" x2="223.856" y2="1518.581" gradientTransform="matrix(1.087 0 0 -1.087 -87.38 1724.165)"><stop offset="0" stop-color="#603913"/><stop offset="1" stop-color="#6f4a27" stop-opacity="0"/></linearGradient><path opacity=".3" fill="url(#ab)" d="M176.514 73.079c1.09-2.41 2.008-4.99 2.467-7.572.058-.229.345-.343.744-.401h.23c.459 0 .86.229.803.459-.4 2.58-1.318 5.221-2.353 7.687-.059.058-.059.172-.112.229h-1.951c.057-.118.115-.29.172-.402zm-41.01.4a2.742 2.742 0 0 1-.174-.399c-1.088-2.41-2.006-4.99-2.465-7.572-.058-.229-.459-.401-.919-.401-.459 0-.86.229-.805.459.402 2.58 1.32 5.221 2.353 7.687.059.058.059.172.114.229.576-.003 1.205-.003 1.896-.003z"/><g><linearGradient id="ac" gradientUnits="userSpaceOnUse" x1="235.795" y1="2492.14" x2="237.736" y2="2493.249" gradientTransform="translate(-87.38 -2626.48) scale(1.087)"><stop offset="0" stop-color="#f07a7a"/><stop offset=".251" stop-color="#ffa9a9"/><stop offset="1" stop-color="#f14738"/></linearGradient><path fill="url(#ac)" d="M180.143 67.538l-.043.044-8.805 15.417-.875 1.531-3.242 5.651-.57 1.095-3.504 6.088-.961.438-2.367.789 4.599-8.06.567-.964 3.507-6.174.877-1.491 8.801-15.461h.045l1.928 1.097z"/><path fill="none" d="M180.932 63.464l.438-.308-.789.264c.087 0 .218 0 .351.044z"/><path fill="none" d="M181.281 63.683l.045-.524-.439.307c.176.042.305.085.394.217zM181.545 63.945l-.176-.832-.043.525c.043.133.131.219.219.307z"/><linearGradient id="ad" gradientUnits="userSpaceOnUse" x1="242.272" y1="2483.325" x2="226.498" y2="2473.834" gradientTransform="translate(-87.38 -2626.48) scale(1.087)"><stop offset="0" stop-color="#ff6634"/><stop offset="1" stop-color="#ffffc1"/></linearGradient><path fill="url(#ad)" d="M180.932 63.464l-1.313.964-7.445 5.43-5.781 4.161-1.666 1.228-2.494 1.796c-.438-.351-.877-.657-1.271-1.007-.308-.22-.613-.482-.92-.745a40.597 40.597 0 0 1-2.017-1.751 47.84 47.84 0 0 1-2.188-2.061l23.604-7.752 1.185-.395c.042.088.173.088.306.132z"/><linearGradient id="ae" gradientUnits="userSpaceOnUse" x1="405.299" y1="2188.385" x2="401.62" y2="2185.32" gradientTransform="scale(1.087) rotate(29.747 4281.074 653.706)"><stop offset="0" stop-color="#ff6634"/><stop offset="1" stop-color="#ffffc1"/></linearGradient><path fill="url(#ae)" d="M180.492 63.42l-1.095.351-24.045 7.314-1.139-1.141c-.789-.831-.482-2.363.481-2.363 7.314.087 16.029-1.839 24.701-3.942.308-.088.613-.131.92-.219h.177z"/><linearGradient id="af" gradientUnits="userSpaceOnUse" x1="256.614" y1="2481.959" x2="246.452" y2="2492.122" gradientTransform="translate(-87.38 -2626.48) scale(1.087)"><stop offset="0" stop-color="#ff6634"/><stop offset="1" stop-color="#ffffc1"/></linearGradient><path fill="url(#af)" d="M189.254 89.962c-.527-.132-1.008-.264-1.535-.396l-3.326-13.796-1.096-4.468-.176-.657-.744-3.108-.57-2.365-.262-1.139c.043.088.043.131.088.219.086.307.174.612.262.876.265.876.525 1.753.789 2.584.308.964.57 1.883.877 2.803.086.22.131.438.219.657.48 1.49.962 2.979 1.486 4.424 1.666 4.73 3.549 9.153 5.74 12.789.568.832-.613 1.84-1.752 1.577z"/><linearGradient id="ag" gradientUnits="userSpaceOnUse" x1="424.31" y1="2185.893" x2="417.721" y2="2189.698" gradientTransform="scale(1.087) rotate(29.747 4281.074 653.706)"><stop offset="0" stop-color="#ff6634"/><stop offset="1" stop-color="#ffffc1"/></linearGradient><path fill="url(#ag)" d="M187.104 89.393a75.252 75.252 0 0 1-8.014-2.716l2.059-21.417.177-1.621c.086.088.174.176.219.307l.262 1.184 5.297 24.263z"/><path opacity=".15" fill="#020202" d="M180.1 67.582l-9.68 16.948a45.92 45.92 0 0 1-1.971-1.138l9.678-16.951.045-.044.568-.437 1.313-1.008a.99.99 0 0 1 .353.219l-.222 1.664-.086.701.002.046z"/><linearGradient id="ah" gradientUnits="userSpaceOnUse" x1="248.898" y1="2484.666" x2="230.159" y2="2487.97" gradientTransform="translate(-87.38 -2626.48) scale(1.087)"><stop offset="0" stop-color="#ff6634"/><stop offset="1" stop-color="#ffffc1"/></linearGradient><path fill="url(#ah)" d="M181.281 63.639l-.22 1.665-.264 2.233-.438 3.635-.088.745-.612 4.86-1.183 9.681c-4.424-1.84-8.629-4.073-12.569-6.745a79.576 79.576 0 0 1-3.195-2.278l3.151-2.408 1.533-1.183 5.431-4.16 6.789-5.212 1.313-1.008c.134.044.263.087.352.175z"/><path opacity=".2" fill="#FFF" d="M164.682 75.246l-2.496 1.796c-.438-.351-.875-.657-1.27-1.007l3.766-.789z"/><path fill="#FCEFC3" d="M181.545 64.034l-.219-.877.219.788v.089z"/><linearGradient id="ai" gradientUnits="userSpaceOnUse" x1="430.052" y1="2196.605" x2="431.13" y2="2196.605" gradientTransform="scale(1.087) rotate(29.747 4281.074 653.706)"><stop offset=".036" stop-color="#a85e32"/><stop offset=".339" stop-color="#e8bd85"/><stop offset=".715" stop-color="#ffe8c3"/><stop offset="1" stop-color="#fff6e7"/></linearGradient><path fill="url(#ai)" d="M187.326 90.487l.567-.131-.176-.745c-.219-.044-.438-.088-.613-.175l.222 1.051z"/><path fill="#FCEFC3" d="M181.281 63.683l.045-.524-.045.524z"/><linearGradient id="aj" gradientUnits="userSpaceOnUse" x1="421.845" y1="2198.049" x2="422.554" y2="2198.049" gradientTransform="scale(1.087) rotate(29.747 4281.074 653.706)"><stop offset=".036" stop-color="#a85e32"/><stop offset=".339" stop-color="#e8bd85"/><stop offset=".715" stop-color="#ffe8c3"/><stop offset="1" stop-color="#fff6e7"/></linearGradient><path fill="url(#aj)" d="M178.434 87.027l.613.043.045-.394a3.159 3.159 0 0 0-.57-.219l-.088.57z"/><linearGradient id="ak" gradientUnits="userSpaceOnUse" x1="395.812" y1="2196.588" x2="396.892" y2="2196.588" gradientTransform="scale(1.087) rotate(29.747 4281.074 653.706)"><stop offset=".036" stop-color="#a85e32"/><stop offset=".339" stop-color="#e8bd85"/><stop offset=".715" stop-color="#ffe8c3"/><stop offset="1" stop-color="#fff6e7"/></linearGradient><path fill="url(#ak)" d="M154.563 71.304l.177.569 1.053-.352c-.176-.131-.31-.307-.482-.48l-.748.263z"/><path fill="#FCEFC3" d="M181.369 63.157l-.877.264h.045l.832-.264z"/><linearGradient id="al" gradientUnits="userSpaceOnUse" x1="404.388" y1="2198.084" x2="405.097" y2="2198.084" gradientTransform="scale(1.087) rotate(29.747 4281.074 653.706)"><stop offset=".036" stop-color="#a85e32"/><stop offset=".339" stop-color="#e8bd85"/><stop offset=".715" stop-color="#ffe8c3"/><stop offset="1" stop-color="#fff6e7"/></linearGradient><path fill="url(#al)" d="M161.879 77.304l.352.481.438-.352c-.176-.131-.351-.263-.482-.35l-.308.221z"/><path fill="#FCEFC3" d="M180.932 63.464l.438-.308-.438.308z"/><g fill="#FFDE80"><path d="M187.719 89.567c-.219-.044-.438-.131-.656-.175l-5.299-24.265-.219-1.184.043.044.264 1.14 5.867 24.44zM179.047 86.721a3.124 3.124 0 0 0-.568-.219l2.584-21.154.22-1.665-.177 1.621-2.059 21.417zM180.537 63.42l-1.185.395-23.606 7.752c-.175-.132-.306-.307-.48-.438l24.045-7.313 1.097-.351c.084-.045.129-.045.129-.045zM180.932 63.464l-1.313 1.008-16.904 12.963c-.176-.131-.353-.263-.482-.35l17.388-12.657 1.311-.964z"/></g><path opacity=".15" fill="#020202" d="M181.895 65.085c-.043 0-.043.043-.088.043h-.043a1.752 1.752 0 0 1-.658.132h-.043c-.307 0-.569-.088-.832-.219a1.385 1.385 0 0 1-.612-.613s0-.044-.045-.044c-.132-.176-.175-.396-.22-.613v-.044-.088c.308-.088.613-.131.92-.219.088 0 .134 0 .22-.044h.045c.131 0 .262 0 .35.044a.96.96 0 0 1 .353.219.801.801 0 0 1 .219.307l.043.044c.045.089.045.133.088.22.127.305.215.611.303.875z"/><radialGradient id="am" cx="412.49" cy="2176.962" r="2.862" gradientTransform="scale(1.087) rotate(29.747 4281.074 653.706)" gradientUnits="userSpaceOnUse"><stop offset="0" stop-color="#e4554f"/><stop offset="1" stop-color="#ad2a27"/></radialGradient><circle fill="url(#am)" cx="181.412" cy="63.07" r="1.751"/><radialGradient id="an" cx="395.479" cy="2196.745" r=".968" gradientTransform="scale(1.087) rotate(29.747 4281.074 653.706)" gradientUnits="userSpaceOnUse"><stop offset="0" stop-color="#e4554f"/><stop offset="1" stop-color="#ad2a27"/></radialGradient><circle fill="url(#an)" cx="154.391" cy="71.654" r=".569"/><radialGradient id="ao" cx="404.057" cy="2198.272" r=".967" gradientTransform="scale(1.087) rotate(29.747 4281.074 653.706)" gradientUnits="userSpaceOnUse"><stop offset="0" stop-color="#e4554f"/><stop offset="1" stop-color="#ad2a27"/></radialGradient><circle fill="url(#ao)" cx="161.66" cy="77.698" r=".57"/><radialGradient id="ap" cx="422.073" cy="2198.313" r=".968" gradientTransform="scale(1.087) rotate(29.747 4281.074 653.706)" gradientUnits="userSpaceOnUse"><stop offset="0" stop-color="#e4554f"/><stop offset="1" stop-color="#ad2a27"/></radialGradient><circle fill="url(#ap)" cx="178.608" cy="87.466" r=".569"/><radialGradient id="aq" cx="430.644" cy="2196.748" r=".969" gradientTransform="scale(1.087) rotate(29.747 4281.074 653.706)" gradientUnits="userSpaceOnUse"><stop offset="0" stop-color="#e4554f"/><stop offset="1" stop-color="#ad2a27"/></radialGradient><circle fill="url(#aq)" cx="187.545" cy="90.619" r=".569"/><g><path fill="#754C24" d="M150.766 101.095c2.213 0 4.004 2.572 4.004 5.745 0 3.174-1.791 5.747-4.004 5.747-2.207 0-4-2.573-4-5.747 0-3.173 1.793-5.745 4-5.745z"/><ellipse transform="rotate(-44.529 154.739 103.712)" fill="#754C24" cx="154.749" cy="103.72" rx="3.181" ry="4.567"/><path fill="#754C24" d="M159.953 99.316c.047 1.39-1.547 2.567-3.558 2.633-2.01.068-3.678-1.002-3.723-2.389-.049-1.39 1.545-2.567 3.557-2.635 2.013-.068 3.679 1.003 3.724 2.391z"/><linearGradient id="ar" gradientUnits="userSpaceOnUse" x1="-800.06" y1="2511.182" x2="-750.315" y2="2511.182" gradientTransform="matrix(-1.087 0 0 1.087 -690.682 -2626.48)"><stop offset="0" stop-color="#468333"/><stop offset=".194" stop-color="#508831"/><stop offset=".528" stop-color="#6c942a"/><stop offset=".959" stop-color="#98a920"/><stop offset="1" stop-color="#9dab1f"/></linearGradient><path fill="url(#ar)" d="M147.893 99.709c-7.949-3.54-10.567-5.184-22.981-2.31 4.051-7.233 16.518-9.233 23.649.615-6.156-12.006 2.205-19.805 9.953-19.854-7.133 6.722-8.926 12.724-8.104 19.343.051-12.417 14.11-16.778 23.649-10.262-12.875 2.153-16.877 3.849-21.188 11.185 7.799-10.773 22.266-3.488 26.112 6.721a46.932 46.932 0 0 0-3.487-1.896c-.203-.462-.41-.872-.564-1.283-.104.052-.307.359-.512.77a19.393 19.393 0 0 0-1.488-.667c-.205-.462-.41-.872-.719-1.229-.205.049-.359.409-.461.768-.515-.204-1.027-.357-1.49-.512-.201-.36-.408-.668-.715-.771-.104.153-.207.308-.258.463-.72-.207-1.388-.36-2.054-.515-.309-.462-.616-.924-.87-1.437-.31.257-.412.719-.517 1.18a26.104 26.104 0 0 0-1.998-.256c-.617-.359-1.182-.667-1.336-.719 0 0-.102.256-.256.615-2.926-.103-5.951.153-9.287.77 11.854 2.977 16.574 13.083 12.877 24.269-3.281-10.879-7.592-16.675-14.877-23.14-2.461 10.056-4.207 16.315-2.412 26.628-8.262-4.002-10.467-22.473.205-26.987-9.438 1.692-11.902 4.67-18.266 15.495-2.406-11.751 6.108-21.191 17.395-16.984z"/><linearGradient id="as" gradientUnits="userSpaceOnUse" x1="-777.997" y1="2571.609" x2="-745.255" y2="2571.609" gradientTransform="scale(-1.087 1.087) rotate(5.189 26886.23 8197.21)"><stop offset="0" stop-color="#4f8f39"/><stop offset="1" stop-color="#ccdb29"/></linearGradient><path fill="url(#as)" d="M148.766 101.71c-5.746-.104-7.797-.41-14.57 4.565.615-5.438 7.695-9.901 14.519-5.746-6.822-5.746-3.795-12.673.924-14.674-2.563 5.952-2.102 10.058.053 13.854-3.182-7.594 4.261-13.854 11.697-12.365-7.285 4.618-9.231 6.721-10.006 12.313 1.953-8.566 12.674-7.899 17.6-2.668-7.026-.975-11.645.309-17.084 3.898 7.953-1.23 13.492 3.695 14.107 11.442-4.82-5.8-8.924-8.158-15.031-10.263 1.076 6.771 1.693 11.032 5.387 16.828-6.055-.308-12.211-10.979-6.823-16.469-5.181 3.438-5.9 5.9-6.978 14.109-4.467-6.513-1.748-14.466 6.205-14.824z"/><path fill="none" d="M167.135 100.273c.666.153 1.385.308 2.053.515-.258.614-.309 1.436-.668 1.846-.256-.822-.824-1.592-1.385-2.361zM171.186 102.479c-.408-.257-.666-.873-.971-1.385.51.153.971.308 1.484.512-.101.412-.257.822-.513.873zM172.932 102.068c.514.205.976.411 1.488.667-.256.515-.563 1.129-.668 1.283-.308-.615-.564-1.283-.82-1.95zM163.748 99.761c.666.051 1.334.153 2.002.256-.104.309-.207.615-.412.822-.154-.155-.871-.617-1.59-1.078z"/></g></g><g fill="none" stroke-miterlimit="10"><path stroke="#D27E8E" stroke-width="4" stroke-linecap="round" d="M131.946 65.506c3.384 5.335 4.761 10.325 8.662 15.544 2.867 3.844 4.586 11.472 15.484 11.472 9.578 0 11.703-5.793 14.053-9.35 3.959-6.021 5.853-11.586 9.693-17.666"/><path stroke="#F6F6F6" stroke-width="2" stroke-linecap="round" d="M131.946 65.506c3.384 5.335 4.761 10.325 8.662 15.544 2.867 3.844 4.586 11.472 15.484 11.472 9.578 0 11.703-5.793 14.053-9.35 3.959-6.021 5.853-11.586 9.693-17.666"/><g stroke="#E7BAC3" stroke-width="2"><path d="M131.946 65.506c.113.172.229.345.287.459"/><path stroke-dasharray="2.0216,2.0216" d="M132.865 66.999c2.752 4.761 4.186 9.291 7.743 14.052 2.867 3.844 4.586 11.472 15.484 11.472 9.578 0 11.703-5.793 14.053-9.35 3.729-5.678 5.621-11.013 9.121-16.69"/><path d="M179.555 66.022c.113-.172.229-.345.285-.459"/></g></g></g></g><g><path fill="#285421" d="M204.09 85.438l-4.457 40.696 73.051 8.3 4.574-40.681-73.168-8.315z"/><path fill="#2E5F25" d="M202.615 87.647l-1.888 40.896 73.431 3.681 2.004-40.889-73.547-3.688z"/><path fill="#D9E5B7" d="M276.54 127.753l-73.351 5.103-2.835-40.748 73.352-5.103z"/><path fill="#346C2A" d="M200.233 92.024l2.955 40.832 73.351-5.008-2.836-40.84-73.47 5.016zm73.064 24.559a11.653 11.653 0 0 0-8.273 9.511l-50.66 3.523a11.65 11.65 0 0 0-9.512-8.273l-1.256-18.055a11.66 11.66 0 0 0 8.279-9.517l50.647-3.522a11.656 11.656 0 0 0 9.519 8.277l1.256 18.056z"/><path fill="#346C2A" d="M263.492 124.353l-47.853 3.329-.178-.39a13.47 13.47 0 0 0-8.463-7.361l-.408-.12-1.062-15.242.392-.177a13.481 13.481 0 0 0 7.367-8.47l.119-.408 47.838-3.328.176.39a13.475 13.475 0 0 0 8.471 7.366l.408.122 1.061 15.242-.389.176a13.455 13.455 0 0 0-7.359 8.461l-.12.41zm-47.095 2.043l46.162-3.211a14.7 14.7 0 0 1 7.519-8.641l-.943-13.552a14.7 14.7 0 0 1-8.646-7.523l-46.15 3.21a14.691 14.691 0 0 1-7.521 8.648l.943 13.552a14.69 14.69 0 0 1 8.636 7.517z"/><ellipse transform="rotate(-93.98 238.449 109.923)" fill="#D9E5B7" stroke="#346C2A" stroke-miterlimit="10" cx="238.452" cy="109.924" rx="17.044" ry="12.51"/><path fill="#346C2A" d="M239.502 125.097c-5.869.408-11.115-6.063-11.697-14.424s3.717-15.495 9.588-15.903c5.867-.409 11.115 6.063 11.695 14.422.582 8.363-3.717 15.497-9.586 15.905z"/><path fill="#D9E5B7" d="M245.293 112.268l-6.709.468c-.873.063-1.75.122-2.625.184-.185.014-.492.707-.558.861-.217.521-.237 1.102-.155 1.653.188 1.313 1.069 2.29 2.323 2.69 2.562.817 4.791-.502 6.884-1.785 1.112-.685 1.135 1.547.854 2.144-.41.872-1.834 1.372-2.672 1.664-2.375.826-5.297.931-7.525-.384-2.149-1.266-3.262-3.875-2.766-6.32l.066-.276c-.83.148-1.021-.51-.984-1.237.039-.81.648-.718 1.264-.76.248-.019.496-.035.744-.052.289-.021.762-.677 1.006-.87 1.002-.802 2.168-1.387 3.283-2.013-1.01.069-2.018.142-3.024.21-.673.049-1.343.095-2.013.142-.278.02-.737.145-1.014.069-.717.05-.834-1.936-.133-1.982.274-.021.551-.039.824-.059 1.325-.093 2.653-.185 3.979-.276l3.736-.26c.289-.021.485.046.643-.211.613-1.005.555-2.399-.182-3.331-1.594-2.018-4.746-.943-6.513.189-.254.163-.823.723-1.159.479-.347-.243-.318-1.038-.33-1.396-.037-1.099.75-1.499 1.674-1.911 2.141-.953 4.824-1.146 6.965-.08 2.205 1.1 3.201 3.621 2.732 5.992.834-.058 1.409-.185 1.483.879.066.974-.36 1.037-1.162 1.093-.6.041-1.039-.022-1.469.331-.973 1.142-2.299 1.912-3.609 2.604l3.89-.271c.647-.046 1.295-.091 1.942-.134.908-.062 1.05 1.905.31 1.956z"/><path fill="#346C2A" d="M216.479 116.732a5.262 5.262 0 0 1-5.612-4.881 5.266 5.266 0 0 1 4.883-5.612 5.262 5.262 0 0 1 5.61 4.883 5.265 5.265 0 0 1-4.881 5.61zm-.69-9.88a4.653 4.653 0 0 0-4.312 4.956 4.652 4.652 0 0 0 4.957 4.313 4.652 4.652 0 0 0 4.312-4.957 4.65 4.65 0 0 0-4.957-4.312z"/><g fill="#346C2A"><path d="M214.545 110.123c-1.963-2.52-2.769-1.596 0 0zM217.479 109.919c2.517-1.961 1.592-2.768 0 0z"/><path d="M217.479 109.919c-.313.243-.68.504-1.1.776a15.529 15.529 0 0 1-.412-1.282c-.047.393-.121.834-.227 1.325-.455-.211-.854-.42-1.195-.616.242.312.502.676.776 1.099-.473.173-.899.308-1.282.41.393.049.836.123 1.328.229-.214.456-.423.854-.619 1.194.313-.242.678-.502 1.1-.775.172.474.307.9.41 1.282.047-.394.123-.835.227-1.326.457.211.854.418 1.195.615a15.477 15.477 0 0 1-.775-1.097c.474-.174.9-.308 1.283-.41a15.337 15.337 0 0 1-1.328-.229c.211-.457.418-.852.619-1.195zM214.748 113.054c-2.519 1.965-1.597 2.767 0 0zM217.68 112.85c1.963 2.521 2.769 1.596 0 0zM216.258 113.561c-.396 3.168.828 3.083 0 0z"/><path d="M215.967 109.414c.393-3.169-.828-3.085 0 0zM218.188 111.343c3.166.394 3.082-.828 0 0zM214.039 111.631c-3.168-.393-3.086.828 0 0z"/></g><path fill="#346C2A" d="M260.896 113.643a5.262 5.262 0 0 1-5.61-4.882 5.258 5.258 0 1 1 5.61 4.882zm-.685-9.88a4.649 4.649 0 0 0-4.313 4.955 4.65 4.65 0 0 0 4.957 4.313 4.65 4.65 0 0 0 4.31-4.957 4.648 4.648 0 0 0-4.954-4.311z"/><g fill="#346C2A"><path d="M258.965 107.032c-1.965-2.517-2.771-1.594 0 0zM261.896 106.83c2.52-1.964 1.596-2.768 0 0z"/><path d="M261.896 106.83a15.4 15.4 0 0 1-1.1.775 16.539 16.539 0 0 1-.41-1.282c-.047.395-.123.834-.227 1.327a15.048 15.048 0 0 1-1.195-.618c.242.313.502.677.774 1.1-.471.173-.897.308-1.282.41.395.048.838.123 1.328.229-.214.457-.421.854-.619 1.194.313-.242.678-.502 1.1-.775.172.474.308.9.41 1.282.049-.394.123-.835.227-1.327.457.212.855.42 1.195.616a16.07 16.07 0 0 1-.774-1.097c.473-.175.899-.308 1.282-.41a15.337 15.337 0 0 1-1.328-.229c.213-.458.422-.854.619-1.195z"/><path d="M259.166 109.964c-2.52 1.964-1.597 2.768 0 0zM262.098 109.76c1.965 2.52 2.769 1.596 0 0zM260.676 110.471c-.393 3.169.828 3.083 0 0zM260.387 106.323c.394-3.169-.828-3.085 0 0zM262.604 108.253c3.17.393 3.086-.828 0 0zM258.457 108.542c-3.168-.395-3.082.828 0 0z"/></g></g></svg>