<svg xmlns="http://www.w3.org/2000/svg" xmlns:xlink="http://www.w3.org/1999/xlink" width="143.936" height="146.604" viewBox="0 0 143.936 146.604"><ellipse opacity=".1" cx="72.231" cy="127.724" rx="65.784" ry="18.881"/><linearGradient id="a" gradientUnits="userSpaceOnUse" x1="5.273" y1="60.184" x2="141.092" y2="60.184"><stop offset="0" stop-color="#cc6b11"/><stop offset=".658" stop-color="#efb85e"/><stop offset=".99" stop-color="#cc6b11"/></linearGradient><path fill="url(#a)" d="M141.092 60.183c0 5.136-30.404 9.301-67.91 9.301S5.273 65.318 5.273 60.183c0-5.134 30.402-9.3 67.908-9.3s67.911 4.166 67.911 9.3z"/><path fill="#F8A244" d="M137.527 63.941s9.168-3.987 5.572-8.173-13.338 3.893-13.338 3.893l-.967 2.248 8.733 2.032z"/><path fill="#F4CC7A" d="M131.494 70.025a3.226 3.226 0 0 1-3.213-2.972c-2.811-35.704-30.107-51.686-55.912-51.686S19.27 31.35 16.457 67.054a3.225 3.225 0 0 1-6.43-.506c3.117-39.595 34.502-57.63 62.342-57.63 27.842 0 59.227 18.035 62.342 57.63a3.224 3.224 0 0 1-3.217 3.477z"/><path fill="#EFA154" d="M51.41 91.519C43.826 93.48 36.842 76.631 33.199 66.18c-3.643-10.453-13.939-44.815-9.504-50.835 4.436-6.018 15.682 5.226 17.58 15.36 0 0 5.227 5.542 5.701 14.57 0 0 4.908 3.801 4.434 13.146 0 0 4.117 6.49 2.85 13.301 0 0 6.336 17.421-2.85 19.797z"/><path fill="#F7CE80" d="M40.891 31.09s-3.166-2.218-6.969-1.426c-3.801.793-6.174 6.018-6.174 6.018s6.174-5.383 13.143-4.592zM46.592 45.658s-2.762-2.215-7.479-1.424c-4.715.791-6.301 7.128-6.301 7.128s5.543-6.494 13.78-5.704zM51.027 58.805s-9.502-5.226-13.621 4.75c0 0 4.278-4.118 13.621-4.75zM54.26 71.722s-8.076-2.683-9.658 4.043c0 0 3.009-3.251 9.658-4.043z"/><path fill="#FCAD65" d="M27.748 31.248c-1.861 2.46-4.076-11.79-2.496-14.324 1.586-2.535 6.572-.635 9.066 2.771 2.494 3.404 5.504 8.043 3.604 8.494-1.901.453-6.231-2.156-10.174 3.059zM31.617 47.234c-1.75.346-2.643-10.043 1.195-12.497 3.844-2.452 7.102-2.687 9.357 0 2.463 2.935 3.115 7.049 2.047 7.209-1.068.156-4.529.228-6.758.906-2.228.677-3.755 3.968-5.841 4.382zM36.92 60.497c-2.154.254-4.086-3.921-2.602-7.829 1.486-3.914 9.945-7.409 12.811-5.23 2.869 2.18 3.359 6.623 2.303 8.088-1.057 1.463-5.676-.672-7.563 0-1.89.672-2.467 4.675-4.949 4.971zM41.869 73.01c-1.574.065-4.463-9.933 2.348-12.07 6.811-2.135 8.041 1.277 8.24 4.284.191 3.009-.629 5.014-2.514 4.407-1.886-.606-4.918 3.245-8.074 3.379zM53.68 88.745c-2.604 1.851-10.711-6.734-10.236-9.426.475-2.693 6.598-6.644 9.682-5.353 3.081 1.292 2.665 13.278.554 14.779z"/><path fill="#FFBB71" d="M32.813 26.767c-3.137.297-3.424-3.658-1.195-4.059 2.226-.399 5.513 3.646 1.195 4.059z"/><path fill="#FFBB71" d="M28.736 20.826c-1.893.813 1.563 4.43 2.73 3.199 1.171-1.23-.116-4.326-2.73-3.199z"/><path fill="#FFBB71" d="M32.813 22.025c-1.564.04-1.266-1.495 0-1.199 1.271.293 1.705 1.153 0 1.199zM28.713 24.462a.462.462 0 0 0-.428 0 .522.522 0 0 0-.291.459.51.51 0 0 0 .506.505c.273 0 .506-.23.506-.505a.519.519 0 0 0-.293-.459zM38.887 35.959c-.297-1.138-1.951-2.465-3.027-1.48-.305.275-.367.699-.406 1.085-.021.232.043.444.15.631a.85.85 0 0 0-.227.136c-.33.281-.234.811-.068 1.15a.63.63 0 0 0 .555.315c.096-.003.191-.021.285-.039.352-.068.496-.455.436-.769a.034.034 0 0 0-.004-.012c.473.341 1.145.297 1.668.113.474-.169.771-.617.638-1.13zM37.137 40.212c-.006-.016-.012-.028-.016-.044.02-.16.012-.329-.029-.494-.188-.791-1.09-1.252-1.777-1.518-.52-.198-1.242-.195-1.637.256-.258.176-.473.44-.613.783-.342.842.379 1.827 1 2.316.27.211.568.424.904.514.09.026.184.044.279.052.002 0 .002.003.004.003.041.002.107.009.221.021.078.009.15.016.229.017.189.002.398-.025.576-.096.765-.292 1.079-1.037.859-1.81zM38.82 38.894l.01-.052c.014-.323-.281-.592-.592-.592-.305 0-.611.269-.59.592.016.232.1.55.336.662.252.118.463.089.68-.082.154-.121.199-.343.156-.528zM46.561 50.099c-.254-.381-.619-.616-1.018-.796-1.02-1.222-3.408-1.664-3.717.348-.02.135-.029.269-.029.403a2.428 2.428 0 0 0-.164-.194c-.213-.229-.613-.284-.875-.114a.996.996 0 0 0-.146.114c-.035.047-.072.093-.107.138a.471.471 0 0 0-.078.175c-.004.013-.008.027-.014.041a.49.49 0 0 0-.014.117v.021a.722.722 0 0 0 .059.301.55.55 0 0 0 .305.442c.127.178.352.29.564.29.285 0 .498-.163.615-.397.236.702.736 1.312 1.426 1.638.973.464 2.563.607 3.207-.47.38-.637.398-1.437-.014-2.057zM40.924 53.753c-.074-.428-.475-.799-.824-1.022a1.61 1.61 0 0 0-.914-.264.966.966 0 0 0-.207-.106c-.434-.151-.92.062-1.23.364-.328.319-.496.847-.336 1.289.223.609.779.91 1.367 1.097.531.165 1.094.254 1.609-.018.5-.261.625-.83.535-1.34zM46.455 63.093c-.695-.084-1.381.461-1.771 1.04-.178-.447-.508-.812-1.029-.9-.629-.109-1.094.18-1.445.615a1.985 1.985 0 0 0-.238.286c-.145.212-.258.46-.338.728-.047.113-.092.22-.131.329-.244.644-.303 1.633.246 2.07.082.194.182.374.303.529.492.639 1.404.389 1.869-.117.25-.271.434-.576.572-.899.625 1.411 2.494.678 3.199-.341.855-1.233.371-3.143-1.237-3.34z"/><path fill="#FFBB71" d="M48.572 64.746c-.449 0-.582.586-.221.815a.39.39 0 0 0 .441 0c.36-.229.229-.815-.22-.815zM52.453 77.69a1.936 1.936 0 0 0-.139-.418 2.763 2.763 0 0 0-.217-.694c-.166-.374-.471-.72-.836-.997a2.269 2.269 0 0 0-1.045-.785c-.748-.271-1.828.131-2.219.82-.291.521-.16 1.065.121 1.53a.829.829 0 0 0-.141 0c-.275.029-.51.209-.51.509 0 .299.234.48.51.51a.562.562 0 0 0 .418-.111.387.387 0 0 0 .059-.048c.002-.001.006-.003.008-.008-.002.002-.002.005-.004.005a.482.482 0 0 0 .143-.259c.32.316.766.631 1.24.85.359.256.752.45 1.148.533.972.205 1.652-.479 1.464-1.437z"/><g><path fill="#D3D3D3" d="M77.377 73.948s19.877-32.228 23.119-34.591 9.414-2.11 10.373-2.309c.959-.199 6.414-7.225 7.158-8.621 0 0-1.383-1.722-.391-2.749.994-1.03 2.441-1.563 7.428 1.494s6.918 5.236 5.779 6.934c-1.143 1.695-4.061.426-4.061.426s-5.566 8.127-5.836 8.911c-.27.785 2.504 6.348 1.943 9.485-.557 3.137-20.957 34.748-22.172 36.364-1.213 1.614-21.727-1.021-23.34-15.344z"/><path fill="#EAEAEA" d="M79.148 73.746s18.441-31.18 21.686-33.543c3.242-2.364 9.336-1.756 10.297-1.954.957-.199 7.025-8.168 7.768-9.563 0 0-1.154-.982-.469-2.237.543-.985 1.07-1.884 6.055 1.175 4.986 3.06 6.996 4.238 5.857 5.934-1.139 1.696-4.301.232-4.301.232s-6.176 8.54-6.447 9.324c-.27.785 2.547 6.624 1.986 9.76-.559 3.137-20.258 34.027-21.471 35.644-1.216 1.613-19.345-.453-20.961-14.772z"/><path fill="#FFF" d="M99.607 42.133S80.39 71.035 79.148 73.746c-1.244 2.709 4.672 8.671 7.357 10.604 2.688 1.934 11.334 3.638 12.941 3.147 1.602-.488 20.104-31.196 20.934-33.283.83-2.088.459-4.72-1.014-5.526-1.475-.807-4.338-.984-5.354-1.373s-.309-3.136-2.082-3.842c-1.771-.706-3.285 1.291-4.412.85-1.131-.443-.664-1.538-2.762-2.733-1.422-.814-4.307-.61-5.149.543z"/><path fill="#A0A0A0" d="M118.877 29.282s2.518 3.344 7.135 5.218c0 0-5.899-1.611-7.135-5.218z"/><path fill="#FCB77E" d="M120.307 25.753s1.768-3.993 2.113-4.396c.346-.399 11.195 5.988 10.988 6.695-.205.703-3.26 4.157-3.26 4.157s-7.982-2.438-9.841-6.456z"/><path fill="#FFF" d="M125.143 32.388c-.246-.554-.717-.777-1.215-1.104a14.438 14.438 0 0 1-1.867-1.479c-.99-.911-1.646-2.161-2.678-3.011-.262-.219-.561.109-.525.372.188 1.458 1.543 2.76 2.574 3.71.861.795 2.23 2.166 3.482 2.015.24-.028.313-.319.229-.503zM104.852 39.337c3.098-.281 5.887.717 8.125-1.67 1.342-1.434 4.037-6.006 4.914-5.963.875.044 1.781 1.189 1.518 1.813-.266.624-4.867 6.773-5.211 7.315-.342.54-5.35 1.92-6.373 1.245-1.026-.68-2.018-1.998-2.973-2.74z"/><path fill="#FFCEA9" d="M120.918 25.775l1.631-3.217s4.746 2.241 6.949 3.584c2.205 1.343-.668 4.255-.668 4.255s-4.299-.863-7.912-4.622z"/><path fill="#9B511B" d="M120.307 25.753s1 3.39 9.842 6.456c0 0-3.922-.883-6.615-2.659-2.694-1.78-3.227-3.797-3.227-3.797z"/></g><g><path fill="#24630D" d="M89.947 23.191c-2.186-.5-3.199.007-4.324.905-1.121.898-4.15 8.836-6.26 12.73-2.109 3.896-6.943 16.071-7.201 22.41-.262 6.343.936 12.134 2.346 13.454 1.41 1.322 3.9 2.487 5.543 2.729s6.918-.28 7.615-2.771c.697-2.49.107-18.97 1.09-22.86.98-3.887 7.744-20.464 7.207-21.985-.535-1.52-2.334-3.768-6.016-4.612z"/><path fill="#327214" d="M90.73 26.315c-2.162-.918-3.797.376-6.598 5.563-2.803 5.188-7.6 19.82-7.732 22.152-.135 2.333-.473 14.333-.006 15.802.467 1.467 5.338 2.856 6.492 1.893 1.154-.962 1.564-19.152 1.58-21.43.014-2.274 2.713-8.936 4.521-12.858 1.806-3.92 4.333-10.02 1.743-11.122z"/><path fill="#21540B" d="M81.615 73.596s3.49-.884 3.779-2.043c.285-1.158.768-18.453 1.457-22.206.689-3.754 5.094-13.809 5.605-15.378.514-1.568 2.063-4.447 1.75-5.651l-1.863-2.932s3.398 1.271 3.619 2.416-7.219 20.628-7.436 23.314c-.217 2.684-.08 21.276-1.205 22.226-1.125.952-5.43 2.591-7.117 2.097-1.688-.498 1.411-1.843 1.411-1.843z"/><path fill="#85D348" d="M91.076 20.415s-2.164-.913-2.617-.534c-.453.378-1.865 3.557-1.865 3.557s2.715 1.036 3.096 1.02c.379-.018 1.121-.432 1.121-.432s.674.842 1.086 1.115c.418.271 2.266 1.119 2.492 1.165.225.046.533-.258.533-.258s-.012.694.178.922c.189.225.67.375.67.375s.516-.65.613-.911c.102-.264.631-2.177.488-2.394-.145-.219-.91-.607-.91-.607s-.033-.761-.186-.934c-.154-.171-.594-.309-.594-.309s.236-1.173.129-1.336-2.479-1.446-2.857-1.429c-.381.016-1.377.99-1.377.99z"/><path fill="#194705" d="M92.465 26.291s1.076 1.865.955 2.922c-.123 1.055-1.635 4.225-1.635 4.225s1.287-3.31 1.201-4.407c-.084-1.099-.521-2.74-.521-2.74zM89.688 24.926s-2.115.225-2.857.874c-.744.647-2.301 4.138-2.301 4.138s2.027-3.489 2.623-3.885c.599-.395 2.535-1.127 2.535-1.127zM89.674 38.482s-2.477 6.266-3.055 8.756c-.578 2.491-1.254 9.263-1.254 9.263s.135-7.233.699-9.304c.563-2.072 3.61-8.715 3.61-8.715zM74.598 59.171s.35 9.532 1.244 11.184c.566 1.044 3.621 2.288 3.621 2.288s-3.49-1.326-3.92-1.856c-.957-1.183-1.002-8.243-.945-11.616zM81.693 73.098s1.85-.751 2.564-2.861c.711-2.112.609-7.845.609-7.845s.523 5.044-.271 7.912c-.796 2.869-2.902 2.794-2.902 2.794z"/><path fill="#ACE298" d="M80.533 74.27c-1.986-.229-3.375-.343-3.184.265 0 0 .348 1.147 1.344.983 0 0 .82.985 2.479.14 0 0 1.604.759 1.928-.37.193-.671-1.334-.872-2.567-1.018z"/><path fill="#518E1B" d="M91.439 20.771s.707.565.701 1.083c-.006.515-.816 1.747-.816 1.747l-.422-.638s.477-1.829.537-2.192zM95.941 23.754s.26 1.043-.783 2.004c-1.043.964-.236.29-.236.29l1.019-2.294z"/><path fill="#194705" d="M94.459 27.077s.715.799.594 1.669c-.119.868-.775 2.708-.775 2.708s.818-2.285.181-4.377z"/><path fill="#448C1E" d="M89.887 27.077c-2.158-.809-5.754 4.801-9.654 16.168-4.33 12.632-3.402 15.63-1.344 15.777 2.061.151 3.68-9.818 4.229-11.932 1.917-7.393 9.501-18.988 6.769-20.013z"/></g><g><path fill="#BCB23F" d="M76.473 43.594c-.432-.08-1.078-.726-1.52-.587-1.588.494-3.133 2.293-3.793 4.64-.848 3.003-2.354 8.419-3.572 11.27-1.219 2.852.441 6.221 3.16 8.791 2.719 2.565 5.021 2.546 6.135 2.506 1.111-.037 1.301-1.466 2.945-1.242 1.645.226 3.799 1.302 5.531-.457 1.73-1.76 4.361-4.807 3.873-8.349-.527-3.804-6.129-6.412-6.857-8.14-.648-1.55-.521-6.79-4.531-8.621-.465-.216-.785.302-1.371.189z"/><defs><path id="b" d="M74.953 43.007c-1.588.494-3.133 2.293-3.793 4.64-.848 3.003-2.354 8.419-3.572 11.27-1.219 2.852.441 6.221 3.16 8.787 2.719 2.569 5.021 2.55 6.135 2.511 1.111-.038 1.301-1.467 2.945-1.243 1.645.226 3.799 1.302 5.531-.457 1.73-1.76 4.361-4.807 3.873-8.349-.527-3.804-6.129-6.412-6.857-8.14-.648-1.55-.521-6.79-4.531-8.621-.25-.115-.459-.019-.688.076-.199.083-.414.165-.684.113-.389-.072-.957-.606-1.389-.606a.357.357 0 0 0-.13.019"/></defs><clipPath id="c"><use xlink:href="#b" overflow="visible"/></clipPath><path clip-path="url(#c)" fill="#A89D35" d="M74.666 43.11s-1.93 1.191-2.973 5.045c-1.039 3.854-2.273 11.184-1.172 13.784 1.098 2.602 3.93 4.949 5.395 4.927 1.463-.027 4.018-.163 5.025.565s4.268 1.426 6.518-1.372c0 0-.906 2.685-2.916 4.032-2.012 1.346-4.512-.19-5.744.636-1.23.825-4.465 1.556-8.955-2.232-4.488-3.786-5.426-5.639-4.107-9.385 1.318-3.743 3.994-7.679 4.229-9.947.235-2.268 2.891-6.537 4.7-6.053"/><path fill="#E5D96A" d="M80.348 46.101c-.715-1.096-1.496-1.804-2.076-1.5-.582.303-1.164 1.989-3.342.414-1.221-.884-2.699 2.805-3.061 5.615-.361 2.81-.486 9.495 2.307 11.876 2.795 2.381 4.861 1.068 6.572 2.193 3.668 2.41 6.996.028 7.494-2.41.5-2.439-.732-5.647-3.455-7.256-2.721-1.605-3.289-2.983-3.324-4.813-.033-1.828-.608-3.339-1.115-4.119z"/><path fill="#F4E782" d="M78.98 45.657c-.932-.427-2.889.499-3.869 2.437-.982 1.942.139 5.887 1.994 9.486 1.855 3.599 7.777 7.427 9.488 5.866 1.713-1.562 1.371-5.394-1.008-6.934-2.381-1.539-3.455-1.969-4.316-3.194-.859-1.223.409-6.436-2.289-7.661z"/><path fill="#FFF7AE" d="M80.115 47.92c-.779-1.55-1.861-1.798-2.93-.945-1.068.854-.631 5.868 1.203 6.834 1.833.962 2.653-4.045 1.727-5.889zM86.803 59.91c-.059-1.941-1.012-3.098-2.592-3.787-1.576-.691-3.76 1.074-3.779 3.228-.02 2.152 6.525 5.84 6.371.559z"/><path fill="#E5D96A" d="M78.209 43.991c-.088-.291-.258-.351-.555-.365-.521-.026-.838.316-1.389.078-.369-.16-1.201-.574-1.563-.256-.131.11.004.292.148.267.48-.091 1.152.476 1.6.621.24.079.508.026.746-.024.137-.029.264-.081.396-.119.139-.036.34.036.496 0 .088-.019.148-.116.121-.202z"/><path fill="#F4E782" d="M77.941 43.989c-.025-.4-.816-.39-1.049-.212-.096.072-.115.255.033.285.168.033.336-.007.502-.011.141-.002.301.08.438.033.041-.014.078-.048.076-.095z"/><path fill="#FFF7AE" d="M77.908 43.797c-.051-.117-.18-.151-.299-.165-.105-.013-.297.031-.33.151-.041.138.135.15.227.143.107-.005.209.028.309.03.089.002.124-.087.093-.159z"/><path fill="#F4E782" d="M77.844 43.839c-.111-.13-.289-.144-.451-.135-.172.008-.391.043-.512.178-.031.033-.02.088.025.099.139.044.291-.005.432-.026.152-.028.299.011.449.01.07-.001.1-.077.057-.126z"/><path fill="#141E08" d="M76.15 44.679s.922-1.527.428-4.018c-.496-2.49-2.273-4.021-2.273-4.021s-1.146-.003-1.232.321c0 0 2.262 2.123 2.783 3.976s.072 3.651-.029 3.904c-.102.25.15.203.323-.162z"/></g><g><path fill="#FF9750" d="M64.377 5.164l.83-5.106s5.818-.595 9.146 2.02l-2.137 4.87-7.839-1.784z"/><path fill="#D85555" d="M64.377 3.978c-2.021-.103-2.139 2.255 0 3.206 0 0-1.783 11.876-3.803 13.897-2.018 2.019-7.244 3.867-10.215 8.942-2.969 5.072-10.174 42.842-10.846 45.93-.674 3.088 22.133 12.945 24.863 5.107 2.732-7.839 9.025-42.164 8.668-45.846-.354-3.682-4.393-10.452-4.75-12.709-.354-2.257 2.377-12.945 2.73-13.896 2.26.477 3.713-1.662 2.035-2.851s-6.307-1.662-8.682-1.78z"/><path fill="#721919" d="M65.168 4.67c-1.961-.098-2.076 1.355 0 2.277 0 0-1.127 13.013-3.086 14.972-1.963 1.961-7.717 3.952-10.6 8.881-2.885 4.928-9.68 40.653-10.332 43.654-.656 2.999 19.436 11.824 22.09 4.212 2.654-7.614 8.84-39.408 8.494-42.984-.348-3.575-4.523-10.813-4.869-13.002-.348-2.19 2.947-13.523 3.293-14.446 2.193.46 3.264-.693 1.637-1.846-1.631-1.157-4.318-1.602-6.627-1.718z"/><path fill="#FFD0A9" d="M51.844 33.708s10.744 3.091 17.99 3.444c0 0-3.955 23.361-4.666 26.211-.635 1.425-17.182-1.899-18.844-4.038 0 0 4.442-22.646 5.52-25.617z"/><path fill="#FFE5D2" d="M52.271 34.737s10.008 2.88 16.754 3.209c0 0-3.68 21.757-4.344 24.41-.59 1.329-16.004-1.768-17.553-3.762.001.001 4.14-21.092 5.143-23.857z"/><path fill="#230303" d="M65.168 6.947s4.498 1.255 5.385 1.354c0 .001-2.977-1.354-5.385-1.354z"/><path fill="#D85555" d="M61.695 24.968c-2.203-.442-8.258 3.683-8.809 6.28-.549 2.6 7.709 3.609 9.482 3.056 1.778-.554 2.577-8.681-.673-9.336z"/><path fill="#E26666" d="M56.531 52.769c.004 0 .004-.006.004-.01.014.007.023.015.035.02-.013-.005-.025-.006-.039-.01m7.418-7.216c-.045-.009-.09-.009-.133-.009.176-.182.328-.438.438-.783.217-.674-.646-1.689-1.65-1.84a1.19 1.19 0 0 0-.588.071c.092-.432-.146-.932-.797-1.02-.684-.093-1.301.547-1.125 1.074a1.219 1.219 0 0 0-.391-.026c.209-.482.729-1.53 1.418-1.866.902-.438 3.537.336 3.537.336l-.162-.609s-2.227-.522-3.477-.144-1.73 2.461-1.73 2.461l-.057.055c-.264-.382-.777-.602-1.213-.824-.67-.34-1.889.382-2.107 1.146-.182-.462-.721-.928-1.32-1.014-.828-.123-1.521.884-1.16 1.613.197.405.791.831 1.367.856-.35.379-.613.932-.529 1.396.076.434.385.837.795 1.099a.593.593 0 0 0-.16.066c-.305.086-.525.345-.475.778-.412-.15-.814-.11-1.074.207-.393.473-.152 1.153.268 1.593-.527.168-1.061.679-.984 1.14.088.527.639 1.016 1.113 1.208-.459.302-.717.94-.467 1.448.143.284.482.585.871.74-.277.41-.191.971.682 1.187.932.229 1.361-.637 1.049-1.203.125.056.277.094.457.104.453.033.949-.658.885-1.301-.025-.272-.201-.488-.428-.619.047.016.098.033.15.044.721.179 1.141-.299 1.15-.786.197.083.395.1.566.022.486-.219.844-.574.867-.969.871.464 2.053-.465 1.377-1.62a1.316 1.316 0 0 0-.482-.476c.086.003.172.003.252-.005.207-.017.584-.328.809-.709.018.069.037.139.07.208.359.727 1.988 1.53 2.512-.098a.753.753 0 0 0-.027-.473c.502.063 1.014-.158 1.266-.944.176-.555-.537-1.394-1.363-1.514"/></g><g><path fill="#8E852D" d="M74.469 44.321s.789-.093 1.234.289c.447.384 1.225.222 1.541-.213 0 0-.275 1.065-1.061.904-.787-.161-.507-.704-1.714-.98z"/><path fill="#BF2201" d="M61.727 55.381c-1.305-.143-4.117-3.713-7.916-3.94-3.799-.229-9.625 4.01-9.303 10.823.326 6.813 5.229 12.678 8.205 13.573 2.98.897 4.113-.006 4.74-.085.627-.078 1.334 1.447 3.684 1.834 2.352.391 9.391-4.322 11.459-9.847 2.064-5.525-1.076-10.807-4.094-11.82-3.018-1.013-5.014-.344-6.775-.538z"/><defs><path id="d" d="M44.508 62.264c.326 6.813 5.229 12.678 8.205 13.573 2.98.897 4.113-.006 4.74-.085.627-.078 1.334 1.447 3.684 1.834 2.352.391 9.391-4.322 11.459-9.847 2.064-5.525-1.076-10.807-4.094-11.82-1.994-.671-3.543-.604-4.873-.539-.68.034-1.305.07-1.902.001-1.305-.143-4.117-3.713-7.916-3.94a3.666 3.666 0 0 0-.299-.011c-3.797 0-9.321 4.195-9.004 10.834"/></defs><clipPath id="e"><use xlink:href="#d" overflow="visible"/></clipPath><path clip-path="url(#e)" fill="#AD1800" d="M68.502 55.919c-.324-.022 2.504 1.723 3.068 4.913.633 3.549-.795 7.95-5.535 10.846-7.676 4.69-14.299 4.946-20.496-2.249 0 0 .916 8.477 11 10.565 10.088 2.085 14.422-5.242 16.842-10.298 2.418-5.055-.688-13.482-4.879-13.777"/><path fill="#DD2A12" d="M53.166 73.738c-1.814-.125-5.002-1.437-6.922-7.437-1.922-5.999.645-10.028 2.012-11.313 1.363-1.287 3.428-2.728 6.168-1.578 2.74 1.146 2.951 4.049 5.896 5.618 2.943 1.568 5.967.279 7.127-.177 1.158-.459 3.336 1.709 1.813 6.408-2.065 6.356-10.867 8.833-16.094 8.479z"/><path fill="#F22F20" d="M65.918 64.046c-.604 1.807-5.715 7.006-10.701 6.096-4.984-.916-8.764-4.796-8.84-8.485-.072-3.688 1.938-8.016 5.297-7.703 3.361.315 5.354 2.552 6.078 3.534 3.885 5.265 9.924 1.292 8.166 6.558z"/><path fill="#FF8B7B" d="M60.646 63.761c1.779-1.28 1.172-2.547-.902-3.483-2.08-.936-3.139-1.364-3.648-3.674-.516-2.313-2.904-3.013-4.547-2.266s-3.127 4.117 1.031 7.36c4.156 3.243 7.154 2.721 8.066 2.063zM48.883 56.449c.09-.235.105-.497.217-.73.078-.165-.096-.399-.281-.352a.752.752 0 0 0-.473.335 1.049 1.049 0 0 0-.148.671c.044.356.558.406.685.076z"/><path fill="#DD2A12" d="M67.604 56.501c-1.105-1.1-3.041-.735-4.447-.671-2.156.098-3.412-1.399-4.98-2.616-.902-.697-2.045-1.108-3.146-1.338-.67-.139-2.096-.645-2.563.121-.035.059.006.128.078.123 2.512-.152 4.682 1.215 6.432 2.888 1.051 1.003 2.186 1.73 3.668 1.798.688.03 1.377-.067 2.061-.106.924-.054 1.729.228 2.629.293.236.015.467-.292.268-.492z"/><path fill="#FF8B7B" d="M59.266 54.338c-.193-.633-.988-1.093-1.551-1.381-.643-.324-1.35-.75-2.092-.704-.08.006-.115.137-.043.179.627.354 1.297.53 1.889.977.498.375.973 1.003 1.584 1.154.15.038.26-.077.213-.225z"/><path fill="#AD1800" d="M61.355 58.358c-.639-.119-1.217-.604-1.896-1.366s-.822-1.199-.744-1.416c.078-.212.992.265 1.473.735.484.47 1.139 1.055 2.373.998 1.232-.05 2.908-.474 2.906-.009-.002.465-3.149 1.239-4.112 1.058z"/><path fill="#2C4711" d="M61.182 58.046s1.207-5.17-1.932-9.083l1.289-1.214s3.303 7.316 1.037 10.492c0 0-.58.378-.394-.195z"/><path fill="#557A25" d="M61.57 52.085c-.311-1.015-.668-2.559-1.572-3.213-.074-.052-.193.03-.143.118.586 1.033.969 2.068 1.277 3.219.148.557.264 1.121.348 1.691.098.655 0 1.343.182 1.981.031.117.172.14.229.026.55-1.103.017-2.717-.321-3.822z"/><path fill="#931602" d="M57.471 54.305s1.43.791 1.945 1.986c.514 1.196 2.02 2.298 3.477 1.732 1.455-.565 2.83-1.173 3.434-.938 0 0-1.969.941-3.27 1.584-1.297.643-3.012-.366-3.984-1.947-.975-1.581-1.003-2.181-1.602-2.417z"/></g><g><path fill="#B7B7B7" d="M86.529 51.613s-1.93-.085-2.24.897c-.307.981.857 5.073 7.428 9.403 6.574 4.326 11.24 4.794 13.859 4.761 1.979-.027 1.898-1.783.871-2.572-1.029-.794-19.918-12.489-19.918-12.489z"/><path fill="#335D8C" d="M89.936 46.324s-2.855 4.301-4.156 6.187c-1.383 2.006 9.105 12.801 20.43 12.801.461 0 4.164-6.871 4.164-6.871s-15.212-3.644-20.438-12.117z"/><path fill="#19415E" d="M87.014 55.64l4.467-7.247s12.121 8.219 16.967 9.816l-3.877 7.028c-.001 0-9.501.321-17.557-9.597z"/><path fill="#B7B7B7" d="M111.904 58.084c-1.104 1.684-6.883.192-13.1-3.447-6.215-3.642-10.549-8.077-9.416-9.739 1.846-2.694 6.883-.193 13.1 3.448s10.768 7.67 9.416 9.738z"/><path fill="#898989" d="M102.227 48.797c-5.326-3.121-10.211-4.68-10.914-3.481a.66.66 0 0 0-.078.299c1.063-.511 5.514 1.217 10.449 4.105 4.934 2.893 8.615 5.931 8.689 7.108a.62.62 0 0 0 .223-.217c.703-1.198-3.047-4.696-8.369-7.814z"/><path fill="#E5E5E5" d="M101.684 49.72c-4.936-2.889-9.387-4.616-10.449-4.105-.061 1.409 3.516 4.623 8.453 7.517 4.934 2.89 9.488 4.438 10.686 3.697-.075-1.179-3.757-4.217-8.69-7.109z"/><path fill="#B7B7B7" d="M94.57 47.948c.975-1.339 12.684 4.844 11.639 6.84-.711 1.365-12.615-5.502-11.639-6.84z"/><path fill="#71A5D3" d="M94.514 60.883c-5.305-3.526-7.15-7.979-6.279-9.27.869-1.289 5.895.793 9.559 3.354s8.043 5.431 6.832 7.755c-.923 1.777-7.587-.16-10.112-1.839z"/><path fill="#E5E5E5" d="M89.582 52.774s8.014.557 11.094 7.644l3.027.229-2.482 2.425-.826-1.487s-9.706-1.925-10.813-8.811z"/><path fill="#383838" d="M92.943 54.186h-.382l.068-.433-.316-.05-.079.483h-.754v.322h.704l-.071.435.321.05.074-.485h.435z"/><path fill="#D0D5D8" d="M107.012 56.769c-1.6-.682-3.254-1.147-4.82-1.933-1.641-.819-3.209-1.79-4.721-2.826a65.999 65.999 0 0 1-3.818-2.833c-1.313-1.049-2.182-2.204-3.057-3.622-.164-.264-.549-.086-.488.209.607 2.868 3.998 4.957 6.197 6.561a35.287 35.287 0 0 0 5.064 3.085c1.674.838 3.643 1.731 5.545 1.719.178-.002.283-.282.098-.36zM91.789 44.179c-.232-.236-.582-.171-.873-.088-.135.04-.266.1-.396.159-.16.076-.203.208-.316.329-.191.201.045.459.279.36.053-.021.178.011.242-.008a1.7 1.7 0 0 1 .299-.057c.264-.024.576.017.766-.204.122-.147.136-.344-.001-.491zM92.33 61.284c-.385-.662-1.061-1.059-1.654-1.521a27.075 27.075 0 0 1-2.236-1.964c-1.355-1.326-2.65-2.907-3.398-4.668-.072-.17-.354-.048-.297.127.615 1.862 1.494 3.424 2.855 4.86.682.717 1.447 1.358 2.221 1.974.697.56 1.428 1.259 2.32 1.439.142.028.267-.113.189-.247z"/><path fill="#EDEEEF" d="M93.965 50.103c-.402-.612-.953-1.076-1.398-1.658-.443-.581-.854-1.039-1.453-1.468-.049-.034-.125.023-.104.079.277.677.615 1.213 1.197 1.663.602.472 1.021 1.065 1.697 1.443.039.023.09-.02.061-.059zM95.365 50.904c-.189-.101-.377-.181-.551-.308-.188-.14-.352.143-.229.296.121.148.26.276.402.402.154.143.387.354.609.271a.224.224 0 0 0 .16-.214c.01-.232-.211-.347-.391-.447zM88.432 58.325c-.031-.175-.125-.235-.26-.345a6.74 6.74 0 0 1-.613-.556c-.383-.379-.844-.841-1.088-1.318-.039-.074-.164-.024-.135.056.197.567.414 1.016.811 1.474.254.291.754.938 1.193.849.076-.014.101-.094.092-.16zM91.197 44.22c-.145-.014-.271.041-.416.065-.217.039-.219.398 0 .437.213.037.422.067.574-.121.125-.156.045-.363-.158-.381z"/></g><path fill="#FFC464" d="M143.078 58.081c0 .421-3.09 11.718-3.277 12.19l-20.727 53.239c-.582 1.494-1.568 2.887-2.811 4.076a14.342 14.342 0 0 1-2.725 2.052c-1.074.624-5.115 2.331-5.967 2.331H35.838c-.633 0-6-2.105-7.621-3.379-.025-.019-.563-.512-.801-.724a12.627 12.627 0 0 1-2.184-2.593c-.355-.563-20.24-51.386-20.24-51.386L.721 58.814c-.352-1.606 5.197 2.515 7.527 2.515l62.547 8.114 66.732-5.502c2.717-1.894 5.543-7.372 5.551-5.86z"/><g><g fill="#DF6E00"><path d="M44.598 131.248h-3.651l-21.816-21.455-.748-1.743-1.342-3.327-.027-.047-.026-.028-.025-.08-.154-.755zM62.842 131.248h-3.651L7.467 79.887l-.309-.619-.025-.014-.801-1.98-1.187-3.382zM81.084 131.248h-3.65l-1.651-1.291-7.304-7.122-1.819-1.728-7.303-7.257-10.955-10.931-7.287-7.279-1.83-1.827-7.291-7.286-1.832-1.829-7.291-7.29-9.133-9.133-1.818-1.82-1.717-1.716 3.174.246.787.064 1.406 1.406 7.301 7.303 9.123 9.121 1.819 1.82L41.115 92l1.821 1.819 7.3 7.303 9.121 9.122 1.821 1.819 7.301 7.303 1.82 1.818 7.303 7.303 1.832 1.47zM99.328 131.248h-3.639l-1.664-1.305-7.289-7.108-1.832-1.741-7.302-7.257-1.819-1.796-9.123-9.111-7.303-7.298-9.121-9.117-1.818-1.817-9.121-9.121-7.303-7.302-1.818-1.82-.182-.18.324.026 3.379.269.246.014 7.172 7.174 1.821 1.819 7.3 7.302 1.821 1.82 7.3 7.301 1.821 1.819 9.121 9.122 7.303 7.303 10.953 10.953 7.289 6.93zM114.578 128.964c-.336.246-.684.465-1.047.672l-1.213.722-.051-.053-7.289-7.289-1.832-1.832-7.287-7.289-1.834-1.831-7.303-7.303-9.121-9.123-1.818-1.818-7.305-7.302L66.66 84.7l-7.303-7.303-9.121-9.121-.465-.467.863.066 3.1.243 7.455 7.459 7.289 7.29 1.832 1.832L77.615 92l1.818 1.819 7.303 7.303 9.123 9.122 1.816 1.819 7.303 7.303 1.82 1.817 7.301 7.304.479.477zM121.402 117.546l-.246.618-.785 2-50.807-50.807 1.237.091 2.31-.194zM126.523 104.426l-1.019 2.631-2.285-2.285-1.83-1.831-7.289-7.29-9.135-9.133-1.819-1.819-9.121-9.122-7.302-7.302-.129-.129.283-.028 3.084-.257 5.898 5.897 1.817 1.819 9.123 9.122L114.1 92l9.119 9.122 1.822 1.819zM131.633 91.29l-.916 2.323-.115.297-.09-.091-7.293-7.289-1.83-1.831-7.303-7.303-10.645-10.644-.113-.115.113-.039 3.098-.402.26.259.025.027 16.395 16.397 1.822 1.82zM136.756 78.156l-.092.221-.076.206-.697 1.793-.157.412-5.211-5.211-7.304-7.302-3.158-3.162.244-.33 2.375-.535h.078l.193.328.604.223 1.486 1.564zM141.398 64.559c-.012.064-.037.115-.049.181-.262.941-.506 1.884-.725 2.697l-3.457-3.459.361-.025c.566-.4 1.137-.955 1.689-1.574l2.181 2.18z"/></g></g><g fill="#F8A244"><path d="M16.758 65.255l-1.188 1.2-1.832 1.82-7.289 7.302-.58.568-.724-1.871-.155-.387-.14-.374 7.07-7.058 1.457-1.47.787.064zM33.697 66.57l-1.703 1.705-7.301 7.302-1.822 1.831-7.301 7.291-1.82 1.831-2.746 2.736-.647-1.639-.386-.981 1.949-1.947 1.83-1.82 7.291-7.302 1.83-1.819 7.305-7.303.142-.154zM50.635 67.875l-.399.4-7.3 7.302-9.123 9.122-1.819 1.831-7.301 7.289-1.822 1.832-6.758 6.748-1.021-2.631 5.949-5.949L22.871 92l7.291-7.301 1.832-1.82 7.303-7.302 1.818-1.819 6.129-6.141 2.527.192zM67.551 69.203l-6.362 6.374-1.832 1.819-7.3 7.303-1.821 1.819-7.3 7.301-1.821 1.832-7.302 7.29-1.819 1.831-7.301 7.291-1.822 1.832-1.648 1.637-.159-.412-.863-2.22.84-.837 1.83-1.819 7.291-7.303 1.832-1.819 7.291-7.303L41.115 92l7.303-7.301 1.818-1.82 7.303-7.302 1.818-1.833 4.815-4.811zM86.877 68.118l-.154.157-7.289 7.302-1.832 1.819-7.291 7.303-1.832 1.818-7.301 7.302-1.82 1.818-7.301 7.304-1.82 1.831-7.301 7.291-1.82 1.831-7.303 7.289-1.818 1.832-4.723 4.709a12.075 12.075 0 0 1-1.701-1.948l4.592-4.593 1.832-1.817 7.291-7.303 1.83-1.819 7.287-7.303 1.834-1.819L59.357 92l7.303-7.301 1.818-1.832 7.305-7.29 1.818-1.833 5.289-5.29 3.703-.309.284-.027zM107.08 66.196l-.281.278-.039.018-1.795 1.786-7.289 7.302-1.832 1.816-7.289 7.302-1.832 1.82-7.289 7.302-1.832 1.818-7.303 7.303-9.121 9.122-1.821 1.832-7.3 7.289-1.821 1.832-7.3 6.927-1.653 1.305h-3.65l1.664-1.291 1.818-1.65 7.303-7.2 1.818-1.786 7.303-7.268 1.818-1.821 7.303-7.296 9.123-9.12 1.832-1.817 7.289-7.3 1.832-1.82 7.289-7.302 1.834-1.819 6.938-6.954.531-.167.113-.039 3.098-.364.221.014h.064zM126.602 64.881l-1.561 1.561-1.822 1.833-7.301 7.302-1.832 1.819-7.287 7.303-1.834 1.819-7.289 7.301-1.832 1.819-7.289 7.303-1.832 1.82-9.121 9.121-7.303 7.302-1.82 1.832-7.301 6.927-1.651 1.305h-3.65l1.662-1.291 1.818-1.65 7.303-7.2 1.819-1.786 7.304-7.28 1.819-1.809 7.302-7.296 1.832-1.817 7.289-7.302L95.859 92l7.287-7.301 1.833-1.82 7.289-7.302 1.832-1.819 7.302-7.303 1.278-1.291.271-.269.604.063.133.014zM141.35 64.379c-.262.941-.506 2.063-.725 2.877-.283 1.018-.527 1.588-.682 2.09L77.77 131.248h-3.652l67.232-66.869zM130.717 93.252l-.115.477-1.485 3.921-.012.085-.697 1.456-32.396 32.057h-3.653zM119.08 123.507c-.594 1.496-1.574 2.889-2.813 4.077-.529.502-1.096.967-1.689 1.38-.336.246-.684.465-1.047.672l-1.213.722c-.076.052-.156.091-.23.128l6.992-6.979z"/></g><g><path fill="#F8A244" d="M12.893 59.732c-1.908-.396-4.156 1.105-5.992 1.677-1.924.597-4.557.896-6.18-.703 3.986-.475 8.804-5.64 12.172-.974z"/><path fill="#DF6E00" d="M10.998 57.89c-1.688-.449-3.816.971-5.396 1.465-1.731.541-4.237.784-5.602-.852 1.941-.365 3.799-1.314 5.613-2.128 1.996-.895 4.117-.683 5.385 1.515zM25.211 63.799c-2.645-.264-5.531 1.578-7.965 2.37-2.555.829-6.115 1.396-8.51-.215 5.264-1.04 11.485-6.901 16.475-2.155z"/><path fill="#F8A244" d="M31.994 64.352c-3.07-.169-6.307 2.011-9.115 2.994-2.871 1.008-6.848 1.752-9.654.116 3.35-.793 6.461-2.583 9.576-3.981 2.986-1.344 6.554-1.333 9.193.871z"/><path fill="#DF6E00" d="M37.994 65.122c-1.506-.029-3.016.612-4.383 1.179-1.781.735-3.525 1.563-5.338 2.219-2.938 1.063-6.975 1.871-9.922.365 6.323-1.566 13.137-8.519 19.643-3.763z"/><path fill="#F8A244" d="M45.207 65.859c-1.545-.015-3.084.639-4.484 1.216-1.82.755-3.605 1.598-5.457 2.27-3.014 1.092-7.133 1.94-10.176.455 6.467-1.664 13.402-8.618 20.117-3.941z"/><path fill="#DF6E00" d="M54.295 66.292c-1.639-.033-3.275.621-4.773 1.205-1.938.757-3.838 1.608-5.807 2.284-3.252 1.114-7.633 1.946-10.887.364 3.781-.928 7.303-2.89 10.842-4.448 3.379-1.494 7.467-1.621 10.625.595z"/><path fill="#F8A244" d="M63.846 66.932c-1.779-.051-3.568.607-5.221 1.197-2.119.757-4.205 1.609-6.357 2.264-3.451 1.047-8.002 1.774-11.42.191 7.453-1.542 15.427-8.714 22.998-3.652z"/><path fill="#DF6E00" d="M73.693 67.044c-1.783-.05-3.57.608-5.221 1.199-2.121.755-4.205 1.608-6.363 2.262-3.445 1.049-7.994 1.775-11.416.192 7.45-1.554 15.432-8.706 23-3.653z"/><path fill="#F8A244" d="M83.227 67.155c-1.799-.051-3.604.577-5.283 1.151-2.146.735-4.258 1.567-6.434 2.222-3.664 1.103-8.453 1.902-12.104.269 4.336-.889 8.387-2.979 12.502-4.518 3.604-1.346 7.987-1.273 11.319.876z"/><path fill="#DF6E00" d="M93.084 67.268c-1.779-.049-3.57.609-5.223 1.198-2.119.758-4.205 1.61-6.359 2.265-3.447 1.046-7.998 1.774-11.416.191 7.453-1.556 15.424-8.704 22.998-3.654z"/><path fill="#F8A244" d="M102.563 66.85c-1.641-.035-3.277.619-4.773 1.204-1.939.758-3.84 1.608-5.809 2.285-3.252 1.113-7.631 1.944-10.889.363 3.785-.99 7.287-2.88 10.842-4.447 3.38-1.495 7.468-1.623 10.629.595z"/><path fill="#DF6E00" d="M110.609 66.355c-1.545.025-3.066.718-4.453 1.332-1.801.8-3.561 1.689-5.395 2.409-2.99 1.171-7.072 2.117-10.16.719 3.682-1.189 6.979-3.213 10.447-4.868 2.989-1.428 6.71-1.475 9.561.408z"/><path fill="#F8A244" d="M118.186 65.531c-1.504.095-2.957.856-4.273 1.533-1.715.879-3.383 1.845-5.137 2.646-2.844 1.3-6.803 2.438-9.859 1.175 6.163-2.076 12.405-9.566 19.269-5.354z"/><path fill="#DF6E00" d="M125.346 63.837c-3.055.366-5.863 3.076-8.457 4.533-2.65 1.486-6.445 2.916-9.488 1.788 3.156-1.38 5.916-3.657 8.738-5.582 2.718-1.846 6.215-2.438 9.207-.739z"/><path fill="#F8A244" d="M130.859 63.438c-2.688.317-5.15 2.904-7.355 4.282-2.387 1.492-5.914 2.978-8.729 1.786 2.855-1.318 5.301-3.589 7.797-5.454 2.414-1.802 5.621-2.34 8.287-.614z"/><path fill="#DF6E00" d="M134.641 62.506c-2.154.333-4.004 2.984-5.582 4.29-1.742 1.44-4.559 2.962-6.838 1.81 2.256-1.353 4.014-3.62 5.852-5.453 1.833-1.827 4.384-2.276 6.568-.647z"/><path fill="#F8A244" d="M138.391 58.051c-1.936.929-2.93 3.946-4.035 5.635-1.258 1.922-3.512 4.252-6.076 3.808 1.75-1.98 2.785-4.617 4.016-6.918 1.22-2.281 3.526-3.454 6.095-2.525z"/><path fill="#DF6E00" d="M143.078 56.37c-1.934.929-2.926 3.946-4.033 5.635-1.26 1.924-3.512 4.246-6.078 3.81 1.766-1.953 2.791-4.631 4.018-6.919 1.22-2.279 3.527-3.458 6.093-2.526zM14.613 61.882c-2-.412-4.342 1.074-6.26 1.633-2.004.584-4.762.865-6.469-.751 4.116-.576 9.233-5.51 12.729-.882z"/><path fill="#F8A244" d="M20.441 62.096c-2.652-.133-5.445 1.851-7.838 2.761-2.512.955-6.035 1.695-8.508.205 2.93-.787 5.619-2.399 8.33-3.701 2.6-1.252 5.72-1.243 8.016.735z"/></g></svg>