<svg xmlns="http://www.w3.org/2000/svg" width="142.808" height="134.639" viewBox="0 0 142.808 134.639"><ellipse opacity=".05" cx="57.464" cy="120.606" rx="57.464" ry="14.032"/><path fill="#F9493D" d="M57.24 69.137c0-9.164 7.431-16.594 16.596-16.594V31.799c-5.287 0-9.764-3.309-11.554-7.963-.593-1.541-2.032-2.572-3.606-2.07a49.431 49.431 0 0 0-7.615 3.152c-1.468.758-1.758 2.506-1.088 4.016 2.025 4.557 1.199 10.063-2.537 13.803-3.742 3.737-9.247 4.564-13.804 2.539-1.51-.671-3.257-.381-4.015 1.087a49.362 49.362 0 0 0-3.152 7.614c-.504 1.573.525 3.012 2.068 3.604 4.656 1.79 7.965 6.269 7.965 11.556s-3.309 9.766-7.965 11.557c-1.543.592-2.572 2.031-2.068 3.604a49.46 49.46 0 0 0 3.152 7.614c.758 1.469 2.505 1.757 4.015 1.086 4.557-2.024 10.062-1.198 13.804 2.54 3.736 3.739 4.563 9.245 2.537 13.802-.67 1.51-.381 3.257 1.088 4.015a49.278 49.278 0 0 0 7.615 3.153c1.574.502 3.014-.528 3.606-2.07 1.79-4.654 6.267-7.963 11.554-7.965V85.73c-9.165 0-16.596-7.429-16.596-16.593zm61.731 11.555c-4.656-1.792-7.965-6.269-7.965-11.556s3.309-9.764 7.965-11.555c1.542-.594 2.571-2.032 2.068-3.605a49.34 49.34 0 0 0-3.154-7.615c-.757-1.468-2.505-1.757-4.014-1.086-4.557 2.025-10.063 1.198-13.805-2.539-3.735-3.74-4.561-9.246-2.537-13.803.67-1.51.379-3.258-1.089-4.016a49.391 49.391 0 0 0-7.613-3.152c-1.574-.502-3.013.529-3.606 2.07-1.789 4.654-6.266 7.963-11.553 7.963v20.744c9.165 0 16.594 7.43 16.594 16.594S82.833 85.73 73.668 85.73v20.742c5.287.002 9.764 3.311 11.553 7.965.594 1.542 2.032 2.572 3.606 2.07a49.46 49.46 0 0 0 7.614-3.152c1.468-.758 1.758-2.506 1.088-4.016-2.023-4.557-1.198-10.063 2.537-13.802 3.742-3.738 9.248-4.564 13.805-2.54 1.509.671 3.256.383 4.014-1.085a49.452 49.452 0 0 0 3.154-7.614c.503-1.573-.526-3.013-2.068-3.606z"/><path opacity=".05" d="M118.971 80.692c-4.656-1.792-7.965-6.269-7.965-11.556s3.309-9.764 7.965-11.555c1.542-.594 2.571-2.032 2.068-3.605a49.34 49.34 0 0 0-3.154-7.615c-.757-1.468-2.505-1.757-4.014-1.086-4.557 2.025-10.063 1.198-13.805-2.539-3.735-3.74-4.561-9.246-2.537-13.803.67-1.51.379-3.258-1.089-4.016a49.391 49.391 0 0 0-7.613-3.152c-1.574-.502-3.013.529-3.606 2.07-1.789 4.654-6.266 7.963-11.553 7.963v20.744c9.165 0 16.594 7.43 16.594 16.594S82.833 85.73 73.668 85.73v20.742c5.287.002 9.764 3.311 11.553 7.965.594 1.542 2.032 2.572 3.606 2.07a49.46 49.46 0 0 0 7.614-3.152c1.468-.758 1.758-2.506 1.088-4.016-2.023-4.557-1.198-10.063 2.537-13.802 3.742-3.738 9.248-4.564 13.805-2.54 1.509.671 3.256.383 4.014-1.085a49.452 49.452 0 0 0 3.154-7.614c.503-1.573-.526-3.013-2.068-3.606z"/><path fill="#FBAE17" d="M114.437 28.372l-4.187-15.626 10.782-10.782L113.694 0 96.888 16.807l3.553 13.259-67.254 67.256a15.972 15.972 0 0 0-14.689 4.328c-6.255 6.26-6.255 16.396 0 22.649 6.263 6.266 16.402 6.266 22.659.009a15.97 15.97 0 0 0 4.33-14.689l67.254-67.251L126 45.92l16.808-16.807-1.964-7.336-10.784 10.78-15.623-4.185zM32.21 121.859l-8.892-2.379-2.371-8.881 6.504-6.502 8.882 2.368 2.379 8.892-6.502 6.502z"/><path opacity=".05" d="M114.437 28.372l-78.102 78.102 2.377 8.884-6.502 6.502-8.884-2.377-4.823 4.823c6.263 6.259 16.398 6.258 22.653.003a15.97 15.97 0 0 0 4.33-14.689l67.254-67.251L126 45.92l16.808-16.807-1.964-7.336-10.784 10.78-15.623-4.185z"/><circle fill="#fff" cx="73.668" cy="69.139" r="16.921"/><path fill="#4AA4FF" d="M81.144 72.269H70.632c-2.764 2.926.368 6.344 3.62 6.344 1.715 0 3.327-.518 4.813-1.355 1.231-.698 1.841-.896 1.841.752 0 5.704-17.663 4.123-14.241-5.74h-.476c-.805 0-.786-2.212 0-2.212.335-.22 1.466 0 1.883 0 1.377-1.344 3.205-2.081 4.918-2.889h-6.801c-.841 0-.813-2.23.186-2.23H76.39c2.084-2.605-.329-5.375-3.145-5.375-2.182 0-5.838 3.346-5.539-.237.213-2.56 5.694-2.526 7.383-2.194 3.708.729 6.036 4.05 5.012 7.807.326 0 .731.082 1.042 0 .808 0 .796 2.23 0 2.23-.426.262-1.749 0-2.267 0l-.237.256c-1.174 1.2-2.725 1.969-4.242 2.633h6.746c.808-.002.794 2.21.001 2.21z"/></svg>