<svg xmlns="http://www.w3.org/2000/svg" width="250" height="250" viewBox="0 0 250 250"><path fill="#EAEAEA" d="M159.382 81.183s.222-53.379-56.473-59.129c0 0-15.879-1.342-9.257 9.388 6.628 10.734 7.666 11.069 8.292 14.897l-.311 7.717 42.526 43.957L166.11 87.73l-6.728-6.547z"/><path fill="#FFD161" d="M193.072 75.768l6.203 2.018-6.495.534zM145.669 142.299l-.854-.875-7.654 7.321-4.511.686.184 1.209 3.388-.509-1.492 2.401 1.042.655 1.331-2.139.391 2.413 1.209-.197-.601-3.706zM147.435 139.838l1.171.377-3.176 10.109 1.391 4.339-1.171.385-1.047-3.271-1.494 2.4-1.038-.65 1.323-2.138-2.333.721-.363-1.167 3.594-1.106z"/><path fill="#F7F7F7" d="M165.395 135.571c-15.416 11.146-31.982 12.574-50.55 8.851 0 9.144-4.855 43.139-11.708 44.273 0 0-12.858 2.855-15.998-4.854-3.138-7.703-6.334-2.604-10.045-3.748-3.714-1.134-1.666-4.823-4.804-6.533-3.147-1.712-16-.564-15.145-7.705.856-7.146 10.571-37.708 45.701-44.561 6.572-3.715-10.283-6.288-10.283-6.288s-19.138-10.282-20.849-21.704l-1.71-11.431S42.869 59.598 43.149 53.029c.288-6.572 12.858-8.576 31.134-8.284 18.279.279 35.419 1.139 45.132 6.568 9.711 5.427 24.995 16.284 29.417 37.131 2.427 6.503 13.289-7.857 13.853-10.423 0 0 7.997-13.714 19.423-13.424 11.426.281 17.144 11.854 5.713 22.417-12.435 10.482-6.992 37.419-22.426 48.557z"/><linearGradient id="a" gradientUnits="userSpaceOnUse" x1="156.192" y1="160.171" x2="116.443" y2="107.847"><stop offset="0"/><stop offset=".109" stop-color="#333" stop-opacity=".891"/><stop offset=".238" stop-color="#686868" stop-opacity=".762"/><stop offset=".369" stop-color="#979797" stop-opacity=".631"/><stop offset=".499" stop-color="#bcbcbc" stop-opacity=".501"/><stop offset=".628" stop-color="#d9d9d9" stop-opacity=".372"/><stop offset=".755" stop-color="#eee" stop-opacity=".245"/><stop offset=".88" stop-color="#fbfbfb" stop-opacity=".12"/><stop offset="1" stop-color="#fff" stop-opacity="0"/></linearGradient><path opacity=".2" fill="url(#a)" d="M165.395 135.571c-15.416 11.146-31.982 12.574-50.55 8.851 0 9.144-4.855 43.139-11.708 44.273 0 0-12.858 2.855-15.998-4.854-3.138-7.703-6.334-2.604-10.045-3.748-3.714-1.134-1.666-4.823-4.804-6.533-3.147-1.712-16-.564-15.145-7.705.856-7.146 10.571-37.708 45.701-44.561 6.572-3.715-10.283-6.288-10.283-6.288s-19.138-10.282-20.849-21.704l-1.71-11.431S42.869 59.598 43.149 53.029c.288-6.572 12.858-8.576 31.134-8.284 18.279.279 35.419 1.139 45.132 6.568 9.711 5.427 24.995 16.284 29.417 37.131 2.427 6.503 13.289-7.857 13.853-10.423 0 0 7.997-13.714 19.423-13.424 11.426.281 17.144 11.854 5.713 22.417-12.435 10.482-6.992 37.419-22.426 48.557z"/><path fill="#333" d="M187.646 72.268a1.67 1.67 0 0 1-1.668 1.669 1.676 1.676 0 0 1-1.668-1.669 1.67 1.67 0 0 1 1.668-1.669c.922 0 1.668.743 1.668 1.669z"/><path fill="#F7F7F7" d="M35.024 29.701c4.419-.347 8.937-.373 13.363-.232 5.228.154 10.458.364 15.647 1.087 10.426 1.46 20.611 3.753 30.419 7.653 19.123 7.62 35.859 20.737 47.383 37.84 5.029 7.47 9.457 15.76 11.9 24.471-8.186 2.178-16.359 4.356-24.536 6.541-.222.057-2.067.502-2.037.592-2.455-7.8-6.52-15.236-11.383-21.775-6-8.074-13.447-14.921-21.917-20.34-8.948-5.717-18.826-9.763-29.041-12.615-10.186-2.842-20.614-4.538-31.011-6.409-3.819-.683-7.845-1.438-11.443-2.927-2.471-1.033-4.667-2.518-4.674-5.421-.006-3.188 2.738-5.134 5.4-6.258 3.771-1.585 7.894-1.909 11.93-2.207z"/><path fill="#CDD0D5" d="M137.946 97.313c-1.653-3.067-3.311-6.112-5.141-9.08-2.717-4.4-5.721-8.837-9.192-12.688-7.029-7.795-14.902-15.097-24.07-20.334a157.106 157.106 0 0 0-10.367-5.408c-4.344-2.066-8.889-3.704-13.477-5.162-10.226-3.258-20.801-5.038-31.458-6.166-5.864-.616-11.749-.815-17.633-1.004 8.738.062 17.45.283 26.116 1.462 10.858 1.48 21.401 3.962 31.635 7.915 8.105 3.14 15.691 7.386 22.764 12.437a78.493 78.493 0 0 1 6.366 5.084c1.914 1.696 3.888 3.47 5.625 5.336 3.612 3.888 7.15 7.911 10.083 12.343 3.262 4.929 6.076 9.998 8.749 15.265z" opacity=".8"/><path fill="#F7F7F7" d="M35.452 44.431c4.018-.565 8.149-.847 12.205-.977 4.918-.157 9.835-.245 14.747.132 10.073.77 7.483 22.405-2.446 20.391-9.875-2-19.977-2.432-29.862-4.32-4.077-.776-11.547-2.227-9.728-8.129.741-2.406 3.132-3.854 5.298-4.806 3.087-1.351 6.466-1.824 9.786-2.291z"/><path fill="#CDD0D5" d="M133.122 100.796c-1.896-3.02-3.82-5.993-5.877-8.904-1.384-1.973-2.916-3.849-4.449-5.711-1.554-1.888-3.25-3.791-5.031-5.461-3.669-3.438-7.38-6.842-11.528-9.705-2.045-1.406-4.082-2.83-6.228-4.085-1.602-.933-3.226-1.948-4.908-2.734-3.646-1.691-7.277-3.303-11.043-4.727-3.891-1.479-7.917-2.641-11.973-3.575-5.033-1.091-10.079-2.159-15.216-2.655-4.975-.481-9.912-.895-14.908-1.022-4.573-.115-9.138.002-13.713.082 8.434-.398 16.932-.814 25.369.016 5.138.495 10.303 1.014 15.351 2.128 2.513.544 5.044 1.066 7.516 1.791 1.741.509 3.486 1.018 5.232 1.531 4.331 1.268 8.468 3.263 12.54 5.178 3.284 1.545 6.452 3.426 9.455 5.456 4.158 2.816 8.289 5.835 11.843 9.401 1.779 1.787 3.559 3.521 5.233 5.406 1.642 1.854 3.16 3.763 4.669 5.716 2.893 3.732 5.28 7.806 7.666 11.874z" opacity=".8"/><path fill="#F7F7F7" d="M40.019 61.979c-.016-.147 4.981-1.105 5.32-1.175 2.349-.501 4.717-.877 7.092-1.25 5.119-.798 10.399-1.258 15.584-1.221 10.528.088 14.333 24.973 4.303 23.063-9.572-1.818-19.326-2.104-29.024-2.742-2.479-.158-4.976-.434-7.425-.917-2.024-.402-4.247-1.02-5.791-2.469-1.233-1.164-1.783-3.052-1.706-4.709.08-1.814 1.08-3.362 2.415-4.528 2.579-2.262 5.986-3.197 9.232-4.052 0 0-1.179.302 0 0z"/><path fill="#CDD0D5" d="M126.683 101.35c-6.181-7.557-13.013-14.27-21.272-19.554-4.468-2.85-9.26-5.17-14.211-7.021-5.113-1.914-10.339-3.109-15.672-4.178-7.312-1.464-14.943-1.535-22.367-1.444-6.02.064-12.03.764-18.004 1.457 3.777-.584 7.543-1.17 11.346-1.521 5.258-.487 10.508-.622 15.787-.553 10.571.134 21.289 2.258 31.082 6.208 7.013 2.824 13.502 6.74 19.332 11.538 5.328 4.394 9.837 9.57 13.979 15.068z" opacity=".8"/><path fill="#F7F7F7" d="M56.041 75.231c1.882-.55 3.852-.894 5.772-1.274 2.478-.494 5.013-.911 7.527-1.149 5.213-.494 31.949 30.645 27.625 28.21-8.846-4.979-18.75-6.785-28.701-8.024-3.423-.427-6.868-.771-10.271-1.396-3.162-.572-7.096-1.353-9.287-3.944-1.666-1.968-2.167-5.292-.913-7.577 1.63-2.97 5.197-4.034 8.248-4.846z"/><path fill="#CDD0D5" d="M124.34 108.597c-2.644-3.085-5.369-6.036-8.355-8.801-3.791-3.506-8.129-6.479-12.687-8.896-7.157-3.79-15.213-6.226-23.249-7.211-5.074-.62-10.215-.963-15.317-.832-4.056.106-8.088.355-12.141.65 4.045-.485 8.062-.888 12.127-1.123 5.124-.293 10.317-.034 15.409.552 8.2.94 16.279 3.376 23.544 7.299 8.293 4.473 14.968 10.933 20.669 18.362z" opacity=".8"/><path fill="#CDD0D5" d="M118.7 109.997c-2.637-2.326-5.328-4.636-8.337-6.479-3.334-2.038-6.73-3.479-10.447-4.646-6.641-2.076-13.847-2.089-20.733-2.068 6.951-.646 14.218-.767 20.98 1.257 3.768 1.133 7.288 2.709 10.552 4.917 2.966 1.998 5.532 4.437 7.985 7.019z" opacity=".8"/><path fill="#F7F7F7" d="M54.253 179.535c.211-2.395.59-4.808 1.055-7.167.542-2.78 1.113-5.554 1.961-8.27 1.699-5.441 3.819-10.686 6.776-15.6 5.753-9.557 14.245-17.343 24.406-22.004 4.436-2.03 9.26-3.672 14.134-4.206.447 4.565.89 9.128 1.334 13.697.012.125.087 1.149.137 1.143-4.381.618-8.718 2.147-12.641 4.164-4.85 2.506-9.17 5.887-12.811 9.939-3.851 4.277-6.884 9.2-9.301 14.413-2.418 5.204-4.248 10.621-6.167 16.021-.703 1.978-1.458 4.069-2.569 5.857-.773 1.24-1.762 2.278-3.314 2.025-1.699-.272-2.506-1.916-2.869-3.438-.509-2.155-.326-4.389-.131-6.574z"/><path fill="#CDD0D5" d="M96.49 129.038c-1.737.74-3.464 1.481-5.157 2.321-2.511 1.243-5.053 2.644-7.309 4.324-4.56 3.397-8.9 7.272-12.187 11.97a82.35 82.35 0 0 0-3.443 5.315c-1.334 2.234-2.442 4.607-3.464 7.006-2.273 5.369-3.759 10.976-4.906 16.675-.626 3.129-1.028 6.292-1.433 9.466.475-4.708 1.036-9.405 2.11-14.021 1.341-5.782 3.214-11.353 5.862-16.677 2.1-4.212 4.775-8.101 7.858-11.659a42.067 42.067 0 0 1 3.055-3.182c1.018-.947 2.068-1.92 3.172-2.761 2.275-1.759 4.623-3.465 7.164-4.825 2.823-1.509 5.703-2.776 8.678-3.952z" opacity=".8"/><path fill="#F7F7F7" d="M62.172 180.608c.056-2.204.259-4.433.552-6.611.351-2.642.734-5.28 1.366-7.878 1.301-5.315 12.645-2.029 10.694 3.106-1.946 5.095-3.063 10.476-4.944 15.584-.772 2.117-2.207 5.98-5.2 4.494-1.222-.615-1.787-2.021-2.108-3.265-.451-1.76-.403-3.62-.36-5.43z"/><path fill="#CDD0D5" d="M100.92 133.334c-1.784.75-3.542 1.517-5.283 2.362-1.174.567-2.313 1.22-3.445 1.879-1.143.655-2.311 1.399-3.363 2.207-2.164 1.661-4.31 3.348-6.207 5.309-.935.968-1.875 1.929-2.734 2.97-.638.783-1.328 1.557-1.894 2.382-1.227 1.807-2.411 3.605-3.504 5.487a51.598 51.598 0 0 0-2.966 6.098c-1.021 2.598-2.043 5.201-2.761 7.904-.693 2.619-1.348 5.225-1.851 7.883-.466 2.431-.809 4.88-1.17 7.338.531-4.55 1.058-9.134 2.244-13.559.722-2.71 1.452-5.432 2.491-8.036.514-1.286 1.01-2.604 1.614-3.857.432-.89.854-1.768 1.286-2.661 1.062-2.198 2.491-4.247 3.869-6.25 1.118-1.625 2.404-3.144 3.758-4.572 1.865-1.983 3.851-3.928 6.064-5.505 1.119-.806 2.203-1.6 3.354-2.329a56.923 56.923 0 0 1 3.467-1.991c2.254-1.218 4.644-2.135 7.031-3.059z" opacity=".8"/><g><path fill="#F7F7F7" d="M71.957 179.715c-.081-.004-.148-2.77-.157-2.958-.065-1.298-.058-2.592-.048-3.897.025-2.814.243-5.678.721-8.438.975-5.633 14.621-5.47 12.717-.268-1.821 4.947-2.831 10.139-4.025 15.274-.307 1.311-.673 2.624-1.147 3.891-.39 1.041-.914 2.181-1.831 2.879-.727.553-1.786.69-2.663.498-.962-.21-1.703-.879-2.215-1.691-.984-1.587-1.183-3.487-1.352-5.29-.002 0 .061.648 0 0z"/><path fill="#CDD0D5" d="M100.649 136.829c-4.588 2.644-8.783 5.699-12.33 9.66-1.918 2.139-3.581 4.495-5.012 6.975-1.473 2.572-2.575 5.254-3.61 8.02-1.427 3.771-2.137 7.848-2.744 11.828-.494 3.227-.652 6.5-.809 9.763.019-2.076.038-4.144.19-6.205.199-2.855.591-5.679 1.094-8.499a47.086 47.086 0 0 1 6.053-16.073 40.235 40.235 0 0 1 7.875-9.32c2.822-2.462 5.984-4.415 9.293-6.149z" opacity=".8"/></g><g><path fill="#CDD0D5" d="M104.318 138.717c-1.885 1.146-3.701 2.342-5.446 3.701-2.207 1.711-4.181 3.776-5.874 5.998-2.654 3.493-4.668 7.594-5.902 11.793-.78 2.656-1.413 5.386-1.793 8.121-.303 2.179-.524 4.354-.726 6.554.095-2.214.24-4.395.47-6.587.293-2.769.891-5.518 1.651-8.187 1.224-4.301 3.24-8.407 5.977-11.951 3.124-4.043 7.167-7.048 11.643-9.442z" opacity=".8"/></g><g opacity=".02"><path d="M29.752 45.405s1.906-.173 5.255-.213c1.674-.011 3.708-.009 6.039.076 2.332.074 4.962.219 7.822.491 2.862.253 5.952.636 9.209 1.125 3.252.513 6.677 1.118 10.173 1.962 3.509.785 7.08 1.827 10.685 2.954 1.79.6 3.593 1.215 5.384 1.883 1.773.714 3.585 1.355 5.328 2.164l2.628 1.176c.866.412 1.717.855 2.573 1.28 1.727.826 3.379 1.775 5.026 2.704l1.233.693 1.193.748 2.366 1.49c1.564.992 3.024 2.103 4.506 3.125 1.441 1.079 2.813 2.2 4.168 3.279 1.312 1.131 2.552 2.29 3.781 3.388 1.198 1.133 2.291 2.312 3.386 3.409a22.88 22.88 0 0 1 1.544 1.686l1.44 1.666 1.375 1.602 1.214 1.61c.778 1.054 1.544 2.034 2.214 2.989 1.257 1.969 2.415 3.643 3.258 5.089l2.549 4.602-2.714-4.5c-.884-1.417-2.089-3.054-3.396-4.975-.694-.931-1.485-1.884-2.29-2.909l-1.24-1.573-1.396-1.567-1.459-1.629a22.48 22.48 0 0 0-1.562-1.646c-1.108-1.07-2.211-2.219-3.42-3.321-1.24-1.068-2.488-2.193-3.808-3.29-1.369-1.037-2.72-2.158-4.158-3.212-1.475-1.003-2.926-2.095-4.482-3.068l-2.353-1.462-1.187-.734-1.226-.68c-1.637-.911-3.28-1.842-4.996-2.65-.852-.416-1.696-.851-2.557-1.253l-2.611-1.152c-1.723-.812-3.516-1.458-5.271-2.177a170.82 170.82 0 0 0-5.331-1.9c-3.571-1.14-7.112-2.196-10.595-2.997a161.086 161.086 0 0 0-10.09-2.088c-3.232-.544-6.303-.98-9.149-1.284-2.845-.31-5.461-.534-7.784-.679a135.66 135.66 0 0 0-6.022-.252c-3.34-.065-5.252.02-5.252.02z"/></g><g opacity=".02"><path d="M41.017 61.547s1.601-.259 4.431-.441a97.375 97.375 0 0 1 11.746-.045c2.43.125 5.058.365 7.826.709a97.82 97.82 0 0 1 8.652 1.477c1.489.318 2.99.703 4.511 1.084 1.504.442 3.048.819 4.562 1.341l2.292.744 2.275.836c1.531.534 3.017 1.198 4.52 1.821 1.496.64 2.939 1.396 4.405 2.085 1.42.78 2.858 1.517 4.237 2.33 2.754 1.635 5.397 3.359 7.832 5.196 2.456 1.81 4.686 3.745 6.725 5.652.995.981 1.984 1.912 2.899 2.854l2.56 2.808c.832.89 1.521 1.836 2.228 2.69.682.875 1.374 1.668 1.921 2.494 1.12 1.629 2.172 2.994 2.903 4.211l2.326 3.796-2.487-3.688c-.77-1.187-1.869-2.513-3.038-4.094-.571-.802-1.289-1.569-1.997-2.414-.732-.825-1.428-1.756-2.275-2.621l-2.6-2.732c-.927-.915-1.929-1.817-2.935-2.768a89.62 89.62 0 0 0-6.747-5.491c-2.421-1.8-5.048-3.487-7.783-5.085-1.37-.794-2.797-1.513-4.207-2.275-1.455-.672-2.888-1.407-4.37-2.033-1.482-.626-2.948-1.294-4.459-1.833l-2.246-.844-2.265-.752c-1.495-.528-3.022-.912-4.51-1.36-1.504-.389-2.99-.781-4.465-1.106a123.572 123.572 0 0 0-8.563-1.603c-2.742-.4-5.349-.695-7.764-.87-4.828-.372-8.873-.414-11.7-.321-2.829.076-4.44.248-4.44.248z"/></g><g opacity=".02"><path d="M47.616 78.617s1.339-.442 3.753-.948a73.577 73.577 0 0 1 10.119-1.399c4.22-.285 9.187-.308 14.458.297 2.629.335 5.344.74 8.057 1.381 1.369.267 2.711.688 4.079 1.031 1.348.412 2.705.82 4.041 1.289 2.655.982 5.283 2.054 7.761 3.332l1.858.938 1.789 1.023c.589.345 1.189.663 1.758 1.024l1.683 1.091a40.77 40.77 0 0 1 3.203 2.235l1.518 1.13 1.417 1.186c1.9 1.517 3.526 3.143 5.073 4.587l2.086 2.208.96 1.03.852 1.021c1.082 1.335 2.094 2.44 2.797 3.456l2.286 3.123-2.438-3.001c-.74-.983-1.795-2.046-2.923-3.331l-.887-.981-.996-.986-2.131-2.136c-1.571-1.396-3.221-2.968-5.139-4.424l-1.429-1.138-1.529-1.081-1.557-1.111c-.526-.371-1.086-.702-1.635-1.059l-1.671-1.065c-.564-.352-1.16-.661-1.745-.997l-1.773-.996-1.842-.91c-2.455-1.242-5.057-2.274-7.681-3.227-1.313-.473-2.649-.886-3.976-1.304-1.347-.349-2.669-.776-4.018-1.05-2.674-.655-5.354-1.076-7.952-1.429-2.605-.292-5.132-.543-7.539-.612a79.549 79.549 0 0 0-6.784.016c-4.201.192-7.693.605-10.114 1.029-2.426.401-3.789.758-3.789.758z"/></g><g opacity=".02"><path d="M71.379 92.471s.857-.299 2.408-.644a46.015 46.015 0 0 1 6.511-.966c2.719-.199 5.923-.246 9.325.137 1.697.213 3.45.47 5.202.88 1.758.383 3.516.894 5.246 1.487 1.714.637 3.409 1.333 5.007 2.162l1.198.607 1.153.663c.774.424 1.505.897 2.219 1.371.726.456 1.412.943 2.063 1.45l.975.736.909.771c1.219.986 2.261 2.042 3.251 2.98.921 1.008 1.814 1.886 2.488 2.768.688.868 1.331 1.587 1.777 2.246l1.444 2.031-1.596-1.909c-.482-.626-1.169-1.303-1.903-2.12-.723-.829-1.665-1.643-2.603-2.612-1.015-.89-2.081-1.892-3.318-2.817l-.922-.724a524.34 524.34 0 0 1-.985-.687c-.664-.464-1.33-.952-2.052-1.384a29.647 29.647 0 0 0-2.193-1.316l-1.138-.636-1.182-.58c-1.575-.793-3.245-1.45-4.927-2.057a46.172 46.172 0 0 0-5.121-1.521c-1.713-.424-3.432-.698-5.097-.928-1.671-.188-3.291-.363-4.834-.417a51.342 51.342 0 0 0-4.356-.02c-2.698.107-4.946.338-6.506.596-1.562.238-2.443.453-2.443.453z"/></g><g><path fill="#FDD5A6" d="M247.308 129.396s-2.241 5.196-5.771 11.189v.024c-3.125 5.274-7.246 11.165-11.686 14.678-9.481 7.431-26.248 21.233-29.669 22.266-3.484 1.041-35.411 6.734-42.156 9.336-6.716 2.595-13.812 6.539-17.073 6.734-3.289.171-19.694-1.579-27.127-1.733-7.403-.172-33.48-.864-39.003.522C69.3 193.795 18.024 215.889 3 228.648v-63.527s3.81.877 8.451-1.028c4.669-1.905 26.605-13.806 28.32-16.739 1.736-2.959 17.26-19.862 47.149-18.48 29.864 1.383 41.437 11.214 48.511 11.214h26.074s4.14.367 8.449 2.079c3.759.41 13.465-2.079 15.369-2.405 1.903-.365 7.586-5.196 14.144-6.74 6.565-1.549 9.336-1.549 9.336-1.549s11.045-13.317 16.4-15.722c3.093-3.617 5.861-4.311 5.861-4.311s3.974-2.427 7.784-1.046c3.787 1.38 7.248 3.979 4.646 11.744 6.911 2.923 3.814 7.258 3.814 7.258z"/><path fill="#E0A775" d="M170.528 142.198s4.82 2.357 7.465 4.989c2.646 2.631 11.947-.544 11.947-.544l21.176-9.4 4.148-9.818-6.271 3.903s-14.726.724-23.391 8.344c-8.082-.301-15.074 2.526-15.074 2.526z"/><path fill="#F4BE89" d="M177.993 147.188s7.452.106 8.522 0c1.058-.13 10.056-11.717 22.238-15.151 5.91-8.518 14.324-16.677 16.863-16.736-4.562 5.616-10.535 15.872-9.468 20.298l-2.194 3.065-10.166 4.26-12.191 7.577-8.393.472h-1.783c.001-.001-1.533-2.603-3.428-3.785z"/><path fill="#F4BE88" d="M241.537 140.61c-3.125 5.274-7.246 11.165-11.686 14.678-9.481 7.431-26.248 21.233-29.669 22.266-3.484 1.041-35.411 6.734-42.156 9.336-6.716 2.595-13.812 6.539-17.073 6.734-3.289.171-19.694-1.579-27.127-1.733-7.403-.172-33.48-.864-39.003.522C69.3 193.795 18.024 215.889 3 228.648v-5.996s26.985-14.058 33.587-20.552c11.713-11.43 11.305-15.272 11.305-15.272s7.181 4.667 15.712 3.703c8.539-.966 9.781-7.431 9.781-7.431s11.987 3.728 19.557 4.696c7.597.97 31.299 1.623 35.165 1.496 3.842-.146 18.041-2.182 25.608-6.192 11.744-.272 21.382-3.172 21.382-3.172s16.376-3.044 20.529-11.586c1.241 1.385 4.414 2.901 4.414 2.901s1.519-.822 1.519-1.934c4.146.417 5.218 1.53 6.467 0 0 0 3.872-2.48 7.434-5.218 3.59-2.759 8.696-7.868 11.709-9.521 3.034-1.656 14.368-13.96 14.368-13.96z"/><path fill="#E0AB78" d="M180.36 148.979s8.397.337 9.696.919c1.309.602 5.681-5.556 10.178-6.976 4.499-1.42 8.871-3.063 10.528-3.251 1.658-.177 4.113-3.65 6.617-4.815 2.493-1.167-1.533 4.815-1.533 4.815l-4.61 3.488-9.344 3.483-8.998 6.569-8.032 1.424-2.705.845c0 .001-.026-4.451-1.797-6.501z"/><path fill="#F4BE88" d="M93.368 165.877c3.294.05 6.622-.252 9.859-.863 2.716-.504 5.425-1.246 7.918-2.447 2.637-.817 5.507-.656 8.18-.13 3.073.594 5.72 1.915 8.618 2.94 4.036 1.42 2.026-6.638 3.731-8.74 0 2.728.205 5.44.414 8.145.173 2.305.751 2.033 3.121 2.38 1.968.303 1.201-2.479 1.132-3.845-.078-1.527-.761-4.799.296-6.117.992 2.706.802 9.005 3.623 10.589 1.384.77 3.862.414 5.372.437 6.56.094 13.144-.015 19.702-.135 2.854-.047 6.333.509 9.03-.648 6.28-2.713 9.185-8.714 7.197-15.354 2.762.694 6.03 1.38 8.872.665.759-.194 1.383-.986 1.975-1.456 5.547-4.325 12.036-7.496 18.66-9.769.954-.318 1.911-.627 2.874-.918.47-1.03 1.01-2.028 1.595-3.001a41.378 41.378 0 0 1 3.881-5.337 54.506 54.506 0 0 1 6.514-6.467c3.989-3.313 8.74-5.466 14.059-4.443-3.653.461-7.143.976-9.906 3.381-4.069 3.527-8.083 7.521-10.883 12.155-.683 1.123-1.284 2.31-1.684 3.575a8.272 8.272 0 0 0-.381 1.931c-.071.86-2.065.776-2.88.957-4.675.98-9.313 2.684-13.366 5.239-1.326.818-2.609 1.754-3.683 2.905-.27.284-1.459 2.381-1.575 2.378-2.688-.067-3.164 2.69-2.771 4.825-1.455-1.168-6.729-4.724-7.506-1.144-.797 3.597-1.809 6.857-4.821 9.253-5.177 4.104-13.168 4.548-19.496 5.022-5.283.387-10.599.446-15.893.161-5.643-.303-11.295-1.243-16.895-1.874-5.762-.665-11.93-2.358-17.624-.881-1.983.519-5.069 1.151-6.372 2.915.918-2.561 2.804-3.474 5.146-4.449.383-.162-2.901-.803-3.283-.846-4.235-.48-8.496-.744-12.75-.989z"/><path fill="#FFECCB" d="M159.248 149.613c-2.934 3.136-3.018 8.213-2.185 12.153.19.92.438 1.82.742 2.717.428 1.336.939 1.067 2.212 1.171 1.665.145 3.338.219 5.007.27 2.734.091 5.486.122 8.221.093.909-.012 1.396-2.682 1.608-3.37.723-2.403 2.859-10.808.056-11.73-4.821-1.587-10.626-2.684-15.661-1.304zM242.064 139.672s-3.593-.083-2.073-2.695c1.526-2.611 6.764-10.458 7.254-10.854.49-.395-.66 6.451-5.181 13.549zM243.495 122.138s1.941-7.274-.009-8.404c-2.871 1.232-3.495 7.629-3.495 7.629l3.504.775z"/></g></svg>