<svg xmlns="http://www.w3.org/2000/svg" width="250" height="250" viewBox="0 0 250 250"><path fill-rule="evenodd" clip-rule="evenodd" d="M125.5 247C57.845 247 3 192.155 3 124.5 3 56.846 57.845 2 125.5 2 193.154 2 248 56.846 248 124.5c0 67.655-54.846 122.5-122.5 122.5zm26.353-144.693c.002-.096-.016-9.767-5.125-19.866-6.827-13.506-19.045-21.231-36.291-22.961a14.747 14.747 0 0 0-1.107-.036c-2.85 0-4.975.627-5.545 1.639-.529.938.169 2.432.847 3.52 1.519 2.434 2.66 4.168 3.493 5.435 1.677 2.546 2.352 3.572 2.741 5.217 5.467.797 9.634 2.019 12.722 3.721 12.512 6.919 20.171 16.47 22.762 28.388.155.371.277.371.347.371.927 0 3.143-1.711 5.444-4.625l-.287-.278v-.525zm27.366-2.927c-.07-4.33-3.721-7.612-8.991-7.742-8.609-.213-14.636 10.003-14.636 10.003-.431 1.914-8.609 12.612-10.439 7.767-3.337-15.535-14.853-23.622-22.171-27.665-7.319-4.043-20.232-4.683-34.009-4.896s-23.248 1.277-23.462 6.173c-.215 4.894 20.233 21.492 20.233 21.492l1.291 8.512c1.291 8.515 15.714 16.174 15.714 16.174s12.699 1.916 7.748 4.684c-26.476 5.106-33.794 27.877-34.44 33.197-.646 5.319 9.041 4.468 11.409 5.745s.824 4.02 3.622 4.871c2.798.85 5.204-2.955 7.57 2.79 2.368 5.746 12.054 3.617 12.054 3.617 5.167-.85 8.825-26.175 8.825-32.984 13.99 2.766 26.475 1.703 38.098-6.597s7.527-28.371 16.898-36.176c2.608-2.388 4.026-4.84 4.503-7.108l4.752-.39-4.569-1.467z" opacity=".15"/><path fill-rule="evenodd" clip-rule="evenodd" fill="#FFF" d="M125.5 245C57.845 245 3 190.155 3 122.5 3 54.846 57.845 0 125.5 0 193.154 0 248 54.846 248 122.5c0 67.655-54.846 122.5-122.5 122.5zm26.353-144.693c.002-.096-.016-9.767-5.125-19.866-6.827-13.506-19.045-21.231-36.291-22.961a14.747 14.747 0 0 0-1.107-.036c-2.85 0-4.975.627-5.545 1.639-.529.938.169 2.432.847 3.52 1.519 2.434 2.66 4.168 3.493 5.435 1.677 2.546 2.352 3.572 2.741 5.217 5.467.797 9.634 2.019 12.722 3.721 12.512 6.919 20.171 16.47 22.762 28.388.155.371.277.371.347.371.927 0 3.143-1.711 5.444-4.625l-.287-.278v-.525zm27.366-2.927c-.07-4.33-3.721-7.612-8.991-7.742-8.609-.213-14.636 10.003-14.636 10.003-.431 1.914-8.609 12.612-10.439 7.767-3.337-15.535-14.853-23.622-22.171-27.665-7.319-4.043-20.232-4.683-34.009-4.896s-23.248 1.277-23.462 6.173c-.215 4.894 20.233 21.492 20.233 21.492l1.291 8.512c1.291 8.515 15.714 16.174 15.714 16.174s12.699 1.916 7.748 4.684c-26.476 5.106-33.794 27.877-34.44 33.197-.646 5.319 9.041 4.468 11.409 5.745s.824 4.02 3.622 4.871c2.798.85 5.204-2.955 7.57 2.79 2.368 5.746 12.054 3.617 12.054 3.617 5.167-.85 8.825-26.175 8.825-32.984 13.99 2.766 26.475 1.703 38.098-6.597s7.527-28.371 16.898-36.176c2.608-2.388 4.026-4.84 4.503-7.108l4.752-.39-4.569-1.467z"/></svg>