<svg xmlns="http://www.w3.org/2000/svg" width="250" height="250" viewBox="0 0 250 250"><path fill-rule="evenodd" clip-rule="evenodd" d="M124.5 247C56.845 247 2 192.154 2 124.5 2 56.845 56.845 2 124.5 2 192.154 2 247 56.845 247 124.5c0 67.654-54.846 122.5-122.5 122.5zM108.446 61.123c-6.714 0-12.157 5.538-12.157 12.368s5.443 12.367 12.157 12.367c6.715 0 12.158-5.536 12.158-12.367s-5.443-12.368-12.158-12.368zm20.049 35.38a4.198 4.198 0 0 0-.225-.238c-5.248-5.232-12.288-8.115-19.824-8.115-7.535 0-14.575 2.883-19.823 8.115a5.64 5.64 0 0 0-.225.238c-8.688 9.748-8.681 21.723-8.676 30.465 0 0 .249 6.297 5.534 6.297 5.283 0 4.601-6.236 4.601-6.236-.004-6.237 0-14.147 3.379-18.586v74.344c0 3.516 3.065 6.76 6.532 6.76s6.985-3.244 6.985-6.76v-37.172h3.379v37.172c0 3.516 3.524 6.76 6.991 6.76 3.466 0 6.526-3.244 6.526-6.76v-74.344c2.449 5.327 3.379 11.512 3.379 18.586 0 3.098 1.553 6.236 4.608 6.236 3.057 0 5.533-2.512 5.533-5.609.002-8.53.002-21.418-8.674-31.153zm25.57 25.452c-3.554 0-6.437 2.915-6.437 6.51 0 3.594 2.883 6.51 6.437 6.51 3.556 0 6.438-2.916 6.438-6.51 0-3.595-2.882-6.51-6.438-6.51zm10.616 19.541a3.423 3.423 0 0 0-.119-.121c-2.778-2.703-6.506-4.191-10.496-4.191-3.988 0-7.717 1.488-10.496 4.191-.039.039-.079.078-.118.121-4.599 5.035-4.594 11.217-4.593 15.734 0 0 .147 3.252 2.93 3.252 2.798 0 2.138-3.039 2.138-3.039-.001-3.223-.099-7.846 1.69-10.139v38.861c0 1.816 2.02 3.381 3.854 3.381 1.836 0 2.903-1.564 2.903-3.381V167.58h3.38v18.586c0 1.816 1.07 3.381 2.905 3.381 1.837 0 3.854-1.564 3.854-3.381v-38.861c1.297 2.752 1.689 6.484 1.689 10.139 0 1.6.524 3.039 2.142 3.039s2.929-1.297 2.929-2.898c-.001-4.405-.001-11.062-4.592-16.089z" opacity=".15"/><path fill-rule="evenodd" clip-rule="evenodd" fill="#FFF" d="M124.5 245C56.845 245 2 190.154 2 122.5 2 54.845 56.845 0 124.5 0 192.154 0 247 54.845 247 122.5c0 67.654-54.846 122.5-122.5 122.5zM108.446 59.123c-6.714 0-12.157 5.538-12.157 12.368s5.443 12.367 12.157 12.367c6.715 0 12.158-5.536 12.158-12.367s-5.443-12.368-12.158-12.368zm20.049 35.38a4.198 4.198 0 0 0-.225-.238c-5.248-5.232-12.288-8.115-19.824-8.115-7.535 0-14.575 2.883-19.823 8.115a5.64 5.64 0 0 0-.225.238c-8.688 9.748-8.681 21.723-8.676 30.466 0 0 .249 6.296 5.534 6.296 5.283 0 4.601-6.237 4.601-6.237-.004-6.236 0-14.146 3.379-18.586v74.344c0 3.516 3.065 6.76 6.532 6.76s6.985-3.244 6.985-6.76v-37.172h3.379v37.172c0 3.516 3.524 6.76 6.991 6.76 3.466 0 6.526-3.244 6.526-6.76v-74.344c2.449 5.327 3.379 11.512 3.379 18.586 0 3.098 1.553 6.237 4.608 6.237 3.057 0 5.533-2.512 5.533-5.61.002-8.529.002-21.417-8.674-31.152zm25.57 25.452c-3.554 0-6.437 2.915-6.437 6.51 0 3.594 2.883 6.51 6.437 6.51 3.556 0 6.438-2.916 6.438-6.51 0-3.595-2.882-6.51-6.438-6.51zm10.616 19.541a3.423 3.423 0 0 0-.119-.121c-2.778-2.703-6.506-4.191-10.496-4.191-3.988 0-7.717 1.488-10.496 4.191-.039.039-.079.078-.118.121-4.599 5.035-4.594 11.217-4.593 15.734 0 0 .147 3.252 2.93 3.252 2.798 0 2.138-3.039 2.138-3.039-.001-3.223-.099-7.846 1.69-10.139v38.861c0 1.816 2.02 3.381 3.854 3.381 1.836 0 2.903-1.564 2.903-3.381V165.58h3.38v18.586c0 1.816 1.07 3.381 2.905 3.381 1.837 0 3.854-1.564 3.854-3.381v-38.861c1.297 2.752 1.689 6.484 1.689 10.139 0 1.6.524 3.039 2.142 3.039s2.929-1.297 2.929-2.898c-.001-4.405-.001-11.062-4.592-16.089z"/></svg>