<svg xmlns="http://www.w3.org/2000/svg" width="250" height="250" viewBox="0 0 250 250"><path fill="#FDD5A6" d="M226.122 58s-32.263 18.343-46.185 19.668c-13.918 1.326-29.16 3.774-51.707 17.458-16.795 10.188-17.679 10.165-17.679 10.165s-11.05 4.641-14.143 6.188c-.883-1.547-6.187-.886-6.187-.886s-9.06.663-9.724 2.212c-.662 1.547.442 13.036 21.436 12.816 10.915-.445 12.816-2.211 12.816-2.211s-9.281 12.376-10.828 14.585c-1.547 2.207-11.046 18.781-4.419 38.449 5.967 12.373 12.818.881 12.818.881s4.64-24.744 4.863-25.854c.221-1.104 7.07-3.314 10.604-10.826-1.106 2.02 1.988 2.145 1.988 2.145s-12.11 14.713-13.037 19.07c-.926 4.355 2.158 18.055 7.545 19.879 5.301 1.789 9.694 1.996 15.439-5.074 2.428-7.957-4.862-11.051-4.862-11.051l10.608-14.363-6.853 15.252s-3.096 8.17 3.534 12.152c6.633 3.975 13.923-5.303 13.923-5.303l5.084-6.85s-.443 9.498 7.513 9.941c7.952.439 12.597-11.271 12.597-11.271s8.615-15.027 12.37-17.459c3.762-2.43 23.645-18.338 30.717-30.052C232.087 107.055 248 100.204 248 100.204L226.122 58z"/><path fill="#FFF" d="M96.409 111.479s2.145-.575 5.907-1.5c1.873-.479 4.159-1.046 6.644-1.967 1.235-.471 2.517-1.045 3.745-1.816 1.212-.787 2.538-1.744 3.932-2.642 2.781-1.859 5.827-3.777 9.095-5.756 1.629-.996 3.33-1.976 5.054-3.001a291.623 291.623 0 0 1 5.383-2.975c1.87-.945 3.718-1.987 5.704-2.873.994-.453 1.943-.938 2.992-1.371l3.017-1.222a116.402 116.402 0 0 1 12.764-4.073c4.344-1.102 8.746-1.948 13.097-2.597 2.172-.332 4.345-.571 6.462-.814 1.05-.133 2.123-.218 2.937-.445.399-.133.887-.308 1.368-.492l1.438-.559a424.852 424.852 0 0 0 11.001-4.593c3.477-1.522 6.767-2.961 9.777-4.343 6.023-2.762 10.985-5.191 14.35-7.088 1.68-.952 2.971-1.751 3.808-2.36.422-.301.733-.546.932-.727l.31-.264-.282.292c-.181.201-.469.477-.861.82-.785.685-1.985 1.643-3.603 2.727-3.22 2.19-8.019 5.004-13.915 8.1-2.953 1.539-6.161 3.19-9.606 4.83-3.444 1.643-7.071 3.376-10.923 5.008l-1.463.607c-.492.199-.986.397-1.584.604-1.216.355-2.274.439-3.335.606-2.122.287-4.237.605-6.372.939-4.264.672-8.562 1.534-12.793 2.645-4.229 1.085-8.438 2.377-12.425 3.873l-3.026 1.197c-.947.391-1.934.844-2.892 1.257-1.938.806-3.796 1.795-5.652 2.676a378.58 378.58 0 0 0-10.526 5.571c-3.309 1.848-6.449 3.606-9.297 5.271-1.449.818-2.747 1.666-4.128 2.44-1.396.743-2.791 1.249-4.107 1.646-2.639.785-4.979 1.142-6.895 1.459l-6.032.91z" opacity=".3"/><path fill="#F5BE88" d="M117.429 127.289s10.693-7.065 22.294-5.867c11.597 1.199 25.615 3.425 30.041 1.235 4.43-2.192 32.665-15.673 36.019-24.177-11.244 7.307-15.844 8.629-15.844 8.629s-14.584 7.436-41.033 5.067c-4.889-.573-7.523-.813-7.523-.813s-21.677 8.145-23.954 15.926z"/><path fill="#F4BE88" d="M190.722 119.026s-3.287 1.787-8.414 4.071c-2.573 1.118-5.585 2.414-8.9 3.581a101.652 101.652 0 0 1-5.163 1.663c-1.783.495-3.607.969-5.48 1.27-.939.149-1.883.263-2.804.337l-2.764.264-5.383.463c-1.742.149-3.426.295-5.022.433-1.599.128-3.094.343-4.483.49-1.373.237-2.647.388-3.758.611-1.103.255-2.081.429-2.862.657l-2.446.771 2.389-.958c.771-.276 1.74-.51 2.838-.834 1.105-.296 2.374-.525 3.754-.804 1.389-.2 2.892-.473 4.488-.659 1.596-.204 3.278-.417 5.022-.572 1.741-.171 3.54-.348 5.368-.526 1.818-.222 3.709-.341 5.506-.659 1.819-.27 3.622-.714 5.387-1.18a101.58 101.58 0 0 0 5.131-1.585c1.648-.57 3.244-1.119 4.749-1.669a203.372 203.372 0 0 0 4.218-1.61c2.597-1.04 4.765-1.906 6.266-2.551l2.363-1.004zM178.026 139.627l2.215 1.657 2.254 1.682c.835.597 1.714 1.245 2.625 1.839.453.299.898.615 1.36.879.457.276.897.563 1.349.793.881.5 1.737.898 2.495 1.174.375.162.73.248 1.05.333.319.095.602.163.839.165.473.045.757.084.757.084s-.268.049-.76.11c-.248.048-.546.038-.89.009-.347-.017-.744-.031-1.152-.148-.416-.09-.873-.185-1.322-.367a10.146 10.146 0 0 1-1.415-.574c-.971-.427-1.928-1.019-2.866-1.627a31.31 31.31 0 0 1-2.612-1.979 31.282 31.282 0 0 1-2.088-1.941c-.591-.589-1.036-1.127-1.358-1.49-.317-.373-.481-.599-.481-.599zM124.136 135.314s.542.701 1.406 1.662c.431.482.95 1.023 1.519 1.585.581.549 1.192 1.142 1.863 1.664.645.552 1.338 1.043 1.992 1.5.322.237.661.423.967.629.307.204.61.374.891.534.283.153.532.323.768.442l.608.319.529.299-.597-.111a9.147 9.147 0 0 1-1.548-.428 7.286 7.286 0 0 1-1.002-.396c-.343-.169-.727-.312-1.078-.539-.354-.222-.752-.406-1.099-.679-.355-.259-.729-.507-1.067-.799a14.332 14.332 0 0 1-.988-.895c-.327-.295-.6-.633-.881-.941a13.41 13.41 0 0 1-1.336-1.846c-.7-1.136-.947-2-.947-2zM141.119 146.107l.307.334c.185.214.47.498.795.847.328.344.732.724 1.145 1.137.219.196.453.388.673.601.214.221.454.416.709.596.241.196.481.393.719.585.229.206.496.347.733.518.245.159.473.329.692.488.214.17.438.29.646.405.823.464 1.369.869 1.369.869s-.646-.081-1.609-.347c-.242-.063-.508-.129-.756-.269-.256-.122-.529-.249-.804-.397-.267-.159-.586-.264-.833-.481l-.792-.6a5.491 5.491 0 0 1-.736-.665c-.232-.23-.441-.477-.653-.703-.209-.229-.366-.492-.533-.721a5.053 5.053 0 0 1-.429-.677c-.499-.862-.643-1.52-.643-1.52zM126.054 158.787s.652-.02 1.598.157a13.193 13.193 0 0 1 3.34 1.111c.291.14.566.314.845.468.277.157.526.356.779.524.488.368.904.768 1.225 1.139.306.39.54.721.653.988.126.257.186.403.186.403l-.342-.281c-.196-.19-.526-.409-.886-.687a13.528 13.528 0 0 1-.616-.407c-.228-.132-.467-.268-.705-.421-.504-.27-1.029-.571-1.584-.832-.543-.281-1.102-.536-1.625-.784l-1.443-.678c-.853-.394-1.425-.7-1.425-.7zM126.054 168.609s.04-.58.455-1.333c.192-.384.498-.788.879-1.179.205-.178.4-.39.649-.538.234-.171.493-.312.759-.441.262-.14.556-.197.827-.296.276-.083.565-.096.833-.143.271-.024.535-.004.781 0 .246-.001.475.068.684.104.421.062.745.223.972.312.226.097.349.161.349.161s-.144.018-.385.034c-.241.022-.576.008-.97.066-.196.029-.407.025-.624.069l-.675.125-.692.198c-.224.096-.468.148-.68.276-.457.187-.865.471-1.253.736-.372.288-.719.575-.995.855-.563.551-.914.994-.914.994zM145.011 168.609s.583.477 1.406 1.205l1.404 1.231c.521.436 1.056.921 1.625 1.356.547.465 1.13.876 1.677 1.254.271.198.552.346.809.514.259.167.521.271.756.405.235.136.469.19.671.284.202.092.386.143.541.176l.495.135s-.181.029-.514.063a2.084 2.084 0 0 1-.603.001c-.227-.033-.507-.026-.778-.117-.272-.08-.592-.135-.889-.273-.299-.132-.637-.243-.939-.431a11.606 11.606 0 0 1-1.852-1.231 15.84 15.84 0 0 1-2.826-2.982c-.662-.904-.983-1.59-.983-1.59zM165.573 165.041s.776.326 1.93.713c.582.178 1.254.388 1.983.522.362.089.741.119 1.122.167.38.06.767.029 1.15.043.374-.058.77-.023 1.124-.144.18-.048.36-.089.541-.125.178-.043.337-.132.504-.193.164-.07.331-.13.486-.203l.435-.266.417-.253.351-.297c.217-.201.459-.352.619-.538l.433-.476.401-.414-.235.524c-.082.166-.183.368-.297.601-.115.234-.318.45-.515.708l-.317.397c-.129.119-.273.23-.418.352l-.452.37c-.163.114-.354.192-.536.293-.363.212-.77.357-1.197.46-.42.146-.868.133-1.307.201-.437-.022-.882-.007-1.303-.084a7.185 7.185 0 0 1-1.218-.272 9.439 9.439 0 0 1-2.004-.852c-1.105-.626-1.697-1.234-1.697-1.234z"/><path fill="#F4BE88" d="M225.932 106.333c-.543 2.124-1.211 4.215-1.938 6.284a73.976 73.976 0 0 1-2.452 6.109c-.89 2.009-1.922 3.955-3.04 5.851a37.968 37.968 0 0 1-3.874 5.359c-1.503 1.645-3.168 3.074-4.783 4.551-1.646 1.448-3.291 2.91-4.965 4.325l-10.045 8.481c-.825.71-1.65 1.437-2.42 2.174l-.544.566-.26.271-.232.339-.926 1.356-3.527 5.52-7.032 11.115-1.803 2.762c-.306.461-.677.938-1.017 1.403-.415.453-.906.766-1.369 1.081-1.895 1.211-4.04 2.144-6.367 2.265a7.599 7.599 0 0 1-3.422-.59c-1.082-.458-2.033-1.186-2.796-2.046-1.526-1.74-2.41-3.866-3.061-5.99l-.074-.244.183-.201c.859-.947 1.682-1.938 2.343-3.043.703-1.077 1.247-2.254 1.762-3.437a30.96 30.96 0 0 0 1.957-7.5c.09-.641.156-1.291.192-1.924.067-.724.188-1.344.322-2.01.279-1.306.656-2.598 1.212-3.829.558-1.219 1.296-2.423 2.425-3.271.282-.212.567-.416.909-.533l.489-.209c.167-.055.347-.068.521-.104l.524-.086c.175-.021.35.013.524.018l.523.037c.094.013.161 0 .274.033l.24.058a8.536 8.536 0 0 1 1.927.646c.61.315 1.191.705 1.667 1.209.971.999 1.513 2.317 1.773 3.63.266 1.321.294 2.662.235 3.984-.057 1.324-.217 2.636-.402 3.94-.188 1.307-.415 2.597-.621 3.896l-.632 3.892-1.265 7.782 1.083-7.81.542-3.904c.175-1.302.374-2.605.528-3.903.155-1.301.283-2.605.308-3.908.023-1.301-.026-2.606-.293-3.86-.266-1.248-.788-2.448-1.67-3.332-.433-.447-.961-.79-1.52-1.071a7.847 7.847 0 0 0-1.807-.576c-1.211-.249-2.486-.054-3.45.718-.974.748-1.653 1.862-2.164 3.023-.51 1.172-.859 2.422-1.112 3.687-.12.622-.233 1.298-.281 1.884a23.887 23.887 0 0 1-.173 2 31.453 31.453 0 0 1-1.978 7.725c-.526 1.227-1.085 2.448-1.814 3.577-.685 1.156-1.542 2.202-2.444 3.202l.108-.445c.633 2.046 1.496 4.058 2.885 5.623 1.372 1.573 3.398 2.445 5.473 2.297 2.073-.11 4.099-.983 5.868-2.13.438-.301.882-.592 1.203-.947.3-.425.606-.811.909-1.261l1.803-2.736 7.076-11.079a466.116 466.116 0 0 1 3.578-5.545l.934-1.354.234-.338c.111-.136.201-.215.304-.326l.597-.617a59.888 59.888 0 0 1 2.479-2.208c3.348-2.847 6.777-5.57 10.134-8.385 1.691-1.394 3.342-2.823 5.005-4.247 1.639-1.459 3.321-2.87 4.798-4.445a40.497 40.497 0 0 0 3.903-5.224c1.15-1.852 2.221-3.761 3.152-5.74a73.63 73.63 0 0 0 2.585-6.033c.774-2.048 1.49-4.121 2.082-6.232z"/><path fill="#F4BE88" d="M218.96 123.374s.336-.461.965-1.234c.634-.769 1.533-1.876 2.681-3.144 1.161-1.254 2.499-2.738 4.032-4.229a75.23 75.23 0 0 1 2.387-2.277c.817-.771 1.692-1.505 2.547-2.263.869-.741 1.771-1.444 2.641-2.157.893-.686 1.789-1.337 2.655-1.968a85.605 85.605 0 0 1 2.578-1.706l2.385-1.41c.76-.4 1.467-.747 2.092-1.052.614-.326 1.196-.519 1.653-.716l1.459-.571-1.376.748c-.435.241-.984.485-1.563.869-.587.367-1.248.777-1.978 1.207l-2.27 1.535-2.463 1.809-2.573 2.014c-.854.714-1.738 1.42-2.594 2.162-.854.742-1.729 1.46-2.548 2.217-.827.747-1.655 1.467-2.428 2.197a196.515 196.515 0 0 0-4.233 3.982l-2.94 2.884-1.109 1.103zM226.122 58s-1.859 1.195-5.214 3.123c-3.358 1.918-8.202 4.593-14.216 7.408-3.016 1.384-6.301 2.856-9.867 4.194-3.563 1.336-7.364 2.68-11.436 3.596-4.045.934-8.264 1.765-12.585 2.375-2.158.316-4.333.57-6.474.973-2.143.396-4.259.967-6.358 1.612-4.196 1.302-8.342 2.837-12.395 4.386a128.78 128.78 0 0 0-11.613 5.195 152.304 152.304 0 0 0-10.393 5.81c-3.236 1.973-6.205 3.98-8.98 5.803-1.39.875-2.738 1.841-4.242 2.247-1.438.47-2.739 1.02-3.988 1.532-2.481 1.038-4.626 1.993-6.392 2.778l-5.562 2.448 5.481-2.622c1.747-.83 3.867-1.837 6.328-2.94 1.228-.541 2.557-1.139 3.979-1.644 1.427-.426 2.702-1.358 4.088-2.265 2.736-1.859 5.685-3.922 8.903-5.955 3.213-2.039 6.68-4.077 10.383-5.965 3.696-1.9 7.604-3.691 11.668-5.293 4.064-1.574 8.201-3.141 12.442-4.468 2.127-.642 4.287-1.212 6.476-1.606 2.188-.399 4.372-.643 6.519-.946 4.296-.584 8.491-1.388 12.521-2.297 4.018-.9 7.817-2.15 11.378-3.43 3.565-1.275 6.861-2.691 9.888-4.025 6.033-2.721 10.959-5.222 14.354-7.069 3.402-1.834 5.307-2.955 5.307-2.955zM159.598 168.609c-1.15 1.812-2.466 3.518-3.89 5.133-1.426 1.613-3.002 3.115-4.811 4.339-.453.305-.919.593-1.409.844-.483.262-.994.48-1.52.664a8.556 8.556 0 0 1-1.635.396c-.563.055-1.14.082-1.71-.014-.156-.028-.254-.027-.459-.08l-.384-.12c-.25-.068-.524-.188-.791-.296a6.977 6.977 0 0 1-1.479-.86 5.862 5.862 0 0 1-1.213-1.233c-.339-.487-.612-.974-.768-1.622a.362.362 0 0 1 .006-.188l.013-.042c.079-.257.146-.576.189-.874.044-.305.068-.612.077-.92a7.203 7.203 0 0 0-.179-1.83 6.777 6.777 0 0 0-.625-1.72c-.128-.278-.304-.53-.469-.788-.166-.257-.376-.485-.56-.73l-.024-.032a.494.494 0 0 1-.083-.177c-.172-.726-.106-1.46.074-2.121.176-.666.451-1.281.765-1.864.316-.581.676-1.13 1.063-1.654.391-.527.795-1.021 1.256-1.511l-.092.138c1.479-3.34 2.911-6.7 4.434-10.021l.642.38-5.539 6.935c-1.873 2.291-3.722 4.602-5.618 6.874 1.724-2.407 3.495-4.776 5.242-7.165l5.32-7.104a.376.376 0 0 1 .648.367l-.006.013c-1.379 3.383-2.848 6.728-4.27 10.092a.454.454 0 0 1-.081.126l-.011.012c-.404.438-.801.931-1.159 1.426-.361.499-.69 1.018-.976 1.553-.563 1.059-.955 2.256-.73 3.297l-.107-.209c.208.277.437.537.623.829.185.294.378.582.521.899.322.614.543 1.281.688 1.957.147.677.206 1.371.179 2.06a9.092 9.092 0 0 1-.098 1.029 6.907 6.907 0 0 1-.239 1.034l.019-.228c.089.396.323.878.599 1.265.28.4.63.754 1.021 1.059.386.311.833.558 1.285.766.229.094.442.197.71.274l.382.124.331.062c.486.101.991.09 1.493.06a7.835 7.835 0 0 0 1.494-.313c.49-.154.976-.343 1.441-.577.472-.222.928-.484 1.373-.764 1.782-1.125 3.374-2.56 4.879-4.067a48.64 48.64 0 0 0 4.168-4.883z"/><path fill="#F4BE88" d="M134.861 165.613c.388.051.737.262 1.066.468.172.098.315.23.475.346.16.115.305.247.45.377.299.254.578.528.851.809l.409.408c.144.146.264.241.414.333.296.185.598.199.855.035.266-.157.484-.455.663-.767.352-.635.589-1.375.751-2.092l.013-.058.037-.056a113.7 113.7 0 0 1 5.083-7.187c1.793-2.326 3.66-4.602 5.741-6.707 1.049-1.044 2.143-2.056 3.428-2.885a6.233 6.233 0 0 1 1.036-.541c.357-.155.825-.234 1.162-.267a13.745 13.745 0 0 1 2.246-.118c1.493.061 3.036.374 4.303 1.222a5.74 5.74 0 0 1 1.618 1.548c.433.608.726 1.299.92 2.004a7.017 7.017 0 0 0-1.094-1.87 5.404 5.404 0 0 0-1.649-1.339c-1.252-.673-2.686-.929-4.104-.906-.722.021-1.399.078-2.124.218-.388.063-.645.12-.958.267a6.568 6.568 0 0 0-.889.507c-1.161.784-2.199 1.807-3.207 2.836-2.006 2.086-3.857 4.342-5.669 6.624a195.57 195.57 0 0 0-2.676 3.461c-.877 1.166-1.769 2.326-2.62 3.507l.05-.112c-.216.782-.488 1.525-.918 2.231-.223.344-.481.695-.896.924-.204.112-.46.168-.702.139-.246-.025-.453-.139-.633-.259a2.473 2.473 0 0 1-.461-.428l-.378-.446c-.244-.298-.495-.59-.766-.862-.132-.14-.263-.282-.408-.406-.145-.125-.278-.267-.431-.382-.297-.238-.61-.481-.988-.576z"/><path fill="#F4BE88" d="M116.714 122.658a83.235 83.235 0 0 0-6.595 6.975 75.757 75.757 0 0 0-2.98 3.757 58.15 58.15 0 0 0-2.682 3.966c-.822 1.366-1.61 2.755-2.251 4.209-.684 1.429-1.234 2.943-1.766 4.438a59.972 59.972 0 0 0-2.421 9.239c-.551 3.134-.837 6.317-.737 9.487.107 3.164.597 6.326 1.67 9.286a21.382 21.382 0 0 0 2.07 4.218c.424.661.877 1.289 1.382 1.902.475.563 1.058 1.083 1.691 1.429.64.339 1.348.505 2.056.43.708-.072 1.4-.357 2.032-.762 1.257-.813 2.331-2.021 3.155-3.289l-.062.166c1.178-6.891 2.334-13.779 3.827-20.625.191-.855.385-1.711.603-2.564.11-.428.224-.854.351-1.283.151-.446.223-.82.53-1.356.238-.354.522-.716.816-1.074l.863-1.006 1.768-1.949c2.383-2.566 4.818-5.072 7.274-7.563l.194-.197.264.086 2.736.89.568.185-.338.49-13.705 19.914.06-.179a40.902 40.902 0 0 0 .128 4.959 35.87 35.87 0 0 0 .746 4.908c.378 1.607.871 3.196 1.604 4.669.366.735.786 1.442 1.273 2.1a10.916 10.916 0 0 0 1.673 1.79 10.153 10.153 0 0 0 4.354 2.191c.802.185 1.626.278 2.451.28.82-.02 1.668-.029 2.424-.354a19.37 19.37 0 0 0 4.424-2.279 14.847 14.847 0 0 0 1.931-1.581c.612-.568 1.134-1.224 1.629-1.896-.48.682-.989 1.351-1.592 1.934-.583.6-1.229 1.137-1.906 1.631a19.614 19.614 0 0 1-4.411 2.393c-.788.354-1.66.383-2.496.42a11.302 11.302 0 0 1-2.521-.235 10.514 10.514 0 0 1-4.558-2.177 11.387 11.387 0 0 1-1.78-1.826 13.438 13.438 0 0 1-1.355-2.157c-.776-1.513-1.298-3.133-1.704-4.769a36.477 36.477 0 0 1-.818-4.983 41.25 41.25 0 0 1-.189-5.051l.002-.095.058-.085 13.545-20.023.23.675-2.738-.884.457-.111a350.432 350.432 0 0 0-7.223 7.567l-1.744 1.938-.839.985c-.258.318-.516.642-.763 1.014-.129.225-.281.705-.396 1.088-.12.409-.229.826-.335 1.245a87.396 87.396 0 0 0-.586 2.537c-.729 3.403-1.378 6.834-2.022 10.263a751.013 751.013 0 0 0-1.837 10.308l-.017.099-.045.068c-.925 1.403-2.029 2.646-3.465 3.578-.717.454-1.541.802-2.433.89-.89.094-1.807-.127-2.575-.544-.771-.43-1.401-1-1.955-1.661-.51-.624-.995-1.3-1.431-1.987a22.168 22.168 0 0 1-2.138-4.397c-1.108-3.072-1.583-6.328-1.646-9.56-.064-3.236.266-6.464.861-9.63a60.534 60.534 0 0 1 2.555-9.304c.56-1.515 1.121-3.011 1.837-4.465.677-1.467 1.508-2.852 2.364-4.211a58.87 58.87 0 0 1 2.783-3.935 75.675 75.675 0 0 1 3.07-3.706 82.682 82.682 0 0 1 6.746-6.844z"/><path fill="#F4BE88" d="M217.067 90.046c-2.556 2.242-5.244 4.329-7.99 6.335a134.85 134.85 0 0 1-4.185 2.921 111.52 111.52 0 0 1-4.298 2.756c-1.469.863-2.925 1.747-4.437 2.535-1.485.837-3.025 1.57-4.56 2.316-.759.392-1.559.695-2.339 1.04-.79.324-1.56.698-2.366.98-1.611.569-3.202 1.204-4.867 1.62-.829.214-1.638.51-2.485.651l-2.531.478c-1.712.283-3.384.4-5.077.608l-2.533.28-2.558.146c-1.705.075-3.412.244-5.116.239l-5.114.042-5.111-.161c-1.701-.125-3.406-.193-5.104-.376-1.7-.165-3.39-.351-5.093-.616l.286-.04c-5.048 2.364-10.09 4.735-15.176 7.022l-3.81 1.723a76.475 76.475 0 0 1-3.853 1.658l-3.902 1.583c-1.362.409-2.741.669-4.122.913a61.34 61.34 0 0 1-8.356.826c-2.798.067-5.612-.051-8.377-.538a28.318 28.318 0 0 1-4.076-1.03 18.384 18.384 0 0 1-3.812-1.768c-1.192-.735-2.311-1.614-3.211-2.69a13.047 13.047 0 0 1-2.151-3.573 12.98 12.98 0 0 0 2.252 3.482c.923 1.036 2.042 1.879 3.234 2.572a18.056 18.056 0 0 0 3.794 1.649 27.75 27.75 0 0 0 4.042.917c5.483.801 11.095.42 16.536-.552 1.357-.26 2.718-.539 4.02-.952l3.817-1.619a79.328 79.328 0 0 0 3.813-1.667l3.797-1.739c5.064-2.308 10.096-4.704 15.127-7.09l.133-.063.153.023c1.656.25 3.346.429 5.028.583 1.683.167 3.375.245 5.062.379l5.075.184 5.078-.018c1.695.013 3.377-.147 5.066-.212l2.531-.13 2.534-.268c1.678-.198 3.404-.313 5.043-.578l2.479-.456c.83-.137 1.631-.415 2.449-.613 1.642-.384 3.222-.989 4.822-1.527.801-.267 1.568-.627 2.355-.936.777-.33 1.574-.618 2.332-.996 1.532-.717 3.072-1.422 4.561-2.232 1.514-.761 2.976-1.619 4.449-2.456 1.452-.874 2.919-1.728 4.341-2.652a132.517 132.517 0 0 0 4.243-2.812c2.786-1.94 5.527-3.952 8.158-6.101z"/><path fill="#FFECCB" d="M96.646 111.371s-8.53-3.556-15.167.72c-1.573 2.117 4.395 3.524 4.395 3.524s7.115.725 10.772-4.244zM171.711 154.592s5.701 1.438 6.881-8.693c-2.826-6.041-7.555-3.109-7.555-3.109s-4.688 7.882.674 11.802zM165.125 155.605c-.468 2.363-4.981 10.852-9.834 9.287-4.857-1.561-1.944-8.316-1.944-8.316s2.894-5.574 5.457-5.574c2.562 0 6.785 2.242 6.321 4.603zM127.508 170.633s3.338 6.59 11.146 5.953c-1.689 3.676-7.851 5.662-9.497 5.234-1.648-.42-4.478-3.504-4.14-5.271.339-1.774 1.182-4.858 2.491-5.916z"/><g><path fill="#FDD5A6" d="M3 148.039s34.761 3.99 41.789 5.566c1.759.396 7.543 1.818 8.962 1.695 4.803-.402 23.44-9.193 23.44-9.193s13.654-6.113 17.784-6.475c4.133-.369 13.833-1.443 14.82 1.787.988 3.236-5.701 4.24-7.546 4.043-1.84-.195-9.791 2.258-11.945 2.965-2.257.744-3.323.99-3.323.99s10.869-2.605 14.371-1.977c3.503.629 10.038.268 14.28 4.941 2.465 2.711-1.616 6.648-4.76 5.029 2.717 2.926 4.133 5.209 4.133 5.209s1.349 4.273-1.257 4.201c.593 1.266 2.243 5.049-2.784 4.508 0 0-6.649-2.334-9.164-3.592-2.514-1.254-14.73 12.303-24.25 11.9 7.095 1.496 13.203 2.24 13.203 2.24s8.354-1.113 8.893 5.623c.808 5.834-11.138 4.49-11.138 4.49s-4.761.34-7.404-.154c-2.27-.424-14.153-2.096-17.295-2.363-3.145-.268-9.253-5.479-9.612-6.197-.359-.719-40.239 2.609-45.178 4.131L3 148.039z"/><path fill="#FFF" d="M3 148.039s1.655.213 4.544.632c2.885.438 7.017 1.009 11.957 1.795a1212.38 1212.38 0 0 1 16.865 2.763l9.498 1.644 1.214.217.304.054c.032.006.145.025.109.021l.153.02.615.078c.838.13 1.598.145 2.38.195 1.598.028 3.21-.077 4.812-.296 3.207-.453 6.365-1.348 9.385-2.492a82.22 82.22 0 0 0 4.451-1.836 32.815 32.815 0 0 0 4.133-2.126c2.634-1.621 5.276-3.228 7.917-4.448a45.72 45.72 0 0 1 7.684-2.808 51.686 51.686 0 0 1 6.76-1.297c1.017-.107 1.964-.242 2.845-.305l2.421-.152c1.46-.1 2.613-.037 3.394-.06l1.199-.004-1.195.112c-.778.085-1.922.155-3.366.339l-2.389.313c-.868.12-1.795.318-2.79.491-1.984.382-4.192.942-6.556 1.664a50.239 50.239 0 0 0-7.347 3.045c-2.524 1.276-4.995 2.914-7.657 4.61a34.71 34.71 0 0 1-4.278 2.317 61.273 61.273 0 0 1-4.539 1.948c-3.108 1.2-6.396 2.166-9.795 2.666a33.415 33.415 0 0 1-5.15.279c-.875-.058-1.774-.098-2.57-.229l-.614-.082-.153-.021-.195-.034-.304-.057-1.212-.226-9.467-1.813a1219 1219 0 0 1-16.759-3.366c-4.901-1.008-8.97-1.933-11.826-2.54C4.625 148.425 3 148.039 3 148.039z" opacity=".3"/><path fill="#F5BE88" d="M99.252 185.736c-2.015 3.377-10.744 2.404-10.744 2.404s-5.749 1.168-7.813.139c-2.067-1.035-13.744-2.385-16.886-2.652-3.145-.268-9.253-5.482-9.612-6.199-.359-.719-40.827 2.617-45.765 4.143l.587 3.838c4.938-1.521 44.819-4.85 45.178-4.131.359.719 6.467 5.93 9.612 6.197 3.142.268 14.673 2.1 16.953 2.471 2.517.414 7.835.578 7.835.578s11.856.813 11.048-5.021a6.531 6.531 0 0 0-.393-1.767z" opacity=".5"/><path fill="#F4BE88" d="M88.803 155.412c1.901-.574 3.812-1.13 5.751-1.571a58.747 58.747 0 0 1 2.923-.614c.98-.185 1.971-.317 2.979-.371a7.507 7.507 0 0 1 1.522.05c.494.062 1.011.179 1.491.309.973.268 1.916.625 2.823 1.055.908.427 1.79.909 2.632 1.458.424.271.831.569 1.226.887.385.333.774.662 1.074 1.121l-.031-.038c1.282 1.337 2.462 2.766 3.385 4.377.447.805.831 1.685.882 2.626.02.467-.091.954-.374 1.33-.279.379-.691.624-1.116.789.417-.187.81-.451 1.058-.829.252-.375.333-.838.292-1.281-.089-.898-.52-1.724-.973-2.501-.945-1.549-2.163-2.935-3.449-4.208l-.016-.017-.015-.021c-.249-.376-.626-.698-.994-1.007a13.31 13.31 0 0 0-1.195-.845 21.301 21.301 0 0 0-2.589-1.397c-.895-.402-1.808-.768-2.747-1.036a10.75 10.75 0 0 0-1.419-.311 7.098 7.098 0 0 0-1.448-.063c-.975.036-1.956.175-2.932.321-.978.144-1.953.322-2.924.515-1.942.398-3.888.797-5.816 1.272z"/><path fill="#F4BE88" d="M9.019 187.408c1.434-.868 3.107-1.203 4.723-1.565a71.495 71.495 0 0 1 4.934-.805c3.306-.433 6.627-.73 9.95-.982 6.648-.5 13.312-.747 19.975-.921l4.999-.096c.077.006.049-.017.211.014l.164.11.253.182.508.362 1.021.718 2.062 1.405c1.386.919 2.788 1.817 4.244 2.606.726.373 1.485.782 2.243.914.781-.015 1.683.064 2.491.154 3.32.377 6.61.915 9.899 1.46 3.279.586 6.584.933 9.902 1.128l.034.005.011.002c.712.166 1.503.18 2.262.208.769-.013 1.538-.034 2.305-.121.77-.046 1.529-.2 2.293-.304.383-.047.758-.147 1.137-.221l1.134-.239a8.848 8.848 0 0 0 1.108-.296 6.423 6.423 0 0 0 1.034-.434c.659-.342 1.235-.839 1.55-1.48.317-.642.33-1.402.157-2.117a6.116 6.116 0 0 0-.921-2.019.297.297 0 0 1-.044-.1 1.698 1.698 0 0 0-.148-.342 2.938 2.938 0 0 0-.233-.341 3.8 3.8 0 0 0-.605-.59 5.247 5.247 0 0 0-.72-.476 6.491 6.491 0 0 0-.791-.372 10.48 10.48 0 0 0-1.691-.511 19.596 19.596 0 0 0-1.76-.282l.037.001-2.34.049-1.17-.032c-.39-.017-.781-.009-1.17-.049-.778-.068-1.559-.1-2.332-.219a28.783 28.783 0 0 1-2.315-.365c-.767-.15-1.53-.327-2.282-.541a25.706 25.706 0 0 1-2.231-.729 20.898 20.898 0 0 1-2.147-.958c-.699-.364-1.372-.755-2.011-1.26l.292-.297c1.055.977 2.674 1.313 4.158 1.275 1.517-.031 3.018-.402 4.456-.917 2.881-1.056 5.527-2.679 8.039-4.455l3.792-2.664c1.271-.881 2.531-1.772 3.842-2.605.33-.205.661-.41 1.017-.587.341-.164.76-.377 1.22-.239l2.137.939a106.78 106.78 0 0 0 4.282 1.754c.72.272 1.445.534 2.178.761.734.225 1.47.416 2.213.281.726-.11 1.46-.461 1.806-1.104.354-.641.248-1.442-.015-2.137-.557-1.412-1.551-2.637-2.63-3.707-1.099-1.069-2.35-1.981-3.677-2.759a24.058 24.058 0 0 0-4.197-1.91c-1.454-.49-2.968-.896-4.507-.878-1.54.038-3.068.32-4.556.726a32.023 32.023 0 0 0-4.366 1.536 32.149 32.149 0 0 1 4.354-1.58c1.486-.42 3.016-.72 4.567-.772 1.561-.032 3.085.361 4.552.84a24.18 24.18 0 0 1 4.244 1.882c1.345.771 2.618 1.679 3.744 2.754 1.113 1.083 2.131 2.308 2.714 3.779.276.725.413 1.604.008 2.354-.402.748-1.222 1.127-1.998 1.249-.797.148-1.606-.059-2.338-.282a37.764 37.764 0 0 1-2.199-.76 105.594 105.594 0 0 1-4.3-1.744l-2.107-.92c-.303-.1-.653.057-.986.223-.335.168-.662.372-.987.575-1.294.828-2.554 1.726-3.819 2.609l-3.783 2.676c-2.518 1.794-5.182 3.444-8.111 4.529-1.464.528-3 .917-4.579.955-1.559.025-3.227-.255-4.478-1.399a.207.207 0 1 1 .267-.316l.025.02c.581.456 1.257.852 1.935 1.198.679.356 1.39.653 2.106.932a27.483 27.483 0 0 0 4.446 1.234c.757.145 1.518.271 2.285.353.763.115 1.536.144 2.304.209.384.038.771.029 1.157.044l1.157.027 2.315-.055.01-.001.026.002c.607.072 1.213.155 1.814.284.6.132 1.195.296 1.771.529.289.112.572.243.847.395.273.152.542.319.79.519.253.191.482.42.687.671.1.128.193.263.275.407.079.154.152.282.202.489l-.043-.099c.465.678.805 1.404.998 2.201.188.786.18 1.675-.2 2.438-.376.762-1.047 1.321-1.761 1.688-.36.187-.728.342-1.114.463a9.188 9.188 0 0 1-1.144.302l-1.148.238c-.384.073-.762.173-1.151.22-.776.103-1.544.256-2.328.301-.779.085-1.564.104-2.35.114-.792-.034-1.565-.042-2.372-.23l.044.007c-3.334-.207-6.664-.568-9.945-1.166-3.282-.556-6.571-1.104-9.872-1.49-.847-.094-1.608-.169-2.494-.162-.89-.162-1.617-.58-2.366-.963-1.472-.804-2.875-1.71-4.263-2.637l-2.063-1.416-1.021-.723-.508-.365-.253-.183c-.057-.038-.044-.037-.09-.071.064.01-.072.003-.098.006l-4.995.079a483.7 483.7 0 0 0-19.968.817c-3.323.219-6.645.483-9.952.884a70.857 70.857 0 0 0-4.937.756c-1.622.346-3.296.665-4.737 1.518z"/><path fill="#FFECCB" d="M92.895 188.6s.445-2.529 3.349-2.234c2.902.297 2.902 2.234 2.605 2.607-.299.369-3.499 3.498-5.954 1.486-.66-.607 0-1.859 0-1.859z"/><path fill="#F4BE88" d="M111.301 157.615c.673.048 1.354.01 2.016-.117.659-.13 1.31-.361 1.847-.768.545-.398.904-1.012 1.036-1.665.122-.659.062-1.341-.091-1.993l.005.013c-.894-1.483-2.381-2.492-3.926-3.217-1.562-.725-3.231-1.196-4.917-1.547-1.688-.349-3.402-.561-5.12-.694-1.725-.185-3.43-.083-5.144.149-1.708.225-3.402.559-5.092.913l-2.539.535c-.426.083-.85.169-1.29.222a4.064 4.064 0 0 1-.337.028c-.062-.002-.119 0-.186-.008l-.108-.022c-.06-.021-.038-.017-.06-.025-.037-.02-.107-.089-.104-.157.045-.248.123-.196.168-.26.053-.037.103-.065.154-.093.101-.055.202-.102.303-.146 1.618-.671 3.277-1.151 4.94-1.64 1.668-.468 3.338-.922 5.058-1.223a8.335 8.335 0 0 1 1.311-.116 25.3 25.3 0 0 0 1.281-.104 47.055 47.055 0 0 0 2.559-.346c1.69-.292 3.408-.604 4.978-1.234.369-.162.79-.371.953-.639.207-.384.421-.751.554-1.135.135-.38.176-.78.029-1.118-.141-.342-.46-.604-.808-.805-1.48-.747-3.262-.868-4.956-.986a40.096 40.096 0 0 0-10.254.778c-3.372.682-6.646 1.792-9.801 3.166-1.584.682-3.111 1.461-4.658 2.246-1.551.771-3.113 1.52-4.686 2.239a230.433 230.433 0 0 1-9.522 4.131 131.917 131.917 0 0 1-4.843 1.873c-1.634.577-3.257 1.18-4.991 1.511-1.741.284-3.527.038-5.206-.374-1.69-.416-3.325-.988-4.988-1.431-1.663-.428-3.38-.624-5.087-.882l-5.137-.694-10.288-1.306-20.586-2.542 20.614 2.311 10.296 1.255 5.143.675c1.709.252 3.439.442 5.128.869 1.68.441 3.316 1.006 4.986 1.41 1.666.4 3.384.629 5.066.349 1.664-.323 3.299-.933 4.917-1.512 1.62-.593 3.225-1.229 4.822-1.887a228.249 228.249 0 0 0 9.489-4.159 166.651 166.651 0 0 0 4.663-2.251c1.532-.785 3.083-1.584 4.673-2.275 3.172-1.408 6.491-2.511 9.902-3.187a40.586 40.586 0 0 1 10.374-.748c.868.052 1.736.131 2.6.276.86.152 1.731.343 2.535.783.389.229.786.539.981 1.007.2.467.129.986-.024 1.411-.153.435-.381.816-.585 1.191-.314.472-.75.618-1.149.812-1.648.652-3.363.95-5.073 1.24-.857.137-1.717.251-2.581.339a24.34 24.34 0 0 1-1.303.102c-.446.008-.84.031-1.27.107-1.688.288-3.362.735-5.023 1.194-1.654.478-3.325.958-4.904 1.605a3.864 3.864 0 0 0-.282.135 1.097 1.097 0 0 0-.124.073c-.035-.001-.073.111-.036-.025-.001-.039-.043-.09-.063-.091.002 0 .046.023.014.006l.051.009.138.006c.102-.004.204-.011.309-.024.418-.048.843-.132 1.266-.213l2.538-.524c1.694-.349 3.396-.678 5.117-.897 1.711-.228 3.481-.323 5.199-.131a38.79 38.79 0 0 1 5.143.747c1.692.372 3.368.865 4.937 1.615 1.552.748 3.049 1.787 3.94 3.305l.003.006.001.007c.148.661.202 1.354.07 2.026-.142.666-.518 1.29-1.075 1.687-.549.406-1.207.631-1.87.754a7.772 7.772 0 0 1-2.02.095z"/><path fill="#FFECCB" d="M113.372 170.414s-2.609-1.264-2.187-3.324c.437-.996 1.345-.615 1.597-.268.253.354 1.266 1.398 1.056 2.578-.211 1.178-.466 1.014-.466 1.014zM113.305 163.783s-.011 2.07.932 2.074c.941.002.884-1.467.884-1.467s-.173-1.236-.697-1.154c-.525.084-1.119.547-1.119.547zM114.027 151.877s-.938 2.227 1.877 2.863c.539-1.344-.035-1.906-.035-1.906s-.771-1.043-1.842-.957zM105.64 139.633s-.386 1.596 3.692 1.404c.468-.578-3.692-1.404-3.692-1.404z"/></g></svg>