<svg xmlns="http://www.w3.org/2000/svg" width="250" height="250" viewBox="0 0 250 250"><path fill-rule="evenodd" clip-rule="evenodd" d="M125.5 247C57.845 247 3 192.154 3 124.5 3 56.845 57.845 2 125.5 2 193.154 2 248 56.845 248 124.5c0 67.654-54.846 122.5-122.5 122.5zM85.791 61.123c-6.714 0-12.157 5.538-12.157 12.368s5.443 12.367 12.157 12.367c6.715 0 12.158-5.536 12.158-12.367s-5.443-12.368-12.158-12.368zm20.049 35.38a4.198 4.198 0 0 0-.225-.238c-5.249-5.232-12.288-8.115-19.824-8.115-7.535 0-14.576 2.883-19.823 8.115a4.589 4.589 0 0 0-.225.238c-8.688 9.748-8.681 21.723-8.676 30.465 0 0 .249 6.297 5.534 6.297 5.284 0 4.601-6.236 4.601-6.236-.003-6.237 0-14.147 3.379-18.586v74.344c0 3.516 3.066 6.76 6.533 6.76 3.467 0 6.984-3.244 6.984-6.76v-37.172h3.379v37.172c0 3.516 3.524 6.76 6.991 6.76s6.526-3.244 6.526-6.76v-74.344c2.448 5.327 3.379 11.512 3.379 18.586 0 3.098 1.553 6.236 4.609 6.236s5.532-2.512 5.532-5.609c.002-8.53.002-21.418-8.674-31.153zm25.57 25.452c-3.554 0-6.437 2.915-6.437 6.51 0 3.594 2.883 6.51 6.437 6.51 3.555 0 6.438-2.916 6.438-6.51 0-3.595-2.883-6.51-6.438-6.51zm10.613 19.541a2.24 2.24 0 0 0-.117-.121c-2.778-2.703-6.506-4.191-10.496-4.191-3.989 0-7.717 1.488-10.496 4.191-.039.039-.079.078-.117.121-4.6 5.035-4.597 11.217-4.594 15.734 0 0 .147 3.252 2.93 3.252 2.798 0 2.138-3.039 2.138-3.039-.001-3.223-.099-7.846 1.69-10.139v38.861c0 1.816 2.02 3.381 3.855 3.381s2.902-1.564 2.902-3.381V167.58h3.38v18.586c0 1.816 1.07 3.381 2.905 3.381s3.854-1.564 3.854-3.381v-38.861c1.297 2.752 1.689 6.484 1.689 10.139 0 1.6.523 3.039 2.142 3.039 1.617 0 2.929-1.297 2.929-2.898 0-4.405 0-11.062-4.594-16.089zm29.939-65.164c-5.924 0-10.725 4.881-10.725 10.902s4.801 10.903 10.725 10.903c5.926 0 10.729-4.882 10.729-10.903s-4.803-10.902-10.729-10.902zm15.333 31.044a4.475 4.475 0 0 0-.172-.21c-4.013-4.622-9.397-7.167-15.161-7.167-5.762 0-11.146 2.545-15.159 7.167a3.907 3.907 0 0 0-.171.21c-6.644 8.608-6.639 19.184-6.634 26.907 0 0 .19 5.561 4.231 5.561s3.518-5.508 3.518-5.508c-.002-5.508 1.491-13.524 4.075-17.445l.169 6.758h-.169l-8.448 37.173h9.548l.591 23.654c0 3.104.728 5.07 3.379 5.07 2.65 0 3.379-1.967 3.379-5.07v-23.654h3.38v23.654c0 3.104.607 5.07 3.259 5.07s3.5-1.967 3.5-5.07l.59-23.654h9.547l-8.448-37.173h-.168l.168-6.758c1.873 4.704 4.075 11.197 4.075 17.445 0 2.734 1.187 5.508 3.523 5.508 2.338 0 4.23-2.219 4.23-4.955.001-7.534.001-18.916-6.632-27.513z" opacity=".15"/><path fill-rule="evenodd" clip-rule="evenodd" fill="#FFF" d="M125.5 245C57.845 245 3 190.154 3 122.5 3 54.845 57.845 0 125.5 0 193.154 0 248 54.845 248 122.5c0 67.654-54.846 122.5-122.5 122.5zM85.791 59.123c-6.714 0-12.157 5.538-12.157 12.368s5.443 12.367 12.157 12.367c6.715 0 12.158-5.536 12.158-12.367s-5.443-12.368-12.158-12.368zm20.049 35.38a4.198 4.198 0 0 0-.225-.238c-5.249-5.232-12.288-8.115-19.824-8.115-7.535 0-14.576 2.883-19.823 8.115a4.589 4.589 0 0 0-.225.238c-8.688 9.748-8.681 21.723-8.676 30.466 0 0 .249 6.296 5.534 6.296 5.284 0 4.601-6.237 4.601-6.237-.003-6.236 0-14.146 3.379-18.586v74.344c0 3.516 3.066 6.76 6.533 6.76 3.467 0 6.984-3.244 6.984-6.76v-37.172h3.379v37.172c0 3.516 3.524 6.76 6.991 6.76s6.526-3.244 6.526-6.76v-74.344c2.448 5.327 3.379 11.512 3.379 18.586 0 3.098 1.553 6.237 4.609 6.237s5.532-2.512 5.532-5.61c.002-8.529.002-21.417-8.674-31.152zm25.57 25.452c-3.554 0-6.437 2.915-6.437 6.51 0 3.594 2.883 6.51 6.437 6.51 3.555 0 6.438-2.916 6.438-6.51 0-3.595-2.883-6.51-6.438-6.51zm10.613 19.541a2.24 2.24 0 0 0-.117-.121c-2.778-2.703-6.506-4.191-10.496-4.191-3.989 0-7.717 1.488-10.496 4.191-.039.039-.079.078-.117.121-4.6 5.035-4.597 11.217-4.594 15.734 0 0 .147 3.252 2.93 3.252 2.798 0 2.138-3.039 2.138-3.039-.001-3.223-.099-7.846 1.69-10.139v38.861c0 1.816 2.02 3.381 3.855 3.381s2.902-1.564 2.902-3.381V165.58h3.38v18.586c0 1.816 1.07 3.381 2.905 3.381s3.854-1.564 3.854-3.381v-38.861c1.297 2.752 1.689 6.484 1.689 10.139 0 1.6.523 3.039 2.142 3.039 1.617 0 2.929-1.297 2.929-2.898 0-4.405 0-11.062-4.594-16.089zm29.939-65.164c-5.924 0-10.725 4.881-10.725 10.902s4.801 10.903 10.725 10.903c5.926 0 10.729-4.882 10.729-10.903s-4.803-10.902-10.729-10.902zm15.333 31.044a4.475 4.475 0 0 0-.172-.21C183.11 100.544 177.726 98 171.962 98c-5.762 0-11.146 2.545-15.159 7.167a3.907 3.907 0 0 0-.171.21c-6.644 8.608-6.639 19.184-6.634 26.907 0 0 .19 5.561 4.231 5.561s3.518-5.508 3.518-5.508c-.002-5.508 1.491-13.524 4.075-17.445l.169 6.758h-.169l-8.448 37.173h9.548l.591 23.654c0 3.104.728 5.07 3.379 5.07 2.65 0 3.379-1.967 3.379-5.07v-23.654h3.38v23.654c0 3.104.607 5.07 3.259 5.07s3.5-1.967 3.5-5.07l.59-23.655h9.547l-8.448-37.173h-.168l.168-6.758c1.873 4.704 4.075 11.197 4.075 17.445 0 2.734 1.187 5.508 3.523 5.508 2.338 0 4.23-2.219 4.23-4.955.001-7.534.001-18.916-6.632-27.513z"/></svg>