<svg xmlns="http://www.w3.org/2000/svg" width="250" height="250" viewBox="0 0 250 250"><path fill="#FDD5A6" d="M125.791 67.784s3.813 1.638 8.213 4.232h.02c3.867 2.289 8.186 5.309 10.76 8.572 5.447 6.951 15.582 19.249 16.332 21.762.768 2.556 4.945 25.98 6.852 30.921 1.898 4.929 4.801 10.137 4.939 12.529.125 2.41-1.156 14.444-1.275 19.897-.123 5.432-.629 24.558.383 28.609 1.018 4.054 17.225 41.662 26.592 52.692h-46.609s.648-2.798-.748-6.201c-1.4-3.431-10.137-19.518-12.285-20.771-2.168-1.279-14.566-12.666-13.554-34.596 1.013-21.901 8.226-30.395 8.226-35.579v-19.129s.264-3.042 1.518-6.202c.309-2.756-1.518-9.87-1.762-11.267-.262-1.398-3.809-5.573-4.943-10.376-1.133-4.821-1.133-6.849-1.133-6.849s-9.768-8.106-11.531-12.037c-2.655-2.269-3.161-4.297-3.161-4.297s-1.783-2.917-.771-5.714c1.014-2.775 2.919-5.31 8.612-3.403 2.146-5.063 5.325-2.793 5.325-2.793z"/><path fill="#E0A775" d="M135.184 124.106s1.725-3.537 3.656-5.48c1.93-1.941-.396-8.764-.396-8.764l-6.896-15.536-7.203-3.037 2.865 4.599s.527 10.802 6.123 17.161c-.222 5.924 1.851 11.057 1.851 11.057z"/><path fill="#F4BE89" d="M138.84 118.626s.086-5.467 0-6.248c-.092-.779-8.592-7.374-11.111-16.314-6.247-4.34-12.233-10.511-12.279-12.371 4.123 3.347 11.646 7.726 14.893 6.945l2.25 1.605 3.123 7.463 5.553 8.941.346 6.162v1.298c-.002 0-1.91 1.131-2.775 2.519z"/><path fill="#F4BE88" d="M134.023 72.017c3.867 2.289 8.186 5.309 10.76 8.572 5.447 6.951 15.582 19.249 16.332 21.762.768 2.556 4.945 25.98 6.852 30.921 1.898 4.929 4.801 10.137 4.939 12.529.125 2.41-1.156 14.444-1.275 19.897-.123 5.432-.629 24.558.383 28.609 1.018 4.054 17.225 41.662 26.592 52.692h-4.4s-10.314-19.801-15.076-24.643c-8.389-8.591-11.209-8.288-11.209-8.288s3.43-5.271 2.721-11.529c-.711-6.262-5.453-7.175-5.453-7.175s2.732-8.795 3.441-14.347c.711-5.571 1.197-22.961 1.098-25.798-.104-2.818-1.604-13.231-4.539-18.782-.203-8.613-2.332-15.687-2.332-15.687s-2.229-12.016-8.488-15.057c1.012-.911 2.129-3.243 2.129-3.243s-.611-1.113-1.42-1.113c.303-3.037 1.111-3.829 0-4.744 0 0-1.826-2.834-3.828-5.448-2.029-2.633-5.775-6.385-6.996-8.592-1.217-2.229-10.231-10.536-10.231-10.536z"/><path fill="#E0AB78" d="M140.158 116.892s.24-6.163.676-7.118c.434-.952-4.08-4.163-5.119-7.463-1.043-3.295-2.248-6.507-2.383-7.722-.137-1.217-2.678-3.02-3.533-4.851-.852-1.833 3.533 1.118 3.533 1.118l2.559 3.386 2.553 6.854 4.818 6.596 1.047 5.899.619 1.979s-3.268.019-4.77 1.322z"/><path fill="#F4BE88" d="M152.551 180.708a36.84 36.84 0 0 0-.625-7.236c-.373-1.99-.916-3.974-1.801-5.807-.607-1.933-.479-4.04-.094-6.003.434-2.249 1.4-4.195 2.154-6.318 1.039-2.961-4.867-1.49-6.406-2.742 1.992 0 3.986-.144 5.975-.297 1.686-.133 1.482-.552 1.744-2.294.217-1.447-1.826-.879-2.82-.83-1.125.059-3.52.561-4.492-.215 1.986-.729 6.611-.593 7.77-2.659.564-1.014.299-2.834.314-3.939.078-4.817-.01-9.639-.092-14.457-.035-2.095.373-4.642-.475-6.616-1.988-4.612-6.395-6.746-11.26-5.283.506-2.027 1.01-4.426.486-6.511-.145-.556-.729-1.01-1.076-1.451-3.17-4.067-5.502-8.825-7.156-13.688a56.817 56.817 0 0 1-.674-2.109 21.461 21.461 0 0 1-2.209-1.168 30.544 30.544 0 0 1-3.914-2.844 39.71 39.71 0 0 1-4.74-4.781c-2.436-2.927-4.014-6.409-3.262-10.313.338 2.683.716 5.238 2.48 7.271 2.587 2.986 5.517 5.926 8.913 7.979.83.501 1.697.946 2.621 1.235a6.44 6.44 0 0 0 1.418.286c.639.045.578 1.509.701 2.109.723 3.427 1.973 6.834 3.842 9.808.611.967 1.297 1.912 2.133 2.696.217.196 1.746 1.069 1.744 1.16-.045 1.969 1.982 2.318 3.545 2.026-.852 1.069-3.461 4.94-.834 5.512 2.639.579 5.023 1.321 6.781 3.538 3.016 3.795 3.336 9.658 3.68 14.296.293 3.875.33 7.782.123 11.665-.219 4.133-.906 8.277-1.379 12.392-.484 4.222-1.727 8.748-.643 12.926.385 1.459.842 3.718 2.141 4.673-1.875-.672-2.551-2.055-3.266-3.779-.119-.279-.584 2.133-.617 2.413-.351 3.105-.549 6.235-.73 9.355z"/><path fill="#FFECCB" d="M140.621 132.383c2.305 2.145 6.027 2.207 8.914 1.596a18.078 18.078 0 0 0 1.998-.539c.973-.318.779-.693.854-1.623.107-1.223.162-2.447.201-3.673.068-2.01.086-4.023.07-6.033-.008-.667-1.967-1.024-2.473-1.176-1.762-.533-7.926-2.099-8.605-.048-1.172 3.538-1.969 7.801-.959 11.496zM133.332 71.628s-.059 2.637-1.977 1.519c-1.916-1.118-7.674-4.962-7.965-5.321-.293-.359 4.731.488 9.942 3.802zM120.464 70.579s-5.333-1.427-6.161.007c.9 2.107 5.595 2.561 5.595 2.561l.566-2.568z"/><g><path fill="#FDD5A6" d="M124.341 67.784s-3.81 1.638-8.207 4.232h-.02c-3.872 2.289-8.188 5.309-10.76 8.572-5.453 6.951-15.583 19.249-16.335 21.762-.768 2.556-4.943 25.98-6.848 30.921-1.905 4.929-4.802 10.137-4.944 12.529-.121 2.41 1.156 14.444 1.278 19.897.121 5.432.628 24.558-.388 28.609C77.106 198.361 60.893 235.97 51.53 247h46.61s-.649-2.798.749-6.201c1.4-3.431 10.133-19.518 12.281-20.771 2.168-1.279 14.568-12.666 13.556-34.596-1.015-21.901-8.228-30.395-8.228-35.579v-19.129s-.263-3.042-1.521-6.202c-.303-2.756 1.521-9.87 1.764-11.267.262-1.398 3.809-5.573 4.942-10.376 1.137-4.821 1.137-6.849 1.137-6.849s9.769-8.106 11.528-12.037c2.656-2.269 3.162-4.297 3.162-4.297s1.785-2.917.773-5.714c-1.018-2.775-2.922-5.31-8.611-3.403-2.147-5.065-5.331-2.795-5.331-2.795z"/><path fill="#E0A775" d="M114.953 124.106s-1.727-3.537-3.656-5.48c-1.932-1.941.395-8.764.395-8.764l6.893-15.536 7.203-3.037-2.861 4.599s-.531 10.802-6.122 17.161c.217 5.924-1.852 11.057-1.852 11.057z"/><path fill="#F4BE89" d="M111.297 118.626s-.088-5.467 0-6.248c.085-.779 8.589-7.374 11.106-16.314 6.247-4.34 12.235-10.511 12.278-12.371-4.119 3.347-11.642 7.726-14.89 6.945l-2.247 1.605-3.124 7.463-5.556 8.941-.348 6.162v1.298c.002 0 1.911 1.131 2.781 2.519z"/><path fill="#F4BE88" d="M116.114 72.017c-3.872 2.289-8.188 5.309-10.76 8.572-5.453 6.951-15.583 19.249-16.335 21.762-.768 2.556-4.943 25.98-6.848 30.921-1.905 4.929-4.802 10.137-4.944 12.529-.121 2.41 1.156 14.444 1.278 19.897.121 5.432.628 24.558-.388 28.609C77.106 198.361 60.893 235.97 51.53 247h4.398s10.315-19.801 15.077-24.643c8.389-8.591 11.208-8.288 11.208-8.288s-3.426-5.271-2.717-11.529c.71-6.262 5.45-7.175 5.45-7.175s-2.732-8.795-3.442-14.347c-.709-5.571-1.195-22.961-1.097-25.798.102-2.818 1.604-13.231 4.539-18.782.204-8.613 2.332-15.687 2.332-15.687s2.23-12.016 8.492-15.057c-1.016-.911-2.129-3.243-2.129-3.243s.609-1.113 1.419-1.113c-.306-3.037-1.113-3.829 0-4.744 0 0 1.824-2.834 3.83-5.448 2.026-2.633 5.775-6.385 6.99-8.592 1.215-2.23 10.234-10.537 10.234-10.537z"/><path fill="#E0AB78" d="M109.975 116.892s-.239-6.163-.675-7.118c-.435-.952 4.08-4.163 5.121-7.463 1.039-3.295 2.244-6.507 2.382-7.722.135-1.217 2.679-3.02 3.531-4.851.854-1.833-3.531 1.118-3.531 1.118l-2.558 3.386-2.554 6.854-4.819 6.596-1.044 5.899-.621 1.979s3.27.019 4.768 1.322z"/><path fill="#F4BE88" d="M97.582 180.708a36.69 36.69 0 0 1 .628-7.236c.37-1.99.917-3.974 1.798-5.807.605-1.933.479-4.04.099-6.003-.439-2.249-1.406-4.195-2.154-6.318-1.042-2.961 4.863-1.49 6.405-2.742-1.994 0-3.991-.144-5.975-.297-1.686-.133-1.485-.552-1.747-2.294-.217-1.447 1.822-.879 2.821-.83 1.126.059 3.521.561 4.494-.215-1.988-.729-6.614-.593-7.772-2.659-.565-1.014-.298-2.834-.315-3.939-.076-4.817.011-9.639.09-14.457.039-2.095-.375-4.642.477-6.616 1.99-4.612 6.394-6.746 11.26-5.283-.506-2.027-1.009-4.426-.486-6.511.144-.556.728-1.01 1.071-1.451 3.174-4.067 5.504-8.825 7.164-13.688.239-.698.464-1.401.674-2.109a21.37 21.37 0 0 0 2.203-1.168c1.385-.834 2.686-1.802 3.916-2.844a39.8 39.8 0 0 0 4.742-4.781c2.432-2.927 4.014-6.409 3.262-10.313-.342 2.683-.717 5.238-2.477 7.271-2.59 2.986-5.521 5.926-8.917 7.979-.827.501-1.7.946-2.623 1.235-.46.144-.934.249-1.417.286-.636.045-.575 1.509-.7 2.109-.722 3.427-1.973 6.834-3.843 9.808-.607.967-1.294 1.912-2.134 2.696-.215.196-1.746 1.069-1.742 1.16.044 1.969-1.981 2.318-3.545 2.026.854 1.069 3.463 4.94.837 5.512-2.639.579-5.024 1.321-6.784 3.538-3.013 3.795-3.337 9.658-3.684 14.296a92.657 92.657 0 0 0-.121 11.665c.218 4.133.908 8.277 1.38 12.392.485 4.222 1.728 8.748.64 12.926-.381 1.459-.839 3.718-2.14 4.673 1.881-.672 2.556-2.055 3.271-3.779.117-.279.582 2.133.614 2.413.355 3.105.549 6.235.73 9.355z"/><path fill="#FFECCB" d="M109.513 132.383c-2.306 2.145-6.03 2.207-8.912 1.596a18.01 18.01 0 0 1-2.001-.539c-.973-.318-.779-.693-.858-1.623a70.404 70.404 0 0 1-.197-3.673c-.065-2.01-.083-4.023-.066-6.033.007-.667 1.964-1.024 2.47-1.176 1.76-.533 7.926-2.099 8.605-.048 1.169 3.538 1.967 7.801.959 11.496zM116.804 71.628s.061 2.637 1.977 1.519 7.67-4.962 7.963-5.321c.295-.359-4.731.488-9.94 3.802zM129.674 70.579s5.332-1.427 6.156.007c-.896 2.107-5.594 2.561-5.594 2.561l-.562-2.568z"/></g><g><linearGradient id="a" gradientUnits="userSpaceOnUse" x1="46" y1="30.94" x2="204.137" y2="30.94"><stop offset="0" stop-color="#fdf590"/><stop offset=".192" stop-color="#fcc93c"/><stop offset=".472" stop-color="#fff9c3"/><stop offset=".728" stop-color="#ffc432"/><stop offset=".9" stop-color="#ffc938"/><stop offset="1" stop-color="#f4d352"/></linearGradient><path fill="url(#a)" d="M125.066 59.88C79.991 59.88 46 47.438 46 30.939S79.991 2 125.066 2c45.078 0 79.07 12.44 79.07 28.939s-33.991 28.941-79.07 28.941zm0-50.647c-41.722 0-70.798 11.439-70.798 21.706s29.076 21.704 70.798 21.704c41.727 0 70.799-11.438 70.799-21.704S166.793 9.233 125.066 9.233z"/></g></svg>