<svg xmlns="http://www.w3.org/2000/svg" width="250" height="250" viewBox="0 0 250 250"><path fill-rule="evenodd" clip-rule="evenodd" d="M125.5 247C57.845 247 3 192.155 3 124.5 3 56.846 57.845 2 125.5 2 193.154 2 248 56.846 248 124.5c0 67.655-54.846 122.5-122.5 122.5zm.84-152.074c-48.163 0-84.483 13.075-84.483 30.414s36.32 30.414 84.483 30.414 84.482-13.075 84.482-30.414-36.319-30.414-84.482-30.414zm0 53.224c-44.58 0-75.648-12.022-75.648-22.811 0-10.79 31.068-22.811 75.648-22.811 44.581 0 75.648 12.021 75.648 22.811 0 10.789-31.067 22.811-75.648 22.811z" opacity=".15"/><path fill-rule="evenodd" clip-rule="evenodd" fill="#FFF" d="M125.5 245C57.845 245 3 190.155 3 122.5 3 54.846 57.845 0 125.5 0 193.154 0 248 54.846 248 122.5c0 67.655-54.846 122.5-122.5 122.5zm.84-152.074c-48.163 0-84.483 13.075-84.483 30.414s36.32 30.414 84.483 30.414 84.482-13.075 84.482-30.414-36.319-30.414-84.482-30.414zm0 53.224c-44.58 0-75.648-12.022-75.648-22.811 0-10.79 31.068-22.811 75.648-22.811 44.581 0 75.648 12.021 75.648 22.811 0 10.789-31.067 22.811-75.648 22.811z"/></svg>