<svg xmlns="http://www.w3.org/2000/svg" width="250" height="250" viewBox="0 0 250 250"><path fill-rule="evenodd" clip-rule="evenodd" d="M125.5 247C57.845 247 3 192.154 3 124.5 3 56.845 57.845 2 125.5 2 193.154 2 248 56.845 248 124.5c0 67.654-54.846 122.5-122.5 122.5zm63.289-138.113c-.096-.324-.288-.986-.3-.986-3.678-11.666-12.511-23.174-24.447-27.118-11.846-3.916-22.815 2.202-34.149 4.46-1.799-9.68-4.89-19.041-4.89-19.041l-3.438 1.849-.372 2.256-.003.001h-.009l-.002.011c-.037.048-.59.759-.975 1.629-.222.427-.389.933-.367 1.47 0 .109-.017.541.21.549a.35.35 0 0 0 .024.021c3.769 3.782 5.671 7.794 6.588 11.312-8.38-1.649-15.811-6.372-24.379-7.696-8.57-1.324-16.564.428-23.509 5.608-14.651 10.932-21.261 30.594-17.102 48.26v.024c4.89 20.372 20.567 39.233 39.06 48.779 7.951 4.105 16.686 5.549 25.352 2.723 3.882-1.265 7.498-5.728 11.627-3.98 5.851 2.477 12.649 4.833 18.754 1.751 6.993-3.529 12.653-10.123 17.31-16.255 11.779-15.507 20.672-36.002 15.017-55.627z" opacity=".15"/><path fill-rule="evenodd" clip-rule="evenodd" fill="#FFF" d="M125.5 245C57.845 245 3 190.154 3 122.5 3 54.845 57.845 0 125.5 0 193.154 0 248 54.845 248 122.5c0 67.654-54.846 122.5-122.5 122.5zm63.289-138.113c-.096-.324-.288-.986-.3-.986-3.678-11.666-12.511-23.174-24.447-27.118-11.846-3.916-22.815 2.202-34.149 4.46-1.799-9.68-4.89-19.041-4.89-19.041l-3.438 1.849-.372 2.256-.003.001h-.009l-.002.011c-.037.048-.59.759-.975 1.629-.222.427-.389.933-.367 1.47 0 .109-.017.541.21.549a.35.35 0 0 0 .024.021c3.769 3.782 5.671 7.794 6.588 11.312-8.38-1.649-15.811-6.372-24.379-7.696-8.57-1.324-16.564.428-23.509 5.608-14.651 10.932-21.261 30.594-17.102 48.26v.024c4.89 20.372 20.567 39.233 39.06 48.779 7.951 4.105 16.686 5.549 25.352 2.723 3.882-1.265 7.498-5.728 11.627-3.98 5.851 2.477 12.649 4.833 18.754 1.751 6.993-3.529 12.653-10.123 17.31-16.255 11.779-15.507 20.672-36.002 15.017-55.627z"/></svg>