<svg xmlns="http://www.w3.org/2000/svg" xmlns:xlink="http://www.w3.org/1999/xlink" width="250" height="250" viewBox="0 0 250 250"><filter id="b"><feGaussianBlur stdDeviation="4"/></filter><linearGradient id="a" gradientUnits="userSpaceOnUse" x1="128.879" y1="150.115" x2="128.879" y2="33.253"><stop offset="0" stop-color="#69aa19"/><stop offset=".215" stop-color="#6eae18"/><stop offset=".483" stop-color="#7eba13"/><stop offset=".778" stop-color="#97ce0c"/><stop offset="1" stop-color="#afe006"/></linearGradient><path fill="url(#a)" d="M199.658 86.384a53.35 53.35 0 0 1-.429 3.462 71.122 71.122 0 0 1-.302 1.792c-5.109 27.086-29.605 54.706-40.472 55.833-11.54 1.202-16.832-5.062-19.668-3.885-2.851 1.175-7.021 6.886-22.185 6.512-6.916-.187-17.058-4.695-27.019-12.579a69.452 69.452 0 0 1-1.595-1.291c-9.697-8.028-19.031-19.19-24.862-32.575-.223-.484-.418-.968-.626-1.45a75.529 75.529 0 0 1-1.975-5.359 56.841 56.841 0 0 1-1.242-4.407v-.025C52.276 62.7 73.01 37.588 90.315 33.955c18.169-3.83 35.987 9.334 42.313 8.327 8.534-1.36 17.058-7.07 32.55-6.195 8.011.444 17.645 6.223 24.732 15.66 2.459 3.273 4.585 7.021 6.242 11.123.335.813.666 1.654.982 2.549.157.444.314.875.459 1.332.014 0 .014.015.014.025.103.354.209.694.313 1.048 1.637 5.657 2.339 11.893 1.738 18.56z"/><path fill="#FFF" d="M167.116 49.723c1.545-11.584-5.591-13.863-16.829-9.239-11.235 4.635-16.769 7.171-27.607.706-10.85-6.475-22.312.23-25.428 9.338-3.119 9.11 4.529 27.204 32.325 22.947 27.795-4.247 36.746-17.797 37.539-23.752z" opacity=".4" filter="url(#b)"/><linearGradient id="c" gradientUnits="userSpaceOnUse" x1="128.981" y1="147.166" x2="128.981" y2="35.932"><stop offset="0" stop-color="#71b71b"/><stop offset=".211" stop-color="#76bb19"/><stop offset=".475" stop-color="#86c715"/><stop offset=".765" stop-color="#9fda0e"/><stop offset="1" stop-color="#b9ed06"/></linearGradient><path fill="url(#c)" d="M132.552 44.525c-6.021.959-22.987-11.569-40.271-7.929-17.288 3.636-38.168 29.76-28.362 59.863 9.812 30.094 38.958 50.332 53.381 50.688 14.433.361 18.397-5.075 21.105-6.199 2.708-1.116 7.748 4.85 18.737 3.696 11.006-1.145 36.735-30.874 39.209-58.136 2.468-27.266-18.069-47.054-32.815-47.888-14.748-.827-22.861 4.614-30.984 5.905z"/><defs><path id="d" d="M165.621 38.854a19.543 19.543 0 0 0-2.076-.234c-9.764-.55-16.614 1.647-22.484 3.57-3.008.991-5.752 1.908-8.512 2.337-6.022.954-22.979-11.567-40.271-7.935-.445.095-.889.198-1.333.33-17.006 4.652-36.587 30.206-27.019 59.54 5.4 16.561 16.642 30.128 28.078 39.046 9.347 7.291 18.797 11.477 25.293 11.645 14.434.356 18.404-5.086 21.108-6.21 2.71-1.109 7.753 4.855 18.738 3.702 11.006-1.139 36.738-30.877 39.211-58.132 2.351-26.011-16.208-45.213-30.733-47.659"/></defs><clipPath id="e"><use xlink:href="#d" overflow="visible"/></clipPath><g opacity=".2" clip-path="url(#e)" filter="url(#b)"><path d="M196.354 86.514c-2.473 27.255-28.205 56.993-39.211 58.132-10.985 1.153-16.028-4.812-18.738-3.702-2.704 1.124-6.675 6.566-21.108 6.21-6.496-.168-15.946-4.354-25.293-11.645 30.34 14.037 55.814 3.593 80.741-22.916 17.662-18.771 18.654-40.222 11.479-55.331-6.459-13.583-21.242-17.935-19.763-18.221.391-.079.771-.134 1.161-.187 14.524 2.446 33.083 21.648 30.732 47.66z"/></g><path fill="none" d="M165.621 38.854a19.543 19.543 0 0 0-2.076-.234c-9.764-.55-16.614 1.647-22.484 3.57-3.008.991-5.752 1.908-8.512 2.337-6.022.954-22.979-11.567-40.271-7.935-.445.095-.889.198-1.333.33-17.006 4.652-36.587 30.206-27.019 59.54 5.4 16.561 16.642 30.128 28.078 39.046 9.347 7.291 18.797 11.477 25.293 11.645 14.434.356 18.404-5.086 21.108-6.21 2.71-1.109 7.753 4.855 18.738 3.702 11.006-1.139 36.738-30.877 39.211-58.132 2.351-26.011-16.208-45.213-30.733-47.659" filter="url(#b)"/><path fill="#FFF" d="M119.432 137.706c-8.276 1.675-24.149-.283-40.106-24.79-15.959-24.495-9.408-45.678-4.875-53.113 4.528-7.432 11.994-16.408 25.675-14.625 13.671 1.777 18.176 14.504 33.285 17.911 15.107 3.414 27.055-6.064 31.683-9.528 4.624-3.474 17.032 3.557 15.977 26.456-1.435 30.985-37.817 52.868-61.639 57.689z" opacity=".2" filter="url(#b)"/><path fill="#FFF" d="M171.056 75.015c.654 8.812-11.914 40.232-34.892 45.266-22.982 5.011-46.117-4.825-53.05-20.493C76.193 84.141 77.042 62 91.995 57.324c14.952-4.682 27.482 1.326 32.35 4.235 26.06 15.587 44.801-12.243 46.711 13.456z" opacity=".2" filter="url(#b)"/><path fill="#FFF" d="M159.073 79.518c3.441-9.565-2.209-12.816-12.615-10.953-10.404 1.874-15.58 3.014-23.608-4.48-8.036-7.501-19.016-3.909-23.344 3.264-4.326 7.173-1.154 23.971 23.271 25.466 24.415 1.498 34.523-8.377 36.296-13.297z" opacity=".4" filter="url(#b)"/><path fill="#FFF" d="M151.924 70.72c2.551-7.086-1.634-9.494-9.34-8.112-7.709 1.387-11.543 2.229-17.488-3.319-5.953-5.557-14.087-2.896-17.29 2.418-3.207 5.313-.857 17.752 17.233 18.862 18.088 1.11 25.571-6.206 26.885-9.849z" opacity=".4" filter="url(#b)"/><path fill="#FFF" d="M143.259 67.488c1.51-4.202-.97-5.629-5.539-4.811-4.574.823-6.847 1.322-10.372-1.966-3.529-3.297-8.353-1.718-10.253 1.434-1.899 3.149-.508 10.527 10.219 11.183 10.724.66 15.164-3.681 15.945-5.84z" opacity=".4" filter="url(#b)"/><path opacity=".1" d="M159.162 39.957c-6.298-3.567-14.506.436-20.723 2.449-9.531 3.084-16.987-2.073-25.511-5.604-4.883-2.014-10.506-2.449-15.724-2.125-3.17.206-10.162-.312-11.31 3.687-.089.305.177.56.492.459 11.054-3.766 22.445-.315 32.331 5.028 5.937 3.205 11.906 5.064 18.62 3.554 3.122-.709 6.085-1.993 9.103-3.008 4.074-1.377 8.019-1.104 12.126-1.915 1.083-.22 1.735-1.878.596-2.525z"/><path opacity=".5" fill="#FFF" d="M119.204 41.222c-1.648-2.601-5.778-3.682-8.65-4.275-3.271-.665-6.959-1.699-10.217-.587-.359.125-.361.751.021.847 3.248.813 6.456.788 9.655 2.06 2.684 1.07 5.589 3.294 8.508 3.223.716-.014 1.065-.665.683-1.268z"/><path opacity=".15" d="M134.529 58.313c-2.999.246-6.185-1.217-10.155-3.796-3.972-2.575-5.145-4.359-5.061-5.424.077-1.045 4.751-.026 7.488 1.481 2.739 1.513 6.392 3.329 11.847 1.562 5.452-1.734 12.435-5.685 12.997-3.608.559 2.086-12.57 9.408-17.116 9.785z"/><path opacity=".2" d="M112.174 44.931s7.379 1.785 11.15 6.504c3.761 4.724 11.858 7.799 17.684 3.49 5.817-4.32 11.23-8.724 14.215-8.413 0 0-7.654 6.635-12.684 11.106-5.018 4.462-13.938 2.051-20.229-3.831-6.298-5.887-7.153-8.535-10.136-8.856z"/><path d="M141.506 53.291c.476.675-2.754 3.348-7.577 3.336-4.824.012-8.052-2.661-7.577-3.336.425-.741 3.686.347 7.577.298 3.888.05 7.151-1.039 7.577-.298z" opacity=".3"/><g opacity=".6"><path fill="#FFF" d="M122.063 96.487c0 1.158-.219 2.097-.484 2.097-.271 0-.485-.938-.485-2.097s.214-2.098.485-2.098c.266.001.484.94.484 2.098z" opacity=".265"/><path fill="#FFF" d="M124.185 98.704c0 1.171-.22 2.121-.491 2.121-.27 0-.49-.95-.49-2.121 0-1.168.22-2.118.49-2.118.271 0 .491.95.491 2.118z" opacity=".322"/><ellipse fill="#FFF" cx="122.697" cy="102.17" rx=".5" ry="2.161" opacity=".458"/><ellipse fill="#FFF" cx="102.687" cy="59.882" rx=".6" ry="2.587" opacity=".344"/><path fill="#FFF" d="M91.793 67.348c0 1.761-.332 3.189-.736 3.189-.41 0-.74-1.429-.74-3.189s.33-3.186.74-3.186c.404 0 .736 1.426.736 3.186z" opacity=".571"/><ellipse fill="#FFF" cx="87.268" cy="90.61" rx=".58" ry="2.505" opacity=".383"/><ellipse fill="#FFF" cx="89.691" cy="104.512" rx=".554" ry="2.396" opacity=".447"/><ellipse fill="#FFF" cx="127.174" cy="111.036" rx=".53" ry="2.292" opacity=".306"/><ellipse fill="#FFF" cx="110.19" cy="125.101" rx=".59" ry="2.548" opacity=".376"/><ellipse fill="#FFF" cx="104.569" cy="110.299" rx=".5" ry="2.156" opacity=".775"/><ellipse fill="#FFF" cx="97.272" cy="78.671" rx=".534" ry="2.312" opacity=".332"/><path fill="#FFF" d="M92.424 92.336c0 1.343-.251 2.432-.565 2.432-.309 0-.56-1.089-.56-2.432s.251-2.431.56-2.431c.313 0 .565 1.088.565 2.431z" opacity=".608"/><ellipse fill="#FFF" cx="96.053" cy="88.169" rx=".593" ry="2.57" opacity=".589"/><ellipse fill="#FFF" cx="86.371" cy="72.741" rx=".704" ry="3.047" opacity=".429"/><ellipse fill="#FFF" cx="77.836" cy="43.815" rx=".625" ry="2.701" opacity=".053"/><ellipse fill="#FFF" cx="81.348" cy="40.075" rx=".598" ry="2.581" opacity=".033"/><ellipse fill="#FFF" cx="85.684" cy="36.346" rx=".521" ry="2.254" opacity=".035"/><ellipse fill="#FFF" cx="88.004" cy="35.786" rx=".498" ry="2.156" opacity=".028"/><ellipse fill="#FFF" cx="58.397" cy="76.492" rx=".197" ry=".854" opacity=".088"/><ellipse fill="#FFF" cx="59.478" cy="74.343" rx=".24" ry="1.032" opacity=".067"/><path fill="#FFF" d="M60.787 89.223c0 .751-.141 1.359-.315 1.359-.177 0-.318-.608-.318-1.359 0-.753.141-1.364.318-1.364.174-.001.315.611.315 1.364z" opacity=".285"/><ellipse fill="#FFF" cx="64.76" cy="71.127" rx=".479" ry="2.076" opacity=".131"/><path fill="#FFF" d="M68.45 107.873c0 .584-.108 1.055-.242 1.055-.138 0-.245-.471-.245-1.055 0-.582.107-1.053.245-1.053.134 0 .242.471.242 1.053z" opacity=".162"/><path fill="#FFF" d="M68.243 104.791c0 .664-.125 1.197-.277 1.197-.156 0-.279-.533-.279-1.197 0-.662.123-1.198.279-1.198.151 0 .277.536.277 1.198z" opacity=".319"/><ellipse fill="#FFF" cx="65.101" cy="67.342" rx=".54" ry="2.336" opacity=".104"/><ellipse fill="#FFF" cx="67.016" cy="76.354" rx=".545" ry="2.358" opacity=".404"/><ellipse fill="#FFF" cx="69.414" cy="102.296" rx=".34" ry="1.469" opacity=".61"/><ellipse fill="#FFF" cx="72.917" cy="96.059" rx=".543" ry="2.351" opacity=".674"/><ellipse fill="#FFF" cx="73.678" cy="81.775" rx=".672" ry="2.906" opacity=".363"/><path fill="#FFF" d="M75.51 98.77c0 1.285-.241 2.327-.539 2.327-.298 0-.54-1.042-.54-2.327 0-1.288.241-2.33.54-2.33.298-.001.539 1.041.539 2.33z" opacity=".62"/><ellipse fill="#FFF" cx="74.213" cy="59.021" rx=".491" ry="2.121" opacity=".324"/><ellipse fill="#FFF" cx="76.029" cy="49.06" rx=".575" ry="2.481" opacity=".143"/><ellipse fill="#FFF" cx="89.517" cy="51.296" rx=".645" ry="2.785" opacity=".35"/><ellipse fill="#FFF" cx="94.344" cy="46.205" rx=".654" ry="2.826" opacity=".147"/><path fill="#FFF" d="M110.584 38.177c0 1.108-.207 2.007-.464 2.007s-.466-.898-.466-2.007c0-1.111.209-2.007.466-2.007.258 0 .464.895.464 2.007z" opacity=".063"/><path fill="#FFF" d="M118.752 51.576c0 1.818-.343 3.291-.76 3.291-.422 0-.765-1.473-.765-3.291s.343-3.289.765-3.289c.417 0 .76 1.471.76 3.289z" opacity=".067"/><path fill="#FFF" d="M131.881 46.662c0 1.88-.351 3.404-.786 3.404s-.786-1.524-.786-3.404c0-1.877.351-3.397.786-3.397s.786 1.52.786 3.397z" opacity=".004"/><ellipse fill="#FFF" cx="143.198" cy="53.88" rx=".665" ry="2.877" opacity=".041"/><path fill="#FFF" d="M169.238 41.72c0 1.009-.189 1.827-.419 1.827-.237 0-.428-.818-.428-1.827 0-1.011.19-1.83.428-1.83.23 0 .419.819.419 1.83z" opacity=".029"/><ellipse fill="#FFF" cx="145.05" cy="46.701" rx=".718" ry="3.106" opacity=".02"/><path fill="#FFF" d="M127.112 69.74c0 1.635-.309 2.958-.685 2.958-.378 0-.683-1.323-.683-2.958 0-1.631.305-2.956.683-2.956.377 0 .685 1.325.685 2.956z" opacity=".239"/><ellipse fill="#FFF" cx="127.755" cy="85.655" rx=".454" ry="1.956" opacity=".61"/><ellipse fill="#FFF" cx="143.273" cy="89.699" rx=".452" ry="1.952" opacity=".317"/><path fill="#FFF" d="M143.755 87.036c0 1.053-.196 1.908-.438 1.908-.246 0-.442-.855-.442-1.908s.196-1.904.442-1.904c.242 0 .438.851.438 1.904z" opacity=".211"/><path fill="#FFF" d="M121.165 74.33c0 1.79-.334 3.24-.748 3.24-.415 0-.75-1.45-.75-3.24 0-1.793.335-3.245.75-3.245.414 0 .748 1.452.748 3.245z" opacity=".28"/><path fill="#FFF" d="M142.396 73.035c0 1.403-.261 2.543-.587 2.543-.325 0-.589-1.14-.589-2.543 0-1.407.264-2.548.589-2.548.326 0 .587 1.141.587 2.548z" opacity=".301"/><ellipse fill="#FFF" cx="161.844" cy="62.979" rx=".645" ry="2.79" opacity=".627"/><ellipse fill="#FFF" cx="163.153" cy="83.351" rx=".42" ry="1.817" opacity=".852"/><ellipse fill="#FFF" cx="180.787" cy="75.948" rx=".586" ry="2.536" opacity=".496"/><path fill="#FFF" d="M187.063 63.825c0 1.696-.318 3.072-.71 3.072-.396 0-.712-1.376-.712-3.072 0-1.699.316-3.076.712-3.076.392 0 .71 1.377.71 3.076z" opacity=".32"/><path fill="#FFF" d="M183.496 82.588c0 1.414-.265 2.562-.594 2.562-.323 0-.591-1.147-.591-2.562 0-1.413.268-2.561.591-2.561.329 0 .594 1.148.594 2.561z" opacity=".371"/><path fill="#FFF" d="M167.713 47.911c0 .807-.154 1.463-.336 1.463-.186 0-.342-.656-.342-1.463 0-.81.156-1.466.342-1.466.182 0 .336.657.336 1.466z" opacity=".042"/><path fill="#FFF" d="M159.321 38.801c0 1.457-.273 2.637-.615 2.637-.333 0-.606-1.18-.606-2.637 0-1.459.273-2.642.606-2.642.342 0 .615 1.183.615 2.642z" opacity=".055"/><ellipse fill="#FFF" cx="192.114" cy="66.6" rx=".645" ry="2.779" opacity=".388"/><ellipse fill="#FFF" cx="196.184" cy="79.866" rx=".474" ry="2.043" opacity=".216"/><path fill="#FFF" d="M179.233 105.242c0 1.669-.314 3.021-.701 3.021-.382 0-.699-1.353-.699-3.021 0-1.666.317-3.017.699-3.017.387.001.701 1.351.701 3.017z" opacity=".344"/><path fill="#FFF" d="M164.79 113.581c0 1.624-.31 2.942-.683 2.942-.38 0-.682-1.318-.682-2.942 0-1.626.302-2.942.682-2.942.373 0 .683 1.316.683 2.942z" opacity=".572"/><ellipse fill="#FFF" cx="165.461" cy="134.866" rx=".375" ry="1.615" opacity=".281"/><path fill="#FFF" d="M164.15 142.284c0 .85-.161 1.541-.356 1.541-.196 0-.358-.691-.358-1.541 0-.855.162-1.546.358-1.546.195 0 .356.691.356 1.546z" opacity=".274"/><ellipse fill="#FFF" cx="156.037" cy="136.144" rx=".442" ry="1.909" opacity=".117"/><ellipse fill="#FFF" cx="153.66" cy="103.36" rx=".617" ry="2.667" opacity=".39"/><path fill="#FFF" d="M146.711 111.438c0 1.96-.37 3.547-.819 3.547-.454 0-.823-1.587-.823-3.547 0-1.962.369-3.55.823-3.55.449 0 .819 1.588.819 3.55z" opacity=".367"/><path fill="#FFF" d="M141.144 124.687c0 1.68-.313 3.036-.707 3.036-.384 0-.7-1.356-.7-3.036 0-1.679.316-3.037.7-3.037.393-.001.707 1.358.707 3.037z" opacity=".157"/><path fill="#FFF" d="M184.002 99.336c0 1.649-.304 2.987-.689 2.987-.38 0-.692-1.338-.692-2.987s.313-2.986.692-2.986c.385 0 .689 1.337.689 2.986z" opacity=".163"/><path fill="#FFF" d="M188.968 93.742c0 1.266-.238 2.295-.529 2.295-.298 0-.534-1.029-.534-2.295 0-1.269.236-2.295.534-2.295.29 0 .529 1.027.529 2.295z" opacity=".076"/><ellipse fill="#FFF" cx="192.46" cy="97.359" rx=".355" ry="1.536" opacity=".035"/><ellipse fill="#FFF" cx="198.65" cy="90.422" rx=".404" ry="1.753" opacity=".095"/><ellipse fill="#FFF" cx="182.436" cy="115.643" rx=".485" ry="2.093" opacity=".372"/><path fill="#FFF" d="M174.918 130.206c0 1.006-.189 1.821-.425 1.821-.231 0-.417-.815-.417-1.821 0-1.005.186-1.821.417-1.821.236 0 .425.816.425 1.821z" opacity=".429"/><path fill="#FFF" d="M160.576 135.847c0 1.024-.194 1.858-.43 1.858-.238 0-.429-.834-.429-1.858 0-1.023.19-1.857.429-1.857.236-.001.43.833.43 1.857z" opacity=".211"/><ellipse fill="#FFF" cx="134.368" cy="136.771" rx=".451" ry="1.954" opacity=".287"/><ellipse fill="#FFF" cx="129.113" cy="134.765" rx=".535" ry="2.308" opacity=".429"/><ellipse fill="#FFF" cx="112.714" cy="134.566" rx=".599" ry="2.59" opacity=".068"/><ellipse fill="#FFF" cx="104.889" cy="141.215" rx=".404" ry="1.742" opacity=".121"/><path fill="#FFF" d="M89.934 126.389c0 1.106-.208 2.004-.463 2.004-.259 0-.466-.897-.466-2.004 0-1.111.207-2.009.466-2.009.254 0 .463.897.463 2.009z" opacity=".495"/><ellipse fill="#FFF" cx="83.382" cy="120.845" rx=".412" ry="1.774" opacity=".46"/><path fill="#FFF" d="M92.146 134.644c0 .827-.154 1.491-.345 1.491-.192 0-.346-.664-.346-1.491 0-.823.154-1.493.346-1.493.19-.001.345.669.345 1.493z" opacity=".302"/><ellipse fill="#FFF" cx="109.132" cy="140.845" rx=".434" ry="1.882" opacity=".041"/><path fill="#FFF" d="M121.083 140.355c0 1.058-.201 1.919-.445 1.919-.247 0-.445-.861-.445-1.919 0-1.057.199-1.919.445-1.919.245.001.445.863.445 1.919z" opacity=".138"/><ellipse fill="#FFF" cx="117.594" cy="109.706" rx=".497" ry="2.151" opacity=".526"/><path fill="#FFF" d="M114.33 105.83c0 1.16-.218 2.099-.485 2.099-.269 0-.486-.938-.486-2.099 0-1.162.218-2.103.486-2.103.267.001.485.941.485 2.103z" opacity=".681"/><ellipse fill="#FFF" cx="116.265" cy="122.06" rx=".567" ry="2.447" opacity=".562"/><path fill="#FFF" d="M139.075 110.545c0 1.766-.33 3.193-.739 3.193-.411 0-.737-1.428-.737-3.193 0-1.762.326-3.191.737-3.191.409 0 .739 1.429.739 3.191z" opacity=".419"/><path fill="#FFF" d="M150.889 92.757c0 1.158-.212 2.097-.484 2.097-.27 0-.484-.938-.484-2.097 0-1.157.215-2.096.484-2.096.272 0 .484.939.484 2.096z" opacity=".378"/><path fill="#FFF" d="M152.883 116.363c0 1.743-.325 3.153-.727 3.153-.405 0-.729-1.41-.729-3.153 0-1.741.324-3.152.729-3.152.402 0 .727 1.411.727 3.152z" opacity=".256"/><ellipse fill="#FFF" cx="152.654" cy="120.799" rx=".693" ry="2.989" opacity=".176"/><ellipse fill="#FFF" cx="124.03" cy="91.547" rx=".461" ry="1.992" opacity=".267"/><path fill="#FFF" d="M112.627 75.429c0 1.245-.234 2.258-.52 2.258-.29 0-.526-1.013-.526-2.258 0-1.249.237-2.259.526-2.259.287 0 .52 1.01.52 2.259z" opacity=".137"/><ellipse fill="#FFF" cx="108.561" cy="89.722" rx=".607" ry="2.625" opacity=".359"/><path fill="#FFF" d="M106.473 65.445c0 1.074-.2 1.947-.447 1.947-.251 0-.453-.873-.453-1.947s.202-1.945.453-1.945c.246 0 .447.871.447 1.945z" opacity=".424"/><path fill="#FFF" d="M119.547 79.993c0 1.791-.336 3.24-.75 3.24-.416 0-.75-1.449-.75-3.24 0-1.793.335-3.242.75-3.242.414 0 .75 1.449.75 3.242z" opacity=".449"/><ellipse fill="#FFF" cx="147.977" cy="78.89" rx=".514" ry="2.211" opacity=".07"/><ellipse fill="#FFF" cx="158.935" cy="74.855" rx=".451" ry="1.948" opacity=".916"/><ellipse fill="#FFF" cx="162.221" cy="74.712" rx=".454" ry="1.959" opacity=".989"/><ellipse fill="#FFF" cx="164.014" cy="70.857" rx=".559" ry="2.414" opacity=".708"/><path fill="#FFF" d="M173.993 95.964c0 1.875-.346 3.392-.783 3.392-.433 0-.785-1.517-.785-3.392 0-1.871.353-3.388.785-3.388.437 0 .783 1.517.783 3.388z" opacity=".488"/><path fill="#FFF" d="M159.612 125.661c0 1.589-.3 2.879-.672 2.879-.361 0-.663-1.29-.663-2.879s.302-2.878.663-2.878c.373 0 .672 1.289.672 2.878z" opacity=".167"/><ellipse fill="#FFF" cx="147.538" cy="129.026" rx=".688" ry="2.978" opacity=".031"/><path fill="#FFF" d="M129.321 114.64c0 1.319-.245 2.386-.551 2.386-.308 0-.553-1.066-.553-2.386 0-1.318.245-2.386.553-2.386.306 0 .551 1.067.551 2.386z" opacity=".346"/><ellipse fill="#FFF" cx="107.598" cy="116.566" rx=".531" ry="2.296" opacity=".701"/><ellipse fill="#FFF" cx="97.465" cy="110.649" rx=".531" ry="2.296" opacity=".627"/><ellipse fill="#FFF" cx="91.435" cy="74.151" rx=".688" ry="2.975" opacity=".401"/><ellipse fill="#FFF" cx="107.777" cy="68.588" rx=".39" ry="1.685" opacity=".293"/><path fill="#FFF" d="M121.977 62.95c0 1.649-.311 2.985-.693 2.985-.379 0-.691-1.336-.691-2.985 0-1.647.312-2.985.691-2.985.382 0 .693 1.338.693 2.985z" opacity=".162"/><ellipse fill="#FFF" cx="110.763" cy="62.549" rx=".549" ry="2.376" opacity=".528"/><ellipse fill="#FFF" cx="123.603" cy="53.468" rx=".749" ry="3.232" opacity=".015"/><ellipse fill="#FFF" cx="143.814" cy="63.835" rx=".665" ry="2.87" opacity=".62"/><path fill="#FFF" d="M149.896 52.749c0 1.499-.281 2.713-.623 2.713-.351 0-.631-1.214-.631-2.713 0-1.497.28-2.711.631-2.711.341 0 .623 1.214.623 2.711z" opacity=".108"/><path fill="#FFF" d="M127.386 77.105c0 1.563-.292 2.827-.651 2.827-.363 0-.656-1.265-.656-2.827 0-1.559.293-2.828.656-2.828.359 0 .651 1.27.651 2.828z" opacity=".648"/><path fill="#FFF" d="M156.218 78.846c0 1.103-.21 1.994-.467 1.994-.252 0-.461-.892-.461-1.994s.209-1.994.461-1.994c.257 0 .467.891.467 1.994z" opacity=".343"/><ellipse fill="#FFF" cx="135.171" cy="113.81" rx=".67" ry="2.902" opacity=".501"/><ellipse fill="#FFF" cx="134.085" cy="121.314" rx=".639" ry="2.758" opacity=".583"/><ellipse fill="#FFF" cx="125.122" cy="142.731" rx=".359" ry="1.547" opacity=".307"/><ellipse fill="#FFF" cx="130.51" cy="145.572" rx=".303" ry="1.31" opacity=".548"/><path fill="#FFF" d="M152.655 145.881c0 .476-.09.857-.2.857-.104 0-.196-.382-.196-.857 0-.472.092-.851.196-.851.11 0 .2.379.2.851z" opacity=".437"/><path fill="#FFF" d="M150.796 145.92c0 .417-.074.754-.172.754-.097 0-.176-.337-.176-.754 0-.411.079-.75.176-.75.098 0 .172.339.172.75z" opacity=".479"/><ellipse fill="#FFF" cx="135.009" cy="141.007" rx=".312" ry="1.343" opacity=".36"/><ellipse fill="#FFF" cx="83.383" cy="115.771" rx=".528" ry="2.279" opacity=".526"/><ellipse fill="#FFF" cx="91.659" cy="116.733" rx=".59" ry="2.552" opacity=".597"/><ellipse fill="#FFF" cx="105.39" cy="112.83" rx=".509" ry="2.2" opacity=".761"/><ellipse fill="#FFF" cx="98.653" cy="115.748" rx=".557" ry="2.402" opacity=".581"/><path fill="#FFF" d="M162.452 95.483c0 1.257-.235 2.273-.521 2.273-.29 0-.527-1.017-.527-2.273 0-1.255.237-2.273.527-2.273.286 0 .521 1.019.521 2.273z" opacity=".528"/><ellipse fill="#FFF" cx="162.264" cy="100.098" rx=".645" ry="2.782" opacity=".497"/><path fill="#FFF" d="M178.464 85.142c0 1.461-.272 2.646-.617 2.646-.334 0-.606-1.185-.606-2.646 0-1.459.272-2.643.606-2.643.344 0 .617 1.184.617 2.643z" opacity=".471"/><path fill="#FFF" d="M169.22 100c0 1.809-.338 3.277-.753 3.277-.425 0-.761-1.469-.761-3.277s.336-3.273.761-3.273c.415 0 .753 1.465.753 3.273z" opacity=".563"/><ellipse fill="#FFF" cx="173.389" cy="83.01" rx=".541" ry="2.34" opacity=".792"/><path fill="#FFF" d="M169.308 85.707c0 1.172-.22 2.121-.488 2.121-.275 0-.495-.949-.495-2.121 0-1.171.22-2.123.495-2.123.268 0 .488.952.488 2.123z" opacity=".892"/><path fill="#FFF" d="M174.387 59.954c0 1.379-.255 2.494-.579 2.494-.316 0-.576-1.115-.576-2.494 0-1.377.26-2.494.576-2.494.324 0 .579 1.117.579 2.494z" opacity=".095"/><path fill="#FFF" d="M161.977 69.739c0 1.297-.245 2.348-.542 2.348-.304 0-.546-1.051-.546-2.348 0-1.295.242-2.346.546-2.346.296.001.542 1.051.542 2.346z" opacity=".879"/><ellipse fill="#FFF" cx="150.22" cy="88.782" rx=".457" ry="1.964" opacity=".234"/><path fill="#FFF" d="M149.785 83.22c0 1.125-.212 2.039-.472 2.039-.261 0-.47-.914-.47-2.039 0-1.131.209-2.043.47-2.043.26 0 .472.912.472 2.043z" opacity=".097"/><ellipse fill="#FFF" cx="139.98" cy="80.047" rx=".464" ry="2.003" opacity=".199"/><ellipse fill="#FFF" cx="135.191" cy="94.351" rx=".482" ry="2.084" opacity=".381"/><ellipse fill="#FFF" cx="132.75" cy="96.497" rx=".497" ry="2.146" opacity=".305"/><ellipse fill="#FFF" cx="135.561" cy="98.451" rx=".554" ry="2.396" opacity=".361"/><ellipse fill="#FFF" cx="141.942" cy="70.255" rx=".632" ry="2.732" opacity=".499"/><path fill="#FFF" d="M163.49 53.165c0 1.05-.193 1.904-.438 1.904-.246 0-.439-.854-.439-1.904 0-1.049.193-1.901.439-1.901.245 0 .438.852.438 1.901z" opacity=".222"/><ellipse fill="#FFF" cx="158.451" cy="53.688" rx=".518" ry="2.242" opacity=".293"/><ellipse fill="#FFF" cx="148.407" cy="56.248" rx=".621" ry="2.68" opacity=".203"/><ellipse fill="#FFF" cx="88.926" cy="95.225" rx=".573" ry="2.476" opacity=".516"/><ellipse fill="#FFF" cx="88.14" cy="101.281" rx=".563" ry="2.433" opacity=".514"/><ellipse fill="#FFF" cx="105.795" cy="102.037" rx=".511" ry="2.204" opacity=".628"/><ellipse fill="#FFF" cx="108.465" cy="108.136" rx=".502" ry="2.172" opacity=".67"/><ellipse fill="#FFF" cx="114.695" cy="103.778" rx=".495" ry="2.137" opacity=".518"/><ellipse fill="#FFF" cx="107.542" cy="99.215" rx=".509" ry="2.202" opacity=".575"/><ellipse fill="#FFF" cx="102.142" cy="93.848" rx=".551" ry="2.381" opacity=".524"/><ellipse fill="#FFF" cx="102.589" cy="86.005" rx=".576" ry="2.49" opacity=".468"/><ellipse fill="#FFF" cx="98.021" cy="75.088" rx=".557" ry="2.409" opacity=".38"/><path fill="#FFF" d="M95.192 66.278c0 1.41-.266 2.551-.589 2.551-.327 0-.591-1.141-.591-2.551 0-1.404.264-2.547.591-2.547.323 0 .589 1.143.589 2.547z" opacity=".408"/><path fill="#FFF" d="M100.934 66.654c0 1.257-.235 2.272-.525 2.272-.293 0-.527-1.016-.527-2.272 0-1.253.234-2.271.527-2.271.29 0 .525 1.018.525 2.271z" opacity=".381"/><ellipse fill="#FFF" cx="93.969" cy="60.837" rx=".577" ry="2.489" opacity=".41"/><ellipse fill="#FFF" cx="98.497" cy="58.311" rx=".542" ry="2.343" opacity=".403"/><path fill="#FFF" d="M72.287 55.019c0 1.265-.235 2.285-.53 2.285-.291 0-.527-1.021-.527-2.285 0-1.263.236-2.285.527-2.285.295-.001.53 1.022.53 2.285z" opacity=".242"/><ellipse fill="#FFF" cx="72.008" cy="50.79" rx=".544" ry="2.347" opacity=".213"/><path fill="#FFF" d="M72.311 68.67c0 1.401-.263 2.535-.587 2.535s-.585-1.134-.585-2.535c0-1.396.261-2.531.585-2.531s.587 1.134.587 2.531z" opacity=".312"/><ellipse fill="#FFF" cx="73.676" cy="74.062" rx=".646" ry="2.79" opacity=".378"/><ellipse fill="#FFF" cx="71.604" cy="90.727" rx=".579" ry="2.503" opacity=".526"/><ellipse fill="#FFF" cx="76.781" cy="77.365" rx=".672" ry="2.903" opacity=".388"/><path fill="#FFF" d="M83.377 67.157c0 1.617-.303 2.928-.675 2.928-.377 0-.68-1.311-.68-2.928s.303-2.928.68-2.928c.372 0 .675 1.311.675 2.928z" opacity=".445"/><path fill="#FFF" d="M84.109 54.151c0 1.488-.281 2.695-.625 2.695s-.623-1.207-.623-2.695c0-1.493.278-2.7.623-2.7s.625 1.207.625 2.7z" opacity=".414"/><ellipse fill="#FFF" cx="80.024" cy="60.337" rx=".643" ry="2.772" opacity=".435"/><ellipse fill="#FFF" cx="106.962" cy="55.536" rx=".516" ry="2.232" opacity=".396"/><ellipse fill="#FFF" cx="127.385" cy="54.975" rx=".721" ry="3.117" opacity=".108"/><path fill="#FFF" d="M138.035 59.197c0 1.564-.29 2.833-.654 2.833-.363 0-.657-1.269-.657-2.833 0-1.562.294-2.829.657-2.829.364 0 .654 1.268.654 2.829z" opacity=".343"/><path fill="#FFF" d="M149.944 61.61c0 1.521-.283 2.751-.635 2.751s-.638-1.23-.638-2.751c0-1.515.286-2.749.638-2.749s.635 1.235.635 2.749z" opacity=".375"/><path fill="#FFF" d="M168.625 58.547c0 1.314-.244 2.381-.556 2.381-.303 0-.547-1.066-.547-2.381 0-1.313.244-2.378.547-2.378.312 0 .556 1.064.556 2.378z" opacity=".569"/><ellipse fill="#FFF" cx="167.874" cy="66.914" rx=".531" ry="2.293" opacity=".792"/><ellipse fill="#FFF" cx="167.807" cy="89.974" rx=".542" ry="2.346" opacity=".705"/><path fill="#FFF" d="M190.623 108.9c0 1.501-.28 2.717-.628 2.717-.35 0-.635-1.216-.635-2.717 0-1.504.285-2.721.635-2.721.348.001.628 1.217.628 2.721z" opacity=".262"/><ellipse fill="#FFF" cx="162.223" cy="117.291" rx=".69" ry="2.981" opacity=".347"/><path fill="#FFF" d="M157.617 130.721c0 1.567-.298 2.838-.66 2.838-.364 0-.658-1.271-.658-2.838 0-1.57.294-2.84.658-2.84.362 0 .66 1.269.66 2.84z" opacity=".179"/><ellipse fill="#FFF" cx="176.903" cy="117.471" rx=".641" ry="2.775" opacity=".432"/><path fill="#FFF" d="M180.875 124.35c0 1.377-.257 2.49-.573 2.49-.323 0-.578-1.113-.578-2.49 0-1.375.255-2.489.578-2.489.316-.001.573 1.114.573 2.489z" opacity=".427"/><ellipse fill="#FFF" cx="176.604" cy="123.859" rx=".601" ry="2.594" opacity=".433"/><ellipse fill="#FFF" cx="168.267" cy="125.803" rx=".677" ry="2.922" opacity=".339"/><path fill="#FFF" d="M168.058 120.644c0 1.636-.306 2.961-.685 2.961-.381 0-.688-1.325-.688-2.961 0-1.64.307-2.966.688-2.966.379 0 .685 1.326.685 2.966z" opacity=".359"/><ellipse fill="#FFF" cx="154.413" cy="126.994" rx=".689" ry="2.979" opacity=".19"/><ellipse fill="#FFF" cx="103.031" cy="126.318" rx=".548" ry="2.364" opacity=".604"/><path fill="#FFF" d="M95.289 131.011c0 1.218-.226 2.204-.506 2.204-.285 0-.514-.986-.514-2.204 0-1.215.229-2.202.514-2.202.28 0 .506.987.506 2.202z" opacity=".527"/><ellipse fill="#FFF" cx="91.877" cy="130.141" rx=".507" ry="2.19" opacity=".528"/><path fill="#FFF" d="M95.356 128.065c0 1.238-.232 2.242-.521 2.242-.287 0-.52-1.004-.52-2.242 0-1.241.232-2.246.52-2.246.289 0 .521 1.005.521 2.246z" opacity=".541"/><ellipse fill="#FFF" cx="121.286" cy="136.539" rx=".494" ry="2.14" opacity=".298"/><ellipse fill="#FFF" cx="122.929" cy="126.982" rx=".577" ry="2.492" opacity=".479"/><ellipse fill="#FFF" cx="128.186" cy="138.418" rx=".498" ry="2.151" opacity=".372"/><ellipse fill="#FFF" cx="132.773" cy="127.925" rx=".622" ry="2.692" opacity=".414"/><ellipse fill="#FFF" cx="132.611" cy="131.831" rx=".598" ry="2.583" opacity=".402"/><ellipse fill="#FFF" cx="141.872" cy="98.416" rx=".523" ry="2.271" opacity=".349"/><path fill="#FFF" d="M154.804 90.982c0 1.14-.212 2.064-.479 2.064-.259 0-.476-.925-.476-2.064 0-1.141.217-2.063.476-2.063.267 0 .479.923.479 2.063z" opacity=".286"/><path fill="#FFF" d="M144.482 80.613c0 1.142-.218 2.066-.479 2.066-.264 0-.479-.925-.479-2.066 0-1.139.216-2.063.479-2.063.262 0 .479.925.479 2.063z" opacity=".208"/><ellipse fill="#FFF" cx="140.361" cy="82.39" rx=".476" ry="2.058" opacity=".209"/><path fill="#FFF" d="M130.273 71.439c0 1.525-.287 2.761-.639 2.761-.353 0-.637-1.235-.637-2.761 0-1.521.284-2.757.637-2.757.352.001.639 1.236.639 2.757z" opacity=".41"/><ellipse fill="#FFF" cx="115.954" cy="79.646" rx=".641" ry="2.771" opacity=".405"/><ellipse fill="#FFF" cx="113.783" cy="67.752" rx=".61" ry="2.634" opacity=".314"/><ellipse fill="#FFF" cx="100.791" cy="63.72" rx=".526" ry="2.276" opacity=".382"/><ellipse fill="#FFF" cx="110.981" cy="50.231" rx=".601" ry="2.598" opacity=".313"/><ellipse fill="#FFF" cx="131.543" cy="59.897" rx=".668" ry="2.88" opacity=".328"/><path fill="#FFF" d="M138.209 52.536c0 1.575-.296 2.848-.658 2.848-.367 0-.659-1.272-.659-2.848 0-1.573.292-2.847.659-2.847.362 0 .658 1.274.658 2.847z" opacity=".321"/><ellipse fill="#FFF" cx="137.674" cy="55.473" rx=".657" ry="2.841" opacity=".338"/><ellipse fill="#FFF" cx="97.279" cy="52.817" rx=".555" ry="2.398" opacity=".381"/><ellipse fill="#FFF" cx="97.146" cy="47.771" rx=".578" ry="2.496" opacity=".349"/><path fill="#FFF" d="M95.671 48.811c0 1.381-.257 2.496-.576 2.496-.318 0-.577-1.115-.577-2.496 0-1.375.258-2.493.577-2.493.32-.001.576 1.118.576 2.493z" opacity=".351"/><ellipse fill="#FFF" cx="97.18" cy="44.148" rx=".582" ry="2.512" opacity=".343"/><path fill="#FFF" d="M102.667 42.187c0 1.369-.257 2.479-.574 2.479s-.576-1.109-.576-2.479c0-1.372.259-2.482.576-2.482s.574 1.109.574 2.482z" opacity=".333"/><ellipse fill="#FFF" cx="108.305" cy="58.562" rx=".528" ry="2.276" opacity=".378"/><ellipse fill="#FFF" cx="151.176" cy="68.89" rx=".55" ry="2.38" opacity=".375"/><path fill="#FFF" d="M164.351 66.473c0 1.246-.233 2.258-.521 2.258-.292 0-.524-1.012-.524-2.258 0-1.248.232-2.26.524-2.26.287 0 .521 1.012.521 2.26z" opacity=".744"/><path fill="#FFF" d="M179.403 60.849c0 1.336-.247 2.419-.561 2.419-.31 0-.56-1.083-.56-2.419 0-1.338.25-2.423.56-2.423.314 0 .561 1.085.561 2.423z" opacity=".584"/><ellipse fill="#FFF" cx="176.459" cy="65.335" rx=".552" ry="2.383" opacity=".662"/><ellipse fill="#FFF" cx="176.965" cy="56.33" rx=".558" ry="2.405" opacity=".559"/><ellipse fill="#FFF" cx="145.098" cy="84.61" rx=".473" ry="2.037" opacity=".214"/><path fill="#FFF" d="M142.7 103.642c0 1.432-.27 2.588-.597 2.588-.331 0-.6-1.156-.6-2.588 0-1.43.269-2.588.6-2.588.328 0 .597 1.158.597 2.588z" opacity=".368"/><ellipse fill="#FFF" cx="143.148" cy="108.994" rx=".671" ry="2.893" opacity=".391"/><ellipse fill="#FFF" cx="112.944" cy="98.011" rx=".502" ry="2.162" opacity=".46"/><ellipse fill="#FFF" cx="92.601" cy="102.291" rx=".548" ry="2.366" opacity=".554"/><ellipse fill="#FFF" cx="83.56" cy="100.64" rx=".564" ry="2.437" opacity=".512"/><ellipse fill="#FFF" cx="75.744" cy="104.099" rx=".55" ry="2.38" opacity=".536"/><ellipse fill="#FFF" cx="77.959" cy="97.513" rx=".562" ry="2.423" opacity=".528"/><path fill="#FFF" d="M78.894 73.514c0 1.631-.307 2.951-.686 2.951-.377 0-.685-1.32-.685-2.951 0-1.635.307-2.957.685-2.957.379 0 .686 1.322.686 2.957z" opacity=".418"/><ellipse fill="#FFF" cx="82.75" cy="85.401" rx=".588" ry="2.542" opacity=".486"/><path fill="#FFF" d="M81.362 79.199c0 1.558-.293 2.821-.653 2.821-.36 0-.651-1.264-.651-2.821 0-1.556.292-2.814.651-2.814.359 0 .653 1.259.653 2.814z" opacity=".416"/><ellipse fill="#FFF" cx="75.67" cy="87.809" rx=".602" ry="2.602" opacity=".464"/></g><path fill="#FFF" d="M189.295 50.938c-.581-1.605-1.873-2.247-1.873-2.247s.668.81 1.873 2.247zM189.922 52.197c3.687 4.505 10.635 15.556 10.801 34.904l.01-.021c.149-20.587-7.738-31.734-11.438-36.144.163.448.641.635.627 1.261z"/><path fill="#AD9034" d="M59.366 92.345l3.676 10.144-2.397-.316-4.013-2.61-.36-1.73-.07-1.823z"/><path d="M200.721 87.104c-.432.928-.93 1.844-1.491 2.742a71.122 71.122 0 0 1-.302 1.792c-10.454 16.367-38.963 27.163-51.229 33.02-13.069 6.234-42.309 11.111-49.146 12.092-2.456.353-5.542.707-8.967.77a69.452 69.452 0 0 1-1.595-1.291c-5.738-.039-12.247-.942-18.286-3.911-9.165-15.595-13.504-31.396-13.504-31.396v-2.403c0 1.604 1.243 3.346 5.309 4.69.509.17 1.057.327 1.619.445 11.045 2.586 31.465-2.053 37.958-2.98 6.838-.968 66.302-18.326 82.875-37.047 5.137-5.409 6.209-8.811 5.921-10.888-.041-.314-.054-.653.041-.548 1.986 2.431 4.911 6.745 7.214 13.228.157.444.314.875.459 1.332.014 0 .014.015.014.025.103.354.209.694.313 1.048 1.605 5.189 2.744 11.569 2.797 19.28z" opacity=".15"/><g fill="#FEE215"><path d="M56.632 95.508c-.262.536-.433 1.112-.433 1.699v-1.201l.433-.498zM59.285 92.436l-2.653 3.072c.745-1.582 2.287-2.823 2.653-3.098.051-.039.078-.066.078-.066l-.078.092zM189.295 50.938c-1.192-1.425-1.873-2.247-1.873-2.247s1.301.655 1.873 2.247zM200.73 87.076c0 .014-.01.014-.01.027-.432.928-.93 1.844-1.491 2.742-10.195 16.628-39.149 27.596-51.531 33.505-13.069 6.233-42.309 11.111-49.146 12.091-2.835.405-6.496.811-10.562.786-5.738-.039-12.247-.942-18.286-3.911C60.539 116.721 56.2 100.92 56.2 100.92v-3.608c.013.17.026.353.081.535.285 1.412 1.698 2.876 5.229 4.054.312.104.652.209.993.302 10.875 2.913 31.972-1.883 38.584-2.837 6.838-.968 66.302-18.328 82.875-37.046 4.182-4.405 5.661-7.477 5.921-9.582.03-.198.041-.377.041-.548.013-.157 0-.313-.011-.444-.03-.445-.485-.479-.617-.808 3.698 4.393 11.583 15.539 11.434 36.138z"/></g><radialGradient id="f" cx="136.841" cy="110.94" r="55.535" gradientTransform="translate(-.52 .146) scale(.9747)" gradientUnits="userSpaceOnUse"><stop offset="0" stop-color="#fff"/><stop offset="1" stop-color="#fff" stop-opacity="0"/></radialGradient><path opacity=".5" fill="url(#f)" d="M59.366 92.345s-8.385 6.048 2.145 9.557 32.757-1.562 39.581-2.535c6.829-.974 66.3-18.33 82.873-37.049 10.728-11.31 16.965-2.535 16.769 24.764-8.502 18.196-39.97 30.027-53.04 36.269-13.063 6.239-42.311 11.114-49.136 12.09-6.824.976-18.524 1.95-28.857-3.121-9.166-15.599-13.498-31.392-13.498-31.392V96.01l3.163-3.665z"/><path opacity=".5" fill="#FFF" d="M56.272 97.833c-.365 1.796.604 3.832 5.238 5.375 10.529 3.509 32.757-1.561 39.581-2.536 6.829-.973 66.3-18.326 82.873-37.049 5.143-5.421 6.202-8.824 5.916-10.899-.256 2.11-1.733 5.182-5.916 9.594-16.573 18.719-76.044 36.075-82.873 37.049-6.824.974-29.051 6.044-39.581 2.535-3.535-1.18-4.933-2.644-5.238-4.069z"/><g fill="#333"><path d="M190.537 78.789l-.01-.016-.846-.654.447-.359 1.067.822.256.572-4.952 2.229-.291-.649 4.329-1.945zM191.325 85.34c-1.683.757-2.893.551-3.387-.545-.435-.967.175-2.03 1.805-2.783 1.66-.746 2.897-.442 3.35.563.469 1.041-.193 2.057-1.768 2.765zm-1.288-2.655c-1.282.579-1.838 1.306-1.562 1.914.307.685 1.254.655 2.518.084 1.218-.548 1.878-1.22 1.564-1.914-.262-.586-1.169-.688-2.52-.084zM164.819 95.652c.789-.34 1.553-.105 2.213.528l.023-.021c.031-.836.446-1.369.986-1.599.995-.427 2.033.127 2.505 1.228.52 1.218.017 2.154-.766 2.491-.533.225-1.215.208-1.911-.409l-.033.012c.03.916-.318 1.635-1.081 1.962-1.092.468-2.229-.156-2.739-1.356-.564-1.315-.119-2.443.803-2.836zm1.483 3.368c.763-.326.904-1.016.779-1.969-.523-.644-1.179-.833-1.775-.577-.653.244-1.005.968-.663 1.768.324.765 1.009 1.053 1.659.778zm2.143-3.683c-.63.269-.765.887-.651 1.696.417.461.98.712 1.553.468.501-.215.898-.737.568-1.499-.298-.708-.932-.897-1.47-.665zM139.366 110.308a2.851 2.851 0 0 0-.188-.557c-.514-1.132-1.553-1.523-2.506-1.405l.007.026c.425.172.844.556 1.006 1.173.27.986-.255 1.875-1.346 2.17-1.021.274-2.154-.165-2.466-1.326-.323-1.191.396-2.224 1.846-2.614 1.098-.295 2.07-.135 2.768.267.578.34 1.03.884 1.307 1.562.095.215.155.401.189.538l-.617.166zm-3.276.653c.8-.216 1.155-.799.971-1.495-.123-.455-.522-.799-.98-.895a.67.67 0 0 0-.358.004c-.913.265-1.478.868-1.266 1.658.175.652.832.945 1.633.728zM104.793 117.37l1.733-.325-.554-2.958.568-.107 4.595 2.08.177.93-3.958.742.167.892-.676.127-.168-.893-1.732.325-.152-.813zm2.41-.452l2.125-.398c.332-.061.667-.115 1.004-.157l-.006-.029c-.408-.126-.711-.23-1.04-.351l-2.457-1.154-.02.004.394 2.085zM75.775 120.387l.487-.086.714.517c1.688 1.247 2.567 1.792 3.455 1.646.597-.104 1.095-.49.941-1.366-.094-.533-.442-.928-.715-1.159l.516-.352c.413.346.769.88.889 1.557.22 1.265-.552 1.95-1.391 2.096-1.085.191-2.1-.438-3.509-1.467l-.516-.394-.018.004.463 2.635-.658.118-.658-3.749z"/></g><path fill="#333" d="M86.522 103.708l11.13 31.686-.311.109-11.13-31.686zM116.11 96.532l11.8 32.661-.307.11-11.8-32.66zM158.502 119.045l-12.335-33.141.302-.112 12.346 33.138z"/><g><path fill="#333" d="M172.75 72.391l11.824 32.2-.304.111-11.824-32.2z"/></g><g opacity=".8"><linearGradient id="g" gradientUnits="userSpaceOnUse" x1="48.023" y1="80.814" x2="94.746" y2="71.117"><stop offset="0" stop-color="#fff"/><stop offset=".142" stop-color="#fff" stop-opacity=".858"/><stop offset="1" stop-color="#fff" stop-opacity="0"/></linearGradient><path fill="url(#g)" d="M189.491 51.18c.126.148.253.304.386.469-.059-.227-.229-.344-.386-.469z"/><linearGradient id="h" gradientUnits="userSpaceOnUse" x1="50.824" y1="79.817" x2="96.594" y2="70.318"><stop offset="0" stop-color="#fff"/><stop offset=".142" stop-color="#fff" stop-opacity=".858"/><stop offset="1" stop-color="#fff" stop-opacity="0"/></linearGradient><path fill="url(#h)" d="M189.491 51.18a7.662 7.662 0 0 0-.196-.242c.04.105.117.174.196.242z"/><linearGradient id="i" gradientUnits="userSpaceOnUse" x1="57.999" y1="119.699" x2="94.15" y2="112.196"><stop offset="0" stop-color="#fff"/><stop offset=".142" stop-color="#fff" stop-opacity=".858"/><stop offset="1" stop-color="#fff" stop-opacity="0"/></linearGradient><path fill="url(#i)" d="M69.928 103.109c-2.745-.063-5.286-.335-7.426-.907a17.766 17.766 0 0 1-.993-.302c-3.53-1.178-4.944-2.642-5.229-4.054-.055-.183-.067-.365-.081-.535v3.608s4.339 15.802 13.504 31.396c6.04 2.969 12.548 3.872 18.286 3.911 2.618.016-16.536-28.253-18.061-33.117z"/></g><g><linearGradient id="j" gradientUnits="userSpaceOnUse" x1="190.413" y1="50.312" x2="155.159" y2="76.108"><stop offset="0" stop-color="#fff"/><stop offset=".142" stop-color="#fff" stop-opacity=".858"/><stop offset="1" stop-color="#fff" stop-opacity="0"/></linearGradient><path fill="url(#j)" d="M189.491 51.18a7.662 7.662 0 0 0-.196-.242c.04.105.117.174.196.242z"/><linearGradient id="k" gradientUnits="userSpaceOnUse" x1="190.727" y1="50.65" x2="153.971" y2="77.545"><stop offset="0" stop-color="#fff"/><stop offset=".142" stop-color="#fff" stop-opacity=".858"/><stop offset="1" stop-color="#fff" stop-opacity="0"/></linearGradient><path fill="url(#k)" d="M189.491 51.18c.126.148.253.304.386.469-.059-.227-.229-.344-.386-.469z"/><linearGradient id="l" gradientUnits="userSpaceOnUse" x1="202.501" y1="66.793" x2="166.681" y2="93.004"><stop offset="0" stop-color="#fff"/><stop offset=".142" stop-color="#fff" stop-opacity=".858"/><stop offset="1" stop-color="#fff" stop-opacity="0"/></linearGradient><path fill="url(#l)" d="M189.877 51.648c.008.032.031.054.035.097.011.132.023.287.011.444 0 .171-.011.35-.041.548-.26 2.105-1.739 5.177-5.921 9.582-1.454 1.645-3.249 3.277-5.294 4.889 3.928 5.703 9.112 16.197 8.992 32.94 0 .013-.013.013-.013.026a26.32 26.32 0 0 1-1.488 2.745c-.085.14-.185.274-.27.411 5.501-3.994 10.271-8.481 13.341-13.485a25.113 25.113 0 0 0 1.491-2.742c0-.014.01-.014.01-.027.138-19.589-6.972-30.615-10.853-35.428z"/></g><path opacity=".3" fill="#FFF" d="M90.32 47.021c18.16-3.826 35.983 9.34 42.311 8.332 8.535-1.358 17.057-7.075 32.552-6.203 13.387.756 31.307 16.392 34.258 39.108.08-.625.16-1.248.216-1.871 2.594-28.643-18.982-49.434-34.474-50.307-15.495-.872-24.017 4.843-32.552 6.201-6.327 1.005-24.15-12.158-42.311-8.332-16.247 3.417-35.499 25.753-31.999 53.071 2.772-21.111 18.438-37.147 31.999-39.999z"/><g><path fill="#731E01" d="M136.198 54.83h-4.469s.43-1.673.442-4.342a24.423 24.423 0 0 0-.379-4.494v-.014c-.013-.067-.013-.118-.025-.185-.759-4.263-2.786-9.476-7.646-14.339 0-.014-.014-.014-.014-.014l-.027-.024c-.053-.055-.09-.095-.145-.145-.025-.13-.053-.274-.053-.42-.037-.94.459-1.79.865-2.339v-.012c.286-.38.537-.603.537-.603l.063-.43h.013l.408-2.459 3.75-2.01s6.248 18.889 6.68 31.83z"/><path fill="#F6B13A" d="M125.352 27.475s-1.77 2.219-1.42 3.801c.223 1.022 2.947-2.578 3.252-3.069-.739-1.41-1.832-.732-1.832-.732z"/><path opacity=".1" fill="#FFF" d="M124.102 31.443s6.734 5.405 7.696 14.552c1.396-2.513 1.702-7.852-1.12-12.204-2.82-4.359-3.925-4.224-4.906-4.412-.983-.19-1.67 2.064-1.67 2.064z"/></g><radialGradient id="m" cx="107.865" cy="607.029" r="106.508" gradientTransform="matrix(.7169 0 0 .2582 45.374 -16.371)" gradientUnits="userSpaceOnUse"><stop offset="0" stop-color="#a3ff20"/><stop offset=".22" stop-color="#a6ff2b" stop-opacity=".78"/><stop offset=".666" stop-color="#aaff3c" stop-opacity=".334"/><stop offset="1" stop-color="#abff42" stop-opacity="0"/></radialGradient><ellipse opacity=".5" fill="url(#m)" cx="122.698" cy="140.355" rx="76.347" ry="27.501"/><g><path fill="#FDD5A6" d="M247.308 127.893s-2.237 5.196-5.771 11.19v.026c-3.123 5.279-7.238 11.158-11.685 14.668-9.476 7.431-26.245 21.246-29.67 22.265-3.479 1.054-35.414 6.742-42.155 9.337-6.712 2.599-13.811 6.552-17.071 6.742-3.285.167-19.694-1.574-27.126-1.739-7.402-.167-33.479-.856-39.004.521-5.527 1.385-56.8 23.482-71.826 36.247v-63.538s3.813.886 8.453-1.022c4.669-1.905 26.604-13.813 28.316-16.74 1.739-2.955 17.264-19.862 47.153-18.479 29.862 1.38 41.436 11.215 48.509 11.215h26.077s4.142.359 8.452 2.07c3.757.415 13.455-2.07 15.362-2.402 1.903-.358 7.592-5.191 14.141-6.738 6.575-1.549 9.339-1.549 9.339-1.549s11.049-13.314 16.405-15.719c3.095-3.618 5.861-4.31 5.861-4.31s3.974-2.43 7.784-1.05c3.786 1.382 7.242 3.98 4.645 11.741 6.907 2.93 3.811 7.264 3.811 7.264z"/><path fill="#E0A775" d="M170.528 140.69s4.823 2.354 7.469 4.987c2.645 2.631 11.947-.541 11.947-.541l21.177-9.397 4.145-9.82-6.272 3.903s-14.723.723-23.39 8.351c-8.082-.306-15.076 2.517-15.076 2.517z"/><path fill="#F4BE89" d="M177.997 145.678s7.455.123 8.519 0c1.061-.115 10.055-11.714 22.238-15.145 5.918-8.518 14.329-16.679 16.865-16.739-4.56 5.617-10.532 15.875-9.466 20.304l-2.191 3.062-10.171 4.256-12.191 7.576-8.396.475h-1.775c-.001-.001-1.539-2.609-3.432-3.789z"/><path fill="#F4BE88" d="M241.536 139.109c-3.123 5.279-7.238 11.158-11.685 14.668-9.476 7.431-26.245 21.246-29.67 22.265-3.479 1.054-35.414 6.742-42.155 9.337-6.712 2.599-13.811 6.552-17.071 6.742-3.285.167-19.694-1.574-27.126-1.739-7.402-.167-33.479-.856-39.004.521C69.299 192.288 18.026 214.385 3 227.15v-5.993s26.987-14.065 33.59-20.555c11.713-11.438 11.301-15.278 11.301-15.278s7.181 4.667 15.715 3.702c8.536-.966 9.781-7.431 9.781-7.431s11.987 3.729 19.556 4.696c7.598.969 31.3 1.631 35.165 1.492 3.841-.138 18.04-2.182 25.606-6.188 11.744-.276 21.383-3.176 21.383-3.176s16.379-3.039 20.525-11.571c1.245 1.377 4.422 2.898 4.422 2.898s1.516-.831 1.516-1.933c4.147.411 5.222 1.515 6.465 0 0 0 3.868-2.488 7.433-5.225 3.591-2.762 8.702-7.872 11.71-9.53 3.042-1.657 14.368-13.949 14.368-13.949z"/><path fill="#E0AB78" d="M180.363 147.48s8.398.323 9.7.917 5.68-5.56 10.176-6.982c4.493-1.415 8.868-3.06 10.528-3.242 1.655-.188 4.113-3.655 6.612-4.817 2.495-1.164-1.526 4.817-1.526 4.817l-4.613 3.48-9.346 3.483-8.993 6.572-8.043 1.423-2.694.847c0 .001-.026-4.457-1.801-6.498z"/><path fill="#F4BE88" d="M93.37 164.372c3.293.055 6.624-.257 9.86-.856 2.717-.504 5.421-1.247 7.916-2.447 2.636-.831 5.507-.657 8.183-.137 3.069.598 5.72 1.915 8.617 2.935 4.033 1.421 2.025-6.624 3.735-8.729 0 2.716.2 5.44.407 8.147.176 2.294.753 2.018 3.124 2.377 1.972.297 1.202-2.486 1.134-3.843-.082-1.542-.766-4.803.295-6.129.993 2.709.801 9.015 3.624 10.595 1.381.772 3.864.408 5.364.429 6.568.104 13.146-.015 19.712-.124 2.854-.053 6.327.511 9.024-.65 6.282-2.711 9.19-8.713 7.2-15.35 2.764.69 6.033 1.379 8.872.665.761-.19 1.38-.993 1.979-1.466 5.545-4.321 12.028-7.497 18.66-9.763a69.599 69.599 0 0 1 2.875-.917 28.81 28.81 0 0 1 1.591-3.004c1.138-1.887 2.457-3.66 3.882-5.337a53.843 53.843 0 0 1 6.514-6.467c3.987-3.316 8.738-5.469 14.059-4.443-3.656.461-7.141.977-9.913 3.379-4.069 3.527-8.075 7.522-10.874 12.154-.684 1.124-1.29 2.313-1.684 3.573a8.552 8.552 0 0 0-.389 1.93c-.064.872-2.06.789-2.88.956-4.671.986-9.313 2.692-13.368 5.237-1.318.83-2.605 1.766-3.674 2.908-.27.296-1.458 2.381-1.585 2.378-2.682-.063-3.158 2.698-2.762 4.829-1.459-1.159-6.732-4.716-7.514-1.139-.791 3.6-1.802 6.847-4.82 9.246-5.173 4.108-13.167 4.551-19.488 5.019-5.287.396-10.606.447-15.902.167-5.638-.292-11.291-1.235-16.894-1.879-5.758-.659-11.928-2.357-17.618-.872-1.989.521-5.071 1.143-6.373 2.918.914-2.564 2.805-3.484 5.146-4.456.384-.161-2.902-.791-3.286-.837-4.234-.483-8.497-.752-12.749-.997z"/><path fill="#FFECCB" d="M159.248 148.109c-2.927 3.14-3.014 8.221-2.185 12.146.195.925.442 1.836.741 2.729.436 1.326.94 1.06 2.211 1.164 1.668.144 3.34.221 5.008.275 2.74.087 5.483.115 8.228.089.908-.009 1.395-2.678 1.602-3.364.724-2.402 2.86-10.802.062-11.729-4.822-1.6-10.636-2.687-15.667-1.31zM242.068 138.173s-3.594-.086-2.072-2.699c1.523-2.613 6.764-10.458 7.253-10.856.49-.398-.665 6.449-5.181 13.555zM243.498 120.629s1.941-7.271-.011-8.398c-2.872 1.229-3.491 7.628-3.491 7.628l3.502.77z"/></g></svg>