<svg xmlns="http://www.w3.org/2000/svg" width="250" height="250" viewBox="0 0 250 250"><path fill-rule="evenodd" clip-rule="evenodd" d="M125.5 247C57.845 247 3 192.154 3 124.5 3 56.845 57.845 2 125.5 2 193.154 2 248 56.845 248 124.5c0 67.654-54.846 122.5-122.5 122.5zm66.71-143.28c-2.618-38.475-37.758-37.524-37.758-37.524-19.532 0-28.957 15.59-28.957 15.59s-9.427-15.59-28.959-15.59c0 0-35.139-.951-37.758 37.524 0 0-1.78 23.889 27.125 49.151 10.266 8.033 39.592 26.447 39.592 31.605 0-5.158 29.324-23.572 39.588-31.605 28.907-25.262 27.127-49.151 27.127-49.151z" opacity=".15"/><path fill-rule="evenodd" clip-rule="evenodd" fill="#FFF" d="M125.5 245C57.845 245 3 190.154 3 122.5 3 54.845 57.845 0 125.5 0 193.154 0 248 54.845 248 122.5c0 67.654-54.846 122.5-122.5 122.5zm66.71-143.28c-2.618-38.475-37.758-37.524-37.758-37.524-19.532 0-28.957 15.59-28.957 15.59s-9.427-15.59-28.959-15.59c0 0-35.139-.951-37.758 37.524 0 0-1.78 23.89 27.125 49.151 10.266 8.033 39.592 26.447 39.592 31.605 0-5.158 29.324-23.572 39.588-31.605 28.907-25.261 27.127-49.151 27.127-49.151z"/></svg>