<svg xmlns="http://www.w3.org/2000/svg" width="250" height="250" viewBox="0 0 250 250"><filter id="e"><feGaussianBlur stdDeviation="4"/></filter><linearGradient id="a" gradientUnits="userSpaceOnUse" x1="151.057" y1="167.71" x2="151.057" y2="14.44"><stop offset="0" stop-color="#e40000"/><stop offset="1" stop-color="#ed0c00"/></linearGradient><path fill="url(#a)" d="M238.303 63.067c-3.425-49.853-49.376-48.625-49.376-48.625-25.544 0-37.871 20.202-37.871 20.202s-12.326-20.202-37.868-20.202c0 0-45.954-1.229-49.376 48.625 0 0-2.33 30.953 35.472 63.687 13.424 10.41 51.772 34.272 51.772 40.956 0-6.684 38.352-30.546 51.772-40.956 37.803-32.734 35.475-63.687 35.475-63.687z"/><linearGradient id="b" gradientUnits="userSpaceOnUse" x1="151.053" y1="160.584" x2="151.053" y2="18.13"><stop offset="0" stop-color="#e90401"/><stop offset=".245" stop-color="#eb0904"/><stop offset=".552" stop-color="#f0190e"/><stop offset=".89" stop-color="#f8321f"/><stop offset="1" stop-color="#fb3c25"/></linearGradient><path fill="url(#b)" d="M151.056 160.584c-5.156-5.365-15.542-12.897-33.608-25.285-6.434-4.41-12.51-8.578-16.373-11.536-36.33-31.174-34.567-60.258-34.543-60.547 3.041-43.819 41.367-45.086 45.728-45.086l.301.003c23.191 0 34.467 17.603 34.938 18.352l3.577 5.718 3.546-5.728c.463-.738 11.739-18.341 34.932-18.341l.302-.003c4.361 0 42.686 1.268 45.729 45.06.021.299 1.522 29.625-34.546 60.574-3.864 2.958-9.939 7.125-16.371 11.536-18.073 12.387-28.455 19.918-33.612 25.283z"/><linearGradient id="c" gradientUnits="userSpaceOnUse" x1="151.029" y1="134.236" x2="151.029" y2="23.784"><stop offset="0" stop-color="#f41707"/><stop offset=".082" stop-color="#f5291b" stop-opacity=".918"/><stop offset=".186" stop-color="#f5392c" stop-opacity=".814"/><stop offset=".315" stop-color="#f64437" stop-opacity=".685"/><stop offset=".496" stop-color="#f64a3e" stop-opacity=".503"/><stop offset="1" stop-color="#f64c40" stop-opacity="0"/></linearGradient><path fill="url(#c)" d="M151.056 134.236c-31.247 0-60.204-33.428-68.208-61.688-6.136-21.666 5.185-48.672 30.649-48.765l.33.003c15.852 0 23.682 13.204 24.005 13.766l13.293 23.667 13.178-23.711c.494-.839 8.318-13.722 23.981-13.722l.33-.003c25.613.104 36.773 27.215 30.539 48.916-8.066 28.072-36.885 61.537-68.097 61.537z"/><linearGradient id="d" gradientUnits="userSpaceOnUse" x1="151.055" y1="122.764" x2="151.055" y2="24.93"><stop offset="0" stop-color="#fff" stop-opacity="0"/><stop offset="1" stop-color="#fff"/></linearGradient><path opacity=".2" fill="url(#d)" d="M69.203 67.689c2.884-41.559 38.953-42.759 43.056-42.759l.272.003c21.686 0 32.212 16.411 32.649 17.114l5.904 9.438 5.861-9.459c.433-.691 10.928-17.093 32.605-17.093l.332-.003c4.073 0 40.139 1.199 43.022 42.733.008.133-1.949 55.101-82.351 55.101-80.395 0-81.359-54.934-81.35-55.075z"/><path opacity=".1" fill="#FFF" d="M92.479 50.02c2.881-32.902 44.928-27.818 58.598-9.192 11.152-15.412 30.323-19.309 46.115-10.47 14.371 8.047 15.438 24.036 4.551 35.3-19.888 20.578-58.839 19.127-82.747 11.303-9.042-2.964-27.673-12.738-26.517-26.941 2.066-23.577-.007.076 0 0z"/><g opacity=".8" filter="url(#e)"><radialGradient id="f" cx="155.057" cy="41.503" r="103.736" gradientTransform="translate(-.566 -.18) scale(.9778)" gradientUnits="userSpaceOnUse"><stop offset="0" stop-color="#fff"/><stop offset="1" stop-color="#fff" stop-opacity="0"/></radialGradient><path fill="url(#f)" d="M111.21 28.669l.282.003c22.272 0 33.079 12.722 33.527 13.261l6.067 7.316 6.02-7.329c.438-.538 11.221-13.249 33.486-13.249l.337-.003c4.03 0 38.518.868 43.715 29.669.418-1.833.474-2.937.473-2.956-2.964-32.188-40.003-33.116-44.188-33.116h-.337c-22.266 0-33.049 12.713-33.486 13.246l-6.02 7.333-6.067-7.316c-.448-.539-11.255-13.262-33.527-13.262h-.282c-4.212 0-41.253.928-44.217 33.138-.002.019.028 1.193.44 3.134 5.088-28.998 39.712-29.869 43.777-29.869z"/></g><path fill="#E20000" d="M177.857 139.992c-9.089 6.304-15.823 11.173-20.651 15.079-3.544 2.875-8.757 2.876-12.301 0-4.827-3.906-11.561-8.775-20.649-15.079-3.75-2.604-3.757-2.546.409-.682 15.737 7.045 37.047 7.045 52.783 0 4.166-1.864 4.16-1.921.409.682z"/><linearGradient id="g" gradientUnits="userSpaceOnUse" x1="151.058" y1="167.711" x2="151.058" y2="14.442"><stop offset="0" stop-color="#fba3a1"/><stop offset="1" stop-color="#ff8b7f"/></linearGradient><path opacity=".2" fill="url(#g)" d="M202.831 126.754c-10.281 7.977-21.323 14.961-31.872 22.572-.447.312-.882.632-1.321.95-1.375 1-2.755 1.999-4.114 3.029-3.624 2.693-7.174 5.495-10.411 8.62-1.297 1.247-4.057 3.627-4.057 5.785 0-2.158-2.759-4.538-4.058-5.785-4.454-4.306-9.521-8.004-14.521-11.649-10.944-7.981-22.482-15.215-33.194-23.522-37.798-32.731-35.474-63.682-35.474-63.682 3.429-49.854 49.376-48.627 49.376-48.627 1.1 0 2.182.044 3.232.117 3.281.215 6.321.777 9.125 1.571 6.446 1.818 11.646 4.883 15.629 7.999a45.417 45.417 0 0 0-11.547-1.467s-5.019-.135-11.853 1.484c-4.57 1.075-9.96 2.937-15.2 6.152-10.678 6.512-20.789 18.603-22.326 40.986 0 0-2.328 30.954 35.476 63.684 7.604 5.903 23.233 16.137 35.333 25.102 3.754-2.778 7.851-5.688 11.936-8.546 1.868-1.305 3.736-2.606 5.56-3.869 7.083-4.915 13.667-9.455 17.84-12.687 37.806-32.73 35.473-63.684 35.473-63.684-3.42-49.856-49.374-48.622-49.374-48.622-4.209 0-8.054.552-11.555 1.467 6.272-4.909 15.563-9.687 27.994-9.687 0 0 45.945-1.228 49.377 48.627.001 0 2.324 30.951-35.474 63.682z"/><path opacity=".5" fill="#FFF" d="M229.292 84.902c1.983-8.349 1.646-13.682 1.604-14.228-1.907-27.023-15.979-41.721-31.122-48.966 3.843.804 8.444 2.202 12.999 4.631 13.059 6.96 20.308 19.417 21.548 37.019.04.626.431 9.09-5.029 21.544zm-156.48-.018c-5.45-12.444-5.059-20.904-5.023-21.535 1.24-17.595 8.49-30.053 21.549-37.013 4.557-2.429 9.165-3.828 13.009-4.632C87.196 28.952 73.12 43.66 71.215 70.716c-.043.528-.376 5.842 1.597 14.168z"/><g opacity=".8"><radialGradient id="h" cx="-147.739" cy="286.469" r="166.069" gradientTransform="matrix(.2663 0 0 .2556 150.702 -16.777)" gradientUnits="userSpaceOnUse"><stop offset="0" stop-color="#ff9143"/><stop offset=".318" stop-color="#ff8d30" stop-opacity=".682"/><stop offset=".708" stop-color="#ff8a1f" stop-opacity=".292"/><stop offset="1" stop-color="#ff8919" stop-opacity="0"/></radialGradient><ellipse fill="url(#h)" cx="111.363" cy="56.446" rx="44.221" ry="42.448"/><radialGradient id="i" cx="114.464" cy="63.677" r="49.174" gradientTransform="matrix(.9778 0 0 1.0592 -.566 -5.362)" gradientUnits="userSpaceOnUse"><stop offset="0" stop-color="#fff" stop-opacity=".7"/><stop offset=".061" stop-color="#fff" stop-opacity=".657"/><stop offset="1" stop-color="#fff" stop-opacity="0"/></radialGradient><circle opacity=".5" fill="url(#i)" cx="111.363" cy="62.085" r="48.084"/><radialGradient id="j" cx="120.689" cy="75.705" r="49.175" gradientTransform="matrix(.9778 0 0 1.0592 -.566 -6.34)" gradientUnits="userSpaceOnUse"><stop offset="0" stop-color="#fff" stop-opacity=".7"/><stop offset=".061" stop-color="#fff" stop-opacity=".657"/><stop offset="1" stop-color="#fff" stop-opacity="0"/></radialGradient><circle opacity=".6" fill="url(#j)" cx="117.45" cy="73.848" r="48.085"/><radialGradient id="k" cx="193.011" cy="226.969" r="88.548" gradientTransform="matrix(.2663 0 0 .2556 150.702 -16.777)" gradientUnits="userSpaceOnUse"><stop offset="0" stop-color="#ff9143"/><stop offset=".318" stop-color="#ff8d30" stop-opacity=".682"/><stop offset=".708" stop-color="#ff8a1f" stop-opacity=".292"/><stop offset="1" stop-color="#ff8919" stop-opacity="0"/></radialGradient><ellipse fill="url(#k)" cx="202.094" cy="41.239" rx="23.579" ry="22.632"/><radialGradient id="l" cx="207.25" cy="43.335" r="24.609" gradientTransform="matrix(.9778 0 0 1.0592 -.566 -3.707)" gradientUnits="userSpaceOnUse"><stop offset="0" stop-color="#fff" stop-opacity=".7"/><stop offset=".061" stop-color="#fff" stop-opacity=".657"/><stop offset="1" stop-color="#fff" stop-opacity="0"/></radialGradient><circle opacity=".5" fill="url(#l)" cx="202.093" cy="42.195" r="24.064"/><radialGradient id="m" cx="210.367" cy="49.355" r="24.608" gradientTransform="matrix(.9778 0 0 1.0592 -.566 -4.197)" gradientUnits="userSpaceOnUse"><stop offset="0" stop-color="#fff" stop-opacity=".7"/><stop offset=".061" stop-color="#fff" stop-opacity=".657"/><stop offset="1" stop-color="#fff" stop-opacity="0"/></radialGradient><path opacity=".6" fill="url(#m)" d="M229.204 48.08c0 13.29-10.772 24.064-24.066 24.064-13.287 0-24.059-10.774-24.059-24.064 0-13.29 10.771-24.064 24.059-24.064 13.294 0 24.066 10.775 24.066 24.064z"/></g><radialGradient id="n" cx="146.447" cy="641.973" r="95.452" gradientTransform="matrix(.7192 0 0 .259 45.48 -16.752)" gradientUnits="userSpaceOnUse"><stop offset="0" stop-color="#ff8a00"/><stop offset=".198" stop-color="#ff9515" stop-opacity=".802"/><stop offset=".514" stop-color="#ffa431" stop-opacity=".486"/><stop offset=".793" stop-color="#ffad42" stop-opacity=".207"/><stop offset="1" stop-color="#ffb048" stop-opacity="0"/></radialGradient><path fill="url(#n)" d="M219.451 149.541c0 13.654-30.731 24.726-68.646 24.726-37.911 0-68.646-11.071-68.646-24.726 0-13.658 30.735-24.728 68.646-24.728 37.915 0 68.646 11.07 68.646 24.728z"/><g><path fill="#FDD5A6" d="M247.309 136.278s-2.239 5.192-5.773 11.188v.026c-3.124 5.277-7.24 11.159-11.685 14.672-9.479 7.431-26.243 21.242-29.671 22.264-3.479 1.049-35.413 6.741-42.154 9.336-6.712 2.599-13.811 6.547-17.071 6.741-3.285.166-19.695-1.578-27.125-1.737-7.406-.172-33.483-.861-39.006.523-5.524 1.38-56.797 23.477-71.823 36.24v-63.535s3.812.885 8.453-1.02c4.669-1.909 26.604-13.813 28.316-16.743 1.739-2.957 17.264-19.86 47.152-18.479 29.863 1.382 41.436 11.213 48.509 11.213h26.078s4.142.363 8.451 2.075c3.755.412 13.455-2.075 15.362-2.405 1.903-.359 7.593-5.193 14.141-6.738 6.574-1.551 9.339-1.551 9.339-1.551s11.049-13.312 16.405-15.715c3.096-3.62 5.86-4.31 5.86-4.31s3.977-2.432 7.786-1.049c3.784 1.38 7.24 3.977 4.645 11.74 6.904 2.926 3.811 7.264 3.811 7.264z"/><path fill="#E0A775" d="M170.526 149.071s4.823 2.359 7.47 4.99c2.646 2.632 11.947-.54 11.947-.54l21.176-9.398 4.146-9.819-6.272 3.903s-14.721.724-23.39 8.349c-8.08-.305-15.077 2.515-15.077 2.515z"/><path fill="#F4BE89" d="M177.996 154.062s7.451.117 8.519 0c1.063-.121 10.055-11.71 22.239-15.144 5.916-8.517 14.328-16.68 16.867-16.739-4.563 5.618-10.533 15.874-9.47 20.303l-2.192 3.06-10.171 4.258-12.186 7.576-8.4.473h-1.775s-1.537-2.603-3.431-3.787z"/><path fill="#F4BE88" d="M241.535 147.492c-3.124 5.277-7.24 11.159-11.685 14.672-9.479 7.431-26.243 21.242-29.671 22.264-3.479 1.049-35.413 6.741-42.154 9.336-6.712 2.599-13.811 6.547-17.071 6.741-3.285.166-19.695-1.578-27.125-1.737-7.406-.172-33.483-.861-39.006.523-5.524 1.38-56.797 23.477-71.823 36.24v-5.994s26.987-14.06 33.591-20.553c11.712-11.435 11.3-15.274 11.3-15.274s7.184 4.666 15.716 3.7c8.536-.968 9.781-7.432 9.781-7.432s11.987 3.731 19.557 4.697c7.598.968 31.3 1.628 35.166 1.491 3.84-.138 18.041-2.18 25.606-6.188 11.743-.274 21.385-3.173 21.385-3.173s16.377-3.044 20.524-11.579c1.245 1.383 4.416 2.903 4.416 2.903s1.52-.832 1.52-1.937c4.146.416 5.221 1.523 6.464 0 0 0 3.871-2.485 7.435-5.217 3.591-2.767 8.701-7.874 11.709-9.529 3.038-1.659 14.365-13.954 14.365-13.954z"/><path fill="#E0AB78" d="M180.364 155.861s8.396.331 9.698.918c1.305.597 5.677-5.561 10.174-6.979 4.496-1.418 8.873-3.062 10.528-3.244 1.657-.184 4.112-3.655 6.614-4.817 2.498-1.164-1.526 4.817-1.526 4.817l-4.612 3.48-9.346 3.485-8.994 6.57-8.041 1.419-2.696.854s-.027-4.459-1.799-6.503z"/><path fill="#F4BE88" d="M93.37 172.754c3.292.054 6.623-.252 9.86-.856 2.715-.504 5.421-1.25 7.916-2.449 2.636-.823 5.506-.654 8.183-.134 3.069.597 5.718 1.916 8.616 2.938 4.034 1.42 2.025-6.632 3.733-8.732 0 2.722.203 5.44.408 8.146.176 2.297.755 2.025 3.123 2.376 1.973.301 1.202-2.484 1.135-3.843-.081-1.533-.766-4.801.294-6.123.994 2.706.803 9.01 3.627 10.59 1.382.773 3.861.412 5.362.433 6.568.1 13.146-.012 19.711-.127 2.857-.049 6.329.511 9.023-.646 6.286-2.716 9.191-8.716 7.202-15.354 2.762.692 6.031 1.38 8.873.665.758-.192 1.38-.995 1.979-1.461 5.544-4.325 12.027-7.498 18.659-9.766a82.21 82.21 0 0 1 2.876-.917 29.34 29.34 0 0 1 1.59-3.005c1.14-1.884 2.457-3.656 3.878-5.333a53.666 53.666 0 0 1 6.519-6.467c3.988-3.318 8.738-5.471 14.055-4.443-3.654.459-7.139.975-9.91 3.379-4.067 3.525-8.076 7.521-10.873 12.152-.684 1.127-1.29 2.316-1.686 3.573a8.465 8.465 0 0 0-.387 1.933c-.066.869-2.061.782-2.88.955-4.67.98-9.314 2.689-13.367 5.24-1.322.823-2.607 1.76-3.677 2.907-.27.29-1.456 2.377-1.583 2.374-2.683-.062-3.16 2.697-2.767 4.829-1.453-1.164-6.725-4.719-7.51-1.14-.791 3.599-1.803 6.853-4.82 9.25-5.172 4.105-13.166 4.549-19.493 5.021a125.09 125.09 0 0 1-15.896.162c-5.639-.298-11.291-1.237-16.894-1.875-5.758-.666-11.927-2.359-17.618-.878-1.988.52-5.071 1.146-6.372 2.917.913-2.562 2.802-3.479 5.146-4.455.384-.163-2.903-.795-3.287-.838-4.234-.483-8.496-.754-12.748-.998z"/><path fill="#FFECCB" d="M159.247 156.489c-2.926 3.143-3.011 8.22-2.185 12.151.193.924.444 1.831.742 2.724.434 1.333.939 1.065 2.211 1.169a91.98 91.98 0 0 0 5.007.271c2.74.091 5.484.117 8.225.091.91-.008 1.397-2.678 1.608-3.364.722-2.403 2.855-10.808.056-11.729-4.821-1.598-10.631-2.688-15.664-1.313zM242.065 146.556s-3.592-.085-2.073-2.701c1.524-2.61 6.768-10.454 7.256-10.854.49-.397-.663 6.451-5.183 13.555zM243.498 129.014s1.942-7.272-.013-8.399c-2.871 1.229-3.493 7.63-3.493 7.63l3.506.769z"/></g></svg>