<svg xmlns="http://www.w3.org/2000/svg" width="896" height="265.826" viewBox="0.5 0.5 896 265.826"><path opacity=".15" d="M252.299 134.122h-54.601v32.902h-40.197L240.1 5.323h-63.002L94.499 167.024v54.599h103.2v32.899H252.3v-32.899h18.5v-54.599h-18.5v-32.902zm123.7-130.896c-41.302 0-80.1 26.201-80.1 77.697v98c0 51.402 38.798 77.701 80.1 77.701 41.301 0 80.1-26.201 80.1-77.701v-98c0-51.4-38.799-77.697-80.1-77.697zM398.7 179.224c0 17.502-10.499 25.502-22.701 25.502-12.199 0-22.698-8.003-22.698-25.502V80.923c0-17.499 10.499-25.897 22.698-25.897 12.202 0 22.701 8.398 22.701 25.897v98.301zm240.2-12.2v-32.902h-54.601v32.902h-40.201l82.6-161.701h-62.999l-82.6 161.701v54.599h103.2v32.899H638.9v-32.899h18.6v-54.599h-18.6z"/><path opacity=".1" d="M448.5 241.323c247.399 0 448 5.601 448 12.5 0 6.905-200.601 12.503-448 12.503-247.402 0-448-5.598-448-12.503 0-6.899 200.601-12.5 448-12.5z"/><path fill="#eee" d="M252.299 131.399h-54.601v32.897h-40.197L240.1 2.598h-63.002L94.499 164.297v54.598h103.2v32.903H252.3v-32.903h18.5v-54.598h-18.5v-32.898zM375.999.5c-41.302 0-80.1 26.201-80.1 77.701v97.997c0 51.401 38.798 77.7 80.1 77.7 41.301 0 80.1-26.198 80.1-77.7V78.201C456.099 26.799 417.3.5 375.999.5zM398.7 176.495c0 17.503-10.499 25.502-22.701 25.502-12.199 0-22.698-8.003-22.698-25.502V78.201c0-17.503 10.499-25.903 22.698-25.903 12.202 0 22.701 8.404 22.701 25.903v98.294zm240.2-12.198V131.4h-54.601v32.897h-40.201l82.6-161.699h-62.999l-82.6 161.699v54.601h103.2v32.9H638.9v-32.9h18.6v-54.601h-18.6z"/><path fill="#F9A818" d="M177.198 3.426l-51.399 100.198 100.7-100.198h-49.301zm122.803 46.698l.197-.197-.197.197zm.498-.197l.101-.301-.101.301zm.101-.301l41.6-41.402 2.201-2.201c-19.801 7.3-36.203 21.902-43.801 43.603zm141.901-16.8v-.201c0-.498-14.04-19.553-35.102-26.7v-.1l-111.898 111.4v62.601l57-56.899V78.126c0-17.499 11.001-25.9 23.2-25.9 20.55 0 22.698 21.202 22.698 21.202.101 1.098.2 2.299.2 3.5l43.902-44.102zM251.499 164.425v-3.098l-57.097 58.101h3.098v32.997h26.697l46.403-47.602v-40.398h-19.101zM398.5 132.027v44.399c0 17.499-10.402 25.499-22.699 25.499-19.685 0-22.601-22.802-22.601-23.8l.101-.1-43.801 43.798s7.602 9.502 8.2 10.102c3.199 3.201 7 5.497 10.801 8.501 2.198 1.998 16.899 8.8 16.899 8.8l110.1-111.303V78.126l.1-3.202-57.1 57.103zm136.598-73.204l.101.101-.101-.101zm28.7-55.397l-28.299 55.1v.201l55.3-55.301h-27.001zM402.799 249.925a45.29 45.29 0 0 0 5.199-1.8 79.164 79.164 0 0 0 12.4-5.898c1.301-.803 4.701-2.901 5.002-3.199 11.597-8.104 20.798-19.603 26.098-34.401 0-.101 1.201-3.5 1.6-5.1l-50.299 50.398zm77.701-78.099v47.602h16.1l54.599-54.999h-7l58-114L480.5 171.826zm158.001-7.401v-25.498l-79.3 80.501h24.298v32.997h5.5l68.503-69.4v-18.6h-19.001zM192.8 94.922l-98.298 98.401v26.102h37.297l54.902-55h-29.002L192.8 94.922zm4.701 36.503v21.199l21.5-21.099-21.5-.1z"/><path fill="#231F20" d="M800.721 139.384c-1.146-3.641-3.026-5.801-4.275-9.482 2.28-5.068 4.271-12.196 4.271-18.111 0-18.323-12.171-33.728-28.854-38.751.354-1.932 1.173-4.811 3.073-7.285-4.183 2.713-4.751 6.464-4.751 6.464s-1.433-3.93 4.52-10.337c-4.202 1.072-8.414 7.508-8.414 7.508s-1.311-1.794 7.119-10.123c-6.514.981-12.934 9.223-14.938 12.005-21.616.884-38.87 18.681-38.87 40.517 0 6.636 1.627 12.886 4.456 18.415-13.062 27.051-21.413 61.572-21.413 76.352 0 25.998 25.825 47.072 57.675 47.072 31.849 0 57.674-21.074 57.674-47.072-.004-13.151-6.618-41.933-17.273-67.172z"/><radialGradient id="a" cx="1447.396" cy="218.968" r="110.515" gradientTransform="matrix(.558 0 0 -.558 -47.379 284.615)" gradientUnits="userSpaceOnUse"><stop offset="0" stop-color="#fff"/><stop offset=".515" stop-color="#FDFDFD"/><stop offset=".7" stop-color="#F6F6F6"/><stop offset=".833" stop-color="#EBEBEB"/><stop offset=".939" stop-color="#DADADA"/><stop offset="1" stop-color="#ccc"/></radialGradient><path fill="url(#a)" d="M792.981 143.8c-.932-2.945-2.521-4.394-3.534-7.363 1.844-4.105 3.524-10.161 3.524-14.946 0-17.675-14.002-32.047-31.51-32.715l-.549-.065-.248.021-.474-.021c-18.107 0-32.787 14.673-32.787 32.78a32.576 32.576 0 0 0 3.604 14.89c-10.556 21.861-17.305 49.769-17.305 61.713 0 21.015 20.87 38.043 46.614 38.043 25.749 0 46.619-17.028 46.619-38.043.001-10.628-5.346-33.892-13.954-54.294z"/><linearGradient id="b" gradientUnits="userSpaceOnUse" x1="1401.26" y1="79.287" x2="1401.26" y2="55.54" gradientTransform="matrix(.558 0 0 -.558 -47.379 284.615)"><stop offset="0" stop-color="#FFE773"/><stop offset=".22" stop-color="#FFE36E"/><stop offset=".482" stop-color="#FFD960"/><stop offset=".765" stop-color="#FFC748"/><stop offset="1" stop-color="#FFB42E"/></linearGradient><path fill="url(#b)" d="M734.575 240.37c-7.322 0-13.259 5.933-13.259 13.252h26.515c-.003-7.319-5.939-13.252-13.256-13.252z"/><linearGradient id="c" gradientUnits="userSpaceOnUse" x1="1495.059" y1="79.287" x2="1495.059" y2="55.54" gradientTransform="matrix(.558 0 0 -.558 -47.379 284.615)"><stop offset="0" stop-color="#FFE773"/><stop offset=".22" stop-color="#FFE36E"/><stop offset=".482" stop-color="#FFD960"/><stop offset=".765" stop-color="#FFC748"/><stop offset="1" stop-color="#FFB42E"/></linearGradient><path fill="url(#c)" d="M786.916 240.37c-7.323 0-13.257 5.933-13.257 13.252h26.516c-.003-7.319-5.936-13.252-13.259-13.252z"/><linearGradient id="d" gradientUnits="userSpaceOnUse" x1="1447.395" y1="354.452" x2="1447.395" y2="245.541" gradientTransform="matrix(.558 0 0 -.558 -47.379 284.615)"><stop offset="0" stop-color="#FFE773"/><stop offset=".22" stop-color="#FFE36E"/><stop offset=".482" stop-color="#FFD960"/><stop offset=".765" stop-color="#FFC748"/><stop offset="1" stop-color="#FFB42E"/></linearGradient><ellipse fill="url(#d)" cx="760.32" cy="117.207" rx="33.2" ry="30.388"/><path fill="#231F20" d="M792.981 113.656c0 18.038-14.626 32.661-32.664 32.661-18.039 0-32.662-14.623-32.662-32.661 0-18.032 14.623-32.658 32.662-32.658 18.038 0 32.664 14.626 32.664 32.658z"/><circle fill="#fff" cx="740.861" cy="104.829" r="13.2"/><path fill="#231F20" d="M745.156 99.588c-2.888 0-5.24 2.343-5.24 5.231a5.246 5.246 0 0 0 5.24 5.243 5.242 5.242 0 0 0 5.24-5.243 5.233 5.233 0 0 0-5.24-5.231z"/><circle fill="#fff" cx="747.186" cy="102.704" r="1.516"/><circle fill="#fff" cx="749.143" cy="104.949" r=".714"/><circle fill="#fff" cx="746.844" cy="106.701" r=".665"/><path fill="#fff" d="M779.775 91.629c7.292 0 13.203 5.908 13.203 13.199 0 7.292-5.911 13.2-13.203 13.2-7.288 0-13.199-5.908-13.199-13.2-.001-7.291 5.911-13.199 13.199-13.199z"/><path fill="#231F20" d="M774.811 99.588a5.24 5.24 0 0 1 5.24 5.231 5.246 5.246 0 0 1-5.24 5.243 5.24 5.24 0 0 1-5.24-5.243 5.232 5.232 0 0 1 5.24-5.231z"/><path fill="#fff" d="M778.314 102.705c0 .838-.684 1.519-1.524 1.519a1.513 1.513 0 0 1-1.508-1.519c0-.84.677-1.518 1.508-1.518.84.001 1.524.678 1.524 1.518zm.439 1.534c.392 0 .708.316.708.712a.707.707 0 0 1-.708.708.71.71 0 1 1 0-1.42z"/><circle fill="#fff" cx="776.451" cy="106.701" r=".665"/><path fill="#FFD8F4" d="M767.344 119.552l-2.722 4.691c-1.192 2.076-2.764 4.924-4.341 4.927-1.574.007-3.146-2.841-4.343-4.927l-2.71-4.691c-1.605-2.791-1.232-5.189.611-6.491l4.717-1.035h4.435c4.801-.001 6.749 3.368 4.353 7.526z"/><radialGradient id="e" cx="1447.428" cy="299.096" r="12.602" gradientTransform="matrix(.558 0 0 -.558 -47.379 284.615)" gradientUnits="userSpaceOnUse"><stop offset="0" stop-color="#F7E563"/><stop offset=".095" stop-color="#F4DF5A"/><stop offset=".321" stop-color="#F0D44B"/><stop offset=".588" stop-color="#EECE43"/><stop offset="1" stop-color="#EDCC40"/></radialGradient><path fill="url(#e)" d="M763.047 111.913h-5.422c-4.798 0-6.742 2.276-4.343 5.083l2.716 3.174c1.197 1.408 2.766 3.34 4.343 3.334 1.571-.007 3.146-1.926 4.337-3.334l2.716-3.174c2.396-2.807.452-5.083-4.347-5.083z"/><ellipse transform="rotate(-58 706.124 168.972)" fill="#231F20" cx="706.101" cy="168.98" rx="33.166" ry="7.73"/><path fill="#231F20" d="M827 124.525c-13.601 12.269-26.947 19.638-29.811 16.465-2.854-3.171 5.857-15.678 19.462-27.942 13.606-12.268 26.954-19.641 29.813-16.47 2.855 3.173-5.853 15.69-19.464 27.947z"/><path fill="#E3B558" d="M797.299 96.327h-74.198c-.2 0-.301-.101-.301-.302v-3.098c0-.201.101-.302.301-.302h74.198c.201 0 .301.101.301.302v3.098c0 .202-.1.302-.301.302z"/><path fill="#F5CD7D" d="M798.899 83.626c0-13.601-8-22.899-19.303-28.801-3.499-1.9-11.299-4.099-11.399-4.199l-.037-.006c-.984-3.516-4.215-6.094-7.959-6.094-3.833 0-7.003 2.578-7.969 6.094l-.031.006c-.101 0-8 1.998-11.399 3.798-11.303 5.601-19.5 14.4-19.5 28.001 0 1.201-3.099 11.099-3.001 12.199h83.8c.099-1.101-3.202-9.699-3.202-10.998z"/><path fill="#E3B558" d="M751.799 50.823v29.303c0 2.998-2.5 5.501-5.498 5.501-3.098 0-5.601-2.503-5.601-5.501V54.524c3.5-1.8 7.198-3.098 11.099-3.701zm27.801 4.103v25.298c0 3.001-2.5 5.5-5.598 5.5-3.002 0-5.602-2.499-5.602-5.5v-29.4c3.999.799 7.7 2.2 11.2 4.102z"/></svg>