<svg xmlns="http://www.w3.org/2000/svg" xmlns:xlink="http://www.w3.org/1999/xlink" width="173" height="191" viewBox="0 0 173 191"><symbol id="a" viewBox="-40.576 -40.577 81.152 81.154"><path fill="#C4821B" d="M0 40.575c22.513 0 40.575-18.063 40.575-40.576S22.514-40.577 0-40.577-40.576-22.514-40.576-.001-22.251 40.575 0 40.575z"/><path opacity=".64" fill="#FFF" d="M0-35.341c-21.466 0-39.005 16.754-40.314 37.957l-.262-2.617c0-22.514 18.063-40.576 40.576-40.576S40.576-22.514 40.576-.001c0 .785 0 1.832-.262 2.617C39.268-18.587 21.466-35.341 0-35.341z"/><path opacity=".2" d="M0 32.722c21.204 0 38.481-15.969 40.313-36.647l.262 3.927A40.443 40.443 0 0 1 0 40.578 40.444 40.444 0 0 1-40.576.002c0-1.309 0-2.617.262-3.927C-38.22 16.753-20.941 32.722 0 32.722z"/></symbol><path fill="#F8A717" d="M173 3.5v184c0 1.9-1.6 3.5-3.5 3.5h-4c-.5 0-.9-.1-1.3-.2s-.8-.3-1.2-.601c-.5-.299-.9-.699-1.2-1.199-.3-.4-.399-.801-.6-1.2-.101-.398-.2-.898-.2-1.3 0-3.6-2.9-6.5-6.5-6.5h-6.6c-35.3 0-77.399-19-102.1-41.801C33.2 126.7 17 120.199 0 120V70h.3c16.899 0 33.3-6.199 45.8-17.5C71 29.9 112.8 12 147.9 12h6.6c3.6 0 6.5-2.9 6.5-6.5v-1c0-.5.1-.9.2-1.3s.3-.8.6-1.2c.8-1.2 2.2-2 3.7-2h4c1.9 0 3.5 1.6 3.5 3.5z"/><path opacity=".3" fill="#FFF" d="M173 13.5v10c0-1.9-1.6-3.5-3.5-3.5h-4c-2.5 0-4.5 2-4.5 4.5v1c0 3.6-2.9 6.5-6.5 6.5h-6.6C112.8 32 71 49.9 46.2 72.5 33.6 83.8 17.3 90 .301 90H0V80h.3c16.899 0 33.3-6.2 45.8-17.5C71 39.9 112.8 22 147.9 22h6.6c3.6 0 6.5-2.9 6.5-6.5v-1c0-2.5 2-4.5 4.5-4.5h4c1.9 0 3.5 1.6 3.5 3.5z"/><path opacity=".12" d="M173 180.5v7c0 1.9-1.6 3.5-3.5 3.5h-4c-.5 0-.9-.1-1.3-.2s-.8-.3-1.2-.601c-.5-.299-.9-.699-1.2-1.199l-.6-1.2c-.101-.398-.2-.898-.2-1.3 0-3.6-2.9-6.5-6.5-6.5h-6.6c-35.3 0-77.399-19-102.1-41.801C33.2 126.7 17 120.199 0 120v-7c17 .199 33.2 6.6 45.7 18.199C70.5 154 112.6 173 147.9 173h6.6c3.6 0 6.5 2.899 6.5 6.5 0 2.5 2 4.5 4.5 4.5h4c1.9 0 3.5-1.6 3.5-3.5z"/><path opacity=".05" d="M173 173.5v7c0 1.9-1.6 3.5-3.5 3.5h-4c-2.5 0-4.5-2-4.5-4.5 0-3.601-2.9-6.5-6.5-6.5h-6.6c-35.3 0-77.399-19-102.1-41.801-12.6-11.5-28.8-18-45.8-18.199v-7.001c17 .2 33.2 6.601 45.7 18.2C70.5 147 112.6 166 147.9 166h6.6c3.6 0 6.5 2.899 6.5 6.5 0 2.5 2 4.5 4.5 4.5h4c1.9 0 3.5-1.601 3.5-3.5z"/><path opacity=".15" fill="#FFF" d="M173 3.5v10c0-1.9-1.6-3.5-3.5-3.5h-4c-2.5 0-4.5 2-4.5 4.5v1c0 3.6-2.9 6.5-6.5 6.5h-6.6C112.8 22 71 39.899 46.2 62.5 33.6 73.8 17.3 80 .301 80H0V70h.3c16.899 0 33.3-6.199 45.8-17.5C71 29.9 112.8 12 147.9 12h6.6c3.6 0 6.5-2.9 6.5-6.5v-1c0-.5.1-.9.2-1.3s.3-.8.6-1.2c.8-1.2 2.2-2 3.7-2h4c1.9 0 3.5 1.6 3.5 3.5z"/><use xlink:href="#a" width="81.152" height="81.154" x="-40.576" y="-40.577" transform="matrix(.382 0 0 -.382 118.7 95.5)" overflow="visible"/><use xlink:href="#a" width="81.152" height="81.154" x="-40.576" y="-40.577" transform="matrix(.275 0 0 -.275 118.7 95.5)" overflow="visible"/></svg>