<svg xmlns="http://www.w3.org/2000/svg" xmlns:xlink="http://www.w3.org/1999/xlink" width="254.601" height="191" viewBox="0 0 254.601 191"><symbol id="a" viewBox="-103.103 -12.274 206.205 24.548"><path fill="#6D6D6D" d="M93.284-12.274H-93.283c-5.303 0-9.819 4.321-9.819 9.819v4.91c0 5.303 4.32 9.818 9.819 9.818H93.284c5.303 0 9.819-4.32 9.819-9.818v-4.91c.001-5.498-4.517-9.819-9.819-9.819z"/><path opacity=".18" fill="#fff" d="M-103.103 2.258H96.229V-3.24h-199.332v5.498z"/><path opacity=".15" fill="#fff" d="M93.284 11.686H-91.711c-5.303 0-11.391-3.928-11.391-9.428v-4.909l.785-.785c.393 5.303 5.303 9.229 10.605 9.229H93.284c5.106 0 9.034-3.928 9.23-9.033l-.393.785v4.91c.196 5.303-3.535 9.231-8.837 9.231z"/><path opacity=".12" d="M93.48-11.881H-88.962c-5.303 0-14.14 3.729-14.14 7.854v3.73h2.356c.196-3.928 6.677-7.463 11.783-7.463H93.48c5.105 0 8.837 3.535 9.033 7.463h-.393v-3.73c.197-4.123-3.337-7.854-8.64-7.854z"/></symbol><symbol id="b" viewBox="-30.439 -30.439 60.879 60.879"><path fill="#C4821B" d="M30.439 0c0-16.889-13.551-30.439-30.44-30.439S-30.439-16.889-30.439 0-16.89 30.439 0 30.439c16.692 0 30.439-13.55 30.439-30.439z"/><path opacity=".64" fill="#fff" d="M0-26.512c16.104 0 29.262 12.567 30.243 28.476L30.439 0c0-16.889-13.551-30.439-30.44-30.439S-30.439-16.889-30.439 0c0 .59 0 1.375.196 1.964C-29.458-13.943-16.3-26.512 0-26.512z"/><path opacity=".2" d="M0 24.549c-15.907 0-28.868-11.979-30.243-27.494L-30.439 0A30.34 30.34 0 0 0 0 30.439 30.341 30.341 0 0 0 30.44 0c0-.982 0-1.964-.197-2.945C28.672 12.568 15.71 24.549 0 24.549z"/></symbol><use xlink:href="#a" width="206.205" height="24.548" x="-103.103" y="-12.274" transform="matrix(.509 0 0 -.509 52.5 129.95)" overflow="visible"/><use xlink:href="#a" width="206.205" height="24.548" x="-103.103" y="-12.274" transform="matrix(.509 0 0 -.509 52.5 60.95)" overflow="visible"/><path fill="#F8A717" d="M254.601 70v50c-16.601.4-32.501 6.9-44.701 18.1C185.1 161 143 180 107.7 180h-6.6c-3.6 0-6.5 2.899-6.5 6.5 0 2.5-2 4.5-4.5 4.5h-4c-1.9 0-3.5-1.6-3.5-3.5V3.5c0-1.9 1.6-3.5 3.5-3.5h4c1.5 0 2.9.8 3.7 2 .3.4.4.8.6 1.2.1.4.201.9.201 1.3v1c0 3.6 2.899 6.5 6.5 6.5h6.6c35.1 0 76.9 17.899 101.7 40.5 12.4 11.2 28.499 17.3 45.2 17.5z"/><path opacity=".3" fill="#fff" d="M254.601 80v10c-16.701-.2-32.8-6.3-45.201-17.5C184.6 49.9 142.8 32 107.699 32h-6.6c-3.6 0-6.5-2.9-6.5-6.5v-1c0-2.5-2-4.5-4.5-4.5h-4c-1.9 0-3.5 1.6-3.5 3.5v-10c0-1.9 1.6-3.5 3.5-3.5h4c2.5 0 4.5 2 4.5 4.5v1c0 3.6 2.9 6.5 6.5 6.5h6.6c35.1 0 76.9 17.9 101.7 40.5C221.801 73.7 237.9 79.8 254.601 80z"/><path opacity=".12" d="M254.601 113v7c-16.601.4-32.501 6.9-44.701 18.1C185.1 161 143 180 107.7 180h-6.6c-3.6 0-6.5 2.899-6.5 6.5 0 2.5-2 4.5-4.5 4.5h-4c-1.9 0-3.5-1.6-3.5-3.5v-7c0 1.9 1.6 3.5 3.5 3.5h4c2.5 0 4.5-2 4.5-4.5 0-3.6 2.9-6.5 6.5-6.5h6.6c35.3 0 77.4-19 102.101-41.8 12.299-11.3 28.199-17.7 44.8-18.2z"/><path opacity=".05" d="M254.601 106v7c-16.601.399-32.5 6.9-44.701 18.1C185.1 154 143 173 107.7 173h-6.6c-3.6 0-6.5 2.9-6.5 6.5 0 2.5-2 4.5-4.5 4.5h-4c-1.9 0-3.5-1.6-3.5-3.5v-7c0 1.9 1.6 3.5 3.5 3.5h4c2.5 0 4.5-2 4.5-4.5 0-3.6 2.9-6.5 6.5-6.5h6.6c35.3 0 77.4-19 102.101-41.8 12.299-11.3 28.199-17.7 44.8-18.2z"/><path opacity=".15" fill="#fff" d="M254.601 70v10c-16.701-.2-32.8-6.3-45.201-17.5C184.6 39.9 142.8 22 107.699 22h-6.6c-3.6 0-6.5-2.9-6.5-6.5v-1c0-2.5-2-4.5-4.5-4.5h-4c-1.9 0-3.5 1.6-3.5 3.5v-10c0-1.9 1.6-3.5 3.5-3.5h4c1.5 0 2.9.8 3.7 2l.6 1.2c.1.4.2.9.2 1.3v1c0 3.6 2.9 6.5 6.5 6.5h6.6c35.1 0 76.9 17.899 101.7 40.5C221.801 63.7 237.9 69.8 254.601 70z"/><use xlink:href="#b" width="60.879" height="60.879" x="-30.439" y="-30.439" transform="matrix(.509 0 0 -.509 136.901 95.5)" overflow="visible"/><use xlink:href="#b" width="60.879" height="60.879" x="-30.439" y="-30.439" transform="matrix(.376 0 0 -.376 136.901 95.5)" overflow="visible"/></svg>