<svg xmlns="http://www.w3.org/2000/svg" viewBox="0 0 46 67"><style>.st0,.st1{fill-rule:evenodd;clip-rule:evenodd}.st0{opacity:.15}.st1{fill:#fff}</style><path class="st0" d="M46 32.5v-1.2c0-2.2-1.6-4.1-3.8-4.4-2.6-.3-4.2 1.5-4.2 4.1v-4c0-2.1-1.2-4.4-3.3-4.7C32 21.9 29 24.4 29 27v-3c0-2.1-.9-3.9-3.1-4.2-2.7-.4-4.9 1.6-4.9 4.2V7c0-2.1-1.6-4.6-3.8-5-2.7-.4-4.2 2.4-4.2 5 0 0 .1 31.2 0 29 0 1.7-1.6 2.8-3 1.9l-3.1-2c-2-1.3-4.7-.7-6 1.2l-.1.1c-1.3 2-.8 4.6 1.2 5.9l10.9 7 3.6 2.3c1.1.7 2.5 2.2 2.5 3.5v8c.1 1.9 1.2 3 3.1 3h17.4c2.3 0 4.1-1.9 3.9-4.2l-.7-7.1C46.2 38.4 46 32.5 46 32.5z"/><path class="st1" d="M46 30.5v-1.2c0-2.2-1.6-4.1-3.8-4.4-2.6-.3-4.2 1.5-4.2 4.1v-4c0-2.1-1.2-4.4-3.3-4.7C32 19.9 29 22.4 29 25v-3c0-2.1-.9-3.9-3.1-4.2-2.7-.4-4.9 1.6-4.9 4.2V5c0-2.1-1.6-4.6-3.8-5C14.5-.4 13 2.4 13 5c0 0 .1 31.2 0 29 0 1.7-1.6 2.8-3 1.9l-3.1-2c-2-1.3-4.7-.7-6 1.2l-.1.1c-1.3 2-.8 4.6 1.2 5.9l10.9 7 3.6 2.3c1.1.7 2.5 2.2 2.5 3.5v8c.1 1.9 1.2 3 3.1 3h17.4c2.3 0 4.1-1.9 3.9-4.2l-.7-7.1C46.2 36.4 46 30.5 46 30.5z"/></svg>