<svg xmlns="http://www.w3.org/2000/svg" width="67" height="23" viewBox="0 0 67 23"><path fill="#8AB71F" d="M47.018 11.28c0 7.322 4.1 11.708 10.204 11.708 6.135 0 9.772-4.979 9.772-11.344 0-6.663-4.008-11.643-10.111-11.643-6.383 0-9.865 5.112-9.865 11.279zm5.553.17c0-3.695 1.557-6.847 4.425-6.847 2.84 0 4.479 2.969 4.479 6.938 0 4.03-1.693 6.848-4.479 6.848-2.812 0-4.425-2.97-4.425-6.939z"/><path fill="#999" d="M37.883 7.265c-.725-.605-1.892-.136-1.892.761v1.973H23.266c-.703 0-1.272.565-1.272 1.262v1.466c0 .696.569 1.262 1.272 1.262h12.726v1.991c0 .896 1.167 1.366 1.892.761l4.762-3.977a.973.973 0 0 0 0-1.522l-4.763-3.977z"/><path fill="#606060" d="M0 .005v23.007L6.008 23v-9h8v9h6V0h-6v9h-8V0L0 .005z"/></svg>