<svg xmlns="http://www.w3.org/2000/svg" width="67" height="23" viewBox="0 0 67 23"><path fill="#606060" d="M10.111.001C4.008.001 0 4.981 0 11.645c0 6.364 3.637 11.344 9.772 11.344 6.104 0 10.204-4.386 10.204-11.708 0-6.168-3.482-11.28-9.865-11.28zm-.113 18.388c-2.785 0-4.479-2.817-4.479-6.848 0-3.969 1.639-6.938 4.479-6.938 2.868 0 4.425 3.152 4.425 6.847 0 3.969-1.612 6.939-4.425 6.939z"/><path fill="#999" d="M39.872 7.265c-.725-.605-1.892-.136-1.892.761v1.973H25.254c-.703 0-1.272.565-1.272 1.262v1.466c0 .696.569 1.262 1.272 1.262H37.98v1.991c0 .896 1.167 1.366 1.892.761l4.762-3.977a.973.973 0 0 0 0-1.522l-4.762-3.977z"/><path fill="#8AB71F" d="M60.986 0v9h-8V0h-6v23h6v-9h8v9l6.009.012V.005L60.986 0z"/></svg>