<svg xmlns="http://www.w3.org/2000/svg" width="50" height="44" viewBox="0 0 50 44"><path fill="#F8955C" d="M25.32 40.094c-8.235 0-15.222-5.194-17.685-12.55l1.962-.162c.947-.079 1.339-1.33.635-2.028l-4.624-4.589a1.042 1.042 0 0 0-1.607.133L.225 26.183c-.574.804.025 1.973.972 1.895l2.382-.197C6.277 37.393 14.989 44 25.32 44c10.76 0 20.408-6.844 22.688-16.998h-5.002c-2.189 7.811-9.132 13.092-17.686 13.092zm23.291-26.506l-2.225.512C43.095 5.687 34.903 0 25.32 0 14.56 0 5.272 6.845 2.992 16.999h5.002C10.182 9.188 16.767 3.905 25.32 3.905c7.683 0 14.279 4.523 17.131 11.102l-2.046.472c-.925.212-1.127 1.507-.328 2.097l5.256 3.877c.542.398 1.268.231 1.571-.362l2.951-5.768c.449-.877-.318-1.948-1.244-1.735z"/></svg>