<svg xmlns="http://www.w3.org/2000/svg" viewBox="0 0 100 100"><path d="M49.5 77C34.3 77 22 64.7 22 49.5S34.3 22 49.5 22 77 34.3 77 49.5 64.7 77 49.5 77zm9.8-33.1H58c1.1-4.5-1-8.8-5.1-10.2-2.5-.8-8-1.1-9.8 1.4-.5.8-1 3.5.1 3.8.8.2 3.1-1.7 3.9-1.9 3.5-1.1 9.5 1.4 6.6 6.4-.1.2-.2.4-.3.5H40.7c-.9 0-1 3 0 3h8.4c-.5.3-1 .5-1.5.8-1.6.8-3.3 1.7-4.6 3.1h-2.3c-.9 0-1 3 0 3h.6c-1.5 4.8 1.1 9.8 5.3 11.4 3 1.2 9.5 1.4 11.8-1.7.6-.8 1-3.6-.2-3.9-.5-.1-1.6.9-2.1 1.2-1 .6-2 1-3.1 1.3-2.1.5-4.7.4-6.4-1.2-1.6-1.4-2.1-4.3-1-6.2.2-.3.4-.6.7-.9h13c.9 0 1-3 0-3h-8.4c.2-.1.5-.2.7-.3 1.6-.8 3.3-1.8 4.5-3.2l.3-.3h2.8c1-.1 1.1-3.1.1-3.1z"/></svg>