<svg xmlns="http://www.w3.org/2000/svg" viewBox="0 0 100 100"><path d="M64.3 46v3.2C54.6 52.5 40.5 56 40.5 56c-.4.1-.6 1-.4 2.1-1.4-.4-2.8-.9-4.1-1.5-.8-.4-1.2-1.1-1.2-2v-9.1L27 43.6v3.9c.2.2.4.4.4.8 0 .3-.1.5-.3.7.2 0 .3.1.3.3v.7c0 .2-.1.3-.3.3 0 0 0 .1.1.3l1.4 6.6c0 .2-.4.7-.6.7h-3.3c-.2 0-.4-.4-.4-.7l1.4-6.6c.1-.2.1-.3.1-.3-.2 0-.3-.1-.3-.3v-.8c0-.1.1-.3.2-.3-.2-.2-.3-.4-.3-.7 0-.3.4-.7.6-.9v-4.1l-4-.7v-.8L48.4 36 77 42.2v.8l-12.7 3zM41.2 56.8s.1 0 0 0c.1 0 .1 0 0 0 .1 0 .1 0 0 0l32.4-9.4c.4 0 .9.2 1.1.5.5.8 1.3 3 1.5 3.4l-.7 2.5s-1.6 0-14.6 3.8l1.1 1.3-1.5-.4.5 1.6-2-1.9-.9 2.8-.1-.4-.4-1.2-1 1.2.2-1.8c-4.7 1.4-12.5 4-13.8 4.4-1.4.4-2.8-6.1-1.8-6.4zm2 6.5c-.1 0 0 0 0 0zm-.1 0c-.2.1-.2 0 0 0z"/></svg>