<svg xmlns="http://www.w3.org/2000/svg" viewBox="0 0 100 100"><path d="M76 54.4l-1 1c-.5.4-1.1.6-1.8.6-.6 0-1.3-.2-1.7-.7L52.3 37.8c-.7-.6-1.5-.9-2.4-.9-.9 0-1.7.3-2.4.9L28.3 55.3c-.5.5-1.1.7-1.7.7s-1.3-.2-1.7-.7l-1-1c-.6-.5-.9-1.2-.9-2s.3-1.5.9-2l9.1-8.9-.1-12.4c0-.9 1.2-2 2.1-2h3.1c.8 0 1.8 1.1 1.8 2v7l8.3-7.8c.5-.4 1.1-.7 1.7-.7.6 0 1.3.2 1.7.7L76 50.4c.6.5.9 1.2.9 2 0 .7-.3 1.5-.9 2zM52 39.8l14.9 13v18.7c0 1.4-1.2 2.5-2.6 2.5H35.5c-1.4 0-2.6-1.1-2.6-2.5V52.8l14.9-13c1.2-1.1 3-1.1 4.2 0zm.9 25.9c0 .7.6 1.3 1.3 1.3h7.5c.7 0 1.3-.6 1.3-1.3v-7.5c0-.7-.6-1.3-1.3-1.3h-7.5c-.7 0-1.3.6-1.3 1.3v7.5zm-6-7.4c0-.7-.6-1.3-1.3-1.3h-7.5c-.7 0-1.3.6-1.3 1.3v7.5c0 .7.6 1.3 1.3 1.3h7.5c.7 0 1.3-.6 1.3-1.3v-7.5z"/></svg>