<svg xmlns="http://www.w3.org/2000/svg" viewBox="0 0 100 100"><path d="M60.3 69.3c-9.2 0-16.7-7.5-16.7-16.7s7.5-16.7 16.7-16.7S77 43.4 77 52.6s-7.5 16.7-16.7 16.7zm0-29.7c-7.2 0-13.1 5.9-13.1 13.1s5.9 13.1 13.1 13.1c7.2 0 13.1-5.9 13.1-13.1 0-7.3-5.9-13.1-13.1-13.1zm-16.4 5.7c-1.9-1.4-4.2-2.2-6.8-2.2-6.3 0-11.5 5.1-11.5 11.3s5.2 11.3 11.5 11.3c3.1 0 6-1.2 8-3.2.7 1 1.5 1.9 2.3 2.8-2.7 2.5-6.4 4-10.4 4-8.2 0-15-6.6-15-14.9 0-8.1 6.6-14.7 14.7-14.9L31 34.2l2.8-3.2h6.8l2.8 3.2-5.8 5.4c3.1.1 5.9 1.1 8.3 2.7-.3.3-1.8 2.6-2 3z"/></svg>