<svg xmlns="http://www.w3.org/2000/svg" xmlns:xlink="http://www.w3.org/1999/xlink" width="2730" height="1511" viewBox="0 0 2730 1511"><defs><style>.a{fill:#ffc594}.b{fill:#8c6239}.c{fill:#754c24}.d,.e,.w{fill:#fff}.ac,.ad,.d,.p,.w{opacity:.2}.ac,.d,.e,.l{isolation:isolate}.e,.l{opacity:.1}.f{fill:#ff931e}.g{fill:#3fa9f5}.h{fill:#ed1c24}.i{fill:#39b54a}.j{fill:#9b7b62}.k{fill:#edd2b5}.m{fill:#eaeaea}.n{fill:#ffd161}.o{fill:#f7f7f7}.p{fill:url(#a)}.q{fill:#333}.r{opacity:.8}.s{fill:#cdd0d5}.t{opacity:.02}.u{opacity:.5}.v{opacity:.15}.aa,.x,.z{fill:none;stroke-miterlimit:10}.x,.z{stroke:#272622}.x{stroke-width:1.96px}.y{fill:#272622}.z{stroke-linecap:round;stroke-width:2.62px}.aa{stroke:#deece3;stroke-width:14.63px}.ab{fill:#ffc687}</style><linearGradient id="a" x1="2070.75" y1="397.78" x2="2049.68" y2="370.04" gradientUnits="userSpaceOnUse"><stop offset="0"/><stop offset="1" stop-color="#fff" stop-opacity="0"/></linearGradient><symbol id="b" viewBox="0 0 102.6 117.4"><path class="a" d="M94.9 116.3H7.7V2.3h87.2v114z"/><path class="b" d="M94.9 7.6H7.7L0 0h102.6l-7.7 7.6zM7.7 109.8h87.2l7.7 7.6H0l7.7-7.6z"/><path class="c" d="M7.7 7.6v102.2L0 117.4V0l7.7 7.6zM94.9 7.6v102.2l7.7 7.6V0l-7.7 7.6z"/><path class="d" d="M95 109.8L7.4 7.1H95v102.7z"/><path class="e" d="M7.3 57.4l43.2 52.4H95L7.3 30.7v26.7zM7.3 24.3l87.8 63.4-.1-4.9-87.7-74v15.5z"/><path class="f" d="M49 55.57l6.08 1.49a.75.75 0 0 0 1.16-.15c.26-.39 1.53-2.21 2.11-1.91.23.12.08 1.48.12 1.76a13.29 13.29 0 0 1-.42 3.94c-.58 3.19-1.73 6-5.65 5.21-4.59-.91-12.08-7.43-11.86-12.51h-1.48c.33 4.8 26.36 4.29 12.1-5.58v1.28c2.18-1 9-5 10.74-1.41.93 1.92-.81 5.65-1.42 7.49-.76 2.25-1.69 4.46-2.3 6.76-.53 2-.14 4.37-2.52 4.79-4.24.75-10.44-4.23-13.32-6.79-1.34-1.2-3.23-2.8-3.84-4.54-.8-2.27 2.2-4.91 3.88-3.59.68.54 1 3.6 1.27 4.38.76 2.66 1.53 5.31 2.4 7.94 1.45 4.39 3 9.52 6 13.15 1.77 2.14 4 3.23 6.32 1.13 2.13-2 2.29-3.43-.19-4.55C53 71.52 46.56 71 41.05 69.83c-1.37-.3-16.11-4.32-15.19-5.18l-1.23-.33c1.74 5 6.16 13.11 10.5 5.38 3.48-6.2 5.15-16.5 3-23.34l-1.09.83c7.47 4.15 14.21 3 20-3.26l-1.23-.33a30.58 30.58 0 0 1 2 10.17l1.38-.37c.43 1 3.71-1 4.71 1.37.74 1.72-1.12 4.45-2 5.82A71.4 71.4 0 0 1 52.65 72c-.65.69.39 1.74 1 1 2.36-2.51 16.51-15.8 10.52-20.38-1.15-.88-7.4-1.11-6.25 1.44.31.68 1.4.32 1.38-.37a31.57 31.57 0 0 0-2.07-10.56.75.75 0 0 0-1.23-.24c-5.31 5.74-11.34 6.85-18.21 3a.75.75 0 0 0-1.09.83c1.64 5.31.49 11.87-1 17.1-.58 2.11-1.37 5.54-3.21 7-3.55 2.75-5.71-4.59-6.51-6.89a.75.75 0 0 0-1.23-.33c-2.69 2.5 2.93 4.29 4.49 4.81 6.67 2.22 13.74 3.31 20.59 4.82 2.09.46 5.69.65 7.48 1.91 1.08.76 1.61.92-.05 2.23s-2.6.63-3.87-.68C49 72 47.31 63.53 45.56 57.5c-1-3.43-.62-7.73-5-6.95-3.8.68-4.81 3.26-2.81 6.49C40 60.74 55.61 73.78 58.9 66c1-2.34 1.22-5.41 2.09-7.89 1-2.87 2.48-6 2.49-9.14 0-7.45-9.49-2.88-13.07-1.18a.75.75 0 0 0 0 1.28c11.79 8.15-9.77 5.83-9.87 4.3a.74.74 0 0 0-1.48 0c-.3 6.88 14.94 20.4 19.52 11.17.93-1.86 2.92-9.83.45-11.27-1.28-.75-1.69.46-2.67 1-1.93 1-.43.76-2.91.07a9.58 9.58 0 0 0-4.82-.16c-.93.18-.54 1.6.39 1.42z"/><path class="g" d="M35 37.91c-2.39 4.44-4.54 9-6.48 13.63l1.67-.44c-4.16-3.32 1.32-3.82 4.3-4.1a101.64 101.64 0 0 1 16.41.12c2.53.17 5.06.39 7.58.67 1.43.16 4 1.07 5.4.76.9-.2.78 1 .9-.64.1-1.44-.15-.54-1.2-.78a18.23 18.23 0 0 0-8.11.22c-10.87 3.37-16.65 13-17.38 23.88a1 1 0 0 0 1.86.5q7.82-13 14.71-26.54L52.87 45a58.59 58.59 0 0 0 9.8 25.09c1.63 2.32 4.28 7 6.9 8.12 1.94.81 5.9-.3 8-.51.95-.1 11.8-.61 8.46-3.54-1.06-.92-4.14-.65-5.39-.72-3.48-.18-7-.18-10.46-.13A172.54 172.54 0 0 0 45.87 75c-2.11.33-12.55 1.8-8.8 6.11a1 1 0 0 0 1 .26c8.74-3.39 17.73-7.68 22.69-16.06s6.2-19.17 8.51-28.59h-1.96a185.74 185.74 0 0 1 6.28 27.13c.2 1.27 2.12.73 1.93-.53a185.74 185.74 0 0 0-6.28-27.13 1 1 0 0 0-1.93 0c-3 12-4.1 26.81-14.43 35.14a45.21 45.21 0 0 1-9.18 5.51c-.83.39-5.59 1.86-5.33 2.71-.06-.21-.07-.29.25-.45a25.39 25.39 0 0 1 7.51-2.12 169.56 169.56 0 0 1 25.07-1.71c3.45 0 6.91 0 10.35.19.68 0 2.41.55 3 .3.94-.4.78-.75-.12-1-1.1-.36-3.87.63-5 .76-2.81.32-7.32 1.59-9.73 0-4.12-2.72-7.43-9.29-9.57-13.61a58.91 58.91 0 0 1-5.3-17.43 1 1 0 0 0-1.83-.29q-6.92 13.52-14.74 26.53l1.86.5c.53-7.81 3.48-14.78 10.21-19.17A16.44 16.44 0 0 1 59.76 49c1.33 0 2.68.2 4 .12 2.91-.17 3.06-1.88.27-2.58C59 45.29 53.39 45.22 48.26 45c-5.77-.3-12.17-.8-17.84.65-4.28 1.1-5.22 4-1.62 6.9a1 1 0 0 0 1.67-.44c1.88-4.5 4-8.86 6.28-13.15.61-1.13-1.12-2.14-1.73-1z"/><path class="h" d="M36.24 61.35a75.89 75.89 0 0 1 10 4.79l.18-1.35a16.31 16.31 0 0 1-11.37-.93c-.85-.38-1.59.79-.75 1.28 2.71 1.56 4.25 4.19 6.26 6.48a22.44 22.44 0 0 0 7.85 5.79l.4-1.41c-1.8 0-4.9.34-2-.9a43.6 43.6 0 0 1 6.6-2.1c2.88-.72 11.17-3.29 13.57-.49l.72-1.23c-3.15-.73-10.56-2-10.36-6.44.12-2.54 2.93-4.85 4.66-6.44 2.51-2.31 7.2-4.84 8.18-8.34l-1.42-.39c-1.33 5.73-22.92-3.88-27.46-3.26-3.36.46-4.08 2.95-3.3 6a21 21 0 0 0 1.54 3.86c1.12 2.31 3.15 3.51.45 4.54C32.68 63.53 26.53 57 24.15 51l-.91.91c5.14 1.16 10.33 2.34 15.63 2.48 3.4.09 5.1 1 7.7 3a17.27 17.27 0 0 0 3.9 2.32c7 2.85 12.53-2 16.51-7.24l-1.35-.18c2.14 5.49 1.5 12.95 1.53 18.75a25.59 25.59 0 0 1 0 3.86c-.05.33.12 1-.06 1.28-.65.91 0-.16-1.07 0-2.76.54-6.08-.22-8.95.1a26.65 26.65 0 0 0-7.15 1.84.77.77 0 0 0-.52.91c.59 3.54 3 3.54 5.08 1.1 3.7-4.25 5.64-10.67 7.05-16C64.49 53 65.58 34.91 50 33.63c-.79-.06-.93 1-.37 1.38a12.21 12.21 0 0 1 4.86 6c.34.87 1.77.49 1.42-.39a14.15 14.15 0 0 0-5.54-6.92L50 35.1c15.25 1.26 12.6 20.4 9.54 30.7-1.28 4.3-3 10.51-6.39 13.72-.54.51-3.2 1.8-2.28-.32a34.13 34.13 0 0 1 10.22-1.56c2.2 0 4.61.52 6.77.19a.74.74 0 0 0 .52-.52c1.21-3.22.27-8.3.15-11.65-.15-4.33.13-9.59-1.47-13.71a.75.75 0 0 0-1.35-.18c-2.67 3.54-6.14 7.39-11 7.4a11.37 11.37 0 0 1-6.08-2c-1.48-.94-3.21-3.61-4.7-4.14-1.72-.62-4.1 0-6-.1a82.62 82.62 0 0 1-14.32-2.4c-.49-.11-1.13.35-.91.91 3.72 9.26 10.83 12.69 20.44 10.11a.75.75 0 0 0 .44-1.09C26.29 32.12 67.22 62.76 70.18 50a.74.74 0 0 0-1.42-.39c-.71 2.54-4.33 4.67-6.23 6.3-2.19 1.89-4.81 4-6.06 6.7-3.07 6.62 6.28 9 10.84 10a.75.75 0 0 0 .69-1.18c-3.57-4.17-15.43 0-19.47 1.42-1.12.4-4.79 1.34-4.74 3 .06 2 3.84 1.61 5 1.61.69 0 1.07-1.06.37-1.38a24.07 24.07 0 0 1-9-7.32 18.75 18.75 0 0 0-5.12-5l-.75 1.28a18.06 18.06 0 0 0 12.5 1.08.75.75 0 0 0 .21-1.26 78.51 78.51 0 0 0-10.37-4.94c-.89-.35-1.27 1.08-.39 1.42z"/><path class="i" d="M39.69 38.2a36.62 36.62 0 0 0 14.1 11.71l.21-1.34c-7.71 3-25.9 12.64-19 23.29a.74.74 0 0 0 1.35-.57c-.52-3.55-.86-7.5 2.06-10.1 2-1.76 4.81-2.61 7.17-3.7a44.2 44.2 0 0 0 17.3-14.3l-1.35-.57C59.71 50.8 56.85 61 59 69.43c.28 1.09 1.09.48-.64.42-2.57-.08-5.66 1.63-7.93 2.64-.62.28-.37 1.17.18 1.35 8.6 2.84 23.31 5.88 24.62-6.94.43-4.24-.61-8.64-1.85-12.67-.54-1.74-1.16-3.45-1.81-5.15-.24-.62-.84-2.59-1-2.22.24-.67-.56-1.07-1.09-.83-8.11 3.63 6.62 7.54 7.65 9.31 3 5.11-13.7 5.53-15.77 5.54-2.8 0-11.93-1.59-14 1.11-2.74 3.49 8.55 8.71 10.12 9.62l.37-1.38c-5.09 0-10.17-.24-15.25-.64-2.38-.19-5.31-.06-7.6-.74-3.46-1-3.18-2-3.4-5.52a.74.74 0 0 0-1.48 0c-.34 3.66-1.89 9.67.3 13.1 1.75 2.73 6.2 3.81 8.9 5.22.84.44 1.59-.83.75-1.28-2.38-1.25-6.8-2.36-8.37-4.69-2-2.91-.38-9.24-.1-12.35h-1.46l.35 5.78a.77.77 0 0 0 .74.74 222.07 222.07 0 0 0 26.63 1.85.74.74 0 0 0 .37-1.38c-2-1.17-8.52-3.87-9.36-6.38-.63-1.87 1.76-1.54 3.5-1.62 5.69-.26 11.39.35 17.06-.36 3.35-.42 8.31-1.35 9.3-5.24.51-2-.15-2.28-1.76-3.13s-10.86-4.44-6.7-6.31l-1.09-.83c-.39 1.1 1.23 3.67 1.59 4.65a48.42 48.42 0 0 1 2.93 11.34c.41 3.78.2 8.36-3.15 10.83-5.35 3.94-14 1-19.53-.85l.18 1.35c2.6-1.16 5.72-1.44 8.21-2.55 1-.44 1.07-.09 1.32-1.25s-.79-4-.82-5.46C59.78 57.29 61.4 50 63 43a.74.74 0 0 0-1.35-.57 41.72 41.72 0 0 1-13.46 12.13c-2.88 1.57-6.07 2.57-8.88 4.24-4.92 2.92-5.15 7.61-4.38 12.87l1.35-.57C30.11 61.66 47.42 52.71 54.35 50c.53-.21.81-1 .18-1.35A35.26 35.26 0 0 1 41 37.46c-.56-.76-1.84 0-1.28.75z"/></symbol></defs><title>other</title><path class="j" d="M1885.95 398h394.69v307.88h-394.69z"/><path class="k" d="M2250.64 390.12h-334.69l-30 7.88h394.69l-30-7.88z"/><ellipse class="l" cx="2061.91" cy="393.81" rx="15.71" ry="2.19"/><path class="m" d="M2072.45 355.9s.12-28.31-29.95-31.36c0 0-8.42-.71-4.91 5s4.06 5.87 4.39 7.9l-.16 4.09 22.55 23.31 11.64-5.45z"/><path class="n" d="M2090.31 353.03l3.29 1.07-3.45.28.16-1.35zM2065.17 388.31l-.45-.47-4.06 3.89-2.39.36.1.64 1.79-.27-.79 1.28.56.34.7-1.13.21 1.28.64-.1-.32-1.98 4.01-3.84zM2066.11 387l.62.2-1.68 5.36.73 2.31-.62.19-.55-1.73-.79 1.28-.56-.35.71-1.13-1.24.38-.19-.62 1.9-.59 1.67-5.3z"/><path class="o" d="M2084.5 347.1c-6.06-.15-10.3 7.12-10.3 7.12-.28 1.25-5.12 7.73-6.93 6.17-.17-.37-.34-.73-.53-1.1-2.47-10.76-10.42-16.4-15.5-19.24a15.79 15.79 0 0 0-2.07-1 56 56 0 0 0-11.16-6 69.25 69.25 0 0 0-16.13-4.06 77.14 77.14 0 0 0-8.3-.58 66 66 0 0 0-7.08.12 20 20 0 0 0-6.33 1.17c-1.41.59-2.87 1.63-2.86 3.32s1.17 2.33 2.48 2.87a21 21 0 0 0 3.53 1.06 11.73 11.73 0 0 0-1.79.61 4.65 4.65 0 0 0-2.81 2.55c-1 3.13 3 3.9 5.16 4.31s4.27.68 6.41.94a6.9 6.9 0 0 0-1.15.29 11.71 11.71 0 0 0-4.9 2.15 3.46 3.46 0 0 0-1.28 2.4 3.3 3.3 0 0 0 .9 2.5 6.19 6.19 0 0 0 3.07 1.31 30.81 30.81 0 0 0 3.94.49l2.79.17a3.51 3.51 0 0 0-.41.58 3.8 3.8 0 0 0 .48 4c1.16 1.37 3.25 1.79 4.93 2.09s3.63.51 5.45.74l1.84.25c1 6 11 11.43 11 11.43s8.94 1.36 5.45 3.33a30.39 30.39 0 0 0-23.77 21.49q-.2.6-.39 1.21a41.56 41.56 0 0 0-1 4.39 36 36 0 0 0-.56 3.8 10.85 10.85 0 0 0 .07 3.49 2.12 2.12 0 0 0 1.52 1.82c.82.13 1.35-.42 1.76-1.07a11.46 11.46 0 0 0 .88-1.82 6.38 6.38 0 0 0 .16 1 2.52 2.52 0 0 0 1.12 1.73c1.59.79 2.35-1.26 2.76-2.38s.74-2.22 1.07-3.35a3.68 3.68 0 0 0 .05.64 6.33 6.33 0 0 0 .72 2.81 1.87 1.87 0 0 0 1.17.9 1.79 1.79 0 0 0 1.41-.26 3.35 3.35 0 0 0 1-1.53 16.07 16.07 0 0 0 .56-1.89c1.12-.29 2.17-.38 3.21 2.17 1.67 4.09 8.48 2.57 8.48 2.57 3.64-.61 6.21-18.63 6.21-23.48 9.84 2 18.63 1.21 26.81-4.7s5.3-20.19 11.89-25.75c6.06-5.49 3.03-11.63-3.03-11.78zM2026.08 408.15s0 .35 0 0z"/><path class="p" d="M2075.64 384.74c-8.18 5.91-17 6.66-26.81 4.7 0 4.85-2.57 22.87-6.21 23.48 0 0-6.82 1.52-8.48-2.57s-3.36-1.38-5.33-2-.88-2.56-2.55-3.47-8.48-.3-8-4.09 5.6-20 24.23-23.63c3.48-2-5.45-3.33-5.45-3.33s-10.15-5.45-11.06-11.51l-.91-6.06s-14.39-11.81-14.24-15.3 6.82-4.54 16.51-4.39 18.78.61 23.93 3.48 13.25 8.63 15.6 19.69c1.29 3.45 7-4.17 7.35-5.53 0 0 4.24-7.27 10.3-7.12s9.09 6.29 3 11.89c-6.59 5.57-3.7 19.85-11.88 25.76z"/><circle class="q" cx="2086.55" cy="351.17" r=".88"/><g class="r"><path class="s" d="M2061.08 364.45c-12.28-22.81-34.28-30.93-59-31.74 25.08.19 47.33 8.62 59 31.74-.88-1.63-1.42-2.79 0 0z"/></g><g class="r"><path class="s" d="M2058.52 366.3c-12.67-20.17-32.52-26.11-55.62-25.72 22.92-1.08 43.5 5.08 55.62 25.72-1.01-1.6-1.27-2.16 0 0z"/></g><g class="r"><path class="s" d="M2055.1 366.59c-12.39-15.16-29.65-18.47-48.53-16.3 18.54-2.85 36.51.34 48.53 16.3-3.27-4.01-2.19-2.91 0 0z"/></g><g class="r"><path class="s" d="M2053.86 370.44c-9.84-11.49-23.58-14.34-38-13.31 14.44-1.73 28.86 1.34 38 13.31-1.4-1.64-3.02-3.94 0 0z"/></g><g class="r"><path class="s" d="M2050.87 371.18c-6.29-5.56-12.3-7-21-7 8.42-.78 15.25 1 21 7-1.4-1.24-1.3-1.37 0 0z"/></g><g class="r"><path class="s" d="M2039.09 381.28c-13.14 5.57-18.39 16.71-20.1 30.27 1.39-13.83 7.05-25.12 20.1-30.27-.92.39-1.57.62 0 0z"/></g><g class="r"><path class="s" d="M2041.44 383.55c-11.9 5-16.83 15.09-18.65 27.48 1.44-12.36 6.55-22.81 18.65-27.48-.94.45-1.26.45 0 0z"/></g><g class="r"><path class="s" d="M2041.3 385.41c-9.27 5.34-12.5 14.37-13 24.52.09-10 3.76-19.69 13-24.52-2.43 1.4-1.75.92 0 0z"/></g><g class="r"><path class="s" d="M2043.25 386.41c-7 4.25-9.74 11.35-10.47 19.18.35-8 2.92-15.14 10.47-19.18-1.01.59-2.38 1.27 0 0z"/></g><path d="M2003.7 336.93s1-.09 2.79-.11a70.85 70.85 0 0 1 7.35.28c1.52.13 3.16.33 4.89.59s3.54.59 5.4 1 3.76 1 5.67 1.57 3.82 1.32 5.68 2.15c.93.41 1.86.83 2.76 1.3s1.79.94 2.67 1.44a53.53 53.53 0 0 1 4.93 3.21c.76.57 1.49 1.17 2.21 1.74s1.35 1.22 2 1.8a47 47 0 0 1 3.38 3.59 19.88 19.88 0 0 1 1.37 1.71c.41.56.82 1.08 1.17 1.59.66 1 1.28 1.94 1.72 2.7L2059 364l-1.44-2.39c-.47-.75-1.11-1.62-1.81-2.63-.37-.49-.79-1-1.22-1.54l-.66-.83-.74-.83a46.64 46.64 0 0 0-3.42-3.49c-.66-.57-1.32-1.16-2-1.74s-1.44-1.14-2.2-1.7a53 53 0 0 0-4.9-3.15c-.87-.48-1.74-1-2.65-1.4s-1.81-.88-2.74-1.27c-1.84-.83-3.74-1.53-5.62-2.16s-3.77-1.17-5.62-1.59a81.06 81.06 0 0 0-10.2-1.79c-3-.34-5.55-.47-7.32-.51s-2.76-.05-2.76-.05z" class="t"/><path d="M2009.68 345.49s.85-.13 2.35-.23a50.69 50.69 0 0 1 6.23 0 55.68 55.68 0 0 1 8.74 1.15c1.58.35 3.2.76 4.81 1.29a48.8 48.8 0 0 1 4.82 1.8c.79.34 1.56.74 2.34 1.11s1.52.81 2.25 1.24a45.35 45.35 0 0 1 4.15 2.76 39.5 39.5 0 0 1 3.57 3c.53.52 1.05 1 1.54 1.52l1.36 1.49c.84 1 1.58 1.9 2.19 2.75s1.15 1.59 1.53 2.24l1.24 2-1.32-2c-.41-.63-1-1.33-1.62-2.17s-1.42-1.71-2.27-2.66l-1.38-1.45c-.49-.48-1-1-1.56-1.47-1.09-1-2.29-2-3.58-2.91a44.84 44.84 0 0 0-4.13-2.69c-.73-.42-1.48-.8-2.23-1.21s-1.53-.75-2.32-1.08a48.25 48.25 0 0 0-4.75-1.82c-1.6-.53-3.2-1-4.76-1.31a60.29 60.29 0 0 0-8.65-1.32 59.41 59.41 0 0 0-6.2-.19c-1.5.06-2.35.16-2.35.16z" class="t"/><path d="M2013.18 354.54s.71-.23 2-.5a38.28 38.28 0 0 1 5.36-.76 42.38 42.38 0 0 1 7.67.15 41.17 41.17 0 0 1 4.27.73 38.77 38.77 0 0 1 4.31 1.23 36.94 36.94 0 0 1 4.12 1.77c.67.32 1.31.67 1.93 1s1.24.73 1.83 1.12 1.16.77 1.7 1.19 1.07.81 1.56 1.23c1 .81 1.87 1.67 2.69 2.44s1.5 1.54 2.06 2.26 1.11 1.3 1.48 1.84l1.21 1.65-1.29-1.59c-.39-.52-1-1.08-1.56-1.76s-1.36-1.37-2.13-2.17-1.71-1.57-2.73-2.34q-.74-.61-1.57-1.17c-.54-.39-1.1-.79-1.69-1.15s-1.18-.76-1.81-1.09-1.26-.7-1.92-1a36.83 36.83 0 0 0-4.07-1.71 38.24 38.24 0 0 0-4.24-1.25 40.66 40.66 0 0 0-4.21-.76 45.79 45.79 0 0 0-7.59-.32 37.43 37.43 0 0 0-7.38.96z" class="t"/><path d="M2025.78 361.88a11.42 11.42 0 0 1 1.28-.34c.41-.1.91-.18 1.49-.29s1.24-.2 2-.22 1.51-.09 2.34-.08 1.71.07 2.61.14a27.54 27.54 0 0 1 2.76.48l1.4.33c.46.14.92.31 1.38.46a20.46 20.46 0 0 1 2.66 1.14l.64.31.6.37 1.18.72a19.46 19.46 0 0 1 2.09 1.58 15.07 15.07 0 0 1 1.71 1.6 13.6 13.6 0 0 1 1.34 1.45l.92 1.21.79 1.06-.88-1-1-1.14a18.55 18.55 0 0 0-1.4-1.36 14.75 14.75 0 0 0-1.75-1.5l-1-.75a8.26 8.26 0 0 0-1.08-.74l-1.16-.69-.59-.35-.63-.29a20.21 20.21 0 0 0-2.61-1.08c-.45-.16-.89-.33-1.34-.47l-1.37-.35a27 27 0 0 0-2.7-.51c-.89-.07-1.74-.2-2.56-.22s-1.59-.05-2.31 0-1.37.08-2 .11-1.09.11-1.5.19c-.84.12-1.31.23-1.31.23z" class="t"/><circle class="u" cx="2056.24" cy="441.87" r="10.04"/><path class="v" d="M2056.24 450.26a10 10 0 0 1-10-9.21v.83a10 10 0 1 0 20.08 0v-.83a10 10 0 0 1-10.08 9.21z"/><path class="w" d="M2056.24 432.66a10 10 0 0 1 10 9.63v-.41a10 10 0 1 0-20.08 0v.41a10 10 0 0 1 10.08-9.63z"/><circle class="u" cx="2083.29" cy="441.87" r="10.04"/><path class="v" d="M2083.29 450.26a10 10 0 0 1-10-9.21v.83a10 10 0 0 0 20.08 0v-.83a10 10 0 0 1-10.08 9.21z"/><path class="w" d="M2083.29 432.66a10 10 0 0 1 10 9.63v-.41a10 10 0 0 0-20.08 0v.41a10 10 0 0 1 10.08-9.63z"/><circle class="u" cx="2110.35" cy="441.87" r="10.04"/><path class="v" d="M2110.35 450.26a10 10 0 0 1-10-9.21v.83a10 10 0 1 0 20.08 0v-.83a10 10 0 0 1-10.08 9.21z"/><path class="w" d="M2110.35 432.66a10 10 0 0 1 10 9.63v-.41a10 10 0 1 0-20.08 0v.41a10 10 0 0 1 10.08-9.63z"/><path class="x" d="M1986.25 592.33h59.2v59.2h-59.2z"/><path class="y" d="M1993.94 641.81h43.83v4.39h-43.83zM2000.11 609.28h9.62v28.97h-9.62zM1995.51 608.44h18.34l-9.17-10.77-9.17 10.77zM2021.45 609.28h9.62v28.97h-9.62zM2016.85 608.44h18.34l-9.17-10.77-9.17 10.77z"/><path class="x" d="M2053.82 592.33h59.2v59.2h-59.2z"/><path class="y" d="M2084.31 646.2v-24.3h-2.05v24.3h-9.93v2.06h21.91v-2.06h-9.93z"/><path class="y" d="M2084.34 597.67l-3.76 5.57h1.48l-5 6.47 2.92-5.56h-2l2.8-6.48h-20.75a23.22 23.22 0 1 0 46.44 0z"/><path class="x" d="M2121.13 592.33h59.2v59.2h-59.2z"/><path class="y" d="M2135 614.74c3.74 0 7.48 2.66 8.06 6.15 1.18-2.54 4.44-4.31 7.49-4.31s6.31 1.77 7.49 4.31c.58-3.48 4.31-6.15 8.06-6.15a7.51 7.51 0 0 1 7.07 4.85c-.7-11.44-10.56-20.51-22.63-20.51s-21.93 9.07-22.63 20.51a7.51 7.51 0 0 1 7.09-4.85z"/><path class="z" d="M2150.59 596.7v44.59s0 6.27-6 6.27a6.18 6.18 0 0 1-6.38-5.67"/><path class="aa" d="M1885.95 503.46c-14.63 0-34.45 33.71 11.85 32.88"/><path class="ab" d="M1893 543.25s9.19 7.22 15.21 4.92 8.64-12 6.35-18.42c-2.51-5.73-8.6-7.63-9.71-6.68-.19-2.62-1.64-6.18-5.8-4.11s-7.37 6.61-7.76 10.45 1.71 13.84 1.71 13.84z"/><path class="aa" d="M2280.6 503.46c14.63 0 34.45 33.71-11.85 32.88"/><path class="ab" d="M2273.6 543.25s-9.19 7.22-15.21 4.92-8.64-12-6.35-18.42c2.51-5.73 8.6-7.63 9.71-6.68.19-2.62 1.64-6.18 5.8-4.11s7.37 6.61 7.76 10.45-1.71 13.84-1.71 13.84z"/><g class="v"><path d="M767.34 270.7h101.8v133h-101.8z"/><path d="M869.14 276.9h-101.8l-9-8.9h119.7l-8.9 8.9zM767.34 396.1h101.8l8.9 9h-119.7l9-9z"/><path d="M767.34 276.9v119.2l-9 9V268l9 8.9zM869.04 276.9v119.2l9 9V268l-9 8.9z"/><path class="ac" d="M869.24 396.1l-102.3-119.7h102.3v119.7z"/><path class="l" d="M766.84 335l50.5 61.1h51.9l-102.4-92.2V335zM766.84 296.4l102.5 73.9-.1-5.7-102.4-86.3v18.1z"/></g><use width="102.6" height="117.4" transform="matrix(1.17 0 0 1.17 758.35 266.06)" xlink:href="#b"/><path class="f" d="M2186.46 1307.48l2.54-1.48c.25 0 .4-.2.31-.4s-.43-1-.12-1.12c.12 0 .64.33.77.39a6.59 6.59 0 0 1 1.51 1.09c1.14 1 1.92 2 .35 3-1.85 1.22-7 2-9 .67l-.47.46c2.1 1.06 10.25-7.16 1.56-5.12l.53.31c.27-.93.83-4 2.86-3.68 1.1.17 2.09 1.62 2.66 2.26s1.31 1.61 2.07 2.35 1.77 1.1 1.18 1.94c-1 1.5-5.11 2.22-7.1 2.5a9.09 9.09 0 0 1-3.12.1c-1.2-.3-1.34-1.88-.24-2.08a8.76 8.76 0 0 1 2.23.67c1.35.41 2.7.81 4.07 1.18a27.41 27.41 0 0 0 7.4 1.32c1.46 0 2.64-.47 2.5-1.69s-.69-1.54-2-1c-2.63 1-4.92 2.93-7.18 4.35-.56.35-7 4-7 3.47l-.53.31c2.63.66 7.43 1.26 5.61-2a16.38 16.38 0 0 0-8.73-6.6v.54c4.13-1.32 5.81-3.69 5.07-7l-.53.3a18.72 18.72 0 0 1 4.88 1.84l.29-.52c.54.1.79-1.39 2.08-1.13 1 .19 1.49 1.43 1.79 2a22.51 22.51 0 0 1 1.76 5.68c.08.37.85.3.77-.07-.29-1.34-1.27-9-5.1-8.21-.74.14-2.84 2-1.41 2.29.38.07.58-.36.29-.52a19.31 19.31 0 0 0-5.06-1.92c-.26-.06-.58.07-.53.3.68 3-.79 5.19-4.59 6.4-.3.1-.33.45 0 .54a16.58 16.58 0 0 1 6.8 4.45c.69.69 1.86 1.77 1.87 2.69 0 1.77-3.74.67-5 .36-.28-.07-.56.08-.53.31.18 1.44 2.73.12 3.44-.23 3.07-1.54 5.79-3.48 8.62-5.24a12.57 12.57 0 0 1 3.2-1.86c.66-.15.9-.28.91.56s-.57 1-1.53 1c-3.38.27-7.45-1.27-10.52-2.19-1.74-.52-3.41-1.68-4.5-.13-.94 1.35-.19 2.29 1.8 2.45 2.27.19 12.7-1.5 10.54-4.4-.65-.88-1.86-1.69-2.61-2.56a12.67 12.67 0 0 0-3-3c-3.09-1.82-4.25 2.25-4.69 3.78-.07.23.28.37.53.31 7.18-1.69-.71 4.45-1.38 4.12-.41-.21-.86.21-.47.46 2.75 1.76 13.25.31 10.9-3.37-.47-.74-3.15-3.29-4.54-2.87-.72.22-.35.64-.46 1.06-.21.84.18.32-.91.92a4.25 4.25 0 0 0-1.61 1.46c-.23.33.49.56.72.22z"/><path class="g" d="M2174.62 1307.56a56.73 56.73 0 0 0 3.59 5.33l.35-.63c-2.72.49-1.16-1.34-.33-2.34a44 44 0 0 1 5.32-5.08q1.33-1.12 2.71-2.2c.53-.41 1.73-1 2.05-1.49.21-.33.66 0 0-.44s-.27-.08-.71.18a7.66 7.66 0 0 0-2.51 2.57c-2.09 4.2.06 8.33 4.35 11.2.4.27 1-.11.81-.46q-2.9-5.59-6.31-11l-.69.51a38.74 38.74 0 0 0 13.58 3c1.49.05 4.3.37 5.59-.18 1-.41 1.77-1.9 2.37-2.62.26-.32 3.53-3.81 1.24-3.48-.72.1-1.6 1.13-2 1.5-1.19 1-2.31 2.12-3.41 3.22a69.74 69.74 0 0 0-7.11 8c-.54.74-3.28 4.34-.28 4.22a.51.51 0 0 0 .42-.24c1.4-3.54 2.5-7.38.61-10.94s-6-6.58-9.16-9.59l-.62.6a116.56 116.56 0 0 1 13.3 4.64c.59.25 1-.48.4-.73a116.57 116.57 0 0 0-13.3-4.64c-.47-.13-1 .28-.62.6 4.06 3.84 9.83 7.78 10 13a13.6 13.6 0 0 1-.66 4.19c-.1.35-1 2.19-.59 2.32-.11 0-.14 0-.11-.19a8.74 8.74 0 0 1 1.53-2.85 68.7 68.7 0 0 1 7.35-8.2c1.09-1.08 2.2-2.15 3.4-3.17.24-.2 1-.62 1.09-.86s-.06-.42-.47-.22-1 1.35-1.3 1.74c-.77.95-1.69 2.66-3.13 3-2.46.62-6.25.06-8.73-.32a37.86 37.86 0 0 1-8.95-2.58c-.4-.17-.87.22-.69.51q3.41 5.43 6.31 11l.81-.46c-3.08-2.05-5-4.66-4.69-7.83a5.56 5.56 0 0 1 1.76-3.67c.44-.41.94-.79 1.34-1.22.86-.94.2-1.41-1-.71a39.86 39.86 0 0 0-5.73 4.52c-2 1.72-4.24 3.6-5.46 5.71-.92 1.6 0 2.6 2.35 2.18.41-.07.56-.36.35-.63a54.66 54.66 0 0 1-3.45-5.15c-.28-.47-1.25-.17-1 .29z"/><path class="h" d="M2184.76 1312.87a45.94 45.94 0 0 1 5.21-2l-.5-.38a7.53 7.53 0 0 1-4 3.31c-.43.17-.18.69.29.54a18.64 18.64 0 0 1 4.71-.38 14.85 14.85 0 0 0 4.93-1l-.45-.45c-.58.56-1.43 1.61-1 .4a14.57 14.57 0 0 1 1.22-2.57c.62-1.07 2.22-4.27 4.15-4.33l-.28-.52c-1.31.8-4.21 2.8-6 1.66-1-.65-1.08-2.09-1.18-3-.15-1.34.3-3.41-.84-4.57l-.62.35c2 1.8-9 6.19-10.17 7.75-.89 1.16-.08 2 1.43 2.48a14 14 0 0 0 2.1.46c1.32.21 2.47-.13 2 1-1.19 2.95-5.9 3.27-9.14 2.57l.09.5a40.06 40.06 0 0 0 6-4.27 6.6 6.6 0 0 1 3.74-1.66 11 11 0 0 0 2.22-.65c3.42-1.47 3.21-4.37 2.29-6.89l-.51.38c3 .67 5.87 2.67 8.29 4.07a13.69 13.69 0 0 1 1.6.95c.12.1.46.21.51.33.17.42-.07 0-.32.34-.66 1-2 1.84-2.83 2.8a9.32 9.32 0 0 0-1.53 2.67c-.06.16 0 .3.21.38 1.66.67 2.42-.06 2.09-1.31-.58-2.18-2.63-4.34-4.39-6.07-3.73-3.66-10.9-8.39-16.43-3.86-.28.23.12.53.45.45a8.44 8.44 0 0 1 4.07 0c.47.11.77-.43.29-.54a9.79 9.79 0 0 0-4.66 0l.45.45c5.41-4.43 12.52 1 15.82 4.49 1.38 1.44 3.41 3.47 3.65 5.31 0 .29-.28 1.43-.87.63a11.58 11.58 0 0 1 .87-1.48 13 13 0 0 1 1.76-2.08 22.83 22.83 0 0 0 2.25-2.06.23.23 0 0 0 0-.29c-.95-1.16-3.37-2.1-4.79-2.87-1.85-1-3.95-2.37-6.18-2.87-.34-.08-.6.13-.51.38.62 1.69 1.1 3.7-.45 5.2a6.34 6.34 0 0 1-2.8 1.4c-.87.23-2.53.12-3.23.46s-1.32 1.28-2 1.85a41.17 41.17 0 0 1-5.6 3.88.27.27 0 0 0 .09.5c5 1.09 8.76-.3 10.77-3.92.1-.17-.06-.38-.31-.4-17.33-1.48 8.55-6.78 4.21-10.79-.32-.29-.92 0-.62.35.83.84.55 2.48.62 3.46a6.88 6.88 0 0 0 .84 3.51c1.77 2.56 5.75.23 7.65-.93.31-.19.1-.54-.28-.52-2.88.1-5 4.79-5.66 6.4-.19.44-1 1.82-.26 2.21s1.9-.8 2.28-1.17c.22-.21-.1-.59-.45-.45a16.17 16.17 0 0 1-5.93 1 12.88 12.88 0 0 0-3.7.39l.29.54a8.38 8.38 0 0 0 4.46-3.63c.13-.23-.2-.48-.5-.38a47.48 47.48 0 0 0-5.38 2c-.43.19 0 .66.47.47z"/><path class="i" d="M2176.24 1306.18a24.62 24.62 0 0 0 9.4-1.54l-.5-.38c-1.22 3.13-3.06 11.13 3.6 11.54.46 0 .57-.4.2-.56-1.64-.7-3.4-1.55-3.54-3.09a8.72 8.72 0 0 1 .77-3.13 13.29 13.29 0 0 0-.39-8.85l-.67.28c2.82 2.56 6.13 5.92 10.34 7.29.54.18.55-.22 0 .3a6.94 6.94 0 0 0-1.45 3.11c-.08.26.37.4.62.27 3.94-2 9.93-5.82 5-9.33a19.45 19.45 0 0 0-5.87-2.5c-.9-.26-1.81-.48-2.72-.69-.34-.08-1.35-.37-1.24-.24a.44.44 0 0 0-.7.13c-1.09 3.4 5.26-.22 6.33-.12 3.09.31-2.1 5.6-2.76 6.24-.9.87-4.49 3.32-4.05 4.64.57 1.7 6.37-.55 7.25-.82l-.45-.45c-1.66 1.57-3.37 3.11-5.16 4.59a18.37 18.37 0 0 1-2.75 2.19c-1.54.83-1.84.51-3.39-.28-.42-.21-.84.21-.47.46 1.41 1 3.42 2.93 5.54 3.08 1.7.12 3.58-1 5-1.51.45-.15.16-.7-.29-.54-1.28.44-3.16 1.55-4.64 1.47-1.84-.1-4-2.12-5.17-3l-.47.46 2.52 1.29a.5.5 0 0 0 .54-.05 102.42 102.42 0 0 0 9.33-7.84c.24-.23-.1-.56-.45-.45-1.14.35-4.35 1.71-5.66 1.36-1-.26-.07-.92.45-1.48 1.72-1.83 3.8-3.45 5.33-5.39.9-1.14 2.1-2.91.81-4.16-.66-.64-1-.51-1.87-.21s-5.33 2.29-4.77.55l-.7.13c.33.39 1.92.51 2.44.64a30.64 30.64 0 0 1 5.66 1.84c1.7.79 3.54 2 3.49 3.6-.08 2.61-4.09 4.58-6.63 5.86l.62.27c.35-1.09 1.24-2.13 1.57-3.17.13-.41.31-.35-.1-.71a21.38 21.38 0 0 0-2.54-1.07 44.08 44.08 0 0 1-8-6.16c-.29-.27-.79 0-.67.28a12.57 12.57 0 0 1 .73 7.12c-.27 1.28-.88 2.51-1.09 3.79-.37 2.24 1.51 3.45 3.95 4.48l.2-.56c-5.91-.37-4.08-7.93-3-10.74.08-.21-.18-.51-.5-.38a23.68 23.68 0 0 1-9 1.51c-.49 0-.6.57-.1.58z"/><path class="ab" d="M2174 1337.4s-12.2 1.1-16.2-4.4-.8-15.5 4.9-19.9c5.5-3.6 11.9-1.8 12.4-.3 1.7-2.2 5-4.5 7.5-.3s2.7 10 .9 13.6-9.5 11.3-9.5 11.3z"/><path d="M1433.11 1311a10.92 10.92 0 0 1 1.4-6.15c1.24-1.87 3.68-2.92 4.43-5.13.49-1.46.2-3.67-1.46-4.21-2.26-.74-3.79 1.13-3.84 3.23h-7a8.31 8.31 0 0 1 3.9-7.39 13.25 13.25 0 0 1 9.15-1.05 7.74 7.74 0 0 1 6 4.92 8.4 8.4 0 0 1-2.44 9l-2.38 2.22a6.19 6.19 0 0 0-1.84 4.6zm-.85 6.29c0-4.6 7.74-4.61 7.74 0s-7.74 4.61-7.74.01z" class="ad"/></svg>