<svg xmlns="http://www.w3.org/2000/svg" xmlns:xlink="http://www.w3.org/1999/xlink" width="2730.7" height="1536" viewBox="0 0 2730.7 1536"><symbol id="K" viewBox="-41.2 -32.8 82.5 65.7"><linearGradient id="a" gradientUnits="userSpaceOnUse" x1="4438.251" y1="-11712.157" x2="4438.251" y2="-11706.51" gradientTransform="matrix(2.4348 0 0 -2.4348 -10806.033 -28521.877)"><stop offset="0" stop-color="#FFF"/><stop offset="1" stop-color="#F00" stop-opacity=".8"/></linearGradient><path opacity=".22" fill="url(#a)" d="M32.9-18.9h-65.4l-2.2 13.8h69.8z"/><path fill="#ADB6B1" d="M29.5 10c-.7-.1-1.4-.2-2.1-.2l-4.2 10.9c-.9 2.3-3.2 3.9-5.7 3.9h-33.9c-2.4 0-4.6-1.4-5.6-3.6l-5-11.3c-.7.1-1.4.1-2 .2.2 0 .4 3.6.5 3.8.3 2.7.9 5.4 1.9 7.8 2.1 5.1 5.9 6.9 10 6.8L14 28c1.7 0 3.4 0 5.1-.1h1.4c1.6-.3 2.9-1.8 3.9-3.3 2.7-4 4.1-9.5 5.1-14.6z"/><path fill="#14100F" d="M37-11.8v-19.3c0-.2-.1-.4-.1-.5 0-.1-.1-.3-.2-.4-.1-.2-.3-.4-.5-.5h-.1c-.3-.1-.6-.3-.8-.3H28.9c-.3 0-.6.1-.8.3-.2.1-.4.3-.6.5-.1.1-.1.2-.2.4s-.1.3-.1.5v19.4c0 .1 0 .2.1.4 0 .2.1.4.2.5.1.1.2.3.3.4l.3.3c.3.1.5.3.8.3h6.3c.3 0 .6-.1.8-.3.1-.1.3-.1.4-.3.1-.1.2-.2.3-.4.1-.1.2-.3.2-.5 0-.1 0-.2.1-.4v-.1z"/><path d="M36.2-32.5c-.3-.2-.7-.3-1.1-.3H29c-.4 0-.7.1-1.1.3h8.3zm.7.9c0-.1-.1-.3-.2-.4h-9.3c-.1.1-.1.2-.2.4h9.7zm.1.8v-.4h-9.9v.4H37zm-9.9.9H37v-.3h-9.9zm0 .9H37v-.3h-9.9zm0 .9H37v-.3h-9.9zm0 .9H37v-.4h-9.9zm0 .9H37v-.4h-9.9zm0 .9H37v-.4h-9.9zm0 .8H37v-.3h-9.9zm0 .9H37v-.3h-9.9zm0 .9H37v-.4h-9.9zm0 .9H37v-.4h-9.9zm0 .9H37v-.4h-9.9zm0 .8H37v-.3h-9.9zm0 .9H37v-.3h-9.9zm0 .9H37v-.4h-9.9zm0 .9H37v-.4h-9.9zm0 .9H37v-.4h-9.9zm0 .8H37v-.3h-9.9zm0 1H37v-.4h-9.9zm0 .8H37v-.3h-9.9zm0 .9H37v-.3h-9.9zm0 .9H37v-.4h-9.9zm9.9.5h-9.9c0 .1 0 .2.1.4H37v-.4zm-.3.9h-9.3c.1.1.2.3.3.4h8.7c.1-.1.2-.3.3-.4z" fill="#2B2525"/><radialGradient id="b" cx="4449.746" cy="-11703.255" r="3.325" gradientTransform="matrix(2.4348 0 0 -2.4348 -10806.033 -28521.877)" gradientUnits="userSpaceOnUse"><stop offset="0" stop-color="#605A5A"/><stop offset="1"/></radialGradient><path fill="url(#b)" d="M28.9-9.9v-22.9c-.3 0-.6.1-.8.3v22.3c.2.2.5.2.8.3z"/><radialGradient id="c" cx="4450.454" cy="-11703.254" r="3.327" gradientTransform="matrix(2.4348 0 0 -2.4348 -10806.033 -28521.877)" gradientUnits="userSpaceOnUse"><stop offset="0" stop-color="#605A5A"/><stop offset="1"/></radialGradient><path fill="url(#c)" d="M29.8-9.9h.9v-22.9h-.9z"/><radialGradient id="d" cx="4451.32" cy="-11703.254" r="3.327" gradientTransform="matrix(2.4348 0 0 -2.4348 -10806.033 -28521.877)" gradientUnits="userSpaceOnUse"><stop offset="0" stop-color="#605A5A"/><stop offset="1"/></radialGradient><path fill="url(#d)" d="M31.6-9.9h.9v-22.9h-.9z"/><radialGradient id="e" cx="4451.934" cy="-11703.191" r="3.327" gradientTransform="matrix(2.4348 0 0 -2.4348 -10806.033 -28521.877)" gradientUnits="userSpaceOnUse"><stop offset="0" stop-color="#605A5A"/><stop offset="1"/></radialGradient><path fill="url(#e)" d="M33.4-9.9h.9v-22.9h-.9z"/><radialGradient id="f" cx="4452.8" cy="-11703.254" r="3.326" gradientTransform="matrix(2.4348 0 0 -2.4348 -10806.033 -28521.877)" gradientUnits="userSpaceOnUse"><stop offset="0" stop-color="#605A5A"/><stop offset="1"/></radialGradient><path fill="url(#f)" d="M36.1-10.2v-22.4c-.3-.1-.6-.3-.8-.3V-10c.2.1.5 0 .8-.2z"/><path fill="#14100F" d="M-27.1-11.8v-19.3c0-.2-.1-.4-.1-.5 0-.1-.1-.3-.2-.4-.1-.2-.3-.4-.6-.5h-.1c-.3-.1-.6-.3-.8-.3h-6.3c-.3 0-.6.1-.8.3-.2.1-.4.3-.5.5-.1.1-.1.2-.2.4s-.1.3-.1.5v19.4c0 .1 0 .2.1.4 0 .2.1.4.2.5.1.1.2.3.3.4l.3.3c.3.1.5.3.8.3h6.3c.3 0 .6-.1.8-.3.1-.1.3-.1.4-.3.1-.1.2-.2.3-.4.1-.1.2-.3.2-.5 0-.1 0-.2.1-.4-.1 0-.1-.1-.1-.1z"/><path d="M-27.9-32.5c-.3-.2-.7-.3-1.1-.3h-6.1c-.4 0-.7.1-1.1.3h8.3zm.7.9c0-.1-.1-.3-.2-.4h-9.2c-.1.1-.1.2-.2.4h9.6zm.1.8v-.4H-37v.4h9.9zm-9.9.9h9.9v-.3H-37zm0 .9h9.9v-.3H-37zm0 .9h9.9v-.3H-37zm0 .9h9.9v-.4H-37zm0 .9h9.9v-.4H-37zm0 .9h9.9v-.4H-37zm0 .8h9.9v-.3H-37zm0 .9h9.9v-.3H-37zm0 .9h9.9v-.4H-37zm0 .9h9.9v-.4H-37zm0 .9h9.9v-.4H-37zm0 .8h9.9v-.3H-37zm0 .9h9.9v-.3H-37zm0 .9h9.9v-.4H-37zm0 .9h9.9v-.4H-37zm0 .9h9.9v-.4H-37zm0 .8h9.9v-.3H-37zm0 1h9.9v-.4H-37zm0 .8h9.9v-.3H-37zm0 .9h9.9v-.3H-37zm0 .9h9.9v-.4H-37zm9.9.5H-37c0 .1 0 .2.1.4h9.8v-.4zm-.3.9h-9.3c.1.1.2.3.3.4h8.7c.1-.1.2-.3.3-.4z" fill="#2B2525"/><radialGradient id="g" cx="4423.256" cy="-11703.286" r="3.325" gradientTransform="matrix(2.4348 0 0 -2.4348 -10806.033 -28521.877)" gradientUnits="userSpaceOnUse"><stop offset="0" stop-color="#605A5A"/><stop offset="1"/></radialGradient><path fill="url(#g)" d="M-35.2-9.9v-22.9c-.3 0-.6.1-.8.3v22.3c.1.2.4.2.8.3z"/><radialGradient id="h" cx="4424.247" cy="-11703.254" r="3.327" gradientTransform="matrix(2.4348 0 0 -2.4348 -10806.033 -28521.877)" gradientUnits="userSpaceOnUse"><stop offset="0" stop-color="#605A5A"/><stop offset="1"/></radialGradient><path fill="url(#h)" d="M-34.3-9.9h.9v-22.9h-.9z"/><radialGradient id="i" cx="4424.987" cy="-11703.254" r="3.327" gradientTransform="matrix(2.4348 0 0 -2.4348 -10806.033 -28521.877)" gradientUnits="userSpaceOnUse"><stop offset="0" stop-color="#605A5A"/><stop offset=".45" stop-color="#353232"/><stop offset="1"/></radialGradient><path fill="url(#i)" d="M-32.5-9.9h.9v-22.9h-.9z"/><radialGradient id="j" cx="4425.727" cy="-11703.16" r="3.327" gradientTransform="matrix(2.4348 0 0 -2.4348 -10806.033 -28521.877)" gradientUnits="userSpaceOnUse"><stop offset="0" stop-color="#605A5A"/><stop offset="1"/></radialGradient><path fill="url(#j)" d="M-30.7-9.9h.9v-22.9h-.9z"/><radialGradient id="k" cx="4426.247" cy="-11703.191" r="3.326" gradientTransform="matrix(2.4348 0 0 -2.4348 -10806.033 -28521.877)" gradientUnits="userSpaceOnUse"><stop offset="0" stop-color="#605A5A"/><stop offset="1"/></radialGradient><path fill="url(#k)" d="M-28.1-10.2v-22.4c-.3-.1-.6-.3-.8-.3V-10c.3.1.6 0 .8-.2z"/><path fill="#3F3E3E" d="M5.7 23.6H-4.8c-.6 0-1.1.5-1.1 1.1v1.2c0 .6.5 1.1 1.1 1.1H5.7c.6 0 1.1-.5 1.1-1.1v-1.2c0-.6-.5-1.1-1.1-1.1z"/><linearGradient id="l" gradientUnits="userSpaceOnUse" x1="4423.594" y1="-11721.729" x2="4423.594" y2="-11718.734" gradientTransform="matrix(2.4348 0 0 -2.4348 -10806.033 -28521.877)"><stop offset="0" stop-color="#E88486"/><stop offset=".052" stop-color="#E77C7E"/><stop offset=".334" stop-color="#E45859"/><stop offset=".595" stop-color="#E23D3D"/><stop offset=".825" stop-color="#E02D2D"/><stop offset="1" stop-color="#E02727"/></linearGradient><path fill="url(#l)" d="M-31.2 15.9c-.1-.3-.3-.6-.4-.9-.7-1.1-.7 1.3-.8 1.6-.3.9-1.3 1.2-2.1 1.4-1.8.4-4.2.3-5.8-.8-1.8-1.2-.5-3.9 1.2-4.4 1.9-.6 4-.4 5.8-1.1.4-.1.5-.5.4-.8l3 .4.2 2.4-1.5 2.2z"/><linearGradient id="m" gradientUnits="userSpaceOnUse" x1="4423.048" y1="-11721.729" x2="4423.048" y2="-11720.446" gradientTransform="matrix(2.4348 0 0 -2.4348 -10806.033 -28521.877)"><stop offset="0" stop-color="#E78383"/><stop offset=".431" stop-color="#E78585" stop-opacity=".828"/><stop offset=".586" stop-color="#E98C8C" stop-opacity=".766"/><stop offset=".697" stop-color="#EB9797" stop-opacity=".721"/><stop offset=".786" stop-color="#EEA8A8" stop-opacity=".686"/><stop offset=".863" stop-color="#F2BEBE" stop-opacity=".655"/><stop offset=".93" stop-color="#F8DADA" stop-opacity=".628"/><stop offset=".99" stop-color="#FEF9F9" stop-opacity=".604"/><stop offset="1" stop-color="#FFF" stop-opacity=".6"/></linearGradient><path fill="url(#m)" d="M-41.2 15.4s-.7 2.8 5 2.8c3.6-.1 3.7-1.5 3.7-1.5l.1-1.2c-2.9-.5-5.9-.6-8.8-.1z"/><linearGradient id="n" gradientUnits="userSpaceOnUse" x1="10378.083" y1="-11721.731" x2="10378.083" y2="-11718.739" gradientTransform="rotate(180 12652.012 -14260.939) scale(2.4348)"><stop offset="0" stop-color="#E88486"/><stop offset=".052" stop-color="#E77C7E"/><stop offset=".334" stop-color="#E45859"/><stop offset=".595" stop-color="#E23D3D"/><stop offset=".825" stop-color="#E02D2D"/><stop offset="1" stop-color="#E02727"/></linearGradient><path fill="url(#n)" d="M29.7 13.7l.2-2.4 3-.4c0 .4.1.7.4.8 1.9.7 3.9.5 5.8 1.1 1.7.5 2.9 3.1 1.2 4.4-1.5 1.1-4 1.2-5.8.8-.8-.1-1.8-.5-2.1-1.4-.1-.3-.1-2.7-.8-1.6-.2.3-.3.5-.4.9l-1.5-2.2z"/><linearGradient id="o" gradientUnits="userSpaceOnUse" x1="10377.538" y1="-11721.729" x2="10377.538" y2="-11720.446" gradientTransform="rotate(180 12652.012 -14260.939) scale(2.4348)"><stop offset="0" stop-color="#E78383"/><stop offset=".431" stop-color="#E78585" stop-opacity=".828"/><stop offset=".586" stop-color="#E98C8C" stop-opacity=".766"/><stop offset=".697" stop-color="#EB9797" stop-opacity=".721"/><stop offset=".786" stop-color="#EEA8A8" stop-opacity=".686"/><stop offset=".863" stop-color="#F2BEBE" stop-opacity=".655"/><stop offset=".93" stop-color="#F8DADA" stop-opacity=".628"/><stop offset=".99" stop-color="#FEF9F9" stop-opacity=".604"/><stop offset="1" stop-color="#FFF" stop-opacity=".6"/></linearGradient><path fill="url(#o)" d="M41.2 15.4s.7 2.8-5 2.8c-3.6-.1-3.7-1.5-3.7-1.5l-.1-1.2c2.9-.5 5.9-.6 8.8-.1z"/><path fill="#B8ABA3" d="M25.4 15.2h-50c-1.1 0-1.9-.9-2.2-1.8-.7-2-2.2-3.8-3.5-5.6-.6-.8-.1-2.1 1.1-2.8 18.7-9.1 40.6-9.1 59.3 0 1.2.6 1.7 1.9 1.1 2.8-1.3 1.9-2.9 3.6-3.5 5.6-.3 1-1.2 1.8-2.3 1.8z"/><path fill="#615957" d="M-7.4 12.9h-12.8c-1.8 0-3.3-1.5-3.3-3.3V6.8c0-1.8 1.5-3.3 3.3-3.3h12.8c1.8 0 3.3 1.5 3.3 3.3v2.8c0 1.8-1.5 3.3-3.3 3.3z"/><path d="M-18.4 15.7h1.1v-2.8h-1.1zm8.1 0h1v-2.8h-1z" fill="#DAD1CA"/><path fill="#615957" d="M-10 21.6h-7.5c-1.6 0-2.9-1.3-2.9-2.9v-1.1c0-1.6 1.3-2.9 2.9-2.9h7.5c1.6 0 2.9 1.3 2.9 2.9v1.1c-.1 1.6-1.4 2.9-2.9 2.9zm31.2-8.7H8.3C6.5 12.9 5 11.4 5 9.6V6.8C5 5 6.5 3.5 8.3 3.5h12.8c1.8 0 3.3 1.5 3.3 3.3v2.8c.1 1.8-1.4 3.3-3.2 3.3z"/><path d="M10.2 15.7h1.1v-2.8h-1.1zm8.1 0h1v-2.8h-1z" fill="#DAD1CA"/><path fill="#615957" d="M18.5 21.6H11c-1.6 0-2.9-1.3-2.9-2.9v-1.1c0-1.6 1.3-2.9 2.9-2.9h7.5c1.6 0 2.9 1.3 2.9 2.9v1.1c0 1.6-1.3 2.9-2.9 2.9z"/><path fill="#2D2D2D" d="M13.8 10.8c2.3.6 4.8-.1 6.3-1.8h1c-1.4 2.6-4.4 4-7.4 3.2-2-.5-3.6-2-4.3-3.8.3 0 .6.1.9.1.9 1.1 2.1 1.9 3.5 2.3z"/><path fill="#201A1A" d="M33.1-23.2c.3-1.3-.4-2.5-1.5-2.8-21.2-4-43-4-64.1 0-1.2.2-1.9 1.5-1.5 2.8.3 1.3 1.5 2.1 2.6 1.9 20.5-3.9 41.5-3.9 62 0 1 .2 2.2-.6 2.5-1.9z"/><path opacity=".21" fill="#E1F6F9" d="M29.5 10c-.7-.1-1.4-.2-2.1-.2-.6-.1-1.1-.1-1.6-.1s-1-.1-1.5-.1c-3.7-.4-7.4-.6-11.1-.8-4.8-.2-9.6-.3-14.3-.3h-5.2c-6.4.2-12.7.5-18.9 1.1-.5 0-1.1.1-1.6.1-.7.1-1.4.1-2 .2.2 0 .4 3.6.5 3.8.3 2.7.9 5.4 1.9 7.8 2.1 5.1 5.8 6.9 10 6.8L14 28c1.7 0 3.4 0 5.1-.1h1.4c1.3-.3 2.5-1.3 3.4-2.6.2-.2.3-.5.5-.7.6-1 1.2-2 1.7-3 .1-.3.2-.5.3-.7.7-1.7 1.3-3.5 1.8-5.3.6-1.9 1-3.8 1.3-5.6z"/><linearGradient id="p" gradientUnits="userSpaceOnUse" x1="4438.234" y1="-11727.761" x2="4438.234" y2="-11703.588" gradientTransform="matrix(2.4348 0 0 -2.4348 -10806.033 -28521.877)"><stop offset="0" stop-color="#E4554F"/><stop offset="1" stop-color="#AD2A27"/></linearGradient><path fill="url(#p)" d="M37.3 1.9c-.8 2.8-2.9 5-4 7.7-.5 1.4-.7 2.9-1 4.4-.4 2-1.3 4-2.2 5.8-1.3 2.7-2.9 5.4-4.6 7.8-1.7 2.3-3.7 3.9-6.6 4.3-3.1.5-6.3.6-9.4.7-6.6.3-13.2.2-19.9.1-.9 0-1.9 0-2.8-.1-.9 0-2 .1-2.9-.1-1.8-.1-3.6-.2-5.4-1-3.1-1.4-5-4.5-6.5-7.5-.8-1.6-1.5-3.3-2.2-4.9-.4-.9-.7-1.8-1-2.7-.2-.5-.5-.9-.6-1.4-.4-1.5-.8-3-1.3-4.4 0-.1 0-.1-.1-.2-.3-1.1-.5-2.4-1-3.4-.8-1.4-1.7-2.6-2.4-4-1.4-2.4-1.6-5.3-1.7-8.1-.1-3.1.1-6.3.6-9.3.4-2.7 1.1-6 2.7-8.3 1.4-2 4.2-1.6 6.3-2 1.3-.3 2.4-1.2 3.8-1.4.5.1.9.1 1.2.1h48.1c1 0 2 .3 3 .6 1.2.4 2.5.5 3.7.6 1 .1 2.1.3 2.9.8 1.2.7 1.6 2 2.1 3.2 2.1 5.6 2.8 12 2 17.9 0 1.6-.3 3.2-.8 4.8-.3 1.2 1.7-5.8 0 0zM25.9 9.7C16.7 9 7.6 8.4-1.6 8.5c-9.1.1-18.2.5-27.3 1.4.3 0 .4 3.4.5 3.7.3 2.8.9 5.7 2 8.2 1.9 4.3 5.6 6.6 10.3 6.5L3.7 28c3.3 0 6.6-.1 9.9-.1 1.6 0 3.1 0 4.7-.1 1.5 0 2.7 0 4-.9 2.3-1.8 3.7-5 4.7-7.7 1.1-3 1.8-6.1 2.5-9.3-1.2 0-2.4-.1-3.6-.2-.6-.1 1.2.1 0 0z"/><path fill="#F7918F" d="M19.9 31.8c-.9-1.4-9.5-2.5-19.9-2.5-11 0-20 1.2-20 2.8v.2c1.3.3 2.6.4 3.9.4h.5c5.2.1 10.4.1 15.5.1 5 0 10-.1 15.1-.5.7-.1 1.5-.1 2.2-.2.6-.1 1.3-.1 1.9-.3.4.1.6 0 .8 0z"/><path fill="#D34841" d="M16.2 31.9C15.7 30.8 8.5 30-.3 30c-9.1 0-16.5.9-16.5 2.1 0 .1 0 .1.1.2 5.2.1 10.3.2 15.5.2 5 0 10-.1 15.1-.4.8-.1 1.5-.1 2.3-.2z"/><path fill="#FCAAAC" d="M16.2 32.3c-.5-1.1-7.7-1.9-16.5-1.9-9.1 0-16.5.9-16.5 2.1 0 .1 0 .1.1.2 5.1.2 10.3.2 15.5.2 5 0 10-.1 15.1-.4.8-.1 1.5-.1 2.3-.2z"/><path fill="#B23936" d="M-27.6 3.5L-33-4.2l-.8-5.4c-.1-.4-.5-.6-1-.5l-3 1c-.2 1.4-.4 2.8-.4 4.2v.2c0 .6 0 1.2.1 1.8.1 1.7.4 3.7 1.4 5.2.9 1.5 1.9 2.9 2.8 4.4 0 .1.1.1.1.2.1.1.1.2.2.3.4.5.5 1.3.7 1.9 0 .2.1.4.3.6v.2l3-.8 2-5.6z"/><linearGradient id="q" gradientUnits="userSpaceOnUse" x1="4424.493" y1="-11718.673" x2="4424.493" y2="-11710.333" gradientTransform="matrix(2.4348 0 0 -2.4348 -10806.033 -28521.877)"><stop offset="0" stop-color="#F07A7A"/><stop offset="1" stop-color="#F14738"/></linearGradient><path fill="url(#q)" d="M-28.3 4.2l-5.1-7.8-.8-5.4c-.1-.4-.6-.7-1-.5l-2.7 1c-.2 1.3-.3 2.7-.4 4 0 .6 0 1.2.1 1.8.1 1.8.4 3.8 1.4 5.4.9 1.5 1.9 3 2.8 4.6 0 .1.1.1.1.2.3.7.4 1.5.6 2.2 0 .2.1.5.2.8 0 .1 0 .1.1.2l.4-.1 2.4-.7 1.9-5.7z"/><path opacity=".39" fill="#FFF" d="M-35.5 5l1.2-3.1-2.2 1.4z"/><path fill="#B23936" d="M27.6 3.5l5.5-7.7.9-5.4c.1-.4.5-.6 1-.5l3 1c.2 1.4.4 2.8.4 4.2v.2c0 .6 0 1.2-.1 1.8-.1 1.7-.4 3.7-1.4 5.2-.9 1.5-1.9 2.9-2.8 4.4 0 .1-.1.1-.1.2-.1.1-.1.2-.2.3-.4.5-.6 1.3-.7 1.9 0 .2-.1.4-.3.6v.2l-3-.8-2.2-5.6z"/><linearGradient id="r" gradientUnits="userSpaceOnUse" x1="10402.913" y1="-11718.673" x2="10402.913" y2="-11710.333" gradientTransform="rotate(180 12681.201 -14260.939) scale(2.4348)"><stop offset="0" stop-color="#F07A7A"/><stop offset="1" stop-color="#F14738"/></linearGradient><path fill="url(#r)" d="M28.4 4.2l5.1-7.8.8-5.4c.1-.4.6-.7 1-.5l2.7 1c.2 1.3.3 2.7.4 4 0 .6 0 1.2-.1 1.8-.1 1.8-.4 3.8-1.4 5.4-.9 1.5-1.9 3-2.8 4.6 0 .1-.1.1-.1.2-.3.7-.4 1.5-.6 2.2 0 .2-.1.5-.2.8 0 .1 0 .1-.1.2l-.4-.1-2.4-.7-1.9-5.7z"/><path opacity=".39" fill="#FFF" d="M36.6 3.3l-2.2-1.4L35.5 5z"/><path fill="#B23936" d="M-19.9-10c-.1 0-.2.1-.3.1 0 .1-5.2 5.7-8.9 9.7C-33 4-31 9.4-31 9.7c.1.2.2.3.4.3h.1c.1 0 .2-.1.3-.3 1.2-.6 12.9-1.5 30-1.5 19.5 0 30.5 1.1 31.5 1.9 0 .2.2.3.3.3h.1c.2 0 .4-.1.4-.3.1-.3 1.7-6.2-2.2-10.4-3.7-4-8.9-9.6-8.9-9.7-.1-.1-.2-.1-.3-.1-13.5-1-27.1-1-40.6.1z"/><linearGradient id="s" gradientUnits="userSpaceOnUse" x1="4438.35" y1="-11718.572" x2="4438.35" y2="-11710.177" gradientTransform="matrix(2.4348 0 0 -2.4348 -10806.033 -28521.877)"><stop offset="0" stop-color="#E44E46"/><stop offset=".262" stop-color="#D84139"/><stop offset=".626" stop-color="#CD352E"/><stop offset="1" stop-color="#C9312A"/></linearGradient><path fill="url(#s)" d="M29.6.6c-1.2-1.3-2.5-2.7-3.8-4.1-2.8-3-5.2-5.6-5.2-5.6-13.5-1.1-27.1-1.1-40.6 0 0 0-2.4 2.6-5.1 5.6-1.2 1.4-2.6 2.8-3.8 4.1-3.7 4-1.8 9.4-1.8 9.4-.1-.4 2.2-.7 5.8-1 11.8-1 38.6-1.1 50.5.1 3.7.4 6 .8 5.9 1.4.2 0 1.9-5.9-1.9-9.9z"/><radialGradient id="t" cx="4438.35" cy="-11713.079" r="9.646" gradientTransform="matrix(2.4348 0 0 -2.4348 -10806.033 -28521.877)" gradientUnits="userSpaceOnUse"><stop offset="0" stop-color="#FC720B"/><stop offset=".149" stop-color="#F67719"/><stop offset=".428" stop-color="#EC7E2C"/><stop offset=".711" stop-color="#E78338"/><stop offset="1" stop-color="#E5843C"/></radialGradient><path opacity=".11" fill="url(#t)" d="M29.6.6c-1.2-1.3-2.5-2.7-3.8-4.1-2.8-3-5.2-5.6-5.2-5.6-13.5-1.1-27.1-1.1-40.6 0 0 0-2.4 2.6-5.1 5.6-1.2 1.4-2.6 2.8-3.8 4.1-3.7 4-1.8 9.4-1.8 9.4-.1-.4 2.2-.7 5.8-1 11.8-1 38.6-1.1 50.5.1 3.7.4 6 .8 5.9 1.4.2 0 1.9-5.9-1.9-9.9z"/><path fill="#FFF" d="M29.6 1c-3.7-4-8.9-9.7-8.9-9.7-13.5-1-27.1-1-40.6 0 0 0-5.2 5.7-8.9 9.7-1.8 1.9-2.2 4-2.3 5.8 0-1.9.4-4.2 2.3-6.2 3.7-4 8.9-9.7 8.9-9.7 13.5-1.1 27.1-1.1 40.6 0 0 0 5.2 5.7 8.9 9.7 2 2.2 2.5 4.9 2.4 6.9 0-2-.5-4.4-2.4-6.5z" opacity=".22"/><path fill="none" d="M-33.1 10.5l.1.2v.1l1.3 4.5M33 10.5l-.1.6-.7 3.9-.1.7"/><path opacity=".2" fill="#FFF" d="M25.7 9.2C25.1 5.4 14 2.3.5 2.3s-24.4 3-25.3 6.8c11.8-.6 38.6-.7 50.5.1z"/><path fill="#020202" d="M28.9-8.4c-18.8-3.9-38.2-3.9-57 0-1.4.3-2.2 1.5-1.9 2.7.3 1 .5 1.9.7 2.9.3 1.2 1.6 1.9 2.9 1.7 17.7-3.6 36-3.6 53.7 0 1.3.3 2.6-.5 2.9-1.7.3-1 .5-1.9.7-2.9.2-1.2-.6-2.4-2-2.7z"/><path fill="#FFF" d="M30.3-8.6c-18.8-4.7-38.9-4.7-57.7 0-1.4.3-2.2 1.6-1.8 2.7.3 1 .6 1.9.9 2.9.4 1.2 1.7 1.8 2.9 1.5 17.5-4.4 36.1-4.4 53.7 0 1.2.3 2.6-.4 2.9-1.5.3-1 .6-1.9.9-2.9.3-1.1-.5-2.4-1.8-2.7z" opacity=".39"/><radialGradient id="u" cx="5337.141" cy="-15155.976" r="5.047" gradientTransform="matrix(3.4085 0 0 -1.2196 -18191.113 -18489.027)" gradientUnits="userSpaceOnUse"><stop offset="0" stop-color="#6B6B6B"/><stop offset=".444" stop-color="#696969"/><stop offset=".604" stop-color="#626262"/><stop offset=".717" stop-color="#575757"/><stop offset=".809" stop-color="#464646"/><stop offset=".888" stop-color="#303030"/><stop offset=".957" stop-color="#151515"/><stop offset="1"/></radialGradient><path fill="url(#u)" d="M24.8-4.6C8.6-6-7.6-6-23.7-4.6v.6C-7.6-5.3 8.6-5.3 24.7-4c.1-.2.1-.4.1-.6z"/><radialGradient id="v" cx="5337.141" cy="-15155.208" r="5.046" gradientTransform="matrix(3.4085 0 0 -1.2196 -18191.113 -18489.027)" gradientUnits="userSpaceOnUse"><stop offset="0" stop-color="#6B6B6B"/><stop offset=".444" stop-color="#696969"/><stop offset=".604" stop-color="#626262"/><stop offset=".717" stop-color="#575757"/><stop offset=".809" stop-color="#464646"/><stop offset=".888" stop-color="#303030"/><stop offset=".957" stop-color="#151515"/><stop offset="1"/></radialGradient><path fill="url(#v)" d="M24.8-5.6C8.6-6.9-7.6-6.9-23.7-5.6v.6C-7.6-6.4 8.6-6.4 24.7-5c.1-.1.1-.3.1-.6z"/><radialGradient id="w" cx="5337.141" cy="-15154.441" r="5.047" gradientTransform="matrix(3.4085 0 0 -1.2196 -18191.113 -18489.027)" gradientUnits="userSpaceOnUse"><stop offset="0" stop-color="#6B6B6B"/><stop offset=".444" stop-color="#696969"/><stop offset=".604" stop-color="#626262"/><stop offset=".717" stop-color="#575757"/><stop offset=".809" stop-color="#464646"/><stop offset=".888" stop-color="#303030"/><stop offset=".957" stop-color="#151515"/><stop offset="1"/></radialGradient><path fill="url(#w)" d="M24.8-6.5C8.6-7.8-7.6-7.8-23.7-6.5v.6c16.1-1.4 32.3-1.4 48.4 0 .1-.2.1-.4.1-.6z"/><radialGradient id="x" cx="5337.141" cy="-15153.675" r="5.046" gradientTransform="matrix(3.4085 0 0 -1.2196 -18191.113 -18489.027)" gradientUnits="userSpaceOnUse"><stop offset="0" stop-color="#6B6B6B"/><stop offset=".444" stop-color="#696969"/><stop offset=".604" stop-color="#626262"/><stop offset=".717" stop-color="#575757"/><stop offset=".809" stop-color="#464646"/><stop offset=".888" stop-color="#303030"/><stop offset=".957" stop-color="#151515"/><stop offset="1"/></radialGradient><path fill="url(#x)" d="M24.8-7.4C8.6-8.8-7.6-8.8-23.7-7.4v.6c16.1-1.4 32.3-1.4 48.4 0 .1-.2.1-.4.1-.6z"/><radialGradient id="y" cx="5337.141" cy="-15152.908" r="5.047" gradientTransform="matrix(3.4085 0 0 -1.2196 -18191.113 -18489.027)" gradientUnits="userSpaceOnUse"><stop offset="0" stop-color="#6B6B6B"/><stop offset=".444" stop-color="#696969"/><stop offset=".604" stop-color="#626262"/><stop offset=".717" stop-color="#575757"/><stop offset=".809" stop-color="#464646"/><stop offset=".888" stop-color="#303030"/><stop offset=".957" stop-color="#151515"/><stop offset="1"/></radialGradient><path fill="url(#y)" d="M24.8-8.3C8.6-9.7-7.6-9.7-23.7-8.3v.6c16.1-1.4 32.3-1.4 48.4 0 .1-.2.1-.5.1-.6z"/><radialGradient id="z" cx="5337.141" cy="-15152.141" r="5.046" gradientTransform="matrix(3.4085 0 0 -1.2196 -18191.113 -18489.027)" gradientUnits="userSpaceOnUse"><stop offset="0" stop-color="#6B6B6B"/><stop offset=".444" stop-color="#696969"/><stop offset=".604" stop-color="#626262"/><stop offset=".717" stop-color="#575757"/><stop offset=".809" stop-color="#464646"/><stop offset=".888" stop-color="#303030"/><stop offset=".957" stop-color="#151515"/><stop offset="1"/></radialGradient><path fill="url(#z)" d="M24.8-9.3c-16.1-1.4-32.3-1.4-48.4 0v.6c16-1.3 32.2-1.3 48.3 0 .1-.2.1-.4.1-.6z"/><linearGradient id="A" gradientUnits="userSpaceOnUse" x1="4423.681" y1="-11712.804" x2="4430.711" y2="-11712.804" gradientTransform="matrix(2.4348 0 0 -2.4348 -10806.033 -28521.877)"><stop offset="0" stop-color="#BDBCB7"/><stop offset=".039" stop-color="#C9C8C4"/><stop offset=".123" stop-color="#DDDCDA"/><stop offset=".223" stop-color="#ECECEB"/><stop offset=".346" stop-color="#F7F7F6"/><stop offset=".52" stop-color="#FDFDFD"/><stop offset="1" stop-color="#FFF"/></linearGradient><path fill="url(#A)" d="M-18.3-8.1c-.2-.5-.6-1.4-1.4-1.7-.1-.1-.3-.1-.4-.1-.2 0-.4-.1-.7-.1-.2 0-.5 0-.9.1-.1 0-.3 0-.4.1-.4.1-1 .2-1.6.3-.1 0-.3.1-.4.1-.5.1-1 .2-1.6.3-.1 0-.3.1-.4.1-.5.1-1.1.3-1.6.4-.1 0-.3.1-.4.1-.6.1-1.1.3-1.6.4-.1 0-.3.1-.4.1-.6.1-1 .3-1.1.3-.1 0-.3.1-.4.1-.1 0-.3.1-.4.1-.4.3-1 .5-1.5.8-.1.1-.3.2-.4.3-.7.5-1.3 1.2-1.4 1.9-.2 1.7.6 4 .6 4s.3.9.8 1.7c.1.2.3.4.4.6.3.3.5.6.9.7.3.1.5.2.7.3.1.1.3.1.4.1.4.1.8.1 1.5-.1h.1c.1 0 .1-.1.3-.1.4-.1.9-.4 1.6-.7.1-.1.3-.1.4-.2.5-.3 1-.5 1.6-.8.1-.1.3-.1.4-.2.5-.3 1.1-.6 1.6-.9.1-.1.3-.1.4-.2.5-.3 1.1-.7 1.6-1 .1-.1.3-.1.4-.3.7-.4 1.2-.8 1.6-1l.1-.1c.1-.1.2-.1.3-.2 1.3-1.2 1.5-2.8 1.5-2.8s.1-1.8-.2-2.4z"/><linearGradient id="B" gradientUnits="userSpaceOnUse" x1="4423.943" y1="-11712.79" x2="4430.45" y2="-11712.79" gradientTransform="matrix(2.4348 0 0 -2.4348 -10806.033 -28521.877)"><stop offset="0" stop-color="#B9B0A9"/><stop offset="1" stop-color="#7D7573"/></linearGradient><path fill="url(#B)" d="M-20.6-9.4s-.1 0 0 0c-.9 0-3.6.5-5.1 2.3-1.3 1.4-2-1.1-5.1 0-1.8.7-3.6 1.7-3.7 2.8-.3 1.4.5 3.6.5 3.6.3.9 1.1 2.3 1.7 2.5.3.1.5.2.7.2.4.1.5.2.8.2s.5-.1.9-.2c1.3-.4 8-4.2 9.6-5.4 1.3-1 1.5-2.5 1.6-2.6 0-.6.1-1.5-.1-1.9-.4-.7-.9-1.5-1.8-1.5z"/><path fill="#FFF" d="M-21.8-2.3h-1.5s-.5-2.5-.2-3 4.9-1.8 4.9-1.8l-.6 3.3-2.6 1.5z"/><linearGradient id="C" gradientUnits="userSpaceOnUse" x1="4425.969" y1="-11714.862" x2="4425.969" y2="-11711.338" gradientTransform="matrix(2.4348 0 0 -2.4348 -10806.033 -28521.877)"><stop offset="0" stop-color="#B9B0A9"/><stop offset="1" stop-color="#F8F7F5"/></linearGradient><path fill="url(#C)" d="M-25.4-2.8c0-1.7-1.1-3.3-2.7-4-1.7-.7-3.7-.2-4.8 1.2-1.1 1.3-1.4 3.3-.5 4.8.9 1.7 2.9 2.6 4.7 2.1 1.9-.4 3.3-2.1 3.3-4.1z"/><path opacity=".8" fill="#FFFEFD" d="M-29.7.7c2.2 0 4.1-1.7 4.3-3.9v.4c0 2.4-1.9 4.3-4.3 4.3S-34-.4-34-2.8v-.4C-33.8-1-31.9.7-29.7.7z"/><path opacity=".38" fill="#FFF" d="M-29.7-7.1c-.3 0-.6 0-.8.1-.1 0-.3 0-.4.1-.6.2-1.2.5-1.7.9-.1.1-.3.2-.4.4-.6.7-1 1.7-1 2.8 0 .8.2 1.6.6 2.2 1.2-.9 2.3-2.5 3-4.4.4-.7.6-1.4.7-2.1z"/><linearGradient id="D" gradientUnits="userSpaceOnUse" x1="4429.031" y1="-11712.801" x2="4429.031" y2="-11710.628" gradientTransform="matrix(2.4348 0 0 -2.4348 -10806.033 -28521.877)"><stop offset="0" stop-color="#B9B0A9"/><stop offset="1" stop-color="#F8F7F5"/></linearGradient><path fill="url(#D)" d="M-19.6-6.2c0-1.1-.7-2.1-1.6-2.5-1-.4-2.3-.1-3 .7-.7.8-.8 2-.3 3 .6 1 1.8 1.6 2.9 1.3 1.1-.2 2-1.3 2-2.5z"/><path opacity=".8" fill="#FFFEFD" d="M-22.2-4c1.4 0 2.5-1.1 2.6-2.4v.2c0 1.5-1.2 2.6-2.6 2.6-1.5 0-2.6-1.2-2.6-2.6v-.2c.1 1.3 1.2 2.4 2.6 2.4z"/><path opacity=".38" fill="#FFF" d="M-22.2-8.9h-.7c-.4.1-.7.3-1 .6l-.3.3c-.4.5-.7 1.1-.7 1.8 0 .5.1 1 .4 1.4.7-.6 1.4-1.5 1.9-2.7.2-.5.3-.9.4-1.4z"/><path fill="#FFF" d="M-34.2-2s0 .4.2 1.1c.1.3.2.7.4 1.1l.3.6c.1.2.2.4.4.6.1.2.3.4.4.5.1.1.2.1.3.2.1.1.2.1.3.2.1 0 .2.1.3.1.1 0 .2.1.3.1h.4c.2 0 .3 0 .5-.1.1 0 .3-.1.3-.1.2-.1.3-.1.3-.1v-.1h-.6c-.1 0-.3 0-.4-.1h-.4c-.1-.1-.3-.1-.5-.2-.1-.1-.3-.2-.5-.3l-.4-.4c-.6-.6-.9-1.4-1.2-2-.3-.6-.4-1-.4-1V-2z"/><path fill="#B5AEA8" d="M-34.5-3.1l.3 1 10.9-7.5z"/><path d="M-33.4 1.7v-8.4c-.1.1-.3.2-.4.3v7.6c.1.2.2.4.4.5zm1.9 1.1V-7.6c-.1 0-.3.1-.4.1V2.7c.2 0 .3.1.4.1zm2-.2V-8.2c-.1 0-.3.1-.4.1V2.8h.1c.1-.1.2-.1.3-.2zm2-.9V-8.7c-.1 0-.3.1-.4.1V1.9c.1-.1.2-.2.4-.2zm1.9-1.1v-9.7c-.1 0-.3.1-.4.1V.9c.1-.1.3-.2.4-.3zm2-1.1v-9c-.1 0-.3.1-.4.1v9.2c.1-.1.2-.2.4-.3zm1.9-1.2v-8.2c-.1 0-.3 0-.4.1v8.4c.2-.1.3-.2.4-.3zm2-1.4v-6.8c-.1-.1-.3-.1-.4-.1v7.3l.1-.1.3-.3z" opacity=".79" fill="#E5E0DA"/><g><linearGradient id="E" gradientUnits="userSpaceOnUse" x1="10460.424" y1="-11712.804" x2="10467.453" y2="-11712.804" gradientTransform="rotate(180 12752.502 -14260.939) scale(2.4348)"><stop offset="0" stop-color="#BDBCB7"/><stop offset=".039" stop-color="#C9C8C4"/><stop offset=".123" stop-color="#DDDCDA"/><stop offset=".223" stop-color="#ECECEB"/><stop offset=".346" stop-color="#F7F7F6"/><stop offset=".52" stop-color="#FDFDFD"/><stop offset="1" stop-color="#FFF"/></linearGradient><path fill="url(#E)" d="M19-8.1c.2-.5.6-1.4 1.4-1.7.1-.1.3-.1.4-.1.2 0 .4-.1.7-.1.2 0 .5 0 .9.1.1 0 .3 0 .4.1.4.1 1 .2 1.6.3.1 0 .3.1.4.1.5.1 1 .2 1.6.3.1 0 .3.1.4.1.5.1 1.1.3 1.6.4.1 0 .3.1.4.1.6.1 1.1.3 1.6.4.1 0 .3.1.4.1.6.1 1 .3 1.1.3.1 0 .3.1.4.1.1 0 .3.1.4.1.5.2 1.1.5 1.6.8.1.1.3.2.4.3.7.5 1.3 1.2 1.4 1.9.2 1.7-.5 4-.5 4s-.3.9-.8 1.7c-.1.2-.3.4-.4.6-.4.2-.7.5-1.1.6-.3.1-.5.2-.7.3-.1.1-.3.1-.4.1-.4.2-.8.2-1.5 0h-.1c-.1 0-.1-.1-.3-.1-.4-.1-.9-.4-1.6-.7-.1-.1-.3-.1-.4-.2-.5-.3-1-.5-1.6-.8-.1-.1-.3-.1-.4-.2-.5-.3-1.1-.6-1.6-.9-.1-.1-.3-.1-.4-.2-.6-.3-1.1-.7-1.6-1-.1-.1-.3-.1-.4-.3-.7-.4-1.2-.8-1.6-1l-.1-.1c0-.2-.1-.3-.2-.3-1.3-1.2-1.5-2.8-1.5-2.8s-.2-1.7.1-2.3z"/><linearGradient id="F" gradientUnits="userSpaceOnUse" x1="10460.689" y1="-11712.79" x2="10467.195" y2="-11712.79" gradientTransform="rotate(180 12752.502 -14260.939) scale(2.4348)"><stop offset="0" stop-color="#B9B0A9"/><stop offset="1" stop-color="#7D7573"/></linearGradient><path fill="url(#F)" d="M21.3-9.4c.1 0 .1 0 0 0 .9 0 3.6.5 5.1 2.3 1.3 1.4 2-1.1 5.1 0 1.8.7 3.6 1.7 3.7 2.8.2 1.5-.5 3.7-.6 3.7-.3.9-1.1 2.3-1.7 2.5-.2 0-.4.1-.6.1-.4.1-.6.2-.8.2-.2 0-.5-.1-.9-.2-1.3-.4-8-4.2-9.6-5.4-1.3-1-1.5-2.5-1.6-2.6 0-.6-.1-1.5.1-1.9.4-.7.9-1.5 1.8-1.5z"/><path fill="#FFF" d="M22.5-2.3H24s.5-2.5.2-3-4.9-1.8-4.9-1.8l.6 3.3 2.6 1.5z"/><linearGradient id="G" gradientUnits="userSpaceOnUse" x1="10462.717" y1="-11714.862" x2="10462.717" y2="-11711.338" gradientTransform="rotate(180 12752.502 -14260.939) scale(2.4348)"><stop offset="0" stop-color="#B9B0A9"/><stop offset="1" stop-color="#F8F7F5"/></linearGradient><path fill="url(#G)" d="M26.1-2.8c0-1.7 1.1-3.3 2.7-4 1.7-.7 3.7-.2 4.8 1.2 1.1 1.3 1.4 3.3.5 4.8-.9 1.7-2.9 2.6-4.7 2.1-1.9-.4-3.3-2.1-3.3-4.1z"/><path opacity=".8" fill="#FFFEFD" d="M30.4.7c-2.2 0-4.1-1.7-4.3-3.9v.4c0 2.4 1.9 4.3 4.3 4.3s4.3-1.9 4.3-4.3v-.4C34.5-1 32.6.7 30.4.7z"/><path opacity=".38" fill="#FFF" d="M30.4-7.1c.3 0 .6 0 .8.1.1 0 .3 0 .4.1.6.2 1.2.5 1.7.9.2.1.3.2.4.4.7.8 1.1 1.8 1.1 2.9 0 .8-.2 1.6-.6 2.2-1.2-.9-2.3-2.5-3-4.4-.5-.8-.7-1.5-.8-2.2z"/><linearGradient id="H" gradientUnits="userSpaceOnUse" x1="10465.778" y1="-11712.801" x2="10465.778" y2="-11710.628" gradientTransform="rotate(180 12752.502 -14260.939) scale(2.4348)"><stop offset="0" stop-color="#B9B0A9"/><stop offset="1" stop-color="#F8F7F5"/></linearGradient><path fill="url(#H)" d="M20.3-6.2c0-1.1.7-2.1 1.7-2.5 1-.4 2.3-.1 3 .7.7.8.8 2 .3 3-.6 1-1.8 1.6-2.9 1.3-1.2-.2-2.1-1.3-2.1-2.5z"/><path opacity=".8" fill="#FFFEFD" d="M22.9-4c-1.4 0-2.5-1.1-2.6-2.4v.2c0 1.5 1.2 2.6 2.6 2.6 1.5 0 2.6-1.2 2.6-2.6v-.2C25.4-5.1 24.3-4 22.9-4z"/><path opacity=".38" fill="#FFF" d="M22.9-8.9h.7c.4.1.7.3 1 .6l.2.2c.4.5.7 1.1.7 1.8 0 .5-.1 1-.4 1.4-.7-.6-1.4-1.5-1.9-2.7-.1-.4-.2-.8-.3-1.3z"/><path fill="#FFF" d="M34.9-2s0 .4-.2 1.1c-.1.3-.2.7-.4 1.1l-.3.6c-.1.2-.2.4-.4.6-.1.2-.3.4-.4.5 0 0-.1 0-.2.1s-.2.1-.3.2c-.1 0-.2.1-.3.1-.1 0-.2.1-.3.1h-.5c-.2 0-.3 0-.5-.1-.1 0-.3-.1-.3-.1-.2-.1-.3-.1-.3-.1V2h.6c.1 0 .3 0 .4-.1h.4c.1-.1.3-.1.5-.2.1-.1.3-.2.5-.3l.4-.4c.5-.6.9-1.4 1.2-2 .3-.6.4-1 .4-1z"/><path fill="#B5AEA8" d="M35.2-3.1l-.3 1-10.8-7.5z"/><path d="M34.1 1.7v-8.4c.2.1.3.2.4.3v7.6c-.1.2-.2.4-.4.5zm-1.9 1.1V-7.6c.1 0 .3.1.4.1V2.7c-.2 0-.3.1-.4.1zm-2-.2V-8.2c.1 0 .3.1.4.1V2.8h-.1c-.1-.1-.2-.1-.3-.2zm-2-.9V-8.7c.1 0 .3.1.4.1V1.9c-.1-.1-.2-.2-.4-.2zM26.3.6v-9.7c.1 0 .3.1.4.1V.9c-.2-.1-.3-.2-.4-.3zm-2-1.1v-9c.1 0 .3.1.4.1v9.2c-.1-.1-.2-.2-.4-.3zm-1.9-1.2v-8.2c.1 0 .3 0 .4.1v8.4c-.2-.1-.3-.2-.4-.3zm-2-1.4v-6.8c.1-.1.3-.1.4-.1v7.3l-.1-.1-.3-.3z" opacity=".79" fill="#E5E0DA"/></g><path d="M.6 8.1C-9 8-23.1 8.6-28.9 9.5c0-.1 0 0 0 0-.2 0-.4.2-.4.5 0 .1 0 .1.1.2.1.3.2 1.4.3 3.2v.5c.4 3.2 1 5.8 1.9 7.9 2 4.7 5.6 7.2 10.5 7.1l35.6-.5h1.5c1.4-.3 2.9-1.4 4.2-3.5 2.8-4.1 4.1-9.7 5.1-14.7 0-.1 0-.2-.1-.3-.1-.1-.2-.1-.3-.2-1.7-.2-3.3-.4-5.2-.5C16.6 8.4 8.7 8.1.6 8.1zm-28.9 2.2c18.3-1.7 36-1.8 52.6-.3 1.8.1 3.2.3 4.7.5-1 4.7-2.3 10-4.9 13.9-1.2 1.8-2.5 2.9-3.7 3.1h-1.3l-35.5.5c-4.5.1-7.8-2.2-9.7-6.6-.9-2.1-1.5-4.6-1.9-7.7v-.4c-.2-1.7-.2-2.5-.3-3z"/><g opacity=".35" fill="#FFF"><path d="M-30.4 10.9c-.8-.5-1 .9-.9 1.4.2.8.5 1.6.9 2.3h.1c-.1-.8-.3-1.6-.3-2.4 0-.3-.1-.7 0-.9 0-.2.2-.2.2-.4zm60.9 0c.8-.5 1 .9.9 1.4-.2.8-.5 1.6-.9 2.3h-.1c.1-.8.3-1.6.3-2.4 0-.3.1-.7 0-.9 0-.2-.2-.2-.2-.4z"/></g><path opacity=".39" fill="#FFF" d="M-11.9-3.1S.6-3 1-3c.3 0 11.8-.1 11.8-.1s-9-.7-11.8-.7c-2.8 0-12.9.7-12.9.7z"/><linearGradient id="I" gradientUnits="userSpaceOnUse" x1="4436.498" y1="-11711.132" x2="4439.939" y2="-11711.132" gradientTransform="matrix(2.4348 0 0 -2.4348 -10806.033 -28521.877)"><stop offset="0" stop-color="#B9B0A9"/><stop offset="1" stop-color="#F8F7F5"/></linearGradient><path fill="url(#I)" d="M.1-4.9c2.3 0 4.2-1.2 4.2-2.7 0-1.5-1.9-2.7-4.2-2.7-2.3 0-4.1 1.2-4.1 2.7C-4-6.1-2.2-4.9.1-4.9z"/><g><path fill="#151717" d="M-1.6-7.3l-.1-.4h-.8l.1.4h-.5l.1.6h2.1l-.6-.6h-.3zm-.1-.5v-.1h-.8v.1h.8zm-.1-.3l-.1-.4h-.8l.1.4c.2-.1.5-.1.8 0zm.3-.4c0 .1.1.3.1.4h.8c0-.1-.1-.2-.1-.4h-.8zm.2.6l.1.1h.8l-.1-.1h-.8zm.2.3c.3.4.7.8 1.1 1h.8L.6-7.8H0l.1.5c-.1-.1-.3-.2-.4-.4-.2.1-.5.1-.8.1zm1.7-.2v-.1H.1v.1h.5zm-.1-.4l-.1-.3h-.6l.1.3h.6zm1.6.3c.1 0 .1 0 0 0 .1.1.1.1.2.3v.4h-.4l-.1-.7c-.3.1-.6.1-.8.1l.3 1.1h1.6c.1 0 .2-.1.3-.2 0-.1.1-.2.1-.3v-.4c0-.1-.1-.2-.1-.3C3-8 3-8.1 3-8.1c-.3 0-.5.1-.9.2zM.8-8.5l.1.3c.5-.1 1-.1 1.4-.2h-.4L.8-8.5zm.1.5v.1c.8-.1 1.6-.2 2-.3l-.1-.1c-.5.1-1.2.2-1.9.3z"/></g><path opacity=".2" fill="#FFF" d="M28.3 15.5l-15-6.7c-4.9-.2-9.7-.3-14.4-.3l27.6 12.3c.7-1.7 1.3-3.5 1.8-5.3zm-2.2 6l-30.6-13h-1.9l30.3 16.7c.2-.2.3-.5.5-.7.7-.9 1.2-1.9 1.7-3z"/><g><path fill="#221C1C" d="M33.2-17.8v-6.6c-1.9-.7-4.6-1.5-5.8-1.7-.5-.1-1.2-.3-1.9-.4H-25c-.7.2-1.5.3-1.9.4-1.4.2-4.8 1.2-6.7 2v6.2l66.8.1z"/><path fill="#686868" d="M23.3-24h-.2c-.6 0-1 .3-1.2.7-.6 1 .4 2.9.4 3l.4-.2c-.3-.5-.8-1.9-.4-2.6.1-.3.4-.4.8-.4 2.2-.1 8.2 3 8.2 3l.2-.4c-.1-.1-5.8-3.1-8.2-3.1zm-46.4 0c-2.4 0-8 3-8.3 3.1l.2.4c.1 0 6.1-3.2 8.2-3 .4 0 .7.2.8.4.4.7-.2 2.1-.4 2.6l.4.2c0-.1 1-2 .4-3-.2-.4-.6-.6-1.2-.7h-.1zm41.1-.1h-34.3c-1.4 0-2.4.4-3 1.1-.9 1.1-.7 2.4-.7 2.5l.4-.1s-.2-1.2.6-2.1c.6-.7 1.5-1 2.8-1H18c2.5 0 2.9 3.1 2.9 3.2h.4c0-.1-.4-3.6-3.3-3.6z"/></g><path fill="#A9A09B" d="M38.5-12.6c-.3 2.7-1.7 1.9-1.7 1.9s-1-.7-1.8-1.4-3.1-2.7-4.7-3.4c-1.6-.7-8-1.1-8-1.1l-.5-1.8s10.9.2 11.2-.2c.3-.4.1-1.9-1.4-3.9-1.5-1.9-9.6-3.2-9.6-3.2l-20.5.2h-2.6l-20.4-.2s-8.1 1.2-9.6 3.2c-1.5 1.9-1.7 3.5-1.4 3.9.3.4 11.2.2 11.2.2l-.5 1.8s-6.4.3-8 1.1c-1.6.7-3.9 2.7-4.7 3.4-.8.7-1.8 1.4-1.8 1.4s-1.5.8-1.7-1.9c-.3-2.7.3-7.8.4-8.3.1-.4 2-1.8 3.8-2.6 1.8-.8 5.4-1.9 6.9-2.1 1.5-.3 5-1.2 5-1.2h44.3s3.5.9 5 1.2c1.5.3 5.1 1.3 6.9 2.1 1.8.8 3.6 2.1 3.8 2.6.1.5.7 5.6.4 8.3z"/><path fill="#635D5F" d="M38.1-21.4c-.1-.4-2-1.8-3.8-2.6-.3-.1-.7-.3-1.1-.4-1.9-.7-4.6-1.5-5.8-1.7-.5-.1-1.2-.3-1.9-.4l-3-.8H-22l-3 .8c-.7.2-1.5.3-1.9.4-1.4.2-4.8 1.2-6.7 2-.1 0-.1.1-.2.1-1.8.8-3.6 2.1-3.8 2.6-.1.4-.7 5.6-.4 8.3.3 2.7 1.7 1.9 1.7 1.9s1-.7 1.8-1.4 3.1-2.7 4.7-3.4c1.6-.7 8-1.1 8-1.1l.2-.7.3-1.1s-10.9.2-11.2-.2c-.3-.4-.1-1.9 1.4-3.9 1.5-1.9 9.6-3.2 9.6-3.2L-1-26h2.6l20.4-.2s8.1 1.2 9.6 3.2c1.5 1.9 1.7 3.5 1.4 3.9-.3.4-11.2.2-11.2.2l.3 1.1.2.7s6.4.3 8 1.1c1.6.7 3.9 2.7 4.7 3.4.8.7 1.8 1.4 1.8 1.4s1.5.8 1.7-1.9c.3-2.7-.3-7.9-.4-8.3z"/><g><path fill="#F79645" d="M-34.5-17.4l-2.2 1.4c-.1.1-.2.2-.2.3v1c0 .3.3.5.6.3l2.2-1.4c.1-.1.2-.2.2-.3v-1c0-.3-.3-.5-.6-.3z"/><path opacity=".35" fill="#FFF" d="M-34.8-16.6l-.7.4c-.1.1-.2.2-.2.3 0 .3.4.5.6.3l.7-.4c.1-.1.2-.2.2-.3 0-.3-.3-.5-.6-.3z"/></g><g><path fill="#F79645" d="M35.1-17.4l2.2 1.4c.1.1.2.2.2.3v1c0 .3-.3.5-.6.3l-2.2-1.4c-.1-.1-.2-.2-.2-.3v-1c0-.3.3-.5.6-.3z"/><path opacity=".35" fill="#FFF" d="M35.5-16.6l.7.4c.1.1.2.2.2.3 0 .3-.4.5-.6.3L35-16c-.1-.1-.2-.2-.2-.3 0-.3.4-.5.7-.3z"/></g><path fill="#F77575" d="M24.3-18.5h-46.2v2.1c15.4.7 30.8.7 46.2 0v-2.1z"/><path fill="#BE3B40" d="M24.3-18.9h-46.2v2.1c15.4.7 30.8.7 46.2 0v-2.1z"/><linearGradient id="J" gradientUnits="userSpaceOnUse" x1="4438.213" y1="-11704.692" x2="4438.213" y2="-11707.322" gradientTransform="matrix(2.4348 0 0 -2.4348 -10806.033 -28521.877)"><stop offset="0" stop-color="#7F7F7F"/><stop offset=".5" stop-opacity=".993"/><stop offset="1" stop-color="#877777" stop-opacity=".987"/></linearGradient><path fill="url(#J)" d="M-13.3-16.9h26.8v-6.4h-26.8z"/><path fill="#FFF" d="M-12.5-17.6h25.3v-5h-25.3z"/><g><path d="M-1.4-18.6v-.4l-1.2-2.6h-.7l1.2 2.4h-1.4v.6h2.1zm2.6 0v-.4L0-21.6h-.7l1.2 2.4H-.9v.6h2.1zm2.6 0v-.4l-1.2-2.6h-.8L3-19.2H1.7v.6h2.1z"/></g><path opacity=".22" fill="#FFF" d="M-37.7-17.3c2-3.1 4.8-5.2 7.8-7.2v-.1c-4-.6-6.6 4.3-8 7.3h.2zm75.7 0c-2-3.1-4.8-5.2-7.8-7.2v-.1c4-.6 6.7 4.3 8 7.3H38z"/><path fill="#B2B2B2" d="M.9 8.2C-8.4 9.3-17.7 9.7-27 9.3v.6c9.4.4 18.7 0 27.9-1.1.1-.1.1-.3 0-.6z"/><path fill="#B2B2B2" d="M-.4 8.2c9.3 1.1 18.6 1.5 27.9 1.1v.6c-9.4.4-18.7 0-27.9-1.1v-.6z"/></symbol><path fill="#FFF" d="M848 369c-.9 0-2.3-.1-3.5-.9-1.3-1.7-1.9-2.6-2.1-4.8-15.9 2.3-32.5 2.5-48.4.7l-2.2 4.2c-2.3 1.4-9.2 1.5-11.4 0-1.4-1.8-1.8-2.3-1.9-4.6-.1-2.6.3-5.8-.6-8.2-1-2.6-.8-6-.6-8.7.2-3.2-.3-6.4-.3-9.5.1-1.8.5-3.8 1-5.5.8-2.9 3.2-5.1 3.9-7.9-3.5-.3-7.2-1.4-7.8-5.5-.8-5.9 7.3-7.4 11.4-5.7 2.8-6.8 6.2-13.5 14.1-14.7 6.3-.9 12.9-.6 19.2-.5 5.5.1 11.1 0 16.6.6 8.4.9 12.4 7.5 15.9 14.5 3.7-1.2 10.4-.5 11 4.3.6 4.6-3.7 6.6-7.5 7 2.8 5.6 4.8 10 4.8 16.4 0 3-.1 6.1-.1 9.1 0 2.3.4 5.8-1.3 7.6 0 2.9.7 6.7-.6 9.4-1.7 3.3-6.5 2.7-9.6 2.7z"/><use xlink:href="#K" width="82.5" height="65.7" x="-41.2" y="-32.8" transform="matrix(1 0 0 -1 818.184 333.123)" overflow="visible"/><path fill="#FFF" d="M2208.5 1306.4c-.3.2-.7.6-1.3.7-1 0-1.5-.1-2.3-.4-3.7 4.6-8.2 8.9-13.4 12.7l.9 1.4c-.1.9-2 2.7-3.2 3-1.1 0-1.3 0-2.2-.4-1-.5-2-1.3-3.1-1.5-1.2-.3-2.3-1-3.3-1.6-1.1-.7-2.3-1.2-3.5-1.9-.6-.4-1.2-.9-1.7-1.4-.8-.8-.9-1.9-1.7-2.6-1.1.8-2.5 1.6-4.1.9-2.3-1-.6-3.4 1.2-4.1-1.7-2.1-3.1-4.4-1.2-6.7 1.5-1.8 3.4-3.5 5.2-5.1 1.6-1.4 3.1-2.9 4.9-4.2 2.7-2 6.2-1.7 9.6-1.2.6-1.2 2.7-2.8 4.6-2 1.8.8 1.3 2.3.4 3.4 2.8.4 4.9.8 7.2 2.1 1.1.6 2.2 1.3 3.2 1.9.8.5 2.2 1.1 2.3 1.9 1 .6 2.6 1.2 3.2 2.1.7 1-.9 2.2-1.7 3z"/><linearGradient id="L" gradientUnits="userSpaceOnUse" x1="-5552.974" y1="4095.718" x2="-5552.974" y2="4086.993" gradientTransform="matrix(.6841 -.868 -.868 -.6841 9541.375 -711.497)"><stop offset="0" stop-color="#FFF"/><stop offset="1" stop-color="#F00" stop-opacity=".8"/></linearGradient><path opacity=".22" fill="url(#L)" d="M2203.3 1302.1l-18.4 17-5.5-2.3 19.6-18.1"/><path fill="#ADB6B1" d="M2192 1297.1c-.2.2-.3.4-.5.6l-5.1-1.2c-1.1-.2-2.3 0-3 .7l-9.5 8.8c-.7.6-.8 1.5-.3 2.2l2.6 3.6c-.2.2-.4.3-.6.5.1 0-1.1-.8-1.2-.9-.9-.6-1.7-1.3-2.2-2.1-1.2-1.6-.8-2.9.4-4l8.7-7.8c.5-.4 1-.9 1.5-1.3.1-.1.2-.2.4-.3.5-.3 1.5-.4 2.3-.3 2.1-.1 4.4.7 6.5 1.5z"/><path fill="#14100F" d="M2201.9 1299.6l6.8 3.9h.1c.1 0 .1.1.1.1l.1.1c0 .1.1.2 0 .2 0 .1-.1.2-.1.3l-1.7 1.6c-.1.1-.2.1-.3.2h-.5c-.1 0-.1 0-.2-.1h-.1l-6.8-3.9h-.1l-.1-.1c-.1 0-.1-.1-.1-.2V1301.4c0-.1.1-.2.1-.3l1.7-1.6c.1-.1.2-.1.3-.2h.6c.1.2.1.2.2.3z"/><path d="M2209.1 1304c0 .1-.1.2-.2.3l-1.7 1.6c-.1.1-.2.2-.4.2l2.3-2.1zm-.1-.3l.1.1-2.6 2.4h-.2l2.7-2.5zm-.3-.3l.1.1-2.8 2.6h-.2l2.9-2.7zm-3.1 2.4l2.8-2.5h.1l-2.8 2.6m-.4-.2l2.7-2.6.2.1-2.8 2.5m-.5-.2l2.8-2.6.2.1-2.8 2.6m-.5-.3l2.8-2.6.1.1-2.7 2.6m-.5-.3l2.8-2.6.1.1-2.8 2.6m-.4-.3l2.8-2.5h.1l-2.8 2.6m-.4-.2l2.8-2.6.1.1-2.8 2.5m-.4-.2l2.8-2.6.1.1-2.8 2.6m-.4-.3l2.7-2.6.2.1-2.8 2.6m-.5-.3l2.8-2.6.2.1-2.8 2.6m-.5-.3l2.8-2.5h.1l-2.7 2.6m-.5-.2l2.8-2.6.1.1-2.8 2.5m-.4-.2l2.8-2.6.1.1-2.8 2.6m-.4-.3l2.8-2.6.1.1-2.8 2.6m-.4-.3l2.8-2.6.1.1-2.8 2.6m-.4-.3l2.7-2.5h.2l-2.8 2.6m-.5-.2l2.8-2.6.2.1-2.8 2.5m-.5-.2l2.8-2.6.1.1-2.8 2.5m-.4-.2l2.8-2.6.1.1-2.8 2.6m-.4-.3l2.8-2.6.1.1-2.8 2.6m-.4-.3l2.8-2.5h.1l-2.8 2.6m2.5-2.7l-2.8 2.6-.1-.1 2.8-2.5c0-.1 0-.1.1 0zm-.4-.2l-2.6 2.4v-.2l2.5-2.3c-.1.1 0 .1.1.1z" fill="#2B2525"/><radialGradient id="M" cx="-5542.853" cy="4084.297" r="3.03" gradientTransform="matrix(.6841 -.868 -.868 -.6841 9541.375 -711.497)" gradientUnits="userSpaceOnUse"><stop offset="0" stop-color="#605A5A"/><stop offset="1"/></radialGradient><path fill="url(#M)" d="M2199 1301.3l8.2 4.7c-.1.1-.2.1-.3.2l-8-4.6c-.1-.1 0-.2.1-.3z"/><radialGradient id="N" cx="-5542.379" cy="4084.211" r="3.06" gradientTransform="matrix(.6841 -.868 -.868 -.6841 9541.375 -711.497)" gradientUnits="userSpaceOnUse"><stop offset="0" stop-color="#605A5A"/><stop offset="1"/></radialGradient><path fill="url(#N)" d="M2199.2 1301.1l.3-.3 8.1 4.7-.2.2"/><radialGradient id="O" cx="-5541.202" cy="4084.114" r="3.018" gradientTransform="matrix(.6841 -.868 -.868 -.6841 9541.375 -711.497)" gradientUnits="userSpaceOnUse"><stop offset="0" stop-color="#605A5A"/><stop offset="1"/></radialGradient><path fill="url(#O)" d="M2199.7 1300.6l.3-.2 8.1 4.7-.2.2"/><radialGradient id="P" cx="-5541.134" cy="4083.96" r="3.058" gradientTransform="matrix(.6841 -.868 -.868 -.6841 9541.375 -711.497)" gradientUnits="userSpaceOnUse"><stop offset="0" stop-color="#605A5A"/><stop offset="1"/></radialGradient><path fill="url(#P)" d="M2200.2 1300.1l.3-.2 8.1 4.7-.2.2"/><radialGradient id="Q" cx="-5540.016" cy="4083.947" r="3.005" gradientTransform="matrix(.6841 -.868 -.868 -.6841 9541.375 -711.497)" gradientUnits="userSpaceOnUse"><stop offset="0" stop-color="#605A5A"/><stop offset="1"/></radialGradient><path fill="url(#Q)" d="M2201.1 1299.5l8 4.6c0 .1-.1.2-.1.3l-8.2-4.7c0-.1.2-.2.3-.2z"/><path fill="#14100F" d="M2183.9 1316.2l6.8 3.9h.1c.1 0 .1.1.1.1l.1.1c0 .1.1.2 0 .2 0 .1-.1.2-.1.3l-1.7 1.6c-.1.1-.2.1-.3.2h-.5c-.1 0-.1 0-.2-.1h-.1l-6.8-3.9h-.1l-.1-.1c-.1 0-.1-.1-.1-.2V1318c0-.1.1-.2.1-.3l1.7-1.6c.1-.1.2-.1.3-.2h.6c0 .2.1.3.2.3z"/><path d="M2191.1 1320.7c0 .1-.1.2-.2.3l-1.7 1.6c-.1.1-.2.2-.4.2l2.3-2.1zm-.2-.4l.1.1-2.6 2.4h-.2l2.7-2.5zm-.2-.2l.1.1-2.8 2.6h-.2l2.9-2.7zm-3.1 2.4l2.8-2.6.1.1-2.8 2.6m-.5-.3l2.8-2.6.2.1-2.8 2.6m-.5-.3l2.8-2.5h.1l-2.7 2.6m-.5-.3l2.8-2.5.1.1-2.8 2.5m-.4-.2l2.8-2.6.1.1-2.8 2.5m-.4-.2l2.8-2.6.1.1-2.8 2.6m-.4-.3l2.8-2.6.1.1-2.8 2.6m-.4-.3l2.7-2.5h.2l-2.8 2.6m-.5-.3l2.8-2.5h.2l-2.8 2.6m-.5-.2l2.8-2.6.1.1-2.7 2.5m-.5-.2l2.8-2.6.1.1-2.8 2.6m-.4-.3l2.8-2.6.1.1-2.8 2.6m-.4-.3l2.8-2.5h.1l-2.8 2.6m-.4-.3l2.8-2.5h.1l-2.8 2.6m-.4-.2l2.7-2.6.2.1-2.8 2.5m-.4-.2l2.7-2.6.2.1-2.8 2.6m-.5-.3l2.8-2.6.1.1-2.7 2.6m-.5-.3l2.8-2.6.1.1-2.8 2.6m-.4-.3l2.8-2.5h.1l-2.8 2.6m-.4-.2l2.8-2.6.1.1-2.8 2.5m-.4-.2l2.8-2.6.1.1-2.8 2.6m2.5-2.8l-2.8 2.6-.1-.1 2.8-2.5h.1zm-.4-.1l-2.6 2.4v-.2l2.5-2.3c-.1.1 0 .1.1.1z" fill="#2B2525"/><radialGradient id="R" cx="-5565.485" cy="4087.8" r="3.109" gradientTransform="matrix(.6841 -.868 -.868 -.6841 9541.375 -711.497)" gradientUnits="userSpaceOnUse"><stop offset="0" stop-color="#605A5A"/><stop offset="1"/></radialGradient><path fill="url(#R)" d="M2181 1318l8.2 4.7c-.1.1-.2.1-.3.2l-8-4.6c-.1-.2 0-.3.1-.3z"/><radialGradient id="S" cx="-5563.77" cy="4087.685" r="3.02" gradientTransform="matrix(.6841 -.868 -.868 -.6841 9541.375 -711.497)" gradientUnits="userSpaceOnUse"><stop offset="0" stop-color="#605A5A"/><stop offset="1"/></radialGradient><path fill="url(#S)" d="M2181.2 1317.7l.3-.2 8.1 4.7-.2.2"/><radialGradient id="T" cx="-5563.148" cy="4087.588" r="3.02" gradientTransform="matrix(.6841 -.868 -.868 -.6841 9541.375 -711.497)" gradientUnits="userSpaceOnUse"><stop offset="0" stop-color="#605A5A"/><stop offset=".45" stop-color="#353232"/><stop offset="1"/></radialGradient><path fill="url(#T)" d="M2181.7 1317.2l.3-.2 8.1 4.7-.2.2"/><radialGradient id="U" cx="-5562.525" cy="4087.405" r="3.019" gradientTransform="matrix(.6841 -.868 -.868 -.6841 9541.375 -711.497)" gradientUnits="userSpaceOnUse"><stop offset="0" stop-color="#605A5A"/><stop offset="1"/></radialGradient><path fill="url(#U)" d="M2182.2 1316.8l.3-.2 8.1 4.6-.2.3"/><radialGradient id="V" cx="-5562.871" cy="4087.367" r="3.087" gradientTransform="matrix(.6841 -.868 -.868 -.6841 9541.375 -711.497)" gradientUnits="userSpaceOnUse"><stop offset="0" stop-color="#605A5A"/><stop offset="1"/></radialGradient><path fill="url(#V)" d="M2183.1 1316.1l8 4.6c0 .1-.1.2-.1.3l-8.2-4.7c0-.1.1-.1.3-.2z"/><path fill="#3F3E3E" d="M2180.5 1300.5l-2.9 2.7c-.2.2-.5.2-.7.1l-.4-.2c-.2-.1-.3-.3-.1-.5l2.9-2.7c.2-.2.5-.2.7-.1l.4.2c.2.1.3.3.1.5z"/><linearGradient id="W" gradientUnits="userSpaceOnUse" x1="-5566.223" y1="4104.43" x2="-5566.223" y2="4101.487" gradientTransform="matrix(.6841 -.868 -.868 -.6841 9541.375 -711.497)"><stop offset="0" stop-color="#E88486"/><stop offset=".052" stop-color="#E77C7E"/><stop offset=".334" stop-color="#E45859"/><stop offset=".595" stop-color="#E23D3D"/><stop offset=".825" stop-color="#E02D2D"/><stop offset="1" stop-color="#E02727"/></linearGradient><path fill="url(#W)" d="M2172.9 1311.6c.1.1.1.2.2.3.2.4-.7-.1-.8-.1-.4-.1-.8.1-1.1.3-.6.4-1.3 1-1.3 1.7-.1.7 1.2.9 1.9.6.7-.4 1.2-1 2-1.3.2-.1.3 0 .4.1l.7-.9-.8-.5-1.2-.2z"/><linearGradient id="X" gradientUnits="userSpaceOnUse" x1="-5566.755" y1="4104.433" x2="-5566.755" y2="4103.145" gradientTransform="matrix(.6841 -.868 -.868 -.6841 9541.375 -711.497)"><stop offset="0" stop-color="#E78383"/><stop offset=".431" stop-color="#E78585" stop-opacity=".828"/><stop offset=".586" stop-color="#E98C8C" stop-opacity=".766"/><stop offset=".697" stop-color="#EB9797" stop-opacity=".721"/><stop offset=".786" stop-color="#EEA8A8" stop-opacity=".686"/><stop offset=".863" stop-color="#F2BEBE" stop-opacity=".655"/><stop offset=".93" stop-color="#F8DADA" stop-opacity=".628"/><stop offset=".99" stop-color="#FEF9F9" stop-opacity=".604"/><stop offset="1" stop-color="#FFF" stop-opacity=".6"/></linearGradient><path fill="url(#X)" d="M2170.3 1314.3s-1.2-.4.4-1.9c1-.9 1.6-.7 1.6-.7l.5.2c-.7 1-1.6 1.8-2.5 2.4z"/><linearGradient id="Y" gradientUnits="userSpaceOnUse" x1="398.801" y1="4100.485" x2="398.801" y2="4097.954" gradientTransform="rotate(128.242 2101.253 3337.256) scale(1.1052)"><stop offset="0" stop-color="#E88486"/><stop offset=".052" stop-color="#E77C7E"/><stop offset=".334" stop-color="#E45859"/><stop offset=".595" stop-color="#E23D3D"/><stop offset=".825" stop-color="#E02D2D"/><stop offset="1" stop-color="#E02727"/></linearGradient><path fill="url(#Y)" d="M2190.8 1296.3l.9.4 1-.7c-.1-.1-.2-.2-.2-.3.3-.6.9-1.1 1.3-1.7.3-.5-.3-1.4-1.2-1.2-.8.2-1.5.8-1.9 1.3-.2.2-.3.6-.1.8.1.1.9.6.4.5-.1 0-.3 0-.4-.1l.2 1z"/><linearGradient id="Z" gradientUnits="userSpaceOnUse" x1="398.408" y1="4100.484" x2="398.408" y2="4099.151" gradientTransform="rotate(128.242 2101.253 3337.256) scale(1.1052)"><stop offset="0" stop-color="#E78383"/><stop offset=".431" stop-color="#E78585" stop-opacity=".828"/><stop offset=".586" stop-color="#E98C8C" stop-opacity=".766"/><stop offset=".697" stop-color="#EB9797" stop-opacity=".721"/><stop offset=".786" stop-color="#EEA8A8" stop-opacity=".686"/><stop offset=".863" stop-color="#F2BEBE" stop-opacity=".655"/><stop offset=".93" stop-color="#F8DADA" stop-opacity=".628"/><stop offset=".99" stop-color="#FEF9F9" stop-opacity=".604"/><stop offset="1" stop-color="#FFF" stop-opacity=".6"/></linearGradient><path fill="url(#Z)" d="M2193.4 1292.9s-.8-.8-2.4.7c-1 1-.5 1.3-.5 1.3l.4.3c1-.7 1.9-1.4 2.5-2.3z"/><path fill="#B8ABA3" d="M2189 1297c-4.7 4.3-9.4 8.7-14 13-.3.3-.2.7 0 .9.5.6.7 1.4 1 2.1.1.3.7.4 1.3.3 8.5-3 14.6-8.7 16.7-15.4.1-.4-.2-.8-.7-.8-1 0-2.1 0-3-.2-.4-.2-1-.1-1.3.1z"/><path fill="#615957" d="M2180.6 1306l-3.6 3.3c-.5.5-.4 1.2.2 1.5l1 .6c.7.4 1.6.3 2.1-.2l3.6-3.3c.5-.5.4-1.2-.2-1.5l-1-.6c-.6-.3-1.6-.2-2.1.2z"/><path d="M2176.5 1308.3l.3-.3 1 .6-.3.3m1.3-2.7l.3-.2 1 .5-.3.3" fill="#DAD1CA"/><path fill="#615957" d="M2176.8 1305l-2.1 2c-.4.4-.3 1 .2 1.3l.4.2c.6.3 1.4.3 1.8-.2l2.1-2c.4-.4.3-1-.2-1.3l-.4-.2c-.5-.3-1.4-.2-1.8.2zm11.9-6.4l-3.6 3.3c-.5.5-.4 1.2.2 1.5l1 .6c.7.4 1.6.3 2.1-.2l3.6-3.3c.5-.5.4-1.2-.2-1.5l-1-.6c-.7-.3-1.6-.2-2.1.2z"/><path d="M2184.6 1300.9l.3-.3 1 .6-.3.3m1.2-2.7l.3-.3 1 .6-.3.3" fill="#DAD1CA"/><path fill="#615957" d="M2184.8 1297.5l-2.1 2c-.4.4-.3 1 .2 1.3l.4.2c.6.3 1.4.3 1.8-.2l2.1-2c.4-.4.3-1-.2-1.3l-.4-.2c-.5-.2-1.3-.2-1.8.2z"/><path fill="#2D2D2D" d="M2187.3 1301c.4-.7 1.4-1.2 2.4-1.3l.3-.3c-1.3-.2-2.7.3-3.2 1.3-.4.6-.3 1.3.2 1.9.1-.1.1-.2.2-.3-.1-.4-.1-.9.1-1.3z"/><path fill="#201A1A" d="M2204.9 1302.9c.5.2.8.6.5 1-4.5 6.3-10.6 12-18 16.7-.4.3-1 .2-1.4-.2-.4-.3-.3-.8.1-1.1 7.1-4.5 13.1-10 17.4-16.1.2-.3.9-.5 1.4-.3z"/><path opacity=".21" fill="#E1F6F9" d="M2192 1297.1c-.2.2-.3.4-.5.6-.1.2-.3.3-.4.4l-.4.4c-.9 1-1.9 2-2.9 3-1.3 1.3-2.6 2.6-3.9 3.8-.3.3-.6.6-.9.8l-.6.5c-1.8 1.6-3.7 3.2-5.7 4.7-.2.1-.3.3-.5.4-.2.2-.4.3-.6.5.1 0-1.1-.8-1.2-.9-.9-.6-1.7-1.3-2.2-2.1-1.2-1.6-.8-2.9.4-4l8.7-7.8c.5-.4 1-.9 1.5-1.3.1-.1.2-.2.4-.3.5-.3 1.2-.4 1.9-.4h.4c.5 0 1 .1 1.6.2.1 0 .2 0 .4.1l2.4.6c.6.2 1.4.5 2.1.8z"/><linearGradient id="aa" gradientUnits="userSpaceOnUse" x1="-5552.898" y1="4108.638" x2="-5552.898" y2="4084.808" gradientTransform="matrix(.6841 -.868 -.868 -.6841 9541.375 -711.497)"><stop offset="0" stop-color="#E4554F"/><stop offset="1" stop-color="#AD2A27"/></linearGradient><path fill="url(#aa)" d="M2197.1 1296.7c-1.2-.4-2.6-.3-3.9-.5-.7-.1-1.3-.4-1.9-.6-.8-.3-1.8-.5-2.7-.6-1.3-.2-2.7-.3-4.1-.4-1.3 0-2.4.2-3.4.8-1 .7-2 1.5-2.9 2.3-1.9 1.7-3.8 3.4-5.6 5.1-.3.2-.5.5-.8.7-.2.2-.6.5-.8.8-.5.5-1 1-1.2 1.6-.4 1.1.2 2.2.8 3.2.3.5.7 1.1 1.1 1.6.2.3.4.5.7.8.1.1.2.3.3.4l1.2 1.2v.1c.3.3.7.6.9 1 .3.5.5 1 .7 1.5.5.9 1.4 1.5 2.4 2.1 1.1.7 2.3 1.2 3.5 1.7 1.1.4 2.4.9 3.7 1 1.1 0 1.7-.8 2.5-1.2.5-.3 1.1-.4 1.6-.7l.3-.3c.3-.3.6-.6 1-.9 3.3-3.1 6.6-6.1 9.9-9.2.9-.8 1.8-1.6 2.7-2.5.3-.3.5-.6.6-.9.2-.4.5-.7.8-1.1.2-.3.5-.6.5-.9.1-.4-.2-.8-.5-1.2-1.4-1.7-3.5-3.2-5.8-4.2-.2-.3-.9-.5-1.6-.7-.5-.2 2.5.7 0 0zm-6 1.4c-2.3 2.5-4.7 5-7.3 7.4-2.6 2.3-5.3 4.6-8.1 6.8.1-.1-1.1-.8-1.2-.9-.9-.6-1.8-1.4-2.4-2.2-1-1.4-.8-2.8.6-4 1.9-1.7 3.8-3.4 5.6-5.1.9-.8 1.9-1.7 2.8-2.5.4-.4.9-.8 1.3-1.2.4-.4.8-.7 1.4-.8 1.3-.2 2.8.1 4.1.4 1.4.3 2.7.8 4 1.3-.2.1-.5.4-.8.8-.1.1.3-.4 0 0z"/><path fill="#F7918F" d="M2181.6 1295.1c.3.5-1.8 3-4.7 5.7-3.1 2.9-6.1 4.9-6.6 4.6h-.1c.2-.4.6-.8.9-1.1l.1-.1c1.4-1.4 2.9-2.7 4.3-4.1 1.4-1.3 2.8-2.6 4.4-3.8.2-.2.5-.4.7-.5.2-.1.4-.3.6-.4.2-.2.3-.3.4-.3z"/><path fill="#D34841" d="M2180.5 1296c.2.4-1.5 2.4-3.9 4.7-2.6 2.4-5 4.1-5.4 3.9v-.1c1.4-1.4 2.8-2.7 4.3-4.1 1.4-1.3 2.8-2.6 4.4-3.8.1-.2.4-.4.6-.6z"/><path fill="#FCAAAC" d="M2180.3 1295.9c.2.4-1.5 2.4-3.9 4.7-2.6 2.4-5 4.1-5.4 3.9v-.1c1.4-1.4 2.8-2.7 4.3-4.1 1.4-1.3 2.9-2.6 4.4-3.8l.6-.6z"/><path fill="#B23936" d="M2178.3 1313.2l1.2 3 1.7 1.3c.1.1.1.3-.1.4l-1.2.6c-.5-.2-1.1-.5-1.6-.8-.2-.1-.3-.2-.5-.3.1.1.3.2.4.2-.2-.1-.4-.3-.6-.4-.6-.4-1.2-.9-1.5-1.4-.3-.5-.5-1.1-.8-1.6v-.2c-.1-.2-.3-.4-.5-.6-.1 0-.1-.1-.2-.2l1.1-.6 2.6.6z"/><linearGradient id="ab" gradientUnits="userSpaceOnUse" x1="-5564.743" y1="4101.466" x2="-5564.743" y2="4094.092" gradientTransform="matrix(.6841 -.868 -.868 -.6841 9541.375 -711.497)"><stop offset="0" stop-color="#F07A7A"/><stop offset="1" stop-color="#F14738"/></linearGradient><path fill="url(#ab)" d="M2177.9 1313.3l1.4 2.9 1.7 1.3c.1.1.1.3-.1.4l-1.1.5c-.5-.2-1-.5-1.5-.7-.2-.1-.4-.3-.6-.4-.6-.4-1.2-.9-1.5-1.5-.3-.5-.5-1.1-.9-1.7v-.1l-.6-.6-.2-.2v-.1l.1-.1.9-.5 2.4.8z"/><path opacity=".39" fill="#FFF" d="M2175.6 1315l1.4.3-1.1.3"/><path fill="#B23936" d="M2193.9 1298.9l4.3.2 2.1.9c.2.1.4 0 .5-.2l.5-1c-.4-.3-.9-.7-1.4-1-.2-.1-.3-.2-.4-.3.1.1.3.2.4.2-.2-.1-.4-.2-.7-.3-.7-.3-1.4-.6-2.2-.7-.8-.1-1.6-.1-2.4-.2h-.3c-.3 0-.6-.1-.9-.2-.1 0-.2 0-.3-.1l-.6.9 1.4 1.8z"/><linearGradient id="ac" gradientUnits="userSpaceOnUse" x1="422.648" y1="4097.884" x2="422.648" y2="4090.308" gradientTransform="rotate(128.242 2114.503 3330.829) scale(1.1052)"><stop offset="0" stop-color="#F07A7A"/><stop offset="1" stop-color="#F14738"/></linearGradient><path fill="url(#ac)" d="M2193.8 1298.5l4.2.3 2.1.9c.2.1.4 0 .5-.2l.4-.9c-.4-.3-.9-.6-1.3-.9-.2-.1-.4-.2-.7-.3-.7-.3-1.5-.7-2.3-.8-.8-.1-1.6-.1-2.4-.2h-.1l-.9-.3c-.1 0-.2-.1-.3-.1h-.1l-.1.1-.4.8 1.4 1.6z"/><path opacity=".39" fill="#FFF" d="M2196.4 1296.6l-.1.9-.8-1"/><path fill="#B23936" d="M2185.3 1314h-.1s-3.5.2-6 .3c-2.6.2-4-1.5-4.1-1.5v-.2h.2c.6-.2 4.2-3 9-7.5 5.5-5.1 8.2-8.2 8.2-8.6-.1 0-.1-.1 0-.2.1 0 .1-.1.2 0 .1 0 2.7.8 3.1 2.7.4 1.8.9 4.3.9 4.3v.1c-3.4 3.8-7.2 7.3-11.4 10.6z"/><linearGradient id="ad" gradientUnits="userSpaceOnUse" x1="-5553.544" y1="4101.057" x2="-5553.544" y2="4091.246" gradientTransform="matrix(.6841 -.868 -.868 -.6841 9541.375 -711.497)"><stop offset="0" stop-color="#E44E46"/><stop offset=".262" stop-color="#D84139"/><stop offset=".626" stop-color="#CD352E"/><stop offset="1" stop-color="#C9312A"/></linearGradient><path fill="url(#ad)" d="M2195.4 1299c.1.6.3 1.2.4 1.8.3 1.3.5 2.5.5 2.5-3.4 3.7-7.2 7.3-11.4 10.6 0 0-1.6.1-3.4.2-.8 0-1.7.1-2.5.1-2.5.1-3.8-1.5-3.9-1.5.1.1.9-.4 2-1.3 3.7-2.9 11.2-9.8 14.1-13.2.9-1 1.4-1.7 1.2-1.8.1 0 2.7.8 3 2.6z"/><radialGradient id="ae" cx="-5553.544" cy="4094.637" r="8.621" gradientTransform="matrix(.6841 -.868 -.868 -.6841 9541.375 -711.497)" gradientUnits="userSpaceOnUse"><stop offset="0" stop-color="#FC720B"/><stop offset=".149" stop-color="#F67719"/><stop offset=".428" stop-color="#EC7E2C"/><stop offset=".711" stop-color="#E78338"/><stop offset="1" stop-color="#E5843C"/></radialGradient><path opacity=".11" fill="url(#ae)" d="M2195.4 1299c.1.6.3 1.2.4 1.8.3 1.3.5 2.5.5 2.5-3.4 3.7-7.2 7.3-11.4 10.6 0 0-1.6.1-3.4.2-.8 0-1.7.1-2.5.1-2.5.1-3.8-1.5-3.9-1.5.1.1.9-.4 2-1.3 3.7-2.9 11.2-9.8 14.1-13.2.9-1 1.4-1.7 1.2-1.8.1 0 2.7.8 3 2.6z"/><path fill="#FFF" d="M2195.3 1298.9c.4 1.8.9 4.3.9 4.3-3.4 3.7-7.2 7.3-11.4 10.6 0 0-3.5.2-6 .3-1.2.1-2.1-.2-2.7-.6.7.4 1.6.8 2.9.7 2.5-.2 6-.3 6-.3 4.2-3.3 8-6.8 11.4-10.6 0 0-.6-2.5-1-4.3-.2-1-1-1.6-1.8-2 .7.3 1.5 1 1.7 1.9z" opacity=".22"/><path opacity=".2" fill="#FFF" d="M2191.3 1298.2c1.2 1-.8 4.5-4.6 8s-7.9 5.7-9.5 5.2c3.4-3 11-9.9 14.1-13.2z"/><path fill="#020202" d="M2198.4 1301c-3.9 5.7-9.4 10.7-16 14.8-.5.3-1.2.3-1.5-.1l-.8-.8c-.3-.3-.2-.8.2-1.1 6.3-3.8 11.4-8.6 15.1-13.9.3-.4.9-.6 1.4-.4.4.1.8.3 1.3.4.4.2.6.7.3 1.1z"/><path fill="#FFF" d="M2198.9 1300.7c-3.6 5.9-9.2 11.1-16.2 15-.5.3-1.2.2-1.5-.1l-.8-.8c-.3-.3-.2-.8.3-1.1 6.5-3.6 11.7-8.5 15.1-13.9.2-.4.9-.6 1.4-.5.4.1.8.2 1.3.4.4.1.6.6.4 1z" opacity=".39"/><radialGradient id="af" cx="-4652.917" cy="7534.639" r="4.648" gradientTransform="matrix(.9577 -1.2151 -.4348 -.3427 9920.901 -1764.305)" gradientUnits="userSpaceOnUse"><stop offset="0" stop-color="#6B6B6B"/><stop offset=".444" stop-color="#696969"/><stop offset=".604" stop-color="#626262"/><stop offset=".717" stop-color="#575757"/><stop offset=".809" stop-color="#464646"/><stop offset=".888" stop-color="#303030"/><stop offset=".957" stop-color="#151515"/><stop offset="1"/></radialGradient><path fill="url(#af)" d="M2195.9 1301.3c-4 4.5-8.6 8.7-13.6 12.6-.1 0-.1-.1-.2-.1 5-3.9 9.6-8.1 13.6-12.6.1 0 .1 0 .2.1z"/><radialGradient id="ag" cx="-4652.88" cy="7534.004" r="4.627" gradientTransform="matrix(.9577 -1.2151 -.4348 -.3427 9920.901 -1764.305)" gradientUnits="userSpaceOnUse"><stop offset="0" stop-color="#6B6B6B"/><stop offset=".444" stop-color="#696969"/><stop offset=".604" stop-color="#626262"/><stop offset=".717" stop-color="#575757"/><stop offset=".809" stop-color="#464646"/><stop offset=".888" stop-color="#303030"/><stop offset=".957" stop-color="#151515"/><stop offset="1"/></radialGradient><path fill="url(#ag)" d="M2196.3 1301.5c-4 4.5-8.6 8.7-13.6 12.6-.1 0-.1-.1-.2-.1 5-3.9 9.5-8.1 13.6-12.6 0 0 .1 0 .2.1z"/><radialGradient id="ah" cx="-4652.845" cy="7533.266" r="4.647" gradientTransform="matrix(.9577 -1.2151 -.4348 -.3427 9920.901 -1764.305)" gradientUnits="userSpaceOnUse"><stop offset="0" stop-color="#6B6B6B"/><stop offset=".444" stop-color="#696969"/><stop offset=".604" stop-color="#626262"/><stop offset=".717" stop-color="#575757"/><stop offset=".809" stop-color="#464646"/><stop offset=".888" stop-color="#303030"/><stop offset=".957" stop-color="#151515"/><stop offset="1"/></radialGradient><path fill="url(#ah)" d="M2196.6 1301.7c-4 4.5-8.6 8.7-13.6 12.6-.1 0-.1-.1-.2-.1 5-3.9 9.5-8.1 13.6-12.6 0 0 .1 0 .2.1z"/><radialGradient id="ai" cx="-4652.809" cy="7532.626" r="4.628" gradientTransform="matrix(.9577 -1.2151 -.4348 -.3427 9920.901 -1764.305)" gradientUnits="userSpaceOnUse"><stop offset="0" stop-color="#6B6B6B"/><stop offset=".444" stop-color="#696969"/><stop offset=".604" stop-color="#626262"/><stop offset=".717" stop-color="#575757"/><stop offset=".809" stop-color="#464646"/><stop offset=".888" stop-color="#303030"/><stop offset=".957" stop-color="#151515"/><stop offset="1"/></radialGradient><path fill="url(#ai)" d="M2196.9 1301.9c-4 4.5-8.6 8.7-13.6 12.6-.1 0-.1-.1-.2-.1 5-3.9 9.6-8.1 13.6-12.6.1 0 .1 0 .2.1z"/><radialGradient id="aj" cx="-4652.773" cy="7531.891" r="4.647" gradientTransform="matrix(.9577 -1.2151 -.4348 -.3427 9920.901 -1764.305)" gradientUnits="userSpaceOnUse"><stop offset="0" stop-color="#6B6B6B"/><stop offset=".444" stop-color="#696969"/><stop offset=".604" stop-color="#626262"/><stop offset=".717" stop-color="#575757"/><stop offset=".809" stop-color="#464646"/><stop offset=".888" stop-color="#303030"/><stop offset=".957" stop-color="#151515"/><stop offset="1"/></radialGradient><path fill="url(#aj)" d="M2197.2 1302c-4 4.5-8.6 8.7-13.6 12.6-.1 0-.1-.1-.2-.1 5-3.9 9.5-8.1 13.6-12.6.1.1.2.1.2.1z"/><radialGradient id="ak" cx="-4652.736" cy="7531.248" r="4.63" gradientTransform="matrix(.9577 -1.2151 -.4348 -.3427 9920.901 -1764.305)" gradientUnits="userSpaceOnUse"><stop offset="0" stop-color="#6B6B6B"/><stop offset=".444" stop-color="#696969"/><stop offset=".604" stop-color="#626262"/><stop offset=".717" stop-color="#575757"/><stop offset=".809" stop-color="#464646"/><stop offset=".888" stop-color="#303030"/><stop offset=".957" stop-color="#151515"/><stop offset="1"/></radialGradient><path fill="url(#ak)" d="M2197.6 1302.2c-4 4.5-8.6 8.7-13.6 12.6-.1 0-.1-.1-.2-.1 5-3.9 9.6-8.1 13.6-12.6 0 .1.1.1.2.1z"/><linearGradient id="al" gradientUnits="userSpaceOnUse" x1="-5565.205" y1="4095.816" x2="-5559.135" y2="4095.816" gradientTransform="matrix(.6841 -.868 -.868 -.6841 9541.375 -711.497)"><stop offset="0" stop-color="#BDBCB7"/><stop offset=".039" stop-color="#C9C8C4"/><stop offset=".123" stop-color="#DDDCDA"/><stop offset=".223" stop-color="#ECECEB"/><stop offset=".346" stop-color="#F7F7F6"/><stop offset=".52" stop-color="#FDFDFD"/><stop offset="1" stop-color="#FFF"/></linearGradient><path fill="url(#al)" d="M2185.1 1313.2c.1.1.3.4.2.7 0 0 0 .1-.1.1 0 .1-.1.1-.2.2s-.2.1-.3.2l-.1.1c-.2.1-.3.2-.5.3l-.1.1-.6.3c-.1 0-.1.1-.1.1l-.6.3c-.1 0-.1.1-.2.1l-.6.3c-.1 0-.1.1-.2.1l-.4.2s-.1 0-.2.1c0 0-.1 0-.2.1-.2.1-.5.2-.7.2-.1 0-.1 0-.2.1-.4.1-.8.1-1.1 0-.7-.3-1.3-1-1.3-1l-.4-.6c0-.1-.1-.1-.1-.2s-.1-.3 0-.4c0-.1.1-.2.1-.2 0-.1 0-.1.1-.1.1-.1.2-.2.5-.4h.1c.2-.1.4-.2.7-.3.1 0 .1 0 .2-.1.2-.1.5-.2.7-.2.1 0 .1 0 .2-.1.2-.1.5-.2.8-.2.1 0 .1 0 .2-.1.3-.1.5-.2.8-.2.1 0 .1 0 .2-.1.3-.1.6-.2.8-.2h.3c.8-.1 1.4.2 1.4.2s.7.4.9.6z"/><linearGradient id="am" gradientUnits="userSpaceOnUse" x1="-5564.988" y1="4095.798" x2="-5559.348" y2="4095.798" gradientTransform="matrix(.6841 -.868 -.868 -.6841 9541.375 -711.497)"><stop offset="0" stop-color="#B9B0A9"/><stop offset="1" stop-color="#7D7573"/></linearGradient><path fill="url(#am)" d="M2184.9 1314c0 .1 0 .1 0 0-.3.2-1.2.8-2.3.9-.9 0-.2.8-1.4 1.3-.7.3-1.6.6-2 .4-.6-.3-1.2-.9-1.2-.9-.2-.3-.5-.8-.4-1 0-.1.1-.2.1-.2.1-.1.1-.2.1-.2.1-.1.2-.1.3-.2.5-.3 3.8-1.2 4.6-1.4.7-.1 1.3.1 1.4.1.2.1.6.3.6.4.3.3.4.6.2.8z"/><path fill="#FFF" d="M2182 1312.9l-.4.4s.8.6 1 .7 2-.9 2-.9l-1.3-.5-1.3.3z"/><linearGradient id="an" gradientUnits="userSpaceOnUse" x1="-5563.326" y1="4097.886" x2="-5563.326" y2="4094.694" gradientTransform="matrix(.6841 -.868 -.868 -.6841 9541.375 -711.497)"><stop offset="0" stop-color="#B9B0A9"/><stop offset="1" stop-color="#F8F7F5"/></linearGradient><path fill="url(#an)" d="M2181.2 1313.9c.6.4.9 1 .7 1.5-.2.6-1 1-1.8 1s-1.6-.3-1.9-.9c-.3-.6-.1-1.3.6-1.7.6-.2 1.7-.3 2.4.1z"/><path opacity=".8" fill="#FFFEFD" d="M2178.7 1314.3c.6-.6 1.8-.7 2.6-.3l-.1-.1c-.8-.5-2.1-.4-2.7.2-.7.6-.5 1.5.3 2 .1 0 .1.1.1.1-.7-.5-.8-1.3-.2-1.9z"/><path opacity=".38" fill="#FFF" d="M2181.5 1315.9c-.1.1-.2.1-.3.2l-.1.1c-.2.1-.5.2-.8.2h-.2c-.5 0-.9-.1-1.3-.3-.3-.2-.5-.4-.6-.6.7-.1 1.5-.1 2.4.1l.9.3z"/><linearGradient id="ao" gradientUnits="userSpaceOnUse" x1="-5560.593" y1="4095.63" x2="-5560.593" y2="4093.659" gradientTransform="matrix(.6841 -.868 -.868 -.6841 9541.375 -711.497)"><stop offset="0" stop-color="#B9B0A9"/><stop offset="1" stop-color="#F8F7F5"/></linearGradient><path fill="url(#ao)" d="M2184 1313.1c.4.2.5.6.4.9-.1.3-.6.6-1.1.6-.5 0-1-.2-1.2-.5-.2-.4-.1-.8.3-1 .5-.2 1.2-.2 1.6 0z"/><path opacity=".8" fill="#FFFEFD" d="M2182.5 1313.4c.4-.4 1.1-.4 1.6-.2h-.1c-.5-.3-1.3-.2-1.7.1-.4.4-.3.9.2 1.2h.1c-.4-.3-.5-.8-.1-1.1z"/><path opacity=".38" fill="#FFF" d="M2184.2 1314.3c-.1 0-.1.1-.2.1 0 0-.1 0-.1.1-.1.1-.3.1-.5.2h-.1c-.3 0-.6 0-.8-.2-.2-.1-.3-.2-.4-.4.4-.1 1-.1 1.5.1.3 0 .5.1.6.1z"/><path fill="#FFF" d="M2178.4 1316.1l-.3-.3-.3-.3c0-.1-.1-.1-.1-.2s-.1-.1-.1-.2 0-.2-.1-.2V1314.6s0-.1.1-.1.1-.1.2-.1.1-.1.1-.1h.1l-.1.1-.1.1-.1.1c0 .1 0 .1-.1.2v.4c.1.3.2.5.4.7.4.1.5.2.4.2z"/><path fill="#B5AEA8" d="M2178.7 1316.4l-.2-.3 5.7-1.3"/><path d="M2177.3 1315.1l3 1.7c-.1 0-.1 0-.2.1l-2.7-1.5c0-.2-.1-.2-.1-.3zm.2-.7l3.7 2.1s-.1 0-.2.1l-3.6-2.1s0-.1.1-.1zm.6-.5l3.8 2.2c-.1 0-.1.1-.2.1l-3.9-2.2c.2-.1.3-.1.3-.1zm.9-.3l3.7 2.1c-.1 0-.1.1-.2.1l-3.7-2.1c.1-.1.1-.1.2-.1zm.9-.3l3.5 2c-.1 0-.1.1-.1.1l-3.5-2c0-.1.1-.1.1-.1zm1-.3l3.2 1.8-.1.1-3.3-1.9h.2zm.9-.3l2.9 1.7-.1.1-3-1.7c.1 0 .2 0 .2-.1zm1.1-.2l2.4 1.4s0 .1-.1.1l-2.6-1.5h.3z" opacity=".79" fill="#E5E0DA"/><g><linearGradient id="ap" gradientUnits="userSpaceOnUse" x1="480.158" y1="4092.981" x2="485.916" y2="4092.981" gradientTransform="rotate(128.242 2146.867 3315.13) scale(1.1052)"><stop offset="0" stop-color="#BDBCB7"/><stop offset=".039" stop-color="#C9C8C4"/><stop offset=".123" stop-color="#DDDCDA"/><stop offset=".223" stop-color="#ECECEB"/><stop offset=".346" stop-color="#F7F7F6"/><stop offset=".52" stop-color="#FDFDFD"/><stop offset="1" stop-color="#FFF"/></linearGradient><path fill="url(#ap)" d="M2195.5 1303.5c.2.1.6.1 1 0 .1 0 .1 0 .2-.1.1 0 .1-.1.2-.2s.1-.1.2-.3l.1-.1c.1-.1.2-.3.3-.5 0 0 0-.1.1-.1.1-.2.2-.3.3-.5 0 0 0-.1.1-.1.1-.2.2-.3.3-.5 0 0 0-.1.1-.1.1-.2.2-.3.3-.5 0 0 0-.1.1-.1.1-.2.2-.3.2-.4 0 0 0-.1.1-.1 0 0 0-.1.1-.1.1-.2.1-.4.2-.6v-.2c0-.3 0-.6-.3-.8-.5-.4-1.6-.7-1.6-.7s-.4-.1-.8-.1h-.3c-.2 0-.4 0-.5.1-.1.1-.2.1-.3.1-.1 0-.1 0-.2.1-.2.1-.3.2-.4.4v.1c-.1.1-.1.3-.2.6v.1c0 .2-.1.4-.1.6v.2c0 .2-.1.4-.1.6v.1c0 .2-.1.4-.1.6v.2c0 .3-.1.5-.1.6v.1c.1.6.6 1 .6 1s.2.5.5.6z"/><linearGradient id="aq" gradientUnits="userSpaceOnUse" x1="480.385" y1="4092.972" x2="485.692" y2="4092.972" gradientTransform="rotate(128.242 2146.867 3315.13) scale(1.1052)"><stop offset="0" stop-color="#B9B0A9"/><stop offset="1" stop-color="#7D7573"/></linearGradient><path fill="url(#aq)" d="M2196.7 1303.2c0-.1 0-.1 0 0 .2-.2.8-1 .6-1.8-.1-.6 1-.3 1.4-1.3.3-.6.4-1.3.1-1.5-.5-.4-1.5-.6-1.5-.6-.4-.1-1.1-.2-1.4-.1-.1 0-.2.1-.3.1-.2.1-.2.1-.3.2-.1.1-.1.1-.2.3-.2.4-.8 3-.8 3.6 0 .5.5.9.5 1 .2.1.5.3.7.4.5-.1.9-.1 1.2-.3z"/><path fill="#FFF" d="M2194.5 1301.4l.4-.4s1 .4 1.1.5c.1.2-.7 1.6-.7 1.6l-1-.8.2-.9z"/><linearGradient id="ar" gradientUnits="userSpaceOnUse" x1="482.146" y1="4094.637" x2="482.146" y2="4091.447" gradientTransform="rotate(128.242 2146.867 3315.13) scale(1.1052)"><stop offset="0" stop-color="#B9B0A9"/><stop offset="1" stop-color="#F8F7F5"/></linearGradient><path fill="url(#ar)" d="M2195.7 1300.6c.6.4 1.5.4 2.2.1.7-.3 1.1-.9.9-1.5-.2-.6-.8-1-1.6-1.1-.8-.1-1.7.2-2.1.8-.4.5-.2 1.3.6 1.7z"/><path opacity=".8" fill="#FFFEFD" d="M2195.6 1298.7c-.6.6-.5 1.4.2 1.9 0 0-.1 0-.1-.1-.8-.5-1-1.4-.3-2 .7-.6 1.9-.7 2.7-.2.1 0 .1.1.1.1-.8-.4-2-.3-2.6.3z"/><path opacity=".38" fill="#FFF" d="M2198.4 1300.3l.2-.2.1-.1c.1-.2.2-.4.2-.6v-.2c-.1-.3-.3-.6-.7-.9-.3-.2-.6-.3-1-.3 0 .5.2 1.1.7 1.7.1.3.3.5.5.6z"/><linearGradient id="as" gradientUnits="userSpaceOnUse" x1="484.512" y1="4093.187" x2="484.512" y2="4091.221" gradientTransform="rotate(128.242 2146.867 3315.13) scale(1.1052)"><stop offset="0" stop-color="#B9B0A9"/><stop offset="1" stop-color="#F8F7F5"/></linearGradient><path fill="url(#as)" d="M2195.2 1302.8c.4.2.9.2 1.3.1.4-.2.7-.6.6-.9-.1-.3-.5-.6-1-.7-.5-.1-1.1.1-1.3.5-.2.3 0 .7.4 1z"/><path opacity=".8" fill="#FFFEFD" d="M2195.2 1301.6c-.4.4-.3.9.1 1.2h-.1c-.5-.3-.6-.8-.2-1.2.4-.4 1.2-.4 1.7-.1h.1c-.5-.3-1.2-.2-1.6.1z"/><path opacity=".38" fill="#FFF" d="M2196.9 1302.6c.1 0 .1-.1.1-.1v-.1c.1-.1.1-.3.1-.4v-.1c0-.2-.2-.4-.4-.5-.2-.1-.4-.2-.6-.2 0 .3.1.7.4 1l.4.4z"/><path fill="#FFF" d="M2197.9 1298.1l-.4-.2c-.1 0-.3-.1-.5-.1h-1.3s-.1 0-.1.1h-.1c-.1 0-.1.1-.1.1v.2l.1-.1.1-.1.1-.1c.1 0 .1 0 .2-.1.1 0 .2 0 .2-.1h.3c.4 0 .8 0 1 .1.3.3.5.3.5.3z"/><path fill="#B5AEA8" d="M2198.3 1298.2l-.4-.1-.4 4.4"/><path d="M2196.3 1297.6l3 1.7v-.2l-2.7-1.5h-.3zm-1 .2l3.7 2.1s0-.1.1-.1l-3.6-2.1c0 .1-.1.1-.2.1zm-.4.6l3.8 2.2s0-.1.1-.1l-3.9-2.2v.1c0-.1 0 0 0 0zm-.2.7l3.7 2.1s0-.1.1-.1l-3.7-2.1c-.1 0-.1 0-.1.1zm-.2.7l3.5 2s0-.1.1-.1l-3.5-2c-.1 0-.1.1-.1.1zm-.2.8l3.2 1.8s0-.1.1-.1l-3.3-1.9c.1.1 0 .1 0 .2zm-.1.7l2.9 1.7.1-.1-3-1.7v.1zm-.1.8l2.4 1.4c.1 0 .1 0 .2-.1l-2.6-1.5v.2z" opacity=".79" fill="#E5E0DA"/></g><path d="M2184.6 1305c-2.7 2.5-6.8 6-8.8 7.4-.1 0-.2.1-.3 0l-.1-.1c-.1-.1-.4-.3-1-.7-.1-.1-.1-.1-.2-.1-1-.8-1.8-1.4-2.3-2.1-1.1-1.5-1-2.9.4-4.2l10.2-9.1.1-.1.3-.3c.5-.3 1.3-.5 2.4-.4 2.2.1 4.6.9 6.7 1.7 0 0 .1 0 .1.1v.1c-.4.5-.8.9-1.3 1.5-1.8 2-3.9 4.2-6.2 6.3zm-8.9 7c5.7-4.4 10.7-9 14.9-13.6.4-.5.8-.9 1.1-1.3-2-.7-4.2-1.4-6.3-1.6-1-.1-1.7 0-2.1.3-.1.1-.2.1-.3.2l-.1.1-10.2 9.1c-1.3 1.2-1.4 2.5-.4 3.9.5.7 1.2 1.3 2.2 2.1l.1.1c.7.4.9.6 1.1.7z"/><g opacity=".35" fill="#FFF"><path d="M2174.9 1312.4c0 .3-.6.1-.7-.1-.2-.2-.4-.5-.6-.7.3.2.5.4.8.6.1.1.2.2.3.2.1.1.1 0 .2 0zm17.1-15.8c.4-.1-.1-.5-.3-.5-.4-.1-.7-.2-1.1-.3.3.1.6.2.9.4.1.1.3.1.3.2.2.1.1.2.2.2z"/></g><path opacity=".39" fill="#FFF" d="M2185.1 1310.5s3.5-3.3 3.6-3.4c.1-.1 3.4-3 3.4-3s-2.3 2.5-3 3.2c-.9.7-4 3.2-4 3.2z"/><linearGradient id="at" gradientUnits="userSpaceOnUse" x1="-5554.306" y1="4092.911" x2="-5551.426" y2="4092.911" gradientTransform="matrix(.6841 -.868 -.868 -.6841 9541.375 -711.497)"><stop offset="0" stop-color="#B9B0A9"/><stop offset="1" stop-color="#F8F7F5"/></linearGradient><path fill="url(#at)" d="M2189.1 1307.7c.6-.6 1.6-.8 2.1-.5s.4 1-.2 1.6c-.6.6-1.6.8-2.1.5-.5-.2-.4-1 .2-1.6z"/><g><path fill="#151717" d="M2189.5 1308.7l.1.1-.2.2-.1-.1-.1.1-.2-.2.6-.5-.1.4zm.1.1c-.1.1-.1.2-.2.2l.2-.2zm.1.1l.1.1-.2.2-.1-.1.2-.2zm.2 0l-.1-.1c.1-.1.2-.1.2-.2 0 0 0 .1.1.1l-.2.2zm-.1-.2c0-.1.1-.2.2-.3-.1.2-.1.2-.2.3zm-.1-.1c-.1-.2-.1-.4 0-.5l.2-.2.3.3-.1.1-.1-.1c0 .1 0 .1.1.2-.2.1-.3.2-.4.2zm.6-.4c0 .1-.1.1-.1.1h.1c-.1 0-.1 0 0-.1zm.1.1l-.1.2-.1-.1.1-.1s0 .1.1 0zm.3-.5c.1 0 0 0 0 0v-.1l-.1-.1H2190.3l.2.2c-.1.1-.2.1-.2.2l-.3-.3.3-.3s.1 0 .1-.1 0 0 .1 0h.3l.1.1.1.1v.1c0 .1-.1.2-.3.2zm-.1.5c.1-.2.3-.3.4-.4h-.1l-.3.4zm-.2-.1c.2-.2.5-.4.6-.5v.1c-.1.1-.3.2-.6.4z"/></g><path opacity=".2" fill="#FFF" d="M2189.8 1296.3l-1.8 5.3c-1.3 1.3-2.6 2.6-3.9 3.8l3.4-9.7c.6.1 1.5.3 2.3.6zm-2.8-.7l-4 10.6-.6.5 2.6-11.3h.4c.5 0 1.1.1 1.6.2z"/><g><path fill="#221C1C" d="M2203 1301.8l2.3 1.3c-.3.6-.8 1.5-1 1.8-.1.1-.2.4-.4.6l-14.2 13.1c-.3.2-.5.3-.7.4-.5.3-1.8 1-2.6 1.3l-2.2-1.3 18.8-17.2z"/><path fill="#686868" d="M2202.4 1305.6c0 .1 0 .1 0 0-.2.2-.4.2-.6.2-.5-.1-.9-.7-.9-.7l.2-.1c.1.2.4.6.8.6.1 0 .3 0 .4-.1.7-.5 1.2-2.7 1.2-2.8h.2c-.1.2-.6 2.3-1.3 2.9zm-13 12.1c-.7.6-3.3 1.5-3.4 1.5l-.1-.1s2.9-.9 3.4-1.5c.1-.1.1-.2.1-.3-.1-.2-.8-.4-1.1-.4v-.1s1 .1 1.2.5c.1 0 .1.2-.1.4zm11.6-10.7l-9.6 8.9c-.4.4-.8.6-1.3.6-.6 0-1-.3-1.1-.3l.1-.1s.4.3.9.3c.4 0 .8-.2 1.1-.5l9.6-8.9c.7-.6-.3-1.4-.3-1.4l.1-.1c.1-.1 1.3.8.5 1.5z"/></g><path fill="#A9A09B" d="M2202.6 1299.3c-1-.5-1.2.1-1.2.1v.7c0 .4.1 1.3-.1 1.9-.2.6-1.9 2.3-1.9 2.3l.5.5s3-2.9 3.2-2.9c.2 0 .7.4 1 1.2s-1.6 3.2-1.6 3.2l-5.8 5.3-.4.3-.4.3-5.7 5.3s-2.7 1.8-3.8 1.9c-1.1 0-1.7-.3-1.8-.4-.1-.2 3.1-3 3.1-3l-.8-.2s-1.9 1.6-2.6 1.9c-.7.3-2 .5-2.5.5l-1 .2s-.7.2.2.8c.9.6 2.9 1.5 3.1 1.6.2.1 1.2-.2 2-.5s2.2-1 2.7-1.4c.5-.3 1.8-1 1.8-1l5.9-5.4.7-.7 5.9-5.4s.7-1.1 1-1.5c.3-.4 1-1.6 1.2-2.2.2-.6.3-1.4.1-1.5 0-.2-1.7-1.4-2.8-1.9z"/><path fill="#635D5F" d="M2205.7 1301.3c.1.1.1.9-.1 1.5 0 .1-.1.2-.2.4-.3.6-.8 1.5-1 1.9-.1.1-.2.4-.4.6-.3.5-.6.9-.6.9l-12.5 11.6s-.6.3-1.1.6c-.3.2-.5.3-.7.4-.5.3-1.8 1-2.6 1.3h-.1c-.8.3-1.8.5-2 .5-.2-.1-2.2-1-3.1-1.6-.9-.6-.2-.8-.2-.8l1-.2c.5-.1 1.8-.3 2.5-.5.7-.3 2.6-1.9 2.6-1.9l.3.1.5.1s-3.1 2.8-3.1 3c.1.2.7.4 1.8.4s3.8-1.9 3.8-1.9l5.7-5.3.4-.3.4-.3 5.8-5.3s1.8-2.4 1.6-3.2c-.3-.8-.8-1.2-1-1.2-.2 0-3.2 2.9-3.2 2.9l-.3-.3-.2-.2s1.7-1.7 1.9-2.3c.2-.6.1-1.6.1-1.9v-.7s.1-.5 1.2-.1c.9.4 2.6 1.6 2.8 1.8z"/><g><path fill="#F79645" d="M2183.8 1319.3l-1.1.3h-.2l-.4-.2c-.1-.1-.1-.2 0-.2l1.1-.3h.2l.4.2c.2 0 .2.2 0 .2z"/><path opacity=".35" fill="#FFF" d="M2183.5 1319.2l-.3.1h-.2c-.1-.1-.1-.2.1-.2l.3-.1h.2c0 .1 0 .2-.1.2z"/></g><g><path fill="#F79645" d="M2203.4 1301.2l.1-.9s0-.1-.1-.1l-.4-.2c-.1-.1-.3 0-.3.1l-.1.9s0 .1.1.1l.4.2c.1.1.3 0 .3-.1z"/><path opacity=".35" fill="#FFF" d="M2203.2 1301v-.3s0-.1-.1-.1c-.1-.1-.3 0-.3.1v.3s0 .1.1.1.3 0 .3-.1z"/></g><path fill="#F77575" d="M2200.8 1304.3c-4.3 4-8.6 8-13 12-.2-.1-.5-.3-.8-.4 4.1-4.1 8.4-8.1 13-12 .2.1.5.2.8.4z"/><path fill="#BE3B40" d="M2200.9 1304.3c-4.3 4-8.6 8-13 12-.2-.1-.5-.3-.8-.4 4.1-4.1 8.4-8.1 13-12 .3.1.5.3.8.4z"/><linearGradient id="au" gradientUnits="userSpaceOnUse" x1="-5552.194" y1="4086.419" x2="-5552.194" y2="4090.226" gradientTransform="matrix(.6841 -.868 -.868 -.6841 9541.375 -711.497)"><stop offset="0" stop-color="#7F7F7F"/><stop offset=".5" stop-opacity=".993"/><stop offset="1" stop-color="#877777" stop-opacity=".987"/></linearGradient><path fill="url(#au)" d="M2189.6 1313.7l7.5-7 2.3 1.3-7.5 7"/><path fill="#FFF" d="M2190.1 1313.6l7.1-6.6 1.8 1.1-7.2 6.5"/><g><path d="M2193.6 1310.9l.2.1.6.8-.2.2-.5-.8-.4.4-.2-.1.5-.6zm.7-.6l.2.1.6.8-.2.2-.5-.8-.4.4-.2-.1.5-.6zm.7-.7l.2.1.6.8-.2.2-.5-.8-.4.4-.2-.1.5-.6z"/></g><path opacity=".22" fill="#FFF" d="M2182.9 1320.1c1.7.1 3.2-.2 4.8-.6-.9 1.2-3.4.9-4.8.6zm21.3-19.6c.5 1.1.5 2.3.4 3.5h.1c1.2-.9.2-2.6-.5-3.5z"/><path fill="#B2B2B2" d="M2184.6 1304.8c-3 2.2-5.7 4.5-8.2 7-.1 0-.2-.1-.2-.1 2.5-2.5 5.2-4.9 8.2-7 .1 0 .2.1.2.1z"/><path fill="#B2B2B2" d="M2184.3 1305.2c2.2-2.6 4.7-5.1 7.5-7.5-.1 0-.2-.1-.2-.1-2.8 2.3-5.3 4.8-7.5 7.5 0 0 .1 0 .2.1z"/><g><path fill="#FFC687" d="M2174 1337.4s-12.2 1.1-16.2-4.4-.8-15.5 4.9-19.9c5.5-3.6 11.9-1.8 12.4-.3 1.7-2.2 5-4.5 7.5-.3s2.7 10 .9 13.6c-1.9 3.7-9.5 11.3-9.5 11.3z"/></g><g opacity=".2"><path d="M1453.1 1303.6c0 .6-.3 2.6.6 2.9.9.4 4.3.5 4.7-.6.4-1.3 0-3.1 0-4.4-1.7 1.1-3.5 1.2-5.3 2v.1zm-34.9 1.9c0 .6.3 1 .9 1.1.9.1 4.1.5 4.4-.8 0-.8.1-1.6 0-2.4-1.9-.4-3.8-1-5.4-2.1.1 1.4.1 2.8.1 4.2zm-.5-8.3c0 .9-.1 2.3.2 3.2.8 2.2 6.3 2.6 8.3 3.2 3.4.6 7.4 0 10.8 0 5.8 0 16.9 1.8 21.7-2.9.8-.7.9-5.5-.1-5.8-.7-.2-1.9 1.3-2.3 1.6-1.5 1.2-3 1.4-4.8 1.5 0-.3-23.1-1.1-25-.2-.1 0-.1.1-.1.2-1.2-.1-3.2.1-4.3-.5-1.2-.5-2.3-2.4-3.6-2.6-1-.2-.9 1.8-.8 2.3 0 .6-.1-.5 0 0zm42.6-17.6c-.8-.6-2.1-.7-3.1-.5-.4.1-.9.2-1.2.7-.2.3 0 .7-.2 1.1 0-2.2-2.8-6.1-4.3-7.7-2.5-2.8-8.2-2-11.6-2.1-3.9 0-10.3-1.1-13.8.9-2 1.2-5.2 6.4-5.2 8.5 0 .1 0 .2-.1.3-.1 0-.1 0-.2-.1-.1-.3 0-.6-.1-.8-.2-.9-1.7-.9-2.4-.9-.8 0-2.2.3-2.3 1.3 0 .4.1.8.4 1.1.6.9 4.4.5 4.1 1.6 0 1-1.8 3.4-2.3 4.9-.9 2.1-.6 5.2-.3 7.4.1-.5.4-1 .9-.7 2.9 1.9 4.3 2.9 7.8 3.1 0-.6 16.9-.4 18.3-.4.6 0 6.8.4 6.8.3 3.2-.2 4.2-1.6 6.8-3.1.4-.2.7.1.8.5.2-1.9.2-3.9-.1-5.9-.4-2.4-2.3-4-2.8-6.2 0-.2 0-.4.1-.5 1.2-.8 3.6.2 4.2-1.6.4-.3.3-.9-.2-1.2 1 .7-.8-.6 0 0-.8-.6-.8-.6 0 0zm-4 3.3zm.3 5.3c.4.6.7 1.4.8 2.1.1.7 0 1.4-.5 1.9-4.2 3.6-13.5 2.6-18.7 2.6-3.1 0-18 .9-18.9-3.5-.3-1.1.4-3 1.4-3.6.3-.1.6-.3.9-.3-.1-.2-.6-4 .2-3.8-1.5 5.4 3.7 4.1 6.3 7.4.6.8.8 2.1.1 2.9.2.1.4.1.6 0 .7-1.1.3-2.6-.7-3.4 6.6 1.3 13.5 1.4 20.2.4-.6.7-1 2.3-.2 3 .2.1.4.1.6.1-.7-.8-.6-2.1 0-2.9 1.5-2.2 5.1-2.1 6.7-3.7.8-.9.4-3.1.2-4.1l.2.2c.5 1.2.3 2.9-.2 4 .5.1.8.3 1 .7.4.6-.2-.4 0 0zm-2.5-4.7c-10.2 1.2-21.2 1.5-31.4 0 .1 0 .2-1.9.2-2.1.3-2.2.8-4.7 2.5-6.4 2.5-2.5 7-1.5 10.1-1.5 3.9.1 7.7.1 11.6.2 2.8 0 4 .5 5.3 3.1.3.7 2.7 5.8 2 6.5 0 .2-.3.2-.3.2-5.2.6 0 0 0 0zm-31.2-2c.2-1.4.1-.1 0 0zm-1.9-.6zm-2.3 15.8c.5.2.9.5 1.3.8v.6c0 .5-1.7-.4-1.6-.7-.1-.3-.1-.9.3-.7zm0 0c-.1-.1-.2-.2 0 0zm0 0c.1 0 .1 0 0 0zm27.1 4.8h-14.5v-3.3h14.5v3.3zm12.1-4.6c.1-.1.5-.4.7-.3.3.2.1.9-.1 1-.2.2-1 .9-1.4.6 0-.2 0-.7.1-.8.2-.2.5-.3.7-.5.2-.1-.2.2 0 0z"/></g><g><use xlink:href="#K" width="82.5" height="65.7" x="-41.2" y="-32.8" transform="matrix(5.8544 0 0 -5.8544 2076.309 535.991)" overflow="visible"/><path fill="#E6F5EB" d="M2190.6 482.3c-12.2.8-24.5 1.5-36.7 2.1-3.8.2-7.5.3-11.3.5.4-3.2.9-5.8 1.2-7.1 1.1-4.6-1.3-19.7-1.3-19.7s24.7-16.8 37.6-3.1c5.8 6.2 8.8 17.2 10.5 27.3z"/><path fill="#FFC687" d="M2176.9 430.3c-.3 6.1 2.8 11.3 6.8 11.4 4 .2 7.5-4.7 7.7-10.8.3-6.1-2.8-11.3-6.8-11.4-4-.2-7.5 4.7-7.7 10.8z"/><path fill="#FFAF73" d="M2178.8 430.5c-.1 3.5 1.9 6.4 4.6 6.5 2.7.1 4.9-2.6 5.1-6.1.1-3.5-1.9-6.4-4.6-6.5-2.7-.1-5 2.6-5.1 6.1z"/><path fill="#FFC687" d="M2181.3 457.7l-35.8 8.7-2.1-5.2s-19.9-17.6-16.5-43.2c0 0-.1-15.8 10.9-26.1s38.6 1.6 38.6 1.6l10 2-5.1 62.2z"/><ellipse transform="scale(-1) rotate(6.085 7874.17 -40566.542)" fill="#333" cx="2156.1" cy="418.5" rx="2.1" ry="4.5"/><ellipse fill="#FFF" cx="2156.5" cy="416.1" rx=".8" ry="1"/><ellipse transform="rotate(-173.88 2138.109 415.131)" fill="#333" cx="2138.1" cy="415.1" rx="2" ry="4.3"/><ellipse fill="#FFF" cx="2138.5" cy="412.7" rx=".8" ry=".9"/><path fill="none" stroke="#FFAF73" stroke-width="1.772" stroke-miterlimit="10" d="M2143.9 425.3s-8.3 3.1-7.8 7c0 2.8 4.1 1.5 4.1 1.5"/><path fill-rule="evenodd" clip-rule="evenodd" fill="#FFF" d="M2182.9 455.2s-33.4 6.2-41.7 5.9c2.7 5.7 3.2 9.4 2.7 11.4 0 0 34.3-13 38.8-13.4l.2-3.9z"/><path fill="#2F3F54" d="M2144.6 466.9c1.9 2.8 5.1 2.9 7.2.3 2.1-2.6.6-4.8-3.4-5-3.9-.1-5.7 2-3.8 4.7z"/><path fill="#534741" d="M2177.7 401.9c-.2 3.9.7 22 6.3 22.6 9.1.9 11.1-23.5 9.2-28.5-2.2-5.7-21.1-9.8-26.9-12.2-6.4-2.6-27.8-9.7-34.2-7.9-19.2 5.2 5.2 29.5 18.6 26 .7-2.4.2-4.4-1.5-6 8.1 5.9 18.8 6.8 28.5 6z"/><path fill="#F57B71" d="M2146.5 448.7c-4.3.9-8.4-1.2-9.2-4.8l15.5-3.4c.8 3.6-2 7.3-6.3 8.2z"/><path fill="#FFF" d="M2146.1 444.4c-3.1.8-6.1.7-8.6 0-.1-.2-.1-.4-.2-.6l15.5-3.4c0 .2.1.3.1.5-1.6 1.6-4 2.8-6.8 3.5z"/><path fill="#2D2D2D" d="M2157.1 472.6c13.8-3.7 28 .6 37 10.3 1.9 0 3.9 0 5.8.2-8-15.3-25.8-23.4-43.2-18.7-11.8 3.2-20.9 11.8-25.2 22.4 1.7-.2 3.4-.4 5.4-.6 5.2-6.5 11.8-11.5 20.2-13.6z"/><path fill="#FFC687" d="M2149.4 475.3c-1.4 2.8-6.8 8.3-8 9.6-1.9.1-3.8.1-5.7.2-3.2-.3-7.1-1.3-8.9-3.8-3.5-4.8-.7-13.7 4.4-17.5 4.8-3.2 10.5-1.6 10.9-.3 1.5-2 4.4-4 6.6-.3 2.1 3.8 2.3 8.9.7 12.1zm52.5 6c0 .1-.1.1-.1.2-3.7.3-7.5.5-11.2.8-1.8.1-3.6.2-5.4.4-2.1-2.2-4.9-5.4-5.9-7.4-1.6-3.2-1.4-8.3.8-12 2.2-3.7 5.1-1.7 6.6.3.4-1.3 6.1-2.9 10.9.3 4.9 3.8 7.8 12.6 4.3 17.4z"/><path fill="#B2B2B2" d="M2074.1 487.6c54.4-6.5 109-8.6 163.6-6.2v-3.7c-54.8-2.4-109.4-.2-163.8 6.2 0 1.2 0 2.4.2 3.7z"/><path opacity=".21" fill="#E1F6F9" d="M2249.3 477.1c-4.1.4-8 1.1-12 1.3-3.2.4-6.2.6-9.5.9-3 .2-5.8.4-8.8.9-5.8.5-11.5 1-17.3 1.4-3.7.3-7.5.5-11.2.8-1.8.1-3.6.2-5.4.4-10.4.7-20.8 1.2-31.3 1.8-3.8.2-7.5.3-11.3.5h-1.2c-1.9.1-3.8.1-5.7.2-22.1.7-44.2 1-66.1 1-6.5 0-12.9-.2-19.1-.2l-11.4-.2c-37-.9-74-2.8-110.7-5.8-3-.2-6.2-.4-9.3-.9-3.9-.4-8-.6-11.8-1.1 1.1 0 2.6-20.9 2.8-22.6 1.9-15.9 5.2-31.8 11.2-45.8 12.3-29.7 34.2-40.4 58.7-40 59.6.9 118.9 1.5 178.5 2.4 9.9.2 20 .2 29.9.4 2.6 0 5.4-.2 8 .2 7.7 1.5 14.6 7.7 20.2 15 1.1 1.3 1.9 2.8 3 4.3 3.7 5.6 6.9 11.6 9.9 17.8.6 1.5 1.3 2.8 1.9 4.3 4.3 9.9 7.7 20.4 10.5 31.2 3 10.5 5.4 21.3 7.5 31.8z"/><path opacity=".2" fill="#FFF" d="M2242 445.3l-88.2 39.1c-28.2 1.3-56.3 1.7-84.3 1.7l161.9-72c4.2 9.9 7.6 20.4 10.6 31.2zm-12.4-35.5l-179.3 76.1-11.4-.2 177.8-97.8c1.1 1.3 1.9 2.8 3 4.3 3.6 5.1 6.9 11.2 9.9 17.6z"/><g><radialGradient id="av" cx="1921.124" cy="560.209" r="78.228" gradientUnits="userSpaceOnUse"><stop offset="0" stop-color="#FFF"/><stop offset="1" stop-color="#FFF" stop-opacity="0"/></radialGradient><path fill="url(#av)" d="M1999.4 560.2c0 43.2-35 78.2-78.2 78.2s-78.2-35-78.2-78.2 35-78.2 78.2-78.2c43.1 0 78.2 35 78.2 78.2z"/><radialGradient id="aw" cx="2240.101" cy="560.209" r="78.228" gradientUnits="userSpaceOnUse"><stop offset="0" stop-color="#FFF"/><stop offset="1" stop-color="#FFF" stop-opacity="0"/></radialGradient><path fill="url(#aw)" d="M2318.3 560.2c0 43.2-35 78.2-78.2 78.2s-78.2-35-78.2-78.2 35-78.2 78.2-78.2 78.2 35 78.2 78.2z"/><radialGradient id="ax" cx="1921.124" cy="560.209" r="78.228" gradientUnits="userSpaceOnUse"><stop offset="0" stop-color="#FFF"/><stop offset="1" stop-color="#FFF" stop-opacity="0"/></radialGradient><path fill="url(#ax)" d="M1999.4 560.2c0 43.2-35 78.2-78.2 78.2s-78.2-35-78.2-78.2 35-78.2 78.2-78.2c43.1 0 78.2 35 78.2 78.2z"/><radialGradient id="ay" cx="2240.101" cy="560.209" r="78.228" gradientUnits="userSpaceOnUse"><stop offset="0" stop-color="#FFF"/><stop offset="1" stop-color="#FFF" stop-opacity="0"/></radialGradient><path fill="url(#ay)" d="M2318.3 560.2c0 43.2-35 78.2-78.2 78.2s-78.2-35-78.2-78.2 35-78.2 78.2-78.2 78.2 35 78.2 78.2z"/></g></g></svg>