<svg xmlns="http://www.w3.org/2000/svg" xmlns:xlink="http://www.w3.org/1999/xlink" width="2730" height="1536" viewBox="0 0 2730 1536"><defs><style>.a{fill:#ffc594}.b{fill:#8c6239}.c{fill:#754c24}.ae,.co,.cp,.cr,.d,.e,.q,.z{fill:#fff}.co,.d,.u{opacity:.2}.cv,.d,.e{isolation:isolate}.cv,.e{opacity:.1}.f{fill:#4d4d4d}.g{fill:#333}.h{fill:#666}.i{fill:#fec642}.j{fill:#e6b33c}.k{fill:#cdaf8b}.l{fill:#9b7b62}.m{fill:#edd2b5}.n{fill:#b59475}.do,.dp,.o,.r{opacity:.15}.p{fill:#b53737}.aa,.ab,.av,.aw,.ax,.ay,.bf,.bg,.bn,.bo,.bv,.bw,.cd,.ce,.cl,.cm,.r,.s,.y,.z{fill-rule:evenodd}.s{fill:#c44949}.t{fill:#ffbf0b}.v{fill:#ffc687}.w{fill:#154d70}.x{fill:#2179ae}.y{fill:url(#a)}.ae,.z{opacity:.3}.aa,.ct{opacity:.05}.ab{fill:url(#b)}.ac{fill:#1c6693}.ad{fill:url(#c)}.af{fill:url(#d)}.ag{fill:url(#e)}.ah{fill:url(#f)}.ai{fill:url(#g)}.aj{fill:url(#h)}.ak{fill:url(#i)}.al{fill:url(#j)}.am{fill:url(#k)}.an{fill:url(#l)}.ao,.ax{fill:#e6e6e6}.ap{fill:url(#m)}.aq{fill:url(#n)}.ar{fill:url(#o)}.as{fill:url(#p)}.at{fill:url(#q)}.au{fill:url(#r)}.av,.cq{fill:#ccc}.aw{fill:url(#s)}.ay{fill:url(#t)}.az{fill:url(#u)}.ba{fill:url(#v)}.bb{fill:url(#w)}.bc{fill:url(#x)}.bd{fill:url(#y)}.be{fill:url(#z)}.bf{fill:url(#aa)}.bg{fill:url(#ab)}.bh{fill:url(#ac)}.bi{fill:url(#ad)}.bj{fill:url(#ae)}.bk{fill:url(#af)}.bl{fill:url(#ag)}.bm{fill:url(#ah)}.bn{fill:url(#ai)}.bo{fill:url(#aj)}.bp{fill:url(#ak)}.bq{fill:url(#al)}.br{fill:url(#am)}.bs{fill:url(#an)}.bt{fill:url(#ao)}.bu{fill:url(#ap)}.bv{fill:url(#aq)}.bw{fill:url(#ar)}.bx{fill:url(#as)}.by{fill:url(#at)}.bz{fill:url(#au)}.ca{fill:url(#av)}.cb{fill:url(#aw)}.cc{fill:url(#ax)}.cd{fill:url(#ay)}.ce{fill:url(#az)}.cf{fill:url(#ba)}.cg{fill:url(#bb)}.ch{fill:url(#bc)}.ci{fill:url(#bd)}.cj{fill:url(#be)}.ck{fill:url(#bf)}.cl{fill:url(#bg)}.cm{fill:url(#bh)}.cn{fill:#195b83}.cp{opacity:.3}.cr,.dk{opacity:.5}.cs{fill:url(#bi)}.cu{fill:#719b38}.cw{fill:#4a4639}.cx,.db,.de,.di,.dm,.dn,.dq{fill:none;stroke-miterlimit:10}.cx{stroke:#4a4639;stroke-width:7.07px}.cy{fill:#a1cf72}.cz{fill:#84aa5e}.da{fill:#f9b578}.db,.dm,.dn{stroke:#4d4d4d;stroke-linecap:round}.db{stroke-width:5.55px}.dc{fill:#ffd1a4}.dd{fill:#ffaf73}.de,.dq{stroke:#ffaf73}.de{stroke-width:.56px}.df{fill:#b54a37}.dg{fill:#ff5d47}.dh{fill:#ffac81}.di{stroke:#ffd1a4;stroke-width:5.35px}.dj{fill:#fc9}.dk{fill:#f6a76a}.dl{fill:#68ccff}.dm,.dn{stroke-width:5.72px}.do{fill:url(#bj)}.dp{fill:url(#bk)}.dq{stroke-width:.73px}</style><linearGradient id="a" x1="1865.97" y1="701.03" x2="1865.97" y2="644.76" gradientUnits="userSpaceOnUse"><stop offset="0" stop-color="#267bb9"/><stop offset="1" stop-color="#46c7f4"/></linearGradient><linearGradient id="b" x1="2302.18" y1="701.42" x2="2302.18" y2="645.14" xlink:href="#a"/><linearGradient id="c" x1="1957.05" y1="694.72" x2="1957.05" y2="599.67" xlink:href="#a"/><linearGradient id="d" x1="2020.03" y1="694.72" x2="2020.03" y2="599.67" xlink:href="#a"/><linearGradient id="e" x1="2083.01" y1="694.72" x2="2083.01" y2="599.67" xlink:href="#a"/><linearGradient id="f" x1="2145.99" y1="694.72" x2="2145.99" y2="599.67" xlink:href="#a"/><linearGradient id="g" x1="2208.96" y1="694.72" x2="2208.96" y2="599.67" xlink:href="#a"/><linearGradient id="h" x1="1957.05" y1="597.92" x2="1957.05" y2="502.87" xlink:href="#a"/><linearGradient id="i" x1="2020.03" y1="597.92" x2="2020.03" y2="502.87" xlink:href="#a"/><linearGradient id="j" x1="2083.01" y1="597.92" x2="2083.01" y2="502.87" xlink:href="#a"/><linearGradient id="k" x1="2145.99" y1="597.92" x2="2145.99" y2="502.87" xlink:href="#a"/><linearGradient id="l" x1="2208.96" y1="597.92" x2="2208.96" y2="502.87" xlink:href="#a"/><linearGradient id="m" x1="1923.57" y1="596.35" x2="1904.18" y2="596.35" gradientUnits="userSpaceOnUse"><stop offset="0" stop-color="#eaeaea"/><stop offset="1" stop-color="#fff"/></linearGradient><linearGradient id="n" x1="1923.56" y1="596.35" x2="1904.2" y2="596.35" xlink:href="#m"/><linearGradient id="o" x1="1923.58" y1="596.35" x2="1904.13" y2="596.35" xlink:href="#m"/><linearGradient id="p" x1="1923.6" y1="596.35" x2="1904.1" y2="596.35" xlink:href="#m"/><linearGradient id="q" x1="1923.6" y1="596.35" x2="1904.12" y2="596.35" xlink:href="#m"/><linearGradient id="r" x1="1928.36" y1="596.35" x2="1901.34" y2="596.35" xlink:href="#m"/><linearGradient id="s" x1="1910.52" y1="689.36" x2="1935.88" y2="689.36" gradientUnits="userSpaceOnUse"><stop offset="0" stop-color="#9c9c9d"/><stop offset=".15" stop-color="#6d7172"/><stop offset=".38" stop-color="#9c9c9d"/><stop offset=".63" stop-color="#9c9c9d"/><stop offset=".93" stop-color="#6d7172"/><stop offset="1" stop-color="#9c9c9d"/></linearGradient><linearGradient id="t" x1="1910.52" y1="503.23" x2="1935.88" y2="503.23" xlink:href="#s"/><linearGradient id="u" x1="1966.92" y1="596.35" x2="1947.53" y2="596.35" xlink:href="#m"/><linearGradient id="v" x1="1966.91" y1="596.35" x2="1947.55" y2="596.35" xlink:href="#m"/><linearGradient id="w" x1="1966.93" y1="596.35" x2="1947.47" y2="596.35" xlink:href="#m"/><linearGradient id="x" x1="1966.95" y1="596.35" x2="1947.45" y2="596.35" xlink:href="#m"/><linearGradient id="y" x1="1966.95" y1="596.35" x2="1947.46" y2="596.35" xlink:href="#m"/><linearGradient id="z" x1="1971.7" y1="596.35" x2="1944.69" y2="596.35" xlink:href="#m"/><linearGradient id="aa" x1="1953.87" y1="689.36" x2="1979.23" y2="689.36" xlink:href="#s"/><linearGradient id="ab" x1="1953.87" y1="503.23" x2="1979.23" y2="503.23" xlink:href="#s"/><linearGradient id="ac" x1="2010.26" y1="596.35" x2="1990.87" y2="596.35" xlink:href="#m"/><linearGradient id="ad" x1="2010.25" y1="596.35" x2="1990.9" y2="596.35" xlink:href="#m"/><linearGradient id="ae" x1="2010.27" y1="596.35" x2="1990.82" y2="596.35" xlink:href="#m"/><linearGradient id="af" x1="2010.3" y1="596.35" x2="1990.8" y2="596.35" xlink:href="#m"/><linearGradient id="ag" x1="2010.29" y1="596.35" x2="1990.81" y2="596.35" xlink:href="#m"/><linearGradient id="ah" x1="2015.05" y1="596.35" x2="1988.04" y2="596.35" xlink:href="#m"/><linearGradient id="ai" x1="1997.21" y1="689.36" x2="2022.57" y2="689.36" xlink:href="#s"/><linearGradient id="aj" x1="1997.21" y1="503.23" x2="2022.57" y2="503.23" xlink:href="#s"/><linearGradient id="ak" x1="2244.75" y1="596.35" x2="2225.38" y2="596.35" xlink:href="#m"/><linearGradient id="al" x1="2244.74" y1="596.35" x2="2225.39" y2="596.35" xlink:href="#m"/><linearGradient id="am" x1="2244.77" y1="596.35" x2="2225.3" y2="596.35" xlink:href="#m"/><linearGradient id="an" x1="2244.79" y1="596.35" x2="2225.29" y2="596.35" xlink:href="#m"/><linearGradient id="ao" x1="2244.78" y1="596.35" x2="2225.3" y2="596.35" xlink:href="#m"/><linearGradient id="ap" x1="2249.54" y1="596.35" x2="2222.53" y2="596.35" xlink:href="#m"/><linearGradient id="aq" x1="2231.7" y1="689.36" x2="2257.06" y2="689.36" xlink:href="#s"/><linearGradient id="ar" x1="2231.7" y1="503.23" x2="2257.06" y2="503.23" xlink:href="#s"/><linearGradient id="as" x1="2201.4" y1="596.35" x2="2182.03" y2="596.35" xlink:href="#m"/><linearGradient id="at" x1="2201.39" y1="596.35" x2="2182.04" y2="596.35" xlink:href="#m"/><linearGradient id="au" x1="2201.42" y1="596.35" x2="2181.95" y2="596.35" xlink:href="#m"/><linearGradient id="av" x1="2201.44" y1="596.35" x2="2181.94" y2="596.35" xlink:href="#m"/><linearGradient id="aw" x1="2201.44" y1="596.35" x2="2181.95" y2="596.35" xlink:href="#m"/><linearGradient id="ax" x1="2206.19" y1="596.35" x2="2179.18" y2="596.35" xlink:href="#m"/><linearGradient id="ay" x1="2188.36" y1="689.36" x2="2213.72" y2="689.36" xlink:href="#s"/><linearGradient id="az" x1="2188.36" y1="503.23" x2="2213.72" y2="503.23" xlink:href="#s"/><linearGradient id="ba" x1="2158.06" y1="596.35" x2="2138.69" y2="596.35" xlink:href="#m"/><linearGradient id="bb" x1="2158.05" y1="596.35" x2="2138.69" y2="596.35" xlink:href="#m"/><linearGradient id="bc" x1="2158.08" y1="596.35" x2="2138.6" y2="596.35" xlink:href="#m"/><linearGradient id="bd" x1="2158.09" y1="596.35" x2="2138.59" y2="596.35" xlink:href="#m"/><linearGradient id="be" x1="2158.09" y1="596.35" x2="2138.61" y2="596.35" xlink:href="#m"/><linearGradient id="bf" x1="2162.85" y1="596.35" x2="2135.83" y2="596.35" xlink:href="#m"/><linearGradient id="bg" x1="2145.01" y1="689.36" x2="2170.37" y2="689.36" xlink:href="#s"/><linearGradient id="bh" x1="2145.01" y1="503.23" x2="2170.37" y2="503.23" xlink:href="#s"/><linearGradient id="bi" x1="2083.02" y1="696.78" x2="2083.02" y2="642.74" xlink:href="#a"/><radialGradient id="bj" cx="2107.07" cy="615.92" r="6.1" gradientUnits="userSpaceOnUse"><stop offset="0" stop-color="#ed1c24"/><stop offset=".07" stop-color="#ed1c24" stop-opacity=".88"/><stop offset=".2" stop-color="#ed1c24" stop-opacity=".65"/><stop offset=".34" stop-color="#ed1c24" stop-opacity=".45"/><stop offset=".48" stop-color="#ed1c24" stop-opacity=".29"/><stop offset=".62" stop-color="#ed1c24" stop-opacity=".16"/><stop offset=".75" stop-color="#ed1c24" stop-opacity=".07"/><stop offset=".88" stop-color="#ed1c24" stop-opacity=".02"/><stop offset="1" stop-color="#ed1c24" stop-opacity="0"/></radialGradient><radialGradient id="bk" cx="2122.2" cy="615.92" r="6.1" xlink:href="#bj"/><symbol id="bl" viewBox="0 0 102.6 117.4"><path class="a" d="M94.9 116.3H7.7V2.3h87.2v114z"/><path class="b" d="M94.9 7.6H7.7L0 0h102.6l-7.7 7.6zM7.7 109.8h87.2l7.7 7.6H0l7.7-7.6z"/><path class="c" d="M7.7 7.6v102.2L0 117.4V0l7.7 7.6zM94.9 7.6v102.2l7.7 7.6V0l-7.7 7.6z"/><path class="d" d="M95 109.8L7.4 7.1H95v102.7z"/><path class="e" d="M7.3 57.4l43.2 52.4H95L7.3 30.7v26.7zM7.3 24.3l87.8 63.4-.1-4.9-87.7-74v15.5z"/><path class="f" d="M70.66 68.46a46.93 46.93 0 0 1-38.92 0 3.17 3.17 0 0 1-1.85-2.88V48.43h42.62v17.15a3.16 3.16 0 0 1-1.85 2.88z"/><path class="g" d="M48 48.43v24.13a46.91 46.91 0 0 0 21.21-3.45 5.43 5.43 0 0 0 3.34-5V48.43z"/><path class="f" d="M54.32 56.53l-42.61-9.39 37.94-8.31 41.04 8.85-36.37 8.85z"/><path class="g" d="M90.69 47.68v1.09l-36.37 8.85v-1.09l36.37-8.85z"/><path class="h" d="M11.71 48.22v-1.08l42.61 9.39v1.09l-42.61-9.4z"/><path class="i" d="M18.83 56.72h-1.58v-8.3l1.58.29v8.01z"/><circle class="j" cx="18.04" cy="56.46" r="1.35"/><rect class="j" x="16.77" y="57.42" width="2.62" height="1.93" rx=".97" ry=".97"/><path class="i" d="M18.61 59.36h-1.06a.53.53 0 0 0-.51.42l-2 9.49a.53.53 0 0 0 .51.63h5a.53.53 0 0 0 .51-.63l-2-9.49a.52.52 0 0 0-.45-.42zM17.25 48.42L48.6 46.1l.89.49-30.66 2.12-1.58-.29z"/><ellipse class="g" cx="51.2" cy="46.59" rx="6.05" ry="1.62"/><ellipse class="k" cx="85.77" cy="60.27" rx="1.15" ry="4.87" transform="rotate(-16.22 85.782 60.268)"/><path class="l" d="M85.94 55.15l2.72 9.36s-1.86.49-5.16 1.41c-12.42 2.63-24.27 6.55-36.27 10.57-2.93.85-5.15 1.58-5.15 1.58l-2.72-9.36s2.23-.57 5.17-1.42a253.43 253.43 0 0 0 36.32-10.56c3.23-1.04 5.09-1.58 5.09-1.58z"/><path class="k" d="M86.64 57.53l2 7s-1.84.47-5.14 1.39c-12.42 2.63-24.27 6.55-36.27 10.57-2.93.85-5.15 1.58-5.15 1.58l-2-7s2.32-.62 5.25-1.47c12.15-3.12 24.19-6.4 36.14-10.5 3.29-1.02 5.17-1.57 5.17-1.57z"/><path class="l" d="M39.38 68.7c.58-.17 1.37.64 2.05 2a13 13 0 0 1 .87 2.24v.09c.72 2.55.63 4.79-.23 5-.61.18-1.45-.72-2.15-2.19l.63-.83-1 .09c-.16-.4-.31-.83-.44-1.29-.68-2.56-.59-4.86.27-5.11z"/><path class="m" d="M42.63 71.24l1.3-.2-1 .91c.08.23.16.47.24.72a10.74 10.74 0 0 1 .34 1.6l5-1.48c11.44-3.54 22.78-6.84 34.35-10l4.94-1.41-1.82-6.24s-1.87.54-5.1 1.58a253.3 253.3 0 0 1-36.36 10.57c-2.94.85-5.17 1.42-5.17 1.42.9-.26 2.48.74 3.28 2.53z"/><path class="n" d="M41.39 70.69a13 13 0 0 1 .87 2.24v.09l-1.82.42a2.62 2.62 0 0 1 .95-2.75z"/><path class="m" d="M86.21 61.84l3.43-1c-.25-.85-.51-1.59-.77-2.24l-1.6.29 1.3-1a15.35 15.35 0 0 0-1-2 1.66 1.66 0 0 0-1.86-.71l-1.27.37z"/><path class="o" d="M63.05 62.51l2.52 3.73-.13 4.5-2.85.83.12-4.5-2.52-3.73 2.86-.83z"/><path class="p" d="M62.84 62.57l2.51 3.73-.12 4.5-2.86.83.13-4.5-2.52-3.73 2.86-.83z"/><path class="p" d="M62.84 62.57l2.51 3.73-.12 4.5-2.86.83.13-4.5-2.52-3.73 2.86-.83z"/><path class="q" d="M62.93 67.01l-.13 4.5.22-.07.12-4.5-2.52-3.73-.21.07 2.52 3.73zM64.85 66.45l-.12 4.5.21-.07.12-4.5-2.51-3.73-.22.07 2.52 3.73z"/><path class="r" d="M66.41 69.08a2.53 2.53 0 1 0-3.85 1.08l-.9 4.18 1.42-1.75.74 2.31.9-4.33 3.18 3-.75-2.34 2.16.62z"/><path class="s" d="M66.22 68.49a2.53 2.53 0 1 0-3.85 1.08l-.9 4.18L62.89 72l.74 2.31.9-4.33 3.18 3-.71-2.32 2.16.62z"/><path class="q" d="M63.53 73L63 71.31l-.91 1.13.66-3-.17-.13a2.16 2.16 0 0 1-.78-1.09 2.19 2.19 0 1 1 4.11.15l-.09.22 2 2-1.48-.38.54 1.69-2.3-2.27-.4.11zm-.47-2l.46 1.44.59-2.85.61-.17 2 1.93-.43-1.35 1.14.33-1.76-1.67.11-.3a2.05 2.05 0 1 0-3.14.88l.24.19-.53 2.51z"/><path class="q" d="M66.91 71.88l-.61-1.93.17.05.67 2.07-.23-.19z"/><path class="t" d="M63.77 68.12v.65l-.54.17v-2.56l.69-.22 1.47 2.1-.57.18-.37-.54zm.47-.58l-.3-.45c-.09-.13-.18-.29-.26-.41v1.02z"/></symbol></defs><title>education</title><g class="u"><path d="M1468.31 1293.93l-1.3.23 1.05-.8a12.29 12.29 0 0 0-.84-1.58 1.34 1.34 0 0 0-1.27-.61l-37.6 10.92c-.67.24-.74 2.07-.14 4.13.11.37.23.71.36 1l.77-.07-.51.67c.56 1.16 1.22 1.88 1.71 1.76.24-.08 12-3.89 16-5.12l-.36 1.66.35-.43-.19.9 1.14-1.41.44 1.39.15.47.66-3.17.34-.1 2.32 2.2-.6-1.88 1.75.5-.66-.62.51.14-1.15-1.08c4.19-1.22 16.89-4.38 16.89-4.38l-.73-2.51 1.51-.44c-.18-.7-.39-1.25-.6-1.77z" class="o"/><path d="M1468.31 1291.93l-1.3.23 1.05-.8a12.29 12.29 0 0 0-.84-1.58 1.34 1.34 0 0 0-1.27-.61l-37.6 10.92c-.67.24-.74 2.07-.14 4.13.11.37.23.71.36 1l.77-.07-.51.67c.56 1.16 1.22 1.88 1.71 1.76.24-.08 12-3.89 16-5.12l-.36 1.66.35-.43-.19.9 1.14-1.41.44 1.39.15.47.66-3.17.34-.1 2.32 2.2-.6-1.88 1.75.5-.66-.62.51.14-1.15-1.08c4.19-1.22 16.89-4.38 16.89-4.38l-.73-2.51 1.51-.44c-.18-.7-.39-1.25-.6-1.77z"/></g><g class="u"><path d="M1436.64 1278l-30.65 6.69v.88l4.75.86v4.92a.92.92 0 0 0-.72.86 1.08 1.08 0 0 0 .35.79.34.34 0 0 0-.29.33v.88a.34.34 0 0 0 .34.34 1.18 1.18 0 0 0-.13.34l-1.58 7.64c-.05.26.18.78.45.78h3.69c.27 0 .77-.51.71-.78l-1.58-7.64a1.1 1.1 0 0 0-.13-.34.34.34 0 0 0 .34-.34v-.88a.34.34 0 0 0-.33-.34 1.07 1.07 0 0 0 .33-.78 1.09 1.09 0 0 0-.45-.88v-4.49l9 2.23v10.54a2.4 2.4 0 0 0 1.42 2.27 37.76 37.76 0 0 0 4.78 1.79c-.16-1.3 0-2.29.49-2.46.08 0 24.75-7 27.55-7.91v-3.69l14.76-3.59v-.88z" class="o"/><path d="M1436.64 1276l-30.65 6.69v.88l4.75.86v4.92a.92.92 0 0 0-.72.86 1.08 1.08 0 0 0 .35.79.34.34 0 0 0-.29.33v.88a.34.34 0 0 0 .34.34 1.18 1.18 0 0 0-.13.34l-1.58 7.64c-.05.26.18.78.45.78h3.69c.27 0 .77-.51.71-.78l-1.58-7.64a1.1 1.1 0 0 0-.13-.34.34.34 0 0 0 .34-.34v-.88a.34.34 0 0 0-.33-.34 1.07 1.07 0 0 0 .33-.78 1.09 1.09 0 0 0-.45-.88v-4.49l9 2.23v10.54a2.4 2.4 0 0 0 1.42 2.27 37.76 37.76 0 0 0 4.78 1.79c-.16-1.3 0-2.29.49-2.46.08 0 24.75-7 27.55-7.91v-3.69l14.76-3.59v-.88z"/></g><path class="f" d="M2198.77 1303.89c-1.63 5.2-6.19 9.62-12.5 12.1a2.13 2.13 0 0 1-1.79-.12l-7.13-4.16 13.68-13.26 7.13 4.16a1.1 1.1 0 0 1 .61 1.28z"/><path class="g" d="M2183.15 1306.08l10 5.85a17.67 17.67 0 0 0 5.38-7.43 1.88 1.88 0 0 0-1-2.25l-6.51-3.8z"/><path class="f" d="M2188.57 1306.07l-17.6 11 8.73-13.85 16.86-10.6-7.99 13.45z"/><path class="g" d="M2196.56 1292.62l.45.27-7.99 13.45-.45-.27 7.99-13.45z"/><path class="h" d="M2171.43 1317.33l-.46-.26 17.6-11 .45.27-17.59 10.99z"/><path class="i" d="M2177.25 1317.17l-.51.49-3.45-2.01.63-.42 3.33 1.94z"/><path class="j" d="M2177.32 1316.93a.45.45 0 0 1 .13.75.87.87 0 0 1-1 .09.45.45 0 0 1-.13-.75.87.87 0 0 1 1-.09z"/><path class="j" d="M2178.21 1317.94l-.22.22a.63.63 0 0 1-.71.07.32.32 0 0 1-.09-.54l.22-.22a.63.63 0 0 1 .71-.07.32.32 0 0 1 .09.54z"/><path class="i" d="M2178.27 1317.88l-.34.33a.17.17 0 0 0 0 .26l3.32 2.91a.34.34 0 0 0 .43 0l1.6-1.55c.11-.1.06-.26-.1-.31l-4.57-1.69a.34.34 0 0 0-.34.05zM2173.29 1315.65l9.1-10.33.49-.16-8.96 10.07-.63.42z"/><path class="g" d="M2185.37 1302.75c.37.22-.2 1.24-1.27 2.28s-2.25 1.71-2.62 1.49.2-1.24 1.27-2.28 2.25-1.71 2.62-1.49z"/><path class="k" d="M2197.84 1296.5c.12-.23 1.29-.1 2.6.29s2.28.9 2.16 1.13-1.29.1-2.6-.29-2.29-.9-2.16-1.13z"/><path class="l" d="M2198.14 1295.91l4.76 1.43s-.37.71-1.07 1.95a111.84 111.84 0 0 0-7.25 13.83c-.59 1.12-1 2-1 2l-4.76-1.42s.48-.83 1.07-2a86.81 86.81 0 0 0 7.28-13.85c.6-1.23.97-1.94.97-1.94z"/><path class="k" d="M2199.36 1296.28l3.55 1.06s-.37.71-1.07 1.95a111.84 111.84 0 0 0-7.25 13.83c-.59 1.12-1 2-1 2L2190 1314s.49-.87 1.07-2c2.61-4.55 5.11-9.09 7.24-13.79.69-1.21 1.05-1.93 1.05-1.93z"/><path class="l" d="M2188.83 1313.67c.12-.22.71-.27 1.49-.16a8.64 8.64 0 0 1 1.21.27c1.29.39 2.19 1 2 1.29s-.77.28-1.6.14l-.14-.4-.27.32-.68-.17c-1.26-.38-2.19-.96-2.01-1.29z"/><path class="m" d="M2190.93 1313.27l.33-.45.05.54.37.1a6.63 6.63 0 0 1 .77.28l1-1.9c2.2-4.42 4.47-8.74 6.88-13.09l1-1.87-3.18-1s-.37.71-1 2a86.76 86.76 0 0 1-7.28 13.85c-.59 1.12-1.07 2-1.07 2 .2-.39 1.13-.64 2.13-.46z"/><path class="n" d="M2190.3 1313.53a8.64 8.64 0 0 1 1.21.27l-.41.67c-.59-.23-.89-.77-.8-.94z"/><path class="m" d="M2201 1297.46l.69-1.3c-.43-.13-.82-.23-1.18-.3l-.39.57v-.65a10.58 10.58 0 0 0-1.15-.15.92.92 0 0 0-.89.41l-.25.48z"/><path class="o" d="M2193.85 1304.81l2.36.12 1.83 1.13-.57 1.09-1.83-1.13-2.36-.12.57-1.09z"/><path class="p" d="M2193.81 1304.89l2.36.12 1.83 1.13-.57 1.09-1.83-1.13-2.36-.12.57-1.09z"/><path class="p" d="M2193.81 1304.89l2.36.12 1.83 1.13-.57 1.09-1.83-1.13-2.36-.12.57-1.09z"/><path class="q" d="M2195.68 1305.94l1.83 1.13.05-.09-1.83-1.12-2.36-.13-.05.09 2.36.12zM2196.07 1305.2l1.83 1.13.04-.08-1.83-1.13-2.36-.12-.04.08 2.36.12z"/><path class="r" d="M2197.66 1305.36a1.31 1.31 0 0 0-.69-.43 1.48 1.48 0 0 0-1.7.59c-.25.52.11 1.09.79 1.28a1.74 1.74 0 0 0 .81 0l1.45 1.29-.27-.86 1.2.33-1.51-1.33 2.28-.26-1.21-.33 1-.52z"/><path class="s" d="M2197.36 1305.27a1.31 1.31 0 0 0-.69-.43 1.48 1.48 0 0 0-1.7.59c-.25.52.11 1.09.79 1.28a1.74 1.74 0 0 0 .81 0l1.43 1.29-.27-.86 1.2.33-1.51-1.33 2.28-.26-1.21-.33 1-.52z"/><path class="q" d="M2198.37 1307.2l-.87-.24.18.56-1-.93h-.11a1.5 1.5 0 0 1-.7 0c-.59-.16-.9-.66-.69-1.11a1.28 1.28 0 0 1 1.47-.51 1.14 1.14 0 0 1 .6.38l.06.08 1.48-.15-.63.37.88.24-1.68.17-.08.15zm-1-.33l.75.21-1-.88.13-.23 1.45-.16-.73-.2.5-.27-1.26.14-.09-.11a1.07 1.07 0 0 0-.56-.35 1.2 1.2 0 0 0-1.38.48c-.2.42.09.88.64 1a1.41 1.41 0 0 0 .66 0h.15l.87.77z"/><path class="q" d="M2198.99 1305.88l-1-.28.08-.04 1.07.3-.15.02z"/><path class="t" d="M2196.42 1305.95l.28.15-.1.21-1.08-.61.13-.27 1.35.05-.11.22h-.34zm-.09-.29H2195.74l.21.11.23.12z"/><use width="102.6" height="117.4" transform="matrix(1.17 0 0 1.17 758.35 266.06)" xlink:href="#bl"/><path class="v" d="M2174 1337.4s-12.2 1.1-16.2-4.4-.8-15.5 4.9-19.9c5.5-3.6 11.9-1.8 12.4-.3 1.7-2.2 5-4.5 7.5-.3s2.7 10 .9 13.6-9.5 11.3-9.5 11.3z"/><path class="w" d="M1820.14 640.01h528.57v66.54h-528.57z"/><path class="x" d="M2322.89 632.43h-476.93l-25.82 7.58h528.57l-25.82-7.58z"/><path class="y" d="M1823.19 644.76h28.54V701h-28.54v-56.24zm30.54 0h28.53V701h-28.53v-56.24zm30.53 0h24.51V701h-24.51z"/><path class="z" d="M1823.19 644.76h28.54v27.9h-28.54v-27.9zm30.54 0h28.53v27.9h-28.53v-27.9zm30.53 0h24.51v27.9h-24.51z"/><path class="aa" d="M1823.19 644.76h28.54V701l-28.54-56.27zm30.54 0h28.53V701l-28.53-56.27zm30.53 0h24.51V701z"/><path class="ab" d="M2259.4 645.14h28.54v56.27h-28.54v-56.27zm30.54 0h28.53v56.27h-28.53v-56.27zm30.53 0H2345v56.27h-24.51z"/><path class="z" d="M2259.4 645.14h28.54V673h-28.54v-27.9zm30.54 0h28.53V673h-28.53v-27.9zm30.53 0H2345V673h-24.51z"/><path class="aa" d="M2259.4 645.14h28.54v56.27l-28.54-56.27zm30.54 0h28.53v56.27l-28.53-56.27zm30.53 0H2345v56.27z"/><path class="ac" d="M1913.31 495.73h339.55V716.4h-339.55z"/><path class="ad" d="M1926.51 599.67h61.07v95.05h-61.07z"/><path class="ae" d="M1926.51 599.67h61.07v46.97h-61.07z"/><path class="aa" d="M1987.58 694.72l-61.07-95.05h61.07v95.05z"/><path class="af" d="M1989.49 599.67h61.07v95.05h-61.07z"/><path class="ae" d="M1989.49 599.67h61.07v46.97h-61.07z"/><path class="aa" d="M2050.56 694.72l-61.07-95.05h61.07v95.05z"/><path class="ag" d="M2052.47 599.67h61.07v95.05h-61.07z"/><path class="ae" d="M2052.47 599.67h61.07v46.97h-61.07z"/><path class="aa" d="M2113.54 694.72l-61.07-95.05h61.07v95.05z"/><path class="ah" d="M2115.45 599.67h61.07v95.05h-61.07z"/><path class="ae" d="M2115.45 599.67h61.07v46.97h-61.07z"/><path class="aa" d="M2176.52 694.72l-61.07-95.05h61.07v95.05z"/><path class="ai" d="M2178.43 599.67h61.07v95.05h-61.07z"/><path class="ae" d="M2178.43 599.67h61.07v46.97h-61.07z"/><path class="aa" d="M2239.5 694.72l-61.07-95.05h61.07v95.05z"/><path class="aj" d="M1926.51 502.87h61.07v95.05h-61.07z"/><path class="ae" d="M1926.51 502.87h61.07v46.97h-61.07z"/><path class="aa" d="M1987.58 597.92l-61.07-95.05h61.07v95.05z"/><path class="ak" d="M1989.49 502.87h61.07v95.05h-61.07z"/><path class="ae" d="M1989.49 502.87h61.07v46.97h-61.07z"/><path class="aa" d="M2050.56 597.92l-61.07-95.05h61.07v95.05z"/><path class="al" d="M2052.47 502.87h61.07v95.05h-61.07z"/><path class="ae" d="M2052.47 502.87h61.07v46.97h-61.07z"/><path class="aa" d="M2113.54 597.92l-61.07-95.05h61.07v95.05z"/><path class="am" d="M2115.45 502.87h61.07v95.05h-61.07z"/><path class="ae" d="M2115.45 502.87h61.07v46.97h-61.07z"/><path class="aa" d="M2176.52 597.92l-61.07-95.05h61.07v95.05z"/><path class="an" d="M2178.43 502.87h61.07v95.05h-61.07z"/><path class="ae" d="M2178.43 502.87h61.07v46.97h-61.07z"/><path class="aa" d="M2239.5 597.92l-61.07-95.05h61.07v95.05z"/><path class="ao" d="M1911.32 495.6h23.43v201h-23.43z"/><path class="ap" d="M1922.49 508.47a.47.47 0 1 1 .92 0v175.77a.47.47 0 1 1-.92 0z"/><path class="aq" d="M1919.75 508.47a.47.47 0 1 1 .92 0v175.77a.46.46 0 1 1-.92 0z"/><path class="ar" d="M1917 508.47a.47.47 0 1 1 .93 0v175.77a.47.47 0 1 1-.93 0z"/><path class="as" d="M1914.81 508.47a.47.47 0 1 1 .93 0v175.77a.47.47 0 1 1-.93 0z"/><path class="at" d="M1913.12 508.47a.51.51 0 0 1 .47-.53.5.5 0 0 1 .46.53v175.77a.49.49 0 0 1-.46.52.5.5 0 0 1-.47-.52z"/><path class="au" d="M1911.33 508.47a.66.66 0 0 1 1.29 0v175.77a.66.66 0 0 1-1.29 0z"/><path class="av" d="M1910.81 683.07h24.69c1.14 0 2.07 1.28 2.07 2.84v.78c0 1.56-.94 2.85-2.07 2.85h-24.69c-1.14 0-2.08-1.29-2.08-2.85v-.78c0-1.56.93-2.84 2.08-2.84z"/><path class="aw" d="M1912.58 689.28h21.14a12.22 12.22 0 0 1 1.78.06 12.43 12.43 0 0 1-1.78.07h-21.14a12.39 12.39 0 0 1-1.77-.07 12.18 12.18 0 0 1 1.77-.06z"/><path class="ax" d="M1906.37 688.19h33.57c1.55 0 2.82 1.74 2.82 3.87v1.06c0 2.13-1.27 3.87-2.82 3.87h-33.57c-1.55 0-2.82-1.75-2.82-3.87v-1.06c0-2.13 1.27-3.87 2.82-3.87z"/><path class="av" d="M1910.81 509.51h24.69c1.14 0 2.07-1.28 2.07-2.84v-.78c0-1.56-.94-2.84-2.07-2.84h-24.69c-1.14 0-2.08 1.28-2.08 2.84v.78c0 1.56.93 2.84 2.08 2.84z"/><path class="ay" d="M1912.58 503.3h21.14a13.11 13.11 0 0 0 1.78-.06 12.36 12.36 0 0 0-1.78-.07h-21.14a12.32 12.32 0 0 0-1.77.07 13.07 13.07 0 0 0 1.77.06z"/><path class="ax" d="M1906.37 504.4h33.57c1.55 0 2.82-1.75 2.82-3.87v-1.05c0-2.13-1.27-3.87-2.82-3.87h-33.57c-1.55 0-2.82 1.75-2.82 3.87v1.05c0 2.12 1.27 3.87 2.82 3.87z"/><path class="ao" d="M1954.66 495.6h23.43v201h-23.43z"/><path class="az" d="M1965.83 508.47a.47.47 0 1 1 .92 0v175.77a.47.47 0 1 1-.92 0z"/><path class="ba" d="M1963.1 508.47a.47.47 0 1 1 .92 0v175.77a.46.46 0 1 1-.92 0z"/><path class="bb" d="M1960.36 508.47a.47.47 0 1 1 .93 0v175.77a.47.47 0 1 1-.93 0z"/><path class="bc" d="M1958.15 508.47a.47.47 0 1 1 .93 0v175.77a.47.47 0 1 1-.93 0z"/><path class="bd" d="M1956.47 508.47a.51.51 0 0 1 .47-.53.5.5 0 0 1 .46.53v175.77a.49.49 0 0 1-.46.52.5.5 0 0 1-.47-.52z"/><path class="be" d="M1954.68 508.47a.66.66 0 0 1 1.29 0v175.77a.66.66 0 0 1-1.29 0z"/><path class="av" d="M1954.15 683.07h24.69c1.14 0 2.07 1.28 2.07 2.84v.78c0 1.56-.94 2.85-2.07 2.85h-24.69c-1.14 0-2.08-1.29-2.08-2.85v-.78c.01-1.56.93-2.84 2.08-2.84z"/><path class="bf" d="M1955.93 689.28h21.14a12.22 12.22 0 0 1 1.78.06 12.43 12.43 0 0 1-1.78.07h-21.14a12.39 12.39 0 0 1-1.77-.07 12.18 12.18 0 0 1 1.77-.06z"/><path class="ax" d="M1949.72 688.19h33.57c1.55 0 2.82 1.74 2.82 3.87v1.06c0 2.13-1.27 3.87-2.82 3.87h-33.57c-1.55 0-2.82-1.75-2.82-3.87v-1.06c0-2.13 1.26-3.87 2.82-3.87z"/><path class="av" d="M1954.15 509.51h24.69c1.14 0 2.07-1.28 2.07-2.84v-.78c0-1.56-.94-2.84-2.07-2.84h-24.69c-1.14 0-2.08 1.28-2.08 2.84v.78c.01 1.56.93 2.84 2.08 2.84z"/><path class="bg" d="M1955.93 503.3h21.14a13.11 13.11 0 0 0 1.78-.06 12.36 12.36 0 0 0-1.78-.07h-21.14a12.32 12.32 0 0 0-1.77.07 13.07 13.07 0 0 0 1.77.06z"/><path class="ax" d="M1949.72 504.4h33.57c1.55 0 2.82-1.75 2.82-3.87v-1.05c0-2.13-1.27-3.87-2.82-3.87h-33.57c-1.55 0-2.82 1.75-2.82 3.87v1.05c0 2.12 1.26 3.87 2.82 3.87z"/><path class="ao" d="M1998.01 495.6h23.43v201h-23.43z"/><path class="bh" d="M2009.18 508.47a.47.47 0 1 1 .92 0v175.77a.47.47 0 1 1-.92 0z"/><path class="bi" d="M2006.45 508.47a.47.47 0 1 1 .92 0v175.77a.46.46 0 1 1-.92 0z"/><path class="bj" d="M2003.71 508.47a.47.47 0 1 1 .93 0v175.77a.47.47 0 1 1-.93 0z"/><path class="bk" d="M2001.5 508.47a.47.47 0 1 1 .93 0v175.77a.47.47 0 1 1-.93 0z"/><path class="bl" d="M1999.81 508.47a.51.51 0 0 1 .47-.53.5.5 0 0 1 .46.53v175.77a.49.49 0 0 1-.46.52.5.5 0 0 1-.47-.52z"/><path class="bm" d="M1998 508.47a.66.66 0 0 1 1.29 0v175.77a.66.66 0 0 1-1.29 0z"/><path class="av" d="M1997.5 683.07h24.69c1.14 0 2.07 1.28 2.07 2.84v.78c0 1.56-.94 2.85-2.07 2.85h-24.69c-1.14 0-2.08-1.29-2.08-2.85v-.78c0-1.56.94-2.84 2.08-2.84z"/><path class="bn" d="M1999.27 689.28h21.14a12.22 12.22 0 0 1 1.78.06 12.43 12.43 0 0 1-1.78.07h-21.14a12.39 12.39 0 0 1-1.77-.07 12.18 12.18 0 0 1 1.77-.06z"/><path class="ax" d="M1993.06 688.19h33.57c1.55 0 2.82 1.74 2.82 3.87v1.06c0 2.13-1.27 3.87-2.82 3.87h-33.57c-1.55 0-2.82-1.75-2.82-3.87v-1.06c0-2.13 1.27-3.87 2.82-3.87z"/><path class="av" d="M1997.5 509.51h24.69c1.14 0 2.07-1.28 2.07-2.84v-.78c0-1.56-.94-2.84-2.07-2.84h-24.69c-1.14 0-2.08 1.28-2.08 2.84v.78c0 1.56.94 2.84 2.08 2.84z"/><path class="bo" d="M1999.27 503.3h21.14a13.11 13.11 0 0 0 1.78-.06 12.36 12.36 0 0 0-1.78-.07h-21.14a12.32 12.32 0 0 0-1.77.07 13.07 13.07 0 0 0 1.77.06z"/><path class="ax" d="M1993.06 504.4h33.57c1.55 0 2.82-1.75 2.82-3.87v-1.05c0-2.13-1.27-3.87-2.82-3.87h-33.57c-1.55 0-2.82 1.75-2.82 3.87v1.05c0 2.12 1.27 3.87 2.82 3.87z"/><path class="ao" d="M2232.5 495.6h23.43v201h-23.43z"/><path class="bp" d="M2243.67 508.47a.47.47 0 1 1 .92 0v175.77a.46.46 0 1 1-.92 0z"/><path class="bq" d="M2240.94 508.47a.47.47 0 1 1 .92 0v175.77a.46.46 0 1 1-.92 0z"/><path class="br" d="M2238.2 508.47a.47.47 0 1 1 .93 0v175.77a.47.47 0 1 1-.93 0z"/><path class="bs" d="M2236 508.47a.47.47 0 1 1 .93 0v175.77a.47.47 0 1 1-.93 0z"/><path class="bt" d="M2234.31 508.47a.51.51 0 0 1 .47-.53.5.5 0 0 1 .46.53v175.77a.49.49 0 0 1-.46.52.5.5 0 0 1-.47-.52z"/><path class="bu" d="M2232.51 508.47a.66.66 0 0 1 1.29 0v175.77a.66.66 0 0 1-1.29 0z"/><path class="av" d="M2232 683.07h24.69c1.14 0 2.07 1.28 2.07 2.84v.78c0 1.56-.93 2.85-2.07 2.85H2232c-1.14 0-2.08-1.29-2.08-2.85v-.78c-.01-1.56.93-2.84 2.08-2.84z"/><path class="bv" d="M2233.76 689.28h21.14a12.22 12.22 0 0 1 1.78.06 12.43 12.43 0 0 1-1.78.07h-21.14a12.41 12.41 0 0 1-1.77-.07 12.19 12.19 0 0 1 1.77-.06z"/><path class="ax" d="M2227.55 688.19h33.56c1.55 0 2.82 1.74 2.82 3.87v1.06c0 2.13-1.27 3.87-2.82 3.87h-33.56c-1.55 0-2.82-1.75-2.82-3.87v-1.06c0-2.13 1.27-3.87 2.82-3.87z"/><path class="av" d="M2232 509.51h24.69c1.14 0 2.07-1.28 2.07-2.84v-.78c0-1.56-.93-2.84-2.07-2.84H2232c-1.14 0-2.08 1.28-2.08 2.84v.78c-.01 1.56.93 2.84 2.08 2.84z"/><path class="bw" d="M2233.76 503.3h21.14a13.11 13.11 0 0 0 1.78-.06 12.36 12.36 0 0 0-1.78-.07h-21.14a12.34 12.34 0 0 0-1.77.07 13.09 13.09 0 0 0 1.77.06z"/><path class="ax" d="M2227.55 504.4h33.56c1.55 0 2.82-1.75 2.82-3.87v-1.05c0-2.13-1.27-3.87-2.82-3.87h-33.56c-1.55 0-2.82 1.75-2.82 3.87v1.05c0 2.12 1.27 3.87 2.82 3.87z"/><path class="ao" d="M2189.15 495.6h23.43v201h-23.43z"/><path class="bx" d="M2200.33 508.47a.47.47 0 1 1 .92 0v175.77a.46.46 0 1 1-.92 0z"/><path class="by" d="M2197.59 508.47a.47.47 0 1 1 .92 0v175.77a.46.46 0 1 1-.92 0z"/><path class="bz" d="M2194.85 508.47a.47.47 0 1 1 .93 0v175.77a.47.47 0 1 1-.93 0z"/><path class="ca" d="M2192.64 508.47a.47.47 0 1 1 .93 0v175.77a.47.47 0 1 1-.93 0z"/><path class="cb" d="M2191 508.47a.51.51 0 0 1 .47-.53.5.5 0 0 1 .46.53v175.77a.49.49 0 0 1-.46.52.5.5 0 0 1-.47-.52z"/><path class="cc" d="M2189.17 508.47a.66.66 0 0 1 1.29 0v175.77a.66.66 0 0 1-1.29 0z"/><path class="av" d="M2188.64 683.07h24.69c1.14 0 2.07 1.28 2.07 2.84v.78c0 1.56-.93 2.85-2.07 2.85h-24.69c-1.14 0-2.08-1.29-2.08-2.85v-.78c.01-1.56.94-2.84 2.08-2.84z"/><path class="cd" d="M2190.42 689.28h21.14a12.22 12.22 0 0 1 1.78.06 12.43 12.43 0 0 1-1.78.07h-21.14a12.41 12.41 0 0 1-1.77-.07 12.19 12.19 0 0 1 1.77-.06z"/><path class="ax" d="M2184.21 688.19h33.56c1.55 0 2.82 1.74 2.82 3.87v1.06c0 2.13-1.27 3.87-2.82 3.87h-33.56c-1.55 0-2.82-1.75-2.82-3.87v-1.06c0-2.13 1.27-3.87 2.82-3.87z"/><path class="av" d="M2188.64 509.51h24.69c1.14 0 2.07-1.28 2.07-2.84v-.78c0-1.56-.93-2.84-2.07-2.84h-24.69c-1.14 0-2.08 1.28-2.08 2.84v.78c.01 1.56.94 2.84 2.08 2.84z"/><path class="ce" d="M2190.42 503.3h21.14a13.11 13.11 0 0 0 1.78-.06 12.36 12.36 0 0 0-1.78-.07h-21.14a12.34 12.34 0 0 0-1.77.07 13.09 13.09 0 0 0 1.77.06z"/><path class="ax" d="M2184.21 504.4h33.56c1.55 0 2.82-1.75 2.82-3.87v-1.05c0-2.13-1.27-3.87-2.82-3.87h-33.56c-1.55 0-2.82 1.75-2.82 3.87v1.05c0 2.12 1.27 3.87 2.82 3.87z"/><path class="ao" d="M2145.81 495.6h23.43v201h-23.43z"/><path class="cf" d="M2157 508.47a.47.47 0 1 1 .92 0v175.77a.46.46 0 1 1-.92 0z"/><path class="cg" d="M2154.24 508.47a.47.47 0 1 1 .92 0v175.77a.46.46 0 1 1-.92 0z"/><path class="ch" d="M2151.51 508.47a.47.47 0 1 1 .93 0v175.77a.47.47 0 1 1-.93 0z"/><path class="ci" d="M2149.3 508.47a.47.47 0 1 1 .93 0v175.77a.47.47 0 1 1-.93 0z"/><path class="cj" d="M2147.61 508.47a.51.51 0 0 1 .47-.53.5.5 0 0 1 .46.53v175.77a.49.49 0 0 1-.46.52.5.5 0 0 1-.47-.52z"/><path class="ck" d="M2145.82 508.47a.66.66 0 0 1 1.29 0v175.77a.66.66 0 0 1-1.29 0z"/><path class="av" d="M2145.3 683.07h24.7c1.14 0 2.07 1.28 2.07 2.84v.78c0 1.56-.93 2.85-2.07 2.85h-24.7c-1.14 0-2.08-1.29-2.08-2.85v-.78c0-1.56.94-2.84 2.08-2.84z"/><path class="cl" d="M2147.07 689.28h21.14a12.22 12.22 0 0 1 1.78.06 12.43 12.43 0 0 1-1.78.07h-21.14a12.41 12.41 0 0 1-1.77-.07 12.19 12.19 0 0 1 1.77-.06z"/><path class="ax" d="M2140.86 688.19h33.56c1.55 0 2.82 1.74 2.82 3.87v1.06c0 2.13-1.27 3.87-2.82 3.87h-33.56c-1.55 0-2.82-1.75-2.82-3.87v-1.06c-.04-2.13 1.27-3.87 2.82-3.87z"/><path class="av" d="M2145.3 509.51h24.7c1.14 0 2.07-1.28 2.07-2.84v-.78c0-1.56-.93-2.84-2.07-2.84h-24.7c-1.14 0-2.08 1.28-2.08 2.84v.78c0 1.56.94 2.84 2.08 2.84z"/><path class="cm" d="M2147.07 503.3h21.14a13.11 13.11 0 0 0 1.78-.06 12.36 12.36 0 0 0-1.78-.07h-21.14a12.34 12.34 0 0 0-1.77.07 13.09 13.09 0 0 0 1.77.06z"/><path class="ax" d="M2140.86 504.4h33.56c1.55 0 2.82-1.75 2.82-3.87v-1.05c0-2.13-1.27-3.87-2.82-3.87h-33.56c-1.55 0-2.82 1.75-2.82 3.87v1.05c-.04 2.12 1.27 3.87 2.82 3.87z"/><path class="cn" d="M1913.31 697v15.4a3.92 3.92 0 0 0 3.93 3.92h331.69a3.92 3.92 0 0 0 3.93-3.92V697z"/><path class="co" d="M1913.04 696.98h338.55v1.57h-338.55z"/><path class="cn" d="M2284.37 495.71a1.12 1.12 0 0 1-.77.22 1.51 1.51 0 0 1-.3 0l-2 2.25-8.94-1.34-2-.3h-374.58l-1.85.28-9.06 1.36-2-2.25a1.38 1.38 0 0 1-1.08-.2c-.15-.18.06-.38.5-.44L2082.15 428l1.13-.21a1.16 1.16 0 0 1 .26 0h.42l1.09.2 198.82 67.23c.44.11.66.31.5.49z"/><path class="f" d="M2098.23 476.22a34.12 34.12 0 0 1-28.29 0 2.3 2.3 0 0 1-1.34-2.09v-12.48h31v12.47a2.3 2.3 0 0 1-1.37 2.1z"/><path class="g" d="M2081.73 461.65v17.55a34.11 34.11 0 0 0 15.42-2.51 4 4 0 0 0 2.43-3.65v-11.39z"/><path class="f" d="M2086.35 467.55l-30.98-6.84 27.59-6.04 29.84 6.44-26.45 6.44z"/><path class="g" d="M2112.8 461.11v.79l-26.45 6.44v-.79l26.45-6.44z"/><path class="h" d="M2055.37 461.5v-.79l30.98 6.84v.79l-30.98-6.84z"/><path class="i" d="M2060.55 467.68h-1.15v-6.03l1.15.21v5.82z"/><circle class="j" cx="2059.98" cy="467.49" r=".98"/><rect class="j" x="2059.05" y="468.19" width="1.91" height="1.41" rx=".7" ry=".7"/><path class="i" d="M2060.39 469.6h-.77a.38.38 0 0 0-.37.3l-1.42 6.9a.38.38 0 0 0 .37.46h3.62a.38.38 0 0 0 .37-.46l-1.42-6.9a.38.38 0 0 0-.38-.3zM2059.4 461.65l22.79-1.69.65.36-22.29 1.54-1.15-.21z"/><ellipse class="g" cx="2084.08" cy="460.32" rx="4.4" ry="1.18"/><path class="cp" d="M2284.37 495.71a1.12 1.12 0 0 1-.77.22 1.51 1.51 0 0 1-.3 0l-2 2.25-8.94-1.34-187.8-63.67-.95-.17-.94.17-188.74 63.63-9.06 1.36-2-2.25a1.38 1.38 0 0 1-1.08-.2c-.15-.18.06-.38.5-.44L2082.15 428l1.13-.21a1.16 1.16 0 0 1 .26 0h.42l1.09.2 198.82 67.23c.44.11.66.31.5.49z"/><path class="cq" d="M2045.44 711.48h75.29v4.83h-75.29z"/><path class="cr" d="M2045.44 711.48h75.29v1.31h-75.29z"/><path class="cq" d="M2048.65 706.65h68.87v4.83h-68.87z"/><path class="cr" d="M2048.65 706.65h68.87v1.31h-68.87z"/><path class="cq" d="M2051.95 701.81h62.27v4.83h-62.27z"/><path class="cr" d="M2051.95 701.81h62.27v1.31h-62.27z"/><path class="cq" d="M2055.71 696.98h54.75v4.83h-54.75z"/><path class="cr" d="M2055.71 696.98h54.75v1.31h-54.75z"/><path class="ao" d="M2062.29 639.22h41.58v58.42h-41.58z"/><path class="cn" d="M2064.7 641.69h36.76v55.09h-36.76z"/><path class="cs" d="M2065.61 642.74h34.8v54.04h-34.8z"/><path class="ae" d="M2065.61 642.74h34.8v20.09h-34.8z"/><path class="aa" d="M2100.42 696.78l-34.81-54.04h34.81v54.04z"/><path class="ac" d="M2082.73 642.74h.71v54.04h-.71z"/><path class="cn" d="M2082.9 645.44c2.12 0 3.84-1.28 3.84-2.86h-7.69c.01 1.58 1.73 2.86 3.85 2.86z"/><path class="ct" d="M2120.58 697v19.33h128.34a3.92 3.92 0 0 0 3.93-3.92V697z"/><path class="cu" d="M2236 720h-3.33c-18.37 0-28.19-10.54-21.94-23.49l12.27-25.44c6.25-13 16.39-13 22.64 0l12.28 25.46c6.26 12.94-3.56 23.47-21.92 23.47z"/><path class="ct" d="M2257.92 696.51l-12.44-25.44c-3.21-6.65-7.82-9.9-11.82-9.72V720h2.34c18.36 0 28.18-10.54 21.92-23.49z"/><path class="cu" d="M2253 720h-2.66c-14.71 0-22.58-8.45-17.57-18.82l9.83-20.39c5-10.38 13.13-10.38 18.14 0l9.83 20.4c4.98 10.36-2.89 18.81-17.57 18.81z"/><path class="ct" d="M2270.54 701.18l-10.18-20.39c-2.57-5.33-5.69-7.93-9.69-7.79v47h2.3c14.71 0 22.58-8.45 17.57-18.82z"/><path class="cu" d="M2204.72 720h-2.3c-12.72 0-19.51-7.31-15.18-16.27l8.5-17.62c4.33-9 11.35-9 15.68 0l8.5 17.63c4.32 8.96-2.48 16.26-15.2 16.26z"/><path class="ct" d="M2219.91 703.73l-8.34-17.62c-2.22-4.6-5.91-6.86-7.91-6.73V720h1.06c12.72 0 19.52-7.31 15.19-16.27z"/><path class="cu" d="M1939.85 720h-3.11c-17.2 0-26.39-9.87-20.54-22l11.49-23.82c5.86-12.13 15.35-12.14 21.2 0l11.5 23.82c5.85 12.14-3.39 22-20.54 22z"/><path class="ct" d="M1960.39 698l-11.65-23.82c-3-6.23-7.07-9.27-11.07-9.1V720h2.18c17.15 0 26.39-9.87 20.54-22z"/><path class="cu" d="M1955.74 720h-2.49c-13.78 0-21.14-7.91-16.45-17.62l9.21-19.09c4.69-9.71 12.29-9.72 17 0l9.21 19.1c4.67 9.7-2.7 17.61-16.48 17.61z"/><path class="ct" d="M1972.2 702.38l-9.5-19.09c-2.41-5-5-7.43-9-7.29v44h2.08c13.74 0 21.11-7.91 16.42-17.62z"/><path class="cu" d="M1910.57 720h-2.16c-11.91 0-18.27-6.84-14.22-15.24l8-16.5c4.05-8.4 10.62-8.4 14.68 0l8 16.51c3.98 8.39-2.39 15.23-14.3 15.23z"/><path class="ct" d="M1924.79 704.76l-7.76-16.5c-2.08-4.31-5.36-6.42-7.36-6.3v38h.91c11.9.04 18.27-6.8 14.21-15.2z"/><path class="cv" d="M2215.64 733.6c0 3.43-13.48 6.22-30.08 6.22s-30.09-2.79-30.09-6.22 13.48-6.22 30.09-6.22 30.08 2.76 30.08 6.22z"/><path class="cw" d="M2185.6 672.54c-8.65 0-10.22-1-15-2.51a7.85 7.85 0 0 0-.19 3c0 5.86 3.18 9 15.19 9s15.19-3.13 15.19-9c0-.85.23-2.18-.19-3-4.74 1.53-6.31 2.51-15 2.51z"/><path class="cx" d="M2177.31 675.09v52.29"/><path class="cw" d="M2183.58 731c0 2.34-2.13 2.48-6.15 2.48s-6.15-.14-6.15-2.48 2.13-5.13 6.15-5.13 6.15 2.86 6.15 5.13z"/><path class="cx" d="M2194.19 675.09v52.29"/><path class="cw" d="M2200.34 731c0 2.34-2.13 2.48-6.15 2.48s-6.15-.14-6.15-2.48 2.13-5.13 6.15-5.13 6.15 2.86 6.15 5.13z"/><path class="cy" d="M2190.82 626.31a53.51 53.51 0 0 0-10.42 0c-15.16 2.13-9.7 43.73-9.7 43.73l.8 1 13.77 4.31.3.1.3-.1 13.78-4.31.8-1c.07-.04 5.49-41.6-9.63-43.73z"/><path class="f" d="M2196.63 626.17c-7.34-2.68-5.07 3-10.78 2.7-7.2-.4-3.81-4.72-11.12-2.7-14.28 1.92-6.59 72.87-6.11 80.16a1.88 1.88 0 0 0 .42 1.07 1.89 1.89 0 0 0 1 .64l5.3 1.67a45.68 45.68 0 0 0 20.53 0l6-1.67a1.89 1.89 0 0 0 1-.64 1.88 1.88 0 0 0 .42-1.06c.58-7.34 7.58-78.25-6.66-80.17z"/><ellipse class="cz" cx="2185.6" cy="628.47" rx="6.25" ry="3.86"/><path class="da" d="M2191.5 617.59a18.51 18.51 0 0 0-11.82 0c.25 1.32.44 2.63.56 4a40.14 40.14 0 0 1 .13 5.74 10.29 10.29 0 0 0 .12 1.45c.35 1.66 2.49 2.94 5.1 2.94s4.74-1.28 5.1-2.94a9.73 9.73 0 0 0 .13-1.45 39.51 39.51 0 0 1 .21-6.48c.11-1.12.27-2.19.47-3.26z"/><path class="db" d="M2175.47 629s-16.4.46-12.6 43.59"/><path class="dc" d="M2160.09 671.83s-3.07 2.91-2.55 5.18 3.81 3.7 6.23 3.22c2.19-.59 3.17-2.66 2.88-3.13.95.07 2.28-.25 1.77-1.84a5.21 5.21 0 0 0-3.31-3.31 26.81 26.81 0 0 0-5.02-.12z"/><path class="v" d="M2197 604.75c-.37 2.8.51 5.26 2 5.51s2.92-1.82 3.29-4.62-.51-5.26-2-5.51-2.94 1.87-3.29 4.62z"/><path class="dd" d="M2197.68 604.92c-.21 1.58.41 3 1.37 3.15s1.91-1 2.12-2.56-.41-3-1.37-3.15-1.91.99-2.12 2.56z"/><path class="v" d="M2173.88 604.8c.32 2.8-.61 5.25-2.06 5.47s-2.89-1.87-3.21-4.67.61-5.25 2.06-5.47 2.9 1.87 3.21 4.67z"/><path class="dd" d="M2173.19 605c.18 1.58-.46 3-1.43 3.13s-1.89-1-2.07-2.6.46-3 1.43-3.13 1.88.98 2.07 2.6z"/><path class="v" d="M2185.53 589c-4.9.67-14.37 8.64-14.37 8.64s-.71 15.83 3.85 22.17c2 2.71 7.38 4.14 10.52 4.14s8.56-1.43 10.52-4.14c4.56-6.34 3.85-22.17 3.85-22.17s-9.46-7.95-14.37-8.64z"/><path class="g" d="M2172.8 608.67a10.65 10.65 0 0 1 4.33-9.59 4.55 4.55 0 0 1-1.16 2.55 30.74 30.74 0 0 0 3.78-3.07 5 5 0 0 1-.07 1.68s5.08-2.18 7.22-4.69-3.09 3.38-3.09 3.38a15.45 15.45 0 0 0 5.45-4.48 7.56 7.56 0 0 1-.81 2.49s1.48-.22 2.77-4.17c1.1 2.36 2 4.09 3 4.62a6.65 6.65 0 0 1-.34-3.6s2.44 5.28 3.24 6.57 2.11 6.46 2.11 6.46 1.45-1.45 1.74-5.07.48-7.34-.12-8.7-1.82-6.41-5.07-7.46-4.6-.73-4.6-.73-2.42-2.5-4.38-2.58-4.21-.39-6 .21a17.52 17.52 0 0 0-8.26 5.3 14.76 14.76 0 0 0-3.18 6.94 25.47 25.47 0 0 0 1 8.64c1.35 4.28 1.7 4.38 1.7 4.38z"/><path class="de" d="M2183.66 611.46a2.66 2.66 0 0 0 3.75.11"/><ellipse class="g" cx="2191.94" cy="606.04" rx="1.22" ry="2.63" transform="rotate(-.74 2197.381 607.296)"/><ellipse class="q" cx="2192" cy="604.59" rx=".47" ry=".57" transform="rotate(-6.83 2191.407 604.434)"/><ellipse class="g" cx="2180.06" cy="606.04" rx="1.22" ry="2.63" transform="rotate(-.74 2185.762 607.995)"/><ellipse class="q" cx="2180.12" cy="604.59" rx=".47" ry=".57" transform="rotate(-6.83 2181.46 604.85)"/><path class="g" d="M2177.45 601.85a17.93 17.93 0 0 1 2.63-.44 8.55 8.55 0 0 1 1-.08 2.84 2.84 0 0 1 .86.2 2 2 0 0 1 .76.49v.09a6.81 6.81 0 0 1-.84.14 5 5 0 0 1-.81 0c-.29 0-.61-.11-.94-.14-1.29-.13-2.61-.2-2.61-.2zM2194.55 601.94s-1.32.09-2.61.22l-.94.14a4.73 4.73 0 0 1-.82 0 6 6 0 0 1-.84-.16v-.09a2.07 2.07 0 0 1 .77-.48 2.9 2.9 0 0 1 .86-.19 9.06 9.06 0 0 1 1 .08 19.33 19.33 0 0 1 2.63.41z"/><path class="df" d="M2190.29 616.61a12.47 12.47 0 0 1-.87 1.77l-.13.19a4.07 4.07 0 0 1-1.48 1.35 4.62 4.62 0 0 1-2.23.58 4.63 4.63 0 0 1-2.24-.58 4 4 0 0 1-1.26-1.06 5.58 5.58 0 0 1-.35-.48 12.42 12.42 0 0 1-.88-1.85s.7-.11 1.08-.15a17.68 17.68 0 0 1 2.58-.1c.37 0 .73 0 1.06.08h.09l1-.06a17.22 17.22 0 0 1 2.69.17c.72.1 1.09.03.94.14z"/><path class="dg" d="M2189.28 618.57a4.07 4.07 0 0 1-1.48 1.35 4.62 4.62 0 0 1-2.23.58 4.63 4.63 0 0 1-2.24-.58 4 4 0 0 1-1.26-1.06 11.7 11.7 0 0 1 4.09-.61 14.29 14.29 0 0 1 3.12.32z"/><path class="q" d="M2190.22 616.61l-9.32-.08s-.44 1.05 4.43 1h.43c4.86.05 4.46-.92 4.46-.92z"/><path class="dh" d="M2180.74 616.53c0-.05 1.63-.18 1.79-.23a10 10 0 0 1 3-.07 10.43 10.43 0 0 1 3 .1c.16 0 1.8.18 1.8.23.02.5-9.61.44-9.59-.03z"/><path class="f" d="M2186.74 588a14.58 14.58 0 0 1-12.07.67 1 1 0 0 1-.62-.86l-.29-5.32 13.22-.73.29 5.32a1 1 0 0 1-.53.92z"/><path class="g" d="M2179.36 582.17l.41 7.48a14.57 14.57 0 0 0 6.52-1.43 1.69 1.69 0 0 0 .95-1.62l-.27-4.86z"/><path class="f" d="M2181.47 584.58l-13.37-2.18 11.62-3.23 12.88 2.04-11.13 3.37z"/><path class="g" d="M2192.6 581.21l.02.34-11.13 3.37-.02-.34 11.13-3.37z"/><path class="h" d="M2168.11 582.73l-.01-.33 13.37 2.18.02.34-13.38-2.19z"/><path class="i" d="M2170.47 585.25l-.49.02-.14-2.57.49.06.14 2.49z"/><circle class="j" cx="2170.22" cy="585.18" r=".42" transform="rotate(-3.17 2167.063 584.388)"/><rect class="j" x="2169.86" y="585.48" width=".81" height=".6" rx=".3" ry=".3" transform="translate(-29.03 120.73)"/><path class="i" d="M2170.45 586.07h-.33a.16.16 0 0 0-.15.14l-.44 3a.16.16 0 0 0 .17.19l1.54-.09a.16.16 0 0 0 .15-.2l-.77-2.91a.16.16 0 0 0-.17-.13zM2169.84 582.7l9.68-1.26.28.14-9.47 1.18-.49-.06z"/><ellipse class="g" cx="2180.33" cy="581.55" rx="1.88" ry=".5" transform="rotate(-3.17 2177.106 580.869)"/><path class="cv" d="M2141.19 734.47c0 2.82-11.62 5.12-25.93 5.12s-25.93-2.3-25.93-5.12 11.62-5.12 25.93-5.12 25.93 2.27 25.93 5.12z"/><path d="M2126.27 639.7h-21.64c-.22-6.25-2.16-13.43-5.69-21.45h31.22q-4.51 13.87-3.89 21.45z"/><path class="di" d="M2108.23 694.29v36.49"/><path class="cw" d="M2114.1 732.91c0 2.2-2 2.33-5.78 2.33s-5.78-.13-5.78-2.33 2-4.82 5.78-4.82 5.78 2.65 5.78 4.82z"/><path class="di" d="M2122.12 694.29v36.49"/><path class="cw" d="M2127.81 732.91c0 2.2-2 2.33-5.78 2.33s-5.78-.13-5.78-2.33 2-4.82 5.78-4.82 5.78 2.65 5.78 4.82z"/><path class="dj" d="M2124.94 630.72a5.61 5.61 0 0 1-4.54-2.73 6.87 6.87 0 0 1-.95-3.56v-4.28h-7.29v4.28a6.91 6.91 0 0 1-1 3.56c-.94 1.25-3.58 2.62-5.94 2.89l-4.42 18.64c.26-.49.38-.83.63-1.35 1-2 1.89-4.2 2.57-5.93l11.23.79 12.24-.83c.68 1.73 1.58 3.9 2.57 5.93z"/><path class="dk" d="M2108.81 633.19a40.15 40.15 0 0 1 4.64-.63c.19 0 .57-.13.72 0a1.07 1.07 0 0 1 .12.26 1.36 1.36 0 0 0 1.27.89 1.78 1.78 0 0 0 1.27-.89 1.68 1.68 0 0 1 .12-.19c.1-.21.44-.09.61-.07a40.37 40.37 0 0 1 4.54.63c-.79 0-1.57-.11-2.36-.19s-1.76-.07-2.63-.13c.06 0 .12 0 .15-.08a2.21 2.21 0 0 1-1.61 1.3 1.78 1.78 0 0 1-1.77-1.33c0 .06.12.09.17.1-.87 0-1.74.08-2.62.11s-1.75.16-2.62.21c.43-.07.43-.01 0 .01zM2116.29 643.79c-.34-1-.42-2-.74-2.94v-.08.09c-.33 1-.43 2-.78 2.91a.9.9 0 1 1 1.57 0z"/><path class="dl" d="M2130 648.25c-.06.18-.13.35-.2.53-.18.46-.39.92-.62 1.36s-.42.77-.64 1.15a26.89 26.89 0 0 1-2.07 2.92c-1.94 2.42-1.06 6.44-.31 9.16v.12H2104s.68-3.29.72-3.63a9.9 9.9 0 0 0-.23-4.18 27 27 0 0 0-2.7-4.8c-.29-.45-.54-.78-.76-1.07a5.47 5.47 0 0 1-.78-1.24c-.07-.16-.15-.35-.21-.55l-.08-.27a7.1 7.1 0 0 1 .9-6.23c.66-1.09 1.34-2.16 2-3.24s.33-3 .33-4.25v-2.85l3.37-.55a45 45 0 0 0 .39 7.34c.15.71 2.5 4.29 5.15 4.65a23.33 23.33 0 0 0 5.66 0c2.65-.36 5-3.93 5.15-4.65a46.36 46.36 0 0 0 .39-7.44l3.76.39c.26 0-.15 6.2 0 6.91a11.94 11.94 0 0 0 1.55 2.33 25.59 25.59 0 0 1 1.53 2.82 6.62 6.62 0 0 1-.14 5.27z"/><path class="dm" d="M2125.4 632.33s16.68 5.59 13.43 43"/><path class="dc" d="M2141.72 675.2s1.41 2.14.83 4-3.46 2.9-5.48 2.35c-1.82-.63-2.52-2.45-2.25-2.83-.81 0-1.92-.35-1.39-1.67a4.42 4.42 0 0 1 3-2.6c1.17-.16 5.29.75 5.29.75z"/><path class="dn" d="M2103.85 633.14s-16.1 5.16-12.85 42.59"/><path class="dc" d="M2088.11 675.57s-1.41 2.14-.83 4 3.46 2.9 5.48 2.35c1.82-.63 2.52-2.45 2.25-2.83.81 0 1.92-.35 1.39-1.67a4.42 4.42 0 0 0-3-2.6c-1.18-.16-5.29.75-5.29.75z"/><path class="v" d="M2128.81 608.41c0 6.76-2.87 12.55-9 14.64a15.38 15.38 0 0 1-13.45-1.85c-7.53-5.51-5.9-19.25-3-27.24 2.46-6.76 11.15-6.29 16.91-5.15 4.81 1 6.08 4 7.22 8.74a47.3 47.3 0 0 1 1.32 10.86z"/><circle class="do" cx="2107.07" cy="615.92" r="6.1"/><circle class="dp" cx="2122.2" cy="615.92" r="6.1"/><path class="g" d="M2133.84 606.17c-.47 6.18-4.85 13.72-7.19 21.41 1.53-5 .73-7.17.73-7.17a7.13 7.13 0 0 1-3.8 3.51c12.3-31.63-12.59-19.57-16.73-25.43-2.45 1.91-3.54 10-3.87 12.82-.44 3.74 1 10.52 4.65 11.43-2.88-.72-4.71-4.46-4.71-4.46.35 4.31 3.24 9.3 3.24 9.3-8.72-5.37-9.71-17.7-8.91-26.44.89-9.7 11.37-19.94 22.07-13.86 10.73 1.14 15.2 9.81 14.52 18.89-.26 3.49.27-3.51 0 0z"/><path class="g" d="M2105.14 597.66s4.93 5.18 20.57 8.49c9.27 2 6.61-3 6.61-3l-12.71-10z"/><path class="dq" d="M2113.83 613.79c.94 1.19 1.91 1.08 2.91 0"/><ellipse class="g" cx="2120.23" cy="608.95" rx="1.07" ry="2.04" transform="rotate(-.65 2114.778 607.885)"/><path class="q" d="M2119.87 607.87a.45.45 0 0 0 .47.4.41.41 0 0 0 .35-.48.45.45 0 0 0-.47-.4.41.41 0 0 0-.35.48z"/><ellipse class="g" cx="2110.04" cy="608.95" rx="1.07" ry="2.04" transform="rotate(-.65 2105.082 607.83)"/><path class="q" d="M2109.68 607.87a.44.44 0 0 0 .47.4.41.41 0 0 0 .35-.48.45.45 0 0 0-.47-.4.41.41 0 0 0-.35.48z"/><path class="g" d="M2107.19 606l.13-.18a2.6 2.6 0 0 1 .4-.46 2.49 2.49 0 0 1 .75-.47 3.4 3.4 0 0 1 1-.24 4 4 0 0 1 1 0 2.68 2.68 0 0 1 .82.32 2.32 2.32 0 0 1 .66.57v.07h-.83c-.24 0-.5-.06-.77-.1a5.67 5.67 0 0 0-.85-.18 2.89 2.89 0 0 0-1.59.3 2.36 2.36 0 0 0-.46.32l-.17.15zM2122.78 606.06l-.17-.15a2.35 2.35 0 0 0-.46-.32 2.89 2.89 0 0 0-1.59-.3 5.66 5.66 0 0 0-.85.18c-.27 0-.53.09-.77.1s-.44 0-.59 0h-.24v-.07a2.32 2.32 0 0 1 .66-.57 2.68 2.68 0 0 1 .82-.32 4 4 0 0 1 1 0 3.4 3.4 0 0 1 1 .24 2.49 2.49 0 0 1 .75.47 2.6 2.6 0 0 1 .4.46l.13.18z"/><path class="df" d="M2114 617.64c1.7.15 4.16.1 4.93-.32a5.92 5.92 0 0 1-.7 1.23c-.57.73-1.48.94-3 .91-2.33 0-2.42.1-3.13-1.17a10.15 10.15 0 0 0-.79-1.27 8.63 8.63 0 0 0 2.69.62z"/><path class="q" d="M2118 618.07a6.46 6.46 0 0 1-5.49.12c-.12-.06-.21-.35-.62-.64l6.59-.24z"/><path class="dg" d="M2118.49 617.89a4.18 4.18 0 0 1-3.31 1.27 4.24 4.24 0 0 1-3.35-1.42l-.43-.53a10.87 10.87 0 0 0 .74 1.51 3.59 3.59 0 0 0 1.26 1.26 3.68 3.68 0 0 0 1.76.51 3.68 3.68 0 0 0 1.84-.49 3.44 3.44 0 0 0 1.26-1.23 11.22 11.22 0 0 0 .74-1.52s-.36.46-.51.64z"/><path class="dg" d="M2119.18 617a1.55 1.55 0 0 1-1.06.13 14.1 14.1 0 0 0-2.92 0 13 13 0 0 0-2.93 0 1.52 1.52 0 0 1-1.05-.14c.8.91 2.33 1.07 4 1.06 1.61.01 3.15-.14 3.96-1.05z"/><path class="df" d="M2119.29 616.91a1.32 1.32 0 0 0-.41.31c-.55.6-2.49.75-3 .74h-1.25c-.54 0-2.48-.14-3-.74a1.31 1.31 0 0 0-.42-.31c-.26-.09-.39 0-.17.12s.22 0 .45.26a4.36 4.36 0 0 0 2.42.75c.4 0 .88.06 1.37.07s1 0 1.37-.07c.8-.08 2.08-.3 2.42-.75.23-.3.37-.21.45-.26s.04-.21-.23-.12z"/><path class="db" d="M2195 628.47s17.26 1 13.46 44.09"/><path class="dc" d="M2211.22 671.83s3.07 2.91 2.55 5.18-3.81 3.7-6.23 3.22c-2.19-.59-3.17-2.66-2.88-3.13-.95.07-2.28-.25-1.77-1.84a5.21 5.21 0 0 1 3.31-3.31 26.81 26.81 0 0 1 5.02-.12z"/><path class="f" d="M2115.82 591.54a16.33 16.33 0 0 1-13.53.48 1.1 1.1 0 0 1-.68-1l-.21-6 14.82-.53.21 6a1.1 1.1 0 0 1-.61 1.05z"/><path class="g" d="M2107.68 584.85l.3 8.39a16.32 16.32 0 0 0 7.33-1.46 1.89 1.89 0 0 0 1.1-1.79l-.19-5.44z"/><path class="f" d="M2110 587.6l-14.94-2.74 13.1-3.36 14.37 2.57-12.53 3.53z"/><path class="g" d="M2122.53 584.07l.02.38-12.54 3.52-.01-.37 12.53-3.53z"/><path class="h" d="M2095.08 585.23l-.02-.37 14.94 2.74.01.37-14.93-2.74z"/><path class="i" d="M2097.66 588.1l-.55.02-.1-2.89.55.08.1 2.79z"/><circle class="j" cx="2097.38" cy="588.02" r=".47" transform="rotate(-2.04 2094.208 587.048)"/><rect class="j" x="2096.96" y="588.35" width=".91" height=".67" rx=".34" ry=".34" transform="rotate(-2.04 2094.193 587.89)"/><path class="i" d="M2097.61 589h-.37a.18.18 0 0 0-.17.15l-.56 3.32a.18.18 0 0 0 .19.21l1.73-.06a.18.18 0 0 0 .17-.23l-.8-3.27a.18.18 0 0 0-.19-.12zM2097.01 585.23l10.87-1.19.31.16-10.63 1.11-.55-.08z"/><ellipse class="g" cx="2108.79" cy="584.18" rx="2.11" ry=".56" transform="rotate(-2.04 2105.512 583.317)"/><path class="f" d="M2126.32 629.76c-7.34-2.68-5.07 3-10.78 2.7-7.2-.4-3.81-4.72-11.12-2.7-14.28 1.92-6.59 72.87-6.11 80.16a1.88 1.88 0 0 0 .42 1.07 1.89 1.89 0 0 0 1 .64l5.3 1.67a45.68 45.68 0 0 0 20.53 0l6-1.67a1.89 1.89 0 0 0 1-.64 1.88 1.88 0 0 0 .42-1.06c.58-7.3 7.59-78.25-6.66-80.17z"/></svg>