<svg xmlns="http://www.w3.org/2000/svg" xmlns:xlink="http://www.w3.org/1999/xlink" width="2730.7" height="1536" viewBox="0 0 2730.7 1536"><symbol id="b" viewBox="-4.6 -8 9.2 16.1"><path fill="#176D3C" d="M-4.5.7C-5.2-3.7-1.3-8-1.3-8S3.8-5.1 4.5-.7C5.2 3.7 1.2 8 1.2 8S-3.9 5.1-4.5.7z"/><path opacity=".15" fill="#FFF" d="M4.5-.7C3.8-5.1-1.3-8-1.3-8L1.2 8s4-4.3 3.3-8.7z"/><path opacity=".76" fill="#FFF" d="M-2.7-.5c-.1.2 0 .6.2.6l2.2-.3s-.1.1-.2.1c-.4.3-.8.6-1 1l-.1.1h-.7c-.2 0-.2.8.1.7h.3c-.1 1.1.6 2 1.6 2.2.5.1 1.1 0 1.6-.2.3-.1.9-.4 1-.7.1-.2 0-.8-.3-.7-.2 0-.4.3-.5.4-.1.1-.4.2-.6.3-.8.3-2.1-.3-1.6-1.4 0 0 0-.1.1-.1L2.6 1c.2 0 .2-.8-.1-.7L.3.6C.4.5.5.4.7.4c.4-.2.8-.6 1.1-.9l.6-.1c.2 0 .2-.8-.1-.7H2c.2-1.2-.6-2.3-1.8-2.5-.5-.2-1.2-.1-1.8.1-.4.1-1 .4-1.2.8-.1.3 0 1 .4.7.4-.2.7-.6 1.2-.8.5-.2 1.1-.2 1.6 0 .5.4.7 1 .5 1.5 0 .1-.1.2-.1.2l-3.3.5c-.1.2-.2.2-.2.3 0 0 0-.1 0 0z"/></symbol><symbol id="a" viewBox="-3.9 -4.9 7.8 9.7"><path fill="#185F4D" d="M-2.8 2c-2-2.7-.8-6.9-.8-6.9S.8-4.7 2.8-2c2 2.7.8 6.9.8 6.9S-.8 4.7-2.8 2z"/><path opacity=".15" fill="#FFF" d="M2.8-2c-2-2.7-6.3-2.9-6.3-2.9l7.1 9.7C3.5 4.9 4.7.7 2.8-2z"/><path opacity=".76" fill="#FFF" d="M-2 .6s.2.4.4.3l1.3-1s0 .1-.1.1c-.2.3-.3.6-.4 1v.1l-.4.3c-.1.2.2.6.4.5l.2-.2c.3.7 1 1.1 1.7.9.5-.1 1.6-.8 1.6-1.4 0-.2-.3-.5-.4-.4-.3 0-.5.6-.6.8-.5.5-1.6.7-1.6-.3v-.1l2-1.4c.2-.1-.2-.6-.3-.4L.5.4C.5.3.6.2.7.1.8-.3.9-.6 1-1l.4-.3c.1-.1-.2-.5-.4-.4v.1C.7-2.4-.2-2.9-1-2.7c-.6.2-1.8.9-1.7 1.7 0 .3.2.5.5.4 0 0 .2-.4.2-.5.1-.2.2-.3.3-.4.5-.5 1.9-.8 1.9.3v.2l-2 1.5c-.1 0-.2 0-.2.1 0 0 0-.1 0 0z"/></symbol><symbol id="c" viewBox="-3.3 -4.8 6.5 9.6"><path fill="#439E63" d="M-2.7 1.4c-1.4-2.7.3-6.2.3-6.2s3.8.8 5.1 3.4c1.4 2.7-.3 6.2-.3 6.2S-1.4 4-2.7 1.4z"/><path opacity=".15" fill="#FFF" d="M2.7-1.4C1.4-4-2.4-4.8-2.4-4.8l4.9 9.6s1.6-3.5.2-6.2z"/><path opacity=".76" fill="#FFF" d="M-1.8.2c0 .1.1.4.3.3l1.3-.6s0 .1-.1.1c-.2.2-.4.5-.5.8v.1l-.4.2c-.2.1.1.5.2.4l.2-.1c.2.7.8 1.2 1.5 1 .4 0 1.4-.4 1.4-1 0-.1-.2-.4-.3-.4-.1 0-.4.5-.6.6-.4.4-1.5.5-1.4-.4v-.1l2-1c.1-.1-.1-.6-.2-.5L.2.3C.3.2.3.1.4.1c.2-.2.4-.5.5-.8l.4-.2c.1-.1-.1-.5-.2-.5l-.1.1C.9-2.1.2-2.6-.6-2.6c-.6 0-1.6.5-1.8 1.2 0 .2 0 .6.3.6.2 0 .4-.5.5-.6.5-.5 2-.8 1.8.3v.2l-2 1v.1c0 .1 0 0 0 0z"/></symbol><symbol id="f" viewBox="-26.9 -15.6 53.9 31.3"><path fill="#D9E5B7" d="M26.7-15.1c-17.8 3.1-35.8-2.7-53.6.4.1 9.9.1 19.9.2 29.8 17.9-3.1 35.8 2.7 53.6-.4 0-9.9-.1-19.9-.2-29.8z"/><path fill="#09632D" d="M-26.7 15.1c-.1-9.9-.1-19.9-.2-29.8C-9-17.8 8.9-12 26.7-15.1c.1 9.9.1 19.9.2 29.8-17.8 3.1-35.7-2.7-53.6.4zM25-6.5c-3.3-.2-5.8-2.7-6.5-5.9-12.3.5-24.7-1.9-37.1-1.3-.7 3.3-3.2 5.9-6.4 7.1V6.5c3.3.2 5.8 2.7 6.6 5.9 12.3-.5 24.7 1.9 37 1.3.7-3.3 3.2-5.9 6.5-7.1C25 2.3 25-2.1 25-6.5z"/><path fill="#09632D" d="M17.4-11.1c-11.7.4-23.3-1.8-35-1.4 0 .1-.1.2-.1.3-1 2.7-3.1 4.9-5.7 6.2-.1 0-.2.1-.3.1 0 3.7.1 7.4.1 11.1.1 0 .2 0 .3.1 2.7.7 4.8 2.7 5.8 5.4 0 .1.1.2.1.3 11.7-.4 23.3 1.8 35 1.4 0-.1.1-.2.1-.3 1-2.7 3.1-4.9 5.7-6.2.1 0 .2-.1.3-.1 0-3.7-.1-7.4-.1-11.1-.1 0-.2-.1-.3-.1-2.7-.7-4.8-2.7-5.8-5.4 0-.1-.1-.2-.1-.3zm-34.4-.5c11.3-.3 22.5 1.7 33.8 1.5 1.1 2.7 3.3 4.7 5.9 5.5 0 3.3 0 6.6.1 9.9-2.7 1.4-4.8 3.6-5.8 6.3-11.3.2-22.6-1.7-33.8-1.5-1.1-2.7-3.3-4.7-6-5.5 0-3.3-.1-6.6-.1-9.9 2.8-1.4 4.9-3.6 5.9-6.3z"/><path d="M-7.7 3.6c-1.8-.1-3.7-.2-5.5-.2-.1-.7-.2-1.5-.3-2.2.3 0 .6.1.9.1 1.4 0 2.7-.2 3.7-.9 1.1-.7 1.7-1.8 1.7-3.5 0-2.6-2.3-5.1-6.1-5.2-1.7 0-3.2.4-3.9.8.2.8.4 1.6.6 2.5.6-.3 1.9-.7 3.2-.7 1.4 0 2.8.7 2.8 2.2 0 1.5-1.1 2.3-4 2.3-.8 0-1.3 0-1.9-.1.3 2.5.7 4.9 1 7.4 2.6 0 5.2.1 7.8.2V3.6zM5.3.2c0-4.4-1.8-7.5-5.4-7.8-3.7-.3-5.2 2.9-5.2 6.9C-5.3 3.4-3.5 6.7.2 7c3.7.4 5.2-2.9 5.1-6.8zM-2-.4c0-3.2.7-4.7 2-4.6 1.3.1 2 1.8 2 5 0 3.1-.6 4.7-2 4.6-1.2-.1-2-1.7-2-5zm19.4 1c0-4.4-1.8-7.3-5.4-7.4-3.7-.1-5.2 3-5.2 7.1s1.8 7.5 5.5 7.6c3.7 0 5.1-3.5 5.1-7.3zM10.1.4c0-3.2.7-4.8 2-4.7 1.3 0 2 1.6 2 4.9 0 3.1-.6 4.8-2 4.8-1.2-.1-2-1.7-2-5z" fill="#09632D"/></symbol><symbol id="d" viewBox="-42.1 -44.9 84.3 89.7"><path fill="#363636" d="M25.2-4.9c-3.7-1.8-8.1-2.4-11.4-5-2.4-1.9-4.6-4.3-6.3-6.9-1 3.3-2.6 6.5-4.4 9.5-1 1.6-1.1 3.4-.5 5C4.9 3.4 9.1 8.2 14.5 10.9c4.9 3.7 8.3 9.2 9.5 15.1-1.1-5.1-4-9.7-8.1-12.9-3.4-2.5-7.7-4-10.5-7.3C3.3 3.3 1.5.4.2-2.8-1.5 0-3.2 2.7-4.5 5.5c-4.6 9.9-5.4 21.4-2.5 32-3.2-10.8-2.7-22.6 1.2-33.3-2 1-4.2 1.7-6.4 2.1-3.3.6-6.6-.7-9.9-.8-4-.2-8.1 1.2-11.2 3.6 3.6-3 8.4-4.5 13.2-4.3 4.5 1 9.3.3 13.4-1.8 1.2-.6 2.2-1.7 2.7-3 3.3-4.6 5.7-9.8 7.3-15.2-3 1.9-6.4 3.2-9.8 4.1-4.8 1.3-9.9-.2-14.8-.1-6 .2-11.8 2.7-16.3 6.8 5.1-4.8 11.9-7.7 19.1-8 7.1 1.1 14.5-.8 20.5-4.9 1.4-.9 2.3-2.4 2.6-4 1.3-7.7.9-15.8-1.2-23.5h4.9c1.4 7.1 1.4 15.4.2 22.6-.3 1.9.1 3.8 1.1 5.4 3.2 4.9 8.1 8.6 13.7 10.2C28.7-4 33.1.5 35.3 6c-2-4.7-5.6-8.6-10.1-10.9z"/><path fill="#505050" d="M25.2-4.9c-3.7-1.8-8.1-2.4-11.4-5-2.4-1.9-4.6-4.3-6.3-6.9-1 3.4-2.6 6.5-4.4 9.5-1 1.6-1.1 3.4-.5 5C4.9 3.4 9 8.2 14.5 10.9c4.9 3.7 8.3 9.2 9.5 15.1-1.1-5.1-4-9.7-8.1-12.9-3.4-2.5-7.7-4-10.5-7.3C3.3 3.3 1.5.4.2-2.7-1.5 0-3.2 2.7-4.5 5.5c-4.6 9.9-5.4 21.4-2.5 32C-10.3 26.8-9.7 15-5.9 4.2c1.6-3.1 3.5-6 5.4-9v-.1s.1-.1.2-.1c2.7-4.2 5.1-8.5 6.2-13.4 1.8-8.3 2.2-18.1.5-26.5h2c1.5 7.1 1.4 15.2.2 22.6-.3 1.8.1 3.8 1.1 5.3 3.2 4.9 8.1 8.7 13.7 10.2C28.8-4.1 33.1.4 35.3 5.9c-2-4.6-5.6-8.5-10.1-10.8z"/><use xlink:href="#a" width="7.8" height="9.7" x="-3.9" y="-4.9" transform="translate(-3.632 25.881)" overflow="visible"/><use xlink:href="#b" width="9.2" height="16.1" x="-4.6" y="-8" transform="translate(-7.238 36.828)" overflow="visible"/><use xlink:href="#c" width="6.5" height="9.6" x="-3.3" y="-4.8" transform="translate(-2.392 16.012)" overflow="visible"/><use xlink:href="#b" width="9.2" height="16.1" x="-4.6" y="-8" transform="matrix(.4104 .5613 -.5613 .4104 -14.24 21.817)" overflow="visible"/><use xlink:href="#c" width="6.5" height="9.6" x="-3.3" y="-4.8" transform="rotate(59.451 -15.21 -5.814) scale(.8885)" overflow="visible"/><use xlink:href="#b" width="9.2" height="16.1" x="-4.6" y="-8" transform="rotate(60.353 -19.786 -15.008) scale(.5424)" overflow="visible"/><use xlink:href="#a" width="7.8" height="9.7" x="-3.9" y="-4.9" transform="matrix(.01683 .925 -.925 .01683 -33.66 10.03)" overflow="visible"/><use xlink:href="#c" width="6.5" height="9.6" x="-3.3" y="-4.8" transform="rotate(155.743 -13.5 -1.932) scale(.7396)" overflow="visible"/><use xlink:href="#a" width="7.8" height="9.7" x="-3.9" y="-4.9" transform="matrix(-.7334 .3731 -.3731 -.7334 -14.918 1.743)" overflow="visible"/><use xlink:href="#a" width="7.8" height="9.7" x="-3.9" y="-4.9" transform="rotate(66.724 2.557 -7.786) scale(.8675)" overflow="visible"/><use xlink:href="#c" width="6.5" height="9.6" x="-3.3" y="-4.8" transform="matrix(.359 .951 -.951 .359 -17.78 -6.032)" overflow="visible"/><use xlink:href="#b" width="9.2" height="16.1" x="-4.6" y="-8" transform="rotate(46.504 -7.139 -35.2) scale(.6731)" overflow="visible"/><use xlink:href="#c" width="6.5" height="9.6" x="-3.3" y="-4.8" transform="rotate(69.661 -16.836 -28.478) scale(1.1865)" overflow="visible"/><use xlink:href="#c" width="6.5" height="9.6" x="-3.3" y="-4.8" transform="rotate(139.346 -10.413 -12.585) scale(.9646)" overflow="visible"/><use xlink:href="#a" width="7.8" height="9.7" x="-3.9" y="-4.9" transform="matrix(-.8441 .3495 -.3526 -.8517 -13.91 -16.47)" overflow="visible"/><use xlink:href="#b" width="9.2" height="16.1" x="-4.6" y="-8" transform="rotate(128.888 2.216 -10.71) scale(.6354)" overflow="visible"/><use xlink:href="#a" width="7.8" height="9.7" x="-3.9" y="-4.9" transform="rotate(-75.385 -3.071 -19.187) scale(.8473)" overflow="visible"/><use xlink:href="#b" width="9.2" height="16.1" x="-4.6" y="-8" transform="rotate(-100.241 6.128 -15.497) scale(.6789)" overflow="visible"/><use xlink:href="#c" width="6.5" height="9.6" x="-3.3" y="-4.8" transform="matrix(.4408 -.918 .918 .4408 31.559 -7.555)" overflow="visible"/><use xlink:href="#a" width="7.8" height="9.7" x="-3.9" y="-4.9" transform="matrix(1.1714 -.2346 .2346 1.1714 36.817 5.095)" overflow="visible"/><use xlink:href="#b" width="9.2" height="16.1" x="-4.6" y="-8" transform="rotate(-9.897 18.172 -145.237) scale(.719)" overflow="visible"/><use xlink:href="#c" width="6.5" height="9.6" x="-3.3" y="-4.8" transform="matrix(.9866 .2774 -.2774 .9866 15.555 -3.412)" overflow="visible"/><use xlink:href="#a" width="7.8" height="9.7" x="-3.9" y="-4.9" transform="rotate(32.516 20.676 10.787) scale(.6137)" overflow="visible"/><use xlink:href="#a" width="7.8" height="9.7" x="-3.9" y="-4.9" transform="rotate(-51.43 6.717 -9.363) scale(.7431)" overflow="visible"/><use xlink:href="#b" width="9.2" height="16.1" x="-4.6" y="-8" transform="matrix(.2077 -.5945 .5945 .2077 16.713 8.206)" overflow="visible"/><use xlink:href="#c" width="6.5" height="9.6" x="-3.3" y="-4.8" transform="rotate(-54.113 25.353 -16.222)" overflow="visible"/><use xlink:href="#b" width="9.2" height="16.1" x="-4.6" y="-8" transform="rotate(9.019 -159.8 155.715) scale(.6713)" overflow="visible"/><use xlink:href="#c" width="6.5" height="9.6" x="-3.3" y="-4.8" transform="matrix(.7917 .4429 -.4429 .7917 16.597 18.78)" overflow="visible"/><use xlink:href="#a" width="7.8" height="9.7" x="-3.9" y="-4.9" transform="matrix(.6108 .3479 -.3479 .6108 8.906 13.813)" overflow="visible"/><use xlink:href="#b" width="9.2" height="16.1" x="-4.6" y="-8" transform="translate(1.572 6.4) scale(.5588)" overflow="visible"/></symbol><ellipse opacity=".1" cx="2220.5" cy="708.1" rx="138.4" ry="24.6"/><path fill="#FFF" d="M2198.1 1294.6c-.5-.7-1.4-1.4-2.4-1.8l-.7-.3-.6.4c-1.8 1.1-2.7 2.8-1.3 4.3-.3 0-.5-.1-.8-.1l-1.4-.2c0-.5-.1-1-.3-1.3l-1.8-.5c-.6.1-1.6.4-2.3.9-.1-.1-.2-.3-.3-.4-.2-1-.8-1.9-2.2-2.3-.9-.3-2.1-.3-3-.2l-.8 1.1c.1.8.6 1.7 1.8 2.2l-1.7.2c.6-1.6-.9-3.3-3.4-3.6-2.3-.3-4.8.6-5.4 2.1-.6 1.5.7 3.1 2.9 3.6 2.4.5 5.1-.4 5.8-2l1.4.7c.1.4.3 1.1 1.1 1.6h-.3l-.9.1-.1.6c-.2 1 .4 2.2 2 2.6-.4 0-.8 0-1.1.3l-.1.1c-.5-.9-1.8-1.5-3.2-1.8l-.8-.1c-.7-1.1-2.6-1.7-2.8-1.8l-1.3.2s-.2.1-.3.3c-1-1.5-3.6-2.1-5.9-2h-.9l-.1.6c-.2.8-.1 1.7.3 2.5.8 1.4 3 2.1 5.3 2.2.2.1.4.3.7.4-1.1.2-2.1.7-2.8 1.4l-.5.5.6.4c1.2.8 3 1.4 4.7 1l.4.5c.1.1.7.8 1.8 1.1-1.9-.5-3.8.1-4.6 1.3l-.5.8c-1.6.1-2.8 1-3.4 1.9l-.4.5.7.3c.7.4 1.6.6 2.5.7 1.7.2 3.1-.4 4-1.3.1.2.2.4.3.5l.1.7c-1.7 0-3.1.7-4 1.6l.5 1.2c1 .6 2.2 1 3.6 1s2.7-.6 3.6-1.3c.6-.1 1.2-.3 1.8-.5.1.6.4 1.2.9 1.7l.5.5 1.4-.4c1.2-.4 2.2-1.1 2.3-2 .1-.6-.2-1.3-.7-1.9 0 0 .1 0 .1-.1.5.8 1.3 1.3 1.3 1.3l1.8-.2c.3-.1.6-.3 1-.6s.7-.7.9-1.1l.6.4.8-.3c.6-.2 1.1-.5 1.5-.8 1-.8 1.1-1.8.4-2.7.9 0 4.1 1.5 4.9 2 1.5.9 4.9 3.7 4.9 3.7l3-2.4s-3.3-2.4-4.8-3.2c-.8-.4-4.6-1.9-5.2-2.5 2.2.1 3.7-1 4.1-2.4l.4-1.5-1.2.4c.7-.6.9-1.3 1-1.6l.1-.7s-.9-.2-1-.2c.2-.1 1.5-1.8 1.5-2.5l-1.2-1c-.4 0-2.1 0-3.2.6.1-.6 1.2-2.2.4-3.4z"/><path fill="#E8980F" d="M2173 1294.3c1.2-.9 3.3-1.1 4.8-.3 1.4.8 1.7 2.2.5 3.1s-3.3 1.1-4.8.3c-1.4-.8-1.7-2.2-.5-3.1z"/><path fill="#FCC344" d="M2173.1 1294.3c1.1-.9 3.2-1.1 4.6-.3 1.4.8 1.6 2.1.5 3-1.1.9-3.2 1-4.6.3-1.4-.7-1.6-2.1-.5-3z"/><path fill="#E8980F" d="M2173.5 1294.5c-1 .8-.8 2 .4 2.6 1.2.6 3 .5 4-.3s.8-2-.4-2.6c-1.3-.6-3-.5-4 .3zm4.1 2.3c-.9.7-2.5.8-3.6.2-1.1-.6-1.2-1.6-.4-2.4.9-.7 2.5-.8 3.6-.2 1.2.6 1.3 1.6.4 2.4z"/><path opacity=".76" fill="#FFEB79" d="M2176.6 1295.4l-.9.7v.1c.1.1.3.2.6.2.2 0 .4-.2.5-.3.1-.1.1-.1.1-.2 0 0 0-.1.1-.2s.3.1.3.1c.1.3-.4.6-.7.7-.4.2-1 .1-1.2-.2-.1.1-.3-.1-.2-.1l.2-.1c0-.1 0-.3.1-.4 0 0 0-.1.1-.1l-.6.5c-.1.1-.3-.1-.2-.1l.9-.7c-.2-.4-.8-.1-.9.1 0 .1-.1.3-.1.3-.1 0-.3-.1-.3-.1-.1-.2.3-.5.6-.6.4-.2.9-.1 1.1.1l.1-.1c.1-.1.3.1.2.1l-.2.2c0 .1 0 .3-.1.4v.1l.6-.5c-.2-.1 0 0-.1.1z"/><path fill="#363636" d="M2195.6 1300.4c-.5 1.3-1.6 2.4-1.6 3.8 0 1 .2 2 .6 2.9-1.5-.4-3.2-.7-4.8-.8-.8-.1-1.6-.4-1.9-.9-1.4-1.7-1.9-3.6-1.3-5.5.1-1.9-.9-3.8-2.7-5.3 1.5 1.3 2.4 2.9 2.3 4.5-.1 1.3-.9 2.7-.5 4 .3 1 .8 2 1.6 3-1.5-.1-3-.2-4.5-.5-5-.9-9.6-3-12.6-5.8 3 2.9 7.5 5.1 12.7 6.3-1 .3-1.9.7-2.7 1.1-1.2.7-1.7 1.7-2.7 2.6-1.2 1-2.9 1.7-4.8 2 2.2-.3 4.2-1.1 5.6-2.3 1-1.3 2.7-2.3 4.7-2.9.6-.2 1.3-.2 1.9-.1 2.7.1 5.4.6 7.9 1.3-1.6.4-3.1.9-4.5 1.6-1.9.9-2.9 2.4-4.4 3.6-1.9 1.4-4.6 2.3-7.4 2.6 3.3-.3 6.4-1.4 8.7-3 1.8-1.9 4.7-3.4 8.1-4 .8-.1 1.6-.1 2.2.2 3.3 1.2 6.1 2.9 8.3 5l1.5-1.2c-2.2-1.8-5.3-3.4-8.3-4.5-.8-.3-1.4-.8-1.7-1.3-.8-1.8-.7-3.7.4-5.3.6-1.8.3-3.8-1.1-5.4 1.2 1.1 1.5 2.8 1 4.3z"/><path fill="#505050" d="M2195.6 1300.4c-.5 1.3-1.6 2.4-1.6 3.8 0 1 .2 2 .6 2.9-1.5-.4-3.2-.7-4.9-.8-.8-.1-1.5-.4-1.9-.9-1.4-1.7-1.9-3.6-1.3-5.5.1-1.9-.9-3.8-2.7-5.3 1.5 1.3 2.4 2.9 2.3 4.5-.1 1.3-.9 2.7-.5 4 .3 1 .8 2 1.6 3-1.5-.1-3-.2-4.5-.5-5-.9-9.6-3-12.6-5.8 3 2.9 7.5 5.1 12.7 6.3 1.6.2 3.3.3 5 .5h.1c2.4.2 4.7.4 6.8 1.2 3.6 1.2 7.4 3.1 10 5.1l.6-.5c-2.2-1.8-5.2-3.4-8.3-4.6-.8-.3-1.4-.8-1.6-1.3-.8-1.8-.7-3.7.4-5.3.6-1.8.3-3.8-1.1-5.4 1.1 1.4 1.4 3.1.9 4.6z"/><path fill="#185F4D" d="M2173.9 1301.5c.4 1 2.3 1.6 2.3 1.6s1.2-1.1.9-2.1c-.4-1-2.3-1.6-2.3-1.6s-1.3 1.1-.9 2.1z"/><path opacity=".15" fill="#FFF" d="M2177.1 1301c.4 1-.9 2.1-.9 2.1l-1.4-3.7s1.9.6 2.3 1.6z"/><path opacity=".76" fill="#FFF" d="M2174.7 1301.6s-.1-.1 0-.2l.8-.1h-.1c-.2 0-.3 0-.5-.1h-.3c-.1 0-.2-.1-.1-.2h.1c-.2-.2-.1-.5.2-.6.2-.1.8-.2 1-.1.1 0 .1.2 0 .2h-.5c-.3 0-.7.2-.4.4l1.1-.2c.1 0 .2.1.1.2l-.8.1h.2c.2 0 .3 0 .5.1h.2c.1 0 .1.1.1.2h-.1c.2.2.1.5-.2.7-.2.1-.9.3-1.2.1-.1-.1-.1-.2 0-.2h.5c.3 0 .9-.3.5-.5h-.1l-1 .2z"/><path fill="#176D3C" d="M2168.7 1300.9c1.4 1 4.2.9 4.2.9s.5-1.8-1-2.9c-1.4-1.1-4.2-.9-4.2-.9s-.4 1.9 1 2.9z"/><path opacity=".15" fill="#FFF" d="M2172 1299c1.4 1.1 1 2.9 1 2.9l-5.2-3.8c-.1 0 2.7-.1 4.2.9z"/><path opacity=".76" fill="#FFF" d="M2169.7 1300.7c-.1 0-.2-.1-.1-.2l.8-.5h-.1c-.2 0-.4.1-.7.1h-.1l-.3.2c-.1 0-.3-.1-.2-.2l.1-.1c-.4-.2-.6-.5-.3-.8.1-.1.3-.3.5-.4.1-.1.4-.2.6-.1.1 0 .3.2.2.2h-.3c-.1 0-.2.1-.3.1-.4.1-.6.6 0 .7h.1l1.2-.7c.1 0 .3.1.2.2l-.8.5h.2c.2 0 .4-.1.7-.1l.2-.1c.1-.1.3.1.2.2h-.1c.5.2.6.6.4.9-.1.2-.4.3-.6.4-.2.1-.5.2-.7.1-.2 0-.4-.2-.1-.2.2-.1.4-.1.6-.1.2-.1.4-.2.5-.4 0-.2-.1-.4-.4-.4h-.1l-1.3.7c.1 0 .1 0 0 0 0 0 .1 0 0 0z"/><path fill="#439E63" d="M2178.2 1303.3c.6.9 2.4 1.2 2.4 1.2s.9-1.1.3-1.9c-.6-.9-2.4-1.2-2.4-1.2s-.9 1.1-.3 1.9z"/><path opacity=".15" fill="#FFF" d="M2180.8 1302.5c.6.9-.3 1.9-.3 1.9l-2.1-3.1c.1.1 1.9.4 2.4 1.2z"/><path opacity=".76" fill="#FFF" d="M2178.9 1303.3s-.1-.1 0-.1l.6-.2h-.5l-.2.1c-.1 0-.2-.1-.1-.1h.1c-.2-.2-.2-.4.1-.6.2-.1.6-.2.8-.1 0 0 .1.1.1.2h-.4c-.3 0-.6.3-.3.4l1-.3c.1 0 .2.1.1.1l-.6.2h.7c.1 0 .2.1.1.1.2.2.2.4 0 .6-.2.1-.7.3-1 .2-.1 0-.2-.1-.1-.2h.4c.3 0 .9-.3.4-.5h-.1l-1.1.2z"/><path fill="#176D3C" d="M2173.9 1305.6c1.5-.1 2.5-1.2 2.5-1.2s-1.4-.9-2.8-.8c-1.5.1-2.5 1.2-2.5 1.2s1.3.9 2.8.8z"/><path opacity=".15" fill="#FFF" d="M2173.6 1303.6c1.5-.1 2.8.8 2.8.8l-5.4.4c.1 0 1.1-1.1 2.6-1.2z"/><path opacity=".76" fill="#FFF" d="M2174.2 1305.2h-.2l-.1-.5c-.1.1-.1.2-.2.3v.2c0 .1-.2.1-.2 0v-.1c-.3.1-.7 0-.8-.2-.1-.1-.1-.2-.1-.3 0-.1 0-.2.1-.3h.3l-.1.1v.2c0 .2.3.4.6.3l-.1-.7c0-.1.2-.1.2 0l.1.5v-.1c0-.1.1-.2.2-.3v-.1c0-.1.2-.1.2 0 .4-.1.8 0 1 .2.1.1.1.3.1.4 0 .1 0 .2-.2.3-.1 0-.3.1-.3 0s.1-.2.1-.3c0-.1 0-.2-.1-.3-.1-.1-.4-.1-.5 0h-.1l.1.7c-.1 0 0 0 0 0z"/><path fill="#439E63" d="M2178.4 1307.4c1.3.1 2.4-.7 2.4-.7s-.9-.9-2.1-1c-1.3-.1-2.4.7-2.4.7s.9.9 2.1 1z"/><path opacity=".15" fill="#FFF" d="M2178.7 1305.7c1.3.1 2.1 1 2.1 1l-4.6-.4c.1 0 1.3-.7 2.5-.6z"/><path opacity=".76" fill="#FFF" d="M2178.8 1307h-.2l.1-.4c-.1.1-.2.1-.2.2v.1h-.2v-.1c-.3 0-.6-.1-.6-.3 0-.1 0-.4.2-.5h.2l-.2.2c-.1.2 0 .4.4.3l.1-.6h.2l-.1.4.1-.1c.1-.1.1-.2.2-.2v-.1h.2c.3 0 .6.1.7.3.1.1 0 .5-.2.6h-.3s.1-.2.2-.2c.1-.2 0-.6-.4-.4h-.1l-.1.8c-.1 0 0 0 0 0z"/><path fill="#176D3C" d="M2175.9 1310c1.1-.2 1.8-1 1.8-1s-1.2-.6-2.3-.5c-1.1.2-1.8 1.1-1.8 1.1s1.1.5 2.3.4z"/><path opacity=".15" fill="#FFF" d="M2175.4 1308.4c1.1-.2 2.3.5 2.3.5l-4.1.6s.6-.9 1.8-1.1z"/><path opacity=".76" fill="#FFF" d="M2176 1309.6h-.2l-.1-.4c0 .1-.1.2-.1.2v.1s-.2.1-.2 0v-.1c-.2.1-.5 0-.7-.1-.1-.1-.1-.2-.1-.3 0-.1 0-.2.1-.2h.2v.2c0 .2.3.3.5.2l-.2-.6s.2-.1.2 0l.1.4v-.1c0-.1.1-.2.1-.2v-.1s.2-.1.2 0c.3-.1.6 0 .8.1.1.1.1.2.1.3 0 .1 0 .2-.1.2s-.2.1-.2 0 .1-.1.1-.2 0-.2-.2-.3c-.1-.1-.3-.1-.4 0l.1.9z"/><path fill="#185F4D" d="M2172.6 1312.6c1.4-.2 2.2-1.4 2.2-1.4s-1.5-.8-2.9-.6c-1.4.2-2.2 1.4-2.2 1.4s1.5.9 2.9.6z"/><path opacity=".15" fill="#FFF" d="M2171.9 1310.7c1.4-.2 2.9.6 2.9.6l-5.2.8s.9-1.2 2.3-1.4z"/><path opacity=".76" fill="#FFF" d="M2172.7 1312.2s-.2.1-.2 0l-.2-.5c0 .1-.1.2-.2.3l.1.2c0 .1-.2.1-.2 0v-.1c-.3.1-.6.1-.8-.1-.1-.1-.3-.5-.1-.6 0 0 .2-.1.3 0 0 .1-.1.2-.1.3 0 .2.3.4.6.2l-.3-.7c0-.1.2-.1.2 0l.2.5v-.1c0-.1.1-.2.1-.3v-.1c0-.1.2-.1.2 0 .3-.1.7-.1 1 .1.2.1.4.5.1.7-.1.1-.2.1-.3 0 0 0 0-.1.1-.2v-.1c0-.2-.4-.5-.7-.3h-.1l.3.8c0-.1 0 0 0 0z"/><path fill="#439E63" d="M2178.5 1311.6c0-.7-1.1-1.3-1.1-1.3s-1.1.5-1.1 1.2 1.1 1.3 1.1 1.3 1.1-.5 1.1-1.2z"/><path opacity=".15" fill="#FFF" d="M2176.3 1311.6c0-.7 1.1-1.2 1.1-1.2v2.5s-1.1-.6-1.1-1.3z"/><path opacity=".76" fill="#FFF" d="M2178 1311.5s0 .1 0 0l-.5.1c.1 0 .2.1.3.1h.2c.1 0 .1.1 0 .1h-.1c.1.2-.1.3-.3.4-.2 0-.5 0-.6-.1v-.1s.2.1.3.1c.2 0 .6-.1.4-.2h-.8c-.1 0-.1-.1 0-.1h.4c-.1 0-.2-.1-.3-.1h-.1c-.1 0-.1-.1 0-.1-.1-.2.1-.3.3-.4.2 0 .6-.1.8.1 0 0 .1.1 0 .1s-.2-.1-.3-.1c-.2-.1-.7 0-.5.3l.8-.1c0-.1 0 0 0 0z"/><path fill="#185F4D" d="M2182.3 1309c.3-.8-.8-1.7-.8-1.7s-1.5.5-1.8 1.3c-.3.8.8 1.7.8 1.7s1.5-.5 1.8-1.3z"/><path opacity=".15" fill="#FFF" d="M2179.7 1308.6c.3-.8 1.8-1.3 1.8-1.3l-1 3s-1.1-.9-.8-1.7z"/><path opacity=".76" fill="#FFF" d="M2181.8 1308.7s0 .1-.1.1l-.6-.1c.1.1.2.1.3.2h.2c.1 0 0 .1 0 .1h-.1c0 .2-.2.4-.5.4-.2 0-.7 0-.8-.2 0 0 0-.2.1-.1.1 0 .2.1.3.1.2.1.7 0 .5-.2l-.9-.1c-.1 0 0-.1 0-.1l.6.1h-.1c-.1-.1-.2-.1-.3-.2h-.2c-.1 0 0-.1 0-.1 0-.2.2-.4.5-.5.2 0 .8 0 .9.2 0 .1 0 .1-.1.1 0 0-.1-.1-.2-.1s-.1 0-.2-.1c-.3-.1-.8 0-.6.3l1.3.2z"/><path fill="#185F4D" d="M2186.9 1309.2c1.4.1 2.7-.7 2.7-.7s-.9-1-2.3-1.2c-1.4-.1-2.7.7-2.7.7s.9 1.1 2.3 1.2z"/><path opacity=".15" fill="#FFF" d="M2187.3 1307.4c1.4.1 2.3 1.2 2.3 1.2l-4.9-.5c-.1-.1 1.2-.9 2.6-.7z"/><path opacity=".76" fill="#FFF" d="M2187.2 1308.8h-.2l.1-.4c-.1.1-.2.2-.3.2v.1c0 .1-.2 0-.2 0v-.1c-.3 0-.6-.1-.7-.3-.1-.1 0-.5.2-.6.1 0 .2 0 .2.1s-.2.2-.2.2c-.1.2 0 .5.4.4l.1-.7c0-.1.2 0 .2 0l-.1.4.1-.1c.1-.1.2-.2.3-.2v-.1c0-.1.2 0 .2 0 .3 0 .7.1.8.3.1.2 0 .6-.3.6-.1 0-.2 0-.2-.1l.1-.1.1-.1c.1-.2-.1-.5-.5-.4h-.1v.9c.1 0 0 0 0 0z"/><path fill="#439E63" d="M2183.1 1312c1.5-.1 2.5-1.1 2.5-1.1s-1.2-.9-2.7-.9c-1.5.1-2.5 1.1-2.5 1.1s1.2.9 2.7.9z"/><path opacity=".15" fill="#FFF" d="M2182.9 1310.1c1.5-.1 2.7.9 2.7.9l-5.2.2c0-.1 1.1-1.1 2.5-1.1z"/><path opacity=".76" fill="#FFF" d="M2183.3 1311.6h-.2v-.5c-.1.1-.1.2-.2.3v.2c0 .1-.2.1-.2 0v-.1c-.3.1-.7 0-.8-.3-.1-.1-.1-.5.1-.6h.3s-.1.2-.1.3c-.1.2.2.5.5.3h.1l-.1-.7c0-.1.2-.1.2 0v.5s0-.1.1-.1c.1-.1.1-.2.2-.3v-.1c0-.1.2-.1.2 0 .3-.1.7 0 .9.2.1.2.2.5-.1.7-.1 0-.3.1-.3 0l.1-.2c.1-.2-.1-.7-.6-.5h-.1v.9c.1-.1.1 0 0 0 0 0 .1 0 0 0z"/><path fill="#176D3C" d="M2179.8 1314.4c1.4 0 2.7-.9 2.7-.9s-1.1-1-2.6-1c-1.4 0-2.7.9-2.7.9s1.2.9 2.6 1z"/><path opacity=".15" fill="#FFF" d="M2179.9 1312.4c1.4 0 2.6 1 2.6 1l-5.2-.1c0 .1 1.2-.9 2.6-.9z"/><path opacity=".76" fill="#FFF" d="M2180.2 1313.9h-.2v-.5c-.1.1-.1.2-.3.2v.2c0 .1-.2.1-.2 0v-.1c-.3.1-.7-.1-.8-.3-.1-.1-.1-.2 0-.3 0-.1.1-.2.2-.2h.2l-.1.1-.1.1c-.1.2.2.4.5.3v-.7c0-.1.2-.1.2 0v.5s0-.1.1-.1c.1-.1.1-.2.3-.2v-.1c0-.1.2-.1.2 0 .4-.1.8.1.9.3.1.1.1.3 0 .4 0 .1-.1.2-.2.3-.1 0-.3 0-.2-.1.1-.1.1-.2.2-.3 0-.1 0-.2-.1-.3-.1-.1-.3-.1-.5-.1h-.1v.9c-.1.1 0 0 0 0z"/><path fill="#439E63" d="M2175.9 1316.3c1.7-.1 2.9-1.2 2.9-1.2s-1.5-1.1-3.2-1c-1.7.1-2.9 1.2-2.9 1.2s1.5 1.1 3.2 1z"/><path opacity=".15" fill="#FFF" d="M2175.7 1314.1c1.7-.1 3.2 1 3.2 1l-6.1.2c-.1 0 1.2-1.2 2.9-1.2z"/><path opacity=".76" fill="#FFF" d="M2176.2 1315.8h-.2l-.1-.5-.3.3v.2c0 .1-.3.1-.3 0v-.1c-.4.1-.8 0-.9-.3-.1-.2-.2-.6.1-.7h.3s-.1.2-.2.3c-.1.2.2.6.6.4h.1l-.1-.8c0-.1.3-.1.3 0v.5s0-.1.1-.1c.1-.1.1-.2.3-.3v-.2c0-.1.3-.1.3 0 .4-.1.9 0 1.1.3.1.2.2.6-.1.8-.1 0-.3.1-.4 0 0-.1.1-.2.2-.3.1-.2-.2-.8-.7-.5h-.1v1c-.1 0 0 0 0 0z"/><path fill="#439E63" d="M2185.1 1315.3c.4-.9-.6-1.8-.6-1.8s-1.7.4-2.1 1.3c-.4.9.6 1.8.6 1.8s1.7-.5 2.1-1.3z"/><path opacity=".15" fill="#FFF" d="M2182.4 1314.7c.4-.9 2.1-1.3 2.1-1.3l-1.5 3.1c0 .1-1-.9-.6-1.8z"/><path opacity=".76" fill="#FFF" d="M2184.6 1315s0 .1-.1.1l-.6-.1c.1.1.2.1.3.2h.2c.1 0 0 .2-.1.1h-.1c0 .2-.3.4-.6.4-.2 0-.7-.1-.7-.2 0 0 0-.1.1-.1s.2.1.3.2c.2.1.7.1.6-.2l-1-.2c-.1 0 0-.2.1-.1l.7.1s-.1 0-.1-.1c-.1-.1-.2-.1-.3-.2h-.2c-.1 0 0-.1.1-.1 0-.2.3-.4.6-.4s.8.1.9.3c0 0 0 .2-.1.2s-.2-.1-.3-.2c-.3-.1-1-.1-.8.2v.1h1.1c0-.1 0 0 0 0z"/><path fill="#185F4D" d="M2189.5 1312.3c.2-.9-1.1-1.9-1.1-1.9s-1.6.6-1.8 1.6c-.2.9 1.1 1.9 1.1 1.9s1.6-.6 1.8-1.6z"/><path opacity=".15" fill="#FFF" d="M2186.6 1312c.2-.9 1.8-1.6 1.8-1.6l-.7 3.4c0 .1-1.3-.8-1.1-1.8z"/><path opacity=".76" fill="#FFF" d="M2188.9 1312s0 .1-.1.1l-.7-.1h.1c.1.1.3.1.3.2h.2c.1 0 .1.2 0 .2h-.1c0 .2-.1.4-.5.5-.2 0-.8 0-.9-.2 0 0 0-.2.1-.2s.3.1.4.1c.3.1.7 0 .6-.3l-1.1-.1c-.1 0-.1-.2 0-.2l.7.1h-.1c-.1-.1-.3-.1-.4-.2h-.2c-.1 0 0-.2 0-.2-.1-.2.2-.5.5-.5s.9 0 1 .2c0 .1 0 .2-.1.2l-.2-.1c-.1 0-.1 0-.2-.1-.3-.1-.9 0-.7.3v.1l1.4.2c0 .1 0 0 0 0z"/><path fill="#176D3C" d="M2193.2 1310.6c.2-.9-1-1.7-1-1.7s-1.5.6-1.8 1.5c-.2.9 1 1.7 1 1.7s1.6-.6 1.8-1.5z"/><path opacity=".15" fill="#FFF" d="M2190.4 1310.3c.2-.9 1.8-1.5 1.8-1.5l-.8 3.2c0 .1-1.2-.8-1-1.7z"/><path opacity=".76" fill="#FFF" d="M2192.6 1310.4s0 .1-.1.1l-.7-.1c.1.1.2.1.3.2h.2c.1 0 0 .2 0 .1h-.1c0 .2-.2.4-.5.4h-.5c-.1 0-.3-.1-.3-.1s0-.2.1-.1l.1.1c.1 0 .1 0 .2.1.3.1.7 0 .5-.3l-1-.1c-.1 0 0-.2 0-.1l.7.1h-.1c-.1 0-.2-.1-.3-.2h-.2c-.1 0 0-.2 0-.1-.1-.2.2-.5.6-.5h.6c.1 0 .3.1.4.2 0 .1 0 .2-.1.1-.1 0-.2-.1-.4-.2h-.5c-.1.1-.2.2-.1.3l1.2.1z"/><path fill="#185F4D" d="M2196.8 1304.2c-1.2.4-1.5 1.6-1.5 1.6s1.6.4 2.8 0c1.2-.4 1.5-1.6 1.5-1.6s-1.6-.4-2.8 0z"/><path opacity=".15" fill="#FFF" d="M2198.2 1305.8c-1.2.4-2.8 0-2.8 0l4.3-1.6c-.1.1-.4 1.2-1.5 1.6z"/><path opacity=".76" fill="#FFF" d="M2196.9 1304.7s.1-.1.2 0l.3.4v-.3l-.1-.1.2-.1v.1c.2-.1.5-.2.8 0 .2.1.5.4.3.5l-.2.1c-.1 0 0-.2 0-.3-.1-.2-.5-.3-.6-.1l.5.6-.2.1-.3-.4v.4l.1.1s-.1.1-.2.1c-.2.2-.6.2-.9 0-.2-.1-.5-.4-.4-.6.1-.1.2-.1.2 0v.2s0 .1.1.1c.1.2.5.4.7.1l-.5-.9z"/><g><path fill="#176D3C" d="M2196.7 1301.7c-1.2.5-1.5 1.7-1.5 1.7s1.8.4 3-.1 1.5-1.7 1.5-1.7-1.7-.4-3 .1z"/><path opacity=".15" fill="#FFF" d="M2198.3 1303.3c-1.2.5-3 .1-3 .1l4.5-1.8c-.1 0-.3 1.2-1.5 1.7z"/><path opacity=".76" fill="#FFF" d="M2196.8 1302.2s.2-.1.2 0l.4.4v-.3l-.1-.1.2-.1.1.1c.2-.2.6-.2.9 0l.3.3c0 .1.1.2 0 .3 0 0-.2.1-.2 0v-.1s0-.1-.1-.1c-.1-.2-.5-.3-.7-.1l.6.6-.2.1-.4-.4v.4l.1.1-.2.1c-.3.2-.7.2-1 .1-.2-.1-.3-.2-.3-.3-.1-.1-.1-.2-.1-.3.1-.1.2-.1.3 0 0 .1 0 .2.1.3l.3.3c.2 0 .4 0 .5-.1v-.1l-.7-1.1c0-.1 0 0 0 0z"/></g><g><path fill="#439E63" d="M2197.4 1298.8c-1 .7-.6 1.9-.6 1.9s1.9.1 2.8-.7c1-.7.6-1.9.6-1.9s-1.8-.1-2.8.7z"/><path opacity=".15" fill="#FFF" d="M2199.6 1300c-1 .7-2.8.7-2.8.7l3.4-2.6s.4 1.2-.6 1.9z"/><path opacity=".76" fill="#FFF" d="M2197.7 1299.2s.1-.1.2-.1l.5.3c-.1-.1-.1-.2-.1-.3l-.2-.1c-.1 0 .1-.2.1-.1l.1.1c.2-.2.5-.3.8-.2.2.1.6.3.6.4 0 0-.1.1-.2.1s-.1-.2-.2-.2c-.2-.2-.7-.3-.7 0l.8.5c.1 0-.1.2-.1.1l-.5-.3s0 .1.1.1c.1.1.1.2.1.3l.1.1c.1 0-.1.1-.1.1-.1.2-.5.3-.9.3-.3-.1-.7-.3-.7-.5 0-.1.1-.2.2-.2s.1.2.2.2c.2.2.8.4.9 0v-.1l-1-.5z"/></g><g><path fill="#185F4D" d="M2193.5 1295.7c.1 1.2 2.1 2.2 2.1 2.2s1.8-1.1 1.7-2.3c-.1-1.2-2.1-2.2-2.1-2.2s-1.8 1-1.7 2.3z"/><path opacity=".15" fill="#FFF" d="M2197.4 1295.5c.1 1.2-1.7 2.3-1.7 2.3l-.4-4.5c0 .1 2 1 2.1 2.2z"/><path opacity=".76" fill="#FFF" d="M2194.4 1295.9s-.1-.2 0-.2h.8c-.2-.1-.4-.1-.5-.2h-.3c-.1 0-.1-.2 0-.2h.1c-.1-.3 0-.6.4-.7.3-.1 1-.2 1.2 0 .1 0 .1.2 0 .2s-.4-.1-.5-.1c-.4 0-.9.2-.6.5l1.4-.1c.1 0 .1.2 0 .2h-.9.2c.2.1.4.1.5.2h.3c.1 0 .1.2 0 .2h-.1c.2.3 0 .6-.5.8-.3.1-1.1.2-1.4-.1-.1-.1-.1-.2.1-.2.1 0 .2.1.3.1h.3c.4 0 1.1-.2.7-.5l-.1-.1-1.4.2z"/></g><g><path fill="#176D3C" d="M2192.1 1299.8c.8.9 2.8 1 2.8 1s.7-1.2-.1-2.1c-.8-.9-2.8-1-2.8-1s-.7 1.2.1 2.1z"/><path opacity=".15" fill="#FFF" d="M2194.8 1298.7c.8.9.1 2.1.1 2.1l-3-3.1c.1 0 2.1.1 2.9 1z"/><path opacity=".76" fill="#FFF" d="M2192.9 1299.7c-.1 0-.1-.1-.1-.1l.6-.3h-.6l-.2.1c-.1 0-.2-.1-.1-.1h.1c-.3-.2-.3-.4-.1-.6.1-.1.3-.2.5-.2.1 0 .3-.1.4 0 .1 0 .2.1.1.2h-.4c-.3.1-.5.4-.1.5l1-.4c.1 0 .2.1.1.1l-.6.3h.6l.2-.1c.1 0 .2.1.1.1h-.1c.3.2.3.5.1.7-.1.1-.3.2-.5.2-.1 0-.4.1-.5 0-.1 0-.2-.2-.1-.2h.5c.2 0 .3-.1.4-.2.1-.1 0-.3-.2-.3h-.1l-1 .3z"/></g><g><path fill="#439E63" d="M2191 1303.1c.9.7 2.8.7 2.8.7s.4-1.2-.5-2c-.9-.7-2.8-.7-2.8-.7s-.4 1.2.5 2z"/><path opacity=".15" fill="#FFF" d="M2193.3 1301.8c.9.7.5 2 .5 2l-3.3-2.7s1.9 0 2.8.7z"/><path opacity=".76" fill="#FFF" d="M2191.7 1302.9s-.2-.1-.1-.1l.5-.3h-.6l-.2.1c-.1 0-.2-.1-.2-.1h.1c-.3-.1-.4-.4-.2-.6.1-.1.5-.4.8-.3.1 0 .2.1.1.1s-.3.1-.4.1c-.3.1-.5.4-.1.5h.1l.8-.4c.1 0 .2.1.2.1l-.6.3h.1c.1 0 .3-.1.5 0l.2-.1c.1 0 .2.1.2.1.3.1.4.4.2.6-.1.2-.6.4-.9.4-.1 0-.3-.1-.2-.2 0 0 .3-.1.4-.1.3-.1.7-.5.2-.6h-.1l-.8.5z"/></g><g><path fill="#185F4D" d="M2191.7 1305.7c.7.4 2 .3 2 .3s.1-.8-.6-1.3c-.7-.4-2-.3-2-.3s-.1.9.6 1.3z"/><path opacity=".15" fill="#FFF" d="M2193.1 1304.7c.7.4.6 1.3.6 1.3l-2.6-1.6s1.3-.1 2 .3z"/><path opacity=".76" fill="#FFF" d="M2192.2 1305.6c-.1 0-.2-.1 0 0l.2-.3h-.3l-.1.1s-.2 0-.1-.1h.1c-.2-.1-.3-.2-.2-.3.1-.1.3-.3.5-.3l.1.1s-.2.1-.3.1c-.2.1-.3.3 0 .3l.5-.3s.2 0 .1.1l-.3.2h.1c.1 0 .2 0 .3-.1l.1-.1s.1 0 .1.1c.2.1.3.2.2.4-.1.1-.3.3-.6.3-.1 0-.1-.1-.1-.1h.2s.1 0 .1-.1c.2-.1.3-.3 0-.4h-.1l-.5.4c-.1 0 0 0 0 0z"/></g><g><path fill="#185F4D" d="M2187.5 1302.3c-.7.6-.3 1.6-.3 1.6s1.5 0 2.3-.6c.7-.6.3-1.6.3-1.6s-1.6 0-2.3.6z"/><path opacity=".15" fill="#FFF" d="M2189.5 1303.3c-.7.6-2.3.6-2.3.6l2.6-2.2s.4 1-.3 1.6z"/><path opacity=".76" fill="#FFF" d="M2187.8 1302.7l.1-.1.5.2c-.1-.1-.1-.1-.1-.2l-.2-.1c-.1 0 .1-.1.1-.1h.1c.1-.2.3-.3.6-.2.2 0 .6.2.5.3 0 0-.1.1-.2.1s-.1-.2-.2-.2c-.2-.1-.5-.2-.6.1l.7.3c.1 0-.1.1-.1.1l-.5-.2.1.1c.1.1.1.1.1.2l.1.1c.1 0-.1.1-.1.1-.1.2-.4.3-.7.2-.2 0-.6-.2-.6-.4 0-.1.1-.1.2-.1l.1.1.1.1c.2.1.6.2.7-.1l-.7-.3z"/></g><g><path fill="#176D3C" d="M2187 1299.4c-.7.8 0 1.8 0 1.8s1.7-.2 2.4-1 0-1.8 0-1.8-1.8.2-2.4 1z"/><path opacity=".15" fill="#FFF" d="M2189.4 1300.3c-.7.8-2.4 1-2.4 1l2.4-2.8c0-.1.7 1 0 1.8z"/><path opacity=".76" fill="#FFF" d="M2187.4 1299.8l.1-.1.6.2-.2-.2-.2-.1c-.1 0 0-.2.1-.1h.1c.1-.2.4-.3.7-.3.2 0 .3.1.4.1.1 0 .2.1.2.2 0 0-.1.1-.2.1l-.1-.1-.1-.1c-.2-.1-.6-.1-.6.1l.9.3c.1 0 0 .2-.1.1l-.6-.2s.1 0 .1.1l.2.2.2.1c.1 0 0 .2-.1.1-.1.2-.4.4-.8.3-.2 0-.4-.1-.5-.2-.1 0-.3-.1-.3-.2s.1-.2.2-.1.1.2.3.2c.1.1.3.1.5.1s.3-.1.3-.2v-.1l-1.1-.2z"/></g><g><path fill="#439E63" d="M2187 1296.6c-.7.8 0 1.9 0 1.9s1.8-.2 2.6-1c.7-.8 0-1.9 0-1.9s-1.9.2-2.6 1z"/><path opacity=".15" fill="#FFF" d="M2189.5 1297.5c-.7.8-2.6 1-2.6 1l2.6-2.9s.7 1.1 0 1.9z"/><path opacity=".76" fill="#FFF" d="M2187.4 1297l.1-.1.6.2c-.1-.1-.2-.2-.2-.3l-.2-.1c-.1 0 .1-.2.1-.1h.1c.1-.2.4-.3.8-.3.2 0 .7.2.7.4l-.1.1c-.1 0-.2-.2-.2-.2-.2-.1-.7-.2-.7.1l.9.3c.1 0-.1.2-.1.1l-.6-.2.1.1c.1.1.2.2.2.3l.2.1c.1 0-.1.1-.1.1-.1.2-.4.4-.8.4-.3 0-.8-.2-.8-.4 0-.1 0-.2.1-.2s.2.2.2.2c.2.2.9.3.9-.1v-.1l-1.2-.3c0-.1 0 0 0 0z"/></g><g><path fill="#176D3C" d="M2182.1 1295.5c1.1.6 3 .3 3 .3s0-1.2-1.1-1.8c-1.1-.6-3-.3-3-.3s-.1 1.2 1.1 1.8z"/><path opacity=".15" fill="#FFF" d="M2183.9 1294c1.1.6 1.1 1.8 1.1 1.8l-4.1-2.2c.1.1 1.9-.2 3 .4z"/><path opacity=".76" fill="#FFF" d="M2182.7 1295.3c-.1 0-.2-.1-.1-.1l.4-.4h-.1c-.1 0-.3.1-.4.1l-.1.1-.2-.1.1-.1c-.3-.1-.5-.3-.3-.5l.3-.3c.1 0 .2-.1.4-.1.1 0 .2.1.1.1h-.2c-.1 0-.1.1-.2.1-.2.1-.3.4.1.4l.7-.5.2.1-.4.4h.1c.1 0 .3-.1.4-.1l.1-.1.2.1c.4.1.5.4.4.6l-.3.3c-.1.1-.3.1-.4.1-.1 0-.3-.1-.1-.1.1-.1.3-.1.4-.1.1-.1.2-.2.2-.3 0-.1-.1-.2-.3-.2h-.1l-.9.6z"/></g><g><path fill="#439E63" d="M2183.5 1298.5c1 .5 2.7.2 2.7.2s0-1.1-1.1-1.6c-1-.5-2.7-.2-2.7-.2s0 1.1 1.1 1.6z"/><path opacity=".15" fill="#FFF" d="M2185 1297.1c1 .5 1.1 1.6 1.1 1.6l-3.7-1.9s1.6-.2 2.6.3z"/><path opacity=".76" fill="#FFF" d="M2184 1298.3s-.2-.1-.1-.1l.4-.3h-.1c-.1 0-.2.1-.4.1l-.1.1s-.2 0-.2-.1h.1c-.3-.1-.4-.3-.3-.5.1-.1.3-.4.6-.3.1 0 .2.1.2.1l-.3.1c-.2.1-.3.4.1.4h.1l.6-.5s.2 0 .2.1l-.4.3h.1c.1 0 .3-.1.4-.1l.1-.1s.2 0 .2.1c.3.1.5.3.4.5-.1.2-.3.4-.6.4-.1 0-.3 0-.2-.1l.3-.1c.2-.1.5-.5 0-.5h-.1l-1 .5c.1 0 0 0 0 0z"/></g><g><path fill="#185F4D" d="M2182.9 1301.2c.8.5 2.2.4 2.2.4s.2-1-.6-1.5-2.2-.4-2.2-.4-.2.9.6 1.5z"/><path opacity=".15" fill="#FFF" d="M2184.6 1300.1c.8.5.6 1.5.6 1.5l-2.8-1.9c-.1 0 1.4-.1 2.2.4z"/><path opacity=".76" fill="#FFF" d="M2183.5 1301c-.1 0-.2 0 0 0l.3-.3h-.4l-.1.1s-.2-.1-.1-.1h.1c-.2-.1-.3-.2-.2-.4.1-.1.4-.3.6-.3.1 0 .2.1.1.1 0 0-.2.1-.3.1-.2.1-.3.3 0 .4l.6-.4s.2.1.1.1l-.4.3h.1c.1 0 .2 0 .3-.1l.1-.1s.2.1.1.1c.3.1.4.3.2.5-.1.1-.4.4-.7.3-.1 0-.2-.1-.1-.1h.2c.1 0 .1 0 .2-.1.2-.1.4-.4 0-.4h-.1l-.6.3c-.1 0 0 0 0 0z"/></g><g><path fill="#176D3C" d="M2183.4 1304.4c.8.6 2.4.5 2.4.5s.3-1-.5-1.6c-.8-.6-2.4-.5-2.4-.5s-.3 1 .5 1.6z"/><path opacity=".15" fill="#FFF" d="M2185.2 1303.3c.8.6.5 1.6.5 1.6l-2.9-2.1s1.6 0 2.4.5z"/><path opacity=".76" fill="#FFF" d="M2183.9 1304.3s-.1-.1 0 0l.3-.4h-.5l-.1.1s-.2-.1-.1-.1h.1c-.2-.1-.3-.3-.2-.5.1-.1.2-.2.3-.2.1 0 .2-.1.3-.1.1 0 .2.1.1.1h-.2c-.1 0-.1 0-.2.1-.2.1-.3.3 0 .4l.7-.4s.2.1.1.1l-.4.3h.5l.1-.1s.2.1.1.1c.3.1.4.3.2.5-.1.1-.2.2-.3.2-.1 0-.3.1-.4.1-.1 0-.2-.1-.1-.1s.2 0 .4-.1c.1-.1.2-.1.3-.2 0-.1-.1-.2-.2-.2h-.1l-.7.4c.1 0 0 0 0 0z"/></g><g><path fill="#FFC687" d="M2174 1337.4s-12.2 1.1-16.2-4.4-.8-15.5 4.9-19.9c5.5-3.6 11.9-1.8 12.4-.3 1.7-2.2 5-4.5 7.5-.3s2.7 10 .9 13.6c-1.9 3.7-9.5 11.3-9.5 11.3z"/></g><g opacity=".2"><path d="M1445.3 1286.1h1.7c1.1 0 2 .2 2.1-1.2.1-.6.1-2-.8-2h-1.4c.9-3.7-.1-7.6-3.3-9.8-3.1-2.1-7.7-2.3-11.2-1.1-1.2.4-3.2 1-3.4 2.4-.2 1.4-.4 3.7 1.6 2.7 2.9-1.6 7.3-3.4 10.3-.9 1.4 1.2 2 3.2 1.5 4.9-.2.7-.5 1.7-1.3 1.7h-11.9c-1.5 0-3.2-.5-3.2 1.6 0 1.1.3 1.6 1.4 1.6h9.3c-1.7.8-3.4 1.6-5 2.6-.7.5-1.4 1-2.1 1.6-.3.1-.7 0-1 0-.8 0-2.1-.3-2.4.7-.4 1.2-.1 2.7 1.3 2.5-1.2 3.6-.1 8 2.9 10.5 3.1 2.6 7.7 3.2 11.5 2.4 1.7-.3 3.5-.9 4.9-1.8 1.4-.9 1.5-2.5 1.2-4-.3-1.6-2.8.4-3.6.8-1.8.8-3.6 1.4-5.5 1.5-3.8.1-7.5-1.9-7.2-6.2.1-.6.7-3 1.5-3h13.9c1 0 1.8.2 2-1.2.2-2.1-.7-2-2.3-2h-8.3c.3-.2.5-.3.8-.5 1.1-.4 5.7-3.8 6-3.8z"/></g><use xlink:href="#d" width="84.3" height="89.7" x="-42.1" y="-44.9" transform="matrix(6.6688 0 0 -6.6688 2048.043 406.031)" overflow="visible"/><g><path fill="none" stroke="#DEECE3" stroke-width="15.223" stroke-linecap="round" stroke-miterlimit="10" d="M2148.5 494.8s42.3 64.8 133.3 30.2"/><path fill="#FFC687" d="M2286.7 531.5s12.4 1.1 16.4-4.4c4-5.5.8-15.7-5-20.1-5.6-3.7-12.1-1.8-12.5-.3-1.7-2.2-5-4.6-7.5-.3s-2.7 10.2-.9 13.8c1.8 3.6 9.5 11.3 9.5 11.3z"/><path fill="#E6F5EB" d="M2121.9 582.7s-1.1-66.5 22-91.1c23.2-24.6 67.3 5.4 67.3 5.4s-4.4 27.1-2.4 35.3c2 8.2 7.4 45.9-1.1 53.4s-59.4 12.4-65.6 10.4c-5.9-1.9-20.2-13.4-20.2-13.4z"/><path fill="#FFC687" d="M2239 425.2s.1-28.3-19.6-46.7c-19.7-18.4-69 2.9-69 2.9l-17.8 3.5 3.5 43.1h-.3c-7.2.3-12.6 9.4-12.2 20.4.5 11 6.7 19.6 13.8 19.3.6 0 1.2-.1 1.8-.3l2.4 28.8 64 15.6 3.7-9.3c.1 0 35.7-31.5 29.7-77.3z"/><ellipse transform="rotate(-2.39 2137.473 448.122) scale(.99997)" fill="#FFAF73" cx="2137.6" cy="448" rx="8.7" ry="11.2"/><path fill="#2F3F54" d="M2198.9 691.2c18.5-28.5 19.8-64.5 4.1-94.1 6.1-3.4 9.7-7.7 9.7-12.4 0-1.6-.5-3.2-1.3-4.8-10.2 2.9-26.4 4.8-44.7 4.8-18.3 0-34.6-1.9-44.7-4.8-.8 1.5-1.3 3.1-1.3 4.8 0 5.7 5.3 10.8 13.9 14.5 18.2 27.2 17.8 62.7-1.3 89.6-1.9.4-13.7 3.8-5 18.2 10.3 7.8 31.7 4.8 35.8 2.6 4-2.1 2-18-16.9-16.1 17.5-27.1 19.6-60.8 6.4-89.4 4.2.6 8.6.9 13.2.9 8.4 0 16.3-1 23.1-2.7 14.8 26.4 13.2 59.1-4.7 84.2-2.2.7-15.4 5.9-5 18.2 7.1 6.4 31.7 4.8 35.8 2.6 3.9-2.2 1.8-18-17.1-16.1z"/><path fill="#FBAE17" d="M2184.5 586c.1 2.5-1.9 4.5-4.4 4.6l-11.9.3c-2.5.1-4.5-1.9-4.6-4.4-.1-2.5 1.9-4.5 4.4-4.6l11.9-.3c2.5 0 4.6 1.9 4.6 4.4z"/><g fill="#333"><ellipse transform="scale(-1) rotate(83.898 474.29 -2433.119)" cx="2186.8" cy="426.3" rx="8.1" ry="3.8"/><ellipse transform="rotate(-6.12 2218.233 420.227)" cx="2219" cy="420.1" rx="3.6" ry="7.8"/></g><g fill="#FFF"><ellipse cx="2186.1" cy="421.8" rx="1.4" ry="1.8"/><ellipse cx="2218.3" cy="415.8" rx="1.4" ry="1.7"/></g><path fill="none" stroke="#FFAF73" stroke-width=".993" stroke-miterlimit="10" d="M2208.7 438.3s14.9 5.5 14 12.6c0 5.1-7.3 2.6-7.3 2.6"/><path fill="#F57B71" d="M2204.1 478.9c8.1 1.8 15.8-2.3 17.3-9.1l-29.2-6.3c-1.6 6.8 3.8 13.7 11.9 15.4z"/><path fill="#FFF" d="M2204.8 470.9c5.8 1.4 11.5 1.4 16.2.1l.3-1.2-29.2-6.3c-.1.3-.1.6-.1.9 3.1 2.8 7.5 5.2 12.8 6.5z"/><path fill-rule="evenodd" clip-rule="evenodd" fill="#FFF" d="M2138.9 491.8s59.8 11.1 74.6 10.5c-4.9 10.2-5.7 16.8-4.8 20.5 0 0-61.3-23.2-69.5-23.9l-.3-7.1z"/><path fill="#2F3F54" d="M2207.3 512.8c-3.4 4.9-9.2 5.2-12.9.5-3.8-4.6-1-8.6 6.1-8.9 7.1-.3 10.2 3.5 6.8 8.4z"/><path fill="#2F3F54" d="M2197.5 535.8c-.7-19 5.5-20.5 13.9-3.5s8.9 32.4 1.3 34.3c-7.7 1.9-14.5-11.9-15.2-30.8z"/><path fill="#534741" d="M2148.1 396.4c.4 7-1.2 39.4-11.3 40.4-16.3 1.6-19.9-42.1-16.5-51 4-10.2 37.7-17.6 48.2-21.9 11.4-4.6 49.7-17.3 61.1-14.2 34.3 9.3-9.3 52.7-33.3 46.6-1.2-4.3-.3-7.9 2.6-10.7-14.2 10.8-33.3 12.3-50.8 10.8z"/><radialGradient id="e" cx="2289.79" cy="484.869" r="95.202" gradientUnits="userSpaceOnUse"><stop offset="0" stop-color="#FFF"/><stop offset="1" stop-color="#FFF" stop-opacity="0"/></radialGradient><circle opacity=".8" fill="url(#e)" cx="2289.8" cy="484.9" r="95.2"/><path fill="#AA843F" d="M2342.1 480.1l22.6 15.6V537l-22.6-13.3"/><path fill="#784C28" d="M2237.5 480.1h104.6v66.2h-104.6z"/><use xlink:href="#f" width="53.9" height="31.3" x="-26.9" y="-15.6" transform="scale(1 -1) rotate(-57.704 663.29 -2331.003)" overflow="visible"/><use xlink:href="#f" width="53.9" height="31.3" x="-26.9" y="-15.6" transform="scale(1 -1) rotate(38.377 1825.371 2998.476)" overflow="visible"/><use xlink:href="#f" width="53.9" height="31.3" x="-26.9" y="-15.6" transform="scale(-1 1) rotate(71.753 -1494.498 -1342.624)" overflow="visible"/><use xlink:href="#f" width="53.9" height="31.3" x="-26.9" y="-15.6" transform="scale(-1 1) rotate(46.13 -1750.209 -2476.069)" overflow="visible"/><use xlink:href="#f" width="53.9" height="31.3" x="-26.9" y="-15.6" transform="scale(1 -1) rotate(-29.4 195.773 -4616.069)" overflow="visible"/><use xlink:href="#f" width="53.9" height="31.3" x="-26.9" y="-15.6" transform="scale(-1 1) rotate(82.12 -1422.318 -1039.645)" overflow="visible"/><use xlink:href="#f" width="53.9" height="31.3" x="-26.9" y="-15.6" transform="scale(1 -1) rotate(-44.259 490.835 -3020.534)" overflow="visible"/><use xlink:href="#f" width="53.9" height="31.3" x="-26.9" y="-15.6" transform="scale(-1 1) rotate(61.374 -1590.67 -1666.94)" overflow="visible"/><use xlink:href="#f" width="53.9" height="31.3" x="-26.9" y="-15.6" transform="matrix(0 1 1 0 2326.2 524.828)" overflow="visible"/><path fill="#945F30" d="M2342.1 523.7h-104.6v61.7c0 2.5 2 4.5 4.5 4.5h95.7c2.5 0 4.5-2 4.5-4.5v-61.7z"/><path fill="#784C28" d="M2302 539.7h-24.4c-2.1 0-3.7-1.7-3.7-3.7 0-2.1 1.7-3.7 3.7-3.7h24.4c2.1 0 3.7 1.7 3.7 3.7 0 2.1-1.7 3.7-3.7 3.7z"/><path opacity=".05" d="M2289.8 523.7v66.2h47.8c2.5 0 4.5-2 4.5-4.5v-61.7h-52.3z"/><path fill="none" stroke="#DEECE3" stroke-width="15.223" stroke-linecap="round" stroke-miterlimit="10" d="M2151.7 522.5s39.1 60.6 130.1 26"/><path fill="#FFC687" d="M2286.7 555s12.4 1.1 16.4-4.4c4-5.5.8-15.7-5-20.1-5.6-3.7-12.1-1.8-12.5-.3-1.7-2.2-5-4.6-7.5-.3s-2.7 10.2-.9 13.8c1.8 3.6 9.5 11.3 9.5 11.3z"/></g><g><path fill="#FFF" d="M861.5 326.4c1.2-2.3 1.6-5 1.4-7.6l-.2-1.8-1.8-.2c-5.1-.7-10.6 1.4-12.4 6.6-.2-.5-.5-1.1-.8-1.6l-1.3-2.7c1.3-1 2.3-2.3 2.9-3.2l-1.2-3.9c-1.1-.8-3-1.8-5.3-1.9.2-.5.4-.9.6-1.4 2.2-2.2 3.6-5.2 2.7-8.3-.6-2-2-3.9-3.6-5.3l-3.8.8c-1.9 1.9-3.3 4.5-3 7.2l-2.8-2.2c4.7-2.2 6.8-8.1 4.5-12.8-2.3-4.5-7.8-6.5-12.4-4.3-4.4 2.1-6.6 7.4-4.9 11.9 1.9 5 7.7 7.4 12.6 5.2v3.8c-1 1-2.4 2.8-2.6 5.1-.2-.2-.3-.4-.4-.4l-1.3-1.3-1.6 1c-2.8 1.8-4.8 5-3.8 8.4-.5-.7-1.2-1.2-2.1-1.2h-.3c1.6-2.6 1.3-6 .1-8.8l-.7-1.5c1.9-3.4.8-7.6.7-8.1l-2.3-1.7c-.1 0-.6 0-1.2.1 2.3-4.6.3-10-3-13.5l-1.3-1.4-1.6.9c-2.3 1.3-4.3 3.3-5.6 5.6-2.5 4.3-1.1 9.1 1.6 12.9-.1.6-.1 1.3-.2 1.9-2-1.4-4.7-1.9-7.1-1.7l-1.8.2-.2 1.8c-.5 3.5.6 7.6 3.8 9.5l-.6 1.6c-.1.3-.9 2.8-.4 5.3-1.3-4.1-5.4-5.8-9.4-4.7l-2.6.7c-2.4-2.3-6.1-2.6-9.2-1.8l-1.8.5.1 1.8c.1 1.9.6 3.8 1.6 5.4 1.8 3 5.2 4.1 8.6 3.7-.4.5-.7 1-.9 1.5l-1.8 1.6c-2.2-2.6-6-3.5-9.3-3.3l-2.2 3.2c-.1 2.7.4 5.7 2.3 7.8 2 2.3 5.1 3.2 8 3.3 1.2.7 2.4 1.4 3.6 1.9-1.4 1.3-2.4 3.1-2.9 4.9l-.5 1.8 2.8 1.4c2.6 1 5.7 1.3 8.1-.3 1.7-1.2 2.9-3 3.6-5h.3c-1.3 2.3-1.5 4.7-1.5 4.8l2.8 2.5c.7.2 1.7.3 2.8.3 1.3 0 2.7-.3 3.9-.9v.1l-.3 1.8 1.7.7c1.3.5 2.7.8 4.1.8 3.3 0 5.9-1.9 7.2-4.9 1.2 1.4 1.7 9.6 1.6 11.8-.1 4.2-2.6 15.5-2.6 15.5h9.9s1.6-10.1 1.5-14.2c0-2.2-1.3-11.3-.7-13.4 2.7 3.7 7.4 4 11.2 1.8l4.2-2.4-2.7-1.1c2.4-.2 4.4-1.2 5.2-1.6l1.8-1.2s-.7-2-.8-2.1c.5.1 6.4-1.1 8.2-2.7l.8-3.9c-.6-.7-2.8-3.3-5.9-4 2.5.1 8-1.4 9.9-5.1z"/><circle fill="#E8980F" cx="828.9" cy="292.4" r="7.1"/><circle fill="#FCC344" cx="828.9" cy="292.4" r="6.9"/><path fill="#E8980F" d="M828.9 286.4c-3.3 0-5.9 2.6-5.9 5.9 0 3.3 2.6 5.9 5.9 5.9 3.3 0 5.9-2.6 5.9-5.9 0-3.2-2.6-5.9-5.9-5.9zm0 11.3c-3 0-5.3-2.4-5.3-5.3 0-3 2.4-5.3 5.3-5.3 3 0 5.3 2.4 5.3 5.3.1 2.9-2.3 5.3-5.3 5.3z"/><path opacity=".76" fill="#FFEB79" d="M831 293.2h-3c0 .1-.1.1-.2.2-.2.4-.1 1 .2 1.3.4.3 1 .4 1.5.2.2 0 .5-.2.7-.3.1 0 .4-.3.5-.2.3 0 .2.6 0 .8-.5.6-2 .6-2.7.4-1-.4-1.6-1.4-1.2-2.4h-.1c-.2 0-.2-.6 0-.6h.5c.3-.3.7-.5 1-.6.1 0 .2-.1.4-.2h-1.9c-.2 0-.2-.6 0-.6h2.9s0-.1.1-.1c.7-1-.7-1.6-1.5-1.3-.2 0-.7.4-.9.4-.2-.1-.2-.6 0-.8.4-.5 1.7-.5 2.2-.3.9.3 1.4 1.2 1.2 2.2h.3c.2 0 .2.6 0 .6h-.6l-.1.1c-.3.3-.7.5-1 .7 0 0-.1 0-.2.1h1.9c.2-.2.2.4 0 .4z"/><use xlink:href="#d" width="84.3" height="89.7" x="-42.1" y="-44.9" transform="matrix(1 0 0 -1 818.558 329.24)" overflow="visible"/></g></svg>