<svg xmlns="http://www.w3.org/2000/svg" xmlns:xlink="http://www.w3.org/1999/xlink" width="2730.667" height="1536" viewBox="0 0 2730.667 1536"><symbol id="b" viewBox="-26.927 -15.643 53.854 31.286"><path fill="#D9E5B7" d="M26.705-15.097C8.85-11.98-9.07-17.81-26.927-14.695c.076 9.927.148 19.86.223 29.79 17.854-3.11 35.775 2.712 53.63-.4l-.22-29.792z"/><path fill="#09632D" d="M-26.703 15.094c-.076-9.93-.147-19.862-.223-29.79 17.857-3.114 35.778 2.715 53.632-.4.075 9.93.147 19.863.222 29.792-17.856 3.11-35.777-2.71-53.63.398zM24.977-6.52c-3.252-.24-5.823-2.708-6.546-5.92-12.343.538-24.71-1.87-37.054-1.335-.673 3.28-3.21 5.93-6.45 7.087.03 4.404.065 8.798.1 13.2 3.25.24 5.826 2.71 6.55 5.92 12.34-.535 24.705 1.876 37.045 1.34.675-3.282 3.214-5.936 6.454-7.093l-.097-13.2z"/><path fill="#09632D" d="M17.414-11.055c-11.662.356-23.34-1.764-35.002-1.413l-.105.297c-.977 2.71-3.07 4.89-5.74 6.194l-.29.144c.03 3.71.055 7.43.085 11.144.1.022.195.05.292.075 2.685.69 4.813 2.732 5.83 5.377.034.096.074.194.11.29 11.657-.356 23.334 1.768 34.99 1.414.035-.1.072-.2.108-.295.976-2.717 3.07-4.9 5.742-6.202.096-.043.194-.093.292-.14l-.084-11.145c-.098-.024-.195-.052-.292-.075-2.684-.69-4.807-2.726-5.824-5.37-.04-.1-.077-.197-.112-.295zm-34.377-.534c11.25-.258 22.515 1.71 33.765 1.452 1.112 2.656 3.255 4.73 5.95 5.538l.07 9.91c-2.676 1.37-4.79 3.56-5.86 6.276C5.71 11.85-5.552 9.88-16.796 10.14c-1.112-2.66-3.258-4.735-5.953-5.548l-.075-9.91c2.678-1.368 4.79-3.554 5.86-6.27z"/><path d="M-7.732 3.61a139.883 139.883 0 0 0-5.488-.204c-.106-.725-.215-1.45-.32-2.18.302.05.565.05.912.06 1.352.024 2.722-.225 3.717-.893 1.06-.668 1.705-1.805 1.694-3.46-.02-2.622-2.303-5.126-6.113-5.194-1.72-.027-3.152.388-3.934.825.203.82.404 1.644.605 2.464.632-.317 1.913-.72 3.2-.705 1.37.017 2.834.727 2.844 2.23.012 1.464-1.136 2.286-3.967 2.267a13.55 13.55 0 0 1-1.917-.115c.33 2.467.66 4.942.992 7.414 2.6-.025 5.196.067 7.796.21l-.02-2.72zM5.326.24C5.293-4.135 3.506-7.255-.11-7.53c-3.66-.283-5.25 2.905-5.237 6.91.03 4.092 1.797 7.445 5.456 7.73C3.897 7.4 5.354 4.116 5.325.24zm-7.34-.623c-.048-3.245.726-4.735 2.01-4.637 1.287.097 1.996 1.76 2.018 4.982C2.037 3.1 1.374 4.704.046 4.6c-1.22-.092-2.06-1.697-2.06-4.983zM17.41.566c-.032-4.388-1.818-7.292-5.434-7.378C8.318-6.922 6.73-3.772 6.74.244c.03 4.083 1.797 7.468 5.454 7.573 3.79.083 5.247-3.392 5.215-7.25zM10.07.412c-.045-3.242.727-4.753 2.012-4.722 1.282.034 1.992 1.645 2.016 4.865.022 3.137-.64 4.79-1.967 4.758-1.218-.03-2.056-1.616-2.06-4.9z" fill="#09632D"/></symbol><symbol id="c" viewBox="-45.646 -28.811 91.291 57.621"><path fill="#285421" d="M-40.404 28.81l-5.242-47.86 85.912-9.76 5.38 47.84-86.05 9.78z"/><path fill="#2E5F25" d="M-42.138 26.21l-2.22-48.096L42-26.216l2.356 48.09-86.494 4.337z"/><path fill="#D9E5B7" d="M44.8-20.957l-86.262-6-3.336 47.92 86.26 6z"/><path fill="#346C2A" d="M-44.938 21.063l3.476-48.02 86.262 5.89-3.336 48.03-86.402-5.9zm85.923-28.88a13.712 13.712 0 0 1-9.73-11.186l-59.577-4.145a13.705 13.705 0 0 1-11.186 9.732l-1.478 21.233a13.71 13.71 0 0 1 9.738 11.19l59.564 4.142a13.7 13.7 0 0 1 11.193-9.733l1.475-21.235z"/><path fill="#346C2A" d="M29.456-16.956L-26.82-20.87l-.208.458a15.837 15.837 0 0 1-9.954 8.656l-.48.142-1.246 17.925.458.208a15.855 15.855 0 0 1 8.663 9.963l.14.48 56.26 3.914.208-.458a15.86 15.86 0 0 1 9.964-8.664l.48-.144L38.71-6.32l-.456-.204a15.823 15.823 0 0 1-8.655-9.95l-.144-.482zM-25.93-19.36l54.29 3.778a17.292 17.292 0 0 0 8.84 10.16l-1.108 15.937a17.305 17.305 0 0 0-10.17 8.848l-54.274-3.775a17.272 17.272 0 0 0-8.845-10.17l1.108-15.94a17.26 17.26 0 0 0 10.16-8.837z"/><path fill="#D9E5B7" stroke="#346C2A" stroke-width=".373" stroke-miterlimit="10" d="M14.677 1.023C15.447-10.02 9.5-19.43 1.39-19.994c-8.105-.564-15.298 7.932-16.065 18.976-.768 11.043 5.178 20.452 13.285 21.016 8.104.562 15.3-7.932 16.067-18.975z"/><path fill="#346C2A" d="M1.243-17.83C-5.66-18.31-11.83-10.7-12.514-.87-13.2 8.965-8.144 17.355-1.24 17.834c6.9.483 13.072-7.13 13.754-16.96.686-9.836-4.37-18.228-11.27-18.705z"/><path fill="#D9E5B7" d="M8.05-2.743c-2.628-.183-9.946-.696-10.975-.765-.215-.017-.58-.832-.655-1.015-.256-.613-.28-1.293-.184-1.945C-3.54-8.01-2.504-9.16-1.03-9.63c3.01-.964 5.636.59 8.094 2.098 1.31.804 1.335-1.82 1.007-2.52-.48-1.025-2.156-1.613-3.142-1.958-2.793-.97-6.23-1.093-8.85.453C-6.453-10.07-7.76-7-7.176-4.125l.08.326c-.98-.176-1.2.6-1.16 1.455.047.952 2.07.935 2.363.956.34.022.895.794 1.182 1.022C-3.53.574-2.16 1.264-.85 2c-1.187-.082-6.79-.584-7.114-.496-.844-.057-.98 2.276-.156 2.332.324.024 8.58.6 10.045.7.34.026.572-.054.755.248.722 1.18.652 2.82-.212 3.918-1.875 2.37-5.583 1.11-7.658-.226-.3-.19-.97-.848-1.365-.563-.406.287-.375 1.223-.39 1.64-.042 1.294.883 1.764 1.97 2.25 2.518 1.12 5.673 1.347 8.19.093C5.81 10.603 6.98 7.636 6.43 4.85c.98.067 1.657.216 1.745-1.034.077-1.144-.425-1.22-1.37-1.285-.703-.048-1.22.028-1.725-.39C3.936.8 2.377-.106.834-.92c1.524.108 6.096.425 6.86.475 1.06.078 1.228-2.237.357-2.296z"/><path fill="#346C2A" d="M-25.835-7.995a6.192 6.192 0 0 0-6.6 5.74 6.194 6.194 0 0 0 5.74 6.6 6.193 6.193 0 0 0 6.602-5.74 6.196 6.196 0 0 0-5.742-6.6zm-.81 11.62a5.472 5.472 0 0 1-5.07-5.83 5.469 5.469 0 0 1 5.83-5.068 5.469 5.469 0 0 1 5.07 5.828 5.468 5.468 0 0 1-5.83 5.07z"/><g fill="#346C2A"><path d="M-28.11-.22c-2.307 2.962-3.255 1.875 0 0zm3.452.24c2.96 2.305 1.873 3.253 0 0z"/><path d="M-24.658.02c-.37-.287-.8-.594-1.295-.914-.203.557-.36 1.06-.484 1.508-.053-.46-.14-.98-.266-1.56-.535.25-1.004.496-1.407.727.286-.364.593-.794.915-1.29a17.557 17.557 0 0 0-1.508-.482c.46-.06.982-.145 1.562-.27a17.984 17.984 0 0 0-.73-1.404c.368.285.798.59 1.294.91.2-.557.36-1.058.482-1.507.055.462.145.982.267 1.56a16.59 16.59 0 0 0 1.403-.724 18.97 18.97 0 0 0-.91 1.29c.557.204 1.06.36 1.51.48-.463.06-.984.147-1.564.27.252.537.495 1.002.73 1.407zm-3.212-3.688c-2.963-2.31-1.878-3.254 0 0zm3.447.238c2.31-2.963 3.258-1.877 0 0zm-1.67-.834c-.465-3.726.972-3.627 0 0z"/><path d="M-26.437.613c.464 3.727-.973 3.63 0 0zm2.613-2.269c3.725-.464 3.623.974 0 0zm-4.881-.338c-3.724.46-3.628-.974 0 0z"/></g><path fill="#346C2A" d="M26.403-4.36c-3.404-.237-6.36 2.34-6.6 5.74a6.193 6.193 0 0 0 5.74 6.6 6.19 6.19 0 0 0 6.6-5.742c.238-3.404-2.34-6.36-5.74-6.6zm-.807 11.62a5.47 5.47 0 0 1-5.072-5.83 5.47 5.47 0 0 1 5.832-5.07 5.463 5.463 0 0 1-.759 10.9z"/><g fill="#346C2A"><path d="M24.13 3.412c-2.31 2.963-3.255 1.877 0 0zm3.45.24c2.962 2.308 1.876 3.255 0 0zm0 0a18.507 18.507 0 0 0-1.292-.913c-.204.555-.36 1.06-.485 1.507-.054-.462-.144-.98-.267-1.56a18.41 18.41 0 0 0-1.404.725c.284-.365.59-.793.912-1.29a18.114 18.114 0 0 0-1.51-.483 18.46 18.46 0 0 0 1.563-.27 16.569 16.569 0 0 0-.73-1.405c.37.285.797.59 1.293.912.202-.556.362-1.06.482-1.508.058.462.146.98.27 1.56.534-.25 1.005-.494 1.402-.725-.283.365-.587.794-.91 1.29.554.204 1.06.36 1.51.483-.464.057-.984.144-1.564.268.25.537.497 1.004.73 1.406z"/><path d="M24.368-.035c-2.963-2.31-1.875-3.256 0 0zm3.447.24c2.31-2.964 3.258-1.877 0 0zM26.143-.63c-.462-3.727.973-3.627 0 0zm-.341 4.877c.466 3.727-.97 3.628 0 0zm2.613-2.267c3.726-.464 3.627.97 0 0zm-4.879-.34c-3.728.463-3.627-.974 0 0z"/></g></symbol><path fill="none" stroke="#DEECE3" stroke-width="15.223" stroke-linecap="round" stroke-miterlimit="10" d="M1996.382 492.843s42.298 64.808 133.297 30.17"/><path fill="#FFC687" d="M2134.545 529.537s12.375 1.117 16.422-4.426c4.043-5.544.763-15.695-5.005-20.114-5.56-3.657-12.095-1.824-12.53-.334-1.688-2.232-5.04-4.56-7.55-.304-2.507 4.254-2.747 10.16-.868 13.82 1.884 3.66 9.53 11.36 9.53 11.36z"/><path fill="#E6F5EB" d="M1969.813 580.7s-1.13-66.506 22.046-91.122c23.174-24.62 67.333 5.44 67.333 5.44s-4.37 27.134-2.38 35.302c1.992 8.17 7.417 45.894-1.074 53.398-8.487 7.503-59.44 12.38-65.57 10.433-6.128-1.943-20.357-13.45-20.357-13.45z"/><path fill="#FFC687" d="M2086.883 423.155s.11-28.263-19.58-46.67c-19.69-18.407-69.05 2.882-69.05 2.882l-17.838 3.535 3.537 43.092c-.09 0-.178-.013-.268-.01-7.186.3-12.64 9.447-12.182 20.434.46 10.986 6.653 19.648 13.842 19.348a8.75 8.75 0 0 0 1.848-.303l2.36 28.77 64.02 15.563 3.72-9.273c0-.002 35.608-31.573 29.59-77.368z"/><ellipse transform="rotate(-2.39 1983.343 445.61)" fill="#FFAF73" cx="1985.437" cy="446.032" rx="8.651" ry="11.228"/><ellipse opacity=".1" cx="2068.374" cy="706.127" rx="138.388" ry="24.556"/><path fill="#2F3F54" d="M2046.792 689.2c18.46-28.537 19.82-64.466 4.08-94.095 6.055-3.432 9.668-7.74 9.668-12.42 0-1.647-.495-3.24-1.337-4.77-10.155 2.894-26.408 4.77-44.73 4.77-18.326 0-34.578-1.878-44.73-4.77-.843 1.53-1.338 3.122-1.338 4.77 0 5.686 5.325 10.822 13.89 14.505 18.212 27.234 17.77 62.74-1.308 89.583-1.932.437-13.74 3.76-5.02 18.215 10.264 7.778 31.736 4.81 35.824 2.643 4.027-2.128 1.978-18.006-16.937-16.068 17.508-27.06 19.648-60.77 6.4-89.45 4.188.55 8.622.852 13.217.852 8.41 0 16.285-.997 23.07-2.73 14.77 26.42 13.214 59.12-4.65 84.22-2.17.743-15.385 5.894-4.987 18.172 7.102 6.44 31.736 4.81 35.823 2.645 4.03-2.132 1.977-18.01-16.934-16.07z"/><path fill="#FBAE17" d="M2032.41 583.988a4.482 4.482 0 0 1-4.363 4.596l-11.9.303a4.482 4.482 0 0 1-.229-8.961l11.898-.303a4.48 4.48 0 0 1 4.593 4.365z"/><g fill="#333"><ellipse transform="rotate(-96.102 2034.733 424.285)" cx="2034.69" cy="424.251" rx="8.123" ry="3.754"/><ellipse transform="rotate(-6.12 2066.158 418.207)" cx="2066.89" cy="418.063" rx="3.596" ry="7.777"/></g><g fill="#FFF"><ellipse cx="2033.993" cy="419.83" rx="1.446" ry="1.768"/><ellipse cx="2066.222" cy="413.829" rx="1.384" ry="1.691"/></g><path fill="none" stroke="#FFAF73" stroke-width=".993" stroke-miterlimit="10" d="M2056.567 436.297s14.868 5.525 13.993 12.582c0 5.062-7.34 2.638-7.34 2.638"/><path fill="#F57B71" d="M2051.933 476.943c8.07 1.75 15.8-2.327 17.27-9.11l-29.21-6.342c-1.47 6.783 3.874 13.702 11.94 15.453z"/><path fill="#FFF" d="M2052.68 468.923c5.77 1.433 11.493 1.35 16.197.073.13-.38.24-.766.327-1.164l-29.21-6.34c-.064.286-.096.576-.133.863 3.084 2.875 7.517 5.25 12.82 6.568z"/><path fill-rule="evenodd" clip-rule="evenodd" fill="#FFF" d="M1986.79 489.823s59.77 11.126 74.57 10.51c-4.872 10.165-5.658 16.845-4.8 20.46 0 0-61.33-23.175-69.48-23.92l-.29-7.05z"/><path fill="#2F3F54" d="M2055.194 510.775c-3.377 4.918-9.168 5.16-12.94.54-3.772-4.622-1.038-8.61 6.112-8.905 7.144-.3 10.205 3.445 6.828 8.365z"/><path fill="#2F3F54" d="M2045.4 533.783c-.697-18.95 5.524-20.514 13.887-3.488 8.354 17.018 8.916 32.377 1.25 34.31-7.668 1.93-14.443-11.868-15.136-30.822z"/><path fill="#534741" d="M1995.984 394.424c.413 7.01-1.227 39.413-11.317 40.392-16.35 1.582-19.943-42.098-16.473-51.043 3.96-10.208 37.667-17.6 48.156-21.88 11.38-4.64 49.703-17.273 61.13-14.183 34.348 9.293-9.32 52.73-33.263 46.59-1.192-4.27-.318-7.85 2.625-10.737-14.248 10.817-33.378 12.357-50.858 10.86z"/><radialGradient id="a" cx="2137.666" cy="482.869" r="95.202" gradientUnits="userSpaceOnUse"><stop offset="0" stop-color="#FFF"/><stop offset="1" stop-color="#FFF" stop-opacity="0"/></radialGradient><circle opacity=".8" fill="url(#a)" cx="2137.666" cy="482.869" r="95.202"/><path fill="#AA843F" d="M2189.97 478.076l22.588 15.59v41.348l-22.588-13.332"/><path fill="#784C28" d="M2085.358 478.076h104.612v66.2h-104.612z"/><use xlink:href="#b" width="53.854" height="31.286" x="-26.927" y="-15.643" transform="rotate(57.704 589.044 2191.943)" overflow="visible"/><use xlink:href="#b" width="53.854" height="31.286" x="-26.927" y="-15.643" transform="rotate(-38.377 1746.43 -2780.903)" overflow="visible"/><use xlink:href="#b" width="53.854" height="31.286" x="-26.927" y="-15.643" transform="rotate(108.247 895.727 1024.898)" overflow="visible"/><use xlink:href="#b" width="53.854" height="31.286" x="-26.927" y="-15.643" transform="rotate(133.87 978.72 711.882)" overflow="visible"/><use xlink:href="#b" width="53.854" height="31.286" x="-26.927" y="-15.643" transform="rotate(29.4 123.522 4325.135)" overflow="visible"/><use xlink:href="#b" width="53.854" height="31.286" x="-26.927" y="-15.643" transform="rotate(97.88 830.48 1171.768)" overflow="visible"/><use xlink:href="#b" width="53.854" height="31.286" x="-26.927" y="-15.643" transform="rotate(44.26 417.232 2832.49)" overflow="visible"/><use xlink:href="#b" width="53.854" height="31.286" x="-26.927" y="-15.643" transform="rotate(118.626 913.788 897.854)" overflow="visible"/><use xlink:href="#b" width="53.854" height="31.286" x="-26.927" y="-15.643" transform="matrix(0 1 1 0 2174.075 522.828)" overflow="visible"/><path fill="#945F30" d="M2189.97 521.682h-104.612v61.74a4.46 4.46 0 0 0 4.46 4.46h95.69a4.464 4.464 0 0 0 4.462-4.46v-61.74z"/><path fill="#784C28" d="M2149.863 537.725h-24.4a3.727 3.727 0 0 1-3.726-3.73 3.727 3.727 0 0 1 3.726-3.728h24.4a3.73 3.73 0 0 1 0 7.458z"/><path opacity=".05" d="M2137.663 521.682v66.2h47.846c2.46 0 4.46-1.997 4.46-4.46v-61.74h-52.307z"/><g><path fill="none" stroke="#DEECE3" stroke-width="15.223" stroke-linecap="round" stroke-miterlimit="10" d="M1999.578 520.536s39.103 60.6 130.102 25.96"/></g><g><path fill="#FFC687" d="M2134.545 553.02s12.375 1.118 16.422-4.425c4.043-5.545.763-15.696-5.005-20.117-5.56-3.656-12.095-1.822-12.53-.334-1.688-2.23-5.04-4.56-7.55-.303-2.507 4.256-2.747 10.163-.868 13.82 1.884 3.66 9.53 11.36 9.53 11.36z"/></g><g><path fill="#FFF" d="M817.914 364.03l-42.868 2.927-.377-5.192-2.786-.14.13-2.81-1.547-.174 2.396-21.862-1.615-22.3 2.822-.19.24-5.225 1.578.08.308-2.807 42.907 4.876 43.012-2.937.363 5.21 2.797.14-.14 2.818 1.556.178-2.466 21.954 1.536 22.073h-.006v.007l-2.798.3-.256 5.224-1.57-.08-.316 2.806"/><use xlink:href="#c" width="91.291" height="57.621" x="-45.646" y="-28.811" transform="matrix(1 0 0 -1 818.577 337.62)" overflow="visible"/></g><g><path fill="#FFF" d="M2199.068 1312.923l-10.874 11.355-2.053-.88-.83.677-1.016-.56-.498.357-7.53-4.708-8.816-3.778.716-.748-1.893-1.04.47-.384-.966-.604 13.812-9.9 10.91-11.395 2.055.886.834-.678 1.018.564.5-.358 7.546 4.742 8.708 3.756-.002.002h.003l-.67.763 1.89 1.046-.47.38.964.607"/><path fill="#285421" d="M2167.257 1312.576l16.488 10.305 27.654-19.824-16.443-10.336-27.7 19.856z"/><path fill="#2E5F25" d="M2167.748 1313.5l17.42 9.59 25.742-20.958-17.38-9.62-25.782 20.99z"/><path fill="#D9E5B7" d="M2209.72 1300.438l-21.84 22.872-18.906-8.153 21.84-22.872"/><path fill="#346C2A" d="M2168.897 1315.173l18.982 8.137 21.88-22.85-18.945-8.175-21.918 22.888zm34.83-16.24c-.88 1.577-.297 3.367 1.478 4.553l-15.084 15.797c-2.342-.59-5.008-.2-6.773.993l-8.376-3.613c.88-1.577.3-3.368-1.476-4.555l15.08-15.793c2.346.59 5.012.2 6.778-.995l8.374 3.614z"/><path fill="#346C2A" d="M2203.933 1303.556l-14.25 14.92-.23-.033c-2.105-.308-4.3.015-6.026.885l-.187.094-7.072-3.05.05-.154c.46-1.417-.022-2.894-1.317-4.054l-.14-.125 14.244-14.918.23.034c2.108.308 4.306-.014 6.032-.885l.188-.093 7.073 3.05-.05.154c-.46 1.417.02 2.892 1.314 4.05l.143.126zm-14.566 14.413l13.745-14.396c-1.26-1.2-1.745-2.69-1.342-4.135l-6.288-2.713c-1.788.848-4.007 1.174-6.16.903l-13.74 14.39c1.263 1.202 1.748 2.694 1.343 4.14l6.288 2.713c1.787-.85 4.005-1.175 6.154-.904z"/><path fill="#D9E5B7" stroke="#346C2A" stroke-width=".373" stroke-miterlimit="10" d="M2193.062 1303.906c4.357 1.88 6.225 5.144 4.173 7.294-2.052 2.15-7.248 2.368-11.604.488s-6.224-5.144-4.17-7.294c2.05-2.148 7.246-2.367 11.602-.488z"/><path fill="#346C2A" d="M2196.382 1310.832c-1.748 1.83-6.325 1.957-10.204.284-3.88-1.673-5.615-4.522-3.866-6.353 1.746-1.83 6.325-1.957 10.203-.284 3.88 1.673 5.615 4.523 3.867 6.352z"/><path fill="#D9E5B7" d="M2192.625 1306.283c-.666.697-2.517 2.638-2.78 2.91-.052.058.15.303.2.357.157.18.406.313.677.41.64.234 1.36.19 1.95-.094 1.2-.578 1.352-1.53 1.472-2.434.064-.48 1.055.005 1.227.22.25.313.003.846-.142 1.16-.416.885-1.33 1.775-2.642 2.145-1.264.358-2.78.11-3.696-.575-.033-.028-.067-.054-.1-.08-.207.28-.56.19-.87.018-.343-.19.23-.697.302-.775.087-.09-.047-.375-.053-.49-.025-.474.1-.95.19-1.418-.302.315-1.678 1.822-1.802 1.887-.214.223-1.128-.18-.918-.398.082-.086 2.17-2.276 2.543-2.664.085-.09.18-.134.117-.237-.24-.404-.876-.694-1.53-.682-1.412.028-1.975 1.2-2.053 1.973-.012.112.047.404-.17.45-.22.048-.563-.135-.724-.21-.497-.232-.415-.553-.293-.918.283-.845 1.08-1.683 2.253-2.083 1.21-.41 2.648-.15 3.54.513.248-.26.382-.46.875-.246.45.195.34.336.1.586-.178.187-.35.302-.336.508.184.54.09 1.104-.037 1.645l1.737-1.817c.27-.283 1.183.11.963.34z"/><path fill="#346C2A" d="M2185.13 1315.812c-.86.902-2.654 1.165-3.996.586-1.342-.58-1.732-1.784-.872-2.686.862-.902 2.654-1.165 3.996-.586 1.343.578 1.733 1.784.873 2.686zm-4.584-1.977c-.76.796-.415 1.86.77 2.372 1.186.51 2.77.28 3.53-.518.762-.797.416-1.86-.77-2.373-1.185-.512-2.768-.28-3.53.518z"/><g fill="#346C2A"><path d="M2181.58 1314.926c-1.756.025-1.613.468 0 0zm.873-.916c-.038-1.178-.697-1.083 0 0z"/><path d="M2182.453 1314.01c.005.147 0 .313-.02.498a13.816 13.816 0 0 1-.7-.16c.158.1.33.22.51.36-.242.087-.465.16-.665.217.217-.004.464 0 .74.012-.08.178-.16.335-.24.47.15-.104.33-.22.537-.342.13.163.237.313.323.447a3.67 3.67 0 0 1 .02-.497c.265.054.498.108.7.16a6.88 6.88 0 0 1-.51-.36c.242-.088.465-.16.663-.217-.215.003-.46 0-.737-.013.08-.178.16-.334.24-.47-.15.104-.33.22-.537.343a5.245 5.245 0 0 1-.323-.448zm.487 1.502c.04 1.18.695 1.084 0 0zm.872-.912c1.757-.027 1.615-.47 0 0zm-.152.576c1.267.817 1.63.436 0 0z"/><path d="M2181.734 1314.348c-1.268-.817-1.633-.436 0 0zm1.581-.233c1.214-.852.646-1.096 0 0zm-1.235 1.295c-1.215.85-.65 1.096 0 0z"/></g><path fill="#346C2A" d="M2198.357 1301.96c-.862.903-2.654 1.165-3.997.587-1.342-.58-1.733-1.783-.872-2.685.862-.904 2.655-1.166 3.997-.586 1.343.578 1.732 1.783.872 2.685zm-4.584-1.977c-.762.797-.416 1.86.77 2.373 1.185.51 2.77.28 3.53-.52.76-.795.415-1.86-.77-2.37-1.186-.512-2.77-.28-3.53.517z"/><g fill="#346C2A"><path d="M2194.807 1301.074c-1.757.027-1.614.47 0 0zm.873-.914c-.038-1.18-.697-1.084 0 0z"/><path d="M2195.68 1300.16c.004.147 0 .313-.02.497a13.57 13.57 0 0 1-.7-.16c.158.1.328.22.51.36-.243.088-.465.16-.664.217.217-.003.462 0 .74.012-.08.178-.16.335-.242.47.15-.105.33-.22.537-.343.133.164.24.313.325.448-.004-.146 0-.31.02-.496.264.053.497.107.7.16-.158-.1-.33-.22-.51-.36.242-.088.465-.16.663-.218-.216.003-.462 0-.738-.012.078-.178.16-.335.24-.47-.15.105-.328.22-.537.343a5.407 5.407 0 0 1-.323-.447zm.486 1.502c.038 1.18.697 1.084 0 0z"/><path d="M2197.038 1300.748c1.757-.026 1.614-.47 0 0zm-.153.578c1.27.816 1.632.436 0 0zm-1.925-.829c-1.267-.817-1.632-.436 0 0zm1.58-.233c1.215-.853.65-1.097 0 0zm-1.235 1.293c-1.214.853-.648 1.097 0 0z"/></g><path fill="#FFC687" d="M2174.05 1337.42s-12.216 1.105-16.21-4.367c-3.99-5.472-.753-15.49 4.94-19.854 5.488-3.61 11.938-1.8 12.368-.33 1.664-2.203 4.975-4.5 7.45-.3s2.712 10.03.856 13.64c-1.857 3.61-9.405 11.21-9.405 11.21z"/></g><g opacity=".2"><path d="M1442.293 1273.31c-.14-.398-.247-.843-.485-1.196-.215-.316-.508-.594-.76-.88-.322-.367-.708.087-.98.298-.33.26-.653.466-1.055.607-.4.14-.796.276-1.207.378-.437.104-.81.234-1.23.002-.257-.138-.8-.587-.956-.123l-.393 1.182c-.12.36-.06.657.06 1.007.095.268.23 1.113.66.98.36-.057.56-.242.915-.328 1.438-.35 1.863-.427 3.683-.004.194.046.533.13.726.182.2.052.343.147.472-.038.223-.318.432-.647.646-.973.237-.358.03-.742-.095-1.096zm11.933 18.744c-.957-10.03-9.804-16-15.807-16.065-6.005.065-14.85 6.034-15.808 16.064-.887 10.038 5.642 14.477 15.807 14.492 10.164-.016 16.694-4.454 15.806-14.492zm-11.392-2.416c-.42-.005-.64.17-.963.4-.738.758-1.908 1.252-2.86 1.676 0 0 4.643.002 4.413 0 .636-.005.555 1.18.03 1.175h-6.69c-.126 0-.29.685-.34.792-.18.36-.224.768-.192 1.164.07.934.642 1.67 1.502 2.016 1.758.704 3.393-.116 4.924-.92.815-.428.723 1.146.493 1.558-.332.595-1.354.88-1.958 1.046-1.708.465-3.77.393-5.27-.645-1.447-1-2.098-2.9-1.63-4.605.02-.067.28-.33.303-.394-.593.064-1.24-.08-1.178-.593.067-.568.794-.604 1.228-.604h.528c.203 0 .565-.442.75-.568.742-.515 1.977-1.108 2.79-1.496h-4.118c-.197 0-.397.062-.59 0-.506 0-.492-1.188 0-1.188h6.18c.202-.005.244.07.365-.1.48-.683.507-1.67.036-2.37-1.02-1.5-3.29-.9-4.583-.185-.188.104-.614.47-.838.28-.233-.19-.176-.75-.167-1.002.032-.78.6-1.023 1.273-1.267 1.55-.568 3.446-.573 4.897.283 1.49.89 2.07 2.722 1.622 4.377.59 0 1.22-.182 1.22.576 0 .69-.61.595-1.176.595z"/></g></svg>