<svg xmlns="http://www.w3.org/2000/svg" xmlns:xlink="http://www.w3.org/1999/xlink" width="2730" height="1536" viewBox="0 0 2730 1536"><symbol id="D" viewBox="-142.1 -332.3 284.2 664.6"><path fill="#FF931E" d="M142.1 332.3c-7.5-40.3-19-80.2-32.2-119-21-61.6-47.5-122.7-88.4-173.8C-7.9 2.7-43.3-28.4-81.2-56c-6.7-4.8-18.8-10.7-24.3-17.8-.4-.5-.7-1-1-1.5-.8-1.4-1.3-2.9-1.6-4.6-.8-5.4.7-11.9.7-17 0-13.3-.3-26.5-.8-39.8-1-25.4-2.1-51.9-8.7-76.5-1.6-6-13-99.7-16.1-109-1.6-4.9-4.2-10.1-9.1-10.1l.1 263.7v8.8l.2 392.1h283.9z"/><path d="M103.1 308.5c-6.6-67.3-37.5-133.9-72.6-190.6C-5.3 60.1-53.2 13.3-107.4-26.8-85-5.3-61.9 15.7-41.9 39.6c24.4 29.2 47 59.1 67.2 91.4 33.9 54.2 62.3 115.2 77.8 177.5zM44.5 316.3c-4.5-55.4-30-111.2-59.4-157.5-29.3-46.2-67.8-83.7-112-115.4C-86.2 83.5-49.4 124.9-19 173.6c27.4 43.8 50.2 92.7 63.5 142.7zM-13.9 307.3c-1.7-64.4-47.8-128.8-101.4-161.4 20.4 23.4 41.1 45.7 58 71.9 18 28 32.3 58.2 43.4 89.5z" opacity=".1"/><path fill="#FF9C73" d="M-105.5-75.5l-.9-2.7c-.3-.8-.9-1.4-1.7-1.7-.6-.2-1.2-.2-1.8 0l-32 11.3v8.8c.2 0 .4-.1.7-.1l34.1-12c.9-.3 1.5-1 1.7-1.8.1-.6.1-1.2-.1-1.8z"/></symbol><symbol id="e" viewBox="-36.4 -31.8 72.8 63.5"><path fill="#8D4000" d="M-30.7-31.8h-4.2v4.5h4.2z"/><path fill="#712E03" d="M-30.7-27.3v-4.5l1.1 1.5v3z"/><path fill="#8D4000" d="M30.9-31.8h4.2v4.5h-4.2z"/><path fill="#712E03" d="M30.9-27.3v-4.5l-1.1 1.5v3z"/><linearGradient id="a" gradientUnits="userSpaceOnUse" x1="23.9" y1="-27.223" x2="23.9" y2="11.821"><stop offset="0" stop-color="#FF6F05"/><stop offset=".206" stop-color="#FD6B05"/><stop offset=".419" stop-color="#F75E04"/><stop offset=".636" stop-color="#ED4A04"/><stop offset=".854" stop-color="#DF2D03"/><stop offset="1" stop-color="#D41502"/></linearGradient><path fill="url(#a)" d="M28.8-27.3L18.2-16.2v28L29.6 2z"/><path fill="#FD7A0C" d="M36.1 2.9L29 2.7l-10.8 9.7h7.2z"/><path fill="#FF881E" d="M35.8 2.7h-6.3l-9 8.1c-.4.3-.1 1 .4 1h4.6c.1 0 .3-.1.4-.1l9.9-9z"/><path fill="#ED5300" d="M18.2 12.4L29 2.7V1.6l-10.8 10z"/><path fill="#ED5501" d="M35.3-27.6h-5.7c-.6 0-1 .5-1 1V2.2c0 .4.4.9.8 1 2 .5 4.2.5 6.2 0 .4-.1.8-.6.8-1v-28.8c0-.5-.5-1-1.1-1z"/><path fill="#F96601" d="M35.3-26h-5c-.6 0-1 .5-1 1-.5 9.2-.3 18.3-.8 27.2 0 .4.4.9.8 1 2 .5 4.2.5 6.2 0 .4-.1.8-.6.8-1V-25c.1-.6-.4-1-1-1z"/><linearGradient id="b" gradientUnits="userSpaceOnUse" x1="32377.945" y1="-27.263" x2="32377.945" y2="11.781" gradientTransform="matrix(-1 0 0 1 32354.045 0)"><stop offset="0" stop-color="#FF6F05"/><stop offset=".206" stop-color="#FD6B05"/><stop offset=".419" stop-color="#F75E04"/><stop offset=".636" stop-color="#ED4A04"/><stop offset=".854" stop-color="#DF2D03"/><stop offset="1" stop-color="#D41502"/></linearGradient><path fill="url(#b)" d="M-28.8-27.3l10.6 11.1v28L-29.6 2z"/><path fill="#FD7A0C" d="M-36.1 2.9l7.1-.2 10.8 9.7h-7.2z"/><path fill="#FF881E" d="M-35.8 2.7h6.3l9 8.1c.4.3.1 1-.4 1h-4.6c-.1 0-.3-.1-.4-.1l-9.9-9z"/><path fill="#ED5300" d="M-18.2 12.4L-29 2.7V1.6l10.8 10z"/><path fill="#ED5501" d="M-35.3-27.6h5.7c.6 0 1 .5 1 1V2.2c0 .4-.4.9-.8 1-2 .5-4.2.5-6.2 0-.4-.1-.8-.6-.8-1v-28.8c.1-.5.5-1 1.1-1z"/><path fill="#F96601" d="M-29.6-26h-5c-.6 0-1 .5-1 1-.5 9.2-.3 18.3-.8 27.2 0 .4.3.9.8 1 2 .5 4.2.5 6.2 0 .4-.1.8-.6.8-1V-25c0-.6-.4-1-1-1z"/><linearGradient id="c" gradientUnits="userSpaceOnUse" x1=".1" y1="-8.763" x2=".1" y2="31.062"><stop offset="0" stop-color="#D41502"/><stop offset=".082" stop-color="#E02E03"/><stop offset=".186" stop-color="#EB4604"/><stop offset=".304" stop-color="#F45804"/><stop offset=".443" stop-color="#FA6505"/><stop offset=".624" stop-color="#FE6D05"/><stop offset="1" stop-color="#FF6F05"/></linearGradient><path fill="url(#c)" d="M22.4-8.8h-44.6v26.5c0 6.2 4.9 11.4 11.2 12.5 7.3 1.1 14.8 1.1 22.1 0 6.3-1 11.2-6.3 11.2-12.5.1-12.4.1-14 .1-26.5z"/><path fill="#E50" d="M22.4 16.8V-.4c0-.3-.4-.7-.8-.8-12-2.8-24.8-3.2-37-1.2-3.8.6-6.8 3.7-6.8 6.4v12.7c0 4.5 4.9 8.3 11.2 9.1 7.3.9 14.8.9 22.1 0 6.3-.7 11.3-4.5 11.3-9z"/><path fill="#EE6101" d="M22.4 18.9V4.5c0-1.8-2-3.8-4.5-4.3C11.9-1 5.8-1.5-.4-1.5c-12.2.2-21.8 10.1-21.8 18.7v1.7c0 4.5 4.9 8.3 11.2 9.1 7.3.9 14.8.9 22.1 0 6.3-.8 11.3-4.7 11.3-9.1z"/><path fill="#FF891F" d="M-11 28.6c7.3 1.1 14.8 1.1 22.1 0 6.3-1 11.2-6.3 11.2-12.5v-35 37.3c0 6.2-4.9 11.4-11.2 12.5C3.8 32-3.7 32-11 30.9c-6.3-1-11.2-6.3-11.2-12.5v-2.3c0 6.2 5 11.4 11.2 12.5z"/><path fill="#FF891F" d="M19.2-3h-38.3c-2 0-3.9-.8-5.3-2.1l-2.7-2.7h54.4l-2.7 2.6C23.2-3.8 21.2-3 19.2-3z"/><path fill="#E84D00" d="M25.3-25h-50.4c-.5 0-1 .4-1 1v7.7h52.4V-24c0-.5-.4-1-1-1z"/><path fill="#D84100" d="M24.8-22.6h-49.4c-.8 0-1.5.7-1.5 1.6v-2.3c0-.9.7-1.6 1.5-1.6h49.4c.8 0 1.5.7 1.5 1.6v2.3c0-.9-.7-1.6-1.5-1.6z"/><path fill="#F96601" d="M25.9-16.3h-51.6c-.9 0-1.6.7-1.6 1.6v6.5c0 .3.3.6.6.6h53.6c.3 0 .6-.3.6-.6v-6.5c-.1-.9-.8-1.6-1.6-1.6z"/><linearGradient id="d" gradientUnits="userSpaceOnUse" x1=".1" y1="-18.363" x2=".1" y2="-15.651"><stop offset="0" stop-opacity=".05"/><stop offset="1" stop-opacity=".3"/></linearGradient><path opacity=".75" fill="url(#d)" d="M26.3-18.4h-52.4v2.7h52.4z"/><path fill="#E50" d="M25.9-14h-51.6c-.9 0-1.6.7-1.6 1.6v-2.3c0-.9.7-1.6 1.6-1.6h51.6c.9 0 1.6.7 1.6 1.6v2.3c-.1-.9-.8-1.6-1.6-1.6z"/></symbol><path fill="#FFF" d="M853.4 376.9c-1.4 0-2.8-.7-3.6-1.8l-1.3-1.8c-.6-.8-.9-1.7-.9-2.7v-.5l-1.1-1.1h-58.2l-.9.9v.8c0 1-.3 1.9-.9 2.7l-1.3 1.8c-.8 1.2-2.2 1.8-3.6 1.8h-4.9c-2.5 0-4.5-2-4.5-4.5v-2.1c-1.7-1.7-1.7-3.9-1.7-5.2v-31.4c0-.8-.1-2.7 1.2-4.4l13.1-11.7c.6-.6 1.4-.9 2.2-1.1 0 0-.1-3.9.2-5.4.5-2.9 1.7-5.7 3.4-8.1 3.2-4.3 8.1-7.3 13.6-8.1 4.4-.7 8.8-1 13.2-1 1.7 0 3.4 0 5.1.1h.2c5.3.3 11.2.7 16.4 4.1 4.6 3.1 7.7 7.8 8.5 12.9.3 1.6.2 5.5.2 5.5.8.2 1.5.5 2 1l11.9 10.6c.4.3 1.1 1.1 1.1 1.1 1.3 1.8 1.2 3.7 1.2 4.7v31.3c0 1.1 0 3.1-1.4 4.8v2.4c0 2.5-2 4.5-4.5 4.5h-4.7v-.1z"/><use xlink:href="#e" width="72.8" height="63.5" x="-36.4" y="-31.8" transform="matrix(1.164 0 0 -1.164 817.415 335.464)" overflow="visible"/><linearGradient id="f" gradientUnits="userSpaceOnUse" x1="965.1" y1="917.51" x2="965.1" y2="934.109" gradientTransform="matrix(1 0 0 -1 -147.6 1266.01)"><stop offset="0" stop-opacity=".05"/><stop offset="1" stop-opacity=".3"/></linearGradient><path opacity=".3" fill="url(#f)" d="M838.3 344.6c-.5.3-1.1.6-1.7.8-4.5 1.9-11.4 3.1-19.1 3.1s-14.6-1.2-19.1-3.1c-.6-.3-1.2-.5-1.7-.8l19.3-12.7h3.4l18.9 12.7z"/><path fill="#FBA993" d="M799 336.6s.5.9 1.4.8c0 0 7.2 9.7 18.6 9.4 15.1.2 17.3-17 17.3-17s1.1-1.1.8-1.9l-8.9 5.2-29.2 3.5z"/><path fill="#FFF2DF" d="M837.2 327.9c-.2-.2-.9.2-1.5.8-.9-.4-5.2-2.1-11.9-.7 0 0-3.4-3.3-9.7-4-.2-.9-.6-1.6-.9-1.5s-.4.7-.3 1.5h-.1s-7.4 2.6-12.2 11.5c-.9.2-1.5.6-1.5 1 .1.4.8.6 1.7.4h.1v.1s12.3 8.1 21.8 6.7h.1c.4.6.8.9 1.1.8.3-.1.3-.6.2-1.2h.1s8.3-2.9 11.6-13.5c.1-.1.3-.2.4-.4.8-.6 1.2-1.3 1-1.5z"/><linearGradient id="g" gradientUnits="userSpaceOnUse" x1="965.9" y1="929.154" x2="965.9" y2="932.458" gradientTransform="matrix(1 0 0 -1 -147.6 1266.01)"><stop offset="0" stop-opacity=".05"/><stop offset="1" stop-opacity=".3"/></linearGradient><ellipse opacity=".3" fill="url(#g)" cx="818.3" cy="335.2" rx="11.8" ry="1.7"/><linearGradient id="h" gradientUnits="userSpaceOnUse" x1="965.7" y1="930.209" x2="965.7" y2="957.547" gradientTransform="matrix(1 0 0 -1 -147.6 1266.01)"><stop offset="0" stop-color="#FF8F29"/><stop offset=".214" stop-color="#FDA62E"/><stop offset=".515" stop-color="#FAC034"/><stop offset=".786" stop-color="#F9D038"/><stop offset="1" stop-color="#F8D539"/></linearGradient><circle fill="url(#h)" stroke="#E8980F" stroke-width="1.165" stroke-miterlimit="10" cx="818.1" cy="322.1" r="13.7"/><linearGradient id="i" gradientUnits="userSpaceOnUse" x1="965.8" y1="931.409" x2="965.8" y2="945.855" gradientTransform="matrix(1 0 0 -1 -147.6 1266.01)"><stop offset="0" stop-color="#FFF" stop-opacity=".2"/><stop offset="1" stop-color="#FFF" stop-opacity="0"/></linearGradient><path fill="url(#i)" d="M818.1 333c-7.3 0-13.2-5.7-13.6-12.9v.8c0 7.5 6.1 13.7 13.7 13.7 7.5 0 13.7-6.1 13.7-13.7v-.8c-.5 7.2-6.5 12.9-13.8 12.9z"/><linearGradient id="j" gradientUnits="userSpaceOnUse" x1="965.8" y1="930.609" x2="965.8" y2="945.054" gradientTransform="matrix(1 0 0 -1 -147.6 1266.01)"><stop offset="0" stop-color="#F9622D" stop-opacity=".4"/><stop offset=".31" stop-color="#FA772E" stop-opacity=".276"/><stop offset=".948" stop-color="#FBAC32" stop-opacity=".021"/><stop offset="1" stop-color="#FBB132" stop-opacity="0"/></linearGradient><path fill="url(#j)" d="M818.1 333.8c-7.3 0-13.2-5.7-13.6-12.9v.8c0 7.5 6.1 13.7 13.7 13.7s13.7-6.1 13.7-13.7v-.8c-.5 7.2-6.5 12.9-13.8 12.9z"/><g opacity=".2"><path opacity=".76" d="M822.2 324.2c-1.1 0-2.1 0-3.1-.1h-2c-.6 0-.8-.1-1 .6-.4.9 0 2.1.9 2.6 1 .6 2.4.4 3.4 0 .3-.1 1-.7 1.4-.7.4.1.4 1 .2 1.3-.3.9-2 1.1-2.8 1.2-1.4.1-3-.1-4-1.1s-1.4-2.6-.9-3.9c-.4.1-.6-.2-.6-.6 0-.6.3-.6.8-.6.6 0 .6-.1 1.2-.4.7-.5 1.4-.8 2.2-1.1H816c-.5 0-1.4.2-1.9 0-.4-.2-.5-1-.1-1.2.1-.1.3 0 .5 0h4.7c.1 0 .4.1.5 0 .5-.2.5-1.2.4-1.6-.4-1.5-2.2-1.6-3.4-1.1-.3.1-1.3.8-1.6.6-.4-.2-.1-1.3.1-1.5.5-.5 1.6-.7 2.2-.7.8-.1 1.7 0 2.4.3 1.6.7 2.4 2.4 1.9 4.1.5 0 .8-.1.9.5.1.6-.2.7-.7.7-.4 0-.7-.1-1 .1-.8.5-1.5 1-2.4 1.4h2.6c.3 0 .8-.1 1.1 0s.5 1.2 0 1.2z"/></g><path opacity=".76" fill="#FFF" d="M822.2 323.7c-1.1 0-2.2 0-3.2-.1h-2s-.9.2-1.1.9c-.3 1.2.5 2.2 1.7 2.5 1.4.4 2.5-.2 3.8-.8 1-.4.9 1 .4 1.5-.7.8-2.3.9-3.3.9-2.6 0-5.3-2.2-4.2-5-.4.1-.6-.2-.6-.6 0-.5.2-.6.6-.6.2 0 .4.1.6 0s.4-.3.6-.4c.7-.5 1.5-.8 2.2-1.1h-2c-.4 0-1.5.2-1.9-.1-.2-.2-.2-.9 0-1 .2-.1.3-.1.5-.1.8-.1 1.6 0 2.4 0s1.7.1 2.5 0c.1 0 .3.1.4 0 .6-.3.5-1.4.3-1.9-.7-1.5-2.7-1.2-3.9-.6-.4.2-.8.6-1.1.1-.2-.4 0-1.1.4-1.4 1.2-.9 3.4-.8 4.7-.2 1.5.7 2.2 2.4 1.7 4 .4 0 .7-.1.9.4.1.5-.1.8-.5.8s-.8-.1-1.2.1c-.4.2-.8.6-1.2.9-.4.2-.8.4-1.2.5h2.8c.2 0 .7-.1.9 0 .4.2.5 1.3 0 1.3z"/><path fill="#E8980F" d="M818.3 310.5c-6.4-.1-11.7 5-11.8 11.5-.1 6.4 5 11.7 11.5 11.9 6.4.1 11.7-5 11.9-11.5 0-6.5-5.1-11.8-11.6-11.9zm-.4 22.2c-5.8-.1-10.5-4.9-10.4-10.8.1-5.8 4.9-10.5 10.8-10.4 5.8.1 10.5 4.9 10.4 10.8-.1 5.8-4.9 10.5-10.8 10.4z"/><linearGradient id="k" gradientUnits="userSpaceOnUse" x1="3358.343" y1="926.655" x2="3367.628" y2="917.997" gradientTransform="rotate(32 -74.91 -4756.76)"><stop offset="0" stop-color="#F8FF61" stop-opacity=".9"/><stop offset="1" stop-color="#F9FF73" stop-opacity="0"/></linearGradient><path fill="url(#k)" d="M818.2 321.4c-4.4 0-8.1-2.7-8.1-6.1 0-3.4 3.5-6.2 8-6.3 4.4 0 8.1 2.7 8.1 6.1s-3.6 6.2-8 6.3z"/><ellipse fill="#FFF2DF" cx="818.1" cy="336.5" rx="6.6" ry="1.9"/><path opacity=".2" d="M1451.8 1272.7c0-4.1-3.1-7.8-7.2-8.5-4.8-.8-9.7-.8-14.5 0-4.1.7-7.4 4.2-7.4 8.3v7c.8.6 1.1 1.3 1.1 2.4v4.1h27.1v-3.6c0-1.1.2-2.5 1-3.1v-6.6h-.1zm5.6 9.4c0-1-.8-1.7-1.7-1.7h-1.8c-.9 0-1.6.6-1.6 1.5v5.1h-30.2v-5.1c0-1-.6-1.5-1.5-1.5h-1.9c-.9 0-1.7.8-1.7 1.7v20.1c0 .9.7 1.6 1.6 1.7v.3c0 .4.3.7.7.7h.8c.4 0 .7-.3.7-.7v-.3c.9-.1 1.4-1.1 1.4-2v-1.5c.3.3.7.5 1 .5h28.1c.4 0 .7-.1 1-.2v1.2c0 .9.6 1.9 1.4 2v.3c0 .4.3.7.7.7h.8c.4 0 .7-.3.7-.7v-.3c.9-.1 1.5-.8 1.5-1.7v-20.1z"/><g fill="#FFF"><path opacity=".15" d="M2244.3 500.3l-388.9-380.1h388.9m-389.4 91.2l389.6 337.2-.5-26.4-388.9-393.7"/><path opacity=".2" d="M1855.1 387.9l192 278.1 197.2-.1-389.2-420.1"/></g><g fill="#FFF"><path opacity=".15" d="M2641.4 500.3l-388.9-380.1h388.9M2252 211.4l389.5 337.2-.5-26.4-388.8-393.7"/><path opacity=".2" d="M2252.2 387.9l192 278.1 197.2-.1-389.2-420.1"/></g><g><path fill="#FFF" d="M2212.7 1306.7c-.4.4-1 .6-1.7.6h-1c-.4 0-.9-.1-1.2-.3l-.2-.1-.7.1-16 15.5.1.4.3.2c.3.2.6.5.7.8l.3.7c.2.5 0 1-.3 1.3l-1.3 1.3c-.7.7-2 .8-2.8.3l-.8-.4c-1.1.1-1.9-.4-2.3-.6l-11.2-6.5c-.3-.2-1-.5-1.2-1.2l-.6-5.9c0-.3.1-.6.2-.8 0 0-1.4-.8-1.9-1.2-.9-.7-1.6-1.6-2-2.6-.7-1.8-.4-3.7.9-5.3 1-1.3 2.1-2.6 3.3-3.7.5-.5 1-.9 1.5-1.3h.1c1.6-1.3 3.3-2.9 6-3.5 2.4-.6 4.9-.4 7 .4.6.2 2 1.1 2 1.1.3-.2.6-.3.9-.3l7.1-1c.2 0 .7-.1.7-.1 1 0 1.7.4 2 .7l11.2 6.5c.4.2 1.1.6 1.3 1.4l.8.5c.9.5 1.1 1.5.4 2.1l-1.6.9z"/><path fill="#8D4000" d="M2191.3 1326.1l-1.3 1.3-1.9-1 1.3-1.4"/><path fill="#712E03" d="M2189.4 1325l1.9 1.1-.3-.7-1.2-.7"/><path fill="#8D4000" d="M2211.1 1307l1.3-1.3-1.8-1.1-1.4 1.3"/><path fill="#712E03" d="M2209.2 1305.9l1.9 1.1h-1l-1.2-.8"/><linearGradient id="l" gradientUnits="userSpaceOnUse" x1="-6659.44" y1="15433.516" x2="-6659.44" y2="15470.32" gradientTransform="matrix(.321 -.416 -.416 -.321 10763.565 3495.36)"><stop offset="0" stop-color="#FF6F05"/><stop offset=".206" stop-color="#FD6B05"/><stop offset=".419" stop-color="#F75E04"/><stop offset=".636" stop-color="#ED4A04"/><stop offset=".854" stop-color="#DF2D03"/><stop offset="1" stop-color="#D41502"/></linearGradient><path fill="url(#l)" d="M2208.6 1306.5l-8 .7-11.7-6.9 7.7-1.1"/><path fill="#FD7A0C" d="M2198.4 1297l-2.2 2.2-7.5 1 2.3-2.2"/><path fill="#FF881E" d="M2198.3 1297.1l-2 2-6.3.8c-.3 0-.5-.2-.3-.4l1.5-1.4s.1-.1.2-.1l6.9-.9z"/><path fill="#ED5300" d="M2188.7 1300.2l7.5-1 .4.3-7.6.9"/><path fill="#ED5501" d="M2210.8 1304.6l-1.8 1.8c-.2.2-.5.2-.8.1-4-2.3-8-4.7-12-7-.2-.1-.3-.3-.2-.5.4-.8 1.1-1.4 2-1.9.2-.1.5-.1.7 0 4 2.3 8 4.7 12 7 .2.1.3.3.1.5z"/><path fill="#F96601" d="M2210.1 1304.2c-.5.4-1.2 1.1-1.6 1.5-.2.2-.5.2-.8.1-4-2.1-7.7-4.4-11.6-6.4-.2-.1-.3-.3-.2-.5.4-.8 1.1-1.4 2-1.9.2-.1.5-.1.7 0 3.8 2.2 7.6 4.4 11.3 6.6.4.2.4.5.2.6z"/><linearGradient id="m" gradientUnits="userSpaceOnUse" x1="11066.525" y1="15440.598" x2="11066.525" y2="15474.766" gradientTransform="rotate(128 5670.103 3827.854) scale(.5254)"><stop offset="0" stop-color="#FF6F05"/><stop offset=".206" stop-color="#FD6B05"/><stop offset=".419" stop-color="#F75E04"/><stop offset=".636" stop-color="#ED4A04"/><stop offset=".854" stop-color="#DF2D03"/><stop offset="1" stop-color="#D41502"/></linearGradient><path fill="url(#m)" d="M2190 1324.5l-1.1-6-11.7-6.8.5 5.9"/><path fill="#FD7A0C" d="M2175.2 1319.4l2.3-2.1-.5-5.8-2.3 2.3"/><path fill="#FF881E" d="M2175.3 1319.4l2-2-.5-4.8c0-.2-.4-.3-.5-.1l-1.5 1.4s-.1.1-.1.2l.6 5.3z"/><path fill="#ED5300" d="M2177 1311.5l.5 5.8.5.2-.7-5.8"/><path fill="#ED5501" d="M2188.1 1326.6l1.8-1.8c.2-.2.1-.4-.1-.6-4-2.3-8-4.6-12-7-.2-.1-.5-.1-.7 0-.9.5-1.6 1.2-2 1.9-.1.2 0 .4.2.5 4 2.3 8 4.6 12 7 .3.2.6.1.8 0z"/><path fill="#F96601" d="M2189.3 1324.4c-.5.4-1.2 1.1-1.6 1.5-.2.2-.5.2-.8.1-4-2.1-7.7-4.3-11.6-6.3-.2-.1-.3-.3-.2-.5.4-.8 1.1-1.4 2-1.9.2-.1.5-.1.7 0 3.8 2.2 7.6 4.4 11.3 6.6.3.1.4.3.2.5z"/><linearGradient id="n" gradientUnits="userSpaceOnUse" x1="-6680.852" y1="15451.117" x2="-6680.852" y2="15490.611" gradientTransform="matrix(.321 -.416 -.416 -.321 10763.565 3495.36)"><stop offset="0" stop-color="#D41502"/><stop offset=".082" stop-color="#E02E03"/><stop offset=".186" stop-color="#EB4604"/><stop offset=".304" stop-color="#F45804"/><stop offset=".443" stop-color="#FA6505"/><stop offset=".624" stop-color="#FE6D05"/><stop offset="1" stop-color="#FF6F05"/></linearGradient><path fill="url(#n)" d="M2198.8 1304.1c-4.8 4.6-9.5 9.2-14.3 13.9-5.2-3-5.8-3.4-11-6.4-2.6-1.5-3.2-4.3-1.6-6.6 1.9-2.6 4.3-4.9 7.1-6.9 2.4-1.7 6.2-1.9 8.8-.4 5.2 3 5.8 3.3 11 6.4z"/><path fill="#E50" d="M2188.2 1297.8l7.2 4.2c.1.1.2.3.1.4-2.7 4.4-6.6 8.5-11.4 11.8-1.5 1-3.7 1.2-4.8.6-1.8-1-3.5-2.1-5.3-3.1-1.9-1.1-1.9-3.6-.2-5.7 2-2.5 4.4-4.8 7.1-6.9 2.2-1.8 5.4-2.4 7.3-1.3z"/><path fill="#EE6101" d="M2187.3 1297.3c2 1.2 4 2.3 6 3.5.8.4 1 1.6.4 2.4-1.5 2.1-3.2 4.2-5.2 6.1-4 3.8-11.2 4.3-14.8 2.3-.2-.1-.5-.3-.7-.4-1.9-1.1-1.9-3.6-.2-5.7 2-2.5 4.4-4.8 7.1-6.9 2.4-1.8 5.5-2.4 7.4-1.3z"/><path fill="#FF891F" d="M2172.6 1305.3c1.9-2.6 4.3-4.9 7.1-6.9 2.4-1.7 6.2-1.9 8.8-.4 4.8 2.8 9.7 5.7 14.5 8.5-5.2-3-10.3-6-15.5-9.1-2.6-1.5-6.3-1.3-8.8.4-2.8 2-5.2 4.3-7.1 6.9-1.6 2.2-1 5 1.6 6.6.3.2.6.4 1 .6-2.6-1.5-3.2-4.4-1.6-6.6z"/><path fill="#FF891F" d="M2195.4 1303.6l-12.3 11.9c-.6.6-.9 1.4-.8 2.2l.2 1.5 17.5-16.9-2 .2c-1 .1-2 .5-2.6 1.1z"/><path fill="#E84D00" d="M2206.5 1307.1l-16.2 15.7c-.2.2-.5.2-.7.1l-3.2-1.9 16.8-16.3 3.2 1.9c.2.1.2.3.1.5z"/><path fill="#D84100" d="M2205.3 1306.7l-15.9 15.4c-.3.3-.8.3-1.1.1l1 .6c.4.2.9.2 1.1-.1l15.9-15.4c.3-.3.2-.6-.2-.9l-1-.6c.4.2.5.6.2.9z"/><path fill="#F96601" d="M2203 1304.8l-16.6 16c-.3.3-.8.3-1.2.1l-2.7-1.6c-.1-.1-.2-.2-.1-.3l17.2-16.6c.1-.1.3-.1.4 0l2.7 1.6c.6.1.6.5.3.8z"/><linearGradient id="o" gradientUnits="userSpaceOnUse" x1="-6678.148" y1="15441.887" x2="-6678.148" y2="15450.752" gradientTransform="matrix(.321 -.416 -.416 -.321 10763.565 3495.36)"><stop offset="0" stop-opacity=".05"/><stop offset="1" stop-opacity=".3"/></linearGradient><path opacity=".75" fill="url(#o)" d="M2204.1 1305.2l-16.9 16.3-1.1-.7 16.8-16.3"/><path fill="#E50" d="M2202.1 1304.2l-16.6 16c-.3.3-.8.3-1.2.1l1 .6c.4.2.9.2 1.2-.1l16.6-16c.3-.3.2-.7-.1-.9l-1-.6c.3.3.4.7.1.9z"/><g><linearGradient id="p" gradientUnits="userSpaceOnUse" x1="3027.568" y1="692.529" x2="3027.568" y2="699.47" gradientTransform="rotate(-52 4687.173 1176.67)"><stop offset="0" stop-opacity=".05"/><stop offset="1" stop-opacity=".3"/></linearGradient><path opacity=".3" fill="url(#p)" d="M2195.2 1304.2c0 .3-.1.5-.2.8-.5 2-1.9 4.7-3.8 7.3-1.9 2.6-4 4.6-5.8 5.6-.2.1-.5.3-.7.4l.8-10 .9-1.2 8.8-2.9z"/><path fill="#FBA993" d="M2182.8 1315.3s.4.1.6-.3c0 0 4.9.2 7.7-3.8 3.8-5.1-1-10.5-1-10.5s-.1-.7-.4-.8l-.6 4.4-6.3 11z"/><path fill="#FFF2DF" d="M2189.7 1300c-.1 0-.2.3-.1.7-.4.2-2 1.2-3.2 3.9 0 0-1.9.3-3.7 2.2-.3-.2-.6-.2-.7-.1-.1.1.1.3.4.5v.1s-1 3.2.6 7.3c-.2.3-.2.7-.1.8.1.1.4-.1.6-.5v-.1s5.7-2 7.6-5.6v-.1c.3 0 .5 0 .5-.2 0-.1-.1-.3-.3-.4v-.1s1.2-3.6-1.4-7.6v-.2c0-.3-.1-.6-.2-.6z"/><linearGradient id="q" gradientUnits="userSpaceOnUse" x1="3028.157" y1="697.372" x2="3028.157" y2="698.784" gradientTransform="rotate(-52 4687.173 1176.67)"><stop offset="0" stop-opacity=".05"/><stop offset="1" stop-opacity=".3"/></linearGradient><path opacity=".3" fill="url(#q)" d="M2190.2 1304.4c.3.2-.8 2.2-2.4 4.4-1.6 2.2-3.2 3.8-3.5 3.5-.3-.2.8-2.2 2.4-4.4 1.6-2.2 3.2-3.7 3.5-3.5z"/><linearGradient id="r" gradientUnits="userSpaceOnUse" x1="3028.203" y1="697.838" x2="3028.203" y2="709.2" gradientTransform="rotate(-52 4687.173 1176.67)"><stop offset="0" stop-color="#FF8F29"/><stop offset=".214" stop-color="#FDA62E"/><stop offset=".515" stop-color="#FAC034"/><stop offset=".786" stop-color="#F9D038"/><stop offset="1" stop-color="#F8D539"/></linearGradient><path fill="url(#r)" stroke="#E8980F" stroke-width="1.165" stroke-miterlimit="10" d="M2186.5 1300.3c2.4 2 2.8 5.8.9 8.3-1.9 2.6-5.4 3-7.8 1-2.4-2-2.8-5.8-.9-8.3 1.9-2.6 5.4-3 7.8-1z"/><linearGradient id="s" gradientUnits="userSpaceOnUse" x1="3028.19" y1="698.328" x2="3028.19" y2="704.53" gradientTransform="rotate(-52 4687.173 1176.67)"><stop offset="0" stop-color="#FFF" stop-opacity=".2"/><stop offset="1" stop-color="#FFF" stop-opacity="0"/></linearGradient><path fill="url(#s)" d="M2186.5 1307.9c-1.8 2.5-5.1 3-7.5 1.2.1.1.2.1.2.2 2.4 2 5.9 1.6 7.8-1 1.9-2.6 1.5-6.3-.9-8.3-.1-.1-.2-.1-.3-.2 2.2 2 2.5 5.6.7 8.1z"/><linearGradient id="t" gradientUnits="userSpaceOnUse" x1="3028.119" y1="697.995" x2="3028.119" y2="704.199" gradientTransform="rotate(-52 4687.173 1176.67)"><stop offset="0" stop-color="#F9622D" stop-opacity=".4"/><stop offset=".31" stop-color="#FA772E" stop-opacity=".276"/><stop offset=".948" stop-color="#FBAC32" stop-opacity=".021"/><stop offset="1" stop-color="#FBB132" stop-opacity="0"/></linearGradient><path fill="url(#t)" d="M2186.7 1308.1c-1.8 2.5-5.1 3-7.5 1.2.1.1.2.1.2.2 2.4 2 5.9 1.6 7.8-.9 1.9-2.6 1.5-6.3-.9-8.3-.1-.1-.2-.1-.3-.2 2.3 2 2.6 5.5.7 8z"/><g opacity=".2"><path opacity=".76" d="M2184.7 1304.1c-.3.4-.5.7-.8 1.1-.2.2-.3.4-.5.7-.1.2-.2.2-.1.5.2.4.7.6 1 .4.4-.2.7-.7.9-1.2 0-.1 0-.6.1-.7.1-.1.4.1.5.3.2.4-.1 1-.3 1.3-.3.5-.8 1-1.4 1.1-.6.1-1.2-.2-1.5-.7-.1.2-.2.1-.3 0-.2-.2-.1-.3 0-.4.2-.2.1-.2.2-.5 0-.3.1-.7.2-1-.2.2-.3.4-.5.6-.1.2-.3.5-.5.6-.1.1-.4-.1-.4-.3 0-.1.1-.1.1-.2.2-.3.4-.5.6-.8.2-.3.4-.5.6-.8 0 0 .1-.1.1-.2 0-.2-.3-.5-.4-.6-.6-.3-1.1.3-1.2.8 0 .1-.1.6-.2.7-.2.1-.4-.3-.5-.4 0-.3.2-.7.3-1 .2-.3.4-.6.7-.7.6-.4 1.4-.2 1.8.5.1-.2.2-.3.4-.2s.2.3.1.4c-.1.1-.2.2-.2.4 0 .4 0 .8-.1 1.2.2-.3.4-.6.7-.9.1-.1.2-.3.3-.4 0 0 .4.2.3.4z"/></g><path opacity=".76" fill="#FFF" d="M2184.5 1304c-.3.4-.6.7-.8 1.1-.2.2-.3.5-.5.7-.2.2-.2.3 0 .6.3.4.8.4 1.2.1.5-.4.6-.9.7-1.5.1-.5.5 0 .6.3.1.4-.3 1-.5 1.4-.7.9-2 1.2-2.7.1-.1.2-.2.1-.3 0-.2-.1-.1-.2 0-.4 0-.1.1-.1.2-.2v-.3c0-.4.1-.7.2-1.1-.2.2-.4.5-.5.7-.1.1-.3.6-.5.6-.1 0-.3-.2-.3-.3 0-.1.1-.1.1-.2.2-.3.4-.5.6-.8s.5-.5.6-.8l.1-.1c0-.3-.3-.6-.5-.6-.7-.2-1.1.6-1.2 1.2 0 .2 0 .5-.3.4-.2-.1-.3-.3-.3-.5 0-.6.6-1.4 1.1-1.6.6-.3 1.3-.1 1.7.5.1-.1.2-.3.3-.2.2.1.2.2.1.4s-.2.2-.3.4v.6s-.1.4-.1.5c.2-.3.5-.6.7-.9.1-.1.2-.3.2-.3.2-.2.6 0 .4.2z"/><path fill="#E8980F" d="M2179.4 1301.7c-1.7 2.2-1.4 5.3.6 7.1s5 1.5 6.6-.7c1.7-2.2 1.4-5.3-.6-7.1-2-1.7-5-1.4-6.6.7zm6.9 6.2c-1.5 2-4.2 2.2-6 .6-1.8-1.6-2.1-4.5-.6-6.5s4.2-2.2 6-.6c1.9 1.6 2.1 4.5.6 6.5z"/><linearGradient id="u" gradientUnits="userSpaceOnUse" x1="5241.53" y1="1806.305" x2="5245.312" y2="1802.778" gradientTransform="rotate(-20 12700.097 8606.905)"><stop offset="0" stop-color="#F8FF61" stop-opacity=".9"/><stop offset="1" stop-color="#F9FF73" stop-opacity="0"/></linearGradient><path fill="url(#u)" d="M2182.8 1304.7c-1.1 1.5-2.9 2-4 1.1-1.1-.9-1.1-2.9 0-4.4 1.1-1.5 2.9-2 4-1.1 1.1.9 1.1 2.9 0 4.4z"/><path fill="#FFF2DF" d="M2189.3 1306.6c-.3-.3-1.3.5-2.3 1.7-.9 1.2-1.4 2.5-1.1 2.8.3.3 1.3-.5 2.3-1.7.9-1.3 1.4-2.5 1.1-2.8z"/></g><g><path fill="#FFC687" d="M2173.1 1337.4s-12.2 1.1-16.2-4.4-.8-15.5 4.9-19.9c5.5-3.6 11.9-1.8 12.4-.3 1.7-2.2 5-4.5 7.5-.3s2.7 10 .9 13.6c-1.9 3.7-9.5 11.3-9.5 11.3z"/></g></g><path fill="#ECC261" d="M1758.9 0v668.7H2730V0h-971.1zm882.6 668.7H1855V120.9h786.5v547.8z"/><g><path fill="#BD9B4E" d="M2244.3 120.9h8.7V668h-8.7z"/></g><g><path d="M2730 766h-971.1V666H2730v100z" opacity=".59"/><path fill="#ECA53D" d="M2730 768h-971.1V668H2730v100z"/></g><path opacity=".1" d="M1854.9 718.3c0 22.2 90.1 40.1 201.2 40.1s201.2-18 201.2-40.1c0-22.2-90.1-40.1-201.2-40.1-111 0-201.2 17.9-201.2 40.1z"/><g><path fill="#FBA993" d="M1874.8 698s1.3 2.3 3.7 2.1c0 0 19.4 26.1 50.3 25.4 40.7.5 46.8-46 46.8-46s3-3 2.1-5.1l-24.2 14-78.7 9.6z"/><path fill="#FFF2DF" d="M1977.8 674.5c-.5-.5-2.3.5-4.1 2.2-2.4-1.1-14.1-5.6-32.2-1.9 0 0-9.1-8.8-26.1-10.8-.5-2.4-1.6-4.2-2.4-4s-1.1 2-.7 4.2h-.4s-20.1 7.1-33 31.2c-2.4.4-4.1 1.6-3.9 2.7.2 1.1 2.3 1.6 4.7 1.1.1 0 .3 0 .4-.1l.1.2s33.2 21.9 59 18.2l.3-.1c1 1.6 2.3 2.5 3.1 2.1.7-.3.9-1.7.4-3.2l.3-.1s22.5-7.9 31.4-36.6c.4-.3.7-.6 1.1-1 1.5-1.8 2.5-3.6 2-4.1z"/><linearGradient id="v" gradientUnits="userSpaceOnUse" x1="2074.5" y1="567.332" x2="2074.5" y2="576.256" gradientTransform="matrix(1 0 0 -1 -147.6 1266.01)"><stop offset="0" stop-opacity=".05"/><stop offset="1" stop-opacity=".3"/></linearGradient><path opacity=".3" fill="url(#v)" d="M1958.7 694.2c0 2.5-14.2 4.5-31.8 4.5-17.5 0-31.8-2-31.8-4.5s14.2-4.5 31.8-4.5c17.6.1 31.8 2.1 31.8 4.5z"/><linearGradient id="w" gradientUnits="userSpaceOnUse" x1="2074" y1="570.31" x2="2074" y2="644.109" gradientTransform="matrix(1 0 0 -1 -147.6 1266.01)"><stop offset="0" stop-color="#FF8F29"/><stop offset=".214" stop-color="#FDA62E"/><stop offset=".515" stop-color="#FAC034"/><stop offset=".786" stop-color="#F9D038"/><stop offset="1" stop-color="#F8D539"/></linearGradient><path fill="url(#w)" stroke="#E8980F" stroke-width="1.165" stroke-miterlimit="10" d="M1963.3 658.8c0 20.4-16.5 36.9-36.9 36.9s-36.9-16.5-36.9-36.9 16.5-36.9 36.9-36.9c20.3 0 36.9 16.5 36.9 36.9z"/><linearGradient id="x" gradientUnits="userSpaceOnUse" x1="2073.901" y1="573.451" x2="2073.901" y2="612.451" gradientTransform="matrix(1 0 0 -1 -147.6 1266.01)"><stop offset="0" stop-color="#FFF" stop-opacity=".2"/><stop offset="1" stop-color="#FFF" stop-opacity="0"/></linearGradient><path fill="url(#x)" d="M1926.4 688.4c-19.7 0-35.8-15.4-36.9-34.8 0 .7-.1 1.4-.1 2.1 0 20.4 16.5 36.9 36.9 36.9s36.9-16.5 36.9-36.9c0-.7 0-1.4-.1-2.1-.9 19.4-17 34.8-36.7 34.8z"/><linearGradient id="y" gradientUnits="userSpaceOnUse" x1="2073.801" y1="571.31" x2="2073.801" y2="610.31" gradientTransform="matrix(1 0 0 -1 -147.6 1266.01)"><stop offset="0" stop-color="#F9622D" stop-opacity=".4"/><stop offset=".31" stop-color="#FA772E" stop-opacity=".276"/><stop offset=".948" stop-color="#FBAC32" stop-opacity=".021"/><stop offset="1" stop-color="#FBB132" stop-opacity="0"/></linearGradient><path fill="url(#y)" d="M1926.3 690.5c-19.7 0-35.8-15.4-36.9-34.8 0 .7-.1 1.4-.1 2.1 0 20.4 16.5 36.9 36.9 36.9s36.9-16.5 36.9-36.9c0-.7 0-1.4-.1-2.1-.9 19.4-17 34.8-36.7 34.8z"/><g opacity=".2"><path opacity=".76" d="M1937.3 664.4c-2.8-.1-5.7-.1-8.5-.1-1.8 0-3.6-.1-5.4-.1-1.6 0-2.1-.2-2.8 1.5-1.2 2.6 0 5.7 2.4 7 2.8 1.6 6.4 1.1 9.3 0 .9-.4 2.8-2 3.8-1.8 1.2.2 1 2.6.7 3.4-.9 2.4-5.3 3.1-7.5 3.3-3.8.4-8-.4-10.8-3-2.8-2.6-3.9-6.9-2.5-10.5-1.2.2-1.5-.7-1.5-1.7 0-1.6.7-1.6 2-1.6 1.6 0 1.7-.2 3.1-1.2 1.8-1.2 3.9-2 5.9-2.9-1.7 0-3.4-.1-5.1-.1-1.3 0-3.8.4-5.1-.1-1-.4-1.2-2.6-.3-3.2.3-.2.9-.1 1.2-.1 2.1 0 4.1.1 6.2.1 2.2 0 4.4.1 6.6.1.3 0 1.1.2 1.4 0 1.3-.6 1.3-3.2 1.1-4.4-1-4-6-4.2-9.2-3.1-.9.3-3.4 2.2-4.3 1.6-.9-.6-.3-3.5.3-4.1 1.3-1.4 4.2-1.8 6-2 2.2-.2 4.5.1 6.6.9 4.4 1.8 6.5 6.5 5.2 11.1 1.3 0 2.1-.2 2.3 1.3.2 1.7-.5 2-1.8 2-1.1 0-1.9-.2-2.7.3-2.2 1.3-4 2.8-6.4 3.8 2.3 0 4.7.1 7 .1.8 0 2.2-.2 2.9 0 .8.5 1.4 3.5-.1 3.5z"/></g><path opacity=".76" fill="#FFF" d="M1937.4 663c-2.9 0-5.8-.1-8.7-.1-1.8 0-3.6-.1-5.5-.1-1.7 0-2.4.5-2.8 2.5-.8 3.3 1.5 6 4.5 6.8 3.8 1 6.8-.7 10.1-2.2 2.7-1.2 2.3 2.6 1.1 4-1.9 2.1-6.3 2.5-8.9 2.4-7.2 0-14.2-6-11.4-13.6-1.1.2-1.6-.6-1.6-1.7 0-1.4.6-1.5 1.7-1.6.5 0 1.2.1 1.7 0 .7-.1 1.1-.7 1.7-1.1 1.8-1.3 4-2.1 6-3-1.8 0-3.7-.1-5.5-.1-1.1 0-4.1.5-5.1-.3-.6-.5-.5-2.3.1-2.8.4-.3.8-.2 1.3-.2 2.1-.2 4.4.1 6.5.1 2.2 0 4.6.3 6.8.1.3 0 .8.1 1 0 1.5-.8 1.3-3.9.7-5.1-1.9-4-7.4-3.4-10.7-1.6-1.1.6-2.3 1.7-2.9.1-.5-1.2 0-2.9 1-3.7 3.2-2.5 9.3-2.1 12.7-.5 4.1 2 5.9 6.6 4.6 10.9 1.1 0 2-.2 2.4 1.1.4 1.4-.3 2.1-1.5 2.2-1.2.1-2.1-.2-3.1.3-1.1.6-2.1 1.7-3.2 2.3-1 .6-2.1 1-3.1 1.5 2.5 0 5.1.1 7.6.1.6 0 1.9-.2 2.5.1 1 .4 1.3 3.2 0 3.2z"/><path fill="#E8980F" d="M1926.9 627.4c-17.4-.3-31.7 13.6-32 30.9-.3 17.4 13.6 31.7 30.9 32 17.4.3 31.7-13.6 32-30.9.3-17.4-13.5-31.7-30.9-32zm-1 60c-15.8-.3-28.4-13.3-28.1-29.1.3-15.8 13.3-28.4 29.1-28.1s28.4 13.3 28.1 29.1-13.3 28.4-29.1 28.1z"/><linearGradient id="z" gradientUnits="userSpaceOnUse" x1="4463.083" y1="1243.69" x2="4488.193" y2="1220.275" gradientTransform="rotate(32 -74.91 -4756.76)"><stop offset="0" stop-color="#F8FF61" stop-opacity=".9"/><stop offset="1" stop-color="#F9FF73" stop-opacity="0"/></linearGradient><path fill="url(#z)" d="M1926.5 656.8c-12 .1-21.8-7.3-21.9-16.6-.1-9.3 9.6-16.9 21.6-17 12-.1 21.8 7.3 21.9 16.6.1 9.3-9.6 16.9-21.6 17z"/><path fill="#FFF2DF" d="M1944.3 697.7c0-2.8-8-5.1-17.9-5.1-9.9 0-17.9 2.3-17.9 5.1s8 5.1 17.9 5.1c9.9 0 17.9-2.2 17.9-5.1z"/></g><g><path fill="#8D4000" d="M1964.4 718.4h15.3v16.5h-15.3z"/><path fill="#712E03" d="M1979.7 718.4v16.5l4.1-5.6v-10.9"/><path fill="#8D4000" d="M2205.3 718.4h15.3v16.5h-15.3z"/><path fill="#712E03" d="M2205.3 718.4v16.5l-4-5.6v-10.9"/><linearGradient id="A" gradientUnits="userSpaceOnUse" x1="2327.201" y1="547.609" x2="2327.201" y2="690.609" gradientTransform="matrix(1 0 0 -1 -147.6 1266.01)"><stop offset="0" stop-color="#FF6F05"/><stop offset=".206" stop-color="#FD6B05"/><stop offset=".419" stop-color="#F75E04"/><stop offset=".636" stop-color="#ED4A04"/><stop offset=".854" stop-color="#DF2D03"/><stop offset="1" stop-color="#D41502"/></linearGradient><path fill="url(#A)" d="M2197.7 718.4l-38.9-40.4V575.4l41.6 36"/><path fill="#FD7A0C" d="M2224.4 608l-26 .6-39.6-35.4h26.4"/><path fill="#FF881E" d="M2223.2 608.6h-23.1l-32.9-29.7c-1.4-1.3-.5-3.6 1.4-3.6h16.9c.5 0 1 .2 1.4.5l36.3 32.8z"/><path fill="#ED5300" d="M2158.8 573.2l39.6 35.4v4l-39.6-36.5"/><path fill="#ED5501" d="M2221.5 719.5h-21c-2.1 0-3.7-1.7-3.7-3.7V610.4c0-1.6 1.3-3.4 2.9-3.8 7.5-1.9 15.3-1.9 22.7 0 1.6.4 2.9 2.2 2.9 3.8v105.4c-.1 2-1.7 3.7-3.8 3.7z"/><path fill="#F96601" d="M2221.5 713.8c-5.1-.1-13.1-.1-18.2-.1-2.1 0-3.7-1.7-3.7-3.7-1.9-33.6-1-67-2.8-99.6 0-1.6 1.3-3.4 2.9-3.8 7.5-1.9 15.3-1.9 22.7 0 1.6.4 2.9 2.2 2.9 3.8v99.8c-.1 2-1.7 3.6-3.8 3.6z"/><g><linearGradient id="B" gradientUnits="userSpaceOnUse" x1="2214.846" y1="547.609" x2="2214.846" y2="690.609" gradientTransform="rotate(180 2109.723 633.005)"><stop offset="0" stop-color="#FF6F05"/><stop offset=".206" stop-color="#FD6B05"/><stop offset=".419" stop-color="#F75E04"/><stop offset=".636" stop-color="#ED4A04"/><stop offset=".854" stop-color="#DF2D03"/><stop offset="1" stop-color="#D41502"/></linearGradient><path fill="url(#B)" d="M1986.5 718.4l38.9-40.4V575.4l-41.6 36"/><path fill="#FD7A0C" d="M1959.9 608l25.9.6 39.6-35.4h-26.3"/><path fill="#FF881E" d="M1961 608.6h23.1l32.9-29.7c1.4-1.3.5-3.6-1.4-3.6h-16.9c-.5 0-1 .2-1.4.5l-36.3 32.8z"/><path fill="#ED5300" d="M2025.4 573.2l-39.6 35.4v4l39.6-36.5"/><path fill="#ED5501" d="M1962.8 719.5h21c2.1 0 3.7-1.7 3.7-3.7V610.4c0-1.6-1.3-3.4-2.9-3.8-7.5-1.9-15.3-1.9-22.7 0-1.6.4-2.9 2.2-2.9 3.8v105.4c0 2 1.7 3.7 3.8 3.7z"/><path fill="#F96601" d="M1983.8 713.8c-5.1-.1-13.1-.1-18.2-.1-2.1 0-3.7-1.7-3.7-3.7-1.9-33.6-1-67-2.8-99.6 0-1.6 1.3-3.4 2.9-3.8 7.5-1.9 15.3-1.9 22.7 0 1.6.4 2.9 2.2 2.9 3.8v99.8c-.1 2-1.7 3.6-3.8 3.6z"/></g><g><path fill="#FFC687" d="M2141.2 450.2s.1-24.9-17.2-41c-10.7-10-56.2-9.6-66.8.2-17.3 16.2-17.2 41-17.2 41-5.3 40.2 26.1 68 26.1 68l3.2 8.2 21.6-7.7 20.9 7.4 3.2-8.2c.2.1 31.6-27.7 26.2-67.9z"/><path fill="#FFC687" d="M2044.3 473.2c-5.4.2-10-6.3-10.4-14.6-.3-8.3 3.7-15.2 9.1-15.4 5.4-.2 10 6.3 10.4 14.6.3 8.3-3.8 15.2-9.1 15.4zm103.9-15.4c.3 8.3-3.8 15.1-9.2 15.3-5.4.2-10.1-6.3-10.4-14.6-.3-8.3 3.8-15.1 9.2-15.3 5.3-.2 10.1 6.3 10.4 14.6z"/><path fill="#534741" d="M2151.8 415.7c.6-3.7-5.5-11.8-5.5-11.8-.6-.5-1.3-1.1-2-1.5-9-6.2-46.1-7.1-57.4-6.5-10.4.4-42-3.4-48.6 4.2-5.8 6.7-16.1 45.7-1.4 49.4 3.6 1 7.7-3.1 11.4-8.6 8.2 7.4 26.3 12.6 47.3 12.6 16.7 0 31.7-3.3 41.2-8.4 3.5 5.3 7.5 9.1 11.2 8.3 10.5-2.8 8.1-23.6 3.8-37.7z"/></g><g><linearGradient id="C" gradientUnits="userSpaceOnUse" x1="2240.051" y1="547.31" x2="2240.051" y2="790.235" gradientTransform="matrix(1 0 0 -1 -147.6 1266.01)"><stop offset="0" stop-color="#D41502"/><stop offset=".082" stop-color="#E02E03"/><stop offset=".186" stop-color="#EB4604"/><stop offset=".304" stop-color="#F45804"/><stop offset=".443" stop-color="#FA6505"/><stop offset=".624" stop-color="#FE6D05"/><stop offset="1" stop-color="#FF6F05"/></linearGradient><path fill="url(#C)" d="M2200.4 718.7h-216V540.4c0-29.9 24-55.5 54.5-60.5 35.5-5.5 71.6-5.5 107.1 0 30.5 5 54.5 30.6 54.5 60.5-.1 60.2-.1 118.1-.1 178.3z"/><path fill="#E50" d="M2200.4 544.7v133.4c0 1.6-1.7 3.3-3.8 3.8-58.3 13.4-120.1 15.3-179.4 5.7-18.3-3.1-32.8-17.7-32.8-31.1V544.7c0-21.6 23.9-40.1 54.5-44.3 35.5-4.3 71.6-4.3 107.1 0 30.5 4.2 54.5 22.7 54.4 44.3z"/><path fill="#EE6101" d="M2200.4 534.6v120c0 8.9-9.6 18.6-21.7 20.9-29.1 5.5-58.8 8.1-88.6 8-59.4-1-105.7-99.3-105.7-140.5v-8.4c0-21.6 23.9-40.1 54.5-44.4 35.5-4.3 71.6-4.3 107.1 0 30.5 4.3 54.5 22.8 54.4 44.4z"/><path fill="#FF891F" d="M2200.4 536.9c0-29.9-24-55.5-54.5-60.5-35.5-5.5-71.6-5.5-107.1 0-30.5 5-54.5 30.6-54.5 60.5v11.2c0-29.9 24-55.5 54.5-60.5 35.5-5.5 71.6-5.5 107.1 0 30.5 5 54.5 30.6 54.5 60.5"/></g></g><path fill="#BD9B4E" d="M1847.4 114.6l7.5 6.3V666h-7.5"/><path fill="#DCB45B" d="M2649 114.6l-7.5 6.3h-786.6l-7.5-6.3"/><path fill="#BD9B4E" d="M2641.5 120.9l7.5-6.3V666h-7.5"/><g><path fill="#E3821F" d="M2605.8 35.4c0 67.9-166.1 122.9-371.1 122.9s-371.1-55-371.1-122.9c0-12.3 5.4-24.2 15.6-35.4h711c10.2 11.2 15.6 23.1 15.6 35.4z"/><path d="M2087 101.1c56 27.1 122.3 35.9 182.8 36.9 61.5.9 119.9-12.3 175.8-33.4-27 6.4-53.9 13.5-81.7 17-33.9 4.2-67.7 6.7-102.1 6.4-58-.7-118.8-8.7-174.8-26.9zM2107.1 54c45.7 23 101.1 30.7 150.8 30.9 49.5.3 96.3-10.5 141.1-28.2-49.9 11.1-99 18.7-151 18.1-46.8-.6-95.6-6.9-140.9-20.8zM2140.3 14.9c51.6 29.4 122.9 25.9 172.7 1.6-27.6 4-54.4 8.8-82.7 8.8-30.1 0-60.3-3.7-90-10.4z" opacity=".1"/><use xlink:href="#D" width="284.2" height="664.6" x="-142.1" y="-332.3" transform="matrix(1 0 0 -1 1900.14 332.3)" overflow="visible"/><use xlink:href="#D" width="284.2" height="664.6" x="-142.1" y="-332.3" transform="rotate(180 1293.843 166.15)" overflow="visible"/></g><path fill="#BD9B4E" d="M2304 418.4c0 2.1-1.7 3.9-3.9 3.9h-32.4c-2.1 0-3.9-1.7-3.9-3.9v-1c0-2.1 1.7-3.9 3.9-3.9h32.4c2.1 0 3.9 1.7 3.9 3.9v1zm-78.6 0c0 2.1-1.7 3.9-3.9 3.9h-32.4c-2.1 0-3.9-1.7-3.9-3.9v-1c0-2.1 1.7-3.9 3.9-3.9h32.4c2.1 0 3.9 1.7 3.9 3.9v1z"/></svg>