<svg xmlns="http://www.w3.org/2000/svg" xmlns:xlink="http://www.w3.org/1999/xlink" width="2730" height="1536" viewBox="0 0 2730 1536"><symbol id="L" viewBox="-142.1 -332.3 284.2 664.6"><path fill="#FF931E" d="M142.1 332.3c-7.5-40.3-19-80.2-32.2-119-21-61.6-47.5-122.7-88.4-173.8C-7.9 2.7-43.3-28.4-81.2-56c-6.7-4.8-18.8-10.7-24.3-17.8-.4-.5-.7-1-1-1.5-.8-1.4-1.3-2.9-1.6-4.6-.8-5.4.7-11.9.7-17 0-13.3-.3-26.5-.8-39.8-1-25.4-2.1-51.9-8.7-76.5-1.6-6-13-99.7-16.1-109-1.6-4.9-4.2-10.1-9.1-10.1l.1 263.7v8.8l.2 392.1h283.9z"/><path d="M103.1 308.5c-6.6-67.3-37.5-133.9-72.6-190.6C-5.3 60.1-53.2 13.3-107.4-26.8-85-5.3-61.9 15.7-41.9 39.6c24.4 29.2 47 59.1 67.2 91.4 33.9 54.2 62.3 115.2 77.8 177.5zM44.5 316.3c-4.5-55.4-30-111.2-59.4-157.5-29.3-46.2-67.8-83.7-112-115.4C-86.2 83.5-49.4 124.9-19 173.6c27.4 43.8 50.2 92.7 63.5 142.7zM-13.9 307.3c-1.7-64.4-47.8-128.8-101.4-161.4 20.4 23.4 41.1 45.7 58 71.9 18 28 32.3 58.2 43.4 89.5z" opacity=".1"/><path fill="#FF9C73" d="M-105.5-75.5l-.9-2.7c-.3-.8-.9-1.4-1.7-1.7-.6-.2-1.2-.2-1.8 0l-32 11.3v8.8c.2 0 .4-.1.7-.1l34.1-12c.9-.3 1.5-1 1.7-1.8.1-.6.1-1.2-.1-1.8z"/></symbol><symbol id="o" viewBox="-40 -26.4 80.1 52.8"><linearGradient id="a" gradientUnits="userSpaceOnUse" x1="21601.887" y1="5943.578" x2="21645.805" y2="5943.578" gradientTransform="rotate(57.63 16214.53 -16682.846)"><stop offset="0" stop-color="#FF8F29"/><stop offset=".214" stop-color="#FDA62E"/><stop offset=".515" stop-color="#FAC034"/><stop offset=".786" stop-color="#F9D038"/><stop offset="1" stop-color="#F8D539"/></linearGradient><path fill="url(#a)" d="M12.1 18.6c0-4.7 1.7-6.4 6.3-6-2-4.2-1-6.3 3.4-7.7-3.4-3.1-3.3-5.5.2-8.4-4.3-1.6-5.2-3.9-3.1-8.1-4.7 0-6.4-1.7-6-6.3-4.2 2-6.3 1-7.7-3.4C2-18-.3-18.1-3.3-21.6c-1.6 4.3-3.9 5.2-8.1 3.1 0 4.7-1.7 6.4-6.3 6 2 4.2 1 6.3-3.4 7.7 3.4 3.1 3.3 5.5-.2 8.4 4.3 1.6 5.2 3.9 3.1 8.1 4.7 0 6.4 1.7 6 6.3 4.2-2 6.3-1 7.7 3.4 3.1-3.4 5.5-3.3 8.5.2 1.6-4.2 4-5.1 8.1-3z"/><linearGradient id="b" gradientUnits="userSpaceOnUse" x1="-18.892" y1="17.942" x2="19.624" y2="-17.974"><stop offset="0" stop-color="#F6F43F"/><stop offset=".245" stop-color="#F7EF3D"/><stop offset=".555" stop-color="#F9DF36"/><stop offset=".899" stop-color="#FEC52B"/><stop offset="1" stop-color="#FFBC27"/></linearGradient><path fill="url(#b)" d="M26.8 0c-8.8-2.4-9.3-4.7-2.1-10.3-9 1.3-10.3-.6-5.6-8.4-7.8 4.6-9.7 3.3-8.4-5.6-5.5 7.2-7.8 6.7-10.3-2.1-2.4 8.8-4.8 9.3-10.4 2.1 1.3 9-.6 10.3-8.4 5.6 4.6 7.8 3.3 9.7-5.6 8.4 7.2 5.5 6.7 7.8-2 10.3 8.8 2.4 9.3 4.7 2.1 10.3 9-1.3 10.3.6 5.6 8.4 7.8-4.6 9.7-3.3 8.4 5.6 5.5-7.2 7.8-6.7 10.3 2.1 2.4-8.8 4.7-9.3 10.3-2.1-1.3-9 .6-10.3 8.4-5.6-4.6-7.8-3.3-9.7 5.6-8.4C17.5 4.8 18 2.5 26.8 0z"/><linearGradient id="c" gradientUnits="userSpaceOnUse" x1=".45" y1="-17.9" x2=".45" y2="17.899"><stop offset="0" stop-color="#FF8F29"/><stop offset=".214" stop-color="#FDA62E"/><stop offset=".515" stop-color="#FAC034"/><stop offset=".786" stop-color="#F9D038"/><stop offset="1" stop-color="#F8D539"/></linearGradient><path fill="url(#c)" d="M18.4 0c0-9.9-8-17.9-17.9-17.9-9.9 0-17.9 8-17.9 17.9 0 9.9 8 17.9 17.9 17.9 9.9 0 17.9-8 17.9-17.9z"/><linearGradient id="d" gradientUnits="userSpaceOnUse" x1=".45" y1="-16.322" x2=".45" y2="2.603"><stop offset="0" stop-color="#FFF" stop-opacity=".2"/><stop offset="1" stop-color="#FFF" stop-opacity="0"/></linearGradient><path fill="url(#d)" d="M.5-14.3c-9.6 0-17.4 7.5-17.9 16.9v-1c0-9.9 8-17.9 17.9-17.9 9.9 0 17.9 8 17.9 17.9v1C17.8-6.8 10-14.3.5-14.3z"/><linearGradient id="e" gradientUnits="userSpaceOnUse" x1=".45" y1="-17.369" x2=".45" y2="1.557"><stop offset="0" stop-color="#F9622D" stop-opacity=".4"/><stop offset=".31" stop-color="#FA772E" stop-opacity=".276"/><stop offset=".948" stop-color="#FBAC32" stop-opacity=".021"/><stop offset="1" stop-color="#FBB132" stop-opacity="0"/></linearGradient><path fill="url(#e)" d="M.5-15.3c-9.6 0-17.4 7.5-17.9 16.9v-1c0-9.9 8-17.9 17.9-17.9 9.9 0 17.9 8 17.9 17.9v1C17.8-7.9 10-15.3.5-15.3z"/><linearGradient id="f" gradientUnits="userSpaceOnUse" x1="-6370.115" y1="-11064.723" x2="-6357.947" y2="-11076.069" gradientTransform="rotate(-31.892 16206.373 -16667.737)"><stop offset="0" stop-color="#F8FF61" stop-opacity=".9"/><stop offset="1" stop-color="#F9FF73" stop-opacity="0"/></linearGradient><path fill="url(#f)" d="M.5 1C-5.3.9-10.1 4.6-10.1 9c0 4.5 4.7 8.2 10.5 8.2S11 13.6 11 9.2 6.4 1.1.5 1z"/><g opacity=".2"><path opacity=".76" d="M5.8-1.4c-1.3 0-7.4.3-7.7 0-1.3-1-.6-3.2.6-4C0-6.2 1.9-6 3.3-5.5c.3.1.7.3 1.1.5.1.2.6.6.9.5.5-.2.2-1.5.1-1.8-.4-.6-1.3-.9-1.8-1.1-.7-.3-1.6-.4-2.3-.4-1.8-.1-3.7.4-4.9 1.7-1.2 1.3-1.6 3.3-1 4.9-.2 0-.4 0-.5.1-.4.2-.3.8-.3 1.1.1.5.6.4 1.1.4.2 0 .4-.1.6 0 .3.1.7.5.8.6C-2 1.6-1 2 0 2.4c-.8 0-4.1-.1-4.9.1-.6.1-.6 1.1-.4 1.5.3.2.4.1.7.1.8 0 6.6-.2 6.9-.1.5.1.7.8.7 1.3.2 2.2-2.2 2.9-4 2.5-.4-.1-.8-.3-1.2-.4-.3-.1-.9-.6-1.2-.6-.6.1-.5 1.6-.1 1.9.3.4.8.5 1.2.7.5.2 1.1.3 1.7.4 1.1.1 2.4 0 3.4-.5 2.1-.9 3-3.2 2.4-5.3.6-.1 1.1 0 1.1-.8 0-.3 0-.8-.4-.9h-.7c-.3 0-.6.1-.8 0-.3 0-.4-.1-.5-.3C3 1.2 2 .7 1 .3 2.1.3 5.3.3 5.8.2c.2 0 .4-.1.4-.3.1-.3.1-1.3-.4-1.3z"/></g><path opacity=".76" fill="#FFF" d="M5.8-.7c-1.4 0-7.3.2-7.5.1-.4-.1-.6-.7-.7-1C-3-3.2-2-4.6-.5-5c1.6-.5 3.5.1 5 .9.5.3 1 .3 1-.4 0-.5 0-1.1-.4-1.5-.4-.5-1.3-.7-2-.9-.6-.2-1.5-.3-2.2-.3-1.8 0-3.6.6-4.7 2-1 1.3-1.4 3.1-.8 4.6-.6 0-.8.2-.8.8-.1.5.1.8.6.8h.8c.4 0 .4.2.7.4.9.7 2 1.1 3.1 1.6-.8 0-4.8 0-5.1.1-.4.2-.3 1.1-.1 1.4.3.2.4.1.6.1 1 0 6.9-.2 7-.1.3.1.5.8.5 1 .1.4.1.9-.1 1.3-.8 2.1-3.4 1.8-5 1.1-.5-.3-1.5-1.1-1.6 0 0 .6 0 1.3.6 1.7.8.5 1.9.7 2.8.8 1.1.1 2.3-.1 3.3-.6 1.9-1 2.8-3.2 2.2-5.2.5 0 1 .1 1.2-.5C6.3 3.5 6 3 5.5 3h-1c-.4 0-.4 0-.5-.1C3 2.1 2 1.5.9 1 2 1 3.4 1 4.5.9c.3 0 .9.1 1.2 0 .7-.2.7-1.7.1-1.6z"/><g><path opacity=".7" fill="#FFF" d="M39.8-2.9c-1.4-1.6-2.8-3.2-4.3-4.8L34-9.2l-.9-.9-.2-.2c-.2-.2-.3-.3-.5-.4l-.1-.1c-.3-.3-.6-.5-.9-.8-.2-.2-.4-.4-.6-.5-5.6-4.7-12-8.3-19.5-9-.4 0-.8-.1-1.2-.1H7.3c-1.6.1-3.2.4-4.7.8l-.9.3c-.5.2-1.1.4-1.6.6v5.6c.7-.3 1.3-.7 2-.9.3-.1.5-.2.8-.3.5-.2 1.1-.4 1.6-.5.5-.1 1.1-.2 1.7-.3h.4c.4-.1.9-.1 1.4-.2h1c4.9-.2 9.7 1.2 14.1 3.2 1.4.6 2.7 1.3 4 2.1.3.2.6.3.9.5.5.3 1 .6 1.4.9.2.1.4.2.5.3.1.1.4.3.6.4.5.3 1.1.7 1.6 1 2.7 1.4 5.2 3.1 7.7 4.8z"/><path fill="#0179B6" d="M39.8-4.9c-1.5-1.8-3.1-3.5-4.8-5.2l-1-1-.4-.4-.8-.8-.5-.5c-5.9-5.4-12.8-9.5-21-10.3-3.9-.4-7.8.2-11.3 1.5v5.6h.1c.2-.1.5-.2.7-.4.5-.2 1-.5 1.5-.6.5-.2 1.1-.4 1.6-.5.1 0 .2-.1.3-.1l1.5-.3c.3 0 .4-.1.7-.1h.3c5.6-.8 11.4.6 16.5 3 2.2 1 4.3 2.2 6.3 3.4.2.1.5.3.7.4.4.2.8.5 1.2.8.1.1.2.1.3.2.2.1.4.3.6.4.5.3.9.6 1.4.9l1.8 1.2c1.5.9 2.9 1.9 4.3 2.8z"/><linearGradient id="g" gradientUnits="userSpaceOnUse" x1=".05" y1="-15.4" x2="36.05" y2="-15.4"><stop offset="0" stop-color="#0086C0"/><stop offset=".222" stop-color="#0791C9"/><stop offset=".656" stop-color="#12A1D6"/><stop offset="1" stop-color="#16A6DB"/></linearGradient><path fill="url(#g)" d="M36-8.1c-.5-.5-1-1-1.5-1.6-.3-.4-.7-.7-1.1-1.1l-.5-.5-.8-.8c-.2-.2-.4-.3-.5-.5-5.5-4.9-12.3-9.2-20.4-10-.8-.1-1.6-.1-2.4-.1-2.8 0-5.4.5-8 1.4-.3.1-.4.2-.8.3v4.2h.1c.5-.3 1-.5 1.5-.7s1.1-.4 1.6-.6c.1 0 .2-.1.3-.1.5-.1 1-.3 1.5-.4.3-.1.6-.1.9-.2.1 0 .2 0 .4-.1 1.1-.2 2.3-.3 3.5-.3 4.3 0 8.9 1.1 13.6 3.2 2.4 1.1 4.6 2.4 6.8 3.7.2.1.5.3.7.4.4.2.8.5 1.1.7.1 0 .1.1.2.1.2.1.4.2.6.4.1 0 .1.1.2.1.4.2.8.5 1.1.7.8 1 1.4 1.4 1.9 1.8z"/><linearGradient id="h" gradientUnits="userSpaceOnUse" x1=".025" y1="-19.201" x2="22.926" y2="-19.201"><stop offset="0" stop-color="#40C1EE" stop-opacity="0"/><stop offset="1" stop-color="#4FCAF4"/></linearGradient><path fill="url(#h)" d="M23-17.2c-4-2.2-8-3.5-12-3.9-.3 0-.7-.1-1-.1H7.2c-1.6.1-3.1.4-4.6.8l-.9.3c-.5.2-1.1.4-1.6.6H0v1.4c.5-.2 1-.5 1.6-.7h.1c.5-.2 1-.4 1.6-.5.3-.1.6-.2.9-.2.6-.1 1.2-.3 1.8-.3 1.2-.2 2.5-.3 3.7-.3 4.3-.1 8.8.9 13.3 2.9z"/><g><path opacity=".7" fill="#FFF" d="M40-16.8c-1 1.1-2 2.1-3.1 3-1 .8-2.1 1.6-3.3 2.3-.1 0-.2.1-.2.1-.1.1-.2.1-.4.2-.3.1-.6.2-.8.4-.1 0-.1.1-.2.1-.2.1-.5.2-.7.3-.6.3-1.3.5-1.9.7-1.9.6-4 .9-6.1.9h-1.5c-.3 0-.6-.1-.9-.1h-.2c-2.5-.3-4.9-1.1-7.1-2.3-2.5-1.3-4.7-3.2-7-4.9-.3-.2-.5-.4-.8-.6l-1.5-.9c-.3-.2-.4-.3-.8-.4-.6-.3-1.2-.6-1.8-.8s-1.1-.5-1.7-.7v5.5c.7.2 1.2.5 1.8.8 2.7 1.6 5.1 3.6 7.8 5.1C15.1-4.9 22-4 28.1-6.1c1.5-.5 2.9-1.1 4.2-1.9.5-.3 1-.6 1.4-1l.3-.3c0-.1 0-.1.1-.2s.3-.2.4-.3c.2 0 .3-.1.5-.3 2.1-1.8 3.9-4.1 5-6.7z"/><path fill="#0179B6" d="M40-18.8c-2.2 2.5-4.8 4.6-7.8 6l-.6.3c-.3.1-.6.2-.8.3-.2.1-.4.1-.6.2-.3.1-.5.2-.8.3-.8.2-1.5.4-2.3.6-1.2.2-2.4.3-3.7.3-3.4 0-6.7-.8-9.7-2.4-1.7-.9-3.2-2-4.7-3.1-.8-.6-1.6-1.2-2.4-1.7-.3-.2-.5-.4-.8-.5-.5-.3-1-.7-1.6-1-.5-.3-1.1-.6-1.6-.9h-.1c-.6-.3-1.1-.5-1.7-.7-.3-.1-.5-.2-.8-.3v5.4h.1c.6.3 1.1.5 1.7.9.2.1.2.1.3.2 2.6 1.5 4.9 3.5 7.5 5 5.6 3.2 12.4 4.1 18.6 2 .8-.3 1.7-.6 2.5-1 .6-.3 1.1-.6 1.6-.9.2-.1.4-.2.6-.4.2-.1.4-.3.6-.4.2-.1.3-.3.5-.4 1-.8 2-1.7 2.9-2.7 1.2-1.6 2.4-3.2 3.1-5.1z"/><linearGradient id="i" gradientUnits="userSpaceOnUse" x1=".025" y1="-14.144" x2="36.973" y2="-14.144"><stop offset="0" stop-color="#0086C0"/><stop offset=".222" stop-color="#0791C9"/><stop offset=".656" stop-color="#12A1D6"/><stop offset="1" stop-color="#16A6DB"/></linearGradient><path fill="url(#i)" d="M37-14.9c-1.3 1-2.7 1.9-4.2 2.6l-.6.3c-.3.1-.5.2-.8.3-.1.1-.3.1-.4.2-.3.1-.5.2-.8.3-.7.2-1.4.4-2.2.6-1.5.3-3 .5-4.6.5h-.6c-3.3-.1-6.5-1-9.4-2.5-1.8-1-3.4-2.2-5-3.4-.1-.1-.2-.2-.4-.3-.7-.5-1.5-1.1-2.2-1.6-.2-.1-.3-.1-.3-.2-.2-.1-.4-.2-.5-.3l-1.5-.9s-1.1-.5-1.6-.8c0 0-.1 0-.1-.1-.5-.2-1.1-.4-1.6-.6v4.1h.1c.3.1.5.2.8.3.4.2.9.4 1.3.7.2.1.5.3.7.4.9.8 1.9 1.5 2.9 2.2 1.3.9 2.5 1.8 3.9 2.6 3.2 1.9 6.9 2.9 10.6 3 2.5.1 5-.3 7.5-1.1.7-.2 1.4-.5 2-.8.6-.3 1.1-.6 1.7-.9.2-.1.4-.2.6-.4.1 0 .1-.1.1-.1.2-.1.4-.3.6-.4.1-.1.2-.2.3-.2s.1-.1.2-.2c1.4-.9 2.5-2.1 3.5-3.3z"/><linearGradient id="j" gradientUnits="userSpaceOnUse" x1=".025" y1="-14.051" x2="22.726" y2="-14.051"><stop offset="0" stop-color="#40C1EE" stop-opacity="0"/><stop offset="1" stop-color="#4FCAF4"/></linearGradient><path fill="url(#j)" d="M22.8-8.8c-3.5-.1-6.9-1-9.9-2.6-1.9-1-3.6-2.3-5.2-3.5-.5-.4-1-.7-1.5-1.1-.4-.3-.9-.6-1.4-.9-.3-.2-.5-.4-.8-.5-.2-.2-.5-.4-.7-.5-.5-.3-1.1-.6-1.6-.8-.5-.2-1-.5-1.6-.7v1.3c.5.2 1.1.4 1.6.7.3.1.4.3.8.4 0 .1.2.2.3.2.6.3 1.2.7 1.7 1.1.8.5 1.5 1 2.3 1.6 1.2.9 2.5 1.8 3.8 2.5 3.1 1.8 6.5 2.7 10 2.9.7-.1 1.4-.1 2.2-.1z"/></g><g><path opacity=".7" fill="#FFF" d="M-39.8-2.9c1.4-1.6 2.8-3.2 4.3-4.8l1.5-1.5.9-.9.2-.2c.2-.2.3-.3.5-.4.1-.1.1-.1.2-.1.3-.3.6-.5.9-.8.2-.2.4-.3.6-.5 5.6-4.7 12-8.3 19.5-9 .4 0 .8-.1 1.2-.1h2.8c1.6.1 3.2.4 4.7.8l.9.3c.5.2 1.1.4 1.6.6v5.6c-.7-.3-1.3-.7-2-.9-.3-.1-.5-.2-.8-.3-.5-.2-1.1-.4-1.6-.5-.5-.1-1.1-.2-1.7-.3h-.4c-.5-.1-.9-.1-1.4-.2h-1c-4.9-.2-9.7 1.2-14.1 3.2-1.4.6-2.7 1.3-4 2.1-.3.2-.6.3-.9.5-.5.3-1 .6-1.4.9-.2.1-.4.2-.5.3-.2.1-.3.3-.7.4-.5.3-1 .7-1.5 1-2.6 1.4-5.1 3.1-7.8 4.8z"/><path fill="#0179B6" d="M-39.8-4.9c1.5-1.8 3.1-3.5 4.8-5.2l1-1 .4-.4c.3-.2.5-.5.8-.7l.5-.5c5.9-5.4 12.8-9.5 21-10.3 3.9-.4 7.7.2 11.2 1.5v5.6h-.1c-.2-.1-.5-.3-.7-.4-.5-.2-1-.5-1.5-.6-.5-.2-1.1-.4-1.6-.5-.1 0-.2-.1-.3-.1-.5-.1-1-.2-1.4-.3-.2 0-.4-.1-.6-.1h-.3c-5.6-.8-11.4.6-16.5 3-2.2 1-4.3 2.2-6.3 3.4-.2.1-.5.3-.7.4-.4.2-.8.5-1.2.8-.1.1-.2.1-.3.2-.2.1-.4.3-.6.4-.5.3-.9.6-1.4.9l-1.8 1.2c-1.5.8-2.9 1.8-4.4 2.7z"/><linearGradient id="k" gradientUnits="userSpaceOnUse" x1="32507.154" y1="-15.4" x2="32543.154" y2="-15.4" gradientTransform="matrix(-1 0 0 1 32507.18 0)"><stop offset="0" stop-color="#0086C0"/><stop offset=".222" stop-color="#0791C9"/><stop offset=".656" stop-color="#12A1D6"/><stop offset="1" stop-color="#16A6DB"/></linearGradient><path fill="url(#k)" d="M-36-8.1c.5-.5 1-1 1.5-1.6.3-.4.7-.7 1.1-1.1l.5-.5.8-.8.5-.5c5.5-4.9 12.3-9.2 20.4-10 .8-.1 1.6-.1 2.4-.1 2.8 0 5.4.5 8 1.4.3.1.5.2.8.3v4.2h-.1c-.5-.3-1-.5-1.5-.7s-1.1-.4-1.6-.6c-.1 0-.2-.1-.3-.1-.5-.1-1-.3-1.5-.4-.3-.1-.6-.1-.9-.2-.1 0-.2 0-.4-.1-1.1-.2-2.3-.3-3.5-.3-4.3 0-8.9 1.1-13.6 3.2-2.4 1.1-4.6 2.4-6.9 3.7-.2.1-.5.3-.7.4-.4.2-.8.5-1.1.7-.1 0-.1.1-.2.1-.2.1-.4.2-.6.4-.1 0-.1.1-.2.1-.4.2-.8.5-1.1.7-.6 1-1.2 1.4-1.8 1.8z"/><linearGradient id="l" gradientUnits="userSpaceOnUse" x1="32507.154" y1="-19.201" x2="32530.078" y2="-19.201" gradientTransform="matrix(-1 0 0 1 32507.18 0)"><stop offset="0" stop-color="#40C1EE" stop-opacity="0"/><stop offset="1" stop-color="#4FCAF4"/></linearGradient><path fill="url(#l)" d="M-22.9-17.2c3.9-2.2 7.9-3.5 11.9-3.9.3 0 .7-.1 1-.1h2.8c1.6.1 3.1.4 4.6.8l.9.3c.5.2 1.1.4 1.6.6H0v1.4c-.5-.2-1-.5-1.6-.7-.1 0-.1 0-.2-.1-.5-.2-1-.4-1.6-.5-.3-.1-.6-.2-.9-.2-.6-.1-1.2-.3-1.8-.3-1.2-.2-2.5-.3-3.7-.3-4.2 0-8.6 1-13.1 3z"/><g><path opacity=".7" fill="#FFF" d="M-40-16.8c1 1.1 2 2.1 3.1 3 1 .8 2.1 1.6 3.3 2.3.1 0 .2.1.2.1.1.1.2.1.4.2s.5.2.7.4c.1 0 .1.1.2.1.2.1.5.2.7.3.6.3 1.3.5 1.9.7 1.9.6 4 .9 6.1.9h1.5c.3 0 .6-.1.9-.1h.2c2.5-.3 4.9-1.1 7.1-2.3 2.5-1.3 4.7-3.2 7-4.9.3-.2.5-.4.8-.6l1.5-.9c.3-.2.5-.3.8-.4.6-.3 1.1-.6 1.7-.8s1.1-.5 1.7-.7H0v5.5c-.5.2-1.1.5-1.6.8-2.7 1.6-5.1 3.6-7.8 5.1C-15-4.9-21.9-4-28-6.1c-1.5-.5-2.8-1.1-4.1-1.9-.5-.3-1-.6-1.4-1l-.3-.3s-.2-.1-.2-.2c-.1-.1-.3-.2-.4-.3-.2-.1-.3-.3-.5-.4-2.1-1.7-3.9-4-5.1-6.6z"/><path fill="#0179B6" d="M-40-18.8c2.2 2.5 4.8 4.6 7.8 6l.6.3c.3.1.6.2.8.3.2.1.4.1.6.2.3.1.5.2.8.3.8.2 1.5.4 2.3.6 1.2.2 2.5.3 3.7.3 3.4 0 6.7-.8 9.7-2.4 1.7-.9 3.2-2 4.7-3.1.8-.6 1.6-1.2 2.4-1.7.3-.2.5-.4.8-.5.5-.3 1-.7 1.6-1 .5-.3 1.1-.6 1.6-.8h.1c.6-.3 1.1-.5 1.7-.7.3-.1.5-.2.8-.3v5.4h-.1c-.6.3-1.1.5-1.7.9-.2.1-.2.1-.3.2-2.6 1.5-4.9 3.5-7.5 5-5.6 3.2-12.4 4.1-18.6 2-.8-.3-1.7-.6-2.5-1-.6-.3-1.1-.6-1.6-.9-.2-.1-.4-.3-.6-.4-.2-.1-.4-.3-.6-.4-.2-.1-.4-.3-.5-.4-1-.8-2-1.7-2.9-2.7-1.2-1.7-2.2-3.3-3.1-5.2z"/><linearGradient id="m" gradientUnits="userSpaceOnUse" x1="32507.154" y1="-14.144" x2="32544.102" y2="-14.144" gradientTransform="matrix(-1 0 0 1 32507.18 0)"><stop offset="0" stop-color="#0086C0"/><stop offset=".222" stop-color="#0791C9"/><stop offset=".656" stop-color="#12A1D6"/><stop offset="1" stop-color="#16A6DB"/></linearGradient><path fill="url(#m)" d="M-37-14.9c1.3 1 2.7 1.9 4.2 2.6l.6.3c.3.1.5.2.8.3.1.1.3.1.4.2.3.1.5.2.8.3.7.2 1.4.4 2.2.6 1.5.3 3 .5 4.6.5h.6c3.3-.1 6.5-1 9.4-2.5 1.8-1 3.4-2.2 5-3.4.1-.1.2-.2.4-.3.7-.6 1.5-1.1 2.3-1.6.1-.1.2-.1.2-.2.2-.1.4-.2.5-.3.5-.3 1.1-.6 1.6-.9s1.1-.5 1.6-.8c0 0 .1 0 .1-.1.5-.2 1.1-.4 1.6-.6v4.1h-.1c-.3.1-.5.2-.8.3-.4.2-.9.4-1.3.7-.2.1-.5.3-.7.4-.9.8-2 1.5-3 2.2-1.2.9-2.5 1.8-3.9 2.6-3.2 1.9-6.9 2.9-10.6 3-2.5.1-5-.3-7.5-1.1-.7-.2-1.4-.5-2-.8-.6-.3-1.1-.6-1.7-.9-.2-.1-.4-.2-.6-.4-.1 0-.1-.1-.1-.1-.2-.1-.4-.3-.6-.4-.1-.1-.2-.2-.3-.2l-.2-.2c-1.3-.9-2.5-2.1-3.5-3.3z"/><linearGradient id="n" gradientUnits="userSpaceOnUse" x1="32507.154" y1="-13.951" x2="32529.869" y2="-13.951" gradientTransform="matrix(-1 0 0 1 32507.18 0)"><stop offset="0" stop-color="#40C1EE" stop-opacity="0"/><stop offset="1" stop-color="#4FCAF4"/></linearGradient><path fill="url(#n)" d="M-22.6-8.8c3.5-.1 6.9-1 9.9-2.6 1.9-1 3.6-2.3 5.2-3.5.5-.4 1-.7 1.5-1.1.4-.3.9-.6 1.4-.9.3-.2.5-.4.8-.5.2-.2.5-.3.8-.4.5-.3 1.1-.6 1.6-.8s1-.5 1.6-.7v1.3c-.5.2-1.1.4-1.6.7-.4.1-.6.3-.9.4-.1.1-.3.1-.4.2-.6.3-1.2.7-1.7 1.1-.8.5-1.5 1-2.3 1.6-1.2.9-2.5 1.8-3.8 2.5-3.1 1.8-6.5 2.8-10 2.9-.6-.1-1.5-.2-2.1-.2z"/></g></g></g></symbol><path fill="#FFF" d="M818 361.6c-2-.9-3-2.4-3-4.7-2.3.6-4.6.9-7 1-1 1.3-3.2 2-4-.2-8.5-.8-16.5-4.6-24.4-11.6 7.3-4-15.2 13.4-10.5 3.3-.5-3.6 1-6.5 4.7-8.9-3.2-1.7-4.7-4-4.4-7.2-4-6.3 10.3 2.1 10.7 2.3 3.6-1.9 7.4-3 11.5-3.2-6.6-3.2-8.5-3.9-.8-7.1-.7-1.5.6-2.5 1.9-3.1-4.9-6.1-6.8-7.3 1.6-7.1-.1-1.3 1-2.1 2.3-2.2h.4c-2.7-7.8-3.3-8.9 4.4-5.6.3-1.5 1.8-2 3-1.5.2-8.2.4-9 6.2-3.2.9-1.4 2.5-1.1 3.5 0 0-3.1 1.3-5.3 3.8-6.7 2.2 1.1 3.3 3 3.4 5.6 1.4-.7 2.5.6 3.1 1.9 5.5-4.4 7.4-8.2 7.2 1.6 1.5-.1 2.2 1.3 2.2 2.6 6.7-2.3 9.3-4.3 5.6 4.4 1.4.2 2.1 1.7 1.5 3 6.9.2 9.6-.2 3.2 6.2 1.4.9 1.1 2.5 0 3.5 6.5 3.3 9 3.9 1 7.2.1.2.1.3.2.5 3.4.4 6.7 1.4 9.7 3 .4-.3 14.7-8.6 10.7-2.3.3 3.1-1.1 5.5-4.4 7.2 3.7 2.4 5.2 5.4 4.7 8.9 4.7 10.1-17.8-7.3-10.5-3.3-7.7 6.7-15.4 10.4-23.5 11.5-.6 2.3-3 1.6-4 .3-2.4 0-4.7-.3-7.1-.8 0 2.4-1 3.9-2.9 4.7z"/><use xlink:href="#o" width="80.1" height="52.8" x="-40" y="-26.4" transform="matrix(1.1633 0 0 -1.1633 817.533 328.82)" overflow="visible"/><path fill="#FFF" d="M2197.5 1313c-.9.3-1.7.3-2.5-.2-.4.7-.9 1.4-1.6 2.1.2.5-.2 1.3-1.1 1-2.6 2.1-6.2 3.4-10.9 4.1.6-2.8.6 6.9-1.7 3.5-1.4-.6-2.1-1.6-1.9-3.1-1.5.5-2.7.4-3.8-.3-3.4-.2 3.6-2.3 3.8-2.4.3-1.4 1-2.6 2.1-3.7-2.9 1.1-3.7 1.5-2.7-1.3-.7-.1-.7-.7-.6-1.1-3.5 0-4.5.3-2.1-1.9-.5-.3-.5-.7-.2-1.1l.1-.1c-3.5-.9-4.1-1-.8-2.4-.5-.4-.2-.9.3-1.1-2.9-1.8-3.1-2 .6-2.3-.3-.5.3-.9 1-.9-1.1-.7-1.5-1.5-1.3-2.4 1-.4 2-.3 2.9.3.2-.5.9-.6 1.5-.4-.1-2.4-.9-3.7 2.5-1.6.4-.4 1.1-.3 1.5 0 1-2.3 1-3.4 3.1-.6.5-.3 1.2-.2 1.5.2 2-1.8 2.6-2.6 3.1.4.7-.2 1.2.2 1.3.7 3-1 3.9-1.6 2.8 1.2.1 0 .2 0 .2.1 1.1-.8 2.3-1.5 3.7-1.9 0-.2 1-5.7 2.1-3.3 1.2.6 1.7 1.5 1.4 2.7 1.9-.5 3.4-.3 4.5.6 4.9.8-7.5 3.2-4.1 2.1.3 3.4-.5 6.3-2.4 8.6.6.6-.3 1.1-1 1.1-.6.6-1.4 1.2-2.2 1.7.9.4 1.1 1 .9 1.7z"/><linearGradient id="p" gradientUnits="userSpaceOnUse" x1="3362.93" y1="18173.135" x2="3397.264" y2="18173.135" gradientTransform="matrix(-.1794 -.494 -.494 .1794 11768.145 -283.997)"><stop offset="0" stop-color="#FF8F29"/><stop offset=".214" stop-color="#FDA62E"/><stop offset=".515" stop-color="#FAC034"/><stop offset=".786" stop-color="#F9D038"/><stop offset="1" stop-color="#F8D539"/></linearGradient><path fill="url(#p)" d="M2181.9 1298.2c1.9 1.2 3.2 1 4.5-.5 1.1 1.6 2.3 1.9 4.3.8.2 1.8 1.2 2.4 3.6 2-.7 1.7 0 2.5 2.4 2.9-1.5 1.4-1.4 2.4.7 3.4-2.2.8-2.5 1.7-1.1 3.2-2.4.1-3.1.9-2.6 2.7-2.3-.5-3.4 0-3.9 1.8-1.9-1.2-3.2-1-4.5.5-1.1-1.6-2.3-1.9-4.3-.8-.2-1.8-1.2-2.4-3.6-2 .7-1.7 0-2.6-2.4-3 1.5-1.5 1.4-2.4-.7-3.4 2.2-.8 2.5-1.7 1.1-3.2 2.4-.1 3.1-.9 2.6-2.7 2.3.6 3.4.1 3.9-1.7z"/><linearGradient id="q" gradientUnits="userSpaceOnUse" x1="-9518.517" y1="15485.801" x2="-9480.231" y2="15450.1" gradientTransform="matrix(.321 -.416 -.416 -.321 11669.175 2322.385)"><stop offset="0" stop-color="#F6F43F"/><stop offset=".245" stop-color="#F7EF3D"/><stop offset=".555" stop-color="#F9DF36"/><stop offset=".899" stop-color="#FEC52B"/><stop offset="1" stop-color="#FFBC27"/></linearGradient><path fill="url(#q)" d="M2194.3 1298.2c-1.8 3.3-1 4 3.6 3.1-3.4 2.5-3.1 3.3 1.7 3.8-4.4 1.3-4.5 2.2-.3 4-4.8 0-5.3.8-2.4 3.7-4.4-1.4-5.4-.8-4.2 2.7-3.3-2.6-4.5-2.3-5 1.2-1.8-3.3-3-3.4-5.3-.3 0-3.6-1.1-4-4.9-1.8 1.8-3.3 1-4-3.6-3.1 3.4-2.5 3.1-3.3-1.7-3.8 4.4-1.3 4.5-2.2.3-4 4.8 0 5.3-.8 2.4-3.7 4.4 1.4 5.4.8 4.2-2.7 3.3 2.6 4.5 2.3 5-1.2 1.8 3.3 3 3.4 5.3.3-.1 3.5 1 3.9 4.9 1.8z"/><linearGradient id="r" gradientUnits="userSpaceOnUse" x1="-9499.338" y1="15451.584" x2="-9499.338" y2="15484.473" gradientTransform="matrix(.321 -.416 -.416 -.321 11669.175 2322.385)"><stop offset="0" stop-color="#FF8F29"/><stop offset=".214" stop-color="#FDA62E"/><stop offset=".515" stop-color="#FAC034"/><stop offset=".786" stop-color="#F9D038"/><stop offset="1" stop-color="#F8D539"/></linearGradient><path fill="url(#r)" d="M2191.5 1300.8c4.1 2.4 4.9 6.8 1.7 9.9-3.2 3.1-9.1 3.6-13.2 1.2-4.1-2.4-4.9-6.9-1.7-9.9 3.2-3.1 9.1-3.6 13.2-1.2z"/><linearGradient id="s" gradientUnits="userSpaceOnUse" x1="-9499.522" y1="15452.99" x2="-9499.522" y2="15472.518" gradientTransform="matrix(.321 -.416 -.416 -.321 11669.175 2322.385)"><stop offset="0" stop-color="#FFF" stop-opacity=".2"/><stop offset="1" stop-color="#FFF" stop-opacity="0"/></linearGradient><path fill="url(#s)" d="M2191.8 1309.8c-3.1 3-8.7 3.6-12.8 1.5.1.1.3.2.4.3 4.1 2.4 10 1.8 13.2-1.2 3.2-3.1 2.4-7.5-1.7-9.9-.1-.1-.3-.2-.4-.2 3.7 2.3 4.3 6.6 1.3 9.5z"/><linearGradient id="t" gradientUnits="userSpaceOnUse" x1="-9499.509" y1="15452.047" x2="-9499.509" y2="15471.567" gradientTransform="matrix(.321 -.416 -.416 -.321 11669.175 2322.385)"><stop offset="0" stop-color="#F9622D" stop-opacity=".4"/><stop offset=".31" stop-color="#FA772E" stop-opacity=".276"/><stop offset=".948" stop-color="#FBAC32" stop-opacity=".021"/><stop offset="1" stop-color="#FBB132" stop-opacity="0"/></linearGradient><path fill="url(#t)" d="M2192.2 1310.1c-3.1 3-8.7 3.6-12.8 1.5.1.1.3.2.4.3 4.1 2.4 10 1.8 13.2-1.2 3.2-3.1 2.4-7.5-1.7-9.9-.1-.1-.3-.2-.4-.2 3.8 2.3 4.4 6.5 1.3 9.5z"/><linearGradient id="u" gradientUnits="userSpaceOnUse" x1="-13628.927" y1="9222.668" x2="-13616.933" y2="9211.483" gradientTransform="matrix(.4923 -.1835 -.1835 -.4923 10580.322 3342.054)"><stop offset="0" stop-color="#F8FF61" stop-opacity=".9"/><stop offset="1" stop-color="#F9FF73" stop-opacity="0"/></linearGradient><path fill="url(#u)" d="M2185.4 1306.1c-1.8 1.8-4.9 2.4-6.8 1.3-1.9-1.1-1.9-3.4-.1-5.3 1.8-1.8 4.9-2.4 6.8-1.3 1.9 1.1 2 3.5.1 5.3z"/><g opacity=".2"><path opacity=".76" d="M2188.1 1305.1c-.4.4-2.5 2.2-2.5 2.4 0 .6 1.2 1 1.8.8.8-.2 1.3-.8 1.5-1.4.1-.1.1-.3.1-.5 0-.1 0-.3.1-.4.2-.1.7.2.8.4.2.2 0 .6-.1.8-.1.3-.3.6-.6.8-.5.6-1.3 1-2.3 1.1-.9.1-1.9-.3-2.4-.9-.1.1-.1.1-.2.1-.2 0-.4-.1-.5-.2-.2-.2 0-.3.2-.4.1-.1.2-.1.2-.2.1-.1 0-.3 0-.4 0-.4.2-.8.3-1.2-.3.2-1.3 1.3-1.6 1.5-.2.1-.7-.1-.7-.3 0-.1.1-.2.1-.2.3-.3 2.2-2 2.3-2.1.1-.2-.2-.4-.3-.5-.9-.6-1.9 0-2.3.6-.1.2-.2.3-.2.5 0 .1 0 .4-.2.5-.2.2-.8-.3-.8-.4-.1-.2 0-.4.1-.5.1-.2.2-.4.4-.6.3-.4.8-.7 1.3-.9 1-.4 2.3-.2 3 .6.2-.2.3-.4.7-.2.1.1.3.2.2.3 0 .1-.2.1-.2.2l-.3.3c-.1.1 0 .1 0 .2.1.5-.1.9-.2 1.3.4-.3 1.4-1.3 1.6-1.5.1-.1.2-.1.3-.1.2.1.6.3.4.5z"/></g><path opacity=".76" fill="#FFF" d="M2187.8 1304.9c-.5.4-2.4 2.2-2.5 2.3-.1.1.1.4.2.5.5.5 1.4.6 2.1.2.7-.4 1.1-1.1 1.2-1.8 0-.2.2-.4.5-.2.2.1.4.3.5.5.1.3-.1.6-.3.9s-.4.6-.6.8c-.6.5-1.4 1-2.3 1-.9 0-1.7-.3-2.2-.9-.2.2-.3.2-.6 0-.2-.1-.3-.3-.1-.4l.3-.3c.1-.1.1-.2.1-.3 0-.5.2-.9.3-1.4-.3.3-1.6 1.5-1.7 1.5-.2.1-.6-.2-.6-.3s.1-.2.1-.2c.3-.3 2.3-2.1 2.3-2.2 0-.1-.2-.3-.3-.4-.1-.1-.3-.2-.6-.3-1.1-.3-1.9.6-2.1 1.3-.1.2 0 .7-.5.5-.3-.1-.6-.3-.5-.6 0-.4.3-.8.6-1.1.3-.4.8-.7 1.3-.9 1-.4 2.2-.1 2.9.6.2-.2.3-.3.6-.2.3.1.4.3.2.5l-.3.3c-.1.1-.1.1-.1.2 0 .5 0 .9-.2 1.4.4-.4.8-.8 1.2-1.1.1-.1.2-.3.4-.4.3 0 .9.3.7.5z"/><path opacity=".7" fill="#FFF" d="M2199.7 1294.9c.2.8.4 1.7.6 2.5.1.3.1.5.1.8 0 .2.1.3.1.5v1.3c.2 2.9-.4 5.7-2.5 8.2-.1.1-.2.3-.4.4-.1.1-.2.3-.4.4-.1.1-.2.2-.3.2-.1.1-.2.2-.3.2-.6.5-1.2.9-1.8 1.3-.1.1-.3.2-.4.2-.2.1-.5.2-.7.4l-2.3-1.4c.4-.1.7-.3 1-.4.1-.1.2-.1.4-.2.3-.1.5-.3.7-.4.2-.1.5-.3.7-.4 0 0 .1 0 .1-.1 0 0 .1 0 .1-.1.2-.1.4-.3.5-.4l.3-.3c1.6-1.5 2.6-3.3 3.2-5.1.2-.6.3-1.2.4-1.7 0-.1 0-.3.1-.4 0-.2.1-.4.1-.7v-.6c0-.2.1-.5.1-.7.4-1.1.4-2.3.6-3.5z"/><path fill="#0179B6" d="M2200.5 1295.4c.3.9.5 1.8.6 2.7 0 .2.1.4.1.6v.2c0 .1 0 .3.1.4v.3c.3 3.1-.2 6.3-2.5 9-1.1 1.3-2.5 2.4-4.3 3.1l-2.3-1.4c.1 0 .3-.1.4-.1.3-.1.5-.2.8-.3.3-.1.5-.2.7-.4l.1-.1c.2-.1.4-.2.6-.4.1-.1.2-.1.2-.2l.1-.1c2.1-1.6 3.4-3.7 4-5.8.3-.9.5-1.8.6-2.8v-.3c0-.2 0-.4.1-.6v-.4c0-.2 0-.4.1-.7 0-.3.1-.6.1-.9.3-.5.4-1.2.5-1.8z"/><linearGradient id="v" gradientUnits="userSpaceOnUse" x1="-9497.675" y1="15451.301" x2="-9468.409" y2="15451.301" gradientTransform="matrix(.321 -.416 -.416 -.321 11669.175 2322.385)"><stop offset="0" stop-color="#0086C0"/><stop offset=".222" stop-color="#0791C9"/><stop offset=".656" stop-color="#12A1D6"/><stop offset="1" stop-color="#16A6DB"/></linearGradient><path fill="url(#v)" d="M2200.6 1297.3c.1.3.1.6.2.8 0 .2.1.4.1.6v.3c0 .1 0 .3.1.4v.3c.3 2.9-.1 6-2.4 8.7-.2.3-.5.5-.7.8-.9.9-1.9 1.6-3.1 2.1-.1.1-.3.1-.4.2l-1.7-1c.3-.1.5-.2.8-.3.3-.1.5-.2.7-.4 0 0 .1 0 .1-.1.2-.1.4-.2.6-.4.1-.1.2-.2.4-.2l.1-.1c.4-.3.9-.7 1.2-1 1.4-1.3 2.4-3 3-5 .3-1 .5-2 .6-3v-.3c0-.2 0-.3.1-.5v-.5c0-.2 0-.4.1-.5.2-.3.2-.6.2-.9z"/><linearGradient id="w" gradientUnits="userSpaceOnUse" x1="-9497.494" y1="15449.668" x2="-9478.326" y2="15449.668" gradientTransform="matrix(.321 -.416 -.416 -.321 11669.175 2322.385)"><stop offset="0" stop-color="#40C1EE" stop-opacity="0"/><stop offset="1" stop-color="#4FCAF4"/></linearGradient><path fill="url(#w)" d="M2200.2 1303.6c-.3 1.8-1.1 3.3-2.2 4.6l-.3.3s-.2.3-.4.4c-.1.1-.2.2-.3.2-.1.1-.2.2-.3.2-.6.5-1.2.9-1.8 1.2-.1.1-.3.1-.4.2-.3.1-.5.2-.8.4l-.6-.3c.3-.1.5-.2.8-.3h.1c.2-.1.5-.2.7-.4.1-.1.3-.1.4-.2.2-.1.5-.3.7-.5.5-.3.9-.7 1.3-1.1 1.5-1.2 2.5-2.8 3.1-4.7z"/><g><path opacity=".7" fill="#FFF" d="M2205.5 1298.2c-.8 0-1.5.1-2.3.2-.7.1-1.4.3-2 .5h-.1c-.1 0-.1 0-.2.1-.1 0-.3.1-.4.1h-.1c-.1 0-.2.1-.4.1-.3.1-.6.3-.9.4-.9.5-1.7 1-2.3 1.7l-.3.3c0 .1-.1.1-.1.2l-.3.3-.1.1c-.7.8-1.1 1.8-1.3 2.7-.3 1.1-.2 2.2-.2 3.4v.4c0 .2-.1.5-.1.7 0 .1 0 .2-.1.4s-.1.5-.2.7c-.1.2-.2.5-.3.7l-2.3-1.3c.1-.2.1-.5.2-.7.2-1.2.1-2.4.4-3.7.5-2.5 2.3-4.8 5.1-6.2.7-.3 1.4-.6 2.1-.8.3-.1.6-.1.9-.2h.8c1.6-.4 3.1-.4 4.5-.1z"/><path fill="#0179B6" d="M2206.3 1298.7c-1.8.1-3.5.4-5 .9-.1 0-.2.1-.3.1-.1.1-.3.1-.4.2-.1 0-.2.1-.3.1-.1.1-.2.1-.4.2-.3.2-.7.4-1 .6-.5.3-.9.7-1.3 1.1-1.1 1-1.8 2.3-2.1 3.6-.2.7-.2 1.5-.2 2.2v1.6c0 .2-.1.5-.1.7 0 .2-.1.5-.2.7-.1.2-.2.5-.3.7 0 .1-.1.2-.1.3l-2.3-1.3c.1-.2.1-.5.2-.7v-.1c.2-1.2.1-2.4.3-3.5.5-2.5 2.3-4.8 5.1-6.2.4-.2.8-.4 1.2-.5l.9-.3c.1 0 .2-.1.4-.1.1 0 .3-.1.4-.1s.2 0 .3-.1c.7-.1 1.3-.2 2-.2 1.2-.2 2.2-.1 3.2.1z"/><linearGradient id="x" gradientUnits="userSpaceOnUse" x1="-9497.658" y1="15453.852" x2="-9466.823" y2="15453.852" gradientTransform="matrix(.321 -.416 -.416 -.321 11669.175 2322.385)"><stop offset="0" stop-color="#0086C0"/><stop offset=".222" stop-color="#0791C9"/><stop offset=".656" stop-color="#12A1D6"/><stop offset="1" stop-color="#16A6DB"/></linearGradient><path fill="url(#x)" d="M2203.8 1298.7c-.9.2-1.7.4-2.4.7-.1 0-.2.1-.3.1-.1.1-.3.1-.4.2-.1 0-.1.1-.2.1-.1.1-.2.1-.4.2-.3.2-.7.3-1 .5-.6.4-1.2.8-1.7 1.3l-.2.2c-1 1-1.7 2.3-2 3.5-.2.8-.2 1.6-.2 2.4v1.6c0 .2-.1.5-.1.7-.1.2-.1.5-.2.7v.1l-.3.6-1.7-1c0-.1.1-.2.1-.3.1-.2.1-.4.1-.6v-.3c.1-.5.1-1 .1-1.5 0-.6.1-1.2.2-1.8.3-1.5 1-2.8 2.1-4 .8-.8 1.7-1.5 2.9-2.1.3-.2.6-.3 1-.4l.9-.3c.1 0 .2-.1.3-.1h.1c.1 0 .3-.1.4-.1h.3c.9-.3 1.7-.4 2.6-.4z"/><linearGradient id="y" gradientUnits="userSpaceOnUse" x1="-9497.505" y1="15453.938" x2="-9479.502" y2="15453.938" gradientTransform="matrix(.321 -.416 -.416 -.321 11669.175 2322.385)"><stop offset="0" stop-color="#40C1EE" stop-opacity="0"/><stop offset="1" stop-color="#4FCAF4"/></linearGradient><path fill="url(#y)" d="M2196.7 1301.6c-1.1 1.1-1.8 2.4-2.1 3.7-.2.8-.2 1.7-.2 2.5v1.7s0 .2-.1.3c0 .2-.1.5-.2.7-.1.2-.1.4-.2.6l-.5-.3c.1-.2.2-.4.2-.7 0-.1.1-.2.1-.3v-.2c0-.3.1-.5.1-.8 0-.4.1-.7.1-1.1 0-.6.1-1.2.2-1.8.3-1.4.9-2.7 2-3.8 0-.1.3-.3.6-.5z"/></g><g><path opacity=".7" fill="#FFF" d="M2174.1 1319.6c1.1 0 2.3-.1 3.4-.2.4 0 .7-.1 1.1-.1.2 0 .5 0 .7-.1h.5c.2 0 .4-.1.6-.1.1 0 .3 0 .4-.1 3.8-.6 7.3-1.7 10-3.9.1-.1.3-.2.4-.4.1-.1.3-.2.4-.4l.2-.2c.1-.1.2-.2.2-.3.5-.5.9-1.1 1.2-1.7.1-.1.1-.2.2-.4l.3-.6-2.3-1.4c-.1.3-.2.6-.3.8 0 .1-.1.2-.1.3l-.3.6c-.1.2-.3.4-.4.6 0 0 0 .1-.1.1 0 0 0 .1-.1.1-.1.2-.3.3-.4.5l-.3.3c-1.5 1.5-3.6 2.7-5.8 3.6-.7.3-1.4.5-2.1.8-.2.1-.3.1-.5.1-.3.1-.5.2-.8.2-.1 0-.2.1-.3.1s-.2.1-.4.1c-.3.1-.6.2-.9.2-1.4.8-3 1.1-4.5 1.5z"/><path fill="#0179B6" d="M2174.9 1320.1c1.2 0 2.5-.1 3.7-.2.3 0 .5 0 .8-.1h.3c.2 0 .4 0 .5-.1h.4c4.1-.6 8.1-1.7 11-4.1 1.4-1.1 2.4-2.4 3-3.9l-2.3-1.4c0 .1-.1.2-.1.3-.1.2-.1.4-.2.6l-.3.6s0 .1-.1.1c-.1.2-.2.4-.3.5 0 .1-.1.1-.2.2 0 0 0 .1-.1.1-1.5 1.9-3.9 3.4-6.5 4.4-1.1.4-2.3.8-3.4 1.1-.1 0-.3.1-.4.1-.2.1-.5.1-.7.2h-.2s-.2.1-.4.1c-.3.1-.6.1-.8.2-.4.1-.7.2-1.1.3-.8.5-1.7.8-2.6 1z"/><linearGradient id="z" gradientUnits="userSpaceOnUse" x1="8376.688" y1="15456.742" x2="8408.583" y2="15456.742" gradientTransform="matrix(-.321 .416 -.416 -.321 11309.387 2788.396)"><stop offset="0" stop-color="#0086C0"/><stop offset=".222" stop-color="#0791C9"/><stop offset=".656" stop-color="#12A1D6"/><stop offset="1" stop-color="#16A6DB"/></linearGradient><path fill="url(#z)" d="M2177.5 1319.7c.4 0 .7-.1 1.1-.1.3 0 .5 0 .8-.1h.3c.2 0 .4 0 .6-.1h.4c3.8-.5 7.8-1.6 10.7-4 .3-.2.6-.5.8-.7.9-.9 1.6-1.8 2-2.8 0-.1.1-.2.1-.3l-1.7-1c-.1.2-.1.4-.2.6l-.3.6s0 .1-.1.1c-.1.2-.2.4-.3.5-.1.1-.1.2-.2.3l-.1.1c-.3.4-.6.8-1 1.2-1.4 1.3-3.3 2.5-5.7 3.5-1.2.5-2.5.9-3.8 1.2-.1 0-.3.1-.4.1-.2.1-.4.1-.7.2h-.1c-.1 0-.2.1-.3.1h-.1c-.2.1-.4.1-.7.2-.4.2-.7.3-1.1.4z"/><linearGradient id="A" gradientUnits="userSpaceOnUse" x1="8376.855" y1="15452.484" x2="8396.434" y2="15452.484" gradientTransform="matrix(-.321 .416 -.416 -.321 11309.387 2788.396)"><stop offset="0" stop-color="#40C1EE" stop-opacity="0"/><stop offset="1" stop-color="#4FCAF4"/></linearGradient><path fill="url(#A)" d="M2185.5 1317.8c2.2-.7 4-1.6 5.4-2.8.1-.1.2-.2.4-.3.1-.1.3-.2.4-.4l.2-.2c.1-.1.2-.2.2-.3.5-.5.8-1.1 1.1-1.6.1-.1.1-.2.2-.4s.2-.4.3-.7l-.6-.3c-.1.2-.1.4-.2.6v.1l-.3.6c-.1.1-.1.2-.2.3-.1.2-.3.4-.4.6-.3.4-.7.8-1.1 1.2-1.3 1.5-3.1 2.7-5.4 3.6z"/><g><path opacity=".7" fill="#FFF" d="M2179.9 1323.1c-.2-.6-.2-1.1-.3-1.7 0-.5 0-1.1.1-1.6V1319.5s.1-.2.1-.3v-.1c0-.1.1-.2.1-.3.1-.3.2-.5.3-.8.4-.8.9-1.5 1.6-2.1l.3-.3c.1 0 .1-.1.2-.1l.3-.3.1-.1c.9-.7 2-1.3 3.2-1.7 1.4-.5 2.9-.7 4.3-1 .2 0 .3-.1.5-.1.3-.1.6-.2.9-.2.2 0 .3-.1.4-.1l.9-.3c.3-.1.6-.2.8-.4l-2.3-1.3-.9.3c-1.5.5-3.1.7-4.6 1.2-3.2 1-5.7 2.9-6.8 5.3-.3.6-.4 1.2-.5 1.8 0 .2-.1.5-.1.7v.8c.2.9.6 2 1.4 3z"/><path fill="#0179B6" d="M2180.6 1323.5c-.3-1.3-.4-2.6 0-3.9 0-.1.1-.2.1-.3 0-.1.1-.2.1-.3s.1-.2.1-.2c0-.1.1-.2.1-.3.1-.3.3-.6.5-.9.3-.4.6-.8 1.1-1.2 1.1-1 2.5-1.9 4.1-2.4.9-.3 1.9-.5 2.8-.7l1.5-.3c.2 0 .3-.1.5-.1l.9-.3.9-.3c.3-.1.6-.2.8-.4.1-.1.3-.1.4-.2l-2.3-1.3-.9.3h-.2c-1.5.4-3 .7-4.5 1.1-3.1 1-5.7 2.9-6.8 5.3-.2.3-.3.7-.4 1-.1.2-.1.5-.1.7v.9c0 .5.1 1 .2 1.5.3.9.6 1.6 1.1 2.3z"/><linearGradient id="B" gradientUnits="userSpaceOnUse" x1="8376.695" y1="15456.572" x2="8408.547" y2="15456.572" gradientTransform="matrix(-.321 .416 -.416 -.321 11309.387 2788.396)"><stop offset="0" stop-color="#0086C0"/><stop offset=".222" stop-color="#0791C9"/><stop offset=".656" stop-color="#12A1D6"/><stop offset="1" stop-color="#16A6DB"/></linearGradient><path fill="url(#B)" d="M2180 1321.6c0-.7.1-1.3.2-1.9 0-.1 0-.2.1-.3 0-.1.1-.2.1-.3 0-.1 0-.1.1-.2 0-.1.1-.2.1-.3.1-.3.3-.6.4-.8.3-.5.8-1.1 1.3-1.5l.2-.2c1.1-1 2.5-1.8 4-2.3 1-.3 2-.5 3-.7h.2c.5-.1.9-.2 1.4-.3h.1c.1 0 .2-.1.3-.1l.9-.3c.3-.1.6-.2.8-.3h.1c.3-.1.5-.2.8-.3l-1.7-1c-.1.1-.3.1-.4.2-.2.1-.5.2-.7.2-.1 0-.3.1-.4.1-.6.2-1.3.3-1.9.5-.8.2-1.6.4-2.3.6-1.8.6-3.4 1.4-4.7 2.6-.9.8-1.5 1.7-1.9 2.6-.1.3-.2.6-.3.8s-.1.5-.2.7v1c.1.3.2.9.4 1.5z"/><linearGradient id="C" gradientUnits="userSpaceOnUse" x1="8376.858" y1="15456.539" x2="8397.244" y2="15456.539" gradientTransform="matrix(-.321 .416 -.416 -.321 11309.387 2788.396)"><stop offset="0" stop-color="#40C1EE" stop-opacity="0"/><stop offset="1" stop-color="#4FCAF4"/></linearGradient><path fill="url(#C)" d="M2182.1 1315.7c1.2-1.1 2.7-1.9 4.3-2.5 1-.3 2.1-.6 3.1-.8.3-.1.6-.1.9-.2.3-.1.6-.1.8-.2.2 0 .3-.1.5-.1.1 0 .3-.1.4-.1l.9-.3s.5-.2.8-.3l-.5-.3c-.3.1-.5.2-.8.3-.1 0-.3.1-.4.1-.1 0-.1 0-.2.1-.3.1-.7.2-1 .3-.5.1-.9.2-1.4.3-.8.2-1.5.4-2.3.6-1.7.5-3.2 1.4-4.4 2.4-.3.2-.5.5-.7.7z"/></g></g><g><path fill="#FFC687" d="M2173.1 1337.4s-12.2 1.1-16.2-4.4-.8-15.5 4.9-19.9c5.5-3.6 11.9-1.8 12.4-.3 1.7-2.2 5-4.5 7.5-.3s2.7 10 .9 13.6c-1.9 3.7-9.5 11.3-9.5 11.3z"/></g><path opacity=".2" d="M1455.2 1286.2c0-.1.2-.3.3-.4.3-.3.6-.7.9-1l-1.5-.6c.8-1.6 2.5-2.8 3.9-3.9-1.4.2-2.9.4-4.3.3-.4 0-.9-.1-1.3-.2-.2-.1-.2 0-.2-.2s.1-.4.2-.5c.1-.4.3-.8.5-1.1h-1.5c-.2-.1-.1 0-.1-.2.1-.4.2-.9.3-1.3.5-1.2 1.1-2.4 1.8-3.5-1.3.7-2.6 1.5-4 1.9-.4.1-.9.3-1.3.2-.2 0-.1 0-.2-.2 0-.2-.1-.4-.1-.6 0-.4-.1-.9-.1-1.3-.4.2-.9.4-1.4.6-.4-1.7-.1-3.6.1-5.2-.9 1.2-1.9 2.4-3.1 3.4-.3.3-.8.6-1.2.6-.2 0-.2 0-.3-.2-.1-.2-.2-.3-.3-.5l-.6-1.2c-.3.4-.6.7-1 1-1.1-1.4-1.5-3.2-2-4.9-.4 1.4-.8 2.8-1.5 4.1-.2.4-.5.8-.8 1.1-.1.1-.1.1-.3.1-.1 0-.3-.2-.4-.3-.3-.3-.7-.6-1-.9-.2.5-.3 1-.6 1.5-1.6-.8-2.8-2.5-3.9-3.8.2 1.4.4 2.8.3 4.2 0 .4-.1.9-.3 1.3-.1.2 0 .2-.2.2s-.4-.1-.6-.2c-.4-.1-.8-.3-1.1-.5v1.5c-.1.2 0 .1-.2.1-.4-.1-.9-.2-1.3-.3-1.2-.4-2.4-1.1-3.5-1.8.7 1.2 1.5 2.6 1.9 4 .1.4.3.9.2 1.3 0 .2 0 .1-.2.2-.2 0-.4.1-.6.1-.4 0-.9.1-1.3.1.2.4.4.9.6 1.4-1.7.4-3.6.1-5.3-.1 1.2.9 2.5 1.9 3.4 3.1.3.3.6.8.6 1.2 0 .2 0 .2-.2.3-.2.1-.3.2-.5.3-.4.2-.8.4-1.2.5.4.3.7.6 1 1-1.4 1.1-3.2 1.5-4.9 2 1.2.3 2.4.7 3.5 1.2.6.3 1.2.6 1.6 1-.3-.2 0 .7.3.3-.4.5-.8 1-1.3 1.5.8.3 1.8.2 2.7.3-1.1-3.9-.7-8.2 1.3-11.7 1.7-3 4.5-5.4 7.7-6.8 3.4-1.4 7.2-1.6 10.6-.4 3.3 1.1 6.1 3.2 8.1 6 2.6 3.7 3.3 8.5 2.1 12.9.3 0 .7-.1 1-.1-.1-.2 0-.2.2-.3.2-.1.3-.2.5-.3.4-.2.8-.4 1.2-.5-.4-.3-.7-.6-1-1 1.4-1.1 3.2-1.5 4.9-2-1.4-.4-2.8-.8-4.1-1.5-.4-.2-.8-.5-1.1-.8.2-.3.2-.3.2-.5zm-1.6 1.9c-.2-5.8-4.1-11-9.6-13-5.4-2-11.7-.5-15.7 3.6-2.1 2.2-3.4 4.8-3.9 7.8-.2 1.4-.2 2.8 0 4.2.1.6.2 1.2.3 1.9 0 .2.1.4.2.6.2.2.5.2.8.2 2.9.5 5.5 2.2 7.9 3.8 1.3.9 2.5 1.8 3.8 2.5.3.2.6.3.9.5.2.1.3.2.5 0 .6-.3 1.2-.6 1.8-1 2.5-1.5 4.7-3.4 7.4-4.6 1.3-.6 2.7-1.1 4.1-1.4.2 0 .7 0 .8-.1.1-.1.2-.6.2-.7.2-.7.3-1.4.4-2.1.1-.8.1-1.5.1-2.2 0 0 0 .3 0 0zm14.3 6.8c-.8.5-1.5 1-2.3 1.5-.3.2-.5.5-.9.3-.5-.3-.9-.5-1.4-.7-1.7-.8-3.5-1.3-5.4-1.5-3.6-.4-7.3.4-10.6 2-1.7.8-3.2 1.9-4.7 3-.7.5-1.5 1-2.3 1.5-.6.4-1.5 1.1-2.3.7-3.4-1.7-6.1-4.3-9.6-5.8-3.8-1.6-8.1-1.9-12-.8-1 .3-1.9.6-2.8 1-.4.2-.8.5-1.2.7-.4.2-.7-.1-1.1-.4l-5.4-3.6c1.5 1.8 3.1 3.5 4.7 5.1-2.1 1.6-3.9 3.8-5 6.3 1.2-1.3 2.5-2.5 4-3.5.6-.4 1.3-.8 2-1.2.6-.4.9.2 1.3.6 2.9 2.4 6 4.6 9.5 6 3.5 1.4 7.3 2.1 11 1.6.9-.1 1.9-.3 2.8-.5.5-.1.9-.3 1.4-.4.3-.1.6-.4 1-.3.8.2 1.6.6 2.4.8 1 .3 2.1.4 3.1.5 5.3.4 10.6-1.3 15.1-4.1 1.1-.7 2.2-1.5 3.2-2.3.6-.4 1.1-.9 1.6-1.3.3-.3.6-.8 1.1-.6 2.3 1.1 4.4 2.9 6.1 4.8-1.1-2.5-2.8-4.6-5-6.3 1.7-1.6 3.2-3.3 4.7-5.1-.8.6-1.9 1.3-3 2-.5.4 1.1-.7 0 0zm-23.9 8.6c2.2-1.5 4.3-3.3 6.7-4.4 2.4-1.1 5-1.6 7.6-1.5 1.5 0 3 .3 4.4.7-1.7 1-3.4 2-5.2 2.8-4.2 1.9-8.9 3-13.5 2.4zm-24.4-2.4c-1.8-.8-3.5-1.8-5.2-2.8 2.5-.8 5.2-.9 7.8-.5 2.6.4 5 1.5 7.1 3 1.3.9 2.5 1.8 3.8 2.7-4.6.6-9.3-.5-13.5-2.4zm23.6-14.7h-1c-.2 0-.3.1-.5.2-.8.6-1.6 1.1-2.4 1.4.9 0 3.4.1 3.7.1.2 0 .4 0 .5.2s.1.6 0 .8c-.1.3-.3.3-.5.3-.6 0-5.2-.1-5.6-.1-.2 0-.3 0-.5.1-.4.2-.6 1-.6 1.4 0 .4.1.7.2 1 1 1.9 3.9 1.4 5.4.5.3-.2.7-.5 1-.1.2.3.1.8 0 1.1-.4 1-1.8 1.2-2.8 1.4-1.5.2-3.2-.1-4.4-1.1s-1.7-2.8-1.1-4.3c-.5 0-.7-.5-.6-.9.2-.6.8-.3 1.3-.4.2 0 .3-.1.5-.2.2-.2.4-.3.7-.5.6-.4 1.3-.6 1.9-.9-.7 0-4 0-4.2-.1-.4-.3-.2-1.1.3-1.2.2-.1 5 .1 5.7.1.3 0 .5-.1.6-.5.4-.9 0-1.9-.8-2.4s-2-.4-2.9-.1c-.3.1-.5.2-.7.3-.2.1-.4.3-.7.3-.5-.1-.4-.9-.3-1.2.3-1 1.9-1.1 2.8-1.2 1.3-.1 2.7.2 3.6 1.1.9.9 1.2 2.4.9 3.6h.7c.5.3.4 1.2-.2 1.3z"/><path fill="#0179B6" d="M2643.6 666h-228.5c.1-5.1 51.2-9.2 114.3-9.2 63 0 114.2 4.1 114.2 9.2zm-381.1 0h-228.6c.1-5.1 51.2-9.2 114.3-9.2s114.2 4.1 114.3 9.2z"/><g fill="#FFF"><path opacity=".15" d="M2244.3 500.3l-388.9-380.1h388.9m-389.4 91.2l389.6 337.2-.5-26.4-388.9-393.7"/><path opacity=".2" d="M1855.1 387.9l192 278.1 197.2-.1-389.2-420.1"/></g><g fill="#FFF"><path opacity=".15" d="M2641.4 500.3l-388.9-380.1h388.9M2252 211.4l389.5 337.2-.5-26.4-388.8-393.7"/><path opacity=".2" d="M2252.2 387.9l192 278.1 197.2-.1-389.2-420.1"/></g><path fill="#ECC261" d="M1758.9 0v668.7H2730V0h-971.1zm882.6 668.7H1855V120.9h786.5v547.8z"/><g><path fill="#BD9B4E" d="M2244.3 120.9h8.7V668h-8.7z"/></g><g><path d="M2730 766h-971.1V666H2730v100z" opacity=".59"/><path fill="#ECA53D" d="M2730 768h-971.1V668H2730v100z"/></g><path opacity=".1" d="M1854.9 718.3c0 22.2 90.1 40.1 201.2 40.1s201.2-18 201.2-40.1c0-22.2-90.1-40.1-201.2-40.1-111 0-201.2 17.9-201.2 40.1z"/><g><path fill="#FBA993" d="M1874.8 698s1.3 2.3 3.7 2.1c0 0 19.4 26.1 50.3 25.4 40.7.5 46.8-46 46.8-46s3-3 2.1-5.1l-24.2 14-78.7 9.6z"/><path fill="#FFF2DF" d="M1977.8 674.5c-.5-.5-2.3.5-4.1 2.2-2.4-1.1-14.1-5.6-32.2-1.9 0 0-9.1-8.8-26.1-10.8-.5-2.4-1.6-4.2-2.4-4s-1.1 2-.7 4.2h-.4s-20.1 7.1-33 31.2c-2.4.4-4.1 1.6-3.9 2.7.2 1.1 2.3 1.6 4.7 1.1.1 0 .3 0 .4-.1l.1.2s33.2 21.9 59 18.2l.3-.1c1 1.6 2.3 2.5 3.1 2.1.7-.3.9-1.7.4-3.2l.3-.1s22.5-7.9 31.4-36.6c.4-.3.7-.6 1.1-1 1.5-1.8 2.5-3.6 2-4.1z"/><linearGradient id="D" gradientUnits="userSpaceOnUse" x1="2074.5" y1="567.332" x2="2074.5" y2="576.256" gradientTransform="matrix(1 0 0 -1 -147.6 1266.01)"><stop offset="0" stop-opacity=".05"/><stop offset="1" stop-opacity=".3"/></linearGradient><path opacity=".3" fill="url(#D)" d="M1958.7 694.2c0 2.5-14.2 4.5-31.8 4.5-17.5 0-31.8-2-31.8-4.5s14.2-4.5 31.8-4.5c17.6.1 31.8 2.1 31.8 4.5z"/><linearGradient id="E" gradientUnits="userSpaceOnUse" x1="2074" y1="570.31" x2="2074" y2="644.109" gradientTransform="matrix(1 0 0 -1 -147.6 1266.01)"><stop offset="0" stop-color="#FF8F29"/><stop offset=".214" stop-color="#FDA62E"/><stop offset=".515" stop-color="#FAC034"/><stop offset=".786" stop-color="#F9D038"/><stop offset="1" stop-color="#F8D539"/></linearGradient><path fill="url(#E)" stroke="#E8980F" stroke-width="1.165" stroke-miterlimit="10" d="M1963.3 658.8c0 20.4-16.5 36.9-36.9 36.9s-36.9-16.5-36.9-36.9 16.5-36.9 36.9-36.9c20.3 0 36.9 16.5 36.9 36.9z"/><linearGradient id="F" gradientUnits="userSpaceOnUse" x1="2073.901" y1="573.451" x2="2073.901" y2="612.451" gradientTransform="matrix(1 0 0 -1 -147.6 1266.01)"><stop offset="0" stop-color="#FFF" stop-opacity=".2"/><stop offset="1" stop-color="#FFF" stop-opacity="0"/></linearGradient><path fill="url(#F)" d="M1926.4 688.4c-19.7 0-35.8-15.4-36.9-34.8 0 .7-.1 1.4-.1 2.1 0 20.4 16.5 36.9 36.9 36.9s36.9-16.5 36.9-36.9c0-.7 0-1.4-.1-2.1-.9 19.4-17 34.8-36.7 34.8z"/><linearGradient id="G" gradientUnits="userSpaceOnUse" x1="2073.801" y1="571.31" x2="2073.801" y2="610.31" gradientTransform="matrix(1 0 0 -1 -147.6 1266.01)"><stop offset="0" stop-color="#F9622D" stop-opacity=".4"/><stop offset=".31" stop-color="#FA772E" stop-opacity=".276"/><stop offset=".948" stop-color="#FBAC32" stop-opacity=".021"/><stop offset="1" stop-color="#FBB132" stop-opacity="0"/></linearGradient><path fill="url(#G)" d="M1926.3 690.5c-19.7 0-35.8-15.4-36.9-34.8 0 .7-.1 1.4-.1 2.1 0 20.4 16.5 36.9 36.9 36.9s36.9-16.5 36.9-36.9c0-.7 0-1.4-.1-2.1-.9 19.4-17 34.8-36.7 34.8z"/><g opacity=".2"><path opacity=".76" d="M1937.3 664.4c-2.8-.1-5.7-.1-8.5-.1-1.8 0-3.6-.1-5.4-.1-1.6 0-2.1-.2-2.8 1.5-1.2 2.6 0 5.7 2.4 7 2.8 1.6 6.4 1.1 9.3 0 .9-.4 2.8-2 3.8-1.8 1.2.2 1 2.6.7 3.4-.9 2.4-5.3 3.1-7.5 3.3-3.8.4-8-.4-10.8-3-2.8-2.6-3.9-6.9-2.5-10.5-1.2.2-1.5-.7-1.5-1.7 0-1.6.7-1.6 2-1.6 1.6 0 1.7-.2 3.1-1.2 1.8-1.2 3.9-2 5.9-2.9-1.7 0-3.4-.1-5.1-.1-1.3 0-3.8.4-5.1-.1-1-.4-1.2-2.6-.3-3.2.3-.2.9-.1 1.2-.1 2.1 0 4.1.1 6.2.1 2.2 0 4.4.1 6.6.1.3 0 1.1.2 1.4 0 1.3-.6 1.3-3.2 1.1-4.4-1-4-6-4.2-9.2-3.1-.9.3-3.4 2.2-4.3 1.6-.9-.6-.3-3.5.3-4.1 1.3-1.4 4.2-1.8 6-2 2.2-.2 4.5.1 6.6.9 4.4 1.8 6.5 6.5 5.2 11.1 1.3 0 2.1-.2 2.3 1.3.2 1.7-.5 2-1.8 2-1.1 0-1.9-.2-2.7.3-2.2 1.3-4 2.8-6.4 3.8 2.3 0 4.7.1 7 .1.8 0 2.2-.2 2.9 0 .8.5 1.4 3.5-.1 3.5z"/></g><path opacity=".76" fill="#FFF" d="M1937.4 663c-2.9 0-5.8-.1-8.7-.1-1.8 0-3.6-.1-5.5-.1-1.7 0-2.4.5-2.8 2.5-.8 3.3 1.5 6 4.5 6.8 3.8 1 6.8-.7 10.1-2.2 2.7-1.2 2.3 2.6 1.1 4-1.9 2.1-6.3 2.5-8.9 2.4-7.2 0-14.2-6-11.4-13.6-1.1.2-1.6-.6-1.6-1.7 0-1.4.6-1.5 1.7-1.6.5 0 1.2.1 1.7 0 .7-.1 1.1-.7 1.7-1.1 1.8-1.3 4-2.1 6-3-1.8 0-3.7-.1-5.5-.1-1.1 0-4.1.5-5.1-.3-.6-.5-.5-2.3.1-2.8.4-.3.8-.2 1.3-.2 2.1-.2 4.4.1 6.5.1 2.2 0 4.6.3 6.8.1.3 0 .8.1 1 0 1.5-.8 1.3-3.9.7-5.1-1.9-4-7.4-3.4-10.7-1.6-1.1.6-2.3 1.7-2.9.1-.5-1.2 0-2.9 1-3.7 3.2-2.5 9.3-2.1 12.7-.5 4.1 2 5.9 6.6 4.6 10.9 1.1 0 2-.2 2.4 1.1.4 1.4-.3 2.1-1.5 2.2-1.2.1-2.1-.2-3.1.3-1.1.6-2.1 1.7-3.2 2.3-1 .6-2.1 1-3.1 1.5 2.5 0 5.1.1 7.6.1.6 0 1.9-.2 2.5.1 1 .4 1.3 3.2 0 3.2z"/><path fill="#E8980F" d="M1926.9 627.4c-17.4-.3-31.7 13.6-32 30.9-.3 17.4 13.6 31.7 30.9 32 17.4.3 31.7-13.6 32-30.9.3-17.4-13.5-31.7-30.9-32zm-1 60c-15.8-.3-28.4-13.3-28.1-29.1.3-15.8 13.3-28.4 29.1-28.1s28.4 13.3 28.1 29.1-13.3 28.4-29.1 28.1z"/><linearGradient id="H" gradientUnits="userSpaceOnUse" x1="4037.448" y1="2733.815" x2="4062.53" y2="2710.425" gradientTransform="rotate(31.892 -2895.312 -4757.003)"><stop offset="0" stop-color="#F8FF61" stop-opacity=".9"/><stop offset="1" stop-color="#F9FF73" stop-opacity="0"/></linearGradient><path fill="url(#H)" d="M1926.5 656.8c-12 .1-21.8-7.3-21.9-16.6-.1-9.3 9.6-16.9 21.6-17 12-.1 21.8 7.3 21.9 16.6.1 9.3-9.6 16.9-21.6 17z"/><path fill="#FFF2DF" d="M1944.3 697.7c0-2.8-8-5.1-17.9-5.1-9.9 0-17.9 2.3-17.9 5.1s8 5.1 17.9 5.1c9.9 0 17.9-2.2 17.9-5.1z"/></g><g><path fill="#8D4000" d="M1964.4 718.4h15.3v16.5h-15.3z"/><path fill="#712E03" d="M1979.7 718.4v16.5l4.1-5.6v-10.9"/><path fill="#8D4000" d="M2205.3 718.4h15.3v16.5h-15.3z"/><path fill="#712E03" d="M2205.3 718.4v16.5l-4-5.6v-10.9"/><linearGradient id="I" gradientUnits="userSpaceOnUse" x1="2327.201" y1="547.609" x2="2327.201" y2="690.609" gradientTransform="matrix(1 0 0 -1 -147.6 1266.01)"><stop offset="0" stop-color="#FF6F05"/><stop offset=".206" stop-color="#FD6B05"/><stop offset=".419" stop-color="#F75E04"/><stop offset=".636" stop-color="#ED4A04"/><stop offset=".854" stop-color="#DF2D03"/><stop offset="1" stop-color="#D41502"/></linearGradient><path fill="url(#I)" d="M2197.7 718.4l-38.9-40.4V575.4l41.6 36"/><path fill="#FD7A0C" d="M2224.4 608l-26 .6-39.6-35.4h26.4"/><path fill="#FF881E" d="M2223.2 608.6h-23.1l-32.9-29.7c-1.4-1.3-.5-3.6 1.4-3.6h16.9c.5 0 1 .2 1.4.5l36.3 32.8z"/><path fill="#ED5300" d="M2158.8 573.2l39.6 35.4v4l-39.6-36.5"/><path fill="#ED5501" d="M2221.5 719.5h-21c-2.1 0-3.7-1.7-3.7-3.7V610.4c0-1.6 1.3-3.4 2.9-3.8 7.5-1.9 15.3-1.9 22.7 0 1.6.4 2.9 2.2 2.9 3.8v105.4c-.1 2-1.7 3.7-3.8 3.7z"/><path fill="#F96601" d="M2221.5 713.8c-5.1-.1-13.1-.1-18.2-.1-2.1 0-3.7-1.7-3.7-3.7-1.9-33.6-1-67-2.8-99.6 0-1.6 1.3-3.4 2.9-3.8 7.5-1.9 15.3-1.9 22.7 0 1.6.4 2.9 2.2 2.9 3.8v99.8c-.1 2-1.7 3.6-3.8 3.6z"/><g><linearGradient id="J" gradientUnits="userSpaceOnUse" x1="-3425.822" y1="547.609" x2="-3425.822" y2="690.609" gradientTransform="rotate(180 -710.61 633.005)"><stop offset="0" stop-color="#FF6F05"/><stop offset=".206" stop-color="#FD6B05"/><stop offset=".419" stop-color="#F75E04"/><stop offset=".636" stop-color="#ED4A04"/><stop offset=".854" stop-color="#DF2D03"/><stop offset="1" stop-color="#D41502"/></linearGradient><path fill="url(#J)" d="M1986.5 718.4l38.9-40.4V575.4l-41.6 36"/><path fill="#FD7A0C" d="M1959.9 608l25.9.6 39.6-35.4h-26.3"/><path fill="#FF881E" d="M1961 608.6h23.1l32.9-29.7c1.4-1.3.5-3.6-1.4-3.6h-16.9c-.5 0-1 .2-1.4.5l-36.3 32.8z"/><path fill="#ED5300" d="M2025.4 573.2l-39.6 35.4v4l39.6-36.5"/><path fill="#ED5501" d="M1962.8 719.5h21c2.1 0 3.7-1.7 3.7-3.7V610.4c0-1.6-1.3-3.4-2.9-3.8-7.5-1.9-15.3-1.9-22.7 0-1.6.4-2.9 2.2-2.9 3.8v105.4c0 2 1.7 3.7 3.8 3.7z"/><path fill="#F96601" d="M1983.8 713.8c-5.1-.1-13.1-.1-18.2-.1-2.1 0-3.7-1.7-3.7-3.7-1.9-33.6-1-67-2.8-99.6 0-1.6 1.3-3.4 2.9-3.8 7.5-1.9 15.3-1.9 22.7 0 1.6.4 2.9 2.2 2.9 3.8v99.8c-.1 2-1.7 3.6-3.8 3.6z"/></g><g><path fill="#FFC687" d="M2141.2 450.2s.1-24.9-17.2-41c-10.7-10-56.2-9.6-66.8.2-17.3 16.2-17.2 41-17.2 41-5.3 40.2 26.1 68 26.1 68l3.2 8.2 21.6-7.7 20.9 7.4 3.2-8.2c.2.1 31.6-27.7 26.2-67.9z"/><path fill="#FFC687" d="M2044.3 473.2c-5.4.2-10-6.3-10.4-14.6-.3-8.3 3.7-15.2 9.1-15.4 5.4-.2 10 6.3 10.4 14.6.3 8.3-3.8 15.2-9.1 15.4zm103.9-15.4c.3 8.3-3.8 15.1-9.2 15.3-5.4.2-10.1-6.3-10.4-14.6-.3-8.3 3.8-15.1 9.2-15.3 5.3-.2 10.1 6.3 10.4 14.6z"/><path fill="#534741" d="M2151.8 415.7c.6-3.7-5.5-11.8-5.5-11.8-.6-.5-1.3-1.1-2-1.5-9-6.2-46.1-7.1-57.4-6.5-10.4.4-42-3.4-48.6 4.2-5.8 6.7-16.1 45.7-1.4 49.4 3.6 1 7.7-3.1 11.4-8.6 8.2 7.4 26.3 12.6 47.3 12.6 16.7 0 31.7-3.3 41.2-8.4 3.5 5.3 7.5 9.1 11.2 8.3 10.5-2.8 8.1-23.6 3.8-37.7z"/></g><g><linearGradient id="K" gradientUnits="userSpaceOnUse" x1="2240.051" y1="547.31" x2="2240.051" y2="790.235" gradientTransform="matrix(1 0 0 -1 -147.6 1266.01)"><stop offset="0" stop-color="#D41502"/><stop offset=".082" stop-color="#E02E03"/><stop offset=".186" stop-color="#EB4604"/><stop offset=".304" stop-color="#F45804"/><stop offset=".443" stop-color="#FA6505"/><stop offset=".624" stop-color="#FE6D05"/><stop offset="1" stop-color="#FF6F05"/></linearGradient><path fill="url(#K)" d="M2200.4 718.7h-216V540.4c0-29.9 24-55.5 54.5-60.5 35.5-5.5 71.6-5.5 107.1 0 30.5 5 54.5 30.6 54.5 60.5-.1 60.2-.1 118.1-.1 178.3z"/><path fill="#E50" d="M2200.4 544.7v133.4c0 1.6-1.7 3.3-3.8 3.8-58.3 13.4-120.1 15.3-179.4 5.7-18.3-3.1-32.8-17.7-32.8-31.1V544.7c0-21.6 23.9-40.1 54.5-44.3 35.5-4.3 71.6-4.3 107.1 0 30.5 4.2 54.5 22.7 54.4 44.3z"/><path fill="#EE6101" d="M2200.4 534.6v120c0 8.9-9.6 18.6-21.7 20.9-29.1 5.5-58.8 8.1-88.6 8-59.4-1-105.7-99.3-105.7-140.5v-8.4c0-21.6 23.9-40.1 54.5-44.4 35.5-4.3 71.6-4.3 107.1 0 30.5 4.3 54.5 22.8 54.4 44.4z"/><path fill="#FF891F" d="M2200.4 536.9c0-29.9-24-55.5-54.5-60.5-35.5-5.5-71.6-5.5-107.1 0-30.5 5-54.5 30.6-54.5 60.5v11.2c0-29.9 24-55.5 54.5-60.5 35.5-5.5 71.6-5.5 107.1 0 30.5 5 54.5 30.6 54.5 60.5"/></g></g><path fill="#BD9B4E" d="M1847.4 114.6l7.5 6.3V666h-7.5"/><path fill="#DCB45B" d="M2649 114.6l-7.5 6.3h-786.6l-7.5-6.3"/><path fill="#BD9B4E" d="M2641.5 120.9l7.5-6.3V666h-7.5"/><g><path fill="#E3821F" d="M2605.8 35.4c0 67.9-166.1 122.9-371.1 122.9s-371.1-55-371.1-122.9c0-12.3 5.4-24.2 15.6-35.4h711c10.2 11.2 15.6 23.1 15.6 35.4z"/><path d="M2087 101.1c56 27.1 122.3 35.9 182.8 36.9 61.5.9 119.9-12.3 175.8-33.4-27 6.4-53.9 13.5-81.7 17-33.9 4.2-67.7 6.7-102.1 6.4-58-.7-118.8-8.7-174.8-26.9zM2107.1 54c45.7 23 101.1 30.7 150.8 30.9 49.5.3 96.3-10.5 141.1-28.2-49.9 11.1-99 18.7-151 18.1-46.8-.6-95.6-6.9-140.9-20.8zM2140.3 14.9c51.6 29.4 122.9 25.9 172.7 1.6-27.6 4-54.4 8.8-82.7 8.8-30.1 0-60.3-3.7-90-10.4z" opacity=".1"/><use xlink:href="#L" width="284.2" height="664.6" x="-142.1" y="-332.3" transform="matrix(1 0 0 -1 1900.14 332.3)" overflow="visible"/><use xlink:href="#L" width="284.2" height="664.6" x="-142.1" y="-332.3" transform="rotate(180 1293.843 166.15)" overflow="visible"/></g><path fill="#BD9B4E" d="M2304 418.4c0 2.1-1.7 3.9-3.9 3.9h-32.4c-2.1 0-3.9-1.7-3.9-3.9v-1c0-2.1 1.7-3.9 3.9-3.9h32.4c2.1 0 3.9 1.7 3.9 3.9v1zm-78.6 0c0 2.1-1.7 3.9-3.9 3.9h-32.4c-2.1 0-3.9-1.7-3.9-3.9v-1c0-2.1 1.7-3.9 3.9-3.9h32.4c2.1 0 3.9 1.7 3.9 3.9v1z"/><g opacity=".6"><defs><path id="M" d="M2730 0v330.2c-20.8-5.6-35.9-2.2-42.4 0-.4.1-.8.3-1.1.4l-.9.3c-.3.1-.5.2-.7.3-.1 0-.2.1-.3.1-.3.1-.5.2-.5.3l-160.3 87.1-1 .5s-27.8-36.8-58-62.8c-.1-.1-.3-.2-.4-.3-13.4-11.4-27.2-20.7-39.3-23.7-.1 0-.3-.1-.4-.1-1-.2-1.9-.4-2.8-.6-.5-.1-1.1-.1-1.7-.1-11.8.8-32.5 27-56.1 64.3-.4.6-.8 1.2-1.1 1.8-.1.1-.2.3-.3.4-75.6-43.1-132.5-76.5-149.7-86.6V0h517z"/></defs><clipPath id="N"><use xlink:href="#M" overflow="visible"/></clipPath><g clip-path="url(#N)"><linearGradient id="O" gradientUnits="userSpaceOnUse" x1="-2584.416" y1="218.145" x2="-2331.931" y2="218.145" gradientTransform="rotate(-57.63 477.644 -4347.486)"><stop offset="0" stop-color="#FF8F29"/><stop offset=".214" stop-color="#FDA62E"/><stop offset=".515" stop-color="#FAC034"/><stop offset=".786" stop-color="#F9D038"/><stop offset="1" stop-color="#F8D539"/></linearGradient><path fill="url(#O)" d="M2461 236.3c-.2 27 9.7 36.7 36.2 34.7-11.2 24.1-5.9 36.4 19.4 44.3-19.5 17.9-19.1 31.3 1.4 48.4-24.8 9.5-29.7 22.5-17.9 46.8-27-.2-36.7 9.7-34.7 36.2-24.1-11.2-36.4-5.9-44.3 19.4-17.9-19.5-31.3-19.1-48.4 1.4-9.5-24.8-22.5-29.7-46.8-17.9.2-27-9.7-36.7-36.2-34.7 11.2-24.1 5.9-36.4-19.4-44.3 19.5-17.9 19.1-31.3-1.4-48.4 24.8-9.4 29.7-22.5 17.9-46.8 27 .3 36.7-9.7 34.7-36.2 24.1 11.2 36.4 5.9 44.3-19.4 17.9 19.5 31.3 19.1 48.3-1.4 9.6 24.8 22.6 29.6 46.9 17.9z"/><linearGradient id="P" gradientUnits="userSpaceOnUse" x1="2430.499" y1="1026.247" x2="2651.702" y2="819.972" gradientTransform="matrix(1 0 0 -1 -147.6 1266.01)"><stop offset="0" stop-color="#F6F43F"/><stop offset=".245" stop-color="#F7EF3D"/><stop offset=".555" stop-color="#F9DF36"/><stop offset=".899" stop-color="#FEC52B"/><stop offset="1" stop-color="#FFBC27"/></linearGradient><path fill="url(#P)" d="M2544.9 342.9c-50.5 13.9-53.3 27.2-11.9 58.9-51.6-7.6-59 3.3-32.5 48.1-44.8-26.6-55.7-19.2-48.1 32.5-31.7-41.4-45-38.6-58.9 11.9-13.9-50.5-27.2-53.3-58.9-11.9 7.6-51.6-3.3-59-48.1-32.5 26.6-44.8 19.2-55.7-32.5-48.1 41.4-31.7 38.6-45-11.9-58.9 50.5-13.9 53.3-27.2 11.9-58.9 51.6 7.6 59-3.3 32.5-48.1 44.8 26.6 55.7 19.2 48.1-32.5 31.7 41.4 45 38.6 58.9-11.9 13.9 50.5 27.2 53.3 58.9 11.9-7.6 51.6 3.3 59 48.1 32.5-26.6 44.8-19.2 55.7 32.5 48.1-41.4 31.6-38.6 44.9 11.9 58.9z"/><linearGradient id="Q" gradientUnits="userSpaceOnUse" x1="2541.102" y1="820.209" x2="2541.102" y2="1026.01" gradientTransform="matrix(1 0 0 -1 -147.6 1266.01)"><stop offset="0" stop-color="#FF8F29"/><stop offset=".214" stop-color="#FDA62E"/><stop offset=".515" stop-color="#FAC034"/><stop offset=".786" stop-color="#F9D038"/><stop offset="1" stop-color="#F8D539"/></linearGradient><path fill="url(#Q)" d="M2496.4 342.9c0 56.8-46.1 102.9-102.9 102.9s-102.9-46.1-102.9-102.9c0-56.8 46.1-102.9 102.9-102.9 56.8-.1 102.9 46 102.9 102.9z"/><linearGradient id="R" gradientUnits="userSpaceOnUse" x1="2541.101" y1="829.209" x2="2541.101" y2="937.909" gradientTransform="matrix(1 0 0 -1 -147.6 1266.01)"><stop offset="0" stop-color="#FFF" stop-opacity=".2"/><stop offset="1" stop-color="#FFF" stop-opacity="0"/></linearGradient><path fill="url(#R)" d="M2393.6 425.2c-54.9 0-99.7-43-102.8-97.1-.1 1.9-.2 3.9-.2 5.8 0 56.9 46.1 102.9 102.9 102.9s102.9-46.1 102.9-102.9c0-2-.1-3.9-.2-5.8-2.9 54.1-47.7 97.1-102.6 97.1z"/><linearGradient id="S" gradientUnits="userSpaceOnUse" x1="2540.901" y1="823.209" x2="2540.901" y2="931.909" gradientTransform="matrix(1 0 0 -1 -147.6 1266.01)"><stop offset="0" stop-color="#F9622D" stop-opacity=".4"/><stop offset=".31" stop-color="#FA772E" stop-opacity=".276"/><stop offset=".948" stop-color="#FBAC32" stop-opacity=".021"/><stop offset="1" stop-color="#FBB132" stop-opacity="0"/></linearGradient><path fill="url(#S)" d="M2393.4 431.2c-54.9 0-99.7-43-102.8-97.1-.1 1.9-.2 3.9-.2 5.8 0 56.8 46.1 102.9 102.9 102.9 56.8 0 102.9-46.1 102.9-102.9 0-2-.1-3.9-.2-5.8-2.8 54.1-47.7 97.1-102.6 97.1z"/><linearGradient id="T" gradientUnits="userSpaceOnUse" x1="4226.872" y1="3298.506" x2="4296.796" y2="3233.3" gradientTransform="rotate(31.892 -2895.312 -4757.003)"><stop offset="0" stop-color="#F8FF61" stop-opacity=".9"/><stop offset="1" stop-color="#F9FF73" stop-opacity="0"/></linearGradient><path fill="url(#T)" d="M2393.9 337.1c-33.5.3-60.8-20.4-61-46.3-.2-25.8 26.7-47 60.2-47.3s60.8 20.4 61 46.3c.2 25.8-26.8 47-60.2 47.3z"/></g></g></svg>