<svg xmlns="http://www.w3.org/2000/svg" xmlns:xlink="http://www.w3.org/1999/xlink" width="2730" height="1536" viewBox="0 0 2730 1536"><symbol id="ab" viewBox="-37.2 -25.4 74.3 50.7"><linearGradient id="a" gradientUnits="userSpaceOnUse" x1="-598.358" y1="-16831.045" x2="-598.358" y2="-16881.744" gradientTransform="matrix(1 0 0 -1 603.01 -16856.4)"><stop offset="0" stop-color="#567700"/><stop offset="1" stop-color="#91AC03"/></linearGradient><path fill="url(#a)" d="M6.1-25.4H3.2c-15.9 0-24.3 9.1-18.9 20.3l10.6 22c5.4 11.2 14.2 11.2 19.6 0l10.6-22c5.3-11.2-3.2-20.3-19-20.3z"/><path opacity=".05" d="M25-5.1l-10.8 22C11.4 22.6 8 25.5 4 25.3v-50.7h2.1c15.8 0 24.3 9.1 18.9 20.3z"/><linearGradient id="b" gradientUnits="userSpaceOnUse" x1="-583.478" y1="-16831.045" x2="-583.478" y2="-16871.65" gradientTransform="matrix(1 0 0 -1 603.01 -16856.4)"><stop offset="0" stop-color="#567700"/><stop offset="1" stop-color="#91AC00"/></linearGradient><path fill="url(#b)" d="M20.7-25.4h-2.3C5.7-25.4-1.1-18.1 3.2-9.1l8.5 17.6c4.3 9 11.3 9 15.7 0l8.5-17.6c4.3-9-2.5-16.3-15.2-16.3z"/><path opacity=".05" d="M35.9-9.1L27.2 8.5C25 13.1 23 15.4 19 15.2v-40.6h1.7c12.7 0 19.5 7.3 15.2 16.3z"/><g><linearGradient id="c" gradientUnits="userSpaceOnUse" x1="-624.972" y1="-16831.045" x2="-624.972" y2="-16866.158" gradientTransform="matrix(1 0 0 -1 603.01 -16856.4)"><stop offset=".006" stop-color="#305D00"/><stop offset="1" stop-color="#6F9B00"/></linearGradient><path fill="url(#c)" d="M-20.9-25.4h-2c-11 0-16.9 6.3-13.1 14.1l7.3 15.2c3.7 7.7 9.8 7.8 13.5 0l7.3-15.2c3.8-7.8-2-14.1-13-14.1z"/><path opacity=".05" d="M-7.8-11.3l-7.3 15.2C-17 7.9-19 9.8-22 9.7v-35.1h1.1c11 0 16.8 6.3 13.1 14.1z"/></g></symbol><symbol id="B" viewBox="-150.9 -230.1 301.9 460.1"><path fill="#E0A600" d="M-92.7-207c-8.6-11.1-20.2-16.8-33.2-12.4-.6 10.7-.7 21.2-.3 31.5 7.7-3.5 15.2-1.2 21.1 5.1 3.8-8.4 8-16.5 12.4-24.2z"/><path opacity=".1" d="M-126.1-215.9c.1-1.2.1-2.3.2-3.5 13-4.3 24.6 1.3 33.2 12.4-.5.8-1 1.7-1.5 2.6-8.4-10.3-19.5-15.4-31.9-11.5z"/><path fill="#E0A600" d="M-96.5-191.4c-9.2-10.5-21.1-15.2-33.9-10 0 10.6.4 21.1 1.3 31.2 7.5-4 15.2-2.3 21.3 3.6 3.5-8.5 7.3-16.8 11.3-24.8z"/><path opacity=".1" d="M-130.4-197.9v-3.5c12.8-5.3 24.7-.5 33.9 10-.4.9-.9 1.8-1.3 2.6-9-9.6-20.4-13.9-32.6-9.1z"/><path fill="#E0A600" d="M-99.5-175.7c-9.7-9.8-21.9-13.7-34.4-7.5.5 10.5 1.5 20.9 2.9 30.9 7.3-4.5 15-3.4 21.5 2 3-8.7 6.3-17.2 10-25.4z"/><path opacity=".1" d="M-133.7-179.7c-.1-1.2-.1-2.3-.2-3.5 12.5-6.2 24.7-2.3 34.4 7.5l-1.2 2.7c-9.5-8.9-21.1-12.4-33-6.7z"/><path fill="#E0A600" d="M-101.7-159.8c-10.2-9-22.6-12-34.8-5 1.1 10.4 2.6 20.6 4.5 30.5 7.1-5.1 14.9-4.4 21.6.5 2.5-8.9 5.4-17.6 8.7-26z"/><path opacity=".1" d="M-136.2-161.4c-.1-1.1-.2-2.3-.4-3.4 12.2-7.1 24.6-4.1 34.8 5-.4.9-.7 1.9-1.1 2.8-9.8-8.3-21.6-10.9-33.3-4.4z"/><path fill="#E0A600" d="M-103.2-143.9c-10.7-8.3-23.2-10.4-35-2.4 1.6 10.3 3.6 20.2 6.1 29.9 6.8-5.5 14.6-5.5 21.6-1 2.1-9.1 4.5-18 7.3-26.5z"/><path opacity=".1" d="M-137.6-143c-.2-1.1-.4-2.2-.5-3.4 11.8-7.9 24.4-5.9 35 2.4-.3.9-.6 1.9-.9 2.8-10.4-7.4-22.4-9.1-33.6-1.8z"/><path fill="#E0A600" d="M-103.8-128c-11.1-7.5-23.7-8.7-35.1.1 2.1 10.1 4.7 19.8 7.6 29.2 6.5-6 14.3-6.5 21.5-2.6 1.6-9.1 3.6-18 6-26.7z"/><path opacity=".1" d="M-138.2-124.6c-.2-1.1-.5-2.2-.7-3.3 11.4-8.8 24-7.6 35.1-.1-.3 1-.5 1.9-.8 2.9-10.7-6.8-22.7-7.7-33.6.5z"/><path fill="#E0A600" d="M-103.6-112.2c-11.4-6.7-24.1-7-35 2.6 2.6 9.8 5.7 19.3 9 28.4 6.2-6.4 14-7.4 21.3-4 1.2-9.2 2.7-18.2 4.7-27z"/><path opacity=".1" d="M-137.8-106.4c-.3-1.1-.6-2.1-.9-3.2 11-9.5 23.6-9.3 35-2.6-.2 1-.4 1.9-.6 2.9-11-6-23-6-33.5 2.9z"/><path fill="#E0A600" d="M-102.7-96.5c-11.7-5.9-24.4-5.3-34.9 5 3.1 9.6 6.6 18.8 10.5 27.6 5.9-6.8 13.5-8.4 21.1-5.5.7-9.2 1.8-18.2 3.3-27.1z"/><path opacity=".1" d="M-136.5-88.3c-.4-1-.7-2.1-1-3.1 10.5-10.3 23.1-10.9 34.9-5-.2 1-.3 2-.5 2.9-11.4-5.3-23.4-4.4-33.4 5.2z"/><path fill="#E0A600" d="M-100.9-81c-12-5.1-24.6-3.5-34.5 7.4 3.6 9.3 7.6 18.1 11.8 26.6 5.5-7.2 13.1-9.3 20.7-6.9.2-9.1.9-18.2 2-27.1z"/><path opacity=".1" d="M-134.3-70.5l-1.2-3c9.9-11 22.5-12.5 34.5-7.4-.1 1-.2 2-.3 2.9-11.5-4.4-23.5-2.7-33 7.5z"/><path fill="#E0A600" d="M-98.4-65.7c-12.2-4.2-24.7-1.8-34 9.8 4 8.9 8.4 17.4 13.1 25.5 5.2-7.5 12.6-10.1 20.3-8.3-.3-9-.1-18.1.6-27z"/><path opacity=".1" d="M-131.1-53c-.5-1-.9-1.9-1.3-2.9 9.3-11.6 21.8-14 34-9.8-.1 1-.1 2-.2 2.9-11.8-3.5-23.6-1-32.5 9.8z"/><path fill="#E0A600" d="M-95.2-50.7c-12.4-3.4-24.7-.1-33.5 12 4.5 8.6 9.3 16.7 14.3 24.4 4.8-7.8 12-10.9 19.8-9.6-.5-8.9-.8-17.9-.6-26.8z"/><path opacity=".1" d="M-127.2-35.8c-.5-.9-1-1.9-1.5-2.8 8.7-12.2 21.1-15.5 33.5-12v2.9c-11.9-2.8-23.6.5-32 11.9z"/><path fill="#E0A600" d="M-91.2-36c-12.5-2.6-24.7 1.5-32.7 14.2 4.9 8.2 10.1 15.9 15.5 23.2 4.4-8.1 11.5-11.6 19.3-10.8-1.2-8.9-1.9-17.7-2.1-26.6z"/><path opacity=".1" d="M-122.3-19.1c-.5-.9-1.1-1.8-1.6-2.7 8.1-12.7 20.2-16.8 32.7-14.2 0 1 .1 1.9.1 2.9-12-2-23.5 2.1-31.2 14z"/><path fill="#E0A600" d="M-86.6-21.7c-12.6-1.7-24.5 3.1-31.9 16.3 5.3 7.8 10.8 15.1 16.5 21.9 3.9-8.3 10.8-12.3 18.6-12-1.4-8.7-2.5-17.4-3.2-26.2z"/><path opacity=".1" d="M-116.7-2.8c-.6-.8-1.2-1.7-1.7-2.5 7.4-13.2 19.3-18.1 31.9-16.3.1 1 .2 1.9.2 2.9-12-1.3-23.3 3.6-30.4 15.9z"/><path fill="#E0A600" d="M-81.2-7.8c-12.6-.9-24.2 4.7-31 18.3 5.6 7.3 11.5 14.2 17.5 20.6 3.5-8.5 10.2-12.9 18-13.1-1.9-8.5-3.4-17.1-4.5-25.8z"/><path opacity=".1" d="M-110.3 13c-.6-.8-1.2-1.6-1.9-2.4 6.7-13.6 18.3-19.3 31-18.3.1.9.3 1.9.4 2.8-12.1-.5-23 5.1-29.5 17.9z"/><path fill="#E0A600" d="M-75.2 5.7c-12.6-.1-23.9 6.3-29.9 20.2 6 6.9 12.1 13.3 18.4 19.2 3.1-8.7 9.5-13.5 17.3-14.2-2.4-8.3-4.3-16.8-5.8-25.2z"/><path opacity=".1" d="M-103.2 28.1c-.7-.7-1.3-1.5-2-2.3 6-14 17.3-20.3 29.9-20.2.2.9.3 1.9.5 2.8-11.9.4-22.5 6.6-28.4 19.7z"/><path fill="#E0A600" d="M-68.6 18.6c-12.6.7-23.5 7.7-28.8 22C-91.1 47-84.7 53-78.1 58.4c2.7-8.8 8.8-14 16.5-15.2-2.7-8.1-5.1-16.3-7-24.6z"/><path opacity=".1" d="M-95.3 42.7l-2.1-2.1c5.3-14.2 16.2-21.3 28.8-22l.6 2.7c-11.9 1.1-22.1 8-27.3 21.4z"/><path fill="#E0A600" d="M-61.4 31c-12.5 1.4-23 9.2-27.6 23.6 6.6 6 13.2 11.4 20 16.4 2.2-8.9 8.1-14.4 15.7-16-3.1-7.9-5.8-15.9-8.1-24z"/><path opacity=".1" d="M-86.8 56.6c-.7-.6-1.4-1.3-2.2-1.9 4.6-14.5 15.1-22.2 27.6-23.6.3.9.5 1.8.8 2.7-11.8 1.6-21.7 9.2-26.2 22.8z"/><path fill="#E0A600" d="M-53.6 42.8C-66 45-76.1 53.4-79.9 68c6.8 5.4 13.7 10.4 20.7 14.9 1.8-8.9 7.4-14.7 14.8-16.8-3.5-7.6-6.5-15.4-9.2-23.3z"/><path opacity=".1" d="M-77.7 69.8c-.8-.6-1.5-1.2-2.2-1.8 3.9-14.6 14-23 26.3-25.1.3.9.6 1.7.9 2.6-11.7 2.4-21.2 10.5-25 24.3z"/><path fill="#E0A600" d="M-45.3 54.1c-12.2 2.9-21.9 11.8-25 26.5 7 4.9 14.1 9.4 21.2 13.5 1.4-8.9 6.7-15 14-17.5-3.7-7.4-7.2-14.9-10.2-22.5z"/><path opacity=".1" d="M-68 82.2c-.8-.5-1.5-1.1-2.3-1.6 3.2-14.7 12.8-23.6 25-26.5.3.8.7 1.7 1 2.5-11.5 3.1-20.6 11.8-23.7 25.6z"/><path fill="#E0A600" d="M-36.5 64.7c-12 3.6-21.2 13-23.6 27.8 7.2 4.4 14.4 8.4 21.7 12 .9-8.9 5.9-15.3 13.1-18.2-4.1-7-7.8-14.2-11.2-21.6z"/><path opacity=".1" d="M-57.8 93.9c-.8-.5-1.6-1-2.4-1.4 2.4-14.8 11.6-24.2 23.6-27.8.4.8.8 1.6 1.1 2.4-11.2 3.8-19.8 12.9-22.3 26.8z"/><path fill="#E0A600" d="M-27.3 74.7c-11.8 4.2-20.5 14.1-22.2 28.9 7.3 3.9 14.7 7.4 22.2 10.5.5-8.8 5.2-15.4 12.2-18.7-4.4-6.7-8.5-13.6-12.2-20.7z"/><path opacity=".1" d="M-47.1 104.9c-.8-.4-1.6-.8-2.4-1.3 1.7-14.8 10.4-24.7 22.2-28.9.4.8.8 1.6 1.2 2.3-11 4.4-19.2 13.9-21 27.9z"/><path fill="#E0A600" d="M-17.6 84c-11.6 4.8-19.7 15.1-20.8 29.9 7.5 3.4 15 6.4 22.5 9 .1-8.8 4.5-15.5 11.3-19.2-4.6-6.3-9-12.9-13-19.7z"/><path opacity=".1" d="M-35.9 115c-.8-.4-1.6-.7-2.5-1.1 1-14.7 9.2-25 20.8-29.9.4.7.9 1.5 1.3 2.2-10.8 5-18.5 14.9-19.6 28.8z"/><g><path fill="#E0A600" d="M-7.6 92.7c-11.3 5.4-19 16.1-19.3 30.7 7.6 2.9 15.2 5.4 22.8 7.5-.3-8.6 3.7-15.6 10.4-19.5-4.9-6-9.5-12.3-13.9-18.7z"/><path opacity=".1" d="M-24.4 124.3c-.8-.3-1.7-.6-2.5-1 .4-14.6 8-25.2 19.3-30.7.5.7 1 1.4 1.4 2.1-10.5 5.6-17.7 15.9-18.2 29.6z"/></g><g><path fill="#E0E0E0" d="M-40.2-193.1c0-20.4-24.8-36.9-55.4-36.9-30.6 0-55.4 16.5-55.4 36.9s24.8 36.9 55.4 36.9c30.6 0 55.4-16.5 55.4-36.9z"/><path fill="#9E9E9E" d="M-108.9-184.2c0-3.9-4.4-7.1-9.9-7.1s-9.9 3.2-9.9 7.1c0 3.9 4.4 7.1 9.9 7.1s9.9-3.1 9.9-7.1zm56.6-11c0-3.7-1.2-6.7-2.6-6.7-1.4 0-2.6 3-2.6 6.7s1.2 6.7 2.6 6.7c1.5 0 2.6-3 2.6-6.7zm-49.5-18v-1.9 1.9zm8.6-5c0-2.8-5.7-5.1-12.8-5.1-7.1 0-12.8 2.3-12.8 5.1s5.7 5.1 12.8 5.1c7.1-.1 12.8-2.3 12.8-5.1zm28.9 46.7c0-3-3-5.5-6.7-5.5s-6.7 2.5-6.7 5.5 3 5.5 6.7 5.5c3.8.1 6.7-2.4 6.7-5.5zm1.5-36.9c0-3.6-3.8-6.6-8.5-6.6s-8.5 2.9-8.5 6.6c0 3.6 3.8 6.6 8.5 6.6 4.8-.1 8.5-3 8.5-6.6zm-72 6.1c0-2.9-1.6-5.3-3.6-5.3s-3.6 2.4-3.6 5.3 1.6 5.3 3.6 5.3 3.6-2.3 3.6-5.3z"/></g><path fill="#754C24" d="M29.5 70.4c0-17.7-10-32-22.3-32s-22.3 14.3-22.3 32 10 32 22.3 32 22.3-14.3 22.3-32z"/><path fill="#754C24" d="M-2.5 75.6c-9.8-10-23.3-12.5-30.3-5.7-6.9 6.8-4.6 20.4 5.2 30.4s23.3 12.5 30.3 5.7c6.9-6.8 4.6-20.4-5.2-30.4z"/><path fill="#754C24" d="M-24.3 97.4c-11.2.4-20 7-19.8 14.8.3 7.8 9.5 13.8 20.7 13.4 11.2-.4 20-7 19.8-14.8-.2-7.7-9.5-13.7-20.7-13.4z"/><linearGradient id="d" gradientUnits="userSpaceOnUse" x1="-149.778" y1="90.855" x2="150.943" y2="90.855"><stop offset="0" stop-color="#468333"/><stop offset=".194" stop-color="#508831"/><stop offset=".528" stop-color="#6C942A"/><stop offset=".959" stop-color="#98A920"/><stop offset="1" stop-color="#9DAB1F"/></linearGradient><path fill="url(#d)" d="M23.1 110.1C67.2 129.6 81.9 139 151 122.9c-22.6 40.3-92 51.5-131.6-3.3C53.6 186.4 7.2 229.8-35.9 230c39.6-37.6 49.6-71 45.1-107.6-.3 69.1-78.5 93.4-131.4 57.1 71.7-12 93.8-21.5 117.8-62.4-43.3 59.9-124 19.4-145.2-37.4 6.6 4 13 7.5 19.3 10.6 1.1 2.5 2.2 4.9 3.2 7.1.5-.1 1.7-2 2.9-4.2 2.8 1.3 5.5 2.5 8.3 3.6 1.1 2.5 2.3 4.9 3.9 6.9 1.2-.4 2-2.3 2.7-4.3 2.8 1 5.6 2 8.4 2.9 1.1 1.9 2.3 3.6 4.1 4.2.6-.7 1.1-1.6 1.4-2.6 3.9 1.1 7.7 2 11.5 2.8 1.8 2.6 3.6 5.3 4.8 8 1.7-1.5 2.2-4.1 2.9-6.6 3.7.6 7.4 1 11.1 1.4 3.3 2 6.5 3.8 7.4 3.9-.1.1.6-1.5 1.3-3.4 16.3.6 33.1-1 51.6-4.3-65.9-16.5-92.2-72.9-71.7-135 18.2 60.9 42.2 93 82.6 129 13.7-56 23.3-90.8 13.5-148C65.6-26 78 76.8 18.4 102c52.5-9.5 66.1-26.1 101.5-86.3 13.3 65.4-34.1 117.9-96.8 94.4z"/><linearGradient id="e" gradientUnits="userSpaceOnUse" x1="-839.736" y1="-691.669" x2="-641.752" y2="-691.669" gradientTransform="rotate(-5.19 8310.781 -8495.66)"><stop offset="0" stop-color="#4F8F39"/><stop offset="1" stop-color="#CCDB29"/></linearGradient><path fill-rule="evenodd" clip-rule="evenodd" fill="url(#e)" d="M18.2 98.9c31.9.5 43.3 2.4 81.1-25.3-3.3 30.3-42.7 55.1-80.9 32 38.1 31.8 21.1 70.2-5.1 81.5 14.4-33.1 11.8-56-.4-77.1 17.7 42.1-23.6 77.1-65.2 68.7 40.5-25.8 51.5-37.3 55.5-68.4-10.9 47.6-70.4 43.9-98 14.8 39 5.4 64.8-1.8 94.9-21.6-44.4 7-75-20.5-78.6-63.6C-51.6 72.2-28.7 85.5 5.2 97-1 59.3-4.1 35.7-24.9 3.4 8.9 5.1 43 64.4 13.2 95.2c29.5-19.4 33.5-33 39.5-78.7 25 36.3 9.8 80.5-34.5 82.4z"/></symbol><symbol id="C" viewBox="-44.4 -39.6 88.9 79.2"><linearGradient id="f" gradientUnits="userSpaceOnUse" x1="4110.665" y1="-12219.781" x2="4110.665" y2="-12196.132" gradientTransform="matrix(2.087 0 0 -2.087 -8577.512 -25491.617)"><stop offset="0" stop-color="#D9975B"/><stop offset=".551" stop-color="#7C4428"/><stop offset="1" stop-color="#48260B"/></linearGradient><path fill="url(#f)" d="M28.3-20C17.4-38.1 5.1-38.3 0-38.3c-5.1 0-18.8 4-26.3 19.1-1.8 3.6-2.8 7.2-3.4 10.6-.9 6-.3 11.4.5 15 0 .2.1.4.2.6.2 1.1.5 1.9.7 2.6 0 .1.1.2.1.3.2.8.4 1.1.4 1.1l21.1-.1 37.5-.2c0 .1 6.4-11.9-2.5-30.7z"/><linearGradient id="g" gradientUnits="userSpaceOnUse" x1="4110.669" y1="-12215.578" x2="4110.669" y2="-12223.663" gradientTransform="matrix(2.087 0 0 -2.087 -8577.512 -25491.617)"><stop offset="0" stop-color="#7C4428"/><stop offset="1" stop-color="#D9975B"/></linearGradient><path fill="url(#g)" d="M30.9 10.8l-1.4-2.9-3.2-.9-2.9-1.1-3-1.2-3-1-3.3.3L11 2.8l-3.2.1-3.3.5-3.1-1.1-3.3.5-3.2-.1h-3.2l-3.2.4-3.1 1.2-3.1.8-3.1.5-2.8 1.4-3 1.1-1.4 2.7 1.5 2.4 2.8 1.5 2.8 1.5 3.2.5 3 1.2 3.3-.5 3.1 1.3 3.2.1 3.2.4 3.3-.1 3.2-.3 3.1-.6 3.2-.2 3.2-.4 3.3.3 3-1.3 3.2-.5 3-.9 2.8-1.8z"/><linearGradient id="h" gradientUnits="userSpaceOnUse" x1="4110.669" y1="-12215.843" x2="4110.669" y2="-12223.397" gradientTransform="matrix(2.087 0 0 -2.087 -8577.512 -25491.617)"><stop offset="0" stop-color="#D6DBDE"/><stop offset="1" stop-color="#FFF"/></linearGradient><path fill="url(#h)" d="M-1.7 3.4l-3.2-.1-3.1-.1-3 .4-3 1.2-3 .9-3 .4-2.7 1.4-2.8 1.1-1.1 2.1 1.2 2.1 2.6 1.4 2.7 1.5 3 .5 2.9 1.1 3.2-.5 3.1 1.4h3l3.1.4h3.1l3.1-.3 3.1-.6 3.1-.3 3.1-.4 3.1.4 2.9-1.4 3.2-.4 2.8-.9 2.5-1.7 1.3-2.3-1.2-2.3-2.8-.9-2.9-1.1-2.9-1.2-2.9-1-3.2.4-3-1.3-3 .2-3.2.4-3.1-1.1z"/><linearGradient id="i" gradientUnits="userSpaceOnUse" x1="4110.679" y1="-12216.643" x2="4110.679" y2="-12222.617" gradientTransform="matrix(2.087 0 0 -2.087 -8577.512 -25491.617)"><stop offset="0" stop-color="#B8BDBF"/><stop offset=".303" stop-color="#C2C7C9"/><stop offset=".721" stop-color="#D6DBDE"/><stop offset="1" stop-color="#E7EAEC"/></linearGradient><path fill="url(#i)" d="M26.4 10.7c-.1-.1-.1-.1 0 0l-.4-.9-2.1-.6L21 8l-1.8-.8-.9-.4-2.2-.8-.2-.1-3.1.4L12 6 9.9 5h-.8l-1.7.1-3.3.5-2.9-1.1-2.6.5-3.2-.1h-2.8l-2.6.4-2.7 1.1-3.1.9-2.7.4-2.4 1.4-2.1.9-.4.8.5.9 2.1 1.2 2.3 1.4 2.8.4 2.5 1.1 3.1-.5 3 1.4h2.7l3 .4h2.7l2.7-.3 3-.6 3-.2 3.1-.4 2.1.2.6.1 1.4-.7 1.1-.6 2.4-.4.7-.1 1.4-.5 1-.4 1.9-1.3.7-1.2z"/><linearGradient id="j" gradientUnits="userSpaceOnUse" x1="4110.764" y1="-12216.644" x2="4110.764" y2="-12220.29" gradientTransform="matrix(2.087 0 0 -2.087 -8577.512 -25491.617)"><stop offset="0" stop-color="#009EE9"/><stop offset="1" stop-color="#7FD9FF"/></linearGradient><path fill="url(#j)" d="M26.3 10.6l-.4-.9-2.1-.6-2.9-1.2-1.8-.8-.9-.4-2.1-.7-.2-.1-3.1.4-.8-.4L9.9 5h-.8l-1.7.1-1.2.2-2.1.3-2.9-1.1-.2.1-2.5.5-2.4-.1h-3.6l-2.5.3-2.7 1.1-3.1.9-2.7.4-2.4 1.4-2.1.9c7.8 1.1 15.6 2.2 26 2.2 1.9 0 4 0 6-.2 2.8-.1 5.6-.3 8.3-.5.8-.1 1.6-.1 2.3-.2 2.5-.3 4.7-.5 6.7-.7z"/><path opacity=".2" fill="#FFF" d="M26.3 10.6l-.4-.9-2.1-.6-2.9-1.2-1.8-.8-.9-.4-2.1-.7-.2-.1-3.1.4-.8-.4L9.9 5h-.8l-1.7.1-1.2.2 13.4 6c2.5-.3 4.7-.5 6.7-.7zm-9 .9L1 4.5l-2.5.5-2.4-.1L8.9 12c2.8-.1 5.7-.3 8.4-.5z"/><path opacity=".41" fill="#FFF" d="M-22 9.5c7.5 1 15 2.1 25 2.1 7.7 0 16.7-.9 23.2-1.5l.2.5c-6.4.6-15.6 1.5-23.4 1.5-10.4 0-18.2-1.1-26-2.2l1-.4z"/><linearGradient id="k" gradientUnits="userSpaceOnUse" x1="4121.661" y1="-12224.306" x2="4122.572" y2="-12223.784" gradientTransform="matrix(2.087 0 0 -2.087 -8577.512 -25491.617)"><stop offset="0" stop-color="#F07A7A"/><stop offset=".251" stop-color="#FFA9A9"/><stop offset="1" stop-color="#F14738"/></linearGradient><path fill="url(#k)" d="M34.5 34v-.1l-8-13.9-.8-1.3-2.9-5.1-.5-1-3.2-5.5-.8-.4-2.2-.7 4.2 7.2.5.9 3.2 5.6.8 1.3 7.9 14 1.8-1z"/><path fill="none" d="M35.2 37.7l.4.3-.7-.2c.1-.1.2-.1.3-.1z"/><path fill="none" d="M35.5 37.5v.5l-.4-.3c.2-.1.4-.1.4-.2zm.3-.3l-.2.8v-.5c0-.1.1-.2.2-.3z"/><linearGradient id="l" gradientUnits="userSpaceOnUse" x1="4124.703" y1="-12228.448" x2="4117.292" y2="-12232.908" gradientTransform="matrix(2.087 0 0 -2.087 -8577.512 -25491.617)"><stop offset="0" stop-color="#FF6634"/><stop offset="1" stop-color="#FFFFC1"/></linearGradient><path fill="url(#l)" d="M35.2 37.7l-1.2-.9-6.7-4.9-5.2-3.8-1.5-1.1-2.3-1.6c-.4.3-.8.6-1.1.9-.3.2-.6.4-.8.7-.6.5-1.2 1-1.8 1.6-.7.6-1.3 1.2-2 1.9l21.3 7 1.1.4c0-.2.1-.2.2-.2z"/><linearGradient id="m" gradientUnits="userSpaceOnUse" x1="2358.793" y1="-9372.665" x2="2357.064" y2="-9374.105" gradientTransform="scale(2.087 -2.087) rotate(29.748 -16429.955 -9113.607)"><stop offset="0" stop-color="#FF6634"/><stop offset="1" stop-color="#FFFFC1"/></linearGradient><path fill="url(#m)" d="M34.8 37.7l-1-.3-21.7-6.6-1 1c-.7.8-.4 2.1.4 2.1 6.6-.1 14.5 1.7 22.3 3.6.3.1.6.1.8.2h.2z"/><linearGradient id="n" gradientUnits="userSpaceOnUse" x1="4131.443" y1="-12229.09" x2="4126.667" y2="-12224.314" gradientTransform="matrix(2.087 0 0 -2.087 -8577.512 -25491.617)"><stop offset="0" stop-color="#FF6634"/><stop offset="1" stop-color="#FFFFC1"/></linearGradient><path fill="url(#n)" d="M42.7 13.8c-.5.1-.9.2-1.4.4l-3 12.4-1 4-.2.6-.6 2.8-.5 2.1-.2 1c0-.1 0-.1.1-.2.1-.3.2-.6.2-.8.2-.8.5-1.6.7-2.3.3-.9.5-1.7.8-2.5.1-.2.1-.4.2-.6.4-1.3.9-2.7 1.3-4 1.5-4.3 3.2-8.3 5.2-11.5.5-.8-.5-1.7-1.6-1.4z"/><linearGradient id="o" gradientUnits="userSpaceOnUse" x1="2367.726" y1="-9373.838" x2="2364.629" y2="-9372.05" gradientTransform="scale(2.087 -2.087) rotate(29.748 -16429.955 -9113.607)"><stop offset="0" stop-color="#FF6634"/><stop offset="1" stop-color="#FFFFC1"/></linearGradient><path fill="url(#o)" d="M40.8 14.3c-2.5.7-4.9 1.5-7.2 2.4L35.4 36l.2 1.5c.1-.1.2-.2.2-.3l.2-1.1 4.8-21.8z"/><path opacity=".15" fill="#020202" d="M34.5 33.9l-8.7-15.3c-.6.3-1.2.7-1.8 1L32.7 35l.5.4 1.2.9c.1 0 .2-.1.3-.2l-.2-1.5v-.7z"/><linearGradient id="p" gradientUnits="userSpaceOnUse" x1="4127.817" y1="-12227.818" x2="4119.011" y2="-12226.266" gradientTransform="matrix(2.087 0 0 -2.087 -8577.512 -25491.617)"><stop offset="0" stop-color="#FF6634"/><stop offset="1" stop-color="#FFFFC1"/></linearGradient><path fill="url(#p)" d="M35.5 37.5l-.2-1.5-.2-2-.4-3.3-.1-.7-.6-4.4-1-8.7c-4 1.7-7.8 3.7-11.3 6.1-1 .7-1.9 1.3-2.9 2.1l2.8 2.2 1.4 1.1 4.9 3.8 6.1 4.7 1.2.9c.1-.2.3-.2.3-.3z"/><path opacity=".2" fill="#FFF" d="M20.6 27l-2.3-1.6c-.4.3-.8.6-1.1.9l3.4.7z"/><path fill="#FCEFC3" d="M35.8 37.1l-.2.8.2-.8c0 .1 0 .1 0 0z"/><linearGradient id="q" gradientUnits="userSpaceOnUse" x1="2370.424" y1="-9368.803" x2="2370.93" y2="-9368.803" gradientTransform="scale(2.087 -2.087) rotate(29.748 -16429.955 -9113.607)"><stop offset=".036" stop-color="#A85E32"/><stop offset=".339" stop-color="#E8BD85"/><stop offset=".715" stop-color="#FFE8C3"/><stop offset="1" stop-color="#FFF6E7"/></linearGradient><path fill="url(#q)" d="M41 13.3l.5.1-.2.7c-.2 0-.4.1-.6.2l.3-1z"/><path fill="#FCEFC3" d="M35.5 37.5v.5-.5z"/><linearGradient id="r" gradientUnits="userSpaceOnUse" x1="2366.567" y1="-9368.124" x2="2366.9" y2="-9368.124" gradientTransform="scale(2.087 -2.087) rotate(29.748 -16429.955 -9113.607)"><stop offset=".036" stop-color="#A85E32"/><stop offset=".339" stop-color="#E8BD85"/><stop offset=".715" stop-color="#FFE8C3"/><stop offset="1" stop-color="#FFF6E7"/></linearGradient><path fill="url(#r)" d="M33 16.4h.6v.4c-.2.1-.4.2-.5.2l-.1-.6z"/><linearGradient id="s" gradientUnits="userSpaceOnUse" x1="2354.333" y1="-9368.81" x2="2354.841" y2="-9368.81" gradientTransform="scale(2.087 -2.087) rotate(29.748 -16429.955 -9113.607)"><stop offset=".036" stop-color="#A85E32"/><stop offset=".339" stop-color="#E8BD85"/><stop offset=".715" stop-color="#FFE8C3"/><stop offset="1" stop-color="#FFF6E7"/></linearGradient><path fill="url(#s)" d="M11.4 30.6l.2-.5.9.3c-.2.1-.3.3-.4.4l-.7-.2z"/><path fill="#FCEFC3" d="M35.6 37.9l-.8-.2.8.2z"/><linearGradient id="t" gradientUnits="userSpaceOnUse" x1="2358.363" y1="-9368.107" x2="2358.696" y2="-9368.107" gradientTransform="scale(2.087 -2.087) rotate(29.748 -16429.955 -9113.607)"><stop offset=".036" stop-color="#A85E32"/><stop offset=".339" stop-color="#E8BD85"/><stop offset=".715" stop-color="#FFE8C3"/><stop offset="1" stop-color="#FFF6E7"/></linearGradient><path fill="url(#t)" d="M18 25.2l.3-.4.4.3c-.2.1-.3.2-.4.3l-.3-.2z"/><path fill="#FCEFC3" d="M35.2 37.7l.4.3-.4-.3z"/><path d="M41.3 14.1c-.2 0-.4.1-.6.2L36 36.2l-.2 1.1.2-1 5.3-22.2zm-7.8 2.6c-.2.1-.4.2-.5.2L35.3 36l.2 1.5-.1-1.5-1.9-19.3zm1.4 21l-1.1-.4-21.3-7c-.2.1-.3.3-.4.4l21.7 6.6 1 .3c0 .1.1.1.1.1zm.3 0l-1.2-.9-15.2-11.7c-.2.1-.3.2-.4.3L34 36.8l1.2.9z" fill="#FFDE80"/><path opacity=".15" fill="#020202" d="M36.1 36.2H36c-.2-.1-.4-.1-.6-.1-.3 0-.5.1-.8.2-.2.1-.4.3-.6.6-.1.2-.2.4-.2.6v.1c.3.1.6.1.8.2h.5c.1 0 .2-.1.3-.2.1-.1.2-.2.2-.3 0-.1 0-.1.1-.2.2-.4.3-.7.4-.9z"/><radialGradient id="u" cx="2362.17" cy="-9378.033" r="1.345" gradientTransform="scale(2.087 -2.087) rotate(29.748 -16429.955 -9113.607)" gradientUnits="userSpaceOnUse"><stop offset="0" stop-color="#E4554F"/><stop offset="1" stop-color="#AD2A27"/></radialGradient><path fill="url(#u)" d="M35.7 39.6c.9 0 1.6-.7 1.6-1.6 0-.9-.7-1.6-1.6-1.6-.9 0-1.6.7-1.6 1.6 0 .9.7 1.6 1.6 1.6z"/><radialGradient id="v" cx="2354.177" cy="-9368.737" r=".455" gradientTransform="scale(2.087 -2.087) rotate(29.748 -16429.955 -9113.607)" gradientUnits="userSpaceOnUse"><stop offset="0" stop-color="#E4554F"/><stop offset="1" stop-color="#AD2A27"/></radialGradient><path fill="url(#v)" d="M11.3 30.8c.3 0 .5-.2.5-.5s-.2-.5-.5-.5-.5.2-.5.5.2.5.5.5z"/><radialGradient id="w" cx="2358.207" cy="-9368.02" r=".455" gradientTransform="scale(2.087 -2.087) rotate(29.748 -16429.955 -9113.607)" gradientUnits="userSpaceOnUse"><stop offset="0" stop-color="#E4554F"/><stop offset="1" stop-color="#AD2A27"/></radialGradient><path fill="url(#w)" d="M17.8 25.3c.3 0 .5-.2.5-.5s-.2-.5-.5-.5-.5.2-.5.5.3.5.5.5z"/><radialGradient id="x" cx="2366.674" cy="-9368.001" r=".455" gradientTransform="scale(2.087 -2.087) rotate(29.748 -16429.955 -9113.607)" gradientUnits="userSpaceOnUse"><stop offset="0" stop-color="#E4554F"/><stop offset="1" stop-color="#AD2A27"/></radialGradient><path fill="url(#x)" d="M33.1 16.5c.3 0 .5-.2.5-.5s-.2-.5-.5-.5-.5.2-.5.5.2.5.5.5z"/><radialGradient id="y" cx="2370.702" cy="-9368.736" r=".455" gradientTransform="scale(2.087 -2.087) rotate(29.748 -16429.955 -9113.607)" gradientUnits="userSpaceOnUse"><stop offset="0" stop-color="#E4554F"/><stop offset="1" stop-color="#AD2A27"/></radialGradient><path fill="url(#y)" d="M41.2 13.7c.3 0 .5-.2.5-.5s-.2-.5-.5-.5-.5.2-.5.5c0 .2.2.5.5.5z"/><path fill="#B67F4F" d="M-11.6-32c-11.7 7.2-17.6 22-15.5 36.4.2-14 5.4-27.5 15.5-36.4z" opacity=".77"/><path fill="#7A3D1C" d="M-12.2-32.5C-23.9-25.3-29.8-10.4-27.6 4c.1-14 5.4-27.5 15.4-36.5z" opacity=".77"/><path opacity=".77" fill="#B67F4F" d="M-7.8-32.8c-8.7 8.7-15.8 21.3-13.9 34 .5-12.4 7-23.9 13.9-34z"/><path opacity=".77" fill="#7A3D1C" d="M-8.5-32.8c-8.7 8.7-15.8 21.3-13.9 34 .5-12.4 7-23.9 13.9-34z"/><path opacity=".77" fill="#B67F4F" d="M-1.7-35.5C-10-25.8-16.7-12.8-15 .3c.6-12.9 6.9-24.9 13.3-35.8z"/><path opacity=".77" fill="#7A3D1C" d="M-2.3-35.5c-8.3 9.7-15 22.8-13.3 35.8.6-12.9 6.9-24.9 13.3-35.8z"/><path opacity=".77" fill="#B67F4F" d="M.2-35.5C-4.7-25.1-8.3-13.3-7.3-1.7-6-13.2-2.6-24.3.2-35.5z"/><path opacity=".77" fill="#7A3D1C" d="M-.4-35.5C-5.2-25.1-8.9-13.3-7.8-1.7c1.3-11.5 4.7-22.6 7.4-33.8z"/><path fill="#B67F4F" d="M14.8-32c11.7 7.1 17.5 22 15.4 36.4-.2-14-5.4-27.5-15.4-36.4z" opacity=".77"/><path fill="#7A3D1C" d="M15.3-32.5C27-25.3 32.9-10.4 30.8 4c-.2-14-5.5-27.5-15.5-36.5z" opacity=".77"/><path opacity=".77" fill="#B67F4F" d="M10.9-32.8c8.7 8.7 15.8 21.3 13.9 34-.4-12.4-6.9-23.9-13.9-34z"/><path opacity=".77" fill="#7A3D1C" d="M11.6-32.8c8.7 8.7 15.8 21.3 13.9 34-.5-12.4-7-23.9-13.9-34z"/><path opacity=".77" fill="#B67F4F" d="M4.8-35.5c8.3 9.7 15 22.8 13.3 35.8-.6-12.9-6.9-24.9-13.3-35.8z"/><path opacity=".77" fill="#7A3D1C" d="M5.4-35.5c8.3 9.7 15 22.8 13.3 35.8-.6-12.9-6.9-24.9-13.3-35.8z"/><path opacity=".77" fill="#B67F4F" d="M2.9-35.5C7.8-25 11.4-13.3 10.3-1.6 9.1-13.2 5.7-24.3 2.9-35.5z"/><path opacity=".77" fill="#7A3D1C" d="M3.5-35.5C8.4-25.1 12-13.3 10.9-1.7 9.7-13.2 6.3-24.3 3.5-35.5z"/><path opacity=".77" fill="#B67F4F" d="M2.1-35.9C1-24.5 1-13 2.1-1.7c1.1-11.3 1.1-22.8 0-34.2z"/><path opacity=".77" fill="#7A3D1C" d="M1.6-35.9a162.9 162.9 0 0 0 0 34.2c1.1-11.3 1.1-22.8 0-34.2z"/><g fill="#895837"><path d="M20.5-28.2c.5-.4 5.3 7.4 5.7 8.1 1.9 3.8 3.2 7.8 4.3 11.9.5 1.8.8 3.7 1.1 5.6.3 2 .6 4.1.5 6.1 0 .3-.6 4.1-.8 3.9.1 0 .5-3.7.5-4 0-2-.3-4-.6-6-.4-1.9-.7-3.7-1.2-5.5-1.1-4-2.4-8-4.3-11.8-.3-.6-5.1-8.4-5.2-8.3.1 0 0 0 0 0z"/><path d="M31.8 6.2c-.2.5-2.3-2.7-2.4-3-.7-1.6-1-3.4-1.2-5.1-.5-3.4-.9-6.7-1.9-10-1.1-3.5-2.4-7-4.1-10.3-.2-.3-3.6-6.1-3.7-6.1.3-.3 4.1 6.1 4.4 6.5 1.7 3.3 3.1 6.8 4.2 10.4.9 3 1.2 5.9 1.6 9 .2 1.7.5 3.4 1 5 0 .3 1.9 3.8 2.1 3.6z"/><path d="M24.6-25.9c-.2-.1-.4 3.5-.4 3.6.1 1.4.4 2.7.7 4.1.5 2 1.2 3.9 1.9 5.8 1 2.8 2 5.6 2.5 8.5.2 1.4.4 2.8.4 4.2 0 .1-.6 3.9-1 3.6.2.1.7-3.2.7-3.4 0-1.4-.2-2.9-.5-4.3-.6-2.9-1.6-5.7-2.6-8.5-.7-1.9-1.3-3.8-1.8-5.8-.3-1.3-.6-2.6-.6-4-.1-.3.3-4 .7-3.8 0 .1 0 0 0 0z"/><path d="M17.5-33.4c-.4 0 2.3 6.1 2.5 6.5 1.5 2.5 3.2 5.1 4.9 7.5.9 1.3 2 2.6 2.9 4 .3.4 3.9 6.6 3.2 6.8.3 0-3-5.8-3.3-6.2-1-1.5-2.2-2.8-3.2-4.3-1.7-2.3-3.3-4.7-4.7-7.2-.2-.5-3.2-7.2-2.3-7.1 0 0-.1 0 0 0z"/><path d="M27 5.7c.1 0 .9-3.7.9-4 .2-2.1.1-4.1-.1-6.2-.4-2.7-1.1-5.3-1.8-7.9-.9-3.4-1.9-6.8-3-10.2-.7-1.9-1.3-3.9-2.2-5.8-.3-.7-.6-1.6-1.2-2.2.1.1-1.2-1.1-1.1-.7 0 0 .9.2 1.3.6.6.6.9 1.5 1.3 2.2.9 1.9 1.7 3.8 2.3 5.7 1.2 3.3 2.2 6.7 3.1 10.2.8 2.9 1.5 5.8 1.8 8.9.2 1.9.2 4-.2 5.9.1.3-.9 3.6-1.1 3.5 0-.1 0 0 0 0z"/><path d="M18-34s.8 5.7.9 6.3c.7 3 1.6 6 2.5 9 .8 2.8 1.7 5.7 2.4 8.5.2 1.2.5 2.5.7 3.7.1.6.1 1.1.1 1.6 0 .1-.3.7-.4.6-.1-.2.1-1.7 0-2.2-.2-1.1-.6-2.2-.8-3.3-.8-2.9-1.7-5.8-2.6-8.8-.8-2.9-1.7-5.8-2.3-8.7-.2-.5-.9-6.8-.5-6.7 0 0-.1 0 0 0z"/><path d="M24.4 6.9c.1.1 1.4-4.6 1.5-4.9.4-2.5.3-4.9.2-7.4-.1-2.3-.2-4.7-.6-7 0-.3-1.7-5.3-1.9-5 .3-.4 2.2 4.2 2.3 4.6.6 2.4.7 4.9.8 7.4.1 2.4.1 4.7-.3 7.1-.1.6-1.6 5.5-2 5.2zm-7.2-42.2c-.3 0 .3 6.8.4 7.3.6 3.5 1.7 6.9 2.7 10.3 1 3.3 2 6.6 2.5 10 .2 1.6.4 3.2.3 4.7 0 .3-.6 3.9-.9 3.8.5.2.2-7.4.2-8-.6-3.4-1.6-6.7-2.6-10s-2-6.6-2.6-10c0-.6-.7-8.3 0-8.1zm1 37c.4.2.8-8.2.8-8.9-.2-3.4-.7-6.7-1-10-.4-3.8-1.1-7.5-2.2-11.1-.3-.9-.5-1.9-.8-2.8-.1-.3-1.5-3.4-1.5-3.5 0 0 1.7 3.1 1.8 3.4.4 1.1.8 2.3 1.1 3.4 1.1 3.6 1.8 7.3 2.2 11 .3 2.7.6 5.4.8 8.1.2 2.1.2 4.2 0 6.4-.1.2-.9 4.2-1.2 4 0 0 .1 0 0 0z"/><path d="M12.6-36.4c-.4 0 1.7 8.3 1.9 9 .9 2.8 1.8 5.6 2.5 8.6.8 3.3 1.9 6.5 2.7 9.8.4 1.7.8 3.5.9 5.2 0 .3-.1 4.9-.5 4.8.6.2-.6-8.5-.8-9.1-.9-3.6-2.1-7-2.9-10.6-.7-2.9-1.5-5.7-2.4-8.5-.3-.9-2.2-9.3-1.4-9.2 0 0-.1 0 0 0zM14.5.1c.3.1 1.4-7.6 1.4-8.2.1-3.6-.5-7.1-1.3-10.5-.3-1.4-5.4-18.3-5.2-18.3.3-.1 5.1 16 5.5 17.3.9 3.8 1.6 7.6 1.5 11.5 0 .6-1.3 8.5-1.9 8.2 0 0 .1 0 0 0z"/><path d="M11.3-37.5c-.2 0 .9 7.2 1.1 7.8.9 3.4 2.2 6.6 3.4 9.8 1.2 3.1 2.4 6.3 2.9 9.6.1.6.3 7.8-.3 7.6.4.1-.1-7.3-.2-7.9-.7-3.4-1.9-6.7-3.2-9.9-1.2-3.1-2.4-6.2-3.2-9.5 0-.4-1-7.5-.5-7.5.1 0 0 0 0 0z"/><path d="M17.1 1.3c.2 0 0-9.1-.1-9.9-.4-3.4-1.2-6.7-2.2-10-.7-2.5-1.4-5.1-1.9-7.6-.4-2-.6-4-.5-6 0-.2.6-4 .9-3.9-.1 0-.6 3.6-.6 3.9 0 2 .3 4 .7 5.9.5 2.5 1.2 5.1 1.9 7.6.9 3.3 1.8 6.6 2.1 10.1.2.8.4 10-.3 9.9-.1 0 0 0 0 0zm-4.6-3.5c.5.2 1.1-7.3 1-7.9-.2-3.5-.7-7.2-1.4-10.6-.7-3.4-1.8-6.6-2.8-9.8-.5-1.5-.9-3-1.4-4.4-.1-.2-1.4-2.8-1.5-2.7.2-.3 1.9 3.1 2 3.2.5 1.3.9 2.7 1.4 4 1.1 3.2 2.3 6.5 2.9 9.9.6 3.4 1.1 6.9 1.2 10.3.1.6-.6 8.4-1.4 8zm-6.6-36c-.4-.2.3 3.5.4 3.7.6 1.6 1 3.2 1.3 4.9.6 3.4 1.1 6.9 1.8 10.3.6 3.4 1.1 6.8 1.1 10.2 0 2-.1 5-1.3 6.6 0-.1-.5-.8-.4-.8l.3.5c1.8-5.8.6-12.2-.6-18-.6-3.2-1-6.3-1.5-9.5-.2-1.4-.6-2.8-1-4.2-.1 0-.8-4-.1-3.7zM6.4.7s1-3.6 1-3.9c.3-1.6.3-3.2 0-4.8-.7-3.7-2.5-7.1-3.5-10.7-1.1-3.8-1.4-7.8-1.1-11.7.1-.8 1.2-8.6 1.6-8.5-.2 0-1.1 8.3-1.2 8.9-.2 3.9.2 7.7 1.3 11.5 1 3.3 2.5 6.4 3.2 9.8.4 1.7.4 3.4.2 5.1C7.8-3.4 6.7.8 6.4.7c0-.1 0 0 0 0z"/><path d="M4.7-37.1c-.2-.3-1.5 2.8-1.5 2.9-.3 1.4-.2 3-.1 4.5.3 3.2 1.3 6.3 2.1 9.4C6.5-14.7 7-8.7 6.6-3l.6-.4c.1.1-.6.6-.7.6-.6-.7-.2-3.8-.2-4.7-.2-3.7-.6-7.4-1.3-11.1C4.2-22 3-25.4 2.7-29c-.2-1.6-.2-3.4.1-5 0-.3 1.6-3.5 1.9-3.1 0 .1-.1 0 0 0z"/><path d="M3.1.8c.2.1 1.1-4.3 1.1-4.6.1-1.8-.2-3.6-.4-5.3l-1.2-6c-.8-4-1.2-8.3-1.3-12.4 0-1.9.2-3.5.7-5.3.1-.3.9-4.7.8-4.7.2 0-.9 7.8-1 8.5-.1 3.7.4 7.5.9 11.2.4 3.2 1.3 6.4 1.7 9.8.2 1.7.3 3.3 0 5 0 .2-1 4-1.3 3.8zM.5-37.7c-.1-.1-1.1 4.1-1.1 4.5-.2 1.7-.1 3.4.1 5.1.3 2.8.9 5.5 1.3 8.2C1-18.5 2.2-.4 1.2-.5c.4 0-.9-18.5-1.1-20-.4-2.5-.9-5.1-1.1-7.6-.2-1.7-.2-3.5 0-5.2-.1-.3 1.1-4.7 1.5-4.4zm-12.4 2.9c-.1-.1-2.7 3.3-2.9 3.6-.8 1.5-1.5 3.1-2 4.7-.9 2.6-1.4 5.3-2.2 8C-19.3-17-25.6 0-26.5-.6c.4.2 6.8-17.2 7.2-18.7.7-2.5 1.2-5 2.1-7.4.6-1.6 1.2-3.3 2.2-4.7 0-.3 2.9-3.8 3.1-3.4.1 0 0 0 0 0z"/><path d="M-1.5-37.9c-.3-.2-.8 7.8-.7 8.6.3 4 1.1 7.9 1.5 11.8.2 1.6.9 20.7.2 20.7 0 0-.7-18.8-.8-20.2-.4-3.9-1.1-7.7-1.4-11.5 0-.9.2-9.7 1.2-9.4.1 0 0 0 0 0z"/><path d="M-7.4 1.2c.1.2 2.7-2.6 2.9-2.9.9-1.5 1.3-3.2 1.6-4.9.6-4.2-.2-8.3-.6-12.5-.4-4 .1-8 1.1-11.9.5-1.8 1-3.6 1.8-5.3.1-.3 2-3.6 2.2-3.4-.3-.2-3.2 7.6-3.4 8.4-1 4-1.4 8.3-1 12.4.4 4.1 1.1 8.2.5 12.3C-2.6-4.9-3-3.4-3.8-2c-.2.3-3.3 3.9-3.6 3.2 0 0 0 .1 0 0z"/><path d="M-9.6.8c.1.3 2.9-3 3.1-3.4.8-1.8 1-3.8 1.1-5.7.1-3.4-.3-6.7-.1-10 .2-3.8.4-7.6 1.2-11.3.4-1.9.9-3.8 1.9-5.5.4-.8.9-1.5 1.7-2.1.1-.1 2-1.1 2.1-.8-.1-.5-2.9 2.2-3 2.5-.9 1.5-1.4 3.4-1.8 5.1-.9 3.9-1.1 7.9-1.3 11.8-.2 3.4.2 6.8 0 10.2-.1 2-.4 4.1-1.3 5.9-.3.4-3.3 4-3.6 3.3z"/><path d="M-5.6-34.8s-1.6 3.3-1.7 3.5c-.7 1.9-1.1 3.8-1.3 5.8-.4 3.4-.4 6.8-.2 10.2.1 2.5.5 5.1.6 7.6.1 2 .1 4.1-.1 6.1C-8.5-.8-8.6.2-9 1c-.2.3-1.5.9-1.4.8 0 .2 1.2-.8 1.3-1.1.3-.9.3-1.9.4-2.7.1-2 0-4-.1-6-.2-2.4-.5-4.8-.6-7.2-.2-3.4-.1-6.9.4-10.3.3-2 .7-4 1.5-5.9 0-.3 1.7-3.6 1.9-3.4z"/><path d="M-16 1.2c0 .6 3.5-1.1 3.8-1.5 1.2-1.3 1.7-3.2 2-4.9.8-4.1.7-8.5 1-12.6.4-4.2.9-8.5 2.3-12.5.2-.8 4.4-9.1 4.9-8.6 0 0-2.5 3.9-2.7 4.3-.9 1.9-1.6 3.8-2.2 5.8-1 3.9-1.5 7.9-1.8 11.9-.2 3-.4 6.1-.7 9.2-.2 2.1-.6 4.3-1.6 6.2-.5.9-1.2 1.8-2.2 2.3-.2.3-2.8.9-2.8.4z"/><path d="M-17.2 2.8c.2.4 3.1-2.6 3.3-2.9.8-1.4 1.2-3.1 1.4-4.7.5-3.8.2-7.5.6-11.3.4-3.8 1.2-7.6 2.4-11.3.2-.7 3-8.2 3.4-8.1 0 0-2.8 8-3 8.5-1 3.6-1.8 7.2-2.2 10.9-.4 3.8-.2 7.6-.7 11.3-.2 1.7-.7 3.4-1.6 4.9-.2.3-3.5 3.2-3.6 2.7zm-4.7-.6l2.6-3.9c.8-1.5 1.2-3.2 1.5-4.8.6-3.8.3-7.7.7-11.5.4-3.9 1.5-7.7 3.1-11.3.3-.6 4.4-7.7 4.9-7.3-.1-.1-4.1 6.8-4.4 7.5-1.6 3.7-2.6 7.6-3 11.6-.4 3.9 0 7.9-.9 11.8-.4 1.8-1 3.5-1.9 5-.3.2-2.4 3.1-2.6 2.9z"/><path d="M-12.7-34.6c-.2-.2-2.6 4-2.8 4.5-.8 2.2-1.1 4.5-1.3 6.8-.3 2.6-.5 5.3-.8 7.9-.4 3.8-1.1 7.4-2.1 11-.5 1.7-.9 3.5-1.6 5.2-.1.2-2.7 4.4-3 3.8.2.4 2.6-3.7 2.7-4.1.6-1.6 1-3.3 1.4-5 1-3.8 1.6-7.5 2.1-11.3.3-2.7.5-5.4.8-8.1.3-2.2.7-4.4 1.5-6.4.2-.4 2.7-4.9 3.1-4.3.1 0 0 0 0 0zm-6.9 4.8c.2.1-1 6.9-1.1 7.5-.4 3.5-.8 7-1.3 10.4-.4 3.3-.9 6.6-1.6 9.8-.3 1.4-.6 2.8-1.2 4.1-.2.5-.4 1.1-.8 1.5.1-.1-1.3.9-1.1.6 0 .1.8-.4.8-.5.4-.5.6-1.1.8-1.7.4-1.2.7-2.5 1-3.8.7-3.4 1.1-6.8 1.6-10.2.4-3.4.8-6.7 1.3-10.1.1-.4 1.5-7.7 1.6-7.6.1 0 0 0 0 0zm7.1 28.7c0 .5-1.3-.8-1.2-.7-.3-.4-.5-1.1-.6-1.7-.3-1.6-.2-3.4-.1-5.1.3-3.6.9-7.2 1.7-10.7.8-3.4 1.6-6.7 2.8-9.9.5-1.5 1-3 1.7-4.3.2-.3 1.7-2.8 1.8-2.6 0-.1-1.7 3.2-1.7 3.4-.5 1.3-.9 2.6-1.3 3.9-1.1 3.5-2 7-2.7 10.6-.7 3.3-1.3 6.7-1.7 10.1-.1 1.5-.3 3.1 0 4.6.1.5.1 1.1.4 1.6-.1-.1.9 1 .9.8zM-3-32.4s-2.4 5.8-2.6 6.3c-.9 2.8-1.5 5.6-1.9 8.5-.3 2.8-.3 5.6 0 8.3 0 .6 1.2 7.2 1.3 7.1-.3.2-1.6-6.1-1.7-6.7-.4-2.9-.4-5.9-.1-8.8.3-2.8.9-5.6 1.8-8.3.2-.4 2.9-6.6 3.2-6.4.1 0 0 0 0 0z"/><path d="M-15-30.9s-1.9 2.9-2.1 3.2c-.8 1.6-1.3 3.2-1.8 4.9-.8 2.6-1.5 5.4-1.8 8.1-.5 3.4-.2 6.8.4 10.2 0 .3.8 4.7.8 4.7-.3.1-1.5-7.2-1.6-7.8-.4-3.4-.3-6.7.5-10.1.5-2.1.9-4.1 1.6-6.1.1-.6 3.5-7.7 4-7.1zm8.3-5.5s-2.3 2.7-2.5 3c-.9 1.5-1.7 3.1-2.3 4.7-1.3 3-2.4 6.1-3.4 9.1-1.1 3.5-1.9 7.3-1.7 11 .1 1.7.3 3.5.9 5.1.1.4 1.4 3 1.5 2.9-.2.2-1.7-2.7-1.9-3.1-.6-1.6-.9-3.2-1-4.9-.2-3.9.5-7.9 1.7-11.6 1.1-3.2 2.3-6.5 3.8-9.6.8-1.6 1.5-3.2 2.6-4.6 0 0 2.2-2.2 2.3-2zm-14.8 9.5c-.2-.2-3.4 5.6-3.6 6.1-1.1 2.9-1.7 5.9-2.4 8.9-.5 2.5-1 4.9-1 7.5 0 .6 1.2 7.2 1.6 7-.6.4-2.1-6.4-2.1-7-.1-2.6.4-5.1.9-7.6.7-3 1.3-6 2.5-8.9.2-.6 3.6-6.6 4.1-6 .1.1 0 0 0 0z"/><path d="M-12.3-33.4c-.1-.2-6.2 6.8-6.6 7.5-2.5 3.6-4.4 7.5-6.1 11.5-1.3 3.2-2.5 6.5-3.1 10-.3 1.9-.6 3.9-.3 5.8.1.9.3 1.7.8 2.5 0 .1 1.3 1.5 1.3 1.5-.1.2-1.3-1.1-1.3-1.1-.6-.7-.8-1.6-1-2.5-.4-1.9-.3-4 0-5.9.5-3.6 1.6-6.9 2.9-10.2 1.6-4 3.5-7.8 5.9-11.3.5-.6 7-8.5 7.5-7.8.1.1 0 0 0 0z"/><path d="M-28.6 5.9c.1.2 2-1.9 2.2-2.2.9-1.4 1.5-3 2.1-4.6 1.1-3.1 2.1-6.3 3-9.5 1.1-3.6 1.9-7.3 3.3-10.8.2-.6 3.9-7.5 4.5-7-.2-.2-3.8 6.5-4.1 7.2-1.3 3.5-2.1 7.2-3.2 10.8-.9 3.2-1.9 6.4-3.1 9.5-.6 1.6-1.3 3.2-2.3 4.6-.2.3-2.4 2.3-2.4 2z"/><path d="M-28.9 8.7c.3.3.9-3.7.9-3.9-.1-1.7-.4-3.2-.5-4.9 0-1.7 0-3.4.3-5.1 0-.4 1.3-5 1.7-4.7-.2-.1-1.2 4.4-1.3 4.8-.2 1.6-.2 3.4-.2 5s.4 3.2.4 4.9c.1.1-.8 4.5-1.3 3.9zM9-5.4s1.3-4.5 1.4-4.8c.6-2.3.8-4.7.6-7.1-.2-2.3-.9-4.4-1.5-6.6-.1-.3-1.2-5.4-.7-5.4-.2 0 .9 4.7.9 4.9.8 2.3 1.6 4.6 1.8 7 .2 2.3 0 4.7-.6 6.9 0 .3-1.7 5.2-1.9 5.1 0-.1 0 0 0 0z"/><path d="M7.3-33.1c-.1 0 2.3 8.7 2.5 9.4.8 3.3 1.2 6.7 1.5 10.1.2 2.6.3 5.2.3 7.8 0 .8-.8 10-1.4 9.7.3.1.9-9 .9-9.7 0-2.5-.2-5-.4-7.5-.2-3.2-.6-6.4-1.3-9.5-.1-.7-2.6-10.3-2.1-10.3zm15.5 2.2c-.2-.1-1.1 7.2-1.1 7.9 0 3.5.3 7 .5 10.6.2 3.6.2 7-.3 10.6-.2 1.6-.3 3.3-.9 4.8-.2.6-.3 1.1-.8 1.5-.2.1-.7-.5-.7-.5.1.1.2.2.3.2.4.1.6-.1.7-.5.3-.3.4-1.2.4-1.6.3-1.6.5-3.2.6-4.9.3-3.4.3-6.8.1-10.2-.2-3.4-.5-6.8-.4-10.2.1-.4 1.1-7.9 1.6-7.7zm2.3 2.8s-.9 6.9-.9 7.5c-.2 3.3 0 6.7.5 10 .4 2.6 1 5.2 1 7.9 0 1.4-.1 2.8-.7 4.1 0 .1-2 2.7-2.2 2.1 0 0 .9-.6 1-.7.6-.6.9-1.3 1.1-2.1.4-1.3.4-2.8.3-4.1-.2-3-.9-5.6-1.2-8.5-.4-3.2-.5-6.4-.2-9.6 0-.4 1.1-6.8 1.3-6.6.1 0 0-.1 0 0z"/></g><path opacity=".15" fill="#020202" d="M-12.2 0c1.1-3 1-6.5-.2-10.2-1.7 5.8-3.9 9.7-6.9 13.2-.5-.1-1.1-.1-1.6.1-.1-1.3-.6-2.5-1.3-3.2.6-1.8 1.4-3.6 2.7-5.7-2.5.1-4.9 2.5-6.1 5.3-.7-3.9-.9-7.6 0-12.4-1.7.8-3 2.4-4 4.3-.9 1.8-1.4 3.9-1.5 6-1.7 3.5-.8 7.2 1.9 8.9.8.5 1.6.8 2.6.9.1 0 .1.1.2.1h-1c-.6 0-1.1-.1-1.6-.3.2 1.1.5 1.9.7 2.6.7-.1 1.3-.3 2.1-.6-.7.3-1.3.6-2 .9.2.8.4 1.1.4 1.1s15.1-7.2 15.6-11z"/><g><path fill="#754C24" d="M-24.5 9.6c1.7 0 3.1-2 3.1-4.4 0-2.4-1.4-4.4-3.1-4.4-1.7 0-3.1 2-3.1 4.4 0 2.4 1.4 4.4 3.1 4.4z"/><path fill="#754C24" d="M-19 5.1c-1-.9-2.9-.6-4.2.8-1.4 1.4-1.7 3.3-.7 4.2 1 .9 2.9.6 4.2-.8 1.4-1.4 1.7-3.3.7-4.2z"/><path fill="#754C24" d="M-17.5 11c0-1.1-1.2-2-2.7-2-1.5-.1-2.8.8-2.9 1.8 0 1.1 1.2 2 2.7 2 1.6.1 2.9-.8 2.9-1.8z"/><linearGradient id="z" gradientUnits="userSpaceOnUse" x1="13032.159" y1="-12218.314" x2="13052.117" y2="-12218.314" gradientTransform="rotate(180 13597.662 -12745.809) scale(2.087)"><stop offset="0" stop-color="#468333"/><stop offset=".194" stop-color="#508831"/><stop offset=".528" stop-color="#6C942A"/><stop offset=".959" stop-color="#98A920"/><stop offset="1" stop-color="#9DAB1F"/></linearGradient><path fill="url(#z)" d="M-26.7 10.7c-6.1 2.7-8.1 4-17.7 1.8 3.1 5.6 12.7 7.1 18.2-.5-4.7 9.2 1.7 15.3 7.7 15.3-5.5-5.2-6.9-9.8-6.2-14.9 0 9.6 10.9 12.9 18.2 7.9-9.9-1.7-13-3-16.3-8.6 6 8.3 17.2 2.7 20.1-5.2-.9.6-1.8 1-2.7 1.5-.2.4-.3.7-.4 1-.1 0-.2-.3-.4-.6-.4.2-.8.4-1.1.5-.3.3-.5.6-.7.9-.2 0-.3-.3-.4-.6-.4.2-.8.3-1.1.4-.2.3-.3.5-.6.6-.1-.1-.2-.2-.2-.4-.6.2-1.1.3-1.6.4-.2.4-.5.7-.7 1.1-.2-.2-.3-.6-.4-.9-.5.1-1 .2-1.5.2-.5.3-.9.5-1 .6 0 0-.1-.2-.2-.5-2.3.1-4.6-.1-7.2-.6 9.2-2.3 12.8-10.1 10-18.7-2.5 8.4-5.8 12.8-11.5 17.8-1.9-7.7-3.2-12.6-1.9-20.5-6.3 3.1-8 17.3.2 20.8-7.3-1.3-9.2-3.6-14.1-11.9-1.8 9 4.8 16.3 13.5 13.1z"/><linearGradient id="A" gradientUnits="userSpaceOnUse" x1="12555.718" y1="-12585.276" x2="12568.852" y2="-12585.276" gradientTransform="scale(-2.087) rotate(5.188 -132571.25 -144818.241)"><stop offset="0" stop-color="#4F8F39"/><stop offset="1" stop-color="#CCDB29"/></linearGradient><path fill="url(#A)" d="M-26.1 9.1c-4.4.1-6 .3-11.2-3.5.5 4.2 5.9 7.6 11.2 4.4-5.3 4.4-2.9 9.8.7 11.3-2-4.6-1.6-7.7 0-10.7-2.5 5.8 3.3 10.7 9 9.5-5.6-3.6-7.1-5.2-7.7-9.5 1.5 6.6 9.8 6.1 13.6 2.1-5.4.8-9-.2-13.2-3 6.1.9 10.4-2.8 10.9-8.8-3.7 4.5-6.9 6.3-11.6 7.9.8-5.2 1.3-8.5 4.1-13-4.7.2-9.4 8.5-5.3 12.7-4-2.6-4.5-4.5-5.4-10.9-3.3 5.1-1.2 11.3 4.9 11.5z"/><path fill="none" d="M-11.9 10.2c.5-.1 1.1-.2 1.6-.4-.2-.5-.2-1.1-.5-1.4-.3.7-.7 1.2-1.1 1.8zm3.1-1.7c-.3.2-.5.7-.8 1.1.4-.1.8-.2 1.1-.4 0-.3-.1-.6-.3-.7zm1.3.4c.4-.2.8-.3 1.1-.5-.2-.4-.4-.9-.5-1-.2.4-.4.9-.6 1.5zm-7 1.7c.5 0 1-.1 1.5-.2-.1-.2-.2-.5-.3-.6-.1.1-.7.5-1.2.8z"/></g></symbol><path d="M1759.8 666.1v95h970.6v-95h-970.6z" opacity=".3"/><path fill="#FFC84A" d="M1759.8 668v95h970.6v-95h-970.6z"/><path opacity=".7" fill="#FFEF91" d="M2635.7 763H2560l-16.5-1.8-64.4-3.1-62 4.8-2.4.2-5.4-.2-59-2.1-64.4.1-24.4 2h-68.8l-35.7-4.1-64.4.2-31.6 4h-88.3l-9.1-.7-64.4-2.8-64.4-2.7-54.5 6.1h-20.5V739l41.4 2.7 64.8.9 64.2-7.1 64.9 3.2 64.4-9.3 64.9 8.6 64.7-7.3 64.7 5.9 64.9-7.8 64.4 9.3 65-4.8 52.6 7.2 11.3-1 20.4 3.5 38.5-2.9c4.3-.3 8.6.1 12.7 1.3l31.5 8.8c1.8.5 3.4 1.3 5 2.3l15.6 10.5z"/><path fill="#29ABE2" d="M2635.7 763h-875.9v-10.9l31-4 79.8-2.4 80.1 3.2 79.3-4.7 79.5-3.6 63.8 4.5 15.9 1.1 32.9-3 46.8-4.3 79.7 1.2 79 8.9 73.2-6.4 7.4 3.3 23.1-1.4h.6l30.2-.1c17.2.8 34.1 4.2 50.2 10.1l23.4 8.5z"/><path fill="#FFC687" d="M2121.1 684c-.2 9.9 3.7 18.1 8.9 18.5 5.1.3 9.5-7.4 9.8-17.3.2-9.9-3.7-18.1-8.9-18.5-5.2-.3-9.6 7.4-9.8 17.3z"/><path fill="#FFAF73" d="M2123.5 684.3c-.1 5.6 2.5 10.3 5.9 10.5 3.4.2 6.3-4.1 6.4-9.7.1-5.6-2.5-10.3-5.9-10.5-3.3-.2-6.2 4.1-6.4 9.7z"/><path fill="#FFC687" d="M2039.6 684c.2 9.9-3.7 18.1-8.9 18.5-5.1.3-9.5-7.4-9.8-17.3-.2-9.9 3.7-18.1 8.9-18.5 5.2-.3 9.6 7.4 9.8 17.3z"/><path fill="#FFAF73" d="M2037.1 684.3c.1 5.6-2.5 10.3-5.9 10.5-3.4.2-6.3-4.1-6.4-9.7-.1-5.6 2.5-10.3 5.9-10.5 3.4-.2 6.3 4.1 6.4 9.7z"/><path fill="#FFC687" d="M2098.3 743.1c-.8 5.4-1 10.8-.7 16.2.1 1.2.2 2.5.3 3.7h-35.3c.1-1.2.3-2.5.3-3.7.3-4.8.2-9.6-.4-14.3-.4-3.3-1-6.6-1.9-9.9 13.1-3.2 26.2-3.2 39.2 0-.5 2.6-1.1 5.3-1.5 8z"/><path opacity=".5" fill="#F6A76A" d="M2097.7 759.3c-6.5 1.5-13 2.3-17.3 2.3-4.3 0-10.8-.8-17.3-2.3.5-8.1-.2-16.1-2.3-24.2 13.1-3.2 26.1-3.2 39.2 0-2.1 8.1-2.9 16.1-2.3 24.2z"/><path fill="#FFC687" d="M2113.5 633.5s-16.2-7.4-33.1-9.6c-17 2.2-33.1 9.6-33.1 9.6l-16.5 3.5s-7.3 80 8.5 100.9c6.8 9 30.3 13.7 41.2 13.7s34.4-4.7 41.2-13.7C2137.3 717 2130 637 2130 637l-16.5-3.5z"/><ellipse transform="matrix(-.9999 .01291 -.01291 -.9999 4208.29 1328.468)" fill="#333" cx="2099.9" cy="677.8" rx="3.7" ry="8"/><ellipse transform="rotate(173.168 2100.019 673.4)" fill="#FFF" cx="2100" cy="673.4" rx="1.4" ry="1.7"/><ellipse transform="matrix(-.9999 .01291 -.01291 -.9999 4130.212 1328.973)" fill="#333" cx="2060.8" cy="677.8" rx="3.7" ry="8"/><ellipse transform="rotate(173.168 2060.96 673.413)" fill="#FFF" cx="2061" cy="673.4" rx="1.4" ry="1.7"/><path fill="none" stroke="#FFAF73" stroke-width="2" stroke-miterlimit="10" d="M2072.9 703.8s4 3.4 8.6 2.4c3.3-.3 6.3-2.1 6.3-2.1"/><path fill="#534741" d="M2112.1 642.8c1 6.9 9.3 37.8 19.2 36.7 16.1-1.8 10.6-44.7 5.4-52.7-5.9-9-40-9.3-51-11.2-11.9-2.1-51.5-6.5-61.9-1.1-31.3 16 19.8 49 41.7 38.2.3-4.4-1.3-7.6-4.7-9.8 16 7.4 34.8 4.9 51.3-.1z"/><path fill="#534741" d="M2043.9 642.8c-1 6.9-9.3 37.8-19.2 36.7-16.1-1.8-10.6-44.7-5.4-52.7 5.9-9 41.2 21 24.6 16z"/><path fill="#F57B71" d="M2079.9 731.4c-7.7-.3-13.8-5.8-13.5-12.3l27.9 1.1c-.2 6.5-6.7 11.5-14.4 11.2z"/><path fill="#FFF" d="M2081.1 724c-5.6 0-10.7-1.5-14.7-3.7v-1.1l27.9 1.1c0 .3 0 .5-.1.8-3.4 1.8-8 2.9-13.1 2.9z"/><path fill="#29ABE2" d="M2141 657.1c-5.3-5.3-12.7-9.4-20.7-8.6-5 .5-12.3 2-19.7 3.3-7.5 1.4-15.1 2.7-20.2 2.7-4.4 0-10.6-1-17.1-2.1-3-.5-6-1.1-8.9-1.6-5.3-1-10.3-1.9-14-2.3-3.9-.4-7.6.4-11 1.8-3.7 1.6-7 4-9.7 6.8-2.7 2.7-4.8 5.8-6.3 9.3-1.5 3.5-2.3 7.4-2.3 11.4 0 8.1 3.3 15.4 8.6 20.7 5.3 5.3 12.7 9.4 20.7 8.6 9.7-1 28.6-5.7 39-6h1c7 0 18.7 2.4 28.5 4.2 3.2.6 6.2 1.1 8.7 1.5 1 .1 1.8.2 2.7.3 8.1.8 15.4-3.3 20.7-8.6 1-1 2-2.2 2.9-3.3 3.6-4.9 5.7-10.9 5.7-17.4 0-8.1-3.3-15.4-8.6-20.7zm-.7 34.5c-.8 1.2-1.8 2.3-2.8 3.4-2.7 2.7-8.3 7.2-15.2 7.2-.5 0-1 0-1.5-.1-2.5-.3-5.7-.8-9.2-1.4-2-.3-4-.7-6.1-1.1-.9-.2-1.9-.3-2.8-.5-8.3-1.5-16.5-3-22.3-3-1.7 0-3.6.1-5.6.3-5.8.6-12.7 1.9-19.5 3.2-5.9 1.1-11.5 2.1-15.3 2.5-.5.1-1 .1-1.5.1-6.9 0-12.5-4.5-15.2-7.2-4.6-4.6-7.1-10.7-7.1-17.2s2.5-12.6 7.1-17.2c1.9-1.9 5.2-4.7 9.5-6.2 1.8-.6 3.7-1 5.7-1 .5 0 1 0 1.5.1 3.9.4 9.4 1.4 15.3 2.5 1.8.3 3.6.7 5.4 1 3 .5 5.9 1 8.7 1.5 4.1.6 7.9 1 11 1 6.3 0 15.5-1.7 24.5-3.4.2 0 .4-.1.6-.1 5.9-1.1 11.5-2.2 15.3-2.5.5 0 1-.1 1.5-.1 6.9 0 12.5 4.5 15.2 7.2 4.6 4.6 7.1 10.7 7.1 17.2 0 5-1.5 9.8-4.3 13.8z"/><path opacity=".1" d="M2143.9 693.2c-.9 1.2-1.8 2.3-2.9 3.3-5.3 5.3-12.7 9.4-20.7 8.6-.8-.1-1.7-.2-2.7-.3-2.6-.4-5.6-.9-8.7-1.5-9.8-1.8-21.5-4.2-28.5-4.2h-1c-10.4.3-29.2 5-39 6-8 .8-15.4-3.3-20.7-8.6-5.1-5.1-8.3-12-8.6-19.7v1c0 8.1 3.3 15.4 8.6 20.7 5.3 5.3 12.7 9.4 20.7 8.6 9.7-1 28.6-5.7 39-6h1c7 0 18.7 2.4 28.5 4.2 3.2.6 6.2 1.1 8.7 1.5 1 .1 1.8.2 2.7.3 8.1.8 15.4-3.3 20.7-8.6 1-1 2-2.2 2.9-3.3 3.6-4.9 5.7-10.9 5.7-17.4v-1.2c-.2 6.2-2.3 11.9-5.7 16.6z"/><path opacity=".2" fill="#FFF" d="M2137.5 658.6c-2.7-2.7-8.3-7.2-15.2-7.2-.5 0-1 0-1.5.1-3.9.4-9.4 1.4-15.3 2.5-.2 0-.4.1-.6.1-9 1.7-18.2 3.4-24.5 3.4-3.1 0-6.9-.4-11-1-2.8-.4-5.8-.9-8.7-1.5-1.8-.3-3.6-.7-5.4-1-5.9-1.1-11.5-2.2-15.3-2.5-.5 0-1-.1-1.5-.1-2 0-3.9.4-5.7 1-4.2 1.5-7.6 4.3-9.5 6.2-4.6 4.6-7.1 10.7-7.1 17.2v1c.2-6.1 2.7-11.8 7.1-16.2 1.9-1.9 5.2-4.7 9.5-6.2 1.8-.6 3.7-1 5.7-1 .5 0 1 0 1.5.1 3.9.4 9.4 1.4 15.3 2.5 1.8.3 3.6.7 5.4 1 3 .5 5.9 1 8.7 1.5 4.1.6 7.9 1 11 1 6.3 0 15.5-1.7 24.5-3.4.2 0 .4-.1.6-.1 5.9-1.1 11.5-2.2 15.3-2.5.5 0 1-.1 1.5-.1 6.9 0 12.5 4.5 15.2 7.2 4.3 4.3 6.8 9.9 7.1 16v-.8c0-6.5-2.5-12.6-7.1-17.2z"/><path opacity=".3" fill="#29ABE2" d="M2122.3 702.2c-.5 0-1 0-1.5-.1-3.9-.4-9.4-1.4-15.3-2.5-9.2-1.7-18.7-3.5-25.1-3.5s-16 1.8-25.1 3.5c-5.9 1.1-11.5 2.1-15.3 2.5-.5.1-1 .1-1.5.1-6.9 0-12.5-4.5-15.2-7.2-4.6-4.6-7.1-10.7-7.1-17.2s2.5-12.6 7.1-17.2c2.7-2.7 8.3-7.2 15.2-7.2.5 0 1 0 1.5.1 3.9.4 9.4 1.4 15.3 2.5 9.2 1.7 18.7 3.5 25.1 3.5s15.9-1.8 25.1-3.5c5.9-1.1 11.5-2.1 15.3-2.5.5-.1 1-.1 1.5-.1 6.9 0 12.5 4.5 15.2 7.2 4.6 4.6 7.1 10.7 7.1 17.2s-2.5 12.6-7.1 17.2c-2.7 2.7-8.3 7.2-15.2 7.2z"/><path opacity=".2" fill="#FFF" d="M2108.9 705.3c-9.8-1.8-21.5-4.2-28.5-4.2h-1l-4.7-4.7-42-42-3.7-3.7.4-.4c3.4-1.5 7.1-2.2 11-1.8 3.7.4 8.6 1.3 14 2.3l6.3 6.3 42.1 42.1 6.1 6.1zm35-10.1c-.9 1.2-1.8 2.3-2.9 3.3-5.3 5.3-12.7 9.4-20.7 8.6-.8-.1-1.7-.2-2.7-.3l-6-6.1-42.3-42.2-6.1-6.1c6.5 1.1 12.7 2.1 17.1 2.1 5.1 0 12.7-1.3 20.2-2.7l4.3 4.3 35.5 35.5 3.6 3.6z"/><path fill="#29ABE2" d="M2089.2 704.7c-2.4 3.3-14 3.3-16.4 0-2.1-2.8 3.6-11.4 8.2-11.4s10.2 8.6 8.2 11.4z"/><path opacity=".1" d="M2089.2 702.7c-2.4 3.3-14 3.3-16.4 0l-.3-.6c-.2 1.1-.2 2 .3 2.6 2.4 3.3 14 3.3 16.4 0 .5-.6.5-1.6.3-2.6-.1.2-.2.5-.3.6z"/><use xlink:href="#B" width="301.9" height="460.1" x="-150.9" y="-230.1" transform="matrix(1 0 0 -1 1911.308 485.929)" overflow="visible"/><use xlink:href="#B" width="301.9" height="460.1" x="-150.9" y="-230.1" transform="rotate(180 1128.379 258.44) scale(.8766)" overflow="visible"/><g><path fill="#FFF" d="M865.6 319.7c-2.9-5.9-5.7-11.8-7.2-18.2-.5-2.2 1.3-4.6-1-6.4-1.4-1.1-26.4 3.9-27.5 4.7-10.7 7.6 12.1 13 10.1 17.2-3.1 1-12.7-1.8-16.2-2.1-6.8-.6-16-5.2-22.5-3.4 1.8-1.8 3.6-3.5 5.5-5.2-5.2 0-10.1-.5-14.3 3.3-1.9 1.7-2.7 6.8-4.3 7.8.1-.1-8.6-.4-7.4-.6-5.9 1.2-8 5.6-10.7 10.4 3.6-.8 7.2-1.9 10.8-2.2-6.1 5.3-4.2 13.3-2.9 20.1 2.1-3.6 4-7.3 6.4-10.6 2.6 24.4 19.7 47.4 44.6 40.9 19.6-5.1 33.4-33.3 22.5-52.6 2.6.7 18.4 4.4 14.1-3.1-1.5-3 .5.9 0 0z"/><use xlink:href="#C" width="88.9" height="79.2" x="-44.4" y="-39.6" transform="matrix(1 0 0 -1 819.11 335.962)" overflow="visible"/></g><g><path fill="#FFF" d="M2196.5 1292.2c-3.2-.5-6.4-1-9.4-1.9-1-.3-1.4-1.3-2.8-1.1-.9.1-6.9 7.4-6.9 7.8-.5 4.2 8.9-.4 9.9 1-.6 1-4.7 2.8-6 3.6-2.4 1.6-7.1 3-8.5 5-.1-.8-.2-1.6-.3-2.5-1.6 1.3-3.4 2.4-3.3 4.3.1.8 1.8 2.1 1.6 2.7 0 0-2.9 2.1-2.6 1.7-1.4 1.7-.4 3.2.6 4.8.8-1.1 1.5-2.2 2.6-3.2.1 2.6 3.8 3.8 6.9 4.8-.7-1.3-1.5-2.5-2.1-3.8 10.3 4.3 24.7 4.8 30.1-2.8 4.3-6-2.3-15.2-13.3-16.4 1.3-.3 7.8-3.5 3.5-4-1.6-.2.5.1 0 0z"/><linearGradient id="D" gradientUnits="userSpaceOnUse" x1="-3061.334" y1="1312.283" x2="-3061.334" y2="1289.374" gradientTransform="scale(1.0492 -1.0492) rotate(50.689 2204.783 5463.6)"><stop offset="0" stop-color="#D9975B"/><stop offset=".551" stop-color="#7C4428"/><stop offset="1" stop-color="#48260B"/></linearGradient><path fill="url(#D)" d="M2204.9 1304.2c3.6 6.5-.3 9.6-1.9 10.8-1.6 1.3-7.5 3.9-15.8 2.7-2-.3-3.7-.8-5.2-1.3-2.6-1-4.5-2.3-5.7-3.2l-.2-.2c-.3-.3-.6-.5-.8-.7l-.1-.1-.3-.3 6.8-5.2 12-9.4c-.1 0 6.6.8 11.2 6.9z"/><linearGradient id="E" gradientUnits="userSpaceOnUse" x1="-3062.351" y1="1305.465" x2="-3062.351" y2="1314.005" gradientTransform="scale(1.0492 -1.0492) rotate(50.689 2204.783 5463.6)"><stop offset="0" stop-color="#7C4428"/><stop offset="1" stop-color="#D9975B"/></linearGradient><path fill="url(#E)" d="M2193.7 1297.3l.6.9-.6 1-.5.9-.5 1-.6 1-1.2.7-.4 1.1-1.1.8-1.2.7-.6 1-1.3.7-.9.8-1.1.8-1.1.7-1.5.6-1.3.6-1.2.7-1.4.4-1.4.5-1.5-.2-.4-.9.3-1 .2-1 .9-.9.5-1 1.2-.7.5-1.1 1-.8.9-.9 1-.8 1.2-.7 1.2-.7 1.1-.7 1.2-.7.9-.9 1.5-.5 1.2-.7 1.3-.6 1.6-.3"/><linearGradient id="F" gradientUnits="userSpaceOnUse" x1="-3062.348" y1="1305.735" x2="-3062.348" y2="1313.722" gradientTransform="scale(1.0492 -1.0492) rotate(50.689 2204.783 5463.6)"><stop offset="0" stop-color="#D6DBDE"/><stop offset="1" stop-color="#FFF"/></linearGradient><path fill="url(#F)" d="M2186.2 1306.9l-1 .9-1 .7-1.1.7-1.4.5-1.3.6-1.1.7-1.4.3-1.3.5-1.2-.1-.4-.8.3-.9.2-1 .8-.9.5-.9 1.2-.7.4-1 1-.8.8-.9 1-.8 1.1-.6 1.2-.7 1.1-.7 1.2-.7.8-.9 1.5-.4 1.1-.7 1.3-.6 1.4-.2 1.4.1.5.8-.6.9-.5.9-.4 1-.5.9-1.2.7-.5 1-1 .8-1.2.7-.6 1"/><linearGradient id="G" gradientUnits="userSpaceOnUse" x1="-3062.342" y1="1306.497" x2="-3062.342" y2="1312.923" gradientTransform="scale(1.0492 -1.0492) rotate(50.689 2204.783 5463.6)"><stop offset="0" stop-color="#B8BDBF"/><stop offset=".303" stop-color="#C2C7C9"/><stop offset=".721" stop-color="#D6DBDE"/><stop offset="1" stop-color="#E7EAEC"/></linearGradient><path fill="url(#G)" d="M2192.3 1298.4l.2.3-.4.7-.5 1-.2.6-.1.3-.4.7v.1l-1.1.7-.1.3-.3.7-.3.2-.6.4-1.3.7-.5.9-1 .6-1 .8-.9.7-.9.6-1.3.4-1.3.6-1 .6-1.3.3-1 .4-.4-.1-.2-.3.2-.8.2-.9.7-.8.4-.8 1.2-.7.4-1 .8-.7.8-.8.9-.7 1-.6 1.2-.6 1-.7 1.1-.7.6-.6.1-.2.7-.2.6-.2.9-.5.2-.2.6-.2.5-.2 1.1-.2.7.1z"/><linearGradient id="H" gradientUnits="userSpaceOnUse" x1="-3062.24" y1="1306.477" x2="-3062.24" y2="1311.387" gradientTransform="scale(1.0492 -1.0492) rotate(50.689 2204.783 5463.6)"><stop offset="0" stop-color="#009EE9"/><stop offset="1" stop-color="#7FD9FF"/></linearGradient><path fill="url(#H)" d="M2192.3 1298.4l.2.3-.4.7-.5 1-.2.6-.1.3-.4.7v.1l-1.1.7-.1.3-.3.7-.3.2-.6.4-.5.3-.8.5-.5.9h-.1l-1 .5-.7.6-.2.2-.9.7-.9.6-1.3.4-1.3.6-1 .6-1.3.3-1 .4c2.1-2.2 4.1-4.4 7.4-7 .6-.5 1.3-1 2-1.5.9-.7 1.9-1.3 2.9-2 .3-.2.6-.4.8-.5.7-.6 1.5-1.1 2.2-1.6z"/><path opacity=".2" fill="#FFF" d="M2192.3 1298.4l.2.3-.4.7-.5 1-.2.6-.1.3-.4.7v.1l-1.1.7-.1.3-.3.7-.3.2-.6.4-.5.3 2-4.6c.8-.7 1.6-1.2 2.3-1.7zm-3.2 2.1l-2.5 5.5-1 .5-.7.6 1.3-4.7c.9-.6 1.9-1.2 2.9-1.9z"/><path opacity=".41" fill="#FFF" d="M2177.3 1310.8c2-2.1 4-4.2 7.2-6.7 2.4-1.9 5.7-4 7.9-5.5l-.1-.2c-2.3 1.5-5.6 3.6-8 5.5-3.3 2.6-5.3 4.8-7.4 7l.4-.1z"/><linearGradient id="I" gradientUnits="userSpaceOnUse" x1="-3055.37" y1="1312.265" x2="-3052.906" y2="1310.857" gradientTransform="scale(1.0492 -1.0492) rotate(50.689 2204.783 5463.6)"><stop offset="0" stop-color="#F07A7A"/><stop offset=".251" stop-color="#FFA9A9"/><stop offset="1" stop-color="#F14738"/></linearGradient><path fill="url(#I)" d="M2185.8 1291.6l2.9 4.8.3.5 1 1.8.2.3 1.2 2-.1.3-.5.6-1.5-2.5-.1-.3-1.2-1.9-.3-.5-2.9-4.9h.1l.9-.2"/><linearGradient id="J" gradientUnits="userSpaceOnUse" x1="-3053.196" y1="1315.307" x2="-3059.355" y2="1319.013" gradientTransform="scale(1.0492 -1.0492) rotate(50.689 2204.783 5463.6)"><stop offset="0" stop-color="#FF6634"/><stop offset="1" stop-color="#FFFFC1"/></linearGradient><path fill="url(#J)" d="M2184.6 1290.7v.5l-.2 2.7-.2 2.1v.6l-.1.9c-.2 0-.5.1-.7.1-.2 0-.3 0-.5.1-.4.1-.8.1-1.2.1-.4 0-.9.1-1.4.1l4.1-6.8.2-.3c-.1-.1-.1-.1 0-.1z"/><linearGradient id="K" gradientUnits="userSpaceOnUse" x1="-4812.388" y1="-1545.149" x2="-4814.998" y2="-1542.974" gradientTransform="matrix(.9799 -.375 -.375 -.9799 6319.519 -2023.973)"><stop offset="0" stop-color="#FF6634"/><stop offset="1" stop-color="#FFFFC1"/></linearGradient><path fill="url(#K)" d="M2184.5 1290.7l-.2.3-4.3 6.8h-.7c-.5 0-1-.3-.7-.5 2.1-1.6 4-4 5.7-6.3 0-.1.1-.1.2-.3-.1.1-.1.1 0 0z"/><linearGradient id="L" gradientUnits="userSpaceOnUse" x1="-3047.415" y1="1314.262" x2="-3050.78" y2="1310.897" gradientTransform="scale(1.0492 -1.0492) rotate(50.689 2204.783 5463.6)"><stop offset="0" stop-color="#FF6634"/><stop offset="1" stop-color="#FFFFC1"/></linearGradient><path fill="url(#L)" d="M2196.3 1293.7l-.6.3-5.8-1.8-1.9-.6-.3-.1-1.3-.4-1-.3-.5-.2h.1c.1 0 .3.1.4.1.4.1.8.2 1.1.3l1.2.3c.1 0 .2.1.3.1.7.2 1.3.3 2 .5 2.1.5 4.2.9 6.1 1.1.6 0 .6.5.2.7z"/><linearGradient id="M" gradientUnits="userSpaceOnUse" x1="-4803.752" y1="-1544.13" x2="-4807.213" y2="-1546.129" gradientTransform="matrix(.9799 -.375 -.375 -.9799 6319.519 -2023.973)"><stop offset="0" stop-color="#FF6634"/><stop offset="1" stop-color="#FFFFC1"/></linearGradient><path fill="url(#M)" d="M2195.5 1294.1c-1 .5-2.1.9-3.3 1.3l-6.9-4.4-.5-.3h.2l.5.2 10 3.2z"/><path opacity=".15" fill="#020202" d="M2185.8 1291.6l3.2 5.3c-.3.1-.6.2-1 .2l-3.2-5.3v-.7h.2l.5.4.3.1z"/><linearGradient id="N" gradientUnits="userSpaceOnUse" x1="-3051.036" y1="1313.826" x2="-3056.786" y2="1312.813" gradientTransform="scale(1.0492 -1.0492) rotate(50.689 2204.783 5463.6)"><stop offset="0" stop-color="#FF6634"/><stop offset="1" stop-color="#FFFFC1"/></linearGradient><path fill="url(#N)" d="M2184.8 1290.6l.5.4.7.5 1.2.8.2.2 1.5 1 3.1 2.1c-1.9.7-3.9 1.2-6 1.6-.6.1-1.1.2-1.7.3l.1-1.2v-.6l.1-2 .1-2.5v-.5c.1-.1.1-.1.2-.1z"/><path opacity=".2" fill="#FFF" d="M2184.1 1296.5l-.1.9c-.2 0-.5.1-.7.1l.8-1z"/><path fill="#FCEFC3" d="M2185 1290.6l-.4-.1.4.1z"/><linearGradient id="O" gradientUnits="userSpaceOnUse" x1="-4801.35" y1="-1548.66" x2="-4800.845" y2="-1548.66" gradientTransform="matrix(.9799 -.375 -.375 -.9799 6319.519 -2023.973)"><stop offset=".036" stop-color="#A85E32"/><stop offset=".339" stop-color="#E8BD85"/><stop offset=".715" stop-color="#FFE8C3"/><stop offset="1" stop-color="#FFF6E7"/></linearGradient><path fill="url(#O)" d="M2195.9 1294.2l.1-.2-.3-.1c-.1 0-.2.1-.2.1l.4.2z"/><path fill="#FCEFC3" d="M2184.8 1290.6l-.2-.1.2.1z"/><linearGradient id="P" gradientUnits="userSpaceOnUse" x1="-4804.945" y1="-1548.652" x2="-4804.613" y2="-1548.652" gradientTransform="matrix(.9799 -.375 -.375 -.9799 6319.519 -2023.973)"><stop offset=".036" stop-color="#A85E32"/><stop offset=".339" stop-color="#E8BD85"/><stop offset=".715" stop-color="#FFE8C3"/><stop offset="1" stop-color="#FFF6E7"/></linearGradient><path fill="url(#P)" d="M2192.2 1295.6l.2-.1-.1-.1c-.1 0-.2.1-.2.1l.1.1z"/><linearGradient id="Q" gradientUnits="userSpaceOnUse" x1="-4816.687" y1="-1546.729" x2="-4816.224" y2="-1546.729" gradientTransform="matrix(.9799 -.375 -.375 -.9799 6319.519 -2023.973)"><stop offset=".036" stop-color="#A85E32"/><stop offset=".339" stop-color="#E8BD85"/><stop offset=".715" stop-color="#FFE8C3"/><stop offset="1" stop-color="#FFF6E7"/></linearGradient><path fill="url(#Q)" d="M2179.8 1298.1l.3.1.2-.3h-.3l-.2.2z"/><path fill="#FCEFC3" d="M2184.6 1290.5l-.2.2.2-.2z"/><linearGradient id="R" gradientUnits="userSpaceOnUse" x1="-4812.759" y1="-1547.687" x2="-4812.456" y2="-1547.687" gradientTransform="matrix(.9799 -.375 -.375 -.9799 6319.519 -2023.973)"><stop offset=".036" stop-color="#A85E32"/><stop offset=".339" stop-color="#E8BD85"/><stop offset=".715" stop-color="#FFE8C3"/><stop offset="1" stop-color="#FFF6E7"/></linearGradient><path fill="url(#R)" d="M2184 1297.5h.3v-.2h-.3v.2z"/><path fill="#FCEFC3" d="M2184.6 1290.7v-.2.2z"/><path d="M2195.7 1294c-.1 0-.2.1-.3.1l-10-3.3-.5-.2.5.2 10.3 3.2zm-3.5 1.4c-.1 0-.2.1-.2.1l-6.7-4.5-.5-.4.5.3 6.9 4.5zm-7.7-4.7l-.2.3-4.1 6.8h-.3l4.3-6.8.3-.3zm.1 0v.5l-.3 6.2h-.3l.6-6.3v-.4z" fill="#FFDE80"/><path opacity=".15" fill="#020202" d="M2185.4 1290.7s0 .1 0 0c-.1.1-.1.2-.2.2-.1.1-.2.1-.3.1h-.4c-.1 0-.2 0-.3-.1.1-.1.1-.2.2-.2v-.1l.1-.1h.5c.2.2.3.2.4.2z"/><radialGradient id="S" cx="-4810.263" cy="-1541.333" r="1.271" gradientTransform="matrix(.9799 -.375 -.375 -.9799 6319.519 -2023.973)" gradientUnits="userSpaceOnUse"><stop offset="0" stop-color="#E4554F"/><stop offset="1" stop-color="#AD2A27"/></radialGradient><path fill="url(#S)" d="M2184 1290.1c.3-.2.8-.3 1.1-.1.3.2.4.5.1.7-.3.2-.8.3-1.1.1-.3-.1-.4-.4-.1-.7z"/><radialGradient id="T" cx="-4816.816" cy="-1546.755" r=".431" gradientTransform="matrix(.9799 -.375 -.375 -.9799 6319.519 -2023.973)" gradientUnits="userSpaceOnUse"><stop offset="0" stop-color="#E4554F"/><stop offset="1" stop-color="#AD2A27"/></radialGradient><path fill="url(#T)" d="M2179.6 1298.1c.1-.1.3-.1.4 0 .1.1.1.2 0 .2-.1.1-.3.1-.4 0s0-.2 0-.2z"/><radialGradient id="U" cx="-4812.886" cy="-1547.729" r=".429" gradientTransform="matrix(.9799 -.375 -.375 -.9799 6319.519 -2023.973)" gradientUnits="userSpaceOnUse"><stop offset="0" stop-color="#E4554F"/><stop offset="1" stop-color="#AD2A27"/></radialGradient><path fill="url(#U)" d="M2183.9 1297.5c.1-.1.3-.1.4 0 .1.1.1.2 0 .2-.1.1-.3.1-.4 0-.1 0-.1-.1 0-.2z"/><radialGradient id="V" cx="-4804.801" cy="-1548.748" r=".431" gradientTransform="matrix(.9799 -.375 -.375 -.9799 6319.519 -2023.973)" gradientUnits="userSpaceOnUse"><stop offset="0" stop-color="#E4554F"/><stop offset="1" stop-color="#AD2A27"/></radialGradient><path fill="url(#V)" d="M2192.2 1295.5c.1-.1.3-.1.4 0 .1.1.1.2 0 .2-.1.1-.3.1-.4 0-.1 0-.1-.1 0-.2z"/><radialGradient id="W" cx="-4801.043" cy="-1548.72" r=".431" gradientTransform="matrix(.9799 -.375 -.375 -.9799 6319.519 -2023.973)" gradientUnits="userSpaceOnUse"><stop offset="0" stop-color="#E4554F"/><stop offset="1" stop-color="#AD2A27"/></radialGradient><path fill="url(#W)" d="M2195.8 1294.1c.1-.1.3-.1.4 0 .1.1.1.2 0 .2-.1.1-.3.1-.4 0 0 0-.1-.1 0-.2z"/><path fill="#B67F4F" d="M2196.8 1316.7c-6.5 1.4-14.2-.1-19.1-3.6 5.5 2.8 12.4 4.3 19.1 3.6z" opacity=".77"/><path fill="#7A3D1C" d="M2196.8 1316.9c-6.5 1.5-14.2-.1-19.1-3.6 5.5 2.8 12.4 4.3 19.1 3.6z" opacity=".77"/><path opacity=".77" fill="#B67F4F" d="M2198.3 1315.9c-6.2.4-13.3-.4-17.7-3.5 5 2.4 11.6 3.1 17.7 3.5z"/><path opacity=".77" fill="#7A3D1C" d="M2198.1 1316c-6.2.4-13.3-.4-17.7-3.5 5 2.5 11.6 3.2 17.7 3.5z"/><path opacity=".77" fill="#B67F4F" d="M2201.3 1314.9c-6.4.1-13.6-.9-18.2-4 5.2 2.5 11.9 3.4 18.2 4z"/><path opacity=".77" fill="#7A3D1C" d="M2201.1 1315c-6.4.1-13.6-.9-18.2-4 5.3 2.5 11.9 3.4 18.2 4z"/><path opacity=".77" fill="#B67F4F" d="M2201.9 1314.4c-5.6-.9-11.4-2.4-15.5-5.1 4.8 2.1 10.3 3.5 15.5 5.1z"/><path opacity=".77" fill="#7A3D1C" d="M2201.7 1314.6c-5.6-.9-11.4-2.4-15.5-5.1 4.9 2 10.3 3.5 15.5 5.1z"/><path fill="#B67F4F" d="M2205.2 1310.1c.9-4.4-3-8.9-9.3-11.3 5.4 2.9 9 6.9 9.3 11.3z" opacity=".77"/><path fill="#7A3D1C" d="M2205.5 1310c.9-4.4-3-8.9-9.3-11.3 5.5 2.9 9 7 9.3 11.3z" opacity=".77"/><path opacity=".77" fill="#B67F4F" d="M2204.3 1311.2c-.6-4-3.3-8.3-8.8-10.5 4.7 2.7 7.1 6.7 8.8 10.5z"/><path opacity=".77" fill="#7A3D1C" d="M2204.5 1311c-.6-4-3.3-8.3-8.8-10.5 4.7 2.7 7.1 6.7 8.8 10.5z"/><path opacity=".77" fill="#B67F4F" d="M2203.4 1313.3c-1.1-4.1-4.1-8.4-9.7-10.7 4.8 2.8 7.5 6.8 9.7 10.7z"/><path opacity=".77" fill="#7A3D1C" d="M2203.6 1313.1c-1.1-4.1-4.1-8.4-9.7-10.7 4.8 2.9 7.5 6.9 9.7 10.7z"/><path opacity=".77" fill="#B67F4F" d="M2202.8 1313.7c-2.5-3.4-5.9-6.7-10.8-8.8 4.1 2.7 7.3 5.9 10.8 8.8z"/><path opacity=".77" fill="#7A3D1C" d="M2203 1313.6c-2.5-3.4-5.9-6.7-10.8-8.8 4 2.7 7.3 5.8 10.8 8.8z"/><path opacity=".77" fill="#B67F4F" d="M2202.7 1314c-4.8-2-9.2-4.4-13.3-7 4.7 2.1 9.2 4.4 13.3 7z"/><path opacity=".77" fill="#7A3D1C" d="M2202.5 1314.2c-4.8-2-9.2-4.4-13.3-7 4.8 2 9.2 4.4 13.3 7z"/><g fill="#895837"><path d="M2205.5 1307.8c.3 0-1.2-2.9-1.4-3.1-.8-1.3-2-2.4-3.3-3.5-.6-.5-1.2-1-1.8-1.4-.7-.5-1.4-1-2.2-1.4-.1-.1-1.8-.7-1.8-.6 0 0 1.6.6 1.7.7.8.4 1.5.9 2.1 1.4.6.5 1.2.9 1.8 1.4 1.2 1.1 2.4 2.2 3.2 3.5.3.3 1.8 3 1.7 3 .1 0 0 0 0 0z"/><path d="M2195.8 1298c-.3 0 .3 1.1.4 1.2.4.5 1 .9 1.6 1.3 1.2.8 2.3 1.6 3.3 2.5 1 1 1.9 2 2.7 3.1.1.1 1.2 2.2 1.2 2.2.2 0-1-2.3-1.1-2.4-.8-1.1-1.7-2.2-2.7-3.2-.9-.8-1.9-1.5-3-2.2-.6-.4-1.2-.8-1.6-1.3-.3 0-1-1.2-.8-1.2-.1 0 0 0 0 0z"/><path d="M2205.9 1306.4c0 .1-1.5-.6-1.5-.6-.5-.3-.9-.7-1.4-1-.6-.5-1.1-1.1-1.7-1.7-.8-.8-1.5-1.6-2.5-2.4-.5-.3-.9-.7-1.5-1 0 0-1.7-.7-1.7-.5 0-.1 1.5.5 1.5.5.6.3 1.1.6 1.5 1 .9.7 1.7 1.6 2.5 2.4.5.6 1.1 1.1 1.7 1.6.4.3.8.7 1.4 1 .1.1 1.7.8 1.7.7 0-.1 0 0 0 0z"/><path d="M2206.6 1309.7c-.1.1-1.6-1.8-1.7-2-.5-.9-1-1.8-1.3-2.8-.2-.5-.4-1-.6-1.6-.1-.2-1.3-2.3-1.6-2.2.1-.1 1.3 1.9 1.4 2.1.2.6.4 1.1.7 1.7.4.9.8 1.8 1.3 2.7-.1.2 1.6 2.3 1.8 2.1z"/><path d="M2194.4 1299.3s1.7.5 1.8.6c.9.4 1.6.8 2.4 1.3.9.6 1.7 1.4 2.5 2.1 1 .9 2 1.9 3 2.8.5.6 1.1 1.1 1.6 1.7.2.2.4.5.5.8 0 0 0 .5-.1.4 0 0 .2-.3.2-.4-.1-.3-.3-.5-.4-.8-.4-.6-.9-1.2-1.5-1.8-.9-1-1.9-1.9-3-2.9-.9-.8-1.8-1.6-2.9-2.3-.7-.4-1.5-.9-2.3-1.2-.1 0-1.8-.4-1.8-.3z"/><path d="M2207 1309.7s-2-1.4-2.2-1.5c-1-.8-1.8-1.6-2.7-2.5-.8-.8-1.7-1.6-2.5-2.3-.4-.3-.8-.7-1.2-1-.2-.1-.4-.2-.6-.4 0 0-.4-.1-.3 0 .1.1.7.3.8.4.4.3.7.6 1 .9.9.8 1.7 1.6 2.6 2.4.9.8 1.7 1.6 2.7 2.4.1.2 2.3 1.7 2.4 1.6z"/><path d="M2193.1 1299.7s2.3.6 2.4.6c1.1.4 2 .9 2.9 1.5.9.5 1.7 1 2.5 1.6.1.1 1.5 1.5 1.3 1.5.2 0-.9-1.4-1.1-1.5-.8-.6-1.7-1.2-2.6-1.7-.9-.5-1.8-1-2.8-1.4-.2-.1-2.6-.8-2.6-.6zm14.2 10.4c-.1.1-2.6-1.5-2.7-1.6-1.2-.9-2.2-1.8-3.1-2.8-1-.9-1.9-1.9-3.1-2.7-.5-.4-1.1-.7-1.7-1-.1-.1-1.7-.7-1.7-.6.1-.2 3 1.5 3.2 1.6 1.1.8 2.1 1.8 3.1 2.7 1 .9 2 1.9 3.1 2.7-.1.2 2.7 1.9 2.9 1.7zm-14.1-7.8c.1-.1 3.4 1.5 3.7 1.6 1.2.7 2.4 1.6 3.6 2.3 1.3.9 2.6 1.8 3.6 2.8.3.3.6.5.8.8.1.1.9 1.1.9 1.1s-.7-1-.8-1.1l-1-1c-1-1-2.2-1.9-3.6-2.8-1-.6-1.9-1.2-2.9-1.9-.8-.5-1.6-.9-2.5-1.3 0 0-1.8-.6-1.8-.5z"/><path d="M2206.2 1311.5c-.1.1-2.7-2.1-2.9-2.3-.8-.8-1.6-1.6-2.6-2.4-1-.9-1.9-1.8-3-2.7-.5-.4-1.1-.9-1.7-1.3-.1-.1-2-1-2-.9.1-.2 3.1 1.9 3.3 2.1 1.1.9 2.1 2 3.2 2.9.9.8 1.7 1.6 2.6 2.3.2.3 2.9 2.5 3.1 2.3zm-13.6-8c0-.1 3.4 1.2 3.6 1.3 1.4.7 2.6 1.6 3.7 2.5.4.4 5.4 5.1 5.5 5.1.1-.1-4.6-4.6-5-4.9-1.2-1-2.5-2-4-2.7-.2-.2-3.7-1.5-3.8-1.3z"/><path d="M2206.2 1312c0 .1-2.5-1.7-2.7-1.9-1-.9-1.9-1.9-2.7-2.9-.8-.9-1.7-1.9-2.8-2.7-.2-.1-2.9-1.7-3.1-1.5.1-.1 2.8 1.5 3 1.7 1.1.9 2 1.8 2.9 2.8.8.9 1.7 1.9 2.7 2.8.1.2 2.6 1.9 2.7 1.7 0 0 0 .1 0 0z"/><path d="M2192.9 1302.6s3.6 1.9 3.8 2.1c1.2.8 2.2 1.7 3.2 2.6.8.7 1.5 1.4 2.4 2 .7.5 1.4 1 2.2 1.4.1 0 1.8.7 1.8.6 0 0-1.6-.6-1.7-.6-.8-.4-1.4-.9-2.1-1.4-.8-.6-1.6-1.3-2.3-2-1-.9-2-1.8-3.2-2.6-.3-.3-3.9-2.2-4.1-2.1 0 .1 0 0 0 0zm0 1.9c.1-.2 3.2 1.2 3.4 1.4 1.3.8 2.6 1.6 3.7 2.5 1.1.9 2 1.8 2.9 2.7.4.4.9.8 1.3 1.3.1.1.7.9.6.9.2 0-.6-1.1-.6-1.2-.3-.4-.8-.8-1.1-1.2-.9-1-1.8-1.9-2.9-2.8-1.1-.8-2.3-1.7-3.6-2.4-.4 0-3.6-1.5-3.7-1.2zm11.9 9c0 .2-1.3-.8-1.3-.8-.5-.5-.9-.9-1.5-1.3-1.1-.9-2.3-1.7-3.4-2.6-1.1-.8-2.3-1.7-3.6-2.4-.8-.4-2-1-3-1l.2.3-.1-.2c2.8.7 4.9 2.4 6.8 3.9 1 .8 2.1 1.5 3.2 2.3.5.4.9.7 1.3 1.1-.1 0 1.3 1 1.4.7zm-15-8s1.7.5 1.8.5c.7.3 1.3.6 1.9 1 1.2.9 2 2.1 3 3.1 1.1 1 2.6 1.9 4.2 2.7.3.1 3.7 1.5 3.8 1.3 0 0-3.6-1.4-3.8-1.5-1.6-.8-2.9-1.6-4-2.7-1-.9-1.7-2-2.8-2.8-.5-.4-1.2-.8-1.9-1.1-.2-.1-2.1-.7-2.2-.5z"/><path d="M2203.9 1313.6c.1.1-1.5-.2-1.6-.2-.7-.2-1.2-.6-1.8-.9-1.2-.7-2-1.6-3-2.4-1.7-1.5-3.9-2.8-6.3-3.9l.3-.1h-.5c.1.3 1.4.9 1.8 1 1.4.8 2.7 1.7 3.9 2.6 1.1.9 2 1.9 3.3 2.7.6.4 1.2.7 2 1 .3.1 2 .4 1.9.2z"/><path d="M2188.7 1306.3c0-.1 2 .6 2.2.7.7.3 1.3.8 1.9 1.2.7.5 1.3 1 1.9 1.5 1.3 1 2.8 2 4.4 2.9.7.4 1.4.7 2.3.9.1 0 2.1.7 2.1.8.1 0-3.3-1.4-3.6-1.5-1.5-.7-2.8-1.6-4.1-2.5-1.2-.8-2.1-1.7-3.3-2.5-.6-.4-1.2-.7-1.9-1-.1-.1-1.9-.7-1.9-.5zm14.2 8.5s-2-.6-2.1-.6c-.7-.3-1.3-.7-1.9-1.1-1-.6-1.8-1.3-2.8-2-.5-.4-7.2-4.4-7.5-4.1.1-.1 6.9 4 7.4 4.4.9.6 1.7 1.3 2.6 1.9.6.4 1.3.8 2 1.1.2-.1 2.2.6 2.3.4zm-5.1 2.5h-2.3c-.8-.1-1.7-.3-2.5-.5-1.3-.3-2.5-.7-3.8-1.1-.7-.2-9.3-2.1-9.4-1.8 0-.1 8.8 1.8 9.6 2 1.2.3 2.3.7 3.5 1 .8.2 1.7.4 2.5.4.2.1 2.5.2 2.4 0z"/><path d="M2202.3 1315.3c0 .1-3.3-1.4-3.6-1.6-1.4-.9-2.7-1.9-4.1-2.8-.6-.4-7.8-4.5-8-4.3 0 0 7.1 4 7.6 4.4 1.4.9 2.6 1.9 4 2.7.4.2 3.9 2 4.1 1.6z"/><path d="M2185.2 1308.8c0-.1 1.9-.1 2.1-.1.9.1 1.7.3 2.4.6 1.8.7 3.2 1.8 4.7 2.7 1.4.9 3.1 1.6 5 2.2.9.3 1.7.5 2.6.6.1 0 2 .2 2 .2 0 .1-4-.8-4.4-.9-1.9-.6-3.7-1.3-5.1-2.3-1.5-.9-2.8-2-4.6-2.6-.7-.3-1.4-.5-2.2-.6-.3-.1-2.7 0-2.5.2z"/><path d="M2184.7 1309.4c-.1-.1 2.1-.1 2.3-.1 1 .2 1.8.5 2.6.9 1.3.7 2.5 1.4 3.9 2.1 1.5.7 3.1 1.5 4.8 2 .8.3 1.7.5 2.7.6.4 0 .9.1 1.3 0 .1 0 1.1-.3.9-.4.2.1-1.8.3-1.9.3-.9-.1-1.8-.3-2.6-.6-1.8-.6-3.4-1.3-5-2.1-1.4-.7-2.6-1.4-4-2.1-.8-.4-1.7-.7-2.7-.9-.2.1-2.5.1-2.3.3z"/><path d="M2199.8 1315.7s-1.8-.3-1.9-.3c-.9-.2-1.8-.5-2.7-.9-1.4-.6-2.8-1.3-4.1-2-.9-.5-1.8-1.2-2.8-1.7-.8-.4-1.5-.9-2.4-1.2-.4-.1-.8-.3-1.2-.4-.2 0-.8.2-.7.2-.1 0 .7-.1.8-.1.4.1.8.3 1.2.4.8.4 1.6.8 2.3 1.3.9.5 1.7 1.1 2.6 1.6 1.3.7 2.7 1.4 4.1 2 .9.3 1.8.6 2.8.8.2.2 2 .4 2 .3z"/><path d="M2182.5 1311c-.2-.1 1.6-.6 1.8-.7.9 0 1.8.2 2.5.5 1.9.7 3.5 1.6 5.2 2.3 1.8.8 3.6 1.5 5.6 2 .4.1 5 .8 4.9.5 0 0-2.3-.2-2.5-.2-1-.1-2-.4-3-.7-1.8-.5-3.5-1.3-5.2-2-1.3-.6-2.5-1.2-3.8-1.7-.9-.4-1.9-.8-2.9-.9-.5-.1-1.1-.1-1.6.1-.2.1-1.2.7-1 .8 0 0-.1 0 0 0z"/><path d="M2181.5 1310.9c-.1-.1 2-.2 2.2-.2.8.1 1.6.3 2.3.6 1.6.6 3 1.5 4.6 2.2 1.6.7 3.4 1.3 5.1 1.7.4.1 4.2.9 4.2.8 0 0-4-.9-4.3-1-1.7-.5-3.4-1-4.9-1.7-1.6-.7-3-1.5-4.6-2.1-.7-.3-1.5-.5-2.4-.6-.2 0-2.4.2-2.2.3zm-1.3 1.3s2.2.1 2.3.2c.8.1 1.6.3 2.3.6 1.7.6 3.1 1.5 4.7 2.2 1.6.7 3.5 1.2 5.4 1.5.3.1 4.4.5 4.4.3 0 .1-3.9-.4-4.3-.4-1.9-.4-3.8-.9-5.4-1.6-1.6-.7-3.1-1.6-4.9-2.2-.8-.3-1.7-.5-2.6-.5-.1-.1-1.9-.2-1.9-.1z"/><path d="M2197.5 1317.5c0 .1-2.4-.2-2.6-.2-1.1-.3-2.1-.6-3.1-1-1.1-.5-2.2-1-3.3-1.4-1.6-.7-3.2-1.2-4.9-1.7-.8-.2-1.7-.5-2.5-.7-.2 0-2.6-.2-2.5 0-.1-.1 2.3.1 2.5.2.8.2 1.6.4 2.4.7 1.8.5 3.4 1.1 5.1 1.8 1.1.5 2.3 1 3.4 1.5.9.4 1.9.7 3 1 0-.3 2.6 0 2.5-.2zm-4.1.7c0-.1-3-1.2-3.3-1.3l-4.5-1.8c-1.4-.6-2.9-1.1-4.3-1.6-.6-.2-1.3-.4-2-.6-.2 0-.6-.1-.8-.1.1 0-.8.1-.6.2 0 0 .4-.1.5-.1.3 0 .6.1.9.1.6.1 1.2.3 1.8.5 1.5.5 3 1.1 4.5 1.7 1.4.6 2.9 1.2 4.3 1.7.2.2 3.5 1.4 3.5 1.3zm-8.9-7.7c-.2-.1-.1.5-.1.4.1.2.3.4.5.5.5.4 1.3.7 1.9 1.1 1.5.7 3.1 1.2 4.7 1.8 1.5.5 3.1 1 4.7 1.3.7.2 1.5.3 2.2.5.2 0 1.6.2 1.6.1 0 0-1.8-.2-1.9-.3-.7-.1-1.3-.3-1.9-.5-1.7-.4-3.3-.9-5-1.5-1.5-.5-3-1-4.5-1.7-.6-.3-1.3-.6-1.8-.9-.2-.1-.4-.3-.5-.4.1.1 0-.4.1-.4 0 0 0 .1 0 0zm15.2 4.1s-3-.6-3.3-.6c-1.4-.3-2.7-.8-3.9-1.3-1.2-.5-2.3-1.1-3.3-1.7-.2-.1-2.4-1.8-2.4-1.8-.2.1 1.9 1.7 2.1 1.8 1 .7 2.2 1.3 3.4 1.8 1.2.5 2.5.9 3.8 1.2.3.1 3.6.7 3.6.6z"/><path d="M2195.2 1317.3s-1.7-.1-1.9-.1c-.9-.1-1.7-.3-2.5-.6-1.3-.3-2.6-.7-3.7-1.2-1.5-.6-2.7-1.4-3.9-2.2-.1-.1-1.5-1.2-1.6-1.2-.1.1 2.3 1.9 2.5 2 1.2.8 2.5 1.4 4.1 1.9 1 .3 1.9.6 2.9.9.4.1 4.2.7 4.1.5.1 0 .1 0 0 0zm4.8-1h-2c-.9-.1-1.7-.2-2.6-.4-1.6-.3-3.1-.6-4.6-1-1.7-.4-3.4-1-4.8-1.8-.7-.4-1.3-.8-1.7-1.3-.1-.1-.7-1-.7-1-.1 0 .5 1 .6 1.1.4.5 1 .9 1.6 1.3 1.4.9 3.2 1.5 5.1 1.9 1.6.4 3.3.8 4.9 1 .9.1 1.7.3 2.6.3.2.1 1.7 0 1.6-.1 0 0 .1.1 0 0zm-8.4 1.8c0 .1-3.3-.3-3.5-.4-1.5-.3-2.8-.8-4.2-1.2-1.1-.4-2.2-.7-3.2-1.3-.2-.1-2.4-1.8-2.2-1.8-.4.1 1.8 1.8 2 2 1 .6 2.1 1 3.3 1.3 1.4.4 2.8.9 4.3 1.2.2.1 3.6.4 3.5.2z"/><path d="M2197.1 1317.1c0 .1-4.6.1-5 .1-2.2-.1-4.3-.4-6.4-.8-1.7-.3-3.3-.7-4.9-1.3-.8-.3-1.7-.7-2.3-1.1-.3-.2-.6-.4-.7-.7l-.2-.6c-.1 0 0 .6 0 .6.1.3.4.5.7.8.6.5 1.4.9 2.3 1.2 1.5.6 3.2 1 4.9 1.4 2.1.4 4.2.7 6.3.8.3-.1 5.4-.1 5.3-.4z"/><path d="M2176.6 1313.1c-.1-.1 1.4-.1 1.6-.1.8.1 1.7.2 2.5.4 1.6.3 3.1.8 4.6 1.2 1.7.5 3.4 1 5.2 1.4.3.1 4.2.6 4.1.3 0 .1-3.7-.4-4.1-.4-1.8-.4-3.5-.9-5.2-1.4-1.5-.4-3.1-.8-4.7-1.2-.8-.2-1.7-.3-2.5-.4-.1.1-1.6.2-1.5.2z"/><path d="M2175.5 1312.6c0-.1 1.7.5 1.8.6.6.4 1.1.8 1.8 1.1.7.3 1.3.7 2.1 1 .2.1 2.4.7 2.4.6 0 .1-2.1-.6-2.3-.7-.7-.3-1.4-.7-2-1-.6-.3-1.1-.8-1.8-1.1-.1 0-2.1-.7-2-.5 0 .1 0 0 0 0zm17.5-6.5s2.2.6 2.3.6c1.1.3 2.1.8 3 1.3.8.5 1.4 1.1 2.1 1.7.1.1 1.7 1.4 1.9 1.3-.1 0-1.5-1.2-1.6-1.2-.7-.7-1.3-1.3-2.2-1.9-.8-.5-1.8-.9-2.9-1.3-.2 0-2.6-.6-2.6-.5 0 0 0-.1 0 0z"/><path d="M2203.2 1312.1s-2.7-2.4-2.9-2.6c-1-.9-2.2-1.7-3.5-2.4-.9-.6-1.9-1.1-2.9-1.7-.3-.2-4.1-1.8-4.2-1.6 0-.1 3.8 1.6 4.1 1.8 1 .5 1.9 1.1 2.8 1.6 1.2.7 2.3 1.5 3.3 2.3.3.2 3.2 2.8 3.3 2.6zm4.1-4.3c0 .1-3.2-1.2-3.4-1.3-1.4-.7-2.6-1.5-3.9-2.3-1.3-.8-2.7-1.5-4.2-2.1-.7-.3-1.4-.6-2.1-.8-.3-.1-.5-.1-.8-.1-.2 0-.1.2-.1.2v-.1c.1-.1.2-.1.4-.1s.6.2.8.2c.7.2 1.4.5 2.1.8 1.4.6 2.7 1.3 4 2.1 1.3.7 2.5 1.5 3.8 2.2.1.2 3.3 1.5 3.4 1.3zm-.3-1.1s-3-1.2-3.2-1.3c-1.3-.6-2.6-1.4-3.7-2.2-.9-.6-1.7-1.3-2.7-1.9-.5-.3-1.1-.6-1.8-.7 0 0-1.7-.1-1.5.1 0 0 .5-.1.6-.1.4 0 .8 0 1.1.2.6.2 1.2.5 1.7.8 1 .6 1.9 1.3 2.9 2 1.1.7 2.3 1.4 3.7 2 0 .1 2.9 1.2 2.9 1.1z"/></g><path opacity=".15" fill="#020202" d="M2184.1 1310.3c1.5.3 2.9 1.1 3.9 2.1-2.8-.8-5-1-7.3-1-.1.2-.3.3-.6.4.5.3.8.7.8 1 .9.2 1.8.4 3.1.5-.8.6-2.5.7-4 .5 1.3 1 2.7 1.8 4.8 2.6-.8.3-1.9.3-2.9.1-1-.1-2-.5-2.8-.9-1.9-.3-3-1.3-2.9-2.3.1-.3.2-.6.5-.8v-.1l-.3.3c-.1.2-.2.3-.3.5-.3-.3-.6-.5-.8-.7.3-.1.6-.3.9-.4-.3.1-.7.2-1 .3l-.3-.3s7.6-2.5 9.2-1.8z"/><g><path fill="#754C24" d="M2176.5 1311.4c.5-.4 1.8-.4 2.7.1 1 .5 1.3 1.3.7 1.7-.5.4-1.8.4-2.7-.1-.9-.6-1.3-1.3-.7-1.7z"/><path fill="#754C24" d="M2180 1310.9c.1.4-.7.8-1.6.9-1 .1-1.8-.3-1.9-.7-.1-.4.7-.8 1.6-.9 1 0 1.8.3 1.9.7z"/><path fill="#754C24" d="M2178.2 1309.3c.4.2.4.7-.1 1.1-.5.4-1.2.6-1.6.3-.4-.2-.4-.7.1-1.1.4-.3 1.2-.5 1.6-.3z"/><linearGradient id="X" gradientUnits="userSpaceOnUse" x1="5870.389" y1="1310.6" x2="5886.587" y2="1310.6" gradientTransform="rotate(129.311 4187.663 398.201) scale(1.0492)"><stop offset="0" stop-color="#468333"/><stop offset=".194" stop-color="#508831"/><stop offset=".528" stop-color="#6C942A"/><stop offset=".959" stop-color="#98A920"/><stop offset="1" stop-color="#9DAB1F"/></linearGradient><path fill="url(#X)" d="M2175.4 1311.7c-3 1-4.1 1.2-6.3 4.1-1.2-1.9 1.3-4.6 6-4.5-5.1-.7-5.4-3.6-3.5-5.1.3 2.4 1.6 3.7 3.8 4.6-3.7-2-1.6-5.4 2.7-6.2-2.5 2.8-3 3.9-1.8 5.9-1.3-3.2 4.4-4.8 8.4-4-.5.1-1 .2-1.4.4-.2 0-.4-.1-.5-.1 0 0 0 .1.1.2-.2.1-.4.1-.6.2-.2 0-.4-.1-.5-.1 0 0 0 .1.1.2-.2.1-.4.1-.5.2h-.4s0 .1.1.1c-.2.1-.4.2-.7.3-.2 0-.4 0-.6-.1 0 .1.1.2.2.3l-.6.3c-.3.1-.5.1-.5.1l.1.1c-.7.5-1.4 1.2-2 1.9 3.8-1.8 8-1.1 10.4 1.3-4.1-1.1-6.9-1.2-10.6-.8 2.4 2.1 3.9 3.4 7.4 4.7-3.2 1-9.3-1.5-8-4.3-1.8 2.1-1.5 3 .2 6-4.3-1.1-5.1-4.2-1-5.7z"/><linearGradient id="Y" gradientUnits="userSpaceOnUse" x1="5394.042" y1="1677.839" x2="5403.595" y2="1677.839" gradientTransform="matrix(-.5886 .8686 -.8686 -.5886 6812.023 -2390.415)"><stop offset="0" stop-color="#4F8F39"/><stop offset="1" stop-color="#CCDB29"/></linearGradient><path fill="url(#Y)" d="M2176.2 1311.9c-1.4 1.1-2 1.4-2.2 3.5-1.5-1-1.1-3 1.8-3.7-3.4.4-4.7-1.3-4.2-2.5 1.2 1.4 2.5 2 4.2 2.2-3.1-.6-3.1-3-.8-4.2-.4 2.1-.3 2.8 1.2 3.9-2.1-1.7.7-3.7 3.5-3.8-2 1.2-2.8 2.3-3 3.9 1.6-1.7 4.4-2 6.9-.9-2.9 0-4.6.4-6.8 1.3 2.3.9 3.7 1.4 6.4 1.6-1.6 1.1-6.3.6-6.6-1.3-.2 1.5.3 2.1 2.5 3.6-3-.3-4.8-2.1-2.9-3.6z"/></g><g><path fill="#FFC687" d="M2173.7 1337.4s-12.2 1.1-16.2-4.4-.8-15.5 4.9-19.9c5.5-3.6 11.9-1.8 12.4-.3 1.7-2.2 5-4.5 7.5-.3s2.7 10 .9 13.6c-1.9 3.7-9.5 11.3-9.5 11.3z"/></g></g><ellipse opacity=".15" cx="2335.9" cy="657.5" rx="10.6" ry="1.8"/><g opacity=".2"><path d="M1441.1 1278.9c3.9-3.2 2.2-7-.5-8.2 1.5 3.3 1.2 5.6 0 7.7 1.8-4.2-2.4-7.7-6.7-6.9 4.2 2.6 5.3 3.7 5.7 6.9-1.1-4.8-7.3-4.4-10.1-1.5 4-.5 6.7.2 9.8 2.2-4.5-.7-7.7 2.1-8.1 6.4 2.7-3.1 5-4.5 8.3-5.6-5.9 7.5-7.4 17.7-3.8 26.6h2.5c.1 0 .1 0 .2.1-1-4.4.5-9.7 3.8-12.9-.7 1.5-1.2 2.6-2.5 3.9 1.8.3 4.4-2.3 3.2-4.3 1.3 1.4 1.4 2.1 1.1 4.6 1.8-1.5 1.5-4-.8-4.7 1.7.4 2.3.4 4 2.3.2-1.6-1.6-3.4-4-2.7 2.4-1.1 2-3.4.8-4.3.3 1.9-.1 3.1-1 4 1.5-2-.3-4.3-2.6-4.4 1.9 1.9 2.3 2.6 2.1 4.3 0-2.6-3.2-3.2-5.1-2 2.1.2 3.4.9 4.8 2.3-2.3-.9-4.3.1-5 2.3 1.8-1.3 3.1-1.7 5-1.9-3.2 2.5-5.1 6.2-5.4 10.1-2.3-7.2-1.4-15.7 2.6-22.2-.5 3.1-1 5.3-2.9 8.2 3.5-.2 7-6.2 4-9.2 3 2 3.4 3.3 4.1 7.9 2.6-3.6 1-8.1-3.5-8.3 3.3 0 4.4-.2 8.3 2.5-.3-3.1-4.4-5.5-8.3-3.2z"/></g><g><defs><path id="Z" d="M2410.8 608.5H2730v162h-319.2z"/></defs><clipPath id="aa"><use xlink:href="#Z" overflow="visible"/></clipPath><g clip-path="url(#aa)"><use xlink:href="#ab" width="74.3" height="50.7" x="-37.2" y="-25.4" transform="rotate(180 1259.62 329.296) scale(.7436)" overflow="visible"/><use xlink:href="#ab" width="74.3" height="50.7" x="-37.2" y="-25.4" transform="matrix(.6775 0 0 -.6775 2440.655 658.826)" overflow="visible"/><use xlink:href="#ab" width="74.3" height="50.7" x="-37.2" y="-25.4" transform="matrix(.5881 0 0 -.5881 2586.333 664.096)" overflow="visible"/><use xlink:href="#ab" width="74.3" height="50.7" x="-37.2" y="-25.4" transform="matrix(.5881 0 0 -.5881 2617.741 664.112)" overflow="visible"/><use xlink:href="#ab" width="74.3" height="50.7" x="-37.2" y="-25.4" transform="matrix(.7054 0 0 -.7054 2714.512 671.415)" overflow="visible"/><use xlink:href="#ab" width="74.3" height="50.7" x="-37.2" y="-25.4" transform="matrix(1.2564 0 0 -1.2564 2664.442 662.999)" overflow="visible"/><use xlink:href="#ab" width="74.3" height="50.7" x="-37.2" y="-25.4" transform="matrix(1.0105 0 0 -1.0105 2465.734 667)" overflow="visible"/><use xlink:href="#ab" width="74.3" height="50.7" x="-37.2" y="-25.4" transform="rotate(180 1278.78 333.752) scale(.7436)" overflow="visible"/><use xlink:href="#ab" width="74.3" height="50.7" x="-37.2" y="-25.4" transform="rotate(180 1259.62 340.544) scale(.7436)" overflow="visible"/><use xlink:href="#ab" width="74.3" height="50.7" x="-37.2" y="-25.4" transform="rotate(180 1282.977 344.2) scale(.6775)" overflow="visible"/><use xlink:href="#ab" width="74.3" height="50.7" x="-37.2" y="-25.4" transform="matrix(.5881 0 0 -.5881 2597.82 679.943)" overflow="visible"/><use xlink:href="#ab" width="74.3" height="50.7" x="-37.2" y="-25.4" transform="matrix(.5881 0 0 -.5881 2633.389 686.61)" overflow="visible"/><use xlink:href="#ab" width="74.3" height="50.7" x="-37.2" y="-25.4" transform="matrix(.7054 0 0 -.7054 2695.667 680.875)" overflow="visible"/><use xlink:href="#ab" width="74.3" height="50.7" x="-37.2" y="-25.4" transform="matrix(.6775 0 0 -.6775 2588.675 702.916)" overflow="visible"/><use xlink:href="#ab" width="74.3" height="50.7" x="-37.2" y="-25.4" transform="matrix(.7054 0 0 -.7054 2666.82 692.622)" overflow="visible"/><use xlink:href="#ab" width="74.3" height="50.7" x="-37.2" y="-25.4" transform="matrix(.7436 0 0 -.7436 2711.846 696.615)" overflow="visible"/><use xlink:href="#ab" width="74.3" height="50.7" x="-37.2" y="-25.4" transform="rotate(180 1312.472 349.38) scale(.7436)" overflow="visible"/><use xlink:href="#ab" width="74.3" height="50.7" x="-37.2" y="-25.4" transform="rotate(180 1316.264 356.37) scale(.7569)" overflow="visible"/><use xlink:href="#ab" width="74.3" height="50.7" x="-37.2" y="-25.4" transform="matrix(1.4193 0 0 -1.4193 2683.425 707.4)" overflow="visible"/><use xlink:href="#ab" width="74.3" height="50.7" x="-37.2" y="-25.4" transform="matrix(.9817 0 0 -.9817 2699.717 739.458)" overflow="visible"/></g></g><use xlink:href="#C" width="88.9" height="79.2" x="-44.4" y="-39.6" transform="matrix(.4068 0 0 -.4068 2335.265 642.078)" overflow="visible"/><path fill="#FF931E" d="M2289.9 710.2h-117.1l13.5-30.8h90.2"/></svg>