<svg xmlns="http://www.w3.org/2000/svg" xmlns:xlink="http://www.w3.org/1999/xlink" width="2730.7" height="1536" viewBox="0 0 2730.7 1536"><symbol id="X" viewBox="-40.6 -38.5 81.3 76.9"><linearGradient id="a" gradientUnits="userSpaceOnUse" x1="4109.98" y1="-12221.026" x2="4109.98" y2="-12224.272" gradientTransform="matrix(2.087 0 0 -2.087 -8577.512 -25491.617)"><stop offset="0" stop-color="#D29D62"/><stop offset="1" stop-color="#E7C39B"/></linearGradient><path fill="url(#a)" d="M-36.5 20.5h73.1v-6.8h-73.1z"/><linearGradient id="b" gradientUnits="userSpaceOnUse" x1="4092.459" y1="-12224.211" x2="4127.502" y2="-12224.211" gradientTransform="matrix(2.087 0 0 -2.087 -8577.512 -25491.617)"><stop offset="0"/><stop offset=".3" stop-color="#D29D62"/><stop offset=".7" stop-color="#D29D62"/><stop offset="1"/></linearGradient><path opacity=".1" fill="url(#b)" d="M-36.5 20.5h73.1v-.3h-73.1z"/><linearGradient id="c" gradientUnits="userSpaceOnUse" x1="4092.459" y1="-12224.072" x2="4127.502" y2="-12224.072" gradientTransform="matrix(2.087 0 0 -2.087 -8577.512 -25491.617)"><stop offset="0" stop-color="#E7C39B" stop-opacity="0"/><stop offset=".5" stop-color="#FFF"/><stop offset="1" stop-color="#F1DDC6" stop-opacity="0"/></linearGradient><path fill="url(#c)" d="M-36.5 20.2h73.1v-.3h-73.1z"/><linearGradient id="d" gradientUnits="userSpaceOnUse" x1="4109.989" y1="-12222.653" x2="4092.459" y2="-12222.653" gradientTransform="matrix(2.087 0 0 -2.087 -8577.512 -25491.617)"><stop offset="0" stop-color="#AC8058"/><stop offset="1" stop-color="#9D7550" stop-opacity="0"/></linearGradient><path opacity=".1" fill="url(#d)" d="M-36.5 20.5H0v-6.8h-36.5z"/><linearGradient id="e" gradientUnits="userSpaceOnUse" x1="4124.488" y1="-12220.443" x2="4125.646" y2="-12224.769" gradientTransform="matrix(2.087 0 0 -2.087 -8577.512 -25491.617)"><stop offset="0" stop-color="#E7C39B"/><stop offset="1" stop-color="#F6EADB"/></linearGradient><path fill="url(#e)" d="M36.6 13.7H25.8v4l10.8 2.8z"/><linearGradient id="f" gradientUnits="userSpaceOnUse" x1="4127.493" y1="-12223.631" x2="4122.302" y2="-12223.631" gradientTransform="matrix(2.087 0 0 -2.087 -8577.512 -25491.617)"><stop offset="0"/><stop offset="1" stop-opacity="0"/></linearGradient><path opacity=".1" fill="url(#f)" d="M25.8 17.7l10.8 2.8h-2.2z"/><path fill="#FFF" d="M25.8 17.7l10.8 2.2v.6z"/><linearGradient id="g" gradientUnits="userSpaceOnUse" x1="4125.875" y1="-12221.026" x2="4125.875" y2="-12222.974" gradientTransform="matrix(2.087 0 0 -2.087 -8577.512 -25491.617)"><stop offset="0" stop-color="#D29D62"/><stop offset="1" stop-color="#E7C39B"/></linearGradient><path fill="url(#g)" d="M40.6 13.7H25.8v4z"/><linearGradient id="h" gradientUnits="userSpaceOnUse" x1="4127.493" y1="-12222.272" x2="4122.302" y2="-12222.272" gradientTransform="matrix(2.087 0 0 -2.087 -8577.512 -25491.617)"><stop offset="0"/><stop offset="1" stop-opacity="0"/></linearGradient><path opacity=".1" fill="url(#h)" d="M36.6 15.6l-10.8 2.1 10.8-2.9z"/><linearGradient id="i" gradientUnits="userSpaceOnUse" x1="4122.302" y1="-12222.005" x2="4129.44" y2="-12222.005" gradientTransform="matrix(2.087 0 0 -2.087 -8577.512 -25491.617)"><stop offset="0" stop-color="#FFF"/><stop offset="1" stop-color="#E7C39B" stop-opacity="0"/></linearGradient><path fill="url(#i)" d="M40.6 13.7l-14.8 4v-.2l13.8-3.8z"/><linearGradient id="j" gradientUnits="userSpaceOnUse" x1="4122.371" y1="-12222.975" x2="4122.371" y2="-12221.028" gradientTransform="matrix(2.087 0 0 -2.087 -8577.512 -25491.617)"><stop offset="0" stop-color="#FFF"/><stop offset="1" stop-color="#FFF" stop-opacity="0"/></linearGradient><path opacity=".5" fill="url(#j)" d="M25.8 17.7v-4h.2v4z"/><linearGradient id="k" gradientUnits="userSpaceOnUse" x1="4129.44" y1="-12221.156" x2="4122.302" y2="-12221.156" gradientTransform="matrix(2.087 0 0 -2.087 -8577.512 -25491.617)"><stop offset="0"/><stop offset="1" stop-opacity="0"/></linearGradient><path opacity=".1" fill="url(#k)" d="M25.8 13.7h14.8l-2 .5z"/><g><linearGradient id="l" gradientUnits="userSpaceOnUse" x1="16624.297" y1="-12220.443" x2="16625.455" y2="-12224.769" gradientTransform="rotate(180 17332.324 -12745.809) scale(2.087)"><stop offset="0" stop-color="#E7C39B"/><stop offset="1" stop-color="#F6EADB"/></linearGradient><path fill="url(#l)" d="M-36.5 13.7h10.8v4l-10.8 2.8z"/><linearGradient id="m" gradientUnits="userSpaceOnUse" x1="16627.318" y1="-12223.631" x2="16622.129" y2="-12223.631" gradientTransform="rotate(180 17332.324 -12745.809) scale(2.087)"><stop offset="0"/><stop offset="1" stop-opacity="0"/></linearGradient><path opacity=".1" fill="url(#m)" d="M-25.7 17.7l-10.8 2.8h2.1z"/><path fill="#FFF" d="M-25.7 17.7l-10.8 2.2v.6z"/><linearGradient id="n" gradientUnits="userSpaceOnUse" x1="16625.693" y1="-12221.026" x2="16625.693" y2="-12222.974" gradientTransform="rotate(180 17332.324 -12745.809) scale(2.087)"><stop offset="0" stop-color="#D29D62"/><stop offset="1" stop-color="#E7C39B"/></linearGradient><path fill="url(#n)" d="M-40.6 13.7h14.9v4z"/><linearGradient id="o" gradientUnits="userSpaceOnUse" x1="16627.318" y1="-12222.272" x2="16622.129" y2="-12222.272" gradientTransform="rotate(180 17332.324 -12745.809) scale(2.087)"><stop offset="0"/><stop offset="1" stop-opacity="0"/></linearGradient><path opacity=".1" fill="url(#o)" d="M-36.5 15.6l10.8 2.1-10.8-2.9z"/><linearGradient id="p" gradientUnits="userSpaceOnUse" x1="16622.127" y1="-12222.005" x2="16629.266" y2="-12222.005" gradientTransform="rotate(180 17332.324 -12745.809) scale(2.087)"><stop offset="0" stop-color="#FFF"/><stop offset="1" stop-color="#E7C39B" stop-opacity="0"/></linearGradient><path fill="url(#p)" d="M-40.6 13.7l14.9 4v-.2l-13.9-3.8z"/><linearGradient id="q" gradientUnits="userSpaceOnUse" x1="16622.188" y1="-12222.976" x2="16622.188" y2="-12221.028" gradientTransform="rotate(180 17332.324 -12745.809) scale(2.087)"><stop offset="0" stop-color="#FFF"/><stop offset="1" stop-color="#FFF" stop-opacity="0"/></linearGradient><path opacity=".5" fill="url(#q)" d="M-25.7 17.7v-4h-.3v4z"/><linearGradient id="r" gradientUnits="userSpaceOnUse" x1="16629.266" y1="-12221.156" x2="16622.129" y2="-12221.156" gradientTransform="rotate(180 17332.324 -12745.809) scale(2.087)"><stop offset="0"/><stop offset="1" stop-opacity="0"/></linearGradient><path opacity=".1" fill="url(#r)" d="M-25.7 13.7h-14.9l2 .5z"/></g><linearGradient id="s" gradientUnits="userSpaceOnUse" x1="4109.98" y1="-12221.026" x2="4109.98" y2="-12222.903" gradientTransform="matrix(2.087 0 0 -2.087 -8577.512 -25491.617)"><stop offset="0"/><stop offset="1" stop-opacity="0"/></linearGradient><path opacity=".08" fill="url(#s)" d="M25.8 14v3.6l-.6-3.6h-50.4l-.5 3.6V14h-10.8v-.3h73.1v.3z"/><g><path fill="#353535" stroke="#EAEAEA" stroke-width=".173" stroke-miterlimit="10" d="M-15.6-5.3l-23.9 23.9c-1 1-1 2.6 0 3.6L-24.7 37c1 1 2.6 1 3.6 0L2.8 13.1c1-1 1-2.6 0-3.6L-12-5.3c-1-1-2.6-1-3.6 0z"/><linearGradient id="t" gradientUnits="userSpaceOnUse" x1="2078.005" y1="-7732.141" x2="2078.005" y2="-7742.71" gradientTransform="scale(2.087 -2.087) rotate(45 -8296.143 -6391.477)"><stop offset="0" stop-color="#247ABA"/><stop offset="1" stop-color="#3CF"/></linearGradient><path fill="url(#t)" d="M-38 20.9l14.6 14.6c.3.3.8.3 1 0L1.3 11.8c.3-.3.3-.8 0-1L-13.3-3.8c-.3-.3-.8-.3-1 0L-38 19.8c-.2.3-.2.8 0 1.1z"/><path d="M-16.9 14c.5.5 1.2.7 1.9.5.1.6-.1 1.2-.4 1.7-.4.5-1 .6-1.5 1-.4.4-.5 1-.9 1.4-.5.5-1.2.7-1.8.5.3-1.3-.7-2.6-2-2.5-.6 0-.6.3-.9-.4-.3-.8-.6-2.1.1-2.6.3-.3.7-.3 1-.5.3-.2.5-.5.6-.9.5-1 1.3-1 2.3-.8.2 0 1 .2 1.2.4v.3c-.1.7-.1 1.3.4 1.9.8.7-.9-1 0 0zm.3 3.6c.1-.1.1-.2.2-.3.8.7.9 2 .2 2.8-.7-.5-1-1.7-.4-2.5 0 0-.3.4 0 0z" fill="#FFF"/><path opacity=".2" fill="#FFF" d="M-15.7-5.2l-5.9 42.7L2.6 13.2c1.1-1.1 1.1-2.8 0-3.9L-11.8-5.2c-1.1-1-2.9-1-3.9 0z"/><linearGradient id="u" gradientUnits="userSpaceOnUse" x1="2891.298" y1="-10650.503" x2="2896.514" y2="-10650.503" gradientTransform="scale(2.087 -2.087) rotate(17.674 -32773.242 -14605.147)"><stop offset="0" stop-color="#AD2A27"/><stop offset="1" stop-color="#E4554F"/></linearGradient><path fill="url(#u)" d="M28 27.6s-.3 5-3 5.9c-2.7.9-5.6-2-6.3-3.8l-.3-.6c-1.2-2.9-1.9-5.9-2.3-8.9-.5-4.4-1.4-11.1-1.6-11.6-.3-.8-.1-4.6 2.7-5.5 2-.7 3.9 1.4 4.8 2.7.4.5.6 1.1.8 1.8.6 2.6 2.3 10.2 3.3 12.5 1.3 2.6 2.1 6 1.9 7.5z"/><path opacity=".15" d="M18.6 29.8c.9 1.8 3.6 4.4 6.2 3.5 2.2-.7 2.9-4 3.1-5.4-3.2 1.3-6.9 1.8-9.3 1.9z"/><linearGradient id="v" gradientUnits="userSpaceOnUse" x1="2891.385" y1="-10656.756" x2="2895.836" y2="-10656.756" gradientTransform="scale(2.087 -2.087) rotate(17.674 -32773.242 -14605.147)"><stop offset="0" stop-color="#AFAFAF"/><stop offset=".081" stop-color="#BCBCBC"/><stop offset=".247" stop-color="#D1D1D1"/><stop offset=".433" stop-color="#E0E0E0"/><stop offset=".654" stop-color="#E8E8E8"/><stop offset="1" stop-color="#EBEBEB"/></linearGradient><path fill="url(#v)" d="M18.8 30c.9 1.8 3.6 4.4 6.2 3.5 2.2-.7 2.8-4 3-5.3-3.4 1.3-6.9 1.7-9.2 1.8z"/><path fill="#D9BB9F" d="M22.8 26.3s3.8-.5 3-4.4c-.8-3.9-3.3-10.8-3.7-11.7-.4-.9-2.6-6-4.2-5.9-1.5 0-1.5 1.7-1.5 1.7s-.4.9-.3 4.4c.1 3.5.9 9.7.9 9.7s.2 2.3 1.5 4.7c1.2 2.3 4.3 1.5 4.3 1.5z"/><path fill="#FFC07B" d="M17.4 4c-.2.1-.4.1-.5.3.2.2.3 0 .5-.1.1-.1.5 0 .5-.3-.2 0-.3.1-.5.1-.2.1.2 0 0 0zm1 0c-.1.2.4.4.5.3-.2-.1-.3-.2-.5-.3zm-1.9.6c-.1.1-.2.3-.3.5.2.2.4-.4.3-.5zM16 5.7c0 .2 0 .3-.1.5.2.1.4-.5.1-.5zm3.3-1.1c-.2.1.2.5.4.4l-.4-.4zm-3.5 2.2c0 .2 0 .4-.1.5.3.1.3-.5.1-.5zM20 5.5c-.3.1.1.6.3.5-.1-.2-.2-.4-.3-.5zm-4.3 2.4v.5c.2.1.2-.5 0-.5zm4.9-1.5c-.3.1.1.6.3.5-.1-.1-.2-.3-.3-.5zm-5 2.5v.5c.3.1.3-.5 0-.5zm5.6-1.5c-.3.1.1.6.3.5-.2-.2-.3-.3-.3-.5zm-5.6 2.7v.5c.3 0 .3-.6 0-.5zm6-1.7c-.3.1 0 .6.3.5-.1-.2-.2-.4-.3-.5zm-5.9 2.7v.5c.3.2.2-.5 0-.5zm6.4-1.7c-.3.1 0 .6.2.5-.1-.2-.1-.4-.2-.5zm-6.4 2.9v.5c.4 0 .3-.6 0-.5zm6.8-1.9c-.2 0 0 .6.2.5 0-.2-.1-.3-.2-.5zm-6.6 2.9v.5c.2.1.1-.5 0-.5zm7-1.9c-.3 0 0 .4.1.6h.1c0-.2-.1-.4-.2-.6zm-7 3.1c0 .1-.1.6.2.5 0-.2.1-.6-.2-.5zm7.4-2.1h-.1c.1.1.1.6.3.5-.1-.1-.1-.3-.2-.5zM16 15.5v.5c.4.1.3-.5 0-.5zm7.7-2c-.3 0 0 .6.2.5-.1-.2-.2-.3-.2-.5zm-7.6 3.1c0 .2 0 .4.1.5.3 0 .1-.4.1-.6-.1.1-.1.1-.2.1zm8-2.1c-.3 0 0 .6.2.5-.1-.1-.2-.3-.2-.5zm-7.8 3.2c0 .2 0 .4.1.5.2.1.1-.5-.1-.5zm8.1-2.1h-.1c0 .1.1.6.3.5-.1-.2-.2-.3-.2-.5zm-8 3.2c0 .2 0 .4.1.5.3 0 .1-.4.1-.6-.1.1-.2.1-.2.1zm8.2-2.1c.1.2.1.4.2.5.3 0 0-.4 0-.6-.1 0-.2.1-.2.1zm-8.1 3.2c0 .2 0 .4.1.5.2.1.2-.5-.1-.5zm8.4-2.2c0 .1 0 .6.3.5 0-.2-.1-.4-.1-.5h-.2zM16.6 21c0 .2.1.4.1.5.3 0 .2-.5-.1-.5zm8.6-2.2c0 .1 0 .6.3.5 0-.2-.1-.4-.1-.5-.1-.1-.1 0-.2 0zm-8.3 3.3c0 .1 0 .6.3.5 0-.2 0-.6-.3-.5zm8.6-2.3c0 .1 0 .6.3.5 0-.2-.1-.4-.1-.5h-.2zm-8.1 3.3h-.1c.1.2.1.4.2.5.2 0-.1-.4-.1-.5zm8.4-2.2c0 .1 0 .6.3.5 0-.2-.1-.4-.1-.5h-.2zm-8 3.2s-.1 0-.1.1c.1.2.1.3.3.5.2-.1-.1-.5-.2-.6zm8.2-2.2c0 .1 0 .6.2.5 0-.2 0-.4-.1-.5H26zM18.3 25s-.1 0-.1.1c.1.1.2.3.3.4.2-.1-.1-.3-.2-.5zm7.8-2c0 .2-.2.6.1.5V23h-.1zM19 25.8l-.1.1c.1.1.3.2.5.3.2-.1-.2-.3-.4-.4zm6.9-1.7c0 .1-.4.5-.1.5.1-.2.2-.3.2-.5h-.1zM20 26.3v.1c.2.1.4.1.5.1.1-.1-.4-.1-.5-.2zm5.4-1.3c-.1.1-.5.4-.3.5l.4-.4s0-.1-.1-.1zM21 26.6v.1h.5c.1-.2-.3-.1-.5-.1zm3.7-.8c-.1.1-.6.2-.4.4.2-.1.3-.2.5-.3l-.1-.1zm-2.6.8v.1c.2 0 .4 0 .5-.1 0-.2-.3 0-.5 0zm1.1-.2v.1c.2 0 .4-.1.5-.2 0-.1-.3.1-.5.1z"/><path opacity=".15" d="M18 23.7c1.3 2.3 4.4 1.5 4.4 1.5s3.8-.5 3-4.4c-.3-1.3-.7-3-1.3-4.7.7 2 1.3 4.1 1.6 5.7.8 3.9-3 4.4-3 4.4s-3.1.8-4.4-1.5c-.5-1-.9-2-1.1-2.8.2.6.5 1.2.8 1.8z"/><linearGradient id="w" gradientUnits="userSpaceOnUse" x1="2895.217" y1="-10649.219" x2="2895.928" y2="-10649.219" gradientTransform="scale(2.087 -2.087) rotate(17.674 -32773.242 -14605.147)"><stop offset="0" stop-color="#B68B68"/><stop offset="1" stop-color="#CFA285"/></linearGradient><path fill="url(#w)" d="M25.5 20.6s-1.8-1.4-2.2-2.6c-.4-1.2-1-3-1-4.4 0-1.4-.9-4.7-.9-4.7s1.5 3.3 2.2 5.5c.7 1.7 1.9 6.2 1.9 6.2z"/><radialGradient id="x" cx="2894.791" cy="-10654.968" r="1.325" gradientTransform="scale(2.087 -2.087) rotate(17.674 -32773.242 -14605.147)" gradientUnits="userSpaceOnUse"><stop offset="0" stop-color="#FFF"/><stop offset="1" stop-color="#FFF" stop-opacity="0"/></radialGradient><path opacity=".2" fill="url(#x)" d="M25.2 29.6c1.5 0 2.8-1.2 2.8-2.8 0-1.5-1.2-2.8-2.8-2.8-1.5 0-2.8 1.2-2.8 2.8 0 1.5 1.3 2.8 2.8 2.8z"/><path opacity=".15" fill="#FFF" d="M25 32.8c1.9-1.6 2.3-4.3 2.5-6.5 0-.3-.3-.6-.6-.5l-1.8.4c-.3.1-.5.4-.4.7.7 1.8 1.3 4.1.3 5.9zM20 4.4l1.7 1.5 1.7 5.3c.1 0-2.5-6-3.4-6.8z"/><linearGradient id="y" gradientUnits="userSpaceOnUse" x1="14196.861" y1="-10650.622" x2="14202.077" y2="-10650.622" gradientTransform="rotate(162.327 13104.104 -13407.574) scale(2.087)"><stop offset="0" stop-color="#AD2A27"/><stop offset="1" stop-color="#E4554F"/></linearGradient><path fill="url(#y)" d="M31.2 26.6s3.1 3.9 5.9 3.1c2.7-.9 3.4-4.9 3-6.8 0-.2-.1-.4-.1-.6-.7-3-1.8-5.9-3.3-8.6-2.1-3.9-5.3-9.9-5.5-10.4-.3-.8-2.5-3.8-5.4-3-2 .6-2.3 3.4-2.3 4.9 0 .6.1 1.3.4 1.9 1 2.4 4 9.7 4.5 12.1.4 3 1.7 6.3 2.8 7.4z"/><path opacity=".15" d="M40 22.9c.3 2-.4 5.6-3 6.5-2.2.7-4.7-1.6-5.6-2.6 3.4-.8 6.6-2.6 8.6-3.9z"/><linearGradient id="z" gradientUnits="userSpaceOnUse" x1="14196.945" y1="-10656.872" x2="14201.394" y2="-10656.872" gradientTransform="rotate(162.327 13104.104 -13407.574) scale(2.087)"><stop offset="0" stop-color="#AFAFAF"/><stop offset=".081" stop-color="#BCBCBC"/><stop offset=".247" stop-color="#D1D1D1"/><stop offset=".433" stop-color="#E0E0E0"/><stop offset=".654" stop-color="#E8E8E8"/><stop offset="1" stop-color="#EBEBEB"/></linearGradient><path fill="url(#z)" d="M40.1 23.2c.3 1.9-.4 5.6-3 6.5-2.2.7-4.6-1.7-5.5-2.6 3.4-.9 6.5-2.6 8.5-3.9z"/><path fill="#D9BB9F" d="M34.6 22.5s-3.4 1.8-5-1.8-3.5-10.8-3.7-11.8c-.2-1-1.4-6.4 0-7.2 1.3-.8 2.3.5 2.3.5s.8.5 2.8 3.4c2 2.9 4.9 8.4 4.9 8.4s1.2 2 1.5 4.7c.2 2.7-2.8 3.8-2.8 3.8z"/><path fill="#FFC07B" d="M26.1 1.2c-.1 0-.3.1-.4.2.1.3.4 0 .5-.1.3-.1.4 0 .5-.2-.2 0-.4.1-.6.1-.1.1.2 0 0 0zm-1 1.1c.2.1.5-.4.3-.5-.2.2-.3.3-.3.5zm2.7-.8c-.1-.1-.3-.2-.5-.3-.1.2.4.5.5.3zm.8.7c-.1-.1-.3-.2-.4-.4-.2.2.3.6.4.4zm-3.7 1.2c.2 0 .3-.6.1-.5-.1.1-.1.3-.1.5zm4.5-.5l-.4-.4c-.1.2.2.7.4.4zm-4.5 1.6c.2 0 .3-.6 0-.5-.1.2-.1.3 0 .5zm5.2-.7c-.1-.1-.2-.3-.3-.4-.2.1.1.6.3.4zM25 5.6c.2 0 .2-.6 0-.5-.1.2 0 .3 0 .5zm5.7-.9c-.1-.1-.2-.3-.3-.4-.2 0 .2.6.3.4zm-5.6 2c.2 0 .2-.6-.1-.5.1.1.1.3.1.5zm6.2-1.1c-.1-.1-.2-.3-.3-.5-.2.2.2.7.3.5zm-6 2.2c.2 0 .1-.7-.1-.5 0 .1 0 .3.1.5zM32 6.5c-.1-.1-.2-.3-.3-.5-.2.2 0 .7.3.5zm-6.5 2.4c.2 0 .1-.6-.1-.5 0 .1.1.3.1.5zm7-1.4c-.1-.1-.2-.3-.3-.5-.2.1.1.7.3.5zm-6.7 2.4c.2 0 .1-.6-.1-.5 0 .2 0 .4.1.5zm7.3-1.5c-.1-.1-.2-.3-.3-.4-.2 0 .1.6.3.4zM26 11h.1c0-.1 0-.6-.3-.5.1.2.2.3.2.5zm7.5-1.6c.3-.1-.1-.4-.1-.5-.3.1 0 .4.1.5zm-7.2 2.7c.3 0 0-.4 0-.6h-.1c0 .2.1.4.1.6zm7.9-1.8c-.1-.1-.2-.3-.3-.5-.2.1.1.7.3.5zm-7.5 2.8c.2 0 .1-.7-.1-.5-.1.2 0 .3.1.5zm7.6-2.3c.1.1.2.6.4.4-.1-.1-.2-.3-.3-.5 0 .1 0 .1-.1.1zm-7.4 3.4c.2 0 .1-.7-.1-.5 0 .1.1.3.1.5zm8.3-2c-.1-.1-.2-.3-.3-.5-.1.2.2.7.3.5zm-7.9 3c.3 0 0-.4 0-.6h-.1c0 .3 0 .4.1.6zm8.1-2.4c.1.2.2.5.4.4-.1-.1-.2-.3-.3-.5l-.1.1zm-8 3c0 .1.1.6.3.5-.1-.2-.1-.4-.2-.5 0-.1 0-.1-.1 0zm8.9-1.6c-.1-.2-.2-.3-.3-.5-.1.1.2.6.3.5zm-8.5 2.6c.1.2.1.4.2.5.3 0 0-.4 0-.6-.1.1-.2.1-.2.1zm9-1.6c-.1-.2-.1-.3-.2-.5-.2 0-.1.6.2.5zm-8.7 2.6c.1.2.1.4.2.5.3 0 0-.4 0-.6-.1.1-.1.1-.2.1zm8.9-1.5c.3 0 0-.4 0-.6-.3 0 0 .4 0 .6zm-8.5 2.6c.1.2.1.4.2.5.3 0 0-.4-.1-.6 0 0 0 .1-.1.1zm9-1.6c0-.2-.1-.4-.1-.5h-.1c-.1.1-.1.6.2.5zm-8.6 2.6c.1.2.1.3.2.5.3 0 0-.4-.1-.6 0 .1 0 .1-.1.1zm8.7-1.5c0-.2 0-.4-.1-.5h-.1c.1.1 0 .6.2.5zm-8.3 2.5c.1.2.2.3.3.5.3-.1-.1-.4-.1-.5h-.2zm8.4-1.4V19h-.1c0 .1-.2.5.1.5zm-7.8 2.4c.1.1.2.3.4.4.2-.1-.1-.4-.3-.5 0 0-.1 0-.1.1zm7.4-1.4c.1-.2.1-.3.2-.5h-.1c0 .1-.3.5-.1.5zm-6.6 2.2c.1.1.3.2.5.3.2-.2-.3-.3-.4-.4-.1 0-.1 0-.1.1zm6-1.2l.4-.4s-.1 0-.1-.1c-.1.1-.5.3-.3.5zm-5 1.7c.2 0 .4.1.5.1.1-.3-.4-.2-.5-.3v.2zm4.2-1c.1-.1.3-.2.4-.4l-.1-.1c-.1.2-.5.3-.3.5zm-3.1 1.1h.5c0-.3-.4-.1-.5-.1v.1zm2.1-.5c.2-.1.3-.2.5-.3 0 0 0-.1-.1-.1-.1.1-.5.1-.4.4zm-1 .3c.2 0 .4-.1.5-.2v-.1c-.2.1-.6.1-.5.3z"/><path opacity=".15" d="M37 17.7c.3 2.7-2.7 3.8-2.7 3.8s-3.4 1.8-5-1.8c-.5-1.2-1.1-2.9-1.7-4.5.6 2 1.3 4.1 2 5.6 1.6 3.6 5 1.8 5 1.8s3-1.2 2.7-3.8c-.1-1.1-.4-2.1-.7-2.9.2.5.3 1.1.4 1.8z"/><linearGradient id="A" gradientUnits="userSpaceOnUse" x1="14200.779" y1="-10649.347" x2="14201.491" y2="-10649.347" gradientTransform="rotate(162.327 13104.104 -13407.574) scale(2.087)"><stop offset="0" stop-color="#B68B68"/><stop offset="1" stop-color="#CFA285"/></linearGradient><path fill="url(#A)" d="M29.1 19.4s.7-2.2.3-3.4c-.4-1.2-.9-3-1.7-4.1-.8-1.1-2.1-4.4-2.1-4.4s.6 3.5 1.3 5.7c.6 1.9 2.2 6.2 2.2 6.2z"/><radialGradient id="B" cx="14200.356" cy="-10655.091" r="1.323" gradientTransform="rotate(162.327 13104.104 -13407.574) scale(2.087)" gradientUnits="userSpaceOnUse"><stop offset="0" stop-color="#FFF"/><stop offset="1" stop-color="#FFF" stop-opacity="0"/></radialGradient><path opacity=".2" fill="url(#B)" d="M32.9 27.1c1.5 0 2.8-1.2 2.8-2.8 0-1.5-1.2-2.8-2.8-2.8-1.5 0-2.8 1.2-2.8 2.8.1 1.6 1.3 2.8 2.8 2.8z"/><path opacity=".15" fill="#FFF" d="M36.6 29.2c-2.4-.2-4.4-2.2-5.8-3.9-.2-.3-.1-.6.2-.8l1.7-.7c.3-.1.7 0 .7.3.5 1.9 1.3 4.1 3.2 5.1zM24.2 3.1l-.5 2.2 1.7 5.3s-1.5-6.4-1.2-7.5z"/><g><path fill="#262626" stroke="#9B9B9B" stroke-width=".087" stroke-miterlimit="10" d="M.7 25c8.1 0 14.7-6.6 14.7-14.7S8.8-4.4.7-4.4-14 2.2-14 10.3-7.4 25 .7 25z"/><path fill="#3A3A3A" stroke="#5B5B5B" stroke-width=".087" stroke-miterlimit="10" d="M7.4 22.9c6.9-3.7 9.6-12.3 5.9-19.2C9.6-3.3.9-5.9-6-2.3c-6.9 3.7-9.5 12.3-5.8 19.2 3.6 7 12.3 9.7 19.2 6z"/><radialGradient id="C" cx="14704.92" cy="-5379.416" r="6.805" gradientTransform="matrix(-1.8422 .9807 .9807 1.8422 32365.697 -4500.856)" gradientUnits="userSpaceOnUse"><stop offset="0" stop-color="#FFF"/><stop offset="1"/></radialGradient><path opacity=".25" fill="url(#C)" d="M7.4 22.9c6.9-3.7 9.6-12.3 5.9-19.2C9.6-3.3.9-5.9-6-2.3c-6.9 3.7-9.5 12.3-5.8 19.2 3.6 7 12.3 9.7 19.2 6z"/><path fill="#545454" stroke="#636363" stroke-width=".087" stroke-miterlimit="10" d="M5.7 19.7c5.2-2.7 7.1-9.2 4.4-14.3C7.3.2.9-1.8-4.3 1c-5.1 2.7-7.1 9.1-4.4 14.3 2.8 5.1 9.2 7.1 14.4 4.4z"/><linearGradient id="D" gradientUnits="userSpaceOnUse" x1="14704.929" y1="-5378.485" x2="14704.929" y2="-5380.328" gradientTransform="matrix(-1.8422 .9807 .9807 1.8422 32365.697 -4500.856)"><stop offset="0" stop-color="#AD2A27"/><stop offset="1" stop-color="#E4554F"/></linearGradient><path fill="url(#D)" d="M1.6 12c.9-.5 1.3-1.7.8-2.6-.5-.9-1.7-1.3-2.6-.8-.9.5-1.3 1.7-.8 2.6.5.9 1.7 1.3 2.6.8z"/><path fill="#A0A0A0" d="M9.2 22.3l-3.3 1.8.7 1.3 3.4-1.8z"/><path opacity=".15" d="M7.5 23.2l-1.6.9.7 1.4 1.7-.9z"/><linearGradient id="E" gradientUnits="userSpaceOnUse" x1="14704.92" y1="-5364.322" x2="14704.92" y2="-5371.679" gradientTransform="matrix(-1.8422 .9807 .9807 1.8422 32365.697 -4500.856)"><stop offset="0" stop-color="#AD2A27"/><stop offset="1" stop-color="#E4554F"/></linearGradient><path fill="url(#E)" d="M9.6 23.8l6.8 12.8c.2.4 0 1-.5 1.3l-.9.4c-.5.3-1.1.1-1.3-.3L6.9 25.3l2.7-1.5zm5.5 13.6c.3-.1.3-.7 0-1.1-.3-.5-.7-.8-1-.6-.3.1-.3.6 0 1.1.3.4.7.7 1 .6z"/><path fill="none" d="M15.1 36.2c.3.5.2 1 0 1.1l-.9-1.7c.2-.1.7.2.9.6zm-1 .6c-.3-.5-.2-1 0-1.1l.9 1.7c-.2.1-.6-.2-.9-.6z"/><path opacity=".15" d="M8.3 24.5l5.9 11.1c-.3.1-.3.6 0 1.1.3.5.7.8 1 .6l.4.7-.5.3c-.5.3-1.1.1-1.3-.3L7 25.3l1.3-.8zM-6.2-2.7l13.8 26c-7.2 3.8-16.1 1.1-19.9-6.1-3.8-7.1-1.1-16.1 6.1-19.9z"/></g></g><g><linearGradient id="F" gradientUnits="userSpaceOnUse" x1="4109.972" y1="-12196.065" x2="4109.972" y2="-12221.026" gradientTransform="matrix(2.087 0 0 -2.087 -8577.512 -25491.617)"><stop offset="0" stop-color="#E7C39B"/><stop offset="1" stop-color="#F6EADB"/></linearGradient><path fill="url(#F)" d="M39.8-37.5c-26.5-1.2-53.1-1.2-79.6 0-.5 0-.8.4-.8.9v50.3h81.3v-50.3c-.1-.5-.4-.9-.9-.9z"/><linearGradient id="G" gradientUnits="userSpaceOnUse" x1="4109.972" y1="-12196.065" x2="4109.972" y2="-12221.026" gradientTransform="matrix(2.087 0 0 -2.087 -8577.512 -25491.617)"><stop offset="0" stop-color="#E7C39B"/><stop offset="1" stop-color="#F6EADB"/></linearGradient><path fill="url(#G)" d="M39.8-37.5c-26.5-1.2-53.1-1.2-79.6 0-.5 0-.8.4-.8.9v50.3h81.3v-50.3c-.1-.5-.4-.9-.9-.9z"/><linearGradient id="H" gradientUnits="userSpaceOnUse" x1="4090.504" y1="-12197.065" x2="4129.423" y2="-12197.065" gradientTransform="matrix(2.087 0 0 -2.087 -8577.512 -25491.617)"><stop offset="0" stop-color="#E7C39B" stop-opacity="0"/><stop offset=".5" stop-color="#FFF"/><stop offset="1" stop-color="#E9C9A4" stop-opacity="0"/></linearGradient><path fill="url(#H)" d="M39.8-36.1c-26.5-1.2-53.1-1.2-79.6 0-.5 0-.8.4-.8.8v-.3c0-.4.4-.8.8-.9 26.5-1.2 53.1-1.2 79.6 0 .4 0 .8.4.8.9v.3c0-.4-.3-.8-.8-.8z"/><linearGradient id="I" gradientUnits="userSpaceOnUse" x1="4090.504" y1="-12196.753" x2="4129.423" y2="-12196.753" gradientTransform="matrix(2.087 0 0 -2.087 -8577.512 -25491.617)"><stop offset="0" stop-color="#DAAF7F"/><stop offset=".3" stop-color="#DDB68A" stop-opacity=".3"/><stop offset=".642" stop-color="#E9CFB2" stop-opacity=".7"/><stop offset="1" stop-color="#DBB081"/></linearGradient><path fill="url(#I)" d="M39.8-36.4c-26.5-1.2-53.1-1.2-79.6 0-.5 0-.8.4-.8.9v-1.1c0-.4.4-.8.8-.9 26.5-1.2 53.1-1.2 79.6 0 .4 0 .8.4.8.9v1.1c0-.5-.3-.9-.8-.9z"/><path fill="#DAAF7F" d="M39.8-37.2c-26.5-1.2-53.1-1.2-79.6 0-.5 0-.8.4-.8.8v-.3c0-.4.4-.8.8-.9 26.5-1.2 53.1-1.2 79.6 0 .4 0 .8.4.8.9v.3c0-.4-.3-.8-.8-.8z"/><linearGradient id="J" gradientUnits="userSpaceOnUse" x1="4100.394" y1="-12221.026" x2="4100.394" y2="-12196.072" gradientTransform="matrix(2.087 0 0 -2.087 -8577.512 -25491.617)"><stop offset="0" stop-color="#FFF"/><stop offset="1" stop-color="#E7C39B" stop-opacity="0"/></linearGradient><path fill="url(#J)" d="M-38.5-37.5c-.4 0-.8.4-.8.9v50.3h-1.4v-50.3c0-.4.4-.8.8-.9 13.5-.6 27-.9 40.5-.9-13 0-26 .3-39.1.9z"/><linearGradient id="K" gradientUnits="userSpaceOnUse" x1="4100.437" y1="-12221.026" x2="4100.437" y2="-12196.072" gradientTransform="matrix(2.087 0 0 -2.087 -8577.512 -25491.617)"><stop offset="0" stop-color="#FFF"/><stop offset="1" stop-color="#E7C39B" stop-opacity="0"/></linearGradient><path fill="url(#K)" d="M-39-37.5c-.4 0-.8.4-.8.9v50.3h-.5v-50.3c0-.4.4-.8.8-.9 13.4-.6 26.7-.9 40.1-.9-13.2 0-26.4.3-39.6.9z"/><linearGradient id="L" gradientUnits="userSpaceOnUse" x1="4090.504" y1="-12208.549" x2="4110.023" y2="-12208.549" gradientTransform="matrix(2.087 0 0 -2.087 -8577.512 -25491.617)"><stop offset="0" stop-color="#E7C39B"/><stop offset="1" stop-color="#E9C9A5" stop-opacity="0"/></linearGradient><path opacity=".5" fill="url(#L)" d="M-39.5-37.5c-.4 0-.8.4-.8.9v50.3h-.3v-50.3c0-.4.4-.8.8-.9 13.3-.6 26.6-.9 39.9-.9-13.2 0-26.4.3-39.6.9z"/><linearGradient id="M" gradientUnits="userSpaceOnUse" x1="16209.726" y1="-12221.026" x2="16209.726" y2="-12196.072" gradientTransform="rotate(180 16924.844 -12745.809) scale(2.087)"><stop offset="0" stop-color="#FFF"/><stop offset="1" stop-color="#E7C39B" stop-opacity="0"/></linearGradient><path fill="url(#M)" d="M38.5-37.5c.4 0 .8.4.8.9v50.3h1.4v-50.3c0-.4-.4-.8-.8-.9-13.5-.6-27-.9-40.5-.9 13 0 26 .3 39.1.9z"/><linearGradient id="N" gradientUnits="userSpaceOnUse" x1="16209.77" y1="-12221.026" x2="16209.77" y2="-12196.072" gradientTransform="rotate(180 16924.844 -12745.809) scale(2.087)"><stop offset="0" stop-color="#FFF"/><stop offset="1" stop-color="#E7C39B" stop-opacity="0"/></linearGradient><path fill="url(#N)" d="M39-37.5c.4 0 .8.4.8.9v50.3h.5v-50.3c0-.4-.4-.8-.8-.9-13.4-.6-26.7-.9-40.1-.9 13.2 0 26.4.3 39.6.9z"/><linearGradient id="O" gradientUnits="userSpaceOnUse" x1="16199.836" y1="-12208.549" x2="16219.355" y2="-12208.549" gradientTransform="rotate(180 16924.844 -12745.809) scale(2.087)"><stop offset="0" stop-color="#E7C39B"/><stop offset="1" stop-color="#E9C9A5" stop-opacity="0"/></linearGradient><path opacity=".5" fill="url(#O)" d="M39.5-37.5c.4 0 .8.4.8.9v50.3h.3v-50.3c0-.4-.4-.8-.8-.9-13.3-.6-26.6-.9-39.9-.9 13.2 0 26.4.3 39.6.9z"/><linearGradient id="P" gradientUnits="userSpaceOnUse" x1="4090.504" y1="-12220.957" x2="4129.44" y2="-12220.957" gradientTransform="matrix(2.087 0 0 -2.087 -8577.512 -25491.617)"><stop offset="0" stop-color="#E7C39B" stop-opacity="0"/><stop offset=".5" stop-color="#EED5B9"/><stop offset="1" stop-color="#EED5B9" stop-opacity="0"/></linearGradient><path fill="url(#P)" d="M-40.6 13.7v-.3h81.3v.3h-81.3z"/><linearGradient id="Q" gradientUnits="userSpaceOnUse" x1="4090.504" y1="-12220.837" x2="4129.44" y2="-12220.837" gradientTransform="matrix(2.087 0 0 -2.087 -8577.512 -25491.617)"><stop offset="0" stop-color="#FFF"/><stop offset=".25" stop-color="#E7C39B" stop-opacity="0"/><stop offset=".5" stop-color="#F6E7D8"/><stop offset=".75" stop-color="#F6E8D9" stop-opacity="0"/><stop offset="1" stop-color="#FFF"/></linearGradient><path fill="url(#Q)" d="M-40.6 13.4v-.3h81.3v.3h-81.3z"/><linearGradient id="R" gradientUnits="userSpaceOnUse" x1="4109.972" y1="-12208.55" x2="4129.44" y2="-12208.55" gradientTransform="matrix(2.087 0 0 -2.087 -8577.512 -25491.617)"><stop offset=".004" stop-color="#E7C39B"/><stop offset="1" stop-color="#E9C9A4" stop-opacity="0"/></linearGradient><path opacity=".15" fill="url(#R)" d="M0-38.4c13.3 0 26.5.3 39.8.9.4 0 .8.4.8.9v50.3H0v-52.1z"/><linearGradient id="S" gradientUnits="userSpaceOnUse" x1="4109.963" y1="-12203.739" x2="4109.963" y2="-12196.076" gradientTransform="matrix(2.087 0 0 -2.087 -8577.512 -25491.617)"><stop offset="0" stop-color="#DAAF7F"/><stop offset="1" stop-color="#F6EADB" stop-opacity="0"/></linearGradient><path opacity=".25" fill="url(#S)" d="M-40.6-22.4v-14.2c0-.4.4-.8.8-.9 26.5-1.2 53.1-1.2 79.6 0 .4 0 .8.4.8.9v14.2h-81.2z"/><linearGradient id="T" gradientUnits="userSpaceOnUse" x1="4090.504" y1="-12196.545" x2="4129.423" y2="-12196.545" gradientTransform="matrix(2.087 0 0 -2.087 -8577.512 -25491.617)"><stop offset="0" stop-color="#E7C39B"/><stop offset=".5" stop-color="#F6EADB"/><stop offset="1" stop-color="#EACAA7"/></linearGradient><path opacity=".35" fill="url(#T)" d="M39.8-37.2c-26.5-1.2-53.1-1.2-79.6 0-.5 0-.8.4-.8.8v-.3c0-.4.4-.8.8-.9 26.5-1.2 53.1-1.2 79.6 0 .4 0 .8.4.8.9v.3c0-.4-.3-.8-.8-.8z"/><g fill="#FFF"><path d="M-15.1 5.5c1.1 0 2-.9 2-2s-.9-2-2-2-2 .9-2 2 .9 2 2 2z"/><path d="M-15.1 4c.3 0 .6-.3.6-.6s-.3-.6-.6-.6-.6.3-.6.6c0 .4.3.6.6.6z"/></g><radialGradient id="U" cx="4102.746" cy="-12216.308" r=".973" gradientTransform="matrix(2.087 0 0 -2.087 -8577.512 -25491.617)" gradientUnits="userSpaceOnUse"><stop offset="0" stop-color="#F6EADB"/><stop offset="1" stop-color="#E7C39B"/></radialGradient><path fill="url(#U)" d="M-15.1 5.8c1.1 0 2-.9 2-2s-.9-2-2-2-2 .9-2 2 .9 2 2 2z"/><path fill="#DAAF7F" d="M-15.1 4.4c.3 0 .6-.3.6-.6s-.3-.6-.6-.6-.6.3-.6.6.3.6.6.6z"/><path fill="#D9AF7F" d="M-15.1 5.6c1.1 0 2-.8 2-1.9v.1c0 1.1-.9 2-2 2s-2-.9-2-2v-.1c.1 1 1 1.9 2 1.9z"/><g><g fill="#FFF"><path d="M15.1 5.5c1.1 0 2-.9 2-2s-.9-2-2-2-2 .9-2 2 .9 2 2 2z"/><path d="M15.1 4c.3 0 .6-.3.6-.6s-.3-.6-.6-.6-.6.3-.6.6c0 .4.3.6.6.6z"/></g><radialGradient id="V" cx="4117.197" cy="-12216.308" r=".973" gradientTransform="matrix(2.087 0 0 -2.087 -8577.512 -25491.617)" gradientUnits="userSpaceOnUse"><stop offset="0" stop-color="#F6EADB"/><stop offset="1" stop-color="#E7C39B"/></radialGradient><path fill="url(#V)" d="M15.1 5.8c1.1 0 2-.9 2-2s-.9-2-2-2-2 .9-2 2 .9 2 2 2z"/><path fill="#DAAF7F" d="M15.1 4.4c.3 0 .6-.3.6-.6s-.3-.6-.6-.6-.6.3-.6.6.3.6.6.6z"/><path fill="#D9AF7F" d="M15.1 5.6c1.1 0 2-.8 2-1.9v.1c0 1.1-.9 2-2 2s-2-.9-2-2v-.1c0 1 .9 1.9 2 1.9z"/></g><linearGradient id="W" gradientUnits="userSpaceOnUse" x1="4109.98" y1="-2776.783" x2="4109.98" y2="-2779.309" gradientTransform="translate(-8577.512 5799.5) scale(2.087)"><stop offset="0" stop-color="#603913"/><stop offset="1" stop-color="#6F4A27" stop-opacity="0"/></linearGradient><path opacity=".3" fill="url(#W)" d="M13-.7c.7 1.5 1.3 3.1 1.6 4.8 0 .1.2.2.5.3h.1c.3 0 .5-.1.5-.3-.3-1.6-.8-3.3-1.5-4.8 0 0 0-.1-.1-.1h-1.2c0-.1 0 .1.1.1zm-25.9-.2c0 .1-.1.1-.1.3-.7 1.5-1.3 3.1-1.6 4.8 0 .1-.3.3-.6.3s-.5-.1-.5-.3c.3-1.6.8-3.3 1.5-4.8 0 0 0-.1.1-.1.4-.2.8-.2 1.2-.2z"/><g fill="none" stroke-miterlimit="10"><path stroke="#D27E8E" stroke-width=".692" stroke-linecap="round" d="M-15.1 4.1c2.1-3.4 3-6.5 5.5-9.8 1.8-2.4 2.9-7.2 9.8-7.2 6 0 7.4 3.6 8.8 5.9 2.5 3.8 3.7 7.3 6.1 11.1"/><path stroke="#F6F6F6" stroke-width=".346" stroke-linecap="round" d="M-15.1 4.1c2.1-3.4 3-6.5 5.5-9.8 1.8-2.4 2.9-7.2 9.8-7.2 6 0 7.4 3.6 8.8 5.9 2.5 3.8 3.7 7.3 6.1 11.1"/><g stroke="#E7BAC3" stroke-width=".346"><path d="M-15.1 4.1c.1-.1.1-.2.2-.3"/><path stroke-dasharray="0.3498,0.3498" d="M-14.5 3.2c1.7-3 2.6-5.9 4.9-8.8C-7.8-8-6.7-12.8.2-12.8c6 0 7.4 3.6 8.8 5.9 2.3 3.6 3.5 6.9 5.7 10.5"/><path d="M14.9 3.8c.1.1.1.2.2.3"/></g></g></g></symbol><path fill="#FFF" d="M818.4 373.9c-5.5 0-11.1-.1-16.6-.2-7.8-.1-15.6-.4-23.3-.8-2.3-.2-3.3-2-3-5.5v-47c0-1.8.4-2.9 2.5-3.5-1.2-1.1-2.4-2.8-2-5.1.3-1.6 1.3-2.6 2-3.2l11-11c.2-.2.5-.5.7-.8 1.4-1.6 3.4-3.7 6-3.7.4 0 .9.1 1.3.2.5 0 1.1.2 1.5.6l13.5 13.5c1-.5 2-.8 3.1-1.1 1.3-.3 2.7-.5 4.1-.5 1.4 0 2.7.2 4 .5.2-.3.5-.5.8-.7l5.9-11 .1-.1c.2-.3.4-.9.9-1.3.6-.5 1.3-.8 2.1-.8 1 0 1.8.5 2.3.7l.2.1c1.1.6 1.6 1.5 1.8 2.1.4 1.5-.3 2.7-.7 3.5-.1.1-.1.2-.2.3l-5.5 10.4c0 .2 0 .4-.1.7 0 0 0 .1-.1.2l.1.1h1.9v-.2c.3-1.4.6-2.7 1-4 .6-2.1 1.3-4.3 3-6.1 1.7-1.9 3.8-2.9 5.8-2.9h.7c1.4.1 3.8.9 5.1 4.8.2.7.4 1.4.5 2.1 1.3-1.4 2.9-2.4 4.5-2.9.5-.2 1.1-.2 1.6-.2 3.8 0 6.2 4 6.2 7.9 0 1.6-.4 3.1-.8 4.4l-.1.4c-.3 1.1-.8 2.2-1.2 3.3l.3.1c2.3.4 2.4 2.3 2.4 2.7v50c0 .6-.2 2.5-2.7 3.2-.7.2-1.6.3-2.7.3h-1.8c-1.9.1-3.8.1-5.7.2-10.2.1-20.4.3-30.4.3z"/><use xlink:href="#X" width="81.3" height="76.9" x="-40.6" y="-38.5" transform="matrix(1 0 0 -1 818.441 333.064)" overflow="visible"/><path fill="#FFF" d="M2201.7 1315.6c-1.6 1.5-3.3 2.9-5 4.3-2.3 2-4.8 4-7.2 6-.8.6-1.7.4-2.9-.4-.1 0-.1-.1-.1-.1l-17-10c-.6-.4-.9-.7-.5-1.4-.8.1-1.8 0-2.5-.5-.5-.4-.6-.9-.6-1.2l-.8-5.3c0-.1 0-.2-.1-.4-.2-.7-.4-1.7.4-2.4.1-.1.3-.2.4-.3.2-.1.4-.2.7-.3l8.9-.7c.1-.4.3-.7.5-1.1.3-.4.6-.8 1-1.2.4-.4.9-.7 1.4-1v-.3l-2.3-3.9c-.1-.1-.2-.3-.2-.5 0-.3.1-.5.3-.7.3-.3.7-.4.9-.4h.1c.6-.2 1-.1 1.3 0 .7.2.9.7 1.1.9 0 0 0 .1.1.1l2.2 3.7c.1 0 .2.1.2.2l.1.1h.1l.6-.5-.1-.1c-.4-.4-.8-.7-1.2-1.1-.6-.6-1.2-1.3-1.4-2.1-.2-.9 0-1.6.6-2.2l.2-.2c.4-.3 1.5-.8 3.3-.3l.9.3c-.1-.6 0-1.3.3-1.8.1-.2.2-.3.4-.5 1.1-1 3.3-.8 4.7 0 .6.3 1 .8 1.3 1.2l.1.1c.3.3.6.7.9 1l.1-.1c.8-.5 1.6-.1 1.7-.1l18.3 10.7c.2.1.9.6.4 1.4-.1.2-.4.5-.7.8-.1.1-.3.2-.4.3-.1.1-.1.1-.2.1-.5.5-1.1 1-1.6 1.5-2.8 3.1-5.8 5.8-8.7 8.4z"/><linearGradient id="Y" gradientUnits="userSpaceOnUse" x1="-8709.065" y1="4598.112" x2="-8709.065" y2="4605.76" gradientTransform="scale(.9814 -.9814) rotate(50.988 2974.06 13098.661)"><stop offset="0" stop-color="#D29D62"/><stop offset="1" stop-color="#E7C39B"/></linearGradient><path fill="url(#Y)" d="M2168.5 1312.2l21.6-19.3 2.5 1.4-21.6 19.3"/><linearGradient id="Z" gradientUnits="userSpaceOnUse" x1="-8723.861" y1="4603.331" x2="-8694.694" y2="4603.331" gradientTransform="scale(.9814 -.9814) rotate(50.988 2974.06 13098.661)"><stop offset="0"/><stop offset=".3" stop-color="#D29D62"/><stop offset=".7" stop-color="#D29D62"/><stop offset="1"/></linearGradient><path opacity=".1" fill="url(#Z)" d="M2168.5 1312.2l21.6-19.3.1.1-21.6 19.2"/><linearGradient id="aa" gradientUnits="userSpaceOnUse" x1="-8723.842" y1="4603.208" x2="-8694.675" y2="4603.208" gradientTransform="scale(.9814 -.9814) rotate(50.988 2974.06 13098.661)"><stop offset="0" stop-color="#E7C39B" stop-opacity="0"/><stop offset=".5" stop-color="#FFF"/><stop offset="1" stop-color="#F1DDC6" stop-opacity="0"/></linearGradient><path fill="url(#aa)" d="M2168.6 1312.2l21.6-19.2h.1l-21.6 19.3"/><linearGradient id="ab" gradientUnits="userSpaceOnUse" x1="-8708.837" y1="4603.139" x2="-8723.861" y2="4603.139" gradientTransform="scale(.9814 -.9814) rotate(50.988 2974.06 13098.661)"><stop offset="0" stop-color="#AC8058"/><stop offset="1" stop-color="#9D7550" stop-opacity="0"/></linearGradient><path opacity=".1" fill="url(#ab)" d="M2168.5 1312.2l10.8-9.7 2.5 1.5-10.8 9.6"/><linearGradient id="ac" gradientUnits="userSpaceOnUse" x1="-8696.826" y1="4598.348" x2="-8696.022" y2="4601.351" gradientTransform="scale(.9814 -.9814) rotate(50.988 2974.06 13098.661)"><stop offset="0" stop-color="#E7C39B"/><stop offset="1" stop-color="#F6EADB"/></linearGradient><path fill="url(#ac)" d="M2192.6 1294.3l-3.2 2.9-1.5-.9 2.2-3.4"/><linearGradient id="ad" gradientUnits="userSpaceOnUse" x1="-8694.72" y1="4600.853" x2="-8698.861" y2="4600.853" gradientTransform="scale(.9814 -.9814) rotate(50.988 2974.06 13098.661)"><stop offset="0"/><stop offset="1" stop-opacity="0"/></linearGradient><path opacity=".1" fill="url(#ad)" d="M2187.9 1296.3l2.2-3.4-.6.6"/><path fill="#FFF" d="M2187.9 1296.3l2.4-3.3-.2-.1"/><linearGradient id="ae" gradientUnits="userSpaceOnUse" x1="-8695.756" y1="4597.848" x2="-8695.756" y2="4600.547" gradientTransform="scale(.9814 -.9814) rotate(50.988 2974.06 13098.661)"><stop offset="0" stop-color="#D29D62"/><stop offset="1" stop-color="#E7C39B"/></linearGradient><path fill="url(#ae)" d="M2193.8 1293.3l-4.4 3.9-1.5-.9"/><linearGradient id="af" gradientUnits="userSpaceOnUse" x1="-8694.351" y1="4599.574" x2="-8698.861" y2="4599.574" gradientTransform="scale(.9814 -.9814) rotate(50.988 2974.06 13098.661)"><stop offset="0"/><stop offset="1" stop-opacity="0"/></linearGradient><path opacity=".1" fill="url(#af)" d="M2191.9 1293.9l-4 2.4 4.3-2.2"/><linearGradient id="ag" gradientUnits="userSpaceOnUse" x1="-8698.861" y1="4599.203" x2="-8692.657" y2="4599.203" gradientTransform="scale(.9814 -.9814) rotate(50.988 2974.06 13098.661)"><stop offset="0" stop-color="#FFF"/><stop offset="1" stop-color="#E7C39B" stop-opacity="0"/></linearGradient><path fill="url(#ag)" d="M2193.8 1293.3l-5.9 3 .1.1 5.5-2.9"/><linearGradient id="ah" gradientUnits="userSpaceOnUse" x1="-8698.671" y1="4600.552" x2="-8698.671" y2="4598.803" gradientTransform="scale(.9814 -.9814) rotate(50.988 2974.06 13098.661)"><stop offset="0" stop-color="#FFF"/><stop offset="1" stop-color="#FFF" stop-opacity="0"/></linearGradient><path opacity=".5" fill="url(#ah)" d="M2187.9 1296.3l1.5.9.1-.1-1.5-.8"/><linearGradient id="ai" gradientUnits="userSpaceOnUse" x1="-8692.657" y1="4598.333" x2="-8698.595" y2="4598.333" gradientTransform="scale(.9814 -.9814) rotate(50.988 2974.06 13098.661)"><stop offset="0"/><stop offset="1" stop-opacity="0"/></linearGradient><path opacity=".1" fill="url(#ai)" d="M2189.4 1297.2l4.4-3.9-.8.4"/><g><linearGradient id="aj" gradientUnits="userSpaceOnUse" x1="3816.7" y1="4601.683" x2="3817.918" y2="4606.226" gradientTransform="matrix(-.6178 .7626 -.7626 -.6178 8040.68 1244.76)"><stop offset="0" stop-color="#E7C39B"/><stop offset="1" stop-color="#F6EADB"/></linearGradient><path fill="url(#aj)" d="M2171 1313.6l3.2-2.8-1.5-.9-4.2 2.3"/><linearGradient id="ak" gradientUnits="userSpaceOnUse" x1="3819.637" y1="4604.845" x2="3815.142" y2="4604.845" gradientTransform="matrix(-.6178 .7626 -.7626 -.6178 8040.68 1244.76)"><stop offset="0"/><stop offset="1" stop-opacity="0"/></linearGradient><path opacity=".1" fill="url(#ak)" d="M2172.7 1309.9l-4.2 2.3.6-.6"/><path fill="#FFF" d="M2172.7 1309.9l-4 2.4-.2-.1"/><linearGradient id="al" gradientUnits="userSpaceOnUse" x1="3817.84" y1="4602.174" x2="3817.84" y2="4603.906" gradientTransform="matrix(-.6178 .7626 -.7626 -.6178 8040.68 1244.76)"><stop offset="0" stop-color="#D29D62"/><stop offset="1" stop-color="#E7C39B"/></linearGradient><path fill="url(#al)" d="M2169.8 1314.7l4.4-3.9-1.5-.9"/><linearGradient id="am" gradientUnits="userSpaceOnUse" x1="3819.318" y1="4603.637" x2="3815.141" y2="4603.637" gradientTransform="matrix(-.6178 .7626 -.7626 -.6178 8040.68 1244.76)"><stop offset="0"/><stop offset="1" stop-opacity="0"/></linearGradient><path opacity=".1" fill="url(#am)" d="M2170.3 1313.2l2.4-3.3-2.1 3.5"/><linearGradient id="an" gradientUnits="userSpaceOnUse" x1="3815.122" y1="4603.498" x2="3820.812" y2="4603.498" gradientTransform="matrix(-.6178 .7626 -.7626 -.6178 8040.68 1244.76)"><stop offset="0" stop-color="#FFF"/><stop offset="1" stop-color="#E7C39B" stop-opacity="0"/></linearGradient><path fill="url(#an)" d="M2169.8 1314.7l2.9-4.8.1.1-2.7 4.4"/><linearGradient id="ao" gradientUnits="userSpaceOnUse" x1="3815.056" y1="4603.908" x2="3815.056" y2="4602.175" gradientTransform="matrix(-.6178 .7626 -.7626 -.6178 8040.68 1244.76)"><stop offset="0" stop-color="#FFF"/><stop offset="1" stop-color="#FFF" stop-opacity="0"/></linearGradient><path opacity=".5" fill="url(#ao)" d="M2172.7 1309.9l1.5.9h-.1l-1.5-.8"/><linearGradient id="ap" gradientUnits="userSpaceOnUse" x1="3820.812" y1="4602.712" x2="3814.876" y2="4602.712" gradientTransform="matrix(-.6178 .7626 -.7626 -.6178 8040.68 1244.76)"><stop offset="0"/><stop offset="1" stop-opacity="0"/></linearGradient><path opacity=".1" fill="url(#ap)" d="M2174.2 1310.8l-4.4 3.9.3-.6"/></g><linearGradient id="aq" gradientUnits="userSpaceOnUse" x1="-8708.853" y1="4598.112" x2="-8708.853" y2="4603.826" gradientTransform="scale(.9814 -.9814) rotate(50.988 2974.06 13098.661)"><stop offset="0"/><stop offset="1" stop-opacity="0"/></linearGradient><path opacity=".08" fill="url(#aq)" d="M2189.3 1297.1l-1.3-.7 1.2.9-15 13.3-1.5-.7 1.4.8-3.2 2.9h.1l21.6-19.3h-.1"/><g><path fill="#353535" stroke="#EAEAEA" stroke-width=".081" stroke-miterlimit="10" d="M2184.1 1312.2l-15.8 1.2c-.6 0-1.2-.3-1.3-.8l-1-7.1c-.1-.5.4-.9 1.1-.9l15.8-1.2c.6 0 1.2.3 1.3.8l1 7.1c0 .4-.4.8-1.1.9z"/><linearGradient id="ar" gradientUnits="userSpaceOnUse" x1="-10734.729" y1="111.35" x2="-10734.729" y2="119.463" gradientTransform="matrix(.9761 -.1024 -.1024 -.9761 12665.344 321.868)"><stop offset="0" stop-color="#247ABA"/><stop offset="1" stop-color="#3CF"/></linearGradient><path fill="url(#ar)" d="M2167.9 1312.5l-1-7c0-.1.1-.3.3-.3l15.7-1.2c.2 0 .4.1.4.2l1 7c0 .1-.1.3-.3.3l-15.7 1.2c-.2 0-.4-.1-.4-.2z"/><path d="M2176.7 1308.4c0-.2.1-.5.4-.6-.2-.2-.5-.2-.7-.2-.3 0-.5.2-.8.2-.3 0-.5-.1-.8-.1-.3 0-.6.2-.7.4.6.2.7.7.3 1.1-.2.2-.3.1-.1.3.2.2.6.6 1 .5.2 0 .3-.1.5-.2s.3 0 .5 0c.5.1.8-.1 1-.4.1-.1.2-.3.2-.4 0 0-.1 0-.1-.1-.5-.1-.7-.2-.7-.5-.1-.4.1.4 0 0zm-1.3-.9h.2c0-.3-.5-.7-1-.6 0 .3.4.6.8.6 0 0-.2 0 0 0z" fill="#FFF"/><path opacity=".2" fill="#FFF" d="M2184 1312.2l-17.4-7.6 16.1-1.2c.7-.1 1.3.3 1.4.8l1 6.9c.1.5-.4 1-1.1 1.1z"/><linearGradient id="as" gradientUnits="userSpaceOnUse" x1="-9927.259" y1="3026.007" x2="-9921.279" y2="3026.007" gradientTransform="scale(.9815 -.9815) rotate(33.316 3417.555 21156.886)"><stop offset="0" stop-color="#AD2A27"/><stop offset="1" stop-color="#E4554F"/></linearGradient><path fill="url(#as)" d="M2185 1293.6s-1.9-1-3-.5-.9 1.9-.5 2.5c0 .1.1.1.2.2.7.9 1.6 1.7 2.6 2.5 1.5 1.1 3.6 2.7 3.8 2.9.2.2 1.6 1 2.8.5.8-.4.6-1.3.4-1.8-.1-.2-.2-.4-.4-.6-.8-.7-3.1-2.8-3.6-3.5-.7-.9-1.7-1.9-2.3-2.2z"/><path opacity=".15" d="M2181.4 1295.6c-.4-.6-.5-1.9.6-2.4.9-.4 2.3.1 2.9.3-1.5.7-2.8 1.5-3.5 2.1z"/><linearGradient id="at" gradientUnits="userSpaceOnUse" x1="-9927.255" y1="3031.178" x2="-9923.243" y2="3031.178" gradientTransform="scale(.9815 -.9815) rotate(33.316 3417.555 21156.886)"><stop offset="0" stop-color="#AFAFAF"/><stop offset=".081" stop-color="#BCBCBC"/><stop offset=".247" stop-color="#D1D1D1"/><stop offset=".433" stop-color="#E0E0E0"/><stop offset=".654" stop-color="#E8E8E8"/><stop offset="1" stop-color="#EBEBEB"/></linearGradient><path fill="url(#at)" d="M2181.4 1295.6c-.4-.6-.5-1.9.5-2.4.9-.4 2.3.1 2.8.4-1.4.5-2.6 1.4-3.3 2z"/><path fill="#D9BB9F" d="M2183.9 1295.3s1.3-.9 2.5.1 3 3.2 3.2 3.5c.2.3 1.4 2 .9 2.4-.5.4-1.1 0-1.1 0s-.4-.1-1.7-.8-3.3-2.3-3.3-2.3-.8-.5-1.3-1.4.8-1.5.8-1.5z"/><path fill="#FFC07B" d="M2190.5 1301.5c-.1 0-.2.1-.2.1-.1-.1 0-.1.2-.1 0-.1.1-.2.2-.1-.1 0-.2 0-.2.1-.1 0 0-.1 0 0zm.3-.3c-.1 0 0-.2 0-.2v.2zm-.8.4h-.3c0-.2.3-.1.3 0zm-.6-.1c-.1 0-.2-.1-.2-.1.1-.1.3 0 .2.1zm1.4-.7c-.1 0-.1-.2-.1-.2.1.1.1.2.1.2zm-1.8.5c-.1 0-.1-.1-.2-.1 0-.1.2 0 .2.1zm1.7-.8c-.1 0-.2-.2-.1-.2 0 0 .1.1.1.2zm-2.2.6c-.1 0-.1-.1-.2-.1.1-.1.3 0 .2.1zm2-1c-.1.1-.2-.2-.1-.2.1.1.1.1.1.2zm-2.4.8c-.1 0-.1-.1-.2-.1.1-.1.3 0 .2.1zm2.2-1.2c-.1.1-.2-.1-.1-.2.1.1.1.2.1.2zm-2.6.9c-.1 0-.1-.1-.2-.1.1-.1.3.1.2.1zm2.4-1.2c-.1.1-.2-.1-.1-.2 0 .1.1.2.1.2zm-2.8 1c-.1 0-.1-.1-.2-.1.1-.1.3 0 .2.1zm2.6-1.3c-.1.1-.2-.1-.1-.2 0 .1.1.1.1.2zm-2.9 1c-.1 0-.1-.1-.2-.1 0-.1.2.1.2.1zm2.7-1.3c-.1 0-.2-.1-.1-.2 0 0 0 .1.1.2zm-3.1 1.1c-.1 0-.1-.1-.2-.1.1-.1.3 0 .2.1zm2.8-1.5c-.1.1-.2-.1-.2-.1h.1s0 .1.1.1zm-3.2 1.2c-.1 0-.2-.1-.1-.2 0 .1.2.2.1.2zm2.9-1.5c-.1 0-.3-.1-.1-.2 0 .1.1.2.1.2zm-3.3 1.3c-.1 0-.1-.1-.2-.1.1-.1.3 0 .2.1zm3.1-1.6c-.1.1-.2-.1-.1-.2 0 .1 0 .1.1.2zm-3.4 1.3c-.1 0-.1-.1-.2-.1.1-.1.2 0 .2.1zm3.1-1.6c-.1.1-.2-.1-.1-.2 0 .1 0 .1.1.2zm-3.5 1.3c-.1 0-.1-.1-.2-.1.1-.1.3.1.2.1zm3.2-1.6c-.1 0-.3-.1-.1-.1 0 0 .1 0 .1.1zm-3.5 1.4c-.1 0-.1-.1-.2-.1 0-.1.1 0 .2.1zm3.2-1.7c0-.1-.1-.1-.1-.2s.1.1.1.2zm-3.6 1.4c-.1 0-.1-.1-.2-.1.1-.1.3 0 .2.1zm3.3-1.7s-.2-.1-.1-.2c.1 0 .1.1.1.2 0-.1 0-.1 0 0zm-3.7 1.4c-.1 0-.1-.1-.2-.1.2-.1.3.1.2.1zm3.4-1.8s-.2-.1-.1-.2c.1.1.1.2.1.2zm-3.7 1.5s-.2-.1-.1-.2c.1.1.2.2.1.2zm3.4-1.8s-.2-.1-.1-.2c.1.1.1.2.1.2zm-3.6 1.5s-.1 0 0 0c-.1 0-.1-.1-.2-.1.1-.1.2 0 .2.1zm3.3-1.7s-.2-.1-.1-.2c0 0 .1.1.1.2 0-.1 0-.1 0 0zm-3.6 1.4c-.1 0-.1-.1-.2-.2.2 0 .2.1.2.2zm3.3-1.7s-.2-.1-.1-.2c0 0 .1.1.1.2 0-.1 0 0 0 0zm-3.5 1.3c-.1 0-.1-.1-.1-.2.1 0 .1.2.1.2zm3.1-1.6c-.1 0-.3-.1-.2-.1.1 0 .2 0 .2.1zm-3.1 1.3c-.1 0-.1 0 0 0-.1-.1-.1-.1 0-.2.1 0 0 .1 0 .2zm2.7-1.5c-.1 0-.3 0-.2-.1 0 .1.1.1.2.1zm-2.6 1.1c-.1 0-.1 0 0 0v-.2c.1 0 0 .2 0 .2zm2.1-1.1c-.1 0-.3.1-.3 0 .1-.1.2-.1.3 0 0-.1 0-.1 0 0zm-1.9.8s-.1 0 0 0c0-.1 0-.1.1-.2.1 0-.1.1-.1.2zm1.4-.8c-.1 0-.2.1-.3 0h.3c-.1 0 0 0 0 0zm-1.1.5c0-.1.1-.1.1-.2.1.1 0 .2-.1.2zm.4-.2c0-.1 0-.1 0 0 0-.1.1-.1.2-.1 0 0-.1 0-.2.1z"/><path opacity=".15" d="M2183.4 1297.1c-.5-.8.8-1.5.8-1.5s1.3-.9 2.5.1c.4.3.9.8 1.3 1.3-.5-.6-1.1-1.2-1.6-1.6-1.2-1-2.5-.1-2.5-.1s-1.2.7-.8 1.5c.2.4.4.7.7.9-.1-.2-.2-.4-.4-.6z"/><linearGradient id="au" gradientUnits="userSpaceOnUse" x1="-9923.127" y1="3024.767" x2="-9922.123" y2="3024.767" gradientTransform="scale(.9815 -.9815) rotate(33.316 3417.555 21156.886)"><stop offset="0" stop-color="#B68B68"/><stop offset="1" stop-color="#CFA285"/></linearGradient><path fill="url(#au)" d="M2186.8 1295.8s0 .8.3 1.1.8.9 1.3 1.2c.5.3 1.5 1.2 1.5 1.2s-.7-1.1-1.3-1.8c-.5-.4-1.8-1.7-1.8-1.7z"/><radialGradient id="av" cx="-9924.067" cy="3029.522" r="1.155" gradientTransform="scale(.9815 -.9815) rotate(33.316 3417.555 21156.886)" gradientUnits="userSpaceOnUse"><stop offset="0" stop-color="#FFF"/><stop offset="1" stop-color="#FFF" stop-opacity="0"/></radialGradient><path opacity=".2" fill="url(#av)" d="M2183.4 1294c.5-.4 1.3-.5 1.8-.1.6.3.6.9.2 1.3-.5.4-1.3.5-1.8.1s-.6-.9-.2-1.3z"/><path opacity=".15" fill="#FFF" d="M2182.2 1293.3c1.1-.2 2.3.3 3.1.7.1.1.1.2 0 .3l-.7.4c-.1.1-.3.1-.4 0-.4-.6-1.1-1.2-2-1.4zm8.9 7.4v-.8l-1.5-1.6s1.5 2 1.5 2.4z"/><linearGradient id="aw" gradientUnits="userSpaceOnUse" x1="1392.042" y1="3025.474" x2="1396.781" y2="3025.474" gradientTransform="rotate(146.685 2029.95 2255.403) scale(.9815)"><stop offset="0" stop-color="#AD2A27"/><stop offset="1" stop-color="#E4554F"/></linearGradient><path fill="url(#aw)" d="M2186.3 1293s-.5-1.7.6-2.2c1.1-.5 2.8.2 3.3.7l.2.2c.9.8 1.6 1.7 2.2 2.7.8 1.4 2.1 3.5 2.2 3.7.2.2.6 1.5-.5 2.1-.8.4-1.9-.1-2.5-.4-.2-.1-.4-.3-.6-.5-.6-.8-2.3-3.1-3.1-3.8-.9-.9-1.7-2-1.8-2.5z"/><path opacity=".15" d="M2190.2 1291.5c-.6-.5-2.2-1.1-3.3-.6-.9.4-.8 1.6-.7 2 1.4-.7 3-1.2 4-1.4z"/><linearGradient id="ax" gradientUnits="userSpaceOnUse" x1="1392.481" y1="3030.306" x2="1396.619" y2="3030.306" gradientTransform="rotate(146.685 2029.95 2255.403) scale(.9815)"><stop offset="0" stop-color="#AFAFAF"/><stop offset=".081" stop-color="#BCBCBC"/><stop offset=".247" stop-color="#D1D1D1"/><stop offset=".433" stop-color="#E0E0E0"/><stop offset=".654" stop-color="#E8E8E8"/><stop offset="1" stop-color="#EBEBEB"/></linearGradient><path fill="url(#ax)" d="M2190.2 1291.4c-.6-.5-2.2-1.1-3.2-.6-.9.4-.8 1.6-.7 2 1.3-.7 2.8-1.2 3.9-1.4z"/><path fill="#D9BB9F" d="M2188.8 1293s-1.7.5-.8 1.7c.8 1.2 2.9 3.2 3.2 3.5.3.3 1.9 1.7 2.6 1.6.7-.2.5-.7.5-.7s.1-.3-.4-1.5-1.6-3.1-1.6-3.1-.4-.8-1.3-1.4c-.9-.7-2.2-.1-2.2-.1z"/><path fill="#FFC07B" d="M2194.1 1299.8c-.1 0-.1.1-.2.1-.1-.1.1-.2.2-.1.1-.1.1-.2.2-.1-.1 0-.2 0-.2.1-.1 0 0-.1 0 0zm-.8 0c0-.1.3 0 .3 0-.1.1-.2 0-.3 0zm1.2-.5c0 .1 0 .1-.1.2-.1 0-.1-.2.1-.2zm-.1-.4v.2s-.1-.2 0-.2zm-1.5.7c.1-.1.3 0 .2.1-.1 0-.1 0-.2-.1zm1.5-1.1v.2c-.1 0-.1-.2 0-.2zm-1.9.9c.1-.1.3.1.2.1-.1 0-.2-.1-.2-.1zm1.8-1.2c0 .1 0 .1.1.2-.1 0-.2-.2-.1-.2zm-2.2.9c.1-.1.3.1.2.1-.1 0-.1 0-.2-.1zm2.1-1.3c0 .1 0 .1.1.2-.2 0-.3-.2-.1-.2zm-2.4 1.1c.1-.1.3.1.2.1-.1-.1-.2-.1-.2-.1zm2.2-1.5c0 .1 0 .1.1.2-.1.1-.2-.1-.1-.2zm-2.6 1.2c.1 0 .3.1.2.1-.1 0-.1-.1-.2-.1zm2.5-1.5c0 .1.1.1.1.2-.2 0-.3-.2-.1-.2zm-2.8 1.2c.1 0 .3.1.2.1-.1 0-.2-.1-.2-.1zm2.6-1.5c0 .1.1.1.1.2-.1 0-.3-.2-.1-.2zm-2.9 1.2c.1 0 .2.1.2.2l-.2-.2zm2.7-1.6c0 .1.1.1.1.2-.1 0-.2-.2-.1-.2zm-3 1.3c.1 0 .3.1.2.2l-.2-.2zm2.7-1.6c.1-.1.1.1.2.2-.1 0-.1-.2-.2-.2zm-3 1.3c.1-.1.2.1.2.1h-.1l-.1-.1zm2.9-1.7c0 .1.1.1.1.2-.1 0-.2-.2-.1-.2zm-3.2 1.4c.1 0 .3.1.2.2l-.2-.2zm3.1-1.6c0-.1-.2-.2 0-.2v.2zm-3.4 1.3c.1 0 .3.1.2.2l-.2-.2zm3.1-1.8c0 .1.1.1.1.2-.1 0-.2-.2-.1-.2zm-3.4 1.5c.1-.1.1.1.2.1h-.1l-.1-.1zm3.3-1.7c0-.1-.1-.2 0-.2v.2zm-3.5 1.5s-.2-.1-.1-.2c.1.1.2.1.1.2.1 0 .1 0 0 0zm3.3-2c0 .1.1.1.1.2-.2 0-.2-.2-.1-.2zm-3.5 1.7c0-.1-.1-.1-.1-.2 0 0 .1.1.1.2zm3.2-2c0 .1.1.1.1.2 0 0-.2-.2-.1-.2zm-3.5 1.7c0-.1-.1-.1-.1-.2.1 0 .1.1.1.2zm3.2-2c.1-.1.1.1.2.1-.1.1-.2-.1-.2-.1zm-3.5 1.7c0-.1-.1-.1-.1-.2.1-.1.1.1.1.2.1-.1 0-.1 0 0zm3.3-2.1c.1 0 .1.1.2.2h-.1c-.1 0-.3-.1-.1-.2zm-3.5 1.7c0-.1-.1-.1-.1-.2l.1.2zm3.1-1.9c.1 0 .1.1.2.1h-.1s-.2-.1-.1-.1zm-3.4 1.6c0-.1-.1-.1-.1-.2.1 0 .1.1.1.2.1 0 0 0 0 0zm3-1.9c.1 0 .1.1.2.1-.1 0-.3 0-.2-.1zm-3.2 1.6c0-.1 0-.1-.1-.2.2-.1.2.1.1.2.1-.1.1 0 0 0zm2.7-1.7c.1 0 .2 0 .2.1 0 0-.2 0-.2-.1zm-2.7 1.3v-.2c.2 0 0 .1 0 .2zm2.2-1.4h.3c-.1.1-.3.1-.3 0zm-2.1 1c0-.1.1-.1.1-.2.1.1 0 .2-.1.2zm1.6-.9h.3v.1c-.1-.1-.3 0-.3-.1zm-1.3.6c.1 0 .1-.1.2-.1 0 0-.1.1-.2.1zm.8-.5c.1 0 .2 0 .2-.1 0 .1-.2.2-.2.1zm-.4.2c.1 0 .1-.1.2-.1-.1.1-.2.2-.2.1z"/><path opacity=".15" d="M2191.3 1293.4c-.9-.6-2.2-.1-2.2-.1s-1.7.5-.8 1.7c.3.4.7.9 1.2 1.4-.6-.6-1.1-1.2-1.4-1.7-.8-1.2.8-1.7.8-1.7s1.3-.6 2.2.1c.4.3.7.6.9.8-.3-.2-.5-.4-.7-.5z"/><linearGradient id="ay" gradientUnits="userSpaceOnUse" x1="1395.238" y1="3024.653" x2="1396.141" y2="3024.653" gradientTransform="rotate(146.685 2029.95 2255.403) scale(.9815)"><stop offset="0" stop-color="#B68B68"/><stop offset="1" stop-color="#CFA285"/></linearGradient><path fill="url(#ay)" d="M2188.3 1295.1s1 .3 1.3.6c.3.3.8.9 1 1.3.1.5 1 1.5 1 1.5s-1.1-.9-1.7-1.6c-.5-.5-1.6-1.8-1.6-1.8z"/><radialGradient id="az" cx="1395.537" cy="3029.153" r="1.154" gradientTransform="rotate(146.685 2029.95 2255.403) scale(.9815)" gradientUnits="userSpaceOnUse"><stop offset="0" stop-color="#FFF"/><stop offset="1" stop-color="#FFF" stop-opacity="0"/></radialGradient><path opacity=".2" fill="url(#az)" d="M2186.6 1292.4c.5-.4 1.3-.5 1.8-.1.6.3.6.9.2 1.3-.5.4-1.3.5-1.8.1-.5-.3-.6-.9-.2-1.3z"/><path opacity=".15" fill="#FFF" d="M2187 1291c-.6.7-.5 1.6-.3 2.3 0 .1.2.2.3.1l.8-.3c.1-.1.2-.2.1-.3-.6-.4-1.1-1.1-.9-1.8zm5.8 8.9l-1-.3-1.4-1.6c0-.1 1.9 1.7 2.4 1.9z"/><g><path fill="#262626" stroke="#9B9B9B" stroke-width=".041" stroke-miterlimit="10" d="M2177.8 1301.4c2.4-2.1 6.8-2.5 9.7-.7 3 1.7 3.4 4.9 1 7-2.4 2.1-6.8 2.5-9.7.7-2.9-1.7-3.4-4.9-1-7z"/><path fill="#3A3A3A" stroke="#5B5B5B" stroke-width=".041" stroke-miterlimit="10" d="M2180.6 1300.1c3.4-1 7.3.1 8.8 2.6 1.4 2.5-.1 5.3-3.5 6.3s-7.3-.1-8.8-2.6c-1.5-2.4.1-5.3 3.5-6.3z"/><radialGradient id="aA" cx="1896.265" cy="-2227.7" r="5.934" gradientTransform="matrix(-.9037 .3828 .3828 .9037 4749.732 2591.708)" gradientUnits="userSpaceOnUse"><stop offset="0" stop-color="#FFF"/><stop offset="1"/></radialGradient><path opacity=".25" fill="url(#aA)" d="M2180.6 1300.1c3.4-1 7.3.1 8.8 2.6 1.4 2.5-.1 5.3-3.5 6.3s-7.3-.1-8.8-2.6c-1.5-2.4.1-5.3 3.5-6.3z"/><path fill="#545454" stroke="#636363" stroke-width=".041" stroke-miterlimit="10" d="M2181.3 1301.2c2.5-.8 5.5.1 6.5 1.9 1.1 1.8-.1 3.9-2.6 4.7-2.5.8-5.4-.1-6.5-1.9-1.1-1.8.1-3.9 2.6-4.7z"/><linearGradient id="aB" gradientUnits="userSpaceOnUse" x1="1896.272" y1="-2228.417" x2="1896.272" y2="-2226.997" gradientTransform="matrix(-.9037 .3828 .3828 .9037 4749.732 2591.708)"><stop offset="0" stop-color="#AD2A27"/><stop offset="1" stop-color="#E4554F"/></linearGradient><path fill="url(#aB)" d="M2182.9 1303.9c.5-.1 1 0 1.2.3.2.3 0 .7-.5.9s-1 0-1.2-.3c-.2-.4 0-.7.5-.9z"/><path fill="#A0A0A0" d="M2181.4 1299.7l-1.7.5-.3-.5 1.7-.5"/><path opacity=".15" d="M2180.5 1300l-.8.2-.3-.5.9-.2"/><linearGradient id="aC" gradientUnits="userSpaceOnUse" x1="1897.387" y1="-2239.253" x2="1897.387" y2="-2233.535" gradientTransform="matrix(-.9037 .3828 .3828 .9037 4749.732 2591.708)"><stop offset="0" stop-color="#AD2A27"/><stop offset="1" stop-color="#E4554F"/></linearGradient><path fill="url(#aC)" d="M2180.9 1299.3l-2.7-4.5c-.1-.1-.4-.2-.6-.1l-.4.1c-.2.1-.4.3-.3.4l2.7 4.5 1.3-.4zm-3.3-4.3c.1 0 .3.1.4.2.1.2.1.3-.1.4-.1 0-.3-.1-.4-.2-.1-.2 0-.4.1-.4z"/><path opacity=".15" d="M2180.3 1299.5l-2.3-3.9c-.1 0-.3-.1-.4-.2-.1-.2-.1-.3.1-.4l-.1-.3-.2.1c-.2.1-.4.3-.3.4l2.7 4.5.5-.2zm5.6 9.6l-5.4-9.2c-3.5 1.1-5.2 4-3.7 6.5 1.5 2.6 5.6 3.8 9.1 2.7z"/></g></g><g><linearGradient id="aD" gradientUnits="userSpaceOnUse" x1="-8707.206" y1="4576.084" x2="-8707.206" y2="4603.152" gradientTransform="scale(.9814 -.9814) rotate(50.988 2974.06 13098.661)"><stop offset="0" stop-color="#E7C39B"/><stop offset="1" stop-color="#F6EADB"/></linearGradient><path fill="url(#aD)" d="M2212.3 1304.4c-7.4 7.3-15.3 14.3-23.6 21-.2.1-.4.1-.6 0-6.8-4-11.6-6.8-18.4-10.7 8-7.1 16-14.3 24.1-21.4 6.8 4 11.6 6.8 18.4 10.7.2.1.2.3.1.4z"/><linearGradient id="aE" gradientUnits="userSpaceOnUse" x1="-8707.206" y1="4576.084" x2="-8707.206" y2="4603.152" gradientTransform="scale(.9814 -.9814) rotate(50.988 2974.06 13098.661)"><stop offset="0" stop-color="#E7C39B"/><stop offset="1" stop-color="#F6EADB"/></linearGradient><path fill="url(#aE)" d="M2212.3 1304.4c-7.4 7.3-15.3 14.3-23.6 21-.2.1-.4.1-.6 0-6.8-4-11.6-6.8-18.4-10.7 8-7.1 16-14.3 24.1-21.4 6.8 4 11.6 6.8 18.4 10.7.2.1.2.3.1.4z"/><linearGradient id="aF" gradientUnits="userSpaceOnUse" x1="-8721.847" y1="4579.405" x2="-8689.451" y2="4579.405" gradientTransform="scale(.9814 -.9814) rotate(50.988 2974.06 13098.661)"><stop offset="0" stop-color="#E7C39B" stop-opacity="0"/><stop offset=".5" stop-color="#FFF"/><stop offset="1" stop-color="#E9C9A4" stop-opacity="0"/></linearGradient><path fill="url(#aF)" d="M2211.8 1304.1c-7.4 7.3-15.3 14.3-23.6 21-.1.1-.4.1-.5 0 0 0 .1 0 .1.1.2.1.4.1.6 0 8.3-6.7 16.2-13.7 23.6-21 .1-.1.1-.3-.1-.4 0 0-.1 0-.1-.1.1.1.1.3 0 .4z"/><linearGradient id="aG" gradientUnits="userSpaceOnUse" x1="-8721.83" y1="4579.128" x2="-8689.383" y2="4579.128" gradientTransform="scale(.9814 -.9814) rotate(50.988 2974.06 13098.661)"><stop offset="0" stop-color="#DAAF7F"/><stop offset=".3" stop-color="#DDB68A" stop-opacity=".3"/><stop offset=".642" stop-color="#E9CFB2" stop-opacity=".7"/><stop offset="1" stop-color="#DBB081"/></linearGradient><path fill="url(#aG)" d="M2211.9 1304.2c-7.4 7.3-15.3 14.3-23.6 21-.2.1-.4.1-.6 0 .1.1.3.2.4.2.2.1.4.1.6 0 8.3-6.7 16.2-13.7 23.6-21 .1-.1.1-.3-.1-.4-.1-.1-.3-.2-.4-.2.2.1.2.3.1.4z"/><path fill="#DAAF7F" d="M2212.2 1304.4c-7.4 7.3-15.3 14.3-23.6 21-.1.1-.4.1-.5 0 0 0 .1 0 .1.1.2.1.4.1.6 0 8.3-6.7 16.2-13.7 23.6-21 .1-.1.1-.3-.1-.4 0 0-.1 0-.1-.1.1.1.1.2 0 .4z"/><linearGradient id="aH" gradientUnits="userSpaceOnUse" x1="-8715.117" y1="4603.152" x2="-8715.117" y2="4578.258" gradientTransform="scale(.9814 -.9814) rotate(50.988 2974.06 13098.661)"><stop offset="0" stop-color="#FFF"/><stop offset="1" stop-color="#E7C39B" stop-opacity="0"/></linearGradient><path fill="url(#aH)" d="M2189.1 1325.1c-.1.1-.4.1-.6 0-6.8-4-11.6-6.8-18.4-10.7-.1.1-.3.2-.4.4 6.8 4 11.6 6.8 18.4 10.7.2.1.4.1.6 0 4.2-3.4 8.3-6.9 12.3-10.5-3.9 3.4-7.8 6.7-11.9 10.1z"/><linearGradient id="aI" gradientUnits="userSpaceOnUse" x1="-8715.082" y1="4603.134" x2="-8715.082" y2="4578.265" gradientTransform="scale(.9814 -.9814) rotate(50.988 2974.06 13098.661)"><stop offset="0" stop-color="#FFF"/><stop offset="1" stop-color="#E7C39B" stop-opacity="0"/></linearGradient><path fill="url(#aI)" d="M2188.9 1325.2c-.1.1-.4.1-.6 0-6.8-4-11.6-6.8-18.4-10.7-.1 0-.1.1-.2.1 6.8 4 11.6 6.8 18.4 10.7.2.1.4.1.6 0 4.2-3.4 8.3-6.8 12.2-10.4-3.8 3.5-7.8 6.9-12 10.3z"/><linearGradient id="aJ" gradientUnits="userSpaceOnUse" x1="-8725.044" y1="4590.723" x2="-8705.408" y2="4590.723" gradientTransform="scale(.9814 -.9814) rotate(50.988 2974.06 13098.661)"><stop offset="0" stop-color="#E7C39B"/><stop offset="1" stop-color="#E9C9A5" stop-opacity="0"/></linearGradient><path opacity=".5" fill="url(#aJ)" d="M2188.8 1325.3c-.1.1-.4.1-.6 0-6.8-4-11.6-6.8-18.4-10.7 0 0-.1 0-.1.1 6.8 4 11.6 6.8 18.4 10.7.2.1.4.1.7-.1z"/><linearGradient id="aK" gradientUnits="userSpaceOnUse" x1="3402.813" y1="4597.933" x2="3402.813" y2="4576.08" gradientTransform="matrix(-.6178 .7626 -.7626 -.6178 7799.43 1542.555)"><stop offset="0" stop-color="#FFF"/><stop offset="1" stop-color="#E7C39B" stop-opacity="0"/></linearGradient><path fill="url(#aK)" d="M2211.9 1304.8c.1-.1.1-.3-.1-.4-6.8-4-11.6-6.8-18.4-10.7.1-.1.3-.2.4-.4 6.8 4 11.6 6.8 18.4 10.7.2.1.2.3.1.4-3.8 3.7-7.6 7.3-11.7 10.9 3.9-3.5 7.6-7 11.3-10.5z"/><linearGradient id="aL" gradientUnits="userSpaceOnUse" x1="3402.848" y1="4597.896" x2="3402.848" y2="4576.099" gradientTransform="matrix(-.6178 .7626 -.7626 -.6178 7799.43 1542.555)"><stop offset="0" stop-color="#FFF"/><stop offset="1" stop-color="#E7C39B" stop-opacity="0"/></linearGradient><path fill="url(#aL)" d="M2212 1304.6c.1-.1.1-.3-.1-.4-6.8-4-11.6-6.8-18.4-10.7.1 0 .1-.1.2-.1 6.8 4 11.6 6.8 18.4 10.7.2.1.2.3.1.4-3.7 3.7-7.6 7.2-11.5 10.8 3.9-3.5 7.6-7.1 11.3-10.7z"/><linearGradient id="aM" gradientUnits="userSpaceOnUse" x1="3394.642" y1="4586.971" x2="3410.766" y2="4586.971" gradientTransform="matrix(-.6178 .7626 -.7626 -.6178 7799.43 1542.555)"><stop offset="0" stop-color="#E7C39B"/><stop offset="1" stop-color="#E9C9A5" stop-opacity="0"/></linearGradient><path opacity=".5" fill="url(#aM)" d="M2212.2 1304.5c.1-.1.1-.3-.1-.4-6.8-4-11.6-6.8-18.4-10.7 0 0 .1 0 .1-.1 6.8 4 11.6 6.8 18.4 10.7.2.1.2.3 0 .5-3.6 3.6-7.5 7.1-11.4 10.6 3.9-3.4 7.7-7 11.4-10.6z"/><linearGradient id="aN" gradientUnits="userSpaceOnUse" x1="-8725.044" y1="4600.438" x2="-8692.639" y2="4600.438" gradientTransform="scale(.9814 -.9814) rotate(50.988 2974.06 13098.661)"><stop offset="0" stop-color="#E7C39B" stop-opacity="0"/><stop offset=".5" stop-color="#EED5B9"/><stop offset="1" stop-color="#EED5B9" stop-opacity="0"/></linearGradient><path fill="url(#aN)" d="M2169.8 1314.7s.1 0 .1.1c8-7.1 16-14.3 24.1-21.4 0 0-.1 0-.1-.1-8.1 7.1-16.1 14.3-24.1 21.4z"/><linearGradient id="aO" gradientUnits="userSpaceOnUse" x1="-8725.028" y1="4600.331" x2="-8692.622" y2="4600.331" gradientTransform="scale(.9814 -.9814) rotate(50.988 2974.06 13098.661)"><stop offset="0" stop-color="#FFF"/><stop offset=".25" stop-color="#E7C39B" stop-opacity="0"/><stop offset=".5" stop-color="#F6E7D8"/><stop offset=".75" stop-color="#F6E8D9" stop-opacity="0"/><stop offset="1" stop-color="#FFF"/></linearGradient><path fill="url(#aO)" d="M2169.8 1314.8s.1 0 .1.1c8-7.1 16-14.3 24.1-21.4 0 0-.1 0-.1-.1-8 7.1-16 14.2-24.1 21.4z"/><linearGradient id="aP" gradientUnits="userSpaceOnUse" x1="-8708.851" y1="4588.292" x2="-8689.368" y2="4588.292" gradientTransform="scale(.9814 -.9814) rotate(50.988 2974.06 13098.661)"><stop offset=".004" stop-color="#E7C39B"/><stop offset="1" stop-color="#E9C9A4" stop-opacity="0"/></linearGradient><path opacity=".15" fill="url(#aP)" d="M2200.8 1315.1c3.9-3.5 7.8-7.1 11.5-10.7.1-.1.1-.3-.1-.4-6.8-4-11.6-6.8-18.4-10.7-4 3.6-8 7.1-12 10.7l19 11.1z"/><linearGradient id="aQ" gradientUnits="userSpaceOnUse" x1="-8706.035" y1="4587.773" x2="-8706.035" y2="4576.104" gradientTransform="scale(.9814 -.9814) rotate(50.988 2974.06 13098.661)"><stop offset="0" stop-color="#DAAF7F"/><stop offset="1" stop-color="#F6EADB" stop-opacity="0"/></linearGradient><path opacity=".25" fill="url(#aQ)" d="M2182.9 1322.4c1.7 1 3.5 2 5.2 3 .2.1.4.1.6 0 8.3-6.7 16.2-13.7 23.6-21 .1-.1.1-.3-.1-.4-1.7-1-3.5-2-5.2-3l-24.1 21.4z"/><linearGradient id="aR" gradientUnits="userSpaceOnUse" x1="-8721.775" y1="4578.943" x2="-8689.381" y2="4578.943" gradientTransform="scale(.9814 -.9814) rotate(50.988 2974.06 13098.661)"><stop offset="0" stop-color="#E7C39B"/><stop offset=".5" stop-color="#F6EADB"/><stop offset="1" stop-color="#EACAA7"/></linearGradient><path opacity=".35" fill="url(#aR)" d="M2212.2 1304.4c-7.4 7.3-15.3 14.3-23.6 21-.1.1-.4.1-.5 0 0 0 .1 0 .1.1.2.1.4.1.6 0 8.3-6.7 16.2-13.7 23.6-21 .1-.1.1-.3-.1-.4 0 0-.1 0-.1-.1.1.1.1.2 0 .4z"/><g fill="#FFF"><path d="M2180.3 1309.7c.3-.3.9-.3 1.3-.1.4.2.5.7.1 1-.3.3-.9.3-1.3.1s-.4-.7-.1-1z"/><path d="M2180.8 1310c.1-.1.3-.1.4 0 .1.1.1.2 0 .3-.1.1-.3.1-.4 0 0-.1-.1-.2 0-.3z"/></g><radialGradient id="aS" cx="-8714.218" cy="4597.287" r=".849" gradientTransform="scale(.9814 -.9814) rotate(50.988 2974.06 13098.661)" gradientUnits="userSpaceOnUse"><stop offset="0" stop-color="#F6EADB"/><stop offset="1" stop-color="#E7C39B"/></radialGradient><path fill="url(#aS)" d="M2180.2 1309.6c.3-.3.9-.3 1.3-.1s.5.7.1 1c-.3.3-.9.3-1.3.1-.4-.2-.5-.7-.1-1z"/><path fill="#DAAF7F" d="M2180.7 1310c.1-.1.3-.1.4 0 .1.1.1.2 0 .3-.1.1-.3.1-.4 0-.1-.1-.1-.3 0-.3z"/><path fill="#D9AF7F" d="M2180.3 1309.7c.3-.3.9-.3 1.3-.1h-.1c-.4-.3-1-.3-1.2.1-.4.2-.4.7 0 .9h.1c-.4-.2-.4-.6-.1-.9z"/><g><g fill="#FFF"><path d="M2189.2 1301.8c.3-.3.9-.3 1.3-.1.4.2.5.7.1 1-.3.3-.9.3-1.3.1-.3-.3-.4-.7-.1-1z"/><path d="M2189.8 1302.1c.1-.1.3-.1.4 0 .1.1.1.2 0 .3-.1.1-.3.1-.4 0-.1-.1-.1-.2 0-.3z"/></g><radialGradient id="aT" cx="-8702.196" cy="4595.316" r=".848" gradientTransform="scale(.9814 -.9814) rotate(50.988 2974.06 13098.661)" gradientUnits="userSpaceOnUse"><stop offset="0" stop-color="#F6EADB"/><stop offset="1" stop-color="#E7C39B"/></radialGradient><path fill="url(#aT)" d="M2189.1 1301.7c.3-.3.9-.3 1.3-.1s.5.7.1 1c-.3.3-.9.3-1.3.1-.4-.3-.4-.7-.1-1z"/><path fill="#DAAF7F" d="M2189.6 1302c.1-.1.3-.1.4 0 .1.1.1.2 0 .3-.1.1-.3.1-.4 0 0-.1-.1-.2 0-.3z"/><path fill="#D9AF7F" d="M2189.2 1301.7c.3-.3.9-.3 1.3-.1h-.1c-.4-.3-1-.2-1.2.1-.4.2-.4.7 0 .9h.1c-.4-.2-.4-.6-.1-.9z"/></g><linearGradient id="aU" gradientUnits="userSpaceOnUse" x1="-8708.216" y1="-4834.177" x2="-8708.216" y2="-4830.02" gradientTransform="matrix(.6178 -.7626 .7626 .6178 11251.016 -2349.047)"><stop offset="0" stop-color="#603913"/><stop offset="1" stop-color="#6F4A27" stop-opacity="0"/></linearGradient><path opacity=".3" fill="url(#aU)" d="M2190.9 1303.6c-.4-.5-.8-1-1.3-1.4v-.2c.1-.1.2-.1.3-.1.5.4 1 .9 1.3 1.4 0 .2-.2.3-.3.3 0 .1 0 .1 0 0zm-7.6 6.9h-.1c-.8-.1-1.5-.3-2.2-.6-.1 0-.2 0-.3.1-.1.1-.1.2 0 .2.7.3 1.4.5 2.2.6h.1l.3-.3z"/><g fill="none" stroke-miterlimit="10"><path stroke="#D27E8E" stroke-width=".326" stroke-linecap="round" d="M2180.8 1310c1.9.2 3.3.6 5.2.7 1.4 0 3.5.8 5.5-1 1.8-1.6.8-2.7.5-3.6-.6-1.5-1.6-2.5-2.3-4"/><path stroke="#F6F6F6" stroke-width=".163" stroke-linecap="round" d="M2180.8 1310c1.9.2 3.3.6 5.2.7 1.4 0 3.5.8 5.5-1 1.8-1.6.8-2.7.5-3.6-.6-1.5-1.6-2.5-2.3-4"/><g stroke="#E7BAC3" stroke-width=".163"><path d="M2180.8 1310h.2"/><path stroke-dasharray="0.1645,0.1645" d="M2181.3 1310.1c1.6.2 2.9.6 4.7.6 1.4 0 3.5.8 5.5-1 1.8-1.6.8-2.7.5-3.6-.6-1.4-1.5-2.4-2.1-3.8"/><path d="M2189.8 1302.2s0-.1-.1-.1"/></g></g></g><g><path fill="#FFC687" d="M2174 1337.4s-12.2 1.1-16.2-4.4-.8-15.5 4.9-19.9c5.5-3.6 11.9-1.8 12.4-.3 1.7-2.2 5-4.5 7.5-.3s2.7 10 .9 13.6c-1.9 3.7-9.5 11.3-9.5 11.3z"/></g><g opacity=".2"><path d="M1432.3 1276.4c-1-1-2.6-1-3.6 0l-9.2 9.3c-1 1-1 2.7 0 3.7l15.5 15.7c1 1 2.6 1 3.6 0l1.6-1.6-.2-.2c-.3-.2-.6-.5-.9-.7l-1.8 1.9c-.3.3-.7.3-1 0l-16.2-16.4c-.3-.3-.3-.8 0-1.1l9.9-9.9c.3-.3.7-.3 1 0l8.9 9c.2-.1.3-.3.5-.4.2-.2.4-.3.6-.4l-8.7-8.9zm2.5 13c0 .1 0 .1 0 0 0 .1.1.1 0 0 .1.1.1.2.2.2.5-.5.6-1.4.1-2-.5.5-.6 1.3-.3 1.8 0 .1 0 0 0 0zm-.2.4c-.3-.3-.3-.7-.7-1-.3-.3-.8-.4-1.2-.3.1.5 0 1.1-.5 1.4-.2.2-.4.3-.7.3h-.7c-.3 0-.4.6-.5.9-.1.5-.2 1.1.3 1.4.2.2.6.2.8.5.2.2.3.5.5.7.3.4.7.5 1.1.4.2 0 1-.1 1.1-.4v-.7c0-.3.1-.5.3-.7.3-.4.9-.5 1.3-.4.1-.5-.1-1-.4-1.3 0-.5-.4-.5-.7-.8zm23-14.6l-.3-.2-.3-.2c-.3-.2-.7-.1-.9.2l-4.7 9-.2-.1-.5.9c-4.2-1.6-9.1-.2-11.8 3.4-2.5 3.3-2.7 7.8-.7 11.4 2.2 3.9 6.7 5.9 11 5 3.8-.8 6.9-3.8 7.8-7.6.9-3.6-.2-7.5-2.9-10.1-.3-.3-.7-.7-1.1-.9l.5-.9-.2-.1 4.7-9c.1-.2-.1-.6-.4-.8z"/></g><g><path fill="none" stroke="#D8E6DD" stroke-width="14.868" stroke-linecap="round" stroke-miterlimit="10" d="M1867 510.1s-8.9 80.3 78.1 47.2"/><path fill="#F5BE82" d="M1948 564s11.8 1.1 15.7-4.2c3.9-5.3.7-15-4.8-19.2-5.3-3.5-11.6-1.7-12-.3-1.6-2.1-4.8-4.4-7.2-.3-2.4 4.1-2.6 9.7-.8 13.2 1.8 3.4 9.1 10.8 9.1 10.8z"/><path fill="#E6F5EB" d="M1841.6 594s-1.1-63.5 21.1-87.1c22.1-23.5 64.3 5.2 64.3 5.2s-4.2 25.9-2.3 33.7c1.9 7.8 7.1 43.8-1 51-8.1 7.2-56.8 11.8-62.6 10-5.9-1.8-19.5-12.8-19.5-12.8z"/><path fill="#FFC687" d="M1868.1 464.7c.4 10.5-4.8 19.2-11.6 19.5-6.9.3-12.8-8-13.2-18.5-.4-10.5 4.8-19.2 11.6-19.5 6.8-.3 12.7 8 13.2 18.5z"/><path fill="#FFAF73" d="M1864.8 465c.2 5.9-3.3 10.9-7.8 11.1-4.6.2-8.5-4.5-8.7-10.4-.2-5.9 3.2-10.9 7.8-11.1 4.5-.2 8.4 4.5 8.7 10.4z"/><path opacity=".1" d="M1977.7 713.8c0 10.8-37.3 19.6-83.3 19.6s-83.3-8.8-83.3-19.6 37.3-19.6 83.3-19.6 83.3 8.8 83.3 19.6zm354.7 4.9c0 8.2-64.4 14.8-143.7 14.8-79.4 0-143.7-6.6-143.7-14.8 0-8.2 64.4-14.8 143.7-14.8 79.3 0 143.7 6.6 143.7 14.8z"/><path fill-rule="evenodd" clip-rule="evenodd" fill="#2F3F54" d="M1884.2 595.9c-17.5 0-33-1.8-42.7-4.6-.8 1.5-1.3 3-1.3 4.6 0 10.7 19.7 19.4 44 19.4s44-8.7 44-19.4c0-1.6-.5-3.1-1.3-4.6-9.6 2.8-25.2 4.6-42.7 4.6z"/><path fill="#FBAE17" d="M1901.4 597.1c.1 2.4-1.8 4.3-4.2 4.4l-11.4.3c-2.4.1-4.3-1.8-4.4-4.2-.1-2.4 1.8-4.3 4.2-4.4l11.4-.3c2.4 0 4.3 1.9 4.4 4.2z"/><path fill="#2F3F54" d="M1852.5 695.3s-14.1 2.5-5 17.5c9.8 7.4 30.3 4.6 34.2 2.5 3.9-2.1 1.8-17.7-17-15.3l-12.2-4.7zm49.6-2.3s-15.8 4.7-5.1 17.5c6.8 6.2 30.3 4.6 34.2 2.5 3.9-2.1 1.8-17.7-17-15.3l-12.1-4.7z"/><path fill="#FFC687" d="M1860.4 511.4l61.2 14.9 3.6-8.9s34-30.2 28.3-73.9c0 0 .1-27-18.7-44.6s-66 2.8-66 2.8l-17 3.4 8.6 106.3z"/><ellipse transform="rotate(-6.097 1902.995 444.437)" fill="#333" cx="1903.6" cy="444.5" rx="3.6" ry="7.8"/><ellipse fill="#FFF" cx="1902.9" cy="440.3" rx="1.4" ry="1.7"/><ellipse transform="rotate(-6.12 1935.067 439.189)" fill="#333" cx="1934.3" cy="438.6" rx="3.4" ry="7.4"/><ellipse fill="#FFF" cx="1933.7" cy="434.6" rx="1.3" ry="1.6"/><path fill="none" stroke="#FFAF73" stroke-width="1.716" stroke-miterlimit="10" d="M1924.5 456s14.2 5.3 13.4 12c0 4.8-7 2.5-7 2.5"/><path fill-rule="evenodd" clip-rule="evenodd" fill="#FFF" d="M1857.8 507.2s57.1 10.6 71.2 10c-4.7 9.7-5.4 16.1-4.6 19.5 0 0-58.6-22.1-66.4-22.9l-.2-6.6z"/><path fill="#2F3F54" d="M1923.1 527.2c-3.2 4.7-8.8 4.9-12.4.5-3.6-4.4-1-8.2 5.8-8.5 6.9-.3 9.9 3.3 6.6 8z"/><path fill="#2F3F54" d="M1913.8 549.2c-.7-18.1 5.3-19.6 13.3-3.3s8.5 30.9 1.2 32.8c-7.4 1.8-13.8-11.4-14.5-29.5z"/><path fill="#534741" d="M1866.6 416c.4 6.7-1.2 37.7-10.8 38.6-15.6 1.5-19.1-40.2-15.7-48.8 3.8-9.8 36-16.8 46-20.9 10.9-4.4 47.5-16.5 58.4-13.6 32.8 8.9-8.9 50.4-31.8 44.5-1.1-4.1-.3-7.5 2.5-10.3-13.6 10.5-31.9 12-48.6 10.5z"/><path fill="none" stroke="#4D4D4D" stroke-width="8.633" stroke-linecap="round" stroke-linejoin="round" stroke-miterlimit="10" d="M1957.7 556.6h19.1l78.9 112.1h243.4"/><circle fill="#333" cx="2249.3" cy="702.9" r="24.1"/><circle fill="#CCC" cx="2249.3" cy="702.9" r="9.3"/><circle fill="#333" cx="2114" cy="702.9" r="24.1"/><circle fill="#CCC" cx="2114" cy="702.9" r="9.3"/><use xlink:href="#X" width="81.3" height="76.9" x="-40.6" y="-38.5" transform="matrix(3.0487 0 0 -3.0487 2178.968 549.037)" overflow="visible"/><g><path fill="none" stroke="#DEECE3" stroke-width="14.868" stroke-linecap="round" stroke-miterlimit="10" d="M1874 537.3s-1.3 78.5 85.7 45.4"/></g><path fill="none" stroke="#8C6239" stroke-width="8.633" stroke-linecap="round" stroke-linejoin="round" stroke-miterlimit="10" d="M1970 578.6l-20.7-34.3"/><g><path fill="#FFC687" d="M1960.3 587.7s11.8 1.1 15.7-4.2c3.9-5.3.7-15-4.8-19.2-5.3-3.5-11.6-1.7-12-.3-1.6-2.1-4.8-4.4-7.2-.3-2.4 4.1-2.6 9.7-.8 13.2s9.1 10.8 9.1 10.8z"/></g><path fill="none" stroke="#2F3F54" stroke-width="14.868" stroke-miterlimit="10" d="M1859.8 604.7v97m49.1-97v97"/><g><path fill="#F57B71" d="M1919.9 496.1c7.3 1.6 14.3-2.1 15.6-8.2l-26.4-5.7c-1.3 6 3.5 12.3 10.8 13.9z"/><path fill="#FFF" d="M1920.6 488.8c5.2 1.3 10.4 1.2 14.7.1.1-.3.2-.7.3-1.1l-26.4-5.7c-.1.3-.1.5-.1.8 2.7 2.6 6.7 4.7 11.5 5.9z"/></g></g></svg>