<svg xmlns="http://www.w3.org/2000/svg" width="100" height="100" viewBox="0 0 100 100"><path d="M275.648 280.503v-77.478H255.46v-26.151h20.188v-20.919c0-3.827-.766-29.424 31.757-29.424h24.091v26.626h-18.024s-6.714 3.52-6.714 6.132v17.486h23.566c-.942 13.413-2.889 26.25-2.889 26.25h-20.797v77.478h-30.99z" fill="none"/><path fill="#fff" d="M39.112 100V49.681H26V32.696h13.112V19.11c0-2.485-.497-19.11 20.624-19.11h15.646v17.293H63.676s-4.36 2.286-4.36 3.982v11.356h15.306c-.612 8.711-1.876 17.049-1.876 17.049H59.239V100H39.112z"/></svg>