<svg xmlns="http://www.w3.org/2000/svg" width="100" height="100" viewBox="0 0 100 100"><path fill="#fff" d="M78.566 97.625V63.109c0-8.674-3.102-14.595-10.86-14.595-5.919 0-9.448 3.993-10.998 7.847-.565 1.377-.708 3.305-.708 5.231v36.033H34.564s.281-58.468 0-64.52H56v9.355s7.941-10.869 19.32-10.869c14.104 0 24.68 9.22 24.68 29.036v36.998H78.566zm-66.58-73.328h-.139C4.652 24.297 0 19.339 0 13.15 0 6.821 4.793 2 12.127 2c7.33 0 11.844 4.821 11.986 11.15 0 6.189-4.656 11.147-12.127 11.147zm10.717 73.328H1.267v-64.52h21.436v64.52z"/></svg>