<svg xmlns="http://www.w3.org/2000/svg" width="100" height="100" viewBox="0 0 100 100"><path d="M275.648 280.503v-77.478H255.46v-26.151h20.188v-20.919c0-3.827-.766-29.424 31.757-29.424h24.091v26.626h-18.024s-6.714 3.52-6.714 6.132v17.486h23.566c-.942 13.413-2.889 26.25-2.889 26.25h-20.797v77.478h-30.99z" fill="none"/><path opacity=".1" d="M61.886 78.779c0 1.142-5.283 2.066-11.801 2.066-6.519 0-11.803-.925-11.803-2.066 0-1.145 5.284-2.069 11.803-2.069 6.518 0 11.801.925 11.801 2.069"/><path fill="#239ABB" d="M50.085 19C37.887 19 28 28.888 28 41.084c0 12.194 9.887 37.499 22.085 37.499 12.196 0 22.083-25.305 22.083-37.499C72.168 28.888 62.281 19 50.085 19"/><path fill="#FFC600" d="M50.085 52.885c-6.519 0-11.803-5.284-11.803-11.801s5.284-11.801 11.803-11.801c6.517 0 11.801 5.284 11.801 11.801s-5.284 11.801-11.801 11.801"/><path opacity=".05" fill="#239ABB" d="M50.085 19l-.001 59.583h.001c12.196 0 22.083-25.305 22.083-37.499C72.168 28.888 62.281 19 50.085 19z"/></svg>