<svg xmlns="http://www.w3.org/2000/svg" width="350" height="350" viewBox="0 0 350 350"><path fill="#229ABA" d="M99.799 190.23c0-8.863-2.22-16.624-7.76-22.166-4.438-3.323-9.98-6.645-19.947-7.755L66.55 159.2v-25.489c5.542 0 13.301 2.214 17.728 6.646l13.303-12.187c-7.761-7.76-16.624-11.083-28.812-12.192v-12.192H54.353v13.302c-18.833 2.213-29.916 14.405-29.916 31.03 0 8.864 2.208 15.515 7.749 19.947 4.438 4.437 11.083 7.76 19.958 8.864l4.427 1.115v25.489c-8.863 0-16.625-2.22-23.269-8.864L20 207.971c8.862 9.967 19.945 13.291 34.353 13.291v15.521h14.416v-16.624c17.728-2.221 31.03-12.188 31.03-29.929m-19.948 0c0 6.656-4.437 11.084-13.301 12.199v-24.386c4.426 1.104 7.76 1.104 9.967 3.323 2.22 2.22 3.334 5.543 3.334 8.864m-24.385-32.138c-3.323 0-6.656-1.109-8.864-3.322-2.219-2.219-3.333-5.542-3.333-7.76 0-6.651 4.438-11.083 12.197-12.192v23.274"/><path fill="#FFC500" d="M54.353 103.787h14.416v132.995H54.353z"/><path opacity=".05" fill="#231F20" d="M92.039 168.061c-4.438-3.323-9.98-6.646-19.947-7.755l-3.323-.666v-25.727c5.26.482 11.625 2.565 15.509 6.44l13.303-12.187c-7.761-7.76-16.624-11.083-28.812-12.192v-12.192H61.56v132.989h7.208v-16.625c17.729-2.207 31.031-12.187 31.031-29.914 0-8.877-2.22-16.625-7.76-22.171m-23.271 33.816v-23.355c3.323.682 5.933 1.027 7.749 2.834 2.22 2.22 3.334 5.543 3.334 8.875 0 6.019-3.831 10.087-11.083 11.646"/><path fill="#229ABA" d="M308.719 125.348c3.612 0 7.233.905 9.944 2.711 1.812.905 6.334 4.522 8.144 4.522 4.521 0 5.424-7.233 2.713-11.756-6.334-9.949-28.033-9.044-37.078-6.333-16.284 6.333-24.42 20.804-27.133 36.176h15.369c2.718-14.47 11.763-27.13 28.041-25.32"/><path fill="#FFC500" d="M305.098 176.063h-26.223c0-4.522-.908-10.021 0-14.542h26.223l.125-.044c3.479-.261 3.453-10.807-.125-10.807h-49.742c-3.612 0-3.612 10.851 0 10.851h9.043v14.471h-9.043c-3.612 0-3.612 10.854 0 10.854h9.043l.011.026h40.839c4.326-.265 3.427-10.809-.151-10.809z"/><path fill="#229ABA" d="M321.377 205.844c-5.425 2.711-10.847 4.522-17.181 4.522-14.477-.91-21.709-9.884-24.422-23.449h25.322l.149-.044h-40.839c2.721 17.17 11.764 31.628 29.834 35.249 12.667 1.812 37.085 0 36.178-17.187.002-6.333-6.322-.901-9.041.909"/><path d="M305.098 161.524l.125-.044c3.479-.265 3.453-10.811-.125-10.811h-13.256v10.855h13.256zm0 25.393l.149-.044c4.328-.266 3.429-10.811-.149-10.811h-13.256v10.854h13.256zm16.279 18.927c-5.425 2.711-10.847 4.522-17.181 4.522-4.944-.31-8.989-1.634-12.354-3.683v14.74c.813.221 1.555.521 2.4.698 12.667 1.812 37.085 0 36.178-17.187 0-6.332-6.324-.9-9.043.91m-12.658-80.496c3.612 0 7.233.905 9.944 2.711 1.812.905 6.334 4.522 8.144 4.522 4.521 0 5.424-7.233 2.713-11.756-6.334-9.949-28.033-9.044-37.078-6.333l-.6.283v15.275c4.388-3.51 9.928-5.47 16.877-4.702" opacity=".05" fill="#231F20"/><path fill="#229ABA" d="M154.892 270.35c20.008 6.662 63.379 8.34 78.379-10.016 3.338-5 6.679-21.677-1.66-23.339-3.34-1.677-8.729.569-15.018 5-5 3.339-13.338 6.662-20.016 8.339-13.341 3.339-30.018 3.339-41.687-6.677-10.008-8.339-13.347-25.017-6.669-36.694 1.515-1.531 2.378-3.648 5-6.662h-33.354c-10.008 30.017 8.34 60.033 35.025 70.049"/><path fill="#FFC500" d="M238.271 158.608c6.679 0 6.679-18.347 0-18.347H116.527c-6.669 0-6.669 18.347 0 18.347h121.744z"/><path fill="#229ABA" d="M196.578 78.551c-16.679-5-51.694-6.669-65.033 8.339-3.338 5.008-6.677 21.686 1.662 23.347 5.008 1.668 20.016-10 25.016-11.67 23.356-6.669 63.372 8.339 43.372 38.355 0 0-.455 1.156-1.678 3.339h30.018c8.336-26.686-6.664-53.371-33.357-61.71m23.353 80.057h-48.37c-3.323 1.662-31.678 16.678-40.017 23.348h51.692"/><path fill="#FFC500" d="M238.271 181.955H116.529c-6.669 0-6.669 18.346 0 18.346h121.743c6.677 0 6.677-16.676-.001-18.346"/><path opacity=".05" fill="#231F20" d="M231.611 236.995c-3.34-1.677-8.729.569-15.018 5-5 3.339-13.338 6.662-20.016 8.339-5.961 1.499-12.621 2.134-19.171 1.678v22.442c20.669 1.71 45.277-1.173 55.863-14.12 3.34-5 6.68-21.677-1.658-23.339m6.66-55.04h-55.033c1.679 0 36.693-23.347 36.693-23.347h18.34c6.678 0 6.678-18.347 0-18.347h-8.338c8.338-26.686-6.662-53.372-33.354-61.71-5.05-1.515-11.857-2.63-19.17-3.167V97.5c20.26 2.736 39.252 16.808 24.186 39.422 0 0-.455 1.156-1.678 3.339h-22.508v60.04h60.863c6.677 0 6.677-16.676-.001-18.346"/></svg>