<svg xmlns="http://www.w3.org/2000/svg" width="213" height="266" viewBox="0 0 213 266"><path fill-rule="evenodd" clip-rule="evenodd" d="M106.4 134.1c29.4 0 53.2-30.8 53.2-79.3C159.6 6.4 135.8 2 106.4 2 77 2 53.2 6.4 53.2 54.8c0 48.5 23.8 79.3 53.2 79.3zm.1 26.4C40.2 160.5 0 177.7 0 200v66h213v-66c0-22.3-40.2-39.5-106.5-39.5z" opacity=".15"/><path fill-rule="evenodd" clip-rule="evenodd" fill="#FFF" d="M106.4 132.1c29.4 0 53.2-30.8 53.2-79.3C159.6 4.4 135.8 0 106.4 0 77 0 53.2 4.4 53.2 52.8c0 48.5 23.8 79.3 53.2 79.3zm.1 26.4C40.2 158.5 0 175.7 0 198v66h213v-66c0-22.3-40.2-39.5-106.5-39.5z"/></svg>