<svg xmlns="http://www.w3.org/2000/svg" width="100" height="100" viewBox="0 0 100 100"><path fill="#fff" d="M66.5 32a7.457 7.457 0 0 1-3.825-1.057L41.324 48.4c.43.946.676 1.994.676 3.1 0 .97-.19 1.893-.525 2.744l20.314 15.424A7.499 7.499 0 0 1 74 75.5c0 4.143-3.357 7.5-7.5 7.5S59 79.643 59 75.5c0-.902.168-1.766.461-2.568L39.063 57.443A7.457 7.457 0 0 1 34.5 59a7.499 7.499 0 0 1-7.5-7.5 7.5 7.5 0 0 1 11.76-6.17l21.135-17.279A7.5 7.5 0 0 1 66.5 17c4.143 0 7.5 3.358 7.5 7.5S70.643 32 66.5 32z"/></svg>