<svg xmlns="http://www.w3.org/2000/svg" width="50" height="50" viewBox="0 0 50 50"><path fill-rule="evenodd" clip-rule="evenodd" fill="#fff" d="M25 47C12.85 47 3 37.15 3 25S12.85 3 25 3s22 9.85 22 22-9.85 22-22 22zm0-40.229C14.933 6.771 6.771 14.933 6.771 25S14.933 43.229 25 43.229 43.229 35.067 43.229 25 35.067 6.771 25 6.771zM25 38.2c-6.596 0-11.943-4.021-11.943-7.429 0-.473.125-.93.319-1.371 1.21 2.746 5.943 6.057 11.624 6.057 5.68 0 10.413-3.311 11.623-6.057.195.441.32.898.32 1.371 0 3.409-5.347 7.429-11.943 7.429zm6.299-13.821a3.144 3.144 0 1 1 0-6.287 3.144 3.144 0 0 1 0 6.287zm-12.572 0a3.143 3.143 0 1 1 0-6.286 3.143 3.143 0 0 1 0 6.286z"/></svg>