<svg xmlns="http://www.w3.org/2000/svg" width="100" height="100" viewBox="0 0 100 100"><path fill="#fff" d="M95.057 51.09c-3.258-.063-2.406-3.484-2.697-5.754C89.23 20.729 77.9 9.117 53.335 5.359c-2.036-.31-5.134.131-4.981-2.544.227-3.971 3.912-2.494 5.696-2.749C77.646.86 97.962 22.338 97.675 45.508c-.029 2.275.794 5.647-2.618 5.582zM59.534 23.855c6.725-.166 14.604 7.848 14.491 14.779.074 1.898-.133 3.895-2.389 4.16-1.627.193-2.697-1.167-2.865-2.838-.617-6.173-3.893-9.821-10.119-10.819-1.861-.296-3.694-.89-2.824-3.398.581-1.676 2.127-1.843 3.706-1.884zm-7.427-9.877c.551-3.261 3.668-2.155 6.035-1.872 15.153 1.811 27.539 14.889 27.414 29.256-.228 1.699.768 4.612-1.992 5.027-3.735.564-3.008-2.829-3.373-5.011-2.494-14.968-7.778-20.458-22.948-23.829-2.237-.499-5.714-.153-5.136-3.571zm1.8 56.322c3.948 1.777 7.721 1.601 10.417-2.458 4.796-7.23 10.688-6.88 17.121-2.387 3.225 2.254 6.502 4.454 9.566 6.91 4.168 3.338 9.432 6.113 6.944 13.111-2.593 7.273-11.554 14.602-19.204 14.521-1.08-.29-3.21-.617-5.119-1.438C40.025 84.174 15.616 60.602 1.746 26.736c-4.649-11.348.21-20.934 11.929-24.854 2.104-.704 4.161-.75 6.233.007 4.999 1.827 17.658 19.153 17.936 24.335.222 3.978-2.497 6.131-5.191 7.949-5.098 3.44-5.124 7.803-2.946 12.666 4.921 10.997 13.322 18.554 24.2 23.461z"/></svg>