<svg xmlns="http://www.w3.org/2000/svg" width="100" height="100" viewBox="0 0 100 100"><path fill="#fff" d="M54.072 28.375c-11.97-2.232-23.479 5.739-25.697 17.807-.155.851-.261 1.69-.323 2.528a21.35 21.35 0 0 0 .062 3.704c.938 9.596 8.061 17.81 17.93 19.649 5.725 1.067 11.341-.198 15.89-3.124a22.322 22.322 0 0 0 2.788-2.13 22.063 22.063 0 0 0 7.027-12.541c2.218-12.067-5.696-23.66-17.677-25.893zm15.713 25.526a20.097 20.097 0 0 1-6.391 11.4 19.021 19.021 0 0 1-2.983 2.197 53.493 53.493 0 0 0-1.121-.977c-2.084-1.759-3.203-4.174-5.478-5.836-2.383-1.734-8.342 1.045-10.437-.593-5.792-4.517-8.572-9.38-13.319-8.424a20.487 20.487 0 0 1 .132-4.138c.04-.33.091-.658.152-.985 1.895-10.32 11.304-17.355 21.473-16.449-1.879 4.271-6.167 7.953-4 12.325 1.615 3.258 6.195-4.075 10.658 4.53 2.076 12.022 10.082 8.02 11.426.379a20.26 20.26 0 0 1-.112 6.571z"/></svg>