<svg xmlns="http://www.w3.org/2000/svg" width="60" height="60" viewBox="0 0 60 60"><defs><style>.a,.b{fill:none;stroke:#e9eff2;stroke-linecap:round;stroke-linejoin:round;stroke-width:2px}.a{fill-rule:evenodd}</style></defs><title>users</title><path class="a" d="M23 41v-4.67c.25-2.51 3.52-4.32 7.5-4.32s7.27 1.8 7.5 4.32"/><path class="b" d="M38 40v1"/><path class="a" d="M30 28c-2.32 0-3-2.3-3-4.78S27.69 20 30 20s3 .73 3 3.21S32.32 28 30 28zM21.63 25.71A4.39 4.39 0 0 1 20 26c-2.34 0-3-1.94-3-4.15S17.69 19 20 19c2.06 0 2.59.25 3 2.09M14 37v-3c.28-2.23 2.17-4 5.69-4a9.63 9.63 0 0 1 1.28.08M38.36 25.71A4.39 4.39 0 0 0 40 26c2.34 0 3-1.94 3-4.15S42.3 19 40 19c-2.06 0-2.59.25-3 2.09M46 37v-3c-.28-2.23-2.17-4-5.69-4a9.63 9.63 0 0 0-1.28.08"/></svg>