<svg xmlns="http://www.w3.org/2000/svg" width="60" height="60" viewBox="0 0 60 60"><defs><style>.a,.b{fill:none;stroke:#e9eff2;stroke-linecap:round;stroke-linejoin:round;stroke-width:2px}.a{fill-rule:evenodd}</style></defs><title>protection</title><path class="a" d="M37.5 41s-5.89-6.22-6.5-10.15A3.9 3.9 0 0 0 34.74 28a18.36 18.36 0 0 0 2.76.33 18.36 18.36 0 0 0 2.76-.33A3.9 3.9 0 0 0 44 30.85C43.39 34.78 37.5 41 37.5 41zM26 28c-2.76 0-4-2.24-4-5s1.24-4 4-4 4 1.24 4 4-1.24 5-4 5z"/><path class="b" d="M26 41h-1"/><path class="a" d="M21 41h-3a1 1 0 0 1-1-1v-3c0-2.76 4-5 9-5h1"/></svg>