<svg xmlns="http://www.w3.org/2000/svg" width="60" height="60" viewBox="0 0 60 60"><defs><style>.a,.b{fill:none;stroke:#e9eff2;stroke-linecap:round;stroke-linejoin:round;stroke-width:2px}.a{fill-rule:evenodd}</style></defs><title>cog</title><path class="a" d="M36.9 31a2.43 2.43 0 0 0 2.1 2.41 10.92 10.92 0 0 1-1.29 3.19 2.29 2.29 0 0 0-3.12.2 2.56 2.56 0 0 0-.19 3.26 10 10 0 0 1-3.06 1.35 2.35 2.35 0 0 0-4.69 0 10 10 0 0 1-3.07-1.33 2.56 2.56 0 0 0-.18-3.28 2.29 2.29 0 0 0-3.14-.19A11 11 0 0 1 19 33.4a2.48 2.48 0 0 0 0-4.9 10.92 10.92 0 0 1 1.29-3.19 2.29 2.29 0 0 0 3.12-.2 2.56 2.56 0 0 0 .19-3.26 10 10 0 0 1 3.06-1.35 2.35 2.35 0 0 0 4.69 0 10 10 0 0 1 3.07 1.33 2.56 2.56 0 0 0 .18 3.28 2.29 2.29 0 0 0 3.14.19A11 11 0 0 1 39 28.51 2.44 2.44 0 0 0 36.9 31z"/><circle class="b" cx="29" cy="31" r="3"/></svg>