<svg xmlns="http://www.w3.org/2000/svg" width="230" height="230" viewBox="0 0 230 230"><defs><style>.a{fill:#9b7b62}.b{fill:#edd2b5}.c{opacity:.1;isolation:isolate}.d{fill:#eaeaea}.e{fill:#ffd161}.f{fill:#f7f7f7}.g,.n{opacity:.2}.g{fill:url(#a)}.h{fill:#333}.i{opacity:.8}.j{fill:#cdd0d5}.k{opacity:.02}.l{opacity:.5}.m{opacity:.15}.n{fill:#fff}.o,.q,.r{fill:none;stroke-miterlimit:10}.o,.q{stroke:#272622}.o{stroke-width:1px}.p{fill:#272622}.q{stroke-linecap:round;stroke-width:1.33px}.r{stroke:#deece3;stroke-width:7.44px}.s{fill:#ffc687}</style><linearGradient id="a" x1="108.63" y1="55.3" x2="97.91" y2="41.19" gradientUnits="userSpaceOnUse"><stop offset="0"/><stop offset="1" stop-color="#fff" stop-opacity="0"/></linearGradient></defs><title>other</title><path class="a" d="M14.65 55.4h200.71v156.56H14.65z"/><path class="b" d="M200.11 51.4H29.91l-15.26 4h200.71l-15.25-4z"/><ellipse class="c" cx="104.14" cy="53.28" rx="7.99" ry="1.11"/><path class="d" d="M109.49 34s.06-14.4-15.23-16c0 0-4.28-.36-2.49 2.53s2.07 3 2.23 4l-.08 2.08 11.47 11.85 5.92-2.77z"/><path class="e" d="M118.58 32.54l1.67.54-1.75.14.08-.68zM105.79 50.48l-.23-.24-2.06 1.98-1.22.18.05.33.92-.14-.41.65.29.17.35-.57.11.65.33-.06-.17-1 2.04-1.95zM106.27 49.81l.32.1-.86 2.73.37 1.17-.31.1-.28-.88-.41.65-.28-.17.36-.58-.63.19-.1-.31.97-.3.85-2.7z"/><path class="f" d="M115.62 29.52c-3.08-.08-5.24 3.62-5.24 3.62-.14.63-2.6 3.93-3.52 3.14l-.27-.56c-1.26-5.47-5.3-8.34-7.88-9.78a8 8 0 0 0-1.05-.49 28.45 28.45 0 0 0-5.68-3 35.21 35.21 0 0 0-8.2-2.06 39.23 39.23 0 0 0-4.22-.3 33.54 33.54 0 0 0-3.6.06 10.19 10.19 0 0 0-3.22.6 2 2 0 0 0-1.46 1.69c0 .78.59 1.18 1.26 1.46a10.68 10.68 0 0 0 1.8.54 6 6 0 0 0-.91.31A2.36 2.36 0 0 0 72 26c-.49 1.59 1.52 2 2.62 2.19s2.17.35 3.26.48a3.51 3.51 0 0 0-.59.15 6 6 0 0 0-2.49 1.09 1.76 1.76 0 0 0-.65 1.22 1.68 1.68 0 0 0 .46 1.27 3.15 3.15 0 0 0 1.56.67 15.66 15.66 0 0 0 2 .25l1.42.09a1.78 1.78 0 0 0-.21.3 1.93 1.93 0 0 0 .25 2 4.21 4.21 0 0 0 2.51 1.06c.92.17 1.85.26 2.77.38l.94.12c.5 3.06 5.61 5.81 5.61 5.81s4.54.69 2.77 1.69a15.45 15.45 0 0 0-12.07 10.97l-.2.62a21.13 21.13 0 0 0-.53 2.23 18.28 18.28 0 0 0-.28 1.93 5.52 5.52 0 0 0 0 1.77 1.08 1.08 0 0 0 .77.93c.42.07.69-.21.89-.55a5.84 5.84 0 0 0 .45-.92 3.24 3.24 0 0 0 .08.52 1.28 1.28 0 0 0 .57.88c.81.4 1.19-.64 1.4-1.21s.38-1.13.54-1.7a1.88 1.88 0 0 0 0 .33 3.22 3.22 0 0 0 .43 1.43 1 1 0 0 0 .6.46.91.91 0 0 0 .72-.13 1.7 1.7 0 0 0 .49-.78 8.17 8.17 0 0 0 .29-1c.57-.15 1.1-.19 1.63 1.1.85 2.08 4.31 1.31 4.31 1.31 1.85-.31 3.16-9.47 3.16-11.94 5 1 9.47.62 13.63-2.39s2.69-10.27 6-13.09c3.13-2.82 1.59-5.94-1.49-6.02z"/><path class="g" d="M111.11 48.66c-4.16 3-8.63 3.39-13.63 2.39 0 2.46-1.31 11.63-3.16 11.94 0 0-3.47.77-4.31-1.31s-1.71-.7-2.71-1-.45-1.3-1.3-1.76-4.31-.15-4.08-2.08a15.35 15.35 0 0 1 12.32-12c1.77-1-2.77-1.69-2.77-1.69s-5.16-2.77-5.62-5.85l-.46-3.08s-7.32-6-7.24-7.78 3.47-2.31 8.4-2.23 9.55.31 12.17 1.77 6.74 4.39 7.93 10c.65 1.75 3.58-2.12 3.74-2.81 0 0 2.16-3.7 5.24-3.62s4.62 3.2 1.54 6c-3.36 2.84-1.9 10.11-6.06 13.11z"/><circle class="h" cx="116.66" cy="31.59" r=".45"/><g class="i"><path class="j" d="M103.71 38.35c-6.25-11.6-17.43-15.73-30-16.14 12.75.1 24.07 4.38 30 16.14-.45-.83-.71-1.42 0 0z"/></g><g class="i"><path class="j" d="M102.41 39.29C96 29 85.88 26 74.13 26.21c11.66-.55 22.12 2.58 28.28 13.08-.51-.82-.64-1.1 0 0z"/></g><g class="i"><path class="j" d="M100.67 39.43C94.37 31.73 85.6 30 76 31.14c9.43-1.45 18.57.17 24.68 8.29-1.68-2.03-1.12-1.43-.01 0z"/></g><g class="i"><path class="j" d="M100 41.39c-5-5.84-12-7.29-19.35-6.77 7.34-.88 14.68.68 19.35 6.77-.67-.83-1.49-2 0 0z"/></g><g class="i"><path class="j" d="M98.52 41.77c-3.2-2.83-6.26-3.57-10.66-3.56 4.28-.4 7.75.5 10.66 3.56-.71-.63-.66-.7 0 0z"/></g><g class="i"><path class="j" d="M92.53 46.9c-6.68 2.83-9.35 8.5-10.22 15.39.71-7 3.59-12.77 10.22-15.39-.47.2-.8.32 0 0z"/></g><g class="i"><path class="j" d="M93.73 48.06c-6.05 2.54-8.56 7.67-9.49 14 .73-6.28 3.33-11.6 9.49-14-.48.2-.65.25 0 0z"/></g><g class="i"><path class="j" d="M93.65 49c-4.71 2.72-6.35 7.31-6.65 12.47 0-5.08 1.91-10 6.61-12.47-1.19.71-.85.47.04 0z"/></g><g class="i"><path class="j" d="M94.64 49.51c-3.57 2.16-5 5.77-5.32 9.75.18-4.05 1.49-7.7 5.32-9.75-.51.31-1.2.65 0 0z"/></g><path d="M74.54 24.35s.51 0 1.42-.05a35.18 35.18 0 0 1 3.74.15c.77.09 1.61.16 2.48.32s1.8.31 2.74.53 1.9.52 2.89.78 1.94.67 2.89 1.09a25.71 25.71 0 0 1 2.75 1.41l1.3.78c.43.26.8.59 1.2.87l1.14.86c.35.31.67.63 1 .94a14 14 0 0 1 1.73 1.81c.49.6.94 1.15 1.32 1.66l.84 1.4.73 1.22-.77-1.19-.94-1.39-1.35-1.61a13.86 13.86 0 0 0-1.74-1.77c-.33-.3-.65-.62-1-.92l-1.11-.84c-.39-.28-.77-.59-1.19-.85l-1.3-.76a25.83 25.83 0 0 0-2.74-1.37c-.93-.43-1.91-.76-2.85-1.11s-1.91-.62-2.86-.81-1.85-.43-2.72-.56-1.7-.25-2.47-.35c-1.53-.15-2.82-.25-3.72-.26s-1.41.02-1.41.02z" class="k"/><path d="M77.57 28.7s.43-.07 1.19-.11c.38 0 .84 0 1.38-.06s1.14 0 1.79 0 1.36.1 2.11.2 1.52.25 2.33.39 1.63.39 2.45.65a22.86 22.86 0 0 1 2.45.92l1.19.55 1.13.65a16.77 16.77 0 0 1 2.11 1.41 15.29 15.29 0 0 1 1.81 1.52c.27.26.55.49.8.75l.67.78c.42.5.84.94 1.14 1.38l.76 1.15.66 1-.7-1-.8-1.12c-.31-.43-.75-.84-1.17-1.34l-.68-.76c-.25-.25-.53-.48-.81-.73a15.1 15.1 0 0 0-1.81-1.49 16.55 16.55 0 0 0-2.1-1.36l-1.12-.63-1.2-.45a22.59 22.59 0 0 0-2.41-.94c-.81-.27-1.63-.48-2.42-.68S84.76 29 84 29s-1.44-.18-2.09-.23a30.46 30.46 0 0 0-3.15-.09c-.76-.03-1.19.02-1.19.02z" class="k"/><path d="M79.35 33.3a10.34 10.34 0 0 1 1-.25 18.59 18.59 0 0 1 2.73-.38c.57 0 1.19-.06 1.84-.05s1.34.07 2.06.12a21.68 21.68 0 0 1 2.17.38l1.1.27c.36.11.72.24 1.08.36a16.14 16.14 0 0 1 2.09.89 17.85 17.85 0 0 1 1.91 1.1A16.16 16.16 0 0 1 97 37a11.84 11.84 0 0 1 1.35 1.25 11 11 0 0 1 1.06 1.13l.74.95.64.82-.68-.79-.78-.91a14.08 14.08 0 0 0-1.1-1.09 11.67 11.67 0 0 0-1.37-1.2A19.89 19.89 0 0 0 95.22 36a17.56 17.56 0 0 0-1.89-1.07 16 16 0 0 0-2.08-.93c-.36-.12-.71-.26-1.07-.37l-1.09-.27A21.43 21.43 0 0 0 87 33c-.7-.06-1.38-.15-2-.16s-1.26 0-1.83 0a21.58 21.58 0 0 0-2.73.26 10.33 10.33 0 0 0-1.09.2z" class="k"/><path d="M85.76 37a6.67 6.67 0 0 1 .65-.17 11.52 11.52 0 0 1 1.75-.27h1.19c.42 0 .87 0 1.33.07a14 14 0 0 1 1.4.24 9.83 9.83 0 0 1 1.41.4 10.4 10.4 0 0 1 1.35.58 11.51 11.51 0 0 1 1.23.71 9.91 9.91 0 0 1 1.06.8 7.65 7.65 0 0 1 .87.81 6.7 6.7 0 0 1 .68.74l.47.62.41.54-.44-.5-.51-.57a9.79 9.79 0 0 0-.71-.69 7.47 7.47 0 0 0-.89-.76c-.34-.23-.67-.53-1.06-.75a11.25 11.25 0 0 0-1.22-.68 10.29 10.29 0 0 0-1.33-.55 9.56 9.56 0 0 0-1.4-.43 13.73 13.73 0 0 0-1.37-.26c-.45 0-.89-.1-1.3-.11s-.81 0-1.17 0a12 12 0 0 0-2.4.23z" class="k"/><circle class="l" cx="101.25" cy="77.72" r="5.11"/><path class="m" d="M101.25 82a5.1 5.1 0 0 1-5.09-4.69v.42a5.11 5.11 0 1 0 10.21 0v-.42a5.1 5.1 0 0 1-5.12 4.69z"/><path class="n" d="M101.25 73a5.1 5.1 0 0 1 5.1 4.9v-.21a5.11 5.11 0 0 0-10.21 0v.21a5.1 5.1 0 0 1 5.11-4.9z"/><circle class="l" cx="115.01" cy="77.72" r="5.11"/><path class="m" d="M115 82a5.1 5.1 0 0 1-5.09-4.69v.42a5.11 5.11 0 0 0 10.21 0v-.42A5.1 5.1 0 0 1 115 82z"/><path class="n" d="M115 73a5.1 5.1 0 0 1 5.1 4.9v-.21a5.11 5.11 0 0 0-10.21 0v.21A5.1 5.1 0 0 1 115 73z"/><circle class="l" cx="128.77" cy="77.72" r="5.11"/><path class="m" d="M128.77 82a5.1 5.1 0 0 1-5.09-4.69v.42a5.11 5.11 0 1 0 10.21 0v-.42a5.1 5.1 0 0 1-5.12 4.69z"/><path class="n" d="M128.77 73a5.1 5.1 0 0 1 5.1 4.9v-.21a5.11 5.11 0 0 0-10.21 0v.21a5.1 5.1 0 0 1 5.11-4.9z"/><path class="o" d="M65.66 154.23h30.11v30.11H65.66z"/><path class="p" d="M69.57 179.39h22.29v2.23H69.57zM72.71 162.85h4.89v14.73h-4.89zM70.37 162.42h9.32l-4.66-5.48-4.66 5.48zM83.56 162.85h4.89v14.73h-4.89zM81.22 162.42h9.33l-4.67-5.48-4.66 5.48z"/><path class="o" d="M100.02 154.23h30.11v30.11h-30.11z"/><path class="p" d="M115.53 181.62v-12.36h-1.05v12.36h-5.05v1.05H120.58v-1.05h-5.05z"/><path class="p" d="M115.54 156.94l-1.91 2.83h.75l-2.53 3.29 1.48-2.83h-1l1.42-3.3H103.2a11.81 11.81 0 0 0 23.62 0z"/><path class="o" d="M134.25 154.23h30.11v30.11h-30.11z"/><path class="p" d="M141.32 165.62a4.16 4.16 0 0 1 4.1 3.13 4.41 4.41 0 0 1 7.62 0 4.16 4.16 0 0 1 4.1-3.13 3.82 3.82 0 0 1 3.6 2.47 11.56 11.56 0 0 0-23 0 3.82 3.82 0 0 1 3.58-2.47z"/><path class="q" d="M149.23 156.45v22.67s0 3.19-3 3.19a3.14 3.14 0 0 1-3.24-2.88"/><path class="r" d="M14.65 109c-7.44 0-17.52 17.14 6 16.72"/><path class="s" d="M18.22 129.27s4.67 3.67 7.74 2.5 4.39-6.09 3.23-9.37c-1.28-2.91-4.38-3.88-4.94-3.39-.09-1.33-.83-3.14-2.95-2.09a7.41 7.41 0 0 0-3.94 5.31c-.2 1.96.86 7.04.86 7.04z"/><path class="r" d="M215.35 109c7.44 0 17.52 17.14-6 16.72"/><path class="s" d="M211.78 129.27s-4.67 3.67-7.74 2.5-4.39-6.09-3.23-9.37c1.28-2.91 4.38-3.88 4.94-3.39.09-1.33.83-3.14 2.95-2.09a7.41 7.41 0 0 1 3.94 5.31c.2 1.96-.86 7.04-.86 7.04z"/></svg>