<svg xmlns="http://www.w3.org/2000/svg" width="250" height="250" viewBox="0 0 250 250"><path fill-rule="evenodd" clip-rule="evenodd" d="M124.5 247C56.8 247 2 192.2 2 124.5S56.8 2 124.5 2 247 56.8 247 124.5 192.2 247 124.5 247zM188 116.9c0-4.7-3.9-8.9-8.6-8.9H142V71.3c0-4.7-3.5-8.3-8.2-8.3h-16.9c-4.7 0-8.9 3.6-8.9 8.3V108H71.3c-4.7 0-8.3 4.2-8.3 8.9v16.9c0 4.7 3.6 8.2 8.3 8.2H108v37.4c0 4.7 4.2 8.6 8.9 8.6h16.9c4.7 0 8.2-3.9 8.2-8.6V142h37.4c4.7 0 8.6-3.5 8.6-8.2v-16.9z" opacity=".15"/><path fill-rule="evenodd" clip-rule="evenodd" fill="#FFF" d="M124.5 245C56.8 245 2 190.2 2 122.5S56.8 0 124.5 0 247 54.8 247 122.5 192.2 245 124.5 245zM188 114.9c0-4.7-3.9-8.9-8.6-8.9H142V69.3c0-4.7-3.5-8.3-8.2-8.3h-16.9c-4.7 0-8.9 3.6-8.9 8.3V106H71.3c-4.7 0-8.3 4.2-8.3 8.9v16.9c0 4.7 3.6 8.2 8.3 8.2H108v37.4c0 4.7 4.2 8.6 8.9 8.6h16.9c4.7 0 8.2-3.9 8.2-8.6V140h37.4c4.7 0 8.6-3.5 8.6-8.2v-16.9z"/></svg>