<svg xmlns="http://www.w3.org/2000/svg" xmlns:xlink="http://www.w3.org/1999/xlink" viewBox="0 0 230 230"><linearGradient id="a" gradientUnits="userSpaceOnUse" x1="114.739" y1="192.423" x2="114.739" y2="72.664"><stop offset="0" stop-color="#f1a953"/><stop offset=".247" stop-color="#ea9a4c"/><stop offset=".701" stop-color="#e08541"/><stop offset=".996" stop-color="#dc7d3d"/></linearGradient><path fill="url(#a)" d="M16.8 72.7h196v119.8h-196z"/><path d="M16.8 189.9h195.9v.5H16.8z" opacity=".1"/><path fill="#FFF" d="M16.8 190.2h195.9v.5H16.8z" opacity=".1"/><path d="M16.8 186.5h195.9v.5H16.8z" opacity=".1"/><path fill="#FFF" d="M16.8 186.8h195.9v.5H16.8z" opacity=".1"/><path d="M16.8 183.1h195.9v.5H16.8z" opacity=".1"/><path fill="#FFF" d="M16.8 183.3h195.9v.5H16.8z" opacity=".1"/><path d="M16.8 179.7h195.9v.5H16.8z" opacity=".1"/><path fill="#FFF" d="M16.8 179.9h195.9v.5H16.8z" opacity=".1"/><path d="M16.8 176.2h195.9v.5H16.8z" opacity=".1"/><path fill="#FFF" d="M16.8 176.5h195.9v.5H16.8z" opacity=".1"/><path d="M16.8 172.8h195.9v.5H16.8z" opacity=".1"/><path fill="#FFF" d="M16.8 173.1h195.9v.5H16.8z" opacity=".1"/><path d="M16.8 169.4h195.9v.5H16.8z" opacity=".1"/><path fill="#FFF" d="M16.8 169.6h195.9v.5H16.8z" opacity=".1"/><path d="M16.8 166h195.9v.5H16.8z" opacity=".1"/><path fill="#FFF" d="M16.8 166.2h195.9v.5H16.8z" opacity=".1"/><path d="M16.8 162.6h195.9v.5H16.8z" opacity=".1"/><path fill="#FFF" d="M16.8 162.8h195.9v.5H16.8z" opacity=".1"/><path d="M16.8 159.1h195.9v.5H16.8z" opacity=".1"/><path fill="#FFF" d="M16.8 159.4h195.9v.5H16.8z" opacity=".1"/><path d="M16.8 155.7h195.9v.5H16.8z" opacity=".1"/><path fill="#FFF" d="M16.8 156h195.9v.5H16.8z" opacity=".1"/><path d="M16.8 152.3h195.9v.5H16.8z" opacity=".1"/><path fill="#FFF" d="M16.8 152.5h195.9v.5H16.8z" opacity=".1"/><path d="M16.8 148.9h195.9v.5H16.8z" opacity=".1"/><path fill="#FFF" d="M16.8 149.1h195.9v.5H16.8z" opacity=".1"/><g><path d="M16.8 145.4h195.9v.5H16.8z" opacity=".1"/><path fill="#FFF" d="M16.8 145.7h195.9v.5H16.8z" opacity=".1"/></g><g><path d="M16.8 142h195.9v.5H16.8z" opacity=".1"/><path fill="#FFF" d="M16.8 142.3h195.9v.5H16.8z" opacity=".1"/></g><g><path d="M16.8 138.6h195.9v.5H16.8z" opacity=".1"/><path fill="#FFF" d="M16.8 138.9h195.9v.5H16.8z" opacity=".1"/></g><g><path d="M16.8 135.2h195.9v.5H16.8z" opacity=".1"/><path fill="#FFF" d="M16.8 135.4h195.9v.5H16.8z" opacity=".1"/></g><g><path d="M16.8 131.8h195.9v.5H16.8z" opacity=".1"/><path fill="#FFF" d="M16.8 132h195.9v.5H16.8z" opacity=".1"/></g><g><path d="M16.8 128.3h195.9v.5H16.8z" opacity=".1"/><path fill="#FFF" d="M16.8 128.6h195.9v.5H16.8z" opacity=".1"/></g><g><path d="M16.8 124.9h195.9v.5H16.8z" opacity=".1"/><path fill="#FFF" d="M16.8 125.2h195.9v.5H16.8z" opacity=".1"/></g><g><path d="M16.8 121.5h195.9v.5H16.8z" opacity=".1"/><path fill="#FFF" d="M16.8 121.8h195.9v.5H16.8z" opacity=".1"/></g><g><path d="M16.8 118.1h195.9v.5H16.8z" opacity=".1"/><path fill="#FFF" d="M16.8 118.3h195.9v.5H16.8z" opacity=".1"/></g><g><path d="M16.8 114.7h195.9v.5H16.8z" opacity=".1"/><path fill="#FFF" d="M16.8 114.9h195.9v.5H16.8z" opacity=".1"/></g><g><path d="M16.8 111.2h195.9v.5H16.8z" opacity=".1"/><path fill="#FFF" d="M16.8 111.5h195.9v.5H16.8z" opacity=".1"/></g><g><path d="M16.8 107.8h195.9v.5H16.8z" opacity=".1"/><path fill="#FFF" d="M16.8 108.1h195.9v.5H16.8z" opacity=".1"/></g><g><path fill="#B86434" d="M96.6 85.1h100.2v84.8H96.6z"/><linearGradient id="b" gradientUnits="userSpaceOnUse" x1="146.641" y1="167.893" x2="146.641" y2="87.118"><stop offset=".004" stop-color="#fff"/><stop offset="1" stop-color="#bb8c6c"/></linearGradient><path fill="url(#b)" d="M98.6 87.1v80.8h96.2V87.1H98.6zm92.1 76.8h-88.2V91.1h88.2v72.8z"/><linearGradient id="c" gradientUnits="userSpaceOnUse" x1="103.459" y1="163.886" x2="103.459" y2="91.124"><stop offset=".004" stop-color="#fff"/><stop offset="1" stop-color="#d2d1d0"/></linearGradient><path fill="url(#c)" d="M102.6 91.1l1.8 1.8-.1 69.3-1.7 1.7z"/><linearGradient id="d" gradientUnits="userSpaceOnUse" x1="-94.181" y1="163.886" x2="-94.181" y2="91.117" gradientTransform="matrix(-1 0 0 1 95.659 0)"><stop offset=".004" stop-color="#fff"/><stop offset="1" stop-color="#d2d1d0"/></linearGradient><path fill="url(#d)" d="M190.8 91.1l-1.8 1.8-.1 69.2 1.8 1.8z"/><linearGradient id="e" gradientUnits="userSpaceOnUse" x1="-241.93" y1="362.608" x2="-243.722" y2="362.608" gradientTransform="matrix(0 1 1 0 -215.968 334.847)"><stop offset="0" stop-color="#d2d1d0"/><stop offset=".485" stop-color="#e6e5e5"/><stop offset=".996" stop-color="#fff"/></linearGradient><path fill="url(#e)" d="M102.6 91.1l1.8 1.8H189l1.7-1.8z"/><linearGradient id="f" gradientUnits="userSpaceOnUse" x1="104.589" y1="251.378" x2="102.797" y2="251.378" gradientTransform="matrix(0 -1 -1 0 398.019 266.683)"><stop offset="0" stop-color="#d2d1d0"/><stop offset=".508" stop-color="#e7e6e6"/><stop offset=".996" stop-color="#fff"/></linearGradient><path fill="url(#f)" d="M190.7 163.9l-1.8-1.8h-84.6l-1.7 1.8z"/><linearGradient id="g" gradientUnits="userSpaceOnUse" x1="183.654" y1="162.093" x2="183.654" y2="92.91"><stop offset="0" stop-color="#515151"/><stop offset=".458" stop-color="#3b3b3b"/><stop offset=".996" stop-color="#1c1c1c"/></linearGradient><path fill="url(#g)" d="M178.3 126.7l10.6 35.4.1-69.2h-10.6z"/><linearGradient id="h" gradientUnits="userSpaceOnUse" x1="146.624" y1="162.101" x2="146.624" y2="126.741"><stop offset="0" stop-color="#515151"/><stop offset=".458" stop-color="#3b3b3b"/><stop offset=".996" stop-color="#1c1c1c"/></linearGradient><path fill="url(#h)" d="M104.4 126.7h84.5v35.4h-84.6z"/><path fill="#3E3529" d="M104.4 92.9h24.7v33.8h-24.7z"/><path fill="#5E554B" d="M129 92.9h24.7v33.8H129z"/><path fill="#3E3529" d="M153.7 92.9h24.7v33.8h-24.7z"/><linearGradient id="i" gradientUnits="userSpaceOnUse" x1="147.08" y1="161.913" x2="147.08" y2="144.169"><stop offset=".004" stop-color="#743c1b"/><stop offset=".54" stop-color="#723a1a"/><stop offset=".733" stop-color="#6b3518"/><stop offset=".87" stop-color="#602c14"/><stop offset=".98" stop-color="#4f1e0d"/><stop offset="1" stop-color="#4b1b0c"/></linearGradient><path fill="url(#i)" d="M181.6 144.2h-69l-4.4 17.7H186z"/><linearGradient id="j" gradientUnits="userSpaceOnUse" x1="122.383" y1="157.498" x2="122.383" y2="155.234"><stop offset="0" stop-opacity=".05"/><stop offset="1" stop-opacity=".3"/></linearGradient><ellipse fill="url(#j)" cx="122.4" cy="156.4" rx="9.6" ry="1.1"/><linearGradient id="k" gradientUnits="userSpaceOnUse" x1="170.8" y1="157.498" x2="170.8" y2="155.234"><stop offset="0" stop-opacity=".05"/><stop offset="1" stop-opacity=".3"/></linearGradient><ellipse fill="url(#k)" cx="170.8" cy="156.4" rx="5" ry="1.1"/><linearGradient id="l" gradientUnits="userSpaceOnUse" x1="149.093" y1="157.498" x2="149.093" y2="155.234"><stop offset="0" stop-opacity=".05"/><stop offset="1" stop-opacity=".3"/></linearGradient><ellipse fill="url(#l)" cx="149.1" cy="156.4" rx="8.5" ry="1.1"/><g><path fill="#353535" d="M129.2 156.1h-14.1c-.9 0-1.6-.7-1.6-1.6v-8.3c0-.9.7-1.6 1.6-1.6h14.1c.9 0 1.6.7 1.6 1.6v8.3c.1.8-.6 1.6-1.6 1.6z"/><path fill="#EAEAEA" d="M130.5 155.7c-.3.3-.8.5-1.2.5h-14.1c-1 0-1.8-.8-1.8-1.8v-8.3c0-1 .8-1.8 1.8-1.8h14.1c.5 0 .9.2 1.2.5.3.3.5.8.5 1.2v8.3c0 .6-.2 1-.5 1.4zm-16.4-10.6c-.3.3-.4.7-.4 1.1v8.3c0 .8.7 1.5 1.5 1.5h14.1c.4 0 .8-.2 1.1-.5.3-.3.4-.7.4-1.1v-8.3c0-.4-.2-.8-.5-1.1-.3-.3-.7-.4-1.1-.4h-14.1c-.4 0-.8.2-1 .5z"/><defs><path id="m" d="M114.4 154.8v-8.9c0-.3.2-.5.5-.5h14.7c.3 0 .5.2.5.5v8.9c0 .3-.2.5-.5.5h-14.7c-.3-.1-.5-.3-.5-.5z"/></defs><clipPath id="n"><use xlink:href="#m" overflow="visible"/></clipPath><path clip-path="url(#n)" fill="#247ABA" d="M114.6 155.2h15.2l-7.6 7.6zM114.5 155.1h15.4l-.1.1h-15.2z"/><path clip-path="url(#n)" fill="#247BBB" d="M114.4 155H130l-.1.1h-15.4z"/><path clip-path="url(#n)" fill="#247CBC" d="M114.3 154.9l15.9-.1-.2.2h-15.6z"/><path clip-path="url(#n)" fill="#257DBD" d="M114.1 154.8l16.2-.1-.1.1-15.9.1z"/><path clip-path="url(#n)" fill="#257EBD" d="M114 154.6h16.4l-.1.1-16.2.1z"/><path clip-path="url(#n)" fill="#257FBE" d="M113.9 154.6v-.1h16.6l-.1.1H114z"/><path clip-path="url(#n)" fill="#2580BF" d="M113.9 154.4h16.5v.1h-16.5z"/><path clip-path="url(#n)" fill="#2581C0" d="M113.9 154.3h16.5v.1h-16.5z"/><path clip-path="url(#n)" fill="#2582C1" d="M113.9 154.1h16.5v.1h-16.5z"/><path clip-path="url(#n)" fill="#2683C2" d="M113.9 154h16.5v.1h-16.5z"/><path clip-path="url(#n)" fill="#2684C3" d="M113.9 153.9h16.5v.1h-16.5z"/><path clip-path="url(#n)" fill="#2685C3" d="M113.9 153.8h16.5v.1h-16.5z"/><path clip-path="url(#n)" fill="#2686C4" d="M113.9 153.7h16.5v.1h-16.5z"/><path clip-path="url(#n)" fill="#2687C5" d="M113.9 153.5h16.5v.1h-16.5z"/><path clip-path="url(#n)" fill="#2788C6" d="M113.9 153.4h16.5v.1h-16.5z"/><path clip-path="url(#n)" fill="#2789C7" d="M113.9 153.3h16.5v.1h-16.5z"/><path clip-path="url(#n)" fill="#278AC8" d="M113.9 153.2h16.5v.1h-16.5z"/><path clip-path="url(#n)" fill="#278BC8" d="M113.9 153.1h16.5v.1h-16.5z"/><path clip-path="url(#n)" fill="#278CC9" d="M113.9 152.9h16.5v.1h-16.5z"/><path clip-path="url(#n)" fill="#288DCA" d="M113.9 152.8h16.5v.1h-16.5z"/><path clip-path="url(#n)" fill="#288ECB" d="M113.9 152.7h16.5v.1h-16.5z"/><path clip-path="url(#n)" fill="#288FCC" d="M113.9 152.6h16.5v.1h-16.5z"/><path clip-path="url(#n)" fill="#2890CD" d="M113.9 152.4h16.5v.1h-16.5z"/><path clip-path="url(#n)" fill="#2891CE" d="M113.9 152.3h16.5v.1h-16.5z"/><path clip-path="url(#n)" fill="#2892CE" d="M113.9 152.2h16.5v.1h-16.5z"/><path clip-path="url(#n)" fill="#2993CF" d="M113.9 152.1h16.5v.1h-16.5z"/><path clip-path="url(#n)" fill="#2994D0" d="M113.9 152h16.5v.1h-16.5z"/><path clip-path="url(#n)" fill="#2995D1" d="M113.9 151.8h16.5v.1h-16.5z"/><path clip-path="url(#n)" fill="#2996D2" d="M113.9 151.7h16.5v.1h-16.5z"/><path clip-path="url(#n)" fill="#2997D3" d="M113.9 151.6h16.5v.1h-16.5z"/><path clip-path="url(#n)" fill="#2A98D4" d="M113.9 151.5h16.5v.1h-16.5z"/><path clip-path="url(#n)" fill="#2A99D4" d="M113.9 151.4h16.5v.1h-16.5z"/><path clip-path="url(#n)" fill="#2A9AD5" d="M113.9 151.2h16.5v.1h-16.5z"/><path clip-path="url(#n)" fill="#2A9BD6" d="M113.9 151.1h16.5v.1h-16.5z"/><path clip-path="url(#n)" fill="#2A9CD7" d="M113.9 151h16.5v.1h-16.5z"/><path clip-path="url(#n)" fill="#2A9DD8" d="M113.9 150.9h16.5v.1h-16.5z"/><path clip-path="url(#n)" fill="#2B9ED9" d="M113.9 150.8h16.5v.1h-16.5z"/><path clip-path="url(#n)" fill="#2B9FDA" d="M113.9 150.6h16.5v.1h-16.5z"/><path clip-path="url(#n)" fill="#2BA0DA" d="M113.9 150.5h16.5v.1h-16.5z"/><path clip-path="url(#n)" fill="#2BA1DB" d="M113.9 150.4h16.5v.1h-16.5z"/><path clip-path="url(#n)" fill="#2BA2DC" d="M113.9 150.3h16.5v.1h-16.5z"/><path clip-path="url(#n)" fill="#2CA4DD" d="M113.9 150.2h16.5v.1h-16.5z"/><path clip-path="url(#n)" fill="#2CA5DE" d="M113.9 150h16.5v.1h-16.5z"/><path clip-path="url(#n)" fill="#2CA6DF" d="M113.9 149.9h16.5v.1h-16.5z"/><path clip-path="url(#n)" fill="#2CA7DF" d="M113.9 149.8h16.5v.1h-16.5z"/><path clip-path="url(#n)" fill="#2CA8E0" d="M113.9 149.7h16.5v.1h-16.5z"/><path clip-path="url(#n)" fill="#2DA9E1" d="M113.9 149.6h16.5v.1h-16.5z"/><path clip-path="url(#n)" fill="#2DAAE2" d="M113.9 149.4h16.5v.1h-16.5z"/><path clip-path="url(#n)" fill="#2DABE3" d="M113.9 149.3h16.5v.1h-16.5z"/><path clip-path="url(#n)" fill="#2DACE4" d="M113.9 149.2h16.5v.1h-16.5z"/><path clip-path="url(#n)" fill="#2DADE5" d="M113.9 149.1h16.5v.1h-16.5z"/><path clip-path="url(#n)" fill="#2DAEE5" d="M113.9 149h16.5v.1h-16.5z"/><path clip-path="url(#n)" fill="#2EAFE6" d="M113.9 148.8h16.5v.1h-16.5z"/><path clip-path="url(#n)" fill="#2EB0E7" d="M113.9 148.7h16.5v.1h-16.5z"/><path clip-path="url(#n)" fill="#2EB1E8" d="M113.9 148.6h16.5v.1h-16.5z"/><path clip-path="url(#n)" fill="#2EB2E9" d="M113.9 148.5h16.5v.1h-16.5z"/><path clip-path="url(#n)" fill="#2EB3EA" d="M113.9 148.4h16.5v.1h-16.5z"/><path clip-path="url(#n)" fill="#2FB4EB" d="M113.9 148.2h16.5v.1h-16.5z"/><path clip-path="url(#n)" fill="#2FB5EB" d="M113.9 148.1h16.5v.1h-16.5z"/><path clip-path="url(#n)" fill="#2FB6EC" d="M113.9 148h16.5v.1h-16.5z"/><path clip-path="url(#n)" fill="#2FB7ED" d="M113.9 147.9h16.5v.1h-16.5z"/><path clip-path="url(#n)" fill="#2FB8EE" d="M113.9 147.8h16.5v.1h-16.5z"/><path clip-path="url(#n)" fill="#2FB9EF" d="M113.9 147.6h16.5v.1h-16.5z"/><path clip-path="url(#n)" fill="#30BAF0" d="M113.9 147.5h16.5v.1h-16.5z"/><path clip-path="url(#n)" fill="#30BBF1" d="M113.9 147.4h16.5v.1h-16.5z"/><path clip-path="url(#n)" fill="#30BCF1" d="M113.9 147.3h16.5v.1h-16.5z"/><path clip-path="url(#n)" fill="#30BDF2" d="M113.9 147.2h16.5v.1h-16.5z"/><path clip-path="url(#n)" fill="#30BEF3" d="M113.9 147h16.5v.1h-16.5z"/><path clip-path="url(#n)" fill="#31BFF4" d="M113.9 146.9h16.5v.1h-16.5z"/><path clip-path="url(#n)" fill="#31C0F5" d="M113.9 146.8h16.5v.1h-16.5z"/><path clip-path="url(#n)" fill="#31C1F6" d="M113.9 146.7h16.5v.1h-16.5z"/><path clip-path="url(#n)" fill="#31C2F6" d="M113.9 146.6h16.5v.1h-16.5z"/><path clip-path="url(#n)" fill="#31C3F7" d="M113.9 146.4h16.5v.1h-16.5z"/><path clip-path="url(#n)" fill="#32C4F8" d="M113.9 146.3h16.5v.1h-16.5z"/><path clip-path="url(#n)" fill="#32C5F9" d="M113.9 146.2h16.5v.1h-16.5z"/><path clip-path="url(#n)" fill="#32C6FA" d="M113.9 146.1h16.5v.1h-16.5z"/><path clip-path="url(#n)" fill="#32C7FB" d="M113.9 146.1l.1-.1 16.4-.1.1.1v.1z"/><path clip-path="url(#n)" fill="#32C8FC" d="M114.1 145.9l16.1-.1.2.1-16.4.1z"/><path clip-path="url(#n)" fill="#32C9FC" d="M114.2 145.7h15.9l.1.1-16.1.1z"/><path clip-path="url(#n)" fill="#33CAFD" d="M114.3 145.6H130l.1.1h-15.9z"/><path clip-path="url(#n)" fill="#33CBFE" d="M114.5 145.5h15.4l.1.1h-15.7z"/><path clip-path="url(#n)" fill="#3CF" d="M114.6 145.4l15.2-.1.1.2h-15.4z"/><path clip-path="url(#n)" fill="#3CF" d="M129.8 145.3l-15.2.1 7.6-7.6z"/><g><path fill="#FFF" d="M123.3 150.4c0-.3.2-.6.4-.8-.2-.2-.4-.4-.7-.4-.3 0-.5.2-.8.2-.3 0-.5-.2-.7-.2-.3 0-.6.2-.7.4.5.3.6 1 .1 1.4-.2.2-.3.1-.1.4.2.3.4.8.9.8.2 0 .3-.1.5-.2.2 0 .3 0 .5.1.5.2.7-.1 1-.5.1-.1.3-.4.2-.5 0 0-.1 0-.1-.1-.4-.1-.5-.2-.5-.6-.1-.5 0 .6 0 0zM122.1 149.2h.2c0-.5-.4-.9-.8-.9-.1.4.2.8.6.9.1 0-.1-.1 0 0z"/></g><g opacity=".2"><path fill="#FFF" d="M129.7 156.1l-15.4-11.6h15.4c.7 0 1.2.6 1.2 1.2v9.1c0 .7-.6 1.3-1.2 1.3z"/></g><g><linearGradient id="o" gradientUnits="userSpaceOnUse" x1="258.596" y1="95.81" x2="263.764" y2="95.81" gradientTransform="translate(-93.266 53.319)"><stop offset="0" stop-color="#ad2a27"/><stop offset="1" stop-color="#e4554f"/></linearGradient><path fill="url(#o)" d="M170 143.8s-.9-2.2-2.2-2.2-2.2 1.7-2.3 2.6v.3c-.1 1.5 0 2.9.3 4.3.4 2.1 1 5.2 1 5.5 0 .4.6 2.1 2 2.1 1 0 1.5-1.2 1.8-1.9.1-.3.1-.6.1-.9-.1-1.2-.4-5-.3-6.1 0-1.4-.1-3.1-.4-3.7z"/><path opacity=".15" d="M165.4 144.2c.2-.9 1-2.5 2.3-2.5 1.1 0 1.9 1.4 2.2 2-1.6-.1-3.4.2-4.5.5z"/><linearGradient id="p" gradientUnits="userSpaceOnUse" x1="258.683" y1="89.614" x2="263.088" y2="89.614" gradientTransform="translate(-93.266 53.319)"><stop offset="0" stop-color="#afafaf"/><stop offset=".081" stop-color="#bcbcbc"/><stop offset=".247" stop-color="#d1d1d1"/><stop offset=".433" stop-color="#e0e0e0"/><stop offset=".654" stop-color="#e8e8e8"/><stop offset="1" stop-color="#ebebeb"/></linearGradient><path fill="url(#p)" d="M165.5 144c.2-.9 1-2.5 2.3-2.5 1.1 0 1.8 1.4 2.1 2-1.7-.1-3.4.3-4.4.5z"/><path fill="#D9BB9F" d="M167.8 145.1s1.8-.3 2 1.5c.2 1.9.1 5.4 0 5.8-.1.5-.3 3.1-1 3.3-.7.2-1-.6-1-.6s-.3-.3-.8-1.9-1-4.5-1-4.5-.3-1.1 0-2.3c.3-1.2 1.8-1.3 1.8-1.3z"/><path fill="#FFC07B" d="M168.6 156h-.3c.1-.1.1-.1.3 0 .1-.1.2-.1.2 0h-.2c-.1 0 .1 0 0 0zm.5-.1c-.1-.1.1-.3.2-.2-.1 0-.2.1-.2.2zm-1-.1l-.2-.2c.1 0 .2.2.2.2zm-.4-.4c0-.1-.1-.1-.1-.2.1-.1.2.2.1.2zm1.7 0c-.1 0 0-.3.1-.2 0 .1-.1.1-.1.2zm-1.9-.4c0-.1-.1-.2-.1-.2.1-.1.2.1.1.2zm2.1-.1c-.1 0 0-.3.1-.3-.1.2-.1.3-.1.3zm-2.3-.4c0-.1-.1-.2-.1-.2.1-.1.2.2.1.2zm2.4-.1c-.1 0 0-.3.1-.3-.1.2-.1.2-.1.3zm-2.6-.4c0-.1-.1-.2-.1-.2.1-.1.2.2.1.2zm2.7-.1c-.1 0-.1-.3 0-.3v.3zm-2.9-.4c0-.1 0-.2-.1-.3.2 0 .2.3.1.3zm3-.1c-.1 0-.1-.3 0-.3v.3zm-3.1-.4c0-.1 0-.2-.1-.3.1 0 .2.3.1.3zm3.2-.1c-.1 0-.1-.3 0-.3v.3zm-3.3-.4c0-.1 0-.2-.1-.3.1 0 .2.3.1.3zm3.3-.1c-.1 0-.1-.3 0-.3v.3zm-3.5-.4c0-.1 0-.2-.1-.3.2 0 .2.3.1.3zm3.5-.2c-.1 0-.1-.2-.1-.3h.1v.3zm-3.6-.3c0-.1-.1-.3 0-.3.1.1.2.3 0 .3zm3.7-.2c-.1 0-.1 0 0 0-.1-.1-.1-.3 0-.3v.3zm-3.8-.3c0-.1 0-.2-.1-.3.2 0 .2.3.1.3zm3.8-.2c-.1 0-.1-.3 0-.3v.3zm-3.9-.3c0-.1 0-.2-.1-.3.2 0 .2.2.1.3.1 0 0 0 0 0zm3.9-.2c-.1 0-.1-.3 0-.3v.3zm-4-.3c0-.1 0-.2-.1-.3.2 0 .2.2.1.3zm4-.2s-.1 0 0 0c-.1-.1-.1-.3 0-.3v.3zm-4.1-.4c0-.1 0-.2-.1-.3.2.1.1.2.1.3zm4-.2v-.3c.2 0 .1.3 0 .3.1 0 0 0 0 0zm-4.1-.3c0-.1 0-.2-.1-.3.2 0 .2.3.1.3zm4.1-.2c0-.1-.1-.3.1-.3 0 .1 0 .2-.1.3.1 0 0 0 0 0zm-4.2-.3v-.3c.1 0 .1.3 0 .3zm4.2-.2c0-.1-.1-.3.1-.3 0 .1 0 .2-.1.3.1 0 0 0 0 0zm-4.2-.3c0-.1-.1-.3.1-.3-.1.1 0 .3-.1.3zm4.2-.2c0-.1-.1-.3.1-.3 0 .1 0 .2-.1.3zm-4.2-.3c-.1-.1-.1-.2 0-.3.1 0 0 .2 0 .3zm4.2-.2c0-.1-.1-.3 0-.3v.3zm-4.1-.3s-.1-.1 0 0c-.1-.1 0-.2 0-.3.1 0 0 .2 0 .3zm4-.3c0-.1-.1-.3 0-.3.1.2.1.2 0 .3.1 0 0 0 0 0zm-3.9-.3s-.1 0 0 0v-.3c.1.1 0 .3 0 .3zm3.8-.2c0-.1-.2-.2 0-.3v.3zm-3.6-.2s-.1 0 0 0c0-.1.1-.2.1-.2.1 0-.1.1-.1.2zm3.4-.2c0-.1-.2-.2-.1-.2 0 0 .1.1.1.2zm-3.1-.2c0-.1.1-.2.2-.2.1.1-.1.2-.2.2zm2.7-.2c-.1 0-.3-.1-.2-.2.1.1.2.1.2.2zm-2.2 0c0-.1 0-.1 0 0l.2-.2c.1.1-.1.1-.2.2zm1.7-.2c-.1 0-.3 0-.2-.1.1 0 .2 0 .2.1.1 0 0 0 0 0zm-1.2 0c.1-.1.2-.1.2-.1 0 .1-.1.1-.2.1zm.5-.1c.1-.1.2-.1.3-.1-.1.2-.2.1-.3.1z"/><path opacity=".15" d="M166 147c.3-1.2 1.8-1.3 1.8-1.3s1.8-.3 2 1.5c.1.6.1 1.5.1 2.3 0-1 0-2-.1-2.8-.2-1.9-2-1.5-2-1.5s-1.5.1-1.8 1.3c-.1.5-.1 1-.1 1.4 0-.3.1-.6.1-.9z"/><linearGradient id="q" gradientUnits="userSpaceOnUse" x1="262.479" y1="97.083" x2="263.184" y2="97.083" gradientTransform="translate(-93.266 53.319)"><stop offset="0" stop-color="#b68b68"/><stop offset="1" stop-color="#cfa285"/></linearGradient><path fill="url(#q)" d="M169.9 147.3s-.6.9-.6 1.5 0 1.5.2 2.1c.2.6.3 2.3.3 2.3s.2-1.7.2-2.8c0-.9-.1-3.1-.1-3.1z"/><radialGradient id="r" cx="262.057" cy="91.387" r="1.312" gradientTransform="translate(-93.266 53.319)" gradientUnits="userSpaceOnUse"><stop offset="0" stop-color="#fff"/><stop offset="1" stop-color="#fff" stop-opacity="0"/></radialGradient><circle opacity=".2" fill="url(#r)" cx="168.8" cy="144.6" r="1.3"/><path opacity=".15" fill="#FFF" d="M167.9 141.9c1.1.4 1.7 1.6 2.1 2.6.1.1 0 .3-.2.3l-.9.1c-.2 0-.3-.1-.3-.2 0-1 0-2.1-.7-2.8zM169.7 155.4l.6-.9v-2.7s-.3 3.2-.6 3.6z"/><g><linearGradient id="s" gradientUnits="userSpaceOnUse" x1="-219.964" y1="95.81" x2="-214.796" y2="95.81" gradientTransform="matrix(-1 .00053 .00053 1 -43.855 53.293)"><stop offset="0" stop-color="#ad2a27"/><stop offset="1" stop-color="#e4554f"/></linearGradient><path fill="url(#s)" d="M171.6 143.8s.8-2.2 2.2-2.2 2.2 1.7 2.3 2.6v.3c.1 1.5 0 2.9-.2 4.3-.4 2.1-1 5.2-1 5.5 0 .4-.6 2.1-2 2.1-1 0-1.5-1.2-1.8-1.9-.1-.3-.1-.6-.1-.9.1-1.2.4-5 .3-6.1-.2-1.4-.1-3.1.3-3.7z"/><path opacity=".15" d="M176.1 144.2c-.2-.9-1-2.5-2.3-2.5-1.1 0-1.9 1.4-2.2 2 1.7-.1 3.4.2 4.5.5z"/><linearGradient id="t" gradientUnits="userSpaceOnUse" x1="-219.877" y1="89.614" x2="-215.472" y2="89.614" gradientTransform="matrix(-1 .00053 .00053 1 -43.855 53.293)"><stop offset="0" stop-color="#afafaf"/><stop offset=".081" stop-color="#bcbcbc"/><stop offset=".247" stop-color="#d1d1d1"/><stop offset=".433" stop-color="#e0e0e0"/><stop offset=".654" stop-color="#e8e8e8"/><stop offset="1" stop-color="#ebebeb"/></linearGradient><path fill="url(#t)" d="M176.1 144c-.2-.9-1-2.5-2.3-2.5-1.1 0-1.8 1.4-2.1 2 1.6-.1 3.3.3 4.4.5z"/><path fill="#D9BB9F" d="M173.7 145.1s-1.8-.3-2 1.6 0 5.4 0 5.8.3 3.1 1 3.3c.7.2 1-.6 1-.6s.3-.3.8-1.9c.5-1.6 1-4.5 1-4.5s.3-1.1 0-2.3-1.8-1.4-1.8-1.4z"/><path fill="#FFC07B" d="M172.9 156h-.2c0-.2.2-.1.2 0 .1-.1.2-.1.3 0h-.3s.1 0 0 0zm-.6-.3c.1-.1.3.1.2.2-.1-.1-.1-.2-.2-.2zm1.4 0l-.2.2c-.1-.1.1-.3.2-.2zm.2-.5c0 .1-.1.1-.1.2-.1 0 0-.3.1-.2zm-1.8 0c.1 0 .2.2.1.2-.1-.1-.1-.1-.1-.2zm2.1-.5c0 .1-.1.2-.1.2-.1 0 0-.2.1-.2zm-2.3 0c.1 0 .2.2.1.3 0-.1-.1-.2-.1-.3zm2.5-.4c0 .1-.1.2-.1.2-.1 0 0-.3.1-.2zm-2.6-.1c.1 0 .2.3.1.3-.1-.2-.1-.2-.1-.3zm2.7-.4c0 .1-.1.2-.1.2s0-.3.1-.2zm-2.8-.1c.1 0 .2.3 0 .3v-.3zm3-.4c0 .1 0 .2-.1.3-.1-.1 0-.4.1-.3zm-3.1-.2c.1 0 .2.3 0 .3v-.3zm3.2-.3c0 .1 0 .2-.1.3-.1-.1 0-.4.1-.3zm-3.2-.2c.1 0 .2.3 0 .3v-.3zm3.3-.4c0 .1 0 .2-.1.3 0 0 0-.3.1-.3zm-3.4-.1c.1 0 .1.3 0 .3v-.3zm3.6-.4c0 .1 0 .2-.1.3-.1 0-.1-.3.1-.3zm-3.6-.1c.1.1.1.3 0 .3v-.3zm3.6-.4c.1 0 0 .2 0 .3-.1 0 0-.2 0-.3zm-3.6-.1c.1 0 .1.2.1.3h-.1v-.3zm3.8-.4c0 .1 0 .2-.1.3-.1 0 0-.3.1-.3zm-3.8-.2c.1 0 .1.3 0 .3v-.3zm3.8-.1c0-.1 0-.3.1-.2 0 .1 0 .2-.1.2 0 .1 0 .1 0 0zm-3.8-.4c.1 0 .1.3 0 .3v-.3zm4-.3c0 .1 0 .2-.1.3-.1-.1 0-.3.1-.3zm-4.1-.2c.1 0 .1.2.1.3h-.1v-.3zm4.1-.1c0-.1 0-.3.1-.2 0 .1 0 .2-.1.2zm-4.1-.2c0-.1-.1-.3.1-.3 0 .2 0 .2-.1.3.1 0 .1 0 0 0zm4.3-.5v.3c-.2-.1-.1-.4 0-.3zm-4.2 0v-.3c.1 0 0 .2 0 .3zm4.3-.6v.3c-.2 0-.2-.3 0-.3zm-4.3.1v-.3c.1 0 0 .2 0 .3zm4.2-.6c.1 0 .1.2.1.3-.2 0-.1-.2-.1-.3zm-4.2.1v-.3c.1 0 0 .2 0 .3zm4.3-.6v.3h-.1c0-.1-.1-.3.1-.3zm-4.3 0v-.3c.2.1.1.3 0 .3.1.1 0 0 0 0zm4.2-.5v.3h-.1c0-.1 0-.3.1-.3zm-4.1 0v-.3c.1.1 0 .3 0 .3zm3.9-.5c0 .1.1.2.1.2h-.1s-.1-.2 0-.2zm-3.8 0c0-.1.1-.2.1-.2.1 0 0 .2-.1.2zm3.5-.5l.2.2h-.1s-.2-.1-.1-.2zm-3.3 0l.2-.2c.1.1-.1.2-.2.2.1.1 0 .1 0 0zm2.9-.3c.1 0 .2.1.2.1v.1c-.1 0-.3-.1-.2-.2zm-2.5 0c.1 0 .2-.1.2-.1.1 0-.1.1-.2.1zm2-.2c.1 0 .2.1.2.1v.1c0-.1-.2-.1-.2-.2zm-1.5 0c.1 0 .2 0 .3-.1 0 .1-.2.1-.3.1zm1-.1h.3v.1c-.1 0-.3 0-.3-.1zm-.5 0h.3v.1c-.1-.1-.3 0-.3-.1z"/><path opacity=".15" d="M175.5 147c-.3-1.2-1.8-1.3-1.8-1.3s-1.8-.3-2 1.6c-.1.6-.1 1.5-.1 2.3 0-1 0-2 .1-2.8.2-1.9 2-1.6 2-1.6s1.5.1 1.8 1.3c.1.5.1 1 .1 1.4 0-.3 0-.6-.1-.9z"/><linearGradient id="u" gradientUnits="userSpaceOnUse" x1="-216.082" y1="97.083" x2="-215.377" y2="97.083" gradientTransform="matrix(-1 .00053 .00053 1 -43.855 53.293)"><stop offset="0" stop-color="#b68b68"/><stop offset="1" stop-color="#cfa285"/></linearGradient><path fill="url(#u)" d="M171.6 147.3s.6.9.6 1.5 0 1.5-.2 2.1c-.2.6-.3 2.3-.3 2.3s-.2-1.7-.2-2.8c.1-.9.1-3.1.1-3.1z"/><radialGradient id="v" cx="-216.503" cy="91.387" r="1.312" gradientTransform="matrix(-1 .00053 .00053 1 -43.855 53.293)" gradientUnits="userSpaceOnUse"><stop offset="0" stop-color="#fff"/><stop offset="1" stop-color="#fff" stop-opacity="0"/></radialGradient><circle opacity=".2" fill="url(#v)" cx="172.7" cy="144.6" r="1.3"/><path opacity=".15" fill="#FFF" d="M173.6 141.9c-1.1.4-1.7 1.6-2.1 2.6-.1.1 0 .3.2.3l.9.1c.2 0 .3-.1.3-.2 0-1 0-2.1.7-2.8zM171.8 155.4l-.6-.9v-2.7s.3 3.2.6 3.6z"/></g></g><g><circle fill="#262626" stroke="#9B9B9B" stroke-width=".5" stroke-miterlimit="10" cx="149.1" cy="148.4" r="8.6"/><path fill="#3A3A3A" stroke="#5B5B5B" stroke-width=".5" stroke-miterlimit="10" d="M153 141.1c4 2.1 5.6 7.2 3.4 11.2-2.1 4-7.2 5.6-11.2 3.4-4-2.1-5.6-7.2-3.4-11.2 2.1-4.1 7.2-5.6 11.2-3.4z"/><radialGradient id="w" cx="-124.978" cy="11.226" r="8.296" gradientTransform="rotate(-151.97 29.174 45.605)" gradientUnits="userSpaceOnUse"><stop offset="0" stop-color="#fff"/><stop offset="1"/></radialGradient><path opacity=".25" fill="url(#w)" d="M153 141.1c4 2.1 5.6 7.2 3.4 11.2-2.1 4-7.2 5.6-11.2 3.4-4-2.1-5.6-7.2-3.4-11.2 2.1-4.1 7.2-5.6 11.2-3.4z"/><path fill="#545454" stroke="#636363" stroke-width=".5" stroke-miterlimit="10" d="M152 142.9c3 1.6 4.1 5.3 2.5 8.3-1.6 3-5.3 4.1-8.3 2.5s-4.1-5.3-2.5-8.3c1.5-2.9 5.3-4.1 8.3-2.5z"/><linearGradient id="x" gradientUnits="userSpaceOnUse" x1="-124.978" y1="12.346" x2="-124.978" y2="10.105" gradientTransform="rotate(-151.97 29.174 45.605)"><stop offset="0" stop-color="#ad2a27"/><stop offset="1" stop-color="#e4554f"/></linearGradient><circle fill="url(#x)" cx="149.1" cy="148.4" r="1.1"/><path fill="#A0A0A0" d="M154.056 141.419l-1.942-1.034.423-.795 1.942 1.034z"/><path opacity=".15" d="M153.155 140.867l-.971-.517.423-.794.97.517z"/><linearGradient id="y" gradientUnits="userSpaceOnUse" x1="-124.978" y1="29.587" x2="-124.978" y2="20.628" gradientTransform="rotate(-151.97 29.174 45.605)"><stop offset="0" stop-color="#ad2a27"/><stop offset="1" stop-color="#e4554f"/></linearGradient><path fill="url(#y)" d="M154.3 140.5l4-7.5c.1-.2 0-.6-.3-.7l-.5-.3c-.3-.2-.6-.1-.8.2l-4 7.5 1.6.8zm3.2-7.9c.2.1.2.4 0 .7-.1.3-.4.4-.6.3-.2-.1-.2-.4 0-.7.2-.2.4-.4.6-.3z"/><path fill="none" d="M157.5 133.3c.1-.3.1-.6 0-.7l-.5 1c.1.1.4-.1.5-.3zM156.9 132.9c-.1.3-.1.6 0 .7l.5-1c-.1-.1-.3.1-.5.3z"/><path opacity=".15" d="M153.5 140.1l3.4-6.5c-.2-.1-.2-.4 0-.7.1-.3.4-.4.6-.3l.2-.4-.3-.1c-.3-.2-.6-.1-.8.2l-4 7.5.9.3zM145.1 156l8.1-15.1c-4.2-2.2-9.4-.6-11.6 3.5-2.3 4.1-.7 9.3 3.5 11.6z"/></g></g><path opacity=".1" fill="#FFF" d="M188.9 162.1l-84.5-69.2h84.5z"/><path opacity=".03" fill="#FFF" d="M104.3 126.8l41.7 35.3h42.9l-84.6-53.3zM104.3 104.5l84.7 42.7-.1-3.3L104.3 94z"/></g><g><linearGradient id="z" gradientUnits="userSpaceOnUse" x1="114.727" y1="60.77" x2="114.727" y2="50.488"><stop offset="0" stop-color="#979388"/><stop offset=".077" stop-color="#a6a094"/><stop offset=".212" stop-color="#b8b1a3"/><stop offset=".371" stop-color="#c5bdad"/><stop offset=".577" stop-color="#cdc4b3"/><stop offset=".996" stop-color="#cfc6b5"/></linearGradient><path fill="url(#z)" d="M13.4 50.5H216v10.3H13.4z"/><path d="M13.4 55.4H216v.5H13.4zM20.1 50.5h.5v4.9h-.5zM32 50.5h.5v4.9H32zM43.8 50.5h.5v4.9h-.5zM55.7 50.5h.5v4.9h-.5zM67.5 50.5h.5v4.9h-.5zM79.4 50.5h.5v4.9h-.5zM91.2 50.5h.5v4.9h-.5zM103.1 50.5h.5v4.9h-.5zM114.9 50.5h.5v4.9h-.5zM126.8 50.5h.5v4.9h-.5zM138.6 50.5h.5v4.9h-.5zM150.5 50.5h.5v4.9h-.5zM162.3 50.5h.5v4.9h-.5zM174.1 50.5h.5v4.9h-.5zM186 50.5h.5v4.9h-.5zM197.8 50.5h.5v4.9h-.5zM209.7 50.5h.5v4.9h-.5z" opacity=".17"/><g><path d="M25 55.9h.5v4.9H25zM36.8 55.9h.5v4.9h-.5zM48.7 55.9h.5v4.9h-.5zM60.5 55.9h.5v4.9h-.5zM72.4 55.9h.5v4.9h-.5zM84.2 55.9h.5v4.9h-.5zM96.1 55.9h.5v4.9h-.5zM107.9 55.9h.5v4.9h-.5zM119.7 55.9h.5v4.9h-.5zM131.6 55.9h.5v4.9h-.5zM143.4 55.9h.5v4.9h-.5zM155.3 55.9h.5v4.9h-.5zM167.1 55.9h.5v4.9h-.5zM179 55.9h.5v4.9h-.5zM190.8 55.9h.5v4.9h-.5zM202.7 55.9h.5v4.9h-.5z" opacity=".17"/></g><path opacity=".5" fill="#FFF" d="M13.4 50.4H216v.9H13.4z"/></g><g><linearGradient id="A" gradientUnits="userSpaceOnUse" x1="114.561" y1="193.822" x2="114.561" y2="176.238"><stop offset=".004" stop-color="#85250b"/><stop offset="1" stop-color="#943714"/></linearGradient><path fill="url(#A)" d="M11.8 176.2h205.5v17.6H11.8z"/><path fill="#C4601C" d="M11.8 174.5h205.5v1.7H11.8z"/><linearGradient id="B" gradientUnits="userSpaceOnUse" x1="114.561" y1="176.238" x2="114.561" y2="174.538"><stop offset="0" stop-color="#fff"/><stop offset="1"/></linearGradient><path opacity=".2" fill="url(#B)" d="M11.8 174.5h205.5v1.7H11.8z"/><path opacity=".76" fill="#A44A1F" d="M11.8 179.3h205.5v3.7H11.8zM11.8 189.2h205.5v3.7H11.8z"/><path opacity=".25" fill="#FFF" d="M11.8 176h205.5v.5H11.8z"/><path opacity=".15" d="M11.8 174.3h205.5v.5H11.8z"/><path opacity=".25" fill="#FFF" d="M11.8 178.8h205.5v.5H11.8z"/><path opacity=".15" d="M11.8 177.7h205.5v.5H11.8z"/><path opacity=".25" fill="#FFF" d="M11.8 183.9h205.5v.5H11.8z"/><path opacity=".15" d="M11.8 182.8h205.5v.5H11.8z"/><path opacity=".25" fill="#FFF" d="M11.8 189h205.5v.5H11.8z"/><path opacity=".15" d="M11.8 187.8h205.5v.5H11.8z"/><path d="M16.9 178.7h.8v4.9h-.8zM34.8 178.7h.8v4.9h-.8zM52.7 178.7h.8v4.9h-.8zM70.5 178.7h.8v4.9h-.8zM88.4 178.7h.8v4.9h-.8zM106.3 178.7h.8v4.9h-.8zM124.2 178.7h.8v4.9h-.8zM142.1 178.7h.8v4.9h-.8zM160 178.7h.8v4.9h-.8zM177.9 178.7h.8v4.9h-.8zM195.8 178.7h.8v4.9h-.8zM213.7 178.7h.8v4.9h-.8z" opacity=".17"/><g><path d="M24.2 184.1h.8v4.9h-.8zM42.1 184.1h.8v4.9h-.8zM60 184.1h.8v4.9H60zM77.8 184.1h.8v4.9h-.8zM95.7 184.1h.8v4.9h-.8zM113.6 184.1h.8v4.9h-.8zM131.5 184.1h.8v4.9h-.8zM149.4 184.1h.8v4.9h-.8zM167.3 184.1h.8v4.9h-.8zM185.2 184.1h.8v4.9h-.8zM203.1 184.1h.8v4.9h-.8z" opacity=".17"/></g></g><g><path fill="#B86434" d="M30.3 100.2h51v93.7h-51z"/><linearGradient id="C" gradientUnits="userSpaceOnUse" x1="55.74" y1="190.168" x2="55.74" y2="102.172"><stop offset=".004" stop-color="#fff"/><stop offset="1" stop-color="#bb8c6c"/></linearGradient><path fill="url(#C)" d="M32.3 102.2h47v88h-47z"/><linearGradient id="D" gradientUnits="userSpaceOnUse" x1="72.957" y1="156.887" x2="72.957" y2="106.579"><stop offset="0" stop-color="#515151"/><stop offset=".458" stop-color="#3b3b3b"/><stop offset=".996" stop-color="#1c1c1c"/></linearGradient><path fill="url(#D)" d="M75.4 106.6v50.3l-4.9-32v-18.3z"/><linearGradient id="E" gradientUnits="userSpaceOnUse" x1="55.671" y1="156.891" x2="55.671" y2="124.849"><stop offset="0" stop-color="#515151"/><stop offset=".458" stop-color="#3b3b3b"/><stop offset=".996" stop-color="#1c1c1c"/></linearGradient><path fill="url(#E)" d="M35.9 124.8l39.5.1v32H35.9z"/><path fill="#3E3529" d="M35.9 106.6h11.5v18.3H35.9z"/><linearGradient id="F" gradientUnits="userSpaceOnUse" x1="36.247" y1="157.601" x2="36.247" y2="106.579"><stop offset=".004" stop-color="#fff"/><stop offset="1" stop-color="#d2d1d0"/></linearGradient><path fill="url(#F)" d="M35.9 106.6l.7 1.2v48.6l-.7 1.2z"/><linearGradient id="G" gradientUnits="userSpaceOnUse" x1="20.441" y1="157.566" x2="20.441" y2="106.579" gradientTransform="matrix(-1 0 0 1 95.659 0)"><stop offset=".004" stop-color="#fff"/><stop offset="1" stop-color="#d2d1d0"/></linearGradient><path fill="url(#G)" d="M75.6 106.6l-.8 1.2v48.5l.8 1.3z"/><linearGradient id="H" gradientUnits="userSpaceOnUse" x1="110.338" y1="342.278" x2="109.082" y2="342.278" gradientTransform="matrix(0 -1 -1 0 398.019 266.683)"><stop offset="0" stop-color="#d2d1d0"/><stop offset=".508" stop-color="#e7e6e6"/><stop offset=".996" stop-color="#fff"/></linearGradient><path fill="url(#H)" d="M75.6 157.6l-.8-1.3H36.6l-.7 1.3z"/><path fill="#5E554B" d="M47.5 106.6H59v18.3H47.5z"/><path fill="#3E3529" d="M59 106.6h11.5v18.3H59z"/><linearGradient id="I" gradientUnits="userSpaceOnUse" x1="-335.572" y1="342.278" x2="-336.828" y2="342.278" gradientTransform="rotate(90 -22.694 420.712)"><stop offset="0" stop-color="#d2d1d0"/><stop offset=".508" stop-color="#e7e6e6"/><stop offset=".996" stop-color="#fff"/></linearGradient><path fill="url(#I)" d="M75.6 106.6l-.8 1.2H36.6l-.7-1.2z"/><g><linearGradient id="J" gradientUnits="userSpaceOnUse" x1="112.961" y1="173.377" x2="112.961" y2="163.251" gradientTransform="rotate(-17.787 -.526 333.945)"><stop offset="0" stop-color="#247aba"/><stop offset=".308" stop-color="#247dbc"/><stop offset=".508" stop-color="#2685c4"/><stop offset=".676" stop-color="#2994d0"/><stop offset=".827" stop-color="#2da9e2"/><stop offset=".966" stop-color="#32c4f8"/><stop offset="1" stop-color="#3cf"/></linearGradient><path fill="url(#J)" stroke="#FFF" stroke-width=".5" stroke-miterlimit="10" d="M66.2 143.9l-15.4 4.9c-.7.2-1.4-.2-1.6-.8l-2.3-7.3c-.2-.7.2-1.4.8-1.6l15.4-4.9c.7-.2 1.4.2 1.6.8l2.3 7.3c.2.7-.1 1.4-.8 1.6z"/><g fill="#FFF"><path d="M49.7 140.7c.3-.2.7-.3 1.1-.5.5-.2 1-.3 1.5-.1.4.1.6.5.7.8.2.5.1 1-.4 1.4.7 0 1.2.4 1.3 1 .1.4.1.8-.1 1.2-.2.4-.7.8-1.6 1.1-.4.1-.7.2-1 .2l-1.5-5.1zm1.7 1.8l.2-.1c.4-.1.6-.5.4-1-.1-.4-.4-.6-.8-.5-.1 0-.2.1-.3.1l.5 1.5zm.8 2.3c.1 0 .1 0 .2-.1.4-.1.7-.5.5-1-.2-.5-.6-.7-1-.6l-.2.1.5 1.6zM56.9 144.2l-.6-.9c-.2-.3-.4-.5-.6-.9 0 .4 0 .7.1 1v1.1l-1 .3.1-3-1.8-2.3 1.1-.3.6.9c.2.3.3.5.5.8v-2l1-.3-.1 3 1.9 2.3-1.2.3zM57.7 138l1.7 5.3-1 .3-1.7-5.3 1-.3zM61.9 136.7l1.4 4.4.4-.1.6 2-.8.3-.4-1.1-2.3.7.3 1.2-.8.2-.7-2 .4-.1v-1.4c-.1-.6-.2-1.3-.4-1.9l-.4-1.3 2.7-.9zm-1.3 2.1c.2.6.3 1.2.4 1.8.1.4.1.8.1 1.2l1.1-.4-1.1-3.5-.8.2.3.7z"/></g><path fill="#232323" d="M48.4 139.2c-.2 0-.3-.2-.2-.3l7.1-29.3c0-.1.1-.2.2-.2s.2.1.2.2l6.4 24.8c0 .1 0 .3-.2.3-.1 0-.3 0-.3-.2l-6.2-23.9-6.9 28.3c.1.3 0 .3-.1.3z"/></g><g><linearGradient id="K" gradientUnits="userSpaceOnUse" x1="55.74" y1="109.211" x2="55.74" y2="108.21"><stop offset=".004" stop-color="#fff"/><stop offset="1" stop-color="#bb8c6c"/></linearGradient><path fill="url(#K)" d="M37.4 108.2h36.8v1H37.4z"/><path fill="#F7F7F7" d="M39.1 108.6h.2v22h-.2zM71.7 108.6h.2v22h-.2z"/><linearGradient id="L" gradientUnits="userSpaceOnUse" x1="55.74" y1="110.577" x2="55.74" y2="109.576"><stop offset=".004" stop-color="#fff"/><stop offset="1" stop-color="#bb8c6c"/></linearGradient><path fill="url(#L)" d="M37.4 109.6h36.8v1H37.4z"/><linearGradient id="M" gradientUnits="userSpaceOnUse" x1="55.74" y1="111.943" x2="55.74" y2="110.942"><stop offset=".004" stop-color="#fff"/><stop offset="1" stop-color="#bb8c6c"/></linearGradient><path fill="url(#M)" d="M37.4 110.9h36.8v1H37.4z"/><linearGradient id="N" gradientUnits="userSpaceOnUse" x1="55.74" y1="113.309" x2="55.74" y2="112.308"><stop offset=".004" stop-color="#fff"/><stop offset="1" stop-color="#bb8c6c"/></linearGradient><path fill="url(#N)" d="M37.4 112.3h36.8v1H37.4z"/><linearGradient id="O" gradientUnits="userSpaceOnUse" x1="55.74" y1="114.675" x2="55.74" y2="113.674"><stop offset=".004" stop-color="#fff"/><stop offset="1" stop-color="#bb8c6c"/></linearGradient><path fill="url(#O)" d="M37.4 113.7h36.8v1H37.4z"/><linearGradient id="P" gradientUnits="userSpaceOnUse" x1="55.74" y1="116.041" x2="55.74" y2="115.041"><stop offset=".004" stop-color="#fff"/><stop offset="1" stop-color="#bb8c6c"/></linearGradient><path fill="url(#P)" d="M37.4 115h36.8v1H37.4z"/><linearGradient id="Q" gradientUnits="userSpaceOnUse" x1="55.74" y1="117.407" x2="55.74" y2="116.407"><stop offset=".004" stop-color="#fff"/><stop offset="1" stop-color="#bb8c6c"/></linearGradient><path fill="url(#Q)" d="M37.4 116.4h36.8v1H37.4z"/><linearGradient id="R" gradientUnits="userSpaceOnUse" x1="55.74" y1="118.773" x2="55.74" y2="117.773"><stop offset=".004" stop-color="#fff"/><stop offset="1" stop-color="#bb8c6c"/></linearGradient><path fill="url(#R)" d="M37.4 117.8h36.8v1H37.4z"/><linearGradient id="S" gradientUnits="userSpaceOnUse" x1="55.74" y1="120.139" x2="55.74" y2="119.139"><stop offset=".004" stop-color="#fff"/><stop offset="1" stop-color="#bb8c6c"/></linearGradient><path fill="url(#S)" d="M37.4 119.1h36.8v1H37.4z"/><linearGradient id="T" gradientUnits="userSpaceOnUse" x1="55.74" y1="121.505" x2="55.74" y2="120.505"><stop offset=".004" stop-color="#fff"/><stop offset="1" stop-color="#bb8c6c"/></linearGradient><path fill="url(#T)" d="M37.4 120.5h36.8v1H37.4z"/><linearGradient id="U" gradientUnits="userSpaceOnUse" x1="55.74" y1="122.871" x2="55.74" y2="121.871"><stop offset=".004" stop-color="#fff"/><stop offset="1" stop-color="#bb8c6c"/></linearGradient><path fill="url(#U)" d="M37.4 121.9h36.8v1H37.4z"/><linearGradient id="V" gradientUnits="userSpaceOnUse" x1="55.74" y1="124.237" x2="55.74" y2="123.237"><stop offset=".004" stop-color="#fff"/><stop offset="1" stop-color="#bb8c6c"/></linearGradient><path fill="url(#V)" d="M37.4 123.2h36.8v1H37.4z"/><linearGradient id="W" gradientUnits="userSpaceOnUse" x1="55.74" y1="125.603" x2="55.74" y2="124.603"><stop offset=".004" stop-color="#fff"/><stop offset="1" stop-color="#bb8c6c"/></linearGradient><path fill="url(#W)" d="M37.4 124.6h36.8v1H37.4z"/><linearGradient id="X" gradientUnits="userSpaceOnUse" x1="55.74" y1="126.969" x2="55.74" y2="125.969"><stop offset=".004" stop-color="#fff"/><stop offset="1" stop-color="#bb8c6c"/></linearGradient><path fill="url(#X)" d="M37.4 126h36.8v1H37.4z"/><linearGradient id="Y" gradientUnits="userSpaceOnUse" x1="55.74" y1="128.335" x2="55.74" y2="127.335"><stop offset=".004" stop-color="#fff"/><stop offset="1" stop-color="#bb8c6c"/></linearGradient><path fill="url(#Y)" d="M37.4 127.3h36.8v1H37.4z"/><linearGradient id="Z" gradientUnits="userSpaceOnUse" x1="55.74" y1="129.702" x2="55.74" y2="128.701"><stop offset=".004" stop-color="#fff"/><stop offset="1" stop-color="#bb8c6c"/></linearGradient><path fill="url(#Z)" d="M37.4 128.7h36.8v1H37.4z"/><linearGradient id="aa" gradientUnits="userSpaceOnUse" x1="55.74" y1="131.068" x2="55.74" y2="130.067"><stop offset=".004" stop-color="#fff"/><stop offset="1" stop-color="#bb8c6c"/></linearGradient><path fill="url(#aa)" d="M37.4 130.1h36.8v1H37.4z"/></g><g><linearGradient id="ab" gradientUnits="userSpaceOnUse" x1="55.733" y1="185.092" x2="55.733" y2="161.113"><stop offset=".004" stop-color="#e3d3c5"/><stop offset=".357" stop-color="#dac7b7"/><stop offset="1" stop-color="#cdb4a1"/></linearGradient><path fill="url(#ab)" d="M36.2 161.1h39v24h-39z"/><path opacity=".1" d="M39.3 181.4h33v1.2h-33z"/><linearGradient id="ac" gradientUnits="userSpaceOnUse" x1="55.733" y1="182.086" x2="55.733" y2="164.119"><stop offset="0" stop-color="#f8f1ec"/><stop offset=".492" stop-color="#efe0d6"/><stop offset=".999" stop-color="#e3ccbb"/></linearGradient><path fill="url(#ac)" d="M39.3 164.1h33v18h-33z"/><linearGradient id="ad" gradientUnits="userSpaceOnUse" x1="36.247" y1="185.394" x2="36.247" y2="160.811"><stop offset=".004" stop-color="#fff"/><stop offset="1" stop-color="#d2d1d0"/></linearGradient><path fill="url(#ad)" d="M36.6 184.8l-.7.6v-24.6l.7.6"/><linearGradient id="ae" gradientUnits="userSpaceOnUse" x1="20.441" y1="185.378" x2="20.441" y2="160.811" gradientTransform="matrix(-1 0 0 1 95.659 0)"><stop offset=".004" stop-color="#fff"/><stop offset="1" stop-color="#d2d1d0"/></linearGradient><path fill="url(#ae)" d="M75.6 160.8l-.8.6v23.4l.8.6z"/><linearGradient id="af" gradientUnits="userSpaceOnUse" x1="81.893" y1="342.278" x2="81.288" y2="342.278" gradientTransform="matrix(0 -1 -1 0 398.019 266.683)"><stop offset="0" stop-color="#d2d1d0"/><stop offset=".508" stop-color="#e7e6e6"/><stop offset=".996" stop-color="#fff"/></linearGradient><path fill="url(#af)" d="M75.6 185.4l-.8-.6H36.6l-.7.6z"/><linearGradient id="ag" gradientUnits="userSpaceOnUse" x1="-281.99" y1="342.278" x2="-282.595" y2="342.278" gradientTransform="rotate(90 -22.694 420.712)"><stop offset="0" stop-color="#d2d1d0"/><stop offset=".508" stop-color="#e7e6e6"/><stop offset=".996" stop-color="#fff"/></linearGradient><path fill="url(#ag)" d="M75.6 160.8l-.8.6H36.6l-.7-.6z"/><path opacity=".2" fill="#FFF" d="M39.3 164.1h33v.7h-33z"/></g></g><g><linearGradient id="ah" gradientUnits="userSpaceOnUse" x1="114.727" y1="66.717" x2="114.727" y2="60.77"><stop offset="0" stop-color="#aca595"/><stop offset=".147" stop-color="#bbb3a1"/><stop offset=".365" stop-color="#cac0ae"/><stop offset=".619" stop-color="#d3c9b5"/><stop offset=".996" stop-color="#d6cbb7"/></linearGradient><path fill="url(#ah)" d="M10 60.8h209.5v5.9H10z"/><path opacity=".5" fill="#FFF" d="M10 60.8h209.9v.9H10z"/></g><g><linearGradient id="ai" gradientUnits="userSpaceOnUse" x1="114.728" y1="125.097" x2="114.728" y2="75.239"><stop offset="0" stop-opacity=".1"/><stop offset="1" stop-opacity=".3"/></linearGradient><path fill="url(#ai)" d="M16.8 75.2h195.9v49.9H16.8z"/><linearGradient id="aj" gradientUnits="userSpaceOnUse" x1="37.918" y1="109.201" x2="37.918" y2="74.712"><stop offset=".004" stop-color="#fff"/><stop offset=".525" stop-color="#fdfdfd"/><stop offset=".713" stop-color="#f7f7f6"/><stop offset=".847" stop-color="#ebebeb"/><stop offset=".954" stop-color="#dbdbda"/><stop offset="1" stop-color="#d2d1d0"/></linearGradient><path fill="url(#aj)" d="M43.7 109.2H23.4l11.3-34.5h17.8z"/><linearGradient id="ak" gradientUnits="userSpaceOnUse" x1="33.534" y1="119.077" x2="33.534" y2="109.201"><stop offset="0" stop-color="#d2d1d0"/><stop offset=".521" stop-color="#d4d3d2"/><stop offset=".709" stop-color="#dad9d9"/><stop offset=".843" stop-color="#e6e5e4"/><stop offset=".95" stop-color="#f6f5f5"/><stop offset=".996" stop-color="#fff"/></linearGradient><path fill="url(#ak)" d="M23.4 109.2v2.5c0 4.1 4.6 7.4 10.2 7.4s10.2-3.3 10.2-7.4v-2.5H23.4z"/><linearGradient id="al" gradientUnits="userSpaceOnUse" x1="56.96" y1="109.201" x2="56.96" y2="74.712"><stop offset="0" stop-color="#ff6f05"/><stop offset=".284" stop-color="#fe6c05"/><stop offset=".479" stop-color="#f96305"/><stop offset=".648" stop-color="#f25404"/><stop offset=".801" stop-color="#e83e03"/><stop offset=".943" stop-color="#da2202"/><stop offset="1" stop-color="#d41502"/></linearGradient><path fill="url(#al)" d="M64 109.2H43.7l8.8-34.5h17.8z"/><linearGradient id="am" gradientUnits="userSpaceOnUse" x1="53.834" y1="119.077" x2="53.834" y2="109.201"><stop offset="0" stop-color="#d41502"/><stop offset=".247" stop-color="#d61802"/><stop offset=".448" stop-color="#da2202"/><stop offset=".634" stop-color="#e33303"/><stop offset=".81" stop-color="#ee4b04"/><stop offset=".977" stop-color="#fd6a05"/><stop offset="1" stop-color="#ff6f05"/></linearGradient><path fill="url(#am)" d="M43.7 109.2v2.5c0 4.1 4.6 7.4 10.2 7.4s10.2-3.3 10.2-7.4v-2.5H43.7z"/><linearGradient id="an" gradientUnits="userSpaceOnUse" x1="18.825" y1="109.201" x2="18.825" y2="74.712"><stop offset="0" stop-color="#ff6f05"/><stop offset=".284" stop-color="#fe6c05"/><stop offset=".479" stop-color="#f96305"/><stop offset=".648" stop-color="#f25404"/><stop offset=".801" stop-color="#e83e03"/><stop offset=".943" stop-color="#da2202"/><stop offset="1" stop-color="#d41502"/></linearGradient><path fill="url(#an)" d="M23.3 109.2H3l13.9-34.5h17.7z"/><linearGradient id="ao" gradientUnits="userSpaceOnUse" x1="13.178" y1="119.077" x2="13.178" y2="109.201"><stop offset="0" stop-color="#d41502"/><stop offset=".247" stop-color="#d61802"/><stop offset=".448" stop-color="#da2202"/><stop offset=".634" stop-color="#e33303"/><stop offset=".81" stop-color="#ee4b04"/><stop offset=".977" stop-color="#fd6a05"/><stop offset="1" stop-color="#ff6f05"/></linearGradient><path fill="url(#ao)" d="M3 109.2v2.5c0 4.1 4.6 7.4 10.2 7.4s10.2-3.3 10.2-7.4v-2.5H3z"/><g><linearGradient id="ap" gradientUnits="userSpaceOnUse" x1="76.053" y1="109.201" x2="76.053" y2="74.712"><stop offset=".004" stop-color="#fff"/><stop offset=".525" stop-color="#fdfdfd"/><stop offset=".713" stop-color="#f7f7f6"/><stop offset=".847" stop-color="#ebebeb"/><stop offset=".954" stop-color="#dbdbda"/><stop offset="1" stop-color="#d2d1d0"/></linearGradient><path fill="url(#ap)" d="M84.3 109.2H64l6.3-34.5h17.8z"/><linearGradient id="aq" gradientUnits="userSpaceOnUse" x1="74.19" y1="119.077" x2="74.19" y2="109.201"><stop offset="0" stop-color="#d2d1d0"/><stop offset=".521" stop-color="#d4d3d2"/><stop offset=".709" stop-color="#dad9d9"/><stop offset=".843" stop-color="#e6e5e4"/><stop offset=".95" stop-color="#f6f5f5"/><stop offset=".996" stop-color="#fff"/></linearGradient><path fill="url(#aq)" d="M64 109.2v2.5c0 4.1 4.6 7.4 10.2 7.4s10.2-3.3 10.2-7.4v-2.5H64z"/></g><g><linearGradient id="ar" gradientUnits="userSpaceOnUse" x1="95.094" y1="109.201" x2="95.094" y2="74.712"><stop offset="0" stop-color="#ff6f05"/><stop offset=".284" stop-color="#fe6c05"/><stop offset=".479" stop-color="#f96305"/><stop offset=".648" stop-color="#f25404"/><stop offset=".801" stop-color="#e83e03"/><stop offset=".943" stop-color="#da2202"/><stop offset="1" stop-color="#d41502"/></linearGradient><path fill="url(#ar)" d="M104.6 109.2H84.3l3.8-34.5h17.8z"/><linearGradient id="as" gradientUnits="userSpaceOnUse" x1="94.491" y1="119.077" x2="94.491" y2="109.201"><stop offset="0" stop-color="#d41502"/><stop offset=".247" stop-color="#d61802"/><stop offset=".448" stop-color="#da2202"/><stop offset=".634" stop-color="#e33303"/><stop offset=".81" stop-color="#ee4b04"/><stop offset=".977" stop-color="#fd6a05"/><stop offset="1" stop-color="#ff6f05"/></linearGradient><path fill="url(#as)" d="M84.3 109.2v2.5c0 4.1 4.6 7.4 10.2 7.4s10.2-3.3 10.2-7.4v-2.5H84.3z"/></g><g><linearGradient id="at" gradientUnits="userSpaceOnUse" x1="114.819" y1="109.201" x2="114.819" y2="74.712"><stop offset=".004" stop-color="#fff"/><stop offset=".525" stop-color="#fdfdfd"/><stop offset=".713" stop-color="#f7f7f6"/><stop offset=".847" stop-color="#ebebeb"/><stop offset=".954" stop-color="#dbdbda"/><stop offset="1" stop-color="#d2d1d0"/></linearGradient><path fill="url(#at)" d="M125 109.2h-20.3l1.2-34.5h17.8z"/><linearGradient id="au" gradientUnits="userSpaceOnUse" x1="114.847" y1="119.077" x2="114.847" y2="109.201"><stop offset="0" stop-color="#d2d1d0"/><stop offset=".521" stop-color="#d4d3d2"/><stop offset=".709" stop-color="#dad9d9"/><stop offset=".843" stop-color="#e6e5e4"/><stop offset=".95" stop-color="#f6f5f5"/><stop offset=".996" stop-color="#fff"/></linearGradient><path fill="url(#au)" d="M104.7 109.2v2.5c0 4.1 4.6 7.4 10.2 7.4s10.2-3.3 10.2-7.4v-2.5h-20.4z"/></g><g><linearGradient id="av" gradientUnits="userSpaceOnUse" x1="134.488" y1="109.201" x2="134.488" y2="74.712"><stop offset="0" stop-color="#ff6f05"/><stop offset=".284" stop-color="#fe6c05"/><stop offset=".479" stop-color="#f96305"/><stop offset=".648" stop-color="#f25404"/><stop offset=".801" stop-color="#e83e03"/><stop offset=".943" stop-color="#da2202"/><stop offset="1" stop-color="#d41502"/></linearGradient><path fill="url(#av)" d="M145.3 109.2H125l-1.3-34.5h17.8z"/><linearGradient id="aw" gradientUnits="userSpaceOnUse" x1="135.147" y1="119.077" x2="135.147" y2="109.201"><stop offset="0" stop-color="#d41502"/><stop offset=".247" stop-color="#d61802"/><stop offset=".448" stop-color="#da2202"/><stop offset=".634" stop-color="#e33303"/><stop offset=".81" stop-color="#ee4b04"/><stop offset=".977" stop-color="#fd6a05"/><stop offset="1" stop-color="#ff6f05"/></linearGradient><path fill="url(#aw)" d="M125 109.2v2.5c0 4.1 4.6 7.4 10.2 7.4s10.2-3.3 10.2-7.4v-2.5H125z"/></g><g><linearGradient id="ax" gradientUnits="userSpaceOnUse" x1="153.581" y1="109.201" x2="153.581" y2="74.712"><stop offset=".004" stop-color="#fff"/><stop offset=".525" stop-color="#fdfdfd"/><stop offset=".713" stop-color="#f7f7f6"/><stop offset=".847" stop-color="#ebebeb"/><stop offset=".954" stop-color="#dbdbda"/><stop offset="1" stop-color="#d2d1d0"/></linearGradient><path fill="url(#ax)" d="M165.6 109.2h-20.3l-3.8-34.5h17.8z"/><linearGradient id="ay" gradientUnits="userSpaceOnUse" x1="155.503" y1="119.077" x2="155.503" y2="109.201"><stop offset="0" stop-color="#d2d1d0"/><stop offset=".521" stop-color="#d4d3d2"/><stop offset=".709" stop-color="#dad9d9"/><stop offset=".843" stop-color="#e6e5e4"/><stop offset=".95" stop-color="#f6f5f5"/><stop offset=".996" stop-color="#fff"/></linearGradient><path fill="url(#ay)" d="M145.3 109.2v2.5c0 4.1 4.6 7.4 10.2 7.4s10.2-3.3 10.2-7.4v-2.5h-20.4z"/></g><g><linearGradient id="az" gradientUnits="userSpaceOnUse" x1="172.623" y1="109.201" x2="172.623" y2="74.712"><stop offset="0" stop-color="#ff6f05"/><stop offset=".284" stop-color="#fe6c05"/><stop offset=".479" stop-color="#f96305"/><stop offset=".648" stop-color="#f25404"/><stop offset=".801" stop-color="#e83e03"/><stop offset=".943" stop-color="#da2202"/><stop offset="1" stop-color="#d41502"/></linearGradient><path fill="url(#az)" d="M185.9 109.2h-20.3l-6.3-34.5h17.8z"/><linearGradient id="aA" gradientUnits="userSpaceOnUse" x1="175.804" y1="119.077" x2="175.804" y2="109.201"><stop offset="0" stop-color="#d41502"/><stop offset=".247" stop-color="#d61802"/><stop offset=".448" stop-color="#da2202"/><stop offset=".634" stop-color="#e33303"/><stop offset=".81" stop-color="#ee4b04"/><stop offset=".977" stop-color="#fd6a05"/><stop offset="1" stop-color="#ff6f05"/></linearGradient><path fill="url(#aA)" d="M165.6 109.2v2.5c0 4.1 4.6 7.4 10.2 7.4s10.2-3.3 10.2-7.4v-2.5h-20.4z"/></g><g><linearGradient id="aB" gradientUnits="userSpaceOnUse" x1="191.716" y1="109.201" x2="191.716" y2="74.712"><stop offset=".004" stop-color="#fff"/><stop offset=".525" stop-color="#fdfdfd"/><stop offset=".713" stop-color="#f7f7f6"/><stop offset=".847" stop-color="#ebebeb"/><stop offset=".954" stop-color="#dbdbda"/><stop offset="1" stop-color="#d2d1d0"/></linearGradient><path fill="url(#aB)" d="M206.3 109.2H186l-8.8-34.5h17.7z"/><linearGradient id="aC" gradientUnits="userSpaceOnUse" x1="196.159" y1="119.077" x2="196.159" y2="109.201"><stop offset="0" stop-color="#d2d1d0"/><stop offset=".521" stop-color="#d4d3d2"/><stop offset=".709" stop-color="#dad9d9"/><stop offset=".843" stop-color="#e6e5e4"/><stop offset=".95" stop-color="#f6f5f5"/><stop offset=".996" stop-color="#fff"/></linearGradient><path fill="url(#aC)" d="M186 109.2v2.5c0 4.1 4.6 7.4 10.2 7.4s10.2-3.3 10.2-7.4v-2.5H186z"/></g><g><linearGradient id="aD" gradientUnits="userSpaceOnUse" x1="210.757" y1="109.201" x2="210.757" y2="74.712"><stop offset="0" stop-color="#ff6f05"/><stop offset=".284" stop-color="#fe6c05"/><stop offset=".479" stop-color="#f96305"/><stop offset=".648" stop-color="#f25404"/><stop offset=".801" stop-color="#e83e03"/><stop offset=".943" stop-color="#da2202"/><stop offset="1" stop-color="#d41502"/></linearGradient><path fill="url(#aD)" d="M226.6 109.2h-20.3l-11.4-34.5h17.8z"/><path opacity=".15" fill="#FFF" d="M3.1 108.1h223.1v1.1H3.1z"/><linearGradient id="aE" gradientUnits="userSpaceOnUse" x1="216.46" y1="119.077" x2="216.46" y2="109.201"><stop offset="0" stop-color="#d41502"/><stop offset=".247" stop-color="#d61802"/><stop offset=".448" stop-color="#da2202"/><stop offset=".634" stop-color="#e33303"/><stop offset=".81" stop-color="#ee4b04"/><stop offset=".977" stop-color="#fd6a05"/><stop offset="1" stop-color="#ff6f05"/></linearGradient><path fill="url(#aE)" d="M206.3 109.2v2.5c0 4.1 4.6 7.4 10.2 7.4s10.2-3.3 10.2-7.4v-2.5h-20.4z"/></g></g><g opacity=".15"><path d="M16.8 73.7h196v2h-196z"/></g><g><linearGradient id="aF" gradientUnits="userSpaceOnUse" x1="114.739" y1="74.647" x2="114.739" y2="66.717"><stop offset=".004" stop-color="#dc7d3d"/><stop offset=".253" stop-color="#d97b3c"/><stop offset=".421" stop-color="#d0763a"/><stop offset=".566" stop-color="#c16d35"/><stop offset=".696" stop-color="#ac602f"/><stop offset=".818" stop-color="#905027"/><stop offset=".932" stop-color="#6e3b1e"/><stop offset="1" stop-color="#562d17"/></linearGradient><path fill="url(#aF)" d="M16.8 66.7h196v7.9h-196z"/></g><linearGradient id="aG" gradientUnits="userSpaceOnUse" x1="36.644" y1="184.814" x2="36.644" y2="161.413"><stop offset=".004" stop-color="#fff"/><stop offset="1" stop-color="#d2d1d0"/></linearGradient><path fill="url(#aG)" d="M36.6 161.4v23.4"/><g><circle opacity=".1" cx="77" cy="159.8" r="2.2"/><radialGradient id="aH" cx="77.034" cy="156.195" r="3.763" gradientUnits="userSpaceOnUse"><stop offset=".004" stop-color="#fff"/><stop offset=".202" stop-color="#fcfcfc"/><stop offset=".372" stop-color="#f1f1f1"/><stop offset=".533" stop-color="#dfdfdf"/><stop offset=".688" stop-color="#c6c6c6"/><stop offset=".839" stop-color="#a6a6a6"/><stop offset=".984" stop-color="#7f7f7f"/><stop offset="1" stop-color="#7a7a7a"/></radialGradient><circle fill="url(#aH)" cx="77" cy="159.4" r="2.2"/></g><g fill="#FFA631"><path d="M134.9 137.7v1.9H131v-1.9h3.9zM139 133.7l-2.2 1.1-.4-2 2.9-1.5h2.3v12.9H139v-10.5zM151.9 137.6c0 4.6-1.7 6.7-3.8 6.7-2.8 0-3.8-3.2-3.8-6.5 0-3.7 1.2-6.7 3.8-6.7 3.1 0 3.8 3.4 3.8 6.5zm-4.9.1c0 3 .3 4.4 1.2 4.4.8 0 1.1-1.4 1.1-4.4 0-2.8-.3-4.4-1.1-4.4s-1.2 1.4-1.2 4.4zM157.5 135.9c0 1.8-.8 2.7-1.7 2.7-1.2 0-1.7-1.3-1.7-2.6 0-1.4.6-2.7 1.8-2.7 1.2-.1 1.6 1.4 1.6 2.6zm-2.3 0c0 1.1.2 1.7.6 1.7.4 0 .5-.6.5-1.7 0-1-.1-1.7-.6-1.7-.3 0-.5.6-.5 1.7zm.2 6.2l4.7-8.9h.9l-4.7 8.9h-.9zm6.9-2.7c0 1.8-.8 2.7-1.7 2.7-1.2 0-1.7-1.3-1.7-2.6 0-1.4.6-2.7 1.8-2.7 1.2 0 1.6 1.4 1.6 2.6zm-2.3 0c0 1.1.2 1.7.6 1.7.4 0 .5-.6.5-1.7 0-1-.1-1.7-.6-1.7-.3 0-.5.6-.5 1.7z"/></g><path opacity=".25" d="M28.8 174.5h1.4v19h-1.4zM81.2 174.5h1.4v19h-1.4z"/><g><path d="M157.9 65.4H71.7c-2.1 0-3.7-1.7-3.7-3.7v-27c0-2.1 1.7-3.7 3.7-3.7h86.2c2.1 0 3.7 1.7 3.7 3.7v26.9c.1 2.1-1.6 3.8-3.7 3.8z" opacity=".15"/><linearGradient id="aI" gradientUnits="userSpaceOnUse" x1="114.819" y1="64.363" x2="114.819" y2="30"><stop offset=".004" stop-color="#fff"/><stop offset=".525" stop-color="#fdfdfd"/><stop offset=".713" stop-color="#f7f7f6"/><stop offset=".847" stop-color="#ebebeb"/><stop offset=".954" stop-color="#dbdbda"/><stop offset="1" stop-color="#d2d1d0"/></linearGradient><path fill="url(#aI)" d="M157.9 64.4H71.7c-2.1 0-3.7-1.7-3.7-3.7v-27c0-2.1 1.7-3.7 3.7-3.7h86.2c2.1 0 3.7 1.7 3.7 3.7v26.9c.1 2.1-1.6 3.8-3.7 3.8z"/><g><path fill="#883700" d="M86.7 51.4c-.2 1.8-2 3.4-3.9 2.7 0 .4-.2 1.6.1 1.8.5.4 1.9 0 2.4-.4 1.7-1 1.5-3.1 1.5-4.7 0 .2 0 .4-.1.6z"/><path fill="#AE4700" d="M89.9 48.4c.8 1.1 1.1 2.5 1.1 3.8 0-2.5-.1-5-2.3-6.7-1.3-1-3-1.5-4.7-1.4-.2 0-1.3 0-1.4.1v.3c-.1.4 0 1 0 1.4 2.8-.3 5.7.2 7.3 2.5z"/><path fill="#9D3F00" d="M78.7 36.4h10.8v1.7H78.7z"/><path fill="#F26200" d="M89 47.4c1.3 1.1 2 2.7 2 4.8 0 2-.7 3.6-1.8 4.7-1.4 1.5-3.7 2.2-6.8 2.2-1.6 0-2.9-.1-3.8-.2V38.1h10.8v3.5h-6.7V46c.6-.1 1.1-.2 1.7-.2 1.8 0 3.5.6 4.6 1.6zm-3 7.5c.5-.6.8-1.5.8-2.4 0-1-.3-1.8-.8-2.4-.5-.6-1.3-1-2.2-1-.3 0-.7 0-.9.1v6.6c.3.1.6.1.9.1.9 0 1.7-.3 2.2-1"/><path fill="#9D3F00" d="M93.5 36.4h4.1v1.7h-4.1z"/><path fill="#F26200" d="M93.5 38.1h4.1V59h-4.1z"/><g><path fill="#813400" d="M100 58.4v-1.8l.6-3.3V55z"/><path fill="#883700" d="M107.2 51.7c-.3 3.2-4.5 2.9-6.6 1.7v1.7c2.2 1.2 6.6 1.4 6.6-2.1v-1.7c.1.1 0 .2 0 .4z"/><path fill="#963D00" d="M111.5 51.1c-.1-2.5-1.7-4.5-4.2-5v1.7c2.6.5 4.2 2.7 4.2 5.2v-1.7-.2z"/><path fill="#883700" d="M106.6 42.7c-.3 1.6-2.2 2.3-3.7 2.3h-.4v1.7h.4c1.7 0 3.8-.8 3.8-2.8v-1.7c0 .2-.1.4-.1.5z"/><path fill="#963D00" d="M110.9 41.2c-.2-5.1-7-6.1-10.6-3.7v1.7c3.6-2.5 10.6-1.3 10.6 3.9v-1.7-.2z"/><path fill="#F26200" d="M105 37.9c4 0 5.9 2.4 5.9 5.1 0 2.1-1.4 4.2-3.6 4.8v.1c2.5.5 4.2 2.4 4.2 5.2 0 4-3.5 6.2-7.2 6.2-1.8 0-3.3-.4-4.3-.9l.6-3.3c.9.5 2.1.8 3.3.8 2.2 0 3.4-1.2 3.4-2.9 0-2.4-1.9-3.3-4.2-3.3h-.6v-3.1h.4c1.9 0 3.8-.9 3.8-2.8 0-1.5-.9-2.5-2.7-2.5-1 0-2.1.4-3 .9l-.7-3.1c1-.6 2.7-1.2 4.7-1.2z"/></g><g><path fill="#9D3F00" d="M118.2 44.8h4.3v1.7h-4.3zM114.1 36.4h4.1v1.7h-4.1zM122.5 36.4h4.1v1.7h-4.1z"/><path fill="#F26200" d="M126.6 38.1V59h-4.1v-8.7h-4.3V59h-4.1V38.1h4.1v8.4h4.3v-8.4z"/></g><g><path fill="#9D3F00" d="M134.4 53.8h5.4v1.7h-5.4zM134.4 44.7h4.8v1.7h-4.8zM130.3 36.4h9.2v1.7h-9.2z"/><path fill="#F26200" d="M139.5 38.1v3.6h-5.1v4.8h4.8v3.4h-4.8v5.6h5.4V59h-9.5V38.1z"/></g><g><path fill="#9B3F00" d="M152.4 55.3v-1.7l.4 3.4v1.7z"/><path fill="#883700" d="M152.1 53.7c-1.7.4-3.4.2-4.6-1.2-1.2-1.5-1.5-3.7-1.5-5.6v1.7c0 2 .2 4.5 1.8 5.9 1.3 1.2 3.1 1.2 4.6.7v-1.7c-.1.1-.2.2-.3.2z"/><path fill="#963D00" d="M151.8 38.1c.4.1.9.2 1.3.4v-1.7c-1-.7-2.7-.6-3.8-.5-1.3.1-2.6.6-3.7 1.4-3 2.2-3.9 6-3.9 9.5v1.7c0-2.9.6-6.2 2.7-8.4 1.8-2 4.7-2.9 7.4-2.4z"/><path fill="#F26200" d="M150.2 38c1.5 0 2.5.3 2.9.6l-.7 3.4c-.5-.2-1-.4-1.9-.4-2.3 0-4.4 2-4.4 7.2 0 5 1.9 6.9 4.4 6.9.7 0 1.5-.2 2-.3l.4 3.4c-.6.3-1.8.5-3.2.5-5.4 0-8-4.4-8-10.3-.1-8 4.4-11 8.5-11z"/></g></g></g><g fill-rule="evenodd" clip-rule="evenodd"><path fill="#657D2A" d="M195.5 198.8c.2-.4.7.2.8-.3-.4-.7-.7-1.3-.4-2.2.2.1.3.5.6.3-.7-1.7-.2-3.2-2.2-4.2-.2.3-.5.2-.6.4-.3-.4.8-.6 1-1.2-.5-.5-.4.6-.9 0 .1-.4.3-.3.6-.2 0-.2-.1-.3 0-.5-.6 0-.7 1.3-1.7.6.9-.4 1.6-1.4 2.6-1.6.4.2.2.7 0 1.1.7 0 1.2-.9 1.7-1.3-1.1.6-1.5-.8-2.4-.4-.5-.4.4-.3.3-.8.1-.8.6-1.8.5-2.5.9-.1.4-1.4 1.3-1.5.3.3 0 .8.4 1.1-.2.2-.4.3-.7.1 0 .5 0 1 .3 1.3-.8.2-.6.8-1 1.6.9 0 .7-.9 1.7-.8-.4-.5 0-1 .4-1.4-.2-.5-.8-.9-.2-1.7.2.2.3.4.1.7.3 0 .4-.2.7-.1-.4-.6.1-1.5.2-2.9.4-.5.1.6.7.5.2-.8-.2-1.4-.2-2.1.2.1.3-.2.4-.3.1.2.2.3.5.4.1 0 .1.1.2.1-.5.5-.8 2 0 2.1.2.1.3-.3.4-.5.5.3.3.8.6 1.2.6.2.5-1.9 1.3-1.3-.5.3-.7 1.3-1.2 1.5-.4-1.1-1.8.1-1.4-1.1-.6.4 0 1-.5 1.6.5-.2.4.4 1.1.5-.2.4.4.5 0 .9.5.4.5-.6 1.1 0 0-.7.2-.7.5-1.6.2.1.4.1.5 0 .3.2-.2.7.3.8-.1.2-.3 0-.5 0 .1.5.6 0 .6.7.2 0 .3-.3.6-.2-.1-.9-.3-1.8-.4-2.7.1-.2.3 0 .5 0-.4.5.6.5 0 1.1.4.1.4-.6.7-.6.7.4-.5.7-.1 1.3.3.1.4-.3.2-.4.1-.2.3 0 .5 0 .1.2.3.4.7.5-.4.3-.7 1.6.1 1.9-.2.1-.8.5-.1.7-1.7 1.1-.7 1.8-2.2 3.4-.6.5-.1.5-.3 1.2.5.4.6-.4 1.1 0-.2.4-.2.6.1.7-.9.4.1 1 0 1.6.9-.5 1.5.6 2.2-.4-.3-.3-.4-.2.2-.8.1 0 .1.1.2.1-.4.6.4.7-.1 1.3-1.7 0-2.2 1.6-1.9 2.6.2 0 .4-.1.7.1-.2.3 0 .4-.1.7-.6-.4-.8.1-1 .7-.6-.1-.2-.6-.6-.7.2.6.2.8-.5.7 1 .3-1.4-.2-.9-.6-.3-.1-.5-.2-.8-.3.3-.5-.2 1.5.2 1-.2.2-.9.1-2.1 0-.1-.4.1-.3.3-.6-.5-.7-1.3 1-1-.2-.4-.2-.6.3-.8.8-.4-1.1-1.4.5-1.1-.5-.4-.1-.4.6-.7.6-.5-.2-.6.3-1.1 0z"/><path fill="#7C982B" d="M201 193.5c0-1.2.4-1.7.7-3.1-.7-.3-2.1.3-2-.7.4-.5 1-.7 1.4-1.2-.7-.4-.8.5-1.6 0-.3.6-.6.9-1.1.9.2-.3-.1-.5-.1-.7.8.4.3-.9.9-1.4.1.9.2 0 1 .4.5-.9-.3-1.9.6-2.5.1.2.5.8.7.1l.3-.6c.6.4.2 1.1.7 1.5.6.2 2-.1 1.9.9.6.2.7-.6.4-1 .1-.2.4 0 .6-.2.1-.1.1-.3.2-.4.7.5-.1 1.5 1 1.8.6-.6 1.4-.9 1.8-1.9.7 1.1-.6 1.9-1.4 2.6 0 .2.3.4.1.7.4-.1 1.7-.2 1.4-1 .3-.3.6.7 1 .9-.6-.2-1.4.2-2.1.7-.6-.1-.2-.6-.6-.7-.6-.1-.1.8-.2 1 .4 0 .4-.5.7.1-.8-.1-.5 1-1 1.2.8.4.3-.4.5-.7.9 1 0 1.1-.8 1.7.5.8 1.4-1.1 2.2-.8-.4.6-.2 1.1.2.6.4.4-.5.5-.5 1.1.2 0 .4-.3.7-.1 0 .4-.9.4-.3.8.9-.4 1.2.9 2.4.4-.6.4-1 1.3-1.7 1.3.2-.5.5-.9 0-1.1-1 .2-1.7 1.2-2.6 1.6.9.7 1-.7 1.7-.6-.1.2.1.3 0 .5-.2-.1-.5-.1-.6.2.5.5.4-.6.9 0-.2.5-1.3.8-1 1.2-.4-.1-1.7-.5-2.5-.5l.3-.6c-.5-.3-.8-.3-1 .2-.1 0-.1-.1-.2-.1-.6.6-1.3.6-2.1.6.9-.4.4-.9.7-1.5-1.1-.5-1.3-1.1-1.6-1.6z"/><path fill="#7C982B" d="M215.7 197.7c-.6 0-1.5-.6-1.7-1.2-.3.6 0 1-.7 1.1.2.4.9.7.2 1.5 0-.9-1.9-.4-1.8-1.5-.2 0-.4.1-.7-.1 0 .3.1.5.4.6-1.2.8-.4-1.1-2.1-1.4-.6-.3.2.8-.5.5.1.3.3.6.5.9-.3.4-.6.6-.8 1.2-.3-.7-1.1-.5-1.7-.8-.2.1-.5 1.1-1.3.8-.3-.3.4-.9 0-1.1.1-.2-.1-.4.1-.7-.3-.1-.5-.1-.7-.1-.3-1 .1-2.6 1.9-2.6.5-.6-.2-.8.1-1.3.7.2-.1 1.1.5 1.4.8-.8 1.7-1.4 1.9-2.8-.2 0-.4 0-.6.2-.2-.4.4-2.1 1.2-1.5-.5.7-.5.7-.1 1.3.6.1.2-.7.4-1 .3.1.2.3.5.4.1-.5.1-1 .5-1.6.5.3.7-.4 1-.7.9 1.1 2.2.4 3 .9-1.1.2-3.1.5-2.4 1.9-.2.5-.9-.2-1 .7 1.7.1 1.6-2.2 3.2-2-.1.6-.6.2-.7.6.6.4.7-.3 1.2-.1.1-.2-.2-.3-.3-.4.7.2 1.1-.3 1.8-.4-.2.2-.5.4-.7.6.6-.1 1-.5 1.5-.7.4.3-.4.4-.5.7-.6.7-1 .4-1.7 1.3-.9-1.1-1.5.9-2.6.7 0 .2 0 .4.2.6.7-.5 1.2-1.2 2.1-1.1-.7.9-1.5 1.2-2.1 2.2-.5-.4-.6 0-1-.2-.1.4-.2.7 0 .9.7-.9 2.1-.1 2.8-1.1-.5-.2-.7 0-1 .2-.4-.4.7-.4.7-1.1.3 1 .5.3 1.2.3-.4.8-.2 1.3.6 1.7-.6.3-1.2.4-1.9.5 1 1.4 2.1-.8 3-1.2.4.2.5-.4.9 0-.3 1 0 1.1-.7 2-.2.2-.7-.3-.9 0 0 .3.3 0 .6.3-.1.4-.4.4-.5.7-.5-.2-.9.1-1.3 0z"/><path fill="#63832D" d="M217.6 194.9c-.9.4-2 2.6-3 1.2.6-.1 1.3-.2 1.9-.5-.9-.3-1.1-.9-.6-1.7-.7 0-.9.6-1.2-.3 0 .7-1.1.7-.7 1.1.3-.2.6-.5 1-.2-.7.9-2.1.1-2.8 1.1-.2-.2-.2-.6 0-.9.4.3.6-.2 1 .2.6-1.1 1.5-1.4 2.1-2.2-.9 0-1.4.6-2.1 1.1-.2-.1-.2-.3-.2-.6 1 .2 1.7-1.8 2.6-.7.7-.9 1.2-.6 1.7-1.3-.9 1.2-2.7 1.5-1.1 2.9-.3.6-.1 1 .3 1.3.3-.6-.5-.8-.1-1.4.5.5 1.2-.4.8-.8.2-.2.2.1.4.2 0 .6.8 1 0 1.5z"/><path fill="#536C28" d="M198.6 182.6c-.1 1.6-.6 2.5-.2 3.1-.3-.1-.5.2-.8.1.2-.3.1-.6-.1-.8-.6.9 0 1.2.2 1.8-.4.4-.9 1-.4 1.5-1.2-.1-.9.9-1.9.9.4-.9.2-1.5 1-1.8-.4-.4-.3-.9-.4-1.4.3.2.6.1.8-.1-.5-.3-.2-.8-.5-1.2-1 .1-.5 1.5-1.4 1.6.2.8-.4 1.8-.5 2.7-.4-.2-.5.1-.8.1 0-.7 1-.8.6-1.2-.5.6-.7 0-.2-.6-.9-.2-1.8 1.8-2.4.9.8-.6 1.8-.8.8-1.8-.3.4.2 1.2-.6.7.5-.2.2-1.3 1.1-1.2-.3-.6-.3-.1-.7-.1.1-.3-.4-1.2.3-1.1.4.2 0 .7.6.8.8-.5 1.6-.9 2.3-.7-.4-.2-.8-1.3-1-1 .4.8-1 .9-1.5 1.1.2-.4-.1-.5-.1-.8.8-.7 2.2-1.6 1.5-2.8-.5 1.1-1.3 1.4-1.9 2.1-1.1-.4-.4-1.5-1.1-2-.1.1-.1.3-.2.4-.3-.6-.1-1.4.3-2.3.3.2.8-1.1.8-.1.5.1-.1-.4.5-.5.2.1 0 .5.2.6 1-.1-.3-.8.3-1.3.1.2.3.4.4.2-.2.4-.6 2.6-.9 3.1 0 .3.3 0 .6.3-.1.1-.3.1-.4.3.5-.1 1.6-1.8 2.1-.3.4-.1.7-.5 1-1 .5.3 0 .9.2 1.3.7 0 .5-1.1.6-1.4.5.2.2 1.1-.1 1.4.7 0 .9-.4 1-1 .9.4 0 1.5-.3 2.3.2.1.3-.2.4-.3.2.1 0 .5-.1.7 1.1 0-.2-1.5.9-1.2z"/><path fill="#4E6C29" d="M207.5 188.5c-.6.4.3.4-.4 1 .4.5.9-.5.8.2-.5.6-1.2.7-1.7 1.3 1.1.6 1.3-.9 2.2-.8.5-.5-.5-.4 0-.9.2-.2 1-.9 1-.2-1.2.1.2.5-.3 1.2-.9-.8-1.9 2.6-3.1.9-.3.4-.8.5-1.2.6.1-.2-.1-.3 0-.5 1.5-.4 1-2 2.6-2.7-.1-.1 0-.1.1-.1z"/><path fill="#536C28" d="M217 197.9c.2-.2.4-.2.5-.7-.3-.2-.6.1-.6-.3.2-.3.7.2.9 0 .7-.9.4-1 .7-2-.5-.4-.6.2-.9 0 .8-.5 0-.9 0-1.6l.6.3c0-.8.5-.9.6-.2.3-.8.9-1 1.3-1.5.6.5.1 1.3.3 2 .3-.3.7-.4 1.1-.4.2 0 .1.2.1.3.1.3 0 .6-.2 1 .3.2.6-.1.6.3-.6.5 0 .9 0 1.6.1-.2.6 0 .6.3-.1.2-.3.2-.4.3-.3.7-.8.9-1.4 1-.6-.8-1.5-.5-2.5-1.1-.1.9-.7.4-.9 1-.1-.2-.3-.3-.4-.3z"/><path fill="#63832D" d="M217.1 190.6c-.6.1-1 .6-1.8.4.1.1.4.2.3.4-.5-.1-.6.5-1.2.1.2-.4.6 0 .7-.6-1.6-.2-1.5 2.1-3.2 2 .1-.9.8-.2 1-.7-.7-1.4 1.4-1.7 2.4-1.9.1 0 .1.1.2.1 0-.3-.2-.4-.1-.7.6-.2 1.3.4 1.7.8.3-1 .9-1.3 1.4-1.6-.5.8.4 0 .2.6-.4.4-1.1.4-1.6 1.1z"/><path fill="#3C4B1D" d="M215.5 189.6c-.1.3.2.5.1.7-.1 0-.1-.1-.2-.1-.8-.5-2.1.2-3-.9-.3.3-.4 1-1 .7-.2-.5.3-.7.5-1.1.1-.8-.6-1.3-.2-2.1-.3-.1-.6-.3-1-.4-.1.5-.4.7-.7.6.2-.3 0-.6-.3-.4-.9-.7.9-.5 1.1-.9-.4.5 1.3 1.1 1.9 1.3-1.4-.9 1.3-.8 1.6 0 .7-1.4-1.3-.9-2.1-1.4.3-.4-.8-1 0-.5.4-.9-.4-.6-1-.9 0 .8-1.9 1.4-1.1.4.3 0 .6-.1.8-.3-.7.2.1-.7-.1-1.4.6.8.3.1.4-.5.2.2.3.4.1.7.4.2.4-.6.6-.9.2.6.5.3.8.2 0 .7.2.7 1 .9-.2.6-.8.2-.9 1-.9-.1.2-1-.6-1.2-.4.3-.8.6-1.3.8.6.3.9-.2 1.5.2 0 .3.1.6 0 .9.6 0 1.4.3 1.9-.1.2-.5-.7.2-.2-.6.9.4 2.7-.6 2.3-1 .9-.5.1 1.1.3 1.5.4.3.6.1.8.2.1.3.3.2.6.3-.8.8-.1 1.1-.8 1.7-.6.2-.8.9-1.4.1-.2.3-.2.7-.5.7-.3-.2-.3-.6-.8-.8-.2 1.5-.4.7-.9 1.9 1.2.2 1.2-.1 1.8.7z"/><path fill="#7C982B" d="M218.9 197.6c-.6.2-1.3.3-1.8.5-.5-.2-.9-.4-1.1-.7-.4.5 0 .6-.2 1-.8-.5 0 .4-.6.2 0-.1.1-.2-.1-.3.1-.6.5-.4.6-.9-.5-.3-1-.7-.5-1.4-.4-.2-.7.1-1.2-.3.2-.3.2-.6.2-.8.5.1.9.3 1.1-.4-.4-.4-1.3.1-1.3-.6.8-.6.8-1.5 1.8-1.9-.5-.6.3-1.2 0-1.6-.3.4-.9-.3-1-.4-.1.1-.1.3-.2.4-.3-.2-.3-.6-.8-.8-.2 0-.3.1-.5 0-.3 1.3-.7 1.3-.6 2.5-.8-.3-1-.9-.6-1.7-.1 0-.1-.1-.2-.1-.3 0-.4.1-.6-.3.6-.5.3-1.8.3-2.6-.3-.1-.4.5-.9 0-.1.3-.2.5-.3.8-.1-.2 0-.5-.4-.6.7-.4 1.3-1.4 1.7-2.7.9.4.7 1.2.7 1.9.5 0 .8-.3 1.1-.9-.3-.9-1-.4-1.7-1.4.1-.4.4-.3.5-.7.5.4-.4.3-.3.8.6.3.8-.6 1.4-.5.1-.6-.5 0-.8-.3.2-.3-.1-.5.2-.8.5.4.8.9 1.2 1.4-.1-.7-.1-1.1 0-1.6.5.4.5 2 1.9 2 .9 0 .4-1.3 1.2-1.5 1.1-.5 2.1-1.2 3.3-1.3-.2.5-.6.4-.4 1 .3-.6 1.2.3 1.6 0 .1-.5-1.2-.5-1.2-1 .2-.5.4-.8.9-.5-.2.1-.3.2-.4.5l.6.3c1-1.7 2.2-2.3 3.2-1.1.4 0 .4-.7.3-.8.6.2.7 1 1.3 1.3-.2.7 1-.2.4.6.7 0 .5-.8.9-1 .6.1.2.5.6.7-.1.1-.3.1-.4.3-.7.7-2.1 2.3-.9 2.6.4.5-.4 1.3-1 .7-.3.7.2 1.2.1 1.9-.5-.1-.3-.5-.9-.6-.3 0-.5.2-.7.1-.1.6.8 0 .9.6-.2.5-.9-.1-1.1.4-.1.3.5.5.6.3.2.1 0 .4-.1.7.7-.4 1-.5.8-1.2.9.1.2.8.7 1-.3.2-.8 0-1 .2-.1.2.2.3.3.4-.3.4-.7.8 0 1.1-.8.6-.6 1.1-1.4 1.7-.2-.4-.1-1.3.5-1.1-.1-.9-.5-.9-1.2-1.4-.4 1-.8.2-1.6.9.4.3.7.8 1.8 1-.3.8-.7.3-1.1 0-.1.4-.2.7 0 .9-.6.7.4.9 0 1.6-.6-.1-.2-.6-.6-.7-.5.4-.8 1.2-1.3 1.5-.3.8-1.5 1.2-1.7 2.7zm-12.7-4.8c-.6.2-1.3.3-1.8.5-.5-.2-.9-.4-1.1-.7-.4.5 0 .6-.2 1-.8-.5 0 .4-.6.2 0-.1.1-.2-.1-.3.1-.6.5-.4.6-.9-.5-.3-1-.7-.5-1.4-.4-.2-.7.1-1.2-.3.2-.3.2-.6.2-.8.5.1.9.3 1.1-.4-.4-.4-1.3.1-1.3-.6.8-.6.8-1.5 1.8-1.9-.5-.6.3-1.2 0-1.6-.3.4-.9-.3-1-.4-.1.1-.1.3-.2.4-.3-.2-.3-.6-.8-.8-.2 0-.3.1-.5 0-.3 1.3-.7 1.3-.6 2.5-.8-.3-1-.9-.6-1.7-.1 0-.1-.1-.2-.1-.3 0-.4.1-.6-.3.6-.5.3-1.8.3-2.6-.3-.1-.4.5-.9 0-.1.3-.2.5-.3.8-.1-.2 0-.5-.4-.6.7-.4 1.3-1.4 1.7-2.7.9.4.7 1.2.7 1.9.5 0 .8-.3 1.1-.9-.3-.9-1-.4-1.7-1.4.1-.4.4-.3.5-.7.5.4-.4.3-.3.8.6.3.8-.6 1.4-.5.1-.6-.5 0-.8-.3.2-.3-.1-.5.2-.8.5.4.8.9 1.2 1.4-.1-.7-.1-1.1 0-1.6.5.4.5 2 1.9 2 .9 0 .4-1.3 1.2-1.5 1.1-.5 2.1-1.2 3.3-1.3-.2.5-.6.4-.4 1 .3-.6 1.2.3 1.6 0 .1-.5-1.2-.5-1.2-1 .2-.5.4-.8.9-.5-.2.1-.3.2-.4.5l.6.3c1-1.7 2.2-2.3 3.2-1.1.4 0 .4-.7.3-.8.6.2.7 1 1.3 1.3-.2.7 1-.2.4.6.7 0 .5-.8.9-1 .6.1.2.5.6.7-.1.1-.3.1-.4.3-.7.7-2.1 2.3-.9 2.6.4.5-.4 1.3-1 .7-.3.7.2 1.2.1 1.9-.5-.1-.3-.5-.9-.6-.3 0-.5.2-.7.1-.1.6.8 0 .9.6-.2.5-.9-.1-1.1.4-.1.3.5.5.6.3.2.1 0 .4-.1.7.7-.4 1-.5.8-1.2.9.1.2.8.7 1-.3.2-.8 0-1 .2-.1.2.2.3.3.4-.3.4-.7.8 0 1.1-.8.6-.6 1.1-1.4 1.7-.2-.4-.1-1.3.5-1.1-.1-.9-.5-.9-1.2-1.4-.4 1-.8.2-1.6.9.4.3.7.8 1.8 1-.3.8-.7.3-1.1 0-.1.4-.2.7 0 .9-.6.7.4.9 0 1.6-.6-.1-.2-.6-.6-.7-.5.4-.8 1.2-1.3 1.5-.3.8-1.5 1.2-1.7 2.7zm8.8-5.4c.1 0 .1.1.2.1.2-.4 1.2-.6 1.2-.1-.5-.1-1.5.6-.9 1 .8 0 1.4-.9 2-1.4 0 .8 1.4.7 1.2-.1.3.2.5-.1.7-.1-.1.2.1.3 0 .5-.4-.1-.6.1-.7.6.8.1.3.7 1 .9.1-1 1.4-1 1.2-1.5-.6-.2-.1.2-.8.3.2-.4-.1-.5-.1-.7.3-.4.9-.1 1.1-.9-.6-.1-.2-.6-.6-.7-.1.3-.4.4-.6.4.4-1 .9-1 1-1.6-1.1.2-1.3.6-2.4.3-.7 1.9-2.6.9-4.1.9.2.2.2.6 0 .9-.2-.3-.4-.4-.7-.1.4.3-.3 1-.4 1.4 1.5-.3.3 2.5 1.8 1.7-.4-.7-.1-1.3-.1-1.8z"/><path fill="#536C28" d="M205.1 182.5c-.5-.9.7-1-.1-1.9-.2.7-.8 0-1.1.4.2.1.2.3.2.6-.7-.1-.5 0-.7-.5-.3.6-1.2 1-.7 1.5-1.1-.5-1.9-.5-2.2-.7.2-.5.9.1 1.1-.4-.7-.4-.5-.4-1.3-.6.2-.4.4-.9.6-1.3.9.1 1.3-1 2.2-.8-.5.7 0 1 .5 1.4.6-.6 1.5-.1 1.8-.5.2.2.1.5.4.6.3.8-.1 1.2-.7 2.2z"/><path fill="#7C982B" d="M210.7 192.5c-.9-.1-1.3 1-2.2.8-.2.4-.4.9-.6 1.3-.1.2-.3.2-.4.3-.3-.1-.4-.3-.5-.4-.1.1-.2.4-.4.3-.5-.3-.1-.9-.3-1.3-.1.1-.2.4-.4.3-.5-.6.2-.8.3-1.7-.5-.2-.9-.4-1.2-.3-.7.8-.1 1.2-.4 1.9-.5-.7-.9-.3-1.6-.5.5-.1.8-1.4.1-.7-1.3-.8 1.3-.3 1.3-1.5-1.3-.1-.7.5-1.8.5.1-.2-.1-.3 0-.5.9.6-.4-.9.6-.9.1.4.8.6.9 0-1.1-.3-1.3-1-1.6-1.6.6-.3.9.8 1.3.1-.7-.7-1.5 0-1.7-1.2-.6-.2-.7.9-1.3.8.1-.8-1.2-.8-1.3-1.3.2-.3.6.1.6-.4-.1-.1-.4-.2-.3-.4.1-.3.3-.4.4-.5-.4-.3-.6.2-1-.2-.6 0 .1.7-.5.7-.3-.8-1.6-1.2-1.6-2.1.3-.3.4-1.3-.1-.7.1.1.2.1.1.3-.2-.2-.2-.4-.6-.3-.5.4.5.9-.2.8-.2-.3-.2-.7-.2-1 .6-.8.4-1.1.9-1-.2-.6-.5-.7-1-.2.1.1.4.2.3.4-.3-.1-.6-.3-1-.4.2-.4.6-.3.9-.5-.4-.8-2.1.1-2.5-.6.5-.6 2.4.3 2.3-.6-.9-.2-1.7.4-2.4-.4.1-.2-.1-.2-.2-.1.1-1 1.8-1.5 1.5-2.8-.2.1-.4.2-.6.4-.1.2.1.2.2.1-.6 1.1-1.7 1.8-3.2 1.5.5-1 .2-.7 1.1-2.5.5-.2 1.2 0 1.6-.4.8-.4 1.1-1.4 1.7-.8-.2 0-.4 0-.6.2.2.1.4.1.5 0 .2.2-.1.5-.2.8.3-.1.6-.4 1.1 0-.2.7-.6 1-.9 1.4-.1.4.8.4.8.8-.1.7-.7.1-.8.8.7.5.8-.7 1.3-.8.9 0 .9 1.7 1.4.4.7.5-.5.7-.1 1.3.6.2.9-.4 1.6 0 .2.5-.2.5-.4 1 .4 0 .6-.6 1.1-.4 0 .7.5 1.2 1.1 1.2 0-.9.3-.2.6-.9.2.6.3.6.9.6.2-.3-.1-.5.2-.8-.3-.8.6 1-.2.8.1.8.5.2.2 1 .3 0 .4-.2.7-.1-.4.7-.5 1.3-.6 1.8-.3-.1-.2.3 0 .5-.2.2-.2-.2-.6-.3 0 1-.2.6-.3 2.2.7.3 1-.5 1.4-1 .9.5-.4 1.9 0 2.5.9-.7.5 1.1 1.7 1.2-1.1-1.1.3-1.9 1-3.2 1.1 1.2-.4 1.8-.1 3.2.8-.3.6-1.5.7-2 1.2.1 1.4-1.2 1.2-2.2.6.2.3.7.7 1 .5.2.6-.7 1.2-.1-.3-.6-.1-.3.2-1 .1-.3-.3-.4-.4-.2-.2-.2.1-.5.2-.8.7.1 1.3-.1 1.7-.8.4.2.7.3.9 0 .1.1.1.3.3.4-.1.9.8.4.3 1.3.2-.1.4-.2.6-.4.2.1 0 .4-.1.7-.2.3 0 .4.2.6-.8.1-1.9.7-1.3 1.5-.4.3-1.2 1.1-1.6.4-1.4 1-1.1 1.2-1.6 3 .4-.2.9-.3 1.2-1.1.4.3.2.9.6 1.2-.4.2-.9-.2-1 .7-1 .2.8.6.1 1.2.5-.1.3-.2.1-.3z"/><path fill="#657D2A" d="M209.5 184c.4-.5 0-.7 0-1.1.2.1.2.4.5.4.1-.4.8-1.1.4-1.4-.7.2-.3.7-1 .7-.1-.6.4-.8.2-1-.3.2-.5.6-.8.8.9.3-.2.6-.3.8 1.1 0-.1.7-.5 1.1 0-.1-.1-.3-.2-.1.1.1.2.1.1.3-.2.7.7-.6.6.3-.3.2-.8.1-1 .7.5.2.9.4.8.8-.3.5-.8.5-1.1.9-.7-.2-.7-.7-.9-1.1.3-1 1.4-2.3.6-2.9-.2.6-.4 1-1 .7.1-.3.1-.5.1-.7.4 0 .4-.5.7.1.1-.2.2-.3.4-.3-.4-1-.9-1.9.1-3.4.2.5.1 1.1-.1 1.8.6-.4.4 0 .7.5.5 0 .6-.9 1.1-.9.3-.4-.9-.3-.3-.8.3.1.4.4.4.6.5-.1.7-.9 1.4-.5-.4-.6.1-.5.1-1.3.4.4.4 2.1 1.2 1 .5.1.5-.9 0-.9.4-.1.7-.8.2-1 .6-.5.5.6.5.9.9-.5.5 1.3 1.2.8.5-.1.1-.5.6-.9.2.3.1.7.5.9-.8.8-2.2 2.2-1.3 2.4-.1.2-.4.2-.4.5-.4.1-.6.4-.8-.2-.2.2-.2 1.1-.6.9.2-.3.1-.6-.1-.7-.1.6.2 1.2-.4.5.2.7-.7 1.6.1 1.4-.2.2-.5.3-.8.3.1-.2.3-.5.1-.7-.5 0-.7-.1-1-.2z"/><path fill="#536C28" d="M210.6 178.5c.2 1 0 2.3-1.2 2.2-.1.5.1 1.7-.7 2-.4-1.4 1.1-2 .1-3.2-.7 1.3-2.1 2.1-1 3.2-1.2-.2-.8-1.9-1.7-1.2-.5-.7.9-2 0-2.5.2-.9 1.1.3.8-.8-.4.4-.7-1-1.3-.6.1-.5.2-1.1.6-1.8.4 0 .3-.5.1-.2-.1-.5.2-1.2-.2-1.7 0-.2.2-.1.3-.1.1.1.2 0 .3-.1.3.3-.1.4-.3.6.5.4.6 0 1 .2-.2.6.7.9.4 1.6.6.1.2-.7.4-1 .4.4-.1 1.6.8 1.3.2.2-.1.3-.4.3-.3.3 1 .6.2.6.2.2.5.6 1.2 1-.1-.6-.3-.6-.2-1.5 1 .1.5 1 1.3.6 0 .1-.1.8-.5 1.1zM214.1 187.4c.5-.4.7-.4 1.1 0 .6-.9.1-1.4 0-2.1.7-.3.7-1 1.4-1.7-.6-.1-.8.4-1-.4-.4 0-.4.9-.8.8.4-.5-.4-.6 0-1.1.3-.1.5-.5.9-.5-.5-.3 1-.9.4-1.4-.2.5-.6.6-1.1.4l-.6-.3c.7-.1 1-1.6 1.8-1.5.3 0 .9.7 1 .2.3.2.3.5 0 .9.3.2.8.2.7.5-.8.1.3 1 .7 1.5-.3.5-1.1 1.4-1.2 2.2.2 0 .9-.6.5-.7.9-.4 1.1.8 1.5 1.2-.7.3 0 .7-.3 1.2.5.3 1.4-.5.9.6.4.2.7.1.8-.3.3-.5-1.3-.3-.7-1 .9.4 1.2 1.1 1 2.3 0 .8-.7-.2-.8.3.5.2 0 .8.1 1.2-.7.5-.4-1.3-1.2-.8 0-.3.1-1.4-.5-.9.5.2.1.9-.2 1 .6 0 .6 1 0 .9.2-1.8-1-1.5-2.1-2.5.1 1-.8 1.4-.4 2.4-.5.4-.4-.6-.8-.2.4.4 0 1.2-.5 1.1.3-.7-.4-.9-.2-1.5.3.1.6.3.7-.1-1.2-.2.5-.8-.6-1.2-.1.5-.4.7-.7.6-.3-.2-.7-.2-.7-.5 1.1.7 1.1-.2.9-.6z"/><path fill="#657D2A" d="M210.1 182.6c-.1 0-.1-.1-.2-.1-.1.7-.7 0-.9.5.8.4.5 1.3 1.5 1.2-.3 1 0 1.9-1.1 2 .4.1 0 1.2.6.7-.3-.4.8-.4 1.1-.4-.1.4-.6.9 0 .9.1-.4.2-1.6.8-1.7-.1.6 0 1.2.4 1.6.3.1.4-.4.7-.1.3-.8.7-1.3 1.3-1.3-.2.5-.3 1-.1 1.3.2-.5.4-.9.7-1.1-.5-.2 0-.9.3-1.2.5 0 1 0 1.3-.3-.1-.2-.5-.9.1-.8.2.1.3.2.3.4.7.3.7-1.3 1.5-.7-.1-.3 0-.6.2-1-.3-.2-.2-.4-.5-.9-.2 1.4-1.2-1.1-2-.2l-.6-.3c-.6-.3-1-.6-.6-1.2.7 0-.1.7.6.7.2-.1.4-.2.6-.4 0-.7-1-.9-1.6-1-.1.2.2.3.3.4-1 .3-1.3-1-1.1-1.6.2-.4.2-.6-.1-.7.2-.2.5.1.8.2.3-.4-.2-.6.2-1 1.2 1-1.4 2.3.8 2.9.6.3.6-1.1 1.4-.5.1-.2-.2-.3-.3-.4-.2-.5 0-1-.2-1.5 1 .1 2.5.6 3.8.3-.1-.4.1-.3.3-.6.4.7-.7.7-.9 1 .4.5.9-.5.9.2-.4.7-1.3-.2-1.8.4-.1.6.7.2 1 .4-.3.1-.4.7-.8.3.2.8 1.1.2 1.4-.1.6 1.1-.5 2.1-1.4 2.6.4.3.6-.2 1 .2-.2.3-.2.8-.5.7 0 .4.4.7 1 .9-.9-.6-.2-2.2 1.1-1.4-.4-1.2.7-.4 1.1-1.5.7.3.4.5 0 .9 0 .3.3 0 .6.3-.3.4-.7.7-.9 1.4.6.4.6-.7 1.2-.1-.1.3-.3.5-.1.7.1.2.2.4.4.6-.8-.3-1 1-1.7.8.2 2-2 0-2.8.6-.1.6.5 0 .8.3-.3.5-1 .2-1.5.3-.1.5-.2 1.5-.8 1.7.6.5.6-.5.8-.8.6.3.3.9.2 1.5-.1-.2-.2-.3-.5-.4-.1.4.7.5.2 1-.7.3-.2 1.6-1.2 1.5-1.4 0-1.4-1.6-1.9-2-.1.5-.2.9 0 1.6-.3-.5-.7-1-1.2-1.4-.2.3 0 .5-.2.8.3.3.9-.3.8.3-.6-.1-.8.8-1.4.5 0-.4.9-.4.3-.8-.3-.2.1-.6-.4-.6-.3.7-.6 1.6-1.3 1.3.1-.6 1-.8.6-1.3-.4 0-.4.9-.8.8 0-.4-.6-.9-1.1-.7-.2.7 0 1.3.1 1.9-.7-.8-.7-1.2-1.6-2.1.2-1.2-.2-1.9-1-2.3-.7.7 1 .5.7 1-.2.4-.4.5-.8.3.6-1.1-.4-.4-.9-.6.3-.5-.4-1 .3-1.2-.4-.3-.7-1.5-1.5-1.2.4.1-.3.7-.5.7.1-.8 1-1.7 1.2-2.2-.4-.4-1.6-1.4-.7-1.5.2.2.1.5.4.6.4-.4.7-1.1.6-1.8.9.1.6.7 1.2 1 .5-.7 1.2-.8 1.8-1 .3.4.4 1 .2 1.8z"/><path fill="#657D2A" d="M216.3 185.6c-1.3-.1-1.8-.4-1.6-1.6-.2.3-.5-.1-.6-.3-.8.8.1 1.7-.7 2-.4-.3.2-.9-.1-1.2-.8.6-.1 1.2-.2 2-.4-.3-.8-.8-1.1 0 .7.1.3.5.6.7.1-.3 1.3.2 1.1.5-.5.4-.6-.5-.8-.2-.8.4-.4-.5-1.3-.6-.1.9.2.8.2 1.5-.7-.4-1-.8-1.2-1 .8.1-.5-.3-.2-.6.2 0 .6-.1.4-.3-.2-.6.5-1.5 1-.7 0-.5-.5-.9-.8-1.3.9-1.2 1.2-3.2 1.8-3.1-.7-.6.4-1-.4-1.6.3-.3.8-.5.9 0 0-.2 0-.4-.2-.6.4-.7 1-1 1.4-1.7.4 0 .6-.3.8-.8.3.2-.2.7.3.8-.7 0-.1.6-.8.3.4.3-.1.9.1 1.2-.1.1-.1.3-.2.4.3.2.4 0 .6-.2.4.5.1 1.2.1 1.9.7.1.5-.9.8-.8.1.2.3.4.7.5 0-.3-.4-.4-.1-.7.4.3.1.8.7 1-.1.3-.3.6-.4 1-.1.5.9.5 1.2.8-.1.3-.3.6-.4 1-.6-.2.1-1.3-.7-.5-.3-.3.1-.4.3-.6-1.3-.2-.7 2.5-2.4 1.9.2.8 1 0 1.6.5-.1.2-.3.2-.4.4z"/></g><g fill-rule="evenodd" clip-rule="evenodd"><path fill="#657D2A" d="M27.2 199.1c-.1-.3-.5.1-.6-.2.3-.5.5-.9.3-1.6-.2.1-.2.4-.4.2.5-1.3.1-2.3 1.6-3 .1.2.3.1.5.3.2-.3-.6-.5-.7-.8.4-.4.3.4.7 0-.1-.3-.2-.2-.4-.2 0-.1.1-.2 0-.3.5 0 .5 1 1.2.5-.6-.3-1.1-1-1.8-1.2-.3.2-.1.5 0 .8-.5 0-.8-.6-1.2-.9.8.4 1.1-.6 1.7-.3.4-.3-.3-.2-.2-.5-.1-.6-.4-1.3-.3-1.8-.6 0-.3-1-1-1-.2.2 0 .6-.3.8.1.1.3.2.5.1 0 .3 0 .7-.2.9.6.1.4.6.7 1.2-.7 0-.5-.7-1.3-.6.3-.3 0-.7-.3-1 .1-.4.6-.6.1-1.2-.1.1-.2.3-.1.5-.2 0-.3-.1-.5-.1.3-.4-.1-1-.1-2.1-.3-.4-.1.4-.5.4-.2-.6.1-1 .1-1.5-.1.1-.2-.1-.3-.2l-.3.3s-.1 0-.1.1c.4.3.6 1.4 0 1.5-.2 0-.2-.2-.3-.3-.4.2-.2.6-.4.9-.5.1-.3-1.3-.9-.9.3.2.5.9.8 1.1.3-.8 1.3.1 1-.8.5.3 0 .7.4 1.2-.4-.1-.3.3-.8.4.1.3-.3.3 0 .7-.4.3-.4-.4-.8 0 0-.5-.2-.5-.4-1.2-.1.1-.3.1-.3 0-.3.1.1.5-.2.6.1.1.2 0 .3 0-.1.4-.5 0-.4.5-.2 0-.2-.2-.4-.2.1-.7.2-1.3.3-1.9-.1-.1-.2 0-.3 0 .3.4-.4.4 0 .8-.3.1-.3-.4-.5-.4-.5.3.3.5.1.9-.2 0-.3-.2-.1-.3-.1-.1-.2 0-.3 0-.1.2-.2.3-.5.4.3.2.5 1.1-.1 1.3.1.1.5.4 0 .5 1.2.8.5 1.3 1.6 2.4.5.4.1.4.2.9-.4.3-.4-.3-.8 0 .2.3.2.4-.1.5.7.3-.1.7 0 1.1-.6-.3-1 .4-1.6-.3.2-.2.3-.1-.1-.6 0 0-.1 0-.1.1.3.4-.3.5.1.9 1.2 0 1.6 1.2 1.3 1.9h-.5c.1.2 0 .3 0 .5.4-.3.6.1.7.5.4-.1.2-.4.4-.5-.1.4-.1.6.4.5-.7.2 1-.2.6-.4.2-.1.4-.2.5-.2-.2-.4.2 1.1-.2.7.1.1.7.1 1.5 0 .1-.3 0-.2-.2-.4.4-.5.9.7.7-.2.3-.1.5.2.6.6.3-.8 1 .4.8-.4.3-.1.3.4.5.4.3-.5.4-.2.7-.4z"/><path fill="#7C982B" d="M23.3 195.3c0-.9-.3-1.2-.5-2.2.5-.2 1.5.2 1.4-.5-.3-.4-.7-.5-1-.8.5-.3.6.4 1.1 0 .2.4.4.6.8.6-.2-.3.1-.4.1-.5-.6.3-.2-.7-.6-1-.1.6-.1 0-.7.3-.4-.7.2-1.4-.5-1.8-.1.1-.4.5-.5 0-.1-.1-.1-.3-.2-.4-.4.3-.2.8-.5 1.1-.4.2-1.4-.1-1.4.6-.4.1-.5-.5-.3-.7-.1-.1-.3 0-.4-.2 0-.1-.1-.2-.1-.3-.5.3 0 1.1-.7 1.3-.4-.5-1-.6-1.3-1.4-.5.8.5 1.4 1 1.9 0 .2-.3.3-.1.5-.3-.1-1.2-.2-1-.7-.2-.2-.4.5-.7.6.4-.2 1 .1 1.5.5.4-.1.2-.4.4-.5.4 0 .1.5.2.7-.3 0-.3-.4-.5 0 .6-.1.4.7.7.8-.5.3-.2-.3-.4-.5-.7.7 0 .8.6 1.2-.4.6-1-.8-1.6-.6.3.4.2.8-.2.4-.3.3.4.3.4.8-.2 0-.3-.3-.5-.1 0 .3.6.3.2.5-.6-.3-.9.7-1.7.3.4.3.7.9 1.2.9-.2-.3-.3-.7 0-.8.7.2 1.2.9 1.8 1.2-.7.5-.7-.5-1.2-.5.1.1 0 .2 0 .3.2-.1.3-.1.4.2-.4.4-.3-.4-.7 0 .1.4.9.6.7.8.3 0 1.2-.4 1.8-.3-.1-.1-.1-.3-.2-.4.3-.2.6-.2.7.2 0 0 .1 0 .1-.1.4.4 1 .5 1.5.5-.6-.3-.3-.6-.5-1.1 1.1 0 1.2-.4 1.4-.8z"/><path fill="#7C982B" d="M12.7 198.3c.5 0 1.1-.4 1.2-.9.2.5 0 .7.5.8-.1.3-.6.5-.2 1.1 0-.7 1.4-.3 1.3-1.1h.5c0 .2-.1.4-.3.5.9.6.3-.8 1.5-1 .4-.2-.2.6.3.3-.1.2-.2.4-.4.7.2.3.4.4.6.9.2-.5.8-.4 1.2-.6.2.1.4.8.9.6.2-.2-.3-.6 0-.8-.1-.2.1-.3 0-.5.2-.1.3-.1.5 0 .2-.7-.1-1.8-1.3-1.9-.4-.4.2-.5-.1-.9-.5.2 0 .8-.4 1-.6-.6-1.2-1-1.4-2 .2 0 .3 0 .4.1.1-.3-.3-1.5-.8-1.1.4.5.3.5.1.9-.5.1-.1-.5-.3-.7-.2.1-.2.2-.3.3-.1-.4-.1-.7-.4-1.2-.4.2-.5-.3-.7-.5-.7.8-1.6.3-2.2.6.8.1 2.2.3 1.8 1.3.2.3.7-.1.7.5-1.2 0-1.1-1.6-2.3-1.4.1.4.4.2.5.4-.4.3-.5-.2-.9-.1-.1-.1.1-.2.2-.3-.5.2-.8-.2-1.3-.3.2.2.4.3.5.4-.4 0-.7-.4-1.1-.5-.3.2.3.3.4.5.4.5.7.3 1.2.9.6-.8 1.1.7 1.9.5 0 .2 0 .3-.2.4-.5-.3-.9-.8-1.5-.8.5.6 1.1.9 1.5 1.6.3-.3.4 0 .7-.2.1.3.1.5 0 .7-.5-.7-1.5-.1-2-.8.3-.2.5 0 .7.2.3-.3-.5-.3-.5-.8-.2.7-.4.2-.9.2.3.6.2 1-.5 1.2.4.2.9.3 1.3.4-.7 1-1.5-.6-2.2-.8-.3.1-.3-.3-.7 0 .2.7 0 .8.5 1.4.2.2.5-.2.7 0 0 .2-.2 0-.4.2.1.3.3.3.4.5.8 0 1 .2 1.3.1z"/><path fill="#63832D" d="M11.4 196.3c.7.3 1.5 1.9 2.2.8-.5-.1-.9-.2-1.3-.4.6-.2.8-.6.5-1.2.5 0 .7.5.9-.2 0 .5.8.5.5.8-.2-.1-.4-.3-.7-.2.5.7 1.5.1 2 .8.1-.2.1-.4 0-.7-.3.2-.4-.1-.7.2-.4-.8-1.1-1-1.5-1.6.6 0 1 .5 1.5.8.1-.1.1-.2.2-.4-.8.2-1.2-1.3-1.9-.5-.5-.7-.8-.4-1.2-.9.6.9 2 1.1.8 2.1.2.4 0 .7-.2.9-.2-.4.3-.5 0-1-.3.3-.8-.3-.6-.6-.1-.2-.1.1-.3.1-.2.6-.8.8-.2 1.2z"/><path fill="#536C28" d="M25.1 187.5c.1 1.1.5 1.8.1 2.2.2-.1.4.1.6.1-.1-.3-.1-.4.1-.6.5.6 0 .9-.1 1.3.3.3.7.7.3 1.1.8-.1.6.7 1.3.6-.3-.6-.1-1.1-.7-1.3.3-.3.2-.6.3-1-.3.1-.4.1-.6-.1.3-.2.1-.6.3-.9.7.1.3 1.1 1 1.1-.1.6.3 1.3.3 2 .3-.2.4.1.6.1 0-.5-.7-.6-.4-.9.4.4.5 0 .2-.4.6-.2 1.3 1.3 1.7.6-.6-.4-1.3-.6-.6-1.3.2.3-.2.8.4.5-.3-.1-.1-1-.8-.9.2-.4.2 0 .5-.1-.1-.2.3-.8-.2-.8-.3.1 0 .5-.5.6-.6-.4-1.2-.7-1.6-.5.3-.1.6-.9.7-.7-.3.6.7.7 1.1.8-.2-.3.1-.4.1-.6-.6-.5-1.6-1.1-1.1-2 .3.8.9 1 1.4 1.5.8-.3.1-3.6.1-2.9-.4.1.1-.3-.3-.4-.1.1 0 .3-.2.4-.7-.1.2-.6-.2-.9-.1.1-.2.3-.3.1.1.3.4 1.9.6 2.2 0 .2-.2 0-.4.2.1.1.2.1.3.2-.4-.1-1.1-1.3-1.5-.2-.3-.1-.5-.4-.7-.8-.4.2 0 .7-.1.9-.5 0-.3-.8-.5-1-.3.2-.1.8.1 1-.5 0-.7-.3-.7-.8-.6.3 0 1.1.2 1.7-.1.1-.2-.1-.3-.2-.2.1 0 .3 0 .5-.7.4.3-.7-.5-.4z"/><path fill="#4E6C29" d="M18.7 191.7c.5.3-.2.3.3.7-.3.3-.7-.3-.6.1.4.5.9.5 1.2.9-.8.4-1-.7-1.6-.6-.4-.4.4-.3 0-.7-.2-.1-.7-.7-.7-.2.8.1-.1.3.2.9.6-.6 1.3 1.9 2.3.6.2.3.5.4.9.4-.1-.1 0-.2 0-.3-1-.3-.7-1.4-1.9-2 0 .2-.1.2-.1.2z"/><path fill="#536C28" d="M11.8 198.4c-.1-.2-.3-.2-.4-.5.2-.2.4 0 .4-.2-.1-.2-.5.1-.7 0-.5-.7-.3-.7-.5-1.4.3-.3.4.1.7 0-.5-.4 0-.7 0-1.1-.1.1-.3.1-.4.2 0-.5-.3-.7-.4-.2-.2-.6-.6-.7-1-1-.4.3-.1.9-.2 1.4-.2-.2-.5-.3-.8-.3-.1 0-.1.1-.1.2 0 .2 0 .4.2.7-.2.2-.4 0-.4.2.4.4 0 .7 0 1.1-.1-.2-.5 0-.4.2.1.1.2.1.3.2.2.5.6.6 1 .7.4-.6 1.1-.4 1.8-.8.1.6.5.3.6.7.1 0 .2 0 .3-.1z"/><path fill="#63832D" d="M11.8 193.2c.4 0 .7.4 1.3.3-.1.1-.3.1-.2.3.3-.1.5.4.9.1-.1-.3-.5 0-.5-.4 1.2-.1 1.1 1.5 2.3 1.4-.1-.6-.5-.2-.7-.5.5-1-1-1.2-1.8-1.3 0 0-.1 0-.1.1 0-.2.1-.3.1-.5-.4-.1-1 .3-1.2.6-.2-.7-.6-.9-1-1.2.4.6-.3 0-.2.4.2.2.7.2 1.1.7z"/><path fill="#3C4B1D" d="M12.9 192.5c.1.2-.1.3-.1.5 0 0 .1 0 .1-.1.6-.4 1.5.1 2.2-.6.2.2.3.7.7.5.2-.4-.2-.5-.4-.8-.1-.6.4-.9.1-1.5.2-.1.5-.2.7-.3.1.3.3.5.5.4-.1-.2 0-.5.2-.3.7-.5-.6-.4-.8-.6.3.3-.9.8-1.4 1 1-.6-.9-.6-1.1 0-.5-1 1-.7 1.5-1-.2-.3.6-.7 0-.3-.3-.6.3-.4.7-.6 0 .6 1.4 1 .8.3-.2 0-.4-.1-.6-.2.5.2-.1-.5 0-1-.5.5-.2.1-.3-.4-.1.1-.2.3-.1.5-.3.2-.3-.5-.4-.6-.2.4-.3.2-.6.1 0 .5-.2.5-.7.6.1.5.6.1.6.7.7-.1-.1-.7.4-.9l.9.6c-.4.2-.6-.2-1.1.2v.7c-.5 0-1 .2-1.3-.1-.2-.4.5.2.2-.4-.7.3-1.9-.4-1.7-.7-.7-.3-.1.8-.2 1.1-.3.2-.4.1-.6.1-.1.2-.2.1-.4.2.6.6.1.8.6 1.2.4.1.6.6 1 0 .1.2.2.5.4.5.2-.2.2-.4.6-.6.1 1.1.3.5.6 1.4-.6 0-.5-.2-1 .4z"/><path fill="#7C982B" d="M9.4 196.1c-.4-.2-.6-.8-1-1-.3.1 0 .5-.4.5-.3-.5.4-.6 0-1.1.1-.2.1-.4 0-.7-.3.2-.6.6-.8 0 .8-.1 1-.5 1.3-.7-.5-.5-.9.1-1.1-.7-.5.4-.8.4-.8 1 .5-.1.5.6.4.8-.6-.4-.5-.8-1-1.2.5-.3.2-.5 0-.8.1-.1.3-.1.2-.3-.2-.2-.5 0-.7-.2.3-.2-.1-.7.5-.7-.1.6.1.6.6.9-.1-.2-.2-.4 0-.5.1.2.5 0 .4-.2-.2-.3-.6 0-.8-.3 0-.5.7 0 .6-.4-.2.1-.3-.1-.5-.1-.4.1-.3.4-.6.4-.1-.5.3-.8.1-1.3-.4.4-1-.2-.7-.5.9-.2-.2-1.3-.7-1.8-.1-.1-.2-.1-.3-.2.3-.1 0-.5.4-.5.3.1.1.7.6.7-.4-.6.4 0 .3-.5.4-.2.5-.8.9-.9-.1.1 0 .5.2.5.7-.9 1.6-.4 2.3.8.1-.1.3-.1.4-.2-.1-.2-.2-.3-.3-.3.3-.2.5 0 .7.4 0 .3-.9.3-.8.7.3.2.9-.4 1.1 0 .1-.4-.1-.4-.3-.7.9 0 1.6.5 2.4.9.5.2.2 1.1.8 1.1 1 0 1-1.1 1.3-1.4.1.4.1.6 0 1.1.3-.4.5-.7.8-1 .1.2 0 .4.1.6-.2.2-.6-.2-.5.2.4-.1.5.6 1 .4 0-.3-.6-.3-.2-.5.1.3.3.2.4.5-.4.7-.9.4-1.2 1 .2.4.4.6.8.6 0-.5-.1-1.1.5-1.4.3.9.7 1.6 1.2 1.9-.3.1-.2.3-.3.5-.1-.2-.2-.4-.2-.5-.4.3-.4-.1-.7 0 0 .6-.2 1.5.2 1.9-.1.2-.2.1-.4.2 0 0-.1 0-.1.1.2.5.1.9-.5 1.2 0-.8-.3-.8-.5-1.8-.1.1-.2 0-.3 0-.3.1-.3.4-.6.6 0-.1-.1-.2-.1-.3 0 .1-.5.6-.7.3-.2.3.3.7 0 1.1.7.3.7 1 1.3 1.4 0 .5-.7.2-1 .4.1.5.5.4.8.3-.1.2 0 .4.1.6-.4.3-.6.1-.9.2.3.5 0 .7-.4 1 .1.4.4.2.4.6-.1 0-.1.1-.1.2-.4.2.2-.5-.4-.2-.2-.3.1-.4-.2-.7-.1.2-.4.4-.8.5-.4-.2-.9-.3-1.3-.4 0-1.1-.9-1.3-.9-2.1zm9.2-3.5c-.4-.2-.6-.8-1-1-.3.1 0 .5-.4.5-.3-.5.4-.6 0-1.1.1-.2.1-.4 0-.7-.3.2-.6.6-.8 0 .8-.1 1-.5 1.3-.7-.5-.5-.9.1-1.1-.7-.5.4-.8.4-.8 1 .5-.1.5.6.4.8-.6-.4-.5-.8-1-1.2.5-.3.2-.5 0-.8.1-.1.3-.1.2-.3-.2-.2-.5 0-.7-.2.3-.2-.1-.7.5-.7-.1.6.1.6.6.9-.1-.2-.2-.4 0-.5.1.2.5 0 .4-.2-.2-.3-.6 0-.8-.3 0-.5.7 0 .6-.4-.2.1-.3-.1-.5-.1-.4.1-.3.4-.6.4-.1-.5.3-.8.1-1.3-.4.4-1-.2-.7-.5.9-.2-.2-1.3-.7-1.8-.1-.1-.2-.1-.3-.2.3-.1 0-.5.4-.5.3.1.1.7.6.7-.4-.6.4 0 .3-.5.4-.2.5-.8.9-.9-.1.1 0 .5.2.5.7-.9 1.6-.4 2.3.8.1-.1.3-.1.4-.2-.1-.2-.2-.3-.3-.3.3-.2.5 0 .7.4 0 .3-.9.3-.8.7.3.2.9-.4 1.1 0 .1-.4-.1-.4-.3-.7.9 0 1.6.5 2.4.9.5.2.2 1.1.8 1.1 1 0 1-1.1 1.3-1.4.1.4.1.6 0 1.1.3-.4.5-.7.8-1 .1.2 0 .4.1.6-.2.2-.6-.2-.5.2.4-.1.5.6 1 .4 0-.3-.6-.3-.2-.5.1.3.3.2.4.5-.4.7-.9.4-1.2 1 .2.4.4.6.8.6 0-.5-.1-1.1.5-1.4.3.9.7 1.6 1.2 1.9-.3.1-.2.3-.3.5-.1-.2-.2-.4-.2-.5-.4.3-.4-.1-.7 0 0 .6-.2 1.5.2 1.9-.1.2-.2.1-.4.2 0 0-.1 0-.1.1.2.5.1.9-.5 1.2 0-.8-.3-.8-.5-1.8-.1.1-.2 0-.3 0-.3.1-.3.4-.6.6 0-.1-.1-.2-.1-.3 0 .1-.5.6-.7.3-.2.3.3.7 0 1.1.7.3.7 1 1.3 1.4 0 .5-.7.2-1 .4.1.5.5.4.8.3-.1.2 0 .4.1.6-.4.3-.6.1-.9.2.3.5 0 .7-.4 1 .1.4.4.2.4.6-.1 0-.1.1-.1.2-.4.2.2-.5-.4-.2-.2-.3.1-.4-.2-.7-.1.2-.4.4-.8.5-.4-.2-.9-.3-1.3-.4-.1-1-.9-1.3-.9-2.1zm-5.4-.6c1 .6.2-1.4 1.3-1.2 0-.3-.6-.8-.3-1-.2-.2-.3-.2-.5 0-.1-.3-.1-.5 0-.7-1 0-2.4.7-2.9-.7-.8.2-1 0-1.7-.2.1.5.4.5.7 1.2-.2 0-.4 0-.5-.3-.3.1 0 .5-.4.5.1.6.6.3.8.6 0 .2-.3.3-.1.5-.5-.1-.2-.3-.6-.2-.2.4.8.4.8 1.1.5-.1.1-.6.7-.6-.1-.3-.3-.5-.5-.4 0-.1.1-.2 0-.3.2 0 .3.3.5.1-.1.6.8.7.9.1.5.4.8 1 1.4 1 .4-.3-.3-.8-.6-.7 0-.4.7-.2.9.1 0 0 .1 0 .1-.1.1.5.2.9 0 1.2z"/><path fill="#536C28" d="M20.3 187.4c.4-.6-.5-.7.1-1.3.1.5.6 0 .8.3-.1.1-.1.2-.2.4.5-.1.3 0 .5-.4.2.4.9.7.5 1.1.8-.4 1.3-.4 1.6-.5-.2-.3-.6 0-.8-.3.5-.3.4-.3 1-.4-.1-.3-.3-.6-.4-1-.6.1-1-.7-1.6-.6.3.5 0 .7-.4 1-.5-.4-1.1-.1-1.3-.4-.2.1-.1.3-.3.5-.1.6.2.9.5 1.6z"/><path fill="#7C982B" d="M16.3 194.6c.6-.1.9.7 1.6.6.1.3.3.6.4 1 .1.1.2.1.3.2.2-.1.3-.2.3-.3.1.1.1.3.3.2.4-.2.1-.7.2-.9.1.1.1.3.3.2.3-.5-.1-.5-.2-1.2.3-.2.7-.3.9-.2.5.6 0 .8.3 1.4.4-.5.6-.2 1.2-.4-.4-.1-.5-1 0-.5.9-.6-.9-.2-1-1 1-.1.5.4 1.3.4-.1-.1 0-.2 0-.3-.6.4.3-.7-.4-.6-.1.3-.5.4-.7 0 .8-.2.9-.7 1.1-1.2-.5-.2-.6.6-.9.1.5-.5 1.1 0 1.2-.9.4-.1.5.6.9.6-.1-.6.9-.6.9-.9-.1-.2-.4 0-.5-.3.1-.1.3-.1.2-.3-.1-.2-.2-.3-.3-.3.3-.2.4.1.7-.2.4 0-.1.5.4.5.2-.6 1.1-.9 1.1-1.5-.2-.2-.3-.9.1-.5-.1 0-.2.1-.1.2.2-.1.2-.3.4-.2.3.3-.3.7.1.6.1-.2.1-.5.2-.7-.4-.6-.3-.8-.6-.7.2-.4.4-.5.7-.2-.1.1-.3.1-.2.3.2-.1.5-.2.7-.3-.2-.3-.4-.2-.7-.4.3-.6 1.5.1 1.8-.5-.4-.5-1.7.2-1.7-.4.6-.1 1.8-.4 1.8-.3-.1-.7-.7-1.6-.7-1.6.4.8-.6-1.6-.5-1.4-.1.1-.3.1-.3 0-.2.1 0 .4.1.6-.2-.1-.4-.3-.8 0 .2.5 0 1.3.1 1.6.1.5.5.1.6.6-.5.4-.6-.5-.9-.6-.7 0-.6 1.2-1 .3-.5.4.3.5.1.9-.4.1-.6-.3-1.1 0-.1.4.1.4.3.7-.3 0-.5-.4-.8-.3 0 .5-.3.8-.8.8 0-.6-.2-.2-.4-.6-.1.4-.2.4-.6.4-.1-.2 0-.4-.1-.6.2-.6-.4.7.1.6-.1.6-.4.1-.2.7-.2 0-.3-.1-.5-.1.3.5.4.9.4 1.3.2 0 .1.2 0 .3.1.2.2-.1.4-.2 0 .7.1.4.2 1.6-.5.2-.7-.3-1-.7-.7.4.3 1.3 0 1.8-.6-.5-.4.8-1.2.9.8-.8-.2-1.4-.7-2.3-.8.8.3 1.3 0 2.3-.6-.2-.4-1.1-.5-1.4-.9 0-1-.8-.9-1.6-.5.1-.2.5-.5.7-.4.1-.4-.5-.9-.1.2-.4.1-.2-.2-.7 0-.2.2-.3.3-.1.2-.1 0-.4-.1-.6-.5.1-1-.1-1.3-.6-.3.2-.5.2-.7 0-.1.1-.1.2-.2.3.1.6-.6.3-.2.9-.2 0-.3-.2-.5-.3-.2.1 0 .3 0 .5.2.2 0 .3-.2.4.6.1 1.4.5 1 1 .3.2.9.8 1.1.3 1 .7.8.8 1.1 2.1-.3-.2-.7-.2-.8-.8-.3.2-.2.6-.4.9.3.1.7-.1.7.5.7.1-.6.4-.1.9.2-.3.4-.4.5-.4z"/><path fill="#657D2A" d="M17.2 188.5c-.3-.4 0-.5 0-.8-.2.1-.1.3-.3.3 0-.3-.6-.8-.3-1 .5.1.2.5.7.5.1-.4-.3-.6-.2-.7.2.1.4.4.6.6-.6.2.1.4.2.5-.8 0 .1.5.4.8 0-.1 0-.2.1-.1-.1 0-.2.1-.1.2.2.5-.5-.5-.4.2.2.1.6.1.7.5-.3.1-.7.3-.6.6.2.3.6.3.8.6.5-.2.5-.5.6-.8-.2-.7-1-1.7-.4-2.1.1.4.3.8.7.5-.1-.2-.1-.3 0-.5-.3 0-.3-.4-.5 0-.1-.2-.1-.2-.3-.2.3-.7.6-1.3-.1-2.4-.2.4-.1.8.1 1.3-.4-.3-.3 0-.5.4-.3 0-.4-.7-.8-.6-.2-.3.7-.2.2-.6-.2.1-.3.3-.3.5-.3-.1-.5-.7-1-.4.3-.4-.1-.4-.1-.9-.3.3-.3 1.5-.8.7-.4.1-.4-.7 0-.7-.3-.1-.5-.6-.2-.7-.4-.3-.4.5-.4.7-.6-.3-.4.9-.9.6-.4-.1-.1-.4-.4-.6-.1.2-.1.5-.4.7.6.6 1.6 1.6.9 1.7.1.2.3.1.3.3.3.1.5.3.6-.1.2.2.2.8.4.6-.1-.2-.1-.4.1-.5.1.5-.1.9.3.4-.1.5.5 1.2 0 1 .2.2.4.2.6.2-.1-.2-.2-.4 0-.5.3-.1.5-.1.7-.2z"/><path fill="#536C28" d="M16.4 184.5c-.2.7 0 1.6.9 1.6 0 .4-.1 1.2.5 1.4.3-1-.8-1.5 0-2.3.5.9 1.5 1.5.7 2.3.9-.1.6-1.4 1.2-.9.3-.5-.6-1.5 0-1.8-.2-.7-.8.2-.6-.6.3.3.5-.7 1-.4 0-.4-.2-.8-.4-1.3-.3 0-1.4-.3-1.2.2-.5.1-.1-.5-.3-.7-.3.3.1 1.1-.6.9-.2.1.1.2.3.2.2.2-.7.4-.2.4-.2.1-.3.4-.8.7.1-.5.2-.4.2-1.1-.7.1-.3.7-1 .4 0 .3 0 .8.3 1zM13.9 190.9c-.3-.3-.5-.3-.8 0-.4-.7-.1-1 0-1.5-.5-.2-.5-.7-1-1.2.4-.1.6.3.7-.3.3 0 .3.7.6.6-.3-.4.3-.4 0-.8-.2-.1-.4-.4-.7-.4.4-.2-.7-.6-.3-1 .2.3.4.4.8.3.1-.1.3-.1.4-.2-.5-.1-.7-1.2-1.3-1.1-.2 0-.6.5-.7.2-.2.1-.2.4 0 .7-.2.1-.6.2-.5.4.6 0-.2.7-.5 1.1.2.4.8 1 .9 1.6-.1 0-.6-.4-.4-.5-.6-.3-.8.6-1.1.8.5.2 0 .5.2.9-.3.2-1-.3-.6.4-.3.2-.5.1-.6-.2-.2-.4 1-.2.5-.7-.6.3-.9.8-.7 1.6 0 .6.5-.1.6.2-.3.2 0 .6-.1.9.5.3.3-.9.9-.6 0-.2 0-1 .4-.7-.3.2-.1.7.2.7-.4 0-.4.7 0 .7-.1-1.3.7-1.1 1.5-1.8-.1.7.6 1 .3 1.7.3.3.3-.4.6-.1-.3.3 0 .8.4.8-.2-.5.3-.7.2-1.1-.2.1-.5.2-.5-.1.9-.2-.4-.6.4-.9.1.3.3.5.5.4.2-.1.5-.2.5-.4-.9.6-1-.1-.8-.4z"/><path fill="#657D2A" d="M16.7 187.5s.1 0 .1-.1c.1.5.5 0 .7.4-.6.3-.4.9-1.1.8.2.7 0 1.4.8 1.4-.3.1 0 .9-.4.5.2-.3-.6-.3-.8-.3.1.3.4.6 0 .7-.1-.3-.1-1.2-.6-1.2.1.4 0 .8-.3 1.1-.2.1-.3-.3-.5-.1-.2-.6-.5-.9-.9-.9.1.4.2.7.1.9-.1-.3-.3-.7-.5-.8.4-.1 0-.7-.2-.9-.3 0-.7 0-.9-.2 0-.1.4-.7-.1-.6-.2 0-.2.1-.2.3-.5.2-.5-1-1.1-.5 0-.2 0-.4-.2-.7.2-.1.2-.3.4-.7.1 1 .9-.8 1.4-.1.1-.1.3-.1.4-.2.4-.2.7-.4.4-.9-.5 0 .1.5-.4.5-.2 0-.3-.2-.5-.3 0-.5.7-.7 1.2-.7.1.1-.1.2-.2.3.8.2 1-.7.8-1.2-.2-.3-.2-.4.1-.5-.1-.2-.4 0-.6.1-.2-.3.1-.4-.2-.7-.8.7 1 1.7-.6 2.1-.4.2-.5-.8-1-.4-.1-.1.1-.2.2-.3.1-.3 0-.7.2-1.1-.7.1-1.8.5-2.7.2.1-.3.3.1.5.3-.3.3-.7-.3-.6.1.3.5 1-.1 1.3.3.1.5-.5.1-.7.3.2.1.3.5.6.2-.1.6-.8.1-1 0-.4.8.4 1.5 1 1.9-.3.2-.4-.1-.7.2.1.2.2.6.4.5 0 .3-.3.5-.7.6.6-.4.1-1.6-.8-1 .3-.8-.5-.3-.8-1.1-.5.2-.3.4 0 .7 0 .2-.2 0-.4.2.2.3.5.5.6 1-.4.3-.4-.5-.9-.1.1.2.2.4 0 .5 0 .2-.2.3-.3.5.6-.2.7.7 1.3.6-.2 1.4 1.4 0 2 .4.1.5-.4 0-.5.2.2.3.7.1 1.1.2 0 .4.2 1.1.6 1.2-.4.3-.4-.3-.6-.6-.4.2-.2.7-.2 1.1.1-.1.2-.2.4-.3.1.3-.5.3-.2.7.5.2.2 1.1.8 1.1 1 0 1-1.1 1.3-1.4.1.4.1.6 0 1.1.3-.4.5-.7.8-1 .1.2 0 .4.1.6-.2.2-.6-.2-.5.2.4-.1.5.6 1 .4 0-.3-.6-.3-.2-.5.2-.1 0-.4.3-.5.2.5.4 1.1.9.9 0-.4-.7-.6-.4-1 .3 0 .3.7.6.6 0-.3.4-.6.8-.5.2.5 0 .9-.1 1.3.5-.6.5-.9 1.1-1.5-.2-.8.1-1.4.7-1.6.5.5-.7.3-.5.7.1.3.3.4.6.2-.4-.8.3-.3.6-.4-.2-.4.3-.7-.2-.9.3-.2.5-1.1 1.1-.8-.3 0 .2.5.4.5-.1-.6-.7-1.2-.9-1.6.3-.3 1.1-1 .5-1.1-.2.1-.1.3-.3.5-.3-.3-.5-.8-.4-1.3-.6.1-.4.5-.8.7-.3-.5-.8-.6-1.3-.7-.2.5-.2.9-.2 1.5z"/><path fill="#657D2A" d="M12.3 189.6c.9 0 1.3-.3 1.1-1.2.1.2.3 0 .4-.2.6.6-.1 1.2.5 1.4.3-.2-.1-.7.1-.9.5.4.1.9.1 1.4.3-.2.6-.6.8 0-.5 0-.2.4-.4.5-.1-.2-.9.2-.8.4.3.3.4-.4.6-.1.6.3.3-.4 1-.4 0 .6-.1.6-.2 1.1.5-.3.7-.6.8-.7-.6 0 .4-.2.2-.4-.2 0-.4-.1-.3-.2.1-.5-.4-1.1-.7-.5 0-.4.4-.6.6-.9-.6-.9-.9-2.3-1.3-2.2.5-.5-.3-.7.3-1.1-.2-.2-.5-.4-.7 0 0-.2 0-.3.2-.4-.3-.5-.7-.7-1-1.2-.3 0-.4-.2-.6-.6-.3.1.1.5-.2.6.5 0 .1.4.6.2-.3.2.1.6-.1.9 0 .1.1.2.1.3-.2.2-.3 0-.4-.2-.3.4-.1.9-.1 1.3-.5.1-.4-.6-.6-.6-.1.2-.2.3-.5.4 0-.2.3-.3.1-.5-.3.2 0 .6-.5.7.1.2.2.5.3.7.1.3-.7.4-.9.6.1.2.2.5.3.7.5-.1-.1-.9.5-.4.2-.2-.1-.3-.2-.4.9-.1.5 1.8 1.8 1.4-.1.6-.7 0-1.2.4.1 0 .2 0 .3.1z"/></g></svg>