<svg id="Слой_1" xmlns="http://www.w3.org/2000/svg" viewBox="0 0 147 147"><style>.st0{opacity:.15}.st1,.st2{fill-rule:evenodd;clip-rule:evenodd}.st2{fill:#fff}</style><g class="st0"><path class="st1" d="M73.5 147C33.5 147 1 114.5 1 74.5S33.5 2 73.5 2 146 34.5 146 74.5 113.5 147 73.5 147zM40 111h68V68h-4v39H43V68h-3v43zm59-7V74H48v30h51zm6.7-65H91v14h-8V39H65v14h-8V39H42.3L38 65h17v6h38v-6h17l-4.3-26zM57 55h34v14H57V55zm9.2 31.8c-.1-.1-.2-.4-.2-.8s.1-.6.2-.8c.1-.2.2-.3.4-.3h10.2c.1-.1.2-.2.3-.4.3-.5.5-1 .5-1.7 0-.4-.1-.9-.2-1.3-.2-.4-.4-.7-.7-1-.3-.3-.7-.5-1.2-.7-.5-.2-1.1-.3-1.7-.3-.7 0-1.3.1-1.9.3-.6.2-1.1.4-1.5.6-.4.2-.8.4-1 .6-.3.2-.5.3-.6.3-.1 0-.2 0-.2-.1-.1-.1-.1-.1-.2-.3 0-.1-.1-.3-.1-.4v-.6-.6c0-.1 0-.3.1-.4 0-.1.1-.2.1-.3 0-.1.1-.2.2-.3.1-.1.4-.3.7-.5.4-.2.8-.4 1.2-.5.5-.2 1-.3 1.5-.4.5-.1 1.1-.1 1.6-.1 1 0 2 .1 2.9.4.9.3 1.6.7 2.3 1.2.6.5 1.1 1.2 1.5 1.9.4.8.5 1.6.5 2.6 0 .6-.1 1.2-.2 1.8h1c.2 0 .3.1.4.3.1.2.1.4.1.8s-.1.7-.2.9c-.1.2-.2.2-.4.2h-2.3l-.3.4c-.5.5-1.1.9-1.7 1.3-.6.4-1.3.7-1.9 1l-.6.3h6.7c.2 0 .3.1.4.3.1.2.1.4.1.8s-.1.7-.2.9c-.1.2-.2.2-.4.2H71c-.2.2-.4.4-.5.7-.3.5-.5 1-.5 1.7 0 .6.1 1.2.3 1.6.2.5.5.9.9 1.2.4.3.9.6 1.5.8.6.2 1.2.3 1.9.3.9 0 1.7-.1 2.4-.3.7-.2 1.3-.4 1.8-.7.5-.2.9-.5 1.2-.7.3-.2.5-.3.7-.3.1 0 .2 0 .3.1.1 0 .1.1.2.2 0 .1.1.2.1.4v.7c0 .4 0 .7-.1.9l-.3.6c-.1.1-.4.3-.7.5-.4.2-.8.4-1.3.6-.5.2-1.1.4-1.8.5-.7.1-1.4.2-2.2.2-1.1 0-2.2-.1-3.2-.5-1-.3-1.8-.7-2.6-1.3-.7-.6-1.3-1.3-1.7-2.2-.4-.9-.6-1.8-.6-2.9 0-.8.1-1.4.3-2h-.5c-.1 0-.3-.1-.4-.2-.1-.3-.2-.6-.2-1s.1-.6.2-.8c.1-.2.2-.3.4-.3h1.9c.5-.5 1.1-.9 1.7-1.3.6-.4 1.3-.7 2-1l1.2-.6h-6.8c-.2.1-.3 0-.4-.2z"/></g><path class="st2" d="M73.5 145C33.5 145 1 112.5 1 72.5S33.5 0 73.5 0 146 32.5 146 72.5 113.5 145 73.5 145zM40 109h68V66h-4v39H43V66h-3v43zm59-7V72H48v30h51zm6.7-65H91v14h-8V37H65v14h-8V37H42.3L38 63h17v6h38v-6h17l-4.3-26zM57 53h34v14H57V53zm9.2 31.8c-.1-.1-.2-.4-.2-.8s.1-.6.2-.8c.1-.2.2-.3.4-.3h10.2c.1-.1.2-.2.3-.4.3-.5.5-1 .5-1.7 0-.4-.1-.9-.2-1.3-.2-.4-.4-.7-.7-1-.3-.3-.7-.5-1.2-.7-.5-.2-1.1-.3-1.7-.3-.7 0-1.3.1-1.9.3-.6.2-1.1.4-1.5.6-.4.2-.8.4-1 .6-.3.2-.5.3-.6.3-.1 0-.2 0-.2-.1-.1-.1-.1-.1-.2-.3 0-.1-.1-.3-.1-.4v-.6-.6c0-.1 0-.3.1-.4 0-.1.1-.2.1-.3 0-.1.1-.2.2-.3.1-.1.4-.3.7-.5.4-.2.8-.4 1.2-.5.5-.2 1-.3 1.5-.4.5-.1 1.1-.1 1.6-.1 1 0 2 .1 2.9.4.9.3 1.6.7 2.3 1.2.6.5 1.1 1.2 1.5 1.9.4.8.5 1.6.5 2.6 0 .6-.1 1.2-.2 1.8h1c.2 0 .3.1.4.3.1.2.1.4.1.8s-.1.7-.2.9c-.1.2-.2.2-.4.2h-2.3l-.3.4c-.5.5-1.1.9-1.7 1.3-.6.4-1.3.7-1.9 1l-.6.3h6.7c.2 0 .3.1.4.3.1.2.1.4.1.8s-.1.7-.2.9c-.1.2-.2.2-.4.2H71c-.2.2-.4.4-.5.7-.3.5-.5 1-.5 1.7 0 .6.1 1.2.3 1.6.2.5.5.9.9 1.2.4.3.9.6 1.5.8.6.2 1.2.3 1.9.3.9 0 1.7-.1 2.4-.3.7-.2 1.3-.4 1.8-.7.5-.2.9-.5 1.2-.7.3-.2.5-.3.7-.3.1 0 .2 0 .3.1.1 0 .1.1.2.2 0 .1.1.2.1.4v.7c0 .4 0 .7-.1.9l-.3.6c-.1.1-.4.3-.7.5-.4.2-.8.4-1.3.6-.5.2-1.1.4-1.8.5-.7.1-1.4.2-2.2.2-1.1 0-2.2-.1-3.2-.5-1-.3-1.8-.7-2.6-1.3-.7-.6-1.3-1.3-1.7-2.2-.4-.9-.6-1.8-.6-2.9 0-.8.1-1.4.3-2h-.5c-.1 0-.3-.1-.4-.2-.1-.3-.2-.6-.2-1s.1-.6.2-.8c.1-.2.2-.3.4-.3h1.9c.5-.5 1.1-.9 1.7-1.3.6-.4 1.3-.7 2-1l1.2-.6h-6.8c-.2.1-.3 0-.4-.2z"/></svg>