<svg id="Слой_1" xmlns="http://www.w3.org/2000/svg" viewBox="0 0 147 147"><style>.st0{opacity:.15}.st1,.st2{fill-rule:evenodd;clip-rule:evenodd}.st2{fill:#fff}</style><g class="st0"><path class="st1" d="M73.5 147C33.5 147 1 114.5 1 74.5S33.5 2 73.5 2 146 34.5 146 74.5 113.5 147 73.5 147zm21.4-65.1c-.1-1.3-.1-2.6-.6-3.8-.6-1.6-1.8-3-3.3-3.7-.2-.1-.5-.3-.7-.4 1-8 1.2-16.2-1.3-23.9-.7-2.1-1.5-4.1-2.5-6h.1c-1.7-3.4-3.8-6.5-6.5-9.1-1.9-2-4.1-3.9-6.6-5-2.2 1-4.3 2.7-6 4.4-2.9 2.8-5.3 6.1-7.1 9.7v.1c-1.6 3.3-2.8 6.8-3.6 10.5-.8 4.1-.9 8.2-.7 12.3.1 2.4.3 4.7.6 7.1-.3.1-.6.3-.8.4-.7.4-1.3.9-1.9 1.6-1.2 1.4-1.6 3.1-1.7 4.9-.5 5.2-.2 10.6.1 15.8 0 .7.1 1.3.1 2 .2-.2 4.7-3.9 8.6-7.6 0 .1.1.2.1.3h2.4v1c0 .5.4 1 .9 1h2.6l-3.3 15.1c-2.8-1.9-6.7-.1-7.1 3.4-1.8.4-3 2.3-2.6 4.1 0 2.1 1.8 3.9 3.9 3.9h30.8c2.1 0 3.9-1.8 3.9-3.9.2-.8 0-1.7-.4-2.5-.1-2-1.5-3.8-3.4-4.4-2-.6-4.3.3-5.4 2.1l-3.9-17.9h2.9c.5 0 .9-.4.9-1v-1H85.7c0-.1.1-.2.1-.4 3.8 3.7 8.4 7.4 8.6 7.6.3-5.5.8-11.1.5-16.7zm-21.5-26c-4 0-7.3-3.3-7.3-7.4v-.3c.2-4 3.4-7.1 7.3-7.1s7.1 3.2 7.3 7.1v.3c0 4.1-3.3 7.4-7.3 7.4z"/></g><path class="st2" d="M73.5 145C33.5 145 1 112.5 1 72.5S33.5 0 73.5 0 146 32.5 146 72.5 113.5 145 73.5 145zm21.4-65.1c-.1-1.3-.1-2.6-.6-3.8-.6-1.6-1.8-3-3.3-3.7-.2-.1-.5-.3-.7-.4 1-8 1.2-16.2-1.3-23.9-.7-2.1-1.5-4.1-2.5-6h.1c-1.7-3.4-3.8-6.5-6.5-9.1-1.9-2-4.1-3.9-6.6-5-2.2 1-4.3 2.7-6 4.4-2.9 2.8-5.3 6.1-7.1 9.7v.1c-1.6 3.3-2.8 6.8-3.6 10.5-.8 4.1-.9 8.2-.7 12.3.1 2.4.3 4.7.6 7.1-.3.1-.6.3-.8.4-.7.4-1.3.9-1.9 1.6-1.2 1.4-1.6 3.1-1.7 4.9-.5 5.2-.2 10.6.1 15.8 0 .7.1 1.3.1 2 .2-.2 4.7-3.9 8.6-7.6 0 .1.1.2.1.3h2.4v1c0 .5.4 1 .9 1h2.6l-3.3 15.1c-2.8-1.9-6.7-.1-7.1 3.4-1.8.4-3 2.3-2.6 4.1 0 2.1 1.8 3.9 3.9 3.9h30.8c2.1 0 3.9-1.8 3.9-3.9.2-.8 0-1.7-.4-2.5-.1-2-1.5-3.8-3.4-4.4-2-.6-4.3.3-5.4 2.1l-3.9-17.9h2.9c.5 0 .9-.4.9-1v-1H85.7c0-.1.1-.2.1-.4 3.8 3.7 8.4 7.4 8.6 7.6.3-5.5.8-11.1.5-16.7zm-21.5-26c-4 0-7.3-3.3-7.3-7.4v-.3c.2-4 3.4-7.1 7.3-7.1s7.1 3.2 7.3 7.1v.3c0 4.1-3.3 7.4-7.3 7.4z"/></svg>