<svg id="Слой_1" xmlns="http://www.w3.org/2000/svg" viewBox="0 0 230 230"><style>.st0{fill:#959595}.st1{fill:url(#SVGID_1_)}.st2{fill:url(#SVGID_2_)}.st3{fill:url(#SVGID_3_)}.st4{fill:#961e1e}.st5{fill:url(#SVGID_4_)}.st6{fill:url(#SVGID_5_)}.st7{opacity:.3}.st8{fill:#fff}.st9{fill:url(#SVGID_6_)}.st10{fill:url(#SVGID_7_)}.st11,.st12{opacity:.3;fill:#fff}.st12{opacity:.71}.st13{fill:url(#SVGID_8_)}.st14{opacity:.35;fill:#fff}.st15{opacity:.05}.st16{fill:#969696}.st17{fill:#727272}.st18{fill:url(#SVGID_9_)}.st19{opacity:.25;fill:#fff}</style><path class="st0" d="M139.8 159.1c0 1.3-1.1 2.4-2.4 2.4H91.7c-1.3 0-2.4-1.1-2.4-2.4v-6c0-1.3 1.1-2.4 2.4-2.4h45.7c1.3 0 2.4 1.1 2.4 2.4v6z"/><linearGradient id="SVGID_1_" gradientUnits="userSpaceOnUse" x1="114.173" y1="208.679" x2="114.173" y2="161.12"><stop offset="0" stop-color="#fff9b1"/><stop offset="1" stop-color="#f02626"/></linearGradient><path class="st1" d="M140.4 208.7H88l10.4-47.6h31.5z"/><linearGradient id="SVGID_2_" gradientUnits="userSpaceOnUse" x1="114.151" y1="161.12" x2="114.151" y2="208.679"><stop offset="0" stop-color="#ff6634"/><stop offset="1" stop-color="#ffffc1"/></linearGradient><path class="st2" d="M108.9 161.1h10.4v47.6h-10.4z"/><linearGradient id="SVGID_3_" gradientUnits="userSpaceOnUse" x1="114.162" y1="228" x2="114.162" y2="197.441"><stop offset="0" stop-color="#ff6634"/><stop offset="1" stop-color="#ffffc1"/></linearGradient><path class="st3" d="M163 216.2c0-1.6-.3-3-1-4.3-.3-6.3-5.4-11.4-11.9-11.4-4.5 0-8.4 2.5-10.4 6.2-2-1.9-4.6-2.9-7.5-2.9-3.7 0-6.9 1.9-8.9 4.9h-.9c-2.2-3-5.5-4.1-9.1-4.1-3.6 0-6.8 1.1-9.1 4.1h-1c-1.7-1.5-4-2.7-6.5-2.7-.7 0-1.3 0-1.9.1-1.4-5-5.9-8.6-11.3-8.6-6 0-10.9 4.5-11.6 10.3-3.9.9-6.5 4.3-6.5 8.5 0 .6.5 1.2.5 1.8 0 5.4 3.9 9.9 9.3 9.9h78.2c5.4 0 9.2-4.5 9.2-9.9-.1-.6.4-1.2.4-1.9z"/><path class="st4" d="M132.9 140.2c3.5 9.1 35.2 34.5 35.2 34.5s1.3-37.9-2.1-47c-3.5-9.1-13.7-13.7-22.8-10.3-9.2 3.5-13.8 13.7-10.3 22.8z"/><linearGradient id="SVGID_4_" gradientUnits="userSpaceOnUse" x1="133.182" y1="143.272" x2="169.114" y2="143.272"><stop offset="0" stop-color="#e4554f"/><stop offset="1" stop-color="#ad2a27"/></linearGradient><path class="st5" d="M134.3 135.8c3.5 9.1 33.7 38.9 33.7 38.9s2.8-42.4-.6-51.5c-3.5-9.1-13.7-13.7-22.8-10.3-9.1 3.5-13.7 13.7-10.3 22.9z"/><path class="st4" d="M96.3 140.2c-3.5 9.1-35.2 34.5-35.2 34.5s-1.3-37.9 2.1-47c3.5-9.1 13.7-13.7 22.8-10.3 9.1 3.5 13.7 13.7 10.3 22.8z"/><linearGradient id="SVGID_5_" gradientUnits="userSpaceOnUse" x1="1041.834" y1="143.272" x2="1077.767" y2="143.272" gradientTransform="matrix(-1 0 0 1 1137.767 0)"><stop offset="0" stop-color="#e4554f"/><stop offset="1" stop-color="#ad2a27"/></linearGradient><path class="st6" d="M94.8 135.8c-3.5 9.1-33.7 38.9-33.7 38.9s-2.8-42.4.6-51.5c3.5-9.1 13.7-13.7 22.8-10.3 9.1 3.5 13.7 13.7 10.3 22.9z"/><g class="st7"><path class="st8" d="M78.2 112.1c-3.5 3-7.2 5.6-10.2 8.6-2.9 2.8-5.5 6.9-7.5 9.5.4-5 1.1-8.8 4.5-12.3 3.2-3.5 8.6-6.8 13.2-5.8z"/></g><g class="st7"><path class="st8" d="M150.8 112.1c3.5 3 7.2 5.6 10.2 8.6 2.9 2.8 5.5 6.9 7.5 9.5-.4-5-1.1-8.8-4.5-12.3-3.1-3.5-8.6-6.8-13.2-5.8z"/></g><linearGradient id="SVGID_6_" gradientUnits="userSpaceOnUse" x1="114.522" y1="3.142" x2="114.522" y2="156.661"><stop offset="0" stop-color="#ebebeb"/><stop offset=".346" stop-color="#e8e8e8"/><stop offset=".567" stop-color="#e0e0e0"/><stop offset=".753" stop-color="#d1d1d1"/><stop offset=".919" stop-color="#bcbcbc"/><stop offset="1" stop-color="#afafaf"/></linearGradient><path class="st9" d="M159 85.2c0 27.7-5 52.1-13.2 71.4H83.3c-8.1-19.3-13.2-43.7-13.2-71.4 0-18 4.8-33.9 11.2-46.8C94.4 12 114.5 3.1 114.5 3.1s20.1 8.9 33.3 35.3c6.4 12.9 11.2 28.8 11.2 46.8z"/><linearGradient id="SVGID_7_" gradientUnits="userSpaceOnUse" x1="108.729" y1="146.537" x2="120.315" y2="146.537"><stop offset="0" stop-color="#e4554f"/><stop offset="1" stop-color="#ad2a27"/></linearGradient><path class="st10" d="M120.3 131.2c0 9.8-5.8 48.4-5.8 48.4s-5.8-38.6-5.8-48.4c0-9.8 2.6-17.7 5.8-17.7 3.2 0 5.8 7.9 5.8 17.7z"/><path class="st11" d="M117.1 116.2c0 1.4-1.2 17.5-2.6 17.5-1.4 0-2.6-16-2.6-17.5s1.2-2.6 2.6-2.6c1.5 0 2.6 1.1 2.6 2.6z"/><path class="st12" d="M150 43.2c-4.8 2.3-10.7 4.1-17.3 5.3-1.8.3-3.6.4-5.5.6-4 .5-8.2.5-12.5.5h-.3c-4.6 0-9-.2-13.2-.7-1.9-.2-3.7-.8-5.5-.8-6.3-1.5-12-2.9-16.6-5.1.7-1.6 1.4-3.1 2.2-4.7 0-.1.1-.1.1-.2h-.1c8.3-16.7 19.4-26.3 26.4-31.1.1 0 .2-.2.3-.2 1.6-.1 3.2-.3 4.9-.3H114.6c2 0 4 .2 5.9.3.2 0 .3.1.5.1.1 0 .2 0 .3.1 7 4.8 18.1 14.4 26.4 31.1-.1 0-.1 0-.2.1.1.1.1.2.2.3.6 1.1 1.1 2.3 1.6 3.5.3.3.5.8.7 1.2z"/><linearGradient id="SVGID_8_" gradientUnits="userSpaceOnUse" x1="114.51" y1="3" x2="114.51" y2="43.07"><stop offset="0" stop-color="#e4554f"/><stop offset="1" stop-color="#ad2a27"/></linearGradient><path class="st13" d="M147.8 38.1c-9.8 3.2-21.2 5-33.3 5-12.1 0-23.4-1.8-33.2-4.9C94.4 11.7 114.5 3 114.5 3s20.1 8.7 33.3 35.1z"/><path class="st14" d="M86.8 36.1c1.3-6.1 5-11.8 8.9-16.5 4.6-5.6 10.4-10.2 17.2-12.8-2.2 2.1-4.6 4-6.8 6.2-2.7 2.6-5.3 5.4-7.8 8.2-4.2 4.6-8 9.7-11.5 14.9z"/><path class="st15" d="M159 85.3c0 27.7-5.4 52.1-13.6 71.4h-30.5V3.1S159 26.3 159 85.3z"/><ellipse class="st16" cx="114.2" cy="49.1" rx="18.6" ry="18.6"/><path class="st17" d="M114.2 66.2c-10 0-18.1-7.9-18.5-17.8v.7c0 10.3 8.3 18.6 18.6 18.6s18.6-8.3 18.6-18.6v-.7c-.6 9.9-8.7 17.8-18.7 17.8z"/><linearGradient id="SVGID_9_" gradientUnits="userSpaceOnUse" x1="114.174" y1="62.105" x2="114.174" y2="36.11"><stop offset="0" stop-color="#247aba"/><stop offset="1" stop-color="#3cf"/></linearGradient><path class="st18" d="M114.2 62.1c-7.2 0-13-5.8-13-13s5.8-13 13-13 13 5.8 13 13-5.9 13-13 13z"/><path class="st19" d="M124.6 41.4c-2.4-3.2-6.2-5.3-10.5-5.3-7.2 0-13 5.8-13 13 0 4.3 2.1 8.1 5.3 10.5-1.6-2.2-2.5-4.8-2.5-7.7 0-.7.1-1.5.2-2.2 1.2 1.6 3.1 2.6 5.3 2.6 3.7 0 6.7-3 6.7-6.7 0-2.6-1.5-4.8-3.6-5.9 1.4-.5 2.9-.8 4.5-.8 2.8 0 5.5.9 7.6 2.5z"/></svg>