<svg version="1" id="Слой_1" xmlns="http://www.w3.org/2000/svg" viewBox="0 0 230 230"><style>.st0{opacity:.22;fill:url(#SVGID_1_)}.st1{fill:#adb6b1}.st2{fill:#14100f}.st3{fill:#2b2525}.st4{fill:url(#SVGID_2_)}.st5{fill:url(#SVGID_3_)}.st6{fill:url(#SVGID_4_)}.st7{fill:url(#SVGID_5_)}.st8{fill:url(#SVGID_6_)}.st9{fill:url(#SVGID_7_)}.st10{fill:url(#SVGID_8_)}.st11{fill:url(#SVGID_9_)}.st12{fill:url(#SVGID_10_)}.st13{fill:url(#SVGID_11_)}.st14{fill:#3f3e3e}.st15{fill:url(#SVGID_12_)}.st16{fill:url(#SVGID_13_)}.st17{fill:url(#SVGID_14_)}.st18{fill:url(#SVGID_15_)}.st19{fill:#b8aba3}.st20{fill:#615957}.st21{fill:#dad1ca}.st22{fill:#2d2d2d}.st23{fill:#201a1a}.st24{opacity:.21;fill:#e1f6f9}.st25{fill:url(#SVGID_16_)}.st26{fill:#f7918f}.st27{fill:#d34841}.st28{fill:#fcaaac}.st29{fill:#b23936}.st30{fill:url(#SVGID_17_)}.st31{opacity:.39;fill:#fff}.st32{fill:url(#SVGID_18_)}.st33{fill:url(#SVGID_19_)}.st34{opacity:.11;fill:url(#SVGID_20_)}.st35{opacity:.22}.st36{fill:#fff}.st37{fill:none}.st38{opacity:.2;fill:#fff}.st39{fill:#020202}.st40{opacity:.39}.st41{fill:url(#SVGID_21_)}.st42{fill:url(#SVGID_22_)}.st43{fill:url(#SVGID_23_)}.st44{fill:url(#SVGID_24_)}.st45{fill:url(#SVGID_25_)}.st46{fill:url(#SVGID_26_)}.st47{fill:url(#SVGID_27_)}.st48{fill:url(#SVGID_28_)}.st49{fill:url(#SVGID_29_)}.st50{opacity:.8;fill:#fffefd}.st51{opacity:.38;fill:#fff}.st52{fill:url(#SVGID_30_)}.st53{fill:#b5aea8}.st54{opacity:.79}.st55{fill:#e5e0da}.st56{fill:url(#SVGID_31_)}.st57{fill:url(#SVGID_32_)}.st58{fill:url(#SVGID_33_)}.st59{fill:url(#SVGID_34_)}.st60{opacity:.35}.st61{fill:url(#SVGID_35_)}.st62{fill:#151717}.st63{fill:#221c1c}.st64{fill:#686868}.st65{fill:#a9a09b}.st66{fill:#635d5f}.st67{fill:#f79645}.st68{opacity:.35;fill:#fff}.st69{fill:#f77575}.st70{fill:#be3b40}.st71{fill:url(#SVGID_36_)}.st72{opacity:.22;fill:#fff}.st73{fill:#b2b2b2}</style><linearGradient id="SVGID_1_" gradientUnits="userSpaceOnUse" x1="116.135" y1="128.499" x2="116.135" y2="166.023"><stop offset="0" stop-color="#fff"/><stop offset="1" stop-color="red" stop-opacity=".8"/></linearGradient><path class="st0" d="M205.3 166H26.9l-6-37.5h190.4z"/><path class="st1" d="M196 87.2c-1.9.2-3.7.5-5.6.6L179 58c-2.5-6.4-8.6-10.7-15.5-10.7H71.1c-6.6 0-12.5 3.9-15.2 9.9L42.3 88.1c-1.8-.2-3.7-.3-5.5-.5.5 0 1.2-9.7 1.3-10.5.9-7.4 2.4-14.8 5.2-21.3C49.1 42 59.3 37 70.7 37.2c27.7.4 55.3.7 83 1.1 4.6.1 9.3.1 13.9.2 1.2 0 2.5-.1 3.7.1 4.3.8 8 4.8 10.7 9 7.4 10.9 11.2 25.7 14 39.6z"/><path class="st2" d="M216.5 146.8v52.5c0 .5-.2 1-.4 1.4-.1.3-.3.7-.5 1-.4.6-.9 1.1-1.5 1.4-.1.1-.2.1-.2.1-.7.4-1.5.7-2.3.7h-17.3c-.8-.1-1.6-.3-2.3-.8 0 0-.1 0-.1-.1-.6-.4-1.1-.9-1.5-1.4-.2-.3-.4-.6-.5-1-.2-.5-.3-.9-.4-1.4v-52.5-.4c0-.3.1-.6.2-1 .1-.5.4-1 .6-1.4.2-.4.5-.7.8-1 .3-.2.5-.5.9-.7.7-.4 1.5-.7 2.3-.8h17.3c.8 0 1.6.3 2.3.7.3.2.7.4 1 .7.3.3.6.6.8 1 .3.4.5.9.6 1.4.1.3.1.6.2 1-.1.3 0 .5 0 .6z"/><path class="st3" d="M214.1 203.2c-.8.5-1.8.9-2.9.9h-16.6c-1.1 0-2-.3-2.9-.9h22.4zM216.1 200.8c-.1.3-.3.7-.5 1h-25.3c-.2-.3-.4-.6-.5-1h26.3zM216.5 198.4v1h-27v-1h27zM189.4 196h27v1h-27zM189.4 193.5h27v1h-27zM189.4 191.1h27v1h-27zM189.4 188.7h27v1h-27zM189.4 186.3h27v1h-27zM189.4 183.9h27v1h-27zM189.4 181.5h27v1h-27zM189.4 179.1h27v1h-27zM189.4 176.7h27v1h-27zM189.4 174.3h27v1h-27zM189.4 171.9h27v1h-27zM189.4 169.5h27v1h-27zM189.4 167.1h27v1h-27zM189.4 164.7h27v1h-27zM189.4 162.3h27v1h-27zM189.4 159.9h27v1h-27zM189.4 157.5h27v1h-27zM189.4 155h27v1h-27zM189.4 152.6h27v1h-27zM189.4 150.2h27v1h-27zM189.4 147.8h27v1h-27zM216.4 146.4h-27c0-.3.1-.6.2-1h26.7c.1.3.1.7.1 1zM215.6 144h-25.4c.2-.4.5-.7.8-1h23.8c.3.3.6.6.8 1z"/><radialGradient id="SVGID_2_" cx="192.418" cy="187.614" r="22.079" gradientUnits="userSpaceOnUse"><stop offset="0" stop-color="#605a5a"/><stop offset="1"/></radialGradient><path class="st4" d="M194.2 141.6V204c-.8-.1-1.6-.3-2.3-.8v-60.9c.7-.4 1.5-.6 2.3-.7z"/><radialGradient id="SVGID_3_" cx="197.123" cy="187.617" r="22.093" gradientUnits="userSpaceOnUse"><stop offset="0" stop-color="#605a5a"/><stop offset="1"/></radialGradient><path class="st5" d="M196.8 141.6h2.3V204h-2.3z"/><radialGradient id="SVGID_4_" cx="202.87" cy="187.617" r="22.093" gradientUnits="userSpaceOnUse"><stop offset="0" stop-color="#605a5a"/><stop offset="1"/></radialGradient><path class="st6" d="M201.7 141.6h2.3V204h-2.3z"/><radialGradient id="SVGID_5_" cx="206.948" cy="188.034" r="22.093" gradientUnits="userSpaceOnUse"><stop offset="0" stop-color="#605a5a"/><stop offset="1"/></radialGradient><path class="st7" d="M206.6 141.6h2.3V204h-2.3z"/><radialGradient id="SVGID_6_" cx="212.696" cy="187.617" r="22.085" gradientUnits="userSpaceOnUse"><stop offset="0" stop-color="#605a5a"/><stop offset="1"/></radialGradient><path class="st8" d="M213.9 142.3v61c-.7.4-1.5.7-2.3.7v-62.4c.8 0 1.6.3 2.3.7z"/><path class="st2" d="M41.6 146.8v52.5c0 .5-.2 1-.4 1.4-.1.3-.3.7-.5 1-.4.6-.9 1.1-1.5 1.4-.1.1-.2.1-.2.1-.7.4-1.5.7-2.3.7H19.4c-.8-.1-1.6-.3-2.3-.8 0 0-.1 0-.1-.1-.6-.4-1.1-.9-1.5-1.4-.2-.3-.4-.6-.5-1-.2-.5-.3-.9-.4-1.4v-52.5-.4c0-.3.1-.6.2-1 .1-.5.4-1 .6-1.4.2-.4.5-.7.8-1 .3-.2.5-.5.9-.7.7-.4 1.5-.7 2.3-.8h17.3c.8 0 1.6.3 2.3.7.3.2.7.4 1 .7.3.3.6.6.8 1 .3.4.5.9.6 1.4.1.3.1.6.2 1v.6z"/><path class="st3" d="M39.3 203.2c-.8.5-1.8.9-2.9.9H19.8c-1.1 0-2-.3-2.9-.9h22.4zM41.2 200.8c-.1.3-.3.7-.5 1H15.5c-.2-.3-.4-.6-.5-1h26.2zM41.6 198.4v1h-27v-1h27zM14.6 196h27v1h-27zM14.6 193.5h27v1h-27zM14.6 191.1h27v1h-27zM14.6 188.7h27v1h-27zM14.6 186.3h27v1h-27zM14.6 183.9h27v1h-27zM14.6 181.5h27v1h-27zM14.6 179.1h27v1h-27zM14.6 176.7h27v1h-27zM14.6 174.3h27v1h-27zM14.6 171.9h27v1h-27zM14.6 169.5h27v1h-27zM14.6 167.1h27v1h-27zM14.6 164.7h27v1h-27zM14.6 162.3h27v1h-27zM14.6 159.9h27v1h-27zM14.6 157.5h27v1h-27zM14.6 155h27v1h-27zM14.6 152.6h27v1h-27zM14.6 150.2h27v1h-27zM14.6 147.8h27v1h-27zM41.6 146.4h-27c0-.3.1-.6.2-1h26.7c0 .3.1.7.1 1zM40.8 144H15.4c.2-.4.5-.7.8-1H40c.3.3.6.6.8 1z"/><g><radialGradient id="SVGID_7_" cx="16.535" cy="187.405" r="22.079" gradientUnits="userSpaceOnUse"><stop offset="0" stop-color="#605a5a"/><stop offset="1"/></radialGradient><path class="st9" d="M19.4 141.6V204c-.8-.1-1.6-.3-2.3-.8v-60.9c.6-.4 1.4-.6 2.3-.7z"/><radialGradient id="SVGID_8_" cx="23.117" cy="187.617" r="22.093" gradientUnits="userSpaceOnUse"><stop offset="0" stop-color="#605a5a"/><stop offset="1"/></radialGradient><path class="st10" d="M22 141.6h2.3V204H22z"/><radialGradient id="SVGID_9_" cx="28.03" cy="187.617" r="22.093" gradientUnits="userSpaceOnUse"><stop offset="0" stop-color="#605a5a"/><stop offset=".45" stop-color="#353232"/><stop offset="1"/></radialGradient><path class="st11" d="M26.9 141.6h2.3V204h-2.3z"/><radialGradient id="SVGID_10_" cx="32.943" cy="188.243" r="22.093" gradientUnits="userSpaceOnUse"><stop offset="0" stop-color="#605a5a"/><stop offset="1"/></radialGradient><path class="st12" d="M31.8 141.6h2.3V204h-2.3z"/><radialGradient id="SVGID_11_" cx="36.395" cy="188.034" r="22.085" gradientUnits="userSpaceOnUse"><stop offset="0" stop-color="#605a5a"/><stop offset="1"/></radialGradient><path class="st13" d="M39 142.3v61c-.7.4-1.5.7-2.3.7v-62.4c.8 0 1.6.3 2.3.7z"/></g><path class="st14" d="M131.1 50.2h-28.6c-1.7 0-3-1.4-3-3v-3.3c0-1.6 1.3-3 3-3h28.6c1.6 0 3 1.4 3 3v3.3c0 1.6-1.4 3-3 3z"/><g><linearGradient id="SVGID_12_" gradientUnits="userSpaceOnUse" x1="18.785" y1="64.946" x2="18.785" y2="84.829"><stop offset="0" stop-color="#e88486"/><stop offset=".052" stop-color="#e77c7e"/><stop offset=".334" stop-color="#e45859"/><stop offset=".595" stop-color="#e23d3d"/><stop offset=".825" stop-color="#e02d2d"/><stop offset="1" stop-color="#e02727"/></linearGradient><path class="st15" d="M30.3 71.3l-1.2 2.4c-1.9 2.9-1.9-3.6-2.2-4.5-.8-2.4-3.5-3.3-5.8-3.8-4.9-1-11.5-.7-15.7 2.3C.6 71.1 4 78.2 8.6 79.6c5.1 1.6 10.8 1 15.8 2.9 1.1.4 1.3 1.3 1.2 2.3l8.3-1 .6-6.5-4.2-6z"/></g><linearGradient id="SVGID_13_" gradientUnits="userSpaceOnUse" x1="15.133" y1="64.946" x2="15.133" y2="73.465"><stop offset="0" stop-color="#e78383"/><stop offset=".431" stop-color="#e78585" stop-opacity=".828"/><stop offset=".586" stop-color="#e98c8c" stop-opacity=".766"/><stop offset=".697" stop-color="#eb9797" stop-opacity=".721"/><stop offset=".786" stop-color="#eea8a8" stop-opacity=".686"/><stop offset=".863" stop-color="#f2bebe" stop-opacity=".655"/><stop offset=".93" stop-color="#f8dada" stop-opacity=".628"/><stop offset=".99" stop-color="#fef9f9" stop-opacity=".604"/><stop offset="1" stop-color="#fff" stop-opacity=".6"/></linearGradient><path class="st16" d="M3.1 72.6s-1.9-7.7 13.6-7.7c9.8.3 10.2 4.2 10.2 4.2l.4 3.4c-8 1.2-16.3 1.3-24.2.1z"/><g><linearGradient id="SVGID_14_" gradientUnits="userSpaceOnUse" x1="-805.298" y1="64.946" x2="-805.298" y2="84.829" gradientTransform="matrix(-1 0 0 1 -593.083 0)"><stop offset="0" stop-color="#e88486"/><stop offset=".052" stop-color="#e77c7e"/><stop offset=".334" stop-color="#e45859"/><stop offset=".595" stop-color="#e23d3d"/><stop offset=".825" stop-color="#e02d2d"/><stop offset="1" stop-color="#e02727"/></linearGradient><path class="st17" d="M196.5 77.3l.6 6.5 8.3 1c-.1-1 .2-1.9 1.2-2.3 5.1-1.9 10.7-1.3 15.8-2.9 4.6-1.4 8-8.5 3.2-11.9-4.2-3-10.8-3.2-15.7-2.3-2.3.4-5 1.4-5.8 3.8-.3.9-.2 7.4-2.2 4.5-.5-.7-.9-1.5-1.2-2.4l-4.2 6z"/></g><linearGradient id="SVGID_15_" gradientUnits="userSpaceOnUse" x1="-808.951" y1="64.946" x2="-808.951" y2="73.465" gradientTransform="matrix(-1 0 0 1 -593.083 0)"><stop offset="0" stop-color="#e78383"/><stop offset=".431" stop-color="#e78585" stop-opacity=".828"/><stop offset=".586" stop-color="#e98c8c" stop-opacity=".766"/><stop offset=".697" stop-color="#eb9797" stop-opacity=".721"/><stop offset=".786" stop-color="#eea8a8" stop-opacity=".686"/><stop offset=".863" stop-color="#f2bebe" stop-opacity=".655"/><stop offset=".93" stop-color="#f8dada" stop-opacity=".628"/><stop offset=".99" stop-color="#fef9f9" stop-opacity=".604"/><stop offset="1" stop-color="#fff" stop-opacity=".6"/></linearGradient><path class="st18" d="M227.9 72.6s1.9-7.7-13.6-7.7c-9.8.3-10.2 4.2-10.2 4.2l-.4 3.4c8 1.2 16.3 1.3 24.2.1z"/><g><path class="st19" d="M184.9 73H48.6c-2.9 0-5.1 2.4-6 5-1.8 5.5-6.1 10.4-9.6 15.4-1.7 2.3-.2 5.7 3 7.5 51 24.8 110.6 24.8 161.6 0 3.2-1.7 4.7-5.2 3-7.5-3.5-5.1-7.8-9.9-9.6-15.4-.9-2.6-3.2-5-6.1-5z"/><path class="st20" d="M95.3 79.3h-35c-5 0-9 4.1-9 9v7.6c0 5 4 9 9 9h35c5 0 9-4 9-9v-7.6c0-4.9-4-9-9-9z"/><path class="st21" d="M65.4 71.6h2.9v7.7h-2.9zM87.3 71.6h2.9v7.7h-2.9z"/><path class="st20" d="M88.1 55.7H67.6c-4.3 0-7.8 3.5-7.8 7.8v3.1c0 4.3 3.5 7.8 7.8 7.8h20.5c4.3 0 7.8-3.5 7.8-7.8v-3.1c0-4.3-3.5-7.8-7.8-7.8z"/><g><path class="st20" d="M173.2 79.3h-35c-5 0-9 4.1-9 9v7.6c0 5 4 9 9 9h35c5 0 9-4 9-9v-7.6c0-4.9-4-9-9-9z"/><path class="st21" d="M143.4 71.6h2.9v7.7h-2.9zM165.3 71.6h2.9v7.7h-2.9z"/><path class="st20" d="M166 55.7h-20.5c-4.3 0-7.8 3.5-7.8 7.8v3.1c0 4.3 3.5 7.8 7.8 7.8H166c4.3 0 7.8-3.5 7.8-7.8v-3.1c0-4.3-3.5-7.8-7.8-7.8z"/></g></g><path class="st22" d="M153.1 85.1c6.4-1.7 13 .3 17.2 4.8.9 0 1.8 0 2.7.1-3.7-7.1-12-10.9-20.1-8.7-5.5 1.5-9.7 5.5-11.7 10.4.8-.1 1.6-.2 2.5-.3 2.4-3 5.5-5.3 9.4-6.3z"/><path class="st23" d="M205.8 177.8c.9 3.5-1 6.8-4.2 7.5-57.7 11-117.3 11-174.9 0-3.2-.6-5.1-4-4.2-7.5.9-3.5 4.1-5.8 7.1-5.2 55.8 10.6 113.3 10.6 169.1 0 3.1-.6 6.3 1.7 7.1 5.2z"/><path class="st24" d="M196 87.2c-1.9.2-3.7.5-5.6.6-1.5.2-2.9.3-4.4.4-1.4.1-2.7.2-4.1.4-10.1.9-20.2 1.5-30.3 2-13.1.6-26.2.8-39.2.8-3 0-6-.1-8.9-.1l-5.3-.1c-17.2-.4-34.4-1.3-51.5-2.7-1.4-.1-2.9-.2-4.3-.4-1.8-.2-3.7-.3-5.5-.5.5 0 1.2-9.7 1.3-10.5.9-7.4 2.4-14.8 5.2-21.3C49.1 42 59.3 37 70.7 37.2c27.7.4 55.3.7 83 1.1 4.6.1 9.3.1 13.9.2 1.2 0 2.5-.1 3.7.1 3.6.7 6.8 3.6 9.4 7 .5.6.9 1.3 1.4 2 1.7 2.6 3.2 5.4 4.6 8.3.3.7.6 1.3.9 2 2 4.6 3.6 9.5 4.9 14.5 1.4 4.9 2.5 9.9 3.5 14.8z"/><g><linearGradient id="SVGID_16_" gradientUnits="userSpaceOnUse" x1="115.88" y1="25" x2="115.88" y2="185.54"><stop offset="0" stop-color="#e4554f"/><stop offset="1" stop-color="#ad2a27"/></linearGradient><path class="st25" d="M217.3 109.4c-1-3.4-2.3-6-4.2-9-1.7-2.7-3.5-5.4-5-8.3-1.2-2.4-2.3-5-2.9-7.6v-.3l-2-10.6c-.1-.1-.1-.3-.2-.4-.7-1.4-1.1-2.9-1.7-4.4-1.4-3.8-3.1-7.5-5-11.1-1.9-3.6-4-7.2-6.1-10.6-2.7-4.3-5.3-8.6-8.8-12.3-3.3-3.5-7-5.7-11.5-6.8-.6-.2-1.2-.3-1.9-.4-1.7-.3-3.5-.5-5.2-.7-2-.2-4.1-.4-6.1-.6-13.7-1.1-27.4-1.3-41.1-1.3-14.1 0-28.2 0-42.3.6-.4 0-.9 0-1.3.1-3.6.2-7.2.3-10.7 1.2-.6.1-1.1.3-1.6.5-5.1 1.7-9 4.6-12.3 8.8-5.2 6.7-9.1 14.4-12.3 22.2-1.1 2.4-2.1 4.9-3.1 7.5-.9 2.2-1.6 4.8-2.9 6.8l-3.6 12.5c-.1.2-.1.4-.2.5-.2.8-.5 1.5-.6 2.1-.4 1.9-.8 4.1-1.6 5.9-.1.2-.2.4-.2.5-2.3 4.3-5.2 8.3-7.6 12.6-2.5 4.3-3.3 9.8-3.7 14.7-.1 1.6-.2 3.3-.3 5v.4c-.2 7.2.2 14.6 1 21.6 1.1 9.1 3.1 17.9 7.3 26.1 3 5.8 8.3 5.7 13.9 6.3 1.7.2 3.4.3 5.1.8 2.4.7 4.3 2.2 6.7 2.9 1.8.5 3.6.8 5.4.8h131.7c4.8 0 8.9-2.3 13.6-2.9 5.5-.7 13-.3 16.1-6 3.1-5.9 4.7-12.6 6.1-19 3.3-15.7 3.6-32.4-.9-48.1zM186 88.2c-1.4.1-2.7.2-4.1.4-45 3.9-90.3 3.5-135.3-.2-3.3-.3-6.5-.5-9.8-.8.5 0 1.2-9.7 1.3-10.5.9-7.4 2.4-14.8 5.2-21.3C49.1 42 59.3 37 70.7 37.2c27.7.4 55.3.7 83 1.1 4.6.1 9.3.1 13.9.2 1.2 0 2.5-.1 3.7.1 4.3.8 8 4.8 10.7 9 7.3 10.9 11 25.8 13.8 39.6-3.1.4-6.5.7-9.8 1z"/></g><path class="st26" d="M169.9 27.9c-2.4 3.8-25.8 6.8-54.3 6.8-30.1 0-54.5-3.4-54.5-7.5 0-.2 0-.3.1-.5 3.5-.9 7.1-1 10.7-1.2.4 0 .9 0 1.3-.1 14.2-.4 28.3-.4 42.4-.4 13.7 0 27.4.2 41.1 1.3 2 .2 4.1.3 6.1.6 1.7.2 3.5.4 5.2.7.7 0 1.3.2 1.9.3z"/><path class="st27" d="M159.7 27.6c-1.4 3-20.9 5.3-44.9 5.3-24.8 0-44.9-2.5-44.9-5.6 0-.2.1-.4.3-.6 14.1-.4 28.2-.5 42.3-.5 13.7 0 27.4.2 41.1 1 2 .1 4 .2 6.1.4z"/><path class="st28" d="M159.7 26.4c-1.4 3-20.9 5.3-44.9 5.3-24.8 0-44.9-2.5-44.9-5.6 0-.2.1-.4.3-.6 14-.5 28.1-.5 42.3-.5 13.7 0 27.4.2 41.1 1 2 .1 4 .2 6.1.4z"/><g><path class="st29" d="M40.3 105.1l-14.9 21-2.3 14.6c-.2 1-1.5 1.7-2.8 1.3l-8.1-2.8c-.6-3.7-1-7.6-1.1-11.4 0-1.2-.1-2.3-.1-3.5 0 1 0 2.1.1 3.1.1-1.6.1-3.2.3-4.8.4-4.7 1.2-10 3.7-14.1 2.4-4.1 5.3-7.9 7.6-12.1.1-.2.2-.3.2-.5.2-.3.4-.6.6-.8 1.1-1.5 1.5-3.5 2-5.2.1-.5.4-1.1.7-1.7 0-.1.1-.1.1-.2s.1-.2.1-.2l8.2 2.2 5.7 15.1z"/><linearGradient id="SVGID_17_" gradientUnits="userSpaceOnUse" x1="24.73" y1="85.247" x2="24.73" y2="140.611"><stop offset="0" stop-color="#f07a7a"/><stop offset="1" stop-color="#f14738"/></linearGradient><path class="st30" d="M38.3 103.1l-13.9 21.4-2.1 14.7c-.2 1.1-1.6 1.8-2.8 1.3l-7.3-2.8c-.5-3.6-.9-7.3-1-11 .1-1.7.1-3.3.3-5 .4-4.9 1.2-10.4 3.7-14.7 2.4-4.2 5.3-8.3 7.6-12.6.1-.2.2-.3.2-.5.8-1.8 1.2-4 1.6-5.9.1-.6.4-1.3.6-2.1.1-.2.1-.4.2-.5l1 .3 6.6 2 5.3 15.4z"/><path class="st31" d="M18.8 101l3.2 8.4-6-3.8z"/></g><g><path class="st29" d="M190.9 105.1l14.9 21 2.3 14.6c.2 1 1.5 1.7 2.8 1.3l8.1-2.8c.6-3.7 1-7.6 1.1-11.4 0-1.2.1-2.3.1-3.5 0 1 0 2.1-.1 3.1-.1-1.6-.1-3.2-.3-4.8-.4-4.7-1.2-10-3.7-14.1-2.4-4.1-5.3-7.9-7.6-12.1-.1-.2-.2-.3-.2-.5-.2-.3-.4-.6-.6-.8-1.1-1.5-1.5-3.5-2-5.2-.1-.5-.4-1.1-.7-1.7 0-.1-.1-.1-.1-.2s-.1-.2-.1-.2l-8.2 2.2-5.7 15.1z"/><linearGradient id="SVGID_18_" gradientUnits="userSpaceOnUse" x1="-775.634" y1="85.247" x2="-775.634" y2="140.611" gradientTransform="matrix(-1 0 0 1 -569.106 0)"><stop offset="0" stop-color="#f07a7a"/><stop offset="1" stop-color="#f14738"/></linearGradient><path class="st32" d="M193 103.1l13.9 21.4 2.1 14.7c.2 1.1 1.6 1.8 2.8 1.3l7.3-2.8c.5-3.6.9-7.3 1-11-.1-1.7-.1-3.3-.3-5-.4-4.9-1.2-10.4-3.7-14.7-2.4-4.2-5.3-8.3-7.6-12.6-.1-.2-.2-.3-.2-.5-.8-1.8-1.2-4-1.6-5.9-.1-.6-.4-1.3-.6-2.1-.1-.2-.1-.4-.2-.5l-1 .3-6.6 2-5.3 15.4z"/><path class="st31" d="M215.3 105.6l-6 3.8 3.1-8.4z"/></g><path class="st29" d="M61.1 141.8c-.3 0-.6-.2-.8-.4-.1-.2-14.3-15.5-24.4-26.4-10.6-11.4-5.3-26.2-5.1-27 .2-.5.6-.8 1.1-.8h.3c.4.1.6.4.7.7C36.3 89.6 68 92 114.7 92c53.1-.1 83.2-3 85.9-5.3.1-.5.5-.9.9-.9h.2c.5 0 1 .3 1.1.8.2.8 4.7 16.9-5.9 28.3-10.1 10.9-24.2 26.3-24.4 26.4-.2.2-.5.4-.8.4-36.7 3.1-73.7 3.1-110.6.1z"/><linearGradient id="SVGID_19_" gradientUnits="userSpaceOnUse" x1="116.716" y1="85.874" x2="116.716" y2="141.644"><stop offset="0" stop-color="#e44e46"/><stop offset=".262" stop-color="#d84139"/><stop offset=".626" stop-color="#cd352e"/><stop offset="1" stop-color="#c9312a"/></linearGradient><path class="st33" d="M196.3 113c-3.2 3.5-6.8 7.4-10.3 11.1-7.5 8.1-14.1 15.3-14.1 15.3-36.9 3-73.9 3-110.8 0 0 0-6.6-7.2-14-15.3-3.4-3.7-7.1-7.7-10.3-11.1C26.6 102 32 87.4 32 87.3c-.2 1 5.9 2 15.9 2.7 32.3 2.8 105.3 3 137.8-.4 10.1-1 16.3-2.2 16.2-3.7 0 .1 4.6 16.2-5.6 27.1z"/><radialGradient id="SVGID_20_" cx="116.716" cy="122.379" r="64.072" gradientUnits="userSpaceOnUse"><stop offset="0" stop-color="#fc720b"/><stop offset=".149" stop-color="#f67719"/><stop offset=".428" stop-color="#ec7e2c"/><stop offset=".711" stop-color="#e78338"/><stop offset="1" stop-color="#e5843c"/></radialGradient><path class="st34" d="M196.3 113c-3.2 3.5-6.8 7.4-10.3 11.1-7.5 8.1-14.1 15.3-14.1 15.3-36.9 3-73.9 3-110.8 0 0 0-6.6-7.2-14-15.3-3.4-3.7-7.1-7.7-10.3-11.1C26.6 102 32 87.4 32 87.3c-.2 1 5.9 2 15.9 2.7 32.3 2.8 105.3 3 137.8-.4 10.1-1 16.3-2.2 16.2-3.7 0 .1 4.6 16.2-5.6 27.1z"/><g class="st35"><path class="st36" d="M196.3 111.8c-10.2 10.9-24.4 26.4-24.4 26.4-36.9 2.9-73.9 2.9-110.8 0 0 0-14.1-15.6-24.4-26.4-4.8-5.1-6.1-10.9-6.3-15.8-.1 5.1 1.1 11.5 6.2 17C46.8 123.9 61 139.5 61 139.5c36.9 3 73.9 3 110.8 0 0 0 14.1-15.6 24.4-26.5 5.5-6 6.7-13.3 6.6-18.9 0 5.4-1.3 12.1-6.5 17.7z"/></g><path class="st37" d="M25.2 85.9v-.1l.2-.5v-.1L29 72.7M205.6 85.9l-.3-1.7-2-10.5-.4-2.1"/><path class="st38" d="M185.7 89.4c-1.7 10.5-31.9 18.9-68.9 18.9-36.7 0-66.6-8.2-68.9-18.5 32.2 1.6 105.2 1.8 137.8-.4z"/><g><path class="st39" d="M194.4 137.4c-51.2 10.6-104.3 10.6-155.5 0-3.7-.8-6-4.1-5.2-7.3.7-2.7 1.4-5.3 2-8 .8-3.2 4.3-5.2 7.8-4.5 48.2 9.9 98.1 9.9 146.3 0 3.5-.7 7 1.3 7.8 4.5.7 2.7 1.4 5.3 2 8 .8 3.2-1.5 6.5-5.2 7.3z"/><g class="st40"><path class="st36" d="M198 138.1c-51.3 12.9-106 12.9-157.3 0-3.7-.9-5.9-4.3-4.9-7.5.8-2.6 1.6-5.2 2.4-7.9 1-3.2 4.6-5 8-4.1 47.7 11.9 98.5 11.9 146.3 0 3.4-.9 7 1 8 4.1.8 2.6 1.6 5.2 2.4 7.9 1 3.1-1.2 6.5-4.9 7.5z"/></g><radialGradient id="SVGID_21_" cx="47.221" cy="39.712" r="33.524" gradientTransform="matrix(1.3999 0 0 .5009 50.87 107.74)" gradientUnits="userSpaceOnUse"><stop offset="0" stop-color="#6b6b6b"/><stop offset=".444" stop-color="#696969"/><stop offset=".604" stop-color="#626262"/><stop offset=".717" stop-color="#575757"/><stop offset=".809" stop-color="#464646"/><stop offset=".888" stop-color="#303030"/><stop offset=".957" stop-color="#151515"/><stop offset="1"/></radialGradient><path class="st41" d="M183 127.1c-44 3.7-88.2 3.7-132.1 0 0-.6.1-1.2.1-1.7 43.9 3.7 88 3.7 131.9 0 .1.6.1 1.1.1 1.7z"/><radialGradient id="SVGID_22_" cx="47.221" cy="44.807" r="33.524" gradientTransform="matrix(1.3999 0 0 .5009 50.87 107.74)" gradientUnits="userSpaceOnUse"><stop offset="0" stop-color="#6b6b6b"/><stop offset=".444" stop-color="#696969"/><stop offset=".604" stop-color="#626262"/><stop offset=".717" stop-color="#575757"/><stop offset=".809" stop-color="#464646"/><stop offset=".888" stop-color="#303030"/><stop offset=".957" stop-color="#151515"/><stop offset="1"/></radialGradient><path class="st42" d="M183 129.7c-44 3.7-88.2 3.7-132.1 0 0-.6.1-1.2.1-1.7 43.9 3.7 88 3.7 131.9 0 .1.5.1 1.1.1 1.7z"/><radialGradient id="SVGID_23_" cx="47.221" cy="49.902" r="33.524" gradientTransform="matrix(1.3999 0 0 .5009 50.87 107.74)" gradientUnits="userSpaceOnUse"><stop offset="0" stop-color="#6b6b6b"/><stop offset=".444" stop-color="#696969"/><stop offset=".604" stop-color="#626262"/><stop offset=".717" stop-color="#575757"/><stop offset=".809" stop-color="#464646"/><stop offset=".888" stop-color="#303030"/><stop offset=".957" stop-color="#151515"/><stop offset="1"/></radialGradient><path class="st43" d="M183 132.2c-44 3.7-88.2 3.7-132.1 0 0-.6.1-1.2.1-1.7 43.9 3.7 88 3.7 131.9 0 .1.6.1 1.1.1 1.7z"/><radialGradient id="SVGID_24_" cx="47.221" cy="54.997" r="33.524" gradientTransform="matrix(1.3999 0 0 .5009 50.87 107.74)" gradientUnits="userSpaceOnUse"><stop offset="0" stop-color="#6b6b6b"/><stop offset=".444" stop-color="#696969"/><stop offset=".604" stop-color="#626262"/><stop offset=".717" stop-color="#575757"/><stop offset=".809" stop-color="#464646"/><stop offset=".888" stop-color="#303030"/><stop offset=".957" stop-color="#151515"/><stop offset="1"/></radialGradient><path class="st44" d="M183 134.8c-44 3.7-88.2 3.7-132.1 0 0-.6.1-1.2.1-1.7 43.9 3.7 88 3.7 131.9 0 .1.5.1 1.1.1 1.7z"/><radialGradient id="SVGID_25_" cx="47.221" cy="60.092" r="33.524" gradientTransform="matrix(1.3999 0 0 .5009 50.87 107.74)" gradientUnits="userSpaceOnUse"><stop offset="0" stop-color="#6b6b6b"/><stop offset=".444" stop-color="#696969"/><stop offset=".604" stop-color="#626262"/><stop offset=".717" stop-color="#575757"/><stop offset=".809" stop-color="#464646"/><stop offset=".888" stop-color="#303030"/><stop offset=".957" stop-color="#151515"/><stop offset="1"/></radialGradient><path class="st45" d="M183 137.3c-44 3.7-88.2 3.7-132.1 0 0-.6.1-1.2.1-1.7 43.9 3.7 88 3.7 131.9 0 .1.6.1 1.2.1 1.7z"/><radialGradient id="SVGID_26_" cx="47.221" cy="65.187" r="33.524" gradientTransform="matrix(1.3999 0 0 .5009 50.87 107.74)" gradientUnits="userSpaceOnUse"><stop offset="0" stop-color="#6b6b6b"/><stop offset=".444" stop-color="#696969"/><stop offset=".604" stop-color="#626262"/><stop offset=".717" stop-color="#575757"/><stop offset=".809" stop-color="#464646"/><stop offset=".888" stop-color="#303030"/><stop offset=".957" stop-color="#151515"/><stop offset="1"/></radialGradient><path class="st46" d="M183 139.9c-44 3.7-88.2 3.7-132.1 0 0-.6.1-1.2.1-1.7 43.9 3.7 88 3.7 131.9 0 .1.5.1 1.1.1 1.7z"/></g><g><linearGradient id="SVGID_27_" gradientUnits="userSpaceOnUse" x1="19.362" y1="124.229" x2="66.038" y2="124.229"><stop offset="0" stop-color="#bdbcb7"/><stop offset=".039" stop-color="#c9c8c4"/><stop offset=".123" stop-color="#dddcda"/><stop offset=".223" stop-color="#ececeb"/><stop offset=".346" stop-color="#f7f7f6"/><stop offset=".52" stop-color="#fdfdfd"/><stop offset="1" stop-color="#fff"/></linearGradient><path class="st47" d="M65.6 136.6c-.5 1.3-1.6 3.7-3.8 4.7-.3.2-.7.3-1.1.4-.5.1-1.1.2-1.8.2-.6 0-1.4-.1-2.5-.3-.3-.1-.7-.1-1.1-.2-1.2-.2-2.7-.5-4.3-.8-.3-.1-.7-.2-1.1-.2-1.4-.3-2.8-.6-4.3-.9-.4-.1-.7-.2-1.1-.2-1.4-.3-2.9-.7-4.3-1-.4-.1-.7-.2-1.1-.3-1.6-.4-3-.7-4.3-1.1-.4-.1-.7-.2-1.1-.3-1.5-.4-2.6-.7-3.1-.9-.3-.1-.7-.3-1.1-.4-.3-.1-.7-.3-1.1-.4-1.3-.6-2.9-1.3-4.3-2.2-.4-.2-.7-.5-1.1-.7-2-1.4-3.6-3.2-3.8-5.2-.6-4.6 1.5-10.8 1.5-10.8s.9-2.4 2.3-4.6c.3-.5.7-1 1.1-1.5.7-.9 1.5-1.6 2.4-1.9.8-.3 1.4-.5 1.9-.8.4-.2.7-.3 1.1-.4 1.1-.4 2.2-.4 4.3.2.1 0 .2.1.3.1.2.1.4.2.7.3 1 .4 2.5 1.1 4.3 2 .3.2.7.4 1.1.6 1.3.7 2.8 1.5 4.3 2.3.4.2.7.4 1.1.6 1.4.8 2.9 1.6 4.3 2.4.4.2.7.4 1.1.6 1.5.9 3 1.8 4.3 2.6.4.2.7.4 1.1.7 1.8 1.1 3.3 2.1 4.3 2.8.1.1.2.2.3.2.3.2.5.4.8.6 3.5 3.3 4.2 7.7 4.2 7.7s.3 4.4-.4 6.1z"/><linearGradient id="SVGID_28_" gradientUnits="userSpaceOnUse" x1="21.102" y1="124.228" x2="64.298" y2="124.228"><stop offset="0" stop-color="#b9b0a9"/><stop offset="1" stop-color="#7d7573"/></linearGradient><path class="st48" d="M59.3 140.2h-.2c-2.2-.1-9.6-1.5-13.8-6.2-3.5-3.9-5.5 3.1-13.8 0-4.8-1.8-9.8-4.6-10.2-7.5-.6-4.1 1.4-10 1.5-10 .9-2.4 3-6.2 4.7-6.8.7-.3 1.3-.5 1.8-.7 1-.4 1.5-.6 2.1-.6.6 0 1.4.2 2.5.5 3.6 1.1 21.9 11.5 26.1 14.8 3.5 2.7 4.2 6.8 4.3 7.2.1 1.6.2 4.2-.2 5.1-.9 1.9-2.2 4.2-4.8 4.2z"/><path class="st36" d="M56.1 120.9h-4s-1.3 6.8-.6 8.1c.7 1.3 13.3 4.9 13.3 4.9l-1.6-8.9-7.1-4.1z"/><linearGradient id="SVGID_29_" gradientUnits="userSpaceOnUse" x1="34.531" y1="110.541" x2="34.531" y2="133.928"><stop offset="0" stop-color="#b9b0a9"/><stop offset="1" stop-color="#f8f7f5"/></linearGradient><path class="st49" d="M46.2 122.2c0 4.7-3 9.1-7.3 10.9-4.6 1.8-10 .5-13.2-3.3-3.1-3.6-3.7-9-1.4-13.2 2.5-4.5 7.8-7 12.8-5.8 5.2 1.2 9.1 6 9.1 11.4z"/><path class="st50" d="M34.5 112.6c6.1 0 11.1 4.7 11.6 10.7 0-.3.1-.7.1-1 0-6.5-5.2-11.7-11.7-11.7-6.5 0-11.7 5.2-11.7 11.7 0 .4 0 .7.1 1 .5-6 5.5-10.7 11.6-10.7z"/><path class="st51" d="M34.6 133.9c-.8 0-1.6-.1-2.3-.2-.3-.1-.7-.1-1-.2-1.7-.5-3.2-1.3-4.5-2.4-.4-.3-.7-.6-1-1-1.9-2.1-3-4.8-3-7.9 0-2.2.6-4.3 1.7-6.1 3.2 2.5 6.3 6.7 8.3 11.9.9 2.1 1.4 4 1.8 5.9z"/><linearGradient id="SVGID_30_" gradientUnits="userSpaceOnUse" x1="54.931" y1="124.228" x2="54.931" y2="138.655"><stop offset="0" stop-color="#b9b0a9"/><stop offset="1" stop-color="#f8f7f5"/></linearGradient><path class="st52" d="M62.1 131.4c0 2.9-1.8 5.6-4.5 6.7-2.8 1.1-6.2.3-8.2-2-1.9-2.2-2.3-5.5-.9-8.1 1.5-2.8 4.8-4.3 7.9-3.6 3.3.7 5.7 3.7 5.7 7z"/><path class="st50" d="M54.9 125.5c3.8 0 6.9 2.9 7.2 6.6v-.6c0-4-3.2-7.2-7.2-7.2s-7.2 3.2-7.2 7.2v.6c.4-3.7 3.5-6.6 7.2-6.6z"/><path class="st51" d="M55 138.7c-.5 0-1 0-1.4-.1-.2 0-.4-.1-.6-.1-1-.3-2-.8-2.8-1.5l-.6-.6c-1.2-1.3-1.9-3-1.9-4.8 0-1.4.4-2.7 1.1-3.8 2 1.6 3.9 4.2 5.1 7.4.5 1.1.9 2.3 1.1 3.5z"/><path class="st36" d="M22.2 120.1s.1-1.2.6-2.9c.2-.9.5-1.9 1-2.9.2-.5.5-1.1.8-1.6.3-.5.6-1.1 1-1.6s.8-1 1.2-1.4c.2-.2.5-.4.7-.6.3-.2.5-.4.8-.5.3-.1.5-.3.8-.4.3-.1.6-.2.8-.2.1 0 .3-.1.4-.1H31.5c.5 0 .9.1 1.3.2s.7.2.9.4c.5.3.7.4.7.4l-.1.2H32.6c-.3.1-.7.1-1.1.2-.1 0-.2 0-.3.1-.1 0-.2.1-.3.1-.1 0-.2.1-.3.1-.1 0-.2.1-.3.1-.4.2-.8.4-1.3.6-.4.2-.9.5-1.3.8-.4.3-.8.7-1.2 1.1-1.5 1.7-2.5 3.8-3.2 5.4-.7 1.6-1 2.8-1 2.8l-.1-.3z"/><path class="st53" d="M21.3 122.9l1-2.6 29.6 20.4z"/><g class="st54"><path class="st55" d="M24.4 109.8v22.8c-.4-.2-.7-.5-1.1-.7v-20.6c.3-.5.7-1 1.1-1.5zM29.7 106.8v28.5c-.3-.1-.7-.3-1.1-.4v-27.6c.4-.2.8-.4 1.1-.5zM35.1 107.4v29.4c-.4-.1-.7-.2-1.1-.3V107c.1 0 .2.1.3.1.2.1.5.2.8.3zM40.4 110v28.2c-.4-.1-.7-.2-1.1-.3v-28.5c.4.2.7.4 1.1.6zM45.7 112.9v26.5c-.4-.1-.7-.2-1.1-.2v-26.9c.4.2.8.4 1.1.6zM51.1 115.9v24.6c-.3-.1-.7-.2-1.1-.2v-25c.4.2.7.4 1.1.6zM56.4 119.2v22.4c-.3-.1-.7-.1-1.1-.2v-22.9c.4.2.8.5 1.1.7zM61.8 122.9v18.5c-.3.2-.7.3-1.1.4V122c.1.1.2.2.3.2.3.2.5.5.8.7z"/></g></g><g><linearGradient id="SVGID_31_" gradientUnits="userSpaceOnUse" x1="-724.11" y1="124.229" x2="-677.434" y2="124.229" gradientTransform="matrix(-1 0 0 1 -510.538 0)"><stop offset="0" stop-color="#bdbcb7"/><stop offset=".039" stop-color="#c9c8c4"/><stop offset=".123" stop-color="#dddcda"/><stop offset=".223" stop-color="#ececeb"/><stop offset=".346" stop-color="#f7f7f6"/><stop offset=".52" stop-color="#fdfdfd"/><stop offset="1" stop-color="#fff"/></linearGradient><path class="st56" d="M167.3 136.6c.5 1.3 1.6 3.7 3.8 4.7.3.2.7.3 1.1.4.5.1 1.1.2 1.8.2.6 0 1.4-.1 2.5-.3.3-.1.7-.1 1.1-.2 1.2-.2 2.7-.5 4.3-.8.3-.1.7-.2 1.1-.2 1.4-.3 2.8-.6 4.3-.9.4-.1.7-.2 1.1-.2 1.4-.3 2.9-.7 4.3-1 .4-.1.7-.2 1.1-.3 1.6-.4 3-.7 4.3-1.1.4-.1.7-.2 1.1-.3 1.5-.4 2.6-.7 3.1-.9.3-.1.7-.3 1.1-.4.3-.1.7-.3 1.1-.4 1.3-.6 2.9-1.3 4.3-2.2.4-.2.7-.5 1.1-.7 2-1.4 3.6-3.2 3.8-5.2.6-4.6-1.5-10.8-1.5-10.8s-.9-2.4-2.3-4.6c-.3-.5-.7-1-1.1-1.5-.7-.9-1.5-1.6-2.4-1.9-.8-.3-1.4-.5-1.9-.8-.4-.2-.7-.3-1.1-.4-1.1-.4-2.2-.4-4.3.2-.1 0-.2.1-.3.1-.2.1-.4.2-.7.3-1 .4-2.5 1.1-4.3 2-.3.2-.7.4-1.1.6-1.3.7-2.8 1.5-4.3 2.3-.4.2-.7.4-1.1.6-1.4.8-2.9 1.6-4.3 2.4-.4.2-.7.4-1.1.6-1.5.9-3 1.8-4.3 2.6-.4.2-.7.4-1.1.7-1.8 1.1-3.3 2.1-4.3 2.8-.1.1-.2.2-.3.2-.3.2-.5.4-.8.6-3.5 3.3-4.2 7.7-4.2 7.7s-.3 4.4.4 6.1z"/><linearGradient id="SVGID_32_" gradientUnits="userSpaceOnUse" x1="-722.37" y1="124.228" x2="-679.173" y2="124.228" gradientTransform="matrix(-1 0 0 1 -510.538 0)"><stop offset="0" stop-color="#b9b0a9"/><stop offset="1" stop-color="#7d7573"/></linearGradient><path class="st57" d="M173.7 140.2h.2c2.2-.1 9.6-1.5 13.8-6.2 3.5-3.9 5.5 3.1 13.8 0 4.8-1.8 9.8-4.6 10.2-7.5.6-4.1-1.4-10-1.5-10-.9-2.4-3-6.2-4.7-6.8-.7-.3-1.3-.5-1.8-.7-1-.4-1.5-.6-2.1-.6-.6 0-1.4.2-2.5.5-3.6 1.1-21.9 11.5-26.1 14.8-3.5 2.7-4.2 6.8-4.3 7.2-.1 1.6-.2 4.2.2 5.1.9 1.9 2.1 4.2 4.8 4.2z"/><path class="st36" d="M176.8 120.9h4s1.3 6.8.6 8.1c-.7 1.3-13.3 4.9-13.3 4.9l1.6-8.9 7.1-4.1z"/><linearGradient id="SVGID_33_" gradientUnits="userSpaceOnUse" x1="-708.941" y1="110.541" x2="-708.941" y2="133.928" gradientTransform="matrix(-1 0 0 1 -510.538 0)"><stop offset="0" stop-color="#b9b0a9"/><stop offset="1" stop-color="#f8f7f5"/></linearGradient><path class="st58" d="M186.7 122.2c0 4.7 3 9.1 7.3 10.9 4.6 1.8 10 .5 13.2-3.3 3.1-3.6 3.7-9 1.4-13.2-2.5-4.5-7.8-7-12.8-5.8-5.2 1.2-9.1 6-9.1 11.4z"/><path class="st50" d="M198.4 112.6c-6.1 0-11.1 4.7-11.6 10.7 0-.3-.1-.7-.1-1 0-6.5 5.2-11.7 11.7-11.7 6.5 0 11.7 5.2 11.7 11.7 0 .4 0 .7-.1 1-.5-6-5.5-10.7-11.6-10.7z"/><path class="st51" d="M198.3 133.9c.8 0 1.6-.1 2.3-.2.3-.1.7-.1 1-.2 1.7-.5 3.2-1.3 4.5-2.4.4-.3.7-.6 1-1 1.9-2.1 3-4.8 3-7.9 0-2.2-.6-4.3-1.7-6.1-3.2 2.5-6.3 6.7-8.3 11.9-.8 2.1-1.4 4-1.8 5.9z"/><linearGradient id="SVGID_34_" gradientUnits="userSpaceOnUse" x1="-688.54" y1="124.228" x2="-688.54" y2="138.655" gradientTransform="matrix(-1 0 0 1 -510.538 0)"><stop offset="0" stop-color="#b9b0a9"/><stop offset="1" stop-color="#f8f7f5"/></linearGradient><path class="st59" d="M170.8 131.4c0 2.9 1.8 5.6 4.5 6.7 2.8 1.1 6.2.3 8.2-2 1.9-2.2 2.3-5.5.9-8.1-1.5-2.8-4.8-4.3-7.9-3.6-3.3.7-5.7 3.7-5.7 7z"/><path class="st50" d="M178 125.5c-3.8 0-6.9 2.9-7.2 6.6v-.6c0-4 3.2-7.2 7.2-7.2s7.2 3.2 7.2 7.2v.6c-.3-3.7-3.4-6.6-7.2-6.6z"/><path class="st51" d="M177.9 138.7c.5 0 1 0 1.4-.1.2 0 .4-.1.6-.1 1-.3 2-.8 2.8-1.5l.6-.6c1.2-1.3 1.9-3 1.9-4.8 0-1.4-.4-2.7-1.1-3.8-2 1.6-3.9 4.2-5.1 7.4-.5 1.1-.8 2.3-1.1 3.5z"/><path class="st36" d="M210.8 120.1s-.1-1.2-.6-2.9c-.2-.9-.5-1.9-1-2.9-.2-.5-.5-1.1-.8-1.6-.3-.5-.6-1.1-1-1.6s-.8-1-1.2-1.4c-.2-.2-.5-.4-.7-.6-.3-.2-.5-.4-.8-.5-.3-.1-.5-.3-.8-.4-.3-.1-.6-.2-.8-.2-.1 0-.3-.1-.4-.1H201.5c-.5 0-.9.1-1.3.2s-.7.2-.9.4c-.5.3-.7.4-.7.4l.1.2H200.4c.3.1.7.1 1.1.2.1 0 .2 0 .3.1.1 0 .2.1.3.1.1 0 .2.1.3.1.1 0 .2.1.3.1.4.2.8.4 1.3.6.4.2.9.5 1.3.8.4.3.8.7 1.2 1.1 1.5 1.7 2.5 3.8 3.2 5.4.7 1.6 1 2.8 1 2.8l.1-.3z"/><path class="st53" d="M211.6 122.9l-.9-2.6-29.6 20.4z"/><g class="st54"><path class="st55" d="M208.5 109.8v22.8c.4-.2.7-.5 1.1-.7v-20.6c-.3-.5-.7-1-1.1-1.5zM203.2 106.8v28.5c.3-.1.7-.3 1.1-.4v-27.6c-.4-.2-.8-.4-1.1-.5zM197.9 107.4v29.4c.4-.1.7-.2 1.1-.3V107c-.1 0-.2.1-.3.1-.3.1-.6.2-.8.3zM192.5 110v28.2c.4-.1.7-.2 1.1-.3v-28.5c-.3.2-.7.4-1.1.6zM187.2 112.9v26.5c.4-.1.7-.2 1.1-.2v-26.9c-.4.2-.8.4-1.1.6zM181.8 115.9v24.6c.3-.1.7-.2 1.1-.2v-25c-.3.2-.7.4-1.1.6zM176.5 119.2v22.4c.3-.1.7-.1 1.1-.2v-22.9c-.4.2-.7.5-1.1.7zM171.2 122.9v18.5c.3.2.7.3 1.1.4V122c-.1.1-.2.2-.3.2-.3.2-.6.5-.8.7z"/></g></g><path d="M117 92.5c-26.1.1-64.5-1.5-80.3-3.8-.1.3 0 0 0 0-.6-.1-1.1-.6-1-1.3 0-.2.1-.4.2-.6.2-.8.5-3.7.9-8.6.1-.7.1-1.2.1-1.3 1.1-8.6 2.8-15.7 5.3-21.6C47.6 42.5 57.5 35.8 70.7 36l97 1.3h1c.9 0 1.9 0 2.9.1 3.9.7 7.8 3.9 11.5 9.5 7.5 11.2 11.3 26.5 14 40 .1.3 0 .6-.2.9-.2.3-.5.4-.8.5-4.5.6-8.9 1-14.2 1.5-21 1.8-42.7 2.7-64.9 2.7zm-78.7-6c50 4.5 98.2 4.8 143.5.9 4.8-.4 8.8-.8 12.8-1.3-2.7-12.9-6.4-27.4-13.4-38-3.3-4.9-6.7-7.9-10-8.5-.7-.1-1.6-.1-2.4-.1h-1.1l-97-1.3c-12.4-.2-21.3 5.9-26.4 17.9-2.4 5.7-4.1 12.6-5.1 21 0 .1-.1.6-.1 1.2-.4 4.5-.6 6.9-.8 8.2z"/><g class="st60"><path class="st36" d="M32.7 84.9l-.1.1c-.1 0-.2.1-.4.1s-.5 0-.7-.1c-.2 0-.3-.2-.4-.3l-.4-.4c-.1-.1-.2-.3-.3-.5-.1-.2-.1-.3-.2-.5s-.1-.4-.1-.5v-.6c0-.4.1-.7.2-1.1.1-.4.2-.7.3-1.1.1-.3.2-.7.3-1 .1-.3.2-.7.3-1 .2-.6.5-1.2.7-1.7l.8-1.6.2.1s-.1.7-.4 1.7c-.1.5-.2 1.1-.3 1.8 0 .3-.1.7-.1 1-.1.3-.1.7-.1 1v3.5c0 .1 0 .1.1.2l.3.3c.1.1.2.1.3.2.1 0 .1.1.1.1l-.1.3zM198.6 84.9l.1.1c.1 0 .2.1.4.1s.5 0 .7-.1c.2 0 .3-.2.4-.3l.4-.4c.1-.1.2-.3.3-.5.1-.2.1-.3.2-.5s.1-.4.1-.5v-.6c0-.4-.1-.7-.2-1.1-.1-.4-.2-.7-.3-1.1-.1-.3-.2-.7-.3-1-.1-.3-.2-.7-.3-1-.2-.6-.5-1.2-.7-1.7l-.8-1.6-.2.1s.1.7.4 1.7c.1.5.2 1.1.3 1.8 0 .3.1.7.1 1 .1.3.1.7.1 1v3.5c0 .1 0 .1-.1.2l-.3.3c-.1.1-.2.1-.3.2-.1 0-.1.1-.1.1l.1.3z"/></g><path class="st31" d="M83.1 123s34.1-.3 35-.3c.9 0 32.2.3 32.2.3s-24.5 2-32.1 2c-7.5 0-35.1-2-35.1-2z"/><linearGradient id="SVGID_35_" gradientUnits="userSpaceOnUse" x1="104.456" y1="135.251" x2="127.305" y2="135.251"><stop offset="0" stop-color="#b9b0a9"/><stop offset="1" stop-color="#f8f7f5"/></linearGradient><ellipse class="st61" cx="115.9" cy="135.3" rx="11.4" ry="7.3"/><g><path class="st62" d="M111.2 134.4l-.3 1h-2.2l.3-1h-1.4l.4-1.7h5.7l-1.7 1.7h-.8zm-.4 1.3l-.1.4h-2.2l.1-.4h2.2zm-.3 1l-.3 1H108l.3-1c.6.1 1.4.1 2.2 0zm.8 1.1c.1-.3.2-.7.4-1h2.3c-.1.3-.3.6-.3 1h-2.4zm.7-1.7c.1-.1.2-.3.2-.4.7 0 1.5 0 2.2.1-.1.1-.2.2-.2.4-.7-.1-1.4-.1-2.2-.1zm.5-.7c.9-1.2 2-2.3 3.1-2.6h2.3l-.8 2.9c-.4 0-.9-.1-1.3-.1h-.4l.4-1.3c-.4.3-.8.8-1.1 1.3-.7-.2-1.5-.2-2.2-.2zm4.5.5l-.1.4c-.4 0-.8-.1-1.2-.1h-.4l.1-.4h.5c.4 0 .8.1 1.1.1zm-.2 1.1l-.2.8h-1.7l.2-.9h.7c.3 0 .6 0 1 .1zm4.5-.8c.1 0 .1-.1.2-.1.1-.1.2-.3.3-.6.1-.2.1-.4.1-.7 0-.2 0-.3-.1-.4-.1-.1-.3-.1-.6-.1h-.5l-.4 1.7c-.7-.1-1.4-.2-2-.3l.8-3H123c.2 0 .3 0 .4.1.3.1.5.3.7.5.1.2.2.5.2.9v.5c0 .2-.1.4-.1.6l-.3.9c-.1.2-.2.4-.2.5-.8-.1-1.5-.3-2.4-.5zm-3.7 1.6l.2-.7c1.4.2 2.8.4 3.9.6h-4.1zm.4-1.4l.1-.4c2.1.3 4.1.7 5.2.9l-.3.3c-1.2-.2-3.1-.5-5-.8z"/></g><path class="st38" d="M192.6 72.4l-41 18.2c-13.1.6-26.2.8-39.2.8l75.3-33.5c1.9 4.6 3.5 9.5 4.9 14.5zM186.8 55.9l-83.4 35.4-5.3-.1 82.7-45.5c.5.6.9 1.3 1.4 2 1.7 2.4 3.2 5.2 4.6 8.2z"/><g><path class="st63" d="M206 163.2v17.9c-5.2 1.9-12.5 4-15.8 4.6-1.3.2-3.3.7-5.3 1.2H47.4c-2-.5-4-.9-5.3-1.2-3.8-.6-13.1-3.3-18.2-5.5v-16.9H206z"/><path class="st64" d="M179.1 180.1h-.5c-1.5-.1-2.6-.7-3.2-1.8-1.6-2.8 1.1-8 1.2-8.2l1 .5c-.7 1.3-2.3 5.2-1.2 7.1.4.7 1.1 1.1 2.3 1.2 5.9.4 22.3-8.3 22.4-8.3l.5 1c-.5.3-16 8.5-22.5 8.5zM52.6 180.1c-6.5 0-21.9-8.1-22.6-8.5l.5-1c.2.1 16.6 8.8 22.4 8.3 1.1-.1 1.9-.5 2.3-1.2 1.1-1.9-.5-5.8-1.2-7.1l1-.5c.1.2 2.8 5.4 1.2 8.2-.6 1.1-1.7 1.7-3.2 1.8h-.4zM164.7 180.2H71.1c-3.8 0-6.6-1-8.3-3.1-2.4-2.9-1.8-6.6-1.8-6.7l1.1.2s-.5 3.4 1.6 5.8c1.5 1.8 4 2.7 7.5 2.7h93.5c6.8 0 7.8-8.5 7.8-8.6l1.2.1c-.1 0-1.2 9.6-9 9.6z"/></g><path class="st65" d="M220.5 148.9c-.7-7.3-4.7-5.1-4.7-5.1s-2.6 1.9-4.8 3.9c-2.2 2-8.4 7.3-12.8 9.3-4.4 2-21.9 2.9-21.9 2.9l-1.5 4.9s29.7-.5 30.5.6c.8 1.1.3 5.3-3.8 10.6s-26.3 8.7-26.3 8.7l-55.6-.5v-.1h-7v.1l-55.6.5s-22.1-3.4-26.3-8.7c-4.1-5.3-4.7-9.5-3.8-10.6.8-1.1 30.5-.6 30.5-.6l-1.5-4.9s-17.5-.8-21.9-2.9c-4.4-2-10.6-7.3-12.8-9.3-2.2-2-4.8-3.9-4.8-3.9s-4-2.2-4.7 5.1c-.7 7.3.7 21.4 1.1 22.6.4 1.2 5.4 4.8 10.3 7s14.8 5.1 18.8 5.8c4 .7 13.5 3.2 13.5 3.2h121.1s9.5-2.5 13.5-3.2c4-.7 13.9-3.6 18.8-5.8 4.9-2.2 9.9-5.8 10.3-7 .7-1.2 2.1-15.3 1.4-22.6z"/><path class="st66" d="M219.4 172.9c-.4 1.2-5.4 4.8-10.3 7-.9.4-1.9.8-3 1.2-5.2 1.9-12.5 4-15.8 4.6-1.3.2-3.3.7-5.3 1.2-4 1-8.1 2.1-8.1 2.1H55.5s-4.2-1.1-8.1-2.1c-2-.5-4-.9-5.3-1.2-3.8-.6-13.1-3.3-18.2-5.5l-.6-.3c-4.9-2.2-9.9-5.8-10.3-7-.4-1.2-1.8-15.3-1.1-22.6.7-7.3 4.7-5.1 4.7-5.1s2.6 1.9 4.8 3.9c2.2 2 8.4 7.3 12.8 9.3 4.4 2 21.9 2.9 21.9 2.9l.6 1.8.9 3.1s-29.7-.5-30.5.6c-.8 1.1-.3 5.3 3.8 10.6s26.3 8.6 26.3 8.6l55.6-.5v-.1h7v.1l55.6.5s22.1-3.4 26.3-8.6c4.1-5.3 4.7-9.5 3.8-10.6-.8-1.1-30.5-.6-30.5-.6l.9-3.1.6-1.8s17.5-.8 21.9-2.9c4.4-2 10.6-7.3 12.8-9.3 2.2-2 4.8-3.9 4.8-3.9s4-2.2 4.7 5.1c.5 7.4-.9 21.4-1.3 22.6z"/><g><path class="st67" d="M21.5 162.1l-5.9-3.9c-.3-.2-.5-.5-.5-.9v-2.8c0-.8.9-1.3 1.6-.9l5.9 3.9c.3.2.5.5.5.9v2.8c0 .9-.9 1.4-1.6.9z"/><path class="st68" d="M20.5 159.9l-1.8-1.2c-.3-.2-.5-.6-.5-.9 0-.9 1-1.4 1.7-.9l1.8 1.2c.3.2.5.6.5.9 0 .9-.9 1.4-1.7.9z"/></g><g><path class="st67" d="M211.2 162.1l5.9-3.9c.3-.2.5-.5.5-.9v-2.8c0-.8-.9-1.3-1.6-.9l-5.9 3.9c-.3.2-.5.5-.5.9v2.8c0 .9.9 1.4 1.6.9z"/><path class="st68" d="M212.2 159.9l1.8-1.2c.3-.2.5-.6.5-.9 0-.9-1-1.4-1.7-.9l-1.8 1.2c-.3.2-.5.6-.5.9-.1.9.9 1.4 1.7.9z"/></g><path class="st69" d="M181.8 165.1H55.9v-5.8c41.9-1.9 84-1.9 125.9 0v5.8z"/><path class="st70" d="M181.8 166.2H55.9v-5.8c41.9-1.9 84-1.9 125.9 0v5.8z"/><linearGradient id="SVGID_36_" gradientUnits="userSpaceOnUse" x1="115.88" y1="178.067" x2="115.88" y2="160.605"><stop offset="0" stop-color="#7f7f7f"/><stop offset=".5" stop-opacity=".993"/><stop offset="1" stop-color="#877777" stop-opacity=".987"/></linearGradient><path class="st71" d="M79.3 160.6h73.1v17.5H79.3z"/><path class="st36" d="M81.3 162.5h69.2v13.6H81.3z"/><g><path d="M111.8 165.2v1.2l-3.4 7h-2l3.4-6.6H106v-1.6h5.8zM118.8 165.2v1.2l-3.4 7h-2l3.4-6.6H113v-1.6h5.8zM125.8 165.2v1.2l-3.4 7h-2l3.4-6.6H120v-1.6h5.8z"/></g><path class="st72" d="M12.8 161.8s1 1.6 2.7 3.8c.9 1.1 1.9 2.4 3.1 3.6 1.2 1.3 2.5 2.6 3.8 3.8.7.6 1.4 1.2 2.1 1.7l2.1 1.5c.3.2.7.5 1 .7.3.2.6.5.9.7.3.2.6.5.9.6.3.2.6.4.8.6.3.2.5.4.8.6.3.2.5.3.7.5.2.2.5.3.7.4.2.1.4.3.6.4.7.4 1.1.7 1.1.7l-.1.3s-.5.1-1.4.1c-.4 0-1 0-1.6-.1-.3 0-.6-.1-1-.2-.3-.1-.7-.2-1.1-.3-.7-.2-1.5-.5-2.3-.9l-1.2-.6c-.4-.2-.8-.5-1.2-.8-.8-.6-1.5-1.2-2.1-1.9-.7-.7-1.3-1.4-2-2.2-.6-.7-1.3-1.5-1.8-2.2-.6-.7-1.1-1.5-1.6-2.3-.5-.8-1-1.5-1.4-2.2-.4-.7-.8-1.4-1.1-2-.7-1.3-1.2-2.3-1.5-3.1-.3-.8-.5-1.2-.5-1.2h.6zM219.1 161.8s-1 1.6-2.7 3.8c-.9 1.1-1.9 2.4-3.1 3.6-1.2 1.3-2.5 2.6-3.8 3.8-.7.6-1.4 1.2-2.1 1.7l-2.1 1.5c-.3.2-.7.5-1 .7-.3.2-.6.5-.9.7-.3.2-.6.5-.9.6-.3.2-.6.4-.8.6-.3.2-.5.4-.8.6-.3.2-.5.3-.7.5-.2.2-.5.3-.7.4-.2.1-.4.3-.6.4-.7.4-1.1.7-1.1.7l.1.3s.5.1 1.4.1c.4 0 1 0 1.6-.1.3 0 .6-.1 1-.2.3-.1.7-.2 1.1-.3.7-.2 1.5-.5 2.3-.9l1.2-.6c.4-.2.8-.5 1.2-.8.8-.6 1.5-1.2 2.1-1.9.7-.7 1.3-1.4 2-2.2.6-.7 1.3-1.5 1.8-2.2.6-.7 1.1-1.5 1.6-2.3.5-.8 1-1.5 1.4-2.2.4-.7.8-1.4 1.1-2 .7-1.3 1.2-2.3 1.5-3.1.3-.8.5-1.2.5-1.2h-.6z"/><path class="st73" d="M118 92.1c-25.3-3-50.7-4-76.1-2.9v-1.7c25.5-1.1 50.9-.1 76.2 2.9 0 .5 0 1.1-.1 1.7z"/><path class="st73" d="M114.5 92.1c25.3-3 50.7-4 76.1-2.9v-1.7c-25.5-1.1-50.9-.1-76.2 2.9 0 .5 0 1.1.1 1.7z"/></svg>