<svg xmlns="http://www.w3.org/2000/svg" xmlns:xlink="http://www.w3.org/1999/xlink" viewBox="0 0 230 230"><symbol id="a" viewBox="-28.2 -32.7 56.5 65.3"><path fill="#285421" d="M4.8 32.3l-29.7-11.2 20-53.4 29.7 11.2c0-.1-20 53.4-20 53.4z"/><path fill="#2E5F25" d="M2.8 32.5l-28.9-13.1 23.3-52 28.9 13L2.8 32.5z"/><path fill="#D9E5B7" d="M1.1-32.6l-29.3 48.9 27.1 16.3 29.3-48.9L1.1-32.6z"/><path fill="#346C2A" d="M-1.1 32.7l-27.2-16.4L1-32.7l27.2 16.3-29.3 49.1zm8.8-59.1c-2.4 2.6-6.1 3.5-9.5 2.4L-22.1 9.7c2.6 2.4 3.5 6.1 2.4 9.5l12 7.2c2.4-2.6 6.1-3.5 9.5-2.4L22.1-9.7c-2.6-2.4-3.5-6.1-2.4-9.5l-12-7.2zm-8.8 4L-20.3 9.5l.2.3c1.9 2.4 2.7 5.4 2.1 8.4l-.1.3 10.2 6.1.3-.2c2.4-1.9 5.5-2.7 8.4-2.1l.3.1L20.3-9.5l-.2-.3c-1.9-2.4-2.7-5.5-2.1-8.4l.1-.3-10.2-6.2-.3.2c-2.4 1.9-5.4 2.7-8.4 2.1h-.3zm-18 31.8L-.6-21.3c3 .5 6.1-.3 8.6-2.2l9 5.4c-.5 3 .3 6.2 2.2 8.6L.7 21.3c-3-.5-6.2.3-8.6 2.2l-9-5.4c.4-3.1-.4-6.2-2.2-8.7z"/><path fill="#D9E5B7" stroke="#346C2A" stroke-miterlimit="10" d="M5-8.4c-6.3-3.8-13.6-3.1-16.3 1.5-2.8 4.7.1 11.4 6.3 15.2C1.3 12 8.6 11.4 11.3 6.8 14.1 2.2 11.2-4.6 5-8.4z"/><path fill="#346C2A" d="M-10.1-6.1c-2.3 3.9.3 9.8 5.8 13.1s12 2.9 14.4-1c2.3-3.9-.3-9.8-5.8-13.2-5.6-3.3-12.1-2.8-14.4 1.1z"/><path fill="#D9E5B7" d="M.8-5.6C-.1-4.1-2.6 0-2.9.6c-.1.1-.7.1-.8.1-.4 0-.8-.2-1.2-.5-.8-.6-1.2-1.5-1-2.6.3-2.1 2-3.1 3.7-4.1.8-.5-.8-1.3-1.3-1.3-.7 0-1.6.8-2.1 1.3C-7-5.2-8.1-3.2-8-1.2c.1 1.9 1.5 3.6 3.4 4.1l.2.1c-.4.5 0 .9.5 1.1.6.3.7-.2 1-.6l.3-.5c.1-.2.7-.3 1-.4C-.7 2.2.1 1.6.9 1c-.4.7-2.4 3.8-2.4 4-.3.5 1 1.3 1.3.8.1-.1.2-.3.4-.5C.2 5.3 2.8 1 3.3.2c.1-.2.1-.4.3-.4.9-.1 1.9.5 2.2 1.3.8 1.8-1 3.6-2.4 4.4-.2.2-.8.4-.7.7 0 .3.6.6.8.7.7.4 1.3 0 1.9-.5 1.4-1.1 2.5-2.9 2.5-4.8s-1.4-3.5-3.2-4c.3-.6.6-.9-.1-1.3-.6-.4-.8-.1-1.1.4-.2.4-.3.7-.7.9-1.2.3-2.2.9-3.1 1.6.5-.9 2.1-3.5 2.3-3.9.4-.6-.9-1.4-1.2-.9z"/><path fill="#346C2A" d="M-12.4 12.7c-1.2 1.9-.5 4.4 1.4 5.6 1.9 1.2 4.4.5 5.6-1.4 1.2-1.9.5-4.4-1.4-5.6-2-1.1-4.5-.5-5.6 1.4zm6.6 4c-1 1.7-3.2 2.3-4.9 1.2-1.7-1-2.3-3.2-1.2-4.9 1-1.7 3.2-2.3 4.9-1.2 1.6 1 2.2 3.2 1.2 4.9z"/><path fill="#346C2A" d="M-8.5 16.4c1 2.2.1 2.5 0 0zm1.1-2c2.3-1 2.5-.1 0 0zm0 0c-.3.1-.6.3-.9.5l.7.7c-.3-.1-.6-.2-1-.3v1c-.1-.3-.3-.6-.5-.9l-.7.7c.1-.3.2-.6.3-1h-1c.3-.1.6-.3.9-.5l-.7-.7c.3.1.6.2 1 .3v-1c.1.3.3.6.5.9l.7-.7c-.1.3-.2.6-.3 1 .4.1.7.1 1 0zm-3.1.8c-2.2 1.1-2.5.2 0 0zm1.2-1.9c-1.1-2.3-.2-2.5 0 0zm-1 .7c-2.3-.8-1.9-1.7 0 0zm2.7 1.7c2.4.8 1.9 1.6 0 0zm-.5-2.2c.8-2.4 1.7-1.9 0 0zm-1.7 2.7c-.8 2.3-1.6 1.9 0 0zm15.1-33c-1.2 1.9-.5 4.4 1.4 5.6 1.9 1.2 4.4.5 5.6-1.4 1.2-1.9.5-4.4-1.4-5.6-1.9-1.2-4.4-.6-5.6 1.4zm6.6 3.9c-1 1.7-3.2 2.3-4.9 1.2-1.7-1-2.3-3.2-1.2-4.9 1-1.7 3.2-2.3 4.9-1.2 1.7 1 2.2 3.2 1.2 4.9z"/><path fill="#346C2A" d="M9.2-13.2c1.1 2.3.2 2.5 0 0zm1.2-1.9c2.2-1.1 2.5-.2 0 0zm0 0c-.3.1-.6.3-.9.5l.7.7c-.3-.1-.6-.2-1-.3v1c-.1-.3-.3-.6-.5-.9l-.7.7c.1-.3.2-.6.3-1h-1c.3-.1.6-.3.9-.5l-.7-.7c.3.1.6.2 1 .3v-1c.1.3.3.6.5.9l.7-.7c-.1.3-.2.6-.3 1h1zm-3.1.7c-2.3 1.1-2.5.2 0 0zm1.1-1.9c-1-2.3-.1-2.5 0 0zm-.9.7c-2.4-.8-1.9-1.6 0 0zm2.7 1.7c2.3.8 1.9 1.6 0 0zm-.5-2.2c.8-2.4 1.6-1.9 0 0zM8-13.4c-.8 2.4-1.7 1.9 0 0z"/></symbol><use xlink:href="#a" width="56.5" height="65.3" x="-28.2" y="-32.7" transform="matrix(1.0976 0 0 -1.0976 69.849 93.722)" overflow="visible"/><use xlink:href="#a" width="56.5" height="65.3" x="-28.2" y="-32.7" transform="matrix(.7761 .7761 .7761 -.7761 81.897 100.933)" overflow="visible"/><use xlink:href="#a" width="56.5" height="65.3" x="-28.2" y="-32.7" transform="matrix(1.0712 .2391 .2391 -1.0712 123.468 94.123)" overflow="visible"/><use xlink:href="#a" width="56.5" height="65.3" x="-28.2" y="-32.7" transform="matrix(.5713 .9371 .9371 -.5713 147.513 98.706)" overflow="visible"/><path fill="#4D4D4D" d="M54.2 110.2c38.6-17.6 83.1-17.6 121.7 0 3.5 1.6 5.8 5.2 5.8 9v42.7H48.5v-42.7c-.1-3.8 2.2-7.3 5.7-9z"/><path fill="#333" d="M54.2 110.2c-3.5 1.6-5.8 5.2-5.7 9v42.7h66.6V97c-20.8 0-41.6 4.4-60.9 13.2z"/><linearGradient id="b" gradientUnits="userSpaceOnUse" x1="147.767" y1="123.01" x2="147.767" y2="135.157" gradientTransform="matrix(.9994 .03354 -.03354 .9994 16.559 7.92)"><stop offset="0" stop-color="#FFF"/><stop offset="1" stop-color="#F00" stop-opacity=".8"/></linearGradient><path opacity=".22" fill="url(#b)" d="M188.6 148.9l-57.8-1.9-1.5-12.2 61.6 2.1"/><path fill="#ADB6B1" d="M186.4 123.3c-.6.1-1.2.1-1.8.1l-3.4-9.8c-.7-2.1-2.7-3.6-4.9-3.6l-29.9-1c-2.1-.1-4.1 1.1-5 3l-4.8 9.8c-.6-.1-1.2-.1-1.8-.2.2 0 .5-3.1.5-3.4.4-2.4.9-4.7 1.9-6.8 2-4.4 5.4-5.9 9.1-5.7 8.9.4 17.9.8 26.8 1.3 1.5.1 3 .1 4.5.2.4 0 .8 0 1.2.1 1.4.3 2.5 1.6 3.4 3 2.4 3.7 3.5 8.5 4.2 13z"/><path fill="#14100F" d="M192.4 142.8l-.6 16.8v.2c0 .2-.1.3-.1.5 0 .1-.1.2-.2.3-.1.2-.3.3-.5.5h-.1c-.2.1-.5.2-.8.2h-.1l-5.4-.2h-.1c-.3 0-.5-.1-.7-.3-.2-.1-.3-.3-.5-.5-.1-.1-.1-.2-.2-.3-.1-.1-.1-.3-.1-.5v-.2l.6-16.8v-.1c0-.1 0-.2.1-.3.1-.2.1-.3.2-.5l.3-.3c.1-.1.2-.1.3-.2.2-.1.5-.2.8-.2h.1l5.4.2h.1c.3 0 .5.1.7.3.1.1.2.1.3.2.1.1.2.2.2.3.1.1.2.3.2.5v.3c.1 0 .1.1.1.1z"/><path d="M191 161c-.3.2-.6.3-.9.2l-5.4-.2c-.3 0-.7-.1-.9-.3l7.2.3zm.7-.7c0 .1-.1.2-.2.3l-8.2-.3c-.1-.1-.1-.2-.2-.3l8.6.3zm.1-.8v.3l-8.7-.3v-.3l8.7.3zm-8.687-.74l.01-.3 8.795.295-.01.3zm.004-.753l.01-.3 8.795.295-.01.3zm.008-.854l.01-.3 8.795.296-.01.298zm.005-.753l.01-.3 8.794.295-.01.3zm.002-.753l.01-.3 8.795.296-.01.3zm.103-.749l.01-.3 8.795.295-.01.3zm.008-.853l.01-.3 8.794.295-.01.3zm.004-.755l.01-.298 8.794.295-.01.3zm.003-.75l.01-.3 8.795.294-.01.3zm.103-.75l.01-.3 8.795.295-.01.3zm.007-.854l.01-.3 8.795.296-.01.3zm.004-.753l.01-.3 8.795.295-.01.3zm.004-.753l.01-.3 8.795.295-.01.3zm.004-.753l.01-.3 8.794.295-.01.3zm.106-.849l.01-.3 8.795.295-.01.3zm.004-.753l.01-.3 8.795.295-.01.3zm.004-.755l.01-.3 8.795.297-.01.3zm.004-.75l.01-.3 8.794.294-.01.3zm.006-.854l.01-.3 8.795.296-.01.3zm.104-.75l.01-.3 8.795.296-.01.3zm.004-.753l.01-.3 8.795.295-.01.3zm8.796-.513l-8.7-.3c0-.1 0-.2.1-.3l8.6.3v.3zm-.3-.8l-8.2-.3.3-.3 7.7.3c.1.1.2.2.2.3z" fill="#2B2525"/><radialGradient id="c" cx="172.461" cy="142.146" r="7.147" gradientTransform="matrix(.9994 .03354 -.03354 .9994 16.559 7.92)" gradientUnits="userSpaceOnUse"><stop offset="0" stop-color="#605A5A"/><stop offset="1"/></radialGradient><path fill="url(#c)" d="M185.2 140.9l-.7 20.2c-.3 0-.5-.1-.7-.3l.7-19.7c.2-.1.5-.2.7-.2z"/><radialGradient id="d" cx="173.984" cy="142.147" r="7.152" gradientTransform="matrix(.9994 .03354 -.03354 .9994 16.559 7.92)" gradientUnits="userSpaceOnUse"><stop offset="0" stop-color="#605A5A"/><stop offset="1"/></radialGradient><path fill="url(#d)" d="M186.8 140.9l-.7 20.3-.7-.1.7-20.2"/><radialGradient id="e" cx="175.845" cy="142.147" r="7.152" gradientTransform="matrix(.9994 .03354 -.03354 .9994 16.559 7.92)" gradientUnits="userSpaceOnUse"><stop offset="0" stop-color="#605A5A"/><stop offset="1"/></radialGradient><path fill="url(#e)" d="M188.4 141l-.7 20.2h-.7l.7-20.2"/><radialGradient id="f" cx="177.165" cy="142.282" r="7.152" gradientTransform="matrix(.9994 .03354 -.03354 .9994 16.559 7.92)" gradientUnits="userSpaceOnUse"><stop offset="0" stop-color="#605A5A"/><stop offset="1"/></radialGradient><path fill="url(#f)" d="M190 141.1l-.7 20.2-.7-.1.7-20.2"/><radialGradient id="g" cx="179.025" cy="142.147" r="7.149" gradientTransform="matrix(.9994 .03354 -.03354 .9994 16.559 7.92)" gradientUnits="userSpaceOnUse"><stop offset="0" stop-color="#605A5A"/><stop offset="1"/></radialGradient><path fill="url(#g)" d="M191.6 141.3l-.7 19.7c-.2.1-.5.2-.8.2l.7-20.2c.3.1.6.2.8.3z"/><path fill="#14100F" d="M135.8 140.9l-.6 16.8v.2c0 .2-.1.3-.1.5 0 .1-.1.2-.2.3-.1.2-.3.3-.5.5h-.1c-.2.1-.5.2-.8.2h-.1l-5.4-.2h-.1c-.3 0-.5-.1-.7-.3-.2-.1-.3-.3-.5-.5-.1-.1-.1-.2-.2-.3-.1-.1-.1-.3-.1-.5v-.2l.6-16.8v-.1c0-.1 0-.2.1-.3.1-.2.1-.3.2-.5l.3-.3c.1-.1.2-.1.3-.2.2-.1.5-.2.8-.2h.1l5.4.2h.1c.3 0 .5.1.7.3.1.1.2.1.3.2.1.1.2.2.2.3.1.1.2.3.2.5v.3c.1 0 .1.1.1.1z"/><path d="M134.4 159.1c-.3.2-.6.3-.9.2l-5.4-.2c-.3 0-.7-.1-.9-.3l7.2.3zm.7-.7c0 .1-.1.2-.2.3l-8.2-.3c-.1-.1-.1-.2-.2-.3l8.6.3zm.1-.8v.3l-8.7-.3v-.3l8.7.3zm-8.657-.708l.01-.3 8.795.295-.01.3zm.007-.852l.01-.3 8.795.294-.01.3zm.004-.755l.01-.3 8.795.296-.01.3zm.004-.753l.01-.3 8.795.295-.01.3zm.004-.752l.01-.3 8.794.295-.01.3zm.106-.85l.01-.3 8.795.296-.01.3zm.004-.753l.01-.3 8.795.295-.01.3zm.004-.753l.01-.3 8.795.295-.01.3zm.004-.754l.01-.3 8.794.296-.01.3zm.106-.848l.01-.3 8.795.295-.01.3zm.004-.752l.01-.3 8.795.294-.01.3zm.004-.755l.01-.3 8.795.295-.01.3zm.006-.853l.01-.3 8.796.295-.01.3zm.005-.752l.01-.3 8.794.295-.01.3zm.103-.75l.01-.3 8.794.295-.01.3zm.004-.753l.01-.3 8.794.295-.01.3zm.008-.854l.01-.3 8.794.296-.01.3zm.002-.753l.01-.3 8.795.296-.01.3zm.103-.748l.01-.3 8.795.295-.01.3zm.005-.754l.01-.3 8.794.296-.01.3zm.007-.853l.01-.3 8.795.295-.01.3zm8.763-.445l-8.7-.3c0-.1 0-.2.1-.3l8.6.3v.3zm-.2-.8l-8.2-.3.3-.3 7.7.3c0 .1.1.2.2.3z" fill="#2B2525"/><radialGradient id="h" cx="115.524" cy="142.079" r="7.147" gradientTransform="matrix(.9994 .03354 -.03354 .9994 16.559 7.92)" gradientUnits="userSpaceOnUse"><stop offset="0" stop-color="#605A5A"/><stop offset="1"/></radialGradient><path fill="url(#h)" d="M128.7 139l-.7 20.2c-.3 0-.5-.1-.7-.3l.7-19.7c.1-.1.4-.2.7-.2z"/><radialGradient id="i" cx="117.655" cy="142.147" r="7.152" gradientTransform="matrix(.9994 .03354 -.03354 .9994 16.559 7.92)" gradientUnits="userSpaceOnUse"><stop offset="0" stop-color="#605A5A"/><stop offset="1"/></radialGradient><path fill="url(#i)" d="M130.3 139.1l-.7 20.2-.8-.1.7-20.2"/><radialGradient id="j" cx="119.245" cy="142.147" r="7.152" gradientTransform="matrix(.9994 .03354 -.03354 .9994 16.559 7.92)" gradientUnits="userSpaceOnUse"><stop offset="0" stop-color="#605A5A"/><stop offset=".45" stop-color="#353232"/><stop offset="1"/></radialGradient><path fill="url(#j)" d="M131.8 139.1l-.6 20.2h-.8l.7-20.2"/><radialGradient id="k" cx="120.835" cy="142.35" r="7.152" gradientTransform="matrix(.9994 .03354 -.03354 .9994 16.559 7.92)" gradientUnits="userSpaceOnUse"><stop offset="0" stop-color="#605A5A"/><stop offset="1"/></radialGradient><path fill="url(#k)" d="M133.4 139.2l-.6 20.2-.8-.1.7-20.2"/><radialGradient id="l" cx="121.953" cy="142.282" r="7.149" gradientTransform="matrix(.9994 .03354 -.03354 .9994 16.559 7.92)" gradientUnits="userSpaceOnUse"><stop offset="0" stop-color="#605A5A"/><stop offset="1"/></radialGradient><path fill="url(#l)" d="M135 139.4l-.7 19.7c-.2.1-.5.2-.8.2l.7-20.2c.3.1.6.2.8.3z"/><path fill="#3F3E3E" d="M165.6 110.6l-8.9-.3c-.6 0-1.1-.6-1.1-1.2v-.7c0-.6.6-1.1 1.2-1.1l8.9.3c.6 0 1.1.6 1.1 1.2v.7c0 .6-.5 1.2-1.2 1.1z"/><linearGradient id="m" gradientUnits="userSpaceOnUse" x1="116.252" y1="102.436" x2="116.252" y2="108.873" gradientTransform="matrix(.9994 .03354 -.03354 .9994 16.559 7.92)"><stop offset="0" stop-color="#E88486"/><stop offset=".052" stop-color="#E77C7E"/><stop offset=".334" stop-color="#E45859"/><stop offset=".595" stop-color="#E23D3D"/><stop offset=".825" stop-color="#E02D2D"/><stop offset="1" stop-color="#E02727"/></linearGradient><path fill="url(#m)" d="M133 116.4c-.1.3-.3.5-.4.8-.7.9-.6-1.2-.6-1.5-.2-.8-1.1-1.1-1.8-1.3-1.6-.4-3.7-.4-5.1.6-1.6 1-.6 3.4.9 3.9 1.6.6 3.5.4 5.1 1.1.3.1.4.4.4.8l2.7-.2.3-2.1-1.5-2.1z"/><g opacity=".5"><linearGradient id="n" gradientUnits="userSpaceOnUse" x1="116.252" y1="102.436" x2="116.252" y2="108.873" gradientTransform="matrix(.9994 .03354 -.03354 .9994 16.559 7.92)"><stop offset="0" stop-color="#5E5E5E"/><stop offset=".32" stop-color="#888"/><stop offset=".63" stop-color="#C0C0C0"/><stop offset=".8" stop-color="#EEE"/><stop offset="1" stop-color="#9B9B9B"/></linearGradient><path fill="url(#n)" d="M133 116.4c-.1.3-.3.5-.4.8-.7.9-.6-1.2-.6-1.5-.2-.8-1.1-1.1-1.8-1.3-1.6-.4-3.7-.4-5.1.6-1.6 1-.6 3.4.9 3.9 1.6.6 3.5.4 5.1 1.1.3.1.4.4.4.8l2.7-.2.3-2.1-1.5-2.1z"/></g><linearGradient id="o" gradientUnits="userSpaceOnUse" x1="115.07" y1="102.436" x2="115.07" y2="105.194" gradientTransform="matrix(.9994 .03354 -.03354 .9994 16.559 7.92)"><stop offset="0" stop-color="#E78383"/><stop offset=".431" stop-color="#E78585" stop-opacity=".828"/><stop offset=".586" stop-color="#E98C8C" stop-opacity=".766"/><stop offset=".697" stop-color="#EB9797" stop-opacity=".721"/><stop offset=".786" stop-color="#EEA8A8" stop-opacity=".686"/><stop offset=".863" stop-color="#F2BEBE" stop-opacity=".655"/><stop offset=".93" stop-color="#F8DADA" stop-opacity=".628"/><stop offset=".99" stop-color="#FEF9F9" stop-opacity=".604"/><stop offset="1" stop-color="#FFF" stop-opacity=".6"/></linearGradient><path fill="url(#o)" d="M124.1 116.5s-.5-2.5 4.5-2.3c3.2.2 3.3 1.5 3.3 1.5l.1 1.1c-2.6.3-5.3.2-7.9-.3z"/><linearGradient id="p" gradientUnits="userSpaceOnUse" x1="178.87" y1="102.436" x2="178.87" y2="108.873" gradientTransform="matrix(.9994 .03354 -.03354 .9994 16.559 7.92)"><stop offset="0" stop-color="#E88486"/><stop offset=".052" stop-color="#E77C7E"/><stop offset=".334" stop-color="#E45859"/><stop offset=".595" stop-color="#E23D3D"/><stop offset=".825" stop-color="#E02D2D"/><stop offset="1" stop-color="#E02727"/></linearGradient><path fill="url(#p)" d="M186.7 120.1l.1 2.1 2.7.4c0-.3.1-.6.4-.7 1.7-.6 3.5-.3 5.2-.8 1.5-.4 2.7-2.7 1.2-3.8-1.3-1-3.5-1.2-5.1-.9-.7.1-1.6.4-1.9 1.2-.1.3-.1 2.4-.7 1.4-.1-.2-.3-.5-.4-.8l-1.5 1.9z"/><g opacity=".5"><linearGradient id="q" gradientUnits="userSpaceOnUse" x1="178.87" y1="102.436" x2="178.87" y2="108.873" gradientTransform="matrix(.9994 .03354 -.03354 .9994 16.559 7.92)"><stop offset="0" stop-color="#5E5E5E"/><stop offset=".32" stop-color="#888"/><stop offset=".63" stop-color="#C0C0C0"/><stop offset=".8" stop-color="#EEE"/><stop offset="1" stop-color="#9B9B9B"/></linearGradient><path fill="url(#q)" d="M186.7 120.1l.1 2.1 2.7.4c0-.3.1-.6.4-.7 1.7-.6 3.5-.3 5.2-.8 1.5-.4 2.7-2.7 1.2-3.8-1.3-1-3.5-1.2-5.1-.9-.7.1-1.6.4-1.9 1.2-.1.3-.1 2.4-.7 1.4-.1-.2-.3-.5-.4-.8l-1.5 1.9z"/></g><linearGradient id="r" gradientUnits="userSpaceOnUse" x1="-773.135" y1="102.436" x2="-773.135" y2="105.194" gradientTransform="matrix(-.9994 -.03354 -.03354 .9994 -576.191 -11.969)"><stop offset="0" stop-color="#E78383"/><stop offset=".431" stop-color="#E78585" stop-opacity=".828"/><stop offset=".586" stop-color="#E98C8C" stop-opacity=".766"/><stop offset=".697" stop-color="#EB9797" stop-opacity=".721"/><stop offset=".786" stop-color="#EEA8A8" stop-opacity=".686"/><stop offset=".863" stop-color="#F2BEBE" stop-opacity=".655"/><stop offset=".93" stop-color="#F8DADA" stop-opacity=".628"/><stop offset=".99" stop-color="#FEF9F9" stop-opacity=".604"/><stop offset="1" stop-color="#FFF" stop-opacity=".6"/></linearGradient><path fill="url(#r)" d="M196.9 118.9s.7-2.5-4.3-2.6c-3.2 0-3.3 1.3-3.3 1.3l-.2 1.1c2.5.4 5.2.5 7.8.2z"/><path fill="#B8ABA3" d="M183 118.6l-44.1-1.5c-.9 0-1.7.7-2 1.6-.6 1.8-2.1 3.3-3.3 4.9-.6.7-.1 1.9.9 2.5 16.2 8.6 35.5 9.2 52.3 1.8 1.1-.5 1.6-1.6 1.1-2.4-1.1-1.7-2.4-3.3-2.9-5.1-.4-1-1.1-1.8-2-1.8z"/><path fill="#615957" d="M153.3 119.7l-10.2-.3c-1.9-.1-3.5 1.5-3.6 3.4v1.3c-.1 1.9 1.5 3.5 3.4 3.6l10.2.3c1.9.1 3.5-1.5 3.6-3.4v-1.3c.1-1.9-1.4-3.6-3.4-3.6z"/><path d="M144.336 116.88l.9.03-.084 2.5-.9-.03zm7.101.2l.9.032-.084 2.498-.9-.03z" fill="#DAD1CA"/><path fill="#615957" d="M151.3 111.9l-5.6-.2c-1.7-.1-3.1 1.3-3.2 2.9-.1 1.7 1.3 3.1 2.9 3.2l5.6.2c1.7.1 3.1-1.3 3.2-2.9.1-1.7-1.2-3.1-2.9-3.2zm27.2 8.6l-10.2-.3c-1.9-.1-3.5 1.5-3.6 3.4v1.3c-.1 1.9 1.5 3.5 3.4 3.6l10.2.3c1.9.1 3.5-1.5 3.6-3.4v-1.3c.1-1.9-1.4-3.5-3.4-3.6z"/><path d="M169.537 117.68l.9.03-.085 2.5-.9-.03zm7.097.3l.9.03-.084 2.5-.9-.03z" fill="#DAD1CA"/><path fill="#615957" d="M176.5 112.8l-5.6-.2c-1.7-.1-3.1 1.3-3.2 2.9-.1 1.7 1.3 3.1 2.9 3.2l5.6.2c1.7.1 3.1-1.3 3.2-2.9.1-1.7-1.2-3.2-2.9-3.2z"/><path fill="#2D2D2D" d="M172.5 122.2c2.1-.5 4.2.3 5.5 1.8.3 0 .6 0 .9.1-1.1-2.3-3.8-3.7-6.4-3-1.8.4-3.2 1.7-3.9 3.2.3 0 .5-.1.8-.1.8-1 1.9-1.7 3.1-2z"/><path fill="#201A1A" d="M188.6 152.7c.2 1.1-.4 2.2-1.4 2.4-18.8 2.9-38.1 2.3-56.6-1.9-1-.2-1.6-1.3-1.3-2.5.3-1.1 1.4-1.8 2.4-1.6 17.9 4 36.6 4.7 54.7 1.8 1-.1 2 .7 2.2 1.8z"/><path opacity=".21" fill="#E1F6F9" d="M186.4 123.3c-.6.1-1.2.1-1.8.1-.5 0-1 .1-1.4.1-.4 0-.9.1-1.3.1-3.3.2-6.6.3-9.8.3-4.2 0-8.5 0-12.7-.2-1 0-1.9-.1-2.9-.1l-1.7-.1c-5.6-.3-11.1-.8-16.6-1.4-.5-.1-.9-.1-1.4-.2-.6-.1-1.2-.1-1.8-.2.2 0 .5-3.1.5-3.4.4-2.4.9-4.7 1.9-6.8 2-4.4 5.4-5.9 9.1-5.7 8.9.4 17.9.8 26.8 1.3 1.5.1 3 .1 4.5.2.4 0 .8 0 1.2.1 1.2.3 2.2 1.2 3 2.4.2.2.3.4.4.6.5.8 1 1.8 1.4 2.7.1.2.2.4.3.7.6 1.5 1.1 3.1 1.4 4.8.3 1.5.6 3.1.9 4.7z"/><linearGradient id="s" gradientUnits="userSpaceOnUse" x1="147.646" y1="89.502" x2="147.646" y2="141.572" gradientTransform="matrix(.9994 .03354 -.03354 .9994 16.559 7.92)"><stop offset="0" stop-color="#E4554F"/><stop offset="1" stop-color="#AD2A27"/></linearGradient><path fill="url(#s)" d="M193.1 130.7c-.6-2.3-2.2-4.2-3.1-6.4-.5-1.2-.6-2.5-.8-3.8-.6-3.9-2.5-7.5-4.5-10.8-1.1-1.9-2.3-4-4.3-5.1-2.1-1.2-4.7-1.3-7-1.5-5.2-.5-10.5-.7-15.8-.9-2.7-.1-5.4-.1-8.1-.2-2.3 0-4.9-.2-7.1.6-2.1.8-3.5 2.4-4.8 4.2-1.4 2.1-2.5 4.3-3.5 6.6-.6 1.4-1.3 2.7-1.8 4.1-.3 1.1-.7 2.1-1 3.2-.5 1.5-.8 2.8-1.7 4.2-1.3 2-2.6 3.8-3.1 6.2-.8 4.7-.7 9.9.4 14.5.4 1.8 1 4.7 2.8 5.7 1.8 1 3.9.5 5.7 1.5 2.4 1.3 5.8.9 8.4 1 9.9.3 19.8.7 29.6 1 2.4.1 4.9.2 7.3.2 1.8 0 3.5-.7 5.3-.8 1.6-.1 3.5-.2 4.4-1.7 1.2-2 1.8-4.5 2.3-6.7.6-2.4.9-5 1-7.5.2-2.6 0-5.1-.6-7.6-.3-1.1 1.2 5.2 0 0zm-9.9-7.1c-12.6.7-25.3.4-37.8-.7-3.5-.3-7-.7-10.4-1.1.2 0 .5-2.9.5-3.3.3-2.5 1-5 2-7.2 1.8-3.8 5.2-5.6 9.3-5.5 5.8.3 11.6.5 17.4.8 2.9.1 5.8.3 8.7.4 1.4.1 2.8.1 4.2.2 1.3.1 2.4.1 3.5.9 2 1.7 3.1 4.5 3.9 6.9.9 2.7 1.4 5.5 1.9 8.3-1.1.1-2.2.2-3.2.3-.5 0 1-.1 0 0z"/><g opacity=".5"><linearGradient id="t" gradientUnits="userSpaceOnUse" x1="147.646" y1="89.502" x2="147.646" y2="141.572" gradientTransform="matrix(.9994 .03354 -.03354 .9994 16.559 7.92)"><stop offset="0" stop-color="#5E5E5E"/><stop offset=".32" stop-color="#888"/><stop offset=".63" stop-color="#C0C0C0"/><stop offset=".8" stop-color="#EEE"/><stop offset="1" stop-color="#9B9B9B"/></linearGradient><path fill="url(#t)" d="M193.1 130.7c-.6-2.3-2.2-4.2-3.1-6.4-.5-1.2-.6-2.5-.8-3.8-.6-3.9-2.5-7.5-4.5-10.8-1.1-1.9-2.3-4-4.3-5.1-2.1-1.2-4.7-1.3-7-1.5-5.2-.5-10.5-.7-15.8-.9-2.7-.1-5.4-.1-8.1-.2-2.3 0-4.9-.2-7.1.6-2.1.8-3.5 2.4-4.8 4.2-1.4 2.1-2.5 4.3-3.5 6.6-.6 1.4-1.3 2.7-1.8 4.1-.3 1.1-.7 2.1-1 3.2-.5 1.5-.8 2.8-1.7 4.2-1.3 2-2.6 3.8-3.1 6.2-.8 4.7-.7 9.9.4 14.5.4 1.8 1 4.7 2.8 5.7 1.8 1 3.9.5 5.7 1.5 2.4 1.3 5.8.9 8.4 1 9.9.3 19.8.7 29.6 1 2.4.1 4.9.2 7.3.2 1.8 0 3.5-.7 5.3-.8 1.6-.1 3.5-.2 4.4-1.7 1.2-2 1.8-4.5 2.3-6.7.6-2.4.9-5 1-7.5.2-2.6 0-5.1-.6-7.6-.3-1.1 1.2 5.2 0 0zm-9.9-7.1c-12.6.7-25.3.4-37.8-.7-3.5-.3-7-.7-10.4-1.1.2 0 .5-2.9.5-3.3.3-2.5 1-5 2-7.2 1.8-3.8 5.2-5.6 9.3-5.5 5.8.3 11.6.5 17.4.8 2.9.1 5.8.3 8.7.4 1.4.1 2.8.1 4.2.2 1.3.1 2.4.1 3.5.9 2 1.7 3.1 4.5 3.9 6.9.9 2.7 1.4 5.5 1.9 8.3-1.1.1-2.2.2-3.2.3-.5 0 1-.1 0 0z"/></g><path fill="#F7918F" d="M178.6 103.9c-.8 1.2-8.4 1.9-17.6 1.6-9.7-.3-17.6-1.7-17.5-3v-.2c1.1-.2 2.3-.3 3.5-.3h.4c4.6 0 9.1.1 13.7.3 4.4.1 8.9.4 13.3.9.7.1 1.3.1 2 .2.6.1 1.1.2 1.7.3.1.1.3.1.5.2z"/><path fill="#D34841" d="M175.3 103.6c-.5.9-6.8 1.5-14.6 1.2-8-.3-14.5-1.3-14.5-2.3 0-.1 0-.1.1-.2 4.6 0 9.1.2 13.7.3 4.4.1 8.9.3 13.3.8.7.1 1.3.2 2 .2z"/><path fill="#FCAAAC" d="M175.3 103.3c-.5.9-6.8 1.5-14.6 1.2-8-.3-14.5-1.3-14.5-2.3 0-.1 0-.1.1-.2 4.6 0 9.1.2 13.7.3 4.4.1 8.9.3 13.3.8.7 0 1.4.1 2 .2z"/><path fill="#B23936" d="M135.8 127.4l-5.1 6.6-.9 4.7c-.1.3-.5.5-.9.4l-2.6-1c-.1-1.2-.2-2.5-.2-3.7v-1.1 1c0-.5.1-1 .1-1.5.2-1.5.5-3.2 1.3-4.5.8-1.3 1.8-2.5 2.6-3.8 0-.1.1-.1.1-.2.1-.1.1-.2.2-.3.4-.5.5-1.1.7-1.7.1-.2.2-.3.2-.6v-.2l2.6.8 1.9 5.1z"/><linearGradient id="u" gradientUnits="userSpaceOnUse" x1="118.177" y1="109.008" x2="118.177" y2="126.93" gradientTransform="matrix(.9994 .03354 -.03354 .9994 16.559 7.92)"><stop offset="0" stop-color="#F07A7A"/><stop offset="1" stop-color="#F14738"/></linearGradient><path fill="url(#u)" d="M135.2 126.7l-4.7 6.8-.8 4.7c-.1.4-.5.6-.9.4l-2.3-1c-.1-1.2-.2-2.4-.2-3.6 0-.5.1-1.1.1-1.6.2-1.6.5-3.3 1.3-4.7.8-1.3 1.8-2.6 2.6-4 0-.1.1-.1.1-.2.3-.6.4-1.3.6-1.9 0-.2.1-.4.2-.7 0-.1 0-.1.1-.2l.3.1 2.1.7 1.5 5.2z"/><path opacity=".39" fill="#FFF" d="M128.9 125.9l1 2.7-1.9-1.3"/><path fill="#B23936" d="M184.6 129.1l4.6 6.9.6 4.7c0 .3.5.6.9.4l2.6-.8c.2-1.2.4-2.4.5-3.7 0-.4 0-.8.1-1.1 0 .3 0 .7-.1 1V135c-.1-1.5-.3-3.2-1-4.6-.7-1.3-1.6-2.6-2.3-4 0-.1-.1-.1-.1-.2-.1-.1-.1-.2-.2-.3-.3-.5-.4-1.2-.6-1.7 0-.2-.1-.4-.2-.6v-.2l-2.7.6-2.1 5.1z"/><linearGradient id="v" gradientUnits="userSpaceOnUse" x1="-746.135" y1="109.008" x2="-746.135" y2="126.93" gradientTransform="matrix(-.9994 -.03354 -.03354 .9994 -552.227 -11.165)"><stop offset="0" stop-color="#F07A7A"/><stop offset="1" stop-color="#F14738"/></linearGradient><path fill="url(#v)" d="M185.3 128.4l4.3 7.1.5 4.8c0 .4.5.6.9.5l2.4-.8c.2-1.2.4-2.4.4-3.6v-1.6c-.1-1.6-.3-3.4-1-4.8s-1.6-2.7-2.3-4.2c0-.1-.1-.1-.1-.2-.2-.6-.3-1.3-.4-1.9 0-.2-.1-.4-.2-.7v-.2l-.3.1-2.2.6-2 4.9z"/><path opacity=".39" fill="#FFF" d="M192.4 129.5l-1.9 1.2 1.1-2.7"/><path fill="#B23936" d="M142.2 139.5c-.1 0-.2-.1-.3-.1 0-.1-4.4-5.2-7.6-8.8-3.3-3.8-1.4-8.5-1.4-8.8.1-.2.2-.2.4-.2h.1c.1 0 .2.1.2.2 1.1.6 11.3 1.7 26.4 2.2 17.2.6 26.9-.1 27.8-.8 0-.2.2-.3.3-.3h.1c.2 0 .3.1.4.3.1.3 1.3 5.5-2.2 9.1-3.4 3.4-8.1 8.2-8.2 8.3-.1.1-.2.1-.3.1-11.8.6-23.8.2-35.7-1.2z"/><linearGradient id="w" gradientUnits="userSpaceOnUse" x1="147.955" y1="109.211" x2="147.955" y2="127.265" gradientTransform="matrix(.9994 .03354 -.03354 .9994 16.559 7.92)"><stop offset="0" stop-color="#E44E46"/><stop offset=".262" stop-color="#D84139"/><stop offset=".626" stop-color="#CD352E"/><stop offset="1" stop-color="#C9312A"/></linearGradient><path fill="url(#w)" d="M186.2 131.7c-1.1 1.1-2.3 2.3-3.4 3.5-2.5 2.5-4.7 4.8-4.7 4.8-12 .6-23.9.2-35.8-1.2 0 0-2.1-2.4-4.4-5.1-1.1-1.2-2.2-2.6-3.2-3.7-3.2-3.7-1.3-8.3-1.3-8.4-.1.3 1.9.7 5.1 1.1 10.4 1.2 34 2.1 44.6 1.4 3.3-.2 5.3-.5 5.3-1-.1-.1 1.2 5.1-2.2 8.6z"/><radialGradient id="x" cx="147.955" cy="121.028" r="20.741" gradientTransform="matrix(.9994 .03354 -.03354 .9994 16.559 7.92)" gradientUnits="userSpaceOnUse"><stop offset="0" stop-color="#FC720B"/><stop offset=".149" stop-color="#F67719"/><stop offset=".428" stop-color="#EC7E2C"/><stop offset=".711" stop-color="#E78338"/><stop offset="1" stop-color="#E5843C"/></radialGradient><path opacity=".11" fill="url(#x)" d="M186.2 131.7c-1.1 1.1-2.3 2.3-3.4 3.5-2.5 2.5-4.7 4.8-4.7 4.8-12 .6-23.9.2-35.8-1.2 0 0-2.1-2.4-4.4-5.1-1.1-1.2-2.2-2.6-3.2-3.7-3.2-3.7-1.3-8.3-1.3-8.4-.1.3 1.9.7 5.1 1.1 10.4 1.2 34 2.1 44.6 1.4 3.3-.2 5.3-.5 5.3-1-.1-.1 1.2 5.1-2.2 8.6z"/><path fill="#FFF" d="M186.2 131.3c-3.4 3.4-8.2 8.3-8.2 8.3-12 .5-23.9.1-35.8-1.2 0 0-4.4-5.2-7.6-8.8-1.5-1.7-1.9-3.6-1.9-5.2-.1 1.6.2 3.7 1.8 5.6 3.2 3.6 7.6 8.8 7.6 8.8 11.9 1.4 23.9 1.8 35.8 1.2 0 0 4.7-4.9 8.2-8.3 1.9-1.9 2.3-4.2 2.4-6 0 1.7-.5 3.8-2.3 5.6z" opacity=".22"/><path fill="none" d="M131.2 121v-.2l1.3-4m57 6.2l-.1-.5-.5-3.5-.1-.6"/><path opacity=".2" fill="#FFF" d="M183 123.9c-.7 3.4-10.5 5.8-22.5 5.4-11.9-.4-21.5-3.4-22.1-6.7 10.5.8 34.1 1.7 44.6 1.3z"/><path fill="#020202" d="M185.3 139.5c-16.7 2.9-33.9 2.3-50.3-1.7-1.2-.3-1.9-1.4-1.6-2.4.2-.9.5-1.7.7-2.6.3-1 1.5-1.6 2.6-1.4 15.5 3.7 31.6 4.3 47.3 1.6 1.1-.2 2.2.5 2.5 1.5.2.9.4 1.7.6 2.6.2 1.2-.6 2.2-1.8 2.4z"/><path fill="#FFF" d="M186.5 139.8c-16.7 3.6-34.4 3-50.9-1.7-1.2-.3-1.9-1.5-1.5-2.5.3-.8.6-1.7.9-2.5.4-1 1.5-1.6 2.6-1.2 15.3 4.4 31.7 4.9 47.3 1.6 1.1-.2 2.3.4 2.5 1.4.2.9.5 1.7.7 2.6.4 1-.4 2-1.6 2.3z" opacity=".39"/><radialGradient id="y" cx="69.334" cy="29.959" r="10.852" gradientTransform="matrix(1.3991 .04695 -.0168 .5006 63.895 117.293)" gradientUnits="userSpaceOnUse"><stop offset="0" stop-color="#6B6B6B"/><stop offset=".444" stop-color="#696969"/><stop offset=".604" stop-color="#626262"/><stop offset=".717" stop-color="#575757"/><stop offset=".809" stop-color="#464646"/><stop offset=".888" stop-color="#303030"/><stop offset=".957" stop-color="#151515"/><stop offset="1"/></radialGradient><path fill="url(#y)" d="M181.8 136.1c-14.3.7-28.6.2-42.8-1.4 0-.2 0-.4.1-.6 14.2 1.7 28.4 2.1 42.7 1.4v.6z"/><radialGradient id="z" cx="69.334" cy="31.609" r="10.852" gradientTransform="matrix(1.3991 .04695 -.0168 .5006 63.895 117.293)" gradientUnits="userSpaceOnUse"><stop offset="0" stop-color="#6B6B6B"/><stop offset=".444" stop-color="#696969"/><stop offset=".604" stop-color="#626262"/><stop offset=".717" stop-color="#575757"/><stop offset=".809" stop-color="#464646"/><stop offset=".888" stop-color="#303030"/><stop offset=".957" stop-color="#151515"/><stop offset="1"/></radialGradient><path fill="url(#z)" d="M181.8 136.9c-14.3.7-28.6.2-42.8-1.4 0-.2 0-.4.1-.6 14.2 1.7 28.4 2.1 42.7 1.4-.1.2-.1.4 0 .6z"/><radialGradient id="A" cx="69.334" cy="33.258" r="10.852" gradientTransform="matrix(1.3991 .04695 -.0168 .5006 63.895 117.293)" gradientUnits="userSpaceOnUse"><stop offset="0" stop-color="#6B6B6B"/><stop offset=".444" stop-color="#696969"/><stop offset=".604" stop-color="#626262"/><stop offset=".717" stop-color="#575757"/><stop offset=".809" stop-color="#464646"/><stop offset=".888" stop-color="#303030"/><stop offset=".957" stop-color="#151515"/><stop offset="1"/></radialGradient><path fill="url(#A)" d="M181.7 137.7c-14.3.7-28.6.2-42.8-1.4 0-.2 0-.4.1-.6 14.2 1.7 28.4 2.1 42.7 1.4v.6z"/><radialGradient id="B" cx="69.334" cy="34.907" r="10.852" gradientTransform="matrix(1.3991 .04695 -.0168 .5006 63.895 117.293)" gradientUnits="userSpaceOnUse"><stop offset="0" stop-color="#6B6B6B"/><stop offset=".444" stop-color="#696969"/><stop offset=".604" stop-color="#626262"/><stop offset=".717" stop-color="#575757"/><stop offset=".809" stop-color="#464646"/><stop offset=".888" stop-color="#303030"/><stop offset=".957" stop-color="#151515"/><stop offset="1"/></radialGradient><path fill="url(#B)" d="M181.7 138.6c-14.3.7-28.6.2-42.8-1.4 0-.2 0-.4.1-.6 14.2 1.7 28.4 2.1 42.7 1.4v.6z"/><radialGradient id="C" cx="69.334" cy="36.557" r="10.852" gradientTransform="matrix(1.3991 .04695 -.0168 .5006 63.895 117.293)" gradientUnits="userSpaceOnUse"><stop offset="0" stop-color="#6B6B6B"/><stop offset=".444" stop-color="#696969"/><stop offset=".604" stop-color="#626262"/><stop offset=".717" stop-color="#575757"/><stop offset=".809" stop-color="#464646"/><stop offset=".888" stop-color="#303030"/><stop offset=".957" stop-color="#151515"/><stop offset="1"/></radialGradient><path fill="url(#C)" d="M181.7 139.4c-14.3.7-28.6.2-42.8-1.4 0-.2 0-.4.1-.6 14.2 1.7 28.4 2.1 42.7 1.4v.6z"/><radialGradient id="D" cx="69.334" cy="38.206" r="10.852" gradientTransform="matrix(1.3991 .04695 -.0168 .5006 63.895 117.293)" gradientUnits="userSpaceOnUse"><stop offset="0" stop-color="#6B6B6B"/><stop offset=".444" stop-color="#696969"/><stop offset=".604" stop-color="#626262"/><stop offset=".717" stop-color="#575757"/><stop offset=".809" stop-color="#464646"/><stop offset=".888" stop-color="#303030"/><stop offset=".957" stop-color="#151515"/><stop offset="1"/></radialGradient><path fill="url(#D)" d="M181.6 140.2c-14.3.7-28.6.2-42.8-1.4 0-.2 0-.4.1-.6 14.2 1.7 28.4 2.1 42.7 1.4v.6z"/><linearGradient id="E" gradientUnits="userSpaceOnUse" x1="116.439" y1="121.627" x2="131.549" y2="121.627" gradientTransform="matrix(.9994 .03354 -.03354 .9994 16.559 7.92)"><stop offset="0" stop-color="#BDBCB7"/><stop offset=".039" stop-color="#C9C8C4"/><stop offset=".123" stop-color="#DDDCDA"/><stop offset=".223" stop-color="#ECECEB"/><stop offset=".346" stop-color="#F7F7F6"/><stop offset=".52" stop-color="#FDFDFD"/><stop offset="1" stop-color="#FFF"/></linearGradient><path fill="url(#E)" d="M143.7 137.9c-.2.4-.6 1.2-1.3 1.5-.1 0-.2.1-.3.1-.2 0-.4.1-.6 0-.2 0-.5-.1-.8-.1-.1 0-.2 0-.3-.1-.4-.1-.9-.2-1.4-.3-.1 0-.2-.1-.3-.1-.4-.1-.9-.2-1.4-.3-.1 0-.2-.1-.3-.1-.5-.1-.9-.2-1.4-.4-.1 0-.2-.1-.3-.1-.5-.1-1-.3-1.4-.4-.1 0-.2-.1-.3-.1-.5-.1-.8-.3-1-.3-.1 0-.2-.1-.4-.1-.1 0-.2-.1-.3-.2-.4-.2-.9-.5-1.4-.8-.1-.1-.2-.2-.3-.2-.6-.5-1.1-1.1-1.2-1.7-.1-1.5.6-3.5.6-3.5s.3-.8.8-1.4c.1-.2.2-.3.4-.5.2-.3.5-.5.8-.6.3-.1.4-.2.6-.2.1 0 .2-.1.4-.1.4-.1.7-.1 1.4.1h.1c.1 0 .1.1.2.1.3.1.8.4 1.4.7.1.1.2.1.3.2.4.2.9.5 1.4.8.1.1.2.1.3.2.4.3.9.6 1.4.8.1.1.2.1.3.2.5.3.9.6 1.4.9.1.1.2.2.3.2.6.4 1 .7 1.4 1l.1.1c.1.1.2.1.2.2 1.1 1.1 1.3 2.5 1.3 2.5s-.2 1.4-.4 2z"/><linearGradient id="F" gradientUnits="userSpaceOnUse" x1="117.002" y1="121.627" x2="130.986" y2="121.627" gradientTransform="matrix(.9994 .03354 -.03354 .9994 16.559 7.92)"><stop offset="0" stop-color="#B9B0A9"/><stop offset="1" stop-color="#7D7573"/></linearGradient><path fill="url(#F)" d="M141.6 139s-.1 0 0 0c-.8-.1-3.2-.6-4.5-2.2-1.1-1.3-1.8.9-4.5-.1-1.5-.6-3.1-1.6-3.2-2.5-.1-1.3.6-3.2.6-3.2.3-.8 1-2 1.6-2.2.2-.1.4-.2.6-.2.3-.1.5-.2.7-.2.2 0 .5.1.8.2 1.1.4 6.9 4 8.3 5.1 1.1.9 1.3 2.3 1.3 2.4 0 .5 0 1.4-.1 1.7-.3.5-.8 1.2-1.6 1.2z"/><path fill="#FFF" d="M140.8 132.7h-1.3s-.5 2.2-.3 2.6c.2.4 4.3 1.7 4.3 1.7l-.4-2.9-2.3-1.4z"/><linearGradient id="G" gradientUnits="userSpaceOnUse" x1="121.35" y1="117.196" x2="121.35" y2="124.767" gradientTransform="matrix(.9994 .03354 -.03354 .9994 16.559 7.92)"><stop offset="0" stop-color="#B9B0A9"/><stop offset="1" stop-color="#F8F7F5"/></linearGradient><path fill="url(#G)" d="M137.6 133c-.1 1.5-1.1 2.9-2.5 3.4-1.5.5-3.2.1-4.2-1.2-1-1.2-1.1-2.9-.3-4.3.9-1.4 2.6-2.2 4.2-1.8 1.6.6 2.8 2.2 2.8 3.9z"/><path opacity=".8" fill="#FFFEFD" d="M133.9 129.8c2 .1 3.5 1.6 3.7 3.6v-.3c.1-2.1-1.6-3.8-3.7-3.9-2.1-.1-3.8 1.6-3.9 3.7v.3c.2-2 1.9-3.5 3.9-3.4z"/><path opacity=".38" fill="#FFF" d="M133.7 136.7c-.3 0-.5 0-.7-.1-.1 0-.2-.1-.3-.1-.5-.2-1-.5-1.4-.8l-.3-.3c-.6-.7-.9-1.6-.9-2.6 0-.7.3-1.4.6-1.9 1 .9 2 2.3 2.6 3.9.1.6.3 1.3.4 1.9z"/><linearGradient id="H" gradientUnits="userSpaceOnUse" x1="127.954" y1="121.627" x2="127.954" y2="126.297" gradientTransform="matrix(.9994 .03354 -.03354 .9994 16.559 7.92)"><stop offset="0" stop-color="#B9B0A9"/><stop offset="1" stop-color="#F8F7F5"/></linearGradient><path fill="url(#H)" d="M142.6 136.2c0 .9-.7 1.8-1.5 2.1-.9.3-2 0-2.6-.7-.6-.7-.7-1.8-.2-2.6.5-.9 1.6-1.3 2.6-1.1 1 .2 1.8 1.2 1.7 2.3z"/><path opacity=".8" fill="#FFFEFD" d="M140.3 134.2c1.2 0 2.2 1 2.3 2.2v-.2c0-1.3-1-2.4-2.3-2.4s-2.4 1-2.4 2.3v.2c.2-1.3 1.2-2.2 2.4-2.1z"/><path opacity=".38" fill="#FFF" d="M140.2 138.4c-.2 0-.3 0-.5-.1-.1 0-.1 0-.2-.1-.3-.1-.6-.3-.9-.5l-.2-.2c-.4-.4-.6-1-.6-1.6 0-.4.2-.9.4-1.2.6.5 1.2 1.4 1.6 2.4.3.6.4 1 .4 1.3z"/><path fill="#FFF" d="M129.8 132.1s0-.4.2-.9l.3-.9c.1-.2.2-.3.3-.5.1-.2.2-.3.3-.5.1-.2.3-.3.4-.5.1-.1.2-.1.2-.2.1-.1.2-.1.3-.2.1 0 .2-.1.3-.1.1 0 .2-.1.3-.1h.4c.2 0 .3.1.4.1.1 0 .2.1.3.1l.2.1v.1H132.3c-.1 0-.3.1-.4.2-.1.1-.3.2-.4.2-.1.1-.3.2-.4.3-.5.5-.9 1.2-1.1 1.7 0 .7-.1 1.1-.2 1.1z"/><path fill="#B5AEA8" d="M129.5 133l.3-.9 9.4 7"/><path d="M130.6 128.8l-.2 7.4c-.1-.1-.2-.2-.3-.2l.2-6.7c.1-.2.2-.4.3-.5zm1.8-.9l-.3 9.2c-.1 0-.2-.1-.3-.2l.3-8.9c.1-.1.2-.1.3-.1zm1.7.2l-.3 9.5c-.1 0-.2-.1-.3-.1l.3-9.6h.1c.1.1.1.2.2.2zm1.7.9l-.3 9.1c-.1 0-.2-.1-.3-.1l.3-9.2c.1.1.2.1.3.2zm1.7 1l-.3 8.6c-.1 0-.2-.1-.3-.1l.3-8.7c.1.1.2.1.3.2zm1.7 1l-.3 8c-.1 0-.2-.1-.3-.1l.3-8.1c.1.1.2.2.3.2zm1.7 1.1l-.2 7.3c-.1 0-.2 0-.3-.1l.2-7.4c.1.1.2.2.3.2zm1.7 1.3l-.2 6c-.1 0-.2.1-.3.1l.2-6.4.1.1c0 .1.1.1.2.2z" opacity=".79" fill="#E5E0DA"/><g><linearGradient id="I" gradientUnits="userSpaceOnUse" x1="-689.847" y1="121.627" x2="-674.737" y2="121.627" gradientTransform="matrix(-.9994 -.03354 -.03354 .9994 -493.692 -9.2)"><stop offset="0" stop-color="#BDBCB7"/><stop offset=".039" stop-color="#C9C8C4"/><stop offset=".123" stop-color="#DDDCDA"/><stop offset=".223" stop-color="#ECECEB"/><stop offset=".346" stop-color="#F7F7F6"/><stop offset=".52" stop-color="#FDFDFD"/><stop offset="1" stop-color="#FFF"/></linearGradient><path fill="url(#I)" d="M176.6 139c.2.4.5 1.2 1.2 1.6.1.1.2.1.3.1.2.1.4.1.6.1.2 0 .5 0 .8-.1h.3c.4-.1.9-.1 1.4-.2.1 0 .2 0 .3-.1.4-.1.9-.2 1.4-.3.1 0 .2 0 .3-.1.5-.1.9-.2 1.4-.3.1 0 .2 0 .4-.1.5-.1 1-.2 1.4-.3.1 0 .2-.1.3-.1.5-.1.8-.2 1-.3.1 0 .2-.1.4-.1.1 0 .2-.1.4-.1.4-.2.9-.4 1.4-.7.1-.1.2-.1.4-.2.7-.4 1.2-1 1.3-1.6.2-1.5-.4-3.5-.4-3.5s-.3-.8-.7-1.5c-.1-.2-.2-.3-.3-.5-.2-.3-.5-.5-.7-.6l-.6-.3c-.1-.1-.2-.1-.3-.1-.4-.1-.7-.2-1.4 0h-.1c-.1 0-.1 0-.2.1-.3.1-.8.3-1.4.6-.1.1-.2.1-.4.2-.4.2-.9.4-1.4.7-.1.1-.2.1-.4.2-.5.2-.9.5-1.4.7-.1.1-.2.1-.4.2-.5.3-1 .5-1.4.8-.1.1-.2.1-.4.2-.6.3-1.1.7-1.4.9 0 0-.1 0-.1.1-.1.1-.2.1-.3.2-1.2 1-1.4 2.5-1.4 2.5s-.1 1.3.1 1.9z"/><linearGradient id="J" gradientUnits="userSpaceOnUse" x1="-689.284" y1="121.627" x2="-675.3" y2="121.627" gradientTransform="matrix(-.9994 -.03354 -.03354 .9994 -493.692 -9.2)"><stop offset="0" stop-color="#B9B0A9"/><stop offset="1" stop-color="#7D7573"/></linearGradient><path fill="url(#J)" d="M178.6 140.2s.1 0 0 0c.8 0 3.2-.4 4.6-1.8 1.2-1.2 1.7 1.1 4.5.2 1.6-.5 3.2-1.4 3.4-2.3.2-1.3-.4-3.2-.4-3.3-.3-.8-.9-2-1.4-2.3l-.6-.3c-.3-.1-.5-.2-.7-.2-.2 0-.5 0-.8.1-1.2.3-7.2 3.5-8.6 4.5-1.1.8-1.4 2.2-1.5 2.3-.1.5-.1 1.4 0 1.7.3.6.7 1.4 1.5 1.4z"/><path fill="#FFF" d="M179.8 134h1.3s.3 2.2.1 2.6c-.3.4-4.4 1.5-4.4 1.5l.6-2.9 2.4-1.2z"/><linearGradient id="K" gradientUnits="userSpaceOnUse" x1="-684.936" y1="117.196" x2="-684.936" y2="124.767" gradientTransform="matrix(-.9994 -.03354 -.03354 .9994 -493.692 -9.2)"><stop offset="0" stop-color="#B9B0A9"/><stop offset="1" stop-color="#F8F7F5"/></linearGradient><path fill="url(#K)" d="M183 134.6c-.1 1.5.9 3 2.3 3.6 1.5.6 3.2.3 4.3-.9 1-1.1 1.3-2.9.6-4.3-.8-1.5-2.4-2.3-4.1-2-1.7.3-3 1.8-3.1 3.6z"/><path opacity=".8" fill="#FFFEFD" d="M186.9 131.6c-2-.1-3.6 1.4-3.9 3.3v-.3c.1-2.1 1.8-3.7 3.9-3.7 2.1.1 3.7 1.8 3.7 3.9v.3c-.1-1.9-1.7-3.5-3.7-3.5z"/><path opacity=".38" fill="#FFF" d="M186.6 138.5h.7c.1 0 .2 0 .3-.1.5-.1 1-.4 1.5-.7l.3-.3c.6-.7 1-1.5 1.1-2.5 0-.7-.2-1.4-.5-2-1.1.8-2.1 2.1-2.8 3.8-.2.5-.4 1.2-.6 1.8z"/><linearGradient id="L" gradientUnits="userSpaceOnUse" x1="-678.332" y1="121.627" x2="-678.332" y2="126.297" gradientTransform="matrix(-.9994 -.03354 -.03354 .9994 -493.692 -9.2)"><stop offset="0" stop-color="#B9B0A9"/><stop offset="1" stop-color="#F8F7F5"/></linearGradient><path fill="url(#L)" d="M177.8 137.4c0 .9.5 1.8 1.4 2.2.9.4 2 .2 2.7-.6.6-.7.8-1.8.4-2.6-.5-.9-1.5-1.4-2.5-1.3-1.2.2-2 1.2-2 2.3z"/><path opacity=".8" fill="#FFFEFD" d="M180.2 135.5c-1.2 0-2.3.9-2.4 2.1v-.2c0-1.3 1.1-2.3 2.4-2.3 1.3 0 2.3 1.1 2.3 2.4v.2c-.1-1.2-1.1-2.1-2.3-2.2z"/><path opacity=".38" fill="#FFF" d="M180 139.8h.7c.3-.1.6-.2.9-.5l.2-.2c.4-.4.6-.9.7-1.5 0-.4-.1-.9-.3-1.2-.7.5-1.3 1.3-1.7 2.3-.3.3-.4.7-.5 1.1z"/><path fill="#FFF" d="M190.8 134.1s0-.4-.2-1c-.1-.3-.2-.6-.3-1-.1-.2-.1-.3-.2-.5s-.2-.3-.3-.5c-.1-.2-.2-.3-.4-.5l-.2-.2c-.1-.1-.2-.1-.2-.2-.1 0-.2-.1-.3-.1-.1 0-.2-.1-.3-.1h-.4c-.2 0-.3 0-.4.1-.1 0-.2.1-.3.1l-.2.1v.1h.6c.1 0 .2 0 .4.1h.4c.1.1.3.1.4.2.1.1.3.2.4.3.1.1.3.2.4.4.5.6.8 1.3 1 1.8 0 .6.1.9.1.9z"/><path fill="#B5AEA8" d="M191.1 135l-.3-.8-9.8 6.3"/><path d="M190.2 130.8l-.2 7.4c.1-.1.2-.1.4-.2l.2-6.7c-.2-.2-.3-.4-.4-.5zm-1.7-1.1l-.3 9.2c.1 0 .2-.1.4-.1l.3-8.9c-.2-.1-.3-.1-.4-.2zm-1.7.2l-.3 9.5c.1 0 .2-.1.3-.1l.3-9.6h-.1c0 .1-.1.1-.2.2zm-1.8.8l-.3 9.1c.1 0 .2 0 .4-.1l.3-9.2c-.1 0-.2.1-.4.2zm-1.7.8l-.3 8.6c.1 0 .2 0 .3-.1l.3-8.7c-.1.1-.2.2-.3.2zm-1.8 1l-.3 8c.1 0 .2 0 .3-.1l.3-8.1c-.1 0-.2.1-.3.2zm-1.8 1l-.2 7.3h.3l.2-7.4c0-.1-.1 0-.3.1zm-1.7 1.1l-.2 6c.1.1.2.1.3.1l.2-6.4s-.1 0-.1.1l-.2.2z" opacity=".79" fill="#E5E0DA"/></g><path d="M160.8 124.2c-8.5-.2-20.9-1.2-25.9-2.1 0 .1 0 0 0 0-.2 0-.4-.2-.3-.4 0-.1 0-.1.1-.2.1-.3.2-1.2.4-2.8 0-.2 0-.4.1-.4.4-2.8 1.1-5.1 1.9-6.9 1.9-4.1 5.2-6.2 9.5-6l31.4 1.5h.3c.3 0 .6 0 .9.1 1.3.3 2.5 1.4 3.6 3.2 2.3 3.7 3.4 8.7 4.1 13.1 0 .1 0 .2-.1.3s-.2.1-.3.1c-1.5.1-2.9.2-4.6.3-6.9.4-13.9.4-21.1.2zm-25.4-2.8c16.1 2 31.7 2.6 46.4 1.9 1.5-.1 2.9-.2 4.2-.3-.7-4.2-1.8-8.9-3.9-12.4-1-1.6-2.1-2.6-3.1-2.9-.2-.1-.5-.1-.8-.1h-.4l-31.4-1.5c-4-.2-6.9 1.7-8.7 5.5-.8 1.8-1.5 4-1.9 6.7v.4c-.2 1.5-.3 2.3-.4 2.7z"/><g opacity=".35" fill="#FFF"><path d="M133.6 120.8c-.7.4-.9-.7-.8-1.1.1-.7.5-1.5.9-2.1.2.4-.3 1.7-.3 2.3-.1.3-.1.6.2.9zm53.7 1.8c.7.5.9-.7.9-1.1-.1-.8-.4-1.5-.7-2.2-.2.4.2 1.7.2 2.3-.1.5-.1.8-.4 1z"/></g><path opacity=".39" fill="#FFF" d="M149.5 133.7s11 .3 11.3.3c.3 0 10.4.5 10.4.5s-7.9.4-10.4.3c-2.4-.2-11.3-1.1-11.3-1.1z"/><linearGradient id="M" gradientUnits="userSpaceOnUse" x1="143.986" y1="125.195" x2="151.383" y2="125.195" gradientTransform="matrix(.9994 .03354 -.03354 .9994 16.559 7.92)"><stop offset="0" stop-color="#B9B0A9"/><stop offset="1" stop-color="#F8F7F5"/></linearGradient><path fill="url(#M)" d="M163.7 138.1c0 1.3-1.7 2.3-3.8 2.2-2-.1-3.7-1.2-3.6-2.5 0-1.3 1.7-2.3 3.8-2.2 2 .1 3.6 1.2 3.6 2.5z"/><g><path fill="#151717" d="M158.4 137.7l-.1.3h-.7l.1-.3h-.4l.2-.5 1.9.1-.6.5-.4-.1zm-.1.4v.1h-.7v-.1h.7zm-.1.3l-.1.3h-.7l.1-.3h.7zm.3.4c0-.1.1-.2.1-.3h.7c-.1.1-.1.2-.1.3h-.7zm.2-.6l.1-.1h.7l-.1.1h-.7zm.2-.2c.3-.4.7-.7 1-.8h.7l-.3.9c-.1 0-.3 0-.4-.1h-.1l.1-.4c-.1.1-.3.2-.4.4h-.6zm1.4.2v.1h-.5v-.1h.5zm-.1.4l-.1.2h-.5l.1-.3h.2c.1 0 .2.1.3.1zm1.5-.2l.2-.2V137.9h-.4l-.2.5c-.2 0-.4-.1-.7-.1l.3-1h1.3c.1 0 .2.1.2.2s.1.2.1.3v.4c0 .1-.1.2-.1.3 0 .1-.1.1-.1.2-.1-.2-.3-.3-.6-.3zm-1.2.4l.1-.2c.5.1.9.2 1.2.2h-1.3zm.1-.4v-.1c.7.1 1.3.3 1.7.4l-.1.1c-.3-.2-1-.3-1.6-.4z"/></g><path opacity=".2" fill="#FFF" d="M185.5 118.5l-13.5 5.4c-4.2 0-8.5 0-12.7-.2l24.7-10c.6 1.5 1.1 3.2 1.5 4.8zm-1.7-5.4l-27.4 10.5-1.7-.1 27.3-13.8c.2.2.3.4.4.6.5.9.9 1.8 1.4 2.8z"/><g><path fill="#221C1C" d="M188.8 148l-.2 5.8c-1.7.6-4.1 1.2-5.2 1.3-.4.1-1.1.2-1.7.3l-44.5-1.5c-.6-.2-1.3-.3-1.7-.4-1.2-.3-4.2-1.2-5.8-2l.2-5.5 58.9 2z"/><path fill="#686868" d="M179.9 153.2h-.1c-.5-.1-.8-.3-1-.6-.5-.9.4-2.6.5-2.6l.3.2c-.2.4-.8 1.7-.5 2.3.1.2.4.4.7.4 1.9.2 7.3-2.4 7.3-2.5l.2.3c-.2.1-5.3 2.6-7.4 2.5zm-40.9-1.4c-2.1-.1-7-2.9-7.2-3l.2-.3c.1 0 5.3 3 7.2 2.9.4 0 .6-.1.8-.4.4-.6-.1-1.9-.3-2.3l.3-.2c0 .1.8 1.8.3 2.7-.2.3-.6.5-1.1.5-.1.1-.1.1-.2.1zm36.3 1.3l-30.3-1c-1.2 0-2.1-.4-2.7-1.1-.8-.9-.5-2.1-.5-2.2l.4.1s-.2 1.1.4 1.9c.5.6 1.3.9 2.4.9l30.3 1c2.2.1 2.6-2.7 2.6-2.7l.4.1s-.5 3-3 3z"/></g><path fill="#A9A09B" d="M193.6 143.6c-.1-2.4-1.5-1.7-1.5-1.7s-.9.6-1.6 1.2c-.7.6-2.8 2.3-4.2 2.9-1.4.6-7.1.7-7.1.7l-.5 1.6s9.6.2 9.9.5c.3.4 0 1.7-1.4 3.4s-8.6 2.5-8.6 2.5l-18-.8h-2.2l-18-.5s-7.1-1.3-8.4-3.1c-1.3-1.7-1.4-3.1-1.1-3.5.3-.4 9.9.1 9.9.1l-.4-1.6s-5.6-.5-7-1.2c-1.4-.7-3.3-2.5-4-3.2-.7-.7-1.5-1.3-1.5-1.3s-1.3-.8-1.6 1.6c-.3 2.4 0 6.9.1 7.3.1.4 1.7 1.6 3.3 2.4 1.6.8 4.7 1.8 6 2.1 1.3.3 4.3 1.2 4.3 1.2l18.5.6 2.2.1 18.5.6s3.1-.7 4.4-.9c1.3-.2 4.5-1 6.2-1.7 1.6-.7 3.3-1.8 3.4-2.1 0-.3.6-4.9.4-7.2z"/><path fill="#635D5F" d="M193 151.3c-.1.4-1.8 1.5-3.4 2.1-.3.1-.6.2-1 .4-1.7.6-4.1 1.2-5.2 1.3-.4.1-1.1.2-1.7.3-1.3.3-2.7.6-2.7.6l-39.2-1.3-2.6-.8c-.6-.2-1.3-.3-1.7-.4-1.2-.3-4.2-1.2-5.8-2-.1 0-.1-.1-.2-.1-1.6-.8-3.1-2-3.3-2.4-.1-.4-.4-5-.1-7.3.3-2.4 1.6-1.6 1.6-1.6s.8.6 1.5 1.3c.7.7 2.6 2.5 4 3.2 1.4.7 7 1.2 7 1.2l.2.6.3 1s-9.6-.5-9.9-.1c-.3.4-.1 1.7 1.1 3.5 1.3 1.7 8.4 3.1 8.4 3.1l18 .5h2.2l18 .8s7.2-.9 8.6-2.5c1.4-1.7 1.6-3 1.4-3.4-.3-.4-9.9-.5-9.9-.5l.3-1 .2-.6s5.7-.1 7.1-.7c1.4-.6 3.5-2.2 4.2-2.9.7-.6 1.6-1.2 1.6-1.2s1.3-.7 1.5 1.7c.3 2.3-.3 6.8-.5 7.2z"/><g><path fill="#F79645" d="M129.1 145.7l-1.9-1.3c-.1-.1-.1-.2-.1-.3v-.9c0-.3.3-.4.5-.3l1.9 1.3c.1.1.1.2.1.3v.9c.1.3-.2.4-.5.3z"/><path opacity=".35" fill="#FFF" d="M128.8 145l-.6-.4c-.1-.1-.2-.2-.2-.3 0-.3.3-.5.6-.3l.6.4c.1.1.2.2.2.3 0 .3-.3.4-.6.3z"/></g><g><path fill="#F79645" d="M190.5 147.7l2-1.2c.1-.1.2-.2.2-.3v-.9c0-.3-.3-.4-.5-.3l-2 1.2c-.1.1-.2.2-.2.3v.9c0 .3.3.5.5.3z"/><path opacity=".35" fill="#FFF" d="M190.8 147l.6-.4c.1-.1.2-.2.2-.3 0-.3-.3-.5-.6-.3l-.6.4c-.1.1-.2.2-.2.3.1.3.4.5.6.3z"/></g><path fill="#F77575" d="M181 148.4c-13.6-.5-27.2-.9-40.7-1.4 0-.6 0-1.3.1-1.9 13.6-.1 27.2.3 40.7 1.4-.1.6-.1 1.2-.1 1.9z"/><path fill="#BE3B40" d="M181 148.7c-13.6-.5-27.2-.9-40.7-1.4 0-.6 0-1.3.1-1.9 13.6-.1 27.2.3 40.7 1.4-.1.7-.1 1.3-.1 1.9z"/><linearGradient id="N" gradientUnits="userSpaceOnUse" x1="147.684" y1="139.056" x2="147.684" y2="133.403" gradientTransform="matrix(.9994 .03354 -.03354 .9994 16.559 7.92)"><stop offset="0" stop-color="#7F7F7F"/><stop offset=".5" stop-opacity=".993"/><stop offset="1" stop-color="#877777" stop-opacity=".987"/></linearGradient><path fill="url(#N)" d="M171.3 152.2l-23.6-.7.2-5.7 23.6.8"/><path fill="#FFF" d="M170.89 147.207l-.148 4.398-22.387-.752.148-4.397z"/><g><path d="M158.3 147.6v.4l-1.2 2.2h-.7l1.2-2.1h-1.2v-.5h1.9zm2.3.1v.4l-1.2 2.2h-.7l1.2-2.1h-1.2v-.5h1.9zm2.3.1v.4l-1.2 2.2h-.7l1.2-2.1H161v-.5h1.9z"/></g><path opacity=".22" fill="#FFF" d="M126.3 145.5s.3.5.8 1.3c.3.4.6.8 1 1.2.4.4.8.9 1.2 1.3.2.2.4.4.7.6.2.2.5.3.7.5.1.1.2.2.3.2.1.1.2.2.3.2.1.1.2.2.3.2.1.1.2.1.3.2.1.1.2.1.3.2.1.1.2.1.2.2.1.1.1.1.2.1s.1.1.2.1c.2.1.4.3.4.3v.1h-.5c-.1 0-.3 0-.5-.1-.1 0-.2 0-.3-.1-.1 0-.2-.1-.3-.1-.2-.1-.5-.2-.7-.3-.1-.1-.3-.1-.4-.2-.1-.1-.2-.2-.4-.3-.2-.2-.5-.4-.7-.6-.2-.2-.4-.5-.6-.7-.2-.2-.4-.5-.6-.7-.2-.2-.3-.5-.5-.8-.2-.2-.3-.5-.4-.7-.1-.2-.2-.5-.3-.7-.2-.4-.4-.8-.4-1-.1-.3-.1-.4-.1-.4h-.2zm66.8 2.2s-.3.5-.9 1.2c-.3.3-.6.7-1 1.1-.4.4-.8.8-1.3 1.2-.2.2-.5.4-.7.5-.2.2-.5.3-.7.4-.1.1-.2.1-.3.2-.1.1-.2.1-.3.2-.1.1-.2.1-.3.2-.1.1-.2.1-.3.2-.1.1-.2.1-.3.2-.1.1-.2.1-.2.2-.1.1-.2.1-.2.1-.1 0-.1.1-.2.1l-.4.2v.1s.2 0 .4.1h.8c.1 0 .2 0 .3-.1.2-.1.5-.1.7-.3.1-.1.3-.1.4-.2.1-.1.3-.1.4-.2.2-.2.5-.4.7-.6l.7-.7c.2-.2.4-.5.6-.7.2-.2.4-.5.5-.7.2-.2.3-.5.5-.7.1-.2.3-.4.4-.6.2-.4.4-.7.5-1 .2-.2.3-.3.2-.4z"/><path fill="#B2B2B2" d="M161.1 124.1c-8.1-1.2-16.3-1.8-24.6-1.8v-.6c8.3-.1 16.5.5 24.6 1.8.1.2 0 .4 0 .6z"/><path fill="#B2B2B2" d="M160 124c8.2-.7 16.4-.7 24.6-.1v-.6c-8.2-.6-16.5-.6-24.7.1.1.2.1.4.1.6z"/><path fill="#4D4D4D" d="M115.1 160.8l112.4 5.1-112.1 6.2-112.9-7.9"/><path fill="#333" d="M2.5 164.2v-3.4l112.6-2.4v3.4"/><path fill="#666" d="M227.5 162.5v3.4l-112.4-4.1v-3.4"/><g><ellipse transform="rotate(51.296 32.576 151.139)" fill="#CDAF8B" cx="32.6" cy="151.1" rx="10.1" ry="2.4"/><path fill="#9B7B62" d="M32.4 138.6c21.9-14.7 41.8-31.3 61.2-49 4.9-3.9 8.5-7.1 8.5-7.1l12.6 15.8s-3.9 2.9-8.8 6.9c-21.1 15.6-41.8 31-61.1 48.9-5.4 4.6-8.5 7.1-8.5 7.1l-12.6-15.8s3.1-2.6 8.7-6.8z"/><path fill="#CDAF8B" d="M35.7 142.4c21.2-15.4 41.2-31.9 61-48.8 4.9-3.9 8.7-7.1 8.7-7.1l9.4 11.8s-3.9 2.9-8.8 6.9c-21.1 15.6-41.8 31-61.1 48.9-5.4 4.6-8.5 7.1-8.5 7.1L27 149.4c-.1-.1 3.1-2.6 8.7-7z"/><path fill="#9B7B62" d="M111.1 88.3c.6.8 1.2 1.6 1.7 2.3l-1.2 1.5 2.2-.1c1.6 2.9 2.1 5.4 1.1 6.2-1.5 1.1-5.4-1.4-8.8-5.7l-.1-.2c-1.1-1.4-2.1-2.9-2.8-4.2-1.5-2.8-2-5-1-5.8 1.4-.9 5.4 1.6 8.9 6z"/><path fill="#EDD2B5" d="M102 82.5s-3.6 3.1-8.5 7.1c-19.4 17.8-39.3 34.3-61.2 49-5.6 4.2-8.7 6.8-8.7 6.8l8.4 10.5s3-2.4 8.3-6.7c19.2-15.9 38.3-31.2 57.9-46.4 5.4-4.2 8.4-6.7 8.4-6.7-.7-.7-1.5-1.5-2.3-2.5-.3-.4-.6-.8-.9-1.3l-2.8.6 1.9-2c-2-3.4-1.8-7.2-.5-8.4z"/><path fill="#B59475" d="M108.9 90.1l-2.9 2.6-.1-.2c-1.1-1.4-2.1-2.9-2.8-4.2v-.1c.7-.5 3.8-.2 5.8 1.9z"/><path fill="#EDD2B5" d="M26.4 143.3l-2.2 1.7c-1.2.9-1.6 2.6-1 4 .5 1.1 1.1 2.5 2.1 4.1l3.2-1-2.4 2.4c.8 1.3 1.8 2.6 2.9 4l5.8-4.7-8.4-10.5z"/><path opacity=".15" d="M68.2 111.4l3.3 8.7 7.9 5.2-4.9 3.9-7.7-5.2-3.4-8.7"/><path fill="#B53737" d="M68.6 111.1l3.3 8.7 7.8 5.2-4.8 3.9-7.7-5.2-3.4-8.7"/><path fill="#B53737" d="M68.6 111.1l3.3 8.7 7.8 5.2-4.8 3.9-7.7-5.2-3.4-8.7"/><path fill="#FFF" d="M67.9 111.7l-.3.3 3.3 8.7 7.7 5.2.4-.3-7.8-5.2m-6.6-6.1l-.3.3 3.3 8.7 7.8 5.1.4-.2L68 123"/><g><path opacity=".15" d="M71.8 137.2l1.5-4.4 3.1 4.1-1.3-9v-.1l8.4 3.6-3.1-4 4.6-.3-8.2-3.4c0-1.1-.4-2.1-1.1-3.1-1.7-2.3-5-2.7-7.3-1-2.3 1.7-2.7 5-1 7.3.8 1 1.9 1.7 3 1.9l1.4 8.4z"/><path fill="#C44949" d="M71 136.2l1.5-4.4 3.1 4.1-1.3-9v-.1l8.4 3.6-3.1-4 4.6-.3-8.2-3.4c0-1.1-.4-2.1-1.1-3.1-1.7-2.3-5-2.7-7.3-1-2.3 1.7-2.7 5-1 7.3.8 1 1.9 1.7 3 1.9l1.4 8.4z"/><path fill="#FFF" d="M74.2 125.7l-.6.5 1.1 6.6-2.2-2.9-1.1 3-1-5.8-.4-.1c-1-.2-1.9-.8-2.6-1.6-1.5-1.9-1.1-4.8.9-6.3 1.9-1.5 4.8-1.1 6.3.9.6.8.9 1.7.9 2.6v.5l5.9 2.5-3 .2 2.2 2.9-6.4-3zm5.9-.4l-4.9-2.1v-.6c0-.9-.3-1.7-.8-2.5-1.4-1.8-4-2.2-5.9-.8-1.8 1.4-2.2 4-.8 5.9.5.7 1.4 1.3 2.4 1.6l.6.2.8 5 .8-2.3 1.8 2.4-.9-5.8 1-.8 5.5 2.4-1.9-2.5 2.3-.1z"/><path fill="#FFF" d="M74.8 133.6l-2.7-3.6.1-.3 2.5 3.3"/><path fill="#FFBF0B" d="M71 124.2l.4 1.3-1 .7-1.8-5 1.2-.9 4.3 3.1-.9.7-1.1-.9-1.1 1zm.4-1.6l-.9-.7c-.2-.2-.6-.5-.8-.6.2.3.3.6.4.9l.4 1.1.9-.7z"/></g></g></svg>