<svg xmlns="http://www.w3.org/2000/svg" viewBox="0 0 250 250"><path d="M124.5 247C56.8 247 2 192.2 2 124.5S56.8 2 124.5 2 247 56.8 247 124.5 192.2 247 124.5 247zm69.3-142.9c.7 2.8 1.5 5.6 2.2 8.5-20.8-3.6-44.2-8.5-62.6 4.9-2-10.6-4-21.3-6-31.9l7.5 2.7c-4.7-5.3-8.1-12.1-10.5-18.7-2.5 6.6-5.8 13.3-10.5 18.7l7.5-2.7c-2 10.6-4 21.3-6 31.9-18.4-13.3-41.8-8.4-62.6-4.9.7-2.8 1.5-5.6 2.2-8.5-3.8 4.4-9 8-14.3 10.5 5.3 2.5 10.7 5.9 14.7 10.2-.8-2.8-1.7-5.6-2.5-8.4 7.9 1.2 15.8 2.2 23.6 4.1 7.6 1.8 15.7 4.4 21.2 10.2 9.2 9.7 11.8 46.8 11.2 48.7h31c-.4-1.5 5.6-41.2 9.5-46.6 4.6-6.4 12.4-9.4 19.8-11.5 8.7-2.4 17.8-3.5 26.8-4.9-.8 2.8-1.7 5.6-2.5 8.4 4-4.4 9.3-7.7 14.7-10.2-5.3-2.5-10.5-6.1-14.4-10.5z" opacity=".15"/><path fill="#FFF" d="M124.5 245C56.8 245 2 190.2 2 122.5S56.8 0 124.5 0 247 54.8 247 122.5 192.2 245 124.5 245zm69.3-142.9c.7 2.8 1.5 5.6 2.2 8.5-20.8-3.6-44.2-8.5-62.6 4.9-2-10.6-4-21.3-6-31.9l7.5 2.7c-4.7-5.3-8.1-12.1-10.5-18.7-2.5 6.6-5.8 13.3-10.5 18.7l7.5-2.7c-2 10.6-4 21.3-6 31.9-18.4-13.3-41.8-8.4-62.6-4.9.7-2.8 1.5-5.6 2.2-8.5-3.8 4.4-9 8-14.3 10.5 5.3 2.5 10.7 5.9 14.7 10.2-.8-2.8-1.7-5.6-2.5-8.4 7.9 1.2 15.8 2.2 23.6 4.1 7.6 1.8 15.7 4.4 21.2 10.2 9.2 9.7 11.8 46.8 11.2 48.7h31c-.4-1.5 5.6-41.2 9.5-46.6 4.6-6.4 12.4-9.4 19.8-11.5 8.7-2.4 17.8-3.5 26.8-4.9-.8 2.8-1.7 5.6-2.5 8.4 4-4.4 9.3-7.7 14.7-10.2-5.3-2.5-10.5-6.1-14.4-10.5z"/></svg>