<svg id="Слой_1" xmlns="http://www.w3.org/2000/svg" xmlns:xlink="http://www.w3.org/1999/xlink" viewBox="0 0 230 230"><style>.st0{fill:#774a23}.st1{fill:#e27c37}.st2{opacity:.35}.st3{fill:url(#SVGID_1_)}.st4{fill:#ed8d4c}.st5{fill:#bcb23f}.st6{clip-path:url(#SVGID_3_);fill:#a89d35}.st7{fill:#e5d96a}.st8{fill:#f4e782}.st9{fill:#fff7ae}.st10{fill:#141e08}.st11{fill:#8e852d}.st12,.st13{clip-path:url(#SVGID_5_);fill:#a89d35}.st13{clip-path:url(#SVGID_7_)}.st14{fill:#bf2201}.st15{clip-path:url(#SVGID_9_);fill:#ad1800}.st16{fill:#dd2a12}.st17{fill:#f22f20}.st18{fill:#ff8b7b}.st19{fill:#ad1800}.st20{fill:#2c4711}.st21{fill:#557a25}.st22{fill:#931602}.st23{clip-path:url(#SVGID_11_);fill:#ad1800}.st24,.st25,.st26{clip-path:url(#SVGID_13_);fill:#ad1800}.st25,.st26{clip-path:url(#SVGID_15_)}.st26{clip-path:url(#SVGID_17_)}.st27{fill:#24630d}.st28{fill:#327214}.st29{fill:#21540b}.st30{fill:#85d348}.st31{fill:#194705}.st32{fill:#ace298}.st33{fill:#518e1b}.st34{fill:#448c1e}.st35{clip-path:url(#SVGID_19_);fill:#a89d35}.st36,.st37,.st38{clip-path:url(#SVGID_21_);fill:#a89d35}.st37,.st38{clip-path:url(#SVGID_23_)}.st38{clip-path:url(#SVGID_25_)}.st39,.st40{clip-path:url(#SVGID_27_);fill:#ad1800}.st40{clip-path:url(#SVGID_29_)}.st41,.st42,.st43{clip-path:url(#SVGID_31_);fill:#ad1800}.st42,.st43{clip-path:url(#SVGID_33_)}.st43{clip-path:url(#SVGID_35_)}.st44{clip-path:url(#SVGID_37_);fill:#a89d35}.st45{fill:url(#SVGID_38_)}.st46{opacity:.15}.st47{opacity:.1;fill:#fff}.st48{fill:url(#SVGID_39_)}.st49{opacity:.27;fill:#fff}.st50{opacity:.1}.st51{fill:#f49519}.st52{fill:url(#SVGID_40_)}.st53{opacity:.24;fill:url(#SVGID_41_)}.st54{fill:#121212}.st55,.st56{opacity:.24;fill:url(#SVGID_42_)}.st56{fill:url(#SVGID_43_)}.st57{fill:url(#SVGID_44_)}.st58{opacity:.28;fill:#fff}.st59{opacity:.24;fill:url(#SVGID_45_)}.st60,.st61{opacity:.24;fill:url(#SVGID_46_)}.st61{fill:url(#SVGID_47_)}.st62{fill:url(#SVGID_48_)}.st63{fill:url(#SVGID_49_)}.st64{opacity:.19;fill:#20211d}.st65{fill:#2f2118}.st66{opacity:.15;fill:#fff}.st67,.st68{opacity:.1;fill:#20211d}.st68{opacity:.2}.st69{fill:url(#SVGID_50_)}.st70{fill:url(#SVGID_51_)}.st71{fill:url(#SVGID_52_)}.st72{opacity:.09;fill:#fff}.st73{fill:url(#SVGID_53_)}.st74{fill:#3d3d3d}.st75{fill:#999}.st76{fill:url(#SVGID_54_)}.st77{fill:url(#SVGID_55_)}.st78{opacity:.2}.st79{fill:url(#SVGID_56_)}.st80{fill:url(#SVGID_57_)}.st81{fill:url(#SVGID_58_)}</style><path class="st0" d="M140.1 153.2l-50.3-7.6 2.5 7 .1.4.3.8.1.3.2.5.4 1.2.6 1.8.3 1 5 14.2 1.9 5.4 1.8 5.2.4 1 3.5 10c1.7 4.6 5.3 7.6 9.6 7.8h.4c4 0 7.7-2.6 9.5-6.8l5-11.1 6.4-14.4 1.7-3.7.4-.9.4-.9.3-.7.4-.8.1-.2.4-.8.3-.7.1-.2 3.1-6.9-4.9-.9zm-3.8 7l-.3.7-.4.8v.1l-.7 1.6-.4 1-.4.9-.5 1.1-2.9 6.5-5.2 11.6-3.9 8.8c-1 2.3-2.7 3.6-4.6 3.5-2-.1-3.7-1.6-4.6-4.1l-2.9-8.1-1.1-3-1.8-5.1-2.1-5.9-3.8-10.7-.4-1-.6-1.7-.5-1.3-.2-.4-.1-.4-.3-.8-.1-.3-.4-1.2 33.1 5 5.9.9-.7 1.6-.1-.1z"/><path class="st1" d="M226.7 103.2l-1.8 1.9-.9.9-13.4 13.3-29.3 29.3-7.4 7.3-8.8 8.8-.8.8-10.5-1.7-9.4-1.6-2.8-.4-5.6-.9-8.8-1.5-28.3-4.6-6.3-1-6.1-1-.6-.1h-.2l-.2-.1-.8-2.1-15.9-44.6-.4-1-.8-2.1z"/><g class="st2"><linearGradient id="SVGID_1_" gradientUnits="userSpaceOnUse" x1="117.411" y1="202.186" x2="117.411" y2="145.674"><stop offset="0" stop-color="#7a4623"/><stop offset=".017" stop-color="#764422"/><stop offset=".236" stop-color="#4c2c16"/><stop offset=".449" stop-color="#2b190c"/><stop offset=".652" stop-color="#130b06"/><stop offset=".84" stop-color="#050301"/><stop offset="1"/></linearGradient><path class="st3" d="M140.1 153.2l-50.3-7.6 2.5 7 .1.4.3.8.1.3.2.5.4 1.2.6 1.8.3 1 5 14.2 1.9 5.4 1.8 5.2.4 1 3.5 10c1.7 4.6 5.3 7.6 9.6 7.8h.4c4 0 7.7-2.6 9.5-6.8l5-11.1 6.4-14.4 1.7-3.7.4-.9.4-.9.3-.7.4-.8.1-.2.4-.8.3-.7.1-.2 3.1-6.9-4.9-.9zm-3.8 7l-.3.7-.4.8v.1l-.7 1.6-.4 1-.4.9-.5 1.1-2.9 6.5-5.2 11.6-3.9 8.8c-1 2.3-2.7 3.6-4.6 3.5-2-.1-3.7-1.6-4.6-4.1l-2.9-8.1-1.1-3-1.8-5.1-2.1-5.9-3.8-10.7-.4-1-.6-1.7-.5-1.3-.2-.4-.1-.4-.3-.8-.1-.3-.4-1.2 33.1 5 5.9.9-.7 1.6-.1-.1z"/></g><path class="st1" d="M68.1 101.4l10.6-5.5V106zM227.4 101.9l-9.4-6V106z"/><path class="st4" d="M78.7 95.9H218v10H78.7z"/><path class="st5" d="M72.4 94.8c-.3.2-.9.2-1.1.6-.5 1.1-.2 2.8.7 4.3 1.2 1.9 3.5 5.3 4.5 7.4 1 2 3.6 2.7 6.3 2.5 2.7-.3 3.8-1.5 4.3-2.2.5-.6-.2-1.4.7-2.2.9-.8 2.5-1.5 2.4-3.3-.1-1.8-.5-4.7-2.7-6.1-2.3-1.5-6.5.3-7.8-.1-1.2-.4-4-3-6.9-1.6-.2 0 0 .4-.4.7z"/><defs><path id="SVGID_2_" d="M71.4 95.4c-.5 1.1-.2 2.8.7 4.3 1.2 1.9 3.5 5.3 4.5 7.4 1 2 3.6 2.7 6.3 2.5 2.7-.3 3.8-1.5 4.3-2.2.5-.6-.2-1.4.7-2.2.9-.8 2.5-1.5 2.4-3.3-.1-1.8-.5-4.7-2.7-6.1-2.3-1.5-6.5.3-7.8-.1-1.2-.4-4-3-6.9-1.6-.2.1-.2.2-.3.4 0 .1-.1.3-.3.4-.1.1-.7.1-.9.5 0-.1 0-.1 0 0"/></defs><clipPath id="SVGID_3_"><use xlink:href="#SVGID_2_" overflow="visible"/></clipPath><path class="st6" d="M71.3 95.6s-.3 1.6 1.3 4.1c1.6 2.4 5 6.6 7 7.3 2 .6 4.6.2 5.3-.6.7-.8 1.8-2.3 2.7-2.5.9-.2 2.8-1.7 2.4-4.2 0 0 1 1.8.8 3.5-.2 1.7-2.3 2.4-2.4 3.5-.1 1.1-1.3 3.2-5.5 3.8-4.2.6-5.7.3-7.1-2.2-1.4-2.5-2.3-5.9-3.4-7.1-1.2-1.4-2.2-4.9-1.1-5.6"/><path class="st7" d="M75.7 93.9c-.9-.1-1.7 0-1.8.4-.1.5.5 1.6-1.4 2-1.1.2.2 2.8 1.6 4.4 1.4 1.5 5 4.8 7.6 4.4 2.6-.4 2.9-2.2 4.4-2.6 3.1-.9 3.4-3.8 2.3-5.3-1.1-1.4-3.5-2.3-5.6-1.6-2.2.7-3.2.4-4.2-.5-1.2-.7-2.3-1.1-2.9-1.2z"/><path class="st8" d="M74.8 94.4c-.7.3-1.1 1.8-.5 3.3.6 1.5 3.3 2.7 6.2 3.5 2.9.7 7.8-.7 7.8-2.4S86 95.5 84 96c-2 .6-2.7 1-3.8.8-1.2-.1-3.5-3.3-5.4-2.4z"/><path class="st9" d="M76.5 94.9c-1.2-.3-1.9.2-1.9 1.2s2.9 3.2 4.3 2.6c1.5-.6-.9-3.4-2.4-3.8zM86.3 97c-1.1-.9-2.2-.9-3.3-.4-1.1.5-1.2 2.6 0 3.6 1.1 1 6.3-.8 3.3-3.2z"/><path class="st7" d="M73.5 94c-.2-.1-.3 0-.5.1-.3.3-.2.6-.6.8-.3.1-.9.4-.9.7 0 .1.2.1.2 0 .2-.3.8-.4 1.1-.6.2-.1.3-.3.3-.4 0-.1.1-.2.1-.3 0-.1.2-.2.2-.3.2.2.1.1.1 0z"/><path class="st8" d="M73.3 94.2c-.2-.2-.6.3-.6.5 0 .1.1.2.2.1s.2-.2.2-.3c.1-.1.2-.1.2-.3.1 0 .1 0 0 0z"/><path class="st9" d="M73.2 94.1c-.1 0-.2 0-.2.1-.1.1-.1.2-.1.3.1.1.1 0 .2-.1 0-.1.1-.1.2-.2 0 0 0-.1-.1-.1z"/><path class="st8" d="M73.2 94.2c-.1 0-.2.1-.3.2-.1.1-.2.2-.1.4 0 0 0 .1.1 0s.1-.2.2-.2c0-.2.1-.3.1-.4.1 0 .1 0 0 0z"/><path class="st10" d="M72.9 95.5s-.4-1.2-2-2.2c-1.6-.9-3.3-.7-3.3-.7s-.6.6-.4.8c0 0 2.3-.2 3.5.4 1.3.6 2 1.7 2.1 1.9.1.2.2.1.1-.2z"/><path class="st11" d="M71.9 96.3s.3-.5.8-.5c.4-.1.7-.6.6-.9 0 0 .5.7 0 1-.5.2-.7-.2-1.4.4z"/><path class="st5" d="M116.5 80.8c-.3 0-.9-.4-1.2-.3-1.1.5-2 2-2.2 3.8-.3 2.3-.8 6.3-1.3 8.5-.6 2.2 1 4.4 3.2 6 2.2 1.6 3.9 1.3 4.7 1.1.8-.1.8-1.2 2-1.2s2.9.5 3.9-.9c1.1-1.5 2.6-3.9 1.9-6.4-.8-2.7-5.1-3.9-5.8-5.1-.6-1-1.1-4.8-4.2-5.7-.4-.2-.6.2-1 .2z"/><defs><path id="SVGID_4_" d="M115.3 80.6c-1.1.5-2 2-2.2 3.8-.3 2.3-.8 6.3-1.3 8.5-.6 2.2 1 4.4 3.2 6 2.2 1.6 3.9 1.3 4.7 1.1.8-.2.8-1.2 2-1.2s2.9.5 3.9-.9c1.1-1.5 2.6-3.9 1.9-6.4-.8-2.7-5.1-3.9-5.8-5.1-.6-1-1.1-4.8-4.2-5.7-.2-.1-.3 0-.5.1-.1.1-.3.2-.5.2-.3-.2-.7-.5-1.2-.4.1-.1.1 0 0 0"/></defs><clipPath id="SVGID_5_"><use xlink:href="#SVGID_4_" overflow="visible"/></clipPath><path class="st12" d="M115.2 80.7s-1.3 1.1-1.6 4c-.3 2.9-.4 8.3.7 10.1 1.1 1.8 3.4 3.1 4.4 3 1.1-.2 2.9-.6 3.7-.1.8.4 3.2.6 4.5-1.7 0 0-.4 2-1.7 3.2-1.3 1.2-3.3.4-4.1 1.1-.8.7-3 1.6-6.7-.6s-4.5-3.5-4-6.3 2-6 2-7.6c0-1.9 1.4-5.3 2.8-5.1"/><path class="st7" d="M119.6 82.2c-.6-.7-1.3-1.1-1.7-.9-.4.3-.6 1.6-2.4.7-1-.5-1.6 2.3-1.6 4.4 0 2.1.7 6.9 3 8.3 2.3 1.4 3.6.2 5 .9 2.9 1.3 5-.8 5.1-2.6.1-1.8-1.2-4-3.3-4.8-2.1-.9-2.7-1.8-2.9-3.1-.2-1.4-.8-2.4-1.2-2.9z"/><path class="st8" d="M118.5 82c-.7-.2-2 .7-2.5 2.2-.5 1.5.8 4.2 2.5 6.6 1.7 2.4 6.4 4.5 7.5 3.2 1.1-1.3.4-4-1.5-4.9-1.9-.8-2.7-1-3.5-1.8-.7-.8-.4-4.7-2.5-5.3z"/><path class="st9" d="M119.6 83.5c-.7-1-1.5-1.1-2.2-.4-.7.7.2 4.3 1.6 4.8 1.4.6 1.5-3.1.6-4.4zM125.8 91.4c-.3-1.4-1.1-2.1-2.3-2.4-1.2-.3-2.6 1.2-2.4 2.7.2 1.6 5.3 3.5 4.7-.3z"/><path class="st7" d="M117.8 80.9c-.1-.2-.2-.2-.4-.2-.4 0-.6.3-1 .2-.3-.1-.9-.3-1.2 0-.1.1 0 .2.1.2.3-.1.9.2 1.2.3.2 0 .4 0 .5-.1.1 0 .2-.1.3-.1.1 0 .2 0 .4-.1.1 0 .1-.1.1-.2z"/><path class="st8" d="M117.6 80.9c-.1-.3-.6-.2-.8 0-.1.1-.1.2.1.2.1 0 .2 0 .4-.1 0 0 .2.1.3-.1 0 .1 0 .1 0 0z"/><path class="st9" d="M117.6 80.8c-.1-.1-.1-.1-.2-.1s-.2.1-.2.1c0 .1.1.1.2.1h.2v-.1z"/><path class="st8" d="M117.5 80.9c-.1-.1-.2-.1-.3 0-.1 0-.3.1-.3.2v.1c.1 0 .2 0 .3-.1.1-.1.2-.1.3-.2 0 0 .1 0 0 0z"/><path class="st10" d="M116.4 81.6s.5-1.2-.1-2.9-2.1-2.6-2.1-2.6-.8.1-.9.4c0 0 1.9 1.3 2.4 2.6.6 1.3.5 2.6.4 2.8 0 .1.2 0 .3-.3z"/><path class="st11" d="M115.1 81.6s.6-.2.9.1c.4.2.9 0 1.1-.3 0 0-.1.8-.7.8-.5-.1-.4-.6-1.3-.6z"/><path class="st5" d="M95.8 78.2c-.4-.1-.9-.9-1.4-.8-1.6.3-3.4 1.8-4.4 4-1.3 2.8-3.5 7.9-5.2 10.5-1.6 2.6-.5 6.2 1.8 9.1 2.3 2.9 4.5 3.2 5.6 3.4 1.1.1 1.5-1.2 3.1-.8 1.6.5 3.5 1.8 5.5.4 2-1.5 5-4.1 5-7.6 0-3.8-5.1-7.2-5.5-9-.4-1.6.5-6.7-3.2-9.1-.3-.3-.7.1-1.3-.1z"/><defs><path id="SVGID_6_" d="M94.4 77.4c-1.6.3-3.4 1.8-4.4 4-1.3 2.8-3.5 7.9-5.2 10.5-1.6 2.6-.5 6.2 1.8 9.1 2.3 2.9 4.5 3.2 5.6 3.4 1.1.1 1.5-1.2 3.1-.8 1.6.5 3.5 1.8 5.5.4 2-1.5 5-4.1 5-7.6 0-3.8-5.1-7.2-5.5-9-.4-1.6.5-6.7-3.2-9.1-.2-.1-.4-.1-.7 0-.2.1-.4.1-.7 0-.4-.1-.8-.7-1.3-.8.1-.1.1-.1 0-.1"/></defs><clipPath id="SVGID_7_"><use xlink:href="#SVGID_6_" overflow="visible"/></clipPath><path class="st13" d="M94.1 77.5s-2.1.9-3.7 4.5-3.9 10.6-3.2 13.3c.7 2.7 3.1 5.4 4.6 5.6 1.4.2 4 .4 4.8 1.3.9.9 4 2 6.6-.4 0 0-1.3 2.5-3.5 3.5s-4.4-.9-5.7-.2c-1.3.6-4.6.9-8.4-3.5-3.8-4.4-4.5-6.3-2.6-9.8 1.8-3.5 5-6.9 5.6-9.1.6-2.2 3.8-6 5.5-5.2"/><path class="st7" d="M99.2 81.3c-.5-1.2-1.2-2-1.8-1.8-.6.2-1.4 1.8-3.3-.1-1.1-1-3.1 2.3-3.8 5-.8 2.7-1.9 9.2.5 12 2.4 2.7 4.6 1.8 6.1 3.1 3.2 2.9 6.8 1.1 7.7-1.3.8-2.3.1-5.6-2.3-7.6s-2.8-3.4-2.5-5.2c.2-1.7-.2-3.3-.6-4.1z"/><path class="st8" d="M98 80.6c-.9-.6-2.9.1-4.2 1.8-1.2 1.8-.7 5.8.6 9.6 1.3 3.8 6.5 8.4 8.4 7.1 1.9-1.3 2.1-5.1 0-6.9-2.1-1.9-3.1-2.4-3.8-3.8-.6-1.3 1.4-6.2-1-7.8z"/><path class="st9" d="M98.8 83c-.5-1.6-1.6-2-2.7-1.4-1.2.7-1.5 5.7.2 6.9 1.5 1.2 3.1-3.6 2.5-5.5zM103.5 95.7c.2-1.9-.5-3.2-2-4.1-1.4-.9-3.8.5-4.2 2.6-.3 2.2 5.6 6.7 6.2 1.5z"/><path class="st7" d="M97.5 78.9c0-.3-.2-.4-.5-.4-.5-.1-.9.2-1.4-.1-.3-.2-1.1-.7-1.5-.5-.1.1 0 .3.1.3.5 0 1.1.6 1.5.8.2.1.5.1.7.1.1 0 .3 0 .4-.1.1 0 .3.1.5.1.1 0 .2-.1.2-.2z"/><path class="st8" d="M97.2 78.8c0-.4-.7-.5-1-.4-.1.1-.1.2 0 .3.2.1.3 0 .5.1.1 0 .3.1.5 0 0 .1 0 .1 0 0z"/><path class="st9" d="M97.2 78.6c0-.1-.2-.2-.3-.2-.1 0-.3 0-.3.1-.1.1.1.2.2.2s.2.1.3.1c.1 0 .1-.1.1-.2z"/><path class="st8" d="M97.1 78.7c-.1-.1-.3-.2-.4-.2-.2 0-.4 0-.5.1v.1c.1.1.3 0 .4 0 .2 0 .3.1.4.1.1 0 .2-.1.1-.1z"/><path class="st10" d="M95.3 79.2s1.1-1.4 1-3.9c-.1-2.5-1.6-4.3-1.6-4.3s-1.1-.2-1.3.1c0 0 1.9 2.4 2.1 4.3.2 1.9-.5 3.6-.6 3.8 0 .4.2.4.4 0z"/><path class="st11" d="M93.8 78.6s.8 0 1.2.5c.4.4 1.2.4 1.5 0 0 0-.4 1-1.2.7-.8-.2-.4-.7-1.5-1.2z"/><path class="st14" d="M84.5 100.7c.8-.1 2.6-2.3 4.9-2.5 2.4-.1 6 2.5 5.8 6.7-.2 4.2-3.3 7.9-5.1 8.4-1.9.6-2.6 0-2.9-.1-.4 0-.8.9-2.3 1.1-1.5.2-5.8-2.7-7.1-6.1-1.3-3.4.7-6.7 2.5-7.4 1.8-.4 3.1.1 4.2-.1z"/><defs><path id="SVGID_8_" d="M95.2 105c-.2 4.2-3.3 7.9-5.1 8.4-1.9.6-2.6 0-2.9-.1-.4 0-.8.9-2.3 1.1-1.5.2-5.8-2.7-7.1-6.1-1.3-3.4.7-6.7 2.5-7.4 1.2-.4 2.2-.4 3-.3h1.2c.8-.1 2.6-2.3 4.9-2.5h.2c2.3.2 5.8 2.8 5.6 6.9"/></defs><clipPath id="SVGID_9_"><use xlink:href="#SVGID_8_" overflow="visible"/></clipPath><path id="XMLID_2_" class="st15" d="M80.3 101.1c.2 0-1.6 1.1-1.9 3.1-.4 2.2.5 4.9 3.4 6.7 4.8 2.9 8.9 3.1 12.8-1.4 0 0-.6 5.3-6.8 6.6-6.3 1.3-9-3.3-10.5-6.4-1.6-3.2.3-8.4 3-8.6"/><path class="st16" d="M89.8 112.2c1.1-.1 3.1-.9 4.3-4.6 1.2-3.7-.4-6.2-1.3-7-.8-.8-2.1-1.7-3.8-1-1.7.7-1.8 2.5-3.7 3.5-1.8 1-3.7.2-4.4-.1-.7-.3-2.1 1.1-1.1 4 1.3 3.8 6.7 5.4 10 5.2z"/><path class="st17" d="M81.9 106.1c.4 1.1 3.6 4.4 6.7 3.8 3.1-.6 5.5-3 5.5-5.3s-1.2-5-3.3-4.8c-2.1.2-3.3 1.6-3.8 2.2-2.5 3.3-6.2.9-5.1 4.1z"/><path class="st18" d="M85.1 106c-1.1-.8-.7-1.6.6-2.2 1.3-.6 2-.8 2.3-2.3.3-1.4 1.8-1.9 2.8-1.4 1 .5 1.9 2.6-.6 4.6-2.6 2-4.5 1.7-5.1 1.3zM92.5 101.4c-.1-.1-.1-.3-.1-.5 0-.1.1-.2.2-.2s.2.1.3.2c.1.1.1.3.1.4-.1.3-.5.3-.5.1z"/><path class="st16" d="M80.8 101.4c.7-.7 1.9-.5 2.8-.4 1.3.1 2.1-.9 3.1-1.6.6-.4 1.3-.7 2-.8.4-.1 1.3-.4 1.6.1v.1c-1.6-.1-2.9.8-4 1.8-.7.6-1.4 1.1-2.3 1.1-.4 0-.9 0-1.3-.1-.6 0-1.1.1-1.6.2-.3 0-.4-.2-.3-.4z"/><path class="st18" d="M86 100.1c.1-.4.6-.7 1-.9.4-.2.8-.5 1.3-.4.1 0 .1.1 0 .1-.4.2-.8.3-1.2.6-.3.2-.6.6-1 .7-.1.1-.1 0-.1-.1z"/><path class="st19" d="M84.7 102.6c.4-.1.8-.4 1.2-.9.4-.5.5-.7.5-.9 0-.1-.6.2-.9.5-.3.3-.7.7-1.5.6-.8 0-1.8-.3-1.8 0-.1.3 1.9.8 2.5.7z"/><path class="st20" d="M84.8 102.4s-.8-3.2 1.2-5.7l-.8-.7s-2.1 4.6-.6 6.5c0 0 .3.3.2-.1z"/><path class="st21" d="M84.6 98.7c.2-.6.4-1.6 1-2 0 0 .1 0 .1.1-.4.6-.6 1.3-.8 2-.1.3-.2.7-.2 1.1-.1.4 0 .8-.1 1.2 0 .1-.1.1-.1 0-.5-.7-.1-1.7.1-2.4z"/><path class="st22" d="M87.1 100.1s-.9.5-1.2 1.2c-.3.7-1.3 1.4-2.2 1.1-.9-.4-1.8-.7-2.1-.6l2 1c.8.4 1.9-.2 2.5-1.2.6-1 .6-1.4 1-1.5z"/><g><path class="st14" d="M127.8 89.5c.8-.1 2.6-2.3 4.9-2.5 2.4-.1 6 2.5 5.8 6.7-.2 4.2-3.3 7.9-5.1 8.4-1.9.6-2.6 0-2.9-.1-.4 0-.8.9-2.3 1.1-1.5.2-5.8-2.7-7.1-6.1-1.3-3.4.7-6.7 2.5-7.4 1.9-.4 3.1 0 4.2-.1z"/><defs><path id="SVGID_10_" d="M138.5 93.7c-.2 4.2-3.3 7.9-5.1 8.4-1.9.6-2.6 0-2.9-.1-.4 0-.8.9-2.3 1.1-1.5.2-5.8-2.7-7.1-6.1-1.3-3.4.7-6.7 2.5-7.4 1.2-.4 2.2-.4 3-.3h1.2c.8-.1 2.6-2.3 4.9-2.5h.2c2.4.2 5.8 2.8 5.6 6.9"/></defs><clipPath id="SVGID_11_"><use xlink:href="#SVGID_10_" overflow="visible"/></clipPath><path id="XMLID_4_" class="st23" d="M123.6 89.8c.2 0-1.6 1.1-1.9 3.1-.4 2.2.5 4.9 3.4 6.7 4.8 2.9 8.9 3.1 12.8-1.4 0 0-.6 5.3-6.8 6.6-6.3 1.3-9-3.3-10.5-6.4-1.5-3.2.4-8.4 3-8.6"/><path class="st16" d="M133.1 100.9c1.1-.1 3.1-.9 4.3-4.6 1.2-3.7-.4-6.2-1.3-7-.8-.8-2.1-1.7-3.8-1-1.7.7-1.8 2.5-3.7 3.5-1.8 1-3.7.2-4.4-.1-.7-.3-2.1 1.1-1.1 4 1.3 3.9 6.8 5.4 10 5.2z"/><path class="st17" d="M125.2 94.9c.4 1.1 3.6 4.4 6.7 3.8 3.1-.6 5.5-3 5.5-5.3s-1.2-5-3.3-4.8c-2.1.2-3.3 1.6-3.8 2.2-2.4 3.2-6.2.8-5.1 4.1z"/><path class="st18" d="M128.5 94.7c-1.1-.8-.7-1.6.6-2.2 1.3-.6 2-.8 2.3-2.3.3-1.4 1.8-1.9 2.8-1.4 1 .5 1.9 2.6-.6 4.6-2.7 2-4.5 1.7-5.1 1.3zM135.8 90.1c-.1-.1-.1-.3-.1-.5 0-.1.1-.2.2-.2s.2.1.3.2c.1.1.1.3.1.4-.1.3-.4.3-.5.1z"/><path class="st16" d="M124.2 90.2c.7-.7 1.9-.5 2.8-.4 1.3.1 2.1-.9 3.1-1.6.6-.4 1.3-.7 2-.8.4-.1 1.3-.4 1.6.1v.1c-1.6-.1-2.9.8-4 1.8-.7.6-1.4 1.1-2.3 1.1-.4 0-.9 0-1.3-.1-.6 0-1.1.1-1.6.2-.3-.1-.5-.3-.3-.4z"/><path class="st18" d="M129.3 88.8c.1-.4.6-.7 1-.9.4-.2.8-.5 1.3-.4.1 0 .1.1 0 .1-.4.2-.8.3-1.2.6-.3.2-.6.6-1 .7 0 .1-.1 0-.1-.1z"/><path class="st19" d="M128 91.3c.4-.1.8-.4 1.2-.9.4-.5.5-.7.5-.9 0-.1-.6.2-.9.5-.3.3-.7.7-1.5.6-.8 0-1.8-.3-1.8 0s1.9.8 2.5.7z"/><path class="st20" d="M128.2 91.1s-.8-3.2 1.2-5.7l-.8-.8s-2.1 4.6-.6 6.5c-.1.1.3.4.2 0z"/><path class="st21" d="M127.9 87.4c.2-.6.4-1.6 1-2 0 0 .1 0 .1.1-.4.6-.6 1.3-.8 2-.1.3-.2.7-.2 1.1-.1.4 0 .8-.1 1.2 0 .1-.1.1-.1 0-.4-.7-.1-1.7.1-2.4z"/><path class="st22" d="M130.5 88.8s-.9.5-1.2 1.2c-.3.7-1.3 1.4-2.2 1.1-.9-.4-1.8-.7-2.1-.6l2 1c.8.4 1.9-.2 2.5-1.2.6-1 .6-1.4 1-1.5z"/></g><g><path class="st14" d="M105.6 100.4c.7.2 3-1 5.1-.3 2.1.8 4.2 4.3 2.5 7.9-1.7 3.5-5.7 5.5-7.5 5.3-1.8-.2-2.2-.9-2.5-1.1-.3-.2-1 .5-2.4.1-1.3-.3-4-4.5-3.8-7.9.2-3.4 3.1-5.5 4.9-5.3 1.9.1 2.8 1 3.7 1.3z"/><defs><path id="SVGID_12_" d="M113.2 108c-1.7 3.5-5.7 5.5-7.5 5.3-1.8-.2-2.2-.9-2.5-1.1-.3-.2-1 .5-2.4.1-1.3-.3-4-4.5-3.8-7.9.2-3.4 3.1-5.5 4.9-5.3 1.2.1 2 .5 2.7.8.4.2.7.3 1 .4.7.2 3-1 5.1-.3.1 0 .1 0 .2.1 2 .9 4 4.4 2.3 7.9"/></defs><clipPath id="SVGID_13_"><use xlink:href="#SVGID_12_" overflow="visible"/></clipPath><path id="XMLID_3_" class="st24" d="M101.9 99.1c.2.1-1.7.3-2.8 1.9-1.2 1.7-1.4 4.4.5 7 3 4.3 6.5 5.9 11.4 3.5 0 0-2.4 4.3-8.3 3.1-5.8-1.2-6.5-6.1-6.6-9.4-.1-3.2 3.5-6.9 5.8-6.1"/><path class="st16" d="M106 112.1c1 .4 3 .4 5.4-2.4 2.4-2.7 2-5.5 1.5-6.5-.4-1-1.2-2.2-2.9-2.3-1.7 0-2.5 1.5-4.4 1.6-1.9.2-3.2-1.2-3.8-1.7-.5-.5-2.2.1-2.4 3-.4 3.9 3.7 7.3 6.6 8.3z"/><path class="st17" d="M101.4 104c-.1 1.1 1.4 5 4.3 5.7 2.9.7 5.8-.5 6.7-2.5.9-1.9.8-4.7-1-5.3-1.9-.6-3.4.1-4 .5-3.4 1.9-5.7-1.6-6 1.6z"/><path class="st18" d="M104.3 105.1c-.7-1.1 0-1.6 1.3-1.6s2 0 2.8-1.1c.8-1.1 2.2-.9 2.9-.2.7.8.7 2.9-2.2 3.7-3 .7-4.5-.3-4.8-.8zM112.2 103.9c0-.1.1-.3.1-.4 0-.1.1-.2.2-.1s.2.2.2.3c0 .1 0 .3-.1.4-.1.1-.4 0-.4-.2z"/><path class="st16" d="M102.3 99.6c.8-.3 1.8.3 2.5.7 1.1.5 2.1 0 3.3-.2.6-.2 1.3-.1 2 0 .4.1 1.3.1 1.3.7 0 0 0 .1-.1 0-1.3-.7-2.8-.4-4.1.1-.8.3-1.6.4-2.4.1-.4-.1-.7-.4-1.1-.5-.5-.2-1-.3-1.5-.4 0-.2-.1-.4.1-.5z"/><path class="st18" d="M107.2 100.4c.2-.3.8-.4 1.1-.4.4 0 .9-.1 1.3.1v.1c-.4 0-.8 0-1.2.1-.4.1-.7.3-1.1.2-.1 0-.2-.1-.1-.1z"/><path class="st19" d="M105.2 102c.4.1.8 0 1.3-.3.5-.2.7-.4.7-.6 0-.1-.6-.1-1 .1-.4.1-.8.3-1.5 0-.6-.3-1.4-.9-1.5-.7-.1.3 1.4 1.4 2 1.5z"/><path class="st20" d="M105.3 101.9s.5-3 3.1-4.4l-.4-.9s-3.4 3.1-3 5.3c.1 0 .3.3.3 0z"/><path class="st21" d="M106.5 98.6c.4-.5.9-1.2 1.6-1.3.1 0 .1.1 0 .1-.6.4-1 .9-1.4 1.4-.2.3-.4.5-.6.8-.2.3-.3.7-.6 1 0 .1-.1 0-.1 0 0-.7.7-1.4 1.1-2z"/><path class="st22" d="M108.2 100.8s-.9.1-1.5.6c-.5.5-1.6.8-2.2.1-.6-.6-1.2-1.3-1.6-1.3 0 0 .8 1 1.4 1.6.5.6 1.7.5 2.6-.1.7-.6.9-.9 1.3-.9z"/></g><g><path class="st14" d="M142.8 86.8c.7.2 3-1 5.1-.3 2.1.8 4.2 4.3 2.5 7.9-1.7 3.5-5.7 5.5-7.5 5.3-1.8-.2-2.2-.9-2.5-1.1-.3-.2-1 .5-2.4.1-1.3-.3-4-4.5-3.8-7.9.2-3.4 3.1-5.5 4.9-5.3 1.8.2 2.7 1 3.7 1.3z"/><defs><path id="SVGID_14_" d="M150.4 94.4c-1.7 3.5-5.7 5.5-7.5 5.3-1.8-.2-2.2-.9-2.5-1.1-.3-.2-1 .5-2.4.1-1.3-.3-4-4.5-3.8-7.9.2-3.4 3.1-5.5 4.9-5.3 1.2.1 2 .5 2.7.8.4.2.7.3 1 .4.7.2 3-1 5.1-.3.1 0 .1 0 .2.1 2 .9 4 4.4 2.3 7.9"/></defs><clipPath id="SVGID_15_"><use xlink:href="#SVGID_14_" overflow="visible"/></clipPath><path id="XMLID_5_" class="st25" d="M139.1 85.5c.2.1-1.7.3-2.8 1.9-1.2 1.7-1.4 4.4.5 7 3 4.3 6.5 5.9 11.4 3.5 0 0-2.4 4.3-8.3 3.1-5.8-1.2-6.5-6.1-6.6-9.4-.1-3.1 3.5-6.9 5.8-6.1"/><path class="st16" d="M143.1 98.5c1 .4 3 .4 5.4-2.4 2.4-2.7 2-5.5 1.5-6.5-.4-1-1.2-2.2-2.9-2.3-1.7 0-2.5 1.5-4.4 1.6-1.9.2-3.2-1.2-3.8-1.7-.5-.5-2.2.1-2.4 3-.4 4 3.8 7.3 6.6 8.3z"/><path class="st17" d="M138.6 90.4c-.1 1.1 1.4 5 4.3 5.7 2.9.7 5.8-.5 6.7-2.5.9-1.9.8-4.7-1-5.3-1.9-.6-3.4.1-4 .5-3.5 1.9-5.8-1.6-6 1.6z"/><path class="st18" d="M141.4 91.5c-.7-1.1 0-1.6 1.3-1.6s2 0 2.8-1.1c.8-1.1 2.2-.9 2.9-.2.7.8.7 2.9-2.2 3.7-3 .7-4.4-.3-4.8-.8zM149.4 90.3c0-.1.1-.3.1-.4 0-.1.1-.2.2-.1s.2.2.2.3c0 .1 0 .3-.1.4-.2.1-.4 0-.4-.2z"/><path class="st16" d="M139.4 86c.8-.3 1.8.3 2.5.7 1.1.5 2.1 0 3.3-.2.6-.2 1.3-.1 2 0 .4.1 1.3.1 1.3.7 0 0 0 .1-.1 0-1.3-.7-2.8-.4-4.1.1-.8.3-1.6.4-2.4.1-.4-.1-.7-.4-1.1-.5-.5-.2-1-.3-1.5-.4 0-.2-.1-.4.1-.5z"/><path class="st18" d="M144.3 86.8c.2-.3.8-.4 1.1-.4.4 0 .9-.1 1.3.1v.1c-.4 0-.8 0-1.2.1-.4.1-.7.3-1.1.2-.1 0-.1 0-.1-.1z"/><path class="st19" d="M142.3 88.4c.4.1.8 0 1.3-.3.5-.2.7-.4.7-.6 0-.1-.6-.1-1 .1-.4.1-.8.3-1.5 0-.6-.3-1.4-.9-1.5-.7-.1.3 1.4 1.4 2 1.5z"/><path class="st20" d="M142.5 88.3s.5-3 3.1-4.4l-.4-.9s-3.4 3.1-3 5.3c0 0 .2.4.3 0z"/><path class="st21" d="M143.6 85.1c.4-.5.9-1.2 1.6-1.3.1 0 .1.1 0 .1-.6.4-1 .9-1.4 1.4-.2.3-.4.5-.6.8-.2.3-.3.7-.6 1 0 .1-.1 0-.1 0 0-.8.7-1.5 1.1-2z"/><path class="st22" d="M145.3 87.2s-.9.1-1.5.6c-.5.5-1.6.8-2.2.1-.6-.6-1.2-1.3-1.6-1.3 0 0 .8 1 1.4 1.6.5.6 1.7.5 2.6-.1.8-.6.9-.9 1.3-.9z"/></g><g><path class="st14" d="M94.4 92.7c1.1-.1 3.5-3.1 6.7-3.3 3.2-.2 8.1 3.4 7.9 9.1-.3 5.8-4.4 10.7-6.9 11.5-2.5.8-3.5 0-4-.1s-1.1 1.2-3.1 1.5c-2 .3-7.9-3.7-9.7-8.3-1.7-4.7.9-9.1 3.5-10 2.4-.8 4.1-.2 5.6-.4z"/><defs><path id="SVGID_16_" d="M108.9 98.5c-.3 5.8-4.4 10.7-6.9 11.5-2.5.8-3.5 0-4-.1s-1.1 1.2-3.1 1.5c-2 .3-7.9-3.7-9.7-8.3-1.7-4.7.9-9.1 3.5-10 1.7-.6 3-.5 4.1-.5.6 0 1.1.1 1.6 0 1.1-.1 3.5-3.1 6.7-3.3h.3c3.1.1 7.8 3.6 7.5 9.2"/></defs><clipPath id="SVGID_17_"><use xlink:href="#SVGID_16_" overflow="visible"/></clipPath><path id="XMLID_1_" class="st26" d="M88.6 93.2c.3 0-2.1 1.5-2.6 4.2-.5 3 .7 6.7 4.7 9.2 6.5 4 12.1 4.2 17.3-1.9 0 0-.8 7.2-9.3 8.9-8.5 1.8-12.2-4.4-14.2-8.7-2-4.4.6-11.5 4.1-11.7"/><path class="st16" d="M101.6 108.2c1.5-.1 4.2-1.2 5.8-6.3 1.6-5.1-.5-8.5-1.7-9.6-1.2-1.1-2.9-2.3-5.2-1.3-2.3 1-2.5 3.4-5 4.7-2.5 1.3-5 .2-6-.1-1-.4-2.8 1.4-1.5 5.4 1.7 5.4 9.2 7.5 13.6 7.2z"/><path class="st17" d="M90.8 100c.5 1.5 4.8 5.9 9 5.1 4.2-.8 7.4-4.1 7.5-7.2.1-3.1-1.6-6.8-4.5-6.5-2.8.3-4.5 2.2-5.1 3-3.3 4.6-8.4 1.2-6.9 5.6z"/><path class="st18" d="M95.3 99.8c-1.5-1.1-1-2.2.8-2.9 1.8-.8 2.6-1.2 3.1-3.1.4-2 2.5-2.5 3.8-1.9 1.4.6 2.6 3.5-.9 6.2s-6.1 2.3-6.8 1.7zM105.2 93.6c-.1-.2-.1-.4-.2-.6-.1-.1.1-.3.2-.3.2 0 .3.1.4.3.1.2.1.4.1.6.1.3-.4.3-.5 0z"/><path class="st16" d="M89.4 93.7c.9-.9 2.6-.6 3.8-.6 1.8.1 2.9-1.2 4.2-2.2.8-.6 1.7-.9 2.7-1.1.6-.1 1.8-.5 2.2.1 0 .1 0 .1-.1.1-2.1-.1-4 1-5.4 2.4-.9.8-1.8 1.5-3.1 1.5-.6 0-1.2-.1-1.7-.1-.8 0-1.5.2-2.2.2-.4.1-.6-.2-.4-.3z"/><path class="st18" d="M96.4 91.8c.2-.5.8-.9 1.3-1.2.5-.3 1.1-.6 1.8-.6.1 0 .1.1 0 .2-.5.3-1.1.4-1.6.8-.4.3-.8.8-1.3 1-.1.1-.2 0-.2-.2z"/><path class="st19" d="M94.7 95.2c.5-.1 1-.5 1.6-1.2.6-.6.7-1 .6-1.2-.1-.2-.8.2-1.2.6-.4.4-1 .9-2 .8-1 0-2.5-.4-2.5 0 0 .5 2.7 1.2 3.5 1z"/><path class="st20" d="M94.8 95s-1-4.4 1.6-7.7l-1.1-1s-2.8 6.2-.9 8.9c.1-.1.6.3.4-.2z"/><path class="st21" d="M94.5 89.9c.3-.9.6-2.2 1.3-2.7.1 0 .2 0 .1.1-.5.9-.8 1.7-1.1 2.7-.1.5-.2.9-.3 1.4-.1.6 0 1.1-.2 1.7 0 .1-.1.1-.2 0-.3-.9.1-2.2.4-3.2z"/><path class="st22" d="M98 91.8s-1.2.7-1.6 1.7c-.4 1-1.7 1.9-2.9 1.5-1.2-.5-2.4-1-2.9-.8 0 0 1.7.8 2.8 1.3 1.1.5 2.5-.3 3.4-1.6.6-1.4.6-1.9 1.2-2.1z"/></g><g><path class="st27" d="M104.9 74.4c-1.5 1.1-1.8 2-1.8 3.2-.1 1.2 3.3 7.6 4.5 11.1 1.3 3.5 6.3 13.4 10.1 17.1 3.9 3.7 8.2 6.2 9.8 6.1 1.6-.2 3.8-1.1 4.8-2 1.1-.9 3.7-4.5 2.5-6.4-1.1-1.8-11.8-10.7-13.8-13.5-1.9-2.8-8.6-16.4-9.9-16.9-1.2-.5-3.6-.6-6.2 1.3z"/><path class="st28" d="M107.3 75.6c-1.8.9-1.9 2.6-.2 7.3 1.7 4.7 8.3 15.9 9.7 17.3 1.4 1.4 8.8 8.3 10 8.9 1.2.5 4.8-1.8 4.8-3 0-1.3-11.2-11.7-12.7-13-1.4-1.3-4.1-6.7-5.6-10.1-1.4-3.4-3.8-8.4-6-7.4z"/><path class="st29" d="M132.1 107.9s1.4-2.7.8-3.5c-.6-.8-11.2-10.8-13.2-13.4-2-2.5-5.9-11-6.6-12.2-.7-1.2-1.7-3.8-2.6-4.3l-2.9-.5s2.7-1.4 3.6-.9c.8.5 9 16.1 10.6 17.8 1.6 1.6 13.4 12 13.4 13.2 0 1.2-1.4 4.9-2.7 5.7-1.3.8-.4-1.9-.4-1.9z"/><path class="st30" d="M103.8 72.1s-1.8.9-1.8 1.4c0 .5 1.2 3.2 1.2 3.2s2.2-1.1 2.4-1.4c.2-.2.4-1 .4-1s.9 0 1.3-.1 2-.8 2.1-.9c.2-.1.1-.5.1-.5s.4.4.7.4c.2 0 .6-.2.6-.2s-.1-.7-.2-.9c-.1-.2-1-1.6-1.2-1.6-.2 0-.9.2-.9.2s-.5-.4-.7-.4c-.2 0-.5.2-.5.2s-.6-.8-.8-.8c-.2 0-2.3.8-2.5 1-.3.2-.2 1.4-.2 1.4z"/><path class="st31" d="M108.3 74.5s1.8.4 2.4 1c.6.7 1.8 3.4 1.8 3.4s-1.4-2.7-2.1-3.2c-.9-.6-2.1-1.2-2.1-1.2zM105.8 75.5s-1 1.5-1 2.3c0 .8 1.3 3.8 1.3 3.8s-1.1-3.2-1-3.8c.1-.7.7-2.3.7-2.3zM114.4 83.1s2.6 5.1 3.8 6.8c1.3 1.8 5.2 6 5.2 6s-4.5-4.1-5.5-5.7c-1-1.4-3.5-7.1-3.5-7.1zM119 104.2s6.2 5.1 7.8 5.5c1 .2 3.5-1 3.5-1s-2.8 1.5-3.4 1.4c-1.3 0-5.7-4-7.9-5.9zM131.8 107.5s.6-1.6-.4-3.2c-.9-1.6-4.6-4.8-4.6-4.8s3.5 2.5 4.9 4.6c1.4 2.2.1 3.4.1 3.4z"/><path class="st32" d="M131.9 108.9c-1.3 1.1-2.1 1.9-1.6 2.2 0 0 .9.4 1.4-.3 0 0 1.1 0 1.5-1.5 0 0 1.4-.6.8-1.4-.3-.5-1.3.3-2.1 1z"/><path class="st33" d="M104.2 72.1s.8-.1 1.1.2c.3.3.6 1.5.6 1.5l-.6-.1c0-.1-.9-1.4-1.1-1.6zM108.6 70.9s.8.4.8 1.6c0 1.2.1.3.1.3l-.9-1.9z"/><path class="st31" d="M109.9 73.7s.9 0 1.4.6c.5.6 1.3 2 1.3 2s-1-1.8-2.7-2.6z"/><path class="st34" d="M107.3 76.6c-1.7.9-.2 6.3 4.8 15.2 5.6 9.8 8 10.9 9.2 9.7 1.2-1.2-4.1-7.8-5.2-9.4-3.5-5.4-6.6-16.7-8.8-15.5z"/></g><g><path class="st27" d="M111.1 111c.9 1.7 1.8 2 3 2.3 1.2.2 7.9-2.2 11.6-3 3.7-.8 14.1-4.4 18.3-7.8 4.2-3.3 7.2-7.3 7.3-8.9.1-1.6-.6-3.9-1.3-5.1-.8-1.2-4-4.3-6-3.3-2 .9-12.2 10.4-15.2 11.9s-17.4 6.3-18 7.5c-.8 1.2-1.2 3.6.3 6.4z"/><path class="st28" d="M112.7 108.8c.6 1.9 2.3 2.2 7.2 1.1s16.9-6.1 18.4-7.3c1.6-1.2 9.4-7.6 10.1-8.7.7-1.1-1.1-5-2.4-5.2-1.3-.2-13.1 9.6-14.6 10.8-1.5 1.2-7.2 3.2-10.7 4.2-3.5 1.1-8.8 2.8-8 5.1z"/><path class="st29" d="M147.9 88.5s-2.5-1.7-3.4-1.3c-.9.5-12.2 9.7-15 11.3-2.8 1.6-11.6 4.4-12.9 4.9-1.3.5-4 1.1-4.6 2l-.8 2.8s-1.1-2.9-.5-3.6c.6-.8 17.2-6.8 19-8.1 1.8-1.3 13.6-11.7 14.9-11.5 1.2.2 4.7 2 5.3 3.4.6 1.3-2 .1-2 .1z"/><path class="st30" d="M108.7 111.8s.6 1.9 1.1 2c.5.1 3.3-.8 3.3-.8s-.8-2.3-1.1-2.5c-.2-.2-.9-.5-.9-.5s.2-.9.1-1.3-.5-2.1-.6-2.2c-.1-.2-.5-.2-.5-.2s.5-.4.5-.6c0-.2-.1-.6-.1-.6s-.7 0-.9.1c-.2.1-1.7.8-1.8 1-.1.2.1.9.1.9s-.5.4-.5.6c0 .2.1.6.1.6s-.9.5-.9.7c0 .2.4 2.4.7 2.6.2.1 1.4.2 1.4.2z"/><path class="st31" d="M111.7 107.7s.6-1.7 1.3-2.2c.7-.5 3.6-1.3 3.6-1.3s-2.8 1-3.5 1.7c-.6.6-1.4 1.8-1.4 1.8zM112.3 110.2s1.3 1.2 2.1 1.3c.8.1 3.9-.8 3.9-.8s-3.4.6-3.9.5c-.5-.2-2.1-1-2.1-1zM121 102.7s5.4-1.9 7.3-2.9c1.9-1 6.6-4.3 6.6-4.3s-4.7 3.9-6.3 4.7c-1.6.8-7.6 2.5-7.6 2.5zM142.6 101s5.9-5.5 6.5-7c.4-.9-.5-3.6-.5-3.6s1.1 3 1 3.5c-.3 1.3-4.8 5.2-7 7.1zM147.6 88.7s-1.5-.8-3.2-.1c-1.7.7-5.4 3.9-5.4 3.9s2.9-3.1 5.2-4.2c2.2-1 3.4.4 3.4.4z"/><path class="st32" d="M149 88.8c.9 1.4 1.6 2.3 1.9 1.9 0 0 .5-.9-.1-1.4 0 0 .2-1.1-1.3-1.7 0 0-.4-1.4-1.3-1-.6.3.2 1.4.8 2.2z"/><path class="st33" d="M108.7 111.4s0-.8.3-1c.3-.3 1.6-.4 1.6-.4l-.2.6c0-.1-1.4.6-1.7.8zM108.1 106.9s.5-.7 1.7-.6c1.2.1.3 0 .3 0l-2 .6z"/><path class="st31" d="M111.1 106s.1-.9.7-1.3 2.2-1 2.2-1-1.9.7-2.9 2.3z"/><path class="st34" d="M113.6 108.9c.7 1.8 6.2 1 15.7-2.8 10.5-4.2 11.9-6.5 10.8-7.9-1-1.4-8.3 3.1-10 3.9-5.7 2.9-17.3 4.5-16.5 6.8z"/></g><g><path class="st5" d="M107.4 85c-.4-.1-.9-.6-1.3-.5-1.3.4-2.6 1.9-3.2 3.9-.7 2.5-2 7.1-3 9.5-1 2.4.4 5.3 2.7 7.4 2.3 2.2 4.2 2.2 5.2 2.1.9 0 1.1-1.2 2.5-1 1.4.2 3.2 1.1 4.7-.4s3.7-4.1 3.3-7.1c-.4-3.2-5.2-5.4-5.8-6.9-.5-1.3-.4-5.7-3.8-7.3-.5-.1-.8.3-1.3.3z"/><defs><path id="SVGID_18_" d="M106.1 84.5c-1.3.4-2.6 1.9-3.2 3.9-.7 2.5-2 7.1-3 9.5-1 2.4.4 5.3 2.7 7.4 2.3 2.2 4.2 2.2 5.2 2.1.9 0 1.1-1.2 2.5-1.1 1.4.2 3.2 1.1 4.7-.4s3.7-4.1 3.3-7.1c-.4-3.2-5.2-5.4-5.8-6.9-.5-1.3-.4-5.7-3.8-7.3-.2-.1-.4 0-.6.1-.2.1-.3.1-.6.1-.3-.1-.8-.5-1.2-.5l-.2.2"/></defs><clipPath id="SVGID_19_"><use xlink:href="#SVGID_18_" overflow="visible"/></clipPath><path class="st35" d="M105.9 84.5s-1.6 1-2.5 4.3c-.9 3.3-1.9 9.4-1 11.6.9 2.2 3.3 4.2 4.6 4.2 1.2 0 3.4-.1 4.2.5.9.6 3.6 1.2 5.5-1.2 0 0-.8 2.3-2.5 3.4s-3.8-.2-4.9.5c-1 .7-3.8 1.3-7.6-1.9s-4.6-4.8-3.5-7.9c1.1-3.2 3.4-6.5 3.6-8.4.3-1.9 2.6-5.5 4.1-5.1"/><path class="st7" d="M110.7 87.1c-.6-.9-1.3-1.5-1.8-1.3-.5.3-1 1.7-2.8.4-1-.7-2.3 2.4-2.6 4.7-.3 2.4-.4 8 1.9 10 2.4 2 4.1.9 5.6 1.9 3.1 2 5.9 0 6.3-2 .4-2.1-.6-4.8-2.9-6.1-2.3-1.4-2.8-2.5-2.8-4.1 0-1.6-.5-2.9-.9-3.5z"/><path class="st8" d="M109.5 86.7c-.8-.4-2.4.4-3.3 2.1-.8 1.6.1 5 1.7 8 1.6 3 6.6 6.3 8 5 1.4-1.3 1.2-4.6-.9-5.9-2-1.3-2.9-1.7-3.6-2.7-.6-1.1.4-5.5-1.9-6.5z"/><path class="st9" d="M110.5 88.6c-.7-1.3-1.6-1.5-2.5-.8-.9.7-.5 5 1 5.8 1.6.8 2.3-3.4 1.5-5zM116.2 98.7c0-1.6-.9-2.6-2.2-3.2-1.3-.6-3.2.9-3.2 2.7 0 1.9 5.5 5 5.4.5z"/><path class="st7" d="M108.9 85.3c-.1-.2-.2-.3-.5-.3-.4 0-.7.3-1.2.1-.3-.1-1-.5-1.3-.2-.1.1 0 .2.1.2.4-.1 1 .4 1.4.5.2.1.4 0 .6 0 .1 0 .2-.1.3-.1h.4c.2-.1.2-.1.2-.2z"/><path class="st8" d="M108.7 85.3c0-.3-.7-.3-.9-.2-.1.1-.1.2 0 .2h.4c.2 0 .3.1.5 0-.1.1 0 0 0 0z"/><path class="st9" d="M108.6 85.1c0-.1-.2-.1-.3-.1-.1 0-.3 0-.3.1s.1.1.2.1h.3c.1.1.2 0 .1-.1z"/><path class="st8" d="M108.6 85.2c-.1-.1-.2-.1-.4-.1-.1 0-.3 0-.4.2v.1h.8v-.2z"/><path class="st10" d="M107.2 85.9s.8-1.3.4-3.4c-.4-2.1-1.9-3.4-1.9-3.4s-1 0-1 .3c0 0 1.9 1.8 2.4 3.4.4 1.6.1 3.1 0 3.3-.3.1-.1.1.1-.2z"/><path class="st11" d="M105.7 85.6s.7-.1 1 .2c.4.3 1 .2 1.3-.2 0 0-.2.9-.9.8-.6-.1-.3-.6-1.4-.8z"/></g><g><path class="st5" d="M134.2 88.5c-.3.1-.8-.2-1.1 0-.8.7-1.3 2.2-1.1 3.7.2 2 .7 5.6.7 7.7 0 2 1.8 3.6 4.1 4.5 2.3.9 3.6.3 4.3 0 .7-.3.4-1.2 1.5-1.5 1-.3 2.6-.2 3.2-1.6.6-1.5 1.4-4 .3-6-1.3-2.2-5.3-2.3-6.1-3.2-.8-.8-2-3.9-4.9-4.1-.4.1-.5.5-.9.5z"/><defs><path id="SVGID_20_" d="M133.2 88.6c-.8.7-1.3 2.2-1.1 3.7.2 2 .7 5.6.7 7.7 0 2 1.8 3.6 4.1 4.5 2.3.9 3.6.3 4.3 0 .7-.3.4-1.2 1.5-1.5 1-.3 2.6-.2 3.2-1.6.6-1.5 1.4-4 .3-6-1.3-2.2-5.3-2.3-6.1-3.2-.8-.8-2-3.9-4.9-4.1-.2 0-.3.1-.4.2-.1.1-.2.2-.4.2-.4.1-.9-.1-1.2.1 0-.1 0 0 0 0"/></defs><clipPath id="SVGID_21_"><use xlink:href="#SVGID_20_" overflow="visible"/></clipPath><path class="st36" d="M133 88.7s-.9 1.2-.5 3.8c.3 2.6 1.4 7.3 2.7 8.6 1.3 1.3 3.6 2 4.5 1.6.9-.4 2.4-1.1 3.2-.9.8.2 2.9-.2 3.6-2.4 0 0 .1 1.8-.8 3.1s-2.8 1-3.3 1.8-2.3 2-5.9.9c-3.6-1.2-4.7-2-4.8-4.6-.1-2.6.5-5.6.1-7-.5-1.5 0-4.7 1.2-4.9"/><path class="st7" d="M137.2 89.1c-.7-.5-1.3-.7-1.6-.4-.3.3-.2 1.5-1.9 1.1-1-.2-.9 2.4-.4 4.1.5 1.8 2.1 5.8 4.3 6.6 2.3.7 3.2-.6 4.5-.3 2.8.5 4.2-1.7 3.9-3.3-.3-1.6-1.8-3.2-3.9-3.5-2-.3-2.7-1-3.2-2.1s-1.2-1.9-1.7-2.2z"/><path class="st8" d="M136.2 89.2c-.7 0-1.6 1-1.7 2.4-.1 1.4 1.5 3.5 3.6 5.2 2 1.7 6.5 2.5 7.2 1.2.6-1.4-.5-3.6-2.3-3.9-1.8-.3-2.6-.3-3.4-.8-.9-.6-1.4-4.1-3.4-4.1z"/><path class="st9" d="M137.5 90.2c-.9-.7-1.6-.6-2 .2-.4.8 1.1 3.7 2.4 3.8 1.3.1.6-3.1-.4-4zM144.5 95.8c-.5-1.2-1.4-1.6-2.5-1.6s-2 1.6-1.5 2.9c.5 1.2 5.4 1.8 4-1.3z"/><path class="st7" d="M135.4 88.4c-.1-.2-.2-.1-.4-.1-.3.1-.4.4-.8.4-.3 0-.9 0-1 .2 0 .1.1.2.2.1.3-.2.8 0 1.1 0 .2 0 .3-.1.4-.2l.2-.2c.1-.1.2-.1.3-.1v-.1z"/><path class="st8" d="M135.2 88.4c-.1-.2-.6 0-.7.1 0 .1 0 .2.1.2s.2-.1.3-.1c.1-.1.2 0 .3-.2 0 .1 0 0 0 0z"/><path class="st9" d="M135.1 88.3c-.1-.1-.1 0-.2 0s-.2.1-.2.2.1.1.2 0c.1 0 .1 0 .2-.1.1 0 .1-.1 0-.1z"/><path class="st8" d="M135.1 88.4c-.1-.1-.2 0-.3 0-.1 0-.2.1-.3.2v.1c.1 0 .2-.1.3-.1.1-.1.2-.1.3-.2z"/><path class="st10" d="M134.3 89.3s.2-1.1-.7-2.5c-.9-1.4-2.4-1.9-2.4-1.9s-.7.3-.7.5c0 0 1.9.7 2.7 1.7.8 1 .9 2.2 1 2.4-.1.1.1 0 .1-.2z"/><path class="st11" d="M133.2 89.5s.5-.3.8-.1c.4.1.8-.2.9-.5 0 0 .1.7-.4.8-.6 0-.5-.4-1.3-.2z"/><g><path class="st5" d="M180.9 79.2c-.3 0-.8-.5-1.1-.4-1.1.4-2.2 1.8-2.6 3.5-.5 2.2-1.4 6.2-2.2 8.3-.8 2.1.6 4.5 2.6 6.3 2.1 1.8 3.8 1.7 4.6 1.6.8-.1.9-1.1 2.1-1 1.2.1 2.8.8 4-.5 1.2-1.3 3-3.7 2.5-6.2-.5-2.7-4.7-4.4-5.3-5.7-.5-1.1-.6-4.9-3.6-6.1-.4-.1-.6.3-1 .2z"/><defs><path id="SVGID_22_" d="M179.7 78.9c-1.1.4-2.2 1.8-2.6 3.5-.5 2.2-1.4 6.2-2.2 8.3-.8 2.1.6 4.5 2.6 6.3 2.1 1.8 3.8 1.7 4.6 1.6.8-.1.9-1.1 2.1-1 1.2.1 2.8.8 4-.5 1.2-1.3 3-3.7 2.5-6.2-.5-2.7-4.7-4.4-5.3-5.7-.5-1.1-.6-4.9-3.6-6.1-.2-.1-.3 0-.5.1-.1.1-.3.1-.5.1-.2-.1-.6-.5-1.1-.4.1 0 .1 0 0 0"/></defs><clipPath id="SVGID_23_"><use xlink:href="#SVGID_22_" overflow="visible"/></clipPath><path class="st37" d="M179.5 79s-1.4.9-2 3.8c-.6 2.8-1.2 8.2-.3 10.1.9 1.9 3.1 3.5 4.1 3.4 1.1-.1 2.9-.3 3.7.2.8.5 3.2.9 4.7-1.3 0 0-.6 2-2 3.1s-3.3 0-4.2.7c-.9.6-3.2 1.3-6.6-1.3-3.4-2.6-4.2-3.9-3.4-6.7.8-2.8 2.6-5.7 2.7-7.4.2-1.7 2-4.9 3.3-4.6"/><path class="st7" d="M183.8 80.9c-.6-.8-1.2-1.3-1.6-1-.4.2-.8 1.5-2.4.4-.9-.6-1.9 2.1-2 4.2-.2 2.1 0 6.9 2.1 8.6 2.1 1.6 3.6.6 4.9 1.3 2.8 1.6 5.1-.3 5.4-2 .3-1.8-.8-4.1-2.8-5.1-2-1.1-2.5-2-2.6-3.4-.1-1.4-.6-2.4-1-3z"/><path class="st8" d="M182.8 80.7c-.7-.3-2.1.5-2.7 1.9-.6 1.5.3 4.3 1.8 6.8s6 5.1 7.1 3.9c1.2-1.2.8-4-1-5s-2.6-1.3-3.3-2.2c-.6-.8.1-4.7-1.9-5.4z"/><path class="st9" d="M183.7 82.3c-.6-1.1-1.4-1.2-2.2-.6-.7.7-.2 4.3 1.1 4.9 1.4.6 1.8-3 1.1-4.3zM189 90.7c-.1-1.4-.9-2.2-2-2.7-1.2-.4-2.7.9-2.6 2.5 0 1.6 5 4.1 4.6.2z"/><path class="st7" d="M182.2 79.5c-.1-.2-.2-.2-.4-.2-.4 0-.6.3-1 .1-.3-.1-.9-.4-1.1-.1-.1.1 0 .2.1.2.3-.1.9.3 1.2.4h.5c.1 0 .2-.1.3-.1h.4c-.1-.2 0-.3 0-.3z"/><path class="st8" d="M182 79.5c0-.3-.6-.3-.8-.1-.1.1-.1.2 0 .2h.4c.1-.1.2 0 .4-.1-.1 0 0 0 0 0z"/><path class="st9" d="M181.9 79.3c0-.1-.1-.1-.2-.1s-.2 0-.2.1.1.1.2.1h.2c0 .1.1 0 0-.1z"/><path class="st8" d="M181.9 79.4c-.1-.1-.2-.1-.3-.1-.1 0-.3 0-.4.1v.1h.3c.1 0 .2 0 .4-.1 0 .1 0 0 0 0z"/><path class="st10" d="M180.7 80.1s.6-1.1.2-2.9c-.5-1.8-1.8-2.8-1.8-2.8s-.8 0-.9.3c0 0 1.7 1.5 2.2 2.8.5 1.3.2 2.7.1 2.8-.1.1.1 0 .2-.2z"/><path class="st11" d="M179.4 79.9s.6-.1.9.2c.3.3.9.1 1.1-.2 0 0-.2.8-.7.7-.6-.2-.4-.6-1.3-.7z"/></g><g><path class="st5" d="M161 78.6c-.3-.3-.6-1.1-1.1-1.2-1.6-.3-3.8.6-5.4 2.4-2.1 2.3-5.9 6.4-8.2 8.3-2.4 2-2.4 5.7-1.2 9.2 1.2 3.5 3.3 4.5 4.3 5s1.8-.7 3.2.2c1.3.9 2.8 2.9 5.1 2.1 2.3-.8 6-2.3 7.2-5.6 1.2-3.6-2.5-8.4-2.4-10.3.1-1.7 2.6-6.2-.1-9.6-.4-.4-.9-.1-1.4-.5z"/><defs><path id="SVGID_24_" d="M159.9 77.4c-1.6-.3-3.8.6-5.4 2.4-2.1 2.3-5.9 6.4-8.2 8.3-2.4 2-2.4 5.7-1.2 9.2 1.2 3.5 3.3 4.5 4.3 5s1.8-.7 3.2.2c1.3.9 2.8 2.9 5.1 2.1 2.3-.8 6-2.3 7.2-5.6 1.2-3.6-2.5-8.4-2.4-10.3.1-1.7 2.6-6.2-.1-9.6-.2-.2-.4-.2-.6-.2-.2 0-.4 0-.7-.2-.3-.2-.6-1-.9-1.2-.2 0-.2-.1-.3-.1"/></defs><clipPath id="SVGID_25_"><use xlink:href="#SVGID_24_" overflow="visible"/></clipPath><path class="st38" d="M159.6 77.4s-2.2.2-4.9 3.1-7 8.8-7.2 11.6c-.2 2.8 1.2 6.1 2.5 6.8 1.3.6 3.6 1.7 4.2 2.8.6 1.1 3.1 3.2 6.4 1.7 0 0-2 2-4.4 2.2-2.4.3-3.9-2.2-5.4-2-1.5.2-4.6-.6-6.9-6-2.3-5.4-2.2-7.4.6-10.1 2.8-2.7 7-5 8.2-6.9 1.3-1.9 5.6-4.4 6.9-3.2"/><path class="st7" d="M163.3 82.6c-.1-1.3-.5-2.3-1.2-2.3-.6 0-1.9 1.2-3.1-1.1-.7-1.3-3.6 1.3-5.2 3.6s-4.7 8.2-3.3 11.5c1.4 3.4 3.8 3.1 4.8 4.9 2.1 3.8 6.2 3.2 7.7 1.3 1.5-1.9 1.9-5.3.2-8-1.7-2.6-1.6-4.1-.8-5.7.8-1.7 1-3.3.9-4.2z"/><path class="st8" d="M162.3 81.6c-.6-.8-2.8-.9-4.5.4-1.7 1.3-2.5 5.3-2.5 9.3 0 4 3.5 10.1 5.7 9.5 2.2-.6 3.6-4.1 2.2-6.6-1.4-2.4-2.2-3.3-2.4-4.8-.1-1.5 3.3-5.5 1.5-7.8z"/><path class="st9" d="M162.3 84.1c0-1.7-.8-2.4-2.2-2.2-1.3.3-3.2 4.9-2 6.6 1.2 1.7 4.2-2.4 4.2-4.4zM162.8 97.7c.8-1.7.5-3.2-.6-4.5-1.1-1.3-3.8-.7-4.8 1.1-1 1.9 3.1 8.1 5.4 3.4z"/><path class="st7" d="M162.4 79.8c.1-.3-.1-.4-.3-.6-.4-.3-.9-.1-1.3-.6-.3-.3-.8-1-1.3-.9-.2 0-.1.3 0 .3.5.1.8.9 1.1 1.3.2.2.4.3.7.3.1 0 .3 0 .4.1.1 0 .3.2.4.2.2 0 .3 0 .3-.1z"/><path class="st8" d="M162.1 79.6c.2-.4-.5-.7-.8-.7-.1 0-.2.2-.1.3.1.1.3.1.4.2.1.1.2.2.4.2.1.1.1.1.1 0z"/><path class="st9" d="M162.2 79.5c0-.1-.1-.2-.2-.3-.1-.1-.3-.1-.4 0-.1.1.1.2.1.2.1 0 .2.1.3.2.1 0 .2-.1.2-.1z"/><path class="st8" d="M162.1 79.5c0-.2-.2-.3-.3-.3-.2-.1-.4-.1-.5-.1 0 0-.1.1 0 .1.1.1.3.1.4.2.1 0 .3.1.4.2v-.1z"/><path class="st10" d="M160.3 79.4s1.5-.9 2.2-3.4c.7-2.4-.2-4.6-.2-4.6s-1-.5-1.2-.3c0 0 1 2.9.7 4.8-.4 1.9-1.6 3.3-1.8 3.4-.3.3-.1.4.3.1z"/><path class="st11" d="M158.9 78.4s.7.3 1 .8c.2.5 1 .7 1.5.5 0 0-.7.8-1.3.3-.7-.5-.2-.8-1.2-1.6z"/></g><g><path class="st14" d="M142.9 92.7c.8-.1 2.6-2.3 4.9-2.5 2.4-.1 6 2.5 5.8 6.7-.2 4.2-3.3 7.9-5.1 8.4-1.9.6-2.6 0-2.9-.1-.4 0-.8.9-2.3 1.1-1.5.2-5.8-2.7-7.1-6.1-1.3-3.4.7-6.7 2.5-7.4 1.9-.4 3.2 0 4.2-.1z"/><defs><path id="SVGID_26_" d="M153.7 97c-.2 4.2-3.3 7.9-5.1 8.4-1.9.6-2.6 0-2.9-.1-.4 0-.8.9-2.3 1.1-1.5.2-5.8-2.7-7.1-6.1-1.3-3.4.7-6.7 2.5-7.4 1.2-.4 2.2-.4 3-.3h1.2c.8-.1 2.6-2.3 4.9-2.5h.2c2.3.1 5.8 2.7 5.6 6.9"/></defs><clipPath id="SVGID_27_"><use xlink:href="#SVGID_26_" overflow="visible"/></clipPath><path id="XMLID_10_" class="st39" d="M138.7 93c.2 0-1.6 1.1-1.9 3.1-.4 2.2.5 4.9 3.4 6.7 4.8 2.9 8.9 3.1 12.8-1.4 0 0-.6 5.3-6.8 6.6-6.3 1.3-9-3.3-10.5-6.4-1.5-3.2.4-8.4 3-8.6"/><path class="st16" d="M148.3 104.1c1.1-.1 3.1-.9 4.3-4.6 1.2-3.7-.4-6.2-1.3-7-.8-.8-2.1-1.7-3.8-1-1.7.7-1.8 2.5-3.7 3.5-1.8 1-3.7.2-4.4-.1-.7-.3-2.1 1.1-1.1 4 1.2 3.9 6.7 5.4 10 5.2z"/><path class="st17" d="M140.3 98.1c.4 1.1 3.6 4.4 6.7 3.8 3.1-.6 5.5-3 5.5-5.3s-1.2-5-3.3-4.8c-2.1.2-3.3 1.6-3.8 2.2-2.4 3.3-6.2.8-5.1 4.1z"/><path class="st18" d="M143.6 97.9c-1.1-.8-.7-1.6.6-2.2 1.3-.6 2-.8 2.3-2.3.3-1.4 1.8-1.9 2.8-1.4 1 .5 1.9 2.6-.6 4.6-2.6 2-4.5 1.7-5.1 1.3zM150.9 93.3c-.1-.1-.1-.3-.1-.5 0-.1.1-.2.2-.2s.2.1.3.2c.1.1.1.3.1.4-.1.3-.4.3-.5.1z"/><path class="st16" d="M139.3 93.4c.7-.7 1.9-.5 2.8-.4 1.3.1 2.1-.9 3.1-1.6.6-.4 1.3-.7 2-.8.4-.1 1.3-.4 1.6.1v.1c-1.6-.1-2.9.8-4 1.8-.7.6-1.4 1.1-2.3 1.1-.4 0-.9 0-1.3-.1-.6 0-1.1.1-1.6.2-.3-.1-.4-.3-.3-.4z"/><path class="st18" d="M144.5 92c.1-.4.6-.7 1-.9.4-.2.8-.5 1.3-.4.1 0 .1.1 0 .1-.4.2-.8.3-1.2.6-.3.2-.6.6-1 .7-.1.1-.2 0-.1-.1z"/><path class="st19" d="M143.2 94.5c.4-.1.8-.4 1.2-.9.4-.5.5-.7.5-.9 0-.1-.6.2-.9.5-.3.3-.7.7-1.5.6-.8 0-1.8-.3-1.8 0-.1.4 1.9.8 2.5.7z"/><path class="st20" d="M143.3 94.3s-.8-3.2 1.2-5.7l-.8-.8s-2.1 4.6-.6 6.5c-.1.2.3.4.2 0z"/><path class="st21" d="M143 90.6c.2-.6.4-1.6 1-2 0 0 .1 0 .1.1-.4.6-.6 1.3-.8 2-.1.3-.2.7-.2 1.1-.1.4 0 .8-.1 1.2 0 .1-.1.1-.1 0-.4-.7-.1-1.7.1-2.4z"/><path class="st22" d="M145.6 92s-.9.5-1.2 1.2c-.3.7-1.3 1.4-2.2 1.1-.9-.4-1.8-.7-2.1-.6l2 1c.8.4 1.9-.2 2.5-1.2.6-1 .6-1.3 1-1.5z"/></g><g><path class="st14" d="M189.6 87.1c.8-.1 2.6-2.4 5.1-2.5 2.4-.1 6.2 2.6 6 7-.2 4.4-3.4 8.2-5.3 8.7-1.9.6-2.6 0-3-.1-.4-.1-.9.9-2.4 1.2-1.5.3-6-2.8-7.4-6.3-1.3-3.6.7-7 2.6-7.6 1.9-.7 3.2-.3 4.4-.4z"/><defs><path id="SVGID_28_" d="M200.6 91.6c-.2 4.4-3.4 8.2-5.3 8.7-1.9.6-2.6 0-3-.1-.4-.1-.9.9-2.4 1.2-1.5.3-6-2.8-7.4-6.3-1.3-3.6.7-7 2.6-7.6 1.3-.4 2.3-.4 3.1-.3h1.2c.8-.1 2.6-2.4 5.1-2.5h.2c2.6-.1 6.1 2.6 5.9 6.9"/></defs><clipPath id="SVGID_29_"><use xlink:href="#SVGID_28_" overflow="visible"/></clipPath><path id="XMLID_9_" class="st40" d="M185.2 87.5c.2 0-1.6 1.1-2 3.2-.4 2.3.5 5.1 3.6 7 4.9 3 9.2 3.2 13.2-1.4 0 0-.6 5.5-7.1 6.8-6.5 1.3-9.3-3.4-10.8-6.6-1.6-3.4.4-8.8 3.1-9"/><path class="st16" d="M195.1 98.9c1.2-.1 3.2-.9 4.5-4.8 1.2-3.9-.4-6.5-1.3-7.3-.9-.8-2.2-1.8-4-1-1.8.7-1.9 2.6-3.8 3.6s-3.8.2-4.6-.1c-.7-.3-2.1 1.1-1.2 4.1 1.3 4.2 7 5.8 10.4 5.5z"/><path class="st17" d="M186.9 92.7c.4 1.2 3.7 4.5 6.9 3.9 3.2-.6 5.6-3.1 5.7-5.5 0-2.4-1.2-5.2-3.4-5-2.2.2-3.4 1.6-3.9 2.3-2.6 3.5-6.5.9-5.3 4.3z"/><path class="st18" d="M190.2 92.5c-1.1-.8-.8-1.6.6-2.2 1.3-.6 2-.9 2.3-2.4.3-1.5 1.9-1.9 2.9-1.5 1.1.5 2 2.6-.7 4.7-2.5 2.2-4.5 1.8-5.1 1.4zM197.8 87.8c-.1-.2-.1-.3-.1-.5-.1-.1.1-.3.2-.2.1 0 .2.1.3.2.1.1.1.3.1.4-.1.3-.4.3-.5.1z"/><path class="st16" d="M185.8 87.8c.7-.7 2-.5 2.9-.4 1.4.1 2.2-.9 3.2-1.7.6-.4 1.3-.7 2-.9.4-.1 1.3-.4 1.6.1v.1c-1.6-.1-3 .8-4.1 1.9-.7.6-1.4 1.1-2.4 1.2-.4 0-.9 0-1.3-.1-.6 0-1.1.1-1.7.2-.2 0-.4-.2-.2-.4z"/><path class="st18" d="M191.1 86.5c.1-.4.6-.7 1-.9.4-.2.9-.5 1.3-.5.1 0 .1.1 0 .1-.4.2-.8.3-1.2.6-.3.2-.6.6-1 .7 0 .1-.1 0-.1 0z"/><path class="st19" d="M189.8 89c.4-.1.8-.4 1.2-.9.4-.5.5-.8.5-.9 0-.1-.6.2-.9.5-.3.3-.7.7-1.5.6-.8 0-1.9-.3-1.9 0-.1.4 2 .9 2.6.7z"/><path class="st20" d="M189.9 88.8s-.8-3.3 1.2-5.8l-.8-.8s-2.1 4.7-.7 6.8c0 0 .4.2.3-.2z"/><path class="st21" d="M189.7 85c.2-.7.4-1.6 1-2.1 0 0 .1 0 .1.1-.4.7-.6 1.3-.8 2.1-.1.4-.2.7-.2 1.1-.1.4 0 .9-.1 1.3 0 .1-.1.1-.1 0-.5-.7-.2-1.8.1-2.5z"/><path class="st22" d="M192.3 86.4s-.9.5-1.3 1.3c-.3.8-1.3 1.5-2.2 1.1-.9-.4-1.8-.8-2.2-.6 0 0 1.3.6 2.1 1s1.9-.2 2.6-1.3c.6-.9.6-1.3 1-1.5z"/></g><g><path class="st14" d="M167.1 98.5c.7.2 3-1 5.1-.3 2.1.8 4.2 4.3 2.5 7.9-1.7 3.5-5.7 5.5-7.5 5.3-1.8-.2-2.2-.9-2.5-1.1-.3-.2-1 .5-2.4.1-1.3-.3-4-4.5-3.8-7.9.2-3.4 3.1-5.5 4.9-5.3 1.8.2 2.8 1 3.7 1.3z"/><defs><path id="SVGID_30_" d="M174.7 106.1c-1.7 3.5-5.7 5.5-7.5 5.3-1.8-.2-2.2-.9-2.5-1.1-.3-.2-1 .5-2.4.1-1.3-.3-4-4.5-3.8-7.9.2-3.4 3.1-5.5 4.9-5.3 1.2.1 2 .5 2.7.8.4.2.7.3 1 .4.7.2 3-1 5.1-.3.1 0 .1 0 .2.1 2 1 4 4.5 2.3 7.9"/></defs><clipPath id="SVGID_31_"><use xlink:href="#SVGID_30_" overflow="visible"/></clipPath><path id="XMLID_8_" class="st41" d="M163.4 97.2c.2.1-1.7.3-2.8 1.9-1.2 1.7-1.4 4.4.5 7 3 4.3 6.5 5.9 11.4 3.5 0 0-2.4 4.3-8.3 3.1-5.8-1.2-6.5-6.1-6.6-9.4-.1-3.1 3.5-6.9 5.8-6.1"/><path class="st16" d="M167.5 110.2c1 .4 3 .4 5.4-2.4 2.4-2.7 2-5.5 1.5-6.5-.4-1-1.2-2.2-2.9-2.3-1.7 0-2.5 1.5-4.4 1.6-1.9.2-3.2-1.2-3.8-1.7-.5-.5-2.2.1-2.4 3-.4 4 3.7 7.3 6.6 8.3z"/><path class="st17" d="M162.9 102.1c-.1 1.1 1.4 5 4.3 5.7 2.9.7 5.8-.5 6.7-2.5.9-1.9.8-4.7-1-5.3-1.9-.6-3.4.1-4 .5-3.4 1.9-5.7-1.6-6 1.6z"/><path class="st18" d="M165.8 103.2c-.7-1.1 0-1.6 1.3-1.6s2 0 2.8-1.1c.8-1.1 2.2-.9 2.9-.2.7.8.7 2.9-2.2 3.7-3 .7-4.5-.2-4.8-.8zM173.7 102c0-.1.1-.3.1-.4 0-.1.1-.2.2-.1s.2.2.2.3c0 .1 0 .3-.1.4-.1.1-.4 0-.4-.2z"/><path class="st16" d="M163.8 97.7c.8-.3 1.8.3 2.5.7 1.1.5 2.1 0 3.3-.2.6-.2 1.3-.1 2 0 .4.1 1.3.1 1.3.7 0 0 0 .1-.1 0-1.3-.7-2.8-.4-4.1.1-.8.3-1.6.4-2.4.1-.4-.1-.7-.4-1.1-.5-.5-.2-1-.3-1.5-.4 0-.2-.1-.4.1-.5z"/><path class="st18" d="M168.7 98.5c.2-.3.8-.4 1.1-.4.4 0 .9-.1 1.3.1v.1c-.4 0-.8 0-1.2.1-.4.1-.7.3-1.1.2-.1.1-.2 0-.1-.1z"/><path class="st19" d="M166.7 100.2c.4.1.8 0 1.3-.3.5-.2.7-.4.7-.6 0-.1-.6-.1-1 .1-.4.1-.8.3-1.5 0-.6-.3-1.4-.9-1.5-.7-.1.2 1.4 1.3 2 1.5z"/><path class="st20" d="M166.8 100s.5-3 3.1-4.4l-.4-.9s-3.4 3.1-3 5.3c.1.1.3.4.3 0z"/><path class="st21" d="M168 96.8c.4-.5.9-1.2 1.6-1.3.1 0 .1.1 0 .1-.6.4-1 .9-1.4 1.4-.2.3-.4.5-.6.8-.2.3-.3.7-.6 1 0 .1-.1 0-.1 0 0-.8.6-1.5 1.1-2z"/><path class="st22" d="M169.6 98.9s-.9.1-1.5.6c-.5.5-1.6.8-2.2.1-.6-.6-1.2-1.3-1.6-1.3 0 0 .8 1 1.4 1.6.5.6 1.7.5 2.6-.1.8-.6 1-.9 1.3-.9z"/></g><g><path class="st14" d="M204.9 85c.7.3 3.2-.6 5.1.5 1.9 1.1 3.5 4.9 1.3 8.2-2.2 3.3-6.5 4.6-8.2 4.2-1.7-.5-2-1.3-2.3-1.5-.3-.2-1.1.3-2.4-.2-1.3-.5-3.3-5-2.6-8.4.7-3.4 3.8-5 5.6-4.6 1.8.4 2.6 1.3 3.5 1.8z"/><defs><path id="SVGID_32_" d="M211.3 93.6c-2.2 3.3-6.5 4.6-8.2 4.2-1.7-.5-2-1.3-2.3-1.5-.3-.2-1.1.3-2.4-.2-1.3-.5-3.3-5-2.6-8.4.7-3.4 3.8-5 5.6-4.6 1.2.3 1.9.8 2.6 1.2l.9.6c.7.3 3.2-.6 5.1.5.1 0 .1.1.1.1 2 1.2 3.4 5 1.2 8.1"/></defs><clipPath id="SVGID_33_"><use xlink:href="#SVGID_32_" overflow="visible"/></clipPath><path id="XMLID_7_" class="st42" d="M201.4 83.2c.2.1-1.8.1-3 1.5-1.4 1.6-2 4.2-.6 7 2.3 4.7 5.5 6.8 10.8 5.2 0 0-3 3.9-8.6 1.8-5.6-2.1-5.5-7-5.1-10.2.3-3.3 4.4-6.5 6.5-5.3"/><path class="st16" d="M203.5 96.6c.9.5 2.9.8 5.7-1.5 2.8-2.4 2.8-5.1 2.5-6.2-.3-1.1-.9-2.4-2.6-2.7-1.7-.3-2.7 1.1-4.6 1-1.9-.1-3-1.7-3.5-2.3-.4-.6-2.2-.2-2.9 2.6-.8 3.8 2.8 7.7 5.4 9.1z"/><path class="st17" d="M200.2 88c-.3 1.1.7 5.2 3.4 6.3 2.7 1.1 5.8.3 6.9-1.5 1.2-1.8 1.5-4.5-.2-5.4-1.7-.9-3.4-.4-4.1-.1-3.5 1.3-5.2-2.5-6 .7z"/><path class="st18" d="M202.9 89.4c-.5-1.2.2-1.6 1.5-1.4 1.3.2 2 .3 2.9-.7 1-1 2.4-.6 2.9.3.6.9.3 3-2.8 3.3-2.9.3-4.2-.9-4.5-1.5zM210.9 89.4c0-.1.1-.3.1-.4 0-.1.2-.2.2-.1.1.1.1.2.1.3 0 .1-.1.3-.1.4 0 .2-.3 0-.3-.2z"/><path class="st16" d="M201.7 83.7c.9-.2 1.7.6 2.4 1 1 .7 2.1.4 3.3.2.7-.1 1.3.1 2 .3.4.1 1.2.3 1.2.8 0 0 0 .1-.1 0-1.2-.8-2.7-.8-4-.5-.8.2-1.6.2-2.4-.2-.3-.2-.7-.5-1-.7-.4-.3-.9-.4-1.4-.7-.1.1-.2-.1 0-.2z"/><path class="st18" d="M206.5 85.2c.3-.3.8-.2 1.2-.2.4 0 .9 0 1.2.3v.1c-.4 0-.8-.1-1.2-.1-.4 0-.8.2-1.1.1-.2 0-.2-.1-.1-.2z"/><path class="st19" d="M204.2 86.6c.4.1.8.1 1.4-.1.6-.2.8-.3.8-.5 0-.1-.6-.2-.9-.1-.4.1-.9.2-1.5-.2s-1.3-1.1-1.4-.9c-.2.2 1.1 1.6 1.6 1.8z"/><path class="st20" d="M204.4 86.5s1-2.9 3.7-3.9l-.3-1s-3.9 2.6-3.7 4.8c0 0 .2.4.3.1z"/><path class="st21" d="M206 83.4c.5-.4 1.1-1.1 1.8-1.1.1 0 .1.1 0 .1-.6.3-1.1.7-1.6 1.2l-.7.7c-.2.3-.4.7-.7.9-.1 0-.1 0-.1-.1.1-.6.8-1.2 1.3-1.7z"/><path class="st22" d="M207.4 85.8s-.9 0-1.6.4c-.6.4-1.7.5-2.2-.2-.5-.7-1-1.4-1.4-1.5 0 0 .7 1.1 1.1 1.8.4.7 1.6.7 2.6.3.9-.6 1.1-.9 1.5-.8z"/></g><g><path class="st14" d="M158.8 88.5c1 .4 4.6-1.1 7.5.3 2.9 1.4 5.5 6.9 2.5 11.8s-9 7.2-11.6 6.7c-2.6-.6-3-1.7-3.5-2-.4-.3-1.6.5-3.5-.1-1.9-.7-5.2-7-4.4-12 .7-4.9 5.2-7.5 7.9-7.1 2.5.5 3.7 1.8 5.1 2.4z"/><defs><path id="SVGID_34_" d="M168.7 100.6c-3 4.9-9 7.2-11.6 6.7-2.6-.6-3-1.7-3.5-2-.4-.3-1.6.5-3.5-.1-1.9-.7-5.2-7-4.4-12 .7-4.9 5.2-7.5 7.9-7.1 1.7.3 2.9 1 3.8 1.6.5.3.9.6 1.4.8 1 .4 4.6-1.1 7.5.3.1 0 .2.1.2.1 2.8 1.6 5.1 6.9 2.2 11.7"/></defs><clipPath id="SVGID_35_"><use xlink:href="#SVGID_34_" overflow="visible"/></clipPath><path id="XMLID_6_" class="st43" d="M153.5 86.1c.2.1-2.6.3-4.3 2.4-1.9 2.4-2.7 6.2-.3 10.3 3.8 6.6 8.5 9.5 16.1 6.7 0 0-4.1 5.9-12.5 3.3-8.3-2.6-8.5-9.8-8.2-14.5.3-4.7 6-9.7 9.2-8.2"/><path class="st16" d="M157.6 105.5c1.4.7 4.3 1 8.2-2.7 3.9-3.6 3.6-7.7 3.1-9.2-.5-1.5-1.4-3.4-3.9-3.7-2.5-.3-3.8 1.8-6.7 1.7-2.8 0-4.5-2.2-5.2-3-.7-.8-3.2-.1-4 4-1 5.6 4.5 11.1 8.5 12.9z"/><path class="st17" d="M152.1 93.2c-.3 1.6 1.4 7.5 5.4 8.9 4.1 1.4 8.4 0 10-2.7 1.6-2.7 1.8-6.7-.8-7.9-2.6-1.1-5-.3-5.9.1-5 2.4-7.8-3.1-8.7 1.6z"/><path class="st18" d="M156.1 95.1c-.8-1.7.2-2.4 2.1-2.2 1.9.2 2.9.3 4.2-1.2 1.3-1.5 3.4-1 4.3.2.9 1.2.6 4.3-3.8 5-4.4.7-6.4-.9-6.8-1.8zM167.8 94.5c0-.2.1-.4.1-.6 0-.2.2-.3.4-.1.1.1.2.3.2.4 0 .2-.1.4-.2.6-.1.2-.5 0-.5-.3z"/><path class="st16" d="M154 86.9c1.3-.4 2.5.7 3.6 1.3 1.6 1 3.1.4 4.8.1 1-.1 2 0 2.9.3.6.2 1.8.4 1.8 1.1 0 .1-.1.1-.1.1-1.8-1.1-4-1-5.9-.5-1.2.3-2.3.4-3.4-.2l-1.5-.9c-.7-.4-1.4-.5-2.1-.9-.3 0-.4-.3-.1-.4z"/><path class="st18" d="M161 88.7c.4-.4 1.2-.4 1.7-.4.6 0 1.3 0 1.8.3.1 0 0 .1 0 .1-.6 0-1.2-.1-1.8 0-.5.1-1.1.3-1.6.2-.2 0-.2-.1-.1-.2z"/><path class="st19" d="M157.8 90.8c.5.2 1.1 0 2-.2.8-.3 1.1-.6 1.1-.7 0-.2-.8-.2-1.4-.1-.5.1-1.3.3-2.2-.2-.9-.5-2-1.5-2.1-1.2-.2.3 1.8 2.2 2.6 2.4z"/><path class="st20" d="M158.1 90.7s1.2-4.3 5.1-5.9l-.5-1.4s-5.4 4.1-5.1 7.3c.1-.1.4.5.5 0z"/><path class="st21" d="M160.2 86.1c.6-.6 1.5-1.6 2.5-1.7.1 0 .1.1.1.1-.9.5-1.6 1.1-2.3 1.9-.3.4-.7.7-.9 1.1-.3.4-.5 1-.9 1.4-.1.1-.2 0-.2-.1 0-1.1 1-2 1.7-2.7z"/><path class="st22" d="M162.3 89.4s-1.4 0-2.3.7c-.9.7-2.4.9-3.3-.1-.8-1-1.6-2-2.2-2.1 0 0 1.1 1.5 1.8 2.5s2.4 1 3.7.2c1.5-.8 1.8-1.3 2.3-1.2z"/></g><g><path class="st27" d="M159.7 80.5c-.8 1.7-.6 2.6-.1 3.7s6.5 5.1 9.3 7.6c2.8 2.5 11.9 8.8 17.1 10.2 5.2 1.4 10.2 1.5 11.5.6 1.4-.9 2.8-2.7 3.3-4 .5-1.3 1.1-5.7-.8-6.8-1.9-1-15.6-3.7-18.6-5.2-3-1.5-15.4-10.3-16.7-10.1-1.4.1-3.6 1.2-5 4z"/><path class="st28" d="M162.4 80.5c-1.2 1.6-.4 3.2 3.3 6.5 3.7 3.3 14.9 10 16.8 10.6 1.9.6 11.7 3.1 13 3 1.3-.1 3.4-3.8 2.8-5-.6-1.1-15.5-4.9-17.3-5.4-1.9-.4-6.8-3.9-9.7-6.2-2.9-2.2-7.5-5.4-8.9-3.5z"/><path class="st29" d="M199.6 97s-.1-3-1-3.5-15-4.1-18-5.4c-3-1.3-10.4-6.8-11.6-7.5-1.2-.7-3.3-2.5-4.3-2.5l-2.8 1s1.7-2.6 2.7-2.5c1 0 15.6 9.9 17.8 10.6 2.2.7 17.5 4.1 18.1 5.2.6 1.1 1.1 5 .4 6.3-.8 1.1-1.3-1.7-1.3-1.7z"/><path class="st30" d="M157.6 79.1s-1.2 1.6-.9 2.1c.2.4 2.6 2.2 2.6 2.2s1.4-2 1.4-2.4c.1-.3-.1-1-.1-1s.8-.4 1.1-.7c.3-.3 1.4-1.7 1.4-1.8.1-.2-.1-.5-.1-.5s.6.1.8 0c.2-.1.4-.5.4-.5s-.4-.5-.6-.7c-.2-.1-1.7-.9-1.9-.9-.2.1-.7.6-.7.6s-.6-.1-.8 0c-.2.1-.4.4-.4.4s-.9-.4-1.1-.4c-.2.1-1.7 1.8-1.7 2.1 0 .5.6 1.5.6 1.5z"/><path class="st31" d="M162.7 79.1s1.7-.5 2.6-.2c.8.3 3.2 2.2 3.2 2.2s-2.5-1.7-3.4-1.8c-.9-.3-2.4-.2-2.4-.2zM161.1 81.1s-.2 1.8.2 2.5 3 2.7 3 2.7-2.5-2.3-2.7-2.9c-.3-.6-.5-2.3-.5-2.3zM172.2 83.7s4.7 3.2 6.6 4.2c1.9 1 7.4 2.8 7.4 2.8s-5.9-1.5-7.5-2.3c-1.6-1-6.5-4.7-6.5-4.7zM186.4 100s7.9 1.5 9.4 1.1c1-.3 2.6-2.5 2.6-2.5s-1.8 2.6-2.3 2.9c-1.1.5-6.9-.8-9.7-1.5zM199.2 96.8s-.3-1.7-1.9-2.7c-1.6-1-6.3-2-6.3-2s4.3.5 6.5 1.7c2.2 1.3 1.7 3 1.7 3z"/><path class="st32" d="M199.9 98c-.6 1.6-.9 2.7-.4 2.7 0 0 1-.1 1.1-.9 0 0 1-.5.6-2 0 0 .9-1.2.1-1.7-.5-.3-1 .9-1.4 1.9z"/><path class="st33" d="M158 78.8s.6-.5 1-.4c.4.1 1.3 1 1.3 1l-.6.2c0 .1-1.4-.6-1.7-.8zM161.3 75.7s.9 0 1.5 1 .2.2.2.2l-1.7-1.2z"/><path class="st31" d="M163.8 77.6s.8-.4 1.5-.2c.7.3 2.1 1.2 2.1 1.2s-1.8-1.2-3.6-1z"/><path class="st34" d="M162.9 81.3c-1.1 1.6 2.9 5.6 11.5 11 9.6 6 12.2 5.8 12.7 4.1.5-1.7-7.4-4.9-9-5.8-5.8-2.9-13.9-11.3-15.2-9.3z"/></g><g><path class="st27" d="M180.4 106.1c.7 1.9 1.5 2.4 2.7 2.8 1.2.4 8.6-1.1 12.5-1.4 3.9-.3 15.3-2.5 20.1-5.3 4.8-2.8 8.6-6.5 8.9-8.2.3-1.7 0-4.1-.6-5.4-.6-1.3-3.5-5-5.7-4.3-2.2.7-14.2 9-17.5 10.1-3.4 1.1-18.9 4-19.8 5.1-1 1-1.8 3.4-.6 6.6z"/><path class="st28" d="M182.3 104c.3 2 2.1 2.6 7.3 2.3 5.2-.4 18.4-3.8 20.2-4.8 1.8-1 10.9-6.5 11.8-7.5.9-1-.4-5.3-1.7-5.7-1.3-.4-15 8-16.7 9.1-1.7 1.1-8 2.2-11.7 2.8-3.9.3-9.6 1.3-9.2 3.8z"/><path class="st29" d="M221.9 88.2s-2.3-2.2-3.3-1.8c-1 .3-14.1 8.2-17.2 9.5-3.1 1.3-12.7 2.8-14.1 3.2-1.4.4-4.3.6-5 1.4l-1.3 2.8s-.7-3.1.1-3.9c.7-.7 18.8-4.5 20.9-5.6 2.1-1.1 15.9-10.1 17.1-9.7 1.2.4 4.5 2.8 5 4.3.3 1.4-2.2-.2-2.2-.2z"/><path class="st30" d="M177.7 106.5s.4 2 .9 2.2c.5.2 3.5-.3 3.5-.3s-.5-2.5-.7-2.8c-.2-.3-.9-.6-.9-.6s.3-.9.3-1.3-.2-2.2-.3-2.4c-.1-.2-.4-.3-.4-.3s.5-.3.6-.6c.1-.2 0-.7 0-.7s-.7-.1-1 0c-.2.1-1.9.6-2 .8-.1.2 0 1 0 1s-.5.4-.6.6c-.1.2.1.6.1.6s-1 .4-1.1.5c-.1.2.1 2.5.3 2.8.1.3 1.3.5 1.3.5z"/><path class="st31" d="M181.5 102.7s.9-1.7 1.7-2.1c.8-.4 3.9-.8 3.9-.8s-3.1.6-3.9 1.2c-.7.6-1.7 1.7-1.7 1.7zM181.8 105.4s1.2 1.5 2 1.7c.8.2 4.2-.3 4.2-.3s-3.6.2-4.1-.1c-.7-.2-2.1-1.3-2.1-1.3zM191.9 98.9s5.8-1.1 8-1.9c2.1-.8 7.5-3.5 7.5-3.5s-5.5 3.4-7.3 3.9c-1.8.6-8.2 1.5-8.2 1.5zM214.5 100.3s6.9-4.8 7.7-6.3c.5-.9 0-3.8 0-3.8s.7 3.2.5 3.8c-.4 1.3-5.7 4.7-8.2 6.3zM221.5 88.3s-1.4-1-3.4-.5c-1.9.5-6.1 3.3-6.1 3.3s3.5-2.8 6-3.6c2.5-.8 3.5.8 3.5.8z"/><path class="st32" d="M222.9 88.7c.8 1.6 1.4 2.7 1.7 2.2 0 0 .7-.8.1-1.5 0 0 .3-1.1-1.1-1.9 0 0-.2-1.6-1.2-1.3-.6.2 0 1.5.5 2.5z"/><path class="st33" d="M177.8 106.1s.1-.8.5-1c.4-.2 1.7-.2 1.7-.2l-.3.6c0-.1-1.6.5-1.9.6zM177.9 101.3s.7-.7 1.9-.4c1.2.3.3 0 .3 0l-2.2.4z"/><path class="st31" d="M181.1 100.8s.3-.9 1-1.2c.7-.3 2.4-.7 2.4-.7s-2.2.5-3.4 1.9z"/><path class="st34" d="M183.3 104.2c.4 2 6.3 2 16.7-.5 11.5-2.8 13.3-4.9 12.4-6.5-.9-1.6-9.1 2-10.9 2.6-6.5 2-18.8 1.9-18.2 4.4z"/></g><g><path class="st27" d="M158.5 89.6c-.3 2 .3 2.8 1.1 3.7.9.9 8.1 3 11.7 4.5 3.6 1.6 14.7 4.9 20.3 4.6 5.6-.3 10.6-1.8 11.7-3.1 1.1-1.3 1.9-3.6 2-5.1.1-1.5-.8-6.1-3-6.5-2.2-.4-16.7 1.4-20.2.8-3.5-.6-18.6-5.2-19.9-4.7-1.4.7-3.3 2.4-3.7 5.8z"/><path class="st28" d="M161.2 88.6c-.6 2 .6 3.3 5.4 5.4 4.8 2.1 18.1 5.2 20.1 5.1 2.1-.1 12.7-.7 13.9-1.2 1.3-.5 2.1-4.9 1.2-5.9-.9-.9-17 .1-19 .3-2 .2-8.1-1.7-11.7-3-3.6-1.3-9.2-3-9.9-.7z"/><path class="st29" d="M203.5 93s-1-3-2.1-3.2c-1-.2-16.3.7-19.7.4-3.4-.3-12.6-3.4-14-3.8-1.4-.3-4.1-1.5-5.1-1.1l-2.4 1.9s.9-3.1 1.9-3.4c1-.3 18.7 4.8 21.1 4.8 2.4 0 18.8-1.6 19.7-.6.9.9 2.7 4.6 2.4 6.1-.3 1.5-1.8-1.1-1.8-1.1z"/><path class="st30" d="M155.9 88.8s-.6 2-.3 2.3c.4.4 3.3 1.4 3.3 1.4s.7-2.5.7-2.8c0-.3-.5-1-.5-1s.7-.7.9-1c.2-.4.8-2.1.8-2.3 0-.2-.3-.5-.3-.5s.6 0 .8-.2c.2-.2.3-.6.3-.6s-.6-.4-.9-.5c-.2-.1-2-.4-2.1-.2-.2.1-.5.8-.5.8s-.7.1-.8.2c-.1.1-.2.5-.2.5s-1.1-.1-1.2 0c-.1.1-1.1 2.3-1 2.6.1.5 1 1.3 1 1.3z"/><path class="st31" d="M161 87.1s1.6-1.1 2.5-1.1c.9 0 3.8 1.1 3.8 1.1s-3-.9-4-.7c-.9.2-2.3.7-2.3.7zM160 89.6s.4 1.8 1 2.5c.6.6 3.8 1.7 3.8 1.7s-3.2-1.5-3.6-2c-.4-.5-1.2-2.2-1.2-2.2zM172 88.6s5.7 1.7 8 2c2.2.3 8.3.4 8.3.4s-6.4.4-8.3.1c-1.9-.3-8-2.5-8-2.5zM191.4 100.3s8.4-1 9.8-2c.9-.6 1.7-3.4 1.7-3.4s-.9 3.2-1.3 3.6c-1 1-7.2 1.6-10.2 1.8zM203.1 93s-.8-1.6-2.7-2c-1.9-.5-7 .1-7 .1s4.4-.9 7-.4c2.6.4 2.7 2.3 2.7 2.3z"/><path class="st32" d="M204.2 93.9c0 1.8 0 3 .5 2.8 0 0 1-.4.8-1.3 0 0 .8-.8-.1-2.2 0 0 .5-1.5-.5-1.7-.6 0-.6 1.3-.7 2.4z"/><path class="st33" d="M156.2 88.4s.4-.7.9-.7 1.6.6 1.6.6l-.5.4s-1.6-.2-2-.3zM158.5 84.2s.9-.3 1.8.5.3.2.3.2l-2.1-.7z"/><path class="st31" d="M161.6 85.3s.6-.7 1.4-.7c.8 0 2.4.5 2.4.5s-2-.5-3.8.2z"/><path class="st34" d="M161.9 89.3c-.5 2 4.7 4.7 15 7.3 11.5 2.8 14 1.8 14 0s-8.9-2.5-10.8-2.8c-6.7-1.2-17.5-7-18.2-4.5z"/></g><g><path class="st5" d="M169.5 86.6c-.4-.1-.8-.8-1.3-.8-1.5.2-3.1 1.5-4.1 3.5-1.2 2.5-3.4 7.1-5 9.4-1.5 2.3-.6 5.6 1.4 8.3 2 2.7 4 3.1 5 3.2 1 .1 1.4-1.1 2.8-.6 1.4.5 3.2 1.8 5 .5 1.8-1.3 4.6-3.6 4.8-6.8.1-3.4-4.4-6.7-4.8-8.3-.3-1.5.6-6.1-2.6-8.3-.3-.3-.7.1-1.2-.1z"/><defs><path id="SVGID_36_" d="M168.3 85.8c-1.5.2-3.1 1.5-4.1 3.5-1.2 2.5-3.4 7.1-5 9.4-1.5 2.3-.6 5.6 1.4 8.3 2 2.7 4 3.1 5 3.2 1 .1 1.4-1.1 2.8-.6 1.4.5 3.2 1.8 5 .5 1.8-1.3 4.6-3.6 4.8-6.8.1-3.4-4.4-6.7-4.8-8.3-.3-1.5.6-6.1-2.6-8.3-.2-.1-.4-.1-.6 0-.2 0-.4.1-.6 0-.3-.1-.7-.7-1.1-.8-.1-.1-.2-.1-.2-.1"/></defs><clipPath id="SVGID_37_"><use xlink:href="#SVGID_36_" overflow="visible"/></clipPath><path class="st44" d="M168 85.9s-1.9.7-3.4 4c-1.5 3.2-3.8 9.5-3.2 12 .6 2.5 2.7 5 4 5.2 1.3.2 3.6.5 4.4 1.3.8.8 3.5 1.9 6-.2 0 0-1.2 2.2-3.2 3.1-2 .9-4-.9-5.2-.4-1.2.5-4.2.7-7.6-3.4-3.4-4.1-3.9-5.9-2.1-9 1.8-3.1 4.8-6.2 5.3-8.1.5-1.9 3.5-5.2 5-4.5"/><path class="st7" d="M172.6 89.4c-.5-1.1-1-1.8-1.6-1.7-.6.2-1.3 1.6-3-.2-.9-1-2.8 2-3.6 4.5-.8 2.4-1.9 8.3.1 10.9 2.1 2.6 4.1 1.7 5.5 3 2.9 2.7 6.2 1.1 7-.9.8-2.1.3-5.1-1.9-7-2.2-1.9-2.4-3.2-2.2-4.8.3-1.6 0-3-.3-3.8z"/><path class="st8" d="M171.4 88.8c-.8-.5-2.6 0-3.8 1.5-1.2 1.6-.8 5.2.2 8.7 1.1 3.5 5.7 7.8 7.5 6.7 1.8-1.1 2.1-4.6.2-6.3-1.9-1.7-2.7-2.3-3.3-3.5-.5-1.2 1.4-5.6-.8-7.1z"/><path class="st9" d="M172.1 91c-.4-1.5-1.4-1.9-2.4-1.3-1.1.6-1.5 5.1 0 6.2 1.4 1.2 2.9-3.1 2.4-4.9zM176.1 102.7c.3-1.7-.4-2.9-1.7-3.8-1.3-.9-3.5.4-3.9 2.3-.3 1.9 4.9 6.2 5.6 1.5z"/><path class="st7" d="M171 87.2c0-.3-.2-.4-.4-.4-.5-.1-.8.1-1.2-.2-.3-.2-1-.7-1.3-.5-.1.1 0 .3.1.3.4 0 .9.6 1.3.8.2.1.4.1.7.1h.4c.1 0 .3.1.4.1v-.2z"/><path class="st8" d="M170.8 87.2c0-.4-.7-.5-.9-.4-.1 0-.1.2 0 .3.1.1.3 0 .4.1.1 0 .3.1.5 0-.1.1 0 0 0 0z"/><path class="st9" d="M170.8 87c0-.1-.1-.2-.2-.2s-.3 0-.3.1c-.1.1.1.2.2.2s.2.1.3.1c-.1 0 0-.1 0-.2z"/><path class="st8" d="M170.7 87c-.1-.1-.2-.2-.4-.2s-.4 0-.5.1v.1c.1.1.3 0 .4 0 .1 0 .3.1.4.1.1 0 .1 0 .1-.1z"/><path class="st10" d="M169.1 87.5s1.1-1.2 1-3.5c0-2.3-1.4-3.9-1.4-3.9s-1-.2-1.1.1c0 0 1.7 2.2 1.8 4 .2 1.7-.5 3.2-.6 3.4-.2.2.1.2.3-.1z"/><path class="st11" d="M167.7 86.9s.7 0 1 .5c.3.4 1 .4 1.4.1 0 0-.4.9-1.1.6-.7-.3-.3-.7-1.3-1.2z"/></g></g><linearGradient id="SVGID_38_" gradientUnits="userSpaceOnUse" x1="965.859" y1="164.716" x2="965.859" y2="103.521" gradientTransform="matrix(-1 0 0 1 1112.688 0)"><stop offset="0" stop-color="#d41502"/><stop offset=".057" stop-color="#da2202"/><stop offset=".199" stop-color="#e83e03"/><stop offset=".352" stop-color="#f25404"/><stop offset=".521" stop-color="#f96305"/><stop offset=".716" stop-color="#fe6c05"/><stop offset="1" stop-color="#ff6f05"/></linearGradient><path class="st45" d="M225 104l-60.9 60.7L86 152l-17.3-48.5z"/><path class="st46" d="M70.6 109.1l-1.9-5.6 156.3.5-5.6 5.5z"/><path class="st47" d="M225 104l-60.9 60.7-95.4-61.2z"/><linearGradient id="SVGID_39_" gradientUnits="userSpaceOnUse" x1="965.293" y1="105.961" x2="965.293" y2="101.082" gradientTransform="matrix(-1 0 0 1 1112.688 0)"><stop offset="0" stop-color="#d41502"/><stop offset=".057" stop-color="#da2202"/><stop offset=".199" stop-color="#e83e03"/><stop offset=".352" stop-color="#f25404"/><stop offset=".521" stop-color="#f96305"/><stop offset=".716" stop-color="#fe6c05"/><stop offset="1" stop-color="#ff6f05"/></linearGradient><path class="st48" d="M68.5 106h157.9c.9 0 1.7-.8 1.7-1.7v-1.5c0-.9-.8-1.7-1.7-1.7H68.5c-.9 0-1.7.8-1.7 1.7v1.5c0 .9.7 1.7 1.7 1.7z"/><path class="st49" d="M225.6 101.9H69.2c-1.2 0-2.1.9-2.4 2 0-.1-.1-.3-.1-.4 0-1.3 1.1-2.4 2.4-2.4h156.4c1.3 0 2.4 1.1 2.4 2.4 0 .2-.1.3-.1.4-.1-1.1-1-2-2.2-2z"/><path class="st50" d="M225.6 105.1H69.2c-1.2 0-2.1-.9-2.4-2 0 .1-.1.3-.1.4 0 1.3 1.1 2.4 2.4 2.4h156.4c1.3 0 2.4-1.1 2.4-2.4 0-.2-.1-.3-.1-.4-.1 1.1-1 2-2.2 2z"/><circle class="st51" cx="198.3" cy="174.2" r="19.8"/><linearGradient id="SVGID_40_" gradientUnits="userSpaceOnUse" x1="198.271" y1="203.714" x2="198.271" y2="144.55"><stop offset="0" stop-color="#1f201b"/><stop offset=".311" stop-color="#232420"/><stop offset=".677" stop-color="#2f302e"/><stop offset="1" stop-color="#3f3f41"/></linearGradient><path class="st52" d="M225 161.4c-4.2-8.8-12.6-15.2-22.6-16.6-1.4-.2-2.8-.3-4.2-.3-9.2 0-17.4 4.2-22.8 10.8-2.4 3-4.3 6.4-5.5 10.2-.2.6-.3 1.2-.5 1.8 0 .2-.1.3-.1.5-.1.6-.2 1.1-.3 1.7 0 .2-.1.4-.1.5-.1.3-.1.6-.1.9-.1 1-.2 2.1-.2 3.2v.5c0 .5 0 1.1.1 1.6.1 2.2.6 4.4 1.2 6.5 3.7 12.1 15 20.9 28.3 20.9 15.6 0 28.4-12.1 29.5-27.4 0-.5.1-1.1.1-1.6v-.5c.1-4.5-1-8.8-2.8-12.7zm-26.7 30.2c-8.2 0-15-5.6-16.9-13.2-.3-1.4-.5-2.8-.5-4.2v-.4-.7c0-.3 0-.6.1-.9v-.4c.1-.6.2-1.2.3-1.7.1-.2.1-.5.2-.7.2-.6.4-1.2.6-1.7 2.6-6.4 8.9-10.9 16.2-10.9 6.6 0 12.4 3.7 15.4 9.2 1.2 2.2 1.9 4.7 2.1 7.4V174.3c-.1 9.5-7.9 17.3-17.5 17.3z"/><g class="st46"><path d="M198.3 155.4c9.6 0 17.5 7.8 17.5 17.5 0 .5 0 .9-.1 1.4-.7-9-8.2-16.1-17.4-16.1s-16.7 7.1-17.4 16.1c0-.5-.1-.9-.1-1.4 0-9.7 7.8-17.5 17.5-17.5z"/></g><linearGradient id="SVGID_41_" gradientUnits="userSpaceOnUse" x1="909.624" y1="170.73" x2="909.624" y2="160.786" gradientTransform="matrix(-1 0 0 1 1112.688 0)"><stop offset="0"/><stop offset="1" stop-color="#fff"/></linearGradient><path class="st53" d="M203.5 169.9l2.8-3c1-1.1.9-2.8-.3-3.7l-2.6-2c-1.6-1.2-3.9-.1-4 1.9l-.2 5c-.1 2.3 2.7 3.5 4.3 1.8z"/><path class="st54" d="M201.7 170c.3 0 .8-.1 1.3-.6l2.8-3c.4-.4.5-.9.5-1.4 0-.5-.3-1-.7-1.3l-2.6-2c-.3-.2-.7-.4-1.1-.4-.8 0-1.8.6-1.8 1.7l-.2 5c0 .6.2 1.1.5 1.3.3.5.8.7 1.3.7z"/><linearGradient id="SVGID_42_" gradientUnits="userSpaceOnUse" x1="905.348" y1="177.605" x2="905.348" y2="169.393" gradientTransform="matrix(-1 0 0 1 1112.688 0)"><stop offset="0"/><stop offset="1" stop-color="#fff"/></linearGradient><path class="st55" d="M204.6 176.6l4 .9c1.4.3 2.8-.6 3-2.1l.4-3.2c.3-2-1.8-3.5-3.6-2.5L204 172c-2.1 1-1.7 4.1.6 4.6z"/><path class="st54" d="M209.1 176.9c.9 0 1.7-.7 1.8-1.6l.4-3.2c.1-.5-.1-1-.4-1.4-.3-.4-.8-.6-1.4-.6-.3 0-.6.1-.8.2l-4.4 2.3c-.8.4-1 1.2-1 1.8.1.6.5 1.3 1.4 1.5l4 .9c.1.1.3.1.4.1z"/><linearGradient id="SVGID_43_" gradientUnits="userSpaceOnUse" x1="908.861" y1="186.563" x2="908.861" y2="177.658" gradientTransform="matrix(-1 0 0 1 1112.688 0)"><stop offset="0"/><stop offset="1" stop-color="#fff"/></linearGradient><path class="st56" d="M199.4 180.9l1.2 3.9c.4 1.4 2 2.1 3.3 1.6l3-1.3c1.9-.8 2.1-3.3.4-4.4l-4.2-2.7c-2-1.2-4.4.7-3.7 2.9z"/><path class="st54" d="M202.9 185.9c.2 0 .5 0 .7-.1l3-1.3c.6-.3 1-.8 1.1-1.5.1-.7-.2-1.3-.8-1.7l-4.2-2.7c-.3-.2-.6-.3-1-.3-.6 0-1.1.3-1.5.7-.3.5-.4 1-.3 1.6l1.2 3.9c.3.8 1 1.4 1.8 1.4z"/><g><linearGradient id="SVGID_44_" gradientUnits="userSpaceOnUse" x1="914.431" y1="201.393" x2="914.431" y2="147.03" gradientTransform="matrix(-1 0 0 1 1112.688 0)"><stop offset="0" stop-color="#1f201b"/><stop offset=".233" stop-color="#22231f"/><stop offset=".458" stop-color="#2b2c2b"/><stop offset=".68" stop-color="#393c3e"/><stop offset=".786" stop-color="#42454a"/><stop offset=".966" stop-color="#404043"/><stop offset="1" stop-color="#3f3f41"/></linearGradient><path class="st57" d="M222.7 162.3c-.8-1.7-1.8-3.3-3-4.8-5-6.4-12.7-10.5-21.4-10.5h-1.5c-5.9.3-11.3 2.6-15.6 6.1-1.7 1.4-3.2 2.9-4.5 4.6-1.8 2.4-3.3 5.2-4.2 8.1-.2.6-.4 1.2-.5 1.7 0 .2-.1.4-.1.6-.1.6-.2 1.1-.3 1.7 0 .2-.1.3-.1.5-.1.3-.1.6-.1.9-.1.9-.2 1.9-.2 2.8 0 2.7.4 5.3 1.1 7.7 3.3 11.3 13.8 19.5 26.1 19.5 15 0 27.2-12.2 27.2-27.2-.2-4-1.1-8.1-2.9-11.7zM198.3 200c-11.7 0-21.7-7.9-24.8-18.6-.7-2.3-1-4.7-1-7.2 0-.9 0-1.8.1-2.6 0-.3.1-.6.1-.9 0-.2 0-.3.1-.5.1-.6.2-1.2.3-1.7 0-.2.1-.4.1-.6.2-.6.3-1.2.5-1.7 3.4-10.3 13.1-17.7 24.5-17.7 10.1 0 18.9 5.9 23.1 14.4 1.7 3.4 2.7 7.3 2.7 11.4 0 14.1-11.5 25.7-25.7 25.7z"/></g><path class="st58" d="M227.9 175.1c0 .5 0 .9-.1 1.4v-.2c-.3-5.2-1.9-10-4.5-14.1-1-1.7-2.2-3.2-3.6-4.6-5.4-5.7-13-9.2-21.4-9.2-2.3 0-4.5.3-6.7.8-2.7.6-5.3 1.6-7.7 3-2.7 1.5-5.1 3.4-7.2 5.7-2.2 2.3-4 5-5.3 8-.3.6-.5 1.1-.7 1.7-.1.2-.1.3-.2.5-.2.5-.4 1.1-.5 1.7-.1.2-.1.4-.1.5-.1.3-.2.6-.2.9-.4 1.7-.6 3.4-.7 5.2v.2c0-.5-.1-.9-.1-1.4v-.5c0-1.2.1-2.4.3-3.6 0-.3.1-.6.1-.9 0-.2 0-.4.1-.5.1-.6.2-1.1.4-1.7 0-.2.1-.3.1-.5.1-.6.3-1.2.5-1.7 1.4-4.1 3.6-7.7 6.5-10.8 5.4-5.7 13-9.3 21.5-9.3.7 0 1.4 0 2.1.1 10.6.7 19.6 7 24.2 16 2 3.9 3.2 8.3 3.2 13v.3z"/><linearGradient id="SVGID_45_" gradientUnits="userSpaceOnUse" x1="919.238" y1="187.65" x2="919.238" y2="177.706" gradientTransform="matrix(-1 0 0 1 1112.688 0)"><stop offset="0"/><stop offset="1" stop-color="#fff"/></linearGradient><path class="st59" d="M193.1 178.5l-2.8 3c-1 1.1-.9 2.8.3 3.7l2.6 2c1.6 1.2 3.9.1 4-1.9l.2-5c0-2.3-2.8-3.5-4.3-1.8z"/><path class="st54" d="M194.6 187c.8 0 1.8-.6 1.8-1.7l.2-5c0-.6-.2-1.1-.5-1.3-.3-.4-.8-.6-1.3-.6-.3 0-.8.1-1.3.6l-2.8 3c-.4.4-.5.9-.5 1.4 0 .5.3 1 .7 1.3l2.6 2c.4.1.7.3 1.1.3z"/><linearGradient id="SVGID_46_" gradientUnits="userSpaceOnUse" x1="923.514" y1="179.043" x2="923.514" y2="170.831" gradientTransform="matrix(-1 0 0 1 1112.688 0)"><stop offset="0"/><stop offset="1" stop-color="#fff"/></linearGradient><path class="st60" d="M192 171.8l-4-.9c-1.4-.3-2.8.6-3 2.1l-.4 3.2c-.3 2 1.8 3.5 3.6 2.5l4.4-2.3c2-1 1.6-4-.6-4.6z"/><path class="st54" d="M187 178.4c.3 0 .6-.1.8-.2l4.4-2.3c.8-.4 1-1.2.9-1.8-.1-.6-.5-1.3-1.4-1.5l-4-.9h-.4c-.9 0-1.7.7-1.8 1.6l-.4 3.2c-.1.5.1 1 .4 1.4.5.2 1 .5 1.5.5z"/><linearGradient id="SVGID_47_" gradientUnits="userSpaceOnUse" x1="920.001" y1="170.778" x2="920.001" y2="161.872" gradientTransform="matrix(-1 0 0 1 1112.688 0)"><stop offset="0"/><stop offset="1" stop-color="#fff"/></linearGradient><path class="st61" d="M197.2 167.6l-1.2-3.9c-.4-1.4-2-2.1-3.3-1.6l-3 1.3c-1.9.8-2.1 3.3-.4 4.4l4.2 2.7c1.9 1.1 4.3-.7 3.7-2.9z"/><path class="st54" d="M194.8 170.1c.6 0 1.1-.3 1.5-.7.3-.5.4-1 .3-1.6l-1.2-3.9c-.2-.8-.9-1.3-1.7-1.3-.2 0-.5 0-.7.1l-3 1.3c-.6.3-1 .8-1.1 1.5-.1.7.2 1.3.8 1.7l4.2 2.7c.2.1.5.2.9.2z"/><g><linearGradient id="SVGID_48_" gradientUnits="userSpaceOnUse" x1="914.431" y1="195.799" x2="914.431" y2="152.637" gradientTransform="matrix(-1 0 0 1 1112.688 0)"><stop offset="0" stop-color="#1f201b"/><stop offset=".233" stop-color="#22231f"/><stop offset=".458" stop-color="#2b2c2b"/><stop offset=".68" stop-color="#393c3e"/><stop offset=".786" stop-color="#42454a"/><stop offset=".966" stop-color="#404043"/><stop offset="1" stop-color="#3f3f41"/></linearGradient><path class="st62" d="M217.4 164.4c-3.6-7-10.8-11.7-19.2-11.7-9.3 0-17.3 5.9-20.3 14.2-.2.6-.4 1.2-.5 1.7-.1.2-.1.4-.2.6-.1.6-.2 1.1-.3 1.7 0 .1 0 .3-.1.4 0 .3-.1.6-.1.9-.1.6-.1 1.3-.1 1.9 0 2 .3 3.9.8 5.7 2.5 9.2 10.9 15.9 20.8 15.9 11.9 0 21.6-9.7 21.6-21.6 0-3.4-.8-6.8-2.4-9.7zm-19.1 30c-9.3 0-17.2-6.4-19.5-15-.4-1.6-.7-3.4-.7-5.2 0-.6 0-1.1.1-1.7 0-.3.1-.6.1-.9 0-.1 0-.3.1-.4.1-.6.2-1.2.3-1.7 0-.2.1-.4.2-.6.2-.6.3-1.2.6-1.7 2.9-7.6 10.3-13.1 18.9-13.1 7.8 0 14.5 4.4 17.9 10.9 1.5 2.8 2.3 6 2.3 9.3-.1 11-9.2 20.1-20.3 20.1z"/></g><g><linearGradient id="SVGID_49_" gradientUnits="userSpaceOnUse" x1="914.431" y1="198.712" x2="914.431" y2="149.725" gradientTransform="matrix(-1 0 0 1 1112.688 0)"><stop offset="0" stop-color="#1f201b"/><stop offset=".233" stop-color="#22231f"/><stop offset=".458" stop-color="#2b2c2b"/><stop offset=".68" stop-color="#393c3e"/><stop offset=".786" stop-color="#42454a"/><stop offset=".966" stop-color="#404043"/><stop offset="1" stop-color="#3f3f41"/></linearGradient><path class="st63" d="M220.2 163.3c-4-8.1-12.3-13.6-21.9-13.6-10.8 0-19.9 7-23.2 16.7-.2.6-.4 1.2-.5 1.7-.1.2-.1.4-.1.6-.1.6-.2 1.1-.3 1.7 0 .2-.1.3-.1.5 0 .3-.1.6-.1.9-.1.8-.1 1.6-.1 2.4 0 2.3.3 4.6 1 6.7 2.9 10.2 12.4 17.8 23.5 17.8 13.5 0 24.5-11 24.5-24.5-.1-3.9-1.1-7.6-2.7-10.9zm-21.9 34c-10.6 0-19.5-7.2-22.2-16.9-.5-2-.9-4.1-.9-6.2 0-.7 0-1.5.1-2.2 0-.3.1-.6.1-.9 0-.1 0-.3.1-.4.1-.6.2-1.2.3-1.7 0-.2.1-.4.1-.6.1-.6.3-1.2.5-1.7 3.1-9 11.7-15.5 21.8-15.5 9 0 16.8 5.2 20.6 12.7 1.6 3.1 2.5 6.7 2.5 10.4.1 12.7-10.3 23-23 23z"/></g><g><path class="st0" d="M201.9 173.2v.4c0 .1 0 .1-.1.2v.1c-.2 1-1 1.7-1.9 1.9-.2.1-.4.1-.7.1h-.5l-4.6-.8h-.4l-.7-.1-2.1-.3-5.4-.9-.7-.1-3.8-.7H180.7l-2.2-.4-.4-.1-1.4-.2-1.5-.2-1.4-.2-1.3-.2-1.4-.2-1.7-.3-.4-.2h-.1l-23.6-3.9-5.6-.9-4-.7-1.7-.3-14-2.3-19.4-3.2-6.3-1-6.7-1.1c-3.7-.6-7-2.5-9.4-5.4L54.3 110c-1.3-1.6-3-2.7-4.9-3.2L34 102.3l-1.7-.5-.4-.1-.4-.1-.4-.1-1.3-.4-.4-.1-.4-.1-.4-.1-1.3-.4-.4-.1-.4-.1-.4-.1-1.3-.4-.8-.2-.4-.1-1.4-.4-.4-.1-.4-.1-.4-.1-1.3-.4-.4-.1-.5-.2-.4-.1-1.3-.4-.4-.1-.4-.1-.4-.1-1.3-.4-.4-.1-.4-.1-.4-.1-1.4-.4-.4-.1-.4-.1-.4-.1-1.3-.4-.5-.1-.4-.1-.3-.1h-.1c-.3-.1-.5-.2-.8-.4-.2-.1-.3-.2-.4-.4-.1-.1-.2-.3-.3-.4l-.3-.6c-.1-.3-.2-.6-.1-1V92v-.2-.2c0-.2.1-.3.2-.4.1-.1.1-.3.2-.4l.1-.1.3-.3c.1-.1.1-.1.2-.1.1-.1.2-.1.3-.2.1-.1.2-.1.4-.1h.1c.2-.1.5-.1.8-.1h.7l.3.1.4.1.4.1 1.3.4.4.1.4.1.4.1 1.3.4.4.1.4.1.4.1 1.3.4.4.1.4.1.4.1 1.3.4.4.1.4.1.4.1 1.3.4.4.1.4.1.4.1 1.3.4.8.2.4.1 1.3.4.4.1.4.1.4.1 1.3.4.4.1.4.1.4.1 1.3.4.4.1.4.1.4.1 1.7.5 15.4 4.3c3 .9 5.7 2.6 7.7 5l23.9 42.2c.2.2.4.5.6.7.5.5 1 .9 1.5 1.2.2.2.5.3.8.5l.1.1c.4.2.9.4 1.3.5.5.2 1.1.3 1.6.4l3.7.6 6.3 1 30.2 5 7.7 1.3 5.7.9 4.2.7 9.2 1.5 8.3 1.4.5.1.9.1 4.9.8.3.1 1.1.2 1 .2 1.4.2 1.3.2 1.4.2 1.5.2 1.4.2.4.1 1.8.3.5.1.6.1 8.7 1.4 1.7.3 2.6.4.9.2h.1l2.9.5c.2 0 .4.1.6.2.2.1.3.1.5.2.1.1.2.1.3.2l.2.2c.1.1.2.2.2.3l.1.1c0 .1.1.1.1.2 0 0 0 .1.1.1 0 0 0 .1.1.1.1.1.1.2.1.3 0 .1.1.3.1.4v.3c.5.3.5.3.5.4z"/></g><path class="st50" d="M201.9 173.2v.4c0 .1 0 .1-.1.2v.1c-.2 1-1 1.7-1.9 1.9-.2.1-.4.1-.7.1h-.5l-4.6-.8h-.4l-.7-.1-2.1-.3-5.4-.9-.7-.1-3.8-.7H180.7l-2.2-.4-.4-.1-1.4-.2-1.5-.2-1.4-.2-1.3-.2-1.4-.2-1.7-.3-.4-.2h-.1l-23.6-3.9-5.6-.9-4-.7-1.7-.3-14-2.3-19.4-3.2-6.3-1-6.7-1.1c-3.7-.6-7-2.5-9.4-5.4L54.3 110c-1.3-1.6-3-2.7-4.9-3.2L34 102.3l-1.7-.5-.4-.1-.4-.1-.4-.1-1.3-.4-.4-.1-.4-.1-.4-.1-1.3-.4-.4-.1-.4-.1-.4-.1-1.3-.4-.8-.2-.4-.1-1.4-.4-.4-.1-.4-.1-.4-.1-1.3-.4-.4-.1-.5-.2-.4-.1-1.3-.4-.4-.1-.4-.1-.4-.1-1.3-.4-.4-.1-.4-.1-.4-.1-1.4-.4-.4-.1-.4-.1-.4-.1-1.3-.4-.5-.1-.4-.1-.3-.1h-.1c-.3-.1-.5-.2-.8-.4-.2-.1-.3-.3-.4-.4-.1-.1-.2-.3-.3-.4l-.3-.6c0-.1 0-.2-.1-.2V93v-.9c0 .2.1.5.2.7 0 .1.1.1.1.2.1.1.1.2.2.3.1.1.2.3.3.4.3.3.6.5 1.1.6h.2l.4.1.4.1.4.1 1.3.4.4.1.4.1.4.1 1.3.4.4.1.4.1.4.1 1.3.4.4.1.4.1.4.1 1.3.4.4.1.4.1.4.1 1.3.4 1.1.2.4.1 1.3.4.4.1.4.1.4.1 1.3.4.4.1.4.1.4.1 1.3.4.4.1.4.1.4.1 1.3.4.4.1.4.1.4.1 1.7.5 15.1 4.3c1.9.5 3.7 1.7 4.9 3.2L78 151.1c2.4 2.9 5.7 4.8 9.4 5.4l6.3 1.1 6.3 1 21.2 3.5 12.9 2.1 3 .5 2.6.4 6.9 1.1 22 3.6h.2l.6.1 1.6.3 1.4.2 1.3.2 1.4.2 1.5.2 1.4.2.4.1 2.2.4H180.9l3.8.6.7.1 7 1.2.5.1.7.1h.4l2.3.4h.1l1.9.3h.8c.7 0 1.3-.3 1.7-.8.2-.1.3-.3.4-.5.1-.1.1-.2.1-.3.1-.2.1-.3.2-.5v.2c.4.5.4.5.4.6z"/><path class="st64" d="M88.6 152.1l111.1 18.4c1.5.2 2.5 1.7 2.3 3.2 0 .2-.1.3-.2.5-.3-.9-1.1-1.7-2.1-1.8L88.6 153.9c-.9-.1-1.7-.5-2.6-.8l-.5-2.1c1 .5 2 .9 3.1 1.1z"/><path class="st65" d="M194.6 172.1c-.8 2-1.8 9.3.1 10.1 2 .8 6.2-5.4 6.9-7.3.8-2-.2-4.2-2.2-4.9-1.8-.8-4 .1-4.8 2.1z"/><path class="st66" d="M199.5 171.1c-2-.8-4.2.2-4.9 2.2-.4 1.1-.9 3.7-1 6-.1-2.5.5-5.9 1-7.2.8-2 3-2.9 4.9-2.2 1.7.7 2.7 2.4 2.4 4.2-.2-1.3-1-2.5-2.4-3z"/><path class="st67" d="M87 153l112.6 20.2c1.5.2 1.6.4 1.4 1.9 0 .2-1.1.6-1.2.7-.3-.9.8-.6-.2-.8l-112-20.2c-.9-.1-1.1-1.4-2-1.7l-.2-2.1c1.1.5.5 1.9 1.6 2z"/><path class="st66" d="M6.4 91.6c.4-1.5 1.9-2.3 3.4-1.9l41.1 11.6c3 .9 5.7 2.6 7.7 5.1l23.9 42.2c.8 1 1.8 1.8 2.9 2.4l.6 2c-1.3-.6-2.5-1.5-3.5-2.6l-23.9-42.2c-2-2.4-4.7-4.2-7.7-5.1L9.8 91.5c-1.4-.4-2.8.4-3.3 1.7-.2-.4-.3-1-.1-1.6z"/><circle class="st68" cx="197.8" cy="174.5" r="1.2"/><radialGradient id="SVGID_50_" cx="914.082" cy="172.996" r="2.07" fx="915.759" fy="171.783" gradientTransform="matrix(-1 0 0 1 1112.688 0)" gradientUnits="userSpaceOnUse"><stop offset="0" stop-color="#fff"/><stop offset="1" stop-color="#6b6b6b"/></radialGradient><circle class="st69" cx="197.8" cy="174.1" r="1.2"/><g><linearGradient id="SVGID_51_" gradientUnits="userSpaceOnUse" x1="-259.331" y1="263.587" x2="-259.331" y2="257.009" gradientTransform="rotate(15.475 487.34 1205.733)"><stop offset="0" stop-color="#1f201b"/><stop offset=".311" stop-color="#232420"/><stop offset=".677" stop-color="#2f302e"/><stop offset="1" stop-color="#3f3f41"/></linearGradient><path class="st70" d="M33.9 102.6L4.3 94.4 6 88.1l29.7 8.2z"/><linearGradient id="SVGID_52_" gradientUnits="userSpaceOnUse" x1="-275.02" y1="264.82" x2="-275.02" y2="255.664" gradientTransform="rotate(15.475 487.34 1205.733)"><stop offset="0" stop-color="#1f201b"/><stop offset=".311" stop-color="#232420"/><stop offset=".677" stop-color="#2f302e"/><stop offset="1" stop-color="#3f3f41"/></linearGradient><path class="st71" d="M3.9 95.6l-.5-.1c-.3-.1-.5-.4-.4-.7L5.2 87c.1-.3.4-.5.7-.4l.5.1c.3.1.5.4.4.7l-2.1 7.8c-.2.3-.5.5-.8.4z"/><path transform="rotate(15.475 7.26 91.84)" class="st72" d="M6.8 88.5h.9v6.6h-.9z"/><path transform="rotate(15.475 6.843 91.725)" class="st2" d="M6.4 88.4h.9V95h-.9z"/><path transform="rotate(15.475 9.805 92.545)" class="st72" d="M9.4 89.2h.9v6.6h-.9z"/><path transform="rotate(15.475 9.388 92.43)" class="st2" d="M9 89.1h.9v6.6H9z"/><path transform="rotate(15.475 12.35 93.249)" class="st72" d="M11.9 89.9h.9v6.6h-.9z"/><path transform="rotate(15.475 11.933 93.134)" class="st2" d="M11.5 89.8h.9v6.6h-.9z"/><path transform="rotate(15.475 14.894 93.954)" class="st72" d="M14.5 90.7h.9v6.6h-.9z"/><path transform="rotate(15.475 14.478 93.838)" class="st2" d="M14 90.5h.9v6.6H14z"/><path transform="rotate(15.475 17.44 94.658)" class="st72" d="M17 91.4h.9V98H17z"/><path transform="rotate(15.475 17.022 94.543)" class="st2" d="M16.6 91.2h.9v6.6h-.9z"/><path transform="rotate(15.475 19.984 95.363)" class="st72" d="M19.5 92.1h.9v6.6h-.9z"/><path transform="rotate(15.475 19.567 95.247)" class="st2" d="M19.1 91.9h.9v6.6h-.9z"/><path transform="rotate(15.475 22.528 96.068)" class="st72" d="M22.1 92.8h.9v6.6h-.9z"/><path transform="rotate(15.475 22.112 95.952)" class="st2" d="M21.7 92.7h.9v6.6h-.9z"/><path transform="rotate(15.475 25.073 96.772)" class="st72" d="M24.6 93.5h.9v6.6h-.9z"/><path transform="rotate(15.475 24.656 96.657)" class="st2" d="M24.2 93.4h.9v6.6h-.9z"/><path transform="rotate(15.475 27.618 97.477)" class="st72" d="M27.2 94.2h.9v6.6h-.9z"/><path transform="rotate(15.475 27.201 97.361)" class="st2" d="M26.8 94.1h.9v6.6h-.9z"/><path transform="rotate(15.475 30.163 98.181)" class="st72" d="M29.7 94.9h.9v6.6h-.9z"/><path transform="rotate(15.475 29.746 98.066)" class="st2" d="M29.3 94.8h.9v6.6h-.9z"/><path transform="rotate(15.475 32.707 98.886)" class="st72" d="M32.3 95.6h.9v6.6h-.9z"/><path transform="rotate(15.475 32.29 98.77)" class="st2" d="M31.9 95.5h.9v6.6h-.9z"/></g><g><linearGradient id="SVGID_53_" gradientUnits="userSpaceOnUse" x1="66.671" y1="202.836" x2="66.671" y2="157.269"><stop offset="0" stop-color="#1f201b"/><stop offset=".311" stop-color="#232420"/><stop offset=".677" stop-color="#2f302e"/><stop offset="1" stop-color="#3f3f41"/></linearGradient><path class="st73" d="M87.6 177.8v-20.5H45.8v20.5s-.5 9.1 5.6 14.9c6 7.1 15.3 10.2 15.3 10.2s9.3-3.1 15.3-10.2c6.1-5.8 5.6-14.9 5.6-14.9z"/><path class="st74" d="M70.8 164.3v-10h-8.2v10s-.1 2.6 1.1 4.8c1.2 2.8 3 3 3 3s1.8-.2 3-3c1.2-2.2 1.1-4.8 1.1-4.8z"/><path class="st75" d="M63.2 50.7h7v103.6h-7z"/><linearGradient id="SVGID_54_" gradientUnits="userSpaceOnUse" x1="66.677" y1="58.693" x2="66.677" y2="44.998"><stop offset="0" stop-color="#d41502"/><stop offset=".057" stop-color="#da2202"/><stop offset=".199" stop-color="#e83e03"/><stop offset=".352" stop-color="#f25404"/><stop offset=".521" stop-color="#f96305"/><stop offset=".716" stop-color="#fe6c05"/><stop offset="1" stop-color="#ff6f05"/></linearGradient><path class="st76" d="M62.6 45h8.2v13.7h-8.2z"/><linearGradient id="SVGID_55_" gradientUnits="userSpaceOnUse" x1="66.66" y1="47.959" x2="66.66" y2="27"><stop offset="0" stop-color="#d41502"/><stop offset=".057" stop-color="#da2202"/><stop offset=".199" stop-color="#e83e03"/><stop offset=".352" stop-color="#f25404"/><stop offset=".521" stop-color="#f96305"/><stop offset=".716" stop-color="#fe6c05"/><stop offset="1" stop-color="#ff6f05"/></linearGradient><path class="st77" d="M77.1 27v1.4H56.2V27h-3v7.5c0 4.1 1.5 7.6 4.2 10.1 2.4 2.2 5.7 3.4 9.2 3.4 6.7 0 13.5-4.6 13.5-13.5V27h-3zM66.7 45c-5 0-10.5-3.3-10.5-10.5v-3.1h20.9v3.1c0 7.2-5.4 10.5-10.4 10.5z"/><path class="st78" d="M87.6 177.8v-20.5H70.8v-3h-.7V58.7h.7V47.3c5.1-1.5 9.3-5.9 9.3-12.8V27h-3v1.4H66.7v3h10.5v3.1c0 7.2-5.4 10.5-10.5 10.5v157.9c.1 0 9.3-3.1 15.3-10.2 6.1-5.8 5.6-14.9 5.6-14.9z"/></g><g><linearGradient id="SVGID_56_" gradientUnits="userSpaceOnUse" x1="96.784" y1="203.224" x2="96.784" y2="157.268"><stop offset="0" stop-color="#1f201b"/><stop offset=".311" stop-color="#232420"/><stop offset=".677" stop-color="#2f302e"/><stop offset="1" stop-color="#3f3f41"/></linearGradient><path class="st79" d="M80.7 171c2.9-1 5.1-2.2 7.2-3.4l2.6 35.6H92v-35.6h1.2l.6 1.5c1.2 2.8 3 3 3 3s1.8-.2 3-3c.3-.5.5-1 .6-1.5h1.2v35.6h1.1l2.6-35.6c2 1.3 4.3 2.4 7.2 3.4l-1.4 32.2h1.2l4-36.9c-1.1-.3-2.1-.6-3.2-1-5.4-1.8-8.8-4.2-12.2-6.8v-1.3h-8.2v1.3c-1.6 1.2-3.1 2.3-4.7 3.3-2 1.3-4.3 2.4-7.2 3.4-.1 0-.2.1-.3.1-1.1.4-2.1.7-3.2 1l4 36.9h.9L80.7 171z"/><path class="st74" d="M99.8 169.1c-1.2 2.8-3 3-3 3s-1.8-.2-3-3c-1.2-2.2-1.1-4.8-1.1-4.8v-10h8.2v10s.1 2.6-1.1 4.8z"/><path class="st75" d="M93.3 50.7h7v103.6h-7z"/><linearGradient id="SVGID_57_" gradientUnits="userSpaceOnUse" x1="96.786" y1="58.693" x2="96.786" y2="44.998"><stop offset="0" stop-color="#d41502"/><stop offset=".057" stop-color="#da2202"/><stop offset=".199" stop-color="#e83e03"/><stop offset=".352" stop-color="#f25404"/><stop offset=".521" stop-color="#f96305"/><stop offset=".716" stop-color="#fe6c05"/><stop offset="1" stop-color="#ff6f05"/></linearGradient><path class="st80" d="M92.7 45h8.2v13.7h-8.2z"/><linearGradient id="SVGID_58_" gradientUnits="userSpaceOnUse" x1="96.77" y1="47.955" x2="96.77" y2="27.005"><stop offset="0" stop-color="#d41502"/><stop offset=".057" stop-color="#da2202"/><stop offset=".199" stop-color="#e83e03"/><stop offset=".352" stop-color="#f25404"/><stop offset=".521" stop-color="#f96305"/><stop offset=".716" stop-color="#fe6c05"/><stop offset="1" stop-color="#ff6f05"/></linearGradient><path class="st81" d="M107.2 27v1.4H86.3V27h-3v7.5c0 6.2 3.9 11.2 9.3 12.8 1.3.4 2.7.6 4.1.6.6 0 1.2 0 1.8-.1.8-.1 1.6-.3 2.3-.5.1 0 .1 0 .2-.1.2-.1.4-.1.6-.2 4.6-1.7 7.8-5.8 8.4-10.7 0-.2.1-.4.1-.6 0-.4.1-.8.1-1.2V27h-3zm0 7.5c0 1.3-.2 2.6-.6 3.9-.1.2-.1.3-.2.5-.3.7-.7 1.5-1.2 2.1 0 .1-.1.1-.1.1-1.6 2-4 3.4-6.6 3.7-.3.1-.7.1-1 .1h-.8c-5 0-10.5-3.3-10.5-10.5v-3.1h20.9v3.2z"/><path class="st78" d="M116.3 166.3l-4 36.9h-1.2l1.4-32.2c-2.9-1-5.1-2.2-7.2-3.4l-2.6 35.6h-1.1v-35.6h-1.2v.1c-.1.2-.1.4-.2.7v.1c0 .1-.1.2-.1.3-.1.1-.1.3-.2.4-.4.9-.8 1.5-1.2 1.9-.2.2-.3.3-.5.4-.1.1-.3.2-.4.3-.5.3-.9.3-.9.3V45h.8c.3 0 .7-.1 1-.1 2.6-.4 5-1.7 6.6-3.7l.1-.1c.5-.6.9-1.4 1.2-2.1.1-.2.1-.3.2-.5.4-1.2.6-2.6.6-3.9v-3.1H96.8v-3h10.5V27h3v7.5c0 .4 0 .8-.1 1.2 0 .2 0 .4-.1.6-.6 5.6-4.2 9.2-8.4 10.7-.2.1-.4.1-.6.2-.1 0-.1.1-.2.1v11.3h-.7v95.6h.6v4.2c3.5 2.6 6.9 5 12.2 6.8 1.2.5 2.3.9 3.3 1.1z"/></g></svg>