<svg id="Слой_1" xmlns="http://www.w3.org/2000/svg" viewBox="0 0 147 147"><style>.st0{opacity:.15}.st1,.st2{fill-rule:evenodd;clip-rule:evenodd}.st2{fill:#fff}</style><g class="st0"><path class="st1" d="M73.5 147C33.5 147 1 114.5 1 74.5S33.5 2 73.5 2 146 34.5 146 74.5 113.5 147 73.5 147zM112 95h-4V70h4v-4.8l-4-.2V53l-8-10.3-.2-.2c.5-.2 1-.4 1.5-.7.9-.6 1.7-1.4 2.1-2.1.4-.7.7-1.4.9-2.1.2-.7.2-1.4.2-2 0-.3-.1-.7-.1-1l1.3-.4-.9-.1.7-.8-1.4.6c-.2-.5-.4-.9-.6-1.3-.5-.7-1.1-1.2-1.6-1.4-.6-.2-1.1-.2-1.6.1-1 .5-1.4 1.4-1.8 2.4-.1.4-.3.9-.5 1.4-.2.4-.3.8-.5 1.1-.1.1-.1.2-.2.4s-.3.4-.6.7c-.3.2-.8.5-1.3.6-.5.2-1.1.2-1.7.3-1.2 0-2.4-.3-3.2-.7l-.6-.3c-.2-.1-.3-.2-.4-.3l-.4-.2s0 .1.1.4c0 .1.1.3.2.5l.3.6c.5.9 1.3 2.2 2.8 3.2.7.5 1.6.9 2.6 1.2.5.1 1.1.2 1.7.3L89 53v12h-5V53l-8.2-10.3c-.8-1-2.3-1-3 0L65 53.3V65h-5V53l-8.3-10.3c-.8-1-2.3-1-3 0L41 53v12h-4v5h4v25h-4v5h4v17h19v-17h5v17h19v-17h5v17h19v-17h4v-5zm-13.5 4c-.8 0-1.5-.7-1.5-1.5s.7-1.5 1.5-1.5 1.5.7 1.5 1.5-.7 1.5-1.5 1.5zm0-30c-.8 0-1.5-.7-1.5-1.5s.7-1.5 1.5-1.5 1.5.7 1.5 1.5-.7 1.5-1.5 1.5zm3.4-35.4c.3 0 .5.2.5.5s-.2.5-.5.5-.5-.2-.5-.5.2-.5.5-.5zM84 70h5v25h-5V70zm-9.5 29c-.8 0-1.5-.7-1.5-1.5s.7-1.5 1.5-1.5 1.5.7 1.5 1.5-.7 1.5-1.5 1.5zm0-30c-.8 0-1.5-.7-1.5-1.5s.7-1.5 1.5-1.5 1.5.7 1.5 1.5-.7 1.5-1.5 1.5zM60 70h5v25h-5V70zm-9.5 29c-.8 0-1.5-.7-1.5-1.5s.7-1.5 1.5-1.5 1.5.7 1.5 1.5-.7 1.5-1.5 1.5zm0-30c-.8 0-1.5-.7-1.5-1.5s.7-1.5 1.5-1.5 1.5.7 1.5 1.5-.7 1.5-1.5 1.5z"/></g><path class="st2" d="M73.5 145C33.5 145 1 112.5 1 72.5S33.5 0 73.5 0 146 32.5 146 72.5 113.5 145 73.5 145zM112 93h-4V68h4v-4.8l-4-.2V51l-8-10.3-.2-.2c.5-.2 1-.4 1.5-.7.9-.6 1.7-1.4 2.1-2.1.4-.7.7-1.4.9-2.1.2-.7.2-1.4.2-2 0-.3-.1-.7-.1-1l1.3-.4-.9-.1.7-.8-1.4.6c-.2-.5-.4-.9-.6-1.3-.5-.7-1.1-1.2-1.6-1.4-.6-.2-1.1-.2-1.6.1-1 .5-1.4 1.4-1.8 2.4-.1.4-.3.9-.5 1.4-.2.4-.3.8-.5 1.1-.1.1-.1.2-.2.4s-.3.4-.6.7c-.3.2-.8.5-1.3.6-.5.2-1.1.2-1.7.3-1.2 0-2.4-.3-3.2-.7l-.6-.3c-.2-.1-.3-.2-.4-.3l-.4-.2s0 .1.1.4c0 .1.1.3.2.5l.3.6c.5.9 1.3 2.2 2.8 3.2.7.5 1.6.9 2.6 1.2.5.1 1.1.2 1.7.3L89 51v12h-5V51l-8.2-10.3c-.8-1-2.3-1-3 0L65 51.3V63h-5V51l-8.3-10.3c-.8-1-2.3-1-3 0L41 51v12h-4v5h4v25h-4v5h4v17h19V98h5v17h19V98h5v17h19V98h4v-5zm-13.5 4c-.8 0-1.5-.7-1.5-1.5s.7-1.5 1.5-1.5 1.5.7 1.5 1.5-.7 1.5-1.5 1.5zm0-30c-.8 0-1.5-.7-1.5-1.5s.7-1.5 1.5-1.5 1.5.7 1.5 1.5-.7 1.5-1.5 1.5zm3.4-35.4c.3 0 .5.2.5.5s-.2.5-.5.5-.5-.2-.5-.5.2-.5.5-.5zM84 68h5v25h-5V68zm-9.5 29c-.8 0-1.5-.7-1.5-1.5s.7-1.5 1.5-1.5 1.5.7 1.5 1.5-.7 1.5-1.5 1.5zm0-30c-.8 0-1.5-.7-1.5-1.5s.7-1.5 1.5-1.5 1.5.7 1.5 1.5-.7 1.5-1.5 1.5zM60 68h5v25h-5V68zm-9.5 29c-.8 0-1.5-.7-1.5-1.5s.7-1.5 1.5-1.5 1.5.7 1.5 1.5-.7 1.5-1.5 1.5zm0-30c-.8 0-1.5-.7-1.5-1.5s.7-1.5 1.5-1.5 1.5.7 1.5 1.5-.7 1.5-1.5 1.5z"/></svg>