<svg id="Слой_1" xmlns="http://www.w3.org/2000/svg" viewBox="0 0 230 230"><style>.st0{fill:#4d4d4d}.st1{fill:#333}.st2{fill:#666}.st3{fill:#fec642}.st4{fill:#e6b33c}.st5{fill:#cdaf8b}.st6{fill:#9b7b62}.st7{fill:#edd2b5}.st8{fill:#b59475}.st9{opacity:.15}.st10{fill:#b53737}.st11{fill:#fff}.st12,.st13{fill-rule:evenodd;clip-rule:evenodd}.st12{opacity:.15}.st13{fill:#c44949}.st14{fill:#ffbf0b}</style><path class="st0" d="M170.9 143.4c-35.2 16-75.7 16-110.9 0-3.2-1.5-5.3-4.7-5.3-8.2V86.3h121.4v48.9c.1 3.5-2 6.7-5.2 8.2z"/><path class="st1" d="M106.3 86.3V155c20.4 1.4 41.1-1.8 60.4-9.8 5.8-2.4 9.5-8.1 9.5-14.3V86.3h-69.9z"/><path class="st0" d="M124.4 109.4L3 82.7 111.1 59 228 84.2z"/><path class="st1" d="M228 84.2v3.1l-103.6 25.2v-3.1z"/><path class="st2" d="M3 85.8v-3.1l121.4 26.7v3.1z"/><path class="st3" d="M23.3 110h-4.5V86.3l4.5.8z"/><circle class="st4" cx="21.1" cy="109.2" r="3.8"/><path class="st4" d="M24.1 117.5h-5.9c-.4 0-.8-.4-.8-.8v-3.9c0-.4.4-.8.8-.8h5.9c.4 0 .8.4.8.8v3.9c0 .4-.4.8-.8.8z"/><path class="st3" d="M22.7 117.5h-3c-.7 0-1.3.5-1.5 1.2l-5.6 27c-.2.9.5 1.8 1.5 1.8h14.2c.9 0 1.7-.9 1.5-1.8l-5.6-27c-.2-.7-.8-1.2-1.5-1.2zM18.8 86.3l89.3-6.6 2.5 1.4-87.3 6z"/><ellipse class="st1" cx="115.5" cy="81.1" rx="17.2" ry="4.6"/><g><ellipse transform="rotate(-106.224 213.971 120.089)" class="st5" cx="214" cy="120.1" rx="13.9" ry="3.3"/><path class="st6" d="M214.5 105.5l7.8 26.6s-5.3 1.5-14.7 4c-35.4 7.5-69.1 18.6-103.3 30.1-8.4 2.4-14.7 4.5-14.7 4.5l-7.8-26.6s6.4-1.6 14.7-4c35.3-7.8 69.6-17.1 103.5-30.1 9.2-3 14.5-4.5 14.5-4.5z"/><path class="st5" d="M216.4 112.3l5.8 19.9s-5.3 1.5-14.7 4c-35.4 7.5-69.1 18.6-103.3 30.1-8.4 2.4-14.7 4.5-14.7 4.5l-5.8-19.9s6.6-1.8 14.9-4.2c34.7-8.9 69-18.3 103.1-30 9.4-2.9 14.7-4.4 14.7-4.4z"/><path class="st6" d="M81.8 144.1c1.7-.5 3.9 1.8 5.8 5.7.9 1.8 1.8 4 2.5 6.4l.1.3c2.1 7.3 1.8 13.6-.6 14.4-1.7.5-4.1-2.1-6.1-6.2l1.8-2.4-2.7.2c-.5-1.1-.9-2.4-1.3-3.7-2.2-7.5-1.9-14 .5-14.7z"/><path class="st7" d="M91.1 151.3l3.7-.6-2.9 2.6c.2.7.5 1.3.7 2 .5 1.6.8 3.1 1 4.5 0 0 5.2-1.5 14.2-4.2 32.6-10.1 64.9-19.5 97.9-28.5 9-2.5 14.1-4 14.1-4l-5.2-17.8s-5.3 1.5-14.5 4.5c-33.9 13-68.2 22.3-103.5 30.1-8.4 2.4-14.7 4-14.7 4 2.4-.5 6.9 2.3 9.2 7.4z"/><path class="st8" d="M87.6 149.8h.1c.9 1.8 1.8 4 2.5 6.4l.1.3-5.2 1.2c-.9-3.9 1.2-7.6 2.5-7.9z"/><path class="st7" d="M215.2 124.6l9.8-2.8c-.7-2.4-1.4-4.5-2.2-6.4l-4.6.8 3.7-2.8c-1.1-2.4-2.1-4.2-3-5.6-1.1-1.8-3.3-2.6-5.3-2l-3.6 1.1 5.2 17.7z"/><g><path class="st9" d="M149.3 126.5l7.1 10.6-.3 12.8-8.2 2.4.4-12.9-7.2-10.6z"/><path class="st10" d="M148.6 126.6l7.2 10.7-.3 12.8-8.2 2.3.4-12.8-7.2-10.6z"/><path class="st10" d="M148.6 126.6l7.2 10.7-.3 12.8-8.2 2.3.4-12.8-7.2-10.6z"/><path class="st11" d="M148.9 139.3l-.4 12.8.7-.2.3-12.8-7.2-10.6-.6.1zM154.4 137.7l-.4 12.8.6-.2.4-12.8-7.2-10.6-.6.1z"/></g><g><path class="st12" d="M158.8 145.2c.6-1.5.7-3.2.2-4.9-1.2-3.8-5.3-5.9-9-4.7-3.8 1.2-5.9 5.3-4.7 9 .5 1.5 1.4 2.7 2.6 3.6l-2.6 11.9 4-5 2.1 6.6 2.6-12.3h.1l9.1 8.6-2.1-6.7 6.2 1.8-8.5-7.9z"/><path class="st13" d="M158.3 143.5c.6-1.5.7-3.2.2-4.9-1.2-3.8-5.3-5.9-9-4.7-3.8 1.2-5.9 5.3-4.7 9 .5 1.5 1.4 2.7 2.6 3.6l-2.6 11.9 4-5 2.1 6.6 2.6-12.3h.1l9.1 8.6-2.1-6.7 6.2 1.8-8.5-7.9z"/><path class="st11" d="M150.6 156.3l-1.5-4.8-2.6 3.2 1.9-8.6-.5-.4c-1-.8-1.8-1.8-2.2-3.1-1-3.3.8-6.8 4-7.8 3.3-1 6.8.8 7.8 4 .4 1.4.4 2.9-.2 4.2l-.2.6 5.8 5.7-4.2-1.1 1.5 4.8-6.6-6.5-1.1.3-1.9 9.5zm-1.3-5.6l1.3 4.1 1.7-8.1 1.7-.5 5.8 5.5-1.3-4 3.2.9-5-4.8.3-.8c.5-1.3.5-2.7.1-3.9-1-3.1-4.3-4.8-7.3-3.8-3.1 1-4.8 4.3-3.8 7.3.4 1.2 1.1 2.2 2.1 2.9l.7.5-1.5 7.1 2-2.4z"/><path class="st11" d="M160.3 153.2l-1.8-5.5.5.1 1.9 5.9z"/><g><path class="st14" d="M151.3 142.5l.1 1.9-1.5.5-.1-7.3 2-.6 4.2 6-1.6.5-1.1-1.5-2 .5zm1.3-1.7l-.9-1.3c-.2-.4-.5-.8-.7-1.2 0 .4.1 1 .1 1.4l.1 1.5 1.4-.4z"/></g></g></g></svg>