<svg id="Слой_1" xmlns="http://www.w3.org/2000/svg" viewBox="0 0 147 147"><style>.st0{opacity:.15}.st1,.st2{fill-rule:evenodd;clip-rule:evenodd}.st2{fill:#fff}</style><g class="st0"><path class="st1" d="M73.5 147C33.5 147 1 114.5 1 74.5S33.5 2 73.5 2 146 34.5 146 74.5 113.5 147 73.5 147zM56.1 98.5c.2.7.4 1.4.7 2l1.5-.1-1 1.3c1.1 2.2 2.3 3.6 3.2 3.3.5-.1 3.7-1.2 7.8-2.4 7.5-2.5 15-5 22.5-7.3l-.7 3.1.7-.8-.4 1.7 2.2-2.7.8 2.6.3.9 1.3-6 .7-.2 4.4 4.2-1.1-3.5 3.3.9-1.2-1.2 1 .3-2.2-2c7.9-2.3 15.9-4.4 24.1-6.1 2.3-.6 4.1-1.1 5.5-1.5h.2c1.5-.4 2.3-.6 2.3-.6l-1.4-4.8 2.9-.8c-.4-1.3-.8-2.4-1.2-3.4l-2.5.4 2-1.5c-.6-1.3-1.1-2.3-1.6-3-.5-.8-1.5-1.3-2.4-1.2 0 0-.1 0-.4.1l-1.9.6h-.1c-1.3.4-3.1 1-5.4 1.7-9 3.4-47.6 14.4-55.7 16.1-2.2.6-4.1 1.2-5.5 1.5-.1 0-.2 0-.2.1-.3.1-.6.2-.8.2-.7.2-1.1.3-1.3.3-1.4.4-1.6 3.9-.4 7.8zm16-53.5L14 57.7v1.7l9 1.6v9c-.5.4-1.4 1.3-1.4 2 0 .6.3 1.1.7 1.5-.3 0-.5.3-.5.6v1.7c0 .4.3.6.6.6h.5c-.4 0-.7.3-.8.6l-3 14.5c-.1.5.4 1.5.9 1.5h7c.5 0 1.5-1 1.4-1.5l-3-14.5c-.1-.4-.4-.6-.8-.6h.5c.4 0 .6-.3.6-.6v-1.7c0-.3-.3-.6-.6-.6.4-.4.6-.9.6-1.5 0-.7-.3-1.3-.8-1.7v-8.5L42 66v20c0 1.9 1 3.5 2.7 4.3 3 1.3 6 2.5 9.1 3.4-.3-2.5 0-4.3.9-4.7.1 0 .6-.1 1.3-.3.2-.1.5-.1.8-.2.1 0 .1 0 .2-.1 1.4-.4 3.3-.9 5.5-1.5 8-1.8 39.1-11 44.4-12.8v-7l28-6.8v-1.7L72.1 45z"/></g><path class="st2" d="M73.5 145C33.5 145 1 112.5 1 72.5S33.5 0 73.5 0 146 32.5 146 72.5 113.5 145 73.5 145zM56.1 96.5c.2.7.4 1.4.7 2l1.5-.1-1 1.3c1.1 2.2 2.3 3.6 3.2 3.3.5-.1 3.7-1.2 7.8-2.4 7.5-2.5 15-5 22.5-7.3l-.7 3.1.7-.8-.4 1.7 2.2-2.7.8 2.6.3.9 1.3-6 .7-.2 4.4 4.2-1.1-3.5 3.3.9-1.2-1.2 1 .3-2.2-2c7.9-2.3 15.9-4.4 24.1-6.1 2.3-.6 4.1-1.1 5.5-1.5h.2c1.5-.4 2.3-.6 2.3-.6l-1.4-4.8 2.9-.8c-.4-1.3-.8-2.4-1.2-3.4l-2.5.4 2-1.5c-.6-1.3-1.1-2.3-1.6-3-.5-.8-1.5-1.3-2.4-1.2 0 0-.1 0-.4.1l-1.9.6h-.1c-1.3.4-3.1 1-5.4 1.7-9 3.4-47.6 14.4-55.7 16.1-2.2.6-4.1 1.2-5.5 1.5-.1 0-.2 0-.2.1-.3.1-.6.2-.8.2-.7.2-1.1.3-1.3.3-1.4.4-1.6 3.9-.4 7.8zm16-53.5L14 55.7v1.7l9 1.6v9c-.5.4-1.4 1.3-1.4 2 0 .6.3 1.1.7 1.5-.3 0-.5.3-.5.6v1.7c0 .4.3.6.6.6h.5c-.4 0-.7.3-.8.6l-3 14.5c-.1.5.4 1.5.9 1.5h7c.5 0 1.5-1 1.4-1.5l-3-14.5c-.1-.4-.4-.6-.8-.6h.5c.4 0 .6-.3.6-.6v-1.7c0-.3-.3-.6-.6-.6.4-.4.6-.9.6-1.5 0-.7-.3-1.3-.8-1.7v-8.5L42 64v20c0 1.9 1 3.5 2.7 4.3 3 1.3 6 2.5 9.1 3.4-.3-2.5 0-4.3.9-4.7.1 0 .6-.1 1.3-.3.2-.1.5-.1.8-.2.1 0 .1 0 .2-.1 1.4-.4 3.3-.9 5.5-1.5 8-1.8 39.1-11 44.4-12.8v-7l28-6.8v-1.7L72.1 43z"/></svg>