<svg id="Слой_1" xmlns="http://www.w3.org/2000/svg" viewBox="0 0 230 230"><style>.st0{fill:#363636}.st1{fill:#505050}.st2{fill:#185f4d}.st3,.st4{opacity:.15;fill:#fff}.st4{opacity:.76}.st5{fill:#176d3c}.st6{fill:#439e63}.st7{fill:#e8980f}.st8{fill:#fcc344}.st9{opacity:.76;fill:#ffeb79}</style><path class="st0" d="M179 127.7c-9.3 4.5-20.4 6-28.6 12.5-6 4.8-11.5 10.7-15.9 17.2-2.4-8.4-6.5-16.2-11-23.8-2.3-3.8-2.6-8.4-1-12.4 5.7-14.2 16.2-26.2 29.8-33 12.3-9.4 20.9-23 23.9-37.9-2.8 12.8-10.1 24.4-20.4 32.3-8.4 6.3-19.4 10-26.3 18.3-5.3 6.3-9.9 13.7-13 21.5-4.3-6.8-8.6-13.6-11.9-20.6C93.1 77 91.1 48.1 98.3 21.5c-8.1 27-6.8 56.6 2.9 83.5-5.1-2.5-10.6-4.2-16.1-5.2-8.2-1.5-16.5 1.7-24.7 2.1-10.1.4-20.2-2.9-28.2-9.1 9.1 7.4 21 11.2 33 10.8 11.2-2.6 23.2-.8 33.5 4.6 3 1.6 5.4 4.2 6.8 7.4 8.3 11.6 14.4 24.6 18.4 38.2-7.6-4.7-16.1-8.1-24.6-10.4-12-3.2-24.8.6-37 .2-15-.6-29.6-6.8-40.8-17 12.7 12.1 29.9 19.2 47.8 20 17.9-2.7 36.5 2.1 51.6 12.4 3.4 2.3 5.7 6 6.4 10 3.3 19.4 2.3 39.7-2.9 59h12.4c3.6-17.7 3.5-38.5.6-56.6-.8-4.7.2-9.6 2.8-13.6 8.1-12.3 20.3-21.6 34.3-25.5 13.5-6.7 24.3-18.1 29.9-31.8-4.9 11.8-14 21.6-25.4 27.2z"/><path class="st1" d="M179 127.7c-9.3 4.5-20.4 6-28.6 12.5-6 4.8-11.5 10.7-15.9 17.2-2.4-8.5-6.5-16.3-11.1-23.9-2.2-3.7-2.6-8.2-1-12.2 5.7-14.3 16.2-26.3 29.9-33.2 12.3-9.4 20.9-23 23.9-37.9-2.8 12.8-10.1 24.4-20.4 32.3-8.4 6.3-19.4 10-26.3 18.3-5.3 6.3-9.9 13.7-13 21.5-4.3-6.8-8.6-13.6-11.9-20.6C93.1 76.9 91.1 48 98.3 21.4c-8.1 27-6.8 56.6 2.9 83.5 4 7.7 8.8 15 13.5 22.5 0 .1-.1.1-.1.2.1.1.3.2.4.3 6.7 10.6 12.9 21.4 15.5 33.6 4.5 20.9 5.6 45.5 1.3 66.5h5c3.7-17.8 3.5-38.2.6-56.7-.7-4.6.2-9.4 2.8-13.3 8.1-12.3 20.3-21.7 34.4-25.6 13.5-6.7 24.3-18.1 29.9-31.8-5 11.7-14.1 21.5-25.5 27.1z"/><path class="st2" d="M99.9 45.6c-4.9 6.7-2 17.2-2 17.2s10.9-.5 15.8-7.2 2-17.2 2-17.2-10.9.4-15.8 7.2z"/><path class="st3" d="M113.7 55.6c-4.9 6.7-15.8 7.2-15.8 7.2l17.8-24.4s2.9 10.5-2 17.2z"/><path class="st4" d="M101.9 49.2c0-.2.5-1.1.9-.8l3.3 2.4c-.1-.1-.1-.2-.2-.3-.4-.8-.8-1.6-.9-2.5v-.2l-1.1-.8c-.4-.3.4-1.4.8-1.1l.5.4c.7-1.8 2.4-2.8 4.3-2.3 1.3.3 4.1 2 3.9 3.6 0 .4-.7 1.3-1.1 1.1-.5-.2-.9-1.7-1.3-2.1-1.2-1.2-3.9-1.7-4 .7v.3l5 3.6c.4.3-.4 1.4-.8 1.1l-3.3-2.4c.1.2.3.5.4.7.4.8.8 1.6 1 2.4l.9.7c.4.3-.4 1.3-.8 1.1l-.2-.2c-.6 2-2.8 3.2-4.8 2.7-1.5-.4-4.6-2.3-4.4-4.3.1-.7.6-1.3 1.2-1 .2.1.5 1 .6 1.3.2.4.5.7.8 1 1.3 1.3 4.6 2 4.7-.7v-.5l-5.1-3.7c-.2 0-.3-.1-.3-.2s0 .1 0 0z"/><path class="st2" d="M140.3 104.6c-6.4.4-11.2 7.2-11.2 7.2s5.6 6.2 12 5.9c6.4-.4 11.2-7.2 11.2-7.2s-5.5-6.3-12-5.9z"/><path class="st3" d="M141.1 117.7c-6.4.4-12-5.9-12-5.9l23.2-1.4c0 .1-4.8 6.9-11.2 7.3z"/><path class="st4" d="M139.2 107.6c.2-.1.9-.2.9.1l.2 3.1c0-.1.1-.2.1-.3.3-.6.5-1.3 1-1.8l.1-.1-.1-1c0-.4 1-.4 1-.1v.5c1.7-.6 3.3.4 3.7 2.1.2.8.3 2.9-.6 3.4-.2.1-1 .2-1.1 0-.2-.3.5-1.3.5-1.6.3-1.3-.7-3.5-2.3-2.3-.1 0-.1.1-.2.1l.3 4.7c0 .4-1 .4-1 .1l-.2-3.1c-.1.2-.2.4-.2.6-.2.6-.5 1.3-1 1.8l.1.9c0 .4-1 .4-1 .1v-.2c-1.7.7-3.5-.3-4.1-1.9-.4-1-.6-3.6.5-4.4.3-.2 1-.3 1.2.1.1.3-.7 1.7-.7 2.1-.2 1.4 1 3.8 2.7 2.5l.3-.3-.3-4.9c.1-.1.1-.2.2-.2.1-.1-.1 0 0 0z"/><path class="st2" d="M132.3 79.8c-.8 5.9 4.7 11.5 4.7 11.5s6.7-4 7.4-10c.8-5.9-4.7-11.5-4.7-11.5s-6.6 4.1-7.4 10z"/><path class="st3" d="M144.4 81.3c-.8 5.9-7.4 10-7.4 10l2.7-21.5s5.5 5.6 4.7 11.5z"/><path class="st4" d="M134.8 81.4c-.1-.1 0-.9.3-.8l2.9.4c-.1 0-.2-.1-.2-.1-.5-.3-1.1-.7-1.4-1.2l-.1-.1-1-.1c-.3 0-.2-1 .1-1l.4.1c-.2-1.6.8-2.8 2.4-3 .8-.1 2.9.1 3.2 1.2.5 1.6-1.1.4-1.6.2-1.1-.5-3.3 0-2.5 1.7 0 .1.1.1.1.2l4.4.6c.3 0 .2 1-.1 1l-2.9-.4c.2.1.3.2.5.3.5.3 1.1.7 1.4 1.2l.8.1c.3 0 .2 1-.1.9h-.2c.3 1.6-.8 3.1-2.4 3.4-1.1.2-3.8-.1-4-1.5-.1-1.6 1.6.1 2.3.3 1.2.3 3.4-.4 2.6-2.1-.1-.1-.1-.2-.2-.3l-4.5-.6c-.1-.3-.1-.3-.2-.4 0-.1.1.1 0 0z"/><path class="st2" d="M81.6 117.4c5.8-3.1 7.4-11.6 7.4-11.6s-7.9-3.4-13.8-.3c-5.8 3.1-7.4 11.6-7.4 11.6s8 3.4 13.8.3z"/><path class="st3" d="M75.3 105.4c5.8-3.1 13.8.3 13.8.3L67.9 117s1.5-8.5 7.4-11.6z"/><path class="st4" d="M81.4 114c-.1.2-.7.6-.9.3l-1.5-2.8v.3c0 .7 0 1.4-.2 2.1l-.1.2.5 1c.2.3-.8.8-.9.5l-.2-.4c-1.4 1.3-3.3 1-4.4-.4-.6-.7-1.6-2.6-.9-3.4.1-.2.8-.6 1-.5.3.2.1 1.4.2 1.7.3 1.3 2.2 3 3.2 1.2 0-.1.1-.1.1-.2l-2.3-4.3c-.2-.3.8-.8.9-.5l1.5 2.9v-.7c0-.7 0-1.4.1-2.1l-.4-.8c-.2-.3.8-.8.9-.5l.1.2c1.3-1.4 3.4-1.2 4.6 0 .9.8 2 2.9 1.5 4.1-.1.3-.8 1-1.2.7-.2-.2-.1-1.9-.2-2.1-.4-1.4-2.5-3.4-3.7-1.4-.1.1-.1.2-.2.4l2.4 4.4c.2 0 .2.1.1.1 0 .1.1 0 0 0z"/><path class="st2" d="M26.8 96.8c6.3 4.6 16.1 1.9 16.1 1.9s-.4-10.2-6.7-14.8C29.9 79.3 20.1 82 20.1 82s.4 10.2 6.7 14.8z"/><path class="st3" d="M36.2 83.9c6.3 4.6 6.7 14.8 6.7 14.8L20.1 82s9.8-2.7 16.1 1.9z"/><path class="st4" d="M30.2 94.9c-.2 0-1-.5-.8-.8l2.2-3.1c-.1.1-.2.1-.3.2-.7.4-1.5.8-2.3.9h-.2l-.8 1c-.3.4-1.3-.4-1-.7l.3-.5c-2-.8-2.8-2.8-1.9-4.8.4-1 2-3.1 3.3-2.9.4.1 1 .6.8 1-.1.4-1.5.8-1.9 1.1-1.2 1.1-1.6 3.6.6 3.8h.3l3.4-4.6c.3-.4 1.3.4 1 .7l-2.3 3.1c.2-.1.5-.2.7-.4.7-.4 1.5-.8 2.3-.9l.6-.9c.3-.4 1.3.4 1 .7l-.2.2c2.1.6 3.1 2.9 2.4 4.9-.4 1.3-2.2 3.9-3.9 3.7-.6-.1-1.3-.6-.9-1.1.1-.1.9-.4.9-.4.4-.2.9-.5 1.2-.8 1.3-1.2 2-4.3-.6-4.5h-.5l-3.5 4.8c.3.3.2.3.1.3s.1 0 0 0z"/><path class="st2" d="M159.6 152.3c-6.6-2.7-14.8 1.9-14.8 1.9s2.6 9 9.3 11.6 14.8-1.9 14.8-1.9-2.7-8.9-9.3-11.6z"/><path class="st3" d="M154.1 165.9c-6.6-2.7-9.3-11.6-9.3-11.6l24.1 9.7s-8.1 4.6-14.8 1.9z"/><path class="st4" d="M157 154.8c.2 0 1 .2.9.6l-1.3 3.2.2-.2c.6-.5 1.1-1 1.8-1.3l.2-.1.4-1.1c.2-.4 1.2.1 1.1.4l-.2.5c1.8.2 3 1.7 2.8 3.4-.1 1.1-1 3.5-2.3 3.6-.3 0-1.1-.3-1.1-.6s1.2-1.2 1.4-1.4c.8-1.2.8-3.7-1.3-3.3-.1 0-.2 0-.2.1l-2 4.9c-.2.4-1.2-.1-1.1-.4l1.3-3.3-.5.5c-.5.5-1.1 1-1.8 1.3l-.4.9c-.2.4-1.2-.1-1.1-.4l.1-.2c-2-.1-3.4-1.9-3.2-3.8.1-1.3 1-3.8 2.5-4.2.4-.1 1.3.1 1.3.6 0 .4-1 .9-1.3 1.2-1.1 1.2-1.8 5 1.1 4.4.1 0 .3-.1.4-.1l2-5c.1-.1.2-.2.3-.2.1 0-.1 0 0 0z"/><path class="st2" d="M133.2 139.3c0 5 5.1 9.1 5.1 9.1s5.2-4.1 5.2-9.1-5.1-9.1-5.1-9.1-5.2 4-5.2 9.1z"/><path class="st3" d="M143.5 139.3c0 5-5.2 9.1-5.2 9.1v-18.3c.1.1 5.2 4.2 5.2 9.2z"/><path class="st4" d="M135.5 140.3c-.1-.1-.1-.7.1-.7h2.5c-.1 0-.1-.1-.2-.1-.5-.2-1-.5-1.3-.9l-.1-.1h-.8c-.3 0-.3-.8 0-.8h.4c-.3-1.3.4-2.5 1.7-2.8.7-.2 2.5-.2 2.8.6.6 1.3-.9.4-1.3.3-1-.3-2.8.3-1.9 1.7l.1.1h3.7c.3 0 .3.8 0 .8h-2.5c.2.1.3.1.5.2.5.2 1 .5 1.3.8h.7c.3 0 .3.8 0 .8h-.2c.5 1.3-.4 2.7-1.7 3.1-.8.3-3 .3-3.5-.7-.6-1.5 1.5-.2 1.9-.1 1.1.2 2.8-.7 2-2-.1-.1-.1-.2-.2-.2h-3.8c-.1.1-.2.1-.2 0 0 0 0 .1 0 0z"/><path class="st2" d="M200.8 95.3c-7.3 7-6 20.1-6 20.1s13 1.8 20.3-5.2c7.3-7 6-20.1 6-20.1s-13-1.7-20.3 5.2z"/><path class="st3" d="M215.1 110.2c-7.3 7-20.3 5.2-20.3 5.2l26.3-25.3s1.3 13.1-6 20.1z"/><path class="st4" d="M202.5 100.1c.1-.3.8-1.2 1.2-.8l3.4 3.5c-.1-.1-.1-.3-.2-.4-.3-1-.6-2-.6-3.1V99l-1.1-1.2c-.4-.4.8-1.5 1.2-1.1l.5.5c1.3-2.1 3.9-2.9 6-1.7 1.4.8 3.7 3 3.4 4.8-.1.5-1 1.5-1.5 1.2-.4-.2-.8-2.3-1.1-2.8-1.1-1.7-4.3-2.8-4.9 0 0 .1 0 .2-.1.3l5.1 5.4c.4.4-.8 1.5-1.2 1.1l-3.4-3.6.3.9c.3 1 .7 2 .6 3.1l.9 1c.4.4-.8 1.5-1.2 1.1l-.2-.2c-1.2 2.4-4.2 3.2-6.6 2-1.7-.8-4.4-3.5-4.1-5.7.1-.6 1.1-1.8 1.6-1.2.2.2.3 1.1.4 1.4.2.6.4 1.1.7 1.6.7 1.1 1.8 2.1 3.1 2.3 1.2.1 2.5-.7 2.8-1.9 0-.2.1-.4.1-.6l-5.3-5.5c.2.2.1 0 .2-.1 0-.1-.1.1 0 0z"/><path class="st2" d="M95.1 136.9c3.6 6.3 13 7.7 13 7.7s3.5-8.8-.1-15.2c-3.6-6.3-13-7.7-13-7.7s-3.5 8.9.1 15.2z"/><path class="st3" d="M108 129.5c3.6 6.3.1 15.2.1 15.2l-13.1-23s9.4 1.5 13 7.8z"/><path class="st4" d="M98.8 136.6c-.2-.1-.7-.8-.3-1l3.1-1.8h-.3c-.8.1-1.5.1-2.3-.1l-.2-.1-1 .6c-.4.2-.9-.8-.6-1l.5-.3c-1.5-1.5-1.2-3.6.3-4.9.8-.7 2.8-1.8 3.8-1.1.3.2.6.9.4 1.2-.2.2-1.8.2-2.1.3-1.4.5-2.7 2.5-.9 3.5.1 0 .1.1.2.1l4.6-2.7c.4-.2.9.8.6 1l-3.1 1.8c.2 0 .5 0 .7-.1.8-.1 1.5-.1 2.3.1l.9-.5c.4-.2.9.8.6 1l-.2.1c1.5 1.3 1.5 3.7.2 5.1-.9 1-3.6 2.6-4.9 1.6-.4-.3-.6-.9-.2-1.2.4-.3 1.8-.1 2.3-.3 1.5-.5 3.4-2.9 1.2-4-.1-.1-.3-.1-.4-.2l-4.8 2.8c-.3.1-.3.1-.4.1-.1-.1.1 0 0 0z"/><path class="st2" d="M85.6 163.4c6.6-4.2 7.6-14.2 7.6-14.2s-9.6-3.3-16.1.8c-6.6 4.2-7.6 14.2-7.6 14.2s9.5 3.3 16.1-.8z"/><path class="st3" d="M77.1 150c6.6-4.2 16.1-.8 16.1-.8l-23.8 15.1c0-.1 1.1-10.1 7.7-14.3z"/><path class="st4" d="M85 159.5c-.1.2-.8.8-1 .4l-2-3.2c0 .1 0 .2.1.4.1.8.2 1.6 0 2.4l-.1.2.7 1.1c.2.4-.8 1-1.1.7l-.3-.5c-1.3 1.4-3.4 1.6-4.8.3-.9-.8-2.5-3-1.8-4.3.2-.3 1-.8 1.3-.5.3.3.2 1.8.4 2.2.6 1.5 2.8 2.8 3.7.8 0-.1.1-.2.1-.2l-3.1-4.8c-.2-.4.8-1 1.1-.7l2 3.2c0-.3-.1-.5-.1-.8-.1-.8-.2-1.6 0-2.4l-.6-.9c-.2-.4.8-1 1-.7l.1.2c1.4-1.7 3.8-1.8 5.4-.4 1 .9 2.7 3.3 2.1 4.8-.2.4-1 1.2-1.4.8-.3-.2-.2-1.8-.3-2.2-.5-1.7-3.3-4.1-4.5-1.5-.1.1-.1.3-.2.5l3.2 5c.2 0 .2 0 .1.1 0 .1.1-.1 0 0z"/><g><path class="st5" d="M74.3 66.4c5.4 5.7 15.5 4.7 15.5 4.7s1.4-10.1-4-15.8-15.5-4.7-15.5-4.7-1.4 10.2 4 15.8z"/><path class="st3" d="M85.9 55.4c5.4 5.7 4 15.8 4 15.8L70.3 50.7s10.2-1 15.6 4.7z"/><path class="st4" d="M78 65.1c-.2 0-.9-.7-.6-1l2.8-2.6c-.1 0-.2.1-.3.1-.8.3-1.6.5-2.4.5h-.2l-1 .9c-.3.3-1.2-.6-.9-.9l.4-.4c-1.8-1.1-2.2-3.3-1.1-5 .6-.9 2.5-2.7 3.8-2.2.4.2.9.8.7 1.1-.2.3-1.6.5-2.1.8-1.3.9-2.2 3.3 0 3.8h.3l4.2-4c.3-.3 1.2.6.9.9l-2.8 2.6c.2-.1.5-.2.7-.2.8-.3 1.6-.5 2.4-.5l.8-.7c.3-.3 1.2.6.9.9l-.2.2c2 1 2.5 3.4 1.5 5.3-.7 1.2-2.9 3.5-4.5 3-.6-.2-1.1-.8-.7-1.3.1-.1.9-.2 1-.3.5-.1.9-.3 1.4-.6 1.5-.9 2.7-3.9.2-4.5-.1 0-.3-.1-.5-.1L78.4 65c-.2.1-.3.2-.4.1-.1 0 .1.1 0 0z"/></g><g><path class="st5" d="M157.2 87.8c-7.1 1-11.8 9-11.8 9s6.7 6.4 13.8 5.4c7.1-1 11.8-9 11.8-9s-6.7-6.4-13.8-5.4z"/><path class="st3" d="M159.2 102.2c-7.1 1-13.8-5.4-13.8-5.4l25.5-3.6c.1 0-4.6 8-11.7 9z"/><path class="st4" d="M156.2 91.2c.2-.1 1-.3 1 .1l.5 3.4c0-.1.1-.2.1-.3.2-.7.5-1.4.9-2l.1-.1-.2-1.2c-.1-.4 1.1-.5 1.1-.2l.1.5c1.8-.8 3.6.1 4.3 1.9.4.9.7 3.2-.3 3.9-.2.1-1.1.3-1.2 0-.1-.2.5-1.7.5-2 .1-1.5-1.2-3.5-2.8-2.1l-.2.2.7 5.2c.1.4-1.1.5-1.1.2l-.5-3.5c-.1.2-.1.4-.2.7-.2.7-.5 1.4-.9 2l.1 1c.1.4-1.1.5-1.1.2v-.2c-1.6.8-3.6.2-4.5-1.4-.7-1.2-1.3-4.2 0-5.3.4-.3 1.1-.4 1.3.1.1.3-.6 1.7-.6 2.1-.1 1.6 1.3 4.4 3.2 2.8l.3-.3-.7-5.3c0-.3 0-.3.1-.4.1-.1-.1.1 0 0z"/></g><g><path class="st5" d="M113.8 98.3c-1.1 5.9 4 11.9 4 11.9s7-3.6 8.1-9.6-4-11.9-4-11.9-6.9 3.7-8.1 9.6z"/><path class="st3" d="M125.9 100.6c-1.1 5.9-8.1 9.6-8.1 9.6l4.1-21.5c.1 0 5.2 6 4 11.9z"/><path class="st4" d="M116.3 100.1c-.1-.1 0-.9.3-.8l2.9.6c-.1-.1-.2-.1-.2-.2-.5-.4-1-.8-1.4-1.3l-.1-.1-1-.2c-.3-.1-.1-1 .2-1l.4.1c-.1-1.6 1-2.8 2.6-2.9.8-.1 3 .3 3.2 1.4.3 1.7-1.1.3-1.6.1-1.1-.6-3.4-.2-2.7 1.6 0 .1.1.1.1.2l4.4.8c.3.1.2 1-.2 1l-2.9-.6c.2.1.3.2.5.4.5.4 1 .8 1.4 1.3l.8.2c.3.1.2 1-.2.9h-.2c.2 1.7-1 3.1-2.7 3.3-1.1.1-3.9-.3-3.9-1.8-.1-1.6 1.6.2 2.3.5 1.2.4 3.5-.2 2.8-1.9 0-.1-.1-.2-.2-.3l-4.5-.9c0-.3-.1-.4-.1-.4 0-.1 0 0 0 0z"/></g><g><path class="st5" d="M54.5 96.2c4.8 3.6 12.4 1.6 12.4 1.6s-.2-7.9-5-11.5-12.4-1.6-12.4-1.6.2 7.9 5 11.5z"/><path class="st3" d="M61.9 86.4c4.8 3.6 5 11.5 5 11.5L49.4 84.7s7.7-2 12.5 1.7z"/><path class="st4" d="M57.1 94.8c-.1 0-.8-.4-.6-.6l1.8-2.3c-.1 0-.2.1-.2.1-.6.3-1.2.6-1.8.6h-.2l-.6.8c-.2.3-1-.3-.8-.6l.3-.4c-1.5-.6-2.1-2.1-1.5-3.6.3-.8 1.6-2.5 2.6-2.3 1.7.4-.2 1.1-.6 1.5-1 .8-1.7 2.9.2 3.1h.2l2.7-3.5c.2-.3 1 .3.8.6l-1.8 2.4c.2-.1.4-.2.5-.3.6-.3 1.1-.6 1.8-.7l.5-.7c.2-.3 1 .3.8.6l-.1.2c1.6.5 2.3 2.3 1.8 3.8-.4 1-2 3.3-3.3 2.7-1.4-.6.9-1.4 1.4-1.8.9-.9 1.4-3.2-.5-3.3h-.4l-2.8 3.7h-.2c-.1 0 .1 0 0 0z"/></g><g><path class="st5" d="M164.6 47.9c0 7.4 7.6 13.4 7.6 13.4s7.6-6 7.6-13.4-7.6-13.4-7.6-13.4-7.6 5.9-7.6 13.4z"/><path class="st3" d="M179.8 47.9c0 7.4-7.6 13.4-7.6 13.4V34.4s7.6 6 7.6 13.5z"/><path class="st4" d="M168 49.4c-.1-.2-.2-1.1.2-1.1h3.6c-.1 0-.2-.1-.3-.1-.7-.3-1.4-.7-2-1.3l-.1-.1h-1.2c-.4 0-.4-1.2 0-1.2h.6c-.5-1.9.6-3.7 2.6-4.2 1-.2 3.4-.3 4 .9.2.3.1 1.1-.2 1.3-.2.1-1.7-.8-2-.8-1.5-.3-3.7.8-2.5 2.6 0 .1.1.1.1.2h5.5c.4 0 .4 1.2 0 1.2h-3.6c.2.1.4.2.7.3.7.3 1.4.7 2 1.2h1c.4 0 .4 1.2 0 1.2h-.3c.7 2-.5 4-2.4 4.6-1.2.4-4 .5-5-.7-.2-.3-.4-1.4.1-1.5.3-.1 1.6.8 2 .9 1.6.5 5-.5 3.5-2.9-.1-.1-.2-.2-.3-.4h-5.6c-.3 0-.4 0-.4-.1-.1-.1 0 .1 0 0z"/></g><g><path class="st5" d="M86.4 21.4c-1.7 11.1 8.2 21.9 8.2 21.9s12.7-7.3 14.5-18.4S100.8 3 100.8 3s-12.7 7.3-14.4 18.4z"/><path class="st3" d="M109.1 24.9C107.3 36 94.6 43.3 94.6 43.3L100.8 3s10 10.8 8.3 21.9z"/><path class="st4" d="M91 24.5c-.2-.4 0-1.6.6-1.5l5.4.8c-.1-.1-.3-.2-.4-.3-1-.7-1.9-1.4-2.6-2.4l-.2-.2-1.8-.3c-.6-.1-.4-1.9.3-1.8l.8.1c-.3-2.7 1.4-5 4-5.5 1.3-.3 2.7-.1 4 .4.8.3 2.3.9 2.6 1.8.2.6-.1 2-.8 1.8-.4-.1-.9-.7-1.2-.9-.5-.3-1.1-.6-1.6-.8-2.1-.7-5.4.6-4.2 3.4.1.1.1.2.2.3l8.2 1.3c.6.1.4 1.9-.3 1.8l-5.5-.8.9.6c1 .6 2 1.4 2.7 2.3l1.5.2c.6.1.4 1.9-.3 1.8l-.4-.1c.5 3-1.6 5.7-4.5 6.3-1.5.3-3.1.1-4.6-.4-1-.3-2.6-1-3-2-.3-.8 0-2.4 1-1.8 1.1.6 1.8 1.4 3 1.9 1.3.4 2.8.6 4-.1 1.1-.7 1.8-2.3 1.2-3.6l-.3-.6-8.4-1.3c-.1-.2-.2-.3-.3-.4 0-.2.1.1 0 0z"/></g><g><path class="st5" d="M171.6 110.9c-2.3 7.6 3.6 16.1 3.6 16.1s9.6-3.8 11.9-11.4c2.3-7.6-3.6-16.1-3.6-16.1s-9.6 3.8-11.9 11.4z"/><path class="st3" d="M187.1 115.7c-2.3 7.6-11.9 11.4-11.9 11.4l8.4-27.5c-.1-.1 5.8 8.5 3.5 16.1z"/><path class="st4" d="M174.6 113.6c-.1-.2.1-1.1.5-1l3.7 1.1c-.1-.1-.2-.2-.3-.2-.6-.6-1.2-1.2-1.6-1.9l-.1-.2-1.2-.4c-.4-.1 0-1.3.4-1.2l.6.2c.1-1.8 1.3-3.3 3.1-3.5 1.3-.1 4.3.5 4.6 2.1.1.3-.2 1.4-.6 1.3-.5 0-1.3-1.2-1.8-1.5-1.4-.8-4-.3-3.4 1.9 0 .1.1.2.1.3l5.6 1.7c.4.1 0 1.3-.4 1.2l-3.7-1.1c.2.2.4.4.6.5.6.5 1.2 1.1 1.6 1.9l1 .3c.4.1.1 1.3-.4 1.2l-.3-.1c.1 2.2-1.8 3.9-3.9 3.9-1.4 0-4.5-.8-4.9-2.5-.1-.6.1-1.4.8-1.3.1 0 .7.7.7.8.4.3.8.7 1.2.9 1.6.8 4.8.5 4.1-2.1 0-.2-.1-.3-.2-.5l-5.8-1.7v-.1c-.1-.1 0 .1 0 0z"/></g><g><path class="st5" d="M174.8 138.5c-7.5-2.6-16.2 3-16.2 3s3.5 9.8 11 12.3c7.5 2.6 16.2-3 16.2-3s-3.5-9.7-11-12.3z"/><path class="st3" d="M169.6 153.9c-7.5-2.6-11-12.3-11-12.3l27.3 9.3c-.1-.1-8.8 5.5-16.3 3z"/><path class="st4" d="M172.1 141.4c.2-.1 1.1.2 1 .6l-1.2 3.7c.1-.1.2-.2.2-.3.6-.6 1.2-1.2 2-1.5l.2-.1.4-1.2c.2-.4 1.4 0 1.2.4l-.2.6c1.8.1 3.2 1.4 3.3 3.2.1 1.3-.7 4.3-2.2 4.6-.4.1-1.4-.2-1.3-.7 0-.5 1.3-1.3 1.5-1.7.8-1.4.4-4-1.8-3.5-.1 0-.2 0-.3.1l-1.9 5.5c-.1.4-1.4 0-1.2-.4l1.3-3.7c-.2.2-.4.4-.5.6-.6.6-1.2 1.2-1.9 1.6l-.3 1c-.1.4-1.3 0-1.2-.4l.1-.3c-2.2 0-3.9-1.9-3.8-4.1 0-1.4 1-4.5 2.6-4.8.6-.1 1.4.2 1.2.8 0 .1-.7.6-.8.7-.4.4-.7.8-.9 1.2-.9 1.5-.6 4.8 1.9 4.2.2 0 .3-.1.5-.2l1.9-5.7c0-.1.1-.2.2-.2s-.1 0 0 0z"/></g><g><path class="st5" d="M100.6 157.1c-6.3 3.7-7.7 13.1-7.7 13.1s8.9 3.5 15.2-.2 7.7-13.1 7.7-13.1-8.9-3.5-15.2.2z"/><path class="st3" d="M108.1 170c-6.3 3.7-15.2.2-15.2.2l22.8-13.3c.1 0-1.3 9.4-7.6 13.1z"/><path class="st4" d="M101 160.7c.1-.2.8-.7 1-.3l1.8 3.1v-.3c-.1-.8-.1-1.5.1-2.3l.1-.2-.6-1c-.2-.4.8-.9 1-.6l.3.5c1.5-1.5 3.6-1.2 4.9.3.7.8 1.8 2.8 1.1 3.8-.2.3-.9.6-1.2.4-.2-.2-.2-1.8-.3-2.1-.5-1.4-2.5-2.7-3.5-.9 0 .1-.1.2-.1.2l2.7 4.6c.2.4-.8.9-1 .6l-1.8-3.1c0 .2 0 .5.1.7.1.8.1 1.5-.1 2.3l.5.9c.2.4-.8.9-1 .6l-.1-.2c-1.3 1.5-3.7 1.5-5.1.2-1-.9-2.6-3.5-1.7-4.9.3-.4.9-.6 1.2-.2.3.4.1 1.8.3 2.3.5 1.5 2.9 3.4 4 1.2.1-.1.1-.3.2-.4L101 161c-.1-.1-.1-.2 0-.3 0-.1-.1.1 0 0z"/></g><g><path class="st5" d="M52.2 124.9c-4.6-5.9-14.4-6-14.4-6s-2.3 9.5 2.3 15.5c4.6 5.9 14.4 6 14.4 6s2.3-9.6-2.3-15.5z"/><path class="st3" d="M40 134.3c-4.6-5.9-2.3-15.5-2.3-15.5l16.8 21.5c0 .1-9.8 0-14.5-6z"/><path class="st4" d="M48.5 125.8c.2.1.8.7.5 1l-2.9 2.3c.1 0 .2-.1.3-.1.8-.2 1.6-.3 2.4-.2h.2l1-.8c.3-.3 1.1.7.7 1l-.4.3c1.6 1.2 1.8 3.4.5 4.9-.7.8-2.7 2.4-3.8 1.8-.4-.2-.8-.8-.5-1.2.2-.3 1.6-.3 2.1-.5 1.4-.7 2.4-3 .4-3.7-.1 0-.2-.1-.2-.1l-4.4 3.4c-.3.3-1.1-.7-.7-1l2.9-2.3c-.2.1-.5.1-.7.2-.8.2-1.6.3-2.3.2l-.8.6c-.3.3-1.1-.7-.7-.9l.2-.2c-1.8-1.1-2.1-3.5-.9-5.2.7-1.1 3.1-3 4.6-2.4.4.2 1.1.9.6 1.2-.4.4-1.7.3-2.2.6-1.5.7-3.4 3.5-.8 4.4.1 0 .3.1.5.1l4.5-3.5c-.3 0-.2 0-.1.1.1 0-.1-.1 0 0z"/></g><g><path class="st6" d="M103.1 71.9c-3.4 6.7.7 15.5.7 15.5s9.5-1.9 12.9-8.6-.7-15.5-.7-15.5-9.5 1.9-12.9 8.6z"/><path class="st3" d="M116.7 78.8c-3.4 6.7-12.9 8.6-12.9 8.6l12.3-24.1s4 8.9.6 15.5z"/><path class="st4" d="M105.4 74.8c0-.2.3-1 .7-.8l3.2 1.6c-.1-.1-.1-.2-.2-.3-.5-.6-.9-1.3-1.2-2l-.1-.2-1.1-.6c-.4-.2.2-1.3.5-1.1l.5.3c.4-1.8 2-2.9 3.8-2.6 1.1.2 3.6 1.3 3.6 2.7 0 .3-.4 1.1-.7 1.1-.3 0-1.1-1.4-1.4-1.6-1.2-1-3.8-1.2-3.6 1.1v.3l4.9 2.5c.4.2-.2 1.3-.5 1.1l-3.3-1.7c.2.2.3.4.5.6.5.6 1 1.3 1.2 2l.9.5c.4.2-.2 1.2-.5 1.1l-.2-.1c-.3 1.9-2 3.2-3.9 3.1-1.4-.1-4.1-1.3-4.5-2.9-.1-.4.1-1.5.7-1.4.4 0 1 1.3 1.3 1.6 1.2 1.2 4.9 2 4.6-.8 0-.1 0-.3-.1-.5l-5-2.6c0-.2-.1-.3-.1-.4 0-.1 0 .1 0 0z"/></g><g><path class="st6" d="M173.8 73.2C166.6 74.5 162 83 162 83s7.2 6.3 14.4 5c7.2-1.3 11.8-9.8 11.8-9.8s-7.1-6.3-14.4-5z"/><path class="st3" d="M176.5 88c-7.2 1.3-14.4-5-14.4-5l26.2-4.7c0-.1-4.6 8.3-11.8 9.7z"/><path class="st4" d="M172.9 76.7c.2-.2 1-.4 1.1 0l.6 3.5c0-.1.1-.2.1-.3.2-.7.4-1.5.9-2.1l.1-.1-.2-1.2c-.1-.4 1.1-.6 1.2-.2l.1.5c2-.9 4 .1 4.6 2.1.3 1 .6 3.2-.4 3.8-.7.4-1 .2-1.1-.4-.1-.6.4-1.4.4-2.1-.1-1.4-1.6-3-3-1.7l-.2.2 1 5.3c.1.4-1.1.6-1.2.2l-.6-3.6c-.1.2-.1.5-.2.7-.2.7-.4 1.5-.9 2.1l.2 1c.1.4-1.1.6-1.2.2v-.2c-1.8 1-4 .2-4.9-1.6-.6-1.1-1.2-3.9-.2-5 .3-.3 1.3-.7 1.5-.2.1.3-.5 1.7-.5 2.1-.2 1.7 1.4 4.8 3.4 2.9l.3-.3-1-5.5c0 .1 0 0 .1-.1.1 0-.1.1 0 0z"/></g><g><path class="st6" d="M52.9 115.7c4.3-3.4 4.2-10.6 4.2-10.6s-6.9-1.6-11.2 1.9c-4.3 3.4-4.2 10.6-4.2 10.6s7 1.5 11.2-1.9z"/><path class="st3" d="M45.9 107c4.3-3.4 11.2-1.9 11.2-1.9l-15.4 12.4s0-7.1 4.2-10.5z"/><path class="st4" d="M52.3 113c0 .1-.5.6-.7.4l-1.7-2.1c0 .1 0 .2.1.2.1.6.2 1.1.2 1.7v.1l.6.7c.2.2-.5.8-.7.6l-.3-.3c-.9 1.2-2.5 1.3-3.6.4-.6-.5-1.6-1.8-1.3-2.7.1-.2.5-.6.7-.5.3 0 .3 1 .5 1.4.5 1 2.2 2.1 2.8.5v-.2l-2.5-3.1c-.2-.2.5-.8.7-.6l1.7 2.1c0-.2-.1-.4-.1-.5-.1-.5-.3-1.1-.2-1.7l-.5-.6c-.2-.2.5-.8.7-.5l.1.1c.8-1.3 2.5-1.5 3.8-.7.8.5 2.4 2.3 1.8 3.4-.8 1.5-1.2-1.1-1.4-1.5-.6-1-2.5-1.9-3.1-.3 0 .1-.1.2-.1.3l2.6 3.2c-.1.1-.1.1-.1.2s0-.1 0 0z"/></g><g><path class="st6" d="M150.6 68.5c0 6.7 6.8 12 6.8 12s6.8-5.4 6.8-12-6.8-12-6.8-12-6.8 5.4-6.8 12z"/><path class="st3" d="M164.1 68.5c0 6.7-6.8 12-6.8 12v-24s6.8 5.4 6.8 12z"/><path class="st4" d="M153.6 69.9c-.1-.2-.2-.9.2-.9h3.2c-.1 0-.2-.1-.3-.1-.6-.3-1.3-.6-1.8-1.1l-.1-.1h-1.1c-.4 0-.4-1.1 0-1.1h.5c-.5-1.8.6-3.4 2.4-3.7.9-.2 3-.2 3.5.8.1.2.1 1-.1 1.1-.3.2-1.3-.5-1.6-.6-1.3-.4-3.7.5-2.6 2.3 0 .1.1.1.1.2h4.9c.4 0 .4 1.1 0 1.1h-3.3l.6.3c.6.3 1.3.6 1.8 1.1h.9c.4 0 .4 1.1 0 1.1h-.2c.6 1.8-.5 3.6-2.2 4.1-1.2.4-3.5.4-4.4-.6-.2-.2-.5-1.1-.1-1.4.2-.1 1.6.7 1.9.8 1.4.4 4.5-.5 3.1-2.6l-.3-.3h-5c.1-.3 0-.3 0-.4-.1-.1 0 .1 0 0z"/></g><g><path class="st6" d="M78.7 93.4c3.5 5.6 12.2 6.6 12.2 6.6s2.9-8.2-.6-13.8-12.2-6.6-12.2-6.6-2.9 8.2.6 13.8z"/><path class="st3" d="M90.2 86.2c3.5 5.6.6 13.8.6 13.8L78.1 79.6s8.6 1 12.1 6.6z"/><path class="st4" d="M82 93c-.2-.1-.6-.7-.3-.9l2.7-1.7h-.3c-.7.1-1.4.1-2.1 0h-.2l-.8.5c-.3.2-.9-.7-.6-.9l.4-.3c-1.4-1.3-1.3-3.2 0-4.5.6-.6 2.5-1.7 3.4-1.2.2.1.7.8.5 1-.2.3-1.4.2-1.7.3-1.3.4-2.9 2.4-1 3.3.1 0 .1.1.2.1l4.1-2.6c.3-.2.9.7.6.9l-2.8 1.7c.2 0 .4-.1.7-.1.7-.1 1.4-.1 2.1 0l.8-.5c.3-.2.9.7.6.9l-.2.1c1.5 1.2 1.5 3.4.2 4.8-.8.8-2.8 2.1-4 1.7-.3-.1-1-.8-.7-1.2.3-.3 1.5-.1 1.9-.3 1.4-.4 3.5-2.8 1.3-3.8-.1-.1-.2-.1-.4-.1L82.3 93H82c-.1 0 .1 0 0 0z"/></g><g><path class="st6" d="M147.4 122.2c-1.7 7.5 4.6 15.4 4.6 15.4s9.1-4.4 10.8-11.9-4.6-15.4-4.6-15.4-9.1 4.4-10.8 11.9z"/><path class="st3" d="M162.8 125.6c-1.7 7.5-10.8 11.9-10.8 11.9l6.1-27.3c0 .1 6.4 7.9 4.7 15.4z"/><path class="st4" d="M150.4 124.5c-.1-.2 0-1.1.4-1l3.7.8c-.1-.1-.2-.1-.3-.2-.6-.5-1.3-1-1.7-1.7l-.1-.2-1.2-.3c-.4-.1-.1-1.3.3-1.2l.6.1c-.1-1.9 1.3-3.5 3.2-3.6 1.1-.1 3.8.4 4.3 1.7.1.3-.1 1.3-.4 1.3-.4.1-1.3-1-1.6-1.1-1.4-.8-4.3-.3-3.5 1.9 0 .1.1.2.1.2l5.5 1.2c.4.1.1 1.3-.3 1.2l-3.7-.8c.2.2.4.3.6.5.6.5 1.3 1 1.7 1.7l1 .2c.4.1.1 1.3-.3 1.2l-.3-.1c.2 2.2-1.5 3.9-3.5 4.1-1.4.1-4.4-.5-4.9-2-.2-.6 0-1.4.7-1.3.1 0 .7.6.8.7.4.3.8.6 1.2.8 1.6.7 4.7.1 3.8-2.3-.1-.1-.1-.3-.2-.4l-5.7-1.3c-.1.1-.1 0-.2-.1 0-.1.1.1 0 0z"/></g><g><path class="st6" d="M195.5 126.9c-7.7-.2-14.2 7.5-14.2 7.5s6 8.1 13.7 8.3c7.7.2 14.2-7.5 14.2-7.5s-6-8.1-13.7-8.3z"/><path class="st3" d="M195 142.7c-7.7-.2-13.7-8.3-13.7-8.3l28 .9c-.1-.1-6.6 7.6-14.3 7.4z"/><path class="st4" d="M193.8 130.3c.2-.1 1.1-.2 1.1.2l-.1 3.8c.1-.1.1-.2.2-.3.4-.7.8-1.4 1.4-2l.1-.1v-1.3c0-.5 1.3-.4 1.2 0v.6c1.7-.4 3.4.4 4 2.1.4 1.2.6 4.1-.8 4.9-.3.2-1.3.2-1.4-.2-.1-.5.8-1.6.9-2.1.3-1.5-.7-3.9-2.6-2.7-.1 0-.1.1-.2.1l-.2 5.7c0 .4-1.3.4-1.2 0l.1-3.8c-.1.2-.2.5-.3.7-.4.7-.8 1.4-1.3 2v1c0 .4-1.2.4-1.2 0v-.3c-2.1.7-4.1-.7-4.7-2.7-.4-1.3-.4-4.4 1.1-5.2.5-.3 1.3-.2 1.4.4 0 .1-.5.8-.5.9-.2.4-.4.9-.5 1.4-.4 1.7.8 4.6 3 3.3.1-.1.3-.2.4-.3l.2-5.9c-.3 0-.2-.1-.1-.2.1 0-.1.1 0 0z"/></g><g><path class="st6" d="M14.7 128.9c6.2 6.6 17.9 5.6 17.9 5.6s1.7-11.7-4.5-18.2c-6.2-6.6-17.9-5.6-17.9-5.6s-1.7 11.6 4.5 18.2z"/><path class="st3" d="M28.1 116.2c6.2 6.6 4.5 18.2 4.5 18.2l-22.4-23.8s11.7-1 17.9 5.6z"/><path class="st4" d="M19 127.4c-.3-.1-1.1-.8-.7-1.1l3.2-3c-.1 0-.3.1-.4.1-.9.3-1.8.5-2.8.5h-.2l-1.1 1c-.4.4-1.4-.7-1-1.1l.5-.5c-1.9-1.2-2.5-3.5-1.4-5.4.7-1.2 2.9-3.5 4.5-3 .4.1 1.2.9 1 1.4-.2.3-1.7.5-2.1.7-1.7.9-3.2 3.9-.4 4.6.1 0 .2 0 .3.1l4.8-4.6c.4-.4 1.4.7 1 1.1l-3.2 3 .9-.3c.9-.3 1.8-.6 2.8-.5l.9-.8c.4-.4 1.4.7 1 1l-.2.2c2.2 1.2 2.8 4 1.7 6.1-.8 1.4-3.3 4-5.2 3.4-.6-.2-1.4-1-.8-1.5.3-.3 1.1-.3 1.5-.4.5-.2 1-.4 1.4-.7 1.6-1.1 2.8-4.4.1-5.1-.2 0-.4-.1-.6-.1l-5 4.7c-.3.2-.4.3-.5.2-.1 0 .1.1 0 0z"/></g><g><path class="st6" d="M65.7 135.9c5.2 5.8 15.4 5.1 15.4 5.1s1.6-10-3.6-15.8c-5.2-5.8-15.4-5.1-15.4-5.1s-1.7 10 3.6 15.8z"/><path class="st3" d="M77.5 125.1c5.2 5.8 3.6 15.8 3.6 15.8l-19-20.9s10.1-.6 15.4 5.1z"/><path class="st4" d="M69.4 134.7c-.2-.1-.9-.7-.6-1l2.8-2.6c-.1 0-.2.1-.3.1-.8.2-1.6.4-2.4.4h-.2l-.9.9c-.3.3-1.2-.6-.8-.9l.4-.4c-1.8-1.1-2.1-3.3-.9-5 .6-.9 2.6-2.7 3.8-2.1.4.2.9.8.6 1.2-.2.3-1.7.5-2.1.7-1.4.8-2.3 3.2-.1 3.8.1 0 .2 0 .3.1l4.2-3.9c.3-.3 1.2.6.8.9l-2.8 2.6c.2-.1.5-.2.7-.2.8-.2 1.6-.5 2.4-.4l.8-.7c.3-.3 1.2.6.8.9l-.2.2c2.1 1.1 2.4 3.8 1.1 5.7-.7 1.1-3 3.1-4.5 2.5-.6-.3-.9-.8-.5-1.2.2-.2 1.1-.2 1.3-.3.4-.1.7-.3 1.1-.5 1.5-.9 2.8-3.8.3-4.5-.1 0-.3-.1-.5-.1l-4.4 4c0-.2-.1-.2-.2-.2-.1-.1.1 0 0 0z"/></g><g><path class="st6" d="M52.3 160.9c6.7-2.8 9.3-12 9.3-12s-8.4-4.6-15.1-1.8-9.3 12-9.3 12 8.3 4.6 15.1 1.8z"/><path class="st3" d="M46.5 147.1c6.7-2.8 15.1 1.8 15.1 1.8l-24.4 10.3c0-.1 2.5-9.3 9.3-12.1z"/><path class="st4" d="M52.4 157.2c-.1.2-.9.6-1 .2l-1.4-3.3v.3c0 .8-.1 1.6-.4 2.3l-.1.2.5 1.1c.2.4-.9.8-1.1.5l-.2-.5c-1.7 1.3-3.9.7-5-1.1-.5-.9-1.3-3-.4-3.8.6-.5 1-.4 1.1.1.2.6-.1 1.4.1 2.1.4 1.4 2.2 2.5 3.3 1 0-.1.1-.1.1-.2l-2.1-5c-.2-.4.9-.8 1.1-.5l1.4 3.3v-.7c0-.8.1-1.5.4-2.3l-.4-.9c-.2-.4.9-.8 1.1-.5l.1.2c1.4-1.3 3.5-1.1 4.8.2 1 1 2.4 3.9 1.4 5.2-.3.3-1.1.8-1.3.3-.2-.5.1-1.6 0-2.2-.3-1.6-2.4-4-3.9-1.9-.1.1-.2.3-.2.4l2.1 5.1c.1.3.1.3 0 .4-.1.1.1-.1 0 0z"/></g><g><circle class="st7" cx="141.9" cy="23" r="17.8"/><circle class="st8" cx="141.9" cy="23" r="17.2"/><path class="st7" d="M141.9 8.2c-8.2 0-14.8 6.6-14.8 14.8s6.6 14.8 14.8 14.8c8.2 0 14.8-6.6 14.8-14.8S150 8.2 141.9 8.2zm0 28.2c-7.4 0-13.4-6-13.4-13.4s6-13.4 13.4-13.4 13.4 6 13.4 13.4-6 13.4-13.4 13.4z"/><path class="st9" d="M147.1 25.2h-7.4c-.1.2-.3.3-.4.5-.6 1-.3 2.5.6 3.3 1 .8 2.5.9 3.7.6.6-.1 1.2-.4 1.8-.7.3-.1.9-.7 1.2-.6.7.1.5 1.6.1 2-1.3 1.6-5 1.5-6.8.9-2.4-.9-3.9-3.5-3-6h-.3c-.6 0-.5-1.6 0-1.6h1.3c.7-.7 1.7-1.2 2.6-1.6.3-.1.6-.3.9-.4h-4.8c-.6 0-.5-1.6 0-1.6h7.2c.1-.1.1-.2.2-.3 1.7-2.6-1.8-3.9-3.8-3.3-.5.1-1.8 1.1-2.2 1-.6-.2-.4-1.6-.1-2 1.1-1.3 4.2-1.2 5.6-.7 2.3.7 3.5 3 2.9 5.4h.7c.6 0 .5 1.6 0 1.6h-1.6l-.2.2c-.7.7-1.7 1.2-2.6 1.7-.1.1-.3.1-.4.2h4.8c.6-.1.6 1.4 0 1.4z"/></g></svg>