<svg xmlns="http://www.w3.org/2000/svg" width="250" height="250" viewBox="0 0 250 250"><path fill="#285421" d="M16.568 47.68L2.5 176.127l230.564 26.193L247.5 73.926 16.568 47.68z"/><path fill="#2E5F25" d="M11.914 54.655L5.958 183.732l231.76 11.618 6.325-129.054L11.914 54.655z"/><path fill="#D9E5B7" d="M245.229 181.242L13.727 197.343 4.775 68.741 236.28 52.639z"/><path fill="#346C2A" d="M4.398 68.471l9.328 128.872 231.503-15.807-8.949-128.897L4.398 68.471zm230.6 77.509c-13.809 3.993-24.067 15.803-26.11 30.021l-159.895 11.12c-3.989-13.794-15.793-24.074-30.021-26.114l-3.963-56.983c13.814-3.991 24.083-15.806 26.131-30.034l159.857-11.12c3.992 13.811 15.807 24.087 30.04 26.128l3.961 56.982z"/><path fill="#346C2A" d="M204.053 170.503l-151.03 10.508-.56-1.228a42.525 42.525 0 0 0-26.712-23.235l-1.287-.381-3.348-48.105 1.232-.558A42.557 42.557 0 0 0 45.6 80.772l.375-1.289 150.989-10.504.553 1.227a42.54 42.54 0 0 0 26.736 23.253l1.286.385 3.35 48.11-1.228.553a42.472 42.472 0 0 0-23.228 26.702l-.38 1.294zm-148.638 6.452l145.696-10.136a46.396 46.396 0 0 1 23.728-27.268l-2.977-42.774a46.408 46.408 0 0 1-27.291-23.746L48.912 83.164a46.375 46.375 0 0 1-23.738 27.295l2.976 42.774a46.348 46.348 0 0 1 27.265 23.722z"/><path fill="#D9E5B7" stroke="#346C2A" stroke-miterlimit="10" d="M164.392 122.252c2.064 29.636-13.9 54.888-35.655 56.405-21.755 1.514-41.062-21.286-43.122-50.927-2.058-29.635 13.901-54.888 35.656-56.4 21.753-1.51 41.061 21.283 43.121 50.922z"/><path fill="#346C2A" d="M128.336 172.853c-18.524 1.29-35.083-19.137-36.92-45.526-1.837-26.389 11.73-48.904 30.261-50.192 18.521-1.292 35.082 19.133 36.911 45.519 1.84 26.394-11.73 48.915-30.252 50.199z"/><path fill="#D9E5B7" d="M146.611 132.362c-7.056.49-14.116.985-21.173 1.476-2.757.195-5.524.388-8.287.576-.577.043-1.553 2.231-1.756 2.722-.685 1.647-.751 3.476-.492 5.221.598 4.139 3.378 7.225 7.335 8.488 8.08 2.584 15.123-1.581 21.722-5.633 3.517-2.157 3.583 4.884 2.703 6.766-1.297 2.75-5.79 4.331-8.434 5.252-7.495 2.608-16.719 2.935-23.753-1.212-6.786-3.996-10.294-12.229-8.728-19.948.073-.294.141-.584.209-.875-2.621.471-3.218-1.607-3.107-3.906.124-2.554 2.048-2.264 3.989-2.396l2.349-.165c.912-.063 2.404-2.133 3.174-2.746 3.163-2.527 6.844-4.374 10.362-6.349-3.187.218-6.366.443-9.548.663-2.121.151-4.234.295-6.35.443-.881.062-2.33.457-3.199.223-2.263.153-2.632-6.108-.419-6.261.869-.064 1.737-.123 2.602-.182 4.186-.293 8.378-.583 12.563-.876 3.933-.273 7.859-.548 11.793-.818.911-.069 1.535.144 2.027-.666 1.936-3.169 1.751-7.573-.572-10.515-5.03-6.364-14.98-2.977-20.552.603-.803.514-2.603 2.279-3.663 1.51-1.09-.768-1.004-3.277-1.042-4.402-.116-3.467 2.368-4.73 5.282-6.031 6.757-3.009 15.227-3.619 21.984-.253 6.958 3.468 10.102 11.429 8.623 18.913 2.632-.183 4.452-.583 4.686 2.773.21 3.07-1.142 3.274-3.67 3.449-1.891.13-3.276-.074-4.634 1.045-3.071 3.6-7.254 6.034-11.393 8.222l12.275-.856c2.045-.145 4.085-.284 6.132-.421 2.849-.206 3.298 6.006.962 6.166z"/><path fill="#346C2A" d="M55.668 146.455c-9.136.636-17.081-6.275-17.717-15.406-.634-9.132 6.282-17.075 15.412-17.714 9.136-.635 17.076 6.275 17.711 15.407.634 9.131-6.282 17.078-15.406 17.713zm-2.176-31.187c-8.057.563-14.165 7.579-13.604 15.644.561 8.064 7.582 14.172 15.644 13.61 8.064-.561 14.167-7.581 13.607-15.646-.556-8.063-7.577-14.167-15.647-13.608z"/><g fill="#346C2A"><path d="M49.565 125.59c-6.194-7.951-8.736-5.034 0 0zM58.825 124.948c7.946-6.191 5.03-8.734 0 0zM58.825 124.948a51.296 51.296 0 0 1-3.471 2.453 51.36 51.36 0 0 1-1.3-4.048 45.684 45.684 0 0 1-.715 4.185 48.386 48.386 0 0 1-3.773-1.948 50.593 50.593 0 0 1 2.454 3.467 47.324 47.324 0 0 1-4.05 1.294c1.238.157 2.639.389 4.192.722a49.611 49.611 0 0 1-1.953 3.77 49.87 49.87 0 0 1 3.47-2.447 51.845 51.845 0 0 1 1.295 4.048c.147-1.24.387-2.637.715-4.186a45.944 45.944 0 0 1 3.771 1.941 48.962 48.962 0 0 1-2.446-3.463 48.324 48.324 0 0 1 4.05-1.291 50.804 50.804 0 0 1-4.192-.722 46.37 46.37 0 0 1 1.953-3.775zM50.208 134.842c-7.954 6.201-5.038 8.734 0 0z"/><path d="M59.459 134.198c6.195 7.954 8.742 5.04 0 0zM54.973 136.442c-1.246 10.001 2.612 9.731 0 0zM54.053 123.354c1.245-10.003-2.613-9.739 0 0zM61.063 129.444c9.999 1.244 9.726-2.615 0 0zM47.969 130.351c-9.998-1.24-9.74 2.612 0 0z"/></g><path fill="#346C2A" d="M195.859 136.701c-9.135.635-17.073-6.276-17.709-15.408-.635-9.129 6.273-17.071 15.405-17.708 9.143-.637 17.081 6.273 17.711 15.406.641 9.136-6.278 17.074-15.407 17.71zm-2.163-31.183c-8.07.559-14.171 7.577-13.612 15.641.558 8.066 7.578 14.17 15.648 13.608 8.06-.557 14.159-7.577 13.596-15.644-.555-8.062-7.567-14.166-15.632-13.605z"/><g fill="#346C2A"><path d="M189.765 115.838c-6.202-7.946-8.742-5.034 0 0zM199.017 115.197c7.953-6.195 5.036-8.736 0 0z"/><path d="M199.017 115.197c-.986.767-2.14 1.59-3.469 2.45a53.94 53.94 0 0 1-1.299-4.047c-.145 1.241-.386 2.632-.714 4.188a47.719 47.719 0 0 1-3.771-1.951 49.18 49.18 0 0 1 2.447 3.468 47.265 47.265 0 0 1-4.05 1.294c1.243.151 2.644.389 4.193.722a46.234 46.234 0 0 1-1.958 3.769 52.083 52.083 0 0 1 3.472-2.445c.543 1.49.969 2.84 1.294 4.046a52.11 52.11 0 0 1 .716-4.189 48.29 48.29 0 0 1 3.771 1.945 51.09 51.09 0 0 1-2.445-3.461 48.043 48.043 0 0 1 4.052-1.296 48.089 48.089 0 0 1-4.195-.721 49.22 49.22 0 0 1 1.956-3.772z"/><path d="M190.397 125.09c-7.95 6.198-5.034 8.74 0 0zM199.65 124.446c6.204 7.956 8.744 5.041 0 0zM195.163 126.69c-1.239 10.003 2.612 9.732 0 0zM194.249 113.601c1.248-10.003-2.609-9.738 0 0zM201.257 119.689c10.004 1.244 9.736-2.612 0 0zM188.162 120.6c-10-1.243-9.729 2.613 0 0z"/></g></svg>