<svg xmlns="http://www.w3.org/2000/svg" width="250" height="250" viewBox="0 0 250 250"><path fill-rule="evenodd" clip-rule="evenodd" d="M125.5 247C57.845 247 3 192.154 3 124.5 3 56.845 57.845 2 125.5 2 193.154 2 248 56.845 248 124.5c0 67.654-54.846 122.5-122.5 122.5zm15.212-188.518c-.581-1.654-1.026-3.492-2.013-4.959-.892-1.315-2.101-2.465-3.15-3.656-1.337-1.519-2.936.363-4.056 1.24-1.38 1.079-2.716 1.936-4.379 2.521-1.656.584-3.298 1.152-5.004 1.569-1.813.434-3.354.973-5.108.013-1.059-.576-3.319-2.438-3.961-.517-.543 1.634-1.084 3.267-1.629 4.901-.498 1.504-.244 2.733.256 4.178.384 1.111.946 4.621 2.733 4.07 1.487-.237 2.322-1.005 3.792-1.362 5.959-1.448 7.727-1.764 15.271-.012.806.188 2.211.537 3.007.752.826.216 1.415.612 1.955-.157.922-1.322 1.79-2.686 2.678-4.031.982-1.481.118-3.078-.392-4.55zm49.483 77.725c-3.972-41.594-40.654-66.342-65.548-66.617-24.894.275-61.571 25.023-65.545 66.617-3.68 41.631 23.394 60.032 65.545 60.097 42.156-.065 69.228-18.466 65.548-60.097zm-47.239-10.017c-1.746-.02-2.653.704-3.993 1.659-3.063 3.142-7.915 5.194-11.872 6.95 0 0 19.259.01 18.304 0 2.639-.02 2.304 4.888.129 4.871h-27.746c-.52 0-1.2 2.843-1.404 3.292-.743 1.496-.93 3.18-.799 4.826.278 3.871 2.656 6.921 6.224 8.361 7.284 2.915 14.063-.487 20.416-3.817 3.382-1.776 2.993 4.753 2.046 6.455-1.376 2.469-5.612 3.647-8.118 4.34-7.081 1.924-15.626 1.625-21.85-2.676-6-4.152-8.695-12.027-6.763-19.099.093-.28 1.165-1.372 1.257-1.633-2.452.261-5.141-.329-4.881-2.459.279-2.359 3.291-2.512 5.092-2.512h2.192c.837 0 2.341-1.831 3.103-2.355 3.085-2.132 8.197-4.594 11.578-6.204h-17.084c-.817 0-1.642.262-2.44 0-2.1 0-2.043-4.921 0-4.921h25.628c.834-.019 1.008.295 1.508-.416 1.99-2.824 2.102-6.92.15-9.82-4.236-6.229-13.637-3.741-19.005-.767-.78.431-2.545 1.945-3.475 1.159-.966-.786-.725-3.104-.688-4.152.131-3.235 2.49-4.245 5.276-5.255 6.428-2.358 14.288-2.376 20.308 1.177 6.186 3.686 8.58 11.28 6.723 18.146 2.451 0 5.065-.754 5.065 2.389 0 2.862-2.54 2.461-4.881 2.461z" opacity=".15"/><path fill-rule="evenodd" clip-rule="evenodd" fill="#FFF" d="M125.5 245C57.845 245 3 190.154 3 122.5 3 54.845 57.845 0 125.5 0 193.154 0 248 54.845 248 122.5c0 67.654-54.846 122.5-122.5 122.5zm15.212-188.518c-.581-1.654-1.026-3.492-2.013-4.959-.892-1.315-2.101-2.465-3.15-3.656-1.337-1.519-2.936.363-4.056 1.24-1.38 1.079-2.716 1.936-4.379 2.521-1.656.584-3.298 1.152-5.004 1.569-1.813.434-3.354.973-5.108.013-1.059-.576-3.319-2.438-3.961-.517-.543 1.634-1.084 3.267-1.629 4.901-.498 1.504-.244 2.733.256 4.178.384 1.111.946 4.621 2.733 4.07 1.487-.237 2.322-1.005 3.792-1.362 5.959-1.448 7.727-1.764 15.271-.012.806.188 2.211.537 3.007.752.826.216 1.415.612 1.955-.157.922-1.322 1.79-2.686 2.678-4.031.982-1.481.118-3.078-.392-4.55zm49.483 77.725c-3.972-41.594-40.654-66.342-65.548-66.617-24.894.275-61.571 25.023-65.545 66.617-3.68 41.631 23.394 60.032 65.545 60.097 42.156-.065 69.228-18.466 65.548-60.097zm-47.239-10.017c-1.746-.02-2.653.704-3.993 1.659-3.063 3.142-7.915 5.194-11.872 6.95 0 0 19.259.01 18.304 0 2.639-.02 2.304 4.888.129 4.871h-27.746c-.52 0-1.2 2.843-1.404 3.292-.743 1.496-.93 3.18-.799 4.826.278 3.871 2.656 6.921 6.224 8.361 7.284 2.915 14.063-.487 20.416-3.817 3.382-1.776 2.993 4.753 2.046 6.455-1.376 2.469-5.612 3.647-8.118 4.34-7.081 1.924-15.626 1.625-21.85-2.676-6-4.152-8.695-12.027-6.763-19.099.093-.28 1.165-1.372 1.257-1.633-2.452.261-5.141-.329-4.881-2.459.279-2.359 3.291-2.512 5.092-2.512h2.192c.837 0 2.341-1.831 3.103-2.355 3.085-2.132 8.197-4.594 11.578-6.204h-17.084c-.817 0-1.642.262-2.44 0-2.1 0-2.043-4.921 0-4.921h25.628c.834-.019 1.008.295 1.508-.416 1.99-2.824 2.102-6.92.15-9.82-4.236-6.229-13.637-3.741-19.005-.767-.78.431-2.545 1.945-3.475 1.159-.966-.786-.725-3.104-.688-4.152.131-3.235 2.49-4.245 5.276-5.255 6.428-2.358 14.288-2.376 20.308 1.177 6.186 3.686 8.58 11.28 6.723 18.146 2.451 0 5.065-.754 5.065 2.389 0 2.862-2.54 2.461-4.881 2.461z"/></svg>