<svg xmlns="http://www.w3.org/2000/svg" width="123.9" height="116.5" viewBox="0 0 123.9 116.5"><path fill-rule="evenodd" clip-rule="evenodd" fill="#8AB71F" d="M5.2 45.9c4.3.2 7.2 4 9.1 7.4 3.4 6 6.9 12 10.4 17.9 0 0 1.2 1.9 3.4-.4 17.1-18.2 35.8-35.3 55.4-50.9 6.8-5.4 14.4-9.8 21.8-14.3 4-2.4 9.6-7.1 14.6-5.2 2.6 1 4.3 3.6 3.9 6.4-.7 6-9.2 10-13.6 13.2-6.7 5-12.6 10.5-18.5 16.3-13.9 13.9-27 28.9-39 44.6-3.6 4.7-7.1 9.4-10.5 14.2-4.7 6.5-9.3 13.2-13.9 19.8 0 0-6.4 5.9-10.9-5.5-4.2-10.7-8.7-21.3-12.8-32.1-1.7-4.5-2.6-9-3.3-13.8-.7-4.6-2.4-10.3-.3-14.8 1-2.1 2.5-2.9 4.2-2.8z"/></svg>