<svg id="Слой_1" xmlns="http://www.w3.org/2000/svg" viewBox="0 0 147 147"><style>.st0{opacity:.15}.st1,.st2{fill-rule:evenodd;clip-rule:evenodd}.st2{fill:#fff}</style><g class="st0"><path class="st1" d="M73.5 147C33.5 147 1 114.5 1 74.5S33.5 2 73.5 2 146 34.5 146 74.5 113.5 147 73.5 147zm32.7-41l.9-3.2-27.9-4.7 27 7.9zm3.7-4.1L111 97H79l30.9 4.9zM30 88V77l-1.5 11.3L30 88zm-3-5l1 .3 2.4-11.9L27 83zm8-35h31l-29.9-4.9L35 48zm4.8-9l-.8 3 28 5-27.2-8zM114 50H32v45h82V50zm2 6v12l1.5-11.3-1.5-.7zm2 5.7l-2.4 11.9L119 62l-1-.3zM44 52h57c1.1 5 6 8.9 11 10v20c-5 1.1-8.9 6-10 11H45c-1.1-5-6-8.9-11-10V63c5-1.1 8.9-6 10-11zm-8 12v17l1 .2c4.1 1.5 7.4 4.8 8.9 8.9l.1.9h22c1.6.9 3.1 1 5 1s3.4-.1 5-1h22l.1-.9c1.5-4.1 4.8-7.4 8.9-8.9l1-.2V64l-1-.2c-4.1-1.5-7.4-4.8-8.9-8.9l-.1-.9H78c-1.6-.9-3.1-1-5-1s-3.4.1-5 1H46l-.1.9c-1.5 4.1-4.8 7.4-8.9 8.9l-1 .2zm11-8.2h18.6C61.4 59.2 59 65.9 59 73s2.8 12.6 7 16H47c-1.7-4.1-4.9-7.2-9-8.9V64.9c4.1-1.7 7.4-5 9-9.1zm.9 22.6c3.3 0 5.9-2.6 5.9-5.9 0-3.3-2.6-5.9-5.9-5.9-3.3 0-5.9 2.6-5.9 5.9 0 3.2 2.6 5.9 5.9 5.9zm0-11.1c2.9 0 5.2 2.3 5.2 5.2 0 2.9-2.3 5.2-5.2 5.2-2.9 0-5.2-2.3-5.2-5.2 0-2.9 2.3-5.2 5.2-5.2zm-2.3 5.2c.4.1.9.2 1.5.4-.3.5-.5.9-.8 1.3-3 2-2 3 0 0 .4-.2.8-.5 1.3-.8.2.5.3 1 .4 1.5-.7 3.5.7 3.5 0 0 .1-.4.2-.9.4-1.5.5.3.9.5 1.3.8 2 3 3 2 0 0-.2-.4-.5-.8-.8-1.3.5-.2 1-.3 1.5-.4 3.5.7 3.5-.7 0 0-.4-.1-.9-.2-1.5-.4.3-.5.5-.9.8-1.3 3-2 2-3 0 0-.4.2-.8.5-1.3.8-.2-.5-.3-1-.4-1.5.7-3.5-.7-3.5 0 0-.1.4-.2.9-.4 1.5-.5-.3-.9-.5-1.3-.8-2-3-3-2 0 0 .2.4.5.8.8 1.3-.6.2-1.1.3-1.5.4-3.6-.7-3.6.7 0 0zm15.4 0c0-8.2 4.1-15.1 9.6-16.7h4.8c5.5 1.6 9.6 8.5 9.6 16.7s-4.1 15.1-9.6 16.7h-4.8c-5.5-1.6-9.6-8.5-9.6-16.7zm7 10.4c.7.6 1.6 1.1 2.6 1.4 1 .3 2 .5 3.2.5.8 0 1.5-.1 2.2-.2.7-.1 1.3-.3 1.8-.5s1-.4 1.3-.6c.4-.2.6-.4.8-.5.1-.1.2-.3.3-.6.1-.2.1-.5.1-.9v-.7c0-.2-.1-.3-.1-.4 0-.1-.1-.2-.2-.2s-.2-.1-.3-.1c-.2 0-.4.1-.7.3-.3.2-.7.4-1.2.7-.5.2-1.1.5-1.8.7-.7.2-1.5.3-2.4.3-.7 0-1.3-.1-1.9-.3-.6-.2-1.1-.4-1.5-.8-.4-.3-.7-.7-.9-1.2-.2-.5-.3-1-.3-1.7s.2-1.2.5-1.7c.1-.2.3-.5.5-.7h10.5c.1 0 .3-.1.4-.2.1-.2.2-.5.2-.9s0-.7-.1-.8c-.1-.2-.2-.3-.4-.3h-6.7l.6-.3c.7-.3 1.3-.7 2-1 .6-.4 1.2-.8 1.7-1.3l.2-.3h2.3c.1 0 .3-.1.4-.2.1-.2.2-.5.2-.9s0-.7-.1-.8c-.1-.2-.2-.3-.4-.3h-1c.1-.5.2-1.1.2-1.8 0-1-.2-1.9-.5-2.6-.4-.8-.9-1.4-1.5-1.9s-1.4-.9-2.3-1.2c-.9-.3-1.8-.4-2.9-.4-.5 0-1.1 0-1.6.1s-1 .2-1.5.4-.9.3-1.3.5-.6.3-.7.5c-.1.1-.2.2-.2.3 0 .1-.1.2-.1.3 0 .1 0 .2-.1.4v1.2c0 .2 0 .3.1.4 0 .1.1.2.2.3.1.1.1.1.2.1s.3-.1.6-.3c.3-.2.6-.4 1.1-.6.4-.2.9-.4 1.5-.6.6-.2 1.2-.3 1.9-.3s1.2.1 1.7.3c.5.2.9.4 1.2.7.3.3.6.6.7 1 .2.4.2.8.2 1.3 0 .7-.2 1.2-.5 1.7-.1.1-.2.3-.3.4H65.5c-.1 0-.3.1-.4.3-.1-.2-.1.1-.1.5s.1.7.2.9c.1.2.2.2.4.2h6.8l-1.2.6c-.7.3-1.3.6-2 1-.6.4-1.2.8-1.7 1.3h-1.9c-.1 0-.3.1-.4.3-.2.2-.2.4-.2.8s.1.7.2.9c.1.2.2.2.4.2h.4c-.2.6-.3 1.3-.3 2 0 1.1.2 2.1.6 3 .4.9 1 1.7 1.7 2.3zM87 72c0-7.1-2.4-12.8-6.6-16.2H99c1.7 4.1 5 7.4 9.1 9.1v15.2c-4.1 1.7-7.4 4.7-9 8.9H81c4.2-3.4 6-9.9 6-17zm10.8 6.4c3.3 0 5.9-2.6 5.9-5.9 0-3.3-2.6-5.9-5.9-5.9-3.3 0-5.9 2.6-5.9 5.9 0 3.2 2.7 5.9 5.9 5.9zm0-11.1c2.9 0 5.2 2.3 5.2 5.2 0 2.9-2.3 5.2-5.2 5.2-2.9 0-5.2-2.3-5.2-5.2 0-2.9 2.4-5.2 5.2-5.2zm-2.3 5.2c.4.1.9.2 1.5.4-.3.5-.5.9-.8 1.3-3 2-2 3 0 0 .4-.2.8-.5 1.3-.8.2.5.3 1 .4 1.5-.7 3.5.7 3.5 0 0 .1-.4.2-.9.4-1.5.5.3.9.5 1.3.8 2 3 3 2 0 0-.2-.4-.5-.8-.8-1.3.5-.2 1-.3 1.5-.4 3.5.7 3.5-.7 0 0-.4-.1-.9-.2-1.5-.4.3-.5.5-.9.8-1.3 3-2 2-3 0 0-.4.2-.8.5-1.3.8-.2-.5-.3-1-.4-1.5.7-3.5-.7-3.5 0 0-.1.4-.2.9-.4 1.5-.5-.3-.9-.5-1.3-.8-2-3-3-2 0 0 .2.4.5.8.8 1.3-.6.2-1.1.3-1.5.4-3.5-.7-3.5.7 0 0z"/></g><path class="st2" d="M73.5 145C33.5 145 1 112.5 1 72.5S33.5 0 73.5 0 146 32.5 146 72.5 113.5 145 73.5 145zm32.7-41l.9-3.2-27.9-4.7 27 7.9zm3.7-4.1L111 95H79l30.9 4.9zM30 86V75l-1.5 11.3L30 86zm-3-5l1 .3 2.4-11.9L27 81zm8-35h31l-29.9-4.9L35 46zm4.8-9l-.8 3 28 5-27.2-8zM114 48H32v45h82V48zm2 6v12l1.5-11.3-1.5-.7zm2 5.7l-2.4 11.9L119 60l-1-.3zM44 50h57c1.1 5 6 8.9 11 10v20c-5 1.1-8.9 6-10 11H45c-1.1-5-6-8.9-11-10V61c5-1.1 8.9-6 10-11zm-8 12v17l1 .2c4.1 1.5 7.4 4.8 8.9 8.9l.1.9h22c1.6.9 3.1 1 5 1s3.4-.1 5-1h22l.1-.9c1.5-4.1 4.8-7.4 8.9-8.9l1-.2V62l-1-.2c-4.1-1.5-7.4-4.8-8.9-8.9l-.1-.9H78c-1.6-.9-3.1-1-5-1s-3.4.1-5 1H46l-.1.9c-1.5 4.1-4.8 7.4-8.9 8.9l-1 .2zm11-8.2h18.6C61.4 57.2 59 63.9 59 71s2.8 12.6 7 16H47c-1.7-4.1-4.9-7.2-9-8.9V62.9c4.1-1.7 7.4-5 9-9.1zm.9 22.6c3.3 0 5.9-2.6 5.9-5.9 0-3.3-2.6-5.9-5.9-5.9-3.3 0-5.9 2.6-5.9 5.9 0 3.2 2.6 5.9 5.9 5.9zm0-11.1c2.9 0 5.2 2.3 5.2 5.2 0 2.9-2.3 5.2-5.2 5.2-2.9 0-5.2-2.3-5.2-5.2 0-2.9 2.3-5.2 5.2-5.2zm-2.3 5.2c.4.1.9.2 1.5.4-.3.5-.5.9-.8 1.3-3 2-2 3 0 0 .4-.2.8-.5 1.3-.8.2.5.3 1 .4 1.5-.7 3.5.7 3.5 0 0 .1-.4.2-.9.4-1.5.5.3.9.5 1.3.8 2 3 3 2 0 0-.2-.4-.5-.8-.8-1.3.5-.2 1-.3 1.5-.4 3.5.7 3.5-.7 0 0-.4-.1-.9-.2-1.5-.4.3-.5.5-.9.8-1.3 3-2 2-3 0 0-.4.2-.8.5-1.3.8-.2-.5-.3-1-.4-1.5.7-3.5-.7-3.5 0 0-.1.4-.2.9-.4 1.5-.5-.3-.9-.5-1.3-.8-2-3-3-2 0 0 .2.4.5.8.8 1.3-.6.2-1.1.3-1.5.4-3.6-.7-3.6.7 0 0zm15.4 0c0-8.2 4.1-15.1 9.6-16.7h4.8c5.5 1.6 9.6 8.5 9.6 16.7s-4.1 15.1-9.6 16.7h-4.8c-5.5-1.6-9.6-8.5-9.6-16.7zm7 10.4c.7.6 1.6 1.1 2.6 1.4 1 .3 2 .5 3.2.5.8 0 1.5-.1 2.2-.2.7-.1 1.3-.3 1.8-.5s1-.4 1.3-.6c.4-.2.6-.4.8-.5.1-.1.2-.3.3-.6.1-.2.1-.5.1-.9v-.7c0-.2-.1-.3-.1-.4 0-.1-.1-.2-.2-.2s-.2-.1-.3-.1c-.2 0-.4.1-.7.3-.3.2-.7.4-1.2.7-.5.2-1.1.5-1.8.7-.7.2-1.5.3-2.4.3-.7 0-1.3-.1-1.9-.3-.6-.2-1.1-.4-1.5-.8-.4-.3-.7-.7-.9-1.2-.2-.5-.3-1-.3-1.7s.2-1.2.5-1.7c.1-.2.3-.5.5-.7h10.5c.1 0 .3-.1.4-.2.1-.2.2-.5.2-.9s0-.7-.1-.8c-.1-.2-.2-.3-.4-.3h-6.7l.6-.3c.7-.3 1.3-.7 2-1 .6-.4 1.2-.8 1.7-1.3l.2-.3h2.3c.1 0 .3-.1.4-.2.1-.2.2-.5.2-.9s0-.7-.1-.8c-.1-.2-.2-.3-.4-.3h-1c.1-.5.2-1.1.2-1.8 0-1-.2-1.9-.5-2.6-.4-.8-.9-1.4-1.5-1.9s-1.4-.9-2.3-1.2c-.9-.3-1.8-.4-2.9-.4-.5 0-1.1 0-1.6.1s-1 .2-1.5.4-.9.3-1.3.5-.6.3-.7.5c-.1.1-.2.2-.2.3 0 .1-.1.2-.1.3 0 .1 0 .2-.1.4v1.2c0 .2 0 .3.1.4 0 .1.1.2.2.3.1.1.1.1.2.1s.3-.1.6-.3c.3-.2.6-.4 1.1-.6.4-.2.9-.4 1.5-.6.6-.2 1.2-.3 1.9-.3s1.2.1 1.7.3c.5.2.9.4 1.2.7.3.3.6.6.7 1 .2.4.2.8.2 1.3 0 .7-.2 1.2-.5 1.7-.1.1-.2.3-.3.4H65.5c-.1 0-.3.1-.4.3-.1-.2-.1.1-.1.5s.1.7.2.9c.1.2.2.2.4.2h6.8l-1.2.6c-.7.3-1.3.6-2 1-.6.4-1.2.8-1.7 1.3h-1.9c-.1 0-.3.1-.4.3-.2.2-.2.4-.2.8s.1.7.2.9c.1.2.2.2.4.2h.4c-.2.6-.3 1.3-.3 2 0 1.1.2 2.1.6 3 .4.9 1 1.7 1.7 2.3zM87 70c0-7.1-2.4-12.8-6.6-16.2H99c1.7 4.1 5 7.4 9.1 9.1v15.2c-4.1 1.7-7.4 4.7-9 8.9H81c4.2-3.4 6-9.9 6-17zm10.8 6.4c3.3 0 5.9-2.6 5.9-5.9 0-3.3-2.6-5.9-5.9-5.9-3.3 0-5.9 2.6-5.9 5.9 0 3.2 2.7 5.9 5.9 5.9zm0-11.1c2.9 0 5.2 2.3 5.2 5.2 0 2.9-2.3 5.2-5.2 5.2-2.9 0-5.2-2.3-5.2-5.2 0-2.9 2.4-5.2 5.2-5.2zm-2.3 5.2c.4.1.9.2 1.5.4-.3.5-.5.9-.8 1.3-3 2-2 3 0 0 .4-.2.8-.5 1.3-.8.2.5.3 1 .4 1.5-.7 3.5.7 3.5 0 0 .1-.4.2-.9.4-1.5.5.3.9.5 1.3.8 2 3 3 2 0 0-.2-.4-.5-.8-.8-1.3.5-.2 1-.3 1.5-.4 3.5.7 3.5-.7 0 0-.4-.1-.9-.2-1.5-.4.3-.5.5-.9.8-1.3 3-2 2-3 0 0-.4.2-.8.5-1.3.8-.2-.5-.3-1-.4-1.5.7-3.5-.7-3.5 0 0-.1.4-.2.9-.4 1.5-.5-.3-.9-.5-1.3-.8-2-3-3-2 0 0 .2.4.5.8.8 1.3-.6.2-1.1.3-1.5.4-3.5-.7-3.5.7 0 0z"/></svg>