<svg id="Слой_1" xmlns="http://www.w3.org/2000/svg" viewBox="0 0 230 230"><style>.st0{fill:#d9e5b7}.st1{fill:#8da46e}.st2{opacity:.2}.st3{fill:#d9e5b7;stroke:#8da46e;stroke-miterlimit:10}.st4{opacity:.1}.st5{fill:#4e786e}.st6{opacity:.75;fill:#fff}.st7{fill:url(#SVGID_1_)}.st8{opacity:.5;fill:url(#SVGID_2_)}.st9{fill:#e8980f}.st10{fill:url(#SVGID_3_)}.st11{opacity:.5;fill:#fcc344}.st12{opacity:.15}.st13,.st14{opacity:.76}.st14{fill:#fff}.st15{fill:url(#SVGID_4_)}.st16{fill:url(#SVGID_5_)}.st17{fill:url(#SVGID_6_)}.st18{fill:url(#SVGID_7_)}.st19{fill:url(#SVGID_8_)}.st20{opacity:.2;fill:url(#SVGID_9_)}.st21{opacity:.22;fill:#fff}.st22,.st23{opacity:.34;fill:#fff}.st23{opacity:.8}.st24{opacity:.42;fill:url(#SVGID_10_)}.st25{fill:url(#SVGID_11_)}.st26{fill:url(#SVGID_12_)}.st27{fill:#fec666}.st28{fill:#fa5505}.st29{opacity:.61}.st30{fill:#fff}.st31{opacity:.34}.st32{opacity:.38;fill:#fff}.st33{fill:url(#SVGID_13_)}.st34{opacity:.4;fill:#fff}.st35{opacity:.05}.st36{opacity:.76;fill:#345952}.st37{fill:url(#SVGID_14_)}.st38{fill:#595959}.st39{fill:url(#SVGID_15_)}.st40{opacity:.5;fill:url(#SVGID_16_)}.st41{fill:url(#SVGID_17_)}.st42{fill:url(#SVGID_18_)}.st43{fill:url(#SVGID_19_)}.st44{fill:url(#SVGID_20_)}.st45{fill:url(#SVGID_21_)}.st46{fill:url(#SVGID_22_)}.st47{opacity:.2;fill:url(#SVGID_23_)}.st48{opacity:.42;fill:url(#SVGID_24_)}.st49{fill:url(#SVGID_25_)}.st50{fill:url(#SVGID_26_)}.st51{fill:url(#SVGID_27_)}.st52{fill:url(#SVGID_28_)}.st53{fill:url(#SVGID_29_)}.st54{opacity:.5;fill:url(#SVGID_30_)}.st55{fill:url(#SVGID_31_)}.st56{fill:url(#SVGID_32_)}.st57{fill:url(#SVGID_33_)}.st58{fill:url(#SVGID_34_)}.st59{opacity:.2;fill:url(#SVGID_35_)}.st60{opacity:.42;fill:url(#SVGID_36_)}.st61{fill:url(#SVGID_37_)}.st62{fill:url(#SVGID_38_)}.st63{fill:url(#SVGID_39_)}.st64{fill:url(#SVGID_40_)}.st65{fill-rule:evenodd;clip-rule:evenodd;fill:#595959}</style><path transform="rotate(-77.267 114.264 92.561)" class="st0" d="M59.2 62h110.2v61.2H59.2z"/><path class="st1" d="M72.3 139.5L132 153l24.3-107.5-59.7-13.4-24.3 107.4zm66.5-94.1c-.1 6.8 3.9 13.1 10.1 16l-16.8 74.2c-6.8-.1-13.1 3.9-16 10.1l-26.4-6c.1-6.8-3.9-13.1-10.1-16l16.8-74.2c6.8.1 13.1-3.9 16-10.1l26.4 6z"/><path transform="rotate(-167.265 114.263 92.561)" class="st2" d="M83.7 37.5h61.2v110.2H83.7z"/><path transform="rotate(-82.6 114.258 92.558)" class="st0" d="M59.2 62h110.2v61.2H59.2z"/><path class="st1" d="M76.8 143.2l60.7 7.9 14.2-109.2L91 34 76.8 143.2zm57.5-99.9c.6 6.8 5.1 12.7 11.5 15l-9.8 75.5c-6.8.6-12.7 5.1-15 11.5l-26.9-3.5c-.6-6.8-5.1-12.7-11.5-15l9.8-75.4c6.8-.6 12.7-5.1 15-11.5l26.9 3.4z"/><path class="st1" d="M142.8 60l-9.3 71.3-.6.1c-5.7 1.3-10.6 5.1-13.3 10.3l-.3.6-22.7-2.9-.1-.6c-1.3-5.7-5.1-10.6-10.3-13.3l-.6-.3 9.3-71.3.6-.1c5.7-1.3 10.6-5.1 13.3-10.3l.3-.6 22.7 2.9.1.6c1.3 5.7 5.1 10.6 10.3 13.3l.6.3zm-10.9 69.8l8.9-68.8c-5.2-2.9-9-7.8-10.5-13.6l-20.2-2.6c-2.9 5.2-7.8 9-13.6 10.5L87.6 124c5.2 2.9 9 7.8 10.5 13.6l20.2 2.6c3-5.1 7.9-8.9 13.6-10.4z"/><ellipse transform="rotate(-82.6 114.257 92.558)" class="st3" cx="114.3" cy="92.6" rx="18.7" ry="25.5"/><path class="st1" d="M136.8 95.5c-1.1 8.7-12.2 14.5-24.6 12.9-12.5-1.6-21.7-10-20.5-18.8 1.1-8.7 12.2-14.5 24.6-12.9 12.5 1.6 21.7 10.1 20.5 18.8z"/><path class="st0" d="M119.7 83.2l-1.8 13.9c.3.3.5.6.8.8.6.5 1.3.8 2.2.9.8.1 1.6.1 2.3-.2.7-.2 1.3-.6 1.8-1 .5-.5.9-1.1 1.3-1.8.3-.7.6-1.5.7-2.4.2-1.2.2-2.3 0-3.2-.2-.9-.4-1.8-.6-2.5-.2-.7-.5-1.3-.7-1.7-.2-.4-.3-.8-.3-1 0-.1.1-.2.1-.3.1-.1.2-.2.3-.2.2 0 .4-.1.6-.1.2 0 .5 0 .9.1.5.1.9.2 1.2.3.3.1.5.3.7.5.2.2.4.6.6 1.1.2.5.4 1.1.6 1.9.2.7.3 1.6.3 2.5.1.9 0 1.9-.1 3-.2 1.5-.6 2.9-1.2 4.1-.6 1.2-1.3 2.3-2.2 3.2-.9.9-2 1.5-3.2 1.9-1.2.4-2.6.5-4 .3-1-.1-1.9-.4-2.7-.8l-.1.6c0 .2-.2.3-.4.5-.2.1-.6.1-1.2.1-.5-.1-.9-.2-1.1-.4-.2-.2-.3-.4-.3-.6l.3-2.5c-.6-.7-1-1.6-1.4-2.5-.4-.9-.7-1.9-1-2.8-.2-.6-.4-1.2-.6-1.7l-1.2 9c0 .2-.2.3-.4.5-.2.1-.6.1-1.2.1-.5-.1-.9-.2-1.1-.4-.2-.2-.3-.4-.3-.6l1.8-13.5c-.1-.1-.3-.3-.5-.4-.6-.5-1.3-.8-2.2-.9-.6-.1-1.2 0-1.7.1-.6.1-1.1.4-1.5.8-.4.4-.8.9-1.1 1.5-.3.6-.5 1.4-.6 2.2-.1.9-.1 1.8 0 2.6s.3 1.5.5 2.1c.2.6.4 1.1.6 1.5.2.4.3.7.2.9 0 .1-.1.2-.1.3-.1.1-.2.1-.4.2h-.6c-.2 0-.5 0-.8-.1-.3 0-.6-.1-.7-.1-.2 0-.4-.1-.5-.1-.1 0-.2-.1-.3-.2-.1-.1-.2-.2-.3-.4-.1-.2-.3-.5-.5-1s-.3-1.1-.5-1.7c-.1-.6-.2-1.3-.2-2s0-1.4.1-2.1c.2-1.4.5-2.6 1-3.7s1.2-2.1 2-2.8c.8-.8 1.8-1.3 2.8-1.7 1.1-.3 2.3-.4 3.6-.3.9.1 1.7.3 2.3.6l.2-1.4c0-.2.2-.4.4-.5.3-.1.6-.1 1.1-.1.6.1.9.2 1.1.4.2.2.3.4.3.5l-.4 3 .3.4c.6.8 1.1 1.6 1.5 2.5.4.9.7 1.8 1 2.8.1.3.2.5.2.8l1.2-8.9c0-.2.2-.4.4-.5.3-.1.6-.1 1.1-.1.5.1.9.2 1.1.4.5-.1.5.1.5.3z"/><path class="st1" d="M117.8 126.8c-.6 4.3-4.5 7.4-8.8 6.8-4.3-.6-7.4-4.5-6.8-8.8.6-4.3 4.5-7.4 8.8-6.8 4.3.6 7.3 4.5 6.8 8.8zm-14.8-1.9c-.5 3.8 2.2 7.3 6 7.8s7.3-2.2 7.8-6-2.2-7.3-6-7.8-7.3 2.2-7.8 6z"/><path class="st1" d="M107.5 127.7c-4.3 2.2-3.2 3.6 0 0zM108 123.4c-2.1-4.3-3.5-3.2 0 0z"/><path class="st1" d="M108 123.4c.3.5.5 1.1.8 1.8-.7.1-1.4.2-2 .2.6.2 1.2.4 1.9.7-.4.6-.9 1.1-1.3 1.6.5-.3 1.1-.5 1.8-.8.1.7.2 1.4.2 2 .2-.6.4-1.2.7-1.9.6.4 1.1.9 1.6 1.3-.3-.5-.5-1.1-.8-1.8.7-.1 1.4-.2 2-.2-.6-.2-1.2-.4-1.9-.7.4-.6.9-1.1 1.3-1.6-.5.3-1.1.5-1.8.8-.1-.7-.2-1.4-.2-2-.2.6-.4 1.2-.7 1.9-.6-.5-1.1-1-1.6-1.3zM111.8 128.3c2.2 4.3 3.6 3.2 0 0zM112.4 123.9c4.3-2.1 3.2-3.6 0 0zM113 126.2c4.6 1.5 4.8-.3 0 0z"/><path class="st1" d="M106.9 125.4c-4.6-1.5-4.8.3 0 0zM110.3 122.7c1.6-4.5-.3-4.7 0 0zM109.5 128.9c-1.5 4.6.3 4.8 0 0zM126.4 60.7c-.6 4.3-4.5 7.4-8.8 6.8-4.3-.6-7.4-4.5-6.8-8.8.6-4.3 4.5-7.4 8.8-6.8 4.3.5 7.3 4.5 6.8 8.8zm-14.8-1.9c-.5 3.8 2.2 7.3 6 7.8s7.3-2.2 7.8-6-2.2-7.3-6-7.8-7.3 2.2-7.8 6z"/><path class="st1" d="M116.1 61.6c-4.3 2.1-3.2 3.6 0 0zM116.6 57.2c-2.1-4.3-3.6-3.2 0 0zM116.6 57.2c.3.5.5 1.1.8 1.8-.7.1-1.4.2-2 .2.6.2 1.2.4 1.9.7-.4.6-.9 1.1-1.3 1.6.5-.3 1.1-.5 1.8-.8.1.7.2 1.4.2 2 .2-.6.4-1.2.7-1.9.6.4 1.1.9 1.6 1.3-.3-.5-.5-1.1-.8-1.8.7-.1 1.4-.2 2-.2-.6-.2-1.2-.4-1.9-.7.4-.6.9-1.1 1.3-1.6-.5.3-1.1.5-1.8.8-.1-.7-.2-1.4-.2-2-.2.6-.4 1.2-.7 1.9-.6-.5-1.1-.9-1.6-1.3zM120.4 62.1c2.2 4.3 3.6 3.2 0 0zM121 57.8c4.3-2.2 3.2-3.6 0 0zM121.6 60.1c4.6 1.5 4.8-.3 0 0zM115.4 59.3c-4.5-1.5-4.7.3 0 0zM118.9 56.6c1.6-4.6-.3-4.8 0 0zM118.1 62.8c-1.5 4.5.3 4.7 0 0z"/><path transform="scale(-1) rotate(7.4 1431.308 -1766.867)" class="st4" d="M83.7 37.5h61.2v110.2H83.7z"/><path class="st0" d="M83.7 37.5h61.2v110.2H83.7z"/><path class="st1" d="M83.7 147.6h61.2V37.5H83.7v110.1zm44.1-106.4c1.4 6.7 6.7 11.9 13.4 13.4v76.1c-6.7 1.4-11.9 6.7-13.4 13.4h-27.1c-1.4-6.7-6.7-11.9-13.4-13.4V54.5c6.7-1.4 11.9-6.7 13.4-13.4h27.1z"/><g><path class="st1" d="M138.4 56.6v71.9l-.6.2c-5.5 2-9.8 6.4-11.9 11.9l-.2.6h-22.9l-.2-.6c-2-5.5-6.4-9.8-11.9-11.9l-.6-.2V56.6l.6-.2c5.5-2 9.8-6.4 11.9-11.9l.2-.6h22.9l.2.6c2 5.5 6.4 9.8 11.9 11.9l.6.2zm-1.8 70.6V57.9c-5.5-2.2-9.9-6.6-12.1-12.1h-20.4c-2.2 5.5-6.6 9.9-12.1 12.1v69.3c5.5 2.2 9.9 6.6 12.1 12.1h20.4c2.2-5.5 6.6-9.8 12.1-12.1z"/></g><ellipse class="st3" cx="114.3" cy="92.6" rx="25.5" ry="18.7"/><path class="st1" d="M137 92.6c0 8.8-10.2 16-22.8 16-12.6 0-22.8-7.2-22.8-16s10.2-16 22.8-16c12.6 0 22.8 7.1 22.8 16z"/><g><path class="st0" d="M118.5 82.6v14c3 2.8 7.3.8 8.2-2.8.4-1.7.3-3.7-.3-5.4-.3-.8-.6-1.6-1-2.4-.3-.6-1.1-1.5-1.2-2.2-.2-1.4 2.8-1.1 3.6-.6 1.2.8 1.8 2.9 2.1 4.3.9 3.5.8 7.6-1.2 10.7-2.1 3.4-6.5 5-10.3 3.7v.6c0 1.2-2.7 1-3-.1-.2-.7 0-1.7 0-2.4-1.8-1.8-2.8-4.3-3.9-6.6v9.1c0 1.1-2.7 1-3 0-.1-.2 0-.6 0-.8v-4.6-8.2c-2.5-2-6.1-.7-7 2.3-.4 1.5-.3 3.1.2 4.6.2.7.5 1.4.9 2.1.3.5.9 1.2.9 1.8.1 1.1-2.3.9-3 .7-1.3-.4-1.8-2.4-2.1-3.5-.9-3.1-.7-6.9 1-9.7 1.9-3 5.7-4.2 9.1-3.2v-1.4c0-.9 1.5-.8 2-.7.6.1.9.4 1 1 .1.9 0 1.8 0 2.7l.3.3c1.6 1.6 2.6 3.6 3.5 5.7v-9c.2-1.1 3.2-1.1 3.2 0z"/></g><g><path class="st1" d="M122.1 126.1c0 4.3-3.5 7.9-7.9 7.9-4.3 0-7.9-3.5-7.9-7.9 0-4.3 3.5-7.9 7.9-7.9s7.9 3.6 7.9 7.9zm-14.8 0c0 3.8 3.1 7 7 7 3.8 0 7-3.1 7-7 0-3.8-3.1-7-7-7s-7 3.2-7 7z"/></g><g><path class="st1" d="M112.1 128.3c-4 2.7-2.7 4 0 0zM112.1 123.9c-2.7-4-4-2.7 0 0zM112.1 123.9c.3.5.7 1.1 1 1.7-.7.2-1.4.4-2 .5.6.1 1.2.3 2 .5-.4.7-.7 1.2-1 1.7.5-.3 1.1-.7 1.7-1 .2.7.4 1.4.5 2 .1-.6.3-1.2.5-2 .7.4 1.2.7 1.7 1-.3-.5-.7-1.1-1-1.7.7-.2 1.4-.4 2-.5-.6-.1-1.2-.3-2-.5.4-.7.7-1.2 1-1.7-.5.3-1.1.7-1.7 1-.2-.7-.4-1.4-.5-2-.1.6-.3 1.2-.5 2-.7-.3-1.2-.7-1.7-1zM116.5 128.3c2.6 4 3.9 2.7 0 0zM116.5 123.9c3.9-2.7 2.6-4 0 0z"/><path class="st1" d="M117.4 126.1c4.7.9 4.7-.9 0 0zM111.1 126.1c-4.6-.9-4.6.9 0 0zM114.3 123c.9-4.7-1-4.7 0 0zM114.3 129.2c-1 4.7.9 4.7 0 0z"/></g><g><path class="st1" d="M122.1 59.4c0 4.3-3.5 7.9-7.9 7.9-4.3 0-7.9-3.5-7.9-7.9 0-4.3 3.5-7.9 7.9-7.9s7.9 3.5 7.9 7.9zm-14.8 0c0 3.8 3.1 7 7 7 3.8 0 7-3.1 7-7 0-3.8-3.1-7-7-7s-7 3.2-7 7z"/></g><g><path class="st1" d="M112.1 61.6c-4 2.7-2.7 4 0 0zM112.1 57.2c-2.7-4-4-2.7 0 0z"/><path class="st1" d="M112.1 57.2c.3.5.7 1.1 1 1.7-.7.2-1.4.4-2 .5.6.1 1.2.3 2 .5-.4.7-.7 1.2-1 1.7.5-.3 1.1-.7 1.7-1 .2.7.4 1.4.5 2 .1-.6.3-1.2.5-2 .7.4 1.2.7 1.7 1-.3-.5-.7-1.1-1-1.7.7-.2 1.4-.4 2-.5-.6-.1-1.2-.3-2-.5.4-.7.7-1.2 1-1.7-.5.3-1.1.7-1.7 1-.2-.7-.4-1.4-.5-2-.1.6-.3 1.2-.5 2-.7-.3-1.2-.7-1.7-1z"/><path class="st1" d="M116.5 61.6c2.6 4 3.9 2.7 0 0zM116.5 57.2c3.9-2.7 2.6-4 0 0zM117.4 59.4c4.7.9 4.7-.9 0 0zM111.1 59.4c-4.6-.9-4.6.9 0 0zM114.3 56.3c.9-4.7-1-4.7 0 0zM114.3 62.5c-1 4.7.9 4.7 0 0z"/></g><path class="st5" d="M161.2 28.2a7.55 7.55 0 0 1-3.2-8.4l.5-1.5H69.1l.4 1.4s.1.4.2.9c.6 2.9-.7 5.9-3.4 7.5-6.8 4.3-6.8 11.2-6.8 11.5v101.6c0 10.7 8.7 19.4 19.4 19.4h69.7c10.7 0 19.4-8.7 19.4-19.4V39.7c0-.3 0-7.3-6.8-11.5zm6.3 113.6c0 10.2-8.3 18.5-18.5 18.5H78.5c-10.2 0-18.5-8.3-18.5-18.5V39.1s0-6.7 6.4-10.7c3-1.9 4.6-5.3 3.9-8.8-.1-.6-.3-1.1-.3-1.1h87.3v.2c-1 3.7.5 7.6 3.7 9.7 6.4 4 6.4 10.7 6.4 10.7v102.7z"/><path class="st6" d="M160 152.4c0 2.3-21.1 4.2-47.1 4.2s-42.7-1.9-42.7-4.2c0-2.3 16.7-4.2 42.7-4.2s47.1 1.8 47.1 4.2z"/><radialGradient id="SVGID_1_" cx="113.8" cy="148.252" r="38.897" gradientUnits="userSpaceOnUse"><stop offset="0" stop-color="#355851"/><stop offset=".276" stop-color="#385b54"/><stop offset=".476" stop-color="#41635c"/><stop offset=".651" stop-color="#51716b"/><stop offset=".813" stop-color="#678580"/><stop offset=".963" stop-color="#849e9a"/><stop offset="1" stop-color="#8ca5a2"/></radialGradient><path class="st7" d="M149 154.7H78.6c-10.2 0-18.4-8.3-18.4-18.4v5.5c0 10.2 8.3 18.4 18.4 18.4H149c10.2 0 18.4-8.3 18.4-18.4v-5.5c.1 10.1-8.2 18.4-18.4 18.4z"/><radialGradient id="SVGID_2_" cx="113.8" cy="134.914" r="40.432" gradientUnits="userSpaceOnUse"><stop offset="0" stop-color="#fff"/><stop offset="1" stop-color="#fff" stop-opacity="0"/></radialGradient><path class="st8" d="M165.9 124c0-28.8-23.3.5-52.1.5s-52.1-29.2-52.1-.5 23.3 34.4 52.1 34.4 52.1-5.6 52.1-34.4z"/><g><circle class="st9" cx="138.8" cy="140.6" r="13.9"/><linearGradient id="SVGID_3_" gradientUnits="userSpaceOnUse" x1="-221.295" y1="2247.759" x2="-221.295" y2="2220.796" gradientTransform="rotate(101.964 806.95 1333.343)"><stop offset="0" stop-color="#ffe15b"/><stop offset=".057" stop-color="#ffe463"/><stop offset=".309" stop-color="#fff082"/><stop offset=".554" stop-color="#fff898"/><stop offset=".789" stop-color="#fffda5"/><stop offset="1" stop-color="#ffa"/></linearGradient><circle class="st10" cx="138.8" cy="140.6" r="13.5"/><circle class="st11" cx="138.8" cy="140.6" r="13.5"/><path class="st9" d="M150.1 143c1.3-6.2-2.7-12.4-8.9-13.7-6.2-1.3-12.4 2.7-13.7 8.9-1.3 6.2 2.7 12.4 8.9 13.7 6.2 1.3 12.4-2.6 13.7-8.9zm-21.6-4.5c1.2-5.7 6.8-9.3 12.4-8.1 5.7 1.2 9.3 6.8 8.1 12.4-1.2 5.7-6.8 9.3-12.4 8.1-5.7-1.2-9.3-6.8-8.1-12.4z"/><g class="st12"><path class="st13" d="M135.7 144.2l1.2-5.7c-.1-.1-.2-.3-.3-.4-1.7-1.7-3.5.6-3.6 2.3-.1.9.4 1.7.4 2.5.1.9-1.2.5-1.6 0-1-1.4-.3-4.2.6-5.5 1.1-1.5 3.2-2.1 4.9-1.1l.1-.3c.1-.4 1.3-.2 1.2.3l-.2 1c.4.7.7 1.5.8 2.2.1.2.1.5.2.7l.8-3.7c.1-.4 1.3-.2 1.2.3l-1.2 5.5.2.2c1.6 1.5 3.1-.4 3.2-2 0-.4-.6-1.9-.4-2.2.2-.4 1.2-.1 1.5.2.9 1 .3 3.3-.2 4.3-.9 1.7-2.9 2.4-4.6 1.5l-.1.6c-.1.4-1.3.2-1.2-.3l.3-1.2-.1-.2c-.4-.7-.7-1.5-.9-2.2 0-.1 0-.2-.1-.3l-.8 3.6c-.2.6-1.3.3-1.3-.1z"/></g><path class="st14" d="M136.2 144.3l1.2-5.7c-.1-.1-.2-.3-.3-.4-1.7-1.7-3.5.6-3.6 2.3-.1.9.4 1.7.4 2.5.1.9-1.2.5-1.6 0-1-1.4-.3-4.2.6-5.5 1.1-1.5 3.2-2.1 4.9-1.1l.1-.3c.1-.4 1.3-.2 1.2.3l-.2 1c.4.7.7 1.5.8 2.2.1.2.1.5.2.7l.8-3.7c.1-.4 1.3-.2 1.2.3l-1.2 5.5.2.2c1.6 1.5 3.1-.4 3.2-2 0-.4-.6-1.9-.4-2.2.2-.4 1.2-.1 1.5.2.9 1 .3 3.3-.2 4.3-.9 1.7-2.9 2.4-4.6 1.5l-.1.6c-.1.4-1.3.2-1.2-.3l.3-1.2-.1-.2c-.4-.7-.7-1.5-.9-2.2 0-.1 0-.2-.1-.3l-.8 3.6c-.2.6-1.4.3-1.3-.1z"/><g><circle class="st9" cx="127.2" cy="140.6" r="13.9"/><linearGradient id="SVGID_4_" gradientUnits="userSpaceOnUse" x1="779.421" y1="-52.454" x2="779.421" y2="-79.416" gradientTransform="rotate(-30.706 829.502 1225.124)"><stop offset="0" stop-color="#ffe15b"/><stop offset=".057" stop-color="#ffe463"/><stop offset=".309" stop-color="#fff082"/><stop offset=".554" stop-color="#fff898"/><stop offset=".789" stop-color="#fffda5"/><stop offset="1" stop-color="#ffa"/></linearGradient><circle class="st15" cx="127.2" cy="140.6" r="13.5"/><circle class="st11" cx="127.2" cy="140.6" r="13.5"/><path class="st9" d="M121.3 130.7c-5.5 3.3-7.3 10.3-4 15.8s10.3 7.3 15.8 4 7.3-10.3 4-15.8c-3.2-5.4-10.3-7.3-15.8-4zm11.3 19c-5 3-11.4 1.3-14.4-3.7s-1.3-11.4 3.7-14.4 11.4-1.3 14.4 3.7 1.3 11.4-3.7 14.4z"/><g class="st12"><path class="st13" d="M131.9 140.4l-5 3c0 .2-.1.3-.1.5-.1 2.4 2.9 2.2 4.2 1.1.7-.6 1-1.4 1.5-2 .6-.6 1.2.4 1.1 1.1-.2 1.5-2.5 2.9-3.8 3.2-2 .6-4.3-.6-4.7-2.7l-.2.1c-.4.2-1-.8-.6-1.1l.9-.5c.2-.8.6-1.5 1.1-2.1.1-.2.3-.4.4-.6l-3.2 1.9c-.4.2-1-.8-.6-1.1l4.8-2.9v-.3c.1-2.4-2.7-1.9-3.9-.7-.3.3-.8 1.6-1.2 1.6-.4 0-.8-1-.7-1.3.2-1.4 2.7-2.6 3.8-2.8 1.7-.2 3.3.8 3.7 2.5l.5-.3c.4-.2 1 .8.6 1.1l-1.1.6v.2c-.2.8-.6 1.5-1.1 2.2-.1.1-.1.2-.2.3l3.2-1.9c.4-.3 1 .7.6.9z"/></g><path class="st14" d="M131.7 140l-5 3c0 .2-.1.3-.1.5-.1 2.4 2.9 2.2 4.2 1.1.7-.6 1-1.4 1.5-2 .6-.6 1.2.4 1.1 1.1-.2 1.5-2.5 2.9-3.8 3.2-2 .6-4.3-.6-4.7-2.7l-.2.1c-.4.2-1-.8-.6-1.1l.9-.5c.2-.8.6-1.5 1.1-2.1.1-.2.3-.4.4-.6l-3.2 1.9c-.4.2-1-.8-.6-1.1l4.8-2.9v-.3c.1-2.4-2.7-1.9-3.9-.7-.3.3-.8 1.6-1.2 1.6-.4 0-.8-1-.7-1.3.2-1.4 2.7-2.6 3.8-2.8 1.7-.2 3.3.8 3.7 2.5l.5-.3c.4-.2 1 .8.6 1.1l-1.1.6v.2c-.2.8-.6 1.5-1.1 2.2-.1.1-.1.2-.2.3l3.2-1.9c.3-.4.9.7.6.9z"/></g><g><circle class="st9" cx="115.7" cy="132.2" r="12"/><linearGradient id="SVGID_5_" gradientUnits="userSpaceOnUse" x1="-159.536" y1="296.189" x2="-159.536" y2="272.996" gradientTransform="rotate(12.17 692.712 1499.3)"><stop offset="0" stop-color="#ffe15b"/><stop offset=".057" stop-color="#ffe463"/><stop offset=".309" stop-color="#fff082"/><stop offset=".554" stop-color="#fff898"/><stop offset=".789" stop-color="#fffda5"/><stop offset="1" stop-color="#ffa"/></linearGradient><circle class="st16" cx="115.7" cy="132.2" r="11.6"/><circle class="st11" cx="115.7" cy="132.2" r="11.6"/><path class="st9" d="M117.8 122.5c-5.4-1.2-10.6 2.3-11.8 7.6-1.2 5.4 2.3 10.6 7.6 11.8 5.4 1.2 10.6-2.3 11.8-7.6 1.2-5.3-2.3-10.6-7.6-11.8zm-4 18.6c-4.9-1.1-8-5.9-6.9-10.7s5.9-8 10.7-6.9c4.9 1.1 8 5.9 6.9 10.7s-5.8 7.9-10.7 6.9z"/><g class="st12"><path class="st13" d="M118.8 134.9l-4.9-1.1-.3.3c-1.4 1.4.4 3 1.8 3.1.5.1.9 0 1.4-.1.2 0 .9-.4 1.1-.3.4.1.4.7.1 1.1-.9 1.2-3.7.5-4.6-.1-1.5-.9-2.2-2.9-1.3-4.4h-.2c-.4-.1-.1-1.1.2-1l.9.2c.6-.4 1.3-.6 1.9-.7.2 0 .4-.1.6-.1l-3.2-.7c-.4-.1-.1-1.1.2-1l4.7 1c.1 0 .1-.1.2-.2 1.3-1.3-.4-2.7-1.7-2.7-.4 0-1.6.5-1.9.4-.3-.2-.1-1 .1-1.2.9-1 3.3-.2 4.2.4 1.2.9 1.6 2.4.9 3.8l.5.1c.4.1.1 1.1-.2 1l-1.1-.2-.1.1c-.6.4-1.3.6-1.9.7-.1 0-.2 0-.3.1l3.1.7c.4-.2.1.8-.2.8z"/></g><path class="st14" d="M118.8 134.5l-4.9-1.1-.3.3c-1.4 1.4.4 3 1.8 3.1.5.1.9 0 1.4-.1.2 0 .9-.4 1.1-.3.4.1.4.7.1 1.1-.9 1.2-3.7.5-4.6-.1-1.5-.9-2.2-2.9-1.3-4.4h-.2c-.4-.1-.1-1.1.2-1l.9.2c.6-.4 1.3-.6 1.9-.7.2 0 .4-.1.6-.1l-3.2-.7c-.4-.1-.1-1.1.2-1l4.7 1c.1 0 .1-.1.2-.2 1.3-1.3-.4-2.7-1.7-2.7-.4 0-1.6.5-1.9.4-.3-.2-.1-1 .1-1.2.9-1 3.3-.2 4.2.4 1.2.9 1.6 2.4.9 3.8l.5.1c.4.1.1 1.1-.2 1l-1.1-.2-.1.1c-.6.4-1.3.6-1.9.7-.1 0-.2 0-.3.1l3.1.7c.4-.2.2.8-.2.8z"/></g><g><circle class="st9" cx="94.9" cy="143.3" r="13.9"/><linearGradient id="SVGID_6_" gradientUnits="userSpaceOnUse" x1="-256.074" y1="1883.257" x2="-256.074" y2="1856.295" gradientTransform="rotate(85.726 849.59 1195.653) scale(.99998)"><stop offset="0" stop-color="#ffe15b"/><stop offset=".057" stop-color="#ffe463"/><stop offset=".309" stop-color="#fff082"/><stop offset=".554" stop-color="#fff898"/><stop offset=".789" stop-color="#fffda5"/><stop offset="1" stop-color="#ffa"/></linearGradient><circle class="st17" cx="94.9" cy="143.3" r="13.5"/><circle class="st11" cx="94.9" cy="143.3" r="13.5"/><path class="st9" d="M106.5 142.4c-.5-6.4-6-11.1-12.4-10.7-6.4.5-11.1 6-10.7 12.4.5 6.4 6 11.1 12.4 10.7 6.4-.5 11.1-6 10.7-12.4zm-22 1.7c-.4-5.8 3.9-10.8 9.7-11.2s10.8 3.9 11.2 9.7c.4 5.8-3.9 10.8-9.7 11.2s-10.8-3.9-11.2-9.7z"/><g class="st12"><path class="st13" d="M93 147.6l-.4-5.8c-.1-.1-.3-.2-.4-.3-2.2-1.2-3.2 1.7-2.8 3.4.1.5.3 1 .6 1.4.1.2.5.6.6.8.1.7-1.1.7-1.5.4-1.3-.9-1.5-3.7-1.1-5 .5-2 2.5-3.4 4.5-2.9v-.3c0-.5 1.2-.5 1.2-.1l.1 1c.6.5 1 1.2 1.4 1.9.1.2.2.4.4.7l-.3-3.7c0-.5 1.2-.5 1.2-.1l.4 5.6c.1 0 .1.1.2.1 1.9 1 2.9-1.3 2.5-2.8-.1-.4-1.1-1.7-1-2 .1-.4 1.1-.4 1.5-.2 1.2.8 1.3 3.4.9 4.6-.5 1.8-2.2 2.7-4 2.4v.6c0 .5-1.2.5-1.2.1l-.1-1.2-.2-.1c-.6-.5-1.1-1.2-1.5-1.9-.1-.1-.1-.2-.2-.3l.3 3.7c.2.3-1 .4-1.1 0z"/></g><path class="st14" d="M93.5 147.5l-.4-5.8c-.1-.1-.3-.2-.4-.3-2.2-1.2-3.2 1.7-2.8 3.4.1.5.3 1 .6 1.4.1.2.5.6.6.8.1.7-1.1.7-1.5.4-1.3-.9-1.5-3.7-1.1-5 .5-2 2.5-3.4 4.5-2.9v-.3c0-.5 1.2-.5 1.2-.1l.1 1c.6.5 1 1.2 1.4 1.9.1.2.2.4.4.7l-.3-3.7c0-.5 1.2-.5 1.2-.1l.4 5.6c.1 0 .1.1.2.1 1.9 1 2.9-1.3 2.5-2.8-.1-.4-1.1-1.7-1-2 .1-.4 1.1-.4 1.5-.2 1.2.8 1.3 3.4.9 4.6-.5 1.8-2.2 2.7-4 2.4v.6c0 .5-1.2.5-1.2.1l-.1-1.2-.2-.1c-.6-.5-1.1-1.2-1.5-1.9-.1-.1-.1-.2-.2-.3l.3 3.7c.2.4-1.1.5-1.1 0z"/></g><g><circle class="st9" cx="103" cy="138" r="12.4"/><linearGradient id="SVGID_7_" gradientUnits="userSpaceOnUse" x1="207.494" y1="47.776" x2="207.494" y2="23.854" gradientTransform="rotate(-6.927 998.458 948.728)"><stop offset="0" stop-color="#ffe15b"/><stop offset=".057" stop-color="#ffe463"/><stop offset=".309" stop-color="#fff082"/><stop offset=".554" stop-color="#fff898"/><stop offset=".789" stop-color="#fffda5"/><stop offset="1" stop-color="#ffa"/></linearGradient><circle class="st18" cx="103" cy="138" r="12"/><circle class="st11" cx="103" cy="138" r="12"/><path class="st9" d="M101.7 127.9c-5.6.7-9.6 5.8-8.9 11.4.7 5.6 5.8 9.6 11.4 8.9 5.6-.7 9.6-5.8 8.9-11.4-.6-5.6-5.7-9.6-11.4-8.9zm2.4 19.4c-5.1.6-9.7-3-10.4-8.1-.6-5.1 3-9.7 8.1-10.4 5.1-.6 9.7 3 10.4 8.1.6 5.1-3 9.8-8.1 10.4z"/><g class="st12"><path class="st13" d="M106.9 139.6l-5.1.6c-.1.1-.2.2-.2.4-.9 1.8 1.3 2.7 2.7 2.5.9-.2 1.4-.8 2.2-1.1.6-.2.9.1.7.8-.3 1.6-3.4 1.8-4.6 1.6-1.8-.3-3.1-2-2.7-3.9h-.2c-.4 0-.5-1-.1-1.1l.9-.1c.4-.6 1.1-1 1.7-1.3.2-.1.4-.2.6-.4l-3.3.4c-.4 0-.5-1-.1-1.1l5-.6c0-.1.1-.1.1-.2.8-1.7-1.3-2.5-2.6-2.1-.4.1-1.4 1-1.7 1-.4-.1-.4-1-.3-1.2.5-1.2 3.2-1.4 4.2-1.1 1.5.4 2.3 1.8 2.1 3.4l.5-.1c.4 0 .5 1 .1 1.1l-1.1.1-.1.1c-.4.6-1 1-1.6 1.4-.1.1-.2.1-.3.2l3.3-.4c.1-.1.2 1-.1 1.1z"/></g><path class="st14" d="M106.8 139.1l-5.1.6c-.1.1-.2.2-.2.4-.9 1.8 1.3 2.7 2.7 2.5.9-.2 1.4-.8 2.2-1.1.6-.2.9.1.7.8-.3 1.6-3.4 1.8-4.6 1.6-1.8-.3-3.1-2-2.7-3.9h-.2c-.4 0-.5-1-.1-1.1l.9-.1c.4-.6 1.1-1 1.7-1.3.2-.1.4-.2.6-.4l-3.3.4c-.4 0-.5-1-.1-1.1l5-.6c0-.1.1-.1.1-.2.8-1.7-1.3-2.5-2.6-2.1-.4.1-1.4 1-1.7 1-.4-.1-.4-1-.3-1.2.5-1.2 3.2-1.4 4.2-1.1 1.5.4 2.3 1.8 2.1 3.4l.5-.1c.4 0 .5 1 .1 1.1l-1.1.1-.1.1c-.4.6-1 1-1.6 1.4-.1.1-.2.1-.3.2l3.3-.4c.2 0 .3 1.1-.1 1.1z"/></g><g><circle class="st9" cx="118.1" cy="143" r="13.9"/><linearGradient id="SVGID_8_" gradientUnits="userSpaceOnUse" x1="118.076" y1="156.479" x2="118.076" y2="129.517"><stop offset="0" stop-color="#ffe15b"/><stop offset=".057" stop-color="#ffe463"/><stop offset=".309" stop-color="#fff082"/><stop offset=".554" stop-color="#fff898"/><stop offset=".789" stop-color="#fffda5"/><stop offset="1" stop-color="#ffa"/></linearGradient><circle class="st19" cx="118.1" cy="143" r="13.5"/><circle class="st11" cx="118.1" cy="143" r="13.5"/><path class="st9" d="M118.1 131.5c-6.4 0-11.5 5.2-11.5 11.5 0 6.4 5.2 11.5 11.5 11.5 6.4 0 11.5-5.2 11.5-11.5 0-6.4-5.1-11.5-11.5-11.5zm0 22c-5.8 0-10.5-4.7-10.5-10.5s4.7-10.5 10.5-10.5 10.5 4.7 10.5 10.5-4.7 10.5-10.5 10.5z"/><g class="st12"><path class="st13" d="M122.2 145.2h-5.8c-.1.1-.2.2-.3.4-1.4 2.1 1.5 3.4 3.2 3.1.5-.1 1-.3 1.4-.5.2-.1.6-.5.9-.5.7 0 .6 1.1.3 1.5-1 1.2-3.8 1.2-5.1.8-2-.6-3.2-2.7-2.5-4.7h-.3c-.5 0-.4-1.2 0-1.2h1c.6-.6 1.3-.9 2-1.3.2-.1.5-.2.7-.3h-3.8c-.5 0-.4-1.2 0-1.2h5.6l.2-.2c1.2-1.9-1.1-3-2.6-2.7-.4.1-1.7 1-2.1.9-.4-.1-.4-1.1-.2-1.4.7-1.2 3.5-1.1 4.5-.7 1.8.6 2.8 2.3 2.3 4.2h.6c.5 0 .4 1.2 0 1.2H121l-.1.1c-.6.6-1.3 1-2 1.3-.1 0-.2.1-.3.1h3.7c.4-.1.3 1.1-.1 1.1z"/></g><path class="st14" d="M122.2 144.7h-5.8c-.1.1-.2.2-.3.4-1.4 2.1 1.5 3.4 3.2 3.1.5-.1 1-.3 1.4-.5.2-.1.6-.5.9-.5.7 0 .6 1.1.3 1.5-1 1.2-3.8 1.2-5.1.8-2-.6-3.2-2.7-2.5-4.7h-.3c-.5 0-.4-1.2 0-1.2h1c.6-.6 1.3-.9 2-1.3.2-.1.5-.2.7-.3h-3.8c-.5 0-.4-1.2 0-1.2h5.6l.2-.2c1.2-1.9-1.1-3-2.6-2.7-.4.1-1.7 1-2.1.9-.4-.1-.4-1.1-.2-1.4.7-1.2 3.5-1.1 4.5-.7 1.8.6 2.8 2.3 2.3 4.2h.6c.5 0 .4 1.2 0 1.2H121l-.1.1c-.6.6-1.3 1-2 1.3-.1 0-.2.1-.3.1h3.7c.4-.1.3 1.1-.1 1.1z"/></g></g><linearGradient id="SVGID_9_" gradientUnits="userSpaceOnUse" x1="60.112" y1="89.463" x2="167.488" y2="89.463"><stop offset="0" stop-color="#65827d"/><stop offset=".161" stop-color="#98bfba"/><stop offset=".391" stop-color="#fff"/><stop offset=".563" stop-color="#e4eff1"/><stop offset=".726" stop-color="#dbf0f1"/><stop offset=".843" stop-color="#daf4f3"/><stop offset=".866" stop-color="#d5efee"/><stop offset=".894" stop-color="#c7e2e0"/><stop offset=".923" stop-color="#b0ccc8"/><stop offset=".954" stop-color="#8fada7"/><stop offset=".985" stop-color="#65857d"/><stop offset="1" stop-color="#4f7067"/></linearGradient><path class="st20" d="M167.5 39.2v102.6c0 10.2-8.3 18.4-18.4 18.4H78.6c-4.8 0-9.1-1.8-12.4-4.8-3.7-3.4-6-8.2-6-13.7V39.2s0-6.7 6.4-10.7c3-1.9 4.6-5.3 3.9-8.8-.1-.6-.3-1.1-.3-1.1h87.3v.2c-1 3.7.5 7.6 3.7 9.7 6.3 4 6.3 10.7 6.3 10.7z"/><path class="st21" d="M92.5 141.8V39.2s0-6.7 6.4-10.7c3-1.9 4.6-5.3 3.9-8.8-.1-.6-.3-1-.3-1h-11s.1.4.3 1c.7 3.5-.9 6.9-3.9 8.8-6.4 4-6.4 10.7-6.4 10.7v102.6c0 10.2 8.3 18.4 18.4 18.4H111c-10.2 0-18.5-8.2-18.5-18.4z"/><path class="st22" d="M82 141.8V39.2s0-6.7 6.4-10.7c3-1.9 4.6-5.3 3.9-8.8-.1-.6-.3-1-.3-1H81s.1.4.3 1c.7 3.5-.9 6.9-3.9 8.8-6.4 4-6.4 10.7-6.4 10.7v102.6c0 10.2 8.3 18.4 18.4 18.4h11.1c-10.2 0-18.5-8.2-18.5-18.4z"/><path class="st23" d="M73.4 141.8V39.2s0-6.7 6.4-10.7c3-1.9 4.6-5.3 3.9-8.8-.1-.6-.3-1-.3-1h-11s.1.4.3 1c.7 3.5-.9 6.9-3.9 8.8-6.4 4-6.4 10.7-6.4 10.7v102.6c0 10.2 8.3 18.4 18.4 18.4h11.1c-10.2 0-18.5-8.2-18.5-18.4z"/><linearGradient id="SVGID_10_" gradientUnits="userSpaceOnUse" x1="134.147" y1="89.463" x2="163.66" y2="89.463"><stop offset="0" stop-color="#cce5e9"/><stop offset=".257" stop-color="#cee7eb"/><stop offset=".405" stop-color="#d3f0f2"/><stop offset=".522" stop-color="#dbfdfe"/><stop offset=".524" stop-color="#dafcfd"/><stop offset=".603" stop-color="#c8e9ea"/><stop offset=".694" stop-color="#bcdcdc"/><stop offset=".805" stop-color="#b4d4d3"/><stop offset="1" stop-color="#b2d2d1"/></linearGradient><path class="st24" d="M152.6 141.8V39.2s0-6.7-6.4-10.7c-3-1.9-4.6-5.3-3.9-8.8.1-.6.3-1 .3-1h11.1s-.1.4-.3 1c-.7 3.5.9 6.9 3.9 8.8 6.4 4 6.4 10.7 6.4 10.7v102.6c0 10.2-8.3 18.4-18.4 18.4h-11.1c10.1 0 18.4-8.2 18.4-18.4z"/><g><linearGradient id="SVGID_11_" gradientUnits="userSpaceOnUse" x1="70.144" y1="9.031" x2="157.532" y2="9.031"><stop offset="0" stop-color="#ff821a"/><stop offset=".064" stop-color="#ee4f0b"/><stop offset=".19" stop-color="#d74303"/><stop offset=".339" stop-color="#ff6e18"/><stop offset=".456" stop-color="#ff8e37"/><stop offset=".634" stop-color="#ff5c0c"/><stop offset=".635" stop-color="#ff5d0d"/><stop offset=".67" stop-color="#ff8c39"/><stop offset=".704" stop-color="#ffb05b"/><stop offset=".736" stop-color="#ffcb74"/><stop offset=".764" stop-color="#ffda83"/><stop offset=".786" stop-color="#ffe088"/><stop offset=".806" stop-color="#fed67f"/><stop offset=".841" stop-color="#fcb966"/><stop offset=".886" stop-color="#f88c3f"/><stop offset=".937" stop-color="#f3500b"/><stop offset="1" stop-color="#f66712"/></linearGradient><path class="st25" d="M155.5 12.1H72.1c-1.1 0-2-.9-2-2V8c0-1.1.9-2 2-2h83.4c1.1 0 2 .9 2 2v2.1c0 1.1-.9 2-2 2z"/><linearGradient id="SVGID_12_" gradientUnits="userSpaceOnUse" x1="67.771" y1="14.301" x2="159.992" y2="14.301"><stop offset="0" stop-color="#fcbd6e"/><stop offset=".064" stop-color="#ff5601"/><stop offset=".19" stop-color="#d33a00"/><stop offset=".339" stop-color="#ff6c04"/><stop offset=".374" stop-color="#ff922a"/><stop offset=".429" stop-color="#ffc75f"/><stop offset=".456" stop-color="#ffdc74"/><stop offset=".496" stop-color="#ffc75f"/><stop offset=".579" stop-color="#ff9229"/><stop offset=".634" stop-color="#ff6c02"/><stop offset=".645" stop-color="#ff7b13"/><stop offset=".678" stop-color="#ffa342"/><stop offset=".71" stop-color="#fec366"/><stop offset=".739" stop-color="#fed981"/><stop offset=".765" stop-color="#fee790"/><stop offset=".786" stop-color="#feec96"/><stop offset=".805" stop-color="#fee28c"/><stop offset=".84" stop-color="#fec66f"/><stop offset=".885" stop-color="#ff9842"/><stop offset=".937" stop-color="#ff5b04"/><stop offset="1" stop-color="#f9ac64"/></linearGradient><path class="st26" d="M157.8 19.5c-30.7 1.4-57.1 1.4-87.8 0-1.2-.1-2.2-1.1-2.2-2.4v-6.8C67.8 9 68.8 8 70 8h87.8c1.2 0 2.2 1 2.2 2.3v6.8c0 1.3-1 2.4-2.2 2.4z"/><path class="st2" d="M157.8 19.2c-30.7 1.4-57.1 1.4-87.8 0-1.2-.1-2.2-1.1-2.2-2.4v.3c0 1.3 1 2.3 2.2 2.4 30.7 1.4 57.1 1.4 87.8 0 1.2-.1 2.2-1.1 2.2-2.4v-.3c0 1.2-1 2.3-2.2 2.4z"/><path class="st27" d="M157.8 8H70c-1.2 0-2.2 1-2.2 2.3v.7c0-1.3 1-2.3 2.2-2.3h87.8c1.2 0 2.2 1 2.2 2.3v-.7c0-1.3-1-2.3-2.2-2.3z"/><path class="st28" d="M70.2 7.9h87.3v.2H70.2z"/></g><g class="st29"><path class="st30" d="M160 35.5c0 .5-21 2.1-46.9 2.2-25.9-.1-46.9-1.7-46.9-2.2 0-.5 21-1 46.9-1.1 25.9.1 46.9.6 46.9 1.1z"/></g><g class="st31"><path class="st30" d="M166.2 36.2c0 1.7-23.2 6-52 6.1-28.7-.1-52-4.4-52-6.1 0-1.8 23.3-3.5 52-3.7 28.8.2 52.1 1.9 52 3.7z"/></g><path class="st32" d="M150.8 26.1c0 .2-16.5 3.8-37 4-20.5-.1-37-3.8-37-4 0-.3 16.6-.9 37-1.1 20.4.2 37 .8 37 1.1z"/><radialGradient id="SVGID_13_" cx="113.8" cy="72.695" r="52.114" gradientUnits="userSpaceOnUse"><stop offset="0" stop-color="#fff" stop-opacity=".5"/><stop offset="1" stop-color="#fff" stop-opacity="0"/></radialGradient><circle class="st33" cx="113.8" cy="72.7" r="52.1"/><ellipse class="st4" cx="113.6" cy="157.6" rx="41.3" ry="2.6"/><path class="st34" d="M167.5 132.3v9.5c0 10.2-8.3 18.4-18.4 18.4h-44.3l62.7-27.9zM167.5 99.7v26.4L87 160.2h-8.4c-4.8 0-9.1-1.8-12.4-4.8l101.3-55.7z"/><path class="st35" d="M149 156.9H78.6c-10.2 0-18.4-10.5-18.4-20.7v5.5c0 10.2 8.3 18.4 18.4 18.4H149c10.2 0 18.4-8.3 18.4-18.4v-5.5c.1 10.2-8.2 20.7-18.4 20.7z"/><ellipse class="st36" cx="114.8" cy="159.5" rx="34.2" ry=".9"/><g><path class="st12" d="M163.4 63.4c-32.9 4-66.3 4-99.2 0V41c32.9 4 66.3 4 99.2 0v22.4z"/><linearGradient id="SVGID_14_" gradientUnits="userSpaceOnUse" x1="64.185" y1="52.531" x2="163.415" y2="52.531"><stop offset=".004" stop-color="#fff"/><stop offset=".525" stop-color="#fdfdfd"/><stop offset=".713" stop-color="#f7f7f6"/><stop offset=".847" stop-color="#ebebeb"/><stop offset=".954" stop-color="#dbdbda"/><stop offset="1" stop-color="#d2d1d0"/></linearGradient><path class="st37" d="M163.4 62.2c-32.9 4-66.3 4-99.2 0V39.8c32.9 4 66.3 4 99.2 0v22.4z"/><path class="st38" d="M114 62.4h-.4c-.5 0-.9-.4-.9-.9V46c0-.5.4-.9.9-.9h.4c.5 0 .9.4.9.9v15.5c-.1.6-.5.9-.9.9z"/><path class="st38" d="M113 51.9l-14.2 6h1.4l7.3-2.1 5.5-.2z"/><path class="st38" d="M105.1 53.8h-.5c-.2 0-.3.1-.3.3v3c0 .2.1.3.3.3h.5c.2 0 .3-.1.3-.3v-3c0-.1-.1-.3-.3-.3zM107.5 53.3h-.5c-.2 0-.3.1-.3.3v3c0 .2.1.3.3.3h.5c.2 0 .3-.1.3-.3v-3c0-.2-.2-.3-.3-.3zM114.8 51.9l14.3 6h-1.4l-7.4-2.1-5.5-.2z"/><path class="st38" d="M122.8 53.8h.5c.2 0 .3.1.3.3v3c0 .2-.1.3-.3.3h-.5c-.2 0-.3-.1-.3-.3v-3c0-.1.1-.3.3-.3zM120.4 53.3h.5c.2 0 .3.1.3.3v3c0 .2-.1.3-.3.3h-.5c-.2 0-.3-.1-.3-.3v-3c0-.2.1-.3.3-.3zM113 61.2l-3.9 2.1h1.2l1.3-.7 1.6-.4zM114.5 61.2l4 2.1h-1.3l-1.3-.7-1.5-.4z"/></g><g><path transform="rotate(-77.267 57.693 155.3)" class="st0" d="M2.6 124.7h110.2v61.2H2.6z"/><path class="st1" d="M15.7 202.3l59.7 13.5 24.3-107.5L40 94.8 15.7 202.3zm66.5-94.1c-.1 6.8 3.9 13.1 10.1 16l-16.8 74.2c-6.8-.1-13.1 3.9-16 10.1l-26.4-6c.1-6.8-3.9-13.1-10.1-16l16.8-74.2c6.8.1 13.1-3.9 16-10.1l26.4 6z"/><path transform="rotate(-167.265 57.692 155.299)" class="st2" d="M27.1 100.2h61.2v110.2H27.1z"/><path transform="rotate(-82.6 57.69 155.293)" class="st0" d="M2.6 124.7h110.2v61.2H2.6z"/><path class="st1" d="M20.3 206l60.7 7.9 14.2-109.2-60.7-7.9L20.3 206zm57.5-99.9c.6 6.8 5.1 12.7 11.5 15l-9.8 75.5c-6.8.6-12.7 5.1-15 11.5l-26.9-3.5c-.6-6.8-5.1-12.7-11.5-15l9.8-75.4c6.8-.6 12.7-5.1 15-11.5l26.9 3.4z"/><path class="st1" d="M86.3 122.8L77 194l-.6.1c-5.7 1.3-10.6 5.1-13.3 10.3l-.3.6-22.7-2.9-.1-.6c-1.3-5.7-5.1-10.6-10.3-13.3l-.6-.3 9.3-71.3.6-.1c5.7-1.3 10.6-5.1 13.3-10.3l.3-.6 22.7 2.9.1.6c1.3 5.7 5.1 10.6 10.3 13.3l.6.4zm-10.9 69.7l8.9-68.8c-5.2-2.9-9-7.8-10.5-13.6l-20.2-2.6c-2.9 5.2-7.8 9-13.6 10.5l-8.9 68.7c5.2 2.9 9 7.8 10.5 13.6l20.2 2.6c2.9-5.1 7.8-8.8 13.6-10.4z"/><ellipse transform="rotate(-82.6 57.688 155.292)" class="st3" cx="57.7" cy="155.3" rx="18.7" ry="25.5"/><path class="st1" d="M80.3 158.2c-1.1 8.7-12.2 14.5-24.6 12.9-12.5-1.6-21.7-10-20.5-18.8 1.1-8.7 12.2-14.5 24.6-12.9 12.4 1.7 21.6 10.1 20.5 18.8z"/><path class="st0" d="M63.1 145.9l-1.8 13.9c.3.3.5.6.8.8.6.5 1.3.8 2.2.9.8.1 1.6.1 2.3-.2.7-.2 1.3-.6 1.8-1 .5-.5.9-1.1 1.3-1.8.3-.7.6-1.5.7-2.4.2-1.2.2-2.3 0-3.2-.2-.9-.4-1.8-.6-2.5-.2-.7-.5-1.3-.7-1.7-.2-.4-.3-.8-.3-1 0-.1.1-.2.1-.3.1-.1.2-.2.3-.2.2 0 .4-.1.6-.1.2 0 .5 0 .9.1.5.1.9.2 1.2.3.3.1.5.3.7.5.2.2.4.6.6 1.1.2.5.4 1.1.6 1.9.2.7.3 1.6.3 2.5.1.9 0 1.9-.1 3-.2 1.5-.6 2.9-1.2 4.1-.6 1.2-1.3 2.3-2.2 3.2-.9.9-2 1.5-3.2 1.9-1.2.4-2.6.5-4 .3-1-.1-1.9-.4-2.7-.8l-.1.6c0 .2-.2.3-.4.5-.2.1-.6.1-1.2.1-.5-.1-.9-.2-1.1-.4-.2-.2-.3-.4-.3-.6l.3-2.5c-.6-.7-1-1.6-1.4-2.5-.4-.9-.7-1.9-1-2.8-.2-.6-.4-1.2-.6-1.7l-1.2 9c0 .2-.2.3-.4.5-.2.1-.6.1-1.2.1-.5-.1-.9-.2-1.1-.4-.2-.2-.3-.4-.3-.6l1.8-13.5c-.1-.1-.3-.3-.5-.4-.6-.5-1.3-.8-2.2-.9-.6-.1-1.2 0-1.7.1-.6.1-1.1.4-1.5.8-.4.4-.8.9-1.1 1.5-.3.6-.5 1.4-.6 2.2-.1.9-.1 1.8 0 2.6s.3 1.5.5 2.1c.2.6.4 1.1.6 1.5.2.4.3.7.2.9 0 .1-.1.2-.1.3-.1.1-.2.1-.4.2h-.6c-.2 0-.5 0-.8-.1-.3 0-.6-.1-.7-.1-.2 0-.4-.1-.5-.1-.1 0-.2-.1-.3-.2-.1-.1-.2-.2-.3-.4-.1-.2-.3-.5-.5-1s-.3-1.1-.5-1.7c-.1-.6-.2-1.3-.2-2s0-1.4.1-2.1c.2-1.4.5-2.6 1-3.7s1.2-2.1 2-2.8c.8-.8 1.8-1.3 2.8-1.7 1.1-.3 2.3-.4 3.6-.3.9.1 1.7.3 2.3.6l.2-1.4c0-.2.2-.4.4-.5.3-.1.6-.1 1.1-.1.6.1.9.2 1.1.4.2.2.3.4.3.5l-.4 3 .3.4c.6.8 1.1 1.6 1.5 2.5.4.9.7 1.8 1 2.8.1.3.2.5.2.8l1.2-8.9c0-.2.2-.4.4-.5.3-.1.6-.1 1.1-.1.5.1.9.2 1.1.4.5 0 .6.1.5.3z"/><path class="st1" d="M61.2 189.6c-.6 4.3-4.5 7.4-8.8 6.8-4.3-.6-7.4-4.5-6.8-8.8.6-4.3 4.5-7.4 8.8-6.8 4.3.5 7.3 4.5 6.8 8.8zm-14.7-1.9c-.5 3.8 2.2 7.3 6 7.8s7.3-2.2 7.8-6-2.2-7.3-6-7.8-7.3 2.2-7.8 6z"/><path class="st1" d="M50.9 190.5c-4.3 2.1-3.2 3.6 0 0zM51.5 186.1c-2.2-4.3-3.6-3.2 0 0zM51.5 186.1c.3.5.5 1.1.8 1.8-.7.1-1.4.2-2 .2.6.2 1.2.4 1.9.7-.4.6-.9 1.1-1.3 1.6.5-.3 1.1-.5 1.8-.8.1.7.2 1.4.2 2 .2-.6.4-1.2.7-1.9.6.4 1.1.9 1.6 1.3-.3-.5-.5-1.1-.8-1.8.7-.1 1.4-.2 2-.2-.6-.2-1.2-.4-1.9-.7.4-.6.9-1.1 1.3-1.6-.5.3-1.1.5-1.8.8-.1-.7-.2-1.4-.2-2-.2.6-.4 1.2-.7 1.9-.7-.5-1.2-.9-1.6-1.3zM55.3 191c2.1 4.3 3.6 3.2 0 0z"/><path class="st1" d="M55.8 186.7c4.3-2.2 3.2-3.6 0 0zM56.5 189c4.5 1.5 4.7-.3 0 0zM50.3 188.2c-4.6-1.6-4.8.3 0 0zM53.8 185.5c1.5-4.6-.3-4.8 0 0zM53 191.6c-1.5 4.6.3 4.8 0 0zM69.8 123.4c-.6 4.3-4.5 7.4-8.8 6.8-4.3-.6-7.4-4.5-6.8-8.8.6-4.3 4.5-7.4 8.8-6.8 4.3.5 7.3 4.5 6.8 8.8zm-14.7-1.9c-.5 3.8 2.2 7.3 6 7.8s7.3-2.2 7.8-6-2.2-7.3-6-7.8-7.3 2.2-7.8 6z"/><path class="st1" d="M59.5 124.3c-4.3 2.1-3.2 3.6 0 0zM60.1 119.9c-2.2-4.2-3.6-3.1 0 0zM60.1 119.9c.3.5.5 1.1.8 1.8-.7.1-1.4.2-2 .2.6.2 1.2.4 1.9.7-.4.6-.9 1.1-1.3 1.6.5-.3 1.1-.5 1.8-.8.1.7.2 1.4.2 2 .2-.6.4-1.2.7-1.9.6.4 1.1.9 1.6 1.3-.3-.5-.5-1.1-.8-1.8.7-.1 1.4-.2 2-.2-.6-.2-1.2-.4-1.9-.7.4-.6.9-1.1 1.3-1.6-.5.3-1.1.5-1.8.8-.1-.7-.2-1.4-.2-2-.2.6-.4 1.2-.7 1.9-.7-.5-1.2-.9-1.6-1.3zM63.9 124.9c2.1 4.3 3.6 3.1 0 0zM64.4 120.5c4.3-2.1 3.2-3.6 0 0zM65.1 122.8c4.5 1.5 4.7-.3 0 0zM58.9 122c-4.6-1.5-4.8.3 0 0zM62.4 119.3c1.5-4.5-.3-4.8 0 0zM61.6 125.5c-1.6 4.5.3 4.8 0 0z"/><path transform="scale(-1) rotate(7.4 2401.426 -892.083)" class="st4" d="M27.1 100.2h61.2v110.2H27.1z"/><path class="st0" d="M27.1 100.2h61.2v110.2H27.1z"/><path class="st1" d="M27.1 210.4h61.2V100.2H27.1v110.2zm44.2-106.5c1.4 6.7 6.7 11.9 13.4 13.4v76.1c-6.7 1.4-11.9 6.7-13.4 13.4H44.1c-1.4-6.7-6.7-11.9-13.4-13.4v-76.1c6.7-1.4 11.9-6.7 13.4-13.4h27.2z"/><g><path class="st1" d="M81.8 119.4v71.9l-.6.2c-5.5 2-9.8 6.4-11.9 11.9l-.2.6H46.3l-.2-.6c-2-5.5-6.4-9.8-11.9-11.9l-.6-.2v-71.9l.6-.2c5.5-2 9.8-6.4 11.9-11.9l.2-.6h22.9l.2.6c2 5.5 6.4 9.8 11.9 11.9l.5.2zM80 190v-69.3c-5.5-2.2-9.9-6.6-12.1-12.1H47.5c-2.2 5.5-6.6 9.9-12.1 12.1V190c5.5 2.2 9.9 6.6 12.1 12.1h20.4c2.2-5.5 6.6-9.9 12.1-12.1z"/></g><ellipse class="st3" cx="57.7" cy="155.3" rx="25.5" ry="18.7"/><path class="st1" d="M80.5 155.3c0 8.8-10.2 16-22.8 16-12.6 0-22.8-7.2-22.8-16s10.2-16 22.8-16c12.6 0 22.8 7.2 22.8 16z"/><g><path class="st0" d="M61.9 145.3v14c3 2.8 7.3.8 8.2-2.8.4-1.7.3-3.7-.3-5.4-.3-.8-.6-1.6-1-2.4-.3-.6-1.1-1.5-1.2-2.2-.2-1.4 2.8-1.1 3.6-.6 1.2.8 1.8 2.9 2.1 4.3.9 3.5.8 7.6-1.2 10.7-2.1 3.4-6.5 5-10.3 3.7v.6c0 1.2-2.7 1-3-.1-.2-.7 0-1.7 0-2.4-1.8-1.8-2.8-4.3-3.9-6.6v9.1c0 1.1-2.7 1-3 0-.1-.2 0-.6 0-.8v-4.6-8.2c-2.5-2-6.1-.7-7 2.3-.4 1.5-.3 3.1.2 4.6.2.7.5 1.4.9 2.1.3.5.9 1.2.9 1.8.1 1.1-2.3.9-3 .7-1.3-.4-1.8-2.4-2.1-3.5-.9-3.1-.7-6.9 1-9.7 1.9-3 5.7-4.2 9.1-3.2v-1.4c0-.9 1.5-.8 2-.7.6.1.9.4 1 1 .1.9 0 1.8 0 2.7l.3.3c1.6 1.6 2.6 3.6 3.5 5.7v-9c.2-1.1 3.2-1 3.2 0z"/></g><g><path class="st1" d="M65.6 188.8c0 4.3-3.5 7.9-7.9 7.9-4.3 0-7.9-3.5-7.9-7.9 0-4.3 3.5-7.9 7.9-7.9 4.3.1 7.9 3.6 7.9 7.9zm-14.9 0c0 3.8 3.1 7 7 7 3.8 0 7-3.1 7-7 0-3.8-3.1-7-7-7-3.8.1-7 3.2-7 7z"/></g><g><path class="st1" d="M55.5 191c-4 2.7-2.7 4 0 0zM55.5 186.6c-2.7-3.9-4-2.6 0 0zM55.5 186.6c.3.5.7 1.1 1 1.7-.7.2-1.4.4-2 .5.6.1 1.2.3 2 .5-.4.7-.7 1.2-1 1.7.5-.3 1.1-.7 1.7-1 .2.7.4 1.4.5 2 .1-.6.3-1.2.5-2 .7.4 1.2.7 1.7 1-.3-.5-.7-1.1-1-1.7.7-.2 1.4-.4 2-.5-.6-.1-1.2-.3-2-.5.4-.7.7-1.2 1-1.7-.5.3-1.1.7-1.7 1-.2-.7-.4-1.4-.5-2-.1.6-.3 1.2-.5 2-.6-.3-1.2-.6-1.7-1zM59.9 191c2.7 4 4 2.7 0 0z"/><path class="st1" d="M59.9 186.6c4-2.6 2.7-3.9 0 0zM60.8 188.8c4.7 1 4.7-.9 0 0zM54.6 188.8c-4.7-.9-4.7 1 0 0zM57.7 185.7c.9-4.7-.9-4.7 0 0zM57.7 192c-.9 4.7.9 4.7 0 0z"/></g><g><path class="st1" d="M65.6 122.1c0 4.3-3.5 7.9-7.9 7.9-4.3 0-7.9-3.5-7.9-7.9 0-4.3 3.5-7.9 7.9-7.9 4.3 0 7.9 3.6 7.9 7.9zm-14.9 0c0 3.8 3.1 7 7 7 3.8 0 7-3.1 7-7 0-3.8-3.1-7-7-7-3.8.1-7 3.2-7 7z"/></g><g><path class="st1" d="M55.5 124.3c-4 2.7-2.7 4 0 0zM55.5 119.9c-2.7-3.9-4-2.6 0 0z"/><path class="st1" d="M55.5 119.9c.3.5.7 1.1 1 1.7-.7.2-1.4.4-2 .5.6.1 1.2.3 2 .5-.4.7-.7 1.2-1 1.7.5-.3 1.1-.7 1.7-1 .2.7.4 1.4.5 2 .1-.6.3-1.2.5-2 .7.4 1.2.7 1.7 1-.3-.5-.7-1.1-1-1.7.7-.2 1.4-.4 2-.5-.6-.1-1.2-.3-2-.5.4-.7.7-1.2 1-1.7-.5.3-1.1.7-1.7 1-.2-.7-.4-1.4-.5-2-.1.6-.3 1.2-.5 2-.6-.3-1.2-.6-1.7-1z"/><path class="st1" d="M59.9 124.3c2.7 4 4 2.7 0 0zM59.9 119.9c4-2.6 2.7-3.9 0 0zM60.8 122.1c4.7.9 4.7-.9 0 0zM54.6 122.1c-4.7-.9-4.7.9 0 0zM57.7 119c.9-4.7-.9-4.7 0 0zM57.7 125.2c-.9 4.7.9 4.7 0 0z"/></g><path class="st5" d="M104.7 90.9a7.55 7.55 0 0 1-3.2-8.4l.5-1.5H12.6l.4 1.4s.1.4.2.9c.6 2.9-.7 5.9-3.4 7.5C3.1 95.2 3 102.1 3 102.4V204c0 10.7 8.7 19.4 19.4 19.4h69.7c10.7 0 19.4-8.7 19.4-19.4V102.4c0-.3-.1-7.2-6.8-11.5zm6.3 113.7c0 10.2-8.3 18.5-18.5 18.5H22c-10.2 0-18.5-8.3-18.5-18.5V101.9s0-6.7 6.4-10.7c3-1.9 4.6-5.3 3.9-8.8-.1-.6-.3-1.1-.3-1.1h87.3v.2c-1 3.7.5 7.6 3.7 9.7 6.4 4 6.4 10.7 6.4 10.7v102.7z"/><path class="st6" d="M103.4 215.1c0 2.3-21.1 4.2-47.1 4.2s-42.7-1.9-42.7-4.2c0-2.3 16.7-4.2 42.7-4.2s47.1 1.9 47.1 4.2z"/><radialGradient id="SVGID_15_" cx="57.229" cy="210.99" r="38.897" gradientUnits="userSpaceOnUse"><stop offset="0" stop-color="#355851"/><stop offset=".276" stop-color="#385b54"/><stop offset=".476" stop-color="#41635c"/><stop offset=".651" stop-color="#51716b"/><stop offset=".813" stop-color="#678580"/><stop offset=".963" stop-color="#849e9a"/><stop offset="1" stop-color="#8ca5a2"/></radialGradient><path class="st39" d="M92.5 217.4H22c-10.2 0-18.4-8.3-18.4-18.4v5.5c0 10.2 8.3 18.4 18.4 18.4h70.5c10.2 0 18.4-8.3 18.4-18.4V199c0 10.2-8.2 18.4-18.4 18.4z"/><radialGradient id="SVGID_16_" cx="57.229" cy="197.652" r="40.432" gradientUnits="userSpaceOnUse"><stop offset="0" stop-color="#fff"/><stop offset="1" stop-color="#fff" stop-opacity="0"/></radialGradient><path class="st40" d="M109.3 186.8c0-28.8-23.3.5-52.1.5S5.1 158 5.1 186.8s23.3 34.4 52.1 34.4 52.1-5.6 52.1-34.4z"/><g><circle class="st9" cx="32.6" cy="205.1" r="13.9"/><linearGradient id="SVGID_17_" gradientUnits="userSpaceOnUse" x1="665.097" y1="-45.344" x2="665.097" y2="-72.306" gradientTransform="rotate(-30.706 829.502 1225.124)"><stop offset="0" stop-color="#ffe15b"/><stop offset=".057" stop-color="#ffe463"/><stop offset=".309" stop-color="#fff082"/><stop offset=".554" stop-color="#fff898"/><stop offset=".789" stop-color="#fffda5"/><stop offset="1" stop-color="#ffa"/></linearGradient><circle class="st41" cx="32.6" cy="205.1" r="13.5"/><circle class="st11" cx="32.6" cy="205.1" r="13.5"/><path class="st9" d="M26.7 195.2c-5.5 3.3-7.3 10.3-4 15.8s10.3 7.3 15.8 4 7.3-10.3 4-15.8-10.3-7.3-15.8-4zm11.2 18.9c-5 3-11.4 1.3-14.4-3.7S22.2 199 27.2 196s11.4-1.3 14.4 3.7c2.9 5 1.3 11.5-3.7 14.4z"/><g class="st12"><path class="st13" d="M37.3 204.9l-5 3c0 .2-.1.3-.1.5-.1 2.4 2.9 2.2 4.2 1.1.7-.6 1-1.4 1.5-2 .6-.6 1.2.4 1.1 1.1-.2 1.5-2.5 2.9-3.8 3.2-2 .6-4.3-.6-4.7-2.7l-.2.1c-.4.2-1-.8-.6-1.1l.9-.5c.2-.8.6-1.5 1.1-2.1.1-.2.3-.4.4-.6l-3.2 1.9c-.4.2-1-.8-.6-1.1l4.8-2.9v-.3c.1-2.4-2.7-1.9-3.9-.7-.3.3-.8 1.6-1.2 1.6-.4 0-.8-1-.7-1.3.2-1.4 2.7-2.6 3.8-2.8 1.7-.2 3.3.8 3.7 2.5l.5-.3c.4-.2 1 .8.6 1.1l-1.1.6v.2c-.2.8-.6 1.5-1.1 2.2-.1.1-.1.2-.2.3l3.2-1.9c.3-.4.9.7.6.9z"/></g><path class="st14" d="M37 204.5l-5 3c0 .2-.1.3-.1.5-.1 2.4 2.9 2.2 4.2 1.1.7-.6 1-1.4 1.5-2 .6-.6 1.2.4 1.1 1.1-.2 1.5-2.5 2.9-3.8 3.2-2 .6-4.3-.6-4.7-2.7l-.2.1c-.4.2-1-.8-.6-1.1l.9-.5c.2-.8.6-1.5 1.1-2.1.1-.2.3-.4.4-.6l-3.2 1.9c-.4.2-1-.8-.6-1.1l4.8-2.9v-.3c.1-2.4-2.7-1.9-3.9-.7-.3.3-.8 1.6-1.2 1.6-.4 0-.8-1-.7-1.3.2-1.4 2.7-2.6 3.8-2.8 1.7-.2 3.3.8 3.7 2.5l.5-.3c.4-.2 1 .8.6 1.1l-1.1.6v.2c-.2.8-.6 1.5-1.1 2.2-.1.1-.1.2-.2.3l3.2-1.9c.4-.4 1 .7.6.9z"/><g><circle class="st9" cx="53.6" cy="202.1" r="13.9"/><linearGradient id="SVGID_18_" gradientUnits="userSpaceOnUse" x1="274.101" y1="2420.098" x2="274.101" y2="2393.136" gradientTransform="scale(-1) rotate(-64.806 -1944.818 1360.319)"><stop offset="0" stop-color="#ffe15b"/><stop offset=".057" stop-color="#ffe463"/><stop offset=".309" stop-color="#fff082"/><stop offset=".554" stop-color="#fff898"/><stop offset=".789" stop-color="#fffda5"/><stop offset="1" stop-color="#ffa"/></linearGradient><circle class="st42" cx="53.6" cy="202.1" r="13.5"/><circle class="st11" cx="53.6" cy="202.1" r="13.5"/><path class="st9" d="M64 207c2.7-5.8.2-12.6-5.5-15.4-5.8-2.7-12.6-.2-15.4 5.5-2.7 5.8-.2 12.6 5.5 15.4s12.7.3 15.4-5.5zm-19.9-9.4c2.5-5.2 8.7-7.5 14-5s7.5 8.7 5 14c-2.5 5.2-8.7 7.5-14 5s-7.5-8.7-5-14z"/><g class="st12"><path class="st13" d="M49.8 204.9l2.5-5.3c-.1-.2-.1-.3-.2-.4-1.3-2.1-3.6-.2-4.1 1.4-.3.9 0 1.7-.1 2.5s-1.2.3-1.5-.3c-.7-1.5.6-4.1 1.6-5.1 1.4-1.4 3.8-1.6 5.2-.1l.1-.2c.2-.4 1.3.1 1.1.5l-.4.9c.3.8.3 1.6.3 2.4v.8l1.6-3.4c.2-.4 1.3.1 1.1.5l-2.4 5.1c0 .1.1.2.1.2 1.2 1.9 3.2.3 3.5-1.2.1-.4-.1-2 .1-2.2.3-.3 1.2.2 1.4.5.6 1.2-.4 3.3-1.2 4.2-1.3 1.5-3.3 1.7-4.9.4l-.2.5c-.2.4-1.3-.1-1.1-.5l.5-1.1-.1-.2c-.3-.8-.3-1.6-.3-2.4v-.4l-1.6 3.4c-.1.4-1.2-.1-1-.5z"/></g><path class="st14" d="M50.3 205.1l2.5-5.3c-.1-.2-.1-.3-.2-.4-1.3-2.1-3.6-.2-4.1 1.4-.3.9 0 1.7-.1 2.5s-1.2.3-1.5-.3c-.7-1.5.6-4.1 1.6-5.1 1.4-1.4 3.8-1.6 5.2-.1l.1-.2c.2-.4 1.3.1 1.1.5l-.4.9c.3.8.3 1.6.3 2.4v.8l1.6-3.4c.2-.4 1.3.1 1.1.5l-2.4 5.1c0 .1.1.2.1.2 1.2 1.9 3.2.3 3.5-1.2.1-.4-.1-2 .1-2.2.3-.3 1.2.2 1.4.5.6 1.2-.4 3.3-1.2 4.2-1.3 1.5-3.3 1.7-4.9.4l-.2.5c-.2.4-1.3-.1-1.1-.5l.5-1.1-.1-.2c-.3-.8-.3-1.6-.3-2.4v-.4l-1.6 3.4c-.1.4-1.2-.1-1-.5z"/></g><g><circle class="st9" cx="43.1" cy="207.4" r="13.9"/><linearGradient id="SVGID_19_" gradientUnits="userSpaceOnUse" x1="43.09" y1="220.854" x2="43.09" y2="193.892"><stop offset="0" stop-color="#ffe15b"/><stop offset=".057" stop-color="#ffe463"/><stop offset=".309" stop-color="#fff082"/><stop offset=".554" stop-color="#fff898"/><stop offset=".789" stop-color="#fffda5"/><stop offset="1" stop-color="#ffa"/></linearGradient><circle class="st43" cx="43.1" cy="207.4" r="13.5"/><circle class="st11" cx="43.1" cy="207.4" r="13.5"/><path class="st9" d="M43.1 195.8c-6.4 0-11.5 5.2-11.5 11.5 0 6.4 5.2 11.5 11.5 11.5 6.4 0 11.5-5.2 11.5-11.5s-5.1-11.5-11.5-11.5zm0 22.1c-5.8 0-10.5-4.7-10.5-10.5s4.7-10.5 10.5-10.5 10.5 4.7 10.5 10.5-4.7 10.5-10.5 10.5z"/><g class="st12"><path class="st13" d="M47.2 209.6h-5.8c-.1.1-.2.2-.3.4-1.4 2.1 1.5 3.4 3.2 3.1.5-.1 1-.3 1.4-.5.2-.1.6-.5.9-.5.7 0 .6 1.1.3 1.5-1 1.2-3.8 1.2-5.1.8-2-.6-3.2-2.7-2.5-4.7H39c-.5 0-.4-1.2 0-1.2h1c.6-.6 1.3-.9 2-1.3.2-.1.5-.2.7-.3H39c-.5 0-.4-1.2 0-1.2h5.6l.2-.2c1.2-1.9-1.1-3-2.6-2.7-.4.1-1.7 1-2.1.9-.4-.1-.4-1.1-.2-1.4.7-1.2 3.5-1.1 4.5-.7 1.8.6 2.8 2.3 2.3 4.2h.6c.5 0 .4 1.2 0 1.2H46l-.1.1c-.6.6-1.3 1-2 1.3-.1 0-.2.1-.3.1h3.7c.4-.1.3 1.1-.1 1.1z"/></g><path class="st14" d="M47.2 209.1h-5.8c-.1.1-.2.2-.3.4-1.4 2.1 1.5 3.4 3.2 3.1.5-.1 1-.3 1.4-.5.2-.1.6-.5.9-.5.7 0 .6 1.1.3 1.5-1 1.2-3.8 1.2-5.1.8-2-.6-3.2-2.7-2.5-4.7H39c-.5 0-.4-1.2 0-1.2h1c.6-.6 1.3-.9 2-1.3.2-.1.5-.2.7-.3H39c-.5 0-.4-1.2 0-1.2h5.6l.2-.2c1.2-1.9-1.1-3-2.6-2.7-.4.1-1.7 1-2.1.9-.4-.1-.4-1.1-.2-1.4.7-1.2 3.5-1.1 4.5-.7 1.8.6 2.8 2.3 2.3 4.2h.6c.5 0 .4 1.2 0 1.2H46l-.1.1c-.6.6-1.3 1-2 1.3-.1 0-.2.1-.3.1h3.7c.4-.1.3 1.1-.1 1.1z"/></g><g><circle class="st9" cx="63" cy="205.7" r="12.4"/><linearGradient id="SVGID_20_" gradientUnits="userSpaceOnUse" x1="690.994" y1="-30.863" x2="690.994" y2="-54.785" gradientTransform="rotate(-30.706 829.502 1225.124)"><stop offset="0" stop-color="#ffe15b"/><stop offset=".057" stop-color="#ffe463"/><stop offset=".309" stop-color="#fff082"/><stop offset=".554" stop-color="#fff898"/><stop offset=".789" stop-color="#fffda5"/><stop offset="1" stop-color="#ffa"/></linearGradient><circle class="st44" cx="63" cy="205.7" r="12"/><circle class="st11" cx="63" cy="205.7" r="12"/><path class="st9" d="M57.8 196.8c-4.9 2.9-6.5 9.2-3.6 14 2.9 4.9 9.2 6.5 14 3.6 4.9-2.9 6.5-9.2 3.6-14-2.9-4.8-9.2-6.4-14-3.6zm10 16.9c-4.4 2.6-10.1 1.2-12.8-3.3s-1.2-10.1 3.3-12.8c4.4-2.6 10.1-1.2 12.8 3.3s1.1 10.1-3.3 12.8z"/><g class="st12"><path class="st13" d="M67.2 205.5l-4.4 2.6c0 .1 0 .3-.1.4-.1 2.1 2.5 1.9 3.7 1 .6-.5.8-1.2 1.3-1.7.2-.2.2-.4.5-.3.2.1.5.6.5.8.2 1.5-2.4 2.9-3.6 3.2-1.8.4-3.7-.6-4.1-2.5l-.2.1c-.3.2-.9-.7-.6-.9l.8-.5c.2-.7.6-1.3 1-1.9.1-.2.3-.4.4-.6l-2.9 1.7c-.3.2-.9-.8-.6-.9l4.3-2.6v-.2c.1-1.9-2.2-1.8-3.2-.9-.3.3-.8 1.5-1.2 1.6-.4.1-.8-.7-.8-1 0-1.4 2.3-2.5 3.4-2.7 1.5-.2 2.9.7 3.3 2.2l.4-.3c.3-.2.9.7.6.9l-1 .6v.2c-.2.7-.5 1.3-.9 1.9-.1.1-.1.2-.2.3l2.8-1.7c.6 0 1.1 1 .8 1.2z"/></g><path class="st14" d="M66.9 205.1l-4.4 2.6c0 .1 0 .3-.1.4-.1 2.1 2.5 1.9 3.7 1 .6-.5.8-1.2 1.3-1.7.2-.2.2-.4.5-.3.2.1.5.6.5.8.2 1.5-2.4 2.9-3.6 3.2-1.8.4-3.7-.6-4.1-2.5l-.2.1c-.3.2-.9-.7-.6-.9l.8-.5c.2-.7.6-1.3 1-1.9.1-.2.3-.4.4-.6l-2.9 1.7c-.3.2-.9-.8-.6-.9l4.3-2.6v-.2c.1-1.9-2.2-1.8-3.2-.9-.3.3-.8 1.5-1.2 1.6-.4.1-.8-.7-.8-1 0-1.4 2.3-2.5 3.4-2.7 1.5-.2 2.9.7 3.3 2.2l.4-.3c.3-.2.9.7.6.9l-1 .6v.2c-.2.7-.5 1.3-.9 1.9-.1.1-.1.2-.2.3l2.8-1.7c.6.1 1.2 1 .8 1.2z"/></g><g><circle class="st9" cx="73.5" cy="203.9" r="13.9"/><linearGradient id="SVGID_21_" gradientUnits="userSpaceOnUse" x1="73.504" y1="217.416" x2="73.504" y2="190.454"><stop offset="0" stop-color="#ffe15b"/><stop offset=".057" stop-color="#ffe463"/><stop offset=".309" stop-color="#fff082"/><stop offset=".554" stop-color="#fff898"/><stop offset=".789" stop-color="#fffda5"/><stop offset="1" stop-color="#ffa"/></linearGradient><circle class="st45" cx="73.5" cy="203.9" r="13.5"/><circle class="st11" cx="73.5" cy="203.9" r="13.5"/><path class="st9" d="M73.5 192.4c-6.4 0-11.5 5.2-11.5 11.5 0 6.4 5.2 11.5 11.5 11.5 6.4 0 11.5-5.2 11.5-11.5s-5.1-11.5-11.5-11.5zm0 22c-5.8 0-10.5-4.7-10.5-10.5s4.7-10.5 10.5-10.5S84 198.1 84 203.9s-4.7 10.5-10.5 10.5z"/><g class="st12"><path class="st13" d="M77.6 206.2h-5.8c-.1.1-.2.2-.3.4-1.4 2.1 1.5 3.4 3.2 3.1.5-.1 1-.3 1.4-.5.2-.1.6-.5.9-.5.7 0 .6 1.1.3 1.5-1 1.2-3.8 1.2-5.1.8-2-.6-3.2-2.7-2.5-4.7h-.3c-.5 0-.4-1.2 0-1.2h1c.6-.6 1.3-.9 2-1.3.2-.1.5-.2.7-.3h-3.8c-.5 0-.4-1.2 0-1.2H75l.2-.2c1.2-1.9-1.1-3-2.6-2.7-.4.1-1.7 1-2.1.9-.4-.1-.4-1.1-.2-1.4.7-1.2 3.5-1.1 4.5-.7 1.8.6 2.8 2.3 2.3 4.2h.6c.5 0 .4 1.2 0 1.2h-1.3l-.1.1c-.6.6-1.3 1-2 1.3-.1 0-.2.1-.3.1h3.7c.4-.2.4 1.1-.1 1.1z"/></g><path class="st14" d="M77.6 205.7h-5.8c-.1.1-.2.2-.3.4-1.4 2.1 1.5 3.4 3.2 3.1.5-.1 1-.3 1.4-.5.2-.1.6-.5.9-.5.7 0 .6 1.1.3 1.5-1 1.2-3.8 1.2-5.1.8-2-.6-3.2-2.7-2.5-4.7h-.3c-.5 0-.4-1.2 0-1.2h1c.6-.6 1.3-.9 2-1.3.2-.1.5-.2.7-.3h-3.8c-.5 0-.4-1.2 0-1.2H75l.2-.2c1.2-1.9-1.1-3-2.6-2.7-.4.1-1.7 1-2.1.9-.4-.1-.4-1.1-.2-1.4.7-1.2 3.5-1.1 4.5-.7 1.8.6 2.8 2.3 2.3 4.2h.6c.5 0 .4 1.2 0 1.2h-1.3l-.1.1c-.6.6-1.3 1-2 1.3-.1 0-.2.1-.3.1h3.7c.4-.2.4 1.1-.1 1.1z"/></g><g><circle class="st9" cx="84.4" cy="207.6" r="11.2"/><linearGradient id="SVGID_22_" gradientUnits="userSpaceOnUse" x1="265.939" y1="2387.186" x2="265.939" y2="2365.563" gradientTransform="scale(-1) rotate(-64.806 -1944.818 1360.319)"><stop offset="0" stop-color="#ffe15b"/><stop offset=".057" stop-color="#ffe463"/><stop offset=".309" stop-color="#fff082"/><stop offset=".554" stop-color="#fff898"/><stop offset=".789" stop-color="#fffda5"/><stop offset="1" stop-color="#ffa"/></linearGradient><circle class="st46" cx="84.4" cy="207.6" r="10.8"/><circle class="st11" cx="84.4" cy="207.6" r="10.8"/><path class="st9" d="M92.8 211.5c2.2-4.6.2-10.1-4.4-12.3-4.6-2.2-10.1-.2-12.3 4.4-2.2 4.6-.2 10.1 4.4 12.3 4.6 2.2 10.1.3 12.3-4.4zm-16-7.5c2-4.2 7-6 11.2-4s6 7 4 11.2c-2 4.2-7 6-11.2 4-4.2-2-6-7-4-11.2z"/><g class="st12"><path class="st13" d="M81.4 209.8l2-4.2c0-.1-.1-.2-.2-.3-1.2-1.9-3.1.2-3.4 1.6-.1.4.2 1.5 0 1.8-.3.4-1-.2-1.2-.5-.6-1.1.5-3.2 1.2-4 1.1-1.2 3.1-1.4 4.3-.2l.1-.2c.2-.3 1 .1.9.4l-.4.8c.2.6.2 1.3.2 1.9v.6l1.3-2.7c.2-.3 1 .1.9.4l-1.9 4.1c0 .1.1.1.1.2.9 1.5 2.5.2 2.8-1 .1-.4-.1-1.4.1-1.7.2-.3.7-.2 1 .1.7.8-.2 2.7-.7 3.4-1 1.3-2.7 1.5-4 .5l-.2.4c-.2.3-1-.1-.9-.4l.4-.9-.1-.1c-.2-.6-.3-1.3-.3-1.9v-.3l-1.3 2.7c0 .3-.8-.2-.7-.5z"/></g><path class="st14" d="M81.8 210l2-4.2c0-.1-.1-.2-.2-.3-1.2-1.9-3.1.2-3.4 1.6-.1.4.2 1.5 0 1.8-.3.4-1-.2-1.2-.5-.6-1.1.5-3.2 1.2-4 1.1-1.2 3.1-1.4 4.3-.2l.1-.2c.2-.3 1 .1.9.4l-.4.8c.2.6.2 1.3.2 1.9v.6l1.3-2.7c.2-.3 1 .1.9.4l-1.9 4.1c0 .1.1.1.1.2.9 1.5 2.5.2 2.8-1 .1-.4-.1-1.4.1-1.7.2-.3.7-.2 1 .1.7.8-.2 2.7-.7 3.4-1 1.3-2.7 1.5-4 .5l-.2.4c-.2.3-1-.1-.9-.4l.4-.9-.1-.1c-.2-.6-.3-1.3-.3-1.9v-.3l-1.3 2.7c0 .2-.9-.2-.7-.5z"/></g></g><linearGradient id="SVGID_23_" gradientUnits="userSpaceOnUse" x1="3.541" y1="152.201" x2="110.918" y2="152.201"><stop offset="0" stop-color="#65827d"/><stop offset=".161" stop-color="#98bfba"/><stop offset=".391" stop-color="#fff"/><stop offset=".563" stop-color="#e4eff1"/><stop offset=".726" stop-color="#dbf0f1"/><stop offset=".843" stop-color="#daf4f3"/><stop offset=".866" stop-color="#d5efee"/><stop offset=".894" stop-color="#c7e2e0"/><stop offset=".923" stop-color="#b0ccc8"/><stop offset=".954" stop-color="#8fada7"/><stop offset=".985" stop-color="#65857d"/><stop offset="1" stop-color="#4f7067"/></linearGradient><path class="st47" d="M110.9 101.9v102.6c0 10.2-8.3 18.4-18.4 18.4H22c-4.8 0-9.1-1.8-12.4-4.8-3.7-3.4-6-8.2-6-13.7V101.9s0-6.7 6.4-10.7c3-1.9 4.6-5.3 3.9-8.8-.1-.6-.3-1.1-.3-1.1h87.3v.2c-1 3.7.5 7.6 3.7 9.7 6.3 4.1 6.3 10.7 6.3 10.7z"/><path class="st21" d="M35.9 204.5V101.9s0-6.7 6.4-10.7c3-1.9 4.6-5.3 3.9-8.8-.1-.6-.3-1-.3-1h-11s.1.4.3 1c.7 3.5-.9 6.9-3.9 8.8-6.4 4-6.4 10.7-6.4 10.7v102.6c0 10.2 8.3 18.4 18.4 18.4h11.1c-10.2.1-18.5-8.2-18.5-18.4z"/><path class="st22" d="M25.4 204.5V101.9s0-6.7 6.4-10.7c3-1.9 4.6-5.3 3.9-8.8-.1-.6-.3-1-.3-1h-11s.1.4.3 1c.7 3.5-.9 6.9-3.9 8.8-6.4 4-6.4 10.7-6.4 10.7v102.6c0 10.2 8.3 18.4 18.4 18.4h11.1c-10.2.1-18.5-8.2-18.5-18.4z"/><path class="st23" d="M16.8 204.5V101.9s0-6.7 6.4-10.7c3-1.9 4.6-5.3 3.9-8.8-.1-.6-.3-1-.3-1h-11s.1.4.3 1c.7 3.5-.9 6.9-3.9 8.8-6.4 4-6.4 10.7-6.4 10.7v102.6c0 10.2 8.3 18.4 18.4 18.4h11.1c-10.2.1-18.5-8.2-18.5-18.4z"/><linearGradient id="SVGID_24_" gradientUnits="userSpaceOnUse" x1="77.576" y1="152.201" x2="107.089" y2="152.201"><stop offset="0" stop-color="#cce5e9"/><stop offset=".257" stop-color="#cee7eb"/><stop offset=".405" stop-color="#d3f0f2"/><stop offset=".522" stop-color="#dbfdfe"/><stop offset=".524" stop-color="#dafcfd"/><stop offset=".603" stop-color="#c8e9ea"/><stop offset=".694" stop-color="#bcdcdc"/><stop offset=".805" stop-color="#b4d4d3"/><stop offset="1" stop-color="#b2d2d1"/></linearGradient><path class="st48" d="M96 204.5V101.9s0-6.7-6.4-10.7c-3-1.9-4.6-5.3-3.9-8.8.1-.6.3-1 .3-1h11s-.1.4-.3 1c-.7 3.5.9 6.9 3.9 8.8 6.4 4 6.4 10.7 6.4 10.7v102.6c0 10.2-8.3 18.4-18.4 18.4h-11c10.2.1 18.4-8.2 18.4-18.4z"/><g><linearGradient id="SVGID_25_" gradientUnits="userSpaceOnUse" x1="13.572" y1="71.769" x2="100.961" y2="71.769"><stop offset="0" stop-color="#ff821a"/><stop offset=".064" stop-color="#ee4f0b"/><stop offset=".19" stop-color="#d74303"/><stop offset=".339" stop-color="#ff6e18"/><stop offset=".456" stop-color="#ff8e37"/><stop offset=".634" stop-color="#ff5c0c"/><stop offset=".635" stop-color="#ff5d0d"/><stop offset=".67" stop-color="#ff8c39"/><stop offset=".704" stop-color="#ffb05b"/><stop offset=".736" stop-color="#ffcb74"/><stop offset=".764" stop-color="#ffda83"/><stop offset=".786" stop-color="#ffe088"/><stop offset=".806" stop-color="#fed67f"/><stop offset=".841" stop-color="#fcb966"/><stop offset=".886" stop-color="#f88c3f"/><stop offset=".937" stop-color="#f3500b"/><stop offset="1" stop-color="#f66712"/></linearGradient><path class="st49" d="M99 74.8H15.6c-1.1 0-2-.9-2-2v-2.1c0-1.1.9-2 2-2H99c1.1 0 2 .9 2 2v2.1c0 1.1-.9 2-2 2z"/><linearGradient id="SVGID_26_" gradientUnits="userSpaceOnUse" x1="11.2" y1="77.039" x2="103.421" y2="77.039"><stop offset="0" stop-color="#fcbd6e"/><stop offset=".064" stop-color="#ff5601"/><stop offset=".19" stop-color="#d33a00"/><stop offset=".339" stop-color="#ff6c04"/><stop offset=".374" stop-color="#ff922a"/><stop offset=".429" stop-color="#ffc75f"/><stop offset=".456" stop-color="#ffdc74"/><stop offset=".496" stop-color="#ffc75f"/><stop offset=".579" stop-color="#ff9229"/><stop offset=".634" stop-color="#ff6c02"/><stop offset=".645" stop-color="#ff7b13"/><stop offset=".678" stop-color="#ffa342"/><stop offset=".71" stop-color="#fec366"/><stop offset=".739" stop-color="#fed981"/><stop offset=".765" stop-color="#fee790"/><stop offset=".786" stop-color="#feec96"/><stop offset=".805" stop-color="#fee28c"/><stop offset=".84" stop-color="#fec66f"/><stop offset=".885" stop-color="#ff9842"/><stop offset=".937" stop-color="#ff5b04"/><stop offset="1" stop-color="#f9ac64"/></linearGradient><path class="st50" d="M101.2 82.3c-30.7 1.4-57.1 1.4-87.8 0-1.2-.1-2.2-1.1-2.2-2.4v-6.8c0-1.3 1-2.3 2.2-2.3h87.8c1.2 0 2.2 1 2.2 2.3v6.8c0 1.2-1 2.3-2.2 2.4z"/><path class="st2" d="M101.2 81.9c-30.7 1.4-57.1 1.4-87.8 0-1.2-.1-2.2-1.1-2.2-2.4v.3c0 1.3 1 2.3 2.2 2.4 30.7 1.4 57.1 1.4 87.8 0 1.2-.1 2.2-1.1 2.2-2.4v-.3c0 1.3-1 2.3-2.2 2.4z"/><path class="st27" d="M101.2 70.8H13.4c-1.2 0-2.2 1-2.2 2.3v.7c0-1.3 1-2.3 2.2-2.3h87.8c1.2 0 2.2 1 2.2 2.3v-.7c0-1.3-1-2.3-2.2-2.3z"/><path class="st28" d="M13.6 70.6h87.3v.2H13.6z"/></g><g class="st29"><path class="st30" d="M103.4 98.3c0 .5-21 2.1-46.9 2.2-25.9-.1-46.9-1.7-46.9-2.2 0-.5 21-1 46.9-1.1 25.9.1 46.9.6 46.9 1.1z"/></g><g class="st31"><path class="st30" d="M109.7 98.9c0 1.7-23.2 6-52 6.1-28.7-.1-52-4.4-52-6.1 0-1.8 23.3-3.5 52-3.7 28.7.2 52 2 52 3.7z"/></g><path class="st32" d="M94.2 88.8c0 .2-16.5 3.8-37 4-20.5-.1-37-3.8-37-4 0-.3 16.6-.9 37-1.1 20.5.3 37 .9 37 1.1z"/><radialGradient id="SVGID_27_" cx="57.229" cy="135.433" r="52.114" gradientUnits="userSpaceOnUse"><stop offset="0" stop-color="#fff" stop-opacity=".5"/><stop offset="1" stop-color="#fff" stop-opacity="0"/></radialGradient><circle class="st51" cx="57.2" cy="135.4" r="52.1"/><ellipse class="st4" cx="57" cy="220.4" rx="41.3" ry="2.6"/><path class="st34" d="M110.9 195.1v9.5c0 10.2-8.3 18.4-18.4 18.4H48.1l62.8-27.9zM110.9 162.4v26.4L30.4 223H22c-4.8 0-9.1-1.8-12.4-4.8l101.3-55.8z"/><path class="st35" d="M92.5 219.7H22c-10.2 0-18.4-10.5-18.4-20.7v5.5c0 10.2 8.3 18.4 18.4 18.4h70.5c10.2 0 18.4-8.3 18.4-18.4V199c0 10.2-8.2 20.7-18.4 20.7z"/><ellipse class="st36" cx="58.3" cy="222.2" rx="34.2" ry=".9"/><g><path class="st12" d="M106.8 126.1c-32.9 4-66.3 4-99.2 0v-22.4c32.9 4 66.3 4 99.2 0v22.4z"/><linearGradient id="SVGID_28_" gradientUnits="userSpaceOnUse" x1="7.614" y1="115.268" x2="106.844" y2="115.268"><stop offset=".004" stop-color="#fff"/><stop offset=".525" stop-color="#fdfdfd"/><stop offset=".713" stop-color="#f7f7f6"/><stop offset=".847" stop-color="#ebebeb"/><stop offset=".954" stop-color="#dbdbda"/><stop offset="1" stop-color="#d2d1d0"/></linearGradient><path class="st52" d="M106.8 125c-32.9 4-66.3 4-99.2 0v-22.4c32.9 4 66.3 4 99.2 0V125z"/></g><path class="st38" d="M62.3 119.3c-.1-.4-.3-.8-.4-1.3-1.5-3-3.4-5.7-4.6-8.8-1.2 3.1-3.1 6-4.6 9-.2.4-.3.8-.4 1.2-.3.8-.4 1.4-.4 1.9 0 3 2.4 5.4 5.4 5.4 3 0 5.4-2.4 5.4-5.4 0-.5-.2-1.2-.4-2z"/></g><g><path transform="rotate(-77.267 174.235 155.3)" class="st0" d="M119.2 124.7h110.2v61.2H119.2z"/><path class="st1" d="M132.2 202.3l59.7 13.5 24.3-107.5-59.7-13.5-24.3 107.5zm66.6-94.1c-.1 6.8 3.9 13.1 10.1 16l-16.8 74.2c-6.8-.1-13.1 3.9-16 10.1l-26.4-6c.1-6.8-3.9-13.1-10.1-16l16.8-74.2c6.8.1 13.1-3.9 16-10.1l26.4 6z"/><path transform="rotate(-167.265 174.234 155.3)" class="st2" d="M143.6 100.2h61.2v110.2h-61.2z"/><path transform="rotate(-82.6 174.226 155.293)" class="st0" d="M119.2 124.7h110.2v61.2H119.2z"/><path class="st1" d="M136.8 206l60.7 7.9 14.2-109.2-60.7-8L136.8 206zm57.5-99.9c.6 6.8 5.1 12.7 11.5 15l-9.8 75.5c-6.8.6-12.7 5.1-15 11.5l-26.9-3.5c-.6-6.8-5.1-12.7-11.5-15l9.8-75.4c6.8-.6 12.7-5.1 15-11.5l26.9 3.4z"/><path class="st1" d="M202.8 122.8l-9.3 71.3-.6.1c-5.7 1.3-10.6 5.1-13.3 10.3l-.3.6-22.7-2.9-.1-.6c-1.3-5.7-5.1-10.6-10.3-13.3l-.6-.3 9.3-71.3.6-.1c5.7-1.3 10.6-5.1 13.3-10.3l.3-.6 22.7 2.9.1.6c1.3 5.7 5.1 10.6 10.3 13.3l.6.3zm-10.9 69.7l8.9-68.8c-5.2-2.9-9-7.8-10.5-13.6l-20.2-2.6c-2.9 5.2-7.8 9-13.6 10.5l-8.9 68.7c5.2 2.9 9 7.8 10.5 13.6l20.2 2.6c2.9-5.1 7.8-8.8 13.6-10.4z"/><ellipse transform="rotate(-82.6 174.224 155.293)" class="st3" cx="174.2" cy="155.3" rx="18.7" ry="25.5"/><path class="st1" d="M196.8 158.2c-1.1 8.7-12.2 14.5-24.6 12.9-12.5-1.6-21.7-10-20.5-18.8 1.1-8.7 12.2-14.5 24.6-12.9 12.4 1.7 21.7 10.1 20.5 18.8z"/><path class="st0" d="M179.7 145.9l-1.8 13.9c.3.3.5.6.8.8.6.5 1.3.8 2.2.9.8.1 1.6.1 2.3-.2.7-.2 1.3-.6 1.8-1 .5-.5.9-1.1 1.3-1.8.3-.7.6-1.5.7-2.4.2-1.2.2-2.3 0-3.2-.2-.9-.4-1.8-.6-2.5-.2-.7-.5-1.3-.7-1.7-.2-.4-.3-.8-.3-1 0-.1.1-.2.1-.3.1-.1.2-.2.3-.2.2 0 .4-.1.6-.1.2 0 .5 0 .9.1.5.1.9.2 1.2.3.3.1.5.3.7.5.2.2.4.6.6 1.1.2.5.4 1.1.6 1.9.2.7.3 1.6.3 2.5.1.9 0 1.9-.1 3-.2 1.5-.6 2.9-1.2 4.1-.6 1.2-1.3 2.3-2.2 3.2-.9.9-2 1.5-3.2 1.9-1.2.4-2.6.5-4 .3-1-.1-1.9-.4-2.7-.8l-.1.6c0 .2-.2.3-.4.5-.2.1-.6.1-1.2.1-.5-.1-.9-.2-1.1-.4-.2-.2-.3-.4-.3-.6l.3-2.5c-.6-.7-1-1.6-1.4-2.5-.4-.9-.7-1.9-1-2.8-.2-.6-.4-1.2-.6-1.7l-1.2 9c0 .2-.2.3-.4.5-.2.1-.6.1-1.2.1-.5-.1-.9-.2-1.1-.4-.2-.2-.3-.4-.3-.6l1.8-13.5c-.1-.1-.3-.3-.5-.4-.6-.5-1.3-.8-2.2-.9-.6-.1-1.2 0-1.7.1-.6.1-1.1.4-1.5.8-.4.4-.8.9-1.1 1.5-.3.6-.5 1.4-.6 2.2-.1.9-.1 1.8 0 2.6s.3 1.5.5 2.1c.2.6.4 1.1.6 1.5.2.4.3.7.2.9 0 .1-.1.2-.1.3-.1.1-.2.1-.4.2h-.6c-.2 0-.5 0-.8-.1-.3 0-.6-.1-.7-.1-.2 0-.4-.1-.5-.1-.1 0-.2-.1-.3-.2-.1-.1-.2-.2-.3-.4-.1-.2-.3-.5-.5-1s-.3-1.1-.5-1.7c-.1-.6-.2-1.3-.2-2s0-1.4.1-2.1c.2-1.4.5-2.6 1-3.7s1.2-2.1 2-2.8c.8-.8 1.8-1.3 2.8-1.7 1.1-.3 2.3-.4 3.6-.3.9.1 1.7.3 2.3.6l.2-1.4c0-.2.2-.4.4-.5.3-.1.6-.1 1.1-.1.6.1.9.2 1.1.4.2.2.3.4.3.5l-.4 3 .3.4c.6.8 1.1 1.6 1.5 2.5.4.9.7 1.8 1 2.8.1.3.2.5.2.8l1.2-8.9c0-.2.2-.4.4-.5.3-.1.6-.1 1.1-.1.5.1.9.2 1.1.4.4 0 .5.1.5.3z"/><path class="st1" d="M177.7 189.6c-.6 4.3-4.5 7.4-8.8 6.8-4.3-.6-7.4-4.5-6.8-8.8.6-4.3 4.5-7.4 8.8-6.8 4.3.5 7.4 4.5 6.8 8.8zm-14.7-1.9c-.5 3.8 2.2 7.3 6 7.8s7.3-2.2 7.8-6-2.2-7.3-6-7.8-7.3 2.2-7.8 6z"/><path class="st1" d="M167.4 190.5c-4.2 2.1-3.1 3.6 0 0zM168 186.1c-2.1-4.3-3.6-3.2 0 0zM168 186.1c.3.5.5 1.1.8 1.8-.7.1-1.4.2-2 .2.6.2 1.2.4 1.9.7-.4.6-.9 1.1-1.3 1.6.5-.3 1.1-.5 1.8-.8.1.7.2 1.4.2 2 .2-.6.4-1.2.7-1.9.6.4 1.1.9 1.6 1.3-.3-.5-.5-1.1-.8-1.8.7-.1 1.4-.2 2-.2-.6-.2-1.2-.4-1.9-.7.4-.6.9-1.1 1.3-1.6-.5.3-1.1.5-1.8.8-.1-.7-.2-1.4-.2-2-.2.6-.4 1.2-.7 1.9-.6-.5-1.1-.9-1.6-1.3zM171.8 191c2.2 4.3 3.6 3.2 0 0zM172.4 186.7c4.3-2.2 3.1-3.6 0 0zM173 189c4.5 1.5 4.8-.3 0 0zM166.8 188.2c-4.5-1.6-4.8.3 0 0zM170.3 185.5c1.5-4.6-.3-4.8 0 0zM169.5 191.6c-1.5 4.6.3 4.8 0 0zM186.3 123.4c-.6 4.3-4.5 7.4-8.8 6.8-4.3-.6-7.4-4.5-6.8-8.8.6-4.3 4.5-7.4 8.8-6.8 4.3.5 7.4 4.5 6.8 8.8zm-14.7-1.9c-.5 3.8 2.2 7.3 6 7.8s7.3-2.2 7.8-6-2.2-7.3-6-7.8-7.3 2.2-7.8 6z"/><path class="st1" d="M176 124.3c-4.2 2.1-3.1 3.6 0 0zM176.6 119.9c-2.1-4.2-3.6-3.1 0 0zM176.6 119.9c.3.5.5 1.1.8 1.8-.7.1-1.4.2-2 .2.6.2 1.2.4 1.9.7-.4.6-.9 1.1-1.3 1.6.5-.3 1.1-.5 1.8-.8.1.7.2 1.4.2 2 .2-.6.4-1.2.7-1.9.6.4 1.1.9 1.6 1.3-.3-.5-.5-1.1-.8-1.8.7-.1 1.4-.2 2-.2-.6-.2-1.2-.4-1.9-.7.4-.6.9-1.1 1.3-1.6-.5.3-1.1.5-1.8.8-.1-.7-.2-1.4-.2-2-.2.6-.4 1.2-.7 1.9-.6-.5-1.1-.9-1.6-1.3zM180.4 124.9c2.1 4.3 3.6 3.1 0 0zM181 120.5c4.3-2.1 3.1-3.6 0 0zM181.6 122.8c4.5 1.5 4.8-.3 0 0zM175.4 122c-4.5-1.5-4.8.3 0 0zM178.9 119.3c1.5-4.5-.3-4.8 0 0zM178.1 125.5c-1.5 4.5.3 4.8 0 0z"/><path transform="scale(-1) rotate(7.4 2401.45 -2694.197)" class="st4" d="M143.6 100.2h61.2v110.2h-61.2z"/><path class="st0" d="M143.6 100.2h61.2v110.2h-61.2z"/><path class="st1" d="M143.6 210.4h61.2V100.2h-61.2v110.2zm44.2-106.5c1.4 6.7 6.7 11.9 13.4 13.4v76.1c-6.7 1.4-11.9 6.7-13.4 13.4h-27.1c-1.4-6.7-6.7-11.9-13.4-13.4v-76.1c6.7-1.4 11.9-6.7 13.4-13.4h27.1z"/><g><path class="st1" d="M198.4 119.4v71.9l-.6.2c-5.5 2-9.8 6.4-11.9 11.9l-.2.6h-22.9l-.2-.6c-2-5.5-6.4-9.8-11.9-11.9l-.6-.2v-71.9l.6-.2c5.5-2 9.8-6.4 11.9-11.9l.2-.6h22.9l.2.6c2 5.5 6.4 9.8 11.9 11.9l.6.2zm-1.9 70.6v-69.3c-5.5-2.2-9.9-6.6-12.1-12.1H164c-2.2 5.5-6.6 9.9-12.1 12.1V190c5.5 2.2 9.9 6.6 12.1 12.1h20.4c2.3-5.5 6.6-9.9 12.1-12.1z"/></g><ellipse class="st3" cx="174.2" cy="155.3" rx="25.5" ry="18.7"/><path class="st1" d="M197 155.3c0 8.8-10.2 16-22.8 16-12.6 0-22.8-7.2-22.8-16s10.2-16 22.8-16c12.6 0 22.8 7.2 22.8 16z"/><g><path class="st0" d="M178.4 145.3v14c3 2.8 7.3.8 8.2-2.8.4-1.7.3-3.7-.3-5.4-.3-.8-.6-1.6-1-2.4-.3-.6-1.1-1.5-1.2-2.2-.2-1.4 2.8-1.1 3.6-.6 1.2.8 1.8 2.9 2.1 4.3.9 3.5.8 7.6-1.2 10.7-2.1 3.4-6.5 5-10.3 3.7v.6c0 1.2-2.7 1-3-.1-.2-.7 0-1.7 0-2.4-1.8-1.8-2.8-4.3-3.9-6.6v9.1c0 1.1-2.7 1-3 0-.1-.2 0-.6 0-.8v-4.6-8.2c-2.5-2-6.1-.7-7 2.3-.4 1.5-.3 3.1.2 4.6.2.7.5 1.4.9 2.1.3.5.9 1.2.9 1.8.1 1.1-2.3.9-3 .7-1.3-.4-1.8-2.4-2.1-3.5-.9-3.1-.7-6.9 1-9.7 1.9-3 5.7-4.2 9.1-3.2v-1.4c0-.9 1.5-.8 2-.7.6.1.9.4 1 1 .1.9 0 1.8 0 2.7l.3.3c1.6 1.6 2.6 3.6 3.5 5.7v-9c.3-1.1 3.2-1 3.2 0z"/></g><g><path class="st1" d="M182.1 188.8c0 4.3-3.5 7.9-7.9 7.9-4.3 0-7.9-3.5-7.9-7.9 0-4.3 3.5-7.9 7.9-7.9 4.4.1 7.9 3.6 7.9 7.9zm-14.8 0c0 3.8 3.1 7 7 7 3.8 0 7-3.1 7-7 0-3.8-3.1-7-7-7-3.9.1-7 3.2-7 7z"/></g><g><path class="st1" d="M172 191c-3.9 2.7-2.6 4 0 0zM172 186.6c-2.6-3.9-3.9-2.6 0 0zM172 186.6c.3.5.7 1.1 1 1.7-.7.2-1.4.4-2 .5.6.1 1.2.3 2 .5-.4.7-.7 1.2-1 1.7.5-.3 1.1-.7 1.7-1 .2.7.4 1.4.5 2 .1-.6.3-1.2.5-2 .7.4 1.2.7 1.7 1-.3-.5-.7-1.1-1-1.7.7-.2 1.4-.4 2-.5-.6-.1-1.2-.3-2-.5.4-.7.7-1.2 1-1.7-.5.3-1.1.7-1.7 1-.2-.7-.4-1.4-.5-2-.1.6-.3 1.2-.5 2-.6-.3-1.2-.6-1.7-1zM176.4 191c2.7 4 4 2.7 0 0zM176.4 186.6c4-2.6 2.7-3.9 0 0z"/><path class="st1" d="M177.3 188.8c4.7 1 4.7-.9 0 0zM171.1 188.8c-4.7-.9-4.7 1 0 0zM174.2 185.7c1-4.7-.9-4.7 0 0zM174.2 192c-.9 4.7 1 4.7 0 0z"/></g><g><path class="st1" d="M182.1 122.1c0 4.3-3.5 7.9-7.9 7.9-4.3 0-7.9-3.5-7.9-7.9 0-4.3 3.5-7.9 7.9-7.9s7.9 3.6 7.9 7.9zm-14.8 0c0 3.8 3.1 7 7 7 3.8 0 7-3.1 7-7 0-3.8-3.1-7-7-7-3.9.1-7 3.2-7 7z"/></g><g><path class="st1" d="M172 124.3c-3.9 2.7-2.6 4 0 0zM172 119.9c-2.6-3.9-3.9-2.6 0 0z"/><path class="st1" d="M172 119.9c.3.5.7 1.1 1 1.7-.7.2-1.4.4-2 .5.6.1 1.2.3 2 .5-.4.7-.7 1.2-1 1.7.5-.3 1.1-.7 1.7-1 .2.7.4 1.4.5 2 .1-.6.3-1.2.5-2 .7.4 1.2.7 1.7 1-.3-.5-.7-1.1-1-1.7.7-.2 1.4-.4 2-.5-.6-.1-1.2-.3-2-.5.4-.7.7-1.2 1-1.7-.5.3-1.1.7-1.7 1-.2-.7-.4-1.4-.5-2-.1.6-.3 1.2-.5 2-.6-.3-1.2-.6-1.7-1zM176.4 124.3c2.7 4 4 2.7 0 0zM176.4 119.9c4-2.6 2.7-3.9 0 0z"/><path class="st1" d="M177.3 122.1c4.7.9 4.7-.9 0 0zM171.1 122.1c-4.7-.9-4.7.9 0 0zM174.2 119c1-4.7-.9-4.7 0 0zM174.2 125.2c-.9 4.7 1 4.7 0 0z"/></g><path class="st5" d="M221.2 90.9a7.55 7.55 0 0 1-3.2-8.4l.5-1.5h-89.3l.4 1.4s.1.4.2.9c.6 2.9-.7 5.9-3.4 7.5-6.8 4.3-6.8 11.2-6.8 11.5V204c0 10.7 8.7 19.4 19.4 19.4h69.7c10.7 0 19.4-8.7 19.4-19.4V102.4c-.1-.3-.2-7.2-6.9-11.5zm6.3 113.7c0 10.2-8.3 18.5-18.5 18.5h-70.5c-10.2 0-18.5-8.3-18.5-18.5V101.9s0-6.7 6.4-10.7c3-1.9 4.6-5.3 3.9-8.8-.1-.6-.3-1.1-.3-1.1h87.3v.2c-1 3.7.5 7.6 3.7 9.7 6.4 4 6.4 10.7 6.4 10.7v102.7z"/><path class="st6" d="M220 215.1c0 2.3-21.1 4.2-47.1 4.2s-42.7-1.9-42.7-4.2c0-2.3 16.7-4.2 42.7-4.2s47.1 1.9 47.1 4.2z"/><radialGradient id="SVGID_29_" cx="173.771" cy="210.99" r="38.897" gradientUnits="userSpaceOnUse"><stop offset="0" stop-color="#355851"/><stop offset=".276" stop-color="#385b54"/><stop offset=".476" stop-color="#41635c"/><stop offset=".651" stop-color="#51716b"/><stop offset=".813" stop-color="#678580"/><stop offset=".963" stop-color="#849e9a"/><stop offset="1" stop-color="#8ca5a2"/></radialGradient><path class="st53" d="M209 217.4h-70.5c-10.2 0-18.4-8.3-18.4-18.4v5.5c0 10.2 8.3 18.4 18.4 18.4H209c10.2 0 18.4-8.3 18.4-18.4V199c.1 10.2-8.2 18.4-18.4 18.4z"/><radialGradient id="SVGID_30_" cx="173.771" cy="197.652" r="40.432" gradientUnits="userSpaceOnUse"><stop offset="0" stop-color="#fff"/><stop offset="1" stop-color="#fff" stop-opacity="0"/></radialGradient><path class="st54" d="M225.9 186.8c0-28.8-23.3.5-52.1.5s-52.1-29.3-52.1-.5 23.3 34.4 52.1 34.4 52.1-5.6 52.1-34.4z"/><g><circle class="st9" cx="187.2" cy="203.4" r="13.9"/><linearGradient id="SVGID_31_" gradientUnits="userSpaceOnUse" x1="798.949" y1="32.111" x2="798.949" y2="5.148" gradientTransform="rotate(-30.706 829.502 1225.124)"><stop offset="0" stop-color="#ffe15b"/><stop offset=".057" stop-color="#ffe463"/><stop offset=".309" stop-color="#fff082"/><stop offset=".554" stop-color="#fff898"/><stop offset=".789" stop-color="#fffda5"/><stop offset="1" stop-color="#ffa"/></linearGradient><circle class="st55" cx="187.2" cy="203.4" r="13.5"/><circle class="st11" cx="187.2" cy="203.4" r="13.5"/><path class="st9" d="M181.3 193.4c-5.5 3.3-7.3 10.3-4 15.8s10.3 7.3 15.8 4 7.3-10.3 4-15.8c-3.2-5.4-10.3-7.2-15.8-4zm11.3 19c-5 3-11.4 1.3-14.4-3.7s-1.3-11.4 3.7-14.4 11.4-1.3 14.4 3.7c2.9 5 1.2 11.4-3.7 14.4z"/><g class="st12"><path class="st13" d="M191.9 203.2l-5 3c0 .2-.1.3-.1.5-.1 2.4 2.9 2.2 4.2 1.1.7-.6 1-1.4 1.5-2 .6-.6 1.2.4 1.1 1.1-.2 1.5-2.5 2.9-3.8 3.2-2 .6-4.3-.6-4.7-2.7l-.2.1c-.4.2-1-.8-.6-1.1l.9-.5c.2-.8.6-1.5 1.1-2.1.1-.2.3-.4.4-.6l-3.2 1.9c-.4.2-1-.8-.6-1.1l4.8-2.9v-.3c.1-2.4-2.7-1.9-3.9-.7-.3.3-.8 1.6-1.2 1.6-.4 0-.8-1-.7-1.3.2-1.4 2.7-2.6 3.8-2.8 1.7-.2 3.3.8 3.7 2.5l.5-.3c.4-.2 1 .8.6 1.1l-1.1.6v.2c-.2.8-.6 1.5-1.1 2.2-.1.1-.1.2-.2.3l3.2-1.9c.4-.4 1 .7.6.9z"/></g><path class="st14" d="M191.6 202.7l-5 3c0 .2-.1.3-.1.5-.1 2.4 2.9 2.2 4.2 1.1.7-.6 1-1.4 1.5-2 .6-.6 1.2.4 1.1 1.1-.2 1.5-2.5 2.9-3.8 3.2-2 .6-4.3-.6-4.7-2.7l-.2.1c-.4.2-1-.8-.6-1.1l.9-.5c.2-.8.6-1.5 1.1-2.1.1-.2.3-.4.4-.6l-3.2 1.9c-.4.2-1-.8-.6-1.1l4.8-2.9v-.3c.1-2.4-2.7-1.9-3.9-.7-.3.3-.8 1.6-1.2 1.6-.4 0-.8-1-.7-1.3.2-1.4 2.7-2.6 3.8-2.8 1.7-.2 3.3.8 3.7 2.5l.5-.3c.4-.2 1 .8.6 1.1l-1.1.6v.2c-.2.8-.6 1.5-1.1 2.2-.1.1-.1.2-.2.3l3.2-1.9c.4-.3 1 .7.6.9z"/><g><circle class="st9" cx="155.7" cy="202.1" r="13.9"/><linearGradient id="SVGID_32_" gradientUnits="userSpaceOnUse" x1="230.614" y1="2327.663" x2="230.614" y2="2300.701" gradientTransform="scale(-1) rotate(-64.806 -1944.818 1360.319)"><stop offset="0" stop-color="#ffe15b"/><stop offset=".057" stop-color="#ffe463"/><stop offset=".309" stop-color="#fff082"/><stop offset=".554" stop-color="#fff898"/><stop offset=".789" stop-color="#fffda5"/><stop offset="1" stop-color="#ffa"/></linearGradient><circle class="st56" cx="155.7" cy="202.1" r="13.5"/><circle class="st11" cx="155.7" cy="202.1" r="13.5"/><path class="st9" d="M166.2 207c2.7-5.8.2-12.6-5.5-15.4-5.8-2.7-12.6-.2-15.4 5.5-2.7 5.8-.2 12.6 5.5 15.4 5.8 2.8 12.7.3 15.4-5.5zm-20-9.4c2.5-5.2 8.7-7.5 14-5 5.2 2.5 7.5 8.7 5 14-2.5 5.2-8.7 7.5-14 5-5.2-2.5-7.4-8.7-5-14z"/><g class="st12"><path class="st13" d="M152 204.9l2.5-5.3c-.1-.2-.1-.3-.2-.4-1.3-2.1-3.6-.2-4.1 1.4-.3.9 0 1.7-.1 2.5s-1.2.3-1.5-.3c-.7-1.5.6-4.1 1.6-5.1 1.4-1.4 3.8-1.6 5.2-.1l.1-.2c.2-.4 1.3.1 1.1.5l-.4.9c.3.8.3 1.6.3 2.4v.8l1.6-3.4c.2-.4 1.3.1 1.1.5l-2.4 5.1c0 .1.1.2.1.2 1.2 1.9 3.2.3 3.5-1.2.1-.4-.1-2 .1-2.2.3-.3 1.2.2 1.4.5.6 1.2-.4 3.3-1.2 4.2-1.3 1.5-3.3 1.7-4.9.4l-.2.5c-.2.4-1.3-.1-1.1-.5l.5-1.1-.1-.2c-.3-.8-.3-1.6-.3-2.4v-.4l-1.6 3.4c-.1.4-1.2-.1-1-.5z"/></g><path class="st14" d="M152.4 205.1l2.5-5.3c-.1-.2-.1-.3-.2-.4-1.3-2.1-3.6-.2-4.1 1.4-.3.9 0 1.7-.1 2.5s-1.2.3-1.5-.3c-.7-1.5.6-4.1 1.6-5.1 1.4-1.4 3.8-1.6 5.2-.1l.1-.2c.2-.4 1.3.1 1.1.5l-.4.9c.3.8.3 1.6.3 2.4v.8l1.6-3.4c.2-.4 1.3.1 1.1.5l-2.4 5.1c0 .1.1.2.1.2 1.2 1.9 3.2.3 3.5-1.2.1-.4-.1-2 .1-2.2.3-.3 1.2.2 1.4.5.6 1.2-.4 3.3-1.2 4.2-1.3 1.5-3.3 1.7-4.9.4l-.2.5c-.2.4-1.3-.1-1.1-.5l.5-1.1-.1-.2c-.3-.8-.3-1.6-.3-2.4v-.4l-1.6 3.4c-.1.4-1.2-.1-1-.5z"/></g><g><circle class="st9" cx="165.2" cy="205.7" r="12.4"/><linearGradient id="SVGID_33_" gradientUnits="userSpaceOnUse" x1="778.826" y1="21.299" x2="778.826" y2="-2.624" gradientTransform="rotate(-30.706 829.502 1225.124)"><stop offset="0" stop-color="#ffe15b"/><stop offset=".057" stop-color="#ffe463"/><stop offset=".309" stop-color="#fff082"/><stop offset=".554" stop-color="#fff898"/><stop offset=".789" stop-color="#fffda5"/><stop offset="1" stop-color="#ffa"/></linearGradient><circle class="st57" cx="165.2" cy="205.7" r="12"/><circle class="st11" cx="165.2" cy="205.7" r="12"/><path class="st9" d="M159.9 196.8c-4.9 2.9-6.5 9.2-3.6 14 2.9 4.9 9.2 6.5 14 3.6 4.9-2.9 6.5-9.2 3.6-14-2.8-4.8-9.1-6.4-14-3.6zm10 16.9c-4.4 2.6-10.1 1.2-12.8-3.3s-1.2-10.1 3.3-12.8c4.4-2.6 10.1-1.2 12.8 3.3s1.1 10.1-3.3 12.8z"/><g class="st12"><path class="st13" d="M169.3 205.5l-4.4 2.6c0 .1 0 .3-.1.4-.1 2.1 2.5 1.9 3.7 1 .6-.5.8-1.2 1.3-1.7.2-.2.2-.4.5-.3.2.1.5.6.5.8.2 1.5-2.4 2.9-3.6 3.2-1.8.4-3.7-.6-4.1-2.5l-.2.1c-.3.2-.9-.7-.6-.9l.8-.5c.2-.7.6-1.3 1-1.9.1-.2.3-.4.4-.6l-2.9 1.7c-.3.2-.9-.8-.6-.9l4.3-2.6v-.2c.1-1.9-2.2-1.8-3.2-.9-.3.3-.8 1.5-1.2 1.6-.4.1-.8-.7-.8-1 0-1.4 2.3-2.5 3.4-2.7 1.5-.2 2.9.7 3.3 2.2l.4-.3c.3-.2.9.7.6.9l-1 .6v.2c-.2.7-.5 1.3-.9 1.9-.1.1-.1.2-.2.3l2.8-1.7c.6 0 1.1 1 .8 1.2z"/></g><path class="st14" d="M169.1 205.1l-4.4 2.6c0 .1 0 .3-.1.4-.1 2.1 2.5 1.9 3.7 1 .6-.5.8-1.2 1.3-1.7.2-.2.2-.4.5-.3.2.1.5.6.5.8.2 1.5-2.4 2.9-3.6 3.2-1.8.4-3.7-.6-4.1-2.5l-.2.1c-.3.2-.9-.7-.6-.9l.8-.5c.2-.7.6-1.3 1-1.9.1-.2.3-.4.4-.6l-2.9 1.7c-.3.2-.9-.8-.6-.9l4.3-2.6v-.2c.1-1.9-2.2-1.8-3.2-.9-.3.3-.8 1.5-1.2 1.6-.4.1-.8-.7-.8-1 0-1.4 2.3-2.5 3.4-2.7 1.5-.2 2.9.7 3.3 2.2l.4-.3c.3-.2.9.7.6.9l-1 .6v.2c-.2.7-.5 1.3-.9 1.9-.1.1-.1.2-.2.3l2.8-1.7c.6.1 1.1 1 .8 1.2z"/></g><g><circle class="st9" cx="175.7" cy="203.9" r="13.9"/><linearGradient id="SVGID_34_" gradientUnits="userSpaceOnUse" x1="175.658" y1="217.416" x2="175.658" y2="190.454"><stop offset="0" stop-color="#ffe15b"/><stop offset=".057" stop-color="#ffe463"/><stop offset=".309" stop-color="#fff082"/><stop offset=".554" stop-color="#fff898"/><stop offset=".789" stop-color="#fffda5"/><stop offset="1" stop-color="#ffa"/></linearGradient><circle class="st58" cx="175.7" cy="203.9" r="13.5"/><circle class="st11" cx="175.7" cy="203.9" r="13.5"/><path class="st9" d="M175.7 192.4c-6.4 0-11.5 5.2-11.5 11.5 0 6.4 5.2 11.5 11.5 11.5 6.4 0 11.5-5.2 11.5-11.5s-5.2-11.5-11.5-11.5zm0 22c-5.8 0-10.5-4.7-10.5-10.5s4.7-10.5 10.5-10.5 10.5 4.7 10.5 10.5-4.7 10.5-10.5 10.5z"/><g class="st12"><path class="st13" d="M179.8 206.2H174c-.1.1-.2.2-.3.4-1.4 2.1 1.5 3.4 3.2 3.1.5-.1 1-.3 1.4-.5.2-.1.6-.5.9-.5.7 0 .6 1.1.3 1.5-1 1.2-3.8 1.2-5.1.8-2-.6-3.2-2.7-2.5-4.7h-.3c-.5 0-.4-1.2 0-1.2h1c.6-.6 1.3-.9 2-1.3.2-.1.5-.2.7-.3h-3.8c-.5 0-.4-1.2 0-1.2h5.6l.2-.2c1.2-1.9-1.1-3-2.6-2.7-.4.1-1.7 1-2.1.9-.4-.1-.4-1.1-.2-1.4.7-1.2 3.5-1.1 4.5-.7 1.8.6 2.8 2.3 2.3 4.2h.6c.5 0 .4 1.2 0 1.2h-1.3l-.1.1c-.6.6-1.3 1-2 1.3-.1 0-.2.1-.3.1h3.7c.4-.2.4 1.1 0 1.1z"/></g><path class="st14" d="M179.8 205.7H174c-.1.1-.2.2-.3.4-1.4 2.1 1.5 3.4 3.2 3.1.5-.1 1-.3 1.4-.5.2-.1.6-.5.9-.5.7 0 .6 1.1.3 1.5-1 1.2-3.8 1.2-5.1.8-2-.6-3.2-2.7-2.5-4.7h-.3c-.5 0-.4-1.2 0-1.2h1c.6-.6 1.3-.9 2-1.3.2-.1.5-.2.7-.3h-3.8c-.5 0-.4-1.2 0-1.2h5.6l.2-.2c1.2-1.9-1.1-3-2.6-2.7-.4.1-1.7 1-2.1.9-.4-.1-.4-1.1-.2-1.4.7-1.2 3.5-1.1 4.5-.7 1.8.6 2.8 2.3 2.3 4.2h.6c.5 0 .4 1.2 0 1.2h-1.3l-.1.1c-.6.6-1.3 1-2 1.3-.1 0-.2.1-.3.1h3.7c.4-.2.4 1.1 0 1.1z"/></g></g><linearGradient id="SVGID_35_" gradientUnits="userSpaceOnUse" x1="120.082" y1="152.201" x2="227.459" y2="152.201"><stop offset="0" stop-color="#65827d"/><stop offset=".161" stop-color="#98bfba"/><stop offset=".391" stop-color="#fff"/><stop offset=".563" stop-color="#e4eff1"/><stop offset=".726" stop-color="#dbf0f1"/><stop offset=".843" stop-color="#daf4f3"/><stop offset=".866" stop-color="#d5efee"/><stop offset=".894" stop-color="#c7e2e0"/><stop offset=".923" stop-color="#b0ccc8"/><stop offset=".954" stop-color="#8fada7"/><stop offset=".985" stop-color="#65857d"/><stop offset="1" stop-color="#4f7067"/></linearGradient><path class="st59" d="M227.5 101.9v102.6c0 10.2-8.3 18.4-18.4 18.4h-70.5c-4.8 0-9.1-1.8-12.4-4.8-3.7-3.4-6-8.2-6-13.7V101.9s0-6.7 6.4-10.7c3-1.9 4.6-5.3 3.9-8.8-.1-.6-.3-1.1-.3-1.1h87.3v.2c-1 3.7.5 7.6 3.7 9.7 6.3 4.1 6.3 10.7 6.3 10.7z"/><path class="st21" d="M152.5 204.5V101.9s0-6.7 6.4-10.7c3-1.9 4.6-5.3 3.9-8.8-.1-.6-.3-1-.3-1h-11.1s.1.4.3 1c.7 3.5-.9 6.9-3.9 8.8-6.4 4-6.4 10.7-6.4 10.7v102.6c0 10.2 8.3 18.4 18.4 18.4h11.1c-10.2.1-18.4-8.2-18.4-18.4z"/><path class="st22" d="M142 204.5V101.9s0-6.7 6.4-10.7c3-1.9 4.6-5.3 3.9-8.8-.1-.6-.3-1-.3-1h-11.1s.1.4.3 1c.7 3.5-.9 6.9-3.9 8.8-6.4 4-6.4 10.7-6.4 10.7v102.6c0 10.2 8.3 18.4 18.4 18.4h11.1c-10.2.1-18.4-8.2-18.4-18.4z"/><path class="st23" d="M133.4 204.5V101.9s0-6.7 6.4-10.7c3-1.9 4.6-5.3 3.9-8.8-.1-.6-.3-1-.3-1h-11.1s.1.4.3 1c.7 3.5-.9 6.9-3.9 8.8-6.4 4-6.4 10.7-6.4 10.7v102.6c0 10.2 8.3 18.4 18.4 18.4h11.1c-10.2.1-18.4-8.2-18.4-18.4z"/><linearGradient id="SVGID_36_" gradientUnits="userSpaceOnUse" x1="194.118" y1="152.201" x2="223.631" y2="152.201"><stop offset="0" stop-color="#cce5e9"/><stop offset=".257" stop-color="#cee7eb"/><stop offset=".405" stop-color="#d3f0f2"/><stop offset=".522" stop-color="#dbfdfe"/><stop offset=".524" stop-color="#dafcfd"/><stop offset=".603" stop-color="#c8e9ea"/><stop offset=".694" stop-color="#bcdcdc"/><stop offset=".805" stop-color="#b4d4d3"/><stop offset="1" stop-color="#b2d2d1"/></linearGradient><path class="st60" d="M212.6 204.5V101.9s0-6.7-6.4-10.7c-3-1.9-4.6-5.3-3.9-8.8.1-.6.3-1 .3-1h11.1s-.1.4-.3 1c-.7 3.5.9 6.9 3.9 8.8 6.4 4 6.4 10.7 6.4 10.7v102.6c0 10.2-8.3 18.4-18.4 18.4h-11.1c10.1.1 18.4-8.2 18.4-18.4z"/><g><linearGradient id="SVGID_37_" gradientUnits="userSpaceOnUse" x1="130.114" y1="71.769" x2="217.503" y2="71.769"><stop offset="0" stop-color="#ff821a"/><stop offset=".064" stop-color="#ee4f0b"/><stop offset=".19" stop-color="#d74303"/><stop offset=".339" stop-color="#ff6e18"/><stop offset=".456" stop-color="#ff8e37"/><stop offset=".634" stop-color="#ff5c0c"/><stop offset=".635" stop-color="#ff5d0d"/><stop offset=".67" stop-color="#ff8c39"/><stop offset=".704" stop-color="#ffb05b"/><stop offset=".736" stop-color="#ffcb74"/><stop offset=".764" stop-color="#ffda83"/><stop offset=".786" stop-color="#ffe088"/><stop offset=".806" stop-color="#fed67f"/><stop offset=".841" stop-color="#fcb966"/><stop offset=".886" stop-color="#f88c3f"/><stop offset=".937" stop-color="#f3500b"/><stop offset="1" stop-color="#f66712"/></linearGradient><path class="st61" d="M215.5 74.8h-83.4c-1.1 0-2-.9-2-2v-2.1c0-1.1.9-2 2-2h83.4c1.1 0 2 .9 2 2v2.1c0 1.1-.9 2-2 2z"/><linearGradient id="SVGID_38_" gradientUnits="userSpaceOnUse" x1="127.742" y1="77.039" x2="219.963" y2="77.039"><stop offset="0" stop-color="#fcbd6e"/><stop offset=".064" stop-color="#ff5601"/><stop offset=".19" stop-color="#d33a00"/><stop offset=".339" stop-color="#ff6c04"/><stop offset=".374" stop-color="#ff922a"/><stop offset=".429" stop-color="#ffc75f"/><stop offset=".456" stop-color="#ffdc74"/><stop offset=".496" stop-color="#ffc75f"/><stop offset=".579" stop-color="#ff9229"/><stop offset=".634" stop-color="#ff6c02"/><stop offset=".645" stop-color="#ff7b13"/><stop offset=".678" stop-color="#ffa342"/><stop offset=".71" stop-color="#fec366"/><stop offset=".739" stop-color="#fed981"/><stop offset=".765" stop-color="#fee790"/><stop offset=".786" stop-color="#feec96"/><stop offset=".805" stop-color="#fee28c"/><stop offset=".84" stop-color="#fec66f"/><stop offset=".885" stop-color="#ff9842"/><stop offset=".937" stop-color="#ff5b04"/><stop offset="1" stop-color="#f9ac64"/></linearGradient><path class="st62" d="M217.8 82.3c-30.7 1.4-57.1 1.4-87.8 0-1.2-.1-2.2-1.1-2.2-2.4v-6.8c0-1.3 1-2.3 2.2-2.3h87.8c1.2 0 2.2 1 2.2 2.3v6.8c0 1.2-1 2.3-2.2 2.4z"/><path class="st2" d="M217.8 81.9c-30.7 1.4-57.1 1.4-87.8 0-1.2-.1-2.2-1.1-2.2-2.4v.3c0 1.3 1 2.3 2.2 2.4 30.7 1.4 57.1 1.4 87.8 0 1.2-.1 2.2-1.1 2.2-2.4v-.3c0 1.3-1 2.3-2.2 2.4z"/><path class="st27" d="M217.7 70.8h-87.8c-1.2 0-2.2 1-2.2 2.3v.7c0-1.3 1-2.3 2.2-2.3h87.8c1.2 0 2.2 1 2.2 2.3v-.7c.1-1.3-.9-2.3-2.2-2.3z"/><path class="st28" d="M130.1 70.6h87.3v.2h-87.3z"/></g><g class="st29"><path class="st30" d="M220 98.3c0 .5-21 2.1-46.9 2.2-25.9-.1-46.9-1.7-46.9-2.2 0-.5 21-1 46.9-1.1 25.9.1 46.9.6 46.9 1.1z"/></g><g class="st31"><path class="st30" d="M226.2 98.9c0 1.7-23.2 6-52 6.1-28.7-.1-52-4.4-52-6.1 0-1.8 23.3-3.5 52-3.7 28.8.2 52 2 52 3.7z"/></g><path class="st32" d="M210.8 88.8c0 .2-16.5 3.8-37 4-20.5-.1-37-3.8-37-4 0-.3 16.6-.9 37-1.1 20.4.3 37 .9 37 1.1z"/><radialGradient id="SVGID_39_" cx="173.771" cy="135.433" r="52.114" gradientUnits="userSpaceOnUse"><stop offset="0" stop-color="#fff" stop-opacity=".5"/><stop offset="1" stop-color="#fff" stop-opacity="0"/></radialGradient><circle class="st63" cx="173.8" cy="135.4" r="52.1"/><ellipse class="st4" cx="173.5" cy="220.4" rx="41.3" ry="2.6"/><path class="st34" d="M227.5 195.1v9.5c0 10.2-8.3 18.4-18.4 18.4h-44.3l62.7-27.9zM227.5 162.4v26.4L147 223h-8.4c-4.8 0-9.1-1.8-12.4-4.8l101.3-55.8z"/><path class="st35" d="M209 219.7h-70.5c-10.2 0-18.4-10.5-18.4-20.7v5.5c0 10.2 8.3 18.4 18.4 18.4H209c10.2 0 18.4-8.3 18.4-18.4V199c.1 10.2-8.2 20.7-18.4 20.7z"/><ellipse class="st36" cx="174.8" cy="222.2" rx="34.2" ry=".9"/><g><path class="st12" d="M223.4 126.1c-32.9 4-66.3 4-99.2 0v-22.4c32.9 4 66.3 4 99.2 0v22.4z"/><linearGradient id="SVGID_40_" gradientUnits="userSpaceOnUse" x1="124.156" y1="115.268" x2="223.386" y2="115.268"><stop offset=".004" stop-color="#fff"/><stop offset=".525" stop-color="#fdfdfd"/><stop offset=".713" stop-color="#f7f7f6"/><stop offset=".847" stop-color="#ebebeb"/><stop offset=".954" stop-color="#dbdbda"/><stop offset="1" stop-color="#d2d1d0"/></linearGradient><path class="st64" d="M223.4 125c-32.9 4-66.3 4-99.2 0v-22.4c32.9 4 66.3 4 99.2 0V125z"/></g><path class="st65" d="M182.3 118.3c0 1.3-.3 2.6-.8 3.7h-3.2v3.4c-2.2.5-3.1.8-4.4.8-1.3 0-3.3-.3-4.4-.8V122h-3.6c-.5-1.1-.8-2.5-.8-3.7 0-.4 0-1.3.1-1.7.1-.8.4-1.8.7-2.9h3.6v-3.8c1.1-.5 3.2-.8 4.4-.8 1.3 0 2.2.3 4.4.8v3.8h3.2c.3 1.1.6 2.1.7 2.9 0 .4.1 1.3.1 1.7z"/></g></svg>