<svg id="Слой_1" xmlns="http://www.w3.org/2000/svg" viewBox="0 0 147 147"><style>.st0{opacity:.15}.st1,.st2{fill-rule:evenodd;clip-rule:evenodd}.st2{fill:#fff}</style><g class="st0"><path class="st1" d="M73.5 147C33.5 147 1 114.5 1 74.5S33.5 2 73.5 2 146 34.5 146 74.5 113.5 147 73.5 147zM102 52c0-8-6.1-15.2-14.2-16.5-9.4-1.5-19-1.5-28.5 0-8.1 1.3-14.5 8.2-14.5 16.2v13.7C46.4 66.5 47 68 47 70v8h53v-7c0-2.1.5-4.8 2-6V52zm11 18.4c0-1.9-1.5-3.4-3.3-3.4h-3.6c-1.8 0-3.1 1.1-3.1 3v10H44V70c0-1.9-1.1-3-3-3h-3.7c-1.8 0-3.3 1.5-3.3 3.4v39.3c0 1.8 1.4 3.2 3.1 3.3v.6c0 .8.6 1.4 1.3 1.4H40c.7 0 1.3-.6 1.3-1.4v-.6c1.7-.2 2.7-2.2 2.7-4v-2.9c.6.5 1.3.9 2 .9h55c.7 0 1.4-.1 2-.4v2.4c0 1.7 1.1 3.7 2.7 3.9v.7c0 .8.6 1.4 1.3 1.4h1.6c.7 0 1.3-.6 1.3-1.4v-.6c1.7-.2 3-1.6 3-3.3V70.4zM81 54.9c-.8.1-1.5-.2-2.2.2-.8.4-1.4 1.2-2.3 1.6-.7.4-1.5.7-2.2 1 1.8 0 3.6.1 5.3.1.4 0 1.4-.2 1.8.1.6.3.8 2.3-.1 2.3-2 0-4.1-.1-6.1-.1-1.3 0-2.6 0-3.8-.1-1.2 0-1.7.3-2 1.7-.5 2.3 1 4.2 3.2 4.8 2.7.7 4.8-.5 7.1-1.5 1.9-.8 1.6 1.8.8 2.8-1.3 1.5-4.4 1.7-6.2 1.7-5 0-9.9-4.2-8-9.6-.8.1-1.1-.4-1.1-1.2 0-1 .4-1.1 1.2-1.1.4 0 .8.1 1.2 0 .5-.1.8-.5 1.2-.8 1.3-.9 2.8-1.5 4.2-2.2-1.3 0-2.6 0-3.9-.1-.8 0-2.9.4-3.6-.2-.4-.4-.4-1.7 0-2 .3-.2.6-.1.9-.2 1.5-.1 3.1.1 4.6.1 1.5 0 3.2.2 4.7.1.2 0 .6.1.7 0 1.1-.6.9-2.7.5-3.6-1.4-2.9-5.1-2.4-7.5-1.2-.8.4-1.6 1.2-2 .1-.3-.8 0-2.1.7-2.6 2.2-1.7 6.5-1.5 8.9-.4 2.8 1.4 4.1 4.6 3.2 7.7.8 0 1.4-.2 1.6.8.4 1.2 0 1.7-.8 1.8z"/></g><path class="st2" d="M73.5 145C33.5 145 1 112.5 1 72.5S33.5 0 73.5 0 146 32.5 146 72.5 113.5 145 73.5 145zM102 50c0-8-6.1-15.2-14.2-16.5-9.4-1.5-19-1.5-28.5 0-8.1 1.3-14.5 8.2-14.5 16.2v13.7C46.4 64.5 47 66 47 68v8h53v-7c0-2.1.5-4.8 2-6V50zm11 18.4c0-1.9-1.5-3.4-3.3-3.4h-3.6c-1.8 0-3.1 1.1-3.1 3v10H44V68c0-1.9-1.1-3-3-3h-3.7c-1.8 0-3.3 1.5-3.3 3.4v39.3c0 1.8 1.4 3.2 3.1 3.3v.6c0 .8.6 1.4 1.3 1.4H40c.7 0 1.3-.6 1.3-1.4v-.6c1.7-.2 2.7-2.2 2.7-4v-2.9c.6.5 1.3.9 2 .9h55c.7 0 1.4-.1 2-.4v2.4c0 1.7 1.1 3.7 2.7 3.9v.7c0 .8.6 1.4 1.3 1.4h1.6c.7 0 1.3-.6 1.3-1.4v-.6c1.7-.2 3-1.6 3-3.3V68.4zM81 52.9c-.8.1-1.5-.2-2.2.2-.8.4-1.4 1.2-2.3 1.6-.7.4-1.5.7-2.2 1 1.8 0 3.6.1 5.3.1.4 0 1.4-.2 1.8.1.6.3.8 2.3-.1 2.3-2 0-4.1-.1-6.1-.1-1.3 0-2.6 0-3.8-.1-1.2 0-1.7.3-2 1.7-.5 2.3 1 4.2 3.2 4.8 2.7.7 4.8-.5 7.1-1.5 1.9-.8 1.6 1.8.8 2.8-1.3 1.5-4.4 1.7-6.2 1.7-5 0-9.9-4.2-8-9.6-.8.1-1.1-.4-1.1-1.2 0-1 .4-1.1 1.2-1.1.4 0 .8.1 1.2 0 .5-.1.8-.5 1.2-.8 1.3-.9 2.8-1.5 4.2-2.2-1.3 0-2.6 0-3.9-.1-.8 0-2.9.4-3.6-.2-.4-.4-.4-1.7 0-2 .3-.2.6-.1.9-.2 1.5-.1 3.1.1 4.6.1 1.5 0 3.2.2 4.7.1.2 0 .6.1.7 0 1.1-.6.9-2.7.5-3.6-1.4-2.9-5.1-2.4-7.5-1.2-.8.4-1.6 1.2-2 .1-.3-.8 0-2.1.7-2.6 2.2-1.7 6.5-1.5 8.9-.4 2.8 1.4 4.1 4.6 3.2 7.7.8 0 1.4-.2 1.6.8.4 1.2 0 1.7-.8 1.8z"/></svg>