<svg id="Слой_1" xmlns="http://www.w3.org/2000/svg" viewBox="0 0 230 230"><style>.st0{fill:#8d4000}.st1{fill:#712e03}.st2{fill:url(#SVGID_1_)}.st3{fill:#fd7a0c}.st4{fill:#ff881e}.st5{fill:#ed5300}.st6{fill:#ed5501}.st7{fill:#f96601}.st8{fill:url(#SVGID_2_)}.st9{fill:url(#SVGID_3_)}.st10{fill:#e50}.st11{fill:#ee6101}.st12{fill:#ff891f}.st13{fill:#e84d00}.st14{fill:#d84100}.st15{opacity:.75;fill:url(#SVGID_4_)}.st16{opacity:.3;fill:url(#SVGID_5_)}.st17{fill:#fba993}.st18{fill:#fff2df}.st19{opacity:.3;fill:url(#SVGID_6_)}.st20{fill:url(#SVGID_7_);stroke:#e8980f;stroke-miterlimit:10}.st21{fill:url(#SVGID_8_)}.st22{fill:url(#SVGID_9_)}.st23{opacity:.2}.st24,.st25{opacity:.76}.st25{fill:#fff}.st26{fill:#e8980f}.st27{fill:url(#SVGID_10_)}</style><path class="st0" d="M7.5 199.6h13v14h-13z"/><path class="st1" d="M20.5 199.6v14l3.4-4.7v-9.3z"/><path class="st0" d="M211.2 199.6h13v14h-13z"/><path class="st1" d="M211.2 199.6v14l-3.5-4.7v-9.3z"/><linearGradient id="SVGID_1_" gradientUnits="userSpaceOnUse" x1="189.462" y1="199.636" x2="189.462" y2="78.774"><stop offset="0" stop-color="#ff6f05"/><stop offset=".206" stop-color="#fd6b05"/><stop offset=".419" stop-color="#f75e04"/><stop offset=".636" stop-color="#ed4a04"/><stop offset=".854" stop-color="#df2d03"/><stop offset="1" stop-color="#d41502"/></linearGradient><path class="st2" d="M204.8 199.6l-32.9-34.1V78.8l35.2 30.4z"/><path class="st3" d="M227.3 106.4l-22 .5-33.4-30h22.3z"/><path class="st4" d="M226.3 106.9h-19.5L179 81.8c-1.2-1.1-.4-3.1 1.2-3.1h14.3c.4 0 .8.2 1.2.4l30.6 27.8z"/><path class="st5" d="M171.9 76.9l33.4 30v3.3l-33.4-30.8z"/><path class="st6" d="M224.8 200.6H207c-1.7 0-3.2-1.4-3.2-3.2v-89.1c0-1.4 1.1-2.8 2.4-3.2a39 39 0 0 1 19.2 0c1.4.3 2.4 1.8 2.4 3.2v89.1c.2 1.8-1.2 3.2-3 3.2z"/><path class="st7" d="M224.9 195.8c-4.3-.1-11.1-.1-15.4 0-1.7 0-3.2-1.4-3.2-3.2-1.6-28.4-.8-56.6-2.4-84.2 0-1.4 1.1-2.8 2.4-3.2a39 39 0 0 1 19.2 0c1.4.3 2.4 1.8 2.4 3.2v84.3c.1 1.7-1.3 3.1-3 3.1z"/><linearGradient id="SVGID_2_" gradientUnits="userSpaceOnUse" x1="1382.506" y1="199.636" x2="1382.506" y2="78.774" gradientTransform="matrix(-1 0 0 1 1424.044 0)"><stop offset="0" stop-color="#ff6f05"/><stop offset=".206" stop-color="#fd6b05"/><stop offset=".419" stop-color="#f75e04"/><stop offset=".636" stop-color="#ed4a04"/><stop offset=".854" stop-color="#df2d03"/><stop offset="1" stop-color="#d41502"/></linearGradient><path class="st8" d="M26.2 199.6l32.9-34.1V78.8l-35.2 30.4z"/><path class="st3" d="M3.7 106.4l22 .5 33.4-30H36.8z"/><path class="st4" d="M4.7 106.9h19.5L52 81.8c1.2-1.1.4-3.1-1.2-3.1H36.6c-.4 0-.8.2-1.2.4L4.7 106.9z"/><path class="st5" d="M59.1 76.9l-33.4 30v3.3l33.4-30.8z"/><path class="st6" d="M6.2 200.6H24c1.7 0 3.2-1.4 3.2-3.2v-89.1c0-1.4-1.1-2.8-2.4-3.2a39 39 0 0 0-19.2 0c-1.5.4-2.6 1.9-2.6 3.3v89.1c0 1.7 1.4 3.1 3.2 3.1z"/><path class="st7" d="M23.9 195.8c-4.3-.1-11.1-.1-15.4 0-1.7 0-3.2-1.4-3.2-3.2-1.5-28.5-.7-56.6-2.3-84.2 0-1.4 1.1-2.8 2.4-3.2a39 39 0 0 1 19.2 0c1.4.3 2.4 1.8 2.4 3.2v84.3c.1 1.7-1.3 3.1-3.1 3.1z"/><linearGradient id="SVGID_3_" gradientUnits="userSpaceOnUse" x1="115.745" y1="142.417" x2="115.745" y2="19.235"><stop offset="0" stop-color="#d41502"/><stop offset=".082" stop-color="#e02e03"/><stop offset=".186" stop-color="#eb4604"/><stop offset=".304" stop-color="#f45804"/><stop offset=".443" stop-color="#fa6505"/><stop offset=".624" stop-color="#fe6d05"/><stop offset="1" stop-color="#ff6f05"/></linearGradient><path class="st9" d="M184.7 142.4H46.8V60.5c0-19.1 15.3-35.4 34.8-38.6 22.7-3.5 45.7-3.5 68.4 0 19.5 3.2 34.8 19.6 34.8 38.6-.1 38.5-.1 43.4-.1 81.9z"/><path class="st10" d="M184.7 63.2v53.2c0 1-1.1 2.1-2.5 2.4-37.2 8.6-76.7 9.8-114.6 3.6-11.7-2-20.9-11.3-20.9-19.8V63.2c0-13.8 15.3-25.6 34.8-28.3 22.7-2.8 45.7-2.8 68.4 0 19.5 2.7 34.8 14.5 34.8 28.3z"/><path class="st11" d="M184.7 56.8v44.7c0 5.7-6.1 11.9-13.9 13.4-18.6 3.5-37.6 5.2-56.6 5.1-37.9-.7-67.5-31.5-67.5-57.8v-5.3C46.8 43 62 31.2 81.6 28.5c22.7-2.8 45.7-2.8 68.4 0 19.4 2.7 34.7 14.5 34.7 28.3z"/><path class="st12" d="M81.6 26.8c22.7-3.5 45.7-3.5 68.4 0 19.5 3.2 34.8 19.6 34.8 38.6V58.2c0-19.1-15.3-35.4-34.8-38.6-22.7-3.5-45.7-3.5-68.4 0-19.5 3.2-34.8 19.6-34.8 38.6v7.2c0-19 15.3-35.4 34.8-38.6zM175.1 124.5H56.6c-6.1 0-12 2.4-16.4 6.6l-8.6 8.2 168.4.1-8.3-8.2c-4.5-4.3-10.5-6.7-16.6-6.7z"/><path class="st13" d="M195.6 192.5H35.9c-.7 0-1.3-.6-1.3-1.3v-25.6h162.3v25.6c0 .8-.6 1.3-1.3 1.3z"/><path class="st14" d="M192.2 185.4h-153c-2.6 0-4.7-2.2-4.7-4.9v7.2c0 2.7 2.1 4.9 4.7 4.9h153c2.6 0 4.7-2.2 4.7-4.9v-7.2c0 2.7-2.1 4.9-4.7 4.9z"/><path class="st7" d="M198.4 165.7H33.1c-1.1 0-2-.9-2-2v-24.1c0-.4.3-.8.8-.8h167.8c.4 0 .8.3.8.8v24.1c-.1 1-1 2-2.1 2z"/><linearGradient id="SVGID_4_" gradientUnits="userSpaceOnUse" x1="115.742" y1="172.21" x2="115.742" y2="163.813"><stop offset="0" stop-opacity=".05"/><stop offset="1" stop-opacity=".3"/></linearGradient><path class="st15" d="M34.6 163.8h162.3v8.4H34.6z"/><path class="st10" d="M195.5 158.5H35.9c-2.7 0-4.9-2.2-4.9-4.9v7.2c0 2.7 2.2 4.9 4.9 4.9h159.6c2.7 0 4.9-2.2 4.9-4.9v-7.2c0 2.7-2.2 4.9-4.9 4.9z"/><linearGradient id="SVGID_5_" gradientUnits="userSpaceOnUse" x1="115.775" y1="152.212" x2="115.775" y2="105.799"><stop offset="0" stop-opacity=".05"/><stop offset="1" stop-opacity=".3"/></linearGradient><path class="st16" d="M174 141.3c-1.5.8-3.1 1.6-4.8 2.3-12.6 5.3-31.9 8.6-53.4 8.6s-40.8-3.3-53.4-8.6c-1.7-.7-3.3-1.5-4.8-2.3l53.9-35.6h9.6l52.9 35.6z"/><g><path class="st17" d="M64.3 119s1.4 2.4 3.8 2.2c0 0 20.1 27 52.1 26.3 42.1.5 48.5-47.6 48.5-47.6s3.1-3.1 2.2-5.3l-25 14.5-81.6 9.9z"/><path class="st18" d="M170.9 94.6c-.5-.5-2.4.5-4.2 2.3-2.5-1.1-14.6-5.8-33.4-2 0 0-9.4-9.1-27.1-11.2-.5-2.5-1.7-4.3-2.5-4.2-.8.2-1.1 2.1-.7 4.3h-.4s-20.8 7.3-34.2 32.3c-2.5.5-4.3 1.7-4.1 2.8.2 1.1 2.4 1.6 4.9 1.2.1 0 .3-.1.4-.1l.1.2s34.3 22.7 61 18.8l.3-.1c1 1.6 2.4 2.6 3.2 2.2.8-.4.9-1.7.4-3.4l.3-.1s23.3-8.1 32.5-37.9c.4-.3.8-.7 1.1-1 1.9-1.7 3-3.5 2.4-4.1z"/></g><linearGradient id="SVGID_6_" gradientUnits="userSpaceOnUse" x1="118.286" y1="119.683" x2="118.286" y2="110.444"><stop offset="0" stop-opacity=".05"/><stop offset="1" stop-opacity=".3"/></linearGradient><ellipse class="st19" cx="118.3" cy="115.1" rx="32.9" ry="4.6"/><g><linearGradient id="SVGID_7_" gradientUnits="userSpaceOnUse" x1="117.628" y1="116.663" x2="117.628" y2="40.206"><stop offset="0" stop-color="#ff8f29"/><stop offset=".214" stop-color="#fda62e"/><stop offset=".515" stop-color="#fac034"/><stop offset=".786" stop-color="#f9d038"/><stop offset="1" stop-color="#f8d539"/></linearGradient><circle class="st20" cx="117.6" cy="78.4" r="38.2"/><linearGradient id="SVGID_8_" gradientUnits="userSpaceOnUse" x1="117.692" y1="113.345" x2="117.692" y2="72.948"><stop offset="0" stop-color="#fff" stop-opacity=".2"/><stop offset="1" stop-color="#fff" stop-opacity="0"/></linearGradient><path class="st21" d="M117.7 109c-20.4 0-37-16-38.2-36.1 0 .7-.1 1.4-.1 2.2 0 21.1 17.1 38.2 38.2 38.2s38.2-17.1 38.2-38.2c0-.7 0-1.5-.1-2.2-1 20.2-17.6 36.1-38 36.1z"/><linearGradient id="SVGID_9_" gradientUnits="userSpaceOnUse" x1="117.628" y1="115.578" x2="117.628" y2="75.181"><stop offset="0" stop-color="#f9622d" stop-opacity=".4"/><stop offset=".31" stop-color="#fa772e" stop-opacity=".276"/><stop offset=".948" stop-color="#fbac32" stop-opacity=".02"/><stop offset="1" stop-color="#fbb132" stop-opacity="0"/></linearGradient><path class="st22" d="M117.6 111.2c-20.4 0-37-16-38.2-36.1 0 .7-.1 1.4-.1 2.2 0 21.1 17.1 38.2 38.2 38.2s38.2-17.1 38.2-38.2c0-.7 0-1.5-.1-2.2-.9 20.2-17.6 36.1-38 36.1z"/><g class="st23"><path class="st24" d="M129 84.2c-2.9 0-5.9-.1-8.8-.1-1.9 0-3.7-.1-5.6-.1-1.6 0-2.1-.2-2.9 1.6-1.2 2.6 0 5.9 2.5 7.3 2.9 1.6 6.6 1.1 9.6 0 .9-.4 2.9-2.1 3.9-1.9 1.2.2 1 2.7.7 3.5-1 2.5-5.5 3.2-7.7 3.4-3.9.4-8.3-.4-11.2-3.1-2.9-2.7-4-7.2-2.6-10.9-1.2.2-1.6-.7-1.5-1.7 0-1.7.8-1.7 2.1-1.7 1.7 0 1.8-.3 3.3-1.2 1.9-1.3 4-2.1 6.1-3.1-1.7 0-3.5-.1-5.2-.1-1.3 0-4 .5-5.2-.1-1-.4-1.3-2.7-.3-3.3.3-.2.9-.1 1.3-.1 2.1 0 4.3.1 6.4.1 2.3 0 4.6.1 6.8.1.3 0 1.1.2 1.4 0 1.3-.6 1.4-3.4 1.1-4.5-1-4.2-6.2-4.4-9.5-3.2-.9.3-3.5 2.2-4.4 1.7-1-.6-.3-3.6.3-4.2 1.3-1.4 4.4-1.9 6.2-2.1 2.3-.2 4.7.1 6.8.9 4.6 1.9 6.7 6.8 5.3 11.5 1.3 0 2.2-.2 2.4 1.3.2 1.7-.5 2.1-1.9 2.1-1.1 0-1.9-.2-2.8.3-2.2 1.3-4.1 2.9-6.6 3.9 2.4 0 4.8.1 7.3.1.8 0 2.3-.2 3 .1.6.4 1.2 3.5-.3 3.5z"/></g><path class="st25" d="M129 82.8c-3-.1-6-.1-9-.2-1.9 0-3.8-.1-5.7-.1-1.8 0-2.5.5-2.9 2.5-.8 3.4 1.5 6.2 4.7 7 3.9 1 7.1-.7 10.5-2.2 2.8-1.2 2.4 2.7 1.2 4.1-1.9 2.1-6.5 2.5-9.2 2.5-7.4 0-14.7-6.2-11.8-14.1-1.2.2-1.6-.6-1.6-1.7 0-1.4.6-1.6 1.8-1.7.6 0 1.2.1 1.8 0 .7-.1 1.1-.7 1.7-1.2 1.9-1.3 4.1-2.2 6.2-3.2-1.9 0-3.8-.1-5.7-.1-1.2 0-4.3.5-5.3-.3-.6-.5-.6-2.4.1-2.9.4-.4.8-.2 1.3-.2 2.2-.2 4.6.1 6.8.1 2.3 0 4.7.3 7 .1.3 0 .8.1 1.1 0 1.6-.8 1.4-4 .8-5.3-2-4.2-7.6-3.5-11-1.7-1.1.6-2.3 1.8-3 .1-.5-1.2 0-3 1.1-3.8 3.3-2.5 9.6-2.2 13.1-.5 4.2 2 6.1 6.8 4.8 11.3 1.2 0 2.1-.2 2.4 1.1.4 1.4-.3 2.2-1.5 2.3-1.2.1-2.2-.2-3.2.3-1.2.6-2.1 1.7-3.3 2.4-1.1.6-2.1 1.1-3.3 1.5 2.6 0 5.3.1 7.9.1.7 0 2-.2 2.6.1.8.8 1 3.7-.4 3.7z"/><path class="st26" d="M118.2 45.8c-18-.3-32.8 14-33.1 32-.3 18 14 32.8 32 33.1 18 .3 32.8-14 33.1-32s-14-32.7-32-33.1zm-1 62.3c-16.4-.3-29.4-13.8-29.1-30.1s13.8-29.4 30.1-29.1c16.4.3 29.4 13.8 29.1 30.1s-13.8 29.3-30.1 29.1z"/><linearGradient id="SVGID_10_" gradientUnits="userSpaceOnUse" x1="-381.578" y1="542.354" x2="-355.608" y2="566.572" gradientTransform="rotate(31.892 741.66 1157.717)"><stop offset="0" stop-color="#f8ff61" stop-opacity=".9"/><stop offset="1" stop-color="#f9ff73" stop-opacity="0"/></linearGradient><path class="st27" d="M117.8 76.4c-12.4.1-22.6-7.6-22.7-17.2-.1-9.6 9.9-17.5 22.4-17.6 12.4-.1 22.6 7.6 22.7 17.2s-9.9 17.4-22.4 17.6z"/></g><ellipse class="st18" cx="117.7" cy="118.7" rx="18.6" ry="5.3"/></svg>