<svg id="Слой_1" xmlns="http://www.w3.org/2000/svg" viewBox="0 0 147 147"><style>.st0{opacity:.15}.st1,.st2{fill-rule:evenodd;clip-rule:evenodd}.st2{fill:#fff}</style><g class="st0"><path class="st1" d="M73.5 147C33.5 147 1 114.5 1 74.5S33.5 2 73.5 2 146 34.5 146 74.5 113.5 147 73.5 147zM48 108c0 2.2 1.8 4 4 4h45c2.2 0 4-1.8 4-4V78L77.8 57.1c-1.9-1.7-4.8-1.7-6.7 0L48 78v30zm68.6-34L77.3 38.9c-.8-.7-1.8-1.1-2.8-1.1-1 0-2 .4-2.8 1.1L58 51V40c0-1.4-1.2-3-2.6-3h-4.9c-1.4 0-2.5 1.6-2.5 3v19c0 .4 0 .6.2.9L32.4 74c-.9.8-1.4 1.9-1.4 3.1 0 1.2.5 2.3 1.4 3.1l1.7 1.5c.8.7 1.8 1.1 2.8 1.1 1 0 2-.4 2.8-1.1l30.9-27.6c1.1-1 2.5-1.5 3.9-1.5s2.8.5 3.9 1.5l30.9 27.6c.8.7 1.8 1.1 2.8 1.1 1 0 2-.4 2.8-1.1l1.7-1.5c.9-.8 1.4-1.9 1.4-3.1 0-1.2-.5-2.3-1.4-3.1zm-48.7 26H56c-1.1 0-2-.9-2-2V86c0-1.1.9-2 2-2h11.9c1.1 0 2 .9 2 2v12c.1 1.1-.8 2-2 2zM81 84h11.9c1.1 0 2 .9 2 2v12c0 1.1-.9 2-2 2H81c-1.1 0-2-.9-2-2V86c0-1.1.9-2 2-2z"/></g><path class="st2" d="M73.5 145C33.5 145 1 112.5 1 72.5S33.5 0 73.5 0 146 32.5 146 72.5 113.5 145 73.5 145zM48 106c0 2.2 1.8 4 4 4h45c2.2 0 4-1.8 4-4V76L77.8 55.1c-1.9-1.7-4.8-1.7-6.7 0L48 76v30zm68.6-34L77.3 36.9c-.8-.7-1.8-1.1-2.8-1.1-1 0-2 .4-2.8 1.1L58 49V38c0-1.4-1.2-3-2.6-3h-4.9c-1.4 0-2.5 1.6-2.5 3v19c0 .4 0 .6.2.9L32.4 72c-.9.8-1.4 1.9-1.4 3.1 0 1.2.5 2.3 1.4 3.1l1.7 1.5c.8.7 1.8 1.1 2.8 1.1 1 0 2-.4 2.8-1.1l30.9-27.6c1.1-1 2.5-1.5 3.9-1.5s2.8.5 3.9 1.5l30.9 27.6c.8.7 1.8 1.1 2.8 1.1 1 0 2-.4 2.8-1.1l1.7-1.5c.9-.8 1.4-1.9 1.4-3.1 0-1.2-.5-2.3-1.4-3.1zM67.9 98H56c-1.1 0-2-.9-2-2V84c0-1.1.9-2 2-2h11.9c1.1 0 2 .9 2 2v12c.1 1.1-.8 2-2 2zM81 82h11.9c1.1 0 2 .9 2 2v12c0 1.1-.9 2-2 2H81c-1.1 0-2-.9-2-2V84c0-1.1.9-2 2-2z"/></svg>