<svg id="Слой_1" xmlns="http://www.w3.org/2000/svg" viewBox="0 0 230 230"><style>.st0,.st1,.st2,.st3,.st4{fill-rule:evenodd;clip-rule:evenodd;fill:url(#SVGID_1_)}.st1,.st2,.st3,.st4{fill:url(#SVGID_2_)}.st2,.st3,.st4{fill:url(#SVGID_3_)}.st3,.st4{fill:url(#SVGID_4_)}.st4{fill:url(#SVGID_5_)}.st5{opacity:.2;fill:#fff}.st6,.st7{fill-rule:evenodd;clip-rule:evenodd}.st6{opacity:.41;fill:#fff}.st7{fill:url(#SVGID_6_)}.st8{fill:none}.st9{fill:url(#SVGID_7_)}.st10{fill:url(#SVGID_8_)}.st11{fill:url(#SVGID_9_)}.st12{fill:url(#SVGID_10_)}.st13{opacity:.15;fill:#020202}.st14{fill:url(#SVGID_11_)}.st15{fill:#fcefc3}.st16{fill:url(#SVGID_12_)}.st17{fill:url(#SVGID_13_)}.st18{fill:url(#SVGID_14_)}.st19{fill:url(#SVGID_15_)}.st20{fill:#ffde80}.st21{fill:url(#SVGID_16_)}.st22{fill:url(#SVGID_17_)}.st23{fill:url(#SVGID_18_)}.st24{fill:url(#SVGID_19_)}.st25{fill:url(#SVGID_20_)}.st26{opacity:.77}.st27{fill:#b67f4f}.st28{fill:#7a3d1c}.st29,.st30{opacity:.77;fill:#b67f4f}.st30{fill:#7a3d1c}.st31{fill-rule:evenodd;clip-rule:evenodd;fill:#895837}.st32{fill:#754c24}.st33{fill:url(#SVGID_21_)}.st34{fill-rule:evenodd;clip-rule:evenodd;fill:url(#SVGID_22_)}</style><linearGradient id="SVGID_1_" gradientUnits="userSpaceOnUse" x1="119.117" y1="87.129" x2="119.117" y2="212.029"><stop offset="0" stop-color="#d9975b"/><stop offset=".551" stop-color="#7c4428"/><stop offset="1" stop-color="#48260b"/></linearGradient><path class="st0" d="M187.2 165.9c-27.7 45.8-58.9 46.2-71.8 46.2-12.9 0-47.5-10-66.5-48.4-4.5-9.1-7.1-18.2-8.5-26.8-2.3-15.2-.7-28.8 1.3-37.9.1-.6.2-1.1.4-1.6.6-2.7 1.2-4.8 1.7-6.5.1-.3.2-.5.2-.8.6-1.9 1-2.9 1-2.9l53.3.3 95 .5c0-.2 16.2 30.3-6.1 77.9z"/><linearGradient id="SVGID_2_" gradientUnits="userSpaceOnUse" x1="119.14" y1="109.437" x2="119.14" y2="66.732"><stop offset="0" stop-color="#7c4428"/><stop offset="1" stop-color="#d9975b"/></linearGradient><path class="st1" d="M193.7 88l-3.7 7.2-7.9 2.2-7.5 2.8-7.4 3.2-7.8 2.5-8.3-.9-7.8 3.2-8.2-.4-8.2-1.1-8 2.7-8.2-1.4-8.1.3h-8.2l-8.1-.9-7.7-3-7.8-2.1-8-1.2-7.1-3.7-7.6-2.8-3.5-6.6 3.8-6.2 7-3.7 7.1-4 8.1-1.2 7.7-3.1 8.4 1.3 7.7-3.3 8.2-.1 8.1-1 8.2.1 8.1.9 8 1.4 8.1.6 8 1 8.3-.9 7.6 3.5 8.1 1.1 7.8 2.4 6.9 4.5z"/><linearGradient id="SVGID_3_" gradientUnits="userSpaceOnUse" x1="119.15" y1="108.025" x2="119.15" y2="68.105"><stop offset="0" stop-color="#d6dbde"/><stop offset="1" stop-color="#fff"/></linearGradient><path class="st2" d="M111.1 106.7l-8.1.2-7.8.1-7.6-1-7.5-2.9-7.7-2.2-7.6-1.1-6.9-3.7-6.9-2.6-2.8-5.4 3.1-5.2 6.5-3.6 6.7-3.9 7.8-1.2 7.2-2.9 8.2 1.3 7.7-3.4 7.7-.1 7.9-1h7.8l7.8.9 7.8 1.5 7.9.6 7.9 1 7.9-.9 7.2 3.5 8 1 7.3 2.4 6.2 4.1 3.3 5.9-2.9 5.9-7.2 2.1-7.4 2.8-7.2 3.2-7.3 2.4-8.1-.9-7.6 3.2-7.7-.4-8.1-1.1-7.8 2.7z"/><linearGradient id="SVGID_4_" gradientUnits="userSpaceOnUse" x1="119.173" y1="103.777" x2="119.173" y2="72.226"><stop offset="0" stop-color="#b8bdbf"/><stop offset=".303" stop-color="#c2c7c9"/><stop offset=".721" stop-color="#d6dbde"/><stop offset="1" stop-color="#e7eaec"/></linearGradient><path class="st3" d="M182.2 88.2c-.1.1-.1.1 0 0l-1.1 2.3-5.4 1.6-7.3 3-4.5 2.1-2.2 1-5.5 1.8-.5.2-7.9-.9-1.9.8-5.4 2.4-1.9-.1-4.3-.2-8.5-1.2-7.3 2.7-6.7-1.3-8.1.3h-7.1l-6.5-.8-6.8-2.9-7.8-2.3-6.8-1.1-6.1-3.5-5.4-2.2-1-2 1.3-2.3 5.2-3.1 5.8-3.5 7.1-1.1 6.3-2.7 7.8 1.3 7.6-3.6 6.8-.1 7.5-1h6.9l7.1.9 7.5 1.4 7.6.6 7.9 1 5.4-.6 1.4-.2 3.6 1.8 2.8 1.4 6.1.9 1.7.2 3.5 1.2 2.6.9 4.7 3.3 1.8 3.6z"/><linearGradient id="SVGID_5_" gradientUnits="userSpaceOnUse" x1="119.626" y1="103.773" x2="119.626" y2="84.515"><stop offset="0" stop-color="#009ee9"/><stop offset="1" stop-color="#7fd9ff"/></linearGradient><path class="st4" d="M182.1 88.3l-1 2.3-5.4 1.6-7.3 3-4.5 2.1-2.2 1-5.5 1.8-.5.2-7.9-.9-1.9.8-5.4 2.4-1.9-.1-4.3-.2-3.2-.5-5.3-.8-7.3 2.7-.4-.1-6.3-1.2-6.1.2-2 .1h-7.1l-6.5-.8-6.8-2.9-7.8-2.3-6.8-1.1-6.1-3.5-5.4-2.2c19.8-2.7 39.4-5.6 65.8-5.6 4.9 0 10 .1 15.1.4 7.1.3 14.2.8 21.1 1.3 2 .2 4 .3 5.9.5 6.2.8 11.9 1.3 17 1.8z"/><path class="st5" d="M182.1 88.3l-1 2.3-5.4 1.6-7.3 3-4.5 2.1-2.2 1-5.5 1.8-.5.2-7.9-.9-1.9.8-5.4 2.4-1.9-.1-4.3-.2-3.2-.5 34-15.1c6.2.6 11.9 1.1 17 1.6zM159.2 86.2L118 103.7l-6.3-1.2-6.1.2L138 84.8c7.1.4 14.3.9 21.2 1.4z"/><path class="st6" d="M59.7 91.2c18.9-2.6 38-5.3 63.3-5.3 19.4 0 42.3 2.2 58.6 3.7l.6-1.3c-16.3-1.6-39.6-3.8-59.2-3.8-26.4 0-46 2.9-65.8 5.6l2.5 1.1z"/><linearGradient id="SVGID_6_" gradientUnits="userSpaceOnUse" x1="177.184" y1="63.337" x2="181.996" y2="66.087"><stop offset="0" stop-color="#f07a7a"/><stop offset=".251" stop-color="#ffa9a9"/><stop offset="1" stop-color="#f14738"/></linearGradient><path class="st7" d="M202.8 29.2l-.1.1-20.1 35.2-2 3.5-7.4 12.9-1.3 2.5-8 13.9-2.2 1-5.4 1.8 10.5-18.4 1.3-2.2 8-14.1 2-3.4 20.1-35.3h.1l4.4 2.5h.1z"/><path class="st8" d="M204.6 19.9l1-.7-1.8.6c.2 0 .5 0 .8.1z"/><path class="st8" d="M205.4 20.4l.1-1.2-1 .7c.4.1.7.2.9.5zM206 21l-.4-1.9-.1 1.2c.1.3.3.5.5.7z"/><linearGradient id="SVGID_7_" gradientUnits="userSpaceOnUse" x1="193.245" y1="41.46" x2="154.101" y2="17.907"><stop offset="0" stop-color="#ff6634"/><stop offset="1" stop-color="#ffffc1"/></linearGradient><path class="st9" d="M204.6 19.9l-3 2.2-17 12.4-13.2 9.5-3.8 2.8-5.7 4.1c-1-.8-2-1.5-2.9-2.3-.7-.5-1.4-1.1-2.1-1.7-1.6-1.3-3.1-2.6-4.6-4-1.7-1.5-3.4-3.1-5-4.7l53.9-17.7 2.7-.9c.1.2.4.2.7.3z"/><linearGradient id="SVGID_8_" gradientUnits="userSpaceOnUse" x1="-204.481" y1="436.811" x2="-213.609" y2="429.205" gradientTransform="rotate(29.75 748.063 948.75)"><stop offset="0" stop-color="#ff6634"/><stop offset="1" stop-color="#ffffc1"/></linearGradient><path class="st10" d="M203.6 19.8l-2.5.8-54.9 16.7-2.6-2.6c-1.8-1.9-1.1-5.4 1.1-5.4 16.7.2 36.6-4.2 56.4-9 .7-.2 1.4-.3 2.1-.5h.4z"/><linearGradient id="SVGID_9_" gradientUnits="userSpaceOnUse" x1="228.863" y1="38.041" x2="203.643" y2="63.261"><stop offset="0" stop-color="#ff6634"/><stop offset="1" stop-color="#ffffc1"/></linearGradient><path class="st11" d="M223.6 80.4c-1.2-.3-2.3-.6-3.5-.9L212.5 48 210 37.8l-.4-1.5-1.7-7.1-1.3-5.4-.6-2.6c.1.2.1.3.2.5.2.7.4 1.4.6 2 .6 2 1.2 4 1.8 5.9.7 2.2 1.3 4.3 2 6.4.2.5.3 1 .5 1.5 1.1 3.4 2.2 6.8 3.4 10.1 3.8 10.8 8.1 20.9 13.1 29.2 1.3 1.9-1.4 4.2-4 3.6z"/><linearGradient id="SVGID_10_" gradientUnits="userSpaceOnUse" x1="-157.274" y1="430.684" x2="-173.627" y2="440.125" gradientTransform="rotate(29.75 748.063 948.75)"><stop offset="0" stop-color="#ff6634"/><stop offset="1" stop-color="#ffffc1"/></linearGradient><path class="st12" d="M218.7 79.1c-6.2-1.7-12.3-3.8-18.3-6.2l4.7-48.9.4-3.7c.2.2.4.4.5.7l.6 2.7 12.1 55.4z"/><path class="st13" d="M202.7 29.3L180.6 68c-1.5-.8-3-1.7-4.5-2.6l22.1-38.7.1-.1 1.3-1 3-2.3c.3.1.6.3.8.5l-.5 3.8-.2 1.6v.1z"/><linearGradient id="SVGID_11_" gradientUnits="userSpaceOnUse" x1="209.718" y1="44.76" x2="163.175" y2="52.967"><stop offset="0" stop-color="#ff6634"/><stop offset="1" stop-color="#ffffc1"/></linearGradient><path class="st14" d="M205.4 20.3l-.5 3.8-.6 5.1-1 8.3-.2 1.7-1.4 11.1-2.7 22.1c-10.1-4.2-19.7-9.3-28.7-15.4-2.5-1.7-4.9-3.4-7.3-5.2l7.2-5.5 3.5-2.7 12.4-9.5 15.5-11.9 3-2.3c.3.1.6.2.8.4z"/><path class="st5" d="M167.5 46.8l-5.7 4.1c-1-.8-2-1.5-2.9-2.3l8.6-1.8z"/><path class="st15" d="M206 21.2l-.5-2 .5 1.8v.2z"/><linearGradient id="SVGID_12_" gradientUnits="userSpaceOnUse" x1="-143.058" y1="457.176" x2="-140.381" y2="457.176" gradientTransform="rotate(29.75 748.063 948.75)"><stop offset=".036" stop-color="#a85e32"/><stop offset=".339" stop-color="#e8bd85"/><stop offset=".715" stop-color="#ffe8c3"/><stop offset="1" stop-color="#fff6e7"/></linearGradient><path class="st16" d="M219.2 81.6l1.3-.3-.4-1.7c-.5-.1-1-.2-1.4-.4l.5 2.4z"/><path class="st15" d="M205.4 20.4l.1-1.2-.1 1.2z"/><linearGradient id="SVGID_13_" gradientUnits="userSpaceOnUse" x1="-163.424" y1="460.843" x2="-161.664" y2="460.843" gradientTransform="rotate(29.75 748.063 948.75)"><stop offset=".036" stop-color="#a85e32"/><stop offset=".339" stop-color="#e8bd85"/><stop offset=".715" stop-color="#ffe8c3"/><stop offset="1" stop-color="#fff6e7"/></linearGradient><path class="st17" d="M198.9 73.7l1.4.1.1-.9c-.4-.2-.9-.4-1.3-.5l-.2 1.3z"/><linearGradient id="SVGID_14_" gradientUnits="userSpaceOnUse" x1="-228.031" y1="457.176" x2="-225.355" y2="457.176" gradientTransform="rotate(29.75 748.063 948.75)"><stop offset=".036" stop-color="#a85e32"/><stop offset=".339" stop-color="#e8bd85"/><stop offset=".715" stop-color="#ffe8c3"/><stop offset="1" stop-color="#fff6e7"/></linearGradient><path class="st18" d="M144.4 37.8l.4 1.3 2.4-.8c-.4-.3-.7-.7-1.1-1.1l-1.7.6z"/><path class="st15" d="M205.6 19.2l-2 .6h.1l1.9-.6z"/><linearGradient id="SVGID_15_" gradientUnits="userSpaceOnUse" x1="-206.749" y1="460.842" x2="-204.989" y2="460.842" gradientTransform="rotate(29.75 748.063 948.75)"><stop offset=".036" stop-color="#a85e32"/><stop offset=".339" stop-color="#e8bd85"/><stop offset=".715" stop-color="#ffe8c3"/><stop offset="1" stop-color="#fff6e7"/></linearGradient><path class="st19" d="M161.1 51.5l.8 1.1 1-.8c-.4-.3-.8-.6-1.1-.8l-.7.5z"/><path class="st15" d="M204.6 19.9l1-.7-1 .7z"/><path class="st20" d="M220.1 79.5c-.5-.1-1-.3-1.5-.4l-12.1-55.4-.5-2.7.1.1.6 2.6 13.4 55.8zM200.3 73c-.4-.2-.9-.4-1.3-.5l5.9-48.3.5-3.8-.4 3.7-4.7 48.9zM203.7 19.8l-2.7.9-53.9 17.7c-.4-.3-.7-.7-1.1-1l54.9-16.7 2.5-.8c.2-.1.3-.1.3-.1zM204.6 19.9l-3 2.3L163 51.8c-.4-.3-.8-.6-1.1-.8l39.7-28.9 3-2.2z"/><path class="st13" d="M206.8 23.6c-.1 0-.1.1-.2.1h-.1c-.5.2-1 .3-1.5.3h-.1c-.7 0-1.3-.2-1.9-.5-.6-.3-1.1-.8-1.4-1.4 0 0 0-.1-.1-.1-.3-.4-.4-.9-.5-1.4v-.1-.2c.7-.2 1.4-.3 2.1-.5.2 0 .3 0 .5-.1h.1c.3 0 .6 0 .8.1.3.1.6.3.8.5.2.2.4.4.5.7l.1.1c.1.2.1.3.2.5.3.7.5 1.4.7 2z"/><radialGradient id="SVGID_16_" cx="-186.643" cy="408.466" r="7.102" gradientTransform="rotate(29.75 748.063 948.75)" gradientUnits="userSpaceOnUse"><stop offset="0" stop-color="#e4554f"/><stop offset="1" stop-color="#ad2a27"/></radialGradient><circle class="st21" cx="205.7" cy="19" r="4"/><radialGradient id="SVGID_17_" cx="-228.856" cy="457.564" r="2.404" gradientTransform="rotate(29.75 748.063 948.75)" gradientUnits="userSpaceOnUse"><stop offset="0" stop-color="#e4554f"/><stop offset="1" stop-color="#ad2a27"/></radialGradient><circle class="st22" cx="144" cy="38.6" r="1.3"/><radialGradient id="SVGID_18_" cx="-207.573" cy="461.354" r="2.404" gradientTransform="rotate(29.75 748.063 948.75)" gradientUnits="userSpaceOnUse"><stop offset="0" stop-color="#e4554f"/><stop offset="1" stop-color="#ad2a27"/></radialGradient><circle class="st23" cx="160.6" cy="52.4" r="1.3"/><radialGradient id="SVGID_19_" cx="-162.858" cy="461.449" r="2.404" gradientTransform="rotate(29.75 748.063 948.75)" gradientUnits="userSpaceOnUse"><stop offset="0" stop-color="#e4554f"/><stop offset="1" stop-color="#ad2a27"/></radialGradient><circle class="st24" cx="199.3" cy="74.7" r="1.3"/><radialGradient id="SVGID_20_" cx="-141.587" cy="457.564" r="2.404" gradientTransform="rotate(29.75 748.063 948.75)" gradientUnits="userSpaceOnUse"><stop offset="0" stop-color="#e4554f"/><stop offset="1" stop-color="#ad2a27"/></radialGradient><circle class="st25" cx="219.7" cy="81.9" r="1.3"/><g><g class="st26"><path class="st27" d="M86 196.3C56.4 178 41.5 140.4 46.9 104c.5 35.5 13.7 69.7 39.1 92.3z"/></g><g class="st26"><path class="st28" d="M84.6 197.4c-29.7-18.2-44.5-55.9-39.1-92.3.5 35.5 13.7 69.6 39.1 92.3z"/></g><path class="st29" d="M95.8 198.1c-22.1-22-39.9-54-35.2-86.1 1.1 31.6 17.6 60.7 35.2 86.1z"/><path class="st30" d="M94 198.1c-22.1-22-39.9-54-35.2-86.1 1.2 31.6 17.6 60.7 35.2 86.1z"/><path class="st29" d="M111.1 205.1c-21-24.6-38-57.6-33.7-90.7 1.6 32.7 17.5 63.1 33.7 90.7z"/><path class="st30" d="M109.7 205.1c-21-24.6-38-57.6-33.7-90.7 1.6 32.7 17.5 63.1 33.7 90.7z"/><path class="st29" d="M115.9 205.1c-12.3-26.5-21.5-56.3-18.8-85.7 3.1 29.2 11.8 57.4 18.8 85.7z"/><path class="st30" d="M114.5 205.1c-12.3-26.5-21.5-56.3-18.8-85.7 3.2 29.2 11.8 57.4 18.8 85.7z"/><g class="st26"><path class="st27" d="M152.8 196.3c29.7-18.2 44.5-55.9 39.1-92.3-.5 35.5-13.7 69.7-39.1 92.3z"/></g><g class="st26"><path class="st28" d="M154.2 197.4c29.7-18.2 44.5-55.9 39.1-92.3-.4 35.5-13.7 69.6-39.1 92.3z"/></g><path class="st29" d="M143.1 198.1c22.1-22 39.9-54 35.2-86.1-1.2 31.6-17.6 60.7-35.2 86.1z"/><path class="st30" d="M144.8 198.1c22.1-22 39.9-54 35.2-86.1-1.2 31.6-17.6 60.7-35.2 86.1z"/><path class="st29" d="M127.7 205.1c21-24.6 38-57.6 33.7-90.7-1.6 32.7-17.5 63.1-33.7 90.7z"/><path class="st30" d="M129.1 205.1c21-24.6 38-57.6 33.7-90.7-1.6 32.7-17.5 63.1-33.7 90.7z"/><path class="st29" d="M122.9 205.1c12.3-26.5 21.5-56.3 18.8-85.7-3.1 29.2-11.8 57.4-18.8 85.7z"/><path class="st30" d="M124.3 205.1c12.3-26.5 21.5-56.3 18.8-85.7-3.2 29.2-11.8 57.4-18.8 85.7z"/><path class="st29" d="M120.8 206c-2.9-28.7-2.8-57.8 0-86.5 2.8 28.7 2.8 57.8 0 86.5z"/><path class="st30" d="M119.4 206c-2.9-28.7-2.8-57.8 0-86.5 2.8 28.7 2.8 57.8 0 86.5z"/><g><path class="st31" d="M167.4 186.6c1.3 1.1 13.5-18.8 14.4-20.6 4.9-9.5 8.2-19.8 10.9-30.1 1.2-4.6 2.1-9.4 2.9-14.1.8-5.1 1.5-10.3 1.2-15.4 0-.7-1.5-10.3-2.1-9.9.3-.1 1.3 9.3 1.3 10 .1 5.1-.7 10.2-1.6 15.1-.9 4.7-1.8 9.4-3.1 14-2.8 10.2-6.1 20.3-10.8 29.8-.8 1.8-12.9 21.4-13.1 21.2.1 0 0-.1 0 0z"/><path class="st31" d="M195.9 99.6c-.6-1.2-5.8 6.9-6.1 7.6-1.7 4-2.5 8.5-3.1 12.8-1.3 8.6-2.2 16.9-4.8 25.2-2.8 8.9-6.2 17.7-10.4 26.1-.4.7-9.2 15.5-9.3 15.4.7.7 10.5-15.4 11.1-16.5 4.3-8.4 7.8-17.2 10.6-26.2 2.3-7.5 3-14.9 4-22.7.6-4.3 1.2-8.6 2.6-12.7.1-.8 5-9.7 5.4-9 0-.1 0 0 0 0z"/><path class="st31" d="M177.6 180.7c-.6.3-1.1-8.9-1.1-9.1.2-3.5 1-6.9 1.8-10.3 1.3-5 3-9.9 4.7-14.7 2.5-7.1 5-14.1 6.4-21.6.6-3.5 1.1-7 1-10.6 0-.3-1.4-9.8-2.5-9 .4-.3 1.7 8.2 1.7 8.5 0 3.6-.5 7.3-1.3 10.8-1.5 7.4-4.1 14.5-6.5 21.6-1.7 4.8-3.3 9.7-4.5 14.6-.8 3.3-1.5 6.7-1.6 10.2 0 .8.9 10.2 1.9 9.6.1-.1 0 0 0 0z"/><path class="st31" d="M159.7 199.8c-1 0 5.8-15.4 6.4-16.4 3.9-6.4 8.1-12.9 12.5-19 2.4-3.4 5-6.7 7.4-10.2.7-1 9.8-16.8 8.1-17.1.8.1-7.6 14.7-8.3 15.6-2.6 3.7-5.5 7.2-8.1 10.9-4.3 5.8-8.3 12-12 18.2-.7 1.1-8.1 18.2-6 18 0 0-.1 0 0 0z"/><path class="st31" d="M183.8 100.9c.2-.1 2.4 9.3 2.4 10 .6 5.2.3 10.4-.3 15.6-.9 6.9-2.7 13.5-4.5 20.1-2.3 8.6-4.8 17.2-7.7 25.7-1.7 4.9-3.4 9.9-5.5 14.6-.8 1.8-1.6 4.1-3 5.6.2-.3-3.1 2.7-2.9 1.7.1-.1 2.4-.5 3.2-1.4 1.4-1.5 2.4-3.7 3.3-5.6 2.3-4.7 4.2-9.6 5.9-14.5 3-8.4 5.6-17 7.9-25.7 2-7.4 3.9-14.8 4.6-22.5.4-4.9.5-10-.4-14.9 0-.6-2.4-9.1-3-8.7-.1.1.1 0 0 0z"/><path class="st31" d="M160.9 201.2c.1 0 1.9-14.5 2.2-15.9 1.8-7.7 4.1-15.3 6.3-22.8 2.1-7.1 4.2-14.3 6-21.5.8-3.1 1.6-6.3 2-9.4.2-1.4.3-2.7.2-4.1 0-.3-.8-1.7-.9-1.5-.2.5.2 4.4 0 5.5-.5 2.8-1.4 5.6-2.1 8.4-2.1 7.4-4.3 14.8-6.5 22.2-2.1 7.3-4.2 14.7-5.9 22.1-.3 1.4-2.2 17.4-1.3 17 0 0-.1 0 0 0z"/><path class="st31" d="M177.1 97.8c.3-.2 3.7 11.7 3.8 12.3 1 6.2.8 12.4.5 18.7-.3 5.9-.6 11.8-1.6 17.7-.1.8-4.3 13.4-4.9 12.7.7 1 5.6-10.6 5.8-11.7 1.4-6.1 1.8-12.4 2-18.6.3-6 .3-12-.7-17.9 0-1.5-3.9-14-4.9-13.2 0 0 .1-.1 0 0zM159 204.6c-.7.1.7-17.3.9-18.6 1.6-8.8 4.2-17.5 6.8-26 2.5-8.4 5.1-16.8 6.4-25.4.6-3.9 1-7.9.8-11.9 0-.7-1.4-9.9-2.2-9.5 1.2-.5.6 18.8.4 20.3-1.4 8.6-4 16.9-6.5 25.2s-5 16.8-6.6 25.4c-.1 1.5-1.7 20.9 0 20.5.1 0 0 0 0 0zM161.6 110.8c1-.4 2.1 20.7 2 22.4-.5 8.5-1.8 17-2.6 25.4-1 9.6-2.8 18.9-5.6 28.2-.7 2.3-1.3 4.7-2.1 7-.3.8-3.8 8.7-3.7 8.9 0 .1 4.2-7.8 4.5-8.6 1-2.8 1.9-5.7 2.8-8.5 2.9-9.1 4.6-18.4 5.5-27.9.7-6.8 1.5-13.6 2.1-20.4.4-5.3.6-10.7-.1-16.1 0-.6-2.1-10.7-2.8-10.4-.1.1.1 0 0 0z"/><path class="st31" d="M147.3 207.4c-.9 0 4.2-21.1 4.7-22.8 2.2-7.2 4.5-14.3 6.2-21.7 2-8.4 4.8-16.5 6.8-24.9 1-4.3 1.9-8.8 2.3-13.2.1-.7-.3-12.5-1.2-12.1 1.4-.4-1.5 21.4-1.9 23-2.2 9-5.3 17.8-7.4 26.9-1.7 7.3-3.9 14.4-6 21.6-.6 2-5.4 23.3-3.5 23.2.1 0-.1 0 0 0zM152.2 114.9c.7-.3 3.6 19.2 3.6 20.8.2 9-1.3 17.9-3.4 26.6-.8 3.5-13.7 46.2-13.1 46.4.8.2 13-40.4 13.9-43.9 2.4-9.5 4.1-19.3 3.7-29.1 0-1.6-3.2-21.5-4.7-20.8-.1 0 .1 0 0 0z"/><path class="st31" d="M144.1 210c-.5.1 2.3-18.3 2.7-19.8 2.3-8.5 5.6-16.7 8.7-24.9 3-7.9 6-16 7.3-24.4.2-1.4.8-19.7-.8-19.3.9-.2-.2 18.4-.5 19.9-1.7 8.6-4.8 16.9-8 25.1-3 7.9-6.1 15.8-8.1 24.1-.2 1.5-2.7 19.5-1.3 19.3.1 0-.1 0 0 0z"/><path class="st31" d="M158.7 111.8c.4-.1 0 23.1-.2 25.1-1 8.6-3.1 16.9-5.5 25.3-1.8 6.4-3.5 12.8-4.7 19.3-.9 5-1.6 10.1-1.3 15.2 0 .6 1.6 10.2 2.3 9.8-.3.1-1.5-9.1-1.5-9.8-.1-5 .7-10 1.7-14.9 1.3-6.4 3.1-12.8 4.8-19.2 2.4-8.4 4.5-16.8 5.4-25.5.2-2.1.7-25.5-1-25.3-.1 0 0 0 0 0zM147.1 120.8c1.2-.5 2.7 18.6 2.6 20.1-.5 8.9-1.8 18.1-3.5 26.9-1.7 8.5-4.5 16.6-7.2 24.8-1.2 3.7-2.2 7.5-3.6 11.1-.2.5-3.5 7.1-3.7 6.8.6.8 4.9-7.9 5-8.2 1.3-3.3 2.3-6.8 3.5-10.2 2.9-8.2 5.7-16.5 7.4-25.1 1.6-8.5 2.8-17.4 3.1-26.1.1-1.4-1.7-21.1-3.6-20.1 0 0 0-.1 0 0zM130.4 211.8c-1.1.6.7-8.8.9-9.3 1.4-4.1 2.5-8.1 3.3-12.5 1.5-8.7 2.9-17.4 4.6-26 1.6-8.5 2.9-17.2 2.7-25.9-.1-5-.2-12.6-3.3-16.8-.1.2-1.2 2-.9 2.1 0 0 .7-1.2.8-1.3 4.6 14.7 1.4 30.9-1.6 45.6-1.6 8-2.5 16-3.9 24-.6 3.6-1.5 7-2.6 10.5-.1.4-1.8 10.5 0 9.6zM131.7 113.5s2.5 9 2.6 9.8c.7 4.1.6 8.1-.2 12.2-1.8 9.4-6.3 18-8.9 27.1-2.7 9.6-3.5 19.7-2.7 29.6.2 2 3.1 21.7 4.1 21.4-.4.1-2.9-20.9-3-22.4-.4-9.8.5-19.6 3.3-29 2.5-8.3 6.4-16.3 8.2-24.8.9-4.2 1.1-8.5.4-12.8-.2-.9-3-11.4-3.8-11.1-.1.1 0 0 0 0z"/><path class="st31" d="M127.3 209c-.5.8-3.7-7-3.8-7.3-.8-3.6-.6-7.6-.3-11.3.8-8.2 3.3-15.9 5.2-23.8 3.5-14.1 4.8-29.3 3.8-43.9 0 .1 1.6.9 1.5 1 .2-.2-1.5-1.5-1.7-1.6-1.5 1.9-.6 9.8-.7 12-.5 9.4-1.4 18.8-3.3 28.1-1.8 8.8-4.9 17.3-5.8 26.3-.4 4.1-.6 8.5.3 12.6.1.9 4.1 9.1 4.8 7.9 0-.1-.1 0 0 0z"/><path class="st31" d="M123.2 113.3c.5-.3 2.7 10.9 2.8 11.7.3 4.4-.3 8.9-1 13.3-.9 5.1-2.1 10.1-3.1 15.1-2 10.2-3.1 21-3.2 31.4 0 4.7.6 8.9 1.7 13.5.2.7 2.3 12 2 12 .5.1-2.4-19.7-2.5-21.4-.3-9.4 1-19 2.3-28.3 1.1-8.4 3.4-16.6 4.5-25.1.5-4.2.7-8.4.1-12.6-.2-.6-2.7-10.2-3.6-9.6 0 0 .1 0 0 0zM116.7 210.7c-.3.2-2.8-10.5-2.9-11.3-.4-4.3-.2-8.6.3-12.9.7-7 2.3-13.8 3.3-20.8.5-3.8 3.6-49.6 1-49.3 1.1-.1-2.2 46.7-2.8 50.6-1 6.4-2.3 12.8-2.9 19.3-.4 4.4-.5 8.8.1 13.2 0 .7 2.8 11.9 3.9 11.2 0-.1 0 0 0 0zM85.4 203.3c-.2.3-6.9-8.4-7.3-9.1-2.1-3.8-3.7-7.8-5-11.9-2.2-6.7-3.6-13.5-5.5-20.3-1.1-3.7-17-46.7-19.3-45.4 1-.5 17.1 43.5 18.2 47.4 1.8 6.3 3.1 12.6 5.3 18.7 1.5 4.1 3.1 8.3 5.5 12 .3.6 7.5 9.7 8.1 8.6.1-.1 0 0 0 0z"/><path class="st31" d="M111.7 211.2c-.8.4-2-19.8-1.8-21.8.7-10 2.7-19.9 3.8-29.9.4-4 2.4-52.4.6-52.4.1 0-1.7 47.5-2.1 51.2-1 9.8-2.9 19.4-3.5 29.2-.1 2 .5 24.5 3 23.7.1 0 0 0 0 0z"/><path class="st31" d="M96.7 112.1c.2-.4 6.9 6.6 7.4 7.4 2.3 3.7 3.4 8.1 4 12.4 1.4 10.6-.5 21.1-1.5 31.6-.9 10 .2 20.3 2.7 30 1.2 4.6 2.6 9.1 4.6 13.3.3.7 5.1 9 5.5 8.6-.7.5-8.1-19.2-8.6-21.3-2.5-10.2-3.5-20.9-2.5-31.4 1-10.3 2.8-20.7 1.2-31.1-.6-3.9-1.6-7.8-3.6-11.3-.6-.9-8.4-9.9-9.2-8.2 0 0 0-.1 0 0z"/><path class="st31" d="M91.2 113.1c.3-.8 7.4 7.7 7.8 8.7 2.1 4.5 2.6 9.6 2.7 14.4.3 8.5-.7 16.9-.3 25.4.5 9.6 1 19.3 3.1 28.7 1 4.7 2.3 9.5 4.8 13.8 1.1 1.9 2.4 3.8 4.2 5.2.3.2 5 2.8 5.2 1.9-.2 1.2-7.3-5.6-7.7-6.2-2.4-3.9-3.6-8.6-4.6-13-2.2-9.8-2.7-19.9-3.2-29.9-.4-8.6.5-17.2 0-25.8-.3-5-.9-10.3-3.3-14.9-.4-.9-7.9-10.1-8.7-8.3-.1.1 0 0 0 0z"/><path class="st31" d="M101.4 203.3c-.1.1-4.1-8.3-4.3-8.9-1.7-4.7-2.7-9.7-3.3-14.7-1-8.5-1.1-17.2-.7-25.8.3-6.4 1.2-12.8 1.4-19.2.2-5.1.3-10.3-.3-15.4-.3-2.1-.5-4.7-1.6-6.5-.4-.7-3.8-2.4-3.6-1.9-.1-.6 3 2.1 3.3 2.7.9 2 .9 4.6 1.1 6.7.3 5.1.1 10.2-.2 15.3-.4 6.1-1.2 12.1-1.5 18.2-.4 8.6-.3 17.5.9 26 .7 5.1 1.8 10.1 3.7 14.9.2.6 4.5 9.1 5.1 8.6 0-.1-.1 0 0 0z"/><path class="st31" d="M74.9 112.2c-.1-1.4 8.9 2.9 9.6 3.7 3 3.3 4.2 8.1 5 12.4 1.9 10.5 1.7 21.4 2.6 32 .9 10.7 2.3 21.5 5.8 31.7.6 1.9 11.2 23.1 12.5 21.7-.1.1-6.3-9.9-6.9-10.9-2.4-4.7-4.1-9.7-5.5-14.8-2.6-9.8-3.7-20-4.5-30.1-.6-7.7-.9-15.5-1.7-23.2-.6-5.4-1.4-11-4-15.8-1.3-2.4-3-4.6-5.5-5.9-.8-.5-7.4-2.1-7.4-.8 0 0 0-.1 0 0z"/><path class="st31" d="M71.9 108.1c.5-1.1 7.9 6.6 8.4 7.4 2.1 3.6 3.1 7.8 3.6 11.9 1.3 9.5.6 19.1 1.6 28.6 1.1 9.7 3.1 19.3 6.1 28.5.6 1.8 7.7 20.7 8.5 20.4 0 0-7.2-20.2-7.6-21.6-2.6-9-4.5-18.2-5.5-27.5-1-9.5-.4-19.2-1.8-28.7-.6-4.2-1.7-8.6-4-12.3-.6-.6-9.1-8-9.3-6.7 0 .1 0 0 0 0zM60 109.7c.1-.1 6.1 9 6.5 9.9 1.9 3.8 3.1 8 3.7 12.2 1.6 9.6.7 19.4 1.7 29.1 1 9.9 3.7 19.6 7.9 28.6.8 1.6 11.2 19.5 12.3 18.5-.3.3-10.3-17.2-11.1-19.1-4-9.3-6.7-19.2-7.5-29.3-.9-9.9-.1-20-2.2-29.8-1-4.5-2.5-8.8-4.9-12.7-.5-.6-5.9-7.9-6.4-7.4 0 0 .1 0 0 0z"/><path class="st31" d="M83.4 202.8c-.4.6-6.6-10.2-7-11.3-1.9-5.5-2.8-11.3-3.4-17.1-.7-6.6-1.2-13.3-2-20-1.1-9.5-2.7-18.6-5.2-27.8-1.2-4.4-2.3-8.9-4.1-13.1-.3-.8-7-11.5-7.8-9.9.5-.9 6.6 9.3 6.9 10.3 1.5 4.1 2.5 8.4 3.6 12.6 2.5 9.5 4 18.9 5.2 28.6.8 6.8 1.3 13.7 2.1 20.5.7 5.5 1.7 11.1 3.7 16.3.5 1.1 7 12.3 8 10.9.1 0 0 0 0 0zM65.9 190.6c.4-.2-2.5-17.4-2.7-19.1-1.1-8.8-2.1-17.6-3.2-26.4-1.1-8.3-2.3-16.7-4.1-24.9-.8-3.5-1.6-7.1-3-10.5-.5-1.2-1-2.8-1.9-3.7.2.2-3.2-2.4-2.9-1.6 0-.3 1.9 1.1 2.1 1.3 1 1.2 1.5 2.8 2.1 4.2 1.1 3.1 1.8 6.4 2.5 9.6 1.7 8.5 2.9 17.1 4 25.7 1.1 8.5 2.1 17 3.3 25.5 0 1.8 3.4 20.1 3.8 19.9.1 0-.1.1 0 0zM83.9 118c0-1.2-3.2 1.9-3.1 1.7-.8 1.1-1.2 2.9-1.4 4.2-.8 4.1-.5 8.6-.2 12.8.7 9.1 2.3 18.2 4.3 27.1 1.9 8.5 4.1 16.9 7 25.1 1.3 3.7 2.6 7.5 4.4 11 .4.8 4.2 7 4.5 6.5-.1.2-4.2-8.1-4.4-8.5-1.3-3.2-2.3-6.5-3.4-9.8-2.7-8.8-5-17.7-6.9-26.7-1.8-8.4-3.4-17-4.2-25.6-.3-3.8-.7-7.8-.1-11.6.2-1.2.3-2.9 1-4-.1 0 2.4-2.6 2.5-2.2 0 0 0 .1 0 0zM108 197.2s-6.2-14.7-6.7-16c-2.3-7-3.9-14.2-4.7-21.5-.8-7-.8-14.1-.1-21.1.1-1.5 3.1-18.1 3.3-18-.9-.3-4.1 15.7-4.3 17-1 7.4-1.1 14.9-.3 22.3.7 7.1 2.3 14.1 4.6 20.9.6 1.3 7.3 17 8.2 16.4.1-.1 0 0 0 0z"/><path class="st31" d="M77.4 193.3c-.1.1-4.8-7.4-5.2-8.2-1.9-4-3.3-8.2-4.5-12.5-1.9-6.6-3.7-13.7-4.6-20.5-1.2-8.7-.4-17.3 1-25.9.1-.7 2.1-11.8 1.9-11.9-.7-.2-3.9 18.1-4.1 19.8-1.1 8.7-.7 17 1.2 25.5 1.2 5.2 2.3 10.4 4 15.5.5 1.8 9.1 19.8 10.3 18.2.1 0 0 .1 0 0zM98.4 207.3c0 .1-5.8-6.8-6.4-7.7-2.4-3.8-4.2-7.8-5.9-11.9-3.2-7.6-6.1-15.4-8.6-23.1-2.9-8.9-4.7-18.5-4.4-27.9.2-4.4.8-8.8 2.3-13 .3-.9 3.6-7.5 3.7-7.4-.5-.5-4.4 6.9-4.7 7.9-1.6 4-2.3 8.2-2.6 12.5-.6 9.9 1.3 20 4.4 29.3 2.8 8.1 5.8 16.4 9.5 24.2 1.9 4 3.9 8 6.6 11.6.5.5 5.9 6 6.1 5.5 0 0 0 .1 0 0zM61.1 183.2c-.5.6-8.6-14.1-9.1-15.5-2.7-7.3-4.2-14.9-6-22.5-1.4-6.2-2.7-12.4-2.7-18.9 0-1.4 3.1-18.3 4.1-17.6-1.6-1.2-5.4 16.2-5.4 17.6-.2 6.6 1 13 2.4 19.3 1.7 7.6 3.4 15.3 6.3 22.6.5 1.3 9.1 16.7 10.4 15 .1-.1 0 0 0 0z"/><path class="st31" d="M84.4 199.7c-.2.4-15.6-17.3-16.7-18.9-6.2-9.1-11.1-19.1-15.4-29.2-3.4-8.2-6.3-16.5-7.8-25.2-.8-4.8-1.4-9.8-.7-14.7.3-2.2.8-4.4 1.9-6.4.1-.3 3.2-3.9 3.3-3.8-.2-.5-3.4 2.9-3.3 2.8-1.4 1.8-2.1 4.1-2.6 6.4-1 4.9-.7 10 0 14.9 1.2 9 4 17.5 7.4 25.9 4.1 10 8.8 19.8 14.9 28.6 1.1 1.5 17.7 21.3 19 19.6.1-.1 0 0 0 0z"/><path class="st31" d="M43.1 100.2c.3-.6 5 4.9 5.5 5.6 2.3 3.6 3.9 7.6 5.4 11.6 2.9 7.8 5.2 16 7.6 24 2.7 9.1 4.8 18.5 8.3 27.3.6 1.4 9.9 18.9 11.3 17.6-.5.5-9.6-16.4-10.3-18.1-3.4-8.9-5.4-18.2-8.1-27.3-2.4-8-4.7-16.2-7.8-24-1.6-4-3.3-8.1-5.8-11.6-.5-.6-6-5.7-6.1-5.1 0 .1 0 0 0 0z"/><path class="st31" d="M42.4 93.2c.7-.7 2.3 9.4 2.2 9.9-.3 4.2-1.1 8.2-1.2 12.4 0 4.3 0 8.7.7 12.9.1.9 3.4 12.6 4.2 12-.4.2-3.1-11.2-3.2-12.2-.5-4.2-.4-8.6-.4-12.8.1-4.1.9-8.2 1.1-12.3 0-.3-2.1-11.4-3.4-9.9 0 .1 0 0 0 0zM138.2 128.9c-.1 0 3.4 11.5 3.6 12.1 1.4 5.9 2.1 11.9 1.6 17.9-.5 5.8-2.3 11.2-3.9 16.7-.2.8-3 13.7-1.7 13.6-.5 0 2.2-11.8 2.4-12.3 1.9-5.9 4-11.6 4.6-17.8.6-5.9-.1-11.8-1.6-17.5-.2-.7-4.4-13-5-12.7 0 .1.1 0 0 0z"/><path class="st31" d="M134 199c-.2 0 5.9-22.1 6.3-23.9 2-8.4 3-17 3.7-25.5.5-6.5.8-13.1.8-19.7 0-1.9-2-25.2-3.6-24.6.7-.3 2.4 22.7 2.4 24.6-.1 6.3-.4 12.7-.9 19-.6 8-1.6 16.1-3.2 24-.4 1.9-6.7 26.1-5.5 26.1zM173.1 193.3c-.5.2-2.8-18.3-2.8-19.9-.1-8.9.7-17.8 1.3-26.7.6-9 .4-17.8-.7-26.7-.5-4-.8-8.3-2.2-12.1-.5-1.4-.8-2.8-2-3.7-.7-.6-1.8.8-1.8.8.2-.2.5-.4.7-.5.9-.2 1.4.2 1.7 1.2.8.8.9 3 1.1 4 .8 4 1.2 8.2 1.5 12.3.7 8.6.8 17.1.2 25.7-.5 8.6-1.3 17.2-1 25.8.2 1.5 2.9 20.4 4 19.8.1 0 0 .1 0 0zM179.1 186.4c-.1 0-2.4-17.4-2.4-19-.4-8.4.1-16.9 1.2-25.2.9-6.7 2.5-13.1 2.5-19.9 0-3.5-.3-7.2-1.8-10.4-.1-.2-5-6.8-5.5-5.2 0 0 2.2 1.6 2.5 1.8 1.4 1.5 2.2 3.3 2.7 5.2 1 3.3 1 7 .8 10.5-.4 7.1-2.2 13.9-3 21-.9 8-1.2 16.2-.5 24.3.1 1.2 2.9 17.2 3.5 16.9.1 0-.1.1 0 0z"/></g></g><path class="st13" d="M84.5 115.3c2.7 7.6 2.6 16.5-.4 25.8-4.4-14.7-9.8-24.6-17.4-33.5-1.3.3-2.7.2-4.1-.3-.2 3.4-1.5 6.3-3.3 8.2 1.4 4.6 3.5 9.1 6.8 14.3-6.2-.3-12.4-6.2-15.5-13.3-1.7 9.9-2.2 19.2-.1 31.4-4.2-2-7.6-6-10-11-2.2-4.5-3.5-9.9-3.7-15.3-4.2-8.8-2.1-18.1 4.9-22.6 1.9-1.2 4.1-2 6.6-2.4.2-.1.3-.2.5-.3h-2.6c-1.5.4-2.8.7-4.1 1.2.6-2.7 1.2-4.8 1.7-6.5 1.7.3 3.4.8 5.2 1.4-1.8-.8-3.4-1.5-5-2.2.6-1.9 1-2.9 1-2.9s38.3 18.3 39.5 28z"/><g><ellipse class="st32" cx="53.4" cy="102.1" rx="7.8" ry="11.2"/><ellipse transform="scale(-1) rotate(-44.522 -234.392 149.419)" class="st32" cx="61.2" cy="95.9" rx="6.2" ry="8.9"/><ellipse transform="scale(.99995) rotate(88.091 64.219 87.694)" class="st32" cx="64.2" cy="87.7" rx="4.9" ry="7.1"/><linearGradient id="SVGID_21_" gradientUnits="userSpaceOnUse" x1="1288.793" y1="94.933" x2="1394.151" y2="94.933" gradientTransform="matrix(-1 0 0 1 1397.151 0)"><stop offset="0" stop-color="#468333"/><stop offset=".194" stop-color="#508831"/><stop offset=".528" stop-color="#6c942a"/><stop offset=".959" stop-color="#98a920"/><stop offset="1" stop-color="#9dab1f"/></linearGradient><path class="st33" d="M47.8 88.2C32.3 81.3 27.2 78.1 3 83.7c7.9-14.1 32.2-18 46.1 1.2-12-23.4 4.3-38.6 19.4-38.7C54.6 59.3 51.1 71 52.7 83.9c.1-24.2 27.5-32.7 46.1-20-25.1 4.2-32.9 7.5-41.3 21.8 15.2-21 43.4-6.8 50.9 13.1-2.3-1.4-4.6-2.6-6.8-3.7-.4-.9-.8-1.7-1.1-2.5-.2.1-.6.7-1 1.5-1-.5-1.9-.9-2.9-1.3-.4-.9-.8-1.7-1.4-2.4-.4.1-.7.8-.9 1.5-1-.4-2-.7-2.9-1-.4-.7-.8-1.3-1.4-1.5-.2.3-.4.6-.5.9-1.4-.4-2.7-.7-4-1-.6-.9-1.2-1.8-1.7-2.8-.6.5-.8 1.4-1 2.3-1.3-.2-2.6-.4-3.9-.5-1.2-.7-2.3-1.3-2.6-1.4 0 0-.2.5-.5 1.2-5.7-.2-11.6.3-18.1 1.5 23.1 5.8 32.3 25.5 25.1 47.3-6.4-21.2-14.8-32.5-29-45.1-4.8 19.6-8.2 31.8-4.7 51.9-16.1-7.8-20.4-43.8.4-52.6-18.4 3.3-23.2 9.1-35.6 30.2C9.2 98.4 25.8 80 47.8 88.2z"/><linearGradient id="SVGID_22_" gradientUnits="userSpaceOnUse" x1="1193.728" y1="57.62" x2="1263.092" y2="57.62" gradientTransform="scale(-1 1) rotate(5.187 189.123 -14094.854)"><stop offset="0" stop-color="#4f8f39"/><stop offset="1" stop-color="#ccdb29"/></linearGradient><path class="st34" d="M49.5 92.1c-11.2-.2-15.2-.8-28.4 8.9 1.2-10.6 15-19.3 28.3-11.2-13.3-11.2-7.4-24.7 1.8-28.6-5 11.6-4.1 19.6.1 27-6.2-14.8 8.3-27 22.8-24.1-14.2 9-18 13.1-19.5 24 3.8-16.7 24.7-15.4 34.3-5.2-13.7-1.9-22.7.6-33.3 7.6 15.5-2.4 26.3 7.2 27.5 22.3-9.4-11.3-17.4-15.9-29.3-20 2.1 13.2 3.3 21.5 10.5 32.8-11.8-.6-23.8-21.4-13.3-32.1-10.1 6.7-11.5 11.5-13.6 27.5-8.7-12.7-3.4-28.2 12.1-28.9z"/><path class="st8" d="M85.3 89.3c1.3.3 2.7.6 4 1-.5 1.2-.6 2.8-1.3 3.6-.5-1.6-1.6-3.1-2.7-4.6zM93.2 93.6c-.8-.5-1.3-1.7-1.9-2.7 1 .3 1.9.6 2.9 1-.2.8-.5 1.6-1 1.7zM96.6 92.8c1 .4 1.9.8 2.9 1.3-.5 1-1.1 2.2-1.3 2.5-.6-1.2-1.1-2.5-1.6-3.8zM78.7 88.3c1.3.1 2.6.3 3.9.5-.2.6-.4 1.2-.8 1.6-.3-.3-1.7-1.2-3.1-2.1z"/></g></svg>