<svg id="Слой_1" xmlns="http://www.w3.org/2000/svg" viewBox="0 0 230 230"><style>.st0{fill:url(#SVGID_1_)}.st1{fill:url(#SVGID_2_)}.st2{fill:url(#SVGID_3_)}.st3{fill:url(#SVGID_4_)}.st4{fill:url(#SVGID_5_)}.st5{fill:url(#SVGID_6_)}.st6{opacity:.2}.st7,.st8,.st9{opacity:.76}.st8,.st9{fill:#fff}.st9{opacity:.7}.st10{fill:#0179b6}.st11{fill:url(#SVGID_7_)}.st12{fill:url(#SVGID_8_)}.st13{fill:url(#SVGID_9_)}.st14{fill:url(#SVGID_10_)}.st15{fill:url(#SVGID_11_)}.st16{fill:url(#SVGID_12_)}.st17{fill:url(#SVGID_13_)}.st18{fill:url(#SVGID_14_)}</style><linearGradient id="SVGID_1_" gradientUnits="userSpaceOnUse" x1="1243.519" y1="72.06" x2="1366.893" y2="72.06" gradientTransform="rotate(-57.629 749.905 1173.96)"><stop offset="0" stop-color="#ff8f29"/><stop offset=".214" stop-color="#fda62e"/><stop offset=".515" stop-color="#fac034"/><stop offset=".786" stop-color="#f9d038"/><stop offset="1" stop-color="#f8d539"/></linearGradient><path class="st0" d="M149.6 62.9c-.1 13.2 4.7 18 17.7 17-5.5 11.8-2.9 17.8 9.5 21.7-9.5 8.8-9.3 15.3.7 23.6-12.1 4.6-14.5 11-8.8 22.9-13.2-.1-18 4.7-17 17.7-11.8-5.5-17.8-2.9-21.7 9.5-8.8-9.5-15.3-9.3-23.6.7-4.6-12.1-11-14.5-22.9-8.8.1-13.2-4.7-18-17.7-17 5.5-11.8 2.9-17.8-9.5-21.7 9.5-8.8 9.3-15.3-.7-23.6 12.1-4.6 14.5-11 8.8-22.9 13.2.1 18-4.7 17-17.7 11.8 5.5 17.8 2.9 21.7-9.5 8.8 9.5 15.3 9.3 23.6-.7 4.7 12.2 11 14.6 22.9 8.8z"/><linearGradient id="SVGID_2_" gradientUnits="userSpaceOnUse" x1="62.48" y1="64.571" x2="170.691" y2="165.479"><stop offset="0" stop-color="#f6f43f"/><stop offset=".245" stop-color="#f7ef3d"/><stop offset=".555" stop-color="#f9df36"/><stop offset=".899" stop-color="#fec52b"/><stop offset="1" stop-color="#ffbc27"/></linearGradient><path class="st1" d="M190.6 115c-24.7 6.8-26.1 13.3-5.8 28.8-25.2-3.7-28.8 1.6-15.9 23.5-21.9-13-27.2-9.4-23.5 15.9-15.5-20.2-22-18.9-28.8 5.8-6.8-24.7-13.3-26.1-28.8-5.8 3.7-25.2-1.6-28.8-23.5-15.9 13-21.9 9.4-27.2-15.9-23.5 20.2-15.5 18.9-22-5.8-28.8 24.7-6.8 26.1-13.3 5.8-28.8 25.2 3.7 28.8-1.6 15.9-23.5 21.9 13 27.2 9.4 23.5-15.9 15.5 20.2 22 18.9 28.8-5.8 6.8 24.7 13.3 26.1 28.8 5.8-3.7 25.2 1.6 28.8 23.5 15.9-13 21.9-9.4 27.2 15.9 23.5-20.2 15.5-18.9 22 5.8 28.8z"/><linearGradient id="SVGID_3_" gradientUnits="userSpaceOnUse" x1="116.585" y1="165.343" x2="116.585" y2="64.707"><stop offset="0" stop-color="#ff8f29"/><stop offset=".214" stop-color="#fda62e"/><stop offset=".515" stop-color="#fac034"/><stop offset=".786" stop-color="#f9d038"/><stop offset="1" stop-color="#f8d539"/></linearGradient><circle class="st2" cx="116.6" cy="115" r="50.3"/><linearGradient id="SVGID_4_" gradientUnits="userSpaceOnUse" x1="116.669" y1="160.976" x2="116.669" y2="107.803"><stop offset="0" stop-color="#fff" stop-opacity=".2"/><stop offset="1" stop-color="#fff" stop-opacity="0"/></linearGradient><path class="st3" d="M116.7 155.3c-26.8 0-48.8-21-50.2-47.5-.1.9-.1 1.9-.1 2.9 0 27.8 22.5 50.3 50.3 50.3s50.3-22.5 50.3-50.3c0-1 0-1.9-.1-2.9-1.5 26.5-23.4 47.5-50.2 47.5z"/><linearGradient id="SVGID_5_" gradientUnits="userSpaceOnUse" x1="116.585" y1="163.915" x2="116.585" y2="110.742"><stop offset="0" stop-color="#f9622d" stop-opacity=".4"/><stop offset=".31" stop-color="#fa772e" stop-opacity=".276"/><stop offset=".948" stop-color="#fbac32" stop-opacity=".021"/><stop offset="1" stop-color="#fbb132" stop-opacity="0"/></linearGradient><path class="st4" d="M116.6 158.2c-26.8 0-48.8-21-50.2-47.5-.1.9-.1 1.9-.1 2.9 0 27.8 22.5 50.3 50.3 50.3s50.3-22.5 50.3-50.3c0-1 0-1.9-.1-2.9-1.5 26.5-23.4 47.5-50.2 47.5z"/><linearGradient id="SVGID_6_" gradientUnits="userSpaceOnUse" x1="-370.583" y1="564.888" x2="-336.399" y2="596.765" gradientTransform="rotate(31.892 741.66 1157.717)"><stop offset="0" stop-color="#f8ff61" stop-opacity=".9"/><stop offset="1" stop-color="#f9ff73" stop-opacity="0"/></linearGradient><path class="st5" d="M116.8 112.2c-16.4.1-29.7-10-29.8-22.6s13.1-23 29.4-23.1 29.7 10 29.8 22.6c.1 12.6-13.1 23-29.4 23.1z"/><g class="st6"><path class="st7" d="M131.6 119c-3.6-.1-7.2-.1-10.8-.2-2.4 0-4.9-.1-7.3-.1-1.1 0-2.7-.4-3.5.3-3.5 2.9-1.6 9.1 1.7 11.1 3.9 2.4 9 1.7 13 .2 1-.4 2-.9 3-1.4.7-.4 1.6-1.3 2.4-1 1.4.5 1 4 .5 5.1-.8 1.7-3.3 2.4-5 3-2.1.7-4.4 1.1-6.6 1.2-5 .2-10.3-1.1-13.8-4.8-3.4-3.5-4.5-9.2-2.9-13.8-.5 0-1.1.1-1.5-.2-.7-.6-.6-2.2-.4-3 .4-1.6 1.8-1.2 3.1-1.2.5 0 1.2.2 1.7 0 .8-.2 1.6-1.3 2.3-1.8 2.4-1.6 5.2-2.7 7.8-3.9-2.2 0-4.3-.1-6.5-.1-2.3 0-4.9.3-7.2-.1-1.5-.3-1.6-3.2-.7-4.1.5-.5 1.1-.4 1.7-.4 2.6 0 5.1.1 7.7.1 3 .1 6.1.1 9.1.2.7 0 1.7.2 2.4 0 1.3-.3 1.8-2.5 1.8-3.7.5-6.2-6.1-8.2-11.2-6.9-1.2.3-2.3.7-3.4 1.3-.8.4-2.5 1.8-3.4 1.6-1.6-.2-1.1-4.5-.4-5.4.7-1 2.3-1.5 3.4-1.9 1.5-.6 3.2-.9 4.8-1.1 3.2-.4 6.6 0 9.6 1.4 5.8 2.6 8.4 8.9 6.7 15 1.8 0 3.1-.2 3.2 2.1 0 1 0 2.2-1.2 2.5-.6.1-1.3 0-1.9 0-.7 0-1.6-.2-2.3 0-.6.1-.7.4-1.2.8-2.4 2.2-5.4 3.6-8.3 4.9 3 .1 6.1.1 9.1.2 1.4 0 2.9-.1 4.3.1.6.1 1 .3 1.2.9.3.4.4 3.2-1 3.1z"/></g><path class="st8" d="M131.6 117.2c-3.9-.1-7.9-.1-11.8-.2-2.5 0-4.9-.1-7.4-.1-.6 0-1.4-.2-1.9 0-1 .3-1.7 1.9-2 2.9-1.4 4.4 1.5 8.5 5.7 9.7 4.6 1.3 9.8-.1 13.8-2.7 1.4-.9 2.8-1 3 1 .1 1.3-.2 3.1-1.1 4.1-1.3 1.5-3.8 2.2-5.7 2.6-2.1.5-4.3.9-6.6.8-4.9 0-10.1-1.6-13.3-5.6-2.9-3.6-3.8-8.7-2.2-13-1.5 0-2.2-.6-2.1-2.3 0-1.5.6-2.2 2-2.2h2.3c1 0 1.2-.5 2.1-1.1 2.6-2 5.8-3.2 8.8-4.6-2.4 0-4.9-.1-7.3-.1-1.6 0-3.2-.1-4.8-.1-.6 0-1.6.2-2.1-.2-1.1-.6-1-3.1-.3-4 .5-.5 1-.4 1.7-.4 2.9 0 5.8.1 8.7.1 3.1.1 6.1.1 9.2.2.4 0 1.4.2 1.8 0 .8-.4 1.3-2.2 1.5-2.9.3-1.2.1-2.4-.3-3.5-2.2-5.8-9.6-5.2-14.2-3-1.5.7-4.1 3-4.5.1-.3-1.8 0-3.7 1.6-4.8 2.2-1.4 5.4-2 7.9-2.2 3.2-.2 6.5.2 9.4 1.6 5.5 2.7 7.8 9 6.1 14.7 1.5 0 2.9-.3 3.2 1.5.3 1.6-.2 3-1.9 3h-2.8c-.8 0-.9-.1-1.5.4-2.7 2.2-5.5 3.9-8.8 5.3 3.5.1 6.9.1 10.4.2 1 0 2.5-.3 3.5.1 1.6.8 1.6 4.8-.1 4.7z"/><g><path class="st9" d="M227.2 123.4c-3.9 4.6-7.9 9.1-12.2 13.5l-4.2 4.2c-.9.9-1.8 1.7-2.6 2.5l-.5.5c-.4.4-.9.8-1.4 1.3-.1.1-.2.2-.4.3-.8.7-1.7 1.5-2.5 2.2-.5.5-1 .9-1.6 1.4-15.7 13.3-33.8 23.3-54.9 25.3-1.1.1-2.3.2-3.4.2-1.1.1-2.3.1-3.4.1h-2.2c-.7 0-1.5-.1-2.2-.1-4.5-.3-8.9-1-13.2-2.2-.9-.2-1.8-.5-2.7-.8-1.5-.5-3-1-4.5-1.6v-15.7s.1 0 .1.1c1.8 1 3.7 1.8 5.6 2.6.7.3 1.4.6 2.2.8 1.5.5 3 1 4.6 1.4 1.5.4 3.1.7 4.7 1 .2 0 .4.1.6.1.2 0 .4.1.7.1 1.3.2 2.6.3 4 .4.9.1 1.9.1 2.8.1 13.6.4 27.3-3.3 39.6-8.9 3.9-1.8 7.6-3.7 11.3-5.8.8-.4 1.6-.9 2.4-1.4 1.4-.8 2.7-1.6 4-2.4.5-.3 1-.6 1.5-1 .6-.4 1.2-.7 1.8-1.1 1.5-.9 3-1.9 4.5-2.9 7.3-4.7 14.4-9.6 21.5-14.2z"/><path class="st10" d="M227.2 128.8c-4.2 5-8.7 10-13.3 14.7l-2.9 2.9-1.2 1.2-.1.1c-.7.7-1.4 1.4-2.2 2-.5.4-1 .9-1.4 1.3-16.6 15.1-36 26.8-59 29-11 1.1-21.6-.4-31.6-4.4v-15.7c.1 0 .1.1.2.1.7.4 1.4.7 2.1 1 1.4.7 2.9 1.3 4.3 1.8 1.5.6 3 1 4.5 1.4.3.1.6.2.9.2 1.3.4 2.7.7 4 .9.6.1 1.1.2 1.7.3.3 0 .6.1.8.1 15.8 2.2 31.9-1.8 46.2-8.4 6.2-2.8 12-6.1 17.8-9.6.7-.4 1.4-.8 2-1.3 1.1-.7 2.2-1.4 3.4-2.1.3-.2.5-.3.8-.5.6-.4 1.1-.7 1.7-1.1 1.3-.9 2.7-1.7 4-2.6 1.7-1.1 3.4-2.3 5.1-3.4 4.1-2.6 8.1-5.3 12.2-7.9z"/><linearGradient id="SVGID_7_" gradientUnits="userSpaceOnUse" x1="115.5" y1="158.157" x2="216.736" y2="158.157"><stop offset="0" stop-color="#0086c0"/><stop offset=".222" stop-color="#0791c9"/><stop offset=".656" stop-color="#12a1d6"/><stop offset="1" stop-color="#16a6db"/></linearGradient><path class="st11" d="M216.7 137.9c-1.4 1.5-2.8 2.9-4.2 4.4l-3 3-1.3 1.3-.1.1c-.8.7-1.5 1.4-2.3 2.2-.5.5-1 .9-1.5 1.3-15.3 13.7-34.5 25.8-57.4 28-2.2.2-4.5.3-6.7.3-7.8 0-15.3-1.3-22.4-3.9-.8-.3-1.5-.6-2.3-.9v-11.8s.1.1.2.1c1.4.7 2.8 1.4 4.3 2 1.5.6 3 1.1 4.5 1.6.3.1.5.2.8.2 1.4.4 2.7.8 4.1 1 .8.2 1.7.4 2.6.5.3.1.7.1 1.1.2 3.2.5 6.5.7 9.9.7 12.1 0 25-3.1 38.2-9.1 6.7-3.1 13-6.7 19.2-10.5.7-.4 1.3-.8 2-1.2 1.1-.7 2.1-1.3 3.2-2 .2-.1.3-.2.5-.3.6-.3 1.1-.7 1.7-1.1.2-.1.4-.3.6-.4 1.1-.7 2.1-1.4 3.2-2.1 1.6-1.3 3.4-2.4 5.1-3.6z"/><linearGradient id="SVGID_8_" gradientUnits="userSpaceOnUse" x1="115.5" y1="169.171" x2="179.902" y2="169.171"><stop offset="0" stop-color="#40c1ee" stop-opacity="0"/><stop offset="1" stop-color="#4fcaf4"/></linearGradient><path class="st12" d="M179.9 163.5c-11 6.3-22.1 9.9-33.3 11-1 .1-1.9.2-2.9.2-1.1.1-2.3.1-3.4.1h-2.2c-.7 0-1.5-.1-2.2-.1-4.4-.3-8.8-1.1-13-2.3-.9-.2-1.7-.5-2.6-.8-1.5-.5-3.1-1.1-4.6-1.8-.1 0-.2-.1-.2-.1v-3.8c1.4.7 2.9 1.3 4.4 1.9.2.1.4.1.5.2 1.4.5 2.9 1 4.4 1.4.8.2 1.7.5 2.5.7 1.7.4 3.3.7 5.1 1 3.4.5 6.9.8 10.4.8 11.9-.1 24.3-2.9 37.1-8.4z"/><g><path class="st9" d="M227.8 162.4c-2.7-3.1-5.6-6-8.8-8.6-2.9-2.4-6-4.5-9.3-6.4-.2-.1-.4-.2-.7-.4-.3-.2-.7-.4-1-.5-.7-.4-1.4-.7-2.1-1-.2-.1-.4-.2-.5-.3-.7-.3-1.3-.6-2-.9-1.8-.8-3.6-1.4-5.5-2-5.4-1.7-11.2-2.6-17.1-2.6-.9 0-1.9 0-2.8.1-.5 0-.9 0-1.4.1-.9.1-1.8.1-2.6.2-.2 0-.4 0-.5.1-7 .9-13.8 3-19.9 6.3-7.1 3.8-13.2 9.1-19.8 13.6-.7.5-1.5 1.1-2.3 1.6-1.4.9-2.8 1.8-4.2 2.6-.8.4-1.5.9-2.3 1.3-1.6.8-3.1 1.6-4.7 2.2-1.6.7-3.2 1.3-4.8 1.8-.1 0-.2.1-.2.1v-15.3s.1 0 .1-.1c1.6-.7 3.1-1.5 4.6-2.4 7.6-4.4 14.3-10 21.8-14.4 15.8-9.1 34.8-11.4 52.2-5.6 4.1 1.4 8 3.2 11.6 5.4 1.4.9 2.8 1.8 4.1 2.8.3.2.6.5 1 .7.2.1.4.3.5.4.4.3.7.6 1.1.9.5.4.9.8 1.4 1.2 6.1 5.4 10.8 11.8 14.1 19.1z"/><path class="st10" d="M228 167.8c-6.2-7.1-13.6-12.9-21.9-16.9-.6-.3-1.2-.6-1.8-.8-.8-.3-1.6-.7-2.3-1-.5-.2-1.1-.4-1.6-.6-.7-.3-1.5-.5-2.2-.7-2.1-.7-4.3-1.2-6.5-1.6-3.4-.6-6.9-.9-10.5-.9-9.5 0-18.9 2.3-27.3 6.8-4.7 2.5-8.9 5.6-13.2 8.8-2.2 1.6-4.4 3.3-6.6 4.9-.7.5-1.4 1-2.2 1.5h-.1c-1.5 1-2.9 1.9-4.5 2.7-1.5.8-3 1.6-4.5 2.3-.1.1-.2.1-.3.1-1.6.7-3.2 1.4-4.8 2-.8.3-1.5.6-2.3.8V160c.1 0 .1 0 .2-.1 1.6-.7 3.2-1.5 4.8-2.4.3-.2.5-.3.8-.5 7.2-4.3 13.7-9.7 21.1-13.9 15.8-9.1 34.8-11.4 52.2-5.6 2.4.8 4.7 1.8 7 2.9 1.6.8 3.1 1.6 4.5 2.5.6.3 1.1.7 1.7 1.1 0 0 .1 0 .1.1l1.8 1.2c.5.4 1 .7 1.5 1.1 2.9 2.3 5.6 4.8 8 7.6 3.6 4 6.6 8.7 8.9 13.8z"/><linearGradient id="SVGID_9_" gradientUnits="userSpaceOnUse" x1="115.5" y1="154.786" x2="219.306" y2="154.786"><stop offset="0" stop-color="#0086c0"/><stop offset=".222" stop-color="#0791c9"/><stop offset=".656" stop-color="#12a1d6"/><stop offset="1" stop-color="#16a6db"/></linearGradient><path class="st13" d="M219.3 157c-3.7-2.9-7.7-5.4-11.8-7.4-.6-.3-1.2-.6-1.8-.8-.7-.3-1.5-.7-2.3-1-.4-.2-.8-.3-1.2-.5-.7-.3-1.4-.5-2.2-.8-2-.7-4.1-1.3-6.1-1.7-4.2-.9-8.5-1.4-12.8-1.4h-1.7c-9.3.3-18.4 2.7-26.4 7-5 2.7-9.6 6.1-14.1 9.5-.3.3-.7.5-1.1.8-2.1 1.6-4.2 3.1-6.4 4.6-.2.2-.4.3-.7.5-.5.3-1 .7-1.5 1-1.5.9-3 1.8-4.5 2.6s-3 1.5-4.6 2.2c-.1.1-.2.1-.4.1-1.5.6-3 1.2-4.5 1.7V162c.1 0 .1 0 .2-.1.7-.3 1.4-.6 2.1-1 1.2-.6 2.4-1.2 3.6-1.9.7-.4 1.4-.8 2-1.2 3.1-1.9 6-3.9 8.9-6 3.5-2.5 7.2-5 10.9-7.2 9.1-5.2 19.4-8.2 29.7-8.5 7.2-.2 14.3.8 21 3.1 2 .7 3.9 1.4 5.7 2.3 1.6.7 3.2 1.6 4.7 2.5.6.3 1.1.7 1.7 1 .1.1.3.2.4.3l1.8 1.2.9.6c.2.1.4.3.6.4 3.9 2.8 7.1 6 9.9 9.5z"/><linearGradient id="SVGID_10_" gradientUnits="userSpaceOnUse" x1="115.5" y1="154.678" x2="179.317" y2="154.678"><stop offset="0" stop-color="#40c1ee" stop-opacity="0"/><stop offset="1" stop-color="#4fcaf4"/></linearGradient><path class="st14" d="M179.3 139.9c-9.8.3-19.5 2.9-28 7.4-5.3 2.8-10 6.3-14.6 9.8-1.4 1-2.7 2-4.1 3-1.3.9-2.5 1.8-3.8 2.6-.7.5-1.5 1-2.3 1.4-.7.4-1.4.9-2.1 1.2-1.5.8-3 1.6-4.5 2.3-1.5.7-2.9 1.3-4.4 1.8v-3.7c1.5-.6 3-1.3 4.4-2 .7-.3 1.4-.7 2.1-1.1.4-.2.7-.4 1.1-.6l4.8-3c2.2-1.4 4.3-2.9 6.4-4.4 3.4-2.4 7-4.9 10.6-7 8.6-4.9 18.3-7.7 28-8 2.2.1 4.3.1 6.4.3z"/></g><g><path class="st9" d="M3.8 123.3c3.9 4.6 7.9 9.1 12.2 13.5l4.2 4.2c.9.9 1.8 1.7 2.6 2.5l.5.5c.4.4.9.8 1.4 1.3.1.1.2.2.4.3.8.7 1.7 1.5 2.5 2.2.5.5 1 .9 1.6 1.4 15.7 13.3 33.8 23.3 54.9 25.3 1.1.1 2.3.2 3.4.2 1.1.1 2.3.1 3.4.1h2.2c.7 0 1.5-.1 2.2-.1 4.5-.3 8.9-1 13.2-2.2.9-.2 1.8-.5 2.7-.8 1.5-.5 3-1 4.5-1.6v-15.7s-.1 0-.1.1c-1.8 1-3.7 1.8-5.6 2.6-.7.3-1.4.6-2.2.8-1.5.5-3 1-4.6 1.4-1.5.4-3.1.7-4.7 1-.2 0-.4.1-.6.1-.2 0-.4.1-.7.1-1.3.2-2.6.3-4 .4-.9.1-1.9.1-2.8.1-13.6.4-27.3-3.3-39.6-8.9-3.9-1.8-7.6-3.7-11.3-5.8-.8-.4-1.6-.9-2.4-1.4-1.4-.8-2.7-1.6-4-2.4-.5-.3-1-.6-1.5-1-.6-.4-1.2-.7-1.8-1.1-1.5-.9-3-1.9-4.5-2.9-7.3-4.7-14.4-9.5-21.5-14.2z"/><path class="st10" d="M3.8 128.7c4.2 5 8.7 10 13.3 14.7l2.9 2.9 1.2 1.2.1.1c.7.7 1.4 1.4 2.2 2 .5.4 1 .9 1.4 1.3 16.6 15.1 36 26.8 59 29 11 1.1 21.6-.4 31.6-4.4v-15.7c-.1 0-.1.1-.2.1-.7.4-1.4.7-2.1 1-1.4.7-2.9 1.3-4.3 1.8-1.5.6-3 1-4.5 1.4-.3.1-.6.2-.9.2-1.3.4-2.7.7-4 .9-.6.1-1.1.2-1.7.3-.3 0-.6.1-.8.1-15.8 2.2-31.9-1.8-46.2-8.4-6.2-2.8-12-6.1-17.8-9.6-.7-.4-1.4-.8-2-1.3-1.1-.7-2.2-1.4-3.4-2.1-.3-.2-.5-.3-.8-.5-.6-.4-1.1-.7-1.7-1.1-1.3-.9-2.7-1.7-4-2.6-1.7-1.1-3.4-2.3-5.1-3.4-4.1-2.5-8.1-5.2-12.2-7.9z"/><linearGradient id="SVGID_11_" gradientUnits="userSpaceOnUse" x1="1461.68" y1="158.137" x2="1562.916" y2="158.137" gradientTransform="matrix(-1 0 0 1 1577.18 0)"><stop offset="0" stop-color="#0086c0"/><stop offset=".222" stop-color="#0791c9"/><stop offset=".656" stop-color="#12a1d6"/><stop offset="1" stop-color="#16a6db"/></linearGradient><path class="st15" d="M14.3 137.9c1.4 1.5 2.8 2.9 4.2 4.4l3 3 1.3 1.3.1.1c.8.7 1.5 1.4 2.3 2.2.5.5 1 .9 1.5 1.3 15.3 13.7 34.5 25.8 57.4 28 2.2.2 4.5.3 6.7.3 7.8 0 15.3-1.3 22.4-3.9.8-.3 1.5-.6 2.3-.9v-11.8s-.1.1-.2.1c-1.4.7-2.8 1.4-4.3 2-1.5.6-3 1.1-4.5 1.6-.3.1-.5.2-.8.2-1.4.4-2.7.8-4.1 1-.8.2-1.7.4-2.6.5-.3.1-.7.1-1.1.2-3.2.5-6.5.7-9.9.7-12.1 0-25-3.1-38.2-9.1-6.7-3.1-13-6.7-19.2-10.5-.7-.4-1.3-.8-2-1.2-1.1-.7-2.1-1.3-3.2-2-.2-.1-.3-.2-.5-.3-.6-.3-1.1-.7-1.7-1.1-.2-.1-.4-.3-.6-.4-1.1-.7-2.1-1.4-3.2-2.1-1.6-1.3-3.4-2.5-5.1-3.6z"/><linearGradient id="SVGID_12_" gradientUnits="userSpaceOnUse" x1="1461.68" y1="169.151" x2="1526.082" y2="169.151" gradientTransform="matrix(-1 0 0 1 1577.18 0)"><stop offset="0" stop-color="#40c1ee" stop-opacity="0"/><stop offset="1" stop-color="#4fcaf4"/></linearGradient><path class="st16" d="M51.1 163.5c11 6.3 22.1 9.9 33.3 11 1 .1 1.9.2 2.9.2 1.1.1 2.3.1 3.4.1h2.2c.7 0 1.5-.1 2.2-.1 4.4-.3 8.8-1.1 13-2.3.9-.2 1.7-.5 2.6-.8 1.5-.5 3.1-1.1 4.6-1.8.1 0 .2-.1.2-.1v-3.8c-1.4.7-2.9 1.3-4.4 1.9-.2.1-.4.1-.5.2-1.4.5-2.9 1-4.4 1.4-.8.2-1.7.5-2.5.7-1.7.4-3.3.7-5.1 1-3.4.5-6.9.8-10.4.8-11.9-.2-24.3-2.9-37.1-8.4z"/><g><path class="st9" d="M3.2 162.4c2.7-3.1 5.6-6 8.8-8.6 2.9-2.4 6-4.5 9.3-6.4.2-.1.4-.2.7-.4.3-.2.7-.4 1-.5.7-.4 1.4-.7 2.1-1 .2-.1.4-.2.5-.3.7-.3 1.3-.6 2-.9 1.8-.8 3.6-1.4 5.5-2 5.4-1.7 11.2-2.6 17.1-2.6.9 0 1.9 0 2.8.1.5 0 .9 0 1.4.1.9.1 1.8.1 2.6.2.2 0 .4 0 .5.1 7 .9 13.8 3 19.9 6.3 7.1 3.8 13.2 9.1 19.8 13.6.7.5 1.5 1.1 2.3 1.6 1.4.9 2.8 1.8 4.2 2.6.8.4 1.5.9 2.3 1.3 1.6.8 3.1 1.6 4.7 2.2 1.6.7 3.2 1.3 4.8 1.8.1 0 .2.1.2.1v-15.3s-.1 0-.1-.1c-1.6-.7-3.1-1.5-4.6-2.4-7.6-4.4-14.3-10-21.8-14.4-15.8-9.1-34.8-11.4-52.2-5.6-4.1 1.4-8 3.2-11.6 5.4-1.4.9-2.8 1.8-4.1 2.8-.3.2-.6.5-1 .7-.2.1-.4.3-.5.4-.4.3-.7.6-1.1.9-.5.4-.9.8-1.4 1.2-6.1 5.3-10.8 11.8-14.1 19.1z"/><path class="st10" d="M3 167.8c6.2-7.1 13.6-12.9 21.9-16.9.6-.3 1.2-.6 1.8-.8.8-.3 1.6-.7 2.3-1 .5-.2 1.1-.4 1.6-.6.7-.3 1.5-.5 2.2-.7 2.1-.7 4.3-1.2 6.5-1.6 3.4-.6 6.9-.9 10.5-.9 9.5 0 18.9 2.3 27.3 6.8 4.7 2.5 8.9 5.6 13.2 8.8 2.2 1.6 4.4 3.3 6.6 4.9.7.5 1.4 1 2.2 1.5h.1c1.5 1 2.9 1.9 4.5 2.7 1.5.8 3 1.6 4.5 2.3.1.1.2.1.3.1 1.6.7 3.2 1.4 4.8 2 .8.3 1.5.6 2.3.8V160c-.1 0-.1 0-.2-.1-1.6-.7-3.2-1.5-4.8-2.4-.3-.2-.5-.3-.8-.5-7.2-4.3-13.7-9.7-21.1-13.9-15.8-9.1-34.8-11.4-52.2-5.6-2.4.8-4.7 1.8-7 2.9-1.6.8-3.1 1.6-4.5 2.5-.6.3-1.1.7-1.7 1.1 0 0-.1 0-.1.1l-1.8 1.2c-.5.4-1 .7-1.5 1.1-2.9 2.3-5.6 4.8-8 7.6-3.6 4-6.6 8.7-8.9 13.8z"/><linearGradient id="SVGID_13_" gradientUnits="userSpaceOnUse" x1="1461.68" y1="154.766" x2="1565.486" y2="154.766" gradientTransform="matrix(-1 0 0 1 1577.18 0)"><stop offset="0" stop-color="#0086c0"/><stop offset=".222" stop-color="#0791c9"/><stop offset=".656" stop-color="#12a1d6"/><stop offset="1" stop-color="#16a6db"/></linearGradient><path class="st17" d="M11.7 157c3.7-2.9 7.7-5.4 11.8-7.4.6-.3 1.2-.6 1.8-.8.7-.3 1.5-.7 2.3-1 .4-.2.8-.3 1.2-.5.7-.3 1.4-.5 2.2-.8 2-.7 4.1-1.3 6.1-1.7 4.2-.9 8.5-1.4 12.8-1.4h1.7c9.3.3 18.4 2.7 26.4 7 5 2.7 9.6 6.1 14.1 9.5.3.3.7.5 1.1.8 2.1 1.6 4.2 3.1 6.4 4.6.2.2.4.3.7.5.5.3 1 .7 1.5 1 1.5.9 3 1.8 4.5 2.6s3 1.5 4.6 2.2c.1.1.2.1.4.1 1.5.6 3 1.2 4.5 1.7V162c-.1 0-.1 0-.2-.1-.7-.3-1.4-.6-2.1-1-1.2-.6-2.4-1.2-3.6-1.9-.7-.4-1.4-.8-2-1.2-3.1-1.9-6-3.9-8.9-6-3.5-2.5-7.2-5-10.9-7.2-9.1-5.2-19.4-8.2-29.7-8.5-7.2-.2-14.3.8-21 3.1-2 .7-3.9 1.4-5.7 2.3-1.6.7-3.2 1.6-4.7 2.5-.6.3-1.1.7-1.7 1-.1.1-.3.2-.4.3l-1.8 1.2-.9.6c-.2.1-.4.3-.6.4-3.9 2.8-7.1 6-9.9 9.5z"/><linearGradient id="SVGID_14_" gradientUnits="userSpaceOnUse" x1="1461.68" y1="154.658" x2="1525.497" y2="154.658" gradientTransform="matrix(-1 0 0 1 1577.18 0)"><stop offset="0" stop-color="#40c1ee" stop-opacity="0"/><stop offset="1" stop-color="#4fcaf4"/></linearGradient><path class="st18" d="M51.7 139.9c9.8.3 19.5 2.9 28 7.4 5.3 2.8 10 6.3 14.6 9.8 1.4 1 2.7 2 4.1 3 1.3.9 2.5 1.8 3.8 2.6.7.5 1.5 1 2.3 1.4.7.4 1.4.9 2.1 1.2 1.5.8 3 1.6 4.5 2.3 1.5.7 2.9 1.3 4.4 1.8v-3.7c-1.5-.6-3-1.3-4.4-2-.7-.3-1.4-.7-2.1-1.1-.4-.2-.7-.4-1.1-.6l-4.8-3c-2.2-1.4-4.3-2.9-6.4-4.4-3.4-2.4-7-4.9-10.6-7-8.6-4.9-18.3-7.7-28-8-2.2.1-4.3.1-6.4.3z"/></g></g></g></svg>