<svg id="Слой_1" xmlns="http://www.w3.org/2000/svg" viewBox="0 0 147 147"><style>.st0{opacity:.15}.st1,.st2{fill-rule:evenodd;clip-rule:evenodd}.st2{fill:#fff}</style><g class="st0"><path class="st1" d="M73.5 147C33.5 147 1 114.5 1 74.5S33.5 2 73.5 2 146 34.5 146 74.5 113.5 147 73.5 147zm7.3-101.2c11.4-9.3 6.3-20.5-1.5-23.8 4.3 9.7 3.5 16.4-.1 22.5 5.3-12.3-7.1-22.5-19.5-20.1 12.1 7.5 15.4 10.9 16.6 20C73 30.5 55.2 31.6 47 40.1c11.6-1.6 19.4.5 28.4 6.3-13.2-2-22.4 6-23.5 18.6 7.8-9.1 14.4-13 24.1-16.3-17.3 21.8-21.6 51.4-11.1 77.3h7.4c.2 0 .4.1.6.2-3-12.9 1.4-28.1 11.2-37.6-1.9 4.5-3.4 7.6-7.3 11.2 5.3 1 12.7-6.6 9.2-12.4 3.9 4 4 6.2 3.3 13.3C94.5 96.2 93.7 89 87 87c5 1.1 6.8 1.3 11.7 6.8.5-4.6-4.7-9.8-11.5-7.8 7.1-3.3 5.8-9.8 2.2-12.4 1 5.5-.2 8.9-2.9 11.6 4.3-5.7-.9-12.5-7.6-12.8 5.4 5.4 6.6 7.5 6.1 12.4 0-7.6-9.3-9.2-14.7-5.9 6.2.6 10 2.7 13.9 6.8-6.6-2.7-12.4.3-14.5 6.6 5.2-3.7 9.1-4.9 14.5-5.4-9.3 7.2-14.9 18-15.7 29.5-6.6-20.8-4.1-45.6 7.7-64.5-1.5 9.1-2.9 15.5-8.4 23.9 10.2-.6 20.4-17.9 11.5-26.9 8.8 5.7 10 9.6 11.8 23 7.5-10.6 2.9-23.5-10.3-24.1 9.5-.1 12.9-.7 24.2 7.4-1-8.9-12.8-16.1-24.2-9.4z"/></g><path class="st2" d="M73.5 145C33.5 145 1 112.5 1 72.5S33.5 0 73.5 0 146 32.5 146 72.5 113.5 145 73.5 145zm7.3-101.2c11.4-9.3 6.3-20.5-1.5-23.8 4.3 9.7 3.5 16.4-.1 22.5 5.3-12.3-7.1-22.5-19.5-20.1 12.1 7.5 15.4 10.9 16.6 20C73 28.5 55.2 29.6 47 38.1c11.6-1.6 19.4.5 28.4 6.3-13.2-2-22.4 6-23.5 18.6 7.8-9.1 14.4-13 24.1-16.3C58.7 68.5 54.4 98.1 64.9 124h7.4c.2 0 .4.1.6.2-3-12.9 1.4-28.1 11.2-37.6-1.9 4.5-3.4 7.6-7.3 11.2 5.3 1 12.7-6.6 9.2-12.4 3.9 4 4 6.2 3.3 13.3C94.5 94.2 93.7 87 87 85c5 1.1 6.8 1.3 11.7 6.8.5-4.6-4.7-9.8-11.5-7.8 7.1-3.3 5.8-9.8 2.2-12.4 1 5.5-.2 8.9-2.9 11.6 4.3-5.7-.9-12.5-7.6-12.8 5.4 5.4 6.6 7.5 6.1 12.4 0-7.6-9.3-9.2-14.7-5.9 6.2.6 10 2.7 13.9 6.8-6.6-2.7-12.4.3-14.5 6.6 5.2-3.7 9.1-4.9 14.5-5.4-9.3 7.2-14.9 18-15.7 29.5-6.6-20.8-4.1-45.6 7.7-64.5-1.5 9.1-2.9 15.5-8.4 23.9 10.2-.6 20.4-17.9 11.5-26.9 8.8 5.7 10 9.6 11.8 23 7.5-10.6 2.9-23.5-10.3-24.1 9.5-.1 12.9-.7 24.2 7.4-1-8.9-12.8-16.1-24.2-9.4z"/></svg>