<svg xmlns="http://www.w3.org/2000/svg" viewBox="0 0 250 250"><path d="M125.5 247C57.8 247 3 192.2 3 124.5S57.8 2 125.5 2 248 56.8 248 124.5 193.2 247 125.5 247zM106.7 73.2l-8.9-10.3H76.1l-8.9 10.3.8.8 17.5 16.7c-26.2.7-47.1 22.2-47.1 48.5 0 26.8 21.7 48.6 48.5 48.6 12.8 0 24.5-5 33.1-13.1-2.8-2.8-5.3-5.8-7.5-9.1-6.5 6.5-15.5 10.5-25.5 10.5-20.3 0-36.8-16.5-36.8-36.8 0-20.3 16.5-36.8 36.8-36.8 8.1 0 15.6 2.6 21.6 7.1.7-1.4 1.4-2.8 2.2-4.2l1.5-2.4c.8-1.2 1.6-2.3 2.4-3.4-7.5-5.3-16.6-8.4-26.4-8.7l18.4-17.7zm53.7 6.9c-29.7 0-53.8 24.1-53.8 53.9 0 29.7 24.1 53.9 53.8 53.9 29.7 0 53.8-24.1 53.8-53.9 0-29.8-24.1-53.9-53.8-53.9zm41.8 29.5c-.9.5-2-.1-2.6-1.2-4-7.4-10.7-13.2-18.8-16.1-1.2-.4-1.7-1.4-1.3-2.3.5-.9 1.8-1.3 2.9-.9 8.7 3.2 15.9 9.6 20.2 17.6.8 1.2.5 2.5-.4 2.9zm.3 24.4c0 23.2-18.9 42.1-42.1 42.1-23.2 0-42.1-18.9-42.1-42.1 0-23.2 18.9-42.1 42.1-42.1 23.2 0 42.1 18.9 42.1 42.1zm-74.6-20.8c-2.9 4.6-4.9 9.9-5.7 15.5 1 3.3 1.5 6.8 1.5 10.5 0 1.8-.1 3.6-.4 5.3 1.6 5.4 4.3 10.4 7.9 14.5 2.7-6.1 4.3-12.8 4.3-19.9 0-9.4-2.8-18.3-7.6-25.9z" opacity=".15"/><path fill="#FFF" d="M125.5 245C57.8 245 3 190.2 3 122.5S57.8 0 125.5 0 248 54.8 248 122.5 193.2 245 125.5 245zM106.7 71.2l-8.9-10.3H76.1l-8.9 10.3.8.8 17.5 16.7c-26.2.7-47.1 22.2-47.1 48.5 0 26.8 21.7 48.6 48.5 48.6 12.8 0 24.5-5 33.1-13.1-2.8-2.8-5.3-5.8-7.5-9.1-6.5 6.5-15.5 10.5-25.5 10.5-20.3 0-36.8-16.5-36.8-36.8 0-20.3 16.5-36.8 36.8-36.8 8.1 0 15.6 2.6 21.6 7.1.7-1.4 1.4-2.8 2.2-4.2l1.5-2.4c.8-1.2 1.6-2.3 2.4-3.4-7.5-5.3-16.6-8.4-26.4-8.7l18.4-17.7zm53.7 6.9c-29.7 0-53.8 24.1-53.8 53.9 0 29.7 24.1 53.9 53.8 53.9 29.7 0 53.8-24.1 53.8-53.9 0-29.8-24.1-53.9-53.8-53.9zm41.8 29.5c-.9.5-2-.1-2.6-1.2-4-7.4-10.7-13.2-18.8-16.1-1.2-.4-1.7-1.4-1.3-2.3.5-.9 1.8-1.3 2.9-.9 8.7 3.2 15.9 9.6 20.2 17.6.8 1.2.5 2.5-.4 2.9zm.3 24.4c0 23.2-18.9 42.1-42.1 42.1-23.2 0-42.1-18.9-42.1-42.1 0-23.2 18.9-42.1 42.1-42.1 23.2 0 42.1 18.9 42.1 42.1zm-74.6-20.8c-2.9 4.6-4.9 9.9-5.7 15.5 1 3.3 1.5 6.8 1.5 10.5 0 1.8-.1 3.6-.4 5.3 1.6 5.4 4.3 10.4 7.9 14.5 2.7-6.1 4.3-12.8 4.3-19.9 0-9.4-2.8-18.3-7.6-25.9z"/></svg>