<svg xmlns="http://www.w3.org/2000/svg" xmlns:xlink="http://www.w3.org/1999/xlink" width="230" height="230" viewBox="0 0 230 230"><symbol id="v" viewBox="-3.4 -3.4 6.7 6.7"><linearGradient id="a" gradientUnits="userSpaceOnUse" y1="-3.356" x2="0" y2="3.356"><stop offset="0" stop-color="#FFB956"/><stop offset=".028" stop-color="#FFBB5A"/><stop offset=".31" stop-color="#FCCE7E"/><stop offset=".575" stop-color="#FADB98"/><stop offset=".813" stop-color="#F8E3A8"/><stop offset="1" stop-color="#F8E6AD"/></linearGradient><path fill="url(#a)" d="M3.4 0c0-1.9-1.5-3.4-3.4-3.4S-3.4-1.9-3.4 0-1.9 3.4 0 3.4 3.4 1.9 3.4 0z"/></symbol><symbol id="t" viewBox="-21.1 -22.7 42.3 45.4"><path fill="#F4AD4E" d="M21 12.6c.1-.4.1-.9.1-1.3 0-.8-.1-1.6-.4-2.3-.9-2.6-2.1-6.7-2.9-13.1-.7-15.3-4-19.2-17.8-18.6-13.7-.6-17 3.3-17.7 18.6-.4 4.1-1.3 8.2-2.7 12.4-.2.5-.4 1.1-.6 1.6-.1.4-.2.9-.2 1.4 0 .4 0 .9.1 1.3H21z"/><path fill="#F5D345" d="M21.1 11.3c0-.8-.1-1.6-.4-2.3C18.7 3.8 10.2-.1 0-.1c-9.7 0-17.9 3.5-20.4 8.4-.3.5-.5 1.1-.6 1.6-.1.4-.2.9-.2 1.4 0 .4 0 .9.1 1.3 1.2 5.7 10.2 10.1 21 10.1s19.8-4.4 21-10.1c.2-.4.2-.9.2-1.3z"/><path fill="#F4AE42" d="M-14.2 17.2s.3.2 1 .7c.7.4 1.7 1 3.1 1.5 1.4.5 3.1 1 5.2 1.3 2.1.3 4.4.3 7 0 2.5-.3 5.3-1.1 7.9-2.6 1.2-.8 2.6-1.9 3.4-3.3.4-.7.7-1.6.8-2.4.1-.9 0-1.8-.3-2.6-.6-1.6-1.8-2.9-3.2-3.8-.4-.3-.7-.6-1.1-.8l-1.1-.5c-.3-.2-.7-.3-1.1-.4l-1.2-.4c-1.6-.3-3.3-.6-5-.5H-.1l-1.3.2c-.8.1-1.6.4-2.5.6-.4.1-.8.3-1.2.5l-.6.3c-.1 0-.2 0-.3.1l-.3.2c-.3.2-.8.5-1.1.8-.3.3-.7.7-.9 1.1-.5.8-.8 1.9-.6 3 .2 1 .8 1.9 1.4 2.6.3.3.7.6 1.1.9l.3.2.3.2.5.3.3.1.3.1.7.2c.5.2.9.2 1.3.3 1.7.3 3.5.2 5.2-.2.8-.2 1.7-.6 2.4-1 .7-.5 1.6-1.3 1.9-2.4.1-.6.1-1.2 0-1.7-.2-.7-.5-1.1-.8-1.5-.3-.4-.7-.7-1.1-.9l-.1-.1-.1-.1h-.1l-.3-.1c-.2-.1-.3-.2-.5-.2-.5-.2-.9-.3-1.3-.4-.4-.1-.8-.1-1.2-.1-.4 0-.8 0-1.2.1-.4 0-.8.1-1.1.2-.4.1-.8.2-1.1.4l-.3.1-.1.1h-.1s-.2.1-.1.1l-.4.3c-.2.2-.4.4-.5.6-.2.3-.3.5-.4.8-.1.5-.1 1.1.1 1.6s.5.8.9 1.1l.2.2.1.1h.1l.1.1.4.2c.8.3 1.5.3 2.1.3.7 0 1.3-.2 1.9-.5l.3-.2h.1l.1-.1.1-.1c.1-.1.2-.1.4-.3.3-.3.5-.8.4-1.3 0-.5-.3-.8-.6-1.1-.1-.1-.3-.2-.4-.3h-.1s-.2-.1-.1-.1h-.2l-.4-.2H.2l-.4.1c-.1 0-.2.1-.4.2L-1 9c-.1 0-.1 0-.2.1-.3.3-.4.6-.3 1 .1.4.3.6.5.7l.2.1s.1.1.1 0h.1l.2.1c.2 0 .5.1.7.1.4 0 .7-.2 1-.4.1-.1.3-.4.3-.6 0-.3-.2-.4-.3-.5H1l-.1-.1H.5c-.2 0-.4.1-.6.2l-.2.2c0 .1-.1.2-.1.3 0 .2.1.2.2.3.1 0 .1.1.1.1l.1-.4s-.1-.1-.1-.2c.1 0 .1-.1.1-.1.1 0 .3-.1.4 0 .1 0 .1 0 .2.1h.2c-.1 0 0 0 0 0 .1.1.1.1 0 .2-.2.1-.4.1-.7.1-.1 0-.2 0-.3-.1l-.2-.1h-.1c-.1 0 .1 0 0 0l-.1-.1c-.2-.2-.1-.2 0-.3l.2-.1.2-.1c.1 0 .1-.1.2-.1h1l.3.1c.3.1.5.4.5.5 0 0 0 .1-.1.1l-.2.2-.1.1s.1-.1 0 0l-.1.1c-.4.1-.8.2-1.3.2s-1-.1-1.3-.3l-.4-.2c-.1 0 .1 0 0 0h-.1l-.1-.1c-.1.1-.2-.1-.2-.2v-.2l.1-.1c0-.1 0-.1.1-.2l.4-.3c.1-.1-.1.1-.1 0h.1l.3-.1c.2-.1.5-.1.7-.2.5-.1 1.1-.2 1.7-.1.6 0 1.2.2 1.6.3 1.2.4 1.9 1.3 1.7 1.9-.1.3-.4.7-.9 1.1-.5.3-1.1.6-1.8.8-1.3.4-2.8.5-4.2.3-.3-.1-.7-.1-1-.2l-.5-.1-.2-.1-.3-.1-.5-.3-.1-.2h-.1c-.1 0 .1 0 0 0l-.2-.1c-.3-.2-.6-.4-.8-.6-1-.9-1.4-2.2-.8-3.4.1-.3.4-.6.6-.8.3-.3.5-.5.8-.7l.3-.2.2-.1.5-.3c.4-.2.7-.4 1-.5 3-1.3 6.4-1.6 9.5-.9l1.1.4c.4.1.8.2 1.1.4l1.1.5c.3.2.6.5 1 .7 1.2.9 2.2 2.2 2.5 3.5.2.7.2 1.4 0 2-.2.6-.4 1.2-.8 1.8-.2.3-.4.5-.6.8-.3.2-.5.5-.7.7-.3.2-.5.4-.8.6-.3.1-.7.4-.9.5-2.4 1.3-4.9 2.1-7.2 2.5-2.4.4-4.6.5-6.6.4-2-.1-3.7-.4-5.1-.7-1.4-.3-2.4-.7-3.2-1-.7-.3-1.1-.5-1.1-.5v.1z"/><path d="M-10.6 11.3c0 3.4 3.1 6.3 7.4 7.4-5.2-1-9-4-9-7.4 0-3.5 3.8-6.4 9-7.4-4.4 1.1-7.4 4-7.4 7.4zm22.9 0c0 3.5-3.8 6.4-9 7.4 4.3-1.1 7.4-4 7.4-7.4S7.5 5 3.2 3.9c5.3 1 9.1 3.9 9.1 7.4z" fill="#F4AE42"/><path d="M-14.6 11.3c0 3.7 3.4 7 8.4 8.6-5.8-1.5-9.8-4.7-9.8-8.6 0-3.8 4-7.1 9.8-8.6-5 1.6-8.4 4.9-8.4 8.6zm30.5 0c0 3.8-4 7.1-9.8 8.6 5-1.6 8.4-4.8 8.4-8.6s-3.4-7-8.4-8.6c5.8 1.5 9.8 4.8 9.8 8.6z" fill="#F4AE42"/><path d="M-18 11.3c0 3.9 3.4 7.4 8.4 9.4-6.1-1.8-10.3-5.3-10.3-9.4s4.2-7.5 10.3-9.4c-5 2-8.4 5.5-8.4 9.4zm37.8 0c0 4-4.2 7.5-10.3 9.4 5.1-2 8.4-5.4 8.4-9.4 0-3.9-3.4-7.4-8.4-9.4 6.1 1.9 10.3 5.4 10.3 9.4z" fill="#F4AE42"/></symbol><symbol id="G" viewBox="-18.6 -16.3 37.2 32.6"><linearGradient id="b" gradientUnits="userSpaceOnUse" x1=".053" y1="-16.321" x2=".053" y2="16.229"><stop offset="0" stop-color="#E40000"/><stop offset="1" stop-color="#ED0C00"/></linearGradient><path fill="url(#b)" d="M18.6 5.9C17.9 16.5 8.1 16.2 8.1 16.2c-5.4 0-8-4.3-8-4.3s-2.6 4.3-8 4.3c0 0-9.8.3-10.5-10.3 0 0-.5-6.6 7.5-13.5C-8-9.8.1-14.9.1-16.3c0 1.4 8.1 6.5 11 8.7 8 6.9 7.5 13.5 7.5 13.5z"/><linearGradient id="c" gradientUnits="userSpaceOnUse" x1=".052" y1="-14.809" x2=".052" y2="15.445"><stop offset="0" stop-color="#E90401"/><stop offset=".245" stop-color="#EB0904"/><stop offset=".552" stop-color="#F0190E"/><stop offset=".89" stop-color="#F8321F"/><stop offset="1" stop-color="#FB3C25"/></linearGradient><path fill="url(#c)" d="M.1-14.8C-1-13.7-3.2-12.1-7-9.4c-1.5.9-2.7 1.8-3.6 2.4-7.7 6.6-7.3 12.8-7.3 12.9.6 9.3 8.8 9.6 9.7 9.6h.1c4.9 0 7.3-3.7 7.4-3.9l.8-1.2.8 1.2c.1.2 2.5 3.9 7.4 3.9h.1c.9 0 9.1-.3 9.7-9.6 0-.1.3-6.3-7.3-12.9-1-.6-2.2-1.5-3.6-2.4-3.8-2.7-6.1-4.3-7.1-5.4z"/><linearGradient id="d" gradientUnits="userSpaceOnUse" x1=".047" y1="-9.214" x2=".047" y2="14.244"><stop offset="0" stop-color="#F41707"/><stop offset=".082" stop-color="#F5291B" stop-opacity=".918"/><stop offset=".186" stop-color="#F5392C" stop-opacity=".814"/><stop offset=".315" stop-color="#F64437" stop-opacity=".685"/><stop offset=".496" stop-color="#F64A3E" stop-opacity=".503"/><stop offset="1" stop-color="#F64C40" stop-opacity="0"/></linearGradient><path fill="url(#d)" d="M.1-9.2c-6.6 0-12.8 7.1-14.5 13.1-1.3 4.6 1.1 10.3 6.5 10.4h.1c3.4 0 5-2.8 5.1-2.9l2.8-5 2.8 5c.1.1 1.7 2.8 5.1 2.8 5.4 0 7.8-5.8 6.5-10.4-1.7-5.9-7.8-13-14.4-13z"/><linearGradient id="e" gradientUnits="userSpaceOnUse" x1=".053" y1="-6.776" x2=".053" y2="14.002"><stop offset="0" stop-color="#FFF" stop-opacity="0"/><stop offset="1" stop-color="#FFF"/></linearGradient><path opacity=".2" fill="url(#e)" d="M-17.3 4.9c.6 8.8 8.3 9.1 9.1 9.1h.1c4.6 0 6.8-3.5 6.9-3.6l1.3-2 1.2 2c.1.1 2.3 3.6 6.9 3.6h.1c.9 0 8.5-.3 9.1-9.1 0 0-.4-11.7-17.5-11.7-17 0-17.2 11.7-17.2 11.7z"/><path opacity=".1" fill="#FFF" d="M-12.4 8.7c.6 7 9.5 5.9 12.4 2 2.4 3.3 6.4 4.1 9.8 2.2 3.1-1.7 3.3-5.1 1-7.5C6.6 1-1.7 1.3-6.8 3c-1.9.6-5.8 2.7-5.6 5.7.5 5 0 0 0 0z"/><path fill="#E20000" d="M5.7-10.4c-1.9-1.3-3.4-2.4-4.4-3.2-.8-.6-1.9-.6-2.6 0-1 .8-2.5 1.9-4.4 3.2-.8.6-.8.5.1.1 3.3-1.5 7.9-1.5 11.2 0 .9.4.9.4.1-.1z"/><linearGradient id="f" gradientUnits="userSpaceOnUse" x1=".054" y1="-16.321" x2=".054" y2="16.228"><stop offset="0" stop-color="#FBA3A1"/><stop offset="1" stop-color="#FF8B7F"/></linearGradient><path opacity=".2" fill="url(#f)" d="M11-7.6c-2.2-1.7-4.5-3.2-6.8-4.8-.1-.1-.2-.1-.3-.2l-.9-.6c-.8-.6-1.5-1.2-2.2-1.8-.3-.3-.9-.8-.9-1.2 0 .5-.6 1-.9 1.2-.9.9-2 1.7-3.1 2.5-2.3 1.7-4.8 3.2-7 5-8 7-7.5 13.5-7.5 13.5C-17.7 16.5-8 16.2-8 16.2h.7c.7 0 1.3-.2 1.9-.3 1.4-.4 2.5-1 3.3-1.7-.7.2-1.6.3-2.5.3 0 0-1.1 0-2.5-.3-1-.2-2.1-.6-3.2-1.3-2.3-1.4-4.4-4-4.7-8.7 0 0-.5-6.6 7.5-13.5 1.6-1.3 4.9-3.4 7.5-5.3.8.6 1.7 1.2 2.5 1.8.4.3.8.6 1.2.8 1.5 1 2.9 2 3.8 2.7 8 7 7.5 13.5 7.5 13.5-.6 10.5-10.4 10.3-10.4 10.3-.9 0-1.7-.1-2.5-.3 1.3 1 3.3 2.1 5.9 2.1 0 0 9.8.3 10.5-10.3.1-.1.6-6.7-7.5-13.6z"/><path opacity=".5" fill="#FFF" d="M16.7 1.3c.4 1.7.3 2.9.3 3-.4 5.7-3.4 8.9-6.6 10.4.8-.2 1.8-.5 2.8-1 2.8-1.5 4.3-4.1 4.6-7.9-.1-.1 0-1.9-1.1-4.5zm-33.3 0c-1.2 2.6-1.1 4.4-1.1 4.6.3 3.7 1.8 6.4 4.6 7.9 1 .5 1.9.8 2.8 1-3.2-1.5-6.2-4.7-6.6-10.4 0-.2-.1-1.4.3-3.1z"/><g opacity=".8"><radialGradient id="g" cx="-22154.602" cy="22753.951" r="34.488" gradientTransform="matrix(.2723 0 0 .2614 6024.322 -5940.575)" gradientUnits="userSpaceOnUse"><stop offset="0" stop-color="#FF9143"/><stop offset=".318" stop-color="#FF8D30" stop-opacity=".682"/><stop offset=".708" stop-color="#FF8A1F" stop-opacity=".292"/><stop offset="1" stop-color="#FF8919" stop-opacity="0"/></radialGradient><path fill="url(#g)" d="M1 7.3c0-5-4.2-9-9.4-9s-9.4 4-9.4 9 4.2 9 9.4 9 9.4-4 9.4-9z"/><radialGradient id="h" cx="-8.376" cy="6.11" r="10.212" gradientTransform="matrix(1 0 0 1.0832 0 -.509)" gradientUnits="userSpaceOnUse"><stop offset="0" stop-color="#FFF" stop-opacity=".7"/><stop offset=".061" stop-color="#FFF" stop-opacity=".657"/><stop offset="1" stop-color="#FFF" stop-opacity="0"/></radialGradient><path opacity=".5" fill="url(#h)" d="M1.8 6.1C1.8.5-2.7-4.1-8.4-4.1-14-4.1-18.6.5-18.6 6.1S-14 16.3-8.4 16.3c5.7 0 10.2-4.5 10.2-10.2z"/><radialGradient id="i" cx="-7.083" cy="3.612" r="10.212" gradientTransform="matrix(1 0 0 1.0832 0 -.3)" gradientUnits="userSpaceOnUse"><stop offset="0" stop-color="#FFF" stop-opacity=".7"/><stop offset=".061" stop-color="#FFF" stop-opacity=".657"/><stop offset="1" stop-color="#FFF" stop-opacity="0"/></radialGradient><path opacity=".6" fill="url(#i)" d="M3.1 3.6C3.1-2-1.4-6.6-7.1-6.6S-17.3-2-17.3 3.6s4.6 10.2 10.2 10.2S3.1 9.3 3.1 3.6z"/><radialGradient id="j" cx="-22083.838" cy="22766.307" r="18.389" gradientTransform="matrix(.2723 0 0 .2614 6024.322 -5940.575)" gradientUnits="userSpaceOnUse"><stop offset="0" stop-color="#FF9143"/><stop offset=".318" stop-color="#FF8D30" stop-opacity=".682"/><stop offset=".708" stop-color="#FF8A1F" stop-opacity=".292"/><stop offset="1" stop-color="#FF8919" stop-opacity="0"/></radialGradient><path fill="url(#j)" d="M15.9 10.5c0-2.7-2.2-4.8-5-4.8s-5 2.2-5 4.8c0 2.7 2.2 4.8 5 4.8s5-2.1 5-4.8z"/><radialGradient id="k" cx="10.893" cy="10.335" r="5.111" gradientTransform="matrix(1 0 0 1.0832 0 -.86)" gradientUnits="userSpaceOnUse"><stop offset="0" stop-color="#FFF" stop-opacity=".7"/><stop offset=".061" stop-color="#FFF" stop-opacity=".657"/><stop offset="1" stop-color="#FFF" stop-opacity="0"/></radialGradient><path opacity=".5" fill="url(#k)" d="M16 10.3c0-2.8-2.3-5.1-5.1-5.1s-5.1 2.3-5.1 5.1 2.3 5.1 5.1 5.1 5.1-2.2 5.1-5.1z"/><radialGradient id="l" cx="11.539" cy="9.085" r="5.11" gradientTransform="matrix(1 0 0 1.0832 0 -.756)" gradientUnits="userSpaceOnUse"><stop offset="0" stop-color="#FFF" stop-opacity=".7"/><stop offset=".061" stop-color="#FFF" stop-opacity=".657"/><stop offset="1" stop-color="#FFF" stop-opacity="0"/></radialGradient><path opacity=".6" fill="url(#l)" d="M16.6 9.1c0-2.8-2.3-5.1-5.1-5.1S6.4 6.3 6.4 9.1s2.3 5.1 5.1 5.1c2.9 0 5.1-2.3 5.1-5.1z"/></g></symbol><linearGradient id="m" gradientUnits="userSpaceOnUse" x1="113.627" y1="227" x2="113.627" y2="63.353"><stop offset="0" stop-color="#FF8F29"/><stop offset="1" stop-color="#F8D539"/></linearGradient><path fill="url(#m)" d="M98.2 213.6v-30.5S42.3 119.5 34.8 90c-3.6-14.3 11.8-26.7 26.3-26.7H166c14.5 0 29.9 12.4 26.3 26.7-7.5 29.4-63.4 93.1-63.4 93.1v30.5c0 7.4-5.9 13.4-13.1 13.4h-4.5c-7.2 0-13.1-6-13.1-13.4z"/><path fill="#BD911E" d="M130 184.6l-29.7 1.1-13.1-22.8 16.6 21.7-4.7-18.5 7.5 18.1 1.8-18.1 1.7 17.4 6.4-17.4-.7 17.5 6.7-16.3.8 13.2 12.3-19.1"/><path opacity=".2" fill="#FFF" d="M192.4 89.9c-7.5 29.4-63.4 93-63.4 93v30.5c0 7.4-5.9 13.4-13.1 13.4h-2.2V63.2h52.5c14.4 0 29.8 12.4 26.2 26.7z"/><linearGradient id="n" gradientUnits="userSpaceOnUse" x1="43.684" y1="39.943" x2="87.603" y2="39.943"><stop offset="0" stop-color="#AD2A27"/><stop offset="1" stop-color="#E4554F"/></linearGradient><path fill="url(#n)" d="M45.8 13.5c11.6.3 24.7 1 33.4 9.7 10.2 10.1 11.4 28.5 2 39.5-3.6 4.2-4.3 5.1-8.2 1.9-6.9-5.8-17.5-7.6-23-14.9-7.1-9.5-7.7-25.2-4.2-36.2z"/><linearGradient id="o" gradientUnits="userSpaceOnUse" x1="113.52" y1="133.701" x2="113.52" y2="58.944"><stop offset="0" stop-color="#4F8F39"/><stop offset=".143" stop-color="#74A634"/><stop offset=".294" stop-color="#94B930"/><stop offset=".452" stop-color="#ADC82D"/><stop offset=".617" stop-color="#BED32B"/><stop offset=".793" stop-color="#C9D929"/><stop offset="1" stop-color="#CCDB29"/></linearGradient><path opacity=".6" fill="url(#o)" d="M194.3 85.6c-2.3 8.6-8.8 20.2-17 32.2-8.2 8.7-21.5 20.9-34.4 13.8-4.3-2.4-8.6-8.2-14-7.8-4.7.4-7.4 4.8-12.1 5.6-7.1 1.2-13.9-2.5-21.2-1.5-5.7.8-11.1 3.8-16.9 4.1-5.3.3-9.3-3.6-12.7-6.9-6.3-6.1-11.2-9-19.7-11.3-6-9.2-16-22.6-14.8-34.1C32.8 67.3 47 59 59 59h108.1c15.1-.1 30.9 12.3 27.2 26.6-2.3 8.6 3.7-14.3 0 0z"/><linearGradient id="p" gradientUnits="userSpaceOnUse" x1="78.607" y1="29.312" x2="117.786" y2="29.312"><stop offset="0" stop-color="#AD2A27"/><stop offset="1" stop-color="#E4554F"/></linearGradient><path fill="url(#p)" d="M111.7 4.7c-3.7 11 9.5 18.7 5.3 29.9-2.5 6.5-7.7 11.8-12.3 16.9-4.8 5.2-4.7 7-11.1 2.8-12.9-8.5-19.8-25.1-10.9-39 5.4-8.6 19-18.1 29-10.6z"/><linearGradient id="q" gradientUnits="userSpaceOnUse" x1="123.81" y1="26.952" x2="150.346" y2="26.952"><stop offset="0" stop-color="#468333"/><stop offset=".194" stop-color="#508831"/><stop offset=".528" stop-color="#6C942A"/><stop offset=".959" stop-color="#98A920"/><stop offset="1" stop-color="#9DAB1F"/></linearGradient><path fill="url(#q)" d="M142.9 6.8c19.6 12.9-3.9 37.8-18.9 40.3-.5-7.9.5-16.7 4.6-23.7 3.6-6.5 11-9.9 14.3-16.6z"/><linearGradient id="r" gradientUnits="userSpaceOnUse" x1="84.123" y1="31.651" x2="103.749" y2="31.651"><stop offset="0" stop-color="#468333"/><stop offset=".194" stop-color="#508831"/><stop offset=".528" stop-color="#6C942A"/><stop offset=".959" stop-color="#98A920"/><stop offset="1" stop-color="#9DAB1F"/></linearGradient><path fill="url(#r)" d="M94.1 15.2c5 5.4 11.2 12.6 9.4 20.5-.4 2-.8 10.7-1.7 11.4-3.7 3.1-11.5-2.6-13.9-5.3-7.5-8.9-2.9-20.9 6.2-26.6z"/><linearGradient id="s" gradientUnits="userSpaceOnUse" x1="129.389" y1="39.992" x2="181.072" y2="39.992"><stop offset="0" stop-color="#AD2A27"/><stop offset="1" stop-color="#E4554F"/></linearGradient><path fill="url(#s)" d="M181.1 23.6c-3.5 11.3-7.5 28.5-20.1 33.1-5.2 1.9-10.8 0-15.7 2.1-2.2 1-4.8 4.9-6.7 4-16.5-7.8-7.9-32.2 3.6-40.4 11.1-8.1 27.9-6.2 38.9 1.2z"/><path fill="#DF6E70" d="M91 31.3c3.9 3.7 15.5 11.3 14.7 17.2-.4 3.1-2.1 17.5-3.8 18.1C77.2 74.9 67.3 40.3 91 31.3z"/><path fill="#DF6E70" d="M111.3 23.3c6.5-.4 14.3 2.3 17.5 8.4 3.9 7.5-5.5 20.1-14 19.3-3.5-.3-14.2-8.9-14.4-12.6-.7-4.6 8.2-11.6 10.9-15.1zM153 34.1c21.4 10.5 3.4 42.1-16.6 28.8-1.4-.9-1.8-16-1.6-17.9.7-6.1 13.5-7.9 18.2-10.9z"/><use xlink:href="#t" width="42.3" height="45.4" x="-21.1" y="-22.7" transform="matrix(.7674 .2582 .2582 -.7674 168.189 48.722)" overflow="visible"/><path fill="#DF6E70" d="M170.2 79c-3.9.2-18.3 4.8-19.6 1.2-2-5.6-9.3-10.3-8.1-15.8 5.4-22.1 40.5-6.6 27.7 14.6z"/><path fill="#DF6E70" d="M168.8 92.7c-5.3 6-13.9 7.8-21.2 4.5-11.5-5.1-8.6-16.5-7.6-26.6.6-5.8 18.8-.9 21.4.7 6.4 3.8 5 14.9 7.4 21.4z"/><use xlink:href="#t" width="42.3" height="45.4" x="-21.1" y="-22.7" transform="matrix(1.4022 0 0 -1.4022 120.179 67.092)" overflow="visible"/><use xlink:href="#t" width="42.3" height="45.4" x="-21.1" y="-22.7" transform="matrix(.8947 -.3632 -.3632 -.8947 63.7 48.308)" overflow="visible"/><linearGradient id="u" gradientUnits="userSpaceOnUse" x1="18.439" y1="87.971" x2="64.714" y2="87.971"><stop offset="0" stop-color="#468333"/><stop offset=".194" stop-color="#508831"/><stop offset=".528" stop-color="#6C942A"/><stop offset=".959" stop-color="#98A920"/><stop offset="1" stop-color="#9DAB1F"/></linearGradient><path fill="url(#u)" d="M18.4 101.8c6.2-6.1 13-10 18.4-17 6.4-8 16.8-16.8 27.9-14.9-5.8 9.8-6.3 21.5-14.8 29.9-9.5 9.5-20.5 7.2-31.5 2z"/><use xlink:href="#v" width="6.7" height="6.7" x="-3.4" y="-3.4" transform="matrix(.9184 0 0 -.9184 51.719 113.45)" overflow="visible"/><use xlink:href="#v" width="6.7" height="6.7" x="-3.4" y="-3.4" transform="matrix(.9184 0 0 -.9184 60.023 117.29)" overflow="visible"/><use xlink:href="#v" width="6.7" height="6.7" x="-3.4" y="-3.4" transform="matrix(.9184 0 0 -.9184 66.188 123.453)" overflow="visible"/><use xlink:href="#v" width="6.7" height="6.7" x="-3.4" y="-3.4" transform="matrix(.9184 0 0 -.9184 72.842 129.034)" overflow="visible"/><use xlink:href="#v" width="6.7" height="6.7" x="-3.4" y="-3.4" transform="matrix(.9184 0 0 -.9184 81.11 132.116)" overflow="visible"/><use xlink:href="#v" width="6.7" height="6.7" x="-3.4" y="-3.4" transform="matrix(.9184 0 0 -.9184 89.4 129.034)" overflow="visible"/><use xlink:href="#v" width="6.7" height="6.7" x="-3.4" y="-3.4" transform="matrix(.9184 0 0 -.9184 107.924 129.034)" overflow="visible"/><use xlink:href="#v" width="6.7" height="6.7" x="-3.4" y="-3.4" transform="matrix(.9184 0 0 -.9184 116.704 130.722)" overflow="visible"/><use xlink:href="#v" width="6.7" height="6.7" x="-3.4" y="-3.4" transform="matrix(.9184 0 0 -.9184 123.322 125.441)" overflow="visible"/><use xlink:href="#v" width="6.7" height="6.7" x="-3.4" y="-3.4" transform="matrix(.9184 0 0 -.9184 134.158 125.441)" overflow="visible"/><use xlink:href="#v" width="6.7" height="6.7" x="-3.4" y="-3.4" transform="matrix(.9184 0 0 -.9184 140.953 131.777)" overflow="visible"/><use xlink:href="#v" width="6.7" height="6.7" x="-3.4" y="-3.4" transform="matrix(.9184 0 0 -.9184 150.754 134.86)" overflow="visible"/><use xlink:href="#v" width="6.7" height="6.7" x="-3.4" y="-3.4" transform="matrix(.9184 0 0 -.9184 159.846 132.116)" overflow="visible"/><use xlink:href="#v" width="6.7" height="6.7" x="-3.4" y="-3.4" transform="matrix(.9184 0 0 -.9184 166.974 125.441)" overflow="visible"/><linearGradient id="w" gradientUnits="userSpaceOnUse" x1="45.757" y1="96.278" x2="89.857" y2="96.278"><stop offset="0" stop-color="#AD2A27"/><stop offset="1" stop-color="#E4554F"/></linearGradient><path fill="url(#w)" d="M45.8 117.2c2.4-9.5 1.1-23.3 7-31.5 4.3-5.9 29-20.7 36.4-11.3 1.4 1.8 0 13.3.1 15.3.2 6.8-.4 13.5-4.6 19.2-8.5 12-26.4 16-38.9 8.3z"/><linearGradient id="x" gradientUnits="userSpaceOnUse" x1="12" y1="72.392" x2="84.145" y2="72.392"><stop offset="0" stop-color="#AD2A27"/><stop offset="1" stop-color="#E4554F"/></linearGradient><path fill="url(#x)" d="M12 80c7.5-10.8 16-22.2 29.1-26.2 16.6-5 37.1 3.4 42.5 20.6 2 6.3-1.8 4.7-7.3 6.7-7.2 2.6-13.4 7.6-20.7 9.9-14.1 4.3-32.8-1.5-43.6-11z"/><linearGradient id="y" gradientUnits="userSpaceOnUse" x1="151.529" y1="99.549" x2="193.518" y2="99.549"><stop offset="0" stop-color="#AD2A27"/><stop offset="1" stop-color="#E4554F"/></linearGradient><path fill="url(#y)" d="M189.5 119.7c-8.9.3-27 1.3-31.8-8.2-2.8-5.5-9.3-22.3-4.4-26.2 9.2-7.5 24-8.4 33.1-.2 9.8 8.8 8.2 23.8 3.1 34.6z"/><linearGradient id="z" gradientUnits="userSpaceOnUse" x1="160.492" y1="73.642" x2="218.747" y2="73.642"><stop offset="0" stop-color="#AD2A27"/><stop offset="1" stop-color="#E4554F"/></linearGradient><path fill="url(#z)" d="M216 81.7c-6.1-3-11.9 6-16.5 8.8-4.5 2.6-9.6 3.5-14.6 2.6-6.9-1.4-26.8-14.3-24.2-21.3 3.9-10.3 17.7-17.7 28.2-17.9 9.7-.2 38.8 15.2 27.1 27.8z"/><linearGradient id="A" gradientUnits="userSpaceOnUse" x1="119.659" y1="110.542" x2="159.848" y2="110.542"><stop offset="0" stop-color="#AD2A27"/><stop offset="1" stop-color="#E4554F"/></linearGradient><path fill="url(#A)" d="M150.6 135.5c-11.4-4.9-28.1-10.1-29.6-24.3-.8-6.1-.7-12.3-1.3-18.5-.6-6 4.1-6.1 9.9-6.8 29.5-3.5 39.3 30.6 21 49.6z"/><linearGradient id="B" gradientUnits="userSpaceOnUse" x1="79.986" y1="111.036" x2="122.799" y2="111.036"><stop offset="0" stop-color="#AD2A27"/><stop offset="1" stop-color="#E4554F"/></linearGradient><path fill="url(#B)" d="M92.8 138.6c-26-19.9-9.5-63.5 24.2-53.7 7.7 2.2 6.1 3.2 4.6 10.5-1.3 6.2-1.8 12.7-3.3 18.9-2.3 9.3-18.2 18.7-25.5 24.3z"/><linearGradient id="C" gradientUnits="userSpaceOnUse" x1="74.853" y1="96.279" x2="99.057" y2="96.279"><stop offset="0" stop-color="#468333"/><stop offset=".194" stop-color="#508831"/><stop offset=".528" stop-color="#6C942A"/><stop offset=".959" stop-color="#98A920"/><stop offset="1" stop-color="#9DAB1F"/></linearGradient><path fill="url(#C)" d="M74.9 103.3c1.3-4.8 3-14.9 9.6-15.1 3.3-.1 8.2-3.5 10.6-1.3 12.8 11.1-8.2 26-20.2 16.4z"/><linearGradient id="D" gradientUnits="userSpaceOnUse" x1="117.984" y1="112.065" x2="137.871" y2="112.065"><stop offset="0" stop-color="#468333"/><stop offset=".194" stop-color="#508831"/><stop offset=".528" stop-color="#6C942A"/><stop offset=".959" stop-color="#98A920"/><stop offset="1" stop-color="#9DAB1F"/></linearGradient><path fill="url(#D)" d="M128.4 130.5c-3.1-4.4-7.1-8.5-9.3-13.4-1.7-3.8-2.4-21.6 3.3-23.4 5.4-1.7 14.2 12.3 15 16 1.8 7.8-1.9 16.9-9 20.8z"/><path fill="#DF7668" d="M73.1 97.2c-1.3-9.7 3-21 13.3-23.6 4.1-1 18.8.1 19.6 7 .3 2.7-10.3 14.7-11.8 15.6-6 3.5-14.7 2-21.1 1z"/><path fill="#DF6E70" d="M93.3 102.9c-.3-5 .4-21.5 8.3-20.2 5.2 1 5.9-6.3 10.6-4.7 7.4 2.5 9.1 10.7 6.7 17.3-4.1 11.2-16.2 11.2-25.6 7.6z"/><linearGradient id="E" gradientUnits="userSpaceOnUse" x1="138.614" y1="79.978" x2="179.276" y2="79.978"><stop offset="0" stop-color="#468333"/><stop offset=".194" stop-color="#508831"/><stop offset=".528" stop-color="#6C942A"/><stop offset=".959" stop-color="#98A920"/><stop offset="1" stop-color="#9DAB1F"/></linearGradient><path fill="url(#E)" d="M179.3 80.1c-6.4 5.5-15.4 10.1-24 9.3-5.7-.5-10.9-2.8-16.7-3 1.4-21.7 29.8-18.5 40.7-6.3z"/><path fill="#DF6E70" d="M121 118.8c-7.5-3.8-13.2-12.5-11.9-21.2.8-4.8 10.4-19.5 17.3-16.8 4.1 1.6 7.1 16.8 6.5 20.4-1 7-7.5 12.6-11.9 17.6z"/><path fill="#DF828D" d="M149.7 109.9c-3.8-5.7-11.9-3.4-16.9-7.5-3.2-2.6-12-16.8-8.8-21.3 3.8-5.2 20.6-.2 24.1 2.7 6.9 5.7 11.7 21.3 1.6 26.1zM68.6 66.9c8.4-12.2 26.7-8.1 30.1 6 1.7 6.8-8 6.8-13.5 6.7-7.6-.2-12.2-7.5-16.6-12.7z"/><path fill="#DA5556" d="M125.9 203.4l-3.4-3c-11.5-10.2-7.9-9.1-23.2-7.4l-4.5.5c-5.5.6-6.8-2.1-3-6.1l1.7-1.8c3.9-4 3-1.1 2.1-6.6l-.4-2.5c-.8-5.5 1.8-6.9 6-3.2l3.4 3c11.5 10.2 7.9 9.1 23.2 7.4l4.5-.5c5.5-.6 6.8 2.1 3 6.1l-1.7 1.8c-3.9 4-3 1.1-2.1 6.6l.4 2.5c.8 5.5-1.8 6.9-6 3.2z"/><path fill="#AC4344" d="M97.3 173.7c1.4.1 2.8.7 4 1.5 1.5 1 2.3 2.5 3.4 3.9s2.2 2.8 3.2 4.3c.4.6.9 1.2 1.3 1.9.1.2.4.6 0 .6-.2 0-.7-.4-.8-.5-.7-.5-1.4-.9-2.1-1.4-1.6-1.1-3.1-2.3-4.6-3.4-.7-.5-1.5-.9-2.1-1.5-.6-.6-1.1-1.3-1.5-2-.5-.9-1.5-2.7-.8-3.4z"/><path fill="#DA5556" d="M101.6 203.6l3.3-3.1c11.3-10.4 7.8-9.2 23.1-7.8l4.5.4c5.5.5 6.8-2.2 2.9-6.1l-1.8-1.8c-3.9-3.9-3-1.1-2.2-6.6l.3-2.5c.8-5.5-1.9-6.9-6-3.1l-3.3 3.1c-11.3 10.4-7.8 9.2-23.1 7.8l-4.5-.4c-5.5-.5-6.8 2.2-2.9 6.1l1.8 1.8c3.9 3.9 3 1.1 2.2 6.6l-.3 2.5c-.8 5.5 1.9 6.9 6 3.1z"/><path fill="#AC4344" d="M129.7 173.4c-1.4.1-2.8.8-4 1.6-1.5 1-2.3 2.6-3.3 4-1.1 1.4-2.1 2.9-3.1 4.3-.4.6-.9 1.3-1.3 1.9-.1.2-.4.6 0 .6.2 0 .7-.4.8-.5l2.1-1.5c1.6-1.1 3-2.3 4.6-3.5.7-.5 1.4-.9 2.1-1.5.6-.6 1.1-1.3 1.5-2.1.3-.7 1.3-2.6.6-3.3z"/><path fill="#F4CB5F" d="M129.9 199l-4.1-1.8c-14-6.3-10.3-6.3-24.3 0l-4.1 1.8c-5.1 2.3-7.2.1-4.7-4.9l1.1-2.2c2.5-5 2.5-2 0-6.9l-1.1-2.2c-2.5-5-.4-7.2 4.7-4.9l4.1 1.8c14 6.3 10.3 6.3 24.3 0l4.1-1.8c5.1-2.3 7.2-.1 4.7 4.9l-1.1 2.2c-2.5 5-2.5 2 0 6.9l1.1 2.2c2.5 5 .4 7.2-4.7 4.9z"/><path fill="#E0AC24" d="M134 179.3c-1.4-.3-2.9-.2-4.3.2-1.7.5-3 1.7-4.4 2.7-1.5 1-2.9 2-4.4 3.1-.6.5-1.2.9-1.8 1.4-.2.1-.6.4-.2.6.1.1.8-.2.9-.2.8-.2 1.6-.5 2.4-.7 1.8-.6 3.6-1.3 5.4-1.8.8-.3 1.7-.4 2.5-.8s1.4-.9 2.1-1.5c.7-.6 2.3-2.1 1.8-3zm-40.4 0c1.4-.3 2.9-.2 4.3.2 1.7.5 3 1.7 4.4 2.7 1.5 1 2.9 2 4.4 3.1.6.5 1.2.9 1.8 1.4.2.1.6.4.2.6-.1.1-.8-.2-.9-.2-.8-.2-1.6-.5-2.4-.7-1.8-.6-3.6-1.3-5.4-1.8-.8-.3-1.7-.4-2.5-.8s-1.4-.9-2.1-1.5c-.7-.6-2.3-2.1-1.8-3z"/><path fill="#F4CB5F" d="M109 211.9l-1.5-4.2-3.6 2.7 6.8-22.6 5.1 1.5"/><path fill="#F4CB5F" d="M118.2 211.9l1.5-4.2 3.6 2.7-6.8-22.6-5.1 1.5"/><linearGradient id="F" gradientUnits="userSpaceOnUse" x1="113.627" y1="195.674" x2="113.627" y2="181.14"><stop offset="0" stop-color="#FFD981"/><stop offset=".24" stop-color="#FEE19C"/><stop offset=".531" stop-color="#FCE9B6"/><stop offset=".793" stop-color="#FBEEC6"/><stop offset="1" stop-color="#FBF0CB"/></linearGradient><path fill="url(#F)" d="M117.4 192.6c0 1.7-1.4 3-3 3H113c-1.7 0-3-1.4-3-3v-8.4c0-1.7 1.4-3 3-3h1.4c1.7 0 3 1.4 3 3v8.4z"/><use xlink:href="#G" width="37.2" height="32.6" x="-18.6" y="-16.3" transform="matrix(.9074 0 0 -.9074 109.34 151.256)" overflow="visible"/><use xlink:href="#G" width="37.2" height="32.6" x="-18.6" y="-16.3" transform="matrix(.7416 0 0 -.7416 121.002 153.96)" overflow="visible"/><use xlink:href="#v" width="6.7" height="6.7" x="-3.4" y="-3.4" transform="matrix(.6708 0 0 -.6708 36.925 68.207)" overflow="visible"/><use xlink:href="#v" width="6.7" height="6.7" x="-3.4" y="-3.4" transform="matrix(.6708 0 0 -.6708 112.514 30.377)" overflow="visible"/><use xlink:href="#v" width="6.7" height="6.7" x="-3.4" y="-3.4" transform="matrix(.9873 0 0 -.9873 30.991 76.305)" overflow="visible"/><use xlink:href="#v" width="6.7" height="6.7" x="-3.4" y="-3.4" transform="matrix(.5717 0 0 -.5717 120.946 104.01)" overflow="visible"/><use xlink:href="#v" width="6.7" height="6.7" x="-3.4" y="-3.4" transform="matrix(.3209 0 0 -.3209 135.66 88.653)" overflow="visible"/><use xlink:href="#v" width="6.7" height="6.7" x="-3.4" y="-3.4" transform="matrix(.2691 0 0 -.2691 37.987 82.177)" overflow="visible"/><use xlink:href="#v" width="6.7" height="6.7" x="-3.4" y="-3.4" transform="matrix(.2691 0 0 -.2691 57.844 112.065)" overflow="visible"/><use xlink:href="#v" width="6.7" height="6.7" x="-3.4" y="-3.4" transform="matrix(.7072 0 0 -.7072 64.927 97.485)" overflow="visible"/><use xlink:href="#v" width="6.7" height="6.7" x="-3.4" y="-3.4" transform="matrix(.4709 0 0 -.4709 155.491 60.688)" overflow="visible"/><use xlink:href="#v" width="6.7" height="6.7" x="-3.4" y="-3.4" transform="matrix(.2691 0 0 -.2691 92.48 115.862)" overflow="visible"/><use xlink:href="#v" width="6.7" height="6.7" x="-3.4" y="-3.4" transform="matrix(.2691 0 0 -.2691 85.095 86.734)" overflow="visible"/><use xlink:href="#v" width="6.7" height="6.7" x="-3.4" y="-3.4" transform="matrix(.2691 0 0 -.2691 54.802 20.327)" overflow="visible"/><use xlink:href="#v" width="6.7" height="6.7" x="-3.4" y="-3.4" transform="matrix(.2691 0 0 -.2691 148.724 27.092)" overflow="visible"/><use xlink:href="#v" width="6.7" height="6.7" x="-3.4" y="-3.4" transform="matrix(.3634 0 0 -.3634 82.442 92)" overflow="visible"/><use xlink:href="#v" width="6.7" height="6.7" x="-3.4" y="-3.4" transform="matrix(.2691 0 0 -.2691 82.013 67.912)" overflow="visible"/><use xlink:href="#v" width="6.7" height="6.7" x="-3.4" y="-3.4" transform="matrix(-.6536 -.1508 .1508 -.6536 197.276 66.056)" overflow="visible"/><use xlink:href="#v" width="6.7" height="6.7" x="-3.4" y="-3.4" transform="scale(-.987) rotate(13 232.85 -932.989)" overflow="visible"/><use xlink:href="#v" width="6.7" height="6.7" x="-3.4" y="-3.4" transform="rotate(-167.006 101.073 28.721) scale(.26909)" overflow="visible"/><g><circle fill="none" stroke="#FFD951" stroke-width=".738" stroke-miterlimit="10" cx="119" cy="153.6" r="3.3"/><circle fill="none" stroke="#FFD951" stroke-width=".625" stroke-miterlimit="10" cx="123.4" cy="154.1" r="2.8"/><path fill="#FFD951" d="M123.5 151.3l-1.1-1.1.8-.5h.7l.8.5"/></g></svg>