<svg xmlns="http://www.w3.org/2000/svg" width="250" height="250" viewBox="0 0 250 250"><path fill-rule="evenodd" clip-rule="evenodd" d="M119.6 115.2c0-2.8-5-5-11-5s-11 2.2-11 5 5 5 11 5 11-2.2 11-5zm22.8-5c-6 0-11 2.2-11 5s5 5 11 5 11-2.2 11-5-5-5-11-5zm-14 32.2c-1-2.2-2.3-3.5-3.7-3.5-1.4 0-2.7 1.3-3.6 3.4-8.4.8-15 4.2-15 8.3s6.5 7.5 15 8.3c1 2.2 2.3 3.5 3.7 3.5 1.4 0 2.7-1.4 3.6-3.5 8.5-.8 15-4.2 15-8.3s-6.5-7.5-15-8.3zm-8 14.8c-6.3-.8-11-3.4-11-6.5s4.6-5.7 11-6.5c-.5 2-.8 4-.8 6.5s.3 4.6.8 6.5zm4.3 2c-2 0-3.4-4-3.4-8.6s1.5-8.5 3.4-8.5c2 0 3.4 4 3.4 8.6s-1.5 8.5-3.3 8.5zm4.2-2c.4-2 .7-4 .7-6.5s-.3-4.6-.8-6.5c6.2.8 11 3.4 11 6.5s-4.8 5.7-11 6.5zm-4.3-77.5c-26 0-47.3 21.2-47.3 47.3 0 26 21.2 47.3 47.3 47.3 26 0 47.3-21.2 47.3-47.3 0-26-21.2-47.3-47.3-47.3zm0 91.3c-24.3 0-44-19.7-44-44 0-24.2 19.8-43.8 44-43.8 24.3 0 44 19.7 44 44 0 24-19.8 43.8-44 43.8zm.8-169C57.8 2 3 56.8 3 124.5S57.8 247 125.5 247 248 192.2 248 124.5 193.2 2 125.5 2zm-38 54l13.2 20.4c-13.7 6.4-24.3 18-29 32.6l-6-.5L87.4 56zm0 140.3l-22-52.4 6-.6c5 14.4 15.4 26.2 29 32.6l-13 20.3zm37.2-17c-29 0-52.4-23.4-52.4-52.3 0-29 23.5-52.4 52.4-52.4S177 98 177 127s-23.4 52.4-52.3 52.4zm37 17l-13.5-21c13-6.5 23-18 27.7-32l7.7.6-22 52.3zM176 109c-4.6-14-14.7-25.5-27.7-32L162 56l22 52.4-8 .7z" opacity=".1"/><path fill-rule="evenodd" clip-rule="evenodd" fill="#FFF" d="M119.6 113.2c0-2.8-5-5-11-5s-11 2.2-11 5 5 5 11 5 11-2.2 11-5zm22.8-5c-6 0-11 2.2-11 5s5 5 11 5 11-2.2 11-5-5-5-11-5zm-14 32.2c-1-2.2-2.3-3.5-3.7-3.5-1.4 0-2.7 1.3-3.6 3.4-8.4.8-15 4.2-15 8.3s6.5 7.5 15 8.3c1 2.2 2.3 3.5 3.7 3.5 1.4 0 2.7-1.4 3.6-3.5 8.5-.8 15-4.2 15-8.3s-6.5-7.5-15-8.3zm-8 14.8c-6.3-.8-11-3.4-11-6.5s4.6-5.7 11-6.5c-.5 2-.8 4-.8 6.5s.3 4.6.8 6.5zm4.3 2c-2 0-3.4-4-3.4-8.6s1.5-8.5 3.4-8.5c2 0 3.4 4 3.4 8.6s-1.5 8.5-3.3 8.5zm4.2-2c.4-2 .7-4 .7-6.5s-.3-4.6-.8-6.5c6.2.8 11 3.4 11 6.5s-4.8 5.7-11 6.5zm-4.3-77.5c-26 0-47.3 21.2-47.3 47.3 0 26 21.2 47.3 47.3 47.3 26 0 47.3-21.2 47.3-47.3 0-26-21.2-47.3-47.3-47.3zm0 91.3c-24.3 0-44-19.7-44-44 0-24.2 19.8-43.8 44-43.8 24.3 0 44 19.7 44 44 0 24-19.8 43.8-44 43.8zm.8-169C57.8 0 3 54.8 3 122.5S57.8 245 125.5 245 248 190.2 248 122.5 193.2 0 125.5 0zm-38 54l13.2 20.4c-13.7 6.4-24.3 18-29 32.6l-6-.5L87.4 54zm0 140.3l-22-52.4 6-.6c5 14.4 15.4 26.2 29 32.6l-13 20.3zm37.2-17c-29 0-52.4-23.4-52.4-52.3 0-29 23.5-52.4 52.4-52.4S177 96 177 125s-23.4 52.4-52.3 52.4zm37 17l-13.5-21c13-6.5 23-18 27.7-32l7.7.6-22 52.3zM176 107c-4.6-14-14.7-25.5-27.7-32L162 54l22 52.4-8 .7z"/></svg>