<svg xmlns="http://www.w3.org/2000/svg" width="250" height="250" viewBox="0 0 250 250"><path d="M125.5 246.5C57.8 246.5 3 191.7 3 124S57.8 1.5 125.5 1.5 248 56.3 248 124s-54.8 122.5-122.5 122.5zM182 76c0-5.7-4.5-10.3-10.2-10.3H79.2C73.5 65.7 69 70.3 69 76v99c0 5.6 4.6 10.3 10.2 10.3H81c1.2 1.3 3 2 5 2h79.3c2 0 3.7-.7 5-2h1.5c5.7 0 10.3-4.6 10.3-10.3V76zm-10 106.3H79c-3.8 0-6.8-3-6.8-6.8V75.8c0-3.8 3-6.8 6.8-6.8h93c3.8 0 6.8 3 6.8 6.8v99.7c0 3.8-3 6.8-6.8 6.8zm-5-95.8c0-3-2.6-5.6-5.6-5.6H89.6c-3 0-5.5 2.4-5.5 5.5V165c0 3 2.6 5.5 5.6 5.5h71.8c3 0 5.5-2.5 5.5-5.6V86.4zm-17 50.2c-6.5 0-11.8-5.3-11.8-11.8 0-6.6 5.3-12 11.8-12 6.5 0 11.8 5.4 11.8 12 0 6.4-5.3 11.7-11.8 11.7zm0-17.4c-3 0-5.5 2.5-5.5 5.5s2.5 5.5 5.5 5.5 5.5-2.5 5.5-5.5-2.5-5.5-5.5-5.5zm-8.7 21.8c2 1.3 2.5 3.7 1.4 5.6-.7 1.2-2 2-3.5 2-.7 0-1.4-.3-2-.6l-16.7-8.4c-1.5 1-3.3 1.4-5.2 1.4-2 0-3.6-.5-5.2-1.4L93.6 148c-.6.3-1.3.5-2 .5-1.5 0-2.8-.7-3.5-2-1-1.8-.4-4.3 1.5-5.4l15.7-10c0-4 2-7.2 5.3-9l1-18.5c0-2.2 2-4 4-4 2.2 0 4 1.8 4 4l1 18.7c1 .4 1.6 1 2.2 1.6 2 2 3 4.5 3 7.2l15.6 10z" opacity=".1"/><path fill="#FFF" d="M125.5 244.5C57.8 244.5 3 189.7 3 122S57.8-.5 125.5-.5 248 54.3 248 122s-54.8 122.5-122.5 122.5zM182 74c0-5.7-4.5-10.3-10.2-10.3H79.2C73.5 63.7 69 68.3 69 74v99c0 5.6 4.6 10.3 10.2 10.3H81c1.2 1.3 3 2 5 2h79.3c2 0 3.7-.7 5-2h1.5c5.7 0 10.3-4.6 10.3-10.3V74zm-10 106.3H79c-3.8 0-6.8-3-6.8-6.8V73.8c0-3.8 3-6.8 6.8-6.8h93c3.8 0 6.8 3 6.8 6.8v99.7c0 3.8-3 6.8-6.8 6.8zm-5-95.8c0-3-2.6-5.6-5.6-5.6H89.6c-3 0-5.5 2.4-5.5 5.5V163c0 3 2.6 5.5 5.6 5.5h71.8c3 0 5.5-2.5 5.5-5.6V84.4zm-17 50.2c-6.5 0-11.8-5.3-11.8-11.8 0-6.6 5.3-12 11.8-12 6.5 0 11.8 5.4 11.8 12 0 6.4-5.3 11.7-11.8 11.7zm0-17.4c-3 0-5.5 2.5-5.5 5.5s2.5 5.5 5.5 5.5 5.5-2.5 5.5-5.5-2.5-5.5-5.5-5.5zm-8.7 21.8c2 1.3 2.5 3.7 1.4 5.6-.7 1.2-2 2-3.5 2-.7 0-1.4-.3-2-.6l-16.7-8.4c-1.5 1-3.3 1.4-5.2 1.4-2 0-3.6-.5-5.2-1.4L93.6 146c-.6.3-1.3.5-2 .5-1.5 0-2.8-.7-3.5-2-1-1.8-.4-4.3 1.5-5.4l15.7-10c0-4 2-7.2 5.3-9l1-18.5c0-2.2 2-4 4-4 2.2 0 4 1.8 4 4l1 18.7c1 .4 1.6 1 2.2 1.6 2 2 3 4.5 3 7.2l15.6 10z"/></svg>