<svg id="Слой_1" xmlns="http://www.w3.org/2000/svg" viewBox="0 0 147 147"><style>.st0{opacity:.15}.st1,.st2{fill-rule:evenodd;clip-rule:evenodd}.st2{fill:#fff}</style><g class="st0"><path class="st1" d="M73.5 147C33.5 147 1 114.5 1 74.5S33.5 2 73.5 2 146 34.5 146 74.5 113.5 147 73.5 147zm4.4-69.5c2-1 4-2 5.9-3.1 1.9-1.1 3.6-2.5 5.1-4l.7-.8h6.8c.4 0 .8-.2 1.1-.7.3-.5.5-1.4.5-2.7 0-1.1-.1-2-.4-2.5-.3-.5-.7-.8-1.2-.8h-3.1c.4-1.6.7-3.4.7-5.4 0-3-.5-5.6-1.6-7.9-1.1-2.3-2.6-4.3-4.5-5.8-1.9-1.6-4.2-2.8-6.8-3.6-2.6-.8-5.5-1.2-8.6-1.2-1.6 0-3.1.1-4.7.4-1.6.3-3.1.6-4.5 1.1-1.4.5-2.7 1-3.7 1.5-1.1.6-1.8 1-2.2 1.4-.3.3-.6.6-.7.8-.1.2-.2.5-.3.8-.1.3-.1.7-.2 1.1 0 .4-.1 1-.1 1.7s0 1.2.1 1.7.1.9.2 1.3c.1.3.3.6.5.8.2.2.4.2.7.2.4 0 1-.3 1.9-.8.9-.5 1.9-1.1 3.1-1.7 1.2-.6 2.7-1.2 4.4-1.8 1.7-.5 3.6-.8 5.7-.8 2 0 3.7.3 5.1.8 1.5.5 2.7 1.2 3.6 2.1.9.9 1.7 1.9 2.1 3.1.5 1.2.7 2.5.7 3.8 0 2-.5 3.7-1.4 5.1-.3.4-.5.8-.8 1.2H51.6c-.4 0-.8.3-1.1.8-.3.5-.5 1.4-.5 2.5 0 1.3.2 2.2.5 2.7s.7.7 1.1.7H72c-1.2.6-2.5 1.2-3.7 1.8-2 .9-4 1.9-5.9 3.1-1.9 1.1-3.6 2.4-5.1 3.8h-5.6c-.4 0-.8.3-1.1.8-.3.5-.5 1.4-.5 2.5 0 1.2.2 2.1.5 2.6s.7.7 1.1.7h1.4c-.6 1.8-.9 3.8-.9 6.1 0 3.3.6 6.3 1.8 8.9 1.2 2.6 2.9 4.8 5.1 6.6 2.2 1.8 4.7 3.2 7.7 4.1 2.9.9 6.1 1.4 9.5 1.4 2.4 0 4.6-.2 6.6-.6 2-.4 3.8-.9 5.4-1.5 1.6-.6 2.9-1.2 4-1.8 1.1-.6 1.8-1.2 2.2-1.6.4-.4.7-1 .9-1.7.2-.7.3-1.6.3-2.7 0-.8 0-1.5-.1-2s-.2-1-.3-1.3c-.1-.3-.3-.6-.5-.7h-.9c-.5 0-1.2.3-2.2.9-.9.6-2.1 1.3-3.6 2s-3.2 1.4-5.3 2.1c-2.1.6-4.4 1-7.1 1-2 0-3.9-.3-5.6-.8-1.7-.5-3.2-1.3-4.4-2.3-1.2-1-2.2-2.2-2.8-3.7-.7-1.5-1-3.1-1-5 0-2 .5-3.7 1.4-5.1.4-.7 1-1.4 1.6-2h31.5c.4 0 .8-.2 1.1-.7.3-.5.5-1.4.5-2.6 0-1.1-.1-2-.4-2.5-.3-.5-.7-.8-1.2-.8H76.2c.6-.5 1.2-.7 1.7-1z"/></g><path class="st2" d="M73.5 145C33.5 145 1 112.5 1 72.5S33.5 0 73.5 0 146 32.5 146 72.5 113.5 145 73.5 145zm4.4-69.5c2-1 4-2 5.9-3.1 1.9-1.1 3.6-2.5 5.1-4l.7-.8h6.8c.4 0 .8-.2 1.1-.7.3-.5.5-1.4.5-2.7 0-1.1-.1-2-.4-2.5-.3-.5-.7-.8-1.2-.8h-3.1c.4-1.6.7-3.4.7-5.4 0-3-.5-5.6-1.6-7.9-1.1-2.3-2.6-4.3-4.5-5.8-1.9-1.6-4.2-2.8-6.8-3.6-2.6-.8-5.5-1.2-8.6-1.2-1.6 0-3.1.1-4.7.4-1.6.3-3.1.6-4.5 1.1-1.4.5-2.7 1-3.7 1.5-1.1.6-1.8 1-2.2 1.4-.3.3-.6.6-.7.8-.1.2-.2.5-.3.8-.1.3-.1.7-.2 1.1 0 .4-.1 1-.1 1.7s0 1.2.1 1.7.1.9.2 1.3c.1.3.3.6.5.8.2.2.4.2.7.2.4 0 1-.3 1.9-.8.9-.5 1.9-1.1 3.1-1.7 1.2-.6 2.7-1.2 4.4-1.8 1.7-.5 3.6-.8 5.7-.8 2 0 3.7.3 5.1.8 1.5.5 2.7 1.2 3.6 2.1.9.9 1.7 1.9 2.1 3.1.5 1.2.7 2.5.7 3.8 0 2-.5 3.7-1.4 5.1-.3.4-.5.8-.8 1.2H51.6c-.4 0-.8.3-1.1.8-.3.5-.5 1.4-.5 2.5 0 1.3.2 2.2.5 2.7s.7.7 1.1.7H72c-1.2.6-2.5 1.2-3.7 1.8-2 .9-4 1.9-5.9 3.1-1.9 1.1-3.6 2.4-5.1 3.8h-5.6c-.4 0-.8.3-1.1.8-.3.5-.5 1.4-.5 2.5 0 1.2.2 2.1.5 2.6s.7.7 1.1.7h1.4c-.6 1.8-.9 3.8-.9 6.1 0 3.3.6 6.3 1.8 8.9 1.2 2.6 2.9 4.8 5.1 6.6 2.2 1.8 4.7 3.2 7.7 4.1 2.9.9 6.1 1.4 9.5 1.4 2.4 0 4.6-.2 6.6-.6 2-.4 3.8-.9 5.4-1.5 1.6-.6 2.9-1.2 4-1.8 1.1-.6 1.8-1.2 2.2-1.6.4-.4.7-1 .9-1.7.2-.7.3-1.6.3-2.7 0-.8 0-1.5-.1-2s-.2-1-.3-1.3c-.1-.3-.3-.6-.5-.7h-.9c-.5 0-1.2.3-2.2.9-.9.6-2.1 1.3-3.6 2s-3.2 1.4-5.3 2.1c-2.1.6-4.4 1-7.1 1-2 0-3.9-.3-5.6-.8-1.7-.5-3.2-1.3-4.4-2.3-1.2-1-2.2-2.2-2.8-3.7-.7-1.5-1-3.1-1-5 0-2 .5-3.7 1.4-5.1.4-.7 1-1.4 1.6-2h31.5c.4 0 .8-.2 1.1-.7.3-.5.5-1.4.5-2.6 0-1.1-.1-2-.4-2.5-.3-.5-.7-.8-1.2-.8H76.2c.6-.5 1.2-.7 1.7-1z"/></svg>