<svg xmlns="http://www.w3.org/2000/svg" width="250" height="250" viewBox="0 0 250 250"><path d="M125.5 246.5C57.8 246.5 3 191.7 3 124S57.8 1.5 125.5 1.5 248 56.3 248 124s-54.8 122.5-122.5 122.5zm-80.3-103v24c0 2.5 2.2 4.7 4.8 4.7h64.8c2.7 0 4.8-2 4.8-4.8v-24c0-6.5-5.4-11.8-12-11.8H57.2c-6.6 0-12 5.3-12 12zm116.6-55.7c0-6.6-5.4-12-12-12H99.5c-6.6 0-12 5.4-12 12v24c0 2.5 2.2 4.7 4.8 4.7H157c2.7 0 4.8-2 4.8-4.8v-24zm44 55.7c0-6.6-5.4-12-12-12h-50.4c-6.6 0-12 5.4-12 12v24c0 2.5 2 4.7 4.8 4.7H201c2.6 0 4.8-2 4.8-4.8v-24zm-15.3-3.5h-44c-5.8 0-10 4-10 9.8v-4.3c0-6 4.2-10.5 10-10.5h44c6 0 10 4.6 10 10.5v4.3c.2-6-4-9.8-10-9.8zm-44-55.7h-43.8c-6 0-10 4-10 10V90c0-6 4-10.8 10-10.8h44c5.8 0 10 4.8 10 10.8v4.4c0-6-4-10-10-10zm-32 61.2v4.3c0-6-4.2-9.8-10-9.8h-44c-6 0-10.2 4-10.2 9.8v-4.3c0-6 4.2-10.5 10-10.5h44c6 0 10.2 4.6 10.2 10.5z" opacity=".1"/><path fill="#FFF" d="M125.5 244.5C57.8 244.5 3 189.7 3 122S57.8-.5 125.5-.5 248 54.3 248 122s-54.8 122.5-122.5 122.5zm-80.3-103v24c0 2.5 2.2 4.7 4.8 4.7h64.8c2.7 0 4.8-2 4.8-4.8v-24c0-6.5-5.4-11.8-12-11.8H57.2c-6.6 0-12 5.3-12 12zm116.6-55.7c0-6.6-5.4-12-12-12H99.5c-6.6 0-12 5.4-12 12v24c0 2.5 2.2 4.7 4.8 4.7H157c2.7 0 4.8-2 4.8-4.8v-24zm44 55.7c0-6.6-5.4-12-12-12h-50.4c-6.6 0-12 5.4-12 12v24c0 2.5 2 4.7 4.8 4.7H201c2.6 0 4.8-2 4.8-4.8v-24zm-15.3-3.5h-44c-5.8 0-10 4-10 9.8v-4.3c0-6 4.2-10.5 10-10.5h44c6 0 10 4.6 10 10.5v4.3c.2-6-4-9.8-10-9.8zm-44-55.7h-43.8c-6 0-10 4-10 10V88c0-6 4-10.8 10-10.8h44c5.8 0 10 4.8 10 10.8v4.4c0-6-4-10-10-10zm-32 61.2v4.3c0-6-4.2-9.8-10-9.8h-44c-6 0-10.2 4-10.2 9.8v-4.3c0-6 4.2-10.5 10-10.5h44c6 0 10.2 4.6 10.2 10.5z"/></svg>