<svg xmlns="http://www.w3.org/2000/svg" width="250" height="250" viewBox="0 0 250 250"><path d="M125.5 246.5C57.8 246.5 3 191.7 3 124S57.8 1.5 125.5 1.5 248 56.3 248 124s-54.8 122.5-122.5 122.5zM136.2 96c-19-18.6-45-23.7-61-12.8-2.8-2.5-6.8-2.8-9.2-.4-2.5 2.4-2.2 6.7.7 9.5-9.4 16-4 40.4 14.3 58.4 13 12.8 29.2 19.2 43.2 18.5-.2-1-.4-2-.4-3.2-9.4-13.3-9.2-33.2 1-50.8 4-6.4 8.7-12 14-16.2-.7-1-1.6-2-2.6-3zm44 8.3c1-2.4.5-5.2-1.5-6.4-2-1.3-5-.3-6.5 2-12.8-3.4-29 4.8-38 20.5-9.3 15.7-8.5 33.5 1 42.7-1.4 2.5-.8 5.5 1.3 6.7 2 1 4.8.2 6.3-2 13 4.5 30-3.7 39.6-20 9.5-16.3 8.3-35-2.3-43.7z" opacity=".1"/><path fill="#FFF" d="M125.5 244.5C57.8 244.5 3 189.7 3 122S57.8-.5 125.5-.5 248 54.3 248 122s-54.8 122.5-122.5 122.5zM136.2 94c-19-18.6-45-23.7-61-12.8-2.8-2.5-6.8-2.8-9.2-.4-2.5 2.4-2.2 6.7.7 9.5-9.4 16-4 40.4 14.3 58.4 13 12.8 29.2 19.2 43.2 18.5-.2-1-.4-2-.4-3.2-9.4-13.3-9.2-33.2 1-50.8 4-6.4 8.7-12 14-16.2-.7-1-1.6-2-2.6-3zm44 8.3c1-2.4.5-5.2-1.5-6.4-2-1.3-5-.3-6.5 2-12.8-3.4-29 4.8-38 20.5-9.3 15.7-8.5 33.5 1 42.7-1.4 2.5-.8 5.5 1.3 6.7 2 1 4.8.2 6.3-2 13 4.5 30-3.7 39.6-20 9.5-16.3 8.3-35-2.3-43.7z"/></svg>