<svg xmlns="http://www.w3.org/2000/svg" width="250" height="250" viewBox="0 0 250 250"><path d="M125 246.5C57.3 246.5 2.5 191.7 2.5 124S57.3 1.5 125 1.5 247.5 56.3 247.5 124 192.7 246.5 125 246.5zm-22.6-181c18 44.4-22.2 90.4 23 129.6-36.5-38.2-12-77-7-117.3-4-4.7-9.2-8.8-16-12.3zM120 52c3 10.7 3.4 21.2 2.3 31.7-4 38-26 75 9.3 110.6l1.4 1.2-.5-.7c-9.5-13.7-2.7-34.8-2.7-34.8 12.7-35 33.2-82-10-108z" opacity=".1"/><path fill="#FFF" d="M125 244.5C57.3 244.5 2.5 189.7 2.5 122S57.3-.5 125-.5 247.5 54.3 247.5 122 192.7 244.5 125 244.5zm-22.6-181c18 44.4-22.2 90.4 23 129.6-36.5-38.2-12-77-7-117.3-4-4.7-9.2-8.8-16-12.3zM120 50c3 10.7 3.4 21.2 2.3 31.7-4 38-26 75 9.3 110.6l1.4 1.2-.5-.7c-9.5-13.7-2.7-34.8-2.7-34.8 12.7-35 33.2-82-10-108z"/></svg>