<svg xmlns="http://www.w3.org/2000/svg" width="250" height="250" viewBox="0 0 250 250"><path d="M125.5 246.5C57.8 246.5 3 191.7 3 124S57.8 1.5 125.5 1.5 248 56.3 248 124s-54.8 122.5-122.5 122.5zM160.7 93l-5.3-5 .4-.7c1-1.8.4-4.2-1.4-5.2l-11.6-6.5-9.4-9.4c-1.5-1.4-4-1.4-5.5 0l-.6.6L121 63c-2-1.2-4.3-.5-5.4 1.3l-19.2 33-4 4h36c-1-1-2.2-2-3.4-2.8-5.4-4.7-11.6-7.3-17-7.3L123.5 76l1-.7c.2.8.7 1.7 1.4 2.3 2.5 2.6 6.8 2.6 9.5 0l1-1.4 4 2.3 3.3 3.2c-.4.4-.8.8-1 1.4-2 3.3-1 7.4 2.4 9.3.8.5 1.7.7 2.7.8-.2.4-.4.7-.4 1l-4.2 7.2h4.5l.7-1.3.6.7.7.6h8.3l.5-.5.2-.2 2-2c1.2-1.5 1.2-4-.3-5.5zm18 15c0-2-1.5-3.5-3.4-3.5h-103V101h10v-5h-10c-9.6 0-8.4 11.8-8.4 11.8v71c0 2 1.4 3.4 3.3 3.4h108c2 0 3.5-1.5 3.5-3.4v-18.6H161c-7 0-12.7-6.4-12.7-14.4s5.7-14.4 12.7-14.4h17.7V108zm1.7 27h-17.2c-5.4 0-10 5-10 11s4.5 11 10 11h17.2c5.4 0 5-5 5-11s.5-11-5-11zm-17.7 15.2c-2.3 0-4.2-2-4.2-4.2 0-2.3 2-4.2 4.2-4.2s4.2 2 4.2 4.2c0 2.3-2 4.2-4.3 4.2zM114.5 74c.6.7 1.3 1.4 2.2 2l1 .3L107 86.8l7.5-13z" opacity=".1"/><path fill="#FFF" d="M125.5 244.5C57.8 244.5 3 189.7 3 122S57.8-.5 125.5-.5 248 54.3 248 122s-54.8 122.5-122.5 122.5zM160.7 91l-5.3-5 .4-.7c1-1.8.4-4.2-1.4-5.2l-11.6-6.5-9.4-9.4c-1.5-1.4-4-1.4-5.5 0l-.6.6L121 61c-2-1.2-4.3-.5-5.4 1.3l-19.2 33-4 4h36c-1-1-2.2-2-3.4-2.8-5.4-4.7-11.6-7.3-17-7.3L123.5 74l1-.7c.2.8.7 1.7 1.4 2.3 2.5 2.6 6.8 2.6 9.5 0l1-1.4 4 2.3 3.3 3.2c-.4.4-.8.8-1 1.4-2 3.3-1 7.4 2.4 9.3.8.5 1.7.7 2.7.8-.2.4-.4.7-.4 1l-4.2 7.2h4.5l.7-1.3.6.7.7.6h8.3l.5-.5.2-.2 2-2c1.2-1.5 1.2-4-.3-5.5zm18 15c0-2-1.5-3.5-3.4-3.5h-103V99h10v-5h-10c-9.6 0-8.4 11.8-8.4 11.8v71c0 2 1.4 3.4 3.3 3.4h108c2 0 3.5-1.5 3.5-3.4v-18.6H161c-7 0-12.7-6.4-12.7-14.4s5.7-14.4 12.7-14.4h17.7V106zm1.7 27h-17.2c-5.4 0-10 5-10 11s4.5 11 10 11h17.2c5.4 0 5-5 5-11s.5-11-5-11zm-17.7 15.2c-2.3 0-4.2-2-4.2-4.2 0-2.3 2-4.2 4.2-4.2s4.2 2 4.2 4.2c0 2.3-2 4.2-4.3 4.2zM114.5 72c.6.7 1.3 1.4 2.2 2l1 .3L107 84.8l7.5-13z"/></svg>