<svg xmlns="http://www.w3.org/2000/svg" width="250" height="250" viewBox="0 0 250 250"><path d="M155 76.3H91c-2 0-3.5 1.5-3.5 3.4V171c0 2 1.5 3.4 3.4 3.4h71c1.8 0 3.3-1.5 3.3-3.4V86.5h-10V76.3zm-42.2 81H99.3V154h13.5v3.4zm40.6 0H140V154h13.4v3.4zm6.7-38.7H92.6v-3.4H160v3.4zm0-6.8H92.6v-3.4H160v3.4zm0-10v3.3H92.6v-3.3H160z" opacity=".1"/><path fill="#FFF" d="M155 74.3H91c-2 0-3.5 1.5-3.5 3.4V169c0 2 1.5 3.4 3.4 3.4h71c1.8 0 3.3-1.5 3.3-3.4V84.5h-10V74.3zm-42.2 81H99.3V152h13.5v3.4zm40.6 0H140V152h13.4v3.4zm6.7-38.7H92.6v-3.4H160v3.4zm0-6.8H92.6v-3.4H160v3.4zm0-10v3.3H92.6v-3.3H160z"/><path d="M125.5 2C57.8 2 3 56.8 3 124.5S57.8 247 125.5 247 248 192.2 248 124.5 193.2 2 125.5 2zm43 172.3c0 2-1.4 3.4-3.3 3.4H87.5c-2 0-3.4-1.5-3.4-3.4v-98c0-2 1.6-3.4 3.5-3.4h71l10 10v91.3z" opacity=".1"/><path fill="#FFF" d="M125.5 0C57.8 0 3 54.8 3 122.5S57.8 245 125.5 245 248 190.2 248 122.5 193.2 0 125.5 0zm43 172.3c0 2-1.4 3.4-3.3 3.4H87.5c-2 0-3.4-1.5-3.4-3.4v-98c0-2 1.6-3.4 3.5-3.4h71l10 10v91.3z"/></svg>