<svg xmlns="http://www.w3.org/2000/svg" width="250" height="250" viewBox="0 0 250 250"><path d="M125.5 246.5C57.8 246.5 3 191.7 3 124S57.8 1.5 125.5 1.5 248 56.3 248 124s-54.8 122.5-122.5 122.5zm43-179c0-2-1.4-3.5-3.3-3.5H150v-1.7c0-2-1.5-3.4-3.4-3.4H106c-2 0-3.4 1.4-3.4 3.3V64h-15c-2 0-3.5 1.5-3.5 3.4v113.2c0 2 1.6 3.4 3.5 3.4h25.3v-23.7c0-2 1.5-3.4 3.4-3.4h20.3c2 0 3.4 1.4 3.4 3.3V184h25c2 0 3.4-1.5 3.4-3.4V67.4zm-11.7 81h-10c-2 0-3.5-1.5-3.5-3.4v-10c0-2 1.5-3.4 3.4-3.4h10c2 0 3.5 1.5 3.5 3.4v10c0 2-1.6 3.5-3.4 3.5zm0-25.4h-10c-2 0-3.5-1.4-3.5-3.3v-10c0-2 1.5-3.5 3.4-3.5h10c2 0 3.5 1.5 3.5 3.4v10c0 2-1.6 3.5-3.4 3.5zm0-25.2h-10c-2 0-3.5-1.5-3.5-3.4v-10c0-2 1.5-3.5 3.4-3.5h10c2 0 3.5 1.4 3.5 3.3v10c0 2-1.6 3.5-3.4 3.5zm-25.4 50.7h-10c-2 0-3.5-1.5-3.5-3.4v-10c0-2 1.4-3.4 3.3-3.4h10c2 0 3.5 1.5 3.5 3.4v10c0 2-1.5 3.5-3.4 3.5zm0-25.4h-10c-2 0-3.5-1.4-3.5-3.3v-10c0-2 1.4-3.5 3.3-3.5h10c2 0 3.5 1.5 3.5 3.4v10c0 2-1.5 3.5-3.4 3.5zm0-25.2h-10c-2 0-3.5-1.5-3.5-3.4v-10c0-2 1.4-3.5 3.3-3.5h10c2 0 3.5 1.4 3.5 3.3v10c0 2-1.5 3.5-3.4 3.5zM106 148.5H96c-2 0-3.5-1.5-3.5-3.4v-10c0-2 1.5-3.4 3.4-3.4h10c2 0 3.4 1.5 3.4 3.4v10c0 2-1.5 3.5-3.3 3.5zm0-25.4H96c-2 0-3.5-1.4-3.5-3.3v-10c0-2 1.5-3.5 3.4-3.5h10c2 0 3.4 1.5 3.4 3.4v10c0 2-1.5 3.5-3.3 3.5zm0-25.2H96c-2 0-3.5-1.5-3.5-3.4v-10c0-2 1.5-3.5 3.4-3.5h10c2 0 3.4 1.4 3.4 3.3v10c0 2-1.5 3.5-3.3 3.5z" opacity=".1"/><path fill="#FFF" d="M125.5 244.5C57.8 244.5 3 189.7 3 122S57.8-.5 125.5-.5 248 54.3 248 122s-54.8 122.5-122.5 122.5zm43-179c0-2-1.4-3.5-3.3-3.5H150v-1.7c0-2-1.5-3.4-3.4-3.4H106c-2 0-3.4 1.4-3.4 3.3V62h-15c-2 0-3.5 1.5-3.5 3.4v113.2c0 2 1.6 3.4 3.5 3.4h25.3v-23.7c0-2 1.5-3.4 3.4-3.4h20.3c2 0 3.4 1.4 3.4 3.3V182h25c2 0 3.4-1.5 3.4-3.4V65.4zm-11.7 81h-10c-2 0-3.5-1.5-3.5-3.4v-10c0-2 1.5-3.4 3.4-3.4h10c2 0 3.5 1.5 3.5 3.4v10c0 2-1.6 3.5-3.4 3.5zm0-25.4h-10c-2 0-3.5-1.4-3.5-3.3v-10c0-2 1.5-3.5 3.4-3.5h10c2 0 3.5 1.5 3.5 3.4v10c0 2-1.6 3.5-3.4 3.5zm0-25.2h-10c-2 0-3.5-1.5-3.5-3.4v-10c0-2 1.5-3.5 3.4-3.5h10c2 0 3.5 1.4 3.5 3.3v10c0 2-1.6 3.5-3.4 3.5zm-25.4 50.7h-10c-2 0-3.5-1.5-3.5-3.4v-10c0-2 1.4-3.4 3.3-3.4h10c2 0 3.5 1.5 3.5 3.4v10c0 2-1.5 3.5-3.4 3.5zm0-25.4h-10c-2 0-3.5-1.4-3.5-3.3v-10c0-2 1.4-3.5 3.3-3.5h10c2 0 3.5 1.5 3.5 3.4v10c0 2-1.5 3.5-3.4 3.5zm0-25.2h-10c-2 0-3.5-1.5-3.5-3.4v-10c0-2 1.4-3.5 3.3-3.5h10c2 0 3.5 1.4 3.5 3.3v10c0 2-1.5 3.5-3.4 3.5zM106 146.5H96c-2 0-3.5-1.5-3.5-3.4v-10c0-2 1.5-3.4 3.4-3.4h10c2 0 3.4 1.5 3.4 3.4v10c0 2-1.5 3.5-3.3 3.5zm0-25.4H96c-2 0-3.5-1.4-3.5-3.3v-10c0-2 1.5-3.5 3.4-3.5h10c2 0 3.4 1.5 3.4 3.4v10c0 2-1.5 3.5-3.3 3.5zm0-25.2H96c-2 0-3.5-1.5-3.5-3.4v-10c0-2 1.5-3.5 3.4-3.5h10c2 0 3.4 1.4 3.4 3.3v10c0 2-1.5 3.5-3.3 3.5z"/></svg>