<svg xmlns="http://www.w3.org/2000/svg" width="250" height="250" viewBox="0 0 250 250"><path fill-rule="evenodd" clip-rule="evenodd" d="M125.5 2C57.8 2 3 56.8 3 124.5S57.8 247 125.5 247 248 192.2 248 124.5 193.2 2 125.5 2zM50.3 169.3S66.7 103.7 84 91.6s12.6 25 18.7 30.4c6 5.4 12-46 23.7-49s20 52.7 27 57.4c7 4.7 11-33.3 22-32 11 1 27 71 27 71h-152z" opacity=".1"/><path fill-rule="evenodd" clip-rule="evenodd" fill="#FFF" d="M125.5 0C57.8 0 3 54.8 3 122.5S57.8 245 125.5 245 248 190.2 248 122.5 193.2 0 125.5 0zM50.3 167.3S66.7 101.7 84 89.6s12.6 25 18.7 30.4c6 5.4 12-46 23.7-49s20 52.7 27 57.4c7 4.7 11-33.3 22-32 11 1 27 71 27 71h-152z"/></svg>