<svg id="Слой_1" xmlns="http://www.w3.org/2000/svg" viewBox="0 0 230 230"><style>.st0{fill:url(#SVGID_1_)}.st1{opacity:.1;fill:url(#SVGID_2_)}.st2{fill:url(#SVGID_3_)}.st3{opacity:.1;fill:url(#SVGID_4_)}.st4{fill:url(#SVGID_5_)}.st5{opacity:.1;fill:url(#SVGID_6_)}.st6{fill:#fff}.st7{fill:url(#SVGID_7_)}.st8{opacity:.1;fill:url(#SVGID_8_)}.st9{fill:url(#SVGID_9_)}.st10{opacity:.5;fill:url(#SVGID_10_)}.st11{opacity:.1;fill:url(#SVGID_11_)}.st12{fill:url(#SVGID_12_)}.st13{opacity:.1;fill:url(#SVGID_13_)}.st14{fill:url(#SVGID_14_)}.st15{opacity:.1;fill:url(#SVGID_15_)}.st16{fill:url(#SVGID_16_)}.st17{opacity:.5;fill:url(#SVGID_17_)}.st18{opacity:.1;fill:url(#SVGID_18_)}.st19{opacity:8e-2;fill:url(#SVGID_19_)}.st20{fill:#353535;stroke:#eaeaea;stroke-miterlimit:10}.st21{fill:url(#SVGID_20_)}.st22{opacity:.2;fill:#fff}.st23{fill:url(#SVGID_21_)}.st24{opacity:.15}.st25{fill:url(#SVGID_22_)}.st26{fill:#d9bb9f}.st27{fill:#ffc07b}.st28{fill:url(#SVGID_23_)}.st29{opacity:.2;fill:url(#SVGID_24_)}.st30{opacity:.15;fill:#fff}.st31{fill:url(#SVGID_25_)}.st32{fill:url(#SVGID_26_)}.st33{fill:url(#SVGID_27_)}.st34{opacity:.2;fill:url(#SVGID_28_)}.st35,.st36{fill:#262626;stroke:#9b9b9b;stroke-width:.5;stroke-miterlimit:10}.st36{fill:#3a3a3a;stroke:#5b5b5b}.st37{opacity:.25;fill:url(#SVGID_29_)}.st38{fill:#545454;stroke:#636363;stroke-width:.5;stroke-miterlimit:10}.st39{fill:url(#SVGID_30_)}.st40{fill:#a0a0a0}.st41{fill:url(#SVGID_31_)}.st42{fill:none}.st43{fill:url(#SVGID_32_)}.st44{fill:url(#SVGID_33_)}.st45{fill:url(#SVGID_34_)}.st46{fill:url(#SVGID_35_)}.st47{fill:#daaf7f}.st48{fill:url(#SVGID_36_)}.st49{fill:url(#SVGID_37_)}.st50{opacity:.5;fill:url(#SVGID_38_)}.st51{fill:url(#SVGID_39_)}.st52{fill:url(#SVGID_40_)}.st53{opacity:.5;fill:url(#SVGID_41_)}.st54{fill:url(#SVGID_42_)}.st55{fill:url(#SVGID_43_)}.st56{opacity:.15;fill:url(#SVGID_44_)}.st57{opacity:.25;fill:url(#SVGID_45_)}.st58{opacity:.35;fill:url(#SVGID_46_)}.st59{fill:url(#SVGID_47_)}.st60{fill:#d9af7f}.st61{fill:url(#SVGID_48_)}.st62{opacity:.3;fill:url(#SVGID_49_)}.st63,.st64,.st65,.st66{fill:none;stroke-miterlimit:10}.st63{stroke:#d27e8e;stroke-linecap:round;stroke-width:4}.st64,.st65,.st66{stroke-width:2}.st64{stroke-linecap:round;stroke:#f6f6f6}.st65,.st66{stroke:#e7bac3}.st66{stroke-dasharray:2.0216,2.0216}</style><linearGradient id="SVGID_1_" gradientUnits="userSpaceOnUse" x1="115.5" y1="77.69" x2="115.5" y2="58.94"><stop offset="0" stop-color="#d29d62"/><stop offset="1" stop-color="#e7c39b"/></linearGradient><path class="st0" d="M14.3 58.9h202.5v18.8H14.3z"/><linearGradient id="SVGID_2_" gradientUnits="userSpaceOnUse" x1="14.25" y1="59.315" x2="216.75" y2="59.315"><stop offset="0"/><stop offset=".3" stop-color="#d29d62"/><stop offset=".7" stop-color="#d29d62"/><stop offset="1"/></linearGradient><path class="st1" d="M14.3 58.9h202.5v.8H14.3z"/><linearGradient id="SVGID_3_" gradientUnits="userSpaceOnUse" x1="14.25" y1="60.065" x2="216.75" y2="60.065"><stop offset="0" stop-color="#e7c39b" stop-opacity="0"/><stop offset=".5" stop-color="#fff"/><stop offset="1" stop-color="#f1ddc6" stop-opacity="0"/></linearGradient><path class="st2" d="M14.3 59.7h202.5v.8H14.3z"/><linearGradient id="SVGID_4_" gradientUnits="userSpaceOnUse" x1="115.5" y1="68.315" x2="14.25" y2="68.315"><stop offset="0" stop-color="#ac8058"/><stop offset="1" stop-color="#9d7550" stop-opacity="0"/></linearGradient><path class="st3" d="M14.3 58.9h101.3v18.8H14.3z"/><g><linearGradient id="SVGID_5_" gradientUnits="userSpaceOnUse" x1="199.339" y1="81.063" x2="206.036" y2="56.069"><stop offset="0" stop-color="#e7c39b"/><stop offset="1" stop-color="#f6eadb"/></linearGradient><path class="st4" d="M216.8 77.7h-30V66.4l30-7.5z"/><linearGradient id="SVGID_6_" gradientUnits="userSpaceOnUse" x1="216.75" y1="62.69" x2="186.75" y2="62.69"><stop offset="0"/><stop offset="1" stop-opacity="0"/></linearGradient><path class="st5" d="M186.8 66.4l30-7.5h-6z"/><path class="st6" d="M186.8 66.4l30-6v-1.5z"/><linearGradient id="SVGID_7_" gradientUnits="userSpaceOnUse" x1="207.375" y1="77.69" x2="207.375" y2="66.44"><stop offset="0" stop-color="#d29d62"/><stop offset="1" stop-color="#e7c39b"/></linearGradient><path class="st7" d="M228 77.7h-41.2V66.4z"/><linearGradient id="SVGID_8_" gradientUnits="userSpaceOnUse" x1="216.75" y1="70.531" x2="186.75" y2="70.531"><stop offset="0"/><stop offset="1" stop-opacity="0"/></linearGradient><path class="st8" d="M216.8 72.4l-30-6 30 8.2z"/><linearGradient id="SVGID_9_" gradientUnits="userSpaceOnUse" x1="186.75" y1="72.065" x2="228" y2="72.065"><stop offset="0" stop-color="#fff"/><stop offset="1" stop-color="#e7c39b" stop-opacity="0"/></linearGradient><path class="st9" d="M228 77.7l-41.2-11.3v.8l38.4 10.5z"/><linearGradient id="SVGID_10_" gradientUnits="userSpaceOnUse" x1="187.125" y1="66.44" x2="187.125" y2="77.69"><stop offset="0" stop-color="#fff"/><stop offset="1" stop-color="#fff" stop-opacity="0"/></linearGradient><path class="st10" d="M186.8 66.4v11.3h.7V66.6z"/><linearGradient id="SVGID_11_" gradientUnits="userSpaceOnUse" x1="228" y1="76.94" x2="186.75" y2="76.94"><stop offset="0"/><stop offset="1" stop-opacity="0"/></linearGradient><path class="st11" d="M186.8 77.7H228l-5.5-1.5z"/></g><g><linearGradient id="SVGID_12_" gradientUnits="userSpaceOnUse" x1="4944.54" y1="81.063" x2="4951.237" y2="56.069" gradientTransform="matrix(-1 0 0 1 4976.201 0)"><stop offset="0" stop-color="#e7c39b"/><stop offset="1" stop-color="#f6eadb"/></linearGradient><path class="st12" d="M14.3 77.7h30V66.4l-30-7.5z"/><linearGradient id="SVGID_13_" gradientUnits="userSpaceOnUse" x1="4961.951" y1="62.69" x2="4931.951" y2="62.69" gradientTransform="matrix(-1 0 0 1 4976.201 0)"><stop offset="0"/><stop offset="1" stop-opacity="0"/></linearGradient><path class="st13" d="M44.3 66.4l-30-7.5h6z"/><path class="st6" d="M44.3 66.4l-30-6v-1.5z"/><linearGradient id="SVGID_14_" gradientUnits="userSpaceOnUse" x1="4952.576" y1="77.69" x2="4952.576" y2="66.44" gradientTransform="matrix(-1 0 0 1 4976.201 0)"><stop offset="0" stop-color="#d29d62"/><stop offset="1" stop-color="#e7c39b"/></linearGradient><path class="st14" d="M3 77.7h41.3V66.4z"/><linearGradient id="SVGID_15_" gradientUnits="userSpaceOnUse" x1="4961.951" y1="70.531" x2="4931.951" y2="70.531" gradientTransform="matrix(-1 0 0 1 4976.201 0)"><stop offset="0"/><stop offset="1" stop-opacity="0"/></linearGradient><path class="st15" d="M14.3 72.4l30-6-30 8.2z"/><linearGradient id="SVGID_16_" gradientUnits="userSpaceOnUse" x1="4931.951" y1="72.065" x2="4973.201" y2="72.065" gradientTransform="matrix(-1 0 0 1 4976.201 0)"><stop offset="0" stop-color="#fff"/><stop offset="1" stop-color="#e7c39b" stop-opacity="0"/></linearGradient><path class="st16" d="M3 77.7l41.3-11.3v.8L5.8 77.7z"/><linearGradient id="SVGID_17_" gradientUnits="userSpaceOnUse" x1="4932.326" y1="66.44" x2="4932.326" y2="77.69" gradientTransform="matrix(-1 0 0 1 4976.201 0)"><stop offset="0" stop-color="#fff"/><stop offset="1" stop-color="#fff" stop-opacity="0"/></linearGradient><path class="st17" d="M44.3 66.4v11.3h-.8V66.6z"/><linearGradient id="SVGID_18_" gradientUnits="userSpaceOnUse" x1="4973.201" y1="76.94" x2="4931.951" y2="76.94" gradientTransform="matrix(-1 0 0 1 4976.201 0)"><stop offset="0"/><stop offset="1" stop-opacity="0"/></linearGradient><path class="st18" d="M44.3 77.7H3l5.5-1.5z"/></g><linearGradient id="SVGID_19_" gradientUnits="userSpaceOnUse" x1="115.5" y1="77.69" x2="115.5" y2="66.849"><stop offset="0"/><stop offset="1" stop-opacity="0"/></linearGradient><path class="st19" d="M186.8 76.9V66.8l-1.4 10.1H45.6l-1.3-10.1v10.1h-30v.8h202.5v-.8z"/><g><path class="st20" d="M72.4 130.3L6.2 64.1c-2.7-2.7-2.7-7.2 0-9.9l41-41c2.7-2.7 7.2-2.7 9.9 0l66.2 66.2c2.7 2.7 2.7 7.2 0 9.9l-41 41c-2.7 2.7-7.2 2.7-9.9 0z"/><linearGradient id="SVGID_20_" gradientUnits="userSpaceOnUse" x1="-350.962" y1="743.834" x2="-350.962" y2="682.756" gradientTransform="rotate(45.001 631.333 894.305)"><stop offset="0" stop-color="#247aba"/><stop offset="1" stop-color="#3cf"/></linearGradient><path class="st21" d="M10.4 57.7l40.4-40.4c.8-.8 2.1-.8 2.8 0l65.6 65.6c.8.8.8 2.1 0 2.8l-40.4 40.4c-.8.8-2.1.8-2.8 0L10.4 60.6c-.8-.8-.8-2.1 0-2.9z"/><path class="st6" d="M68.8 76.9c1.4-1.4 3.4-1.9 5.3-1.4.3-1.7-.2-3.4-1.2-4.7-1.2-1.5-2.9-1.6-4.2-2.7-1.2-1-1.3-2.8-2.4-3.9-1.3-1.3-3.2-1.9-5-1.5.9 3.6-2 7.1-5.6 6.9-1.8-.1-1.7-.8-2.5 1.2-.8 2.1-1.8 5.7.2 7.3.8.7 1.9.8 2.8 1.4.9.6 1.3 1.5 1.8 2.4 1.4 2.8 3.5 2.9 6.4 2.2.6-.1 2.9-.6 3.2-1.1.1-.3-.1-.4-.1-.8-.2-2.1-.3-3.7 1.3-5.3 2.2-2.2-2.6 2.7 0 0zM69.4 66.7c.2.3.4.6.6.8 2.1-1.8 2.5-5.5.5-7.7-1.9 1.6-2.5 4.7-1.1 6.9 0 .1-.6-.9 0 0z"/><path class="st22" d="M71.9 129.8L55.5 11.6l67.3 67.3c3 3 3 7.8 0 10.8l-40.1 40.1c-2.9 3-7.8 3-10.8 0z"/><g><linearGradient id="SVGID_21_" gradientUnits="userSpaceOnUse" x1="-83.11" y1="263.705" x2="-52.967" y2="263.705" gradientTransform="rotate(17.674 693.238 937.866)"><stop offset="0" stop-color="#ad2a27"/><stop offset="1" stop-color="#e4554f"/></linearGradient><path class="st23" d="M193 39s-.8-13.9-8.3-16.3c-7.6-2.4-15.4 5.6-17.5 10.5-.2.5-.5 1.1-.7 1.7-3.2 7.9-5.2 16.2-6.3 24.6-1.5 12.3-3.9 30.8-4.4 32.2-.7 2.1-.3 12.7 7.5 15.3 5.5 1.9 10.7-3.9 13.3-7.4 1.1-1.5 1.8-3.1 2.2-4.9 1.6-7.1 6.4-28.3 9.2-34.5 3.3-7.4 5.6-16.9 5-21.2z"/><path class="st24" d="M167.1 33.1c2.5-4.9 10-12.1 17.3-9.7 6 1.9 8.1 11.2 8.5 14.9-9.1-3.6-19.3-4.9-25.8-5.2z"/><linearGradient id="SVGID_22_" gradientUnits="userSpaceOnUse" x1="-82.606" y1="227.56" x2="-56.909" y2="227.56" gradientTransform="rotate(17.674 693.238 937.866)"><stop offset="0" stop-color="#afafaf"/><stop offset=".081" stop-color="#bcbcbc"/><stop offset=".247" stop-color="#d1d1d1"/><stop offset=".433" stop-color="#e0e0e0"/><stop offset=".654" stop-color="#e8e8e8"/><stop offset="1" stop-color="#ebebeb"/></linearGradient><path class="st25" d="M167.5 32.5c2.5-4.9 9.9-12.1 17.2-9.8 6 1.9 7.7 11.2 8.2 14.8-9.2-3.6-19-4.7-25.4-5z"/><path class="st26" d="M178.7 42.8s10.5 1.5 8.3 12.1c-2.2 10.7-9.2 29.9-10.3 32.5-1.1 2.6-7.2 16.7-11.5 16.4s-4.4-4.8-4.4-4.8-1.2-2.4-.9-12.1 2.4-26.9 2.4-26.9.5-6.5 4.1-13 12.3-4.2 12.3-4.2z"/><path class="st27" d="M163.7 104.4c-.5-.2-1-.4-1.4-.7.5-.5.7 0 1.4.3.4.2 1.5 0 1.3.7-.5 0-.9-.1-1.3-.3-.5-.1.4.2 0 0zm2.8.1c-.4-.6 1.1-1.2 1.4-.8-.5.3-.9.6-1.4.8zm-5.4-1.8c-.3-.4-.6-.9-.8-1.4.7-.4 1.3 1.1.8 1.4zm-1.2-2.9l-.3-1.5c.6-.2 1 1.5.3 1.5zm9.1 2.9c-.6-.4.6-1.5 1-1.2-.3.4-.6.8-1 1.2zm-9.7-5.9c-.1-.5-.1-1-.2-1.5.7-.2.7 1.5.2 1.5zm11.6 3.5c-.7-.3.4-1.6.8-1.3-.2.4-.5.9-.8 1.3zm-12-6.5c0-.5-.1-1-.1-1.5.8-.2.7 1.5.1 1.5zm13.7 3.9c-.7-.2.3-1.6.8-1.3-.3.4-.6.9-.8 1.3zm-13.8-6.9v-1.5c.8-.2.6 1.5 0 1.5zm15.3 4.2c-.7-.2.2-1.7.7-1.4-.3.5-.5 1-.7 1.4zm-15.3-7.3v-1.5c.7-.1.6 1.6 0 1.5zm16.6 4.6c-.7-.2.1-1.7.7-1.4-.2.5-.5 1-.7 1.4zm-16.5-7.6c0-.5.1-1 .1-1.5.8-.2.5 1.5-.1 1.5zm17.8 4.9c-.7-.2.1-1.7.6-1.4-.2.4-.4.9-.6 1.4zm-17.6-8c0-.5.1-1 .1-1.5.8-.1.5 1.6-.1 1.5zm18.8 5.2c-.6-.1 0-1.7.5-1.4-.1.4-.3.9-.5 1.4zm-18.5-8.2c0-.5.1-1 .1-1.5.7-.1.4 1.6-.1 1.5zm19.6 5.3c-.8-.1 0-1.2.2-1.6.1 0 .2.1.4.1-.2.6-.4 1-.6 1.5zm-19.4-8.4c0-.4-.2-1.7.5-1.5 0 .5.2 1.8-.5 1.5zm20.5 5.6c-.1 0-.2-.1-.4-.1.2-.4.2-1.7.9-1.3-.2.4-.4.9-.5 1.4zm-20.2-8.6c0-.5.1-1 .1-1.5.8-.1.5 1.6-.1 1.5zm21.2 5.7c-.7-.1 0-1.7.5-1.4-.2.4-.4.9-.5 1.4zm-20.9-8.7c.1-.5.1-1 .2-1.5.8-.1.3 1.1.2 1.6-.2-.1-.3-.1-.4-.1zm21.9 5.8c-.8-.1-.1-1.7.5-1.4-.2.4-.4.9-.5 1.4zm-21.6-8.8c.1-.5.1-1 .2-1.5.7 0 .4 1.6-.2 1.5zm22.5 5.9c-.1 0-.2-.1-.4-.1.1-.4.2-1.7.8-1.3-.1.5-.2.9-.4 1.4zm-22.1-9c.1-.5.1-1 .2-1.5.7 0 .3 1 .2 1.6-.2 0-.3-.1-.4-.1zm22.7 6c.2-.5.3-1 .5-1.4.8.1 0 1.1-.1 1.6-.2-.1-.3-.2-.4-.2zm-22.4-9c.1-.5.1-1 .2-1.5.6 0 .5 1.6-.2 1.5zm23.3 6.1c.1-.4.1-1.7.8-1.3-.1.5-.3 1-.4 1.5-.2-.1-.3-.2-.4-.2zm-22.9-9.1l.3-1.5c.8 0 .3 1.6-.3 1.5zm23.8 6.2c.1-.4.1-1.7.8-1.4-.1.5-.3 1-.4 1.5-.2 0-.3-.1-.4-.1zm-23.1-9.2c.1-.4.1-1.7.8-1.3-.1.4-.1 1.6-.8 1.3zm23.9 6.3c.1-.4.1-1.7.8-1.4-.1.5-.3 1-.4 1.5-.2-.1-.3-.1-.4-.1zm-22.6-9.1c-.1 0-.2-.1-.4-.1.2-.5.4-1 .6-1.4.8.1 0 1.1-.2 1.5zm23.3 6.1c.1-.4 0-1.7.7-1.4l-.3 1.5c-.1 0-.2 0-.4-.1zm-22.1-8.9c-.1-.1-.2-.1-.3-.2.2-.5.4-.9.7-1.4.6.3-.2 1.2-.4 1.6zm22.8 6c.1-.4-.1-1.7.6-1.5 0 .5-.1 1-.2 1.5h-.4zm-21.4-8.6c-.1-.1-.2-.1-.3-.2l.9-1.2c.6.3-.4 1-.6 1.4zm21.6 5.6c0-.5-.5-1.6.2-1.5.1.5.1 1 .1 1.5h-.3zM168.2 44c-.1-.1-.2-.2-.2-.3.4-.3.8-.6 1.3-.8.4.5-.7.8-1.1 1.1zm19.1 4.9c-.1-.4-1-1.3-.3-1.5.2.5.5.9.6 1.4 0 0-.1 0-.3.1zm-16.5-6.3c0-.1-.1-.2-.1-.4.5-.2 1-.3 1.5-.4.3.7-1 .6-1.4.8zm15.1 3.7c-.3-.4-1.4-1-.8-1.4.4.4.7.7 1 1.1 0 .1-.1.2-.2.3zm-12.2-4.4v-.4c.5-.1 1-.1 1.5-.1.2.8-1 .5-1.5.5zm10.1 2.3c-.4-.3-1.6-.5-1.1-1.1.5.2.9.5 1.3.8-.1.1-.2.2-.2.3zm-7.1-2.3v-.4c.5 0 1 .1 1.5.2 0 .7-1 .2-1.5.2zm3 .5c0-.1.1-.2.1-.4.5.1 1 .3 1.5.5-.3.6-1.1 0-1.6-.1z"/><path class="st24" d="M165.4 49.9c3.6-6.5 12.3-4.2 12.3-4.2s10.5 1.5 8.3 12.1c-.7 3.6-2 8.3-3.5 12.9 1.8-5.6 3.5-11.4 4.4-15.8 2.2-10.7-8.3-12.1-8.3-12.1s-8.7-2.2-12.3 4.2c-1.5 2.7-2.5 5.4-3.1 7.7.6-1.6 1.3-3.2 2.2-4.8z"/><linearGradient id="SVGID_23_" gradientUnits="userSpaceOnUse" x1="-60.464" y1="271.13" x2="-56.352" y2="271.13" gradientTransform="rotate(17.674 693.238 937.866)"><stop offset="0" stop-color="#b68b68"/><stop offset="1" stop-color="#cfa285"/></linearGradient><path class="st28" d="M186.2 58.6s-5 3.9-6.1 7.1c-1.1 3.2-2.8 8.3-2.7 12.1.1 3.8-2.4 13.1-2.4 13.1s4.2-9 6.2-15.1c1.5-4.8 5-17.2 5-17.2z"/><radialGradient id="SVGID_24_" cx="-62.922" cy="237.902" r="7.654" gradientTransform="rotate(17.674 693.238 937.866)" gradientUnits="userSpaceOnUse"><stop offset="0" stop-color="#fff"/><stop offset="1" stop-color="#fff" stop-opacity="0"/></radialGradient><circle class="st29" cx="185.3" cy="41.4" r="7.7"/><path class="st30" d="M184.8 24.6c5.2 4.4 6.4 11.9 6.9 18 .1.9-.8 1.6-1.7 1.4l-5-1c-.9-.2-1.5-1.1-1.2-1.9 2-5.1 3.6-11.3 1-16.5zM171 103.3l4.8-4.2 4.7-14.8c0 .1-7.1 16.9-9.5 19z"/><g><linearGradient id="SVGID_25_" gradientUnits="userSpaceOnUse" x1="1375.651" y1="263.705" x2="1405.795" y2="263.705" gradientTransform="scale(-1 1) rotate(-17.674 -15.517 5296.971)"><stop offset="0" stop-color="#ad2a27"/><stop offset="1" stop-color="#e4554f"/></linearGradient><path class="st31" d="M201.8 41.8s8.7-10.9 16.2-8.5 9.3 13.5 8.2 18.7c-.1.6-.3 1.2-.4 1.8-2 8.3-5.1 16.2-9.1 23.7-5.8 10.9-14.6 27.4-15.1 28.8-.7 2.1-7 10.5-15 8.2-5.6-1.7-6.5-9.4-6.5-13.7 0-1.8.3-3.6 1-5.3 2.8-6.7 11.1-26.8 12.4-33.5 1.7-8 5.3-17.1 8.3-20.2z"/><path class="st24" d="M226.3 52c.8-5.4-1.2-15.6-8.4-17.9-6-1.9-13.1 4.5-15.6 7.2 9.5 2.3 18.5 7.2 24 10.7z"/><linearGradient id="SVGID_26_" gradientUnits="userSpaceOnUse" x1="1376.155" y1="227.56" x2="1401.852" y2="227.56" gradientTransform="scale(-1 1) rotate(-17.674 -15.517 5296.971)"><stop offset="0" stop-color="#afafaf"/><stop offset=".081" stop-color="#bcbcbc"/><stop offset=".247" stop-color="#d1d1d1"/><stop offset=".433" stop-color="#e0e0e0"/><stop offset=".654" stop-color="#e8e8e8"/><stop offset="1" stop-color="#ebebeb"/></linearGradient><path class="st32" d="M226.4 51.3c.8-5.4-1.1-15.6-8.3-17.9-6-1.9-12.8 4.6-15.3 7.3 9.5 2.3 18.2 7.1 23.6 10.6z"/><path class="st26" d="M211.3 53.2s-9.4-4.9-13.8 5.1-9.8 29.7-10.3 32.5c-.6 2.7-3.8 17.8-.1 20 3.7 2.2 6.4-1.4 6.4-1.4s2.4-1.2 7.8-9.3c5.4-8.1 13.6-23.3 13.6-23.3s3.4-5.6 4.1-13-7.7-10.6-7.7-10.6z"/><path class="st27" d="M187.8 112.1c-.4-.1-.8-.3-1.2-.5.2-.7 1 .1 1.5.2.7.2 1.1-.1 1.3.6-.5 0-1-.1-1.6-.3-.3-.1.6.2 0 0zm-2.9-3c.5-.2 1.3 1.2.7 1.4-.4-.4-.6-.9-.7-1.4zm7.5 2.4c-.4.3-.9.5-1.4.7-.3-.5 1.1-1.4 1.4-.7zm2.3-2c-.4.3-.8.6-1.1 1-.5-.4.7-1.5 1.1-1zm-10.3-3.4c.6-.1.9 1.6.2 1.5-.2-.5-.2-1-.2-1.5zm12.5 1.3c-.3.4-.7.8-1 1.1-.5-.4.5-1.7 1-1.1zm-12.5-4.4c.6 0 .7 1.7 0 1.5-.1-.5-.1-1 0-1.5zm14.4 2l-.9 1.2c-.5-.3.4-1.8.9-1.2zm-14.2-5c.6 0 .6 1.7-.1 1.5 0-.5.1-1 .1-1.5zm16 2.5l-.9 1.2c-.5-.2.4-1.7.9-1.2zM185 97c.6 0 .5 1.8-.2 1.5.1-.5.2-1 .2-1.5zm17.3 3c-.3.4-.6.8-.8 1.3-.6-.3.3-1.7.8-1.3zm-16.8-6c.6.1.4 1.8-.3 1.5.2-.5.2-1 .3-1.5zm18.5 3.5c-.3.4-.5.9-.8 1.3-.6-.3.2-1.9.8-1.3zM186.1 91c.6.1.4 1.8-.3 1.5l.3-1.5zm19.4 3.9c-.3.4-.5.9-.8 1.3-.5-.3.3-1.9.8-1.3zM186.8 88c.6.1.2 1.7-.4 1.5.2-.5.3-1 .4-1.5zm20.3 4.2c-.3.4-.5.9-.8 1.3-.5-.2.2-1.8.8-1.3zm-19.5-7.1c.1 0 .2.1.4.1-.1.4-.1 1.7-.8 1.4.1-.6.3-1.1.4-1.5zm20.7 4.3c.7.2-.2 1.1-.4 1.5-.8-.2.2-1.1.4-1.5zm-19.9-7.3c.8 0 .1 1.1 0 1.6-.1 0-.2-.1-.4-.1.1-.5.3-1 .4-1.5zm21.8 4.9c-.3.4-.5.9-.8 1.3-.5-.3.2-1.8.8-1.3zm-20.9-7.8c.6.1.2 1.8-.4 1.5.1-.5.2-1 .4-1.5zm21.3 6.3c.2-.4.5-1.6 1.1-1.1-.2.4-.5.9-.7 1.3-.2-.1-.3-.2-.4-.2zm-20.5-9.2c.6.1.2 1.8-.4 1.5.1-.5.3-1 .4-1.5zm23 5.4c-.2.4-.5.9-.7 1.3-.6-.3.2-1.7.7-1.3zM191 73.4c.8.1 0 1.1-.1 1.6-.1 0-.2-.1-.4-.1.2-.6.4-1 .5-1.5zm22.5 6.7c.3-.5.5-1.5 1.1-1.2-.2.4-.5.9-.7 1.3-.1.1-.3 0-.4-.1zm-22-8.2c.1-.4.2-1.7.8-1.3-.2.5-.3 1-.5 1.4-.1 0-.2 0-.3-.1zm24.6 4.4c-.2.5-.5.9-.7 1.3-.6-.3.2-1.6.7-1.3zM192.4 69c.2-.5.3-1 .5-1.4.8.1 0 1.1-.1 1.6-.1-.1-.2-.1-.4-.2zm24.9 4.5c-.2.5-.4.9-.6 1.4-.5-.2 0-1.8.6-1.4zm-23.9-7.3c.2-.5.3-1 .5-1.4.8.1 0 1.1-.1 1.6-.1-.2-.3-.2-.4-.2zm24.6 4.3c.7.1 0 1.1-.1 1.6-.7-.1 0-1.1.1-1.6zm-23.6-7.2c.2-.5.4-1 .5-1.4.8.1 0 1.1-.2 1.6 0-.1-.1-.2-.3-.2zm24.8 4.4c-.1.5-.2 1-.4 1.5-.1 0-.2-.1-.4-.1.2-.4.1-1.7.8-1.4zm-23.7-7.3c.2-.5.4-.9.6-1.4.7.1-.1 1.1-.2 1.6-.1-.1-.2-.1-.4-.2zm24.2 4.3c-.1.5-.1 1-.2 1.5-.1 0-.2 0-.4-.1.1-.4-.1-1.7.6-1.4zm-23-7.1c.2-.5.5-.9.7-1.4.7.2-.2 1.1-.4 1.5 0 0-.2 0-.3-.1zm23.1 4c.1.5.1 1 .1 1.5h-.4c0-.4-.4-1.5.3-1.5zM198.3 55c.3-.4.6-.8 1-1.2.6.4-.4 1-.7 1.4-.1-.1-.2-.1-.3-.2zm20.6 3.7c.2.5.4.9.6 1.4-.1 0-.2.1-.4.1-.1-.4-.9-1.4-.2-1.5zm-18.4-5.9c.4-.3.9-.6 1.3-.8.5.6-.7.8-1.1 1.1-.1-.1-.2-.2-.2-.3zm16.7 3.3c.3.4.7.8 1 1.2-.1.1-.2.1-.3.2-.3-.3-1.4-1-.7-1.4zm-14-4.7c.5-.1 1-.3 1.5-.3.3.7-1 .6-1.4.7 0-.1 0-.2-.1-.4zm11.7 2.7c.4.3.8.6 1.2 1l-.3.3c-.3-.4-1.5-.8-.9-1.3zm-8.6-3.1c.5 0 1 0 1.5.1.1.7-1.1.3-1.5.3V51zm5.9 1.5c.5.2.9.5 1.4.7-.1.1-.1.2-.2.3-.4-.2-1.5-.4-1.2-1zm-2.9-1c.5.1 1 .3 1.5.5 0 .1-.1.2-.1.4-.5-.3-1.5-.3-1.4-.9z"/><path class="st24" d="M218 66.6c.8-7.4-7.6-10.6-7.6-10.6s-9.4-4.9-13.8 5.1c-1.5 3.4-3.1 7.9-4.6 12.6 1.7-5.6 3.7-11.4 5.6-15.5 4.4-10 13.8-5.1 13.8-5.1s8.4 3.2 7.6 10.6c-.3 3.1-1.1 5.9-1.9 8.1.3-1.6.7-3.3.9-5.2z"/><linearGradient id="SVGID_27_" gradientUnits="userSpaceOnUse" x1="1398.297" y1="271.13" x2="1402.409" y2="271.13" gradientTransform="scale(-1 1) rotate(-17.674 -15.517 5296.971)"><stop offset="0" stop-color="#b68b68"/><stop offset="1" stop-color="#cfa285"/></linearGradient><path class="st33" d="M196 61.7s1.8 6.1.9 9.3c-1 3.2-2.5 8.4-4.8 11.4s-5.7 12.1-5.7 12.1 1.8-9.8 3.7-15.9c1.6-4.8 5.9-16.9 5.9-16.9z"/><radialGradient id="SVGID_28_" cx="1395.839" cy="237.902" r="7.654" gradientTransform="scale(-1 1) rotate(-17.674 -15.517 5296.971)" gradientUnits="userSpaceOnUse"><stop offset="0" stop-color="#fff"/><stop offset="1" stop-color="#fff" stop-opacity="0"/></radialGradient><circle class="st34" cx="206.7" cy="48.2" r="7.7"/><path class="st30" d="M216.8 34.8c-6.7.6-12.1 6-16 10.7-.6.7-.3 1.7.6 2.1l4.6 2c.9.4 1.8 0 2-.9 1.4-5.1 3.6-11.2 8.8-13.9zM182.5 107l-1.5-6.2 4.7-14.8c.1.1-3.9 17.9-3.2 21z"/></g></g><g><circle class="st35" cx="117.4" cy="87" r="40.7"/><path class="st36" d="M135.9 52.2c19.2 10.2 26.5 34.1 16.3 53.3-10.2 19.2-34.1 26.5-53.3 16.3S72.5 87.7 82.7 68.5c10.2-19.2 34.1-26.5 53.2-16.3z"/><radialGradient id="SVGID_29_" cx="1588.357" cy="1455.113" r="39.386" gradientTransform="rotate(-151.97 682.2 954.605)" gradientUnits="userSpaceOnUse"><stop offset="0" stop-color="#fff"/><stop offset="1"/></radialGradient><path class="st37" d="M135.9 52.2c19.2 10.2 26.5 34.1 16.3 53.3-10.2 19.2-34.1 26.5-53.3 16.3S72.5 87.7 82.7 68.5c10.2-19.2 34.1-26.5 53.2-16.3z"/><path class="st38" d="M131.2 61.1c14.3 7.6 19.7 25.4 12.1 39.6-7.6 14.3-25.4 19.7-39.6 12.1S84 87.5 91.6 73.2c7.6-14.2 25.3-19.6 39.6-12.1z"/><linearGradient id="SVGID_30_" gradientUnits="userSpaceOnUse" x1="1588.357" y1="1460.435" x2="1588.357" y2="1449.792" gradientTransform="rotate(-151.97 682.2 954.605)"><stop offset="0" stop-color="#ad2a27"/><stop offset="1" stop-color="#e4554f"/></linearGradient><path class="st39" d="M119.9 82.3c2.6 1.4 3.6 4.6 2.2 7.2-1.4 2.6-4.6 3.6-7.2 2.2-2.6-1.4-3.6-4.6-2.2-7.2 1.4-2.6 4.6-3.6 7.2-2.2z"/><path transform="rotate(-151.97 137.403 49.47)" class="st40" d="M132.1 47.3h10.6v4.3h-10.6z"/><path transform="rotate(-151.97 135.055 48.22)" class="st24" d="M132.4 46.1h5.3v4.3h-5.3z"/><linearGradient id="SVGID_31_" gradientUnits="userSpaceOnUse" x1="1588.357" y1="1542.283" x2="1588.357" y2="1499.752" gradientTransform="rotate(-151.97 682.2 954.605)"><stop offset="0" stop-color="#ad2a27"/><stop offset="1" stop-color="#e4554f"/></linearGradient><path class="st41" d="M142.2 49.6L161 14.2c.6-1.2 0-2.7-1.4-3.5l-2.5-1.3c-1.4-.7-3-.4-3.6.8l-18.8 35.4 7.5 4zm15.1-37.5c.8.4.8 1.8.1 3.1-.7 1.3-1.9 2.1-2.7 1.7-.8-.4-.8-1.8-.1-3.1.7-1.4 1.9-2.1 2.7-1.7z"/><path class="st42" d="M157.4 15.2c.7-1.3.6-2.7-.1-3.1l-2.6 4.8c.8.4 2-.4 2.7-1.7zM154.6 13.7c-.7 1.3-.6 2.7.1 3.1l2.6-4.8c-.8-.3-2 .4-2.7 1.7z"/><path class="st24" d="M138.4 47.6l16.4-30.7c-.8-.4-.8-1.8-.1-3.1.7-1.3 1.9-2.1 2.7-1.7l1.1-2-1.3-.7c-1.4-.7-3-.4-3.6.8l-18.8 35.4 3.6 2zM98.3 123l38.3-72C116.7 40.5 92 48 81.5 67.9c-10.6 19.8-3.1 44.5 16.8 55.1z"/></g></g><g><linearGradient id="SVGID_32_" gradientUnits="userSpaceOnUse" x1="115.5" y1="221.909" x2="115.5" y2="77.69"><stop offset="0" stop-color="#e7c39b"/><stop offset="1" stop-color="#f6eadb"/></linearGradient><path class="st43" d="M225.8 219.4c-73.5 3.4-147 3.4-220.5 0C4 219.3 3 218.3 3 217V77.7h225V217c0 1.3-1 2.3-2.2 2.4z"/><linearGradient id="SVGID_33_" gradientUnits="userSpaceOnUse" x1="115.5" y1="221.909" x2="115.5" y2="77.69"><stop offset="0" stop-color="#e7c39b"/><stop offset="1" stop-color="#f6eadb"/></linearGradient><path class="st44" d="M225.8 219.4c-73.5 3.4-147 3.4-220.5 0C4 219.3 3 218.3 3 217V77.7h225V217c0 1.3-1 2.3-2.2 2.4z"/><linearGradient id="SVGID_34_" gradientUnits="userSpaceOnUse" x1="3" y1="216.083" x2="228" y2="216.083"><stop offset="0" stop-color="#e7c39b" stop-opacity="0"/><stop offset=".5" stop-color="#fff"/><stop offset="1" stop-color="#e9c9a4" stop-opacity="0"/></linearGradient><path class="st45" d="M225.8 215.6c-73.5 3.4-147 3.4-220.5 0-1.3 0-2.3-1.1-2.3-2.3v.8c0 1.2 1 2.3 2.2 2.4 73.5 3.4 147 3.4 220.5 0 1.2-.1 2.2-1.1 2.2-2.4v-.8c.1 1.2-.9 2.3-2.1 2.3z"/><linearGradient id="SVGID_35_" gradientUnits="userSpaceOnUse" x1="3" y1="217.958" x2="228" y2="217.958"><stop offset="0" stop-color="#daaf7f"/><stop offset=".3" stop-color="#ddb68a" stop-opacity=".3"/><stop offset=".642" stop-color="#e9cfb2" stop-opacity=".7"/><stop offset="1" stop-color="#dbb081"/></linearGradient><path class="st46" d="M225.8 216.4c-73.5 3.4-147 3.4-220.5 0C4 216.3 3 215.3 3 214v3c0 1.2 1 2.3 2.2 2.4 73.5 3.4 147 3.4 220.5 0 1.2-.1 2.2-1.1 2.2-2.4v-3c.1 1.3-.9 2.3-2.1 2.4z"/><path class="st47" d="M225.8 218.6c-73.5 3.4-147 3.4-220.5 0-1.3 0-2.3-1.1-2.3-2.3v.8c0 1.2 1 2.3 2.2 2.4 73.5 3.4 147 3.4 220.5 0 1.2-.1 2.2-1.1 2.2-2.4v-.8c.1 1.2-.9 2.3-2.1 2.3z"/><linearGradient id="SVGID_36_" gradientUnits="userSpaceOnUse" x1="60.188" y1="77.69" x2="60.188" y2="221.905"><stop offset="0" stop-color="#fff"/><stop offset="1" stop-color="#e7c39b" stop-opacity="0"/></linearGradient><path class="st48" d="M9 219.4c-1.2-.1-2.2-1.1-2.2-2.4V77.7H3V217c0 1.2 1 2.3 2.2 2.4 37.4 1.7 74.7 2.6 112.1 2.5-36.1 0-72.2-.9-108.3-2.5z"/><linearGradient id="SVGID_37_" gradientUnits="userSpaceOnUse" x1="60.375" y1="77.69" x2="60.375" y2="221.907"><stop offset="0" stop-color="#fff"/><stop offset="1" stop-color="#e7c39b" stop-opacity="0"/></linearGradient><path class="st49" d="M7.5 219.4c-1.2-.1-2.2-1.1-2.2-2.4V77.7H3.8V217c0 1.2 1 2.3 2.2 2.4 37 1.7 74 2.6 111 2.5-36.5 0-73-.9-109.5-2.5z"/><linearGradient id="SVGID_38_" gradientUnits="userSpaceOnUse" x1="3" y1="149.799" x2="115.875" y2="149.799"><stop offset="0" stop-color="#e7c39b"/><stop offset="1" stop-color="#e9c9a5" stop-opacity="0"/></linearGradient><path class="st50" d="M6 219.4c-1.2-.1-2.2-1.1-2.2-2.4V77.7H3V217c0 1.2 1 2.3 2.2 2.4 36.9 1.7 73.7 2.6 110.6 2.5-36.6 0-73.2-.8-109.8-2.5z"/><linearGradient id="SVGID_39_" gradientUnits="userSpaceOnUse" x1="4414.889" y1="77.69" x2="4414.889" y2="221.905" gradientTransform="matrix(-1 0 0 1 4585.701 0)"><stop offset="0" stop-color="#fff"/><stop offset="1" stop-color="#e7c39b" stop-opacity="0"/></linearGradient><path class="st51" d="M222 219.4c1.2-.1 2.2-1.1 2.2-2.4V77.7h3.8V217c0 1.2-1 2.3-2.2 2.4-37.4 1.7-74.7 2.6-112.1 2.5 36.1 0 72.2-.9 108.3-2.5z"/><linearGradient id="SVGID_40_" gradientUnits="userSpaceOnUse" x1="4415.076" y1="77.69" x2="4415.076" y2="221.907" gradientTransform="matrix(-1 0 0 1 4585.701 0)"><stop offset="0" stop-color="#fff"/><stop offset="1" stop-color="#e7c39b" stop-opacity="0"/></linearGradient><path class="st52" d="M223.5 219.4c1.2-.1 2.2-1.1 2.2-2.4V77.7h1.5V217c0 1.2-1 2.3-2.2 2.4-37 1.7-74 2.6-111 2.5 36.5 0 73-.9 109.5-2.5z"/><linearGradient id="SVGID_41_" gradientUnits="userSpaceOnUse" x1="4357.701" y1="149.799" x2="4470.576" y2="149.799" gradientTransform="matrix(-1 0 0 1 4585.701 0)"><stop offset="0" stop-color="#e7c39b"/><stop offset="1" stop-color="#e9c9a5" stop-opacity="0"/></linearGradient><path class="st53" d="M225 219.4c1.2-.1 2.2-1.1 2.2-2.4V77.7h.8V217c0 1.2-1 2.3-2.2 2.4-36.9 1.7-73.7 2.6-110.6 2.5 36.6 0 73.2-.8 109.8-2.5z"/><linearGradient id="SVGID_42_" gradientUnits="userSpaceOnUse" x1="3" y1="78.065" x2="228" y2="78.065"><stop offset="0" stop-color="#e7c39b" stop-opacity="0"/><stop offset=".5" stop-color="#eed5b9"/><stop offset="1" stop-color="#eed5b9" stop-opacity="0"/></linearGradient><path class="st54" d="M3 77.7v.8h225v-.8H3z"/><linearGradient id="SVGID_43_" gradientUnits="userSpaceOnUse" x1="3" y1="78.815" x2="228" y2="78.815"><stop offset="0" stop-color="#fff"/><stop offset=".25" stop-color="#e7c39b" stop-opacity="0"/><stop offset=".5" stop-color="#f6e7d8"/><stop offset=".75" stop-color="#f6e8d9" stop-opacity="0"/><stop offset="1" stop-color="#fff"/></linearGradient><path class="st55" d="M3 78.4v.8h225v-.8H3z"/><linearGradient id="SVGID_44_" gradientUnits="userSpaceOnUse" x1="115.5" y1="149.799" x2="228" y2="149.799"><stop offset=".004" stop-color="#e7c39b"/><stop offset="1" stop-color="#e9c9a4" stop-opacity="0"/></linearGradient><path class="st56" d="M115.5 221.9c36.8 0 73.5-.8 110.3-2.5 1.2-.1 2.2-1.1 2.2-2.4V77.7H115.5v144.2z"/><linearGradient id="SVGID_45_" gradientUnits="userSpaceOnUse" x1="115.5" y1="177.623" x2="115.5" y2="221.909"><stop offset="0" stop-color="#daaf7f"/><stop offset="1" stop-color="#f6eadb" stop-opacity="0"/></linearGradient><path class="st57" d="M3 177.6V217c0 1.2 1 2.3 2.2 2.4 73.5 3.4 147 3.4 220.5 0 1.2-.1 2.2-1.1 2.2-2.4v-39.4H3z"/><linearGradient id="SVGID_46_" gradientUnits="userSpaceOnUse" x1="3" y1="219.083" x2="228" y2="219.083"><stop offset="0" stop-color="#e7c39b"/><stop offset=".5" stop-color="#f6eadb"/><stop offset="1" stop-color="#eacaa7"/></linearGradient><path class="st58" d="M225.8 218.6c-73.5 3.4-147 3.4-220.5 0-1.3 0-2.3-1.1-2.3-2.3v.8c0 1.2 1 2.3 2.2 2.4 73.5 3.4 147 3.4 220.5 0 1.2-.1 2.2-1.1 2.2-2.4v-.8c.1 1.2-.9 2.3-2.1 2.3z"/><g><circle class="st6" cx="73.7" cy="106" r="5.6"/><circle class="st6" cx="73.7" cy="106" r="1.6"/><g><radialGradient id="SVGID_47_" cx="73.746" cy="104.971" r="5.625" gradientUnits="userSpaceOnUse"><stop offset="0" stop-color="#f6eadb"/><stop offset="1" stop-color="#e7c39b"/></radialGradient><circle class="st59" cx="73.7" cy="105" r="5.6"/><circle class="st47" cx="73.7" cy="105" r="1.6"/></g><path class="st60" d="M73.7 100.1c3 0 5.4 2.3 5.6 5.3v-.4c0-3.1-2.5-5.6-5.6-5.6-3.1 0-5.6 2.5-5.6 5.6v.4c.2-3 2.7-5.3 5.6-5.3z"/></g><g><circle class="st6" cx="157.3" cy="106" r="5.6"/><circle class="st6" cx="157.3" cy="106" r="1.6"/><g><radialGradient id="SVGID_48_" cx="157.254" cy="104.971" r="5.625" gradientUnits="userSpaceOnUse"><stop offset="0" stop-color="#f6eadb"/><stop offset="1" stop-color="#e7c39b"/></radialGradient><circle class="st61" cx="157.3" cy="105" r="5.6"/><circle class="st47" cx="157.3" cy="105" r="1.6"/></g><path class="st60" d="M157.3 100.1c3 0 5.4 2.3 5.6 5.3v-.4c0-3.1-2.5-5.6-5.6-5.6-3.1 0-5.6 2.5-5.6 5.6v.4c.1-3 2.6-5.3 5.6-5.3z"/></g><linearGradient id="SVGID_49_" gradientUnits="userSpaceOnUse" x1="115.5" y1="1766.857" x2="115.5" y2="1752.258" gradientTransform="matrix(1 0 0 -1 0 1870.34)"><stop offset="0" stop-color="#603913"/><stop offset="1" stop-color="#6f4a27" stop-opacity="0"/></linearGradient><path class="st62" d="M151.4 117.4c1.9-4.2 3.5-8.7 4.3-13.2.1-.4.6-.6 1.3-.7h.4c.8 0 1.5.4 1.4.8-.7 4.5-2.3 9.1-4.1 13.4-.1.1-.1.3-.2.4h-3.4c.1-.2.2-.5.3-.7zm-71.5.7c-.1-.2-.2-.4-.3-.7-1.9-4.2-3.5-8.7-4.3-13.2-.1-.4-.8-.7-1.6-.7s-1.5.4-1.4.8c.7 4.5 2.3 9.1 4.1 13.4.1.1.1.3.2.4h3.3z"/><g><path class="st63" d="M73.7 104.2c5.9 9.3 8.3 18 15.1 27.1 5 6.7 8 20 27 20 16.7 0 20.4-10.1 24.5-16.3 6.9-10.5 10.2-20.2 16.9-30.8"/><path class="st64" d="M73.7 104.2c5.9 9.3 8.3 18 15.1 27.1 5 6.7 8 20 27 20 16.7 0 20.4-10.1 24.5-16.3 6.9-10.5 10.2-20.2 16.9-30.8"/><path class="st65" d="M73.7 104.2c.2.3.4.6.5.8"/><path class="st66" d="M75.3 106.8c4.8 8.3 7.3 16.2 13.5 24.5 5 6.7 8 20 27 20 16.7 0 20.4-10.1 24.5-16.3 6.5-9.9 9.8-19.2 15.9-29.1"/><path class="st65" d="M156.7 105.1c.2-.3.4-.6.5-.8"/></g></g></svg>