<svg id="Слой_1" xmlns="http://www.w3.org/2000/svg" viewBox="0 0 147 147"><style>.st0{opacity:.15}.st1,.st2{fill-rule:evenodd;clip-rule:evenodd}.st2{fill:#fff}</style><g class="st0"><path class="st1" d="M73.5 147C33.5 147 1 114.5 1 74.5S33.5 2 73.5 2 146 34.5 146 74.5 113.5 147 73.5 147zM57.2 38c-2.4-2.5-6.4-2.5-8.9 0L25.8 60.7c-2.4 2.5-2.4 6.5 0 9l38 38.4c2.4 2.5 6.4 2.5 8.9 0l3.9-4-.5-.4-2.1-1.8-4.5 4.6c-.7.7-1.8.7-2.5 0l-39.6-40c-.7-.7-.7-1.9 0-2.6l24.1-24.3c.7-.7 1.8-.7 2.5 0l21.8 22c.4-.3.8-.7 1.3-1 .5-.4 1-.7 1.5-1L57.2 38zm6.1 31.8c0 .1.1.1.1.1s.1.2 0 0c.1.2.2.3.4.5 1.3-1.1 1.5-3.5.3-4.8-1.2 1-1.6 3-.7 4.3-.1 0-.1-.1-.1-.1zm-.5.9c-.7-.7-.8-1.8-1.6-2.5s-1.9-1-2.9-.8c.3 1.2-.1 2.6-1.1 3.4-.5.4-1 .7-1.7.8-.5.1-1.1-.1-1.6-.1-.7.1-1 1.5-1.1 2.1-.3 1.2-.4 2.7.7 3.5.6.4 1.4.5 1.9 1.1.5.5.7 1.2 1.1 1.8.7.9 1.7 1.1 2.8.9.6-.1 2.4-.3 2.7-.9.1-.2-.1-.6-.1-.8v-1c.1-.7.3-1.3.8-1.8l.1-.1c.8-.9 2.1-1.2 3.3-.9.2-1.1-.2-2.4-.9-3.1-.6-.8-1.7-.9-2.4-1.6zM119 35.1l-.8-.4-.8-.4c-.7-.4-1.8-.3-2.3.5l-11.6 22.1-.6-.3-1.2 2.3c-10.3-3.9-22.2-.4-28.8 8.4-6 8-6.7 19.1-1.8 27.8 5.3 9.5 16.4 14.5 26.9 12.3 9.3-2 16.9-9.3 19.2-18.6 2.2-8.8-.5-18.4-7.1-24.7-.8-.8-1.7-1.6-2.7-2.2l1.2-2.3-.6-.3 11.6-22.1c.6-.7.3-1.7-.6-2.1z"/></g><path class="st2" d="M73.5 145C33.5 145 1 112.5 1 72.5S33.5 0 73.5 0 146 32.5 146 72.5 113.5 145 73.5 145zM57.2 36c-2.4-2.5-6.4-2.5-8.9 0L25.8 58.7c-2.4 2.5-2.4 6.5 0 9l38 38.4c2.4 2.5 6.4 2.5 8.9 0l3.9-4-.5-.4-2.1-1.8-4.5 4.6c-.7.7-1.8.7-2.5 0l-39.6-40c-.7-.7-.7-1.9 0-2.6l24.1-24.3c.7-.7 1.8-.7 2.5 0l21.8 22c.4-.3.8-.7 1.3-1 .5-.4 1-.7 1.5-1L57.2 36zm6.1 31.8c0 .1.1.1.1.1s.1.2 0 0c.1.2.2.3.4.5 1.3-1.1 1.5-3.5.3-4.8-1.2 1-1.6 3-.7 4.3-.1 0-.1-.1-.1-.1zm-.5.9c-.7-.7-.8-1.8-1.6-2.5s-1.9-1-2.9-.8c.3 1.2-.1 2.6-1.1 3.4-.5.4-1 .7-1.7.8-.5.1-1.1-.1-1.6-.1-.7.1-1 1.5-1.1 2.1-.3 1.2-.4 2.7.7 3.5.6.4 1.4.5 1.9 1.1.5.5.7 1.2 1.1 1.8.7.9 1.7 1.1 2.8.9.6-.1 2.4-.3 2.7-.9.1-.2-.1-.6-.1-.8v-1c.1-.7.3-1.3.8-1.8l.1-.1c.8-.9 2.1-1.2 3.3-.9.2-1.1-.2-2.4-.9-3.1-.6-.8-1.7-.9-2.4-1.6zM119 33.1l-.8-.4-.8-.4c-.7-.4-1.8-.3-2.3.5l-11.6 22.1-.6-.3-1.2 2.3c-10.3-3.9-22.2-.4-28.8 8.4-6 8-6.7 19.1-1.8 27.8 5.3 9.5 16.4 14.5 26.9 12.3 9.3-2 16.9-9.3 19.2-18.6 2.2-8.8-.5-18.4-7.1-24.7-.8-.8-1.7-1.6-2.7-2.2l1.2-2.3-.6-.3 11.6-22.1c.6-.7.3-1.7-.6-2.1z"/></svg>