<svg xmlns="http://www.w3.org/2000/svg" width="15" height="15" viewBox="0 0 30 30"><path fill-rule="evenodd" clip-rule="evenodd" fill="#D22E2E" d="M29 13.3l-6.7 3.4-.3 1.2 6.5 2.4-.6 1.9-6.4-2.4c-.3.8-.5 1.6-.9 2.4l2.9 6.4-1.7.9-2.2-4.9c-1.2 2.3-2.5 3.9-4 3.9-1.7 0-3.2-2.1-4.5-4.9l-2.5 5.3-1.9-.9 3.3-6.9c-.2-.6-.4-1.3-.6-2l-7.2 2.5-.7-1.9 7.3-2.6c0-.2-.1-.4-.1-.6L1 12.9l.9-1.8 6.4 3.1c-.2-.7-.3-1.2-.3-1.7h15c0 .5-.1 1.1-.2 1.7l5.4-2.7.8 1.8zm-6.1-2.8H8c.2-2.7 1.8-5 4.1-6.2L9 1.2l.7-.7 3.4 3.4c.7-.2 1.5-.4 2.3-.4.5 0 1.1.1 1.6.2L20.2.5l.8.7L18.2 4c2.6 1 4.5 3.5 4.7 6.5z"/></svg>