<svg xmlns="http://www.w3.org/2000/svg" width="15" height="15" viewBox="0 0 30 30"><path fill-rule="evenodd" clip-rule="evenodd" fill="#51BAD7" d="M28.9 11.2l-1.7 3.3c-.2.3-.6.4-.9.2l-2.9-2.2c-.4-.3-.3-1.1.2-1.2l1.1-.3c-1.6-3.7-5.3-6.3-9.6-6.3-4.8 0-8.5 3-9.7 7.4H2.7C4 6.4 9.2 2.5 15.2 2.5c5.4 0 10 3.2 11.8 8l1.2-.3c.5-.1 1 .5.7 1zM4.1 14.3l2.6 2.6c.4.4.2 1.1-.4 1.2l-1.1.1c1.4 4.2 5.3 7.1 9.9 7.1 4.8 0 8.7-3 9.9-7.4h2.8c-1.3 5.8-6.7 9.7-12.7 9.7-5.8 0-10.7-3.8-12.2-9.2l-1.3.1c-.5 0-.9-.6-.5-1.1l2.1-3c.3-.3.7-.4.9-.1z"/></svg>