<svg xmlns="http://www.w3.org/2000/svg" xmlns:xlink="http://www.w3.org/1999/xlink" width="320" height="130" viewBox="0 0 320 130"><path fill="#8AB71F" d="M0 0h320v130H0V0z"/><defs><path id="a" d="M0 0h320v130H0z"/></defs><clipPath id="b"><use xlink:href="#a" overflow="visible"/></clipPath><g opacity=".75" clip-path="url(#b)"><linearGradient id="c" gradientUnits="userSpaceOnUse" x1="680.346" y1="-397.331" x2="680.956" y2="-396.721" gradientTransform="matrix(139 0 0 87 -94489.625 34676.875)"><stop offset="0" stop-color="#8EB867"/><stop offset="1" stop-color="#B3C548"/></linearGradient><path fill="url(#c)" d="M82.4 159.7l84.9-3.7-15.9-49.5"/><linearGradient id="d" gradientUnits="userSpaceOnUse" x1="679.184" y1="-396.541" x2="679.795" y2="-395.93" gradientTransform="matrix(101 0 0 108 -68373.625 42817.875)"><stop offset="0" stop-color="#71BB93"/><stop offset="1" stop-color="#A8D647"/></linearGradient><path fill="url(#d)" d="M216.2 32.6l50.7 33 11-66"/><linearGradient id="e" gradientUnits="userSpaceOnUse" x1="671.669" y1="-396.39" x2="672.281" y2="-395.778" gradientTransform="matrix(28 0 0 116 -18541.11 45985.875)"><stop offset="0" stop-color="#B1DA40"/><stop offset="1" stop-color="#B1DA40"/></linearGradient><path fill="url(#e)" d="M266.9 65.6l11-66 6.1 70.9"/><linearGradient id="f" gradientUnits="userSpaceOnUse" x1="677.499" y1="-397.393" x2="678.11" y2="-396.782" gradientTransform="matrix(51 0 0 81 -34404.594 32300.875)"><stop offset="0" stop-color="#FFDE0A"/><stop offset="1" stop-color="#B3C548"/></linearGradient><path fill="url(#f)" d="M151.4 106.5l15.9 49.5 15.3-1.8"/><linearGradient id="g" gradientUnits="userSpaceOnUse" x1="679.627" y1="-397.515" x2="680.238" y2="-396.904" gradientTransform="matrix(107 0 0 78 -72568.688 31112.875)"><stop offset="0" stop-color="#8EB867"/><stop offset="1" stop-color="#4EAA98"/></linearGradient><path fill="url(#g)" d="M151.4 106.5l65.4 23.2-34.2 24.5"/><linearGradient id="h" gradientUnits="userSpaceOnUse" x1="673.089" y1="-398.928" x2="673.7" y2="-398.317" gradientTransform="matrix(25 0 0 51 -16659.594 20498.938)"><stop offset="0" stop-color="#D9D129"/><stop offset="1" stop-color="#68AEA0"/></linearGradient><path fill="url(#h)" d="M167.3 156l1.2 29.3 14.1-31.1"/><linearGradient id="i" gradientUnits="userSpaceOnUse" x1="679.585" y1="-397.261" x2="680.196" y2="-396.65" gradientTransform="matrix(123 0 0 98 -83365.75 39032.875)"><stop offset="0" stop-color="#B1DA40"/><stop offset="1" stop-color="#7FC26C"/></linearGradient><path fill="url(#i)" d="M216.8 129.7l75.1 36.7-20.1-59.9"/><linearGradient id="j" gradientUnits="userSpaceOnUse" x1="671.739" y1="-397.403" x2="672.35" y2="-396.792" gradientTransform="matrix(28 0 0 67 -18541.11 26689.906)"><stop offset="0" stop-color="#B1DA40"/><stop offset="1" stop-color="#B1DA40"/></linearGradient><path fill="url(#j)" d="M266.9 65.6l17.1 4.9-12.2 36"/><linearGradient id="k" gradientUnits="userSpaceOnUse" x1="676.419" y1="-397.005" x2="677.029" y2="-396.394" gradientTransform="matrix(55 0 0 91 -36933.594 36201.875)"><stop offset="0" stop-color="#B1DA40"/><stop offset="1" stop-color="#7FC26C"/></linearGradient><path fill="url(#k)" d="M284 70.5l21.4 55.6-33.6-19.6"/><linearGradient id="l" gradientUnits="userSpaceOnUse" x1="677.258" y1="-395.518" x2="677.568" y2="-395.208" gradientTransform="matrix(64 0 0 155 -43057.125 61274.875)"><stop offset="0" stop-color="#67B682"/><stop offset="1" stop-color="#6FB9D9"/></linearGradient><path fill="url(#l)" d="M317-11.4l-39.1 11"/><linearGradient id="m" gradientUnits="userSpaceOnUse" x1="677.546" y1="-396.33" x2="678.157" y2="-395.719" gradientTransform="matrix(73 0 0 116 -49190.625 45985.875)"><stop offset="0" stop-color="#67B682"/><stop offset="1" stop-color="#99CEAC"/></linearGradient><path fill="url(#m)" d="M277.9-.4l6.1 70.9 38.5-12.9"/><linearGradient id="n" gradientUnits="userSpaceOnUse" x1="677.761" y1="-396.493" x2="678.372" y2="-395.882" gradientTransform="matrix(73 0 0 113 -49190.625 44779.875)"><stop offset="0" stop-color="#67B682"/><stop offset="1" stop-color="#B3DBEB"/></linearGradient><path fill="url(#n)" d="M277.9-.4l39.1-11 5.5 69"/><linearGradient id="o" gradientUnits="userSpaceOnUse" x1="677.064" y1="-396.863" x2="677.674" y2="-396.253" gradientTransform="matrix(63 0 0 112 -42365.625 44496.875)"><stop offset="0" stop-color="#67B682"/><stop offset="1" stop-color="#68B7D8"/></linearGradient><path fill="url(#o)" d="M284 70.5l21.4 55.6 17.1-68.5"/><linearGradient id="p" gradientUnits="userSpaceOnUse" x1="676.471" y1="-397.218" x2="677.082" y2="-396.607" gradientTransform="matrix(55 0 0 98 -36933.594 39032.875)"><stop offset="0" stop-color="#98CE56"/><stop offset="1" stop-color="#3DA2A7"/></linearGradient><path fill="url(#p)" d="M271.8 106.5l20.1 59.9 13.5-28.1"/><linearGradient id="q" gradientUnits="userSpaceOnUse" x1="676.52" y1="-398.336" x2="677.132" y2="-397.725" gradientTransform="matrix(55 0 0 52 -36933.594 20816.938)"><stop offset="0" stop-color="#67B682"/><stop offset="1" stop-color="#1D93C5"/></linearGradient><path fill="url(#q)" d="M271.8 106.5l33.6 19.6v12.2"/><linearGradient id="r" gradientUnits="userSpaceOnUse" x1="670.839" y1="-396.66" x2="671.451" y2="-396.049" gradientTransform="matrix(28 0 0 132 -18478.11 52416.875)"><stop offset="0" stop-color="#55AED3"/><stop offset="1" stop-color="#8EC9E2"/></linearGradient><path fill="url(#r)" d="M305.4 126.1l17.1-68.5-17.1 80.7"/><linearGradient id="s" gradientUnits="userSpaceOnUse" x1="679.877" y1="-396.756" x2="680.487" y2="-396.146" gradientTransform="matrix(95 0 0 74 -64520.625 29376.875)"><stop offset="0" stop-color="#388681"/><stop offset="1" stop-color="#308590"/></linearGradient><path fill="url(#s)" d="M72 54.6l35.4-41L130 58.9"/><linearGradient id="t" gradientUnits="userSpaceOnUse" x1="680.447" y1="-397.102" x2="681.058" y2="-396.49" gradientTransform="matrix(130 0 0 85 -88373.125 33799.875)"><stop offset="0" stop-color="#42A3CD"/><stop offset="1" stop-color="#81B68C"/></linearGradient><path fill="url(#t)" d="M72 54.6l79.4 51.9L130 58.9"/><linearGradient id="u" gradientUnits="userSpaceOnUse" x1="679.581" y1="-396.862" x2="680.192" y2="-396.251" gradientTransform="matrix(87 0 0 74 -59010.625 29376.875)"><stop offset="0" stop-color="#276081"/><stop offset="1" stop-color="#23779F"/></linearGradient><path fill="url(#u)" d="M107.4 13.6l53.2.6L130 58.9"/><linearGradient id="v" gradientUnits="userSpaceOnUse" x1="676.213" y1="-397.181" x2="676.824" y2="-396.57" gradientTransform="matrix(35 0 0 78 -23535.594 31034.875)"><stop offset="0" stop-color="#4AA9D1"/><stop offset="1" stop-color="#77B38A"/></linearGradient><path fill="url(#v)" d="M147.1 80.2l4.3 26.3L130 58.9"/><linearGradient id="w" gradientUnits="userSpaceOnUse" x1="677.811" y1="-396.603" x2="678.423" y2="-395.991" gradientTransform="matrix(50 0 0 108 -33758.094 42841.875)"><stop offset="0" stop-color="#339ECB"/><stop offset="1" stop-color="#1D93C5"/></linearGradient><path fill="url(#w)" d="M147.1 80.2l13.5-66L130 58.9"/><linearGradient id="x" gradientUnits="userSpaceOnUse" x1="679.636" y1="-396.651" x2="680.247" y2="-396.04" gradientTransform="matrix(107 0 0 73 -72553.688 28938.875)"><stop offset="0" stop-color="#1D93C5"/><stop offset="1" stop-color="#2C9AC9"/></linearGradient><path fill="url(#x)" d="M160.6 14.2l55.6 18.4L226-12"/><linearGradient id="y" gradientUnits="userSpaceOnUse" x1="679.066" y1="-396.549" x2="679.68" y2="-395.937" gradientTransform="matrix(101 0 0 73 -68373.625 28938.875)"><stop offset="0" stop-color="#339ECB"/><stop offset="1" stop-color="#4EAA98"/></linearGradient><path fill="url(#y)" d="M216.2 32.6l61.7-33L226-12"/><linearGradient id="z" gradientUnits="userSpaceOnUse" x1="678.714" y1="-395.787" x2="679.325" y2="-395.176" gradientTransform="matrix(94 0 0 155 -63587.125 61274.875)"><stop offset="0" stop-color="#7DC188"/><stop offset="1" stop-color="#329DCA"/></linearGradient><path fill="url(#z)" d="M226-12L277.9-.4"/><linearGradient id="A" gradientUnits="userSpaceOnUse" x1="679.827" y1="-396.122" x2="680.438" y2="-395.511" gradientTransform="matrix(103 0 0 117 -69914.625 46288.875)"><stop offset="0" stop-color="#1E8AB9"/><stop offset="1" stop-color="#1D93C5"/></linearGradient><path fill="url(#A)" d="M107.4 13.6l53.2.6 9.8-71.4"/><linearGradient id="B" gradientUnits="userSpaceOnUse" x1="679.476" y1="-396.025" x2="680.087" y2="-395.414" gradientTransform="matrix(107 0 0 117 -72553.688 46288.875)"><stop offset="0" stop-color="#1D93C5"/><stop offset="1" stop-color="#1D93C5"/></linearGradient><path fill="url(#B)" d="M160.6 14.2L226-12l-55.6-45.2"/><linearGradient id="C" gradientUnits="userSpaceOnUse" x1="680.917" y1="-396.076" x2="681.528" y2="-395.465" gradientTransform="matrix(208 0 0 142 -141577.125 56162.875)"><stop offset="0" stop-color="#3F7FA0"/><stop offset="1" stop-color="#3580A4"/></linearGradient><path fill="url(#C)" d="M43.3-73.1l64.1 86.7 63-70.8"/><linearGradient id="D" gradientUnits="userSpaceOnUse" x1="680.469" y1="-395.997" x2="681.079" y2="-395.386" gradientTransform="matrix(124 0 0 142 -84350.25 56162.875)"><stop offset="0" stop-color="#1D93C5"/><stop offset="1" stop-color="#2792BF"/></linearGradient><path fill="url(#D)" d="M43.3-73.1l64.1 86.7L31.7-42"/><linearGradient id="E" gradientUnits="userSpaceOnUse" x1="679.635" y1="-395.419" x2="679.908" y2="-395.146" gradientTransform="matrix(51 0 0 170 -34651.594 67169.875)"><stop offset="0" stop-color="#1D93C5"/><stop offset="1" stop-color="#2697C7"/></linearGradient><path fill="url(#E)" d="M31.7-42L.5-18.7"/><linearGradient id="F" gradientUnits="userSpaceOnUse" x1="679.982" y1="-396.935" x2="680.593" y2="-396.325" gradientTransform="matrix(88 0 0 67 -59780.125 26604.906)"><stop offset="0" stop-color="#1D93C5"/><stop offset="1" stop-color="#1E8DBD"/></linearGradient><path fill="url(#F)" d="M72 54.6l35.4-41-53.7 5.5"/><linearGradient id="G" gradientUnits="userSpaceOnUse" x1="680.203" y1="-396.375" x2="680.813" y2="-395.765" gradientTransform="matrix(87 0 0 82 -59185.625 32491.875)"><stop offset="0" stop-color="#1D93C5"/><stop offset="1" stop-color="#1D93C5"/></linearGradient><path fill="url(#G)" d="M.5-18.7l6.7 50.1 46.5-12.3"/><linearGradient id="H" gradientUnits="userSpaceOnUse" x1="680.332" y1="-396.269" x2="680.944" y2="-395.658" gradientTransform="matrix(87 0 0 100 -59185.625 39581.875)"><stop offset="0" stop-color="#1D93C5"/><stop offset="1" stop-color="#2697C7"/></linearGradient><path fill="url(#H)" d="M.5-18.7L31.7-42l22 61.1"/><linearGradient id="I" gradientUnits="userSpaceOnUse" x1="680.405" y1="-396.145" x2="681.017" y2="-395.533" gradientTransform="matrix(124 0 0 100 -84350.25 39581.875)"><stop offset="0" stop-color="#2A9AC8"/><stop offset="1" stop-color="#1E8DBD"/></linearGradient><path fill="url(#I)" d="M31.7-42l75.7 55.6-53.7 5.5"/><linearGradient id="J" gradientUnits="userSpaceOnUse" x1="680.023" y1="-397.929" x2="680.633" y2="-397.318" gradientTransform="matrix(85 0 0 65 -57773.625 25986.906)"><stop offset="0" stop-color="#68B3D5"/><stop offset="1" stop-color="#9AC191"/></linearGradient><path fill="url(#J)" d="M30.4 135.2l52 24.5L42 120"/><linearGradient id="K" gradientUnits="userSpaceOnUse" x1="677.319" y1="-396.088" x2="677.93" y2="-395.476" gradientTransform="matrix(24 0 0 304 -16264.094 120404.25)"><stop offset="0" stop-color="#1D93C5"/><stop offset="1" stop-color="#1D93C5"/></linearGradient><path fill="url(#K)" d="M.5-18.7l6.7 50.1L-7.4 167"/><linearGradient id="L" gradientUnits="userSpaceOnUse" x1="677.361" y1="-396.317" x2="677.972" y2="-395.706" gradientTransform="matrix(24 0 0 222 -16264.094 88013.875)"><stop offset="0" stop-color="#1D93C5"/><stop offset="1" stop-color="#1D93C5"/></linearGradient><path fill="url(#L)" d="M4.8 134.6L7.2 31.4-7.4 167"/><linearGradient id="M" gradientUnits="userSpaceOnUse" x1="676.445" y1="-395.443" x2="676.537" y2="-395.351" gradientTransform="matrix(18 0 0 613 -12180.094 242459)"><stop offset="0" stop-color="#1D93C5"/><stop offset="1" stop-color="#1D93C5"/></linearGradient><path fill="url(#M)" d="M.5-18.7L-7.4 167"/><linearGradient id="N" gradientUnits="userSpaceOnUse" x1="679.773" y1="-397.002" x2="680.385" y2="-396.39" gradientTransform="matrix(73 0 0 59 -49600.625 23445.938)"><stop offset="0" stop-color="#1D93C5"/><stop offset="1" stop-color="#2798C8"/></linearGradient><path fill="url(#N)" d="M53.7 19.1L72 54.6l-44.6.6"/><linearGradient id="O" gradientUnits="userSpaceOnUse" x1="680.139" y1="-397.13" x2="680.751" y2="-396.518" gradientTransform="matrix(76 0 0 59 -51678.125 23445.938)"><stop offset="0" stop-color="#1D93C5"/><stop offset="1" stop-color="#2798C8"/></linearGradient><path fill="url(#O)" d="M7.2 31.4l46.5-12.3-26.3 36.1"/><linearGradient id="P" gradientUnits="userSpaceOnUse" x1="678.212" y1="-396.681" x2="678.822" y2="-396.071" gradientTransform="matrix(33 0 0 104 -22373.625 41285.875)"><stop offset="0" stop-color="#3CA3CE"/><stop offset="1" stop-color="#3CA3CE"/></linearGradient><path fill="url(#P)" d="M7.2 31.4l8 63.5 12.2-39.7"/><linearGradient id="Q" gradientUnits="userSpaceOnUse" x1="680.688" y1="-396.948" x2="681.298" y2="-396.337" gradientTransform="matrix(175 0 0 85 -119085.625 33799.875)"><stop offset="0" stop-color="#2F6983"/><stop offset="1" stop-color="#74905B"/></linearGradient><path fill="url(#Q)" d="M72 54.6l79.4 51.9L44.5 87"/><linearGradient id="R" gradientUnits="userSpaceOnUse" x1="680.757" y1="-396.903" x2="681.368" y2="-396.292" gradientTransform="matrix(175 0 0 119 -119085.625 47316.875)"><stop offset="0" stop-color="#A4C36D"/><stop offset="1" stop-color="#77B38A"/></linearGradient><path fill="url(#R)" d="M82.4 159.7l69-53.2L44.5 87"/><linearGradient id="S" gradientUnits="userSpaceOnUse" x1="679.042" y1="-397.229" x2="679.652" y2="-396.62" gradientTransform="matrix(48 0 0 65 -32583.094 25880.906)"><stop offset="0" stop-color="#3AA2CD"/><stop offset="1" stop-color="#3BA2CD"/></linearGradient><path fill="url(#S)" d="M15.2 94.9l12.2-39.7L44.5 87"/><linearGradient id="T" gradientUnits="userSpaceOnUse" x1="679.248" y1="-398.077" x2="679.859" y2="-397.466" gradientTransform="matrix(48 0 0 54 -32583.094 21576.938)"><stop offset="0" stop-color="#1D93C5"/><stop offset="1" stop-color="#1D93C5"/></linearGradient><path fill="url(#T)" d="M15.2 94.9L42 120l2.5-33"/><linearGradient id="U" gradientUnits="userSpaceOnUse" x1="679.893" y1="-397.669" x2="680.504" y2="-397.058" gradientTransform="matrix(73 0 0 53 -49600.625 21127.938)"><stop offset="0" stop-color="#2D9BC9"/><stop offset="1" stop-color="#1D93C5"/></linearGradient><path fill="url(#U)" d="M27.4 55.2l44.6-.6L44.5 87"/><linearGradient id="V" gradientUnits="userSpaceOnUse" x1="679.457" y1="-396.831" x2="680.068" y2="-396.22" gradientTransform="matrix(66 0 0 119 -44806.125 47316.875)"><stop offset="0" stop-color="#42A3CD"/><stop offset="1" stop-color="#81B68C"/></linearGradient><path fill="url(#V)" d="M42 120l40.4 39.7L44.5 87"/><linearGradient id="W" gradientUnits="userSpaceOnUse" x1="670.695" y1="-396.325" x2="671.307" y2="-395.713" gradientTransform="matrix(10 0 0 169 -6703.094 67025.875)"><stop offset="0" stop-color="#1D93C5"/><stop offset="1" stop-color="#1D93C5"/></linearGradient><path fill="url(#W)" d="M4.8 134.6L7.2 31.4l3.7 80"/><linearGradient id="X" gradientUnits="userSpaceOnUse" x1="678.837" y1="-399.003" x2="679.448" y2="-398.392" gradientTransform="matrix(42 0 0 39 -28511.094 15676.906)"><stop offset="0" stop-color="#1D93C5"/><stop offset="1" stop-color="#1D93C5"/></linearGradient><path fill="url(#X)" d="M4.8 134.6l25.6.6-19.5-23.8"/><linearGradient id="Y" gradientUnits="userSpaceOnUse" x1="673.09" y1="-396.489" x2="673.7" y2="-395.878" gradientTransform="matrix(13 0 0 131 -8743.594 51977.875)"><stop offset="0" stop-color="#1D93C5"/><stop offset="1" stop-color="#1D93C5"/></linearGradient><path fill="url(#Y)" d="M7.2 31.4l8 63.5-4.3 16.5"/><linearGradient id="Z" gradientUnits="userSpaceOnUse" x1="679.244" y1="-398.629" x2="679.855" y2="-398.018" gradientTransform="matrix(51 0 0 41 -34634.594 16441.906)"><stop offset="0" stop-color="#1D93C5"/><stop offset="1" stop-color="#1D93C5"/></linearGradient><path fill="url(#Z)" d="M15.2 94.9L42 120l-31.1-8.6"/><linearGradient id="aa" gradientUnits="userSpaceOnUse" x1="679.362" y1="-399.156" x2="679.974" y2="-398.544" gradientTransform="matrix(51 0 0 39 -34634.594 15676.906)"><stop offset="0" stop-color="#1D93C5"/><stop offset="1" stop-color="#1D93C5"/></linearGradient><path fill="url(#aa)" d="M30.4 135.2L42 120l-31.1-8.6"/><linearGradient id="ab" gradientUnits="userSpaceOnUse" x1="679.455" y1="-398.358" x2="680.066" y2="-397.747" gradientTransform="matrix(97 0 0 43 -65760.625 17209.906)"><stop offset="0" stop-color="#4AA9D1"/><stop offset="1" stop-color="#A8CB5E"/></linearGradient><path fill="url(#ab)" d="M147.1 80.2l4.3 26.3 55-23.2"/><linearGradient id="ac" gradientUnits="userSpaceOnUse" x1="679.351" y1="-396.416" x2="679.962" y2="-395.805" gradientTransform="matrix(97 0 0 113 -65760.625 44821.875)"><stop offset="0" stop-color="#339ECB"/><stop offset="1" stop-color="#4EAA98"/></linearGradient><path fill="url(#ac)" d="M147.1 80.2l13.5-66 45.8 69.1"/><linearGradient id="ad" gradientUnits="userSpaceOnUse" x1="679.681" y1="-397.415" x2="680.292" y2="-396.804" gradientTransform="matrix(107 0 0 76 -72568.688 30282.875)"><stop offset="0" stop-color="#8EB867"/><stop offset="1" stop-color="#7FC26C"/></linearGradient><path fill="url(#ad)" d="M151.4 106.5l65.4 23.2-10.4-46.4"/><linearGradient id="ae" gradientUnits="userSpaceOnUse" x1="679.318" y1="-396.612" x2="679.929" y2="-396.001" gradientTransform="matrix(91 0 0 113 -61649.625 44821.875)"><stop offset="0" stop-color="#44A5CF"/><stop offset="1" stop-color="#77BEA3"/></linearGradient><path fill="url(#ae)" d="M160.6 14.2l55.6 18.4-9.8 50.7"/><linearGradient id="af" gradientUnits="userSpaceOnUse" x1="679.021" y1="-396.76" x2="679.633" y2="-396.149" gradientTransform="matrix(99 0 0 83 -67026.625 32971.875)"><stop offset="0" stop-color="#6BB8AE"/><stop offset="1" stop-color="#A4D459"/></linearGradient><path fill="url(#af)" d="M216.2 32.6l50.7 33-60.5 17.7"/><linearGradient id="ag" gradientUnits="userSpaceOnUse" x1="679.248" y1="-397.312" x2="679.86" y2="-396.7" gradientTransform="matrix(107 0 0 76 -72478.688 30282.875)"><stop offset="0" stop-color="#98CE56"/><stop offset="1" stop-color="#A0D24E"/></linearGradient><path fill="url(#ag)" d="M216.8 129.7l55-23.2-65.4-23.2"/><linearGradient id="ah" gradientUnits="userSpaceOnUse" x1="679.375" y1="-397.454" x2="679.986" y2="-396.843" gradientTransform="matrix(107 0 0 67 -72478.688 26689.906)"><stop offset="0" stop-color="#67B682"/><stop offset="1" stop-color="#7FC26C"/></linearGradient><path fill="url(#ah)" d="M266.9 65.6l4.9 40.9-65.4-23.2"/></g></svg>