<svg xmlns="http://www.w3.org/2000/svg" xmlns:xlink="http://www.w3.org/1999/xlink" width="72" height="84" viewBox="0 0 72 84"><symbol id="c" viewBox="-63 -63 126 126"><path fill="#F3E988" d="M63 0c0-34.8-28.2-63-63-63S-63-34.8-63 0s28.2 63 63 63S63 34.8 63 0z"/><path fill="#F3D119" d="M0-46.8c-25.8 0-46.8 21-46.8 46.8 0 25.8 21 46.8 46.8 46.8 25.8 0 46.8-21 46.8-46.8 0-25.8-21-46.8-46.8-46.8z"/><path fill="#F38319" d="M0-22.5c-12.4 0-22.5 10.1-22.5 22.5S-12.4 22.5 0 22.5 22.5 12.4 22.5 0 12.4-22.5 0-22.5z"/></symbol><defs><path id="a" d="M0 0h72v84H0z"/></defs><clipPath id="b"><use xlink:href="#a" overflow="visible"/></clipPath><g opacity=".3" clip-path="url(#b)"><use xlink:href="#c" width="126" height="126" x="-63" y="-63" transform="matrix(.8095 0 0 -.8095 20 56)" overflow="visible"/></g></svg>