<svg xmlns="http://www.w3.org/2000/svg" xmlns:xlink="http://www.w3.org/1999/xlink" width="157" height="49" viewBox="0 0 157 49"><symbol id="a" viewBox="-26.4 -11.8 52.9 23.6"><path fill="#F9F9F9" d="M-26.4-5.9c.2-3.2 2.8-5.8 6.1-5.8 0 0 39-.1 39.4 0 .6 0 1.2.2 1.7.4 3.3 1.1 5.6 4.3 5.6 7.9C26.4 1.2 22.6 5 18 5c-1.6 0-3.1-.4-4.3-1.2-1.5 4.7-5.9 8.1-11.1 8.1-5 0-9.3-3.2-10.9-7.6-1 .5-2.2.7-3.4.7-3.2 0-6-1.7-7.3-4.5h-1.2c-3.3 0-6-2.6-6.1-5.8-.1-.2-.1-.6-.1-.6z"/><path opacity=".02" d="M26.3-5.1c.1.5.2 1.1.2 1.6 0 4.6-3.8 8.4-8.4 8.4-1.6 0-3.1-.4-4.3-1.2-1.5 4.7-5.9 8.1-11.1 8.1-5 0-9.3-3.2-10.9-7.6-1 .5-2.2.7-3.4.7-3.2 0-6-1.7-7.3-4.5h-1.2c-3.3 0-6-2.6-6.1-5.8V-6c0-.5.1-.9.2-1.3.7 2.6 3.1 4.5 5.9 4.5h1.2c1.4 2.8 4.1 4.5 7.3 4.5 1.2 0 2.4-.2 3.4-.7 1.7 4.4 5.9 7.6 10.9 7.6 5.2 0 9.6-3.4 11.1-8.1 1.2.8 2.7 1.2 4.2 1.2 4.1 0 7.5-2.9 8.3-6.8z"/></symbol><use xlink:href="#a" width="52.9" height="23.6" x="-26.4" y="-11.8" transform="matrix(1 0 0 -1 129.943 11.79)" overflow="visible"/><use xlink:href="#a" width="52.9" height="23.6" x="-26.4" y="-11.8" transform="matrix(.4977 0 0 -.4977 13.155 43.004)" overflow="visible"/></svg>