<svg xmlns="http://www.w3.org/2000/svg" width="55.3" height="80" viewBox="0 0 55.3 80"><path fill="#231F20" d="M44.2 33c-.5-1.5-1.2-2.4-1.8-3.9.9-2.1 1.8-5 1.8-7.5 0-9-7.1-16.3-16-16.7h-.6c-9.2 0-16.7 7.5-16.7 16.7 0 2.7.7 5.3 1.8 7.6-5.4 11.1-8.9 25.3-8.9 31.4C3.8 71.3 14.5 80 27.6 80s23.7-8.7 23.7-19.4c0-5.4-2.7-17.2-7.1-27.6z"/><radialGradient id="a" cx="27.588" cy="42.462" r="25.386" gradientUnits="userSpaceOnUse"><stop offset="0" stop-color="#FFF"/><stop offset=".515" stop-color="#FDFDFD"/><stop offset=".7" stop-color="#F6F6F6"/><stop offset=".833" stop-color="#EBEBEB"/><stop offset=".939" stop-color="#DADADA"/><stop offset="1" stop-color="#CCC"/></radialGradient><path fill="url(#a)" d="M41 34.8c-.4-1.2-1-1.8-1.5-3 .8-1.7 1.5-4.2 1.5-6.2 0-7.3-5.8-13.2-13-13.5h-.5c-7.5 0-13.5 6-13.5 13.5 0 2.2.5 4.3 1.5 6.1-4.3 9-7.1 20.5-7.1 25.4 0 8.6 8.6 15.7 19.2 15.7s19.2-7 19.2-15.7c0-4.3-2.2-13.9-5.8-22.3z"/><g opacity=".15"><path fill-rule="evenodd" clip-rule="evenodd" d="M39.6 60.1L28.7 42.4c-.6-1-1.7-1-2.3 0L15.5 60.1c-.6 1-.2 1.8 1 1.8h22.3c.5 0 .8-.1 1-.4.2-.3.2-.8-.2-1.4z"/><path fill="none" stroke="#000" stroke-width="2" stroke-miterlimit="10" d="M39.6 60.1L28.7 42.4c-.6-1-1.7-1-2.3 0L15.5 60.1c-.6 1-.2 1.8 1 1.8h22.3c.5 0 .8-.1 1-.4.2-.3.2-.8-.2-1.4z"/></g><linearGradient id="b" gradientUnits="userSpaceOnUse" x1="27.549" y1="61.094" x2="27.549" y2="40.883"><stop offset="0" stop-color="#FF8C1C"/><stop offset=".241" stop-color="#FF901D"/><stop offset=".492" stop-color="#FF9D21"/><stop offset=".746" stop-color="#FFB126"/><stop offset="1" stop-color="#FFCE2E"/></linearGradient><path fill-rule="evenodd" clip-rule="evenodd" fill="url(#b)" d="M39.6 59.3L28.7 41.6c-.6-1-1.7-1-2.3 0L15.5 59.3c-.6 1-.2 1.8 1 1.8h22.3c.5 0 .8-.1 1-.4.2-.3.2-.8-.2-1.4z"/><path fill="none" stroke="#FFE56D" stroke-width="2" stroke-miterlimit="10" d="M39.6 59.3L28.7 41.6c-.6-1-1.7-1-2.3 0L15.5 59.3c-.6 1-.2 1.8 1 1.8h22.3c.5 0 .8-.1 1-.4.2-.3.2-.8-.2-1.4z"/><path opacity=".2" fill="#FFF" d="M40.3 60.8c-.1.1-.1.2-.2.3L23.8 44.8l2.1-3.4c.4-.6 1-1 1.6-1s1.2.4 1.6 1l11 17.7c.4.6.5 1.2.2 1.7z"/><path d="M28.2 54.2s-.2-.1-.2-.3c0-.2.1-1 .3-2.4.3-2.1.5-3.3.5-3.5 0-.3-.1-.6-.3-.9-.2-.3-.5-.4-.9-.4s-.7.1-.9.4c-.2.2-.3.5-.3.8 0 .1.1 1 .4 2.6.3 2 .5 3.2.5 3.4 0 .2-.2.3-.2.3h1.1zm-1.6 1.6c-.2.3-.3.6-.3.9 0 .3.1.6.3.9.2.2.5.3.9.3s.7-.1.9-.4.4-.6.4-.9c0-.3-.1-.6-.4-.9-.2-.2-.6-.4-.9-.4-.4.1-.7.2-.9.5z" opacity=".15"/><path fill="#FFF" d="M28.2 53.4s-.2-.1-.2-.3c0-.2.1-1 .3-2.4.3-2.1.5-3.3.5-3.5 0-.3-.1-.6-.3-.9-.2-.3-.5-.4-.9-.4s-.7.1-.9.4c-.2.2-.3.5-.3.8 0 .1.1 1 .4 2.6.3 2 .5 3.2.5 3.4 0 .2-.2.3-.2.3h1.1zM26.6 55c-.2.3-.3.6-.3.9 0 .3.1.6.3.9.2.2.5.3.9.3s.7-.1.9-.4.4-.6.4-.9c0-.3-.1-.6-.4-.9-.2-.2-.6-.4-.9-.4-.4.2-.7.3-.9.5z"/><linearGradient id="c" gradientUnits="userSpaceOnUse" x1="16.992" y1="74.545" x2="16.992" y2="80"><stop offset="0" stop-color="#FFE773"/><stop offset=".22" stop-color="#FFE36E"/><stop offset=".482" stop-color="#FFD960"/><stop offset=".765" stop-color="#FFC748"/><stop offset="1" stop-color="#FFB42E"/></linearGradient><path fill="url(#c)" d="M17 74.5c-3 0-5.5 2.4-5.5 5.5h10.9c0-3-2.4-5.5-5.4-5.5z"/><linearGradient id="d" gradientUnits="userSpaceOnUse" x1="38.536" y1="74.545" x2="38.536" y2="80"><stop offset="0" stop-color="#FFE773"/><stop offset=".22" stop-color="#FFE36E"/><stop offset=".482" stop-color="#FFD960"/><stop offset=".765" stop-color="#FFC748"/><stop offset="1" stop-color="#FFB42E"/></linearGradient><path fill="url(#d)" d="M38.5 74.5c-3 0-5.5 2.4-5.5 5.5h11c0-3-2.5-5.5-5.5-5.5z"/><linearGradient id="e" gradientUnits="userSpaceOnUse" x1="27.587" y1="11.342" x2="27.587" y2="36.357"><stop offset="0" stop-color="#FFE773"/><stop offset=".22" stop-color="#FFE36E"/><stop offset=".482" stop-color="#FFD960"/><stop offset=".765" stop-color="#FFC748"/><stop offset="1" stop-color="#FFB42E"/></linearGradient><ellipse fill="url(#e)" cx="27.6" cy="23.8" rx="13.7" ry="12.5"/><circle fill="#231F20" cx="27.6" cy="22.4" r="13.4"/><circle fill="#FFF" cx="19.6" cy="18.8" r="5.4"/><circle fill="#231F20" cx="21.3" cy="18.8" r="2.2"/><circle fill="#FFF" cx="22.2" cy="17.9" r=".6"/><circle fill="#FFF" cx="23" cy="18.8" r=".3"/><circle fill="#FFF" cx="22" cy="19.5" r=".3"/><path fill="#FFF" d="M35.6 24.2c3 0 5.4-2.4 5.4-5.4s-2.4-5.4-5.4-5.4c-3 0-5.4 2.4-5.4 5.4s2.4 5.4 5.4 5.4z"/><circle fill="#231F20" cx="33.6" cy="18.8" r="2.2"/><circle fill="#FFF" cx="34.4" cy="17.9" r=".6"/><circle fill="#FFF" cx="35.2" cy="18.8" r=".3"/><circle fill="#FFF" cx="34.2" cy="19.5" r=".3"/><path fill="#FFD8F4" d="M30.5 24.8l-1.1 1.9c-.5.9-1.1 2-1.8 2-.6 0-1.3-1.2-1.8-2l-1.1-1.9c-.7-1.1-.5-2.1.3-2.7l1.9-.4h1.8c2 0 2.8 1.4 1.8 3.1z"/><radialGradient id="f" cx="27.597" cy="24.057" r="2.895" gradientUnits="userSpaceOnUse"><stop offset="0" stop-color="#F7E563"/><stop offset=".095" stop-color="#F4DF5A"/><stop offset=".321" stop-color="#F0D44B"/><stop offset=".588" stop-color="#EECE43"/><stop offset="1" stop-color="#EDCC40"/></radialGradient><path fill="url(#f)" d="M28.7 21.7h-2.2c-2 0-2.8.9-1.8 2.1l1.1 1.3c.5.6 1.1 1.4 1.8 1.4s1.3-.8 1.8-1.4l1.1-1.3c1-1.2.2-2.1-1.8-2.1z"/><path fill="#231F20" d="M26.6 5.3S29.8.5 33 0c-3.5 3.4-3 4.2-3 4.2s1.7-2.6 3.5-3.1c-2.5 2.6-1.9 4.3-1.9 4.3s.2-1.5 2-2.7c-1.3 1.7-1.4 3.9-1.4 3.9"/><ellipse transform="rotate(32.031 6.09 42.298)" fill="#231F20" cx="6.1" cy="42.3" rx="3.2" ry="10.2"/><ellipse transform="rotate(-57.969 8.97 54.415)" fill="#231F20" cx="9" cy="54.4" rx="3.2" ry="10.4"/><ellipse transform="scale(-1) rotate(-32.031 -147.356 171.494)" fill="#231F20" cx="49.2" cy="42.3" rx="3.2" ry="10.2"/><ellipse transform="scale(-1) rotate(57.969 98.23 -83.66)" fill="#231F20" cx="46.3" cy="54.4" rx="3.2" ry="10.4"/></svg>