<svg xmlns="http://www.w3.org/2000/svg" xmlns:xlink="http://www.w3.org/1999/xlink" width="100" height="86" viewBox="200 44 100 86"><defs><path id="a" d="M200 44h100v86H200z"/></defs><clipPath id="b"><use xlink:href="#a" overflow="visible"/></clipPath><g clip-path="url(#b)"><path fill="#231F20" d="M287.4 115.8c-4.3-6.9-9-12.3-12.1-14.3-.2-.6-.5-1.1-.7-1.7-.7-2.3-1.9-3.6-2.7-5.9 1.4-3.2 2.7-7.6 2.7-11.3 0-11.4-7.6-21-18-24.1.2-1.2.7-3 1.9-4.5-2.6 1.7-3 4-3 4s-.9-2.4 2.8-6.4c-2.6.7-5.2 4.7-5.2 4.7s-.8-1.1 4.4-6.3c-4.1.6-8.1 5.7-9.3 7.5-13.5.5-24.2 11.6-24.2 25.2 0 4.1 1 8 2.8 11.5-1.1 2.4-2.2 4.8-3.3 7.3-3.1 2-7.8 7.4-12.2 14.3-6 9.7-9.1 18.6-6.9 20.1 1.8 1.1 6.3-2.8 11.2-9.3-1.4 6.2-2.2 11.6-2.2 15.1 0 16.2 16.1 29.3 35.9 29.3s35.9-13.1 35.9-29.3c0-3.5-.8-8.9-2.2-15 4.8 6.4 9.3 10.3 11.1 9.2 2.4-1.4-.7-10.4-6.7-20.1z"/><radialGradient id="c" cx="660.395" cy="-272.299" r="38.352" gradientTransform="matrix(1 0 0 -1 -410.99 -158.1)" gradientUnits="userSpaceOnUse"><stop offset="0" stop-color="#FFF"/><stop offset=".515" stop-color="#FDFDFD"/><stop offset=".7" stop-color="#F6F6F6"/><stop offset=".833" stop-color="#EBEBEB"/><stop offset=".939" stop-color="#DADADA"/><stop offset="1" stop-color="#CCC"/></radialGradient><path fill="url(#c)" d="M269.7 102.6c-.6-1.8-1.6-2.7-2.2-4.6 1.1-2.6 2.2-6.3 2.2-9.3 0-11-8.7-20-19.6-20.4h-.8c-11.3 0-20.4 9.1-20.4 20.4 0 3.3.8 6.5 2.2 9.3-6.6 13.6-10.8 31-10.8 38.4 0 13.1 13 23.7 29 23.7s29-10.6 29-23.7c.1-6.6-3.2-21.1-8.6-33.8z"/><linearGradient id="d" gradientUnits="userSpaceOnUse" x1="644.339" y1="-320.849" x2="644.339" y2="-329.101" gradientTransform="matrix(1 0 0 -1 -410.99 -158.1)"><stop offset="0" stop-color="#FFE773"/><stop offset=".22" stop-color="#FFE36E"/><stop offset=".482" stop-color="#FFD960"/><stop offset=".765" stop-color="#FFC748"/><stop offset="1" stop-color="#FFB42E"/></linearGradient><path fill="url(#d)" d="M233.4 162.7c-4.6 0-8.3 3.7-8.3 8.3h16.5c0-4.6-3.7-8.3-8.2-8.3z"/><linearGradient id="e" gradientUnits="userSpaceOnUse" x1="676.939" y1="-320.849" x2="676.939" y2="-329.101" gradientTransform="matrix(1 0 0 -1 -410.99 -158.1)"><stop offset="0" stop-color="#FFE773"/><stop offset=".22" stop-color="#FFE36E"/><stop offset=".482" stop-color="#FFD960"/><stop offset=".765" stop-color="#FFC748"/><stop offset="1" stop-color="#FFB42E"/></linearGradient><path fill="url(#e)" d="M266 162.7c-4.6 0-8.3 3.7-8.3 8.3h16.5c0-4.6-3.7-8.3-8.2-8.3z"/><linearGradient id="f" gradientUnits="userSpaceOnUse" x1="660.389" y1="-225.255" x2="660.389" y2="-263.055" gradientTransform="matrix(1 0 0 -1 -410.99 -158.1)"><stop offset="0" stop-color="#FFE773"/><stop offset=".22" stop-color="#FFE36E"/><stop offset=".482" stop-color="#FFD960"/><stop offset=".765" stop-color="#FFC748"/><stop offset="1" stop-color="#FFB42E"/></linearGradient><ellipse fill="url(#f)" cx="249.4" cy="86.1" rx="20.7" ry="18.9"/><circle fill="#231F20" cx="249.4" cy="83.9" r="20.3"/><path fill="#FFF" d="M237.3 86.6c-4.5 0-8.2-3.7-8.2-8.2s3.7-8.2 8.2-8.2 8.2 3.7 8.2 8.2-3.7 8.2-8.2 8.2z"/><path fill="#231F20" d="M240 75.1c-1.8 0-3.3 1.5-3.3 3.3 0 1.8 1.5 3.3 3.3 3.3s3.3-1.5 3.3-3.3c-.1-1.8-1.5-3.3-3.3-3.3z"/><path fill="#FFF" d="M242.2 77c0 .5-.4.9-.9.9s-.9-.4-.9-.9.4-.9.9-.9c.4 0 .9.4.9.9z"/><circle fill="#FFF" cx="242.4" cy="78.4" r=".4"/><circle fill="#FFF" cx="241" cy="79.5" r=".4"/><path fill="#FFF" d="M261.5 86.6c4.5 0 8.2-3.7 8.2-8.2s-3.7-8.2-8.2-8.2-8.2 3.7-8.2 8.2 3.7 8.2 8.2 8.2z"/><path fill="#231F20" d="M258.4 75.1c1.8 0 3.3 1.5 3.3 3.3 0 1.8-1.5 3.3-3.3 3.3-1.8 0-3.3-1.5-3.3-3.3.1-1.8 1.5-3.3 3.3-3.3z"/><path fill="#FFF" d="M260.6 77c0 .5-.4.9-.9.9s-.9-.4-.9-.9.4-.9.9-.9.9.4.9.9z"/><circle fill="#FFF" cx="260.9" cy="78.4" r=".4"/><circle fill="#FFF" cx="259.4" cy="79.5" r=".4"/><path fill="#FFD8F4" d="M253.8 87.5l-1.7 2.9c-.7 1.3-1.7 3.1-2.7 3.1s-2-1.8-2.7-3.1l-1.7-2.9c-1-1.7-.8-3.2.4-4l2.9-.6h2.8c3-.1 4.2 2 2.7 4.6z"/><radialGradient id="g" cx="660.406" cy="-244.485" r="4.378" gradientTransform="matrix(1 0 0 -1 -410.99 -158.1)" gradientUnits="userSpaceOnUse"><stop offset="0" stop-color="#F7E563"/><stop offset=".095" stop-color="#F4DF5A"/><stop offset=".321" stop-color="#F0D44B"/><stop offset=".588" stop-color="#EECE43"/><stop offset="1" stop-color="#EDCC40"/></radialGradient><path fill="url(#g)" d="M251.1 82.8h-3.4c-3 0-4.2 1.4-2.7 3.2l1.7 2c.7.9 1.7 2.1 2.7 2.1s2-1.2 2.7-2.1l1.7-2c1.5-1.8.3-3.2-2.7-3.2z"/></g></svg>