<svg xmlns="http://www.w3.org/2000/svg" xmlns:xlink="http://www.w3.org/1999/xlink" width="320" height="165.2" viewBox="0 0 320 165.2"><symbol id="l" viewBox="-1.7 -1.5 3.5 3.1"><path fill="#567C18" d="M.8-.5c0 .1-.2 1.1.6 1.8C.7 1 .4.5.3.1.1.6-.2 1.5-1 1.5.2.8-.3-.6-.3-.6S-.5.5-1.7.4c.9-.1 1-1 1-1v-.5c0-.2.2-.4.5-.5 0 .1-.1.3-.2.3h-.1.1c.3 0 .4-.3.4-.3 0 .1 0 .4-.2.7.2-.1.3-.3.3-.4.1.2.2.5.5.6-.4-.3-.3-.8-.2-.8 0 0 .1.4.5.4-.3 0-.4-.3-.4-.4.4 0 .6.2.6.5v.5c0 .1.1.8.6.9C1 .3.8-.4.8-.5z"/></symbol><symbol id="f" viewBox="-17.9 -27.4 35.8 54.8"><path fill="#425529" d="M17.8-11.1C17.5-24.2 5.5-30-5-26.4c-10.7 3.2-17.1 14.8-9.8 25.6C.4 21.5 8.6 28.4 12.1 27.2c3.6-1 6.2-11.4 5.7-38.3z"/><path fill="#527129" d="M-4.1-25c-.1 0-.3.1-.4.1-.1 0-.3.1-.4.1-5.1 1.6-9.1 5.3-10.7 10-1.5 4.3-.7 9 2.1 13.2C5.8 26.7 11.1 26 11.6 25.8h.1c.5-.2 5.3-2.7 4.6-36.9-.1-5.1-2.3-9.4-6-12C6.4-25.9 1-26.6-4.1-25z"/><path d="M-4.8 6.8c.9 0 2-.6 2.6-1.2L2 1.2C2.6.6 3.7 0 4.6 0l6-.3c.9 0 2-.6 2.6-1.2l.6-.5c.4 18.9-1.6 24.2-2.4 25.6-1.4-.6-6-3.3-16.7-16.8h.5zM13.6-6.8l-1.9 2c-.6.6-1.8 1.2-2.6 1.2l-6 .3c-.9 0-2 .6-2.6 1.2l-4.1 4.4c-.6.6-1.8 1.2-2.6 1.2l-1.6.1C-9 2-10.2.4-11.6-1.4c3.2-6.9 10.3-15.5 24.8-12 .2.8.3 1.5.3 2.4 0 1.3.1 2.8.1 4.2z" fill="#6B8A39"/><path fill="#84AA4A" d="M5.8 13.1C5 12 4 11.4 3.4 11.8s-.4 1.6.3 2.8c.8 1.1 1.9 1.7 2.5 1.4.6-.5.4-1.7-.4-2.9zm6.3-7.5c0-1.2-.6-2.1-1.4-2.1-.7 0-1.3 1-1.3 2.1 0 1.2.6 2.1 1.4 2.1.7.1 1.3-.9 1.3-2.1zM-3.5-4.3c-.7-.6-1.7-.7-2-.2-.4.5 0 1.4.7 2 .8.5 1.7.6 2.1.1.4-.5 0-1.4-.8-1.9zM9.1-14.4c-.6-.9-1.6-1.3-2.2-1-.5.4-.5 1.5.1 2.4.6.9 1.6 1.3 2.2 1 .6-.4.5-1.5-.1-2.4z"/></symbol><symbol id="e" viewBox="-15.4 -21.2 30.8 42.4"><path fill="#5A4521" d="M-11.6 2.1c-7.1-7.7-3.5-17.7 4.6-21.5 7.9-4.2 18.1-1 20 9.3 3.7 21.3 2.8 29.9.2 31.1-2.7 1.4-10.1-3.2-24.8-18.9z"/><path fill="#8C5518" d="M-6.8-18.2c.1 0 .2-.1.3-.1.1-.1.2-.1.3-.2 3.8-1.9 8.2-2 11.7-.2 3.3 1.6 5.5 4.8 6.2 8.8 4.7 27.1 1.3 29.6.8 29.8-.4.2-4.5 1.4-23.2-18.7-2.8-3-3.9-6.6-3.3-10.2.7-3.9 3.4-7.3 7.2-9.2z"/><path d="M11.4-.3c-.5.5-1.5.8-2.2.8L4.4.3c-.7 0-1.7.3-2.2.8l-3.6 3.2c-.5.4-1.5.8-2.2.7h-.6C6.1 16.1 10.3 18 11.4 18.4c.5-1.1 1.7-5.2.3-18.9l-.3.2zM-6.8 2.2l2.2.1c.7 0 1.7-.3 2.2-.8l3.6-3.2c.5-.5 1.5-.8 2.2-.8l4.8.2c.7 0 1.7-.3 2.2-.8l.9-.8c-.2-1.6-.4-3.2-.6-5C5-11-3.8-12-10.3-2c.3.5.7 1 1.1 1.5.9 1 1.7 1.8 2.4 2.7z" fill="#A56929"/><path fill="#C68239" d="M8.8 9.3c-.2-1.1.1-2 .7-2.1.5-.1 1.1.7 1.3 1.8.2 1.1-.1 2-.7 2.1-.5.1-1.1-.7-1.3-1.8zM1 8.5c-.7-.7-.8-1.6-.4-2 .4-.4 1.3-.2 2 .5s.8 1.6.4 2c-.4.4-1.3.2-2-.5zM4.4-5.9c.1-.8.6-1.4 1.1-1.3.5.1.8.8.7 1.5-.1.8-.6 1.4-1.1 1.3s-.8-.8-.7-1.5zM-8.4-4.7c-.2-.9.2-1.7.7-1.8.5 0 1.1.6 1.2 1.5.2.9-.2 1.7-.7 1.8-.5 0-1.1-.6-1.2-1.5z"/></symbol><defs><path id="a" d="M0 46.2h320v119H0z"/></defs><clipPath id="b"><use xlink:href="#a" overflow="visible"/></clipPath><circle clip-path="url(#b)" fill="#89A85D" cx="160" cy="334.2" r="285"/><defs><path id="c" d="M0 31.2h320v134H0z"/></defs><clipPath id="d"><use xlink:href="#c" overflow="visible"/></clipPath><g clip-path="url(#d)"><use xlink:href="#e" width="30.8" height="42.4" x="-15.4" y="-21.2" transform="scale(-.686) rotate(47.003 80.322 -425.615)" overflow="visible"/><use xlink:href="#f" width="35.8" height="54.8" x="-17.9" y="-27.4" transform="matrix(.529 -.3658 -.3658 -.529 151.813 136.276)" overflow="visible"/><use xlink:href="#f" width="35.8" height="54.8" x="-17.9" y="-27.4" transform="matrix(.6409 -.0535 -.0535 -.6409 174.192 146.04)" overflow="visible"/><use xlink:href="#e" width="30.8" height="42.4" x="-15.4" y="-21.2" transform="matrix(-.6406 -.2453 .2453 -.6406 170.98 140.555)" overflow="visible"/><ellipse fill="#FFD8A4" cx="160" cy="65.2" rx="37" ry="5.8"/><path fill="#809E57" d="M304.9 103.5c1.8-1.9 3.2-4.4 3.8-7.6 4.1-22.7 3.3-31.9.4-33.3-2.2-1.2-7.7 1.6-18 11.4.5-8.1-.5-11.8-2.2-12.6-2-1-6.8 1.4-15.7 9.8-.9-11-2.9-15.8-5.2-16.5-1.4-.5-3.4.3-6.3 2.7-1.3-4.8-2.6-6.8-3.8-6.9-1.2-.2-3.2 1.6-6.1 6.5-.7-1-1.4-1.5-2-1.5-1.7-.2-4.3 2.3-8.1 9.3-2.4-6.5-4.4-9-5.8-9-2.1-.1-5.4 5-10.1 19.5-2.2 7.1 3.1 12.4 9.4 12.4.6 0 1.3 0 1.9-.1.4.5.8.9 1.2 1.3-2 8.8 3.9 16.9 12.5 19.5 7.4 2.6 15.5.4 19.8-5.6 3.8 1.4 8 1.2 11.3-.5.5 3.3 2.7 6.3 5.8 8.1 6.1 3.9 14.6 2.1 16.9-6.1.2-.4.2-.6.3-.8z"/><use xlink:href="#f" width="35.8" height="54.8" x="-17.9" y="-27.4" transform="matrix(.8334 .1117 .1117 -.8334 297.253 81.733)" overflow="visible"/><use xlink:href="#e" width="30.8" height="42.4" x="-15.4" y="-21.2" transform="matrix(1 0 0 -1 277.13 80.157)" overflow="visible"/><use xlink:href="#e" width="30.8" height="42.4" x="-15.4" y="-21.2" transform="scale(.686 -.686) rotate(23.197 420.68 782.877)" overflow="visible"/><use xlink:href="#e" width="30.8" height="42.4" x="-15.4" y="-21.2" transform="matrix(.7605 -.2733 -.2733 -.7605 255.13 67.538)" overflow="visible"/><use xlink:href="#f" width="35.8" height="54.8" x="-17.9" y="-27.4" transform="matrix(.6619 -.1464 -.1464 -.6619 246.911 72.691)" overflow="visible"/><use xlink:href="#f" width="35.8" height="54.8" x="-17.9" y="-27.4" transform="matrix(1 0 0 -1 257.197 79.733)" overflow="visible"/><use xlink:href="#f" width="35.8" height="54.8" x="-17.9" y="-27.4" transform="matrix(.6298 .1305 .1305 -.6298 297.26 92.233)" overflow="visible"/><use xlink:href="#e" width="30.8" height="42.4" x="-15.4" y="-21.2" transform="matrix(1 0 0 -1 282.806 101.918)" overflow="visible"/><use xlink:href="#f" width="35.8" height="54.8" x="-17.9" y="-27.4" transform="matrix(.6409 -.0535 -.0535 -.6409 244.768 116.124)" overflow="visible"/><use xlink:href="#f" width="35.8" height="54.8" x="-17.9" y="-27.4" transform="matrix(.529 -.3658 -.3658 -.529 221.973 127.205)" overflow="visible"/><use xlink:href="#e" width="30.8" height="42.4" x="-15.4" y="-21.2" transform="scale(1 -1) rotate(32.683 337.671 333.683)" overflow="visible"/><use xlink:href="#f" width="35.8" height="54.8" x="-17.9" y="-27.4" transform="matrix(1 0 0 -1 304.228 111.048)" overflow="visible"/><path fill="#809E57" d="M100.9 69.1c-2.9-11.7-5.3-15.9-6.9-16-1.2-.1-2.9 1.9-5.3 7.3-2.8-6-4.8-8.3-6.2-8.2-1.5.1-3.3 2.8-5.6 10-4.5-9.5-7.6-13-9.5-12.8-.9.1-1.9.9-2.9 2.8-3.6-6.5-6.1-9-7.7-8.7-1.8.2-4 3.9-6.2 13.2-.6-.1-1-.1-1.4 0-1.5.4-2.8 2.8-3.6 7.9-8.4-8.7-13.2-11.4-15.4-10.4-.6.3-1.2.9-1.7 1.9-6.5-6.9-10.4-9-12.4-8.3-2.8 1-4.4 9-3 28.9-1.1-.3-1.8-.3-2.4 0-2.1 1.1-2.4 8 1.4 24.9 1.9 8.2 10.2 10.3 16.3 6.6 3.3-1.8 5.6-4.9 6.1-8.3 4.3 2.8 10.2 3.2 15.3.8.3-.1.6-.3 1-.4 3.6 2.1 8.2 2.6 12.6 1.1 6.7-2 11.4-8 10.7-14.7 2.9-.9 5.3-2.8 6.7-5.4 1.1.3 2.3.4 3.4.3 2.9-.1 5.6-1.4 7.3-3.6.4.1.9.1 1.3.1 5 .5 9.5-3.4 8.1-9z"/><use xlink:href="#f" width="35.8" height="54.8" x="-17.9" y="-27.4" transform="rotate(-159.556 52.65 23.261) scale(.4477)" overflow="visible"/><use xlink:href="#f" width="35.8" height="54.8" x="-17.9" y="-27.4" transform="matrix(-.8392 .0529 -.0529 -.8392 26.686 67.14)" overflow="visible"/><use xlink:href="#e" width="30.8" height="42.4" x="-15.4" y="-21.2" transform="rotate(-156.802 48.723 23.98) scale(.6555)" overflow="visible"/><use xlink:href="#f" width="35.8" height="54.8" x="-17.9" y="-27.4" transform="scale(.841 -.841) rotate(25.438 409.363 257.264)" overflow="visible"/><use xlink:href="#f" width="35.8" height="54.8" x="-17.9" y="-27.4" transform="matrix(1 0 0 -1 205.427 144.85)" overflow="visible"/><use xlink:href="#e" width="30.8" height="42.4" x="-15.4" y="-21.2" transform="rotate(-160.237 35.257 24.778) scale(.8081)" overflow="visible"/><use xlink:href="#f" width="35.8" height="54.8" x="-17.9" y="-27.4" transform="rotate(-167.527 38.882 29.26) scale(.6779)" overflow="visible"/><use xlink:href="#e" width="30.8" height="42.4" x="-15.4" y="-21.2" transform="matrix(-1.1196 -.0678 .0678 -1.1196 42.354 75.597)" overflow="visible"/><use xlink:href="#f" width="35.8" height="54.8" x="-17.9" y="-27.4" transform="rotate(180 29.144 38.238) scale(.8349)" overflow="visible"/><use xlink:href="#f" width="35.8" height="54.8" x="-17.9" y="-27.4" transform="rotate(168.284 5.862 45.734) scale(.6432)" overflow="visible"/><use xlink:href="#e" width="30.8" height="42.4" x="-15.4" y="-21.2" transform="matrix(.7014 -.6235 -.6235 -.7014 9.394 103.39)" overflow="visible"/><use xlink:href="#e" width="30.8" height="42.4" x="-15.4" y="-21.2" transform="rotate(-156.802 37.431 42.589) scale(.6555)" overflow="visible"/><use xlink:href="#e" width="30.8" height="42.4" x="-15.4" y="-21.2" transform="scale(.686 -.686) rotate(51.832 183.687 -21.737)" overflow="visible"/><use xlink:href="#f" width="35.8" height="54.8" x="-17.9" y="-27.4" transform="scale(.678 -.678) rotate(31.488 331.386 -17.892)" overflow="visible"/><use xlink:href="#f" width="35.8" height="54.8" x="-17.9" y="-27.4" transform="matrix(1.0762 -.709 -.709 -1.0762 61.732 113.984)" overflow="visible"/><use xlink:href="#f" width="35.8" height="54.8" x="-17.9" y="-27.4" transform="scale(1 -1) rotate(8.737 888.533 221.526)" overflow="visible"/><use xlink:href="#e" width="30.8" height="42.4" x="-15.4" y="-21.2" transform="scale(-.686) rotate(47.003 -21.267 -522.111)" overflow="visible"/><use xlink:href="#f" width="35.8" height="54.8" x="-17.9" y="-27.4" transform="matrix(1.0762 -.709 -.709 -1.0762 11.066 142.269)" overflow="visible"/><use xlink:href="#e" width="30.8" height="42.4" x="-15.4" y="-21.2" transform="matrix(-.6175 -.2987 .2987 -.6175 91.036 117.84)" overflow="visible"/><use xlink:href="#e" width="30.8" height="42.4" x="-15.4" y="-21.2" transform="rotate(-133.499 126.775 37.313) scale(.686)" overflow="visible"/><use xlink:href="#e" width="30.8" height="42.4" x="-15.4" y="-21.2" transform="matrix(-.6841 .0504 -.0504 -.6841 160.156 155.673)" overflow="visible"/><use xlink:href="#e" width="30.8" height="42.4" x="-15.4" y="-21.2" transform="rotate(-163.151 83 64.61) scale(.8829)" overflow="visible"/><use xlink:href="#f" width="35.8" height="54.8" x="-17.9" y="-27.4" transform="matrix(.6337 -.11 -.11 -.6337 272.977 115.978)" overflow="visible"/><use xlink:href="#f" width="35.8" height="54.8" x="-17.9" y="-27.4" transform="scale(-.678) rotate(31.488 117.212 -855.535)" overflow="visible"/><use xlink:href="#e" width="30.8" height="42.4" x="-15.4" y="-21.2" transform="matrix(-.7752 -.6394 .6394 -.7752 112.05 118.784)" overflow="visible"/><use xlink:href="#e" width="30.8" height="42.4" x="-15.4" y="-21.2" transform="matrix(.7605 -.2733 -.2733 -.7605 87.942 135.06)" overflow="visible"/><use xlink:href="#e" width="30.8" height="42.4" x="-15.4" y="-21.2" transform="matrix(-1.0435 -.4113 .4113 -1.0435 77.458 151.11)" overflow="visible"/><use xlink:href="#f" width="35.8" height="54.8" x="-17.9" y="-27.4" transform="matrix(.9828 -.376 -.376 -.9828 254.948 137.538)" overflow="visible"/><use xlink:href="#e" width="30.8" height="42.4" x="-15.4" y="-21.2" transform="matrix(-.7752 -.6394 .6394 -.7752 285.49 142.443)" overflow="visible"/><use xlink:href="#f" width="35.8" height="54.8" x="-17.9" y="-27.4" transform="matrix(-1.348 -.6417 .6417 -1.348 311.15 152.99)" overflow="visible"/><use xlink:href="#f" width="35.8" height="54.8" x="-17.9" y="-27.4" transform="scale(.7889 -.7889) rotate(17.902 780.89 972.976)" overflow="visible"/><use xlink:href="#f" width="35.8" height="54.8" x="-17.9" y="-27.4" transform="matrix(.8334 .1117 .1117 -.8334 52.565 150.222)" overflow="visible"/><use xlink:href="#f" width="35.8" height="54.8" x="-17.9" y="-27.4" transform="scale(.6779 -.6779) rotate(12.472 987.87 603.325)" overflow="visible"/><use xlink:href="#f" width="35.8" height="54.8" x="-17.9" y="-27.4" transform="matrix(.7856 .0305 .0305 -.7856 119.385 153.107)" overflow="visible"/><use xlink:href="#f" width="35.8" height="54.8" x="-17.9" y="-27.4" transform="scale(.7172 -.7172) rotate(20.35 662.729 265.581)" overflow="visible"/><use xlink:href="#e" width="30.8" height="42.4" x="-15.4" y="-21.2" transform="scale(.7267 -.7267) rotate(28.656 569.239 504.317)" overflow="visible"/><use xlink:href="#e" width="30.8" height="42.4" x="-15.4" y="-21.2" transform="scale(.856 -.856) rotate(25.23 532.34 559.2)" overflow="visible"/><use xlink:href="#f" width="35.8" height="54.8" x="-17.9" y="-27.4" transform="scale(.7182 -.7182) rotate(17.938 849.664 948.072)" overflow="visible"/><use xlink:href="#f" width="35.8" height="54.8" x="-17.9" y="-27.4" transform="scale(.7182 -.7182) rotate(17.938 791.036 661.646)" overflow="visible"/></g><ellipse opacity=".1" cx="160" cy="64.2" rx="17.3" ry="2.7"/><path fill="#231F20" d="M173.4 26.6c-.4-1.2-1-1.9-1.4-3.2.8-1.7 1.4-4.1 1.4-6 0-7.3-5.8-13.2-13-13.5h-.5c-7.5 0-13.5 6-13.5 13.5 0 2.2.5 4.3 1.5 6.1-4.3 9-7.1 20.5-7.1 25.4 0 8.6 8.6 15.7 19.2 15.7s19.2-7 19.2-15.7c0-4.3-2.2-13.9-5.8-22.3z"/><radialGradient id="g" cx="160.01" cy="34.31" r="20.512" gradientUnits="userSpaceOnUse"><stop offset="0" stop-color="#FFF"/><stop offset=".515" stop-color="#FDFDFD"/><stop offset=".7" stop-color="#F6F6F6"/><stop offset=".833" stop-color="#EBEBEB"/><stop offset=".939" stop-color="#DADADA"/><stop offset="1" stop-color="#CCC"/></radialGradient><path fill="url(#g)" d="M170.9 28.1c-.3-1-.8-1.5-1.2-2.5.6-1.4 1.2-3.4 1.2-5 0-5.9-4.7-10.7-10.5-10.9h-.5c-6 0-10.9 4.9-10.9 10.9 0 1.8.4 3.5 1.2 5-3.5 7.3-5.8 16.6-5.8 20.5 0 7 6.9 12.7 15.5 12.7s15.5-5.7 15.5-12.7c.1-3.5-1.7-11.2-4.5-18z"/><linearGradient id="h" gradientUnits="userSpaceOnUse" x1="151.446" y1="60.234" x2="151.446" y2="64.644"><stop offset="0" stop-color="#FFE773"/><stop offset=".22" stop-color="#FFE36E"/><stop offset=".482" stop-color="#FFD960"/><stop offset=".765" stop-color="#FFC748"/><stop offset="1" stop-color="#FFB42E"/></linearGradient><path fill="url(#h)" d="M151.4 60.2c-2.4 0-4.4 2-4.4 4.4h8.8c.1-2.4-1.9-4.4-4.4-4.4z"/><linearGradient id="i" gradientUnits="userSpaceOnUse" x1="168.856" y1="60.234" x2="168.856" y2="64.644"><stop offset="0" stop-color="#FFE773"/><stop offset=".22" stop-color="#FFE36E"/><stop offset=".482" stop-color="#FFD960"/><stop offset=".765" stop-color="#FFC748"/><stop offset="1" stop-color="#FFB42E"/></linearGradient><path fill="url(#i)" d="M168.9 60.2c-2.4 0-4.4 2-4.4 4.4h8.8c0-2.4-2-4.4-4.4-4.4z"/><linearGradient id="j" gradientUnits="userSpaceOnUse" x1="160.009" y1="9.165" x2="160.009" y2="29.379"><stop offset="0" stop-color="#FFE773"/><stop offset=".22" stop-color="#FFE36E"/><stop offset=".482" stop-color="#FFD960"/><stop offset=".765" stop-color="#FFC748"/><stop offset="1" stop-color="#FFB42E"/></linearGradient><ellipse fill="url(#j)" cx="160" cy="19.3" rx="11" ry="10.1"/><circle fill="#231F20" cx="160" cy="18.1" r="10.9"/><circle fill="#FFF" cx="153.5" cy="15.2" r="4.4"/><circle fill="#231F20" cx="155" cy="15.2" r="1.7"/><circle fill="#FFF" cx="155.6" cy="14.4" r=".5"/><circle fill="#FFF" cx="156.3" cy="15.2" r=".2"/><circle fill="#FFF" cx="155.5" cy="15.8" r=".2"/><circle fill="#FFF" cx="166.5" cy="15.2" r="4.4"/><circle fill="#231F20" cx="164.8" cy="15.2" r="1.7"/><circle fill="#FFF" cx="165.5" cy="14.4" r=".5"/><circle fill="#FFF" cx="166.1" cy="15.2" r=".2"/><circle fill="#FFF" cx="165.4" cy="15.8" r=".2"/><path fill="#FFD8F4" d="M162.3 20.1l-.9 1.6c-.4.7-.9 1.6-1.4 1.6-.5 0-1-.9-1.4-1.6l-.9-1.6c-.5-.9-.4-1.7.2-2.2l1.6-.3h1.5c1.5-.1 2.1 1.1 1.3 2.5z"/><radialGradient id="k" cx="160.016" cy="19.439" r="2.339" gradientUnits="userSpaceOnUse"><stop offset="0" stop-color="#F7E563"/><stop offset=".095" stop-color="#F4DF5A"/><stop offset=".321" stop-color="#F0D44B"/><stop offset=".588" stop-color="#EECE43"/><stop offset="1" stop-color="#EDCC40"/></radialGradient><path fill="url(#k)" d="M160.9 17.5h-1.8c-1.6 0-2.2.8-1.4 1.7l.9 1.1c.4.5.9 1.1 1.4 1.1.5 0 1-.6 1.4-1.1l.9-1.1c.9-.9.2-1.7-1.4-1.7z"/><path fill="#231F20" d="M159.2 4.3s2.6-3.9 5.2-4.3c-2.8 2.8-2.4 3.4-2.4 3.4s1.4-2.1 2.8-2.5c-2 2.1-1.5 3.4-1.5 3.4s.2-1.2 1.6-2.1c-1.1 1.4-1.1 3.2-1.1 3.2"/><ellipse transform="rotate(32.031 141.865 36.53)" fill="#231F20" cx="141.9" cy="36.5" rx="2.6" ry="11"/><ellipse transform="scale(-1) rotate(-32.031 -127.285 620.529)" fill="#231F20" cx="178.1" cy="36.5" rx="2.6" ry="11"/><g><use xlink:href="#l" width="3.5" height="3.1" x="-1.7" y="-1.5" transform="scale(.8324 -.8324) rotate(25.42 319.573 373.203)" overflow="visible"/><use xlink:href="#l" width="3.5" height="3.1" x="-1.7" y="-1.5" transform="matrix(1.1419 -.1503 -.1503 -1.1419 188.99 114.696)" overflow="visible"/><use xlink:href="#l" width="3.5" height="3.1" x="-1.7" y="-1.5" transform="matrix(.5956 .2129 .2129 -.5956 226.325 82.796)" overflow="visible"/><use xlink:href="#l" width="3.5" height="3.1" x="-1.7" y="-1.5" transform="matrix(.819 .0522 .0522 -.819 233.243 99.371)" overflow="visible"/><use xlink:href="#l" width="3.5" height="3.1" x="-1.7" y="-1.5" transform="matrix(1.1559 -.211 -.211 -1.1559 83.702 94.673)" overflow="visible"/><use xlink:href="#l" width="3.5" height="3.1" x="-1.7" y="-1.5" transform="matrix(.6114 .1761 .1761 -.6114 107.123 56.438)" overflow="visible"/><use xlink:href="#l" width="3.5" height="3.1" x="-1.7" y="-1.5" transform="matrix(.7138 -.1492 -.1492 -.7138 110.87 68.613)" overflow="visible"/><use xlink:href="#l" width="3.5" height="3.1" x="-1.7" y="-1.5" transform="matrix(.4705 .2615 .2615 -.4705 216.984 68.383)" overflow="visible"/><use xlink:href="#l" width="3.5" height="3.1" x="-1.7" y="-1.5" transform="matrix(.9978 .0453 .0453 -.9978 159.94 114.152)" overflow="visible"/><use xlink:href="#l" width="3.5" height="3.1" x="-1.7" y="-1.5" transform="matrix(1.1142 .2013 .2013 -1.1142 217.339 99.168)" overflow="visible"/><use xlink:href="#l" width="3.5" height="3.1" x="-1.7" y="-1.5" transform="matrix(.7621 -.0513 -.0513 -.7621 140.784 77.998)" overflow="visible"/><use xlink:href="#l" width="3.5" height="3.1" x="-1.7" y="-1.5" transform="scale(.905 -.905) rotate(1.178 4790.675 5359.71)" overflow="visible"/><use xlink:href="#l" width="3.5" height="3.1" x="-1.7" y="-1.5" transform="matrix(.8024 -.2241 -.2241 -.8024 183.044 88.853)" overflow="visible"/><use xlink:href="#l" width="3.5" height="3.1" x="-1.7" y="-1.5" transform="matrix(.7804 -.0172 -.0172 -.7804 199.009 103.953)" overflow="visible"/><use xlink:href="#l" width="3.5" height="3.1" x="-1.7" y="-1.5" transform="matrix(1.0151 -.1122 -.1122 -1.0151 142.956 98.983)" overflow="visible"/><use xlink:href="#l" width="3.5" height="3.1" x="-1.7" y="-1.5" transform="scale(.8324 -.8324) rotate(25.42 359.617 368.721)" overflow="visible"/><use xlink:href="#l" width="3.5" height="3.1" x="-1.7" y="-1.5" transform="scale(.8331 -.8331) rotate(15.604 526.01 710.356)" overflow="visible"/><use xlink:href="#l" width="3.5" height="3.1" x="-1.7" y="-1.5" transform="matrix(.8024 -.2241 -.2241 -.8024 175.11 103.233)" overflow="visible"/><use xlink:href="#l" width="3.5" height="3.1" x="-1.7" y="-1.5" transform="matrix(1.0151 -.1122 -.1122 -1.0151 132.876 93.292)" overflow="visible"/><use xlink:href="#l" width="3.5" height="3.1" x="-1.7" y="-1.5" transform="matrix(.8216 .0453 .0453 -.8216 116.756 80.724)" overflow="visible"/><use xlink:href="#l" width="3.5" height="3.1" x="-1.7" y="-1.5" transform="matrix(.8216 .0453 .0453 -.8216 114.088 90.4)" overflow="visible"/><use xlink:href="#l" width="3.5" height="3.1" x="-1.7" y="-1.5" transform="matrix(.9779 -.1018 -.1018 -.9779 144.388 87.706)" overflow="visible"/><use xlink:href="#l" width="3.5" height="3.1" x="-1.7" y="-1.5" transform="scale(.8331 -.8331) rotate(15.604 454.014 784.85)" overflow="visible"/><use xlink:href="#l" width="3.5" height="3.1" x="-1.7" y="-1.5" transform="matrix(.6921 .0027 .0027 -.6921 203.456 86.576)" overflow="visible"/><use xlink:href="#l" width="3.5" height="3.1" x="-1.7" y="-1.5" transform="matrix(.6454 .0879 .0879 -.6454 214.855 76.662)" overflow="visible"/><use xlink:href="#l" width="3.5" height="3.1" x="-1.7" y="-1.5" transform="matrix(.6341 .1197 .1197 -.6341 221.73 76.93)" overflow="visible"/><use xlink:href="#l" width="3.5" height="3.1" x="-1.7" y="-1.5" transform="matrix(1.0107 .1398 .1398 -1.0107 227.855 97.087)" overflow="visible"/><use xlink:href="#l" width="3.5" height="3.1" x="-1.7" y="-1.5" transform="matrix(1.0363 .1346 .1346 -1.0363 214.31 108.064)" overflow="visible"/><use xlink:href="#l" width="3.5" height="3.1" x="-1.7" y="-1.5" transform="scale(.8331 -.8331) rotate(15.604 582.518 727.788)" overflow="visible"/><use xlink:href="#l" width="3.5" height="3.1" x="-1.7" y="-1.5" transform="scale(1.0213 -1.0213) rotate(6.307 1044.91 1210.937)" overflow="visible"/><use xlink:href="#l" width="3.5" height="3.1" x="-1.7" y="-1.5" transform="matrix(.8706 .0096 .0096 -.8706 96.207 83.132)" overflow="visible"/><use xlink:href="#l" width="3.5" height="3.1" x="-1.7" y="-1.5" transform="matrix(.8841 -.0012 -.0012 -.8841 92 90.823)" overflow="visible"/></g></svg>