<svg id="Layer_1" data-name="Layer 1" xmlns="http://www.w3.org/2000/svg" width="42.01" height="47.13" viewBox="0 0 42.01 47.13"><defs><style>.cls-1{opacity:.15}.cls-2{fill:#fff}</style></defs><title>clients</title><g id="Фігура_142" data-name="Фігура 142"><path d="M27.51 27.77c-7.69 0-14 3.52-14.5 8.37v9.51a1.48 1.48 0 0 0 1.48 1.48h26A1.48 1.48 0 0 0 42 45.66v-9.52c-.44-4.89-6.76-8.37-14.49-8.37zm0-3.64a7.5 7.5 0 1 0-7.5-7.5 7.5 7.5 0 0 0 7.5 7.5zm-14.44-8a7 7 0 0 0 2.67-.52A11.65 11.65 0 0 1 20 7.79a7.07 7.07 0 1 0-6.94 8.35zm3 3.32a19.59 19.59 0 0 0-2.57-.16C6.42 19.3.63 22.76.06 27.17L0 35.77a1.37 1.37 0 0 0 1.37 1.36H9v-1.39c.5-4.9 4.53-8.85 10.39-10.74a11.42 11.42 0 0 1-3.34-5.54z" class="cls-1"/><path class="cls-2" d="M27.51 25.77c-7.69 0-14 3.52-14.5 8.37v9.51a1.48 1.48 0 0 0 1.48 1.48h26A1.48 1.48 0 0 0 42 43.66v-9.52c-.44-4.89-6.76-8.37-14.49-8.37zm0-3.64a7.5 7.5 0 1 0-7.5-7.5 7.5 7.5 0 0 0 7.5 7.5zm-14.44-8a7 7 0 0 0 2.67-.52A11.65 11.65 0 0 1 20 5.79a7.07 7.07 0 1 0-6.94 8.35zm3 3.32a19.59 19.59 0 0 0-2.57-.16C6.42 17.3.63 20.76.06 25.17L0 33.77a1.37 1.37 0 0 0 1.37 1.36H9v-1.39c.5-4.9 4.53-8.85 10.39-10.74a11.42 11.42 0 0 1-3.34-5.54z"/></g></svg>