<svg onclick="alert('Hey from the Epic Team!');" xmlns="http://www.w3.org/2000/svg" xmlns:xlink="http://www.w3.org/1999/xlink" width="106" height="106" viewBox="0 0 212 212"><symbol id="c" viewBox="-17.7 -17.7 35.3 35.3"><linearGradient id="a" gradientUnits="userSpaceOnUse" y1="-17.662" x2="0" y2="17.662"><stop offset="0" stop-color="#3C3839"/><stop offset="1"/></linearGradient><path fill="url(#a)" d="M0-17.7c-.6 0-1.2.2-1.6.7L-17-1.6c-.4.4-.7 1-.7 1.6s.2 1.2.7 1.6L-1.6 17c.4.4 1 .7 1.6.7.6 0 1.2-.2 1.6-.7L17 1.6c.9-.9.9-2.3 0-3.2L1.6-17c-.4-.4-1-.7-1.6-.7z"/><linearGradient id="b" gradientUnits="userSpaceOnUse" x1="-3391.1" y1="-8207.514" x2="-3391.1" y2="-8183.128" gradientTransform="rotate(-45 8197.135 -8190.945)"><stop offset="0" stop-color="#FAB14A"/><stop offset="1" stop-color="#FBE110"/></linearGradient><path fill="url(#b)" d="M-.9-16.3L-16.3-.9c-.5.5-.5 1.3 0 1.9L-.9 16.4c.5.5 1.3.5 1.9 0L16.3.9c.5-.5.5-1.3 0-1.9L.9-16.3c-.5-.5-1.3-.5-1.8 0z"/><path opacity=".5" d="M16.3-.9L.9-16.3c-.5-.5-1.3-.5-1.9 0L-16.3-.9c-.2.2-.3.5-.4.8 0-.4.1-.8.4-1.1L-.9-16.6c.5-.5 1.3-.5 1.9 0L16.3-1.2c.3.3.4.7.4 1.1 0-.3-.2-.6-.4-.8z"/><path opacity=".5" fill="#FFF" d="M-16.3.5L-.9 15.9c.5.5 1.3.5 1.9 0L16.3.5c.2-.2.3-.5.4-.7.1.4-.1.8-.4 1.1L.9 16.3c-.5.5-1.3.5-1.9 0L-16.3.9c-.3-.3-.4-.7-.4-1.1.1.3.2.5.4.7z"/><path fill="#FFF" d="M6.2-4.8L1.7-.2l1 1c.9-.4 2-.2 2.7.6.6.5.8 1.3.7 2.1 0 .3-.4.4-.6.2L4.4 2.6c-.2-.2-.6-.2-.8 0l-.5.5c-.2.2-.2.6 0 .8L4.2 5c.2.2.1.6-.2.6-.8.1-1.7-.1-2.3-.8-.6-.7-.8-1.7-.5-2.6l-1-1L-1.6 3 .1 4.7l-.4.4-3-.2-.1-.1-.3.4c-.2.2-.6.2-.8 0l-.6-.6c-.2-.2-.2-.6 0-.8l.3-.3L-6.3 2c-.2-.2-.2-.4 0-.6L-5 .1c.1-.1.4-.1.6 0L-3 1.6l1.8-1.8L-6-5c-.3-.3-.3-.7 0-.9l.5-.5c.3-.3.7-.3.9 0L.2-1.6l4.5-4.5c.2-.2.6-.2.8 0l.6.6c.4.1.4.5.1.7z" opacity=".7"/><path fill="#1C1C1C" d="M6.2-4.3L1.7.3l1 1c.9-.4 2-.2 2.7.6.6.5.8 1.3.7 2.1 0 .3-.4.4-.6.2L4.4 3.1c-.2-.2-.6-.2-.8 0l-.5.5c-.2.2-.2.6 0 .8l1.1 1.1c.2.2.1.6-.2.6-.8.1-1.7-.1-2.3-.8-.6-.7-.8-1.7-.5-2.6l-1-1-1.8 1.8L.1 5.2l-.4.4-3-.2-.1-.1-.3.4c-.2.2-.6.2-.8 0l-.6-.6c-.2-.2-.2-.6 0-.8l.3-.3-1.4-1.4c-.2-.2-.2-.4 0-.6L-5 .6c.2-.2.4-.2.6 0L-3 2.1-1.2.3-6-4.5c-.3-.3-.3-.7 0-.9l.5-.5c.3-.3.7-.3.9 0L.2-1.1l4.5-4.5c.2-.2.6-.2.8 0l.6.6c.4.1.4.5.1.7z"/><path opacity=".25" fill="#FFF" d="M17-1.6L9.3-9.3-9.3 9.3l7.7 7.7c.4.4 1 .7 1.6.7.6 0 1.2-.2 1.6-.7L17 1.6c.9-.9.9-2.3 0-3.2z"/></symbol><use xlink:href="#c" width="35.3" height="35.3" x="-17.7" y="-17.7" transform="matrix(1 0 0 -1 21.663 18.45)" overflow="visible"/><use xlink:href="#c" width="35.3" height="35.3" x="-17.7" y="-17.7" transform="matrix(1 0 0 -1 21.663 194.338)" overflow="visible"/><use xlink:href="#c" width="35.3" height="35.3" x="-17.7" y="-17.7" transform="matrix(1 0 0 -1 190.217 18.45)" overflow="visible"/><use xlink:href="#c" width="35.3" height="35.3" x="-17.7" y="-17.7" transform="matrix(1 0 0 -1 190.217 194.338)" overflow="visible"/><path fill="#231F20" d="M148.4 97.4c-1.1-3.6-3-5.8-4.3-9.5 2.3-5.1 4.3-12.2 4.3-18.1 0-18.3-12.2-33.7-28.9-38.8.4-1.9 1.2-4.8 3.1-7.3-4.2 2.7-4.8 6.5-4.8 6.5s-1.4-3.9 4.5-10.3c-4.2 1.1-8.4 7.5-8.4 7.5s-1.3-1.8 7.1-10.1c-6.5 1-12.9 9.2-14.9 12-21.5.9-38.8 18.7-38.8 40.5 0 6.6 1.6 12.9 4.5 18.4-13.1 27.1-21.4 61.6-21.4 76.4 0 26 25.8 47.1 57.7 47.1s57.7-21.1 57.7-47.1c-.1-13.2-6.7-42-17.4-67.2z"/><radialGradient id="d" cx="494.732" cy="625.884" r="110.522" gradientTransform="matrix(.558 0 0 .558 -168.04 -228.82)" gradientUnits="userSpaceOnUse"><stop offset="0" stop-color="#FFF"/><stop offset=".515" stop-color="#FDFDFD"/><stop offset=".7" stop-color="#F6F6F6"/><stop offset=".833" stop-color="#EBEBEB"/><stop offset=".939" stop-color="#DADADA"/><stop offset="1" stop-color="#CCC"/></radialGradient><path fill="url(#d)" d="M140.7 101.8c-.9-2.9-2.5-4.4-3.5-7.4 1.8-4.1 3.5-10.2 3.5-14.9 0-17.7-14-32-31.5-32.7l-.5-.1h-.7c-18.1 0-32.8 14.7-32.8 32.8 0 5.4 1.3 10.4 3.6 14.9-10.6 21.9-17.3 49.8-17.3 61.7 0 21 20.9 38 46.6 38 25.7 0 46.6-17 46.6-38-.1-10.6-5.4-33.9-14-54.3z"/><linearGradient id="e" gradientUnits="userSpaceOnUse" x1="448.595" y1="766.248" x2="448.595" y2="789.997" gradientTransform="matrix(.558 0 0 .558 -168.04 -228.82)"><stop offset="0" stop-color="#FFE773"/><stop offset=".22" stop-color="#FFE36E"/><stop offset=".482" stop-color="#FFD960"/><stop offset=".765" stop-color="#FFC748"/><stop offset="1" stop-color="#FFB42E"/></linearGradient><path fill="url(#e)" d="M82.3 198.7C75 198.7 69 204 69 212h26.5c0-8-5.9-13.3-13.2-13.3z"/><linearGradient id="f" gradientUnits="userSpaceOnUse" x1="542.399" y1="766.248" x2="542.399" y2="789.997" gradientTransform="matrix(.558 0 0 .558 -168.04 -228.82)"><stop offset="0" stop-color="#FFE773"/><stop offset=".22" stop-color="#FFE36E"/><stop offset=".482" stop-color="#FFD960"/><stop offset=".765" stop-color="#FFC748"/><stop offset="1" stop-color="#FFB42E"/></linearGradient><path fill="url(#f)" d="M134.6 198.7c-7.3 0-13.3 5.3-13.3 13.3h26.5c.1-8-5.9-13.3-13.2-13.3z"/><linearGradient id="g" gradientUnits="userSpaceOnUse" x1="494.734" y1="490.389" x2="494.734" y2="599.307" gradientTransform="matrix(.558 0 0 .558 -168.04 -228.82)"><stop offset="0" stop-color="#FFE773"/><stop offset=".22" stop-color="#FFE36E"/><stop offset=".482" stop-color="#FFD960"/><stop offset=".765" stop-color="#FFC748"/><stop offset="1" stop-color="#FFB42E"/></linearGradient><ellipse fill="url(#g)" cx="108" cy="75.2" rx="33.2" ry="30.4"/><path fill="#231F20" d="M140.7 71.7c0 18-14.6 32.7-32.7 32.7-18 0-32.7-14.6-32.7-32.7C75.4 53.6 90 39 108 39c18.1 0 32.7 14.6 32.7 32.7z"/><circle fill="#FFF" cx="88.6" cy="62.8" r="13.2"/><path fill="#231F20" d="M92.9 57.6c-2.9 0-5.2 2.3-5.2 5.2 0 2.9 2.4 5.2 5.2 5.2 2.9 0 5.2-2.3 5.2-5.2 0-2.9-2.3-5.2-5.2-5.2z"/><circle fill="#FFF" cx="94.9" cy="60.7" r="1.5"/><circle fill="#FFF" cx="96.8" cy="62.9" r=".7"/><circle fill="#FFF" cx="94.5" cy="64.7" r=".7"/><path fill="#FFF" d="M127.5 49.6c7.3 0 13.2 5.9 13.2 13.2 0 7.3-5.9 13.2-13.2 13.2-7.3 0-13.2-5.9-13.2-13.2 0-7.3 5.9-13.2 13.2-13.2z"/><path fill="#231F20" d="M122.5 57.6c2.9 0 5.2 2.3 5.2 5.2 0 2.9-2.4 5.2-5.2 5.2-2.9 0-5.2-2.3-5.2-5.2 0-2.9 2.3-5.2 5.2-5.2z"/><path fill="#FFF" d="M126 60.7c0 .8-.7 1.5-1.5 1.5s-1.5-.7-1.5-1.5.7-1.5 1.5-1.5 1.5.7 1.5 1.5zm.5 1.5c.4 0 .7.3.7.7 0 .4-.3.7-.7.7-.4 0-.7-.3-.7-.7-.1-.3.3-.7.7-.7z"/><circle fill="#FFF" cx="124.2" cy="64.7" r=".7"/><path fill="#FFD8F4" d="M115 77.5l-2.7 4.7c-1.2 2.1-2.8 4.9-4.3 4.9-1.6 0-3.1-2.8-4.3-4.9l-2.7-4.7c-1.6-2.8-1.2-5.2.6-6.5l4.7-1h4.4c4.8 0 6.7 3.4 4.3 7.5z"/><radialGradient id="h" cx="494.674" cy="545.835" r="12.582" gradientTransform="matrix(.558 0 0 .558 -168.04 -228.82)" gradientUnits="userSpaceOnUse"><stop offset="0" stop-color="#F7E563"/><stop offset=".095" stop-color="#F4DF5A"/><stop offset=".321" stop-color="#F0D44B"/><stop offset=".588" stop-color="#EECE43"/><stop offset="1" stop-color="#EDCC40"/></radialGradient><path fill="url(#h)" d="M110.7 70h-5.4c-4.8 0-6.7 2.2-4.3 5l2.7 3.2c1.2 1.4 2.8 3.3 4.3 3.3 1.6 0 3.1-1.9 4.3-3.3l2.7-3.1c2.5-2.9.5-5.1-4.3-5.1z"/><ellipse transform="rotate(-147.995 53.82 126.996)" fill="#231F20" cx="53.8" cy="127" rx="7.7" ry="33.2"/><ellipse transform="rotate(57.995 162.16 126.994)" fill="#231F20" cx="162.2" cy="127" rx="33.2" ry="7.7"/><path fill="#C79434" d="M145 54H70.8c-.2 0-.1.2-.1 0v-3.1c0-.2-.1.1.1.1H145c.2 0 .7-.3.7-.1V54c0 .2-.5 0-.7 0z"/><linearGradient id="i" gradientUnits="userSpaceOnUse" x1="107.901" y1="53" x2="107.901" y2="2.537"><stop offset="0" stop-color="#FAB14A"/><stop offset="1" stop-color="#FBE110"/></linearGradient><path fill="url(#i)" d="M146.6 41.8c0-13.6-8-23-19.3-28.9-3.5-1.9-11.3-4.1-11.4-4.2-1-3.5-4.2-6.1-8-6.1s-7 2.6-8 6.1c-.1 0-8 2-11.4 3.8C77.2 18 69 27 69 40.6c0 1.2-3.1 11.4-3 12.4h83.8c.1-1-3.2-9.9-3.2-11.2z"/><path fill="#FFF" d="M99.5 9.8v29.3c0 3-2.5 5.5-5.5 5.5-3.1 0-5.6-2.5-5.6-5.5V13.5c3.5-1.8 7.2-3.1 11.1-3.7zm27.8 4.1v25.3c0 3-2.5 5.5-5.6 5.5-3 0-5.6-2.5-5.6-5.5V9.8c4 .8 7.7 2.2 11.2 4.1z" opacity=".7"/><path fill="#C79434" d="M99.5 8.8v29.3c0 3-2.5 5.5-5.5 5.5-3.1 0-5.6-2.5-5.6-5.5V12.5c3.5-1.8 7.2-3.1 11.1-3.7zm27.8 4.1v25.3c0 3-2.5 5.5-5.6 5.5-3 0-5.6-2.5-5.6-5.5V8.8c4 .8 7.7 2.2 11.2 4.1z"/><path d="M76.9 77.4h.8v.8h-.8zm3 6h.8v.8h-.8zm1 10h.8v.8h-.8zm-5-17h.8v.8h-.8zm-1 0h.8v.8h-.8zm-2 0h.8v.8h-.8zm1-6h.8v.8h-.8zm5 11h.8v.8h-.8zm6 11h.8v.8h-.8zm11-2h.8v.8h-.8zm-3 0h.8v.8h-.8zm0-6h.8v.8h-.8zm-4 0h.8v.8h-.8zm-2-3h.8v.8h-.8zm0 3h.8v.8h-.8zm0-2h.8v.8h-.8zm10 4h.8v.8h-.8zm1-1h.8v.8h-.8zm-1 7h.8v.8h-.8zm-4 3h.8v.8h-.8zm4 5h.8v.8h-.8zm24 1h.8v.8h-.8zm-11-1h.8v.8h-.8zm-6 3h.8v.8h-.8zm11-5h.8v.8h-.8zm-11-6h.8v.8h-.8zm0-5h.8v.8h-.8zm-2-1h.8v.8h-.8zm-2 6h.8v.8h-.8zm1-5h.8v.8h-.8zm4 0h.8v.8h-.8zm4 4h.8v.8h-.8zm6-3h.8v.8h-.8zm4-5h.8v.8h-.8zm-5 5h.8v.8h-.8zm-2-5h.8v.8h-.8zm-2 6h.8v.8h-.8zm5-2h.8v.8h-.8zm6 4h.8v.8h-.8zm-8 4h.8v.8h-.8zm19-5h.8v.8h-.8zm2-2h.8v.8h-.8zm2-3h.8v.8h-.8zm0-8h.8v.8h-.8zm0 2h.8v.8h-.8zm-9 7h.8v.8h-.8zm-4-3h.8v.8h-.8zm9-3h.8v.8h-.8zm2-4h.8v.8h-.8zm1-1h.8v.8h-.8zm2-2h.8v.8h-.8zm0-1h.8v.8h-.8zm2-3h.8v.8h-.8zm2 1h.8v.8h-.8zm-2 6h.8v.8h-.8zm-11 16h.8v.8h-.8zm-27 3h.8v.8h-.8zm-7 0h.8v.8h-.8zm-7-6h.8v.8h-.8zm-2-6h.8v.8h-.8zm-7-6h.8v.8h-.8zm5 5h.8v.8h-.8zm-2-4h.8v.8h-.8zm3 5h.8v.8h-.8zm-8-11h.8v.8h-.8zm2 3h.8v.8h-.8zm4 8h.8v.8h-.8zm9 8h.8v.8h-.8zm5 2h.8v.8h-.8zm-5-7h.8v.8h-.8zm9 0h.8v.8h-.8zm0 3h.8v.8h-.8zm-4 8h.8v.8h-.8zm12 4h.8v.8h-.8zm16 2h.8v.8h-.8zm-4-2h.8v.8h-.8zm-14-6h.8v.8h-.8zm1-5h.8v.8h-.8zm11 1h.8v.8h-.8zm4-2h.8v.8h-.8zm1-4h.8v.8h-.8zm-5 5h.8v.8h-.8zm1 6h.8v.8h-.8zm5-3h.8v.8h-.8zm2 1h.8v.8h-.8zm2-4h.8v.8h-.8zm2 3h.8v.8h-.8zm3-6h.8v.8h-.8zm-5 8h.8v.8h-.8zm12-7h.8v.8h-.8zm-3-1h.8v.8h-.8zm3-3h.8v.8h-.8zm-1 3h.8v.8h-.8zm1-8h.8v.8h-.8zm0 3h.8v.8h-.8zm-1-1h.8v.8h-.8zm-9 7h.8v.8h-.8zm-4-2h.8v.8h-.8zm11 0h.8v.8h-.8zm-51-8h.8v.8h-.8zm5 2h.8v.8h-.8zm6-1h.8v.8h-.8zm0-3h.8v.8h-.8zm1-1h.8v.8h-.8zm-6 3h.8v.8h-.8zm-1 0h.8v.8h-.8zm9 3h.8v.8h-.8zm-2-2h.8v.8h-.8zm0 3h.8v.8h-.8zm-2-3h.8v.8h-.8zm-1 0h.8v.8h-.8zm23-3h.8v.8h-.8zm-2 2h.8v.8h-.8zm3-1h.8v.8h-.8zm1 0h.8v.8h-.8zm-1 1h.8v.8h-.8zm5 0h.8v.8h-.8zm0 1h.8v.8h-.8zm1-1h.8v.8h-.8zm3 0h.8v.8h-.8zm0 1h.8v.8h-.8zm-9 3h.8v.8h-.8zm2 1h.8v.8h-.8zm-46-3h.8v.8h-.8zm4 6h.8v.8h-.8zm-4-4h.8v.8h-.8zm-1-3h.8v.8h-.8zm1-2h.8v.8h-.8zm8 18h.8v.8h-.8zm4 2h.8v.8h-.8zm6 2h.8v.8h-.8zm-9-9h.8v.8h-.8zm8 1h.8v.8h-.8zm0-4h.8v.8h-.8zm-5 0h.8v.8h-.8zm-1-2h.8v.8h-.8zm0 1h.8v.8h-.8zm9 0h.8v.8h-.8zm2 2h.8v.8h-.8zm-1 7h.8v.8h-.8zm7 4h.8v.8h-.8zm-12-1h.8v.8h-.8zm5 5h.8v.8h-.8zm7-1h.8v.8h-.8zm17 1h.8v.8h-.8zm-9 0h.8v.8h-.8zm-2 0h.8v.8h-.8zm7-1h.8v.8h-.8zm-13 4h.8v.8h-.8zm11-5h.8v.8h-.8zm-17 1h.8v.8h-.8zm6-7h.8v.8h-.8zm-2 1h.8v.8h-.8zm0-7h.8v.8h-.8zm-2 6h.8v.8h-.8zm9-1h.8v.8h-.8zm6-3h.8v.8h-.8zm3-2h.8v.8h-.8zm1-3h.8v.8h-.8zm-6 5h.8v.8h-.8zm-1-5h.8v.8h-.8zm3 4h.8v.8h-.8zm5 4h.8v.8h-.8zm-7 4h.8v.8h-.8zm-3 1h.8v.8h-.8zm8-5h.8v.8h-.8zm0 4h.8v.8h-.8zm6-7h.8v.8h-.8zm2 2h.8v.8h-.8zm3-5h.8v.8h-.8zm-5 8h.8v.8h-.8zm0 2h.8v.8h-.8zm13-8h.8v.8h-.8zm-5 3h.8v.8h-.8zm0-4h.8v.8h-.8zm2-1h.8v.8h-.8zm0 3h.8v.8h-.8zm2-6h.8v.8h-.8zm0-5h.8v.8h-.8zm1 4h.8v.8h-.8zm2-4h.8v.8h-.8zm-4 2h.8v.8h-.8zm-8 7h.8v.8h-.8zm0-5h.8v.8h-.8zm-4 2h.8v.8h-.8zm10-4h.8v.8h-.8zm-1 1h.8v.8h-.8zm2-4h.8v.8h-.8zm1-1h.8v.8h-.8zm2-2h.8v.8h-.8zm2-4h.8v.8h-.8zm2 1h.8v.8h-.8zm0 4h.8v.8h-.8zm-47 21h.8v.8h-.8zm-10-12h.8v.8h-.8zm-4-3h.8v.8h-.8zm-2-2h.8v.8h-.8zm3 0h.8v.8h-.8zm2 6h.8v.8h-.8zm-7-9h.8v.8h-.8zm4 6h.8v.8h-.8zm3 11h.8v.8h-.8zm-8-7h.8v.8h-.8zm5 7h.8v.8h-.8zm-2-3h.8v.8h-.8zm-2-4h.8v.8h-.8zm2 3h.8v.8h-.8zm2-2h.8v.8h-.8zm-2-3h.8v.8h-.8zm-3-9h.8v.8h-.8zm1 8h.8v.8h-.8zm-3-8h.8v.8h-.8zm0-5h.8v.8h-.8zm1 3h.8v.8h-.8zm1 0h.8v.8h-.8zm3 8h.8v.8h-.8zm4 7h.8v.8h-.8zm6 6h.8v.8h-.8zm-6-2h.8v.8h-.8zm6-4h.8v.8h-.8zm8 1h.8v.8h-.8zm-3-1h.8v.8h-.8zm-1-1h.8v.8h-.8zm1-4h.8v.8h-.8zm-6-2h.8v.8h-.8zm0 1h.8v.8h-.8zm9 0h.8v.8h-.8zm1 3h.8v.8h-.8zm1 9h.8v.8h-.8zm5 2h.8v.8h-.8zm-4 4h.8v.8h-.8zm-2-1h.8v.8h-.8zm7-1h.8v.8h-.8zm16 2h.8v.8h-.8zm-8 0h.8v.8h-.8zm-2 0h.8v.8h-.8zm6-2h.8v.8h-.8zm-18 1h.8v.8h-.8zm6-8h.8v.8h-.8zm-2 1h.8v.8h-.8zm1-5h.8v.8h-.8zm-2-1h.8v.8h-.8zm4 0h.8v.8h-.8zm9 2h.8v.8h-.8zm4-2h.8v.8h-.8zm1-4h.8v.8h-.8zm-6 6h.8v.8h-.8zm-1-5h.8v.8h-.8zm-3 5h.8v.8h-.8zm5-1h.8v.8h-.8zm-2 7h.8v.8h-.8zm-3 1h.8v.8h-.8zm-3 0h.8v.8h-.8zm12-4h.8v.8h-.8zm-1 4h.8v.8h-.8zm7-8h.8v.8h-.8zm-1 5h.8v.8h-.8zm5-7h.8v.8h-.8zm-2 5h.8v.8h-.8zm1-4h.8v.8h-.8zm2-2h.8v.8h-.8zm-5 8h.8v.8h-.8zm8-3h.8v.8h-.8zm1-2h.8v.8h-.8zm3-6h.8v.8h-.8zm-9 0h.8v.8h-.8zm-5 2h.8v.8h-.8zm9-4h.8v.8h-.8zm3-3h.8v.8h-.8zm1-1h.8v.8h-.8zm2-2h.8v.8h-.8zm0-2h.8v.8h-.8zm2-2h.8v.8h-.8zm1 0h.8v.8h-.8zm-2 6h.8v.8h-.8zm-5 9h.8v.8h-.8zm-21 8h.8v.8h-.8zm-12 3h.8v.8h-.8zm-6-1h.8v.8h-.8zm-7-6h.8v.8h-.8zm-3-6h.8v.8h-.8zm-6-4h.8v.8h-.8zm3-1h.8v.8h-.8zm-2 1h.8v.8h-.8zm8 13h.8v.8h-.8zm1 1h.8v.8h-.8zm-4-5h.8v.8h-.8zm2 7h.8v.8h-.8zm0 1h.8v.8h-.8zm-8-7h.8v.8h-.8zm0-1h.8v.8h-.8zm5 8h.8v.8h-.8zm-2-3h.8v.8h-.8zm-7-11h.8v.8h-.8zm5 7h.8v.8h-.8zm0-5h.8v.8h-.8zm3 7h.8v.8h-.8zm-3-5h.8v.8h-.8zm-2-8h.8v.8h-.8zm-2 1h.8v.8h-.8zm1-1h.8v.8h-.8zm0-5h.8v.8h-.8zm1 3h.8v.8h-.8zm1-1h.8v.8h-.8zm3 9h.8v.8h-.8zm10 13h.8v.8h-.8zm5 2h.8v.8h-.8zm-3-2h.8v.8h-.8zm6-4h.8v.8h-.8zm-6 2h.8v.8h-.8zm-5-5h.8v.8h-.8zm8-3h.8v.8h-.8zm-7-3h.8v.8h-.8zm0 3h.8v.8h-.8zm0-1h.8v.8h-.8zm10 0h.8v.8h-.8zm0 3h.8v.8h-.8zm1 0h.8v.8h-.8zm6 10h.8v.8h-.8zm-4 5h.8v.8h-.8zm-2-1h.8v.8h-.8zm7-1h.8v.8h-.8zm16 1h.8v.8h-.8zm-8 0h.8v.8h-.8zm-2 0h.8v.8h-.8zm6-2h.8v.8h-.8zm-12 5h.8v.8h-.8zm11-5h.8v.8h-.8zm-17 1h.8v.8h-.8zm4-6h.8v.8h-.8zm1-6h.8v.8h-.8zm0 7h.8v.8h-.8zm-3-8h.8v.8h-.8zm5 1h.8v.8h-.8zm9 1h.8v.8h-.8zm4-2h.8v.8h-.8zm1-3h.8v.8h-.8zm-6 5h.8v.8h-.8zm-1-5h.8v.8h-.8zm3 4h.8v.8h-.8zm0 6h.8v.8h-.8zm5-2h.8v.8h-.8zm-9 5h.8v.8h-.8zm5-5h.8v.8h-.8zm-4 0h.8v.8h-.8zm-6 4h.8v.8h-.8zm12-4h.8v.8h-.8zm6-3h.8v.8h-.8zm2 2h.8v.8h-.8zm1-3h.8v.8h-.8zm3-3h.8v.8h-.8zm-6 9h.8v.8h-.8zm-2 2h.8v.8h-.8zm15-9h.8v.8h-.8zm-5 3h.8v.8h-.8zm0-3h.8v.8h-.8zm2 2h.8v.8h-.8zm2-7h.8v.8h-.8zm0 3h.8v.8h-.8zm1-8h.8v.8h-.8zm-10 10h.8v.8h-.8zm1-5h.8v.8h-.8zm-5 2h.8v.8h-.8zm9-4h.8v.8h-.8zm3-4h.8v.8h-.8zm1 0h.8v.8h-.8zm1-4h.8v.8h-.8zm-4 13h.8v.8h-.8zm-5 8h.8v.8h-.8zm-16 1h.8v.8h-.8zm-12 2h.8v.8h-.8zm-12-3h.8v.8h-.8zm-1-3h.8v.8h-.8zm-10-11h.8v.8h-.8zm6 3h.8v.8h-.8zm-3-3h.8v.8h-.8zm3 5h.8v.8h-.8zm4-6h.8v.8h-.8zm7-3h.8v.8h-.8zm0-2h.8v.8h-.8zm-5 3h.8v.8h-.8zm-1 0h.8v.8h-.8zm8 2h.8v.8h-.8zm0 2h.8v.8h-.8zm-2-1h.8v.8h-.8zm-2-1h.8v.8h-.8zm-1-1h.8v.8h-.8zm1-3h.8v.8h-.8zm0 2h.8v.8h-.8zm22-2h.8v.8h-.8zm-1 3h.8v.8h-.8zm0 1h.8v.8h-.8zm2-2h.8v.8h-.8zm1-1h.8v.8h-.8zm0 2h.8v.8h-.8zm4 0h.8v.8h-.8zm2 0h.8v.8h-.8zm3-1h.8v.8h-.8zm0 1h.8v.8h-.8zm-3 1h.8v.8h-.8zm-7 2h.8v.8h-.8zm0 2h.8v.8h-.8zm3-1h.8v.8h-.8zm-46-2h.8v.8h-.8zm3 6h.8v.8h-.8zm5 5h.8v.8h-.8zm1 1h.8v.8h-.8zm-4-4h.8v.8h-.8zm-6-6h.8v.8h-.8zm3 5h.8v.8h-.8zm4 7h.8v.8h-.8zm0 2h.8v.8h-.8zm-8-17h.8v.8h-.8zm0-2h.8v.8h-.8zm1-1h.8v.8h-.8zm3 8h.8v.8h-.8zm0 1h.8v.8h-.8zm4 6h.8v.8h-.8zm2 3h.8v.8h-.8zm9 4h.8v.8h-.8zm-3-1h.8v.8h-.8zm-3-6h.8v.8h-.8zm-6-2h.8v.8h-.8zm9 5h.8v.8h-.8zm2-1h.8v.8h-.8zm1-2h.8v.8h-.8zm3-6h.8v.8h-.8zm0 4h.8v.8h-.8zm1-1h.8v.8h-.8zm1 9h.8v.8h-.8zm5 2h.8v.8h-.8zm-4 4h.8v.8h-.8zm-3-1h.8v.8h-.8zm8-1h.8v.8h-.8zm8 2h.8v.8h-.8zm-2 0h.8v.8h-.8zm6-2h.8v.8h-.8zm-13 4h.8v.8h-.8zm-5-3h.8v.8h-.8zm6-8h.8v.8h-.8zm-2 1h.8v.8h-.8zm1-5h.8v.8h-.8zm-1 6h.8v.8h-.8zm-2-2h.8v.8h-.8zm-1-5h.8v.8h-.8zm15 2h.8v.8h-.8zm5-6h.8v.8h-.8zm-6 6h.8v.8h-.8zm-2-5h.8v.8h-.8zm-2 5h.8v.8h-.8zm5-1h.8v.8h-.8zm-3 8h.8v.8h-.8zm11-4h.8v.8h-.8zm-10 3h.8v.8h-.8zm3-3h.8v.8h-.8zm-3-1h.8v.8h-.8zm5 4h.8v.8h-.8zm7-7h.8v.8h-.8zm-1 5h.8v.8h-.8zm5-7h.8v.8h-.8zm-2 5h.8v.8h-.8zm3-6h.8v.8h-.8zm-5 8h.8v.8h-.8zm-1 2h.8v.8h-.8zm9-5h.8v.8h-.8zm1-2h.8v.8h-.8zm2-6h.8v.8h-.8zm0 3h.8v.8h-.8zm1-8h.8v.8h-.8zm2 1h.8v.8h-.8zm-3 2h.8v.8h-.8zm-9 6h.8v.8h-.8zm1-4h.8v.8h-.8zm-5 2h.8v.8h-.8zm9-4h.8v.8h-.8zm3-3h.8v.8h-.8zm1-1h.8v.8h-.8zm2-2h.8v.8h-.8zm0-2h.8v.8h-.8zm2-2h.8v.8h-.8zm1 0h.8v.8h-.8zm-2 6h.8v.8h-.8zm-11 16h.8v.8h-.8zm-33 3h.8v.8h-.8zm-8-6h.8v.8h-.8zm-7-9h.8v.8h-.8zm-2-1h.8v.8h-.8zm0-2h.8v.8h-.8zm6 5h.8v.8h-.8zm-3-3h.8v.8h-.8zm3 5h.8v.8h-.8zm2-3h.8v.8h-.8zm6 7h.8v.8h-.8zm-4-4h.8v.8h-.8zm-7-7h.8v.8h-.8zm8 15h.8v.8h-.8zm-7-8h.8v.8h-.8zm5 8h.8v.8h-.8zm-2-4h.8v.8h-.8zm-2-3h.8v.8h-.8zm3 1h.8v.8h-.8zm-2-3h.8v.8h-.8zm-3-9h.8v.8h-.8zm2 8h.8v.8h-.8zm-3-8h.8v.8h-.8zm-1 0h.8v.8h-.8zm0-5h.8v.8h-.8zm2 3h.8v.8h-.8zm1-1h.8v.8h-.8zm3 9h.8v.8h-.8zm0 1h.8v.8h-.8zm4 6h.8v.8h-.8zm2 3h.8v.8h-.8zm-4-3h.8v.8h-.8zm7 5h.8v.8h-.8zm-6-1h.8v.8h-.8zm12 3h.8v.8h-.8zm-3-1h.8v.8h-.8zm-3-7h.8v.8h-.8zm8 2h.8v.8h-.8zm-5 2h.8v.8h-.8zm-5-4h.8v.8h-.8zm6 3h.8v.8h-.8zm1-2h.8v.8h-.8zm0-5h.8v.8h-.8zm-4 0h.8v.8h-.8zm-2-2h.8v.8h-.8zm0 3h.8v.8h-.8zm0-2h.8v.8h-.8zm9 0h.8v.8h-.8zm0 3h.8v.8h-.8zm2 0h.8v.8h-.8zm-1 7h.8v.8h-.8zm1 2h.8v.8h-.8zm6 2h.8v.8h-.8zm-12-2h.8v.8h-.8zm8 6h.8v.8h-.8zm-3-1h.8v.8h-.8zm7-1h.8v.8h-.8zm8 2h.8v.8h-.8zm-2 0h.8v.8h-.8zm6-2h.8v.8h-.8zm-12 4h.8v.8h-.8zm11-4h.8v.8h-.8zm-17 1h.8v.8h-.8zm6-8h.8v.8h-.8zm-2 1h.8v.8h-.8zm1-5h.8v.8h-.8zm0 6h.8v.8h-.8zm-1-7h.8v.8h-.8zm-2 5h.8v.8h-.8zm0-5h.8v.8h-.8zm0 1h.8v.8h-.8zm5-1h.8v.8h-.8zm9 1h.8v.8h-.8zm5-5h.8v.8h-.8zm-6 6h.8v.8h-.8zm-1-5h.8v.8h-.8zm-2 5h.8v.8h-.8zm5-2h.8v.8h-.8zm5 4h.8v.8h-.8zm2 1h.8v.8h-.8zm-10 3h.8v.8h-.8zm-2 1h.8v.8h-.8zm2-5h.8v.8h-.8zm-6 4h.8v.8h-.8zm12-3h.8v.8h-.8zm6-4h.8v.8h-.8zm-1 5h.8v.8h-.8zm5-7h.8v.8h-.8zm-2 5h.8v.8h-.8zm1-4h.8v.8h-.8zm2-2h.8v.8h-.8zm-5 8h.8v.8h-.8zm-2 2h.8v.8h-.8zm2 0h.8v.8h-.8zm13-8h.8v.8h-.8zm-5 3h.8v.8h-.8zm1-4h.8v.8h-.8zm3-9h.8v.8h-.8zm-1 2h.8v.8h-.8zm-8 2h.8v.8h-.8zm-5 2h.8v.8h-.8zm10-3h.8v.8h-.8zm2-4h.8v.8h-.8zm1 0h.8v.8h-.8zm2-3h.8v.8h-.8zm0-1h.8v.8h-.8zm2-3h.8v.8h-.8zm2 1h.8v.8h-.8zm-1 4h.8v.8h-.8zm-1 2h.8v.8h-.8zm-6 8h.8v.8h-.8zm-5 8h.8v.8h-.8zm-16 1h.8v.8h-.8zm-24-1h.8v.8h-.8zm-1-3h.8v.8h-.8zm-3-6h.8v.8h-.8zm-4-4h.8v.8h-.8zm-2-2h.8v.8h-.8zm6 4h.8v.8h-.8zm-3-3h.8v.8h-.8zm3 6h.8v.8h-.8zm-5-5h.8v.8h-.8zm4 6h.8v.8h-.8zm5 8h.8v.8h-.8zm-10-11h.8v.8h-.8zm0-1h.8v.8h-.8zm3 5h.8v.8h-.8zm5 8h.8v.8h-.8zm0 2h.8v.8h-.8zm-8-7h.8v.8h-.8zm0-2h.8v.8h-.8zm5 9h.8v.8h-.8zm-2-3h.8v.8h-.8zm-6-11h.8v.8h-.8zm4 7h.8v.8h-.8zm0-5h.8v.8h-.8zm4 6h.8v.8h-.8zm-2-3h.8v.8h-.8zm-3-9h.8v.8h-.8zm-1 0h.8v.8h-.8zm-1 0h.8v.8h-.8zm0-1h.8v.8h-.8zm0-5h.8v.8h-.8zm1 4h.8v.8h-.8zm1-1h.8v.8h-.8zm3 9h.8v.8h-.8zm4 7h.8v.8h-.8zm3 4h.8v.8h-.8zm3 2h.8v.8h-.8zm-6-2h.8v.8h-.8zm12 4h.8v.8h-.8zm-3-2h.8v.8h-.8zm-3-6h.8v.8h-.8zm8 2h.8v.8h-.8zm-14-4h.8v.8h-.8zm9 6h.8v.8h-.8zm-6-5h.8v.8h-.8zm8 1h.8v.8h-.8zm-1-1h.8v.8h-.8zm1-3h.8v.8h-.8zm-5 0h.8v.8h-.8zm-1-3h.8v.8h-.8zm-1 3h.8v.8h-.8zm1-2h.8v.8h-.8zm9 1h.8v.8h-.8zm0 3h.8v.8h-.8zm2-1h.8v.8h-.8zm-1 7h.8v.8h-.8zm1 2h.8v.8h-.8zm6 2h.8v.8h-.8zm-12-1h.8v.8h-.8zm8 5h.8v.8h-.8zm-3-1h.8v.8h-.8zm7-1h.8v.8h-.8zm17 2h.8v.8h-.8zm-9 0h.8v.8h-.8zm-2 0h.8v.8h-.8zm7-2h.8v.8h-.8zm-13 5h.8v.8h-.8zm11-5h.8v.8h-.8zm-17 1h.8v.8h-.8zm6-8h.8v.8h-.8zm-2 2h.8v.8h-.8zm1-6h.8v.8h-.8zm0 6h.8v.8h-.8zm-1-7h.8v.8h-.8zm-2 0h.8v.8h-.8zm0 1h.8v.8h-.8zm5 0h.8v.8h-.8zm4 4h.8v.8h-.8zm6-3h.8v.8h-.8zm4-2h.8v.8h-.8zm1-4h.8v.8h-.8zm-7 6h.8v.8h-.8zm-1-5h.8v.8h-.8zm-2 6h.8v.8h-.8zm5-2h.8v.8h-.8zm0 6h.8v.8h-.8zm6-2h.8v.8h-.8zm-10 4h.8v.8h-.8zm12-4h.8v.8h-.8zm-10 3h.8v.8h-.8zm-3 2h.8v.8h-.8zm-4-1h.8v.8h-.8zm12-4h.8v.8h-.8zm6-4h.8v.8h-.8zm-1 5h.8v.8h-.8zm6-7h.8v.8h-.8zm-3 5h.8v.8h-.8zm2-4h.8v.8h-.8zm2-2h.8v.8h-.8zm-6 9h.8v.8h-.8zm-2 2h.8v.8h-.8zm2-1h.8v.8h-.8zm13-8h.8v.8h-.8zm-5 3h.8v.8h-.8zm1-3h.8v.8h-.8zm1-1h.8v.8h-.8zm0 2h.8v.8h-.8zm2-6h.8v.8h-.8zm0 3h.8v.8h-.8zm1-8h.8v.8h-.8zm0 4h.8v.8h-.8zm-1-2h.8v.8h-.8zm-9 7h.8v.8h-.8zm1-4h.8v.8h-.8zm-5 2h.8v.8h-.8zm10-5h.8v.8h-.8zm0 1h.8v.8h-.8zm2-4h.8v.8h-.8zm1 0h.8v.8h-.8zm2-4h.8v.8h-.8zm-5 12h.8v.8h-.8zm-5 8h.8v.8h-.8zm-16 2h.8v.8h-.8zm-11 2h.8v.8h-.8zm-7-1h.8v.8h-.8zm-7-6h.8v.8h-.8zm-3-5h.8v.8h-.8zm-5-4h.8v.8h-.8zm-1-2h.8v.8h-.8zm0-1h.8v.8h-.8zm4 5h.8v.8h-.8zm1 0h.8v.8h-.8zm-3-4h.8v.8h-.8zm2-2h.8v.8h-.8zm5 2h.8v.8h-.8zm4 1h.8v.8h-.8zm2-2h.8v.8h-.8zm1-3h.8v.8h-.8zm0-1h.8v.8h-.8zm-5 3h.8v.8h-.8zm-1 0h.8v.8h-.8zm8 2h.8v.8h-.8zm0 2h.8v.8h-.8zm-1-2h.8v.8h-.8zm0 1h.8v.8h-.8zm0 1h.8v.8h-.8zm-2-2h.8v.8h-.8zm-2-1h.8v.8h-.8zm1-3h.8v.8h-.8zm1 2h.8v.8h-.8zm22-2h.8v.8h-.8zm-2 2h.8v.8h-.8zm0 1h.8v.8h-.8zm2-2h.8v.8h-.8zm1 0h.8v.8h-.8zm0 2h.8v.8h-.8zm4-1h.8v.8h-.8zm1 1h.8v.8h-.8zm1 0h.8v.8h-.8zm3-1h.8v.8h-.8zm0 1h.8v.8h-.8zm-3 1h.8v.8h-.8zm-7 2h.8v.8h-.8zm0 2h.8v.8h-.8zm3-1h.8v.8h-.8zm-46-3h.8v.8h-.8zm4 6h.8v.8h-.8zm4 6h.8v.8h-.8zm1 1h.8v.8h-.8zm-4-4h.8v.8h-.8zm-6-6h.8v.8h-.8zm3 5h.8v.8h-.8zm4 7h.8v.8h-.8zm1 1h.8v.8h-.8zm-8-16h.8v.8h-.8zm-1-2h.8v.8h-.8zm1-1h.8v.8h-.8zm3 8h.8v.8h-.8zm0 1h.8v.8h-.8zm4 6h.8v.8h-.8zm2 3h.8v.8h-.8zm4 2h.8v.8h-.8zm5 2h.8v.8h-.8zm-3-1h.8v.8h-.8zm-2-7h.8v.8h-.8zm8 2h.8v.8h-.8zm-15-3h.8v.8h-.8zm9 5h.8v.8h-.8zm-5-4h.8v.8h-.8zm7 3h.8v.8h-.8zm1-2h.8v.8h-.8zm-1-2h.8v.8h-.8zm1-3h.8v.8h-.8zm-5 0h.8v.8h-.8zm-1-2h.8v.8h-.8zm-1 3h.8v.8h-.8zm1-2h.8v.8h-.8zm9 0h.8v.8h-.8zm0 3h.8v.8h-.8zm1 0h.8v.8h-.8zm-1 7h.8v.8h-.8zm2 2h.8v.8h-.8zm5 2h.8v.8h-.8zm-11-2h.8v.8h-.8zm7 6h.8v.8h-.8zm-2-1h.8v.8h-.8zm7-1h.8v.8h-.8zm16 2h.8v.8h-.8zm-8 0h.8v.8h-.8zm-2 0h.8v.8h-.8zm6-2h.8v.8h-.8zm-12 4h.8v.8h-.8zm11-4h.8v.8h-.8zm-17 1h.8v.8h-.8zm6-8h.8v.8h-.8zm-2 1h.8v.8h-.8zm1-5h.8v.8h-.8zm0 6h.8v.8h-.8zm-2-7h.8v.8h-.8zm-1 5h.8v.8h-.8zm0-5h.8v.8h-.8zm0 1h.8v.8h-.8zm5-1h.8v.8h-.8zm3 5h.8v.8h-.8zm6-4h.8v.8h-.8zm4-2h.8v.8h-.8zm1-3h.8v.8h-.8zm-6 6h.8v.8h-.8zm-1-5h.8v.8h-.8zm-2 5h.8v.8h-.8zm5-2h.8v.8h-.8zm0 7h.8v.8h-.8zm5-3h.8v.8h-.8zm-9 5h.8v.8h-.8zm11-4h.8v.8h-.8zm-10 3h.8v.8h-.8zm4-4h.8v.8h-.8zm-6 5h.8v.8h-.8zm2-5h.8v.8h-.8zm-6 4h.8v.8h-.8zm12-3h.8v.8h-.8zm-1 3h.8v.8h-.8zm7-7h.8v.8h-.8zm-1 5h.8v.8h-.8zm5-7h.8v.8h-.8zm-2 5h.8v.8h-.8zm1-4h.8v.8h-.8zm2-2h.8v.8h-.8zm-5 8h.8v.8h-.8zm-2 2h.8v.8h-.8zm2 0h.8v.8h-.8zm13-8h.8v.8h-.8zm-5 3h.8v.8h-.8zm0-3h.8v.8h-.8zm1-1h.8v.8h-.8zm0 2h.8v.8h-.8zm3-6h.8v.8h-.8zm-1 3h.8v.8h-.8zm1-8h.8v.8h-.8zm0 4h.8v.8h-.8zm3-4h.8v.8h-.8zm-4 2h.8v.8h-.8zm-9 7h.8v.8h-.8zm1-5h.8v.8h-.8zm-5 2h.8v.8h-.8zm11-4h.8v.8h-.8zm-1 1h.8v.8h-.8zm2-4h.8v.8h-.8zm1 0h.8v.8h-.8zm2-3h.8v.8h-.8zm0-1h.8v.8h-.8zm2-3h.8v.8h-.8zm1 1h.8v.8h-.8zm0 4h.8v.8h-.8zm-1 2h.8v.8h-.8zm-6 8h.8v.8h-.8zm-5 8h.8v.8h-.8zm-16 1h.8v.8h-.8zm-12 3h.8v.8h-.8zm-6-1h.8v.8h-.8zm-6-3h.8v.8h-.8zm-1-3h.8v.8h-.8zm-3-6h.8v.8h-.8zm-5-3h.8v.8h-.8zm-1-1h.8v.8h-.8zm0-2h.8v.8h-.8zm4 5h.8v.8h-.8zm1-1h.8v.8h-.8zm-2-3h.8v.8h-.8zm2 6h.8v.8h-.8z" fill="#999"/><g fill="#231F20"><path d="M113.3 113.9c-2.4 4-6.8 4.4-10 1-3.1-3.4-1.2-6.6 4.3-7.2 5.5-.5 8.1 2.2 5.7 6.2z"/><path d="M102.4 130.3c2.9-14.4 7.9-14.4 11.1 0 3.1 14.3.8 26-5.4 26.1-6.1-.1-8.7-11.7-5.7-26.1z"/></g><path fill="#68CCFF" d="M138.4 25.8s6.4-2.2 9.5-.6c4 2-1.2 15.4-4.8 16-3.5.6-7-3.8-7.9-7.1 0 0 2.5-2.9 3.2-8.3z"/><path opacity=".3" d="M137 29.7c1.3-2 3.6-1.9 5.1-1.4.1 0 .7 0 .4-.1-1.7-.6-4.5-.9-6 1.5-.1.1.4.2.5 0zm.3 1.2c1.7-.2 3.5.4 4.5 1.8.1.1.7.1.6 0-1.2-1.7-3.5-2.3-5.5-2-.3.1.3.2.4.2zm-1.6 2.2c1.6-1.3 3.3.5 4.2 2 .1.1.5.4.3.2-1-1.8-3-4.1-4.9-2.6 0 0 .3.5.4.4z"/><path fill="#68CCFF" d="M132.8 23.7s-3.2-6.3-6.6-6.9c-4-.6-9.8 12.5-7.3 15 3.1 3.2 7.8 1.9 10.6.1.1 0 .2-3.8 3.3-8.2z"/><path opacity=".3" d="M130.9 26.8c.3-2-1.3-3.3-2.5-3.9-.1 0-.4-.4-.2-.3 1.4.6 3.5 2.1 3.1 4.5 0 .1-.4-.1-.4-.3zm-.8 1.3c-1.3-1.4-3.2-2.2-5-1.8-.2 0-.6-.4-.5-.4 2.2-.4 4.5.8 6 2.4.2.2-.4-.1-.5-.2zm.1 1.8c-.6-1.4-2.8-.6-4.4.4-.1.1-.6.2-.4 0 1.8-1.1 4.6-2.3 5.3-.7.1.1-.5.4-.5.3z"/><path fill="#FB9A18" d="M132.8 23.6s3.9-.1 5.6 2.2c0 0-.4 4.9-3.2 8.3 0 0-3.8.1-5.6-2.2 0 0 .1-5.1 3.2-8.3z"/><g><path fill="#FB9A18" d="M77 25.8s-6.4-2.2-9.5-.6c-4 2 1.2 15.4 4.8 16 3.5.6 7-3.8 7.9-7.1 0 0-2.6-2.9-3.2-8.3z"/><path opacity=".3" d="M78.3 29.7c-1.3-2-3.6-1.9-5.1-1.4-.1 0-.7 0-.4-.1 1.7-.6 4.5-.9 6 1.5.1.1-.4.2-.5 0zm-.3 1.2c-1.7-.2-3.5.4-4.5 1.8-.1.1-.7.1-.6 0 1.2-1.7 3.5-2.3 5.5-2 .3.1-.3.2-.4.2zm1.6 2.2c-1.6-1.3-3.3.5-4.2 2-.1.1-.5.4-.3.2 1-1.8 3-4.1 4.9-2.6.1 0-.2.5-.4.4z"/><path fill="#FB9A18" d="M82.5 23.7s3.2-6.3 6.6-6.9c4-.6 9.8 12.5 7.3 15-3.1 3.2-7.8 1.9-10.6.1 0 0-.2-3.8-3.3-8.2z"/><path opacity=".3" d="M84.5 26.8c-.3-2 1.3-3.3 2.5-3.9.1 0 .4-.4.2-.3-1.4.6-3.5 2.1-3.1 4.5 0 .1.4-.1.4-.3zm.7 1.3c1.3-1.4 3.2-2.2 5-1.8.2 0 .6-.4.5-.4-2.2-.4-4.5.8-6 2.4-.2.2.5-.1.5-.2zm0 1.8c.6-1.4 2.8-.6 4.4.4.1.1.6.2.4 0-1.8-1.1-4.6-2.3-5.3-.7-.1.1.4.4.5.3z"/><path fill="#317AA0" d="M82.5 23.6s-3.9-.1-5.6 2.2c0 0 .4 4.9 3.2 8.3 0 0 3.8.1 5.6-2.2.1 0 0-5.1-3.2-8.3z"/></g><g><linearGradient id="j" gradientUnits="userSpaceOnUse" x1="164.357" y1="206.565" x2="164.357" y2="95.991"><stop offset="0" stop-color="#FAB14A"/><stop offset="1" stop-color="#FBE110"/></linearGradient><path fill="url(#j)" d="M184.5 98.8C171.2 96.3 166 96 164.4 96c-1.7 0-7.1.3-21 3-4 8.7-11.9 15.7-22.4 19.9 2 8.9 5.3 22.1 9.8 35.2 5.8 17.1 12.1 30.5 18.8 39.9 7.1 9.9 12.7 12.6 14.9 12.6 2.2 0 7.8-2.6 14.9-12.6 6.7-9.4 13-22.8 18.8-39.9 4.4-13 7.7-26.1 9.7-34.9-11.1-4.2-19.3-11.4-23.4-20.4z"/><path opacity=".05" d="M184.5 98.8C172 96.4 166.6 96 164.7 96v110.5c2.4-.2 7.8-3.1 14.5-12.5s13-22.8 18.8-39.9c4.4-13 7.7-26.1 9.7-34.9-10.9-4.2-19.1-11.4-23.2-20.4z"/><text transform="translate(147.9 123.018)"><tspan x="0" y="0" fill="#475E10" font-family="'Roboto-Bold'" font-size="12">HTML</tspan><tspan x="5.2" y="14.4" fill="#475E10" font-family="'Roboto-Bold'" font-size="12">CSS</tspan><tspan x="9.4" y="28.8" fill="#475E10" font-family="'Roboto-Bold'" font-size="12">JS</tspan><tspan x="9" y="43.2" fill="#475E10" font-family="'Roboto-Bold'" font-size="12">C#</tspan><tspan x="5.4" y="57.6" fill="#475E10" font-family="'Roboto-Bold'" font-size="12">SQL</tspan></text></g><g><path fill="#F2D766" d="M32.5 106.3c7.3 20.5 18.6 56.3 17.1 56.9-1.5.5-15.3-34.5-22.5-54.9-7.3-20.5-5.2-18.6-3.7-19.2 1.4-.6 1.8-3.3 9.1 17.2z"/><path fill="#F7931E" d="M27.2 86.6c.9 2.4-.3 5-2.7 5.8-2.4.9-5-.3-5.8-2.7-.9-2.4-1.7-10.6.6-11.5 2.4-.8 7.1 6 7.9 8.4z"/><circle fill="#3FA9F5" cx="8.6" cy="74.7" r="4.6"/><path fill="#7AC943" d="M18.5 62.4c.8 2.4-.5 5-2.9 5.8-2.4.8-5-.5-5.8-2.9-.8-2.4.5-5 2.9-5.8 2.4-.9 5 .4 5.8 2.9z"/><circle fill="#F15A24" cx="24.9" cy="69.3" r="4.6"/><path opacity=".05" d="M27.2 86.6c-.9-2.3-5.4-8.9-7.8-8.4l30.1 84.9c1.5-.5-9.9-36.4-17.1-56.9-3-8.4-4.8-12.9-6-15.2 1-1.2 1.4-2.8.8-4.4z"/></g></svg>