<svg id="Layer_1" data-name="Layer 1" xmlns="http://www.w3.org/2000/svg" width="36" height="52" viewBox="0 0 36 52"><defs><style>.cls-1{opacity:.15}.cls-2{fill:#fff}</style></defs><title>goals</title><g id="Прямоугольник_скругл._углы_2" data-name="Прямоугольник скругл. углы 2"><path d="M33 52H3a3 3 0 0 1-3-3V5a3 3 0 0 1 3-3h25v8h8v39a3 3 0 0 1-3 3zm-5-34a1 1 0 0 0-1-1H9a1 1 0 0 0-1 1v4a1 1 0 0 0 1 1h18a1 1 0 0 0 1-1zm3 16H5a1 1 0 0 0 0 2h26a1 1 0 0 0 0-2zm0 5H5a1 1 0 0 0 0 2h26a1 1 0 0 0 0-2z" class="cls-1"/><path class="cls-2" d="M33 50H3a3 3 0 0 1-3-3V3a3 3 0 0 1 3-3h25v8h8v39a3 3 0 0 1-3 3zm-5-34a1 1 0 0 0-1-1H9a1 1 0 0 0-1 1v4a1 1 0 0 0 1 1h18a1 1 0 0 0 1-1zm3 16H5a1 1 0 0 0 0 2h26a1 1 0 0 0 0-2zm0 5H5a1 1 0 0 0 0 2h26a1 1 0 0 0 0-2z"/></g></svg>