<svg xmlns="http://www.w3.org/2000/svg" width="50" height="50" viewBox="0 0 50 50"><path d="M49.064 19.45L26.27 3.402a2.206 2.206 0 0 0-2.539 0L.936 19.45a2.205 2.205 0 1 0 2.539 3.606L25 7.902l21.525 15.154a2.2 2.2 0 0 0 3.073-.535 2.203 2.203 0 0 0-.534-3.071zM25 9.315S7.32 21.24 7.054 21.506c-.266.266-.43.634-.43 1.039v22.052a1.468 1.468 0 0 0 1.47 1.471h10.585V33.207c0-.805.657-1.457 1.468-1.457h9.707c.811 0 1.468.652 1.468 1.457v12.861h10.585a1.469 1.469 0 0 0 1.47-1.471V22.546c0-.405-.164-.773-.43-1.039C42.68 21.24 25 9.315 25 9.315z" fill="#606060"/></svg>