<svg xmlns="http://www.w3.org/2000/svg" width="118" height="118" viewBox="0 0 118 118"><defs><style>.a{fill:#fffefa}.b{fill:none;stroke:#eee;stroke-linecap:round;stroke-linejoin:round;stroke-width:2px}.c{fill:#fff7e0}.d{fill:#fcf8f0}</style></defs><title>icon-scroll</title><path class="a" d="M18 23h85v76H18z"/><path class="b" d="M14 19h89v80H14z"/><path class="c" d="M62.7 36l1.41 2.85a3.59 3.59 0 0 0 2.69 1.95l3.16.46a3.56 3.56 0 0 1 2 6.07l-2.28 2.22a3.56 3.56 0 0 0-1 3.15l.54 3.14A3.56 3.56 0 0 1 64 59.57l-2.82-1.48a3.6 3.6 0 0 0-3.32 0L55 59.57a3.56 3.56 0 0 1-5.17-3.75l.54-3.14a3.59 3.59 0 0 0-1-3.15l-2.29-2.22a3.56 3.56 0 0 1 2-6.07l3.16-.46a3.59 3.59 0 0 0 2.69-1.95L56.3 36a3.57 3.57 0 0 1 6.4 0z"/><path class="b" d="M61.7 34l1.6 3.2a4.05 4.05 0 0 0 3.05 2.19l3.58.51a4 4 0 0 1 2.24 6.82l-2.59 2.49a4 4 0 0 0-1.17 3.54l.59 3.5a4 4 0 0 1-5.87 4.21L60 58.79a4.09 4.09 0 0 0-3.76 0L53 60.46a4 4 0 0 1-5.86-4.21l.61-3.53a4 4 0 0 0-1.16-3.54L44 46.69a4 4 0 0 1 2.24-6.82l3.58-.51a4.05 4.05 0 0 0 3-2.19l1.6-3.2a4.06 4.06 0 0 1 7.25 0zM29 77h16m6 0h16m6 0h16M29 82h16m6 0h16m6 0h16"/><path class="d" d="M14 5h93v12a2 2 0 0 1-2 2H14V5z"/><path class="b" d="M12 1h93a2 2 0 0 1 2 2v14a2 2 0 0 1-2 2H12a2 2 0 0 1-2-2V3a2 2 0 0 1 2-2zM8 5h2v10H8a2 2 0 0 1-2-2V7a2 2 0 0 1 2-2zM4 7h2v6H4a1 1 0 0 1-1-1V8a1 1 0 0 1 1-1zM3 10H1M108 5h2a2 2 0 0 1 2 2v6a2 2 0 0 1-2 2h-2zM112 7h2a1 1 0 0 1 1 1v4a1 1 0 0 1-1 1h-2zM115 10h2M101 5h-1M96 5H75"/><path class="d" d="M14 103h93v12a2 2 0 0 1-2 2H14v-14z"/><path class="b" d="M12 99h93a2 2 0 0 1 2 2v14a2 2 0 0 1-2 2H12a2 2 0 0 1-2-2v-14a2 2 0 0 1 2-2zM8 103h2v10H8a2 2 0 0 1-2-2v-6a2 2 0 0 1 2-2zM4 105h2v6H4a1 1 0 0 1-1-1v-4a1 1 0 0 1 1-1zM3 108H1M108 103h2a2 2 0 0 1 2 2v6a2 2 0 0 1-2 2h-2zM112 105h2a1 1 0 0 1 1 1v4a1 1 0 0 1-1 1h-2zM115 108h2M42 103h-1M37 103H16"/></svg>