<svg xmlns="http://www.w3.org/2000/svg" width="36" height="50" viewBox="0 0 36 50"><defs><style>.cls-1{fill:#fff;fill-rule:evenodd}</style></defs><path id="Прямоугольник_скругл._углы_2" data-name="Прямоугольник, скругл. углы 2" class="cls-1" d="M75 785H45a3 3 0 0 1-3-3v-44a3 3 0 0 1 3-3h25v8h8v39a3 3 0 0 1-3 3zm-5-34a1 1 0 0 0-1-1H51a1 1 0 0 0-1 1v4a1 1 0 0 0 1 1h18a1 1 0 0 0 1-1v-4zm3 16H47a1 1 0 0 0 0 2h26a1 1 0 0 0 0-2zm0 5H47a1 1 0 0 0 0 2h26a1 1 0 0 0 0-2z" transform="translate(-42 -735)"/></svg>