<svg xmlns="http://www.w3.org/2000/svg" width="24" height="24" viewBox="0 0 24 24"><defs><style>.a{fill:#ef9e40}.b{fill:#cb8636}</style></defs><title>pension-logo-sm</title><path class="a" d="M19.06 22.56a10.78 10.78 0 0 0-1.61-3.08 6 6 0 0 0 1.19.25 6.93 6.93 0 0 0-2.16-2.27 4.56 4.56 0 0 0 .72 0 5.61 5.61 0 0 0-1.7-1.2.28.28 0 0 1-.12-.41 6.51 6.51 0 0 0 2.91.63 5.25 5.25 0 0 0-.55-.62 8 8 0 0 0 3.6-.09 6.91 6.91 0 0 0-1.17-.77A12.39 12.39 0 0 0 24 13.74a12.39 12.39 0 0 0-3.81-1.2 6.91 6.91 0 0 0 1.17-.77 8 8 0 0 0-3.6-.09 5.25 5.25 0 0 0 .55-.62 6.39 6.39 0 0 0-2.19.34.14.14 0 0 1-.18-.09.14.14 0 0 1 .11-.18 8.89 8.89 0 0 0 1.25-.34 9.15 9.15 0 0 0 3.51-2.26 7.28 7.28 0 0 0-1.17-.07 11.2 11.2 0 0 0 3.49-3.67 9.71 9.71 0 0 0-1.93.4 17.42 17.42 0 0 0 2.6-5 17.42 17.42 0 0 0-5 2.6 9.71 9.71 0 0 0 .4-1.93 11.2 11.2 0 0 0-3.67 3.49 7.28 7.28 0 0 0-.07-1.17 9.15 9.15 0 0 0-2.24 3.52 8.89 8.89 0 0 0-.34 1.3.14.14 0 0 1-.18.11.14.14 0 0 1-.09-.18 6.39 6.39 0 0 0 .34-2.19 5.25 5.25 0 0 0-.62.55 8 8 0 0 0-.09-3.6 6.91 6.91 0 0 0-.77 1.17A12.39 12.39 0 0 0 10.26 0a12.39 12.39 0 0 0-1.2 3.81 6.91 6.91 0 0 0-.77-1.17 8 8 0 0 0-.09 3.6 5.25 5.25 0 0 0-.62-.55 6.51 6.51 0 0 0 .63 2.91.28.28 0 0 1-.41-.12 5.61 5.61 0 0 0-1.2-1.7 4.56 4.56 0 0 0 0 .72 6.93 6.93 0 0 0-2.32-2.15 6 6 0 0 0 .25 1.19 10.78 10.78 0 0 0-3.09-1.6A10.78 10.78 0 0 0 3.05 8a6 6 0 0 0-1.19-.25A6.93 6.93 0 0 0 4 10a4.56 4.56 0 0 0-.72 0 5.66 5.66 0 0 0 2.17 1.4l.48.14a.26.26 0 0 1 .19.27.26.26 0 0 1-.35.23 4.6 4.6 0 0 0-1.73-.3 3.75 3.75 0 0 0 .4.45 5.69 5.69 0 0 0-2.57.06 5 5 0 0 0 .83.55 8.85 8.85 0 0 0-2.7.95 8.85 8.85 0 0 0 2.72.86 5 5 0 0 0-.83.55 5.7 5.7 0 0 0 2.57.06 3.75 3.75 0 0 0-.4.45 4.65 4.65 0 0 0 2.08-.45 4.7 4.7 0 0 0 1.1-.74A2.82 2.82 0 0 0 8.6 15a.46.46 0 0 1 .41.44 2.64 2.64 0 0 0 .45 1.43 4.59 4.59 0 0 0-1.12 3.1 3.75 3.75 0 0 0 .45-.4 5.7 5.7 0 0 0 .06 2.57 5 5 0 0 0 .55-.83 8.85 8.85 0 0 0 .85 2.69 8.85 8.85 0 0 0 .86-2.72 5 5 0 0 0 .55.83 5.69 5.69 0 0 0 .06-2.57 3.75 3.75 0 0 0 .45.4 4.61 4.61 0 0 0-.29-1.71.26.26 0 0 1 .23-.35.26.26 0 0 1 .27.19c0 .15.08.3.14.46a5.66 5.66 0 0 0 1.4 2.17A4.56 4.56 0 0 0 14 20a6.93 6.93 0 0 0 2.27 2.16 6 6 0 0 0-.27-1.21 10.78 10.78 0 0 0 3.06 1.61z"/><path class="b" d="M10.93 13.38L21.79 2.21 10.62 13.07l-.36-10.74-.35 10.58-6.97-6.48 6.48 6.98-7.68.34 7.82.34-6.57 6.38.54.54 6.38-6.57.34 7.82.34-7.68 6.98 6.48-6.48-6.97 10.58-.35-10.74-.36z"/></svg>