<svg xmlns="http://www.w3.org/2000/svg" width="50" height="50" viewBox="0 0 50 50"><path d="M25.501 1.892C15.835 1.892 8 9.737 8 19.415c0 9.674 7.835 29.756 17.501 29.756C35.165 49.171 43 29.089 43 19.415c0-9.678-7.835-17.523-17.499-17.523zm0 26.885c-5.165 0-9.352-4.191-9.352-9.363s4.187-9.364 9.352-9.364 9.351 4.192 9.351 9.364-4.186 9.363-9.351 9.363z" opacity=".15"/><path fill="#fff" d="M25.501 0C15.835 0 8 7.845 8 17.523c0 9.674 7.835 29.756 17.501 29.756C35.165 47.279 43 27.197 43 17.523 43 7.845 35.165 0 25.501 0zm0 26.886c-5.165 0-9.352-4.191-9.352-9.363s4.187-9.364 9.352-9.364 9.351 4.192 9.351 9.364-4.186 9.363-9.351 9.363z"/></svg>