<svg xmlns="http://www.w3.org/2000/svg" width="50" height="50" viewBox="0 0 50 50"><path fill-rule="evenodd" clip-rule="evenodd" fill="#F4BB00" d="M43 34.007H28.465l7.549 7.528L34.545 43l-8.944-8.921-8.793 8.796-1.414-1.414 7.451-7.454H7a2 2 0 0 1-2-2V10a2 2 0 0 1 2-2h36a2 2 0 0 1 2 2v22.006a2 2 0 0 1-2 2.001zm0-22.306c0-.939-.776-1.701-1.733-1.701H8.733C7.776 10 7 10.762 7 11.701v18.604c0 .939.776 1.701 1.733 1.701h32.533c.957 0 1.733-.762 1.733-1.701V11.701zM30 25.005h-6a1 1 0 0 1-1-1V14.001a1 1 0 1 1 2 0v9.003h5a1 1 0 1 1 0 2.001z"/></svg>