<svg id="Layer_1" data-name="Layer 1" xmlns="http://www.w3.org/2000/svg" width="50" height="63.99" viewBox="0 0 50 63.99"><defs><style>.cls-1{opacity:.15}.cls-2{fill:#fff}</style></defs><title>profile</title><g id="profile_ico_копия" data-name="profile ico копия"><path d="M25 33c-6.91 0-12.49-7.24-12.49-18.61S18.07 2 25 2s12.46 1 12.46 12.41S31.88 33 25 33zM0 64V48.51c0-5.24 9.44-9.29 25-9.29s25 4.05 25 9.29V64z" class="cls-1"/><path class="cls-2" d="M25 31c-6.91 0-12.49-7.24-12.49-18.61S18.07 0 25 0s12.46 1 12.46 12.41S31.88 31 25 31zM0 62V46.51c0-5.24 9.44-9.29 25-9.29s25 4.05 25 9.29V62z"/></g></svg>