<svg xmlns="http://www.w3.org/2000/svg" width="50" height="50" viewBox="0 0 50 50"><path fill-rule="evenodd" clip-rule="evenodd" d="M29.077 33.886c-6.043 0-10.943-4.899-10.943-10.943C18.134 16.9 23.034 12 29.077 12c6.041 0 10.941 4.9 10.941 10.942.001 6.044-4.9 10.944-10.941 10.944zm-.017-18.422c-4.134 0-7.497 3.363-7.497 7.497s3.362 7.496 7.497 7.496c4.133 0 7.494-3.362 7.494-7.496s-3.362-7.497-7.494-7.497zm-7.502 18.92l-6.809 6.789a2.787 2.787 0 0 1-3.935 0 2.766 2.766 0 0 1 0-3.922l6.809-6.789a13.106 13.106 0 0 0 3.935 3.922z" opacity=".15"/><path fill-rule="evenodd" clip-rule="evenodd" fill="#999" d="M29.077 31.886c-6.043 0-10.943-4.899-10.943-10.943C18.134 14.9 23.034 10 29.077 10c6.041 0 10.941 4.9 10.941 10.942.001 6.044-4.9 10.944-10.941 10.944zm-.017-18.422c-4.134 0-7.497 3.363-7.497 7.497s3.362 7.496 7.497 7.496c4.133 0 7.494-3.362 7.494-7.496s-3.362-7.497-7.494-7.497zm-7.502 18.92l-6.809 6.789a2.787 2.787 0 0 1-3.935 0 2.766 2.766 0 0 1 0-3.922l6.809-6.789a13.106 13.106 0 0 0 3.935 3.922z"/></svg>