<svg id="Layer_1" data-name="Layer 1" xmlns="http://www.w3.org/2000/svg" width="50" height="52" viewBox="0 0 50 52"><defs><style>.cls-1{opacity:.15}.cls-2{fill:#fff}</style></defs><title>structure</title><g id="Прямоугольник_скругл._углы_1" data-name="Прямоугольник скругл. углы 1"><path d="M47 52H33a3 3 0 0 1-3-3V35a3 3 0 0 1 3-3h6V13h-4v6a3 3 0 0 1-3 3H18a3 3 0 0 1-3-3v-6h-4v19h6a3 3 0 0 1 3 3v14a3 3 0 0 1-3 3H3a3 3 0 0 1-3-3V35a3 3 0 0 1 3-3h6V11h6V5a3 3 0 0 1 3-3h14a3 3 0 0 1 3 3v6h6v21h6a3 3 0 0 1 3 3v14a3 3 0 0 1-3 3z" class="cls-1"/><path class="cls-2" d="M47 50H33a3 3 0 0 1-3-3V33a3 3 0 0 1 3-3h6V11h-4v6a3 3 0 0 1-3 3H18a3 3 0 0 1-3-3v-6h-4v19h6a3 3 0 0 1 3 3v14a3 3 0 0 1-3 3H3a3 3 0 0 1-3-3V33a3 3 0 0 1 3-3h6V9h6V3a3 3 0 0 1 3-3h14a3 3 0 0 1 3 3v6h6v21h6a3 3 0 0 1 3 3v14a3 3 0 0 1-3 3z"/></g></svg>