<svg id="Layer_1" xmlns="http://www.w3.org/2000/svg" viewBox="0 0 27 21"><style>.st0{fill:#fff}</style><path id="icon-users" class="st0" d="M26.3 17h-3.9v-.7c-.3-2.5-2.3-4.5-5.3-5.4.8-.7 1.4-1.7 1.7-2.8.4-.1.8-.1 1.3-.1 3.6 0 6.6 1.7 6.9 4v4.3c0 .4-.3.7-.7.7zM20.5 7c-.5 0-.9-.1-1.3-.3-.2-1.5-1-2.9-2.2-3.9.4-1.9 2.2-3.2 4.1-2.8 1.9.4 3.2 2.2 2.8 4.1-.3 1.7-1.7 2.9-3.4 2.9zm-7 4C11.6 11 10 9.4 10 7.5S11.6 4 13.5 4 17 5.6 17 7.5 15.4 11 13.5 11zm-7-4C4.6 7 3 5.4 3.1 3.5c0-2 1.6-3.5 3.5-3.5C8.3 0 9.7 1.2 10 2.8c-1.2 1-2 2.4-2.1 3.9-.5.2-.9.3-1.4.3zm1.8 1.1c.3 1.1.9 2.1 1.7 2.8-3 1-5.1 3-5.3 5.4v.7h-4c-.4 0-.7-.3-.7-.7V12c.3-2.2 3.3-4 6.9-4 .5 0 .9 0 1.4.1zm5.2 3.9c4 0 7.3 1.8 7.5 4.3v3.9c0 .4-.3.8-.8.8H6.8c-.5 0-.8-.3-.8-.8v-3.9c.3-2.5 3.5-4.3 7.5-4.3z"/></svg>