<svg xmlns="http://www.w3.org/2000/svg" width="100" height="100" viewBox="0 0 100 100"><path fill-rule="evenodd" clip-rule="evenodd" d="M73.988 66v-3c-8.232 3.7-17.287 5.59-26.384 4.826-9.097-.763-18.046-3.708-25.688-8.74-1.797-1.183-2.446-3.921-1.446-6.116.999-2.194 3.263-3.015 5.06-1.832 6.569 4.325 14.228 6.898 22.04 7.653a7.406 7.406 0 0 1-.528-2.1c-.253-2.481.656-4.607 2.055-4.748L73.988 49v-2l7.996.016L81.988 66h-8zm-33-19.988c-3.866 0-7-3.137-7-7.006s3.134-7.006 7-7.006 7 3.137 7 7.006-3.134 7.006-7 7.006z"/></svg>