<svg xmlns="http://www.w3.org/2000/svg" width="250" height="250" viewBox="0 0 250 250"><path fill-rule="evenodd" clip-rule="evenodd" d="M125 247.016c-67.654 0-122.5-54.85-122.5-122.507C2.5 56.849 57.346 2 125 2s122.5 54.849 122.5 122.508c0 67.658-54.846 122.508-122.5 122.508zM105.563 81.414c-6.531 0-11.826 5.295-11.826 11.829 0 6.531 5.295 11.827 11.826 11.827 6.533 0 11.829-5.295 11.829-11.827.001-6.534-5.295-11.829-11.829-11.829zm69.271 25.348H161.53v4.063l-42.268 4.258c-2.362.238-3.899 3.826-3.472 8.017.132 1.301.459 2.506.894 3.544-13.2-1.274-26.142-5.619-37.238-12.921-3.037-1.998-6.863-.612-8.553 3.093-1.687 3.706-.592 8.329 2.445 10.326 12.911 8.494 28.032 13.468 43.403 14.757 15.354 1.286 30.89-1.104 44.788-7.336v4.737h13.304v-32.538z" opacity=".15"/><path fill-rule="evenodd" clip-rule="evenodd" fill="#fff" d="M125 245.016c-67.654 0-122.5-54.85-122.5-122.507C2.5 54.849 57.346 0 125 0s122.5 54.849 122.5 122.508c0 67.658-54.846 122.508-122.5 122.508zM105.563 79.414c-6.531 0-11.826 5.295-11.826 11.829 0 6.531 5.295 11.827 11.826 11.827 6.533 0 11.829-5.295 11.829-11.827.001-6.534-5.295-11.829-11.829-11.829zm69.271 25.348H161.53v4.063l-42.268 4.258c-2.362.238-3.899 3.826-3.472 8.017.132 1.301.459 2.506.894 3.544-13.2-1.274-26.142-5.619-37.238-12.921-3.037-1.998-6.863-.612-8.553 3.093-1.687 3.706-.592 8.329 2.445 10.326 12.911 8.494 28.032 13.468 43.403 14.757 15.354 1.286 30.89-1.104 44.788-7.336v4.737h13.304v-32.538z"/></svg>