<svg xmlns="http://www.w3.org/2000/svg" width="100" height="100" viewBox="0 0 100 100"><path d="M74.167 53.627c-.787.242-1.235-.221-1.54-.896a2863.116 2863.116 0 0 0-5.244-11.529c-.357 5.123.288 30.643.398 34.646.037 1.344-.682 2.119-1.857 2.145-1.053.023-1.846-.605-1.959-1.66-.402-3.791-.775-7.586-1.156-11.381-.271-2.723-.537-5.447-.895-8.174-.387 3.947-.771 7.895-1.162 11.842-.252 2.541-.494 5.082-.779 7.619-.135 1.193-.926 1.822-2.063 1.752-1.054-.064-1.757-.805-1.759-1.959-.01-3.406.599-33.209.507-35.121a7498.58 7498.58 0 0 1-5.392 11.865c-.254.555-.632.939-1.189.91-.471.072-.869-.139-1.132-.576-.373-.621-5.692-11.133-6.027-11.362.282 1.73 2.126 13.097 2.789 17.048.118.707-.103.969-.82.998-2.04.082-2.063.102-2.183 2.184-.264 4.564-.834 14.508-.891 14.914-.098.686-.465 1.109-1.193 1.086-.777-.023-1.107-.518-1.157-1.234-.125-1.824-.761-12.59-.962-16.146-.017-.303.047-.703-.397-.738-.522-.043-.485.393-.505.729-.189 3.181-.812 13.942-.94 16.146-.042.729-.381 1.195-1.149 1.248-.748.055-1.14-.387-1.205-1.059-.139-1.441-.751-12.143-.899-16.049-.034-.91-.375-1.125-1.196-1.096-2.442.086-1.923-.215-1.642-1.977.825-5.17 2.59-15.865 2.606-16.049-.065-.018-2.306 4.176-3.373 6.283-.812 1.605-1.645 3.199-2.463 4.803-.34.666-.835 1.088-1.597.777-.758-.313-.868-.982-.609-1.674 1.862-4.963 3.643-9.959 5.768-14.822 1.129-2.582 3.158-3.762 5.944-3.699 1.419.031 2.846-.131 4.256.18 1.532.338 2.728 1.115 3.532 2.482 1.241 2.111 1.98 4.436 2.876 6.691.838 2.115 1.634 4.246 2.43 6.377 1.292-4.008 2.575-8.023 4.195-11.916.808-1.934 2.304-3.164 4.372-3.563a18.657 18.657 0 0 1 6.88-.014c2.16.391 3.656 1.729 4.479 3.711 1.97 4.758 3.437 9.693 5.052 14.573.236.744.098 1.425-.749 1.685zM61.952 32.48c-2.583-.014-4.771-2.199-4.783-4.785C57.152 25.086 59.286 23 61.971 23c2.697.001 4.799 2.079 4.766 4.715-.033 2.619-2.199 4.777-4.785 4.765zm-23.917.016c-2.576-.02-4.771-2.221-4.781-4.801-.01-2.614 2.126-4.696 4.814-4.692 2.677.004 4.832 2.134 4.783 4.726-.05 2.599-2.258 4.785-4.816 4.767z"/></svg>