<svg xmlns="http://www.w3.org/2000/svg" width="250" height="250" viewBox="0 0 250 250"><path d="M125.5 247.016C57.846 247.016 3 192.166 3 124.508 3 56.849 57.846 2 125.5 2S248 56.849 248 124.508c0 67.658-54.846 122.508-122.5 122.508zM98.052 61.146c-5.992-.009-10.752 4.661-10.73 10.526.021 5.784 4.912 10.724 10.656 10.764 5.701.04 10.623-4.863 10.734-10.689.108-5.816-4.695-10.593-10.66-10.601zm53.274-.006c-5.98-.001-10.732 4.676-10.7 10.53.032 5.799 4.903 10.704 10.662 10.73 5.765.027 10.59-4.809 10.664-10.684.073-5.914-4.609-10.576-10.626-10.576zm28.84 64.915c-3.602-10.95-6.87-22.02-11.262-32.688-1.83-4.446-5.168-7.446-9.98-8.324-5.093-.929-10.246-.954-15.335.031-4.614.893-7.946 3.654-9.743 7.99-3.615 8.733-6.469 17.735-9.353 26.727-1.772-4.78-9.059-24.575-11.827-29.309-1.792-3.069-4.456-4.813-7.871-5.568-3.145-.696-6.322-.333-9.486-.405-6.21-.141-10.732 2.505-13.25 8.298-4.735 10.906-8.704 22.112-12.855 33.246-.575 1.547-.333 3.057 1.357 3.75 1.7.699 2.803-.248 3.561-1.74 1.825-3.595 12.863-24.902 13.009-24.864-.038.412-3.972 24.397-5.811 35.993-.626 3.945-1.783 4.621 3.661 4.427 1.83-.065 2.59.419 2.666 2.459.33 8.761 1.694 32.761 2.004 35.996.144 1.506 1.018 2.491 2.686 2.377 1.711-.121 2.467-1.173 2.562-2.804.285-4.94 1.674-29.084 2.093-36.211.046-.76-.036-1.729 1.128-1.635.99.08.847.979.884 1.656.449 7.977 1.865 32.116 2.147 36.207.11 1.613.847 2.715 2.58 2.773 1.624.055 2.441-.9 2.657-2.438.129-.908 1.399-23.212 1.985-33.446.27-4.672.32-4.715 4.866-4.897 1.6-.065 2.093-.654 1.829-2.24-1.478-8.858-5.589-34.356-6.218-38.235.749.512 12.604 24.087 13.435 25.483.55.923 1.365 1.405 2.333 1.329 1.364.191 2.245-.768 2.844-2.078 1.144-2.509 8.974-19.86 12.019-26.615.205 4.29-1.145 71.133-1.125 78.77.006 2.591 1.57 4.253 3.916 4.396 2.539.156 4.304-1.252 4.604-3.93.636-5.688 3.466-34.793 4.328-43.647.796 6.114 3.673 35.355 4.571 43.859.25 2.363 2.02 3.773 4.367 3.725 2.621-.055 4.219-1.797 4.137-4.813-.24-8.975-1.684-66.211-.885-77.698.678 1.464 8.479 18.7 11.688 25.862.681 1.517 1.679 2.553 3.435 2.009 1.881-.588 2.195-2.116 1.649-3.778z" opacity=".15"/><path fill="#fff" d="M125.5 245.016C57.846 245.016 3 190.166 3 122.508 3 54.849 57.846 0 125.5 0S248 54.849 248 122.508c0 67.658-54.846 122.508-122.5 122.508zM98.052 59.146c-5.992-.009-10.752 4.661-10.73 10.526.021 5.784 4.912 10.724 10.656 10.764 5.701.04 10.623-4.863 10.734-10.689.108-5.816-4.695-10.593-10.66-10.601zm53.274-.006c-5.98-.001-10.732 4.676-10.7 10.53.032 5.799 4.903 10.704 10.662 10.73 5.765.027 10.59-4.809 10.664-10.684.073-5.914-4.609-10.576-10.626-10.576zm28.84 64.914c-3.602-10.949-6.87-22.019-11.262-32.687-1.83-4.446-5.168-7.446-9.98-8.324-5.093-.929-10.246-.954-15.335.031-4.614.893-7.946 3.654-9.743 7.99-3.615 8.733-6.469 17.735-9.353 26.727-1.772-4.78-9.059-24.575-11.827-29.309-1.792-3.069-4.456-4.813-7.871-5.568-3.145-.696-6.322-.333-9.486-.405-6.21-.141-10.732 2.505-13.25 8.298-4.735 10.906-8.704 22.112-12.855 33.246-.575 1.546-.333 3.056 1.357 3.75 1.7.699 2.803-.248 3.561-1.74 1.825-3.595 12.863-24.902 13.009-24.864-.038.412-3.972 24.397-5.811 35.993-.626 3.945-1.783 4.621 3.661 4.427 1.83-.065 2.59.419 2.666 2.459.33 8.761 1.694 32.761 2.004 35.996.144 1.506 1.018 2.491 2.686 2.377 1.711-.121 2.467-1.173 2.562-2.804.285-4.941 1.674-29.084 2.093-36.211.046-.76-.036-1.729 1.128-1.635.99.08.847.979.884 1.656.449 7.977 1.865 32.115 2.147 36.207.11 1.613.847 2.715 2.58 2.773 1.624.055 2.441-.9 2.657-2.438.129-.908 1.399-23.212 1.985-33.446.27-4.672.32-4.715 4.866-4.897 1.6-.065 2.093-.654 1.829-2.24-1.478-8.858-5.589-34.356-6.218-38.235.749.512 12.604 24.087 13.435 25.483.55.923 1.365 1.405 2.333 1.329 1.364.191 2.245-.768 2.844-2.078 1.144-2.509 8.974-19.86 12.019-26.615.205 4.29-1.145 71.133-1.125 78.77.006 2.591 1.57 4.253 3.916 4.396 2.539.156 4.304-1.252 4.604-3.93.636-5.688 3.466-34.793 4.328-43.647.796 6.114 3.673 35.355 4.571 43.859.25 2.363 2.02 3.773 4.367 3.725 2.621-.055 4.219-1.797 4.137-4.813-.24-8.975-1.684-66.211-.885-77.698.678 1.464 8.479 18.7 11.688 25.862.681 1.517 1.679 2.553 3.435 2.009 1.881-.588 2.195-2.116 1.649-3.779z"/></svg>