<svg xmlns="http://www.w3.org/2000/svg" width="250" height="250" viewBox="0 0 250 250"><path fill-rule="evenodd" clip-rule="evenodd" d="M125.5 247.014C57.846 247.014 3 192.166 3 124.507S57.846 2 125.5 2 248 56.848 248 124.507s-54.846 122.507-122.5 122.507zm-49.851-86.182c0 4.808 4.46 8.448 9.329 8.448h81.017c4.869 0 9.344-3.641 9.344-8.448v-42.244h-42.241v11.829h-15.205v-11.829H75.649v42.244zm45.622-42.245v6.759c0 .48 1.201 1.689 1.688 1.689h5.068c.487 0 1.69-1.209 1.69-1.689v-6.759h-8.446zm8.448-1.689v-3.379c0-.481-1.203-1.69-1.69-1.69h-5.068c-.487 0-1.688 1.209-1.688 1.69v3.379h8.446zm48.989-16.335c0-4.809-3.568-9.013-8.438-9.013h-23.655c-5.215-6.446-12.298-10.138-20.79-10.138s-16.25 3.683-21.465 10.129l6.772.009H80.719c-4.87 0-8.453 4.204-8.453 9.013v13.969c0 .961.721 2.365 1.695 2.365h43.932l.099-8.5h14.991l.115 8.5h43.932c.974 0 1.679-1.404 1.679-2.365v-13.969zm-37.162-9.012h-30.413c4.202-3.791 8.79-5.917 14.692-5.917s11.519 2.126 15.721 5.917z" opacity=".15"/><path fill-rule="evenodd" clip-rule="evenodd" fill="#fff" d="M125.5 245.014C57.846 245.014 3 190.166 3 122.507S57.846 0 125.5 0 248 54.848 248 122.507s-54.846 122.507-122.5 122.507zm-49.851-86.182c0 4.808 4.46 8.448 9.329 8.448h81.017c4.869 0 9.344-3.641 9.344-8.448v-42.244h-42.241v11.829h-15.205v-11.829H75.649v42.244zm45.622-42.245v6.759c0 .48 1.201 1.689 1.688 1.689h5.068c.487 0 1.69-1.209 1.69-1.689v-6.759h-8.446zm8.448-1.689v-3.379c0-.481-1.203-1.69-1.69-1.69h-5.068c-.487 0-1.688 1.209-1.688 1.69v3.379h8.446zm48.989-16.335c0-4.809-3.568-9.013-8.438-9.013h-23.655c-5.215-6.446-12.298-10.138-20.79-10.138s-16.25 3.683-21.465 10.129l6.772.009H80.719c-4.87 0-8.453 4.204-8.453 9.013v13.969c0 .961.721 2.365 1.695 2.365h43.932l.099-8.5h14.991l.115 8.5h43.932c.974 0 1.679-1.404 1.679-2.365V98.563zm-37.162-9.012h-30.413c4.202-3.791 8.79-5.917 14.692-5.917s11.519 2.126 15.721 5.917z"/></svg>