<svg xmlns="http://www.w3.org/2000/svg" width="100" height="100" viewBox="0 0 100 100"><path d="M55.004 53h-9.001v-7h-25v25c0 2.846 2.639 5 5.521 5h47.949c2.883 0 5.531-2.154 5.531-5V46h-25v7zm-7-3c0 .284.712 1 1 1h3c.288 0 1-.716 1-1v-4h-5v4zm29-20h-14c-3.087-3.814-7.279-6-12.305-6-4.969 0-9.125 2.263-12.202 6H24.004C21.121 30 19 32.488 19 35.333v8.268c0 .568.428 1.399 1.004 1.399h26l.06-5.03h8.872l.068 5.03h26c.576 0 .994-.831.994-1.399v-8.268c0-2.845-2.111-5.333-4.994-5.333zm-34.976 0c2.452-2.164 5.248-3.502 8.671-3.502 3.494 0 6.816 1.259 9.305 3.502H42.028zm10.976 13c0-.284-.712-1-1-1h-3c-.288 0-1 .716-1 1v2h5v-2z"/></svg>