<svg xmlns="http://www.w3.org/2000/svg" width="100" height="100" viewBox="0 0 100 100"><path d="M69.97 37.23l-.02.02c-.29-.1-5.561-.17-5.561-.17C66.68 31 64.29 24.26 56.7 21c4.67 8.04 6.38 10.14-1.22 16.08h-9.94c-7.6-5.94-5.89-8.04-1.22-16.08-7.59 3.26-9.98 10-7.69 16.08 0 0-5.27.07-5.56.17l-.02-.02s-9.1 3.22-6.63 13.03c1.94-3.93 4.41-5.93 6.53-6.97l6.47 19.35c-2.48 1.42-4.16 4.08-4.16 7.13 0 4.54 3.7 8.211 8.27 8.211H59.1c4.57 0 8.271-3.671 8.271-8.211 0-2.92-1.54-5.47-3.84-6.93l6.54-19.55c2.12 1.04 4.59 3.04 6.52 6.97 2.469-9.81-6.621-13.03-6.621-13.03zM38.73 49.64c0-1.88 1.54-3.41 3.44-3.41 1.89 0 3.43 1.53 3.43 3.41 0 1.89-1.54 3.41-3.43 3.41-1.9 0-3.44-1.52-3.44-3.41zm6.98 22.05c-1.04 0-1.89-.851-1.89-1.9 0-1.04.85-1.9 1.89-1.9a1.9 1.9 0 1 1 0 3.8zm9.19 0a1.899 1.899 0 0 1-1.891-1.9c0-1.04.851-1.9 1.891-1.9 1.05 0 1.899.86 1.899 1.9a1.898 1.898 0 0 1-1.899 1.9zm3.95-18.64c-1.89 0-3.43-1.52-3.43-3.41 0-1.88 1.54-3.41 3.43-3.41 1.9 0 3.44 1.53 3.44 3.41 0 1.89-1.54 3.41-3.44 3.41z"/></svg>