<svg xmlns="http://www.w3.org/2000/svg" width="250" height="250" viewBox="0 0 250 250"><path d="M125 247.016c-67.654 0-122.5-54.85-122.5-122.508C2.5 56.848 57.346 2 125 2s122.5 54.848 122.5 122.507S192.654 247.016 125 247.016zm42.238-154.357l-.043.049c-.596-.209-11.348-.35-11.348-.35 4.676-12.447-.195-26.224-15.685-32.898 9.521 16.45 13.007 20.743-2.487 32.898h-20.289c-15.496-12.155-12.009-16.448-2.488-32.898-15.489 6.675-20.36 20.451-15.684 32.898 0 0-10.756.142-11.352.352l-.045-.051s-18.55 6.589-13.509 26.659c3.94-8.042 8.996-12.144 13.314-14.26l13.211 39.584c-5.078 2.897-8.507 8.336-8.507 14.58 0 9.278 7.554 16.801 16.873 16.801h35.854c9.318 0 16.873-7.521 16.873-16.801 0-5.967-3.133-11.191-7.838-14.174l13.346-39.988c4.315 2.114 9.371 6.216 13.311 14.256 5.046-20.068-13.507-26.657-13.507-26.657zm-22.681 32.369c-3.871 0-7.007-3.125-7.007-6.978 0-3.854 3.136-6.979 7.007-6.979s7.008 3.125 7.008 6.979c-.002 3.853-3.137 6.978-7.008 6.978zm-34.049 0c-3.871 0-7.009-3.125-7.009-6.978 0-3.854 3.138-6.979 7.009-6.979 3.87 0 7.007 3.125 7.007 6.979 0 3.853-3.137 6.978-7.007 6.978zm11.132 34.066a3.875 3.875 0 1 1-7.75 0 3.875 3.875 0 0 1 7.75 0zm18.728 0a3.875 3.875 0 1 1-7.75 0 3.875 3.875 0 0 1 7.75 0z" opacity=".15"/><path fill="#fff" d="M125 245.016c-67.654 0-122.5-54.85-122.5-122.508C2.5 54.848 57.346 0 125 0s122.5 54.848 122.5 122.507S192.654 245.016 125 245.016zm42.238-154.357l-.043.049c-.596-.209-11.348-.35-11.348-.35 4.676-12.447-.195-26.224-15.685-32.898 9.521 16.45 13.007 20.743-2.487 32.898h-20.289c-15.496-12.155-12.009-16.448-2.488-32.898-15.489 6.675-20.36 20.451-15.684 32.898 0 0-10.756.142-11.352.352l-.045-.051s-18.55 6.589-13.509 26.659c3.94-8.042 8.996-12.144 13.314-14.26l13.211 39.584c-5.078 2.897-8.507 8.336-8.507 14.58 0 9.278 7.554 16.801 16.873 16.801h35.854c9.318 0 16.873-7.521 16.873-16.801 0-5.967-3.133-11.191-7.838-14.174l13.346-39.988c4.315 2.114 9.371 6.216 13.311 14.256 5.046-20.068-13.507-26.657-13.507-26.657zm-22.681 32.369c-3.871 0-7.007-3.125-7.007-6.978 0-3.854 3.136-6.979 7.007-6.979s7.008 3.125 7.008 6.979c-.002 3.853-3.137 6.978-7.008 6.978zm-34.049 0c-3.871 0-7.009-3.125-7.009-6.978 0-3.854 3.138-6.979 7.009-6.979 3.87 0 7.007 3.125 7.007 6.979 0 3.853-3.137 6.978-7.007 6.978zm11.132 34.066a3.875 3.875 0 1 1-7.75 0 3.875 3.875 0 0 1 7.75 0zm18.728 0a3.875 3.875 0 1 1-7.75 0 3.875 3.875 0 0 1 7.75 0z"/></svg>