<svg xmlns="http://www.w3.org/2000/svg" width="100" height="100" viewBox="0 0 100 100"><path d="M75 59c-.822 0-2.051.344-2.932.629-1.248 3.823-3.702 7.214-7.022 9.826C63.643 72.188 62 76.018 62 79h-8s-.371-2.219-1.299-4.33c-1.368.203-2.765.33-4.201.33-1.895 0-3.729-.202-5.5-.551V79h-9S24 55.432 24 54c0-6.537 3.486-12.376 8.951-16.228-1.434 1.186-2.172 2.409-1.903 3.449.602 2.326 4.904-1.361 10.952-3.04 6.049-1.679 11.555-.713 10.953-3.039-.331-1.28-2.115-2.011-4.656-2.134.068 0 6.539.548 9.373 1.531C59.13 33.625 62.904 31.765 68 33c-3.285 1.556-2.982 2.667-2.971 5.522 3.242 2.55 5.688 5.833 6.965 9.551L72 48h4s1 .8 1 3v7s-.6 1-2 1zM62 46a3 3 0 1 0 0 6 3 3 0 0 0 0-6zM40 36a7 7 0 1 1 0-14 7 7 0 0 1 0 14z"/></svg>