<svg xmlns="http://www.w3.org/2000/svg" width="100" height="100" viewBox="0 0 100 100"><path d="M50.5 78C35.313 78 23 65.688 23 50.5 23 35.313 35.313 23 50.5 23 65.688 23 78 35.313 78 50.5 78 65.688 65.688 78 50.5 78zm9.756-33.137h-1.292c1.118-4.482-1.034-8.844-5.084-10.239-2.468-.848-7.956-1.1-9.807 1.435-.546.751-1.018 3.488.126 3.815.804.232 3.063-1.653 3.905-1.913 3.458-1.066 9.527 1.393 6.603 6.383a5.848 5.848 0 0 1-.342.521H41.729c-.93 0-1.018 3.013 0 3.013h8.425l-1.54.791c-1.623.805-3.265 1.74-4.552 3.111h-2.333c-.927 0-1.015 2.986 0 2.986h.59c-1.524 4.782 1.076 9.81 5.297 11.447 3.007 1.169 9.528 1.438 11.836-1.717.571-.784 1.013-3.574-.216-3.854-.534-.117-1.606.902-2.094 1.174-.983.553-2.049 1.022-3.135 1.276-2.087.488-4.715.394-6.426-1.177-1.555-1.43-2.142-4.309-1.008-6.236.182-.313.402-.615.658-.914h13.023c.935 0 1.011-2.988 0-2.988h-8.358l.725-.344c1.63-.841 4.826-3.559 4.826-3.559h2.809c.933.002 1.015-3.011 0-3.011z"/></svg>