<svg xmlns="http://www.w3.org/2000/svg" width="250" height="250" viewBox="0 0 250 250"><path d="M125.5 247.016C57.846 247.016 3 192.166 3 124.508 3 56.848 57.846 2 125.5 2S248 56.848 248 124.508c0 67.658-54.846 122.508-122.5 122.508zm40.412-145.081h-5.239c4.54-18.154-4.192-35.818-20.622-41.471-10.01-3.433-32.275-4.451-39.779 5.81-2.217 3.042-4.126 14.127.511 15.453 3.261.941 12.427-6.696 15.843-7.747 14.03-4.321 38.646 5.638 26.784 25.85a24.98 24.98 0 0 1-1.393 2.105H90.763c-3.771 0-4.127 12.2 0 12.2h34.173c-2.083 1.07-4.175 2.142-6.248 3.203-6.584 3.26-13.244 7.047-18.464 12.602h-9.461c-3.762 0-4.118 12.1 0 12.1h2.389c-6.181 19.367 4.367 39.729 21.487 46.361 12.196 4.732 38.654 5.82 48.011-6.952 2.324-3.177 4.107-14.479-.873-15.603-2.168-.48-6.516 3.653-8.493 4.749-3.992 2.236-8.31 4.144-12.716 5.173-8.463 1.977-19.125 1.594-26.063-4.765-6.307-5.788-8.688-17.45-4.09-25.261.739-1.264 1.631-2.492 2.669-3.704h52.828c3.792 0 4.099-12.101 0-12.101H132.01l2.938-1.39c6.609-3.406 19.578-14.414 19.578-14.414h11.389c3.789.002 4.114-12.198-.003-12.198z" opacity=".15"/><path fill="#fff" d="M125.5 245.016C57.846 245.016 3 190.166 3 122.508 3 54.848 57.846 0 125.5 0S248 54.848 248 122.508c0 67.658-54.846 122.508-122.5 122.508zm40.412-145.081h-5.239c4.54-18.154-4.192-35.818-20.622-41.471-10.01-3.433-32.275-4.451-39.779 5.81-2.217 3.042-4.126 14.127.511 15.453 3.261.941 12.427-6.696 15.843-7.747 14.03-4.321 38.646 5.638 26.784 25.85a24.98 24.98 0 0 1-1.393 2.105H90.763c-3.771 0-4.127 12.2 0 12.2h34.173c-2.083 1.07-4.175 2.142-6.248 3.203-6.584 3.26-13.244 7.047-18.464 12.602h-9.461c-3.762 0-4.118 12.1 0 12.1h2.389c-6.181 19.367 4.367 39.729 21.487 46.361 12.196 4.732 38.654 5.82 48.011-6.952 2.324-3.177 4.107-14.479-.873-15.603-2.168-.48-6.516 3.653-8.493 4.749-3.992 2.236-8.31 4.144-12.716 5.173-8.463 1.977-19.125 1.594-26.063-4.765-6.307-5.788-8.688-17.45-4.09-25.261.739-1.264 1.631-2.492 2.669-3.704h52.828c3.792 0 4.099-12.101 0-12.101H132.01l2.938-1.39c6.609-3.406 19.578-14.414 19.578-14.414h11.389c3.789.002 4.114-12.198-.003-12.198z"/></svg>