<svg xmlns="http://www.w3.org/2000/svg" width="100" height="100" viewBox="0 0 100 100"><path fill-rule="evenodd" clip-rule="evenodd" d="M83.013 69.988V52.006l-3.021-4.012v-14H86v35.994h-2.987zM52.077 75c-13.383 0-24.231-10.969-24.231-24.5S38.694 26 52.077 26c13.382 0 24.23 10.969 24.23 24.5S65.459 75 52.077 75zm0-46.2c-11.853 0-21.462 9.716-21.462 21.7s9.609 21.7 21.462 21.7 21.462-9.716 21.462-21.7-9.609-21.7-21.462-21.7zm0 42C40.989 70.8 32 61.711 32 50.5s8.989-20.3 20.077-20.3c11.088 0 20.077 9.089 20.077 20.3s-8.989 20.3-20.077 20.3zM25 45c0 1.537-1.479 2-3 2h-1.016v22.988h-2.987V47H17c-1.521 0-3-.463-3-2V33.994h2.987V44h1.01V33.994h2.987V44h1.01V33.994h3.021L25 45z"/></svg>