<svg xmlns="http://www.w3.org/2000/svg" width="46" height="52" viewBox="0 0 46 52"><path opacity=".15" d="M43 52H3c-1.7 0-3-1.3-3-3V9c0-1.7 1.3-3 3-3h2V3c0-.5.5-1 1-1h4c.5 0 1 .5 1 1v3h24V3c0-.5.5-1 1-1h4c.5 0 1 .5 1 1v3h2c1.7 0 3 1.3 3 3v40c0 1.7-1.3 3-3 3zM9 5c0-.5-.5-1-1-1s-1 .5-1 1v4c0 .5.5 1 1 1s1-.5 1-1V5zm30 0c0-.5-.5-1-1-1s-1 .5-1 1v4c0 .5.5 1 1 1s1-.5 1-1V5zm5 12c0-1.7-1.3-3-3-3H5c-1.7 0-3 1.3-3 3v30c0 1.7 1.3 3 3 3h36c1.7 0 3-1.3 3-3V17zm-3 21c.5 0 1 .5 1 1s-.5 1-1 1H29v7c0 .5-.5 1-1 1s-1-.5-1-1v-7h-8v7c0 .5-.5 1-1 1s-1-.5-1-1v-7H5c-.5 0-1-.5-1-1s.5-1 1-1h12V28H5c-.5 0-1-.5-1-1s.5-1 1-1h12v-8c0-.5.5-1 1-1s1 .5 1 1v8h8v-8c0-.5.5-1 1-1s1 .5 1 1v8h12c.5 0 1 .5 1 1s-.5 1-1 1H29v10h12zM27 28h-8v10h8V28z"/><path fill="#FFF" d="M43 50H3c-1.7 0-3-1.3-3-3V7c0-1.7 1.3-3 3-3h2V1c0-.5.5-1 1-1h4c.5 0 1 .5 1 1v3h24V1c0-.5.5-1 1-1h4c.5 0 1 .5 1 1v3h2c1.7 0 3 1.3 3 3v40c0 1.7-1.3 3-3 3zM9 3c0-.5-.5-1-1-1s-1 .5-1 1v4c0 .5.5 1 1 1s1-.5 1-1V3zm30 0c0-.5-.5-1-1-1s-1 .5-1 1v4c0 .5.5 1 1 1s1-.5 1-1V3zm5 12c0-1.7-1.3-3-3-3H5c-1.7 0-3 1.3-3 3v30c0 1.7 1.3 3 3 3h36c1.7 0 3-1.3 3-3V15zm-3 21c.5 0 1 .5 1 1s-.5 1-1 1H29v7c0 .5-.5 1-1 1s-1-.5-1-1v-7h-8v7c0 .5-.5 1-1 1s-1-.5-1-1v-7H5c-.5 0-1-.5-1-1s.5-1 1-1h12V26H5c-.5 0-1-.5-1-1s.5-1 1-1h12v-8c0-.5.5-1 1-1s1 .5 1 1v8h8v-8c0-.5.5-1 1-1s1 .5 1 1v8h12c.5 0 1 .5 1 1s-.5 1-1 1H29v10h12zM27 26h-8v10h8V26z"/></svg>