<svg xmlns="http://www.w3.org/2000/svg" width="37" height="29" viewBox="0 0 37 29"><path fill="#FFF" d="M28 0c3.1 0 5.6 2.3 5.6 5.3s-2.5 5.5-5.6 5.5c-.9 0-1.8-.2-2.5-.6-.2-2.2-1.4-4.1-3.1-5.4C22.6 2 25.1 0 28 0zm-4.5 10.8c0 3-2.5 5.5-5.6 5.5-3.1 0-5.6-2.4-5.6-5.5 0-3 2.5-5.5 5.6-5.5 3.1.1 5.6 2.5 5.6 5.5zM9.1 0c2.7 0 4.8 1.7 5.4 4.2-2.4 1.2-4.1 3.6-4.2 6.5-.4.1-.8.1-1.3.1-3.1 0-5.6-2.5-5.6-5.5S6 0 9.1 0zM0 20c0-4.9 4-8.8 9-8.8.4 0 .9 0 1.3.1.1 1.9.9 3.6 2.2 4.8-2.9 1.6-4.6 5.1-5.1 8.4-4 .1-7.4-.3-7.4-4.5zm17.8 9c-5 0-9 0-9-3.5 0-4.9 4.1-8.8 9-8.8 5 0 9 4 9 8.8.1 3.5-4 3.5-9 3.5zm10.9-4.5c-.6-3.3-2.5-6.8-5.4-8.4 1.2-1.2 2-2.8 2.2-4.6.8-.2 1.6-.4 2.5-.4 5 0 9 4 9 8.8 0 4.7-3.7 4.7-8.3 4.6z"/></svg>