<svg height="28" width="26" xmlns="http://www.w3.org/2000/svg" viewBox="0 0 26 28"><path fill="#fff" fill-rule="evenodd" d="M24 28H14V12h12v14c0 1.1-.9 2-2 2zM0 8c0-1.11.89-2 2-2h5.27C5.6 3.99 5.06 1.72 6.11.67 7.28-.5 9.97.29 12.12 2.44c.42.42.77.86 1.08 1.31.32-.48.7-.95 1.15-1.4C16.53.17 19.26-.63 20.44.56c1.08 1.07.52 3.39-1.21 5.44H24a2 2 0 0 1 2 2v2H0V8zm13.99-.99c.4.39 1.84-.41 3.23-1.79 1.38-1.39 2.19-2.83 1.79-3.23-.4-.4-1.84.41-3.23 1.79-1.38 1.39-2.19 2.83-1.79 3.23zm-4.7-1.74c1.04 1.04 2.11 1.74 2.74 1.85-.03-.43.02-.89.17-1.38-.32-.57-.84-1.23-1.49-1.88C9.34 2.49 7.92 1.7 7.52 2.09c-.39.39.41 1.81 1.77 3.18zM12 28H2a2 2 0 0 1-2-2V12h12v16z"/></svg>