<svg xmlns="http://www.w3.org/2000/svg" width="13" height="14" viewBox="0 0 13 14"><path fill-rule="evenodd" clip-rule="evenodd" fill="#FFF" d="M12 14H7V6h6v7c0 .6-.4 1-1 1zM0 4c0-.6.4-1 1-1h2.6C2.8 2 2.5.9 3.1.3c.6-.6 1.9-.2 3 .9.2.2.4.4.5.7.2-.3.4-.5.6-.7C8.3.1 9.7-.3 10.2.3c.6.5.3 1.7-.6 2.7H12c.6 0 1 .4 1 1v1H0V4zm7-.5c.2.2.9-.2 1.6-.9.7-.7 1.1-1.4.9-1.6s-.9.2-1.6.9c-.7.7-1.1 1.4-.9 1.6zm-2.4-.9c.6.6 1.1.9 1.4 1 0-.2 0-.4.1-.7-.2-.3-.4-.6-.7-1C4.7 1.2 4 .8 3.8 1c-.2.2.2.9.8 1.6zM6 14H1c-.6 0-1-.4-1-1V6h6v8z"/></svg>