<svg xmlns="http://www.w3.org/2000/svg" width="50" height="58" viewBox="0 0 50 58"><g fill="#FFF"><path d="M3 15.6l8.2-8.3-.1-.1c-1.5-1.4-4.6-.8-6.9 1.4-2.3 2.3-2.9 5.4-1.3 7H3zm43.9-6.5c-2.3-2.3-5.5-3.1-7-1.6l-.1.3 8.4 8.7c1.6-2 1-5.1-1.3-7.4z"/><path d="M26.5 7.8V4.5h6v-4h-16v4h6v3.3C9.5 9-.1 19.8-.1 32.9-.1 46.7 11.2 58 25.1 58 38.9 58 50 46.7 50 32.9 49.9 19.6 39.5 8.7 26.5 7.8zm-1.4 45.7c-10.6 0-19.4-8-20.7-18h4.1v-4H4.2c.7-10 8.3-18.4 18.3-19.5v4.5h4v-4.6c11 .9 19.4 9.8 19.4 20.7 0 11.5-9.1 20.9-20.8 20.9z"/><path d="M22.5 22.5h4v12h-4z"/></g></svg>