<svg xmlns="http://www.w3.org/2000/svg" width="50" height="55" viewBox="0 0 50 55"><path fill="#FFF" d="M43.6 20.5c0 5.7-4.7 10.3-10.4 10.3s-10.4-4.6-10.4-10.3c0-5.7 4.7-10.3 10.4-10.3 5.8 0 10.4 4.6 10.4 10.3zM17 0c5 0 9 3.2 10 7.9-4.5 2.3-7.7 6.9-7.8 12.2-.8.2-1.5.3-2.3.3-5.7 0-10.4-4.6-10.4-10.4C6.4 4.4 11.2 0 17 0zM0 37.9c0-9.2 7.5-16.7 16.8-16.7.8 0 1.6.1 2.4.2.2 3.6 1.7 6.8 4.1 9.1-5.3 3-8.5 9.7-9.5 15.9-7.5.3-13.8-.6-13.8-8.5zm33.1 17c-9.3 0-16.6.1-16.6-6.6 0-9.2 7.5-16.7 16.8-16.7s16.8 7.5 16.8 16.7c-.1 6.7-7.7 6.6-17 6.6z"/></svg>