<svg xmlns="http://www.w3.org/2000/svg" width="220" height="220" viewBox="0 0 220 220"><path d="M75.8 55.5h68.7v56H75.8z"/><path fill="#F9C795" stroke="#D09D6A" stroke-width=".5" stroke-miterlimit="10" d="M132.4 112.1c-2 2.8-15.7 11.7-21.5 11.5-.2 0-.5 0-.7-.1-.2 0-.5.1-.7.1-5.8.3-19.5-8.6-21.5-11.5-2-2.8-3.9-6.7-3-8.3.6-1.1 4.8-3.1 7.7-7.5.4-.6.8-1.3 1.1-2 .9-1.7 1.5-3.7 1.7-6 .1-.7.1-1.4.1-2.1V86c0-3.5-.2-6.6-.5-9.4-.2-1.7-.4-3.3-.6-4.6-.5-3.3-1-5.5-1.2-6.4-.1-.3-.1-.4-.1-.4s8.1-3 16.8-4.3c8.7 1.3 16.8 4.3 16.8 4.3s0 .1-.1.4c-.2.9-.7 3.1-1.2 6.4-.2 1.1-.3 2.2-.4 3.5-.3 3-.6 6.6-.6 10.6v.2c0 .7 0 1.5.1 2.1.2 2.1.8 4 1.5 5.5.4.9.9 1.7 1.4 2.5 2.9 4.5 7.1 6.5 7.7 7.5 1.1 1.5-.8 5.4-2.8 8.2z"/><path opacity=".5" fill="#F6A76A" d="M127.3 96.2c-1.5 1.4-2.6 2-2.6 2s-1.7 1.1-6.2 1c-2.3 2.3-8.9 1.7-8.9 1.7s-6.6.6-8.9-1.7c-4.4.1-6.2-1-6.2-1s-.8-.5-2-1.5c.1-.1.2-.3.3-.4.4-.6.8-1.3 1.1-2 .8-1.7 1.5-3.7 1.7-6 .1-.7.1-1.4.1-2.1V86c0-3.5-.2-6.6-.5-9.4-.2-1.7-.4-3.3-.6-4.6-.5-3.3-.9-5.5-1.2-6.4-.1-.3-.1-.4-.1-.4s8-3 16.6-4.3c8.6 1.3 16.6 4.3 16.6 4.3s-.1.1-.1.4c-.2.9-.7 3.1-1.2 6.4-.2 1-.3 2.2-.4 3.5-.3 3-.6 6.6-.6 10.6v.2c0 .7.1 1.5.1 2.1.2 2.1.8 4 1.5 5.5.6.8 1.1 1.6 1.5 2.3z"/><path fill="#F9C795" stroke="#D09D6A" stroke-width=".5" stroke-miterlimit="10" d="M130 15.3c-14.3-4.3-20.3-3.7-20.3-3.7s-6-.6-20.3 3.7-15.3 25.5-11.7 46.8c3.8 22.2 16.7 27.1 16.7 27.1s1.7 3.7 6.2 3.6c2.3 2.3 9 1.7 9 1.7s6.7.6 9-1.7c4.5.1 6.2-3.6 6.2-3.6s12.9-5 16.7-27.1c3.8-21.4 2.8-42.5-11.5-46.8z"/><radialGradient id="a" cx="225.106" cy="-85.156" r="14.758" gradientTransform="matrix(1.277 0 0 -1.277 -201.159 -36.145)" gradientUnits="userSpaceOnUse"><stop offset="0" stop-color="#ED1C24"/><stop offset="1" stop-color="#ED1C24" stop-opacity="0"/></radialGradient><circle opacity=".1" fill="url(#a)" cx="86.3" cy="72.6" r="18.8"/><radialGradient id="b" cx="261.754" cy="-85.156" r="14.748" gradientTransform="matrix(1.277 0 0 -1.277 -201.159 -36.145)" gradientUnits="userSpaceOnUse"><stop offset="0" stop-color="#ED1C24"/><stop offset="1" stop-color="#ED1C24" stop-opacity="0"/></radialGradient><path opacity=".1" fill="url(#b)" d="M151.9 72.6c0 10.4-8.4 18.8-18.8 18.8s-18.8-8.4-18.8-18.8 8.4-18.8 18.8-18.8 18.8 8.4 18.8 18.8z"/><path opacity=".5" fill="#F6A76A" d="M94.9 88.1s5.1 2.1 7.3 2.7c-2.1-3.1-2.5-4.4-2.6-6.3.2 1.2-.7 3.9-.7 3.9l-4-.3zm29.4-.3s-5.1 2.1-7.4 2.7c2.1-3.1 2.5-4.4 2.6-6.3-.2 1.2.7 3.9.7 3.9l4.1-.3z"/><path opacity=".2" fill="#F5B1A2" d="M116.4 74.3c-1-2.6-3.3-2-5.4-1.6-1.2.2-2.2 0-3.4-.3-1.2-.3-2.5-.4-3.4.6-.7.8.8.9 1.3 1.1 1.2.4 2 1.3 3.1 1.9 2.8 1.7 4.8-1.9 7.8-1.7-.1-.1-1.1-.1 0 0z"/><path fill="#AE8879" d="M107.6 74.1c.1.1.3.2.4.3l-1.2-1.2c-.2-.2-1.9-1.3-2.2-.8 0 .1 1.4.6 1.5.7.5.1 1.1.6 1.5 1zm4.2.1c-.1.1-.3.2-.4.3.4-.4.8-.8 1.3-1.1.2-.2 2-1.1 2.2-.6 0 .1-1.5.5-1.6.5-.4.2-1 .6-1.5.9z"/><path opacity=".2" fill="#F5B1A2" d="M106.7 75c-.7-.8-1.8-1.5-2.9-1.2 1-1.8 4 1.2 5 1.5 1.3.4 2.5-.2 3.7-.8 1.3-.7 2.6-.9 4-.3-.8.3-1.6.2-2.4.6-.9.4-1.7 1-2.5 1.5-1.9 1-3.6.1-4.9-1.3-.7-.8.8.8 0 0z"/><path opacity=".2" fill="#F5B1A2" d="M114.1 73.3c1.1 1.2-2.4 2.8-3.3 2.7.2-1 2.1-4 3.3-2.7zm-8.7-.2c-1.1 1.2 2.4 2.8 3.3 2.7-.2-1-2.1-4-3.3-2.7z"/><path opacity=".5" d="M115.8 72.8s1.6-.6 1.3-2.1c-.3-1.5-1.1-2.3-1.1-2.3s1.3 1.1 1.4 2.6c0 1.5-1.6 1.8-1.6 1.8zm-12-.1s-1.6-.6-1.3-2.1 1.1-2.3 1.1-2.3-1.3 1-1.4 2.6c0 1.5 1.6 1.8 1.6 1.8z" fill="#F6A76A"/><path opacity=".3" fill="#FDE9D7" d="M114.8 65.7s-.9-.4-1.2-2c-.3-1.6-1.5-4.4-2.1-.7-.6 3.6-.4 5.5.9 5 1.9-.7 3.2-.2 3.3-1 0-.5-.3-1-.9-1.3z"/><path fill="#EAA76F" d="M127.5 39.2c-10.7 3.9-22 4.2-33 1.6 11.4 1 21.8.3 33-1.6zm-2.1 3.7c-10.7 3.9-22 4.2-33 1.6 11.4 1 21.8.3 33-1.6z" opacity=".5"/><path fill="#B54A37" d="M109.6 80.8c-1.9 0-3.6-.1-5.1-.2l-1-.1c-2.3-.1-3.4-.2-4.1-.9-.6-.6-1.1-.2-1.4-.3h-.3c-.3-.1-.4-.2-.4-.2h.2c.2 0 .4 0 .7.1.7.2 1.5.4 1.5.4 1.4.9 5.2 1 7.4 1h5.4c2.5 0 5.6-.1 6.9-.9 0 0 .8-.2 1.5-.4.3-.1.5-.1.7-.1h.2s0 .1-.4.3h-.2c-.3 0-.7-.3-1.4.2-1.2.8-1.9.8-3.4.8-.5 0-1.2 0-2 .1-1.2.1-2.9.2-4.8.2z"/><path opacity=".5" fill="#F6A76A" d="M99.1 75c-2.6-.7-4.3 3.6-5.7 5-.1-1.6.7-3.4 1.8-4.6.9-.9 3-1.9 3.9-.4zm22.3.7c2.6-.7 4.3 3.6 5.7 5 .1-1.6-.7-3.4-1.8-4.6-.9-.9-2.9-1.9-3.9-.4z"/><path fill="#FF5D47" d="M115.5 79.3c-.2 0-4.4-.2-5.8.5-1.4-.7-5.5-.4-5.8-.5-.2 0-4.1.3-4.1.3 5.3 6.7 9.7 6.1 9.9 6 .2 0 4.6.7 9.9-6 0 0-3.9-.3-4.1-.3z"/><path fill="#FFF" d="M116.6 80.4s-5.3.6-6.9.6c-1.6 0-6.9-.6-6.9-.6 3.1 3.1 6.7 2.8 6.9 2.7.2.1 3.8.4 6.9-2.7z"/><path opacity=".5" fill="#F6A76A" d="M88.3 57s-1.7 4.5 5.2 4.5c5.8-.6 7.3-1.1 9.2-.7-.3-.5-1.1-.9-1.1-.9s-5.9.3-8.3-.1c-2.4-.4-5-2.8-5-2.8zm1.7-1s3.5-4.5 8.5-3.1c4.1.9 5.2 2.3 5.2 2.3s-3.4-1-4.1-.8c1.5 1 2.5 4 2.2 4.7-.3.7-3.5-3-3.5-3L90 56z"/><path fill="#FFF" d="M87.9 57.2s1 3 5.9 3.3c4.9.2 7.5-.3 7.9-.2.5.2-1.3-4.9-5.8-5.6-4.5-.8-8 2.5-8 2.5z"/><radialGradient id="c" cx="168.781" cy="-455.562" r="2.554" gradientTransform="scale(1.277 -1.277) rotate(-9.243 2661.244 334.815)" gradientUnits="userSpaceOnUse"><stop offset="0" stop-color="#28353D"/><stop offset=".508" stop-color="#27323B"/><stop offset=".809" stop-color="#222A33"/><stop offset="1" stop-color="#1D2029"/></radialGradient><path fill="url(#c)" d="M91.6 55.2s-1.7 4.3 2.7 5.1c4.4.9 4.2-4.4 4.2-4.4s-.9-1.3-3.1-1.4c-2.3 0-3.8.7-3.8.7z"/><path fill="#212121" d="M96.5 57.6c-.2 1-1.1 1.6-2 1.5-1-.2-1.6-1.1-1.5-2 .2-1 1.1-1.6 2-1.5 1 .1 1.6 1 1.5 2z"/><path fill="#FFF" d="M92.1 57.8c.3.3.7.3.9 0 .3-.3.3-.7 0-.9-.3-.3-.7-.3-.9 0-.3.2-.3.6 0 .9zm1.7-.3c.2.2.5.2.7 0s.2-.5 0-.8c-.2-.2-.5-.2-.7 0-.2.3-.2.6 0 .8z"/><path fill="#666" d="M87.9 57.2s.6-1 2-2c.7-.5 1.6-.9 2.7-1.1.5-.1 1.1-.2 1.7-.1.6 0 1.1.1 1.7.2.3.1.5.1.8.2.3.1.5.2.8.3.5.2 1 .4 1.5.7.9.6 1.6 1.3 2.1 2s.7 1.4.9 1.8c.1.5.2.7.2.7h-.1s-.1-.3-.2-.7c-.2-.4-.5-1-1-1.7-.5-.6-1.2-1.2-2.1-1.7-.4-.2-.9-.4-1.4-.6l-.7-.2c-.3-.1-.5-.1-.8-.1-.5-.1-1-.1-1.5-.1s-1 .1-1.5.2c-.9.2-1.8.5-2.5.8-.4.2-.7.3-1 .5-.3.2-.5.3-.7.4-.6.4-.9.6-.9.5z"/><path opacity=".5" fill="#F6A76A" d="M103.7 57.1c1.5.5 1.1 3-.5 3.1.6-1.1.7-1.9.5-3.1z"/><path fill="#EAA76F" d="M88.2 56.8s-.4.2-1 .3c-.6.2-1.4.3-2.2.3s-1.6 0-2.2-.1c-.6-.1-1-.2-1-.2s.4-.2 1-.3c.6-.2 1.4-.3 2.2-.3s1.6 0 2.2.1c.6 0 1 .2 1 .2zM88.1 57.9s-.4.2-1 .3c-.6.2-1.4.3-2.2.3-.8 0-1.6 0-2.2-.1-.6-.1-1-.2-1-.2s.4-.2 1-.3c.6-.2 1.4-.3 2.2-.3.8 0 1.6 0 2.2.1.6 0 1 .2 1 .2z"/><path fill="#686868" d="M104.5 52.4c.1.1.1.1 0 .2-5.4-1.9-12.8-7.5-17.8-1.7 3.4-7 13.8-2.5 17.8 1.5l-.1.1.1-.1z"/><path opacity=".5" fill="#F6A76A" d="M131.2 57s1.7 4.5-5.2 4.5c-5.8-.6-7.3-1.1-9.2-.7.3-.5 1.1-.9 1.1-.9s5.9.3 8.3-.1c2.3-.4 5-2.8 5-2.8zm-1.7-1s-3.5-4.5-8.5-3.1c-4.1.9-5.2 2.3-5.2 2.3s3.4-1 4.1-.8c-1.5 1-2.5 4-2.2 4.7.3.7 3.5-3 3.5-3l8.3-.1z"/><path fill="#FFF" d="M131.5 57.2s-1 3-5.9 3.3c-4.9.3-7.4-.3-7.9-.2-.5.2 1.3-4.9 5.8-5.6 4.5-.8 8 2.5 8 2.5z"/><radialGradient id="d" cx="4293.204" cy="215.736" r="2.555" gradientTransform="rotate(170.752 2812.444 -50.157) scale(1.277)" gradientUnits="userSpaceOnUse"><stop offset="0" stop-color="#28353D"/><stop offset=".508" stop-color="#27323B"/><stop offset=".809" stop-color="#222A33"/><stop offset="1" stop-color="#1D2029"/></radialGradient><path fill="url(#d)" d="M127.8 55.2s1.7 4.3-2.7 5.1c-4.4.9-4.2-4.4-4.2-4.4s.9-1.3 3.1-1.4c2.3 0 3.8.7 3.8.7z"/><path fill="#212121" d="M122.9 57.6c.2 1 1.1 1.6 2 1.5 1-.2 1.6-1.1 1.5-2-.2-1-1.1-1.6-2-1.5-1 .1-1.6 1-1.5 2z"/><path fill="#FFF" d="M127.4 57.8c-.3.3-.7.3-.9 0-.3-.3-.3-.7 0-.9.3-.3.7-.3.9 0 .2.2.2.6 0 .9zm-1.8-.3c-.2.2-.5.2-.7 0-.2-.2-.2-.5 0-.8.2-.2.5-.2.7 0 .2.3.2.6 0 .8z"/><path fill="#666" d="M131.5 57.3s-.2-.2-.6-.4c-.2-.1-.4-.3-.7-.4-.3-.2-.6-.3-1-.5-.7-.3-1.6-.6-2.5-.8-.5-.1-1-.2-1.5-.2s-1 0-1.5.1c-.3 0-.5.1-.8.1l-.7.2c-.5.2-1 .3-1.4.6-.9.5-1.6 1.1-2.1 1.7-.5.6-.8 1.2-1 1.7-.2.4-.2.7-.2.7h-.1s0-.3.2-.7c.1-.5.4-1.1.9-1.8s1.2-1.4 2.1-2c.4-.3.9-.5 1.5-.7.3-.1.5-.2.8-.3.3-.1.5-.1.8-.2.6-.1 1.1-.2 1.7-.2.6 0 1.1 0 1.7.1 1.1.2 2 .7 2.7 1.1 1.2.8 1.7 1.8 1.7 1.9z"/><path opacity=".5" fill="#F6A76A" d="M115.7 57.1c-1.5.5-1.1 3 .5 3.1-.6-1.1-.7-1.9-.5-3.1z"/><path fill="#EAA76F" d="M131.2 56.8s.4-.1 1-.2 1.4-.1 2.2-.1c.8 0 1.6.2 2.2.3.6.1 1 .3 1 .3s-.4.2-1 .2c-.6.1-1.4.1-2.2.1-.8 0-1.6-.2-2.2-.3-.6-.1-1-.3-1-.3zM131.3 57.9s.4-.1 1-.2 1.4-.1 2.2-.1 1.6.2 2.2.3c.6.1 1 .3 1 .3s-.4.2-1 .2c-.6.1-1.4.1-2.2.1s-1.6-.2-2.2-.3c-.6-.2-1-.3-1-.3z"/><path d="M115.1 52.5l-.1-.1c3.8-4 14.6-8.5 17.8-1.5-5-5.9-12.5 0-17.7 1.6m0 0s-.1 0 0 0" fill="#686868"/><g><path fill="#4EB7B4" stroke="#439E9B" stroke-width=".5" stroke-miterlimit="10" d="M186.5 220s1.9-10.2 1.9-22.2c0-28.8-8.6-51.4-8.6-51.4-.1-.2-8.8-26.1-17.8-29-9-2.9-29.4-12.6-29.4-12.6s-1.1 6.5-1.1 12.8c0 31.5-21.9 27.4-21.9 27.4s-21.9 4.1-21.9-27.4c0-6.3-1.1-12.8-1.1-12.8s-20.4 9.7-29.4 12.6c-9 2.9-17.8 29-17.8 29S31 169 31 197.8c0 12 1.9 22.2 1.9 22.2h24.7s-7.9-40 2.2-61.7c.1.1.1 4-.4 5.6-.5 1.6-.8 3.3-1.1 5-.5 3.7-.7 7.4.4 11 .1.3.2.5.3.8 1 3 2.6 5.7 4.2 8.4 4.4 7.3 3.1 15.2 2.8 23.7 0 .3-.7 4.4-1.4 7.3h89.8s-.8-1-.8-7.3c0-8.5-1.6-16.5 2.8-23.7 1.6-2.6 3.2-5.3 4.1-8.2.1-.3.2-.6.3-1 1-3.6.9-7.3.4-11-.2-1.7-.5-3.3-1.1-5-.5-1.6-.5-5.5-.4-5.7 10.1 21.7 2.2 61.7 2.2 61.7l24.6.1z"/><path fill="#439E9B" d="M156.3 189c-4.4 7.3-2.8 15.2-2.8 23.7 0 6.5.8 7.3.8 7.3h-3.4l-1.1-2.9-.4-10c-3.5-10.5-75.5-10.5-79-.1l-.4 2.5.1 10.5h-5.5c.7-2.9 1.4-7 1.4-7.3.3-8.5 1.6-16.5-2.8-23.7-1.6-2.7-3.2-5.4-4.2-8.4 9.1 2.7 20.4-2.1 49.5-2.1 27.9-.1 41.4 4.9 52 2.3-1.1 2.9-2.6 5.6-4.2 8.2z"/><path fill="#FBCA6B" d="M136.7 102.1s-1.3-1.2-3.1 1.3c-10.5 14-23.1 20.3-23.8 20.5-.8-.2-13.4-6.5-23.8-20.5-1.9-2.5-3.1-1.3-3.1-1.3s-10.6 2.2-5.6 13.6c2.8 6.4 6.3 12.6 10.1 18.5 2.2 3.5 4.7 6.7 7.2 10 2.3 3 5 5.5 7.9 8 1.3 1.2 2.6 2.5 4.2 3.3 1.4.7 4.2.4 5.7.1 1.6-.4 2.9-1.3 4.1-2.4 2.7-2.5 5.4-5.1 7.8-7.8 2.7-3.1 5-6.6 7.3-10 2.2-3.3 4.3-6.7 6.2-10.2 1.7-3.1 3.3-6.2 4.8-9.5 4.7-11.4-5.9-13.6-5.9-13.6z"/></g><g fill="#FFF"><path d="M88.2 99.9s-10.6 1.3-20.8 9.2c-2.8 3.8 4.4 17.7 6.7 20.3 0 0 6.5 8.9 24.5 14.1l11.4-20.2s-18.3-8-21.8-23.4z"/><path d="M131.8 99.9s10.6 1.3 20.8 9.2c2.8 3.8-4.4 17.7-6.7 20.3 0 0-6.4 8.9-24.5 14.1L110 123.3s18.3-8 21.8-23.4z"/></g><path fill="#2B2B2B" d="M158.2 72.2c-2.4 11.7-11.3 26.1-10.5 38.1.5 6.7 5.1 11.9 6.2 18.4.6 3.7-1.8 8.6-1.2 11.7-2.2-10-16.3-13.7-18.4-25.3-2.9-16.2 6-32 5.1-48.2-.6-10.9-18.1-42.2-31.5-36.9-10 3.9-18.9 13.8-25.3 22.5-7.6 10.3-3.2 20.1-.3 31.4 3.5 13.8 0 21.5-5.3 33.9-3.1 7.3 1.3 12.3.7 19.4-.4 4.6-4.5 9.3-7.9 11.9 6.2-13-4.9-19-5.8-30.9-1-14.5 9.1-25.6 3-40.2-5.1-12.3-11.6-22.5-.6-33.4 2.6-2.6 1.9-8.5 2.7-12 1.4-5.8 5.4-10.8 9.1-15.2 6.6-8 19.2-21.2 30.7-16.4 7.1 3 14.4-3.9 21.9 1.8C149 16.6 163 49.1 158.2 72.2c-.7 3.1 1-4.7 0 0z"/><g opacity=".2"><path fill="#FFF" d="M112.5 24.2C99.5 28.9 91 34 83.8 46c-3.1 5.1-7.8 10.2-9.3 16-1.5 5.6 0 11.4.8 17 1.3 9.7-2.5 16.7-3.6 25.9-.9 6.3 3.1 11.6 1.2 18.2.5-2.9-.2-5.6-.2-8.4-3.2-6.4-2-12-.2-18.6 3.1-12.1-2-23.8.4-35.8 1.8-5.7 6.4-10.2 9.4-15.3 7.4-12.3 16.8-16.9 30.2-20.8z"/></g><g opacity=".2"><path fill="#FFF" d="M112.5 24.2c8.3 4.4 17 8.4 24.3 14.3 10.3 8.7 10.6 20.2 11.7 32.8.9 9.7-4.2 16.6-7.3 25.3-3.3 9.2 1.1 21.4 6.8 29-4.7-5-9.3-14.4-9.7-21.3-.3-5.2 1.6-10.1 3.8-14.7 3.4-7.4 4.4-12.9 4-21-.6-10.8-1.7-21.6-10.5-29-7-6.1-15.3-10.5-23.1-15.4z"/></g><g opacity=".2"><path fill="#FFF" d="M112.5 24.2c-11.5-1.8-18.8 4.3-26.8 11.7-4.4 4.1-8.5 5.9-10 12.1-1.1 4.9-5.2 8.3-6.4 13.1.1-4.3 3.3-7.2 4.3-11.2 1.9-6.7 3.6-9 8.6-13.5 8.1-7.3 18.2-17.8 30.3-12.2z"/></g><g opacity=".2"><path fill="#FFF" d="M112.2 24.2c9-.1 18.9-1.7 25.7 5.3 2.8 2.9 2.7 5.3 3.6 8.7 0 3.8 3.3 7.1 4.9 10.4 5.6 8 8.1 21.4 3.9 30.8-1.9 4.2-5.6 7.4-6.7 11.9-1.1 4.2-.4 8.7 0 12.9-1.8-10.2.1-14.7 4.5-23.5 3.9-7.2 2.9-22.1-1.8-28.8-2.3-3.3-5-7-6.2-10.8-1.2-3.2.2-5.5-2.1-8.6-5.8-8.7-16.6-7.3-25.8-8.3z"/></g></svg>