<svg xmlns="http://www.w3.org/2000/svg" width="220" height="220" viewBox="0 0 220 220"><path d="M70.797 45.611h77.066v83.233H70.797z"/><path fill="#fc9" stroke="#D09D6A" stroke-width=".5" stroke-miterlimit="10" d="M166.372 135.104s-1.435-7.323-3.157-8c-3.785-1.49-8.13-2.099-12.087-3.037-5.394-1.278-11.683-1.84-16.692-4.159-4.24-1.962-7.641-5.242-9.701-9.247-2.346-4.559-1.946-9.004-1.875-13.895.009-.584.219-9.539.045-9.539H97.072c0 6 .917 12.403-.049 18.352-.952 5.895-5.762 11.701-11.343 14.415-2.344 1.143-4.843 1.323-7.376 1.854-5.555 1.163-11.083 2.563-16.587 3.934-1.64.41-3.383.699-4.954 1.322-1.722.676-3.157 8-3.157 8l56.671 31.23 56.095-31.23z"/><path fill="#685D18" d="M194.627 219.991s-.639-9.597-.639-20.939c0-27.231-10.508-50.971-10.508-50.971l-.027-.001c-.1-.229-10.758-24.693-19.207-27.395-8.479-2.713-32.607-2.219-32.607-2.219s-1.005 6.176-1.005 12.098c0 29.744-20.641 25.873-20.641 25.873s-20.651 3.873-20.651-25.873c0-5.922-1.005-12.098-1.005-12.098s-24.131-.494-32.607 2.219c-8.478 2.715-19.211 27.405-19.211 27.405s-10.507 23.739-10.507 50.972c0 11.342-.64 20.938-.64 20.938h23.323s-.196-37.776 9.335-58.315c.124.125.229.279.299.492.547 1.616-.192 3.292-.687 4.825-.498 1.531-.792 3.101-1.008 4.69-.483 3.451-.625 6.973.356 10.361.078.254.154.508.244.748.904 2.799 2.435 5.379 3.964 7.901 4.131 6.862 7.726 14.353 7.444 22.422-.012.289-.662 4.112-1.299 6.874h84.776s-.785-.909-.785-6.874c0-8.075 3.313-15.56 7.456-22.422 1.491-2.485 2.983-5.007 3.914-7.745.114-.302.204-.604.291-.905.972-3.389.83-6.911.358-10.36-.217-1.592-.51-3.16-1.021-4.691-.497-1.532-1.224-3.208-.687-4.825a1.22 1.22 0 0 1 .316-.512l.005.011c9.531 20.538 9.337 58.315 9.337 58.315h23.324v.001z"/><path opacity=".5" fill="#F6A76A" d="M122.857 96.762c-.037 2.146-.121 4.221-.024 6.235-5.886 2.026-11.229 2.967-12.651 3.197h-.387c-1.411-.229-6.659-1.146-12.471-3.137.421-5.209-.253-10.674-.253-15.825h25.836c.168.001-.037 8.951-.05 9.53z"/><path fill="#fc9" stroke="#D09D6A" stroke-width=".5" stroke-miterlimit="10" d="M140.184 44.836c-6.006-10.427-16.709-28.635-16.709-28.635H96.317S85.612 34.409 79.608 44.836c-6.005 10.429-2.088 25.215 2.002 38.379 3.806 12.25 25.166 16.427 28.114 16.953h.346c2.946-.525 24.306-4.702 28.114-16.953 4.089-13.164 8.005-27.95 2-38.379z"/><path opacity=".5" d="M134.197 57.958s1.761 5.913-7.027 5.205c-7.318-1.31-9.1-2.058-11.552-1.701.461-.627 1.444-.986 1.444-.986s7.441.973 10.478.607c3.04-.364 6.657-3.125 6.657-3.125zm-2.056-1.468s-3.961-5.993-10.527-4.748c-5.325.754-6.844 2.462-6.844 2.462s4.451-.917 5.33-.661c-2.047 1.088-3.59 4.778-3.221 5.71.375.933 4.702-3.502 4.702-3.502l10.56.739zm-17.522.151c-1.962.528-1.707 3.755.345 3.917-.646-1.379-.73-2.464-.345-3.917z" fill="#F6A76A"/><path fill="#1A1A1A" d="M115.545 51.507c3.677-6.682 11.915-5.898 17.795-2.589-5.852-1.882-12.592-.792-17.795 2.589z"/><path fill="#D9AA8E" d="M116.396 60.399s2.244-7.387 8.41-8.117c7.492-.882 8.59 5.699 7.905 4.403 0 0-3.721-2.99-9.869-.759-4.955 1.797-6.446 4.473-6.446 4.473z"/><path fill="#EACBBA" d="M125.557 52.681s2.774-.127 4.147.646c1.374.766 2.067 2.292 2.067 2.292s-2.867-.556-3.303-1.437c-.402-.818-2.911-1.501-2.911-1.501z"/><path fill="#C78A66" d="M117.607 59.013c1.209-2.618 2.445-4.246 4.5-5.546 1.154-.728 1.781-.864 1.781-.864s-1.688.796-1.818 1.533c-.102.575 1.283 1.045 1.283 1.045-1.674.972-2.07 1.083-3.125 1.663-.714.396-2.621 2.169-2.621 2.169z"/><path fill="#fff" d="M132.729 56.98s-.002 3.578-5.656 4.464c-5.639.883-10.662-1.331-10.662-1.331s2.771-3.814 8.4-4.75c5.63-.936 7.918 1.617 7.918 1.617z"/><radialGradient id="a" cx="2220.125" cy="214.675" r="2.989" gradientTransform="rotate(175.56 1175.754 95.528)" gradientUnits="userSpaceOnUse"><stop offset="0" stop-color="#28353D"/><stop offset=".508" stop-color="#27323B"/><stop offset=".809" stop-color="#222A33"/><stop offset="1" stop-color="#1D2029"/></radialGradient><path fill="url(#a)" d="M125.4 55.435c1.402-.32 2.164-.318 2.529.126a3.21 3.21 0 0 1-2.234 5.24 3.211 3.211 0 0 1-3.323-4.152c.166-.529 1.966-.969 3.028-1.214z"/><path fill="#212121" d="M127.182 57.318a1.74 1.74 0 0 1-1.601 1.862 1.729 1.729 0 0 1-1.858-1.594 1.73 1.73 0 0 1 1.592-1.865 1.742 1.742 0 0 1 1.867 1.597z"/><g fill="#fff"><circle cx="123.188" cy="57.165" r=".639"/><path d="M124.434 57.063c.241.16.563.083.715-.156a.516.516 0 0 0-.155-.718.526.526 0 0 0-.718.153.52.52 0 0 0 .158.721z"/></g><path fill="#1A1A1A" d="M116.41 60.113s3.148-5.265 10.349-6.217c5.72-.763 8.07 2.342 8.07 2.342l-2.103.865s-2.584-2.163-6.67-1.685c-5.368.622-8.952 3.906-9.646 4.695z"/><path fill="#B76B2C" d="M117.73 60.638s6.965 2.152 11.924-.07c2.527-1.131 3.017-2.87 3.017-2.87s-.085 2.808-3.588 3.674c-5.929 1.457-11.353-.734-11.353-.734z"/><path fill="#564C12" d="M158.811 190.704c-4.144 6.862-7.457 14.348-7.457 22.422 0 6.126.787 6.874.787 6.874h-3.248l-1.07-2.714-.395-2.231c-3.277-9.914-70.097-9.914-73.386-.084l-.358 2.364L72.577 220h-5.215c.638-2.761 1.288-6.585 1.301-6.874.28-8.069-3.315-15.56-7.444-22.422-1.53-2.522-3.06-5.103-3.965-7.901 8.565 2.557 24.105 5.234 51.562 5.248 26.387-.06 43.952-2.605 53.909-5.091-.933 2.738-2.424 5.258-3.914 7.744z"/><path fill="#1A1A1A" d="M156.704 68.176c-.64 2.979-1.589 5.839-2.458 8.733-1.893 6.333-3.809 12.748-5.984 18.949-.984 2.799-1.969 5.15-1.738 8.273.272 3.885 1.978 7.105 3.654 10.374 1.692 3.306 2.793 6.925 2.74 10.759a20.683 20.683 0 0 1-.669 4.885c-.106.435-.858 1.979-.765 2.389-.868-3.764-6.896-6.586-13.938-15.125-7.043-8.553-4.355-21.542-1.088-35.135 3.264-13.594 2.541-23.593 0-29.153-2.543-5.549-18.143-27.778-26.273-27.778-1.339 0-3.025.687-4.887 1.834-1.52.94-3.162 2.183-4.855 3.63C91.57 38.36 81.306 51.29 80.49 53.389c-1.162 2.991-3.706 9.311-.22 18.286 3.484 8.974 4.718 17.778 4.145 23.085-.587 5.295-5.955 13.413-7.912 19.059-1.967 5.645 2.177 10.516 1.706 15.812-.46 5.211-7.5 11.097-7.722 11.265.137-.277 2.449-5.018 2.093-10.239-.377-5.585-5.389-9.964-6.999-15.124-1.591-5.104-.409-10.291.993-15.247 1.434-5.089 3.182-10.349 3.788-15.692.324-2.822-.261-5.018-1.255-7.562-1.715-4.428-3.808-8.636-5.672-12.991-1.935-4.548-4.352-9.709-1.809-14.643 1.411-2.763 3.462-5.163 5.587-7.213 1.59-1.544 1.674-4.655 1.903-7.105.033-.398.074-.783.126-1.145.451-3.16 1.245-6.175 2.941-8.768a81.817 81.817 0 0 1 4.173-5.826c3.035-3.896 6.394-7.407 10.16-10.507C90.46 5.59 94.679 2.104 99.439.645c6.675-2.052 11.323 1.458 11.323 1.458.334.241 2.322-.482 2.688-.554 1.661-.314 3.307-.712 4.959-1.063 3.978-.868 8.183-.301 11.657 2.244 2.227 1.629 4.279 3.521 6.172 5.632.125.122.242.253.355.385a50.736 50.736 0 0 1 2.782 3.414c2.45 3.208 4.616 6.684 6.646 10.241 2.856 5.006 5.754 10.096 7.617 15.716 1.737 5.235 2.773 10.711 3.316 16.271.439 4.487.713 9.348-.25 13.787z"/><path opacity=".5" fill="#F6A76A" d="M96.184 128.877c3.197-.639 6.391-1.051 9.64-1.313.405-.034 1.185-.278 1.494.013.118.125.188.383.261.536.497 1.051 1.397 1.937 2.631 1.859 1.142-.074 2.038-.947 2.642-1.852.082-.123.147-.294.246-.404.217-.438.922-.179 1.272-.148 3.175.272 6.299.682 9.423 1.31-1.635-.093-3.27-.231-4.9-.394-1.809-.184-3.654-.152-5.47-.26.12-.025.257-.033.32-.166-.644 1.254-1.853 2.582-3.35 2.695-1.783.137-3.122-1.137-3.68-2.757.033.122.247.196.353.214-1.812.1-3.623.164-5.432.225-1.813.18-3.632.342-5.45.442.895-.178.912-.049 0 0z"/><path opacity=".1" fill="#fff" d="M139.376 12.161c-2.396 4.271-2.456 7.986-9.103 10.156l-.031.013c-9.176 3.027-14.744-7.417-22.528 2.086-.795.978-1.59 1.917-2.416 2.763-1.508 1.591-3.087 2.894-4.855 3.63-2.124.88-4.511.952-7.355-.326-14-6.248-14.523-1.013-23.973 4.595.033-.398.074-.783.126-1.145.451-3.16 1.245-6.175 2.941-8.768a81.817 81.817 0 0 1 4.173-5.826c1.904-.628 4.145-.676 6.792.072 9.972 2.774 13.288 8.6 21.156-.833 6.896-8.262 13.259-3.858 22.382-1.856 7.867 1.724 7.188-3.572 9.553-8.36.125.122.24.253.354.385a50.458 50.458 0 0 1 2.784 3.414zM127.154 30.31c5.348 2.627 10.275 5.892 14.297 10.632 4.598 5.419 7.056 12.697 7.41 20.036.363 7.613-1.155 15.2-2.225 22.68-1.043 7.28-1.947 14.577-1.363 21.958.433 5.536 1.92 10.755 3.602 15.962-3.141-5.271-5.412-10.855-6.43-17.086-1.188-7.263-.73-14.727.137-22.004.882-7.388 2.453-14.859 2.09-22.344-.357-7.357-2.729-14.217-7.189-19.781-3.075-3.831-6.665-6.939-10.329-10.053z"/><radialGradient id="b" cx="139.081" cy="-25.091" r="14.915" gradientTransform="matrix(1 0 0 -1 -47.6 50.01)" gradientUnits="userSpaceOnUse"><stop offset="0" stop-color="#ED1C24"/><stop offset="1" stop-color="#ED1C24" stop-opacity="0"/></radialGradient><circle opacity=".1" fill="url(#b)" cx="91.481" cy="75.101" r="14.915"/><radialGradient id="c" cx="176.096" cy="-25.091" r="14.916" gradientTransform="matrix(1 0 0 -1 -47.6 50.01)" gradientUnits="userSpaceOnUse"><stop offset="0" stop-color="#ED1C24"/><stop offset="1" stop-color="#ED1C24" stop-opacity="0"/></radialGradient><circle opacity=".1" fill="url(#c)" cx="128.495" cy="75.101" r="14.916"/><path opacity=".5" d="M84.307 57.958s-1.761 5.913 7.027 5.205c7.319-1.31 9.099-2.058 11.552-1.701-.461-.627-1.444-.986-1.444-.986s-7.442.973-10.477.607c-3.041-.364-6.658-3.125-6.658-3.125zm2.056-1.468s3.961-5.993 10.528-4.748c5.325.754 6.844 2.462 6.844 2.462s-4.452-.917-5.329-.661c2.047 1.088 3.589 4.778 3.22 5.71-.375.933-4.702-3.502-4.702-3.502l-10.561.739zm17.522.151c1.962.528 1.707 3.755-.345 3.917.645-1.379.729-2.464.345-3.917z" fill="#F6A76A"/><path fill="#1A1A1A" d="M102.822 51.621c-5.193-3.693-11.847-4.563-17.63-2.703 5.885-3.313 14.504-4.064 17.63 2.703z"/><path fill="#D9AA8E" d="M102.133 60.399s-2.243-7.387-8.409-8.117c-7.493-.882-8.592 5.699-7.906 4.403 0 0 3.721-2.99 9.87-.759 4.957 1.797 6.445 4.473 6.445 4.473z"/><path fill="#EACBBA" d="M92.974 52.681s-2.774-.127-4.147.646c-1.374.766-2.067 2.292-2.067 2.292s2.867-.556 3.301-1.437c.404-.818 2.913-1.501 2.913-1.501z"/><path fill="#C78A66" d="M100.924 59.013c-1.21-2.618-2.447-4.246-4.501-5.546-1.154-.728-1.781-.864-1.781-.864s1.688.796 1.817 1.533c.101.575-1.283 1.045-1.283 1.045 1.675.972 2.071 1.083 3.126 1.663.715.396 2.622 2.169 2.622 2.169z"/><path fill="#fff" d="M85.803 56.98s.001 3.578 5.656 4.464c5.639.883 10.662-1.331 10.662-1.331s-2.771-3.814-8.401-4.75c-5.631-.936-7.917 1.617-7.917 1.617z"/><radialGradient id="d" cx="106.808" cy="50.595" r="2.989" gradientTransform="scale(1 -1) rotate(-4.42 -1308.504 174.754)" gradientUnits="userSpaceOnUse"><stop offset="0" stop-color="#28353D"/><stop offset=".508" stop-color="#27323B"/><stop offset=".809" stop-color="#222A33"/><stop offset="1" stop-color="#1D2029"/></radialGradient><path fill="url(#d)" d="M93.129 55.435c-1.401-.32-2.163-.318-2.527.126a3.212 3.212 0 0 0 2.233 5.24 3.211 3.211 0 0 0 3.324-4.152c-.166-.529-1.966-.969-3.03-1.214z"/><path fill="#212121" d="M91.35 57.318a1.738 1.738 0 0 0 1.6 1.862 1.73 1.73 0 0 0 1.859-1.594 1.73 1.73 0 0 0-1.593-1.865 1.74 1.74 0 0 0-1.866 1.597z"/><g fill="#fff"><circle cx="90.597" cy="57.165" r=".639"/><path d="M91.843 57.063c.242.16.563.083.716-.156a.517.517 0 0 0-.156-.718.526.526 0 0 0-.718.153.523.523 0 0 0 .158.721z"/></g><path fill="#1A1A1A" d="M102.122 60.113s-3.149-5.265-10.349-6.217c-5.72-.763-8.069 2.342-8.069 2.342l2.103.865s2.584-2.163 6.669-1.685c5.369.622 8.951 3.906 9.646 4.695z"/><path fill="#B76B2C" d="M100.801 60.638s-6.965 2.152-11.925-.07c-2.526-1.131-3.015-2.87-3.015-2.87s.085 2.808 3.588 3.674c5.927 1.457 11.352-.734 11.352-.734z"/><path fill="#AE8879" d="M108.243 76.515l.315.258c-.311-.327-.612-.643-.963-.929-.185-.149-1.471-1.023-1.701-.651-.033.052 1.114.479 1.198.519.402.154.839.508 1.151.803z"/><path opacity=".2" fill="#F5B1A2" d="M106.509 75.778c-.854.931 1.899 2.199 2.568 2.093-.098-.796-1.609-3.142-2.568-2.093z"/><path opacity=".32" fill="#F5B1A2" d="M115.171 76.719c-.758-2.018-2.562-1.562-4.252-1.282-.965.16-1.762.039-2.699-.212-.971-.258-1.985-.344-2.705.48-.536.615.6.726.99.852.938.299 1.602 1.002 2.445 1.485 2.271 1.301 3.907-1.521 6.221-1.323-.04-.11-.888-.075 0 0z"/><path fill="#AE8879" d="M111.605 76.658l-.338.226c.34-.299.666-.594 1.039-.848.178-.123 1.598-.89 1.752-.503.022.044-1.148.38-1.232.41-.418.143-.883.437-1.221.715z"/><path opacity=".2" fill="#F5B1A2" d="M107.544 77.237c-.558-.589-1.387-1.171-2.245-.971.802-1.412 3.118.968 3.95 1.208 1.028.3 1.993-.158 2.894-.606 1.037-.515 2.037-.682 3.125-.22-.648.205-1.236.137-1.881.452-.689.334-1.306.788-1.979 1.151-1.499.8-2.785.131-3.864-1.014zm5.865-1.279c.858.931-1.896 2.199-2.563 2.094.095-.796 1.607-3.142 2.563-2.094z"/><path opacity=".5" fill="#F6A76A" d="M110.372 78.603s-.028 2.651-1.4 2.592c-1.37-.059.375.451 1.204.224.829-.226.881-.634.196-2.816zM114.673 75.513s1.216-.459.979-1.654c-.238-1.197-.9-1.79-.9-1.79s.986.824 1.096 2.034c.11 1.205-1.175 1.41-1.175 1.41zm-9.369-.09s-1.219-.458-.98-1.654c.237-1.194.9-1.787.9-1.787s-.987.824-1.097 2.032c-.108 1.208 1.177 1.409 1.177 1.409z"/><path opacity=".3" fill="#FDE9D7" d="M113.926 69.989s-.71-.304-.943-1.533c-.232-1.229-1.178-3.429-1.65-.565-.471 2.865-.35 4.298.682 3.931 1.519-.536 2.508-.145 2.564-.809.034-.421-.218-.806-.653-1.024z"/><path fill="#B54A37" d="M106.709 82.3c4.425.422 10.814.273 12.805-.888 0 0-.738 1.951-1.813 3.424-1.483 2.029-3.832 2.617-7.767 2.536-6.058-.125-6.279.275-8.13-3.256-.224-.429-1.436-2.819-2.061-3.555.001 0 2.611 1.324 6.966 1.739z"/><path fill="#fff" d="M117.275 83.478c-3.025 2.163-10.262 2.705-14.26.342-.297-.177-.545-.98-1.605-1.779l17.098-.664-1.233 2.101z"/><path fill="#FF5D47" d="M118.468 82.989c-.86 1.217-3.706 3.581-8.6 3.543-4.892.038-7.833-2.741-8.69-3.958a76.516 76.516 0 0 0-1.11-1.471c.468 1.188 1.174 2.965 1.916 4.208 1.208 2.007 2.334 2.789 3.277 3.365a8.971 8.971 0 0 0 4.562 1.266h.092a8.983 8.983 0 0 0 4.563-1.266c.941-.576 2.067-1.354 3.275-3.36.742-1.244 1.449-3.022 1.915-4.21 0-.001-.838 1.375-1.2 1.883z"/><path opacity=".58" fill="#fff" d="M112.945 88.302s-.314-1.063-.028-1.512c.229-.354 1.549-.569 1.589-.311.116.711.732 1.43.071 1.771-.658.336-1.416.489-1.632.052z"/><path opacity=".43" fill="#fff" d="M111.123 88.656s-.324-1.232.238-1.313c.564-.083 1.057-.094 1.064.164.012.263.405 1.492-.087 1.571-.75.121-1.059.029-1.215-.422z"/><path fill="#FF5D47" d="M120.25 80.545c-.389.29-1.163.565-2.764.367-3.063-.383-5.502-.284-7.589-.099-2.134-.274-4.638-.316-7.609.023-1.601.184-2.375-.101-2.761-.394 2.078 2.528 6.358 2.982 10.3 2.958v-.034h.092v.034c3.94.065 8.227-.347 10.331-2.855z"/><path fill="#B54A37" d="M120.542 80.255c-.497.182-1.078.879-1.078.879-1.419 1.668-6.46 2.078-7.853 2.071-.428-.001-.987.023-1.624.047-.635-.023-1.196-.048-1.624-.047-1.393.007-6.434-.403-7.853-2.071 0 0-.581-.697-1.076-.879-.689-.252-1.008-.027-.431.334.201.127.567-.107 1.158.728.891 1.265 4.191 1.879 6.277 2.092 1.052.106 2.297.169 3.549.194a45.757 45.757 0 0 0 3.549-.194c2.086-.213 5.388-.827 6.277-2.092.59-.835.957-.601 1.156-.728.582-.361.261-.586-.427-.334z"/><path opacity=".5" fill="#F6A76A" d="M98.276 77.534c-2.213-.614-3.679 3.046-4.882 4.325-.052-1.403.561-2.896 1.521-3.911.79-.834 2.536-1.699 3.361-.414zm22.426-.513c2.212-.613 3.68 3.047 4.882 4.324.053-1.404-.563-2.896-1.523-3.909-.79-.835-2.536-1.701-3.359-.415z"/><path fill="#393117" d="M135.477 115.884s-2.39-2.323-4.17 0c-9.888 13.257-20.592 14.354-21.318 14.58-.725-.226-11.43-1.323-21.316-14.58-1.782-2.323-4.171 0-4.171 0s-9.984 2.111-5.306 12.877c2.643 6.085 5.985 11.88 9.517 17.488 2.066 3.281 4.461 6.353 6.813 9.431 2.197 2.875 4.72 5.194 7.417 7.58 1.245 1.104 2.459 2.408 3.985 3.124 1.318.62 3.958.423 5.351.113 1.533-.339 2.781-1.22 3.918-2.265 2.539-2.33 5.105-4.799 7.38-7.385 2.579-2.927 4.685-6.263 6.873-9.481a110.276 110.276 0 0 0 5.844-9.642c1.59-2.945 3.153-5.893 4.489-8.961 4.677-10.768-5.306-12.879-5.306-12.879z"/></svg>