<svg xmlns="http://www.w3.org/2000/svg" width="220" height="220" viewBox="0 0 220 220"><path fill="#fc9" stroke="#D09D6A" stroke-width=".5" stroke-miterlimit="10" d="M135.654 119.04c-2.176 3.08-19.559 12.786-25.902 12.479l-.379-.037-.367.037c-6.356.307-23.739-9.4-25.915-12.479-2.163-3.08-4.731-8.166-3.654-9.963 1.051-1.735 11.576-4.999 12.101-17.407l.025-.537.012-.576a114.86 114.86 0 0 0-.599-11.037c-.294-2.812-.66-5.195-.99-7.078-.513-2.946-.954-4.621-.954-4.621s10.867-3.092 20.169-4.596v-.049l.171.025.172-.025v.049c9.302 1.504 20.17 4.596 20.17 4.596s-.44 1.675-.954 4.621a97.177 97.177 0 0 0-.978 7.078 106.969 106.969 0 0 0-.601 11.037l.012.576.025.525c.514 12.408 11.051 15.684 12.09 17.419 1.079 1.798-1.477 6.883-3.654 9.963z"/><path fill="#2D4654" stroke="#1D2E37" stroke-width=".5" stroke-miterlimit="10" d="M195.547 168.328l-.012-.002c-1.994-5.922-12.811-49.713-13.508-52.549l-.036-.147c-3.532-3.532-39.166-15.635-48.64-12.285-2.75 11.368-14.559 18.066-23.982 21.698-9.426-3.631-21.233-10.33-23.984-21.698-9.474-3.35-45.107 8.753-48.64 12.285 0 0-11.491 46.586-13.544 52.699 0 0-6.688 33.178-6.173 51.67h25.42s-2.16-20.405 6.326-44.875c.176-.507 2.762-10.843 2.762-10.843s.184 1.101.489 3.007v.062l.098.599c1.283 8.129 4.29 28.151 5.317 42.796.245 3.459.367 6.625.343 9.254h103.171v-.563c-.036-11.074 2.567-30.756 4.413-43.371a969.11 969.11 0 0 1 1.503-9.707l.014-.086c.195-1.282.317-1.991.317-1.991s2.563 10.12 2.665 10.459l.048.188.049.196h.012v.001C178.459 199.594 176.3 220 176.3 220h25.421c.513-15.531-6.174-51.672-6.174-51.672z"/><path opacity=".5" fill="#F6A76A" d="M127.195 91.132l.025.525c-.955.721-1.92 1.442-2.849 2.201-1.748 1.405-3.521 3.691-5.624 4.547-2.75 1.125-6.186 1.076-9.376 1.076-3.19 0-6.625.049-9.376-1.076-2.102-.856-3.875-3.142-5.623-4.547a78 78 0 0 0-2.836-2.189l.025-.537.012-.576a114.86 114.86 0 0 0-.599-11.037c3.534-.954 11.307-2.958 18.226-4.071V75.4l.171.025.172-.025v.049c6.919 1.125 14.705 3.117 18.239 4.071a106.71 106.71 0 0 0-.6 11.037l.013.575z"/><path fill="#fc9" stroke="#D09D6A" stroke-width=".5" stroke-miterlimit="10" d="M143.87 45.09c-.821-1.759-1.567-2.167-2.231-1.737.939-14.547-1.221-32.487-16.729-37.841-4.847-1.674-10.226-2.014-15.536-1.64-5.311-.374-10.688-.034-15.537 1.64-15.567 5.375-17.684 23.429-16.716 38.004-.718-.677-1.538-.378-2.45 1.574-.629 1.348-.825 2.52-.602 6.674.228 4.153 2.039 9.872 4.399 10.086.913.083 1.434-.258 1.731-.805.184 1.046.311 2.07.311 3.003 1.213 6.203.2 14.373 5.089 18.921 2.354 2.188 5.063 3.973 7.557 5.993 1.739 1.407 4.74 2.473 6.846 3.333 2.744 1.121 6.184 1.074 9.371 1.069 3.188.005 6.625.051 9.37-1.069 2.106-.86 5.108-1.926 6.847-3.333 2.494-2.02 5.201-3.805 7.557-5.993 4.89-4.548 3.877-12.718 5.09-18.921 0-.867.111-1.812.272-2.779.313.402.791.65 1.563.58 2.359-.214 4.172-5.933 4.398-10.086.225-4.153.029-5.325-.6-6.673z"/><path fill="#1A1A1A" d="M86.293 40.341c.501-.31 1.031-.582 1.57-.821.81-.361 1.304-.376 2.173-.343 2.087.08 4.174.206 6.253.409 2.011.193 4.025.451 6.002.87.861.182 1.425.272 2.096.845a8.413 8.413 0 0 1 1.422 1.552c-.538.063-1.078.116-1.612.205-.926.155-1.564.022-2.471-.167-1.871-.393-3.775-.635-5.676-.816a101.117 101.117 0 0 0-5.795-.387c-.937-.038-1.578-.055-2.426-.483a20.622 20.622 0 0 1-1.536-.864zm47.632 0c-.418.262-.849.502-1.284.733-.841.445-1.42.565-2.362.601-1.911.072-3.822.185-5.727.363-1.927.18-3.854.412-5.752.79-.834.167-1.55.424-2.399.289-.664-.087-1.324-.186-1.99-.263a7.918 7.918 0 0 1 1.186-1.347c.703-.627 1.118-.782 2.026-.984 1.952-.435 3.944-.698 5.933-.899 2.098-.212 4.202-.348 6.309-.433.833-.034 1.442-.117 2.215.211.635.26 1.259.578 1.845.939z"/><path fill="#FFB679" d="M77.375 47.933c-1.388.065-.812 4.689-.545 6.315s1.594 2.536 2.375 2.175c.779-.358 1.016-2.793.184-2.889-.832-.091-1.326-.725-.935-1.356.393-.631.645-4.328-1.079-4.245z"/><path fill="#fff" d="M102.285 48.188c.091.764.356 1.515-.019 2.212-.721 1.344-1.795 2.013-3.313 1.996-1.621-.019-3.244-.343-4.829-.652-1.044-.204-2.454-.225-3.288-.948-.464-.402-2.099-1.894-1.776-2.834.363-1.063 2.341-1.507 3.32-1.709 2.095-.432 4.382-.26 6.487.048 1.269.185 2.903.539 3.418 1.887z"/><radialGradient id="a" cx="632.616" cy="10.032" r="2.718" gradientTransform="rotate(-173.72 365.17 44.357)" gradientUnits="userSpaceOnUse"><stop offset="0" stop-color="#28353D"/><stop offset=".508" stop-color="#27323B"/><stop offset=".809" stop-color="#222A33"/><stop offset="1" stop-color="#1D2029"/></radialGradient><path fill="url(#a)" d="M93.965 46.198a2.897 2.897 0 0 0-.91 1.813 2.915 2.915 0 1 0 5.31-1.309c-.666-.356-3.703-.659-4.4-.504z"/><path fill="#212121" d="M94.238 48.385a1.783 1.783 0 1 0 1.968-1.575 1.78 1.78 0 0 0-1.968 1.575z"/><path fill="#1A1A1A" d="M102.285 48.188s-.452-1.238-3.253-1.551c-2.802-.314-6.069-.021-6.919-.115-.849-.095-3.129 1.429-3.129 1.429s1.191-1.959 3.166-2.35c1.793-.354 6.897-.02 8.187.256 1.289.276 1.948 2.331 1.948 2.331z"/><path fill="#B76B2C" d="M100.726 52.074s-5.852.915-9.579-1.452c-1.898-1.203-2.087-2.66-2.087-2.66s-.451 2.059 2.455 3.371c4.52 2.043 9.211.741 9.211.741z"/><path fill="#fff" d="M93.37 48.513a.52.52 0 1 0 .613-.838.52.52 0 0 0-.613.838zm1.325-.438a.422.422 0 1 0-.092-.593.42.42 0 0 0 .092.593zm23.239.113c-.092.764-.356 1.515.018 2.212.723 1.344 1.796 2.013 3.313 1.996 1.621-.019 3.243-.343 4.83-.652 1.043-.204 2.454-.225 3.288-.948.464-.402 2.097-1.894 1.776-2.834-.363-1.063-2.344-1.507-3.321-1.709-2.094-.432-4.381-.26-6.487.048-1.27.185-2.902.539-3.417 1.887z"/><radialGradient id="b" cx="388.391" cy="37.358" r="2.718" gradientTransform="scale(1 -1) rotate(6.37 1029.805 -2374.952)" gradientUnits="userSpaceOnUse"><stop offset="0" stop-color="#28353D"/><stop offset=".508" stop-color="#27323B"/><stop offset=".809" stop-color="#222A33"/><stop offset="1" stop-color="#1D2029"/></radialGradient><path fill="url(#b)" d="M126.253 46.198c.493.46.83 1.09.91 1.813a2.915 2.915 0 1 1-5.31-1.309c.665-.356 3.702-.659 4.4-.504z"/><path fill="#212121" d="M125.979 48.385a1.782 1.782 0 1 1-3.543.397 1.782 1.782 0 0 1 1.573-1.972 1.78 1.78 0 0 1 1.97 1.575z"/><path fill="#1A1A1A" d="M117.934 48.188s.45-1.238 3.252-1.551c2.803-.314 6.068-.021 6.918-.115.85-.095 3.131 1.429 3.131 1.429s-1.191-1.959-3.166-2.35c-1.793-.354-6.898-.02-8.188.256-1.29.276-1.947 2.331-1.947 2.331z"/><path fill="#B76B2C" d="M119.492 52.074s5.852.915 9.578-1.452c1.896-1.203 2.088-2.66 2.088-2.66s.451 2.059-2.455 3.371c-4.519 2.043-9.211.741-9.211.741z"/><path fill="#fff" d="M121.77 48.513a.52.52 0 1 0 .613-.839.52.52 0 0 0-.613.839zm1.324-.438a.419.419 0 0 0 .588-.091.422.422 0 1 0-.588.091z"/><path opacity=".8" fill="#B54A37" d="M104.059 76.713h10.419v1.11h-10.419z"/><path fill="#FFAC81" d="M101.963 76.514c0-.392 2.525-1.253 2.774-1.35 1.503-.579 3.198-.807 4.67-.342 1.409-.445 3.153-.235 4.651.335.254.096 2.793.955 2.793 1.356.001.686-14.888.673-14.888.001zm.003.002c1.089.052 2.188.318 3.27.468 1.388.198 2.774.226 4.171.317 1.368-.092 2.737-.103 4.099-.317 1.1-.172 2.229-.403 3.34-.468-3.379 5.401-11.474 5.255-14.88 0z"/><path fill="#B54A37" d="M109.281 77.476a44.428 44.428 0 0 1-3.842-.23l-.761-.079c-1.746-.18-2.543-.26-3.128-1.248-.456-.769-.834-.317-1.084-.344l-.191-.045c-.26-.179-.307-.298-.293-.343.011-.037.081-.062.183-.062.137 0 .318.043.518.123.514.206 1.134.52 1.139.528 1.044 1.184 3.958 1.358 5.601 1.358h.01c.505 0 .98.019 1.515.043l.332.012.332-.012c.54-.024 1.017-.043 1.4-.043l.637.002c1.929 0 4.269-.137 5.252-1.205.012-.013.629-.326 1.146-.531.197-.08.381-.124.518-.124.099 0 .17.026.182.063.016.043-.033.164-.293.342l-.176.068c-.207.054-.519-.356-1.092.314-.896 1.044-1.451 1.06-2.558 1.09-.413.011-.899.026-1.507.092a44.12 44.12 0 0 1-3.84.231z"/><path opacity=".5" fill="#F6A76A" d="M108.847 84.775c-.824-.667-1.158-3.379.221-3.463 1.375-.083 2.92.167 3.084 1.125.168.96-.775 2.004-1.139 2.337s-1.846.958-2.167.543c-.322-.418.001-.542.001-.542zm1.529-13.952s-.041 3.588-1.897 3.51c-1.855-.079.507.612 1.629.303 1.126-.306 1.195-.857.268-3.813z"/><path opacity=".32" fill="#F5B1A2" d="M109.98 67.554c2.336.241 5.15 1.051 5.219 1.373-3.09 1.511-9.558.646-9.36-.15.154-.616 2.655-1.378 4.141-1.223z"/><path fill="#AE8879" d="M114.199 68.122c.628-.03 1.281.283 1.242.401-.039.121-.676.025-1.23.055-.337.017-1.391.276-1.441.161-.054-.113 1.044-.597 1.429-.617zm-7.129-.214c.664.129 1.458.625 1.401.738-.055.112-.968-.184-1.428-.283-.395-.082-1.325.03-1.377-.082-.056-.115.961-.461 1.404-.373z"/><path opacity=".2" fill="#F5B1A2" d="M107.328 69.193c-.666-.706-1.656-1.403-2.681-1.164.958-1.688 3.726 1.158 4.723 1.449 1.228.356 2.383-.192 3.459-.728 1.237-.614 2.433-.814 3.735-.263-.778.244-1.479.164-2.25.54-.824.402-1.56.945-2.366 1.376-1.791.959-3.33.157-4.62-1.21z"/><path opacity=".5" fill="#F6A76A" d="M116.23 68.154s1.285-.482 1.035-1.741c-.252-1.261-.951-1.885-.951-1.885s1.041.869 1.156 2.14c.115 1.273-1.24 1.486-1.24 1.486zm-11.378 0s-1.285-.482-1.034-1.741c.251-1.261.95-1.885.95-1.885s-1.041.869-1.155 2.14c-.116 1.273 1.239 1.486 1.239 1.486z"/><path opacity=".3" fill="#FDE9D7" d="M114.373 61.077s-.895-.382-1.191-1.939c-.295-1.554-1.492-4.335-2.09-.714-.596 3.625-.441 5.437.863 4.972 1.921-.677 3.171-.183 3.242-1.023.044-.532-.272-1.019-.824-1.296z"/><path fill="#FFB679" d="M141.167 47.933c1.39.065.813 4.689.546 6.315s-1.594 2.536-2.376 2.175c-.778-.358-1.017-2.793-.185-2.889.832-.091 1.326-.725.936-1.356-.393-.631-.645-4.328 1.079-4.245z"/><path fill="#2B4250" d="M165.538 175.564c-1.856 12.59-4.535 32.649-4.498 43.871H60.277l-.049-.023s-1.37-4.01-2.788-8.668c-1.027-14.645-4.034-34.667-5.317-42.796l.586.745c5.085 6.369 10.525 12.396 16.405 17.945 10.843 9.657 23.018.734 34.79-.539 1.7-1.05 5.538 3.998 5.868 6.76-1.271 8.168-10.134 10.625-14.045 15.979-.256 1.639-.77 4.913 1.258 6.613 12.555 8.605 22.432-.393 33.947-.025 4.586.147 7.066-5.793 12.52-6.173 7.406-3.056 12.443-10.562 16.013-18.666a121.525 121.525 0 0 0 4.597-10.831v-.024a92.235 92.235 0 0 0 1.309-3.668l.167-.5z"/><path stroke="#1D2E37" stroke-width="3" stroke-miterlimit="10" d="M133.352 103.342c-2.75 11.372-14.557 18.071-23.983 21.696-9.426-3.625-21.232-10.324-23.981-21.696" fill="none"/><path fill="#1D2E37" d="M36.744 115.633c12.589 12.364 19.008 31.321 14.798 48.643 2.694-17.547-3.355-35.275-14.798-48.643zm145.429 0c-11.448 13.361-17.489 31.1-14.797 48.641-4.21-17.316 2.203-36.286 14.797-48.641zM62.183 219.999h-4.4c.024-2.628-.098-5.794-.343-9.254-1.027-14.644-4.034-34.667-5.317-42.796l-.098-.6v-.061c-.196-2.188-.306-3.605-.293-3.948.073.367.427 2.347.978 5.354 2.445 13.152 8.508 46.06 9.376 50.742l.097.563zm104.701-53.726l-.014.086-.072.929v.062a551.47 551.47 0 0 0-1.247 8.189l-.013.025c-1.856 12.59-4.535 32.649-4.498 43.871v.563h-4.399l.098-.563c.673-3.644 4.511-24.447 7.32-39.68v-.024c1.614-8.752 2.887-15.66 3.032-16.394.013.284-.062 1.324-.207 2.936z"/><path d="M110.473.051l.003-.051s-.319-.006-.894.012c-.574-.017-.892-.012-.892-.012l.002.05c-8.87.478-47.134 5.413-28.196 55.416 0 0-1.569-30.996 8.281-35.297 9.438-4.12 20.796 1.25 20.805 1.247.009.002 11.369-5.367 20.807-1.247 9.85 4.301 8.281 35.297 8.281 35.297C157.609 5.463 119.343.528 110.473.051z"/></svg>