<svg xmlns="http://www.w3.org/2000/svg" width="220" height="220" viewBox="0 0 220 220"><path fill="#0A0A0A" d="M78.512 48.636h63.296v67.171H78.512z"/><path fill="#fc9" stroke="#D09D6A" stroke-width=".5" stroke-miterlimit="10" d="M141.669 107.229c-4.409-1.484-8.489-.397-12.144-3.244-2.49-1.941-6.438-4.472-6.381-8.006.026-1.601.01-9.573.01-11.956H96.777c0 2.383-.016 10.355.009 11.956.057 3.534-3.89 6.065-6.38 8.006-3.655 2.847-7.735 1.76-12.144 3.244-22.62 7.619-10.561 32.15-10.561 32.15h84.527c1.534-2.664 10.529-25.048-10.559-32.15z"/><path fill="#68CCFF" stroke="#3E9AC9" stroke-width=".5" stroke-miterlimit="10" d="M155.148 219.938c-3.041 0-91.144.142-91.345 0h-.155c2.694-4.565 5.423-9.156 7.88-13.877 1.322-2.515 2.562-5.065 3.671-7.676 1.68-3.91 2.73-7.641 2.312-11.933-.369-3.729-1.538-7.044-3.051-10.431-1.681-3.73-2.873-7.557-3.708-11.442-2.348-10.812-1.907-22.089-1.228-33.21.275-4.625.704-22.97.704-24.496 4.339-.071 8.69-.143 13.029-.238-.06 2.552.334 4.756 1.263 7.117.859 2.193 2.147 3.896 3.767 5.614 3.744 3.944 8.642 7.426 14.079 8.44 4.004.75 8.485.618 12.528.213 5.566-.572 10.607-3.803 14.555-7.617 1.871-1.823 3.73-3.813 4.648-6.305.988-2.719 1.502-5.438 1.396-8.345 3.778.321 12.729.906 12.957 1.108.237.214.429 18.524.752 23.661.631 10.121 1.251 20.42-.431 30.47a63.987 63.987 0 0 1-.905 4.458c-.739 3.135-1.718 6.222-2.968 9.189-.799 1.871-1.789 3.685-2.373 5.639-.752 2.504-1.289 5.091-1.383 7.712-.191 5.698 2.516 10.991 5.03 15.95.356.703.716 1.395 1.072 2.086 2.492 4.72 5.211 9.323 7.904 13.913z"/><path fill="#3E9AC9" d="M147.866 165.449c-.739 3.135-1.718 6.222-2.968 9.189-.799 1.871-1.789 3.685-2.373 5.639-.739 2.457-1.264 4.994-1.371 7.57l-.012.142a16.96 16.96 0 0 0 .154 2.909 92.254 92.254 0 0 1-31.731 5.638 92.258 92.258 0 0 1-32.125-5.781c.096-.606.144-1.228.144-1.858.035-.799.012-1.61-.072-2.445-.369-3.73-1.538-7.044-3.051-10.43-1.681-3.731-2.873-7.558-3.708-11.443l.167-.071c1.014-.346 2.122-.18 3.184 0 2.455.405 4.91.81 7.367 1.228 2.705.44 5.53.882 8.13 0 2.228-.75 4.029-2.396 6.115-3.492 3.861-2.038 8.452-2.086 12.79-1.585 4.327.489 8.642 1.467 12.994 1.323 3.743-.131 7.498-1.084 11.181-.44 4.231.739 7.963 3.517 12.242 3.862.952.069 1.953.034 2.943.045z" opacity=".3"/><path fill="#fc9" stroke="#D09D6A" stroke-width=".5" stroke-miterlimit="10" d="M72.784 119.593l-.77 5.023-2.884 18.745-.159.961v.045l-1.742 11.301-.012.023-.011.125s-2.953 15.849-5.125 22.285v.022c-.089.259-.18.508-.271.733-1.12 3.056-3.088 10.035-4.707 16.02l-.01.012c-1.494 5.521-2.705 10.205-2.705 10.205s-2.194 9.831-2.194 13.202c0 .542.022 1.097.068 1.64H40c.067-.498.09-.803.09-.803l2.002-37.377s1.392-12.693 2.195-16.223c.815-3.529 3.088-9.92 3.088-9.92s4.683-20.59 6.482-29.165c.271-1.278.476-2.285.589-2.919.882-4.978 4.513-9.705 4.513-9.705l11.483 4.796 2.342.974z"/><path fill="#FFB679" d="M72.009 124.623l-4.779 31.052-.007.013-5.137 22.422-.006.014-.263.743c-1.13 3.046-3.096 10.03-4.712 16.013-.131-1.836-.203-3.893-.103-4.929 1.043-11.163 6.91-29.542 7.793-44.153.927-15.333 3.815-19.486 7.073-21.165l.141-.01z"/><path fill="#fc9" stroke="#D09D6A" stroke-width=".5" stroke-miterlimit="10" d="M179.932 219.938h-12.195c-.609-4.207-1.877-9.863-1.877-9.863s-1.211-4.674-2.705-10.205l-.01-.012c-1.617-5.984-3.574-12.965-4.707-16.008-.09-.236-.182-.475-.271-.746v-.012c-2.172-6.447-5.125-22.297-5.125-22.297l-.011-.125-.012-.012-2.84-18.485-.554-3.586-1.381-8.981-.78-5.035 1.289-.532 12.535-5.237s2.682 3.496 3.982 7.637c.226.68.406 1.369.531 2.07.905 4.967 7.07 32.094 7.07 32.094s2.273 6.393 3.088 9.91c.805 3.53 2.196 16.223 2.196 16.223l1.777 33.202z"/><path fill="#FFB679" d="M148.241 129.604l4.78 31.053.006.013 5.139 22.421.005.016.265.742c1.129 3.045 3.094 10.03 4.711 16.012.133-1.836.203-3.892.104-4.928-1.044-11.164-6.91-29.541-7.795-44.154-.926-15.332-3.813-19.485-7.072-21.164l-.143-.011z"/><path fill="#3E9AC9" d="M69.327 145.753c13.813-8.385 2.783-38.797 2.783-38.797S53.397 97.3 50.698 124.27c0 0 18.339 4.539 18.629 21.483zm80.446 0c-13.812-8.385-2.781-38.797-2.781-38.797s18.713-9.656 21.412 17.313c0 .001-18.34 4.54-18.631 21.484z"/><path opacity=".5" fill="#F6A76A" d="M123.143 94.189c-7.76 5.949-13.171 5.853-13.171 5.853s-5.437.096-13.185-5.865c-.023-2.968-.012-8.285-.012-10.157h26.378c.001 1.873.013 7.201-.01 10.169z"/><path fill="#fc9" stroke="#D09D6A" stroke-width=".5" stroke-miterlimit="10" d="M144.218 48.836c-1.424-.511-3.769-.32-4.887.415.944-8.604.817-15.128.146-19.087-1.379-8.112-20.857-18.049-30.108-17.525-9.252-.524-28.73 9.414-30.109 17.525-.653 3.841-.668 11.286.194 19.582-1.206-.652-2.733-1.27-3.739-.909-1.882.674-2.932 1.157-1.614 6.624 1.384 5.737 6.064 11.311 8.598 12.249.897 3.271 1.962 6.367 3.215 9.11 6.573 14.386 20.945 17.089 23.454 17.089 2.508 0 16.88-2.703 23.453-17.089 1.252-2.741 3.472-6.99 4.369-10.26.024.014 7.014-4.344 8.643-11.099 1.317-5.467.269-5.95-1.615-6.625z"/><path fill="#1A1A1A" d="M137.639 179.122s-.752-12.624-3.768-10.431c0 0 5.328-102.646 3.992-108.416-1.334-5.757-14.995-35.224-27.868-35.224-12.885 0-26.535 29.467-27.87 35.224-1.335 5.77 3.993 108.416 3.993 108.416-3.015-2.192-3.766 10.431-3.766 10.431-13.185-6.651-20.086-115.877-13.185-148.265.048-.238 1.216-3.66 2.682-7.605 1.86-5.066 4.172-8.619 5.198-9.954C91.042-4.999 109.995.913 109.995.913s15.938-5.173 29.956 9.107l.131.131c.453.524 8.083 10.239 10.132 17.928 8.02 34.581.606 144.392-12.575 151.043z"/><radialGradient id="a" cx="139.161" cy="-25.666" r="14.722" gradientTransform="matrix(1 0 0 -1 -47.6 50.01)" gradientUnits="userSpaceOnUse"><stop offset="0" stop-color="#ED1C24"/><stop offset="1" stop-color="#ED1C24" stop-opacity="0"/></radialGradient><circle opacity=".25" fill="url(#a)" cx="91.561" cy="75.676" r="14.722"/><radialGradient id="b" cx="175.972" cy="-25.666" r="14.722" gradientTransform="matrix(1 0 0 -1 -47.6 50.01)" gradientUnits="userSpaceOnUse"><stop offset="0" stop-color="#ED1C24"/><stop offset="1" stop-color="#ED1C24" stop-opacity="0"/></radialGradient><circle opacity=".25" fill="url(#b)" cx="128.372" cy="75.676" r="14.722"/><path fill="#B54A37" d="M107.407 80.474c3.454.36 8.442.235 9.995-.754 0 0-.575 1.66-1.414 2.915-1.157 1.725-2.991 2.227-6.063 2.157-4.731-.107-4.902.232-6.348-2.771-.172-.365-1.121-2.4-1.61-3.027 0 .001 2.039 1.128 5.44 1.48z"/><path fill="#fff" d="M115.654 81.477c-2.36 1.843-8.011 2.305-11.131.292-.233-.151-.426-.836-1.255-1.512l13.351-.567-.965 1.787z"/><path fill="#FF5D47" d="M116.585 81.061c-.67 1.037-2.894 3.05-6.713 3.016-3.819.034-6.115-2.331-6.785-3.368-.283-.433-.866-1.253-.866-1.253.364 1.012.918 2.523 1.498 3.582.941 1.708 1.822 2.373 2.558 2.863a6.565 6.565 0 0 0 3.561 1.078h.071a6.571 6.571 0 0 0 3.562-1.078c.735-.49 1.617-1.151 2.559-2.858.578-1.061 1.133-2.574 1.496-3.584-.001 0-.657 1.17-.941 1.602zm1.394-2.079c-.303.247-.908.479-2.158.31-2.391-.324-4.297-.24-5.925-.082-1.665-.234-3.619-.27-5.94.02-1.25.155-1.854-.085-2.155-.335 1.621 2.153 4.963 2.54 8.041 2.517v-.028h.072v.028c3.076.054 6.421-.296 8.065-2.43z"/><path fill="#B54A37" d="M118.205 78.734c-.387.155-.84.748-.84.748-1.107 1.422-5.045 1.768-6.131 1.763-.334-.001-.771.021-1.268.041-.498-.02-.936-.042-1.268-.041-1.087.005-5.024-.341-6.131-1.763 0 0-.453-.593-.84-.748-.537-.213-.788-.022-.336.284.157.108.442-.089.903.619.696 1.08 3.272 1.601 4.902 1.782.82.092 1.794.143 2.771.167a32.758 32.758 0 0 0 2.77-.167c1.63-.182 4.207-.702 4.902-1.782.459-.708.746-.511.904-.619.449-.306.2-.497-.338-.284z"/><path opacity=".32" fill="#F5B1A2" d="M114.693 73.735c-.693-1.84-2.338-1.427-3.877-1.169-.88.146-1.609.034-2.463-.194-.884-.235-1.81-.315-2.467.439-.489.559.546.661.904.776.854.272 1.462.915 2.229 1.355 2.07 1.185 3.563-1.388 5.674-1.207-.039-.1-.808-.071 0 0z"/><path fill="#AE8879" d="M108.375 73.549l.288.235c-.285-.299-.558-.59-.88-.85-.169-.134-1.342-.932-1.551-.592-.03.047 1.014.437 1.091.472.365.14.767.465 1.052.735zm3.064.13l-.308.205c.312-.273.609-.542.951-.774.159-.111 1.456-.812 1.595-.458.022.038-1.048.347-1.125.375-.377.129-.802.396-1.113.652z"/><path opacity=".2" fill="#F5B1A2" d="M107.734 74.209c-.508-.539-1.264-1.072-2.045-.889.73-1.287 2.843.885 3.604 1.106.936.271 1.818-.146 2.641-.556.941-.47 1.854-.624 2.849-.2-.591.185-1.13.124-1.716.411-.631.307-1.19.719-1.808 1.052-1.366.73-2.539.119-3.525-.924zm5.353-1.17c.782.85-1.731 2.006-2.341 1.912.089-.727 1.467-2.868 2.341-1.912zm-6.294-.165c-.782.851 1.73 2.008 2.339 1.911-.086-.726-1.465-2.867-2.339-1.911z"/><path opacity=".5" d="M114.238 72.634s1.113-.417.896-1.508c-.218-1.092-.823-1.632-.823-1.632s.902.75 1.002 1.855c.099 1.098-1.075 1.285-1.075 1.285zm-8.546-.081s-1.11-.418-.895-1.509c.218-1.088.823-1.632.823-1.632s-.901.753-1 1.854c-.101 1.103 1.072 1.287 1.072 1.287z" fill="#F6A76A"/><path opacity=".3" fill="#FDE9D7" d="M113.559 67.594s-.646-.277-.863-1.398c-.211-1.121-1.073-3.128-1.504-.514-.43 2.613-.319 3.919.623 3.585 1.385-.488 2.285-.13 2.336-.738.033-.383-.195-.735-.592-.935z"/><path fill="#1A1A1A" d="M102.771 50.899c-2.565-1.017-5.25-2.226-7.962-2.76-1.575-.31-3.265-.382-4.857-.16-.716.1-1.412.22-2.114.39-.059.014-.965.109-.702.001 2.876-1.181 5.764-1.688 8.87-1.264 1.572.214 3.026.632 4.39 1.46.377.229 2.751 1.833 2.375 2.333z"/><path fill="#D9AA8E" d="M102.672 57.866s-2.084-5.521-7.525-5.946c-6.612-.516-7.476 4.46-6.891 3.474 0 0 3.227-2.326 8.672-.769 4.394 1.255 5.744 3.241 5.744 3.241z"/><path fill="#fff" d="M100.067 55.769c.62.514 2.555 2.098 2.555 2.098-.62 1.474-2.432 2.044-4.014 2.175-1.692.141-3.414-.038-5.098-.202-1.11-.109-2.58.008-3.519-.665-.523-.375-2.374-1.765-2.132-2.775.274-1.145 2.291-1.805 3.292-2.11 2.141-.656 4.035-.379 6.201.143 1.138.274 1.54.364 2.715 1.336z"/><radialGradient id="c" cx="2729.999" cy="-42.111" r="2.845" gradientTransform="rotate(-180 1412.77 18.246)" gradientUnits="userSpaceOnUse"><stop offset="0" stop-color="#28353D"/><stop offset=".508" stop-color="#27323B"/><stop offset=".809" stop-color="#222A33"/><stop offset="1" stop-color="#1D2029"/></radialGradient><path fill="url(#c)" d="M92.795 54.074a3.05 3.05 0 0 0-.768 1.978 3.051 3.051 0 1 0 5.406-1.886c-.73-.307-3.926-.32-4.638-.092z"/><path fill="#212121" d="M93.298 56.325a1.861 1.861 0 0 0 1.831 1.898 1.868 1.868 0 1 0 .066-3.734 1.867 1.867 0 0 0-1.897 1.836z"/><path fill="#B76B2C" d="M100.708 59.571s-6.293 1.49-10.411-.609c-2.096-1.066-2.438-2.563-2.438-2.563s-.267 2.187 2.892 3.27c4.911 1.679 9.957-.098 9.957-.098z"/><path fill="#fff" d="M92.405 56.546a.543.543 0 0 0 .744-.191.54.54 0 0 0-.186-.744.551.551 0 0 0-.748.19.545.545 0 0 0 .19.745zm1.338-.589a.44.44 0 1 0 .45-.759.445.445 0 0 0-.604.151.44.44 0 0 0 .154.608z"/><path fill="#1A1A1A" d="M102.622 57.866s-3.199-4.417-9.652-4.702c-5.125-.233-6.966 2.701-6.966 2.701l1.928.601s2.124-2.115 5.781-2.009c4.806.135 8.232 2.766 8.909 3.409zM117.891 50.783c1.573-2.327 4.503-3.428 7.182-3.717 1.654-.179 3.242-.114 4.886.132.347.047 3.746.859 3.71 1.188-.033.305-.793-.029-.98-.074a18.097 18.097 0 0 0-2.183-.373c-1.596-.181-3.364-.127-4.922.282-1.66.343-3.289 1.045-4.875 1.635-.358.133-2.58 1.247-2.818.927z"/><path fill="#D9AA8E" d="M118.505 57.866s2.084-5.521 7.524-5.946c6.613-.516 7.477 4.46 6.893 3.474 0 0-3.227-2.326-8.673-.769-4.394 1.255-5.744 3.241-5.744 3.241z"/><path fill="#fff" d="M121.109 55.769c-.618.514-2.555 2.098-2.555 2.098.619 1.474 2.432 2.044 4.014 2.175 1.693.141 3.416-.038 5.099-.202 1.108-.109 2.579.008 3.519-.665.522-.375 2.375-1.765 2.131-2.775-.272-1.145-2.289-1.805-3.291-2.11-2.141-.656-4.035-.379-6.2.143-1.138.274-1.54.364-2.717 1.336z"/><radialGradient id="d" cx="861.313" cy="-10.527" r="2.845" gradientTransform="matrix(1 -.017 -.017 -1 -735.022 60.51)" gradientUnits="userSpaceOnUse"><stop offset="0" stop-color="#28353D"/><stop offset=".508" stop-color="#27323B"/><stop offset=".809" stop-color="#222A33"/><stop offset="1" stop-color="#1D2029"/></radialGradient><path fill="url(#d)" d="M128.382 54.074c.468.527.755 1.22.767 1.978a3.049 3.049 0 0 1-3 3.102 3.052 3.052 0 0 1-2.405-4.988c.731-.307 3.926-.32 4.638-.092z"/><path fill="#212121" d="M127.879 56.325c.018 1.034-.801 1.881-1.831 1.898s-1.883-.803-1.901-1.834a1.867 1.867 0 1 1 3.732-.064z"/><path fill="#B76B2C" d="M120.468 59.571s6.294 1.49 10.412-.609c2.097-1.066 2.438-2.563 2.438-2.563s.268 2.187-2.891 3.27c-4.911 1.679-9.959-.098-9.959-.098z"/><path fill="#fff" d="M123.784 56.546a.543.543 0 1 0 .554-.935.543.543 0 0 0-.554.935zm1.338-.589a.44.44 0 0 0 .604-.151.443.443 0 0 0-.758-.457.44.44 0 0 0 .154.608z"/><path fill="#1A1A1A" d="M118.555 57.866s3.199-4.417 9.651-4.702c5.125-.233 6.967 2.701 6.967 2.701l-1.929.601s-2.123-2.115-5.779-2.009c-4.806.135-8.233 2.766-8.91 3.409z"/><path opacity=".5" fill="#F6A76A" d="M110.688 75.454s-.03 2.661-1.407 2.603c-1.376-.059.375.453 1.208.226s.885-.639.199-2.829z"/><path fill="#FB9A18" d="M73.888 125.783s-4.877-3.491-7.896-2.975c-3.933.67-2.954 13.375-.031 14.803 2.855 1.395 6.971-1.469 8.544-3.98 0-.001-1.395-3.134-.617-7.848z"/><path opacity=".3" d="M74.056 129.453c-.589-2.045-2.587-2.555-3.97-2.502-.09.003-.542-.202-.324-.211 1.573-.059 4.076.419 4.756 2.795.031.106-.423.063-.462-.082zm-.563.924c-1.401-.611-3.052-.531-4.263.423-.118.089-.588-.088-.536-.133 1.461-1.147 3.568-1.039 5.214-.321.236.103-.321.071-.415.031zM74.321 132.665c-1.032-1.476-2.88-.445-4.056.646-.076.071-.518.221-.332.049 1.334-1.241 3.607-2.683 4.806-.969.054.074-.346.377-.418.274z"/><path fill="#FB9A18" d="M79.197 125.365s4.364-4.574 7.334-4.178c3.543.471 5.099 13.1 2.347 14.613-3.437 1.893-7.115-.355-9.063-2.589 0 .001.892-3.315-.618-7.846z"/><path opacity=".3" d="M80.013 128.545c.238-1.813 1.93-2.516 3.16-2.663.079-.008.452-.243.256-.22-1.392.165-3.539.91-3.814 3.013-.012.093.381-.003.398-.13zm.342 1.29c1.424-.833 3.231-1.024 4.708-.283.14.07.626-.185.56-.218-1.78-.895-4.053-.439-5.725.538-.24.142.36.021.457-.037zm-.537 1.51c.864-1.06 2.542.245 3.62 1.452.07.078.468.305.297.114-1.229-1.373-3.297-3.128-4.299-1.897-.043.052.322.405.382.331z"/><path fill="#317AA0" d="M79.212 125.303s-3.247-1.092-5.325.479c0 0-.907 4.294.617 7.847 0 0 3.193 1.035 5.329-.419.001.001 1.237-4.38-.621-7.907z"/><path fill="#FB9A18" d="M147.277 125.783s4.877-3.491 7.896-2.975c3.934.67 2.954 13.375.032 14.803-2.854 1.395-6.972-1.469-8.546-3.98.001-.001 1.396-3.134.618-7.848z"/><path opacity=".3" d="M147.109 129.453c.588-2.045 2.586-2.555 3.971-2.502.088.003.542-.202.322-.211-1.571-.059-4.076.419-4.756 2.795-.029.106.424.063.463-.082zm.562.924c1.403-.611 3.054-.531 4.265.423.115.089.588-.088.535-.133-1.462-1.147-3.568-1.039-5.214-.321-.236.103.321.071.414.031zM146.844 132.665c1.034-1.476 2.881-.445 4.057.646.076.071.519.221.332.049-1.334-1.241-3.608-2.683-4.807-.969-.055.074.345.377.418.274z"/><path fill="#FB9A18" d="M141.969 125.365s-4.365-4.574-7.335-4.178c-3.542.471-5.099 13.1-2.347 14.613 3.438 1.893 7.115-.355 9.063-2.589 0 .001-.892-3.315.619-7.846z"/><path opacity=".3" d="M141.15 128.545c-.236-1.813-1.93-2.516-3.158-2.663-.079-.008-.451-.243-.256-.22 1.394.165 3.539.91 3.814 3.013.013.093-.38-.003-.4-.13zm-.339 1.29c-1.426-.833-3.232-1.024-4.709-.283-.139.07-.625-.185-.559-.218 1.777-.895 4.053-.439 5.725.538.24.142-.361.021-.457-.037zm.537 1.51c-.863-1.06-2.541.245-3.621 1.452-.07.078-.469.305-.295.114 1.228-1.373 3.295-3.128 4.297-1.897.044.052-.322.405-.381.331z"/><path fill="#317AA0" d="M141.952 125.303s3.247-1.092 5.325.479c0 0 .906 4.294-.617 7.847 0 0-3.192 1.035-5.329-.419 0 .001-1.237-4.38.621-7.907z"/><ellipse fill="#FB9A18" stroke="#C17316" stroke-width=".5" stroke-miterlimit="10" cx="78.512" cy="26.979" rx="1.922" ry="3.907"/><ellipse transform="rotate(-135 75.744 28.138)" fill="#FB9A18" stroke="#C17316" stroke-width=".5" stroke-miterlimit="10" cx="75.749" cy="28.124" rx="3.905" ry="1.922"/><ellipse fill="#FB9A18" stroke="#C17316" stroke-width=".5" stroke-miterlimit="10" cx="74.606" cy="30.885" rx="3.907" ry="1.923"/><ellipse transform="rotate(135 75.76 33.639)" fill="#FB9A18" stroke="#C17316" stroke-width=".5" stroke-miterlimit="10" cx="75.753" cy="33.646" rx="3.906" ry="1.922"/><ellipse fill="#FB9A18" stroke="#C17316" stroke-width=".5" stroke-miterlimit="10" cx="78.512" cy="34.791" rx="1.922" ry="3.907"/><ellipse transform="rotate(45 81.274 33.623)" fill="#FB9A18" stroke="#C17316" stroke-width=".5" stroke-miterlimit="10" cx="81.276" cy="33.65" rx="3.906" ry="1.922"/><ellipse fill="#FB9A18" stroke="#C17316" stroke-width=".5" stroke-miterlimit="10" cx="82.417" cy="30.885" rx="3.907" ry="1.923"/><ellipse transform="rotate(-45 81.274 28.138)" fill="#FB9A18" stroke="#C17316" stroke-width=".5" stroke-miterlimit="10" cx="81.273" cy="28.121" rx="3.905" ry="1.922"/><circle fill="#317AA0" cx="78.511" cy="30.885" r="2.31"/><ellipse fill="#FB9A18" stroke="#C17316" stroke-width=".5" stroke-miterlimit="10" cx="146.645" cy="49.229" rx="1.359" ry="2.763"/><ellipse transform="rotate(-135 144.69 50.067)" fill="#FB9A18" stroke="#C17316" stroke-width=".5" stroke-miterlimit="10" cx="144.694" cy="50.043" rx="2.761" ry="1.359"/><ellipse fill="#FB9A18" stroke="#C17316" stroke-width=".5" stroke-miterlimit="10" cx="143.885" cy="51.99" rx="2.764" ry="1.359"/><ellipse transform="rotate(135 144.698 53.91)" fill="#FB9A18" stroke="#C17316" stroke-width=".5" stroke-miterlimit="10" cx="144.687" cy="53.947" rx="2.762" ry="1.358"/><ellipse fill="#FB9A18" stroke="#C17316" stroke-width=".5" stroke-miterlimit="10" cx="146.645" cy="54.752" rx="1.359" ry="2.761"/><ellipse transform="rotate(45 148.565 53.87)" fill="#FB9A18" stroke="#C17316" stroke-width=".5" stroke-miterlimit="10" cx="148.601" cy="53.946" rx="2.763" ry="1.359"/><ellipse fill="#FB9A18" stroke="#C17316" stroke-width=".5" stroke-miterlimit="10" cx="149.407" cy="51.99" rx="2.762" ry="1.359"/><ellipse transform="rotate(-45 148.57 50.07)" fill="#FB9A18" stroke="#C17316" stroke-width=".5" stroke-miterlimit="10" cx="148.594" cy="50.038" rx="2.762" ry="1.359"/><circle fill="#317AA0" cx="146.645" cy="51.99" r="1.633"/><path opacity=".1" fill="#fff" d="M143.193 11.355l-.084.072c-1.324 1.275-3.194 2.36-6.115 3.23l-.036.012c-11.063 3.326-17.772-8.153-27.155 2.3-.965 1.073-1.931 2.11-2.92 3.028-1.813 1.752-3.732 3.183-5.853 3.993-2.563.978-5.448 1.062-8.881-.357-11.408-4.637-15.389-3.517-20.3-.381 1.86-5.066 4.172-11.003 5.198-12.338a18.5 18.5 0 0 1 3.123.548c12.027 3.052 16.02 9.454 25.509-.917 8.321-9.083 15.997-4.244 27-2.051 3.742.752 5.875.298 7.271-.858l.131.132c.346.334.667.691 1.001 1.049.717.786 1.42 1.632 2.111 2.538z"/><path fill="#fff" d="M142.18 190.576l-.883.322a92.208 92.208 0 0 1-31.731 5.639 92.235 92.235 0 0 1-32.125-5.781l-.489-.179.632-1.681.631-1.668a88.618 88.618 0 0 0 62.701 0l.238.621 1.026 2.727z" opacity=".5"/></svg>