<svg xmlns="http://www.w3.org/2000/svg" width="220" height="220" viewBox="0 0 220 220"><path fill="#fc9" stroke="#D09D6A" stroke-width=".5" stroke-miterlimit="10" d="M172.965 171.184s-1.596-8.608-3.508-9.404c-4.206-1.752-9.031-2.465-13.43-3.567-5.992-1.503-12.979-2.163-18.549-4.89-4.711-2.307-8.486-6.161-10.778-10.87-2.607-5.357-2.161-10.581-2.083-16.33.01-.688.242-11.211.049-11.212H95.967c0 7.053 1.016 14.58-.055 21.57-1.061 6.929-6.403 13.754-12.604 16.944-2.606 1.343-5.384 1.556-8.195 2.179-6.175 1.367-12.315 3.012-18.431 4.625-1.821.479-3.758.821-5.504 1.551-1.915.795-3.51 9.404-3.51 9.404l63.688 5.045 61.609-5.045z"/><path opacity=".5" fill="#F6A76A" d="M88.521 158.468c5.05-1.008 10.092-1.659 15.222-2.073.639-.054 1.871-.438 2.357.021.188.197.295.604.411.846.786 1.658 2.207 3.059 4.156 2.936 1.8-.116 3.216-1.495 4.168-2.922.131-.193.235-.465.392-.637.342-.693 1.455-.283 2.01-.236 5.013.43 9.945 1.074 14.877 2.066a179.215 179.215 0 0 1-7.736-.621c-2.855-.289-5.77-.24-8.637-.412.188-.039.406-.052.507-.26-1.017 1.979-2.925 4.077-5.288 4.256-2.818.213-4.931-1.795-5.81-4.354.05.192.388.31.556.339a402.76 402.76 0 0 1-8.577.354c-2.866.282-5.736.54-8.608.697 1.413-.28 1.438-.077 0 0zm36.142-42.171v12.671c-5.103 4.984-9.976 6.912-15.1 6.912-4.489 0-8.779-1.481-13.211-5.194v-14.389h28.311z"/><path fill="#fc9" stroke="#D09D6A" stroke-width=".5" stroke-miterlimit="10" d="M134.869 48.91c-9.887-12.276-18.838-7.813-25.509-7.813-6.671 0-15.624-4.463-25.509 7.813-9.882 12.273-6.854 38.578-6.854 38.578s-.636 10.202 4.781 17.376c10.204 17.858 18.484 23.751 27.582 23.751 9.099 0 17.378-5.893 27.582-23.751 5.418-7.174 4.781-17.376 4.781-17.376s3.03-26.305-6.854-38.578z"/><path fill="#1A1A1A" d="M121.725 18.651c8.226-6.566 16.014-17.478 26.871-18.428 9.438-.826 28.098.004 29.317 13.672 1.329 14.904-21.453 35.836 2.94 40.589 4.434.865 12.721.026 12.5 6.768-.176 5.455-4.5 12.048-7.445 16.229-3.021 4.288-18.883 24.179-3.395 19.811-2.365 7.784-13.971 8.659-18.849 3.362-1.675-1.82-3.386-4.407-3.573-7.031-.197-2.742 1.559-4.839 2.586-7.17.512-1.159 1.088-2.716 1.09-4.022.018-7.008-16.748-.236-16.752-.351-.086-4.349-2.496-39.515-2.496-39.515l-22.794-23.914z"/><path opacity=".1" fill="#fff" d="M145.741 12.508c3.69 1.082 7.169 2.61 10.2 5.172 3.463 2.929 5.721 7.268 6.625 11.877.938 4.777.662 9.747.662 14.597 0 4.723.092 9.442 1.146 14.051.793 3.458 2.233 6.598 3.799 9.711-2.512-2.995-4.493-6.282-5.726-10.114-1.434-4.47-1.83-9.245-1.94-13.946-.114-4.774.208-9.674-.719-14.372-.908-4.62-3.071-8.705-6.463-11.74-2.333-2.088-4.932-3.664-7.584-5.236zm-1.95 6.515c2.678 1.001 5.169 2.297 7.262 4.274 2.393 2.262 3.793 5.417 4.174 8.664.396 3.367-.127 6.783-.437 10.134-.302 3.265-.532 6.533-.041 9.791.369 2.446 1.241 4.714 2.208 6.973-1.68-2.242-2.943-4.65-3.616-7.382-.782-3.189-.772-6.516-.556-9.772.217-3.309.77-6.672.38-9.982-.382-3.256-1.731-6.227-4.062-8.559-1.605-1.604-3.439-2.872-5.312-4.141z"/><path fill="#1A1A1A" d="M76.562 138.499c4.589-1.622 3.621-11.149 2.99-14.521-1.75-9.357-7.489-17.34-11.229-25.938-4.175-9.599-5.052-22.824-5.453-33.243-.207-5.336-.482-11.661 1.212-16.84 4.019-12.284 12.187-27.897 26.15-30.615 13.212-2.569 27.353-2.948 40.019 2.08 30.329 12.041 24.953 54.438 16.873 79.179-3.937 12.051-14.718 31.238-1.935 41.556-12.711-4.149-12.449-21.489-8.535-31.612 7.019-18.149 7.753-37.667-4.516-53.695-6.604-8.625-11.828-7.003-20.969-2.546-9.943 4.848-26.779 8.753-32.433 19.409-5.311 10.01.296 24.187 2.826 34.421 6.95 28.098-4.796 32.292-5 32.365z"/><path opacity=".05" fill="#fff" d="M76.945 107.392c-.45-.874-.903-1.739-1.355-2.6-1.465-2.796-2.849-5.436-4.032-8.158-3.804-8.744-4.745-21.07-5.164-31.973l-.01-.252c-.197-5.09-.421-10.86 1.05-15.356 2.488-7.604 9.755-25.581 23.472-28.249 6.076-1.182 11.865-1.781 17.21-1.781 7.68 0 14.688 1.236 20.834 3.676 12.146 4.822 19.086 15.548 20.631 31.882 1.664 17.596-3.507 35.88-5.808 42.925l-.252.75c3.981-17.34 1.088-32.919-8.584-45.55-3.951-5.164-7.983-7.567-12.684-7.567-4.096 0-8.311 1.889-12.628 3.995-2.55 1.244-5.709 2.399-9.051 3.623-9.661 3.538-20.61 7.546-25.356 16.49-5.425 10.226-1.765 24.495.907 34.915.28 1.09.55 2.141.797 3.143l.023.087z"/><path fill="#ED5B4C" stroke="#CC3D36" stroke-width=".5" stroke-miterlimit="10" d="M178.213 167.675c-4.463-7.017-12.273-6.378-12.273-6.378-13.396 7.508-50.879 6.982-56.579 6.695 0 0-41.324.787-54.677-6.695 0 0-7.812-.639-12.273 6.378C37.947 174.689 21 220 21 220h178.123s-16.447-45.311-20.91-52.325z"/><path opacity=".1" fill="#fff" d="M109.117 185.3c7.35.371 53.906 1.027 73.703-7.786-1.936-4.611-3.588-8.233-4.607-9.839-4.463-7.017-12.273-6.378-12.273-6.378-13.396 7.508-50.879 6.982-56.579 6.695 0 0-41.324.787-54.677-6.695 0 0-7.812-.639-12.273 6.378-1.015 1.595-2.678 5.179-4.635 9.748 19.995 8.854 71.341 7.877 71.341 7.877zM72.769 95.355c-.856.157-1.392-5.276-1.498-5.893-.549-3.157-.941-6.253-.669-9.466.323-3.813 1.271-7.586 2.054-11.324.652-3.129 1.467-6.17 3.135-8.927 2.058-3.398 4.961-5.697 8.313-7.739-2.709 1.161-5.285 2.493-7.406 4.585-2.389 2.354-3.821 5.313-4.712 8.515-1.903 6.844-3.343 14.549-2.306 21.639.263 1.808.647 3.624 1.304 5.333.365.953.869 2.741 1.785 3.277M127.251 38.175c7.485-2.12 5.979-6.069 10.229-10.42-1.203-.72-2.478-1.355-3.713-2.226-3.442 4.117-1.646 9.706-9.851 8.141-8.463-1.614-14.357-5.155-20.764 1.498-7.305 7.59-10.378 2.91-19.631.665-8.778-2.133-12.757 3.795-15.112 10.407a92.288 92.288 0 0 0-1.251 3.742c12.156-4.972 11.109-10.828 25.584-5.227 6.023 2.333 9.841-.926 13.58-4.886 7.231-7.665 12.399.776 20.929-1.694.381-.107-2.088.606 0 0z"/><radialGradient id="a" cx="136.621" cy="-50.138" r="15.999" gradientTransform="matrix(1 0 0 -1 -47.6 50.01)" gradientUnits="userSpaceOnUse"><stop offset="0" stop-color="#ED1C24"/><stop offset="1" stop-color="#ED1C24" stop-opacity="0"/></radialGradient><path opacity=".15" fill="url(#a)" d="M105.02 100.146c0 8.837-7.16 16-15.999 16-8.835 0-15.998-7.163-15.998-16 0-8.836 7.163-15.998 15.998-15.998 8.838 0 15.999 7.163 15.999 15.998z"/><radialGradient id="b" cx="177.298" cy="-50.136" r="15.999" gradientTransform="matrix(1 0 0 -1 -47.6 50.01)" gradientUnits="userSpaceOnUse"><stop offset="0" stop-color="#ED1C24"/><stop offset="1" stop-color="#ED1C24" stop-opacity="0"/></radialGradient><circle opacity=".15" fill="url(#b)" cx="129.697" cy="100.146" r="15.999"/><path fill="#1A1A1A" d="M100.256 73.649c-2.832-.981-5.686-2.187-8.616-2.826-1.425-.311-2.871-.388-4.325-.355-.813.019-1.647.09-2.448.245-.265.06-1.604.53-1.654.215-.06-.375 3.975-1.157 4.329-1.21 1.466-.223 2.976-.195 4.446-.028 1.667.188 3.452.449 4.938 1.279.5.242 3.72 2.044 3.33 2.68zm17.971-.123c1.869-2.188 4.771-3.175 7.528-3.556 1.733-.239 3.521-.306 5.261-.086.343.043 4.373.689 4.338 1.043-.031.319-1.095-.034-1.337-.076a15.603 15.603 0 0 0-2.413-.226c-1.788-.023-3.546.121-5.291.523-1.711.395-3.384 1.044-5.059 1.57-.432.136-2.729 1.168-3.027.808z"/><path fill="#D9AA8E" d="M100.381 81.036s-2.034-5.888-7.762-6.501c-6.961-.743-8.023 4.482-7.379 3.457 0 0 3.479-2.356 9.178-.548 4.596 1.456 5.963 3.592 5.963 3.592z"/><path fill="#EACBBA" d="M91.921 74.848s-2.581-.118-3.861.488c-1.282.601-1.936 1.812-1.936 1.812s2.668-.425 3.076-1.125c.381-.648 2.721-1.175 2.721-1.175z"/><path fill="#C78A66" d="M99.268 79.927c-1.107-2.089-2.248-3.391-4.149-4.434-1.067-.586-1.647-.698-1.647-.698s1.561.64 1.68 1.228c.09.458-1.203.825-1.203.825 1.552.783 1.92.871 2.896 1.338.661.321 2.423 1.741 2.423 1.741z"/><path fill="#fff" d="M97.636 78.734c.658.547 2.719 2.237 2.719 2.237-.658 1.57-2.589 2.178-4.273 2.316-1.806.151-3.64-.039-5.433-.215-1.185-.117-2.75.01-3.751-.707-.559-.399-2.527-1.881-2.271-2.959.292-1.219 2.44-1.923 3.505-2.248 2.282-.701 4.303-.404 6.608.152 1.214.294 1.642.389 2.896 1.424z"/><radialGradient id="c" cx="625.285" cy="-29.553" r="3.032" gradientTransform="rotate(-180 359.098 27.203)" gradientUnits="userSpaceOnUse"><stop offset="0" stop-color="#28353D"/><stop offset=".508" stop-color="#27323B"/><stop offset=".809" stop-color="#222A33"/><stop offset="1" stop-color="#1D2029"/></radialGradient><path fill="url(#c)" d="M89.885 76.929a3.243 3.243 0 0 0-.817 2.107 3.25 3.25 0 0 0 6.498.109 3.204 3.204 0 0 0-.738-2.12c-.779-.324-4.184-.339-4.943-.096z"/><path fill="#212121" d="M90.422 79.328a1.988 1.988 0 0 0 3.975.067 1.988 1.988 0 1 0-3.975-.067z"/><path fill="#B76B2C" d="M98.316 82.787s-6.705 1.587-11.091-.649c-2.236-1.137-2.599-2.732-2.599-2.732s-.287 2.331 3.081 3.486c5.232 1.79 10.609-.105 10.609-.105z"/><path fill="#fff" d="M89.469 79.563a.584.584 0 0 0 .797-.203.582.582 0 0 0-.2-.793.588.588 0 0 0-.799.201.583.583 0 0 0 .202.795zm1.426-.626a.47.47 0 1 0-.163-.647.465.465 0 0 0 .163.647z"/><path fill="#1A1A1A" d="M100.354 80.971s-3.406-4.707-10.284-5.01c-5.462-.247-7.423 2.878-7.423 2.878l2.055.642s2.264-2.256 6.16-2.142c5.121.141 8.773 2.946 9.492 3.632z"/><path fill="#D9AA8E" d="M118.34 81.036s2.034-5.888 7.762-6.501c6.961-.743 8.023 4.482 7.379 3.457 0 0-3.479-2.356-9.178-.548-4.596 1.456-5.963 3.592-5.963 3.592z"/><path fill="#EACBBA" d="M126.8 74.848s2.581-.118 3.861.488c1.28.601 1.937 1.812 1.937 1.812s-2.668-.425-3.076-1.125c-.381-.648-2.722-1.175-2.722-1.175z"/><path fill="#C78A66" d="M119.453 79.927c1.105-2.089 2.248-3.391 4.148-4.434 1.066-.586 1.647-.698 1.647-.698s-1.562.64-1.681 1.228c-.09.458 1.203.825 1.203.825-1.551.783-1.92.871-2.896 1.338-.659.321-2.421 1.741-2.421 1.741z"/><path fill="#fff" d="M121.085 78.734c-.657.547-2.722 2.237-2.722 2.237.66 1.57 2.592 2.178 4.275 2.316 1.805.151 3.639-.039 5.432-.215 1.187-.117 2.752.01 3.752-.707.558-.399 2.527-1.881 2.271-2.959-.292-1.219-2.44-1.923-3.507-2.248-2.281-.701-4.301-.404-6.605.152-1.213.294-1.642.389-2.896 1.424z"/><radialGradient id="d" cx="482.502" cy="-27.14" r="3.032" gradientTransform="matrix(1 -.017 -.017 -1 -356.208 60.51)" gradientUnits="userSpaceOnUse"><stop offset="0" stop-color="#28353D"/><stop offset=".508" stop-color="#27323B"/><stop offset=".809" stop-color="#222A33"/><stop offset="1" stop-color="#1D2029"/></radialGradient><path fill="url(#d)" d="M128.836 76.929c.498.562.805 1.3.816 2.107a3.25 3.25 0 0 1-3.194 3.306 3.255 3.255 0 0 1-3.306-3.197 3.206 3.206 0 0 1 .74-2.12c.779-.324 4.185-.339 4.944-.096z"/><path fill="#212121" d="M128.299 79.328a1.99 1.99 0 1 1 0 0z"/><path fill="#B76B2C" d="M120.402 82.787s6.707 1.587 11.092-.649c2.236-1.137 2.6-2.732 2.6-2.732s.286 2.331-3.08 3.486c-5.235 1.79-10.612-.105-10.612-.105z"/><path fill="#fff" d="M123.747 79.563a.581.581 0 1 0 .599-.996.59.59 0 0 0-.801.201.589.589 0 0 0 .202.795zm1.426-.626a.47.47 0 0 0 .646-.162.476.476 0 0 0-.166-.649.476.476 0 0 0-.644.164.467.467 0 0 0 .164.647z"/><path fill="#1A1A1A" d="M118.363 80.971s3.408-4.707 10.287-5.01c5.461-.247 7.422 2.878 7.422 2.878l-2.055.642s-2.265-2.256-6.16-2.142c-5.123.141-8.771 2.946-9.494 3.632z"/><path fill="#B54A37" d="M106.62 108.982c4.192.437 10.251.283 12.138-.918 0 0-.699 2.016-1.718 3.54-1.406 2.099-3.632 2.707-7.361 2.623-5.745-.131-5.954.283-7.71-3.365-.211-.445-1.36-2.917-1.953-3.675 0-.001 2.473 1.365 6.604 1.795z"/><path fill="#fff" d="M116.637 110.199c-2.865 2.234-9.729 2.797-13.521.355-.279-.183-.518-1.015-1.522-1.841l16.214-.684-1.171 2.17z"/><path fill="#FF5D47" d="M117.766 109.694c-.812 1.26-3.512 3.703-8.15 3.664-4.637.039-7.426-2.832-8.239-4.091-.346-.525-1.052-1.519-1.052-1.519.443 1.225 1.113 3.063 1.816 4.349 1.144 2.075 2.213 2.883 3.106 3.479a7.99 7.99 0 0 0 4.325 1.31h.087a7.968 7.968 0 0 0 4.324-1.31c.896-.596 1.963-1.397 3.106-3.475.702-1.283 1.373-3.123 1.815-4.352 0-.001-.795 1.42-1.138 1.945z"/><path opacity=".58" fill="#fff" d="M112.532 115.188s-.3-1.099-.027-1.563c.218-.366 1.468-.588 1.507-.318.109.731.692 1.477.066 1.828-.623.345-1.344.506-1.546.053z"/><path opacity=".43" fill="#fff" d="M110.805 115.552s-.308-1.272.227-1.358c.535-.084 1-.096 1.008.172.011.271.386 1.542-.08 1.625-.715.123-1.008.03-1.155-.439z"/><path fill="#FF5D47" d="M119.46 107.167c-.369.301-1.104.583-2.623.379-2.905-.394-5.217-.292-7.196-.101-2.022-.285-4.397-.328-7.215.024-1.518.188-2.25-.104-2.615-.407 1.969 2.614 6.027 3.083 9.765 3.055v-.034h.086v.034c3.738.071 7.799-.357 9.798-2.95z"/><path fill="#B54A37" d="M119.732 106.87c-.471.186-1.021.906-1.021.906-1.346 1.727-6.126 2.148-7.444 2.142-.406-.001-.938.025-1.54.049-.602-.024-1.133-.05-1.54-.049-1.319.006-6.099-.415-7.444-2.142 0 0-.551-.72-1.022-.906-.651-.261-.955-.028-.405.344.189.13.537-.109 1.095.751.846 1.312 3.977 1.945 5.953 2.164.996.112 2.178.177 3.364.202a38.082 38.082 0 0 0 3.365-.202c1.977-.219 5.105-.853 5.952-2.164.558-.86.905-.621 1.097-.751.547-.372.243-.605-.41-.344z"/><path opacity=".32" fill="#F5B1A2" d="M114.607 101.265c-.769-2.042-2.594-1.582-4.304-1.296-.978.161-1.784.038-2.734-.215-.98-.262-2.008-.35-2.736.485-.543.622.605.736 1.003.864.948.302 1.621 1.015 2.475 1.503 2.294 1.314 3.957-1.542 6.296-1.341-.041-.111-.899-.077 0 0z"/><path fill="#AE8879" d="M107.595 101.06l.319.261c-.316-.333-.619-.653-.976-.941-.188-.151-1.49-1.035-1.722-.659-.033.052 1.127.484 1.211.523.408.158.85.516 1.168.816zm3.402.145l-.343.228c.346-.302.676-.601 1.055-.859.18-.123 1.616-.901 1.771-.509.023.044-1.162.386-1.248.415-.421.145-.892.441-1.235.725z"/><path opacity=".2" fill="#F5B1A2" d="M106.886 101.791c-.564-.597-1.402-1.188-2.271-.984.812-1.429 3.154.98 3.998 1.225 1.04.304 2.019-.161 2.931-.616 1.047-.521 2.06-.69 3.163-.222-.657.206-1.252.137-1.906.457-.695.339-1.32.799-2.003 1.166-1.518.81-2.82.133-3.912-1.026zm5.938-1.297c.867.943-1.92 2.228-2.597 2.121.098-.806 1.628-3.182 2.597-2.121zm-6.984-.181c-.867.942 1.921 2.227 2.598 2.119-.099-.807-1.628-3.182-2.598-2.119z"/><path opacity=".5" fill="#F6A76A" d="M109.749 103.172s-.03 2.684-1.42 2.625c-1.386-.061.381.457 1.221.227.842-.228.891-.641.199-2.852zM114.104 100.043s1.233-.463.992-1.674c-.242-1.212-.912-1.812-.912-1.812s.998.834 1.108 2.057c.112 1.223-1.188 1.429-1.188 1.429zm-9.486-.089s-1.234-.463-.993-1.672c.241-1.21.913-1.812.913-1.812s-1 .835-1.109 2.057c-.113 1.223 1.189 1.427 1.189 1.427z"/><path opacity=".3" fill="#FDE9D7" d="M113.35 94.452s-.721-.307-.955-1.552c-.237-1.247-1.194-3.472-1.674-.572-.477 2.899-.354 4.351.69 3.979 1.538-.542 2.538-.146 2.596-.82.034-.425-.219-.815-.657-1.035z"/><path fill="#ED5B4C" d="M133.566 12.821s7.471-2.668 11.119-.915c4.76 2.28-1.098 18.075-5.332 18.832-4.136.736-8.332-4.398-9.42-8.164.003.001 2.913-3.477 3.633-9.753z"/><path d="M132.021 17.428c1.49-2.386 4.217-2.312 5.959-1.741.109.037.761-.06.485-.15-1.979-.647-5.336-.947-7.063 1.822-.075.126.519.237.619.069zm.379 1.378c2.004-.268 4.074.436 5.27 2.085.116.157.777.102.729.028-1.441-1.994-4.16-2.62-6.515-2.306-.335.051.386.212.516.193zm-1.88 2.609c1.851-1.502 3.823.482 4.922 2.293.07.117.58.471.406.18-1.244-2.057-3.615-4.719-5.759-2.974-.097.075.304.606.431.501z" opacity=".3"/><path fill="#ED5B4C" d="M126.968 10.362s-3.887-7.399-7.808-7.973c-4.678-.686-11.237 14.806-8.288 17.73 3.683 3.652 9.176 2.131 12.461-.005 0 .001.071-4.534 3.635-9.752z"/><path d="M124.777 14.11c.356-2.39-1.541-3.897-3.051-4.532-.098-.037-.483-.474-.246-.374 1.711.718 4.172 2.444 3.758 5.217-.017.122-.484-.144-.461-.311zm-.903 1.515c-1.507-1.574-3.737-2.475-5.884-2.067-.204.04-.729-.464-.635-.48 2.588-.49 5.315.912 7.086 2.765.254.265-.466-.108-.567-.218zm.135 2.114c-.713-1.658-3.319-.611-5.129.533-.118.077-.706.218-.42.039 2.062-1.3 5.329-2.78 6.155-.852.035.081-.556.396-.606.28z" opacity=".3"/><path fill="#FFC48C" d="M126.971 10.277s4.526-.209 6.596 2.544c0 0-.404 5.79-3.631 9.754 0 0-4.435.156-6.625-2.468 0 0 .018-6.02 3.66-9.83z"/><path d="M154.116 195.6c7.459 6.246 11.34 15.031 11.252 24.305-.462-1.894-.81-3.799-1.318-5.682-.661-2.457-1.571-4.818-2.585-7.164-1.556-4.213-4.634-7.85-7.349-11.459zm-88.902 0c-7.459 6.246-11.34 15.031-11.252 24.305.462-1.894.809-3.799 1.319-5.682.661-2.457 1.571-4.818 2.584-7.164 1.556-4.213 4.634-7.85 7.349-11.459z" opacity=".1"/></svg>