<svg xmlns="http://www.w3.org/2000/svg" width="220" height="220" viewBox="0 0 220 220"><path fill="#fc9" stroke="#D09D6A" stroke-width=".5" stroke-miterlimit="10" d="M41.541 150.854l2.336-2.179c.748-.716.705-1.886-.068-2.568l-5.85-5.147c-.639-.562-1.334-.518-1.93.092l-2.367 2.688c-.384.437-1.299.528-1.877.438l-1.89-.293-5.736-.873c-1.058-.154-1.995.572-2.148 1.628l.003.064c-.125 1.023.606 2.025 1.663 2.18l1.633.244c.738.113.95.955.447 1.527.685-.711-2.499 2.839-2.499 2.839-.77.873-1.093 2.259-.067 2.924.857.515 2.136.148 2.757-.558l-1.053 1.197a1.878 1.878 0 0 0 .406 2.86c.827.551 1.663.211 2.284-.494l.887-1.008c-.769.873-.5 2.601.527 3.266.795.521 1.878.102 2.5-.603l1.183-1.345c-.769.873-.764 1.952.2 2.62a1.978 1.978 0 0 0 2.579-.354l.355-.402c-.001.001 1.812-1.925 5.725-8.743zm141.348 9.783l.356.402c.651.74 1.751.905 2.579.354.964-.668.969-1.748.201-2.62l1.183 1.345c.621.705 1.704 1.125 2.5.603 1.025-.665 1.294-2.393.526-3.266l.887 1.008c.621.705 1.457 1.044 2.284.494 1.026-.664 1.174-1.988.405-2.86l-1.053-1.197c.622.706 1.9 1.072 2.758.558 1.026-.666.702-2.052-.067-2.924 0 0-3.184-3.55-2.5-2.839-.502-.572-.291-1.414.447-1.527l1.633-.244c1.057-.155 1.788-1.157 1.663-2.18l.003-.064c-.154-1.056-1.092-1.782-2.149-1.628l-5.736.873-1.89.292c-.579.09-1.492-.002-1.876-.438l-2.367-2.689c-.597-.61-1.292-.654-1.931-.092l-5.85 5.147c-.773.682-.816 1.852-.069 2.568l2.337 2.179c3.913 6.82 5.726 8.745 5.726 8.745zM119.711 95.12s-24.865 4.613-20.956 0c2.525-2.979 3.137-9.451 3.257-13.659.066-2.3-.013-3.921-.013-3.921s18.178-10.077 16.038 0a29.286 29.286 0 0 0-.578 4.147c-.546 7.916 2.252 13.433 2.252 13.433z"/><path opacity=".5" fill="#F6A76A" d="M118.037 78.204a29.306 29.306 0 0 0-.578 4.147c-3.722.983-6.275 1.754-7.298 1.754-1.043 0-3.928-.896-8.148-1.98.066-2.299-.013-3.921-.013-3.921s18.177-10.077 16.037 0z"/><path fill="#fc9" stroke="#D09D6A" stroke-width=".5" stroke-miterlimit="10" d="M154.112 43.416c-4.404-8.723-8.201-4.147-8.687-3.5.266-1.399 1.943-11.819-4.798-21.605C129.641 4.36 112.481 4.166 109.168 4.266c-3.315-.1-20.473.095-31.458 14.044-6.682 9.699-5.094 20.016-4.806 21.563-.918-1.061-4.339-4.12-8.254 3.637-1.849 5.06 2.776 9.348 4.938 11.012-.179 1.667-.232 3.239-.077 4.557.764 6.458 2.669 16.234 23.452 19.369 8.565 1.482 14.663 3.702 16.206 3.702 1.629 0 7.639-2.22 16.205-3.702 20.782-3.135 22.688-12.912 23.452-19.369.143-1.211.111-2.637-.034-4.153 2.094-1.563 7.293-6.108 5.32-11.51z"/><path fill="#FFB679" d="M68.549 42.175c-1.512.069-.908 4.325-.628 5.824.282 1.495 1.721 2.324 2.575 1.988.85-.332 1.122-2.576.216-2.659-.905-.083-1.44-.663-1.011-1.247.432-.584.725-3.993-1.152-3.906zm81.552-.133c1.555.07.934 4.449.646 5.99-.29 1.537-1.77 2.391-2.649 2.045-.874-.342-1.153-2.651-.221-2.736s1.481-.682 1.04-1.282c-.446-.6-.747-4.106 1.184-4.017z"/><path opacity=".5" fill="#4F4849" d="M89.463 37.185c8.794-2.653 10.437 1.537 11.358 2.895-.43.136-7.203-2.997-7.625-2.831-2.184.838-4.292 1.894-5.866 2.674-.418.211-.672.734-1.006.898.727-1.327 2.227-3.361 3.139-3.636z"/><path fill="#B76B2C" d="M100.159 46.389s-6.066 3.439-10.793 1.621c-2.409-.926-3.041-2.833-3.041-2.833s.115 2.969 3.646 3.663c5.49 1.079 10.188-2.451 10.188-2.451z"/><path fill="#fff" d="M101.902 43.072c0 3.302-3.594 5.973-8.033 5.973-4.434 0-8.026-2.671-8.026-5.973 0-1.801 1.069-3.416 2.766-4.508 1.409-.91 3.247-1.463 5.261-1.463 2.044 0 3.905.564 5.32 1.498 1.662 1.091 2.712 2.689 2.712 4.473z"/><path fill="#716667" d="M93.872 48.962c-3.286 0-5.96-2.642-5.96-5.888 0-3.248 2.674-5.89 5.96-5.89 3.288 0 5.961 2.642 5.961 5.89 0 3.246-2.674 5.888-5.961 5.888z"/><path fill="#4F4849" d="M93.872 46.734c-2.051 0-3.718-1.642-3.718-3.66 0-2.02 1.667-3.66 3.718-3.66 2.05 0 3.719 1.641 3.719 3.66-.001 2.018-1.67 3.66-3.719 3.66z"/><path d="M88.832 43.916a.62.62 0 0 0 .855-.183.617.617 0 1 0-.855.183zm1.54-.607a.502.502 0 1 0 .55-.84.502.502 0 0 0-.55.84z" fill="#fff"/><path fill="#F9AE87" d="M101.113 34.771s-11.369-4.694-18.562 5.028c0-.001 6.204-13.852 18.562-5.028z"/><path opacity=".5" fill="#4F4849" d="M131.055 37.185c-8.793-2.653-10.436 1.537-11.358 2.895.43.136 7.204-2.997 7.625-2.831 2.184.838 4.292 1.894 5.866 2.674.419.211.671.734 1.006.898-.726-1.327-2.227-3.361-3.139-3.636z"/><path fill="#B76B2C" d="M120.36 46.389s6.065 3.439 10.793 1.621c2.408-.926 3.04-2.833 3.04-2.833s-.114 2.969-3.646 3.663c-5.49 1.079-10.187-2.451-10.187-2.451z"/><path fill="#fff" d="M118.616 43.072c0 3.302 3.593 5.973 8.033 5.973 4.434 0 8.027-2.671 8.027-5.973 0-1.801-1.069-3.416-2.766-4.508-1.409-.91-3.247-1.463-5.262-1.463-2.043 0-3.905.564-5.321 1.498-1.66 1.091-2.711 2.689-2.711 4.473z"/><path fill="#716667" d="M126.647 48.962c3.286 0 5.96-2.642 5.96-5.888 0-3.248-2.674-5.89-5.96-5.89-3.287 0-5.961 2.642-5.961 5.89 0 3.246 2.674 5.888 5.961 5.888z"/><path fill="#4F4849" d="M126.647 46.734c2.05 0 3.719-1.642 3.719-3.66 0-2.02-1.669-3.66-3.719-3.66s-3.719 1.641-3.719 3.66c0 2.018 1.669 3.66 3.719 3.66z"/><path d="M121.407 43.916a.62.62 0 0 0 .855-.183.618.618 0 1 0-.855.183zm1.541-.607a.502.502 0 1 0 .55-.839.502.502 0 0 0-.55.839z" fill="#fff"/><path fill="#F9AE87" d="M119.406 34.771s11.369-4.694 18.561 5.028c0-.001-6.204-13.852-18.561-5.028z"/><path fill="#FFE9C7" d="M111.194 48.221c-1.638-.479-3.217.329-4.132.844-1.188.669-2.643 1.611-1.954 3.142.499 1.107 5.903.48 6.412.376 1.569-.324 3.053-1.76 1.33-3.388-.546-.507-1.104-.814-1.656-.974z"/><path opacity=".5" d="M114.205 55.227s1.329-.495 1.071-1.79c-.258-1.296-.982-1.939-.982-1.939s1.077.894 1.195 2.2c.118 1.311-1.284 1.529-1.284 1.529zm-10.146.093s-1.389-.518-1.116-1.873c.271-1.356 1.028-2.027 1.028-2.027s-1.126.933-1.251 2.303c-.128 1.367 1.339 1.597 1.339 1.597z" fill="#F6A76A"/><path opacity=".32" fill="#F5B1A2" d="M115.624 55.091c-1.004-2.666-3.384-2.063-5.614-1.694-1.277.212-2.33.05-3.568-.279-1.278-.342-2.62-.455-3.572.632-.708.813.792.961 1.31 1.125 1.237.397 2.115 1.327 3.228 1.963 2.996 1.717 5.16-2.01 8.216-1.747-.055-.144-1.173-.101 0 0z"/><path fill="#AE8879" d="M106.475 54.822l.417.338c-.412-.431-.809-.849-1.273-1.225-.245-.199-1.944-1.351-2.246-.861-.044.068 1.47.631 1.581.685.528.207 1.109.671 1.521 1.063zm4.438.189l-.445.296c.45-.395.879-.781 1.375-1.12.232-.159 2.108-1.177 2.31-.662.033.053-1.516.503-1.628.543-.55.187-1.164.573-1.612.943z"/><path opacity=".2" fill="#F5B1A2" d="M105.548 55.776c-.736-.778-1.83-1.549-2.962-1.286 1.058-1.863 4.116 1.281 5.216 1.603 1.357.393 2.633-.212 3.824-.803 1.365-.68 2.687-.901 4.125-.291-.857.267-1.634.181-2.485.594-.91.445-1.724 1.044-2.614 1.521-1.979 1.059-3.677.173-5.104-1.338zm7.75-1.69c1.132 1.23-2.506 2.904-3.388 2.766.127-1.053 2.122-4.152 3.388-2.766zm-9.113-.24c-1.131 1.231 2.506 2.906 3.388 2.767-.128-1.05-2.123-4.151-3.388-2.767z"/><path fill="#F9AE87" d="M120.369 61.102c-.535.212-1.159 1.03-1.159 1.03-1.526 1.957-6.949 2.436-8.447 2.43-.459-.001-1.062.028-1.746.057-.685-.029-1.288-.058-1.746-.057-1.499.006-6.922-.473-8.448-2.43 0 0-.626-.817-1.16-1.03-.739-.296-1.084-.033-.463.394.216.148.611-.127 1.245.852.958 1.484 4.509 2.206 6.753 2.453 1.13.126 2.472.201 3.818.229a43.951 43.951 0 0 0 3.817-.229c2.245-.248 5.795-.969 6.754-2.453.633-.979 1.028-.703 1.245-.852.621-.427.277-.69-.463-.394z"/><path fill="#B54A37" d="M118.973 62.921c-.476 1.309-1.134 3.07-1.833 4.333l-.27.471c-1.134 1.908-2.197 2.701-3.094 3.292a8.627 8.627 0 0 1-4.682 1.42h-.093a8.652 8.652 0 0 1-4.686-1.42c-.78-.516-1.679-1.18-2.642-2.588a14.13 14.13 0 0 1-.723-1.175c-.763-1.386-1.486-3.371-1.966-4.704.028.042 1.59-.094 2.395-.193 2.002-.248 3.794-.312 5.409-.235.78.029 1.52.095 2.219.188h.006l.176.023a36.917 36.917 0 0 1 2.043-.147 30.852 30.852 0 0 1 5.755.26c1.645.222 2.296.21 1.986.475z"/><path fill="#FF5D47" d="M116.871 67.725c-1.134 1.908-2.197 2.701-3.094 3.292a8.627 8.627 0 0 1-4.682 1.42h-.093a8.652 8.652 0 0 1-4.686-1.42c-.78-.516-1.679-1.18-2.642-2.588 1.908-.912 5.038-1.499 8.578-1.499 2.508.001 4.81.301 6.619.795z"/><path fill="#fff" d="M109.013 62.31v1.538a.584.584 0 0 1-.587.587h-1.051a.587.587 0 0 1-.586-.587v-1.726c.78.029 1.52.095 2.219.188h.005zm2.22-.124v1.663a.584.584 0 0 1-.587.587h-1.051a.589.589 0 0 1-.588-.587V62.31l.182.023a36.885 36.885 0 0 1 2.044-.147z"/><ellipse transform="rotate(13.7 92.023 51.323)" fill="#fc9" cx="92.169" cy="51.421" rx="9.832" ry="4.686"/><ellipse transform="scale(-1) rotate(-13.7 -427.924 1076.153)" fill="#fc9" cx="129.371" cy="51.421" rx="9.833" ry="4.686"/><radialGradient id="a" cx="85.572" cy="59.649" r="16.154" gradientUnits="userSpaceOnUse"><stop offset="0" stop-color="#ED1C24"/><stop offset="1" stop-color="#ED1C24" stop-opacity="0"/></radialGradient><circle opacity=".3" fill="url(#a)" cx="85.572" cy="59.649" r="16.153"/><radialGradient id="b" cx="131.967" cy="59.649" r="16.154" gradientUnits="userSpaceOnUse"><stop offset="0" stop-color="#ED1C24"/><stop offset="1" stop-color="#ED1C24" stop-opacity="0"/></radialGradient><circle opacity=".3" fill="url(#b)" cx="131.967" cy="59.649" r="16.153"/><path opacity=".5" d="M96.878 57.783c-1.028-.198-1.731.486-2.325 1.248-.678.787-1.169 1.734-1.893 2.486-.054-1.143.446-2.411 1.205-3.255.724-.805 2.192-1.613 3.013-.479zm24.675.277c1.027-.196 1.726.482 2.319 1.243.677.787 1.168 1.729 1.888 2.481.058-1.138-.444-2.408-1.2-3.247-.727-.807-2.183-1.603-3.007-.477z" fill="#F6A76A"/><path d="M96.509 5.907c5.97-10.024 19.461-2.982 14.401 7.604-3.492-6.494-7.328-8.249-14.401-7.604 1.246-2.091.618-.056 0 0zm-9.051 4.069c8.748-14.685 28.506-4.37 21.096 11.138-5.117-9.512-10.732-12.083-21.096-11.138 1.826-3.064.906-.082 0 0z" fill="#A75A29"/><path d="M123.795 5.907c-5.971-10.024-19.462-2.982-14.401 7.604 3.491-6.494 7.328-8.249 14.401-7.604-1.246-2.091-.618-.056 0 0zm7.563 4.069c-8.748-14.685-28.506-4.37-21.096 11.138 5.118-9.512 10.733-12.083 21.096-11.138-1.825-3.064-.905-.082 0 0z" fill="#A75A29"/><path fill="#EF298D" d="M188.401 144.996l-.042.067-9.465 9.767-.369.377a.412.412 0 0 1-.301.125.394.394 0 0 1-.25-.083l-33.527-26.104c.092.527.226 1.239.368 2.126.243 1.39.619 3.708 1.054 6.846 1.507 10.821 3.13 27.551 2.352 45.754-.184 4.235-.301 8.486-.41 12.595-.234 8.461-.452 16.546-1.222 23.534h-28.665c-.301-5.147-.226-10.445-.159-15.089.066-4.327.117-8.068-.151-10.545-1.222-11.223-3.222-14.654-8.587-14.696h-.092c-5.298 0-7.323 3.406-8.696 14.579-.301 2.469-.292 6.21-.285 10.537 0 4.679.009 10.035-.376 15.215H71.116c-.669-6.963-.77-15.014-.87-23.458-.05-4.302-.101-8.763-.234-13.207-.536-17.985 1.28-34.548 2.896-45.277.36-2.41.753-4.77 1.138-6.837.192-1.054.352-1.891.469-2.494l-.402.26-33.503 25.365a.392.392 0 0 1-.251.084.412.412 0 0 1-.301-.125l-.343-.369-9.281-9.976a.416.416 0 0 1-.05-.51c.109-.176 11.223-17.65 25.869-34.029.41-.452.812-.896 1.197-1.331 1.515-15.04 9.457-18.195 15.859-18.195 3.439 0 6.444.938 7.683 1.381l17.166-3.54 3.339-2.595a.38.38 0 0 1 .259-.092l.042.008.192.059c.033.025 4.059 2.662 8.938 2.662 2.301 0 4.444-.586 6.369-1.732l.184-.05.034-.008.201.05 3.917 2.184 15.357 3.197c1.071-.41 4.285-1.523 8.068-1.523 6.344 0 14.228 3.113 15.826 17.877.669.753 1.364 1.54 2.083 2.368 14.429 16.571 25.342 34.23 25.451 34.405a.393.393 0 0 1-.017.443z"/><path fill="#F9BBD5" d="M147.802 183.854c-.561 12.914-.485 25.751-1.64 36.146h-27.819c-.586-9.959.251-20.513-.31-25.677-1.23-11.323-3.306-15.031-8.997-15.072-5.69-.042-7.825 3.648-9.206 14.947-.636 5.181.067 15.818-.661 25.802H71.534c-1.021-10.495-.711-23.542-1.104-36.673-.544-18.211 1.347-34.95 2.896-45.21a213.65 213.65 0 0 1 1.13-6.821c.36-1.976.611-3.206.687-3.532l.017-.092c9.457-15.6.234-34.807.234-34.807l5.566-1.146 17.383-3.582c.427.385.853.753 1.289 1.096.444.343.887.669 1.339.962l.436.276c.778.494 1.573.912 2.385 1.255l.502.209c.436.185.879.335 1.331.469.235.075.469.142.703.201.276.075.561.142.845.192.226.05.452.092.686.125l.276.042.477.059.494.042.502.034.694.017c.511 0 1.021-.025 1.532-.076l.661-.083a13.853 13.853 0 0 0 1.448-.277c.243-.059.485-.117.72-.192.402-.109.795-.243 1.188-.394l.309-.117c.444-.176.887-.376 1.331-.603.226-.109.46-.234.686-.368l.101-.05c.192-.109.385-.226.578-.36.175-.1.351-.218.527-.335l.293-.201c.151-.1.301-.209.452-.326.46-.343.912-.72 1.356-1.113h.008l15.55 3.239 7.021 1.465s-9.482 19.082-.234 34.807l.017.075c.059.285.268 1.373.561 3.13a213.21 213.21 0 0 1 1.055 6.838c1.42 10.244 3.135 27.217 2.34 45.679z"/><path fill="#F476AF" d="M75.389 92.865s-4.027.3-18.822 16.842l-25.83 33.972 9.625 10.344 34.793-26.353c9.458-15.6.234-34.805.234-34.805z"/><path fill="#EF298D" d="M40.361 154.022l3.147-2.816-9.948-10.641-2.823 3.114 9.624 10.343z"/><path fill="#F476AF" d="M144.06 93.327s4.022.354 18.593 17.094c14.572 16.74 25.404 34.351 25.404 34.351l-9.831 10.144-34.401-26.783c-9.248-15.726.235-34.806.235-34.806z"/><path fill="#EF298D" d="M178.227 154.916l-3.262-2.539 10.75-11.266a1384.49 1384.49 0 0 0 2.342 3.661l-9.83 10.144zm-56.743-66.298l-3.973-2.204c-7.568 4.508-15.756-.939-15.756-.939l-3.417 2.664c6.916 6.355 16.144 6.739 23.146.479zm-47.593 40.007c13.012-7.9 7.643-36.685 7.643-36.685s-21.124-9.185-23.667 16.222c0 0 15.751 4.502 16.024 20.463zm70.587 0c-13.012-7.9-7.643-36.685-7.643-36.685s21.124-9.185 23.667 16.222c.001 0-15.75 4.502-16.024 20.463z"/><path fill="#F476AF" d="M73.323 138.117c11.123 4.419 23.643 6.628 36.155 6.628 12.444 0 24.898-2.185 35.979-6.57a213.522 213.522 0 0 0-1.055-6.837c-21.341 8.997-48.624 8.988-69.949-.041l-1.13 6.82z"/><g fill="#EF298D"><circle cx="109.911" cy="102.61" r="2.526"/><circle cx="109.911" cy="114.978" r="2.526"/><circle cx="109.911" cy="127.346" r="2.526"/></g><path fill="#C72275" d="M117.448 14.582c-2.252 0-4.841-1.669-6.186-3.363a8.106 8.106 0 0 1-2.376.386c-.771 0-1.461-.139-2.055-.415-1.298 1.569-3.436 3.147-5.808 3.147a5.36 5.36 0 0 1-2.295-.52c-1.805-.848-1.964-5.222-1.629-7.955.153-1.255.82-5.379 2.967-5.806a3.1 3.1 0 0 1 .596-.056c2.355 0 5.341 2.447 6.207 3.202.414-.142 1.363-.422 2.429-.422.833 0 1.566.17 2.183.506.881-.682 4.039-2.985 6.468-2.985l.379.02c1.305.137 2.251 1.434 2.737 3.748.763 3.641.123 8.987-1.714 10.035-.556.316-1.197.478-1.903.478z"/><path fill="#EF298D" d="M111.514 3.794s4.089-3.342 6.771-3.058c3.494.369 3.347 11.584.859 13.003-2.43 1.386-6.208-.898-7.731-3.017 0 .001 1.049-2.831.101-6.928z"/><path fill="#D8137F" d="M111.574 7.028c.401-1.831 2.129-2.39 3.347-2.422.079-.001.465-.208.273-.203-1.385.036-3.559.597-4.022 2.722-.022.094.374.03.402-.097zm.545.78c1.197-.615 2.652-.638 3.77.132.108.072.512-.111.463-.146-1.349-.928-3.194-.713-4.599.01-.202.103.286.045.366.004zm-.598 2.056c.825-1.355 2.505-.551 3.6.34.07.058.467.165.294.023-1.241-1.015-3.321-2.154-4.277-.581-.044.069.324.313.383.218z"/><path fill="#EF298D" d="M106.826 3.725s-4.092-3.773-6.678-3.258c-3.087.612-3.745 11.795-1.242 12.971 3.125 1.469 6.232-.712 7.817-2.785 0 0-.969-2.861.103-6.928z"/><path fill="#D8137F" d="M106.288 6.563c-.311-1.577-1.837-2.1-2.925-2.161-.07-.002-.41-.189-.238-.18 1.233.068 3.161.602 3.521 2.434.015.081-.336.018-.358-.093zm-.228 1.153c-1.298-.651-2.897-.718-4.153.016-.119.069-.561-.127-.503-.16 1.513-.886 3.536-.614 5.061.152.217.111-.318.038-.405-.008zm.557 1.296c-.818-.882-2.22.358-3.1 1.48-.056.072-.394.293-.254.116 1.002-1.274 2.721-2.933 3.67-1.908.042.044-.261.374-.316.312z"/><path fill="#DE2683" d="M106.809 3.67s2.792-1.141 4.706.124c0 0 1.038 3.722-.102 6.929 0 0-2.747 1.087-4.706-.07 0 0-1.332-3.78.102-6.983z"/></svg>