<svg xmlns="http://www.w3.org/2000/svg" width="220" height="220" viewBox="0 0 220 220"><path fill="#F9C795" stroke="#D09D6A" stroke-width=".639" stroke-miterlimit="10" d="M143.3 119.8c-3 4.2-23.5 17.6-32.2 17.1-.3 0-.7-.1-1-.1-.3 0-.7.1-1 .1-8.7.4-29.2-12.9-32.2-17.1s-5.9-10-4.4-12.4c.9-1.6 7.2-4.6 11.6-11.3.6-.9 1.2-1.9 1.7-2.9 1.3-2.6 2.2-5.5 2.6-9.1.1-1 .2-2.1.2-3.2v-.3c0-5.2-.3-9.9-.7-14.1-.2-2.5-.5-4.9-.8-6.9-.7-4.9-1.4-8.2-1.8-9.6-.1-.4-.2-.7-.2-.7S97 45 110 43c13 2 25.1 6.4 25.1 6.4s-.1.2-.2.7c-.3 1.4-1 4.7-1.8 9.6-.2 1.6-.4 3.3-.7 5.2-.5 4.5-.9 9.9-.9 15.8v.3c0 1.1.1 2.2.2 3.2.3 3.2 1.2 5.9 2.2 8.3.6 1.3 1.3 2.6 2 3.7 4.4 6.7 10.7 9.7 11.6 11.3 1.7 2.3-1.2 8-4.2 12.3z"/><path opacity=".5" fill="#F6A76A" d="M134.1 92.4c-19.1 13.2-30.2 12.9-48.5.8 1.3-2.6 2.2-5.5 2.6-9.1.1-1 .2-2.1.2-3.2v-.3c0-5.2-.3-9.9-.7-14.1 12.4-2.5 33.6-5.9 44.8-1.7-.5 4.5-.9 9.9-.9 15.8v.3c0 1.1.1 2.2.2 3.2.4 3.1 1.2 5.9 2.3 8.3z"/><path fill="#FC9" stroke="#D09D6A" stroke-width=".639" stroke-miterlimit="10" d="M147 45.8c-2.3-4-4.1-1.5-5.4 2.4V33.9c0-9-7.7-16.4-17.1-16.4h-28c-9.4 0-17.1 7.3-17.1 16.4v16.9c-1.3-5.1-3.4-9.9-6.2-5.1-.8 1.4-1.1 2.7-.8 7 .3 4.4 2.6 10.4 5.7 10.6.5 0 1 0 1.3-.1v10.4c0 3.8.9 5.1 1.6 5.6.9.6 8.8 10.7 12.5 14.3 5 4.9 29 4.9 34 0 3.7-3.6 11.6-13.7 12.5-14.3.7-.5 1.6-1.8 1.6-5.6V63.4h.6c3.1-.2 5.4-6.2 5.7-10.6.2-4.4-.1-5.6-.9-7z"/><path opacity=".5" fill="#F6A76A" d="M75.9 48.6c-1.7.1-1.1 5.6-.7 7.5.3 1.9 2 3 3 2.6 1-.4 1.3-3.3.3-3.4-1-.1-1.7-.8-1.2-1.6.4-.8.8-5.2-1.4-5.1z"/><path fill="#F9C795" d="M126.6 16.8c18.6 5.6-5.3-1.6 0 0z"/><path opacity=".5" fill="#F6A76A" d="M144.5 48.6c1.7.1 1.1 5.6.7 7.5-.3 1.9-2 3-3 2.6-1-.4-1.3-3.3-.3-3.4 1-.1 1.7-.8 1.2-1.6-.4-.8-.8-5.2 1.4-5.1z"/><path fill="#EAA76F" d="M131.8 33.8c-2.6.4-5.2.8-7.7 1.2-4.3.6-8.6.7-12.9 1-6.9 0-13.7-.3-20.6-1.1 6.9.3 13.9.7 20.9.4 6.8-.3 13.5-1 20.3-1.5zm-2.7 3.8c-2.6.4-5.2.8-7.7 1.2-4.1.6-8.3.7-12.5 1-2.2.2-4.4 0-6.5 0-2-.1-4-.1-6-.2-2.8-.3-5.6-.5-8.3-.8 2.7.1 5.4.1 8.1.3 4.1.3 8.3.1 12.4.1 6.8-.4 13.6-1.1 20.5-1.6z"/><path fill="#FFAC81" d="M100.9 81.2c0-.3 3.1-.9 3.4-1 1.9-.4 3.9-.6 5.8-.2 1.7-.3 3.9-.2 5.7.2.3.1 3.4.7 3.4 1 .1.5-18.3.5-18.3 0z"/><path fill="#FFAC81" d="M100.9 81.2c1.3 0 2.7.2 4 .3 1.7.1 3.4.2 5.1.2 1.7-.1 3.4-.1 5.1-.2 1.4-.1 2.8-.3 4.1-.3-4.1 3.9-14.1 3.8-18.3 0z"/><path fill="#B54A37" d="M109.9 81.9c-1.8 0-3.4-.1-4.7-.2l-.9-.1c-2.2-.1-3.1-.2-3.9-.9-.6-.6-1-.2-1.3-.3h-.2c-.3-.1-.4-.2-.4-.2h.2c.2 0 .4 0 .6.1.6.1 1.4.4 1.4.4 1.3.9 4.9 1 6.9 1h5.2c2.4 0 5.3-.1 6.5-.9 0 0 .8-.2 1.4-.4.2-.1.5-.1.6-.1h.2s0 .1-.4.3h-.2c-.3 0-.6-.3-1.3.2-1.1.8-1.8.8-3.2.8-.5 0-1.1 0-1.9.1-1.2.1-2.8.2-4.6.2z"/><path opacity=".5" fill="#F6A76A" d="M110.7 76.4s0 3.1-1.6 3 .4.5 1.4.3c.9-.2 1-.7.2-3.3z"/><path opacity=".2" fill="#F5B1A2" d="M109.3 72.7c3.1.4 6.8 1.6 6.9 2.1-4.1 2.3-12.6 1-12.4-.2.2-.9 3.5-2.1 5.5-1.9z"/><path fill="#AE8879" d="M114.8 73.6c.5 0 1.1.1 1.5.4.4.3-.8.3-.9.2-.3 0-2.4.5-2.5.2 0-.2 1.6-.8 1.9-.8zm-9.4-.3c.6.1 1.2.5 1.6.9.5.5-.4.2-.6.2-.5-.1-1-.3-1.5-.4-.3 0-1.2.1-1.4-.1 0-.4 1.6-.7 1.9-.6.9.2-.5-.2 0 0z"/><path opacity=".2" fill="#F5B1A2" d="M105.8 75.2c-.9-1.1-2.2-2.1-3.5-1.8 1.3-2.6 4.9 1.8 6.2 2.2 1.6.5 3.1-.3 4.6-1.1 1.6-.9 3.2-1.2 4.9-.4-1 .4-2 .2-3 .8-1.1.6-2.1 1.4-3.1 2.1-2.4 1.6-4.4.3-6.1-1.8-.9-1 1 1.2 0 0z"/><path opacity=".5" fill="#F6A76A" d="M117.5 73.6s1.7-.7 1.4-2.7c-.3-1.9-1.3-2.9-1.3-2.9s1.4 1.3 1.5 3.3c.2 2-1.6 2.3-1.6 2.3zm-15 0s-1.7-.7-1.4-2.7c.3-1.9 1.3-2.9 1.3-2.9s-1.4 1.3-1.5 3.3c-.2 2 1.6 2.3 1.6 2.3z"/><path opacity=".3" fill="#FDE9D7" d="M115.3 63.1s-1.1-.5-1.4-2.7c-.4-2.2-1.8-6-2.5-1s-.5 7.6 1 6.9c2.3-.9 3.8-.3 3.9-1.4 0-.7-.4-1.4-1-1.8z"/><path fill="#B3B3B3" d="M83.8 48.6c-.1-.7.2-1.6.5-2.2.1-.1.4-1 .6-1 .5-.2 1-.5 1.6-.7 1.8-.8 3.7-1.3 5.6-1.3 1.6 0 3.3-.1 4.9-.1 1.2 0 2.4.1 3.6.1.8 0 1.8 1.1 2.4 1.6.1.1.6.4.5.6-.3.3-.7.6-1.1.8-.4.2-.8.4-1.2.7-.5.4-.5.3-1.1.3h-6.8c-1.4 0-2.8.1-4.2.6l-1.5.6c-.2.1-.6.2-.8.4-.2.1-.5-.1-.7-.1-.7-.1-1.6-.4-2.3-.3z"/><path fill="#FFF" d="M101.4 52.3c.1.8.4 1.6 0 2.4-.7 1.5-1.9 2.2-3.5 2.2-1.7 0-3.5-.3-5.2-.6-1.1-.2-2.7-.2-3.6-.9-.5-.4-2.3-2-2-3 .4-1.2 2.5-1.7 3.5-1.9 2.3-.5 4.7-.4 7-.1 1.4.1 3.2.5 3.8 1.9z"/><radialGradient id="a" cx="338.424" cy="-69.311" r="2.93" gradientTransform="rotate(-174.759 219.133 -2.59) scale(.99998)" gradientUnits="userSpaceOnUse"><stop offset="0" stop-color="#28353D"/><stop offset=".508" stop-color="#27323B"/><stop offset=".809" stop-color="#222A33"/><stop offset="1" stop-color="#1D2029"/></radialGradient><path fill="url(#a)" d="M92.4 50.3c-.5.5-.9 1.2-.9 2-.2 1.7 1.1 3.3 2.8 3.4 1.7.2 3.3-1.1 3.4-2.8.1-.8-.1-1.5-.6-2.1-.7-.4-4-.6-4.7-.5z"/><path fill="#212121" d="M92.7 52.7c-.1 1.1.7 2 1.7 2.1 1.1.1 2-.7 2.1-1.7.1-1.1-.7-2-1.7-2.1-1.1-.2-2 .6-2.1 1.7z"/><path fill="#666" d="M101.4 52.3s-.5-1.3-3.5-1.6c-3-.3-6.5.1-7.5 0-.9-.1-3.3 1.6-3.3 1.6s1.2-2.1 3.4-2.6c1.9-.4 7.4-.2 8.8.1 1.3.3 2.1 2.5 2.1 2.5z"/><path fill="#B76B2C" d="M99.8 56.5s-6.3 1.1-10.4-1.4c-2.1-1.3-2.3-2.8-2.3-2.8s-.4 2.2 2.7 3.6c5 2.1 10 .6 10 .6z"/><path fill="#FFF" d="M91.8 52.8c.3.2.6.1.8-.1.2-.3.1-.6-.1-.8-.3-.2-.6-.1-.8.1-.2.3-.2.7.1.8zm1.4-.5c.2.1.5.1.6-.1.1-.2.1-.5-.1-.6-.2-.1-.5-.1-.6.1-.2.2-.1.5.1.6z"/><path fill="#EAA76F" d="M87.3 52.5c-1.6.8-4.2 1.3-5.8.4 1.9-.9 3.8-.9 5.8-.4z"/><path fill="#EAA76F" d="M87.2 53.2c-1.4 1.3-3.7 2.1-5.6 1.7 1.4-1.3 3.7-2.1 5.6-1.7zm15.6 5.2c-5 1.4-10.5 1.5-15.7 1 2.5-.7 5.2-1 7.8-1.1 1.6 0 3.2-.2 4.8-.1 1 .1 2.1 0 3.1.2z"/><path fill="#B3B3B3" d="M136.4 48.6c-.8 0-1.7.1-2.5.2s-1.9-.7-2.7-.9c-1.4-.5-2.8-.6-4.2-.6-2.2 0-4.3-.2-6.5 0-.2 0-.8.2-1 .1-.4-.3-.9-.6-1.3-.9-.4-.3-.8-.6-1.2-.8-.4-.2.1-.5.3-.7.4-.3.8-.7 1.3-1 .2-.1.6-.6.9-.6 1.1 0 2.3-.1 3.4-.1 1.8 0 3.5.1 5.3.1 1.8 0 3.6.5 5.3 1.2.5.2.9.4 1.4.7.5.3.6.3.9.9.2.5 1 1.8.6 2.4z"/><path fill="#FFF" d="M118.8 52.3c-.1.8-.4 1.6 0 2.4.7 1.5 1.9 2.2 3.5 2.2 1.7 0 3.5-.3 5.2-.6 1.1-.2 2.7-.2 3.6-.9.5-.4 2.3-2 2-3-.4-1.2-2.5-1.7-3.5-1.9-2.3-.5-4.7-.4-7-.1-1.4.1-3.2.5-3.8 1.9z"/><radialGradient id="b" cx="-4427.016" cy="367.678" r="2.93" gradientTransform="matrix(.9958 -.09132 -.09132 -.9958 4568.075 14.841)" gradientUnits="userSpaceOnUse"><stop offset="0" stop-color="#28353D"/><stop offset=".508" stop-color="#27323B"/><stop offset=".809" stop-color="#222A33"/><stop offset="1" stop-color="#1D2029"/></radialGradient><path fill="url(#b)" d="M127.8 50.3c.5.5.9 1.2.9 2 .2 1.7-1.1 3.3-2.8 3.4-1.7.2-3.3-1.1-3.4-2.8-.1-.8.1-1.5.6-2.1.7-.4 4-.6 4.7-.5z"/><path fill="#212121" d="M127.5 52.7c.1 1.1-.7 2-1.7 2.1-1.1.1-2-.7-2.1-1.7-.1-1.1.7-2 1.7-2.1 1.1-.2 2 .6 2.1 1.7z"/><path fill="#666" d="M118.8 52.3s.5-1.3 3.5-1.6c3-.3 6.5.1 7.5 0 .9-.1 3.3 1.6 3.3 1.6s-1.2-2.1-3.4-2.6c-1.9-.4-7.4-.2-8.8.1-1.4.3-2.1 2.5-2.1 2.5z"/><path fill="#B76B2C" d="M120.4 56.5s6.3 1.1 10.4-1.4c2.1-1.3 2.3-2.8 2.3-2.8s.4 2.2-2.7 3.6c-5 2.1-10 .6-10 .6z"/><path fill="#FFF" d="M128.4 52.8c-.3.2-.6.1-.8-.1-.2-.3-.1-.6.1-.8.3-.2.6-.1.8.1.2.3.2.7-.1.8zm-1.4-.5c-.2.1-.5.1-.6-.1-.1-.2-.1-.5.1-.6s.5-.1.6.1c.2.2.1.5-.1.6z"/><path fill="#EAA76F" d="M133 52.5c1.8-.8 4.1-.4 5.8.4-.9.4-2 .5-2.9.4-.9 0-2.2-.2-2.9-.8z"/><path fill="#EAA76F" d="M133 53.2c2-.4 4.2.3 5.6 1.7-1.8.4-4.4-.2-5.6-1.7zM117.4 58.4c.9-.2 1.9-.2 2.8-.2 1.7-.1 3.4-.2 5.1 0 2.6.1 5.3.3 7.8 1.1-2.4.4-5.1.3-7.5.2-1.6-.1-3.2-.3-4.8-.5-1.1-.2-2.3-.3-3.4-.6zM101.5 89c2.8-.5 5.7-.6 8.5-.3s5.7.3 8.5 1c-2.8.5-5.7.6-8.5.3-2.9-.3-5.7-.4-8.5-1zM106 90.6c1.1-.4 2.6-.4 3.7-.3 1.5.2 2.9.6 4.3 1.2-2.3.8-5.9.3-8-.9z"/><path opacity=".5" fill="#F6A76A" d="M98.4 73.9c-2.4-.7-4 3.3-5.3 4.7-.1-1.5.6-3.1 1.6-4.2.9-1 2.8-1.9 3.7-.5zm24.1-.6c2.4-.7 4 3.3 5.3 4.7.1-1.5-.6-3.1-1.6-4.2-.9-.9-2.8-1.9-3.7-.5z"/><path fill="#89392C" stroke="#602924" stroke-width=".581" stroke-miterlimit="10" d="M197.1 179.4c-.8-18.9-6.2-46-8.1-58.3-.4-2.4-2-4.4-4.2-5.2-10.4-3.5-45.8-17.5-45.8-17.5l-29 22-29.1-22.1s-35.3 14.1-45.8 17.5c-2.2.7-3.8 2.7-4.2 5.2-1.8 12.3-7.2 39.4-8.1 58.3-1 22.9-1 39.5-1 39.5l27.9.2 5.6-47.8s2.5 32-.1 47.8l54.7 1 54.7-1c-2.7-15.7-.1-47.8-.1-47.8l5.6 47.8h28s0-16.7-1-39.6z"/><path fill="#FFD690" stroke="#602924" stroke-width=".639" stroke-miterlimit="10" d="M130.1 126.8l-20.2-7-20.2 7s9 43.6 20.2 43.6 20.2-43.6 20.2-43.6z"/><path fill="#602924" d="M34.3 115.7l1.9 1.9c.6.6 1.3 1.4 2.1 2.4l1.2 1.5s.8 1.1 1.3 1.7c.9 1.2 1.8 2.6 2.7 4 .9 1.5 1.9 3 2.7 4.7.4.8.9 1.7 1.3 2.5l1.2 2.7c.8 1.8 1.5 3.7 2.2 5.6l.5 1.4.4 1.4c.3 1 .6 1.9.9 2.9.3.9.5 1.9.7 2.8.2.9.4 1.9.6 2.8.4 1.8.6 3.6.9 5.3.3 1.7.3 3.3.5 4.8.1 1.5.2 2.9.2 4.1s-.1 2.3-.1 3.1c-.1 1.7-.1 2.7-.1 2.7s-.1-1-.4-2.7c-.1-.9-.2-1.9-.4-3.1 0-.6-.2-1.2-.3-1.9-.1-.7-.2-1.4-.4-2.1-.3-1.5-.5-3-.9-4.7-.2-.8-.4-1.7-.6-2.5-.2-.9-.3-1.8-.6-2.6-.5-1.8-.9-3.6-1.5-5.5-.3-.9-.6-1.8-.9-2.8l-.4-1.4-.5-1.4c-.7-1.8-1.3-3.7-2.1-5.5-.4-.9-.7-1.8-1.1-2.6-.4-.9-.8-1.7-1.2-2.5l-1.2-2.4s-.8-1.6-1.2-2.3c-.8-1.5-1.5-2.9-2.3-4.2-.7-1.3-1.4-2.4-2.1-3.5-.6-1-1.2-1.9-1.7-2.6s-.9-1.3-1.1-1.7c0-.1-.2-.3-.2-.3zM185.5 115.6s-.1.2-.4.6c-.3.4-.7.9-1.2 1.7-.5.7-1.1 1.6-1.7 2.6-.6 1-1.3 2.2-2.1 3.5-.8 1.3-1.5 2.7-2.3 4.2-.4.8-.8 1.5-1.2 2.3l-1.2 2.4c-.4.8-.8 1.7-1.2 2.5-.4.9-.7 1.8-1.1 2.6-.8 1.8-1.4 3.6-2.1 5.5l-.5 1.4-.4 1.4c-.3.9-.6 1.9-.9 2.8-.6 1.8-1 3.7-1.5 5.5-.3.9-.4 1.8-.6 2.6-.2.9-.4 1.7-.6 2.5-.4 1.6-.6 3.2-.9 4.7-.1.7-.2 1.4-.4 2.1-.1.7-.2 1.3-.3 1.9-.1 1.2-.3 2.2-.4 3.1-.2 1.7-.4 2.7-.4 2.7s-.1-1-.1-2.7c0-.9 0-1.9-.1-3.2-.1-1.2.1-2.6.2-4.1.1-1.5.2-3.1.5-4.8.3-1.7.4-3.5.9-5.3.2-.9.4-1.9.6-2.8.2-.9.4-1.9.7-2.8s.6-1.9.9-2.9l.4-1.4.5-1.4c.7-1.9 1.4-3.8 2.2-5.6l1.2-2.7s.9-1.7 1.3-2.5c.8-1.7 1.8-3.2 2.7-4.7 1-1.4 1.8-2.8 2.7-4 .4-.6.9-1.2 1.3-1.7l1.2-1.5c.8-1 1.5-1.7 2.1-2.4 1.4-1.4 2.2-2.1 2.2-2.1z"/><path fill="#FFF" d="M78.4 97.6c2.8 14.2 12.8 47.4 12.8 47.4l2.7-6c4.4-9.3 8.4-14 11.3-16.5 2.1-1.8 4.8-2.6 4.8-2.6-.2 0-16.8-11.9-28.3-24.1 0-.1-1.3-.1-3.3 1.8z"/><path fill="#FFF" d="M141.4 97.6c-2.8 14.2-12.8 47.4-12.8 47.4l-2.7-6c-4.4-9.3-8.4-14-11.3-16.5-2.1-1.8-4.8-2.6-4.8-2.6.2 0 16.8-11.9 28.3-24.1.1-.1 1.4-.1 3.3 1.8z"/><path fill="#EEE" d="M148.6 23.5S152 10.2 134 4.9C119 0 111.1 0 111.1 0S89.2.3 79.8 11.3c-9.4 11-6.2 22.2-6.1 23 0 7.4 1.6 12.6 5.5 23.8 0 0 2.8-9.6 2.6-15 0 0 4-9.3 5.3-13.2 1-.9 3.9-1.8 7-2.6 3 1.3 7.9 1.9 15.7-.5.1 0 2.1-.9 5.2-1.8 2.4.2 4.4.4 5.3.4 1.5 0 7.8.8 13.1 2.6.3 3.2 1 7.8 2.4 11.6 1 2.7 2.4 5.6 2.7 4.9.2 4.9 2.5 13.6 2.5 13.6 1.6-4.6 2.8-5 3.7-8.9.6-1.6 1.2-3.1 1.7-4.2 2.5-4.9 6.4-9.1 2.2-21.5z"/><circle fill="#602924" cx="110" cy="129.1" r="1.8"/><circle fill="#602924" cx="110" cy="137.4" r="1.8"/><circle fill="#602924" cx="110" cy="145.7" r="1.8"/><circle fill="#602924" cx="110" cy="154" r="1.8"/><circle fill="#602924" cx="110" cy="162.3" r="1.8"/><path fill="#B3B3B3" d="M134.5 22.9c-8.8-2.2-17.6-4.3-26.6-5.3-5-.5-10.1-.4-15.1 0-2.2.1-4.5.6-6.6 1.3-1.9.7-3.5 1.9-3.5 4.1 0-4.8 6.1-5.4 9.7-5.9 2.4-.3 4.9-.3 7.4-.4 2.6-.1 5.3 0 7.9.3 9.1 1 18.2 2.7 26.8 5.9zM135 17.6c-1.5-.9-2.9-2.1-4.5-3-2-1.1-4.1-1.8-6.3-2.6-2.3-.9-4.9-1.3-7.3-1.7-2.5-.5-5.1-.8-7.6-1.1-4.8-.4-9.7-1.1-14.5-1.1-2.3 0-4.6.1-6.9.2-.7 0-5.5.5-3.5 1.9-2-1.5 2.7-2.2 3.5-2.2 2.4.1 4.8-.2 7.2-.2 5 .3 10 .4 15 .9 4.7.6 9.7 1.1 14.2 2.8 2.1.8 4.1 1.6 6 2.7 1.7 1 3 2.5 4.7 3.4zM137.7 13c-2.8-1.6-5.8-3.1-8.9-4.3-3.4-1.3-6.8-2.1-10.3-2.9-3.5-.8-7.1-.9-10.7-1.1-2.7-.1-5.4-.3-8.1-.5 6.3 0 12.7-.1 18.9.9 3.6.6 7.1 1.8 10.4 3.2 1.7.7 3.4 1.6 5 2.5.7.4 1.4 1 2.2 1.3l1.5.9zM139.8 27.8c.6 2.5 1.1 4.9 1.3 7.5.2 2.2.2 4.9-1.1 6.7v-.1c0 1.5-.4 2.9.1 4.4-1-.9-.7-3-.7-4.2.1-.3.3-.7.5-1 .4-.6.5-1.3.6-2 .6-3.8-.7-7.5-.7-11.3.3 1.2 0 1.2 0 0zM142.3 24.7c.6 1.1 1.2 2.2 1.7 3.4.8 1.8 1.5 4.1 1.5 6.1.6 3.4-.6 6.6-1.7 9.8 1-3.3 1.7-7 1.1-10.4-.5-3.1-1.6-5.9-2.6-8.9zM146.6 23.8c.8 2.1 1.3 4.2 1.6 6.5.3 2.3.2 4.4-.1 6.7-.1-.9-.2-1.8-.2-2.8 0-1.3-.3-2.5-.3-3.8-.3-2.2-.8-4.4-1-6.6z"/></svg>