<svg xmlns="http://www.w3.org/2000/svg" width="220" height="220" viewBox="0 0 220 220"><path fill="#fc9" stroke="#D09D6A" stroke-width=".5" stroke-miterlimit="10" d="M138.271 107.543c-1.041-1.735-11.853-5.066-11.795-18.002.057-12.934 2.465-22.1 2.465-22.1s-10.563-3.002-19.597-4.458v-.057l-.169.028-.168-.028v.057c-9.035 1.456-19.598 4.458-19.598 4.458s2.408 9.166 2.465 22.1c.057 12.937-10.754 16.267-11.793 18.002-1.042 1.738 1.443 6.682 3.557 9.675 2.112 2.992 19.003 12.423 25.175 12.127l.363-.036.363.036c6.172.296 23.063-9.135 25.176-12.127 2.112-2.991 4.598-7.937 3.556-9.675z"/><path opacity=".5" fill="#F6A76A" d="M126.479 89.536c0 .463.013.927.049 1.367-1.782.737-3.553 1.425-5.026 2.114-2.542 1.201-6.271 2.555-8.969 3.469a10.43 10.43 0 0 1-6.806 0c-2.709-.914-6.439-2.268-8.982-3.469-1.401-.665-3.148-1.377-4.906-2.15.024-.428.036-.879.036-1.331-.06-12.925-2.459-22.095-2.459-22.095s10.562-3.006 19.59-4.455v-.06l.166.024.179-.024v.06c9.028 1.449 19.587 4.455 19.587 4.455s-2.411 9.17-2.459 22.095z"/><path fill="#fc9" stroke="#D09D6A" stroke-width=".5" stroke-miterlimit="10" d="M143.514 45.259c-1.904-3.42-3.445-1.788-4.582 1.281.381-10.303.243-20.335-.928-25.816-2.941-13.769-28.888-7.414-28.888-7.414s-25.948-6.355-28.889 7.414c-1.169 5.478-1.204 15.61-.74 25.992-1.143-3.18-2.704-4.941-4.643-1.457-.752 1.352-.99 2.524-.75 6.675.246 4.151 2.352 9.857 5.138 10.058.507.036.911-.021 1.235-.147.817 9.698 1.823 17.401 2.354 18.493 1.313 2.702 9.168 5.448 13.665 7.565 2.595 1.223 6.399 2.597 9.153 3.54a10.8 10.8 0 0 0 6.951 0c2.754-.943 6.557-2.316 9.152-3.54 4.498-2.117 11.695-4.204 13.665-7.565.788-1.342 1.829-8.942 2.608-18.454.303.095.664.14 1.105.108 2.787-.201 4.893-5.907 5.138-10.058.244-4.15.006-5.323-.744-6.675z"/><path opacity=".5" d="M88.35 48.199s-1.062 4.531 5.527 3.603c5.453-1.316 6.762-1.96 8.625-1.8-.374-.453-1.131-.678-1.131-.678s-5.563 1.069-7.864.928c-2.307-.138-5.157-2.053-5.157-2.053zm.1-1.784s2.938-5.082 8.354-4.385c4.378.354 5.701 1.673 5.701 1.673s-3.676-.53-4.378-.277c1.721.787 3.16 3.719 2.904 4.498-.259.779-4.005-2.626-4.005-2.626l-8.576 1.117zm16.325-.684c1.789.368 1.735 3.28-.1 3.536.506-1.272.524-2.251.1-3.536zM129.833 48.199s1.062 4.531-5.526 3.603c-5.453-1.316-6.763-1.96-8.625-1.8.375-.453 1.131-.678 1.131-.678s5.563 1.069 7.864.928c2.305-.138 5.156-2.053 5.156-2.053zm-.101-1.784s-2.938-5.082-8.354-4.385c-4.378.354-5.701 1.673-5.701 1.673s3.677-.53 4.378-.277c-1.72.787-3.16 3.719-2.904 4.498.26.779 4.006-2.626 4.006-2.626l8.575 1.117zm-16.324-.684c-1.789.368-1.736 3.28.1 3.536-.507-1.272-.524-2.251-.1-3.536zM98.209 69.315c-2.165-.602-3.601 2.983-4.781 4.233-.05-1.371.549-2.835 1.493-3.829.773-.815 2.48-1.663 3.288-.404zm21.959-.502c2.168-.602 3.604 2.983 4.781 4.234.052-1.375-.551-2.836-1.489-3.828-.774-.819-2.485-1.664-3.292-.406z" fill="#F6A76A"/><path fill="#FFB679" d="M78.021 48.086c-1.64.073-.986 4.692-.681 6.316.305 1.623 1.866 2.524 2.793 2.16.922-.362 1.216-2.798.233-2.889-.981-.087-1.562-.718-1.096-1.352.469-.63.787-4.328-1.249-4.235zm62.315 0c1.641.073.986 4.692.682 6.316-.306 1.623-1.869 2.524-2.793 2.16-.922-.362-1.217-2.798-.233-2.889.981-.087 1.562-.718 1.096-1.352-.47-.63-.788-4.328 1.248-4.235z"/><path fill="#F2F2F2" d="M89.415 96.86l1.095 95.063h37.187V96.86l-16.127 9.599h-5.574z"/><path fill="#1D4156" d="M113.755 111.158c-.132 1.687-3.011 4.566-4.699 4.699-1.687-.133-4.567-3.013-4.699-4.699.131-1.688 3.012-4.567 4.699-4.699 1.688.132 4.568 3.012 4.699 4.699zm6.114 80.504H98.881l6.839-79.244h6.673z"/><path fill="#1A1A1A" d="M80.146 50.418s-4.572-5.75-4.923-18.659c-.351-12.909 1.056-17.683 4.923-18.116 0 0 1.759-9.656 10.784-11.282 8.778-1.583 23.655-5.834 47.11 3.416a4.883 4.883 0 0 1 2.825 3.009c.761 2.275 1.746 5.962 1.523 9.305 0 0 3.516 6.347 2.93 11.771-.586 5.424-7.151 20.556-7.151 20.556s1.877-15.838-1.756-22.239c-3.636-6.4-14.418-6.617-14.418-6.617l4.336 2.278s-29.07-.109-34.58-1.628l5.392 2.997s-7.971.15-11.487-.935c-3.515-1.085-5.508 26.144-5.508 26.144z"/><path opacity=".1" fill="#fff" d="M132.896 15.165c-.658-1.71-.879-4.042-2.853-5.284-.218 1.089-.44 2.175-1.099 3.108-4.825-3.108-12.065-5.283-18.867-4.973 3.29 1.088 5.704 2.643 7.24 4.973-4.387-.466-7.899-1.866-12.507-1.866-3.289 0-5.483.468-8.775 1.245 3.512-.467 8.557-.156 10.97 1.71-4.606.466-9.434-1.089-14.48-.311-3.29.465-7.02 1.864-9.653 3.574 8.776-.311 17.332.155 25.889 1.555.658-1.245-1.975-2.176-3.292-2.798 7.022-.621 15.359 1.088 21.939 2.175-.657-1.553-1.753-3.108-3.509-4.195 3.509 1.087 6.363 2.952 9.434 4.352.222-.779-.437-3.265-.437-3.265z"/><path fill="#1A1A1A" d="M113.463 42.202c2.565-2.362 6.411-3.461 9.81-3.715 2.099-.157 4.176-.081 6.211.494.344.097 3.845 1.13 3.419 1.724-.08.112-.951.071-1.077.08-.972.069-1.943.137-2.917.179-2.04.088-4.057.401-6.091.567-2.001.163-3.994.413-5.99.626-.901.096-1.804.187-2.705.28-.31.031-.723.225-.66-.235zM85.35 39.565c3.107-1.462 7.015-1.496 10.34-.974 1.948.306 3.913.835 5.723 1.626.59.258 3.436 1.305 3.255 2.136-3.271-.131-6.496-.447-9.743-.847-2.022-.268-4.03-.631-6.042-.966a74.63 74.63 0 0 1-2.524-.466c-.332-.068-1.236-.003-1.009-.509z"/><path fill="#fff" d="M102.067 46.478c.096.811.377 1.608-.019 2.348-.767 1.427-1.906 2.136-3.518 2.118-1.721-.02-3.443-.363-5.126-.691-1.108-.217-2.605-.239-3.491-1.007-.492-.427-2.226-2.009-1.885-3.008.385-1.129 2.486-1.599 3.524-1.814 2.224-.459 4.652-.276 6.887.051 1.349.195 3.082.571 3.628 2.003z"/><radialGradient id="a" cx="633.426" cy="11.633" r="2.886" gradientTransform="rotate(-173.72 365.17 44.357)" gradientUnits="userSpaceOnUse"><stop offset="0" stop-color="#28353D"/><stop offset=".508" stop-color="#27323B"/><stop offset=".809" stop-color="#222A33"/><stop offset="1" stop-color="#1D2029"/></radialGradient><path fill="url(#a)" d="M93.234 44.365a3.096 3.096 0 0 0 1.767 5.343 3.095 3.095 0 0 0 2.905-4.807c-.706-.38-3.93-.701-4.672-.536z"/><path fill="#212121" d="M93.525 46.687a1.893 1.893 0 1 0 2.091-1.673 1.891 1.891 0 0 0-2.091 1.673z"/><path fill="#1A1A1A" d="M102.067 46.478s-.48-1.314-3.453-1.646c-2.974-.334-6.443-.023-7.346-.122-.9-.102-3.321 1.516-3.321 1.516s1.266-2.079 3.361-2.493c1.902-.377 7.323-.022 8.691.27 1.37.293 2.068 2.475 2.068 2.475z"/><path fill="#B76B2C" d="M100.412 50.602s-6.211.971-10.167-1.541c-2.015-1.277-2.216-2.824-2.216-2.824s-.479 2.186 2.606 3.579c4.797 2.168 9.777.786 9.777.786z"/><path fill="#fff" d="M92.603 46.822a.551.551 0 1 0 .65-.89.551.551 0 0 0-.65.89zm1.407-.465a.447.447 0 0 0 .625-.096.45.45 0 0 0-.722-.533.445.445 0 0 0 .097.629zm22.219.121c-.096.811-.377 1.608.02 2.348.766 1.427 1.906 2.136 3.518 2.118 1.721-.02 3.442-.363 5.127-.691 1.107-.217 2.604-.239 3.488-1.007.493-.427 2.229-2.009 1.887-3.008-.385-1.129-2.485-1.599-3.525-1.814-2.225-.459-4.652-.276-6.885.051-1.35.195-3.084.571-3.63 2.003z"/><radialGradient id="b" cx="-1737.398" cy="276.913" r="2.886" gradientTransform="scale(1 -1) rotate(6.37 2098.59 16826.386)" gradientUnits="userSpaceOnUse"><stop offset="0" stop-color="#28353D"/><stop offset=".508" stop-color="#27323B"/><stop offset=".809" stop-color="#222A33"/><stop offset="1" stop-color="#1D2029"/></radialGradient><path fill="url(#b)" d="M125.061 44.365a3.096 3.096 0 0 1-1.765 5.343 3.095 3.095 0 0 1-2.906-4.807c.708-.38 3.93-.701 4.671-.536z"/><path fill="#212121" d="M124.771 46.687a1.892 1.892 0 1 1-2.092-1.673 1.893 1.893 0 0 1 2.092 1.673z"/><path fill="#1A1A1A" d="M116.229 46.478s.479-1.314 3.453-1.646c2.975-.334 6.442-.023 7.344-.122.9-.102 3.324 1.516 3.324 1.516s-1.267-2.079-3.363-2.493c-1.902-.377-7.321-.022-8.691.27-1.368.293-2.067 2.475-2.067 2.475z"/><path fill="#B76B2C" d="M117.883 50.602s6.213.971 10.167-1.541c2.015-1.277 2.218-2.824 2.218-2.824s.479 2.186-2.606 3.579c-4.799 2.168-9.779.786-9.779.786z"/><path fill="#fff" d="M120.383 46.822a.551.551 0 1 0 .65-.89.551.551 0 0 0-.65.89zm1.407-.465a.448.448 0 1 0 .528-.724.453.453 0 0 0-.627.095.45.45 0 0 0 .099.629z"/><path opacity=".5" fill="#F6A76A" d="M108.925 68.843s-.046 4.169-2.204 4.078c-2.156-.091.59.711 1.895.353 1.304-.355 1.384-.997.309-4.431z"/><path opacity=".32" fill="#F5B1A2" d="M108.464 65.045c2.716.281 5.981 1.222 6.063 1.595-3.588 1.756-11.105.751-10.875-.174.179-.716 3.085-1.601 4.812-1.421z"/><path fill="#AE8879" d="M113.365 65.705c.729-.035 1.49.329 1.445.465-.047.141-.787.029-1.431.064-.392.02-1.616.32-1.677.187-.059-.13 1.217-.692 1.663-.716zm-8.281-.248c.77.149 1.692.726 1.627.856-.064.131-1.125-.213-1.66-.328-.458-.096-1.54.035-1.601-.096-.063-.133 1.117-.534 1.634-.432z"/><path opacity=".2" fill="#F5B1A2" d="M105.383 66.95c-.773-.819-1.924-1.63-3.116-1.353 1.114-1.96 4.328 1.346 5.486 1.685 1.428.413 2.771-.224 4.021-.847 1.436-.712 2.826-.946 4.34-.304-.904.282-1.719.189-2.614.626-.957.468-1.812 1.099-2.748 1.599-2.084 1.114-3.87.182-5.369-1.406z"/><path opacity=".5" fill="#F6A76A" d="M115.727 65.742s1.492-.56 1.201-2.022c-.291-1.465-1.103-2.189-1.103-2.189s1.208 1.009 1.342 2.486c.134 1.478-1.44 1.725-1.44 1.725zm-13.222 0s-1.492-.56-1.201-2.022c.292-1.465 1.103-2.189 1.103-2.189s-1.208 1.009-1.341 2.486c-.135 1.478 1.439 1.725 1.439 1.725z"/><path opacity=".3" fill="#FDE9D7" d="M113.568 57.52s-1.041-.443-1.385-2.252c-.343-1.806-1.732-5.038-2.428-.83-.691 4.211-.513 6.316 1.003 5.776 2.231-.787 3.683-.212 3.767-1.188.052-.619-.316-1.184-.957-1.506z"/><path fill="#FFAC81" d="M100.641 76.052c0-.449 2.892-1.435 3.179-1.547 1.719-.663 3.661-.924 5.347-.391 1.614-.509 3.612-.269 5.329.384.29.11 3.197 1.094 3.197 1.555-.002.783-17.052.768-17.052-.001zm.004.003c1.247.058 2.506.362 3.745.536 1.59.227 3.176.258 4.776.365 1.566-.107 3.137-.119 4.695-.365 1.26-.198 2.552-.461 3.824-.536-3.869 6.183-13.14 6.017-17.04 0z"/><path fill="#B54A37" d="M109.021 77.154c-1.647-.036-3.168-.126-4.399-.265l-.873-.09c-1.999-.205-2.912-.298-3.581-1.428-.522-.88-.955-.363-1.24-.394-.095-.008-.168-.017-.219-.051-.298-.205-.352-.342-.338-.393.014-.042.095-.071.209-.071.157 0 .367.05.594.14.589.237 1.298.595 1.305.604 1.197 1.355 4.531 1.556 6.413 1.556h.011c.579 0 1.123.023 1.736.049l.378.015.382-.015c.617-.025 1.166-.049 1.602-.049l.729.002c2.209 0 4.889-.157 6.016-1.378.011-.015.72-.375 1.313-.609.225-.092.437-.142.592-.142.115 0 .197.029.209.072.015.05-.039.187-.338.391l-.199.077c-.235.063-.594-.405-1.25.361-1.026 1.197-1.662 1.214-2.93 1.25-.472.011-1.029.029-1.725.104-1.232.138-2.752.229-4.397.264z"/><path opacity=".5" fill="#F6A76A" d="M108.524 85.513c-.943-.765-1.323-3.87.253-3.965 1.576-.096 3.344.191 3.534 1.289.191 1.1-.889 2.295-1.304 2.677-.416.383-2.113 1.099-2.483.622-.368-.48 0-.623 0-.623z"/><path fill="#3F3F3F" stroke="#2B2B2B" stroke-miterlimit="10" d="M194.943 189.152c-.854-18.692-6.566-55.5-8.52-67.682a6.39 6.39 0 0 0-4.421-5.102c-11.034-3.422-42.7-13.302-46.883-16.05-4.841-3.179-8.146-7.644-8.146-7.644s.596 27.778-1.92 45.614c-2.517 17.838-15.679 47.508-15.679 47.508s-13.163-29.67-15.678-47.508c-2.518-17.836-2.207-45.836-2.207-45.836s-3.02 4.687-7.86 7.866c-4.183 2.748-35.85 12.628-46.882 16.05a6.387 6.387 0 0 0-4.422 5.102c-1.953 12.182-7.666 48.989-8.52 67.682C22.774 211.759 22 219.059 22 219.059h27.823l3.355-46.73s5.211 31.189 2.372 46.73l53.825.941 53.825-.941c-2.839-15.541 2.372-46.73 2.372-46.73l3.354 46.73h27.823c.001 0-.772-7.3-1.806-29.907z"/><path fill="#353535" d="M109.375 185.796s-8.658-8.092-23.565-45.103c-7.923-18.532-8.166-34.552-8.166-34.552s8.234-4.724 14.144-14.125c0 0-.558 19.446.872 34.307 2.034 29.195 13.492 51.148 16.715 59.473zm0 0s8.658-8.092 23.564-45.103c7.924-18.532 8.166-34.552 8.166-34.552s-8.233-4.724-14.144-14.125c0 0 .558 19.446-.872 34.307-2.032 29.195-13.491 51.148-16.714 59.473z"/><path opacity=".2" d="M109.017 106.459s-4.807 1.755-8.962 7.025c0 0-3.486 4.273-4.676 6.744-.001.001 4.497-11.246 13.638-13.769z"/><path fill="#fff" d="M90.51 92.09c.739 8.774 4.764 27.982 4.764 27.982l.016-.032a73.98 73.98 0 0 1 2.161-3.351l.008-.016c3.583-5.214 6.515-7.77 8.564-9.022 1.487-.907 2.515-1.125 2.997-1.173h.033l.008-.007h.049l.104-.009h.119l-.433-.129c-4.949-.426-10.88-4.912-17.034-16.16.001 0 .059.936-1.356 1.917z"/><path opacity=".2" d="M109.19 106.459s4.807 1.755 8.962 7.025c0 0 3.486 4.273 4.676 6.744.001.001-4.497-11.246-13.638-13.769z"/><path fill="#fff" d="M127.697 92.09c-.738 8.774-4.764 27.982-4.764 27.982l-.017-.032a73.144 73.144 0 0 0-2.16-3.351l-.008-.016c-3.583-5.214-6.517-7.77-8.565-9.022-1.486-.907-2.514-1.125-2.997-1.173h-.032l-.008-.007h-.046l-.106-.009h-.119l.434-.129c4.948-.426 11.028-4.912 17.181-16.16-.002 0-.208.936 1.207 1.917z"/><path fill="#262626" d="M36.749 116.369s.605.701 1.557 2.017c.453.671 1.033 1.472 1.627 2.433.625.943 1.266 2.047 1.951 3.259.66 1.225 1.382 2.552 2.071 3.991s1.422 2.959 2.048 4.584c.691 1.602 1.274 3.305 1.895 5.025.626 1.719 1.111 3.516 1.678 5.286.468 1.798.893 3.608 1.325 5.384l1.013 5.272c.258 1.722.458 3.394.661 4.975.216 1.58.257 3.093.382 4.476.099 1.388.218 2.656.196 3.789l.025 2.925.001 2.544-.196-2.538-.202-2.91c-.049-1.125-.246-2.382-.385-3.759-.175-1.373-.271-2.871-.544-4.434l-.792-4.92c-.347-1.691-.706-3.439-1.069-5.216-.45-1.756-.896-3.543-1.376-5.319-.541-1.76-.998-3.545-1.598-5.256-.593-1.711-1.151-3.408-1.816-5.002a108.728 108.728 0 0 0-1.903-4.6c-.629-1.453-1.297-2.794-1.907-4.035-.646-1.222-1.213-2.357-1.774-3.332-.533-.992-1.06-1.818-1.471-2.515-.861-1.368-1.397-2.124-1.397-2.124zm145.306 0s-.535.756-1.396 2.124c-.411.696-.938 1.522-1.472 2.515-.561.975-1.127 2.11-1.772 3.332-.61 1.241-1.276 2.583-1.907 4.035a107.665 107.665 0 0 0-1.902 4.6c-.666 1.594-1.223 3.291-1.815 5.002-.601 1.711-1.058 3.498-1.599 5.256l-1.375 5.319c-.364 1.776-.724 3.524-1.069 5.216l-.792 4.92c-.273 1.563-.369 3.061-.544 4.434-.14 1.377-.335 2.635-.386 3.759l-.201 2.91-.196 2.538.001-2.544.025-2.925c-.022-1.131.097-2.4.195-3.788.125-1.384.166-2.896.383-4.476.203-1.582.402-3.254.66-4.975l1.014-5.271c.432-1.776.857-3.586 1.324-5.385.567-1.771 1.051-3.566 1.679-5.285.62-1.722 1.204-3.426 1.894-5.025.627-1.627 1.359-3.146 2.049-4.584.688-1.439 1.41-2.768 2.069-3.992.685-1.212 1.327-2.314 1.951-3.26.594-.961 1.174-1.76 1.627-2.432.949-1.317 1.555-2.018 1.555-2.018z"/><circle fill="#1E1E1E" cx="109.375" cy="196.675" r="2.488"/><circle fill="#1E1E1E" cx="109.375" cy="209.672" r="2.488"/></svg>