<svg xmlns="http://www.w3.org/2000/svg" width="220" height="220" viewBox="0 0 220 220"><path fill="#fc9" stroke="#D09D6A" stroke-width=".5" stroke-miterlimit="10" d="M139.417 107.403c-1.042-1.738-11.866-5.073-11.81-18.025.057-12.95 2.468-22.127 2.468-22.127s-10.576-3.005-19.621-4.464v-.057l-.169.029-.169-.029v.057c-9.045 1.459-19.621 4.464-19.621 4.464s2.411 9.177 2.467 22.127c.058 12.953-10.766 16.288-11.808 18.025-1.043 1.74 1.446 6.69 3.561 9.688 2.115 2.996 19.028 12.438 25.207 12.142l.364-.035.364.035c6.179.297 23.092-9.146 25.207-12.142 2.116-2.998 4.604-7.948 3.56-9.688z"/><path fill="#CD4B2B" d="M90.501 96.706l1.096 95.183h37.233V96.706l-16.144 9.611h-5.584z"/><path opacity=".5" fill="#F6A76A" d="M127.611 89.373c0 .464.012.928.048 1.368-1.784.738-3.558 1.428-5.032 2.118-2.545 1.201-6.281 2.557-8.98 3.473a10.457 10.457 0 0 1-6.815 0c-2.711-.917-6.446-2.272-8.992-3.473-1.403-.667-3.152-1.38-4.912-2.154.023-.427.036-.88.036-1.332-.061-12.941-2.462-22.123-2.462-22.123s10.574-3.01 19.614-4.46v-.06l.167.023.179-.023v.06c9.039 1.451 19.613 4.46 19.613 4.46s-2.416 9.182-2.464 22.123z"/><path fill="#fc9" stroke="#D09D6A" stroke-width=".5" stroke-miterlimit="10" d="M143.402 42.275c-1.824-3.083-3.174-2.16-4.146.296V31.964c0-8.413-7.09-15.234-15.837-15.234h-25.88c-8.747 0-15.838 6.821-15.838 15.234v9.854c-.939-1.851-2.184-2.282-3.805.457-.839 1.418-1.146 2.673-1.127 7.169.023 4.495 1.859 10.771 4.687 11.137l.245.016v9.553c0 3.511.86 4.753 1.503 5.191.832.564 1.681 1.092 2.434 1.751 3.025 2.648 9.255 6.97 12.651 10.352 4.596 4.579 19.785 4.579 24.381 0 3.396-3.382 9.626-7.704 12.65-10.352.752-.66 1.604-1.187 2.436-1.751.645-.438 1.502-1.678 1.502-5.191v-9.543c.182.007.373.002.586-.025 2.83-.366 4.664-6.642 4.688-11.137.017-4.497-.289-5.752-1.13-7.17z"/><path opacity=".5" d="M90.244 47.542s-1.032 4.4 5.365 3.499c5.294-1.277 3.909-1.186 5.716-1.031-.362-.438-1.098-.657-1.098-.657s-2.744.32-4.979.183c-2.237-.135-5.004-1.994-5.004-1.994zm.096-1.732s2.853-4.934 8.111-4.258c4.251.344 5.535 1.625 5.535 1.625s-3.569-.516-4.25-.271c1.67.764 3.068 3.611 2.819 4.368-.252.756-3.889-2.551-3.889-2.551L90.34 45.81zm15.852-.664c1.736.356 1.684 3.184-.098 3.433.492-1.236.509-2.186.098-3.433zM130.4 47.542s1.031 4.4-5.365 3.499c-5.294-1.277-3.907-1.186-5.717-1.031.363-.438 1.099-.657 1.099-.657s2.744.32 4.979.183c2.239-.135 5.004-1.994 5.004-1.994zm-.095-1.732s-2.854-4.934-8.111-4.258c-4.252.344-5.535 1.625-5.535 1.625s3.568-.516 4.251-.271c-1.671.764-3.069 3.611-2.82 4.368.251.756 3.89-2.551 3.89-2.551l8.325 1.087zm-15.851-.664c-1.738.356-1.687 3.184.096 3.433-.491-1.236-.508-2.186-.096-3.433zM98.447 69.745c-2.397-.667-3.989 3.304-5.297 4.69-.056-1.52.607-3.142 1.654-4.242.855-.904 2.747-1.844 3.643-.448zm24.328-.557c2.402-.666 3.992 3.305 5.297 4.691.058-1.523-.609-3.142-1.648-4.241-.86-.907-2.755-1.845-3.649-.45z" fill="#F6A76A"/><path fill="#5C402E" stroke="#442F24" stroke-miterlimit="10" d="M196.161 189.114c-.854-18.716-6.576-55.569-8.532-67.767a6.39 6.39 0 0 0-4.427-5.107c-11.046-3.428-42.752-13.318-46.942-16.071-4.845-3.183-8.166-8.311-8.166-8.311s.607 28.47-1.912 46.33c-2.519 17.859-15.697 47.567-15.697 47.567s-13.179-29.708-15.698-47.567c-2.52-17.859-1.911-46.33-1.911-46.33s-3.322 5.128-8.167 8.311c-4.188 2.753-35.896 12.644-46.942 16.071a6.395 6.395 0 0 0-4.427 5.107c-1.955 12.197-7.677 49.051-8.531 67.767C23.776 211.749 23 219.059 23 219.059h27.859l3.359-46.789s5.216 31.228 2.375 46.789l53.892.941 53.892-.941c-2.842-15.563 2.375-46.789 2.375-46.789l3.359 46.789h27.857c.003 0-.773-7.31-1.807-29.945z"/><path fill="#533522" d="M110.485 185.755s-8.668-8.103-23.595-45.159c-7.934-18.556-8.176-34.595-8.176-34.595s8.245-4.73 14.162-14.144c0 0-.56 19.47.873 34.351 2.037 29.23 13.51 51.209 16.736 59.547zm0 0s8.667-8.103 23.594-45.159c7.935-18.556 8.177-34.595 8.177-34.595s-8.244-4.73-14.162-14.144c0 0 .559 19.47-.873 34.351-2.035 29.23-13.509 51.209-16.736 59.547z"/><path opacity=".2" d="M110.126 106.317s-4.812 1.758-8.973 7.035c0 0-3.49 4.278-4.682 6.752 0 0 4.504-11.261 13.655-13.787z"/><path fill="#FF5D35" d="M91.597 91.93c.74 8.785 4.77 28.017 4.77 28.017l.016-.03a73.976 73.976 0 0 1 2.163-3.356l.009-.016c3.587-5.22 6.523-7.778 8.573-9.034 1.489-.908 2.519-1.125 3.001-1.174h.033l.008-.007h.047l.104-.009h.121l-.435-.128c-4.954-.427-10.708-4.553-16.868-15.814.002-.001-.126.569-1.542 1.551z"/><path opacity=".2" d="M110.301 106.317s4.813 1.758 8.973 7.035c0 0 3.492 4.278 4.682 6.752-.001 0-4.503-11.261-13.655-13.787z"/><path fill="#FF5D35" d="M128.83 91.93c-.74 8.785-4.77 28.017-4.77 28.017l-.017-.03a72.261 72.261 0 0 0-2.164-3.356l-.007-.016c-3.588-5.22-6.523-7.778-8.576-9.034-1.488-.908-2.518-1.125-3-1.174h-.033l-.008-.007h-.048l-.105-.009h-.12l.434-.128c4.954-.427 10.708-4.553 16.868-15.814.002-.001.13.569 1.546 1.551z"/><path fill="#462612" d="M37.767 116.24s.606.701 1.559 2.019c.454.673 1.034 1.474 1.629 2.437.625.945 1.268 2.049 1.954 3.263.661 1.228 1.384 2.556 2.073 3.997.69 1.441 1.424 2.961 2.051 4.59.692 1.604 1.276 3.309 1.896 5.032.627 1.721 1.112 3.521 1.68 5.292.468 1.801.894 3.613 1.327 5.391l1.015 5.279c.258 1.725.459 3.396.662 4.98.216 1.582.257 3.096.382 4.481.1 1.39.218 2.659.196 3.793l.025 2.929.002 2.547-.196-2.541-.202-2.914c-.05-1.125-.247-2.385-.385-3.764-.176-1.375-.271-2.875-.545-4.439l-.793-4.924-1.071-5.224c-.45-1.758-.897-3.547-1.378-5.325-.541-1.762-1-3.551-1.6-5.263-.594-1.714-1.152-3.413-1.818-5.008a107.289 107.289 0 0 0-1.905-4.604c-.631-1.455-1.299-2.799-1.91-4.041-.646-1.224-1.214-2.359-1.776-3.336-.534-.992-1.061-1.82-1.473-2.519-.862-1.371-1.399-2.128-1.399-2.128zm145.489 0s-.537.757-1.398 2.126c-.412.698-.938 1.526-1.473 2.519-.563.977-1.129 2.113-1.775 3.336-.611 1.242-1.279 2.586-1.91 4.04a107.657 107.657 0 0 0-1.905 4.605c-.666 1.596-1.224 3.294-1.817 5.008-.602 1.712-1.06 3.501-1.601 5.262-.481 1.779-.929 3.568-1.378 5.326-.365 1.779-.725 3.529-1.071 5.224l-.793 4.924c-.274 1.564-.37 3.064-.545 4.439-.138 1.378-.335 2.639-.385 3.764l-.202 2.914-.195 2.541.002-2.548.024-2.928c-.022-1.134.097-2.403.196-3.793.125-1.386.166-2.899.382-4.481.202-1.584.403-3.258.661-4.98l1.016-5.279c.434-1.777.857-3.59 1.327-5.391.567-1.772 1.053-3.571 1.681-5.292.62-1.724 1.204-3.429 1.896-5.032.627-1.628 1.36-3.148 2.051-4.59.688-1.441 1.412-2.77 2.073-3.997.686-1.214 1.328-2.317 1.953-3.263.596-.963 1.176-1.764 1.629-2.437.951-1.316 1.557-2.017 1.557-2.017z"/><circle fill="#462612" cx="110.485" cy="201.403" r="3.647"/><circle fill="#9E3A21" cx="110.485" cy="121.563" r="1.447"/><circle fill="#9E3A21" cx="110.485" cy="134.021" r="1.447"/><circle fill="#9E3A21" cx="110.485" cy="146.479" r="1.447"/><circle fill="#9E3A21" cx="110.485" cy="158.936" r="1.447"/><path fill="#FFB679" d="M80.912 46.806c-1.675-.009-1.26 5.015-1.039 6.785.223 1.769 1.766 2.826 2.73 2.483.959-.342 1.391-2.957.395-3.107-.995-.147-1.552-.859-1.043-1.518.512-.657 1.038-4.635-1.043-4.643zm59.475 0c1.674-.009 1.26 5.015 1.038 6.785-.223 1.769-1.766 2.826-2.729 2.483-.959-.342-1.393-2.957-.396-3.107.997-.147 1.554-.859 1.043-1.518-.511-.657-1.036-4.635 1.044-4.643z"/><path fill="#7C431F" d="M83.062 58.384s-2.164-16.851-3.503-19.23c-1.339-2.379-1.855-14.471-1.443-17.247.412-2.775 6.286-13.48 9.995-16.058 3.71-2.576 13.5-5.947 24.011-5.847 10.511.099 19.683 1.487 26.481 9.218 0 .495 1.033.892 1.34 3.667.31 2.775 2.269 6.245 2.783 8.425.516 2.181.309 16.256-1.238 20.22-1.545 3.966-3.295 16.851-3.295 16.851s-.928-7.633-1.237-17.94c-.31-10.309-.722-16.752-3.916-18.635l-5.64 1.068c-5.325 1.007-10.742 2.677-16.17 2.624-7.153-.07-14.266-2.257-21.143-4.154l-1.113-.308c-.697-.066-1.333.377-1.478 1.038-.746 3.415-2.88 13.302-2.787 14.205.312 2.973-1.647 22.103-1.647 22.103z"/><path opacity=".1" fill="#fff" d="M128.975 15.738l.188-1.247c-.567-1.958-.757-4.63-2.46-6.054-.188 1.248-.378 2.493-.945 3.561-4.16-3.561-10.402-6.054-16.268-5.697 2.836 1.247 4.918 3.027 6.242 5.697-3.783-.534-6.812-2.137-10.783-2.137-2.837 0-4.729.536-7.567 1.425 3.027-.534 7.378-.178 9.458 1.959-3.971.535-8.133-1.248-12.484-.356-2.836.533-6.054 2.136-8.324 4.096 7.567-.356 14.945.178 22.322 1.781.568-1.425-1.702-2.493-2.838-3.206 6.054-.711 13.243 1.247 18.917 2.493-.567-1.779-1.513-3.561-3.026-4.807 3.026 1.246 5.485 3.383 8.132 4.986.191-.892-.185-1.604-.564-2.494z"/><path fill="#fff" d="M102.48 46.76c.044.734.255 1.465-.141 2.109-.762 1.244-1.825 1.823-3.272 1.723-1.546-.108-3.076-.506-4.573-.89-.986-.252-2.33-.35-3.086-1.086-.421-.409-1.897-1.922-1.54-2.803.406-.995 2.319-1.309 3.264-1.448 2.023-.296 4.198-.006 6.189.404 1.203.248 2.741.676 3.159 1.991z"/><radialGradient id="a" cx="643.091" cy="-73.409" r="2.599" gradientTransform="scale(-1) rotate(9.73 115.669 -4402.634)" gradientUnits="userSpaceOnUse"><stop offset="0" stop-color="#28353D"/><stop offset=".508" stop-color="#27323B"/><stop offset=".809" stop-color="#222A33"/><stop offset="1" stop-color="#1D2029"/></radialGradient><path fill="url(#a)" d="M94.647 44.401a2.787 2.787 0 1 0 4.172.723c-.615-.376-3.497-.833-4.172-.723z"/><path fill="#212121" d="M94.788 46.503a1.705 1.705 0 0 0 3.361.573 1.704 1.704 0 1 0-3.361-.573z"/><path fill="#1A1A1A" d="M102.48 46.76s-.364-1.207-3.019-1.66c-2.658-.456-5.792-.357-6.599-.493-.804-.138-3.065 1.192-3.065 1.192s1.247-1.805 3.152-2.068c1.731-.239 6.585.361 7.801.696 1.214.335 1.73 2.333 1.73 2.333z"/><path fill="#B76B2C" d="M100.776 50.382s-5.635.549-9.06-1.915c-1.746-1.253-1.847-2.654-1.847-2.654s-.544 1.941 2.157 3.354c4.2 2.198 8.75 1.215 8.75 1.215z"/><circle fill="#fff" cx="94.269" cy="46.194" r=".497"/><path fill="#fff" d="M95.241 46.231a.401.401 0 0 0 .567-.054.405.405 0 0 0-.622-.517.402.402 0 0 0 .055.571zm22.988.529c-.043.734-.254 1.465.142 2.109.762 1.244 1.823 1.823 3.272 1.723 1.545-.108 3.075-.506 4.572-.89.985-.252 2.33-.35 3.085-1.086.423-.409 1.897-1.922 1.541-2.803-.405-.995-2.317-1.309-3.264-1.448-2.022-.296-4.198-.006-6.188.404-1.203.248-2.743.676-3.16 1.991z"/><radialGradient id="b" cx="-2414.247" cy="449.227" r="2.6" gradientTransform="scale(1 -1) rotate(9.73 1776.236 15115.21)" gradientUnits="userSpaceOnUse"><stop offset="0" stop-color="#28353D"/><stop offset=".508" stop-color="#27323B"/><stop offset=".809" stop-color="#222A33"/><stop offset="1" stop-color="#1D2029"/></radialGradient><path fill="url(#b)" d="M126.063 44.401a2.788 2.788 0 1 1-4.525 2.615 2.756 2.756 0 0 1 .354-1.892c.613-.376 3.495-.833 4.171-.723z"/><path fill="#212121" d="M125.921 46.503a1.705 1.705 0 1 1-3.36.571 1.705 1.705 0 0 1 3.36-.571z"/><path fill="#1A1A1A" d="M118.229 46.76s.364-1.207 3.02-1.66c2.658-.456 5.792-.357 6.598-.493.805-.138 3.066 1.192 3.066 1.192s-1.246-1.805-3.152-2.068c-1.73-.239-6.585.361-7.801.696-1.215.335-1.731 2.333-1.731 2.333z"/><path fill="#B76B2C" d="M119.934 50.382s5.635.549 9.061-1.915c1.746-1.253 1.847-2.654 1.847-2.654s.543 1.941-2.157 3.354c-4.203 2.198-8.751 1.215-8.751 1.215z"/><path fill="#fff" d="M121.896 46.576a.496.496 0 1 0-.07-.698.498.498 0 0 0 .07.698zm1.29-.345a.403.403 0 0 0 .511-.623.405.405 0 0 0-.567.052.4.4 0 0 0 .056.571z"/><path opacity=".5" fill="#F6A76A" d="M110.286 68.648s-.049 4.348-2.299 4.252c-2.248-.095.616.742 1.976.367 1.361-.369 1.445-1.038.323-4.619z"/><path opacity=".32" fill="#F5B1A2" d="M109.806 64.688c2.833.292 6.239 1.273 6.325 1.664-3.744 1.831-11.583.783-11.343-.183.187-.746 3.216-1.669 5.018-1.481z"/><path fill="#AE8879" d="M114.916 65.375c.762-.036 1.555.343 1.508.487-.049.145-.82.03-1.49.066-.408.021-1.687.334-1.75.195-.064-.136 1.267-.722 1.732-.748zm-8.635-.258c.804.156 1.764.757 1.697.893-.067.136-1.173-.223-1.73-.342-.479-.1-1.605.036-1.669-.1-.069-.138 1.164-.556 1.702-.451z"/><path opacity=".2" fill="#F5B1A2" d="M106.592 66.675c-.806-.855-2.006-1.699-3.248-1.41 1.16-2.045 4.513 1.402 5.721 1.755 1.488.431 2.888-.232 4.192-.882 1.498-.743 2.946-.987 4.525-.318-.943.295-1.792.198-2.726.654-.998.486-1.891 1.145-2.867 1.667-2.17 1.161-4.034.189-5.597-1.466z"/><path opacity=".5" fill="#F6A76A" d="M117.379 65.415s1.555-.584 1.252-2.108c-.304-1.527-1.15-2.285-1.15-2.285s1.26 1.054 1.398 2.594c.142 1.541-1.5 1.799-1.5 1.799zm-13.787 0s-1.556-.584-1.252-2.108c.304-1.527 1.15-2.285 1.15-2.285s-1.26 1.054-1.398 2.594c-.142 1.541 1.5 1.799 1.5 1.799z"/><path opacity=".3" fill="#FDE9D7" d="M115.129 56.841s-1.087-.464-1.445-2.35c-.356-1.883-1.807-5.252-2.531-.864-.722 4.391-.536 6.586 1.045 6.024 2.328-.82 3.841-.222 3.928-1.239.054-.646-.33-1.236-.997-1.571z"/><path fill="#FFAC81" d="M101.8 74.529c0-.46 2.964-1.47 3.258-1.584 1.761-.679 3.751-.946 5.478-.4 1.653-.523 3.7-.277 5.459.394.297.113 3.274 1.12 3.274 1.591.002.804-17.469.788-17.469-.001zm.006.004c1.278.06 2.567.371 3.837.55 1.629.231 3.254.264 4.894.372 1.605-.108 3.213-.12 4.811-.372 1.291-.204 2.615-.474 3.918-.55-3.965 6.336-13.463 6.165-17.46 0z"/><path fill="#B54A37" d="M110.388 75.66c-1.688-.037-3.245-.129-4.508-.272l-.893-.092c-2.048-.211-2.984-.305-3.669-1.463-.536-.903-.979-.373-1.272-.404-.097-.008-.172-.018-.223-.053-.307-.209-.361-.35-.346-.402.014-.043.098-.072.214-.072.16 0 .376.05.608.143.604.243 1.33.611 1.338.619 1.226 1.389 4.643 1.593 6.57 1.593h.012c.592 0 1.151.024 1.779.051l.388.015.389-.015c.634-.027 1.193-.051 1.642-.051l.748.003c2.265 0 5.01-.16 6.164-1.412a14.55 14.55 0 0 1 1.344-.624c.231-.093.448-.145.609-.145.116 0 .2.03.213.074.015.05-.04.192-.347.401l-.203.079c-.242.063-.609-.416-1.283.369-1.051 1.226-1.703 1.243-3.001 1.279-.483.012-1.056.03-1.767.107-1.263.143-2.822.235-4.506.272z"/><path fill="#7C431F" d="M87.385 39.109c-.063-.729.407-1.415.944-1.861.683-.607 1.363-.618 2.25-.58 1.129.049 2.181.346 3.271.61 2.125.515 4.263.991 6.418 1.362.729.125 1.721.066 2.331.489.582.404 1.171.796 1.765 1.183-.572.381-1.912 1.343-2.6 1.092-1.297-.371-2.753-.438-4.081-.706-1.9-.385-4.227-.973-5.913-1.362-.613-.104-1.477-.347-2.089-.14-.302.102-.699-.165-1.004-.226-.421-.084-.913-.088-1.292.139zm45.629 0c-.301-.176-.686-.216-1.027-.18-.329.035-.824.344-1.13.309-.767-.089-1.463-.03-2.23.1-1.56.357-3.768.919-5.538 1.284a60.02 60.02 0 0 1-4.146.733c-1.024.177-2.067-.482-2.91-1.042a67.789 67.789 0 0 0 1.765-1.182c.61-.424 1.603-.365 2.332-.49 2.155-.371 4.293-.847 6.418-1.363 1.091-.264 2.142-.561 3.271-.61.887-.038 1.565-.027 2.249.58.538.447 1.001 1.131.946 1.861z"/><path fill="#462612" d="M138.716 147.193s.308-.045.843-.098c.537-.043 1.305-.133 2.225-.188 1.84-.127 4.293-.21 6.746-.214 2.455.002 4.908.084 6.748.212.92.056 1.687.146 2.224.189.537.054.843.097.843.097s-.307.045-.843.098c-.537.043-1.304.134-2.224.189-1.84.127-4.293.209-6.748.213a106.127 106.127 0 0 1-6.746-.215c-.92-.056-1.688-.146-2.225-.188a22.22 22.22 0 0 1-.843-.095z"/><path fill="#CD4B2B" d="M142.256 147.193l-1.217-2.754a1.571 1.571 0 0 1 1.501-2.035h11.392a1.572 1.572 0 0 1 1.498 2.046l-1.248 2.743h-11.926z"/></svg>