<svg xmlns="http://www.w3.org/2000/svg" width="220" height="220" viewBox="0 0 220 220"><path fill="#fc9" stroke="#D09D6A" stroke-width=".5" stroke-miterlimit="10" d="M135.909 118.08c-2.163 3.061-19.435 12.705-25.738 12.4l-.376-.037-.365.037c-6.315.305-23.588-9.34-25.749-12.4-2.15-3.061-4.701-8.113-3.632-9.899 1.057-1.749 11.806-5.065 12.049-17.831l.012-.57c-.037-7.652-.874-14.005-1.579-18-.51-2.927-.948-4.593-.948-4.593s10.798-3.072 20.041-4.566v-.048l.171.024.169-.024v.048c9.244 1.494 20.042 4.566 20.042 4.566s-.438 1.666-.947 4.593c-.705 3.995-1.543 10.348-1.567 18l.012.57c.243 12.766 10.993 16.082 12.037 17.831 1.066 1.786-1.471 6.839-3.632 9.899z"/><path opacity=".5" fill="#F6A76A" d="M127.491 89.78l.012.57c-2.915 2.807-5.878 5.248-7.724 6.839-4.592 3.923-9.717 3.898-9.984 3.898-.268 0-5.394.025-9.985-3.898-1.846-1.58-4.798-4.033-7.712-6.839l.012-.57c-.037-7.652-.874-14.005-1.579-18 2.818-.766 11.478-3.074 19.093-4.301v-.047l.171.023.169-.023v.047c7.615 1.227 16.274 3.535 19.095 4.301-.705 3.995-1.543 10.348-1.568 18z"/><path fill="#fc9" stroke="#D09D6A" stroke-width=".5" stroke-miterlimit="10" d="M141.357 42.573c-1.394-2.194-2.457-1.856-3.256-.374-.068-12.66-.209-24.474-.209-24.474H81.688s-.142 12.017-.211 24.799c-.815-1.751-1.929-2.3-3.42.048-.726 1.144-.995 2.16-.995 5.809.005 3.647 1.561 8.751 3.99 9.068l.393.002c.014 6.672.081 12.126.243 14.203.552 7.124 12.787 17.109 17.691 21.303 4.781 4.085 10.136 4.066 10.411 4.06.275.006 5.628.025 10.407-4.06 4.908-4.194 17.142-14.179 17.695-21.303.16-2.077.228-7.531.242-14.204l.227-.001c2.43-.317 3.988-5.421 3.992-9.068.001-3.648-.269-4.664-.996-5.808z"/><path fill="#FFB679" d="M80.697 45.209c-1.44-.02-1.102 4.06-.917 5.496.187 1.438 1.508 2.307 2.338 2.034.824-.271 1.205-2.388.351-2.516-.858-.127-1.331-.708-.894-1.241.443-.529.911-3.751-.878-3.773zm58.022 0c1.44-.02 1.104 4.06.918 5.496-.186 1.438-1.509 2.307-2.338 2.034-.826-.271-1.205-2.388-.352-2.516.857-.127 1.332-.708.894-1.241-.445-.529-.909-3.751.878-3.773z"/><path fill="#7C431F" d="M143.213 14.731C135.63-1.115 109.908.018 109.908.018S84.187-1.115 76.604 14.731c-1.733 19.746 4.875 39.347 4.875 39.347s-.746-23.834 5.686-29.625c6.433-5.793 17.795-6.659 22.742-4.262 4.946-2.397 16.585-1.813 22.741 4.262 6.027 5.946 5.49 29.328 5.49 29.328s6.805-19.304 5.075-39.05z"/><path opacity=".5" fill="#F6A76A" d="M109.734 70.039s-.042 3.72-1.967 3.638c-1.921-.082.527.633 1.689.314 1.166-.317 1.239-.888.278-3.952z"/><path opacity=".32" fill="#F5B1A2" d="M109.323 66.651c2.422.25 5.338 1.089 5.41 1.423-3.203 1.566-9.907.668-9.703-.156.161-.638 2.753-1.427 4.293-1.267z"/><path fill="#AE8879" d="M113.695 67.238c.652-.03 1.328.294 1.289.415-.041.127-.702.027-1.276.057-.349.018-1.44.287-1.495.168-.055-.116 1.084-.617 1.482-.64zm-7.388-.22c.688.134 1.51.649 1.452.765-.057.116-1.003-.191-1.479-.295-.41-.084-1.374.032-1.428-.084-.059-.12.996-.478 1.455-.386z"/><path opacity=".2" fill="#F5B1A2" d="M106.574 68.348c-.69-.729-1.716-1.452-2.779-1.205.994-1.75 3.862 1.201 4.895 1.503 1.273.369 2.47-.2 3.585-.754 1.281-.637 2.521-.844 3.873-.273-.809.253-1.535.168-2.334.56-.854.415-1.615.98-2.451 1.425-1.857.995-3.451.163-4.789-1.256z"/><path opacity=".5" fill="#F6A76A" d="M115.803 67.272s1.33-.5 1.07-1.804c-.26-1.306-.986-1.955-.986-1.955s1.079.9 1.198 2.219c.121 1.32-1.282 1.54-1.282 1.54zm-11.796 0s-1.331-.5-1.071-1.804c.26-1.306.986-1.955.986-1.955s-1.08.9-1.198 2.219c-.121 1.32 1.283 1.54 1.283 1.54z"/><path opacity=".3" fill="#FDE9D7" d="M113.876 59.938s-.929-.396-1.235-2.009c-.306-1.611-1.545-4.493-2.166-.74-.618 3.756-.458 5.635.895 5.152 1.989-.7 3.287-.187 3.36-1.059.045-.553-.283-1.057-.854-1.344z"/><path fill="#7C431F" d="M138.134 58.401c.025 4.692-7.224 14.978-7.224 14.978s-2.186 2.426-6.393.632c-7.441-5.125-14.061-4.554-14.668-4.49-.61-.064-7.228-.636-14.669 4.49-4.206 1.793-6.392-.632-6.392-.632s-7.371-10.285-7.347-14.978c0 0-3.514 14.763 6.232 24.124 9.747 9.364 14.437 14.493 22.116 14.493h.121c7.678 0 12.369-5.129 22.115-14.493 9.746-9.361 6.109-24.124 6.109-24.124zm-14.926 21.992c-.548 5.273-10.271 6.276-10.271 6.276-.051-4.051-2.463-4.565-3.028-4.632v-.01l-.061.004-.061-.004v.01c-.565.066-2.979.581-3.028 4.632 0 0-9.725-1.002-10.269-6.276-.548-5.274 1.2-6.486 5.461-6.644 4.261-.159 7.836.368 7.836.368h.121s3.574-.527 7.834-.368c4.265.158 6.01 1.37 5.466 6.644z"/><path opacity=".1" fill="#fff" d="M126.755 5.665c-.2 1.329-.403 2.656-1.007 3.793-4.434-3.793-11.082-6.449-17.33-6.067 3.021 1.326 5.239 3.224 6.648 6.067-4.028-.569-7.253-2.276-11.484-2.276-3.022 0-5.038.572-8.06 1.52 3.225-.569 7.859-.191 10.075 2.086-4.232.568-8.664-1.33-13.298-.379-3.023.567-6.449 2.275-8.868 4.362 8.06-.381 15.918.189 23.776 1.896.605-1.516-1.813-2.654-3.021-3.415 6.448-.756 14.104 1.33 20.149 2.656-.603-1.895-1.61-3.793-3.224-5.119 3.224 1.326 5.844 3.602 8.664 5.309.204-.947-1.207-8.916-3.02-10.433z"/><path fill="#fff" d="M103.13 46.441c.094.792.369 1.572-.02 2.294-.747 1.393-1.861 2.086-3.433 2.069-1.681-.021-3.363-.356-5.005-.676-1.083-.212-2.543-.232-3.408-.982-.48-.418-2.174-1.962-1.841-2.937.376-1.104 2.427-1.563 3.441-1.772 2.172-.448 4.543-.269 6.723.05 1.316.189 3.009.558 3.543 1.954z"/><radialGradient id="a" cx="632.207" cy="11.815" r="2.818" gradientTransform="rotate(-173.72 365.17 44.357)" gradientUnits="userSpaceOnUse"><stop offset="0" stop-color="#28353D"/><stop offset=".508" stop-color="#27323B"/><stop offset=".809" stop-color="#222A33"/><stop offset="1" stop-color="#1D2029"/></radialGradient><path fill="url(#a)" d="M94.506 44.38a2.987 2.987 0 0 0-.941 1.879 3.022 3.022 0 0 0 2.667 3.338 3.024 3.024 0 0 0 2.836-4.695c-.692-.368-3.839-.684-4.562-.522z"/><path fill="#212121" d="M94.79 46.646a1.848 1.848 0 1 0 3.673.411 1.847 1.847 0 0 0-1.633-2.044 1.846 1.846 0 0 0-2.04 1.633z"/><path fill="#1A1A1A" d="M103.13 46.441s-.468-1.282-3.372-1.606c-2.904-.326-6.29-.022-7.171-.119-.879-.1-3.243 1.479-3.243 1.479s1.236-2.028 3.282-2.435c1.859-.365 7.149-.019 8.484.266 1.337.287 2.02 2.415 2.02 2.415z"/><path fill="#B76B2C" d="M101.515 50.47s-6.066.947-9.928-1.504c-1.968-1.248-2.164-2.756-2.164-2.756s-.467 2.132 2.544 3.494c4.685 2.114 9.548.766 9.548.766z"/><path fill="#fff" d="M93.891 46.778a.537.537 0 1 0-.118-.75.537.537 0 0 0 .118.75zm1.373-.453a.433.433 0 0 0 .608-.094.439.439 0 0 0-.094-.614.437.437 0 1 0-.514.708z"/><path fill="#7C431F" d="M85.798 39.457c3.332-1.175 7.306-1.007 10.742-.489 1.961.295 3.942.771 5.816 1.427.572.2 3.786 1.153 3.648 1.912-3.54-.201-7.042-.491-10.558-.969-2.096-.285-4.178-.663-6.266-1.001a85.707 85.707 0 0 1-2.669-.485c-.268-.052-.884-.001-.713-.395z"/><path fill="#fff" d="M116.68 46.441c-.095.792-.369 1.572.02 2.294.748 1.393 1.861 2.086 3.433 2.069 1.681-.021 3.361-.356 5.005-.676 1.082-.212 2.543-.232 3.407-.982.481-.418 2.175-1.962 1.843-2.937-.377-1.104-2.428-1.563-3.441-1.772-2.172-.448-4.543-.269-6.723.05-1.318.189-3.01.558-3.544 1.954z"/><radialGradient id="b" cx="-1987.825" cy="304.982" r="2.816" gradientTransform="scale(1 -1) rotate(6.37 2224.708 19092.15)" gradientUnits="userSpaceOnUse"><stop offset="0" stop-color="#28353D"/><stop offset=".508" stop-color="#27323B"/><stop offset=".809" stop-color="#222A33"/><stop offset="1" stop-color="#1D2029"/></radialGradient><path fill="url(#b)" d="M125.303 44.38c.512.476.861 1.129.942 1.879a3.022 3.022 0 0 1-2.667 3.338 3.024 3.024 0 0 1-2.836-4.695c.692-.368 3.838-.684 4.561-.522z"/><path fill="#212121" d="M125.02 46.646a1.849 1.849 0 1 1-3.675.41 1.849 1.849 0 0 1 3.675-.41z"/><path fill="#1A1A1A" d="M116.68 46.441s.469-1.282 3.371-1.606c2.904-.326 6.291-.022 7.172-.119.879-.1 3.243 1.479 3.243 1.479s-1.235-2.028-3.282-2.435c-1.857-.365-7.148-.019-8.484.266-1.339.287-2.02 2.415-2.02 2.415z"/><path fill="#B76B2C" d="M118.294 50.47s6.065.947 9.929-1.504c1.967-1.248 2.164-2.756 2.164-2.756s.467 2.132-2.545 3.494c-4.684 2.114-9.548.766-9.548.766z"/><path fill="#fff" d="M120.809 46.778a.537.537 0 1 0 .636-.866.537.537 0 0 0-.636.866zm1.375-.453c.19.146.467.098.607-.094a.439.439 0 0 0-.094-.614.443.443 0 0 0-.611.093.433.433 0 0 0 .098.615z"/><path fill="#7C431F" d="M134.053 39.703c-6.679 1.387-13.444 2.216-20.248 2.606-.138-.758 3.076-1.712 3.648-1.912a32.455 32.455 0 0 1 6.191-1.481c2.016-.255 4.066-.38 6.096-.231.605.044 4.319.237 4.313 1.018z"/><path fill="#FFAC81" d="M101.99 77.567c0-.414 2.662-1.321 2.925-1.424 1.583-.61 3.37-.851 4.924-.361 1.484-.47 3.323-.247 4.903.355.267.101 2.943 1.006 2.943 1.43.001.723-15.695.707-15.695 0zm.003.002c1.148.054 2.307.333 3.447.494 1.464.208 2.925.236 4.398.335 1.441-.1 2.885-.109 4.32-.335 1.16-.184 2.35-.426 3.521-.494-3.561 5.692-12.096 5.538-15.686 0z"/><path fill="#B54A37" d="M109.704 78.581c-1.517-.033-2.918-.116-4.051-.244l-.803-.082c-1.84-.189-2.68-.275-3.296-1.314-.481-.813-.88-.336-1.142-.364l-.202-.047c-.274-.188-.324-.315-.311-.361.013-.04.087-.066.193-.066.145 0 .337.046.546.129.543.218 1.197.548 1.201.556 1.101 1.248 4.172 1.432 5.905 1.432h.01c.532 0 1.034.021 1.598.045l.35.015.349-.015a38.113 38.113 0 0 1 1.477-.045l.672.003c2.033 0 4.5-.145 5.537-1.271.01-.012.662-.344 1.207-.559.209-.084.402-.132.547-.132.104 0 .179.027.191.068.014.044-.037.171-.311.359l-.184.07c-.219.057-.549-.373-1.153.332-.944 1.101-1.529 1.119-2.696 1.149-.434.011-.947.027-1.587.096-1.135.13-2.533.213-4.047.246z"/><path fill="#9CA047" stroke="#848235" stroke-width=".5" stroke-miterlimit="10" d="M195.422 168.658l-.012-.002s-12.729-49.396-13.42-52.215l-.037-.146c-3.51-3.51-38.916-15.535-48.33-12.207-2.732 11.295-14.465 17.951-23.83 21.56-9.366-3.607-21.098-10.264-23.831-21.56-9.413-3.329-44.82 8.697-48.33 12.207 0 0-11.101 39.277-13.458 52.363-2.357 13.085-6.645 32.966-6.134 51.341H43.3s-2.146-20.275 6.286-44.589c.175-.505 2.745-10.772 2.745-10.772s.183 1.092.486 2.987v.062l.097.595c1.275 8.077 4.263 27.973 5.283 42.522.243 3.438.364 6.584.34 9.195H161.05v-.559c-.036-11.004 2.552-30.561 4.386-43.094a988.763 988.763 0 0 1 1.492-9.646l.014-.085c.193-1.275.314-1.979.314-1.979l2.756 10.772v.001c8.43 24.313 6.285 44.588 6.285 44.588h25.258c.511-15.429-6.133-51.339-6.133-51.339z"/><path stroke="#848235" stroke-width="3" stroke-miterlimit="10" d="M133.623 104.086c-2.732 11.299-14.463 17.956-23.83 21.557-9.366-3.601-21.097-10.258-23.828-21.557" fill="none"/><path fill="#848235" d="M37.632 116.298l.425.408c.277.269.679.666 1.162 1.198.497.521 1.053 1.193 1.713 1.949.617.787 1.367 1.642 2.062 2.662l1.12 1.569 1.121 1.731c.8 1.17 1.486 2.502 2.252 3.848l1.031 2.119c.346.718.712 1.437.998 2.199.61 1.507 1.268 3.024 1.732 4.615l.727 2.367.541 2.398c.414 1.576.597 3.171.804 4.707.277 1.529.263 3.033.309 4.451l.053 2.063-.134 1.926c-.097 1.232-.135 2.366-.298 3.356l-.479 2.552-.436 2.212.244-2.242.301-2.562c.09-.99.049-2.119.106-3.338l.052-1.904-.138-2.035c-.104-1.395-.163-2.866-.44-4.368-.226-1.508-.426-3.07-.854-4.615l-.563-2.347-.745-2.317c-.434-1.567-1.061-3.068-1.641-4.561-.271-.754-.622-1.467-.953-2.179l-.987-2.103c-.753-1.326-1.358-2.68-2.103-3.867l-1.037-1.76-1.043-1.598c-.656-1.035-1.335-1.928-1.894-2.755-.602-.792-1.11-1.5-1.568-2.05-.885-1.123-1.44-1.729-1.44-1.729zm144.502 0s-.554.606-1.44 1.732c-.457.55-.965 1.258-1.567 2.05-.558.827-1.237 1.72-1.894 2.755l-1.043 1.599-1.037 1.758c-.745 1.188-1.35 2.541-2.104 3.867l-.986 2.104c-.332.712-.684 1.425-.953 2.179-.58 1.492-1.207 2.993-1.642 4.562l-.745 2.316-.563 2.348c-.43 1.545-.629 3.106-.854 4.613-.277 1.502-.336 2.975-.44 4.369l-.138 2.035.051 1.904c.058 1.22.017 2.348.107 3.338l.301 2.561.244 2.243-.437-2.212-.479-2.552c-.162-.99-.201-2.124-.298-3.356l-.134-1.926.053-2.064c.047-1.416.031-2.922.309-4.451.209-1.535.392-3.129.805-4.707l.541-2.397.727-2.368c.465-1.589 1.123-3.107 1.732-4.615.286-.762.652-1.48.998-2.198l1.031-2.119c.766-1.345 1.451-2.677 2.252-3.849l1.121-1.73 1.119-1.568c.695-1.021 1.445-1.875 2.063-2.664.66-.756 1.216-1.428 1.713-1.949.482-.531.887-.93 1.162-1.197l.425-.411zM62.909 219.999h-4.372c.024-2.612-.097-5.758-.34-9.194-1.02-14.551-4.008-34.447-5.283-42.523l-.097-.596v-.061c-.194-2.174-.304-3.583-.292-3.923l.971 5.319c2.429 13.069 8.454 45.768 9.316 50.42l.097.558zm104.032-53.383l-.012.085-.072.923v.062a537.139 537.139 0 0 0-1.238 8.138l-.014.024c-1.846 12.51-4.506 32.442-4.469 43.592v.56h-4.371l.096-.56c.668-3.621 4.481-24.291 7.275-39.426v-.025c1.604-8.697 2.866-15.56 3.012-16.289.012.28-.06 1.314-.207 2.916z"/><path opacity=".2" fill="#848235" d="M165.605 175.848c-1.847 12.51-4.506 32.442-4.469 43.592H61.015l-.049-.023s-1.36-3.984-2.77-8.613c-1.02-14.55-4.008-34.445-5.283-42.523l.583.742c5.053 6.328 10.458 12.315 16.3 17.83 10.773 9.597 22.871.729 34.568-.535 1.689-1.043 5.502 3.974 5.83 6.718-1.264 8.114-10.069 10.556-13.955 15.875-.255 1.627-.765 4.882 1.25 6.571 12.475 8.551 22.289-.39 33.73-.025 4.555.146 7.021-5.756 12.438-6.135 7.36-3.036 12.364-10.493 15.911-18.545a120.922 120.922 0 0 0 4.565-10.762v-.025a90.471 90.471 0 0 0 1.3-3.644c.063-.158.124-.328.172-.498z"/></svg>