<svg xmlns="http://www.w3.org/2000/svg" width="220" height="220" viewBox="0 0 220 220"><path fill="#7C431F" d="M145.625 91.339s6.333 3.596 9.93 3.596c0 0-7.764-5.763-8.203-12.24 0 0 .285-10.918 4.047-22.039 3.764-11.121 1.68-26.565-5.049-38.413a46.735 46.735 0 0 0-6.869-9.228l-.012-.012a45.157 45.157 0 0 0-3.74-3.477c-6.81-5.644-15.597-9.454-25.944-9.454 0 0-24.349-1.87-35.578 13.239-2.214 2.99-4.108 5.728-5.703 8.312-3.286 5.322-5.358 10.014-6.608 14.92-1.227 4.786-1.654 9.787-1.654 15.788 0 15.11 8.93 27.778 9.501 32.814.572 5.037-2.298 16.265-4.608 18.278-2.298 2.012 6.048-2.156 8.489-7.478 1.227 1.381 4.787 9.787 8.525 10.646 0 0-3.738-5.906-3.167-10.943 3.882 3.167 13.813 17.706 42.46 17.706-2.441-.713-2.881-4.071-2.441-6.048 0 0 3.598 5.906 8.919 6.048 0 0-5.646-4.714-5.038-7.048 4.085.857 8.205 3.595 20.016 3.595-5.621-2.595-4.131-5.156-5.703-8.204 0 0 4.69 1.155 12.324 0 0 0-3.311 0-6.764-5.037 0 0 5.311 2.001 10.335 1.442-.834.001-6.179-2.644-7.465-6.763zm-6.479-16.42c-8.811 19.099-23.063 19.837-30.708 20.575-7.645.738-23.635-5.454-26.718-17.801C78.637 65.359 79.34 46.7 79.34 46.7c4.381-.118 19.801-15.538 20.765-16.502-3.345 4.061-13.883 15.014-13.883 15.014 6.548 0 23.231-16.681 26.885-16.919 9.062 0 24.302 11.824 24.302 11.824s7.501 14.394 1.737 34.802z"/><path fill="#fc9" stroke="#D09D6A" stroke-width=".5" stroke-miterlimit="10" d="M122.629 113.328c-4.943-5.842-4.495-27.957-4.495-27.957h-17.388s.451 22.115-4.498 27.957c-4.942 5.844-34.697 16.63-34.697 16.63v10.965h95.774v-10.965c.001 0-29.753-10.786-34.696-16.63z"/><g fill="#FCF27B"><circle cx="90.283" cy="122.167" r="1.743"/><circle cx="88.54" cy="119.14" r="1.743"/><circle cx="91.995" cy="125.1" r="1.743"/><circle cx="93.707" cy="127.792" r="1.743"/><circle cx="96.053" cy="130.297" r="1.743"/><circle cx="98.594" cy="132.696" r="1.743"/><circle cx="101.342" cy="134.469" r="1.743"/><circle cx="104.351" cy="136.246" r="1.743"/><circle cx="107.512" cy="136.889" r="1.743"/><circle cx="110.609" cy="136.314" r="1.744"/><circle cx="113.428" cy="135.211" r="1.743"/><circle cx="116.654" cy="134.009" r="1.743"/><circle cx="119.115" cy="131.628" r="1.743"/><circle cx="121.657" cy="129.181" r="1.743"/><circle cx="123.964" cy="126.613" r="1.743"/><circle cx="126.115" cy="124.004" r="1.743"/><circle cx="128.592" cy="121.629" r="1.743"/><circle cx="130.335" cy="118.704" r="1.743"/></g><path fill="#8CC63F" stroke="#7AA535" stroke-width=".5" stroke-miterlimit="10" d="M179.439 218.611h-140s-.523-31.435-.428-41.209c.012-1.084.023-2.19.059-3.322l.036-1.452c.035-1.084.083-2.19.143-3.312.63-13.299 2.727-27.719 8.608-32.219 11.741-9.002 31.696-17.099 37.173-16.717 5.478.393 6.264 12.979 24.409 12.989 18.146-.013 18.932-12.599 24.41-12.989 5.478-.381 25.434 7.715 37.174 16.717 11.739 9.003 8.416 81.514 8.416 81.514z"/><path fill="#FCF27B" d="M60.992 172.305l-.453 3.264-21.432-2.94c.035-1.084.083-2.19.143-3.312l21.742 2.988zm0 4.787l-.453 3.262-21.527-2.954c.012-1.082.023-2.189.059-3.321l21.921 3.013zm96.903-4.787l.453 3.264 21.432-2.94a163.98 163.98 0 0 0-.143-3.312l-21.742 2.988zm0 4.787l.453 3.262 21.526-2.953c-.013-1.082-.022-2.189-.06-3.321l-21.919 3.012z"/><path fill="#F2F2F2" d="M158.898 169.924c-1.049 4.528-.75 44.877-1.762 48.7a827.084 827.084 0 0 1-94.565.047l-.822-.047c-.167-.644-.454-45.165-1.774-48.843-4.406-12.264 3.66-23.983 7.132-29.1 6.662-9.816 12.586-14.207 17.372-14.337h.143c.381.203 1.202 1.107 1.822 1.786 3.095 3.405 8.68 9.145 22.992 9.156 14.313-.012 19.909-5.751 22.993-9.156.619-.679 1.452-1.583 1.834-1.786h.129c4.787.13 10.264 2.392 17.385 14.337 3.176 5.324 10.446 14.893 7.121 29.243z"/><path fill="#E6E6E6" d="M158.902 169.92c-.166 4.645-.75 44.877-1.76 48.699-1.871.107-3.74.214-5.621.311v-.322c0-15.371-18.836-27.838-42.08-27.838-23.241 0-42.09 12.467-42.09 27.838v.297a425.09 425.09 0 0 1-5.597-.284c-.44-.702-1.643-44.937-1.774-48.843 7.978 2.524 23.636 11.777 49.461 11.801 24.851-.086 40.198-9.194 49.461-11.659z"/><path opacity=".5" fill="#F6A76A" d="M118.966 101.925l-.216.083c-6.32 2.37-12.858 1.548-18.834-1.06.939-7.621.772-15.574.772-15.574h17.386c-.002 0-.179 8.644.892 16.551z"/><path fill="#fc9" stroke="#D09D6A" stroke-width=".5" stroke-miterlimit="10" d="M144.73 53.192c-.193-3.051-.473-3.889-1.141-4.807-1.132-1.558-1.945-1.472-2.527-.546-.203-1.501-.352-2.442-.352-2.442s-3.054-18.492-8.217-23.428c-5.417-5.186-23.063-5.108-23.063-5.108v-.153s-17.629-.078-23.044 5.108c-5.165 4.936-8.217 23.428-8.217 23.428s-.146.917-.346 2.385c-.568-.716-1.337-.673-2.378.757-.667.918-.946 1.756-1.139 4.807-.172 2.795.679 6.673 2.373 7.61l-.009.763c0 2.915.637 6.045 1.3 8.873.984 4.192 2.216 8.709 4.319 12.494 2.074 3.737 5.456 6.609 9.09 8.782 4.854 2.902 16.418 4.627 18.051 4.627 8.103 0 13.288-2.515 18.069-4.455 3.344-1.357 6.393-4.188 8.439-7.121 2.119-3.037 2.807-6.738 3.834-10.226 1.228-4.163 2.437-8.449 2.437-12.822l-.01-.833c1.8-.776 2.709-4.813 2.531-7.693z"/><path fill="#7C431F" d="M142.604 46.224s-3.237-19.61-8.715-24.842c-5.742-5.5-24.458-5.418-24.458-5.418v-.167s-18.695-.08-24.442 5.418c-5.474 5.235-8.711 24.845-8.711 24.845l1.238 1.55c4.646-.143 21.019-16.474 22.035-17.513-3.522 4.274-9.745 11.359-9.745 11.359 10.447-4.837 19.645-13.113 23.535-13.379 9.595 0 25.763 12.547 25.763 12.547"/><path fill="#FFB679" d="M141.941 51.222c1.384-.106 1.305 3.839 1.215 5.234-.09 1.393-1.311 2.31-2.125 2.098-.813-.209-1.307-2.226-.491-2.401.813-.174 1.237-.763.782-1.246-.457-.483-1.099-3.557.619-3.685zm-64.846 0c-1.384-.106-1.305 3.839-1.215 5.234.089 1.393 1.31 2.31 2.124 2.098.812-.209 1.307-2.226.491-2.401-.814-.174-1.238-.763-.781-1.246.457-.483 1.1-3.557-.619-3.685z"/><path fill="#A75928" d="M102.13 47.657c-2.45-1.677-5.85-2.261-8.77-2.295-1.834-.021-3.669.266-5.454.67-.97.22-1.917.471-2.87.754l-1.016.295c-.204.059-.008-.169.089-.212 3.222-1.443 6.404-2.445 9.93-2.781a10.437 10.437 0 0 1 5.079.755c.477.199 3.705 2.345 3.012 2.814zm14.802-.094c1.393-2.957 5.458-3.737 8.358-3.46 1.66.158 3.249.462 4.864.875.412.105 5.19 1.709 5.115 1.982-.087.317-1.17-.186-1.43-.262a46.792 46.792 0 0 0-2.938-.748c-1.669-.436-3.487-.604-5.207-.584-1.53.018-3.046.288-4.538.62-.932.208-1.84.505-2.711.898-.349.157-1.226.87-1.513.679z"/><path fill="#D9AA8E" d="M102.549 57.904s-2.614-7.148-8.944-7.604c-7.697-.55-8.511 6.223-7.872 4.868 0 0 3.663-3.227 10.046-1.235 5.147 1.602 6.77 3.971 6.77 3.971z"/><path fill="#EACBBA" d="M92.858 50.743s-2.844-.001-4.209.852c-1.368.846-2.002 2.439-2.002 2.439s2.9-.703 3.305-1.622c.374-.854 2.906-1.669 2.906-1.669z"/><path fill="#C78A66" d="M101.272 56.839c-1.356-2.62-2.698-4.223-4.856-5.454-1.214-.689-1.86-.802-1.86-.802s1.76.734 1.928 1.482c.13.582-1.263 1.126-1.263 1.126 1.756.917 2.167 1.009 3.272 1.553.749.372 2.779 2.095 2.779 2.095z"/><path fill="#fff" d="M85.733 55.471s.167 3.653 5.984 4.295c5.805.637 10.833-1.862 10.833-1.862s-3.012-3.764-8.805-4.456c-5.796-.694-8.012 2.023-8.012 2.023z"/><radialGradient id="a" cx="133.147" cy="72.202" r="3.056" gradientTransform="matrix(1 .032 .032 -1 -42.188 124.171)" gradientUnits="userSpaceOnUse"><stop offset="0" stop-color="#28353D"/><stop offset=".508" stop-color="#27323B"/><stop offset=".809" stop-color="#222A33"/><stop offset="1" stop-color="#1D2029"/></radialGradient><path fill="url(#a)" d="M93.142 53.547c-1.444-.259-2.223-.226-2.574.248a3.235 3.235 0 0 0-.649 1.858 3.279 3.279 0 0 0 3.177 3.39 3.285 3.285 0 0 0 3.198-4.4c-.196-.528-2.052-.895-3.152-1.096z"/><path fill="#212121" d="M91.415 55.553a1.777 1.777 0 0 0 1.718 1.83 1.77 1.77 0 0 0 1.826-1.716c.035-.979-.73-1.8-1.716-1.831a1.778 1.778 0 0 0-1.828 1.717z"/><path d="M90.31 55.999a.654.654 0 1 0 .654-1.132.654.654 0 0 0-.654 1.132zm1.595-.728a.532.532 0 1 0 .532-.92.532.532 0 0 0-.532.92z" fill="#fff"/><path fill="#1A1A1A" d="M102.549 57.904s-3.465-5.227-10.863-5.864c-5.877-.513-8.132 2.77-8.132 2.77l2.186.783s2.54-2.33 6.734-2.031c5.517.384 9.329 3.57 10.075 4.342z"/><path fill="#B76B2C" d="M101.221 58.505s-7.012 2.524-12.181.484c-2.635-1.036-3.179-2.902-3.179-2.902s.184 2.977 3.798 3.698c6.125 1.211 11.562-1.28 11.562-1.28z"/><path fill="#D9AA8E" d="M116.537 58.052s2.5-7.188 8.822-7.742c7.69-.67 8.607 6.089 7.947 4.744 0 0-3.711-3.17-10.065-1.079-5.12 1.683-6.704 4.077-6.704 4.077z"/><path fill="#EACBBA" d="M126.116 50.741s2.839-.044 4.219.786c1.381.826 2.04 2.408 2.04 2.408s-2.91-.656-3.328-1.57c-.387-.848-2.931-1.624-2.931-1.624z"/><path fill="#C78A66" d="M117.795 56.967c1.316-2.64 2.635-4.264 4.771-5.528 1.201-.708 1.848-.83 1.848-.83s-1.747.76-1.905 1.51c-.122.585 1.279 1.107 1.279 1.107-1.742.944-2.151 1.043-3.247 1.604-.743.382-2.746 2.137-2.746 2.137z"/><path fill="#fff" d="M133.313 55.358s-.109 3.656-5.916 4.387c-5.793.728-10.858-1.693-10.858-1.693s2.95-3.81 8.735-4.592c5.779-.783 8.039 1.898 8.039 1.898z"/><radialGradient id="b" cx="1045.809" cy="89.437" r="3.055" gradientTransform="rotate(177.44 586.22 61.864)" gradientUnits="userSpaceOnUse"><stop offset="0" stop-color="#28353D"/><stop offset=".508" stop-color="#27323B"/><stop offset=".809" stop-color="#222A33"/><stop offset="1" stop-color="#1D2029"/></radialGradient><path fill="url(#b)" d="M125.875 53.55c1.439-.283 2.218-.259 2.579.207a3.283 3.283 0 0 1-2.446 5.287 3.28 3.28 0 0 1-3.439-3.123c-.021-.43.041-.844.173-1.227.184-.531 2.035-.928 3.133-1.144z"/><path fill="#212121" d="M127.632 55.529a1.778 1.778 0 0 1-1.69 1.857 1.767 1.767 0 0 1-1.849-1.688 1.767 1.767 0 0 1 1.685-1.857 1.777 1.777 0 0 1 1.854 1.688z"/><path d="M123.436 55.957a.653.653 0 1 0 .67-1.12.653.653 0 0 0-.67 1.12zm1.606-.704a.53.53 0 1 0 .547-.911.539.539 0 0 0-.729.179.536.536 0 0 0 .182.732z" fill="#fff"/><path fill="#1A1A1A" d="M116.537 58.052s3.381-5.279 10.771-6.031c5.865-.604 8.174 2.643 8.174 2.643l-2.176.816s-2.574-2.291-6.766-1.927c-5.511.471-9.269 3.716-10.003 4.499z"/><path fill="#B76B2C" d="M117.872 58.632s7.051 2.415 12.188.295c2.617-1.078 3.129-2.942 3.129-2.942s-.131 2.97-3.738 3.747c-6.101 1.307-11.579-1.1-11.579-1.1z"/><path fill="#B54A37" d="M106.499 80.202c4.073.423 9.961.277 11.793-.892 0 0-.679 1.959-1.668 3.439-1.368 2.038-3.53 2.629-7.154 2.546-5.582-.125-5.783.278-7.488-3.269-.207-.431-1.323-2.832-1.901-3.57 0 .002 2.405 1.33 6.418 1.746z"/><path fill="#fff" d="M116.23 81.385c-2.785 2.171-9.453 2.716-13.132.343-.276-.177-.506-.984-1.483-1.786l15.753-.666-1.138 2.109z"/><path fill="#FF5D47" d="M117.327 80.895c-.788 1.223-3.412 3.595-7.918 3.558-4.506.038-7.215-2.751-8.004-3.973-.338-.51-1.021-1.478-1.021-1.478.43 1.193 1.08 2.977 1.764 4.226 1.111 2.016 2.15 2.801 3.016 3.379a7.77 7.77 0 0 0 4.204 1.271h.084c1.554 0 3.06-.513 4.2-1.271.869-.578 1.908-1.359 3.021-3.375.681-1.248 1.333-3.035 1.765-4.227-.002-.001-.775 1.38-1.111 1.89z"/><path opacity=".58" fill="#fff" d="M112.242 86.231s-.289-1.067-.026-1.519c.212-.356 1.427-.571 1.464-.312.106.713.674 1.436.065 1.778-.604.339-1.304.492-1.503.053z"/><path opacity=".43" fill="#fff" d="M110.564 86.586s-.3-1.238.218-1.32c.521-.083.975-.094.979.167.012.263.377 1.497-.078 1.578-.689.121-.976.028-1.119-.425z"/><path fill="#FF5D47" d="M118.973 78.439c-.359.292-1.072.567-2.549.371-2.82-.386-5.066-.287-6.99-.099-1.965-.275-4.271-.32-7.009.022-1.475.185-2.186-.102-2.542-.395 1.913 2.539 5.856 2.996 9.487 2.97v-.034h.085v.034c3.63.065 7.578-.35 9.518-2.869z"/><path fill="#B54A37" d="M119.236 78.149c-.455.182-.989.881-.989.881-1.308 1.678-5.952 2.088-7.235 2.08-.393-.001-.908.024-1.494.048-.588-.023-1.101-.049-1.495-.048-1.281.008-5.925-.402-7.233-2.08 0 0-.534-.7-.993-.881-.634-.254-.928-.028-.396.335.186.128.523-.107 1.065.73.822 1.272 3.863 1.889 5.784 2.103.967.107 2.114.171 3.27.195 1.152-.024 2.3-.088 3.268-.195 1.921-.214 4.964-.83 5.784-2.103.541-.837.879-.602 1.064-.73.532-.362.236-.589-.4-.335z"/><radialGradient id="c" cx="136.931" cy="-23.917" r="16.206" gradientTransform="matrix(1 0 0 -1 -47.6 50.01)" gradientUnits="userSpaceOnUse"><stop offset="0" stop-color="#ED1C24"/><stop offset="1" stop-color="#ED1C24" stop-opacity="0"/></radialGradient><circle opacity=".15" fill="url(#c)" cx="89.331" cy="73.927" r="16.206"/><radialGradient id="d" cx="177.148" cy="-23.917" r="16.207" gradientTransform="matrix(1 0 0 -1 -47.6 50.01)" gradientUnits="userSpaceOnUse"><stop offset="0" stop-color="#ED1C24"/><stop offset="1" stop-color="#ED1C24" stop-opacity="0"/></radialGradient><circle opacity=".15" fill="url(#d)" cx="129.549" cy="73.927" r="16.207"/><path opacity=".32" fill="#F5B1A2" d="M113.762 72.98c-.621-1.652-2.099-1.279-3.479-1.049-.791.13-1.442.031-2.212-.173-.793-.212-1.623-.284-2.211.392-.439.503.488.596.812.698.765.246 1.31.822 2 1.216 1.853 1.062 3.196-1.247 5.09-1.084-.033-.09-.727-.063 0 0z"/><path fill="#AE8879" d="M108.091 72.813l.258.21a8.442 8.442 0 0 0-.789-.76c-.153-.124-1.205-.837-1.393-.534-.025.042.912.392.981.423.329.129.687.42.943.661zm2.751.117l-.275.185c.279-.244.545-.486.851-.695.146-.099 1.308-.728 1.433-.411.02.035-.938.312-1.009.336-.342.116-.723.356-1 .585z"/><path opacity=".2" fill="#F5B1A2" d="M107.517 73.404c-.456-.482-1.133-.959-1.835-.795.656-1.156 2.551.793 3.232.991.842.245 1.633-.13 2.37-.498.847-.421 1.666-.558 2.556-.18-.529.167-1.012.111-1.54.37-.563.274-1.069.645-1.62.943-1.226.654-2.28.106-3.163-.831zm4.801-1.048c.703.762-1.551 1.801-2.099 1.714.079-.651 1.316-2.571 2.099-1.714zm-5.646-.147c-.702.763 1.551 1.801 2.1 1.714-.079-.652-1.316-2.573-2.1-1.714z"/><path opacity=".5" fill="#F6A76A" d="M109.833 74.521s-.023 2.171-1.148 2.123c-1.121-.049.309.37.988.184.679-.185.72-.519.16-2.307zM113.354 71.993s.996-.375.803-1.354c-.195-.98-.737-1.465-.737-1.465s.808.675.896 1.664c.088.987-.962 1.155-.962 1.155zm-7.67-.074s-.998-.375-.802-1.353c.195-.979.737-1.465.737-1.465s-.807.675-.897 1.663c-.089.99.962 1.155.962 1.155z"/><path opacity=".3" fill="#FDE9D7" d="M112.742 67.471s-.582-.248-.771-1.255c-.191-1.007-.966-2.807-1.352-.463-.386 2.344-.288 3.518.558 3.218 1.242-.438 2.052-.118 2.099-.662.027-.346-.178-.661-.534-.838z"/><path opacity=".1" fill="#fff" d="M139.48 13.016c-3.013 4.406-2.821 8.252-10.645 10.466l-.035.013c-10.443 2.988-16.777-7.323-25.636 2.059-4.572 4.858-9.252 8.859-16.646 5.989-16.372-6.334-12.978-.702-24.623 5.001 1.25-4.906 3.322-9.598 6.608-14.92 2.656-1.536 2.429-2.06 6.703-1.011 11.348 2.738 15.122 8.489 24.077-.822 7.846-8.156 15.086-3.811 25.468-1.833 9.063 1.727 8.156-3.656 10.979-8.43l3.74 3.477.01.011z"/><path opacity=".5" fill="#F6A76A" d="M95.812 124.391c3.156-.631 6.309-1.037 9.516-1.297.4-.033 1.17-.273 1.475.014.116.123.186.377.258.528.491 1.037 1.379 1.912 2.598 1.835 1.125-.072 2.012-.934 2.606-1.826.082-.121.146-.291.244-.399.215-.433.91-.177 1.256-.146 3.135.269 6.219.672 9.303 1.291a113.524 113.524 0 0 1-4.838-.389c-1.785-.18-3.606-.15-5.399-.257.119-.024.253-.033.315-.163-.635 1.236-1.828 2.549-3.307 2.66-1.761.134-3.082-1.122-3.633-2.723.033.121.244.194.349.211-1.789.1-3.577.162-5.363.223-1.789.177-3.585.338-5.38.438.884-.177.9-.05 0 0z"/><circle fill="#FCB500" cx="76.826" cy="61.044" r="2.201"/><circle fill="#FCB500" cx="142.21" cy="61.044" r="2.201"/></svg>