<svg xmlns="http://www.w3.org/2000/svg" width="220" height="220" viewBox="0 0 220 220"><path fill="#FC9" stroke="#D09D6A" stroke-width=".5" stroke-miterlimit="10" d="M42.5 151l2.3-2.3c.7-.7.7-2 0-2.6l-5.8-5c-.6-.6-1.3-.5-2 0l-2.3 2.8c-.4.4-1.3.5-2 .4L31 144l-5.8-1c-1-.2-2 .6-2 1.6-.2 1 .5 2 1.6 2.3h1.6c.7.2 1 1 .4 1.6l-2.5 2.8c-.8 1-1 2.3 0 3 .8.4 2 0 2.7-.7l-1 1.2c-1 .8-.7 2 .3 2.8.8.6 1.7.2 2.3-.5l1-1c-1 1-.6 2.6.4 3.3.8.5 2 0 2.5-.6l1.2-1.3c-.8 1-.8 2 .2 2.6.7.6 1.8.4 2.5-.4l.4-.5c-.2 0 1.6-1.8 5.5-8.6zm141.5 9.6l.3.4c.7.7 1.8 1 2.6.4 1-.7 1-1.7 0-2.6l1.3 1.3c.6.8 1.7 1.2 2.5.7 1-.7 1.3-2.4.5-3.3l1 1c.5.7 1.4 1 2.2.5 1-.8 1.2-2 .4-3l-1.2-1.2c.6.7 2 1 2.8.6 1-.7.7-2 0-3l-2.6-2.7c-.5-.6-.3-1.4.4-1.5l1.6-.2c1-.2 1.8-1.2 1.7-2.2-.2-1.2-1-2-2-1.7l-5.8 1-2 .3c-.6 0-1.5 0-2-.4l-2.3-2.8c-.6-.6-1.3-.7-2 0l-5.8 5c-1 .7-1 2-.2 2.6l2.3 2.2c4 6.7 6 8.6 6 8.6zM120.7 95s-25 4.7-21 0c2.5-3 3-9.4 3.3-13.6v-4s18.2-10 16 0l-.6 4.2c-.5 8 2.3 13.5 2.3 13.5z"/><path opacity=".5" fill="#F6A76A" d="M119 78.2l-.6 4c-3.7 1-6.3 2-7.3 2s-3.8-1-8-2v-4s18.2-10 16 0z"/><path fill="#FC9" stroke="#D09D6A" stroke-width=".5" stroke-miterlimit="10" d="M155 43.4c-4.3-8.7-8-4-8.6-3.5.3-1.5 2-12-4.8-21.7-11-14-28-14-31.5-14-3.2 0-20.4 0-31.4 14-6.7 9.7-5 20-4.8 21.6-1-1.2-4.3-4.2-8.3 3.5-1.8 5 2.8 9.3 5 11-.3 1.7-.3 3.2-.2 4.6.8 6.6 2.7 16.3 23.5 19.5 8.6 1.5 14.7 3.7 16.2 3.7 1.6 0 7.6-2.2 16.2-3.7 20.8-3 22.7-13 23.5-19.4v-4c2.2-1.6 7.4-6.2 5.4-11.6z"/><path fill="#FFB679" d="M69.5 42.2c-1.5 0-1 4.3-.6 5.8.2 1.5 1.6 2.3 2.5 2 .8-.3 1-2.6.2-2.7-1 0-1.4-.7-1-1.2.4-.5.7-4-1.2-3.8zM151 42c1.7 0 1 4.4.7 6-.3 1.5-1.8 2.4-2.6 2-.8-.3-1-2.7 0-2.7.8 0 1.4-.7 1-1.3-.5-.5-.8-4 1-4z"/><path opacity=".5" fill="#4F4849" d="M90.5 37.2c8.8-2.7 10.4 1.5 11.4 3-.5 0-7.3-3-7.7-3l-6 2.8-1 1c.8-1.5 2.3-3.5 3.2-3.8z"/><path fill="#B76B2C" d="M101.2 46.4s-6 3.4-10.8 1.6c-2.4-1-3-2.8-3-2.8s0 3 3.6 3.7c5.5 1 10.2-2.6 10.2-2.6z"/><path fill="#FFF" d="M103 43c0 3.4-3.7 6-8 6-4.5 0-8-2.6-8-6 0-1.7 1-3.3 2.7-4.4C91 37.6 93 37 95 37s4 .7 5.3 1.6c1.6 1 2.6 2.7 2.6 4.5z"/><radialGradient id="a" cx="94.9" cy="43.1" r="5.9" gradientUnits="userSpaceOnUse"><stop offset="0" stop-color="#5F5F5F"/><stop offset=".4" stop-color="#5C5D5D"/><stop offset=".6" stop-color="#545556"/><stop offset=".7" stop-color="#46474A"/><stop offset=".9" stop-color="#32343A"/><stop offset="1" stop-color="#1D2029"/></radialGradient><path fill="url(#a)" d="M95 49c-3.4 0-6-2.6-6-6 0-3 2.6-5.8 6-5.8 3.2 0 6 2.6 6 6-.2 3-2.8 5.8-6 5.8z"/><path fill="#212121" d="M95 46.7c-2.3 0-4-1.7-4-3.7s1.7-3.7 3.7-3.7 3.6 1.6 3.6 3.7c0 2-1.7 3.7-3.7 3.7z"/><path d="M89.8 44c.3 0 .7 0 1-.3 0-.3 0-.7-.3-1-.3 0-.7 0-1 .3 0 .3 0 .7.3 1zm1.6-.7c.2.2.5 0 .7 0 .2-.3.2-.6 0-.8-.2-.2-.5 0-.7 0-.2.3-.2.7 0 .8z" fill="#FFF"/><path fill="#F9AE87" d="M102 34.8s-11.3-4.7-18.5 5c0 0 6.3-14 18.6-5z"/><path opacity=".5" fill="#4F4849" d="M132 37.2c-8.7-2.7-10.3 1.5-11.3 3 .4 0 7.2-3 7.6-3l6 2.8 1 1c-.8-1.5-2.3-3.5-3.2-3.8z"/><path fill="#B76B2C" d="M121.4 46.4s6 3.4 10.8 1.6c2.4-1 3-2.8 3-2.8s0 3-3.6 3.7c-5.5 1-10.2-2.6-10.2-2.6z"/><path fill="#FFF" d="M119.6 43c0 3.4 3.6 6 8 6s8-2.6 8-6c0-1.7-1-3.3-2.8-4.4-1.4-1-3.2-1.5-5.3-1.5-2 0-4 .7-5.3 1.6-1.5 1-2.6 2.7-2.6 4.5z"/><radialGradient id="b" cx="127.6" cy="43.1" r="5.9" gradientUnits="userSpaceOnUse"><stop offset="0" stop-color="#5F5F5F"/><stop offset=".4" stop-color="#5C5D5D"/><stop offset=".6" stop-color="#545556"/><stop offset=".7" stop-color="#46474A"/><stop offset=".9" stop-color="#32343A"/><stop offset="1" stop-color="#1D2029"/></radialGradient><path fill="url(#b)" d="M127.6 49c3.3 0 6-2.6 6-6 0-3-2.7-5.8-6-5.8s-6 2.6-6 6c0 3 2.8 5.8 6 5.8z"/><path fill="#212121" d="M127.6 46.7c2 0 3.7-1.6 3.7-3.7 0-2-1.7-3.7-3.7-3.7S124 41 124 43s1.6 3.7 3.6 3.7z"/><path d="M122.4 44c.3 0 .7 0 1-.3 0-.3 0-.7-.3-1-.2 0-.6 0-.8.3-.2.3 0 .7.2 1zm1.6-.7c0 .2.4 0 .6 0v-.8c-.3-.2-.6 0-.8 0v.8z" fill="#FFF"/><path fill="#F9AE87" d="M120.4 34.8s11.4-4.7 18.6 5c0 0-6.2-14-18.6-5z"/><path fill="#FFE9C7" d="M112.2 48.2c-1.6-.5-3.2.3-4 .8-1.3.7-2.7 1.6-2 3 .4 1.2 5.8.6 6.3.5 1.6-.3 3-1.8 1.3-3.4l-1.6-.8z"/><path opacity=".5" d="M115.2 55.2s1.3-.5 1-1.8c-.2-1.3-1-2-1-2s1.2 1 1.3 2.3c0 1.3-1.3 1.5-1.3 1.5zm-10.2.1s-1.3-.5-1-2c.3-1.3 1-2 1-2s-1 1-1.3 2.4c0 1.4 1.4 1.6 1.4 1.6z" fill="#F6A76A"/><path opacity=".2" fill="#F5B1A2" d="M116.6 55c-1-2.6-3.4-2-5.6-1.6-1.3.2-2.3 0-3.6-.3-1.3-.2-2.6-.4-3.6.7-.7.8.8 1 1.3 1 1.3.5 2.2 1.4 3.3 2 3 2 5.3-2 8.3-1.6 0 0-1 0 0 0z"/><path fill="#AE8879" d="M107.5 54.8l.4.3-1.4-1c-.2-.3-2-1.5-2.2-1l1.6.7 1.5 1zm4.5.2c-.2 0-.4.2-.5.3l1.4-1c0-.3 2-1.3 2.2-.8l-1.6.5-1.7 1z"/><path opacity=".2" fill="#F5B1A2" d="M106.5 55.8c-.7-.8-1.8-1.5-3-1.3 1-2 4 1.3 5.2 1.6 1.4.5 2.6 0 3.8-.7 1.4-.7 2.7-1 4-.3-.8.3-1.5.2-2.4.6l-2.5 1.5c-1.8 1.2-3.5.3-5-1.2-.7-.8 1 .8 0 0z"/><path opacity=".2" fill="#F5B1A2" d="M114.3 54c1 1.3-2.5 3-3.4 3 0-1.2 2-4.3 3.3-3zm-9.1-.2c-1 1.2 2.5 3 3.4 2.8-.2-1-2-4-3.4-2.8z"/><path fill="#F9AE87" d="M121.4 61l-1.2 1c-1.5 2-7 2.5-8.4 2.5h-3.3c-1.5 0-7-.5-8.4-2.4 0 0-.6-.7-1.2-1-.7-.2-1 0-.5.5.2 0 .6 0 1.2 1 1 1.4 4.5 2 6.8 2.4h7.8c2-.3 5.7-1 6.7-2.6.6-1 1-.7 1.2-1 .5-.3 0-.6-.6-.3z"/><path fill="#B54A37" d="M120 63c-.5 1.2-1 3-1.8 4.2 0 .2-.2.3-.3.5-1.2 2-2.3 2.7-3.2 3.3-1.3.8-3 1.4-4.7 1.4-1.7 0-3.4-.6-4.7-1.4-.8-.5-1.7-1.2-2.6-2.6l-.7-1.2c-.8-1.4-1.5-3.4-2-4.7 0 0 1.6 0 2.4-.2 2-.2 3.8-.3 5.4-.2.8 0 1.5.2 2.2.3h2.2c1.7-.2 3.6 0 5.8.2 1.6.2 2.3.2 2 .4z"/><path fill="#FF5D47" d="M118 67.7c-1.2 2-2.3 2.7-3.2 3.3-1.3.8-3 1.4-4.7 1.4-1.7 0-3.4-.6-4.7-1.4-.8-.5-1.7-1.2-2.6-2.6 2-1 5-1.5 8.6-1.5 2.5 0 4.8.2 6.6.7z"/><path fill="#FFF" d="M110 62.3v1.5c0 .3-.3.6-.6.6h-1c-.4 0-.7-.3-.7-.6V62l2.3.3z"/><path fill="#FFF" d="M112.2 62.2V64c0 .2-.3.5-.6.5h-1c-.4 0-.7-.3-.7-.6v-1.6l2.2-.2z"/><ellipse transform="rotate(13.688 93.173 51.42)" fill="#FC9" cx="93.2" cy="51.4" rx="9.8" ry="4.7"/><ellipse transform="rotate(166.312 130.371 51.421)" fill="#FC9" cx="130.4" cy="51.4" rx="9.8" ry="4.7"/><radialGradient id="c" cx="86.6" cy="59.6" r="16.2" gradientUnits="userSpaceOnUse"><stop offset="0" stop-color="#ED1C24"/><stop offset="1" stop-color="#ED1C24" stop-opacity="0"/></radialGradient><circle opacity=".3" fill="url(#c)" cx="86.6" cy="59.6" r="16.2"/><radialGradient id="d" cx="133" cy="59.6" r="16.2" gradientUnits="userSpaceOnUse"><stop offset="0" stop-color="#ED1C24"/><stop offset="1" stop-color="#ED1C24" stop-opacity="0"/></radialGradient><circle opacity=".3" fill="url(#d)" cx="133" cy="59.6" r="16.2"/><g fill="#F6A76A"><path opacity=".5" d="M98 57.8c-1-.2-1.8.5-2.4 1.2-.7.8-1.2 1.7-2 2.5 0-1 .5-2.4 1.3-3.3.6-.7 2-1.6 3-.4zm24.6.2c1 0 1.7.6 2.3 1.3.6.8 1 1.7 1.8 2.5 0-1-.4-2.4-1.2-3.2-.8-1-2.2-1.7-3-.5z"/></g><g><path fill="#A75A29" d="M97.5 6c6-10 19.5-3 14.4 7.5-3.6-6.5-7.4-8.2-14.5-7.6 1.3-2.2.6 0 0 0z"/><path fill="#632205" d="M88.5 10c8.7-14.7 28.5-4.4 21 11-5-9.4-10.7-12-21-11 1.8-3 1 0 0 0z"/></g><g><path fill="#A75A29" d="M124.8 6c-6-10-19.5-3-14.4 7.5C114 7 117.7 5.3 124.8 6c-1.3-2.2-.6 0 0 0z"/><path fill="#632205" d="M132.4 10c-8.7-14.7-28.5-4.4-21 11 5-9.4 10.6-12 21-11-2-3-1 0 0 0z"/></g><g><path fill="#CE8F5B" d="M189.4 145l-9.5 9.8-.5.4h-.6l-33.6-26 .4 2 1 6.8c1.6 10.8 3.2 27.6 2.5 45.8l-.4 12.6c-.3 8.5-.6 16.5-1.3 23.5H119c-.3-5.2-.2-10.5-.2-15.2 0-4.3 0-8-.2-10.5-1.2-11.2-3.2-14.7-8.6-14.7-5.4 0-7.4 3.4-8.8 14.6-.3 2.5-.3 6.2-.3 10.5 0 4.7 0 10-.5 15.2H72c-.6-7-.7-15-.8-23.6 0-4.3 0-8.8-.2-13.2-.5-18 1.3-34.5 3-45.3l1-7 .5-2.4-.4.3-33.4 25.3h-.6l-.3-.4-9.3-10c0-.2-.2-.5 0-.6 0-.2 11-17.7 25.8-34l1.2-1.3c1.5-15 9.4-18 16-18 3.3 0 6.3.8 7.6 1.3l17.2-3.5 3.3-2.6h.6s4.2 2.7 9 2.7c2.3 0 4.4-.7 6.4-1.8h.4l4 2.2 15.3 3.2c1.2-.4 4.4-1.5 8.2-1.5 6.3 0 14.2 3.2 15.8 18 .7.8 1.4 1.5 2 2.4 14.5 16.6 25.4 34.2 25.6 34.4l-.2.2z"/><path fill="#FFC48C" d="M148.8 184c-.6 12.8-.5 25.7-1.6 36h-27.8c-.6-10 .3-20.5-.3-25.7-1-11.3-3.2-15-9-15-5.6 0-7.7 3.5-9 14.8-.7 5.3 0 16-.8 26H72.5c-1-10.6-.7-23.6-1-36.8-.6-18.2 1.2-35 2.8-45.2l1-6.8.8-3.5c9.6-15.7.3-35 .3-35l5.6-1L99.2 88l1.3 1.2 1.3 1 .3.3c.8.5 1.6 1 2.4 1.3.2 0 .3 0 .5.2l1.3.5c.2 0 .5 0 .7.2.3 0 .6 0 .8.2h5.4l.6-.2c.3 0 .5 0 .8-.2.2 0 .5 0 .7-.2.4 0 .8-.2 1.2-.4h.3l1.3-.7.7-.4v-.2c.3 0 .5-.2.7-.4.2 0 .4-.2.5-.3h.3l.5-.4 1.4-1 15.5 3 7 1.6s-9.6 19-.3 34.8l.6 3.2c.3 1.7.7 4 1 6.8 1.6 10.4 3.3 27.4 2.5 46z"/><path fill="#FF9F80" d="M76.4 93s-4 .2-18.8 16.7-25.8 34-25.8 34l9.6 10.3 34.8-26.4c9.4-15.5.2-34.7.2-34.7z"/><path fill="#F67197" d="M41.4 154l3-2.8-9.8-10.6-2.8 3 9.6 10.4z"/><path fill="#FF9F80" d="M145 93.3s4 .4 18.7 17C178.3 127.2 189 145 189 145l-9.7 10-34.4-26.7c-9.4-15.6 0-34.7 0-34.7z"/><path fill="#F67197" d="M179.2 155l-3.3-2.6 10.6-11.3 2.3 3.8-9.8 10zM122.5 88.6l-4-2.2c-7.6 4.5-15.8-1-15.8-1l-3.4 2.8c7 6.3 16.2 6.7 23.2.4zM75 128.6c13-8 7.5-36.7 7.5-36.7s-21-9.3-23.7 16c0 .2 15.8 4.7 16 20.6zm70.5 0c-13-8-7.6-36.7-7.6-36.7s21-9.3 23.6 16c0 .2-15.8 4.7-16 20.6z"/></g><g><path fill="#FF9F80" d="M74.3 138c11 4.5 23.6 6.7 36.2 6.7 12.4 0 25-2.2 36-6.6l-1-6.7c-21.4 9-48.7 9-70 0l-1.2 6.8z"/></g><g fill="#F67197"><circle cx="110.9" cy="102.6" r="2.5"/><circle cx="110.9" cy="115" r="2.5"/><circle cx="110.9" cy="127.3" r="2.5"/></g><g><path fill="#C75B7A" d="M118.4 14.6c-2.3 0-4.8-1.7-6.2-3.4-.5 0-1.4.4-2.4.4-.8 0-1.5 0-2-.4-1.4 1.6-3.5 3-6 3-.7 0-1.5 0-2.2-.4-1.8-.8-2-5.2-1.6-8 .2-1.3.8-5.4 3-5.8h.6c2.4 0 5.3 2.3 6.2 3 .4 0 1.4-.3 2.4-.3.8 0 1.6.2 2.2.5 1-.7 4-3 6.5-3h.3c1.3 0 2.3 1.4 2.7 3.7.8 3.5 0 9-1.7 10-.5.4-1 .6-2 .6z"/><path fill="#F67197" d="M112.5 3.8s4-3.3 6.8-3c3.5.3 3.3 11.5 1 13-2.5 1.3-6.3-1-7.8-3 0 0 1-3 0-7z"/><path fill="#A84863" d="M112.6 7c.4-1.8 2-2.4 3.3-2.4 0 0 .4-.2.2-.2-1.4 0-3.6.6-4 2.7 0 .2.3.2.4 0zm.4.8c1.3-.6 2.8-.6 4 0 0 .2.4 0 .4 0-1.3-1-3.2-.7-4.6 0h.3zm-.5 2.2c.8-1.5 2.5-.7 3.6.2.2 0 .6.2.4 0-1.2-1-3.3-2.2-4.3-.6l.5.3z"/><path fill="#F67197" d="M107.8 3.7s-4-3.8-6.7-3.3c-3 .6-3.6 11.8-1 13 3 1.5 6-.7 7.7-2.8 0 0-1-2.8 0-7z"/><path fill="#A84863" d="M107.3 6.6c-.3-1.6-1.8-2-3-2.2 0 0-.3-.2 0-.2 1 0 3 .6 3.4 2.4h-.4zm-.3 1.1c-1.2-.7-2.8-.7-4 0-.2 0-.7 0-.6-.2 1.5-1 3.5-.6 5 .2h-.3zm.6 1.3c-.8-1-2.2.4-3 1.5-.2 0-.5.3-.4 0 1-1.2 2.7-2.8 3.7-1.8 0 0-.3.4-.4.3z"/><path fill="#A84863" d="M107.8 3.7s2.8-1 4.7 0c0 0 1 3.8 0 7 0 0-2.8 1-4.8 0 0 0-1.3-3.8 0-7z"/></g></svg>