<svg xmlns="http://www.w3.org/2000/svg" width="220" height="220" viewBox="0 0 220 220"><path fill="#541D04" d="M80.4 61.2h64.1v59.3H80.4z"/><path fill="#FC9" stroke="#D09D6A" stroke-width=".613" stroke-miterlimit="10" d="M179.2 149c-.2-18.2-5.5-22-11.4-26.6-6-4.6-14.6-4.6-27.9-6.1-7.7-.3-12.6-5.5-15.6-9.5-2-2.7-3-8-3-11.4V81.9H98v13.7c0 3.4-1.1 8.7-3.2 11.4-3 4-8.3 7.9-15.8 8.8-13.4 1.6-21.9 2.1-27.9 6.7-5.6 4.3-10.6 8-11.3 23.8v.1c0 .8-.1 1.7-.1 2.6-.4 11.5-2.2 56.7-8.8 70l17.1.8 4 .2s1.6-29.6 9.2-43.7c.8-1.6 1.7-3.2 2.5-4.8 3.1-6.5 6.1-13.4 8.2-18.9l35.9 2.5 39.1-2.6c2.2 5.5 5.1 12.6 8.3 19 .8 1.7 1.6 3.3 2.5 4.8 7.6 14.1 9.2 43.7 9.2 43.7l4-.2 17.1-.8c-6.6-13.3-8.4-58.3-8.8-70z"/><path fill="#FFB679" d="M63.8 171.4c-.8 1.7-1.6 3.5-2.5 5-7.6 14.1-9.1 43.5-9.1 43.5l-4.1-.2s6.3-29.5 6.3-43.9c0-15.2 6.9-19.5 10.7-21.4 1.3-.5-1.7 6.9-1.3 17zm91.5 0c.8 1.7 1.6 3.5 2.5 5 7.6 14.1 9.2 43.5 9.2 43.5l3.8-.2s-6.1-29.5-6.1-43.9c0-15.2-5.5-19.1-9.4-21-1.3-.5.3 6.5 0 16.6z"/><path opacity=".5" fill="#F6A76A" d="M121.3 96.2c-4.7 3.8-9.4 6.1-11.8 6.1-2.4 0-6.8-2.3-11.5-6.1.2-8.6-.6-16.4-.6-16.4l12-1.2h.2l12 1.2c0 .1-.4 8.5-.3 16.4z"/><path fill="#FC9" stroke="#D09D6A" stroke-width=".613" stroke-miterlimit="10" d="M137.6 18.9H81.4S77 57.1 81.4 71s18.4 25.2 28.1 25.2S133.2 85 137.6 71c4.4-13.9 0-52.1 0-52.1z"/><path opacity=".5" fill="#F6A76A" d="M95.5 120.3c3.2-.6 6.5-1.1 9.8-1.3.4 0 1.2-.3 1.5 0 .1.1.2.4.3.5.5 1.1 1.4 2 2.7 1.9 1.2-.1 2.1-1 2.7-1.9.1-.1.2-.3.3-.4.2-.4.9-.2 1.3-.2 3.2.3 6.4.7 9.6 1.3-1.7-.1-3.3-.2-5-.4-1.8-.2-3.7-.2-5.6-.3.1 0 .3 0 .3-.2-.7 1.3-1.9 2.6-3.4 2.7-1.8.1-3.2-1.2-3.7-2.8 0 .1.3.2.4.2-1.8.1-3.7.2-5.5.2-2 .4-3.8.6-5.7.7.9-.2.9-.1 0 0z"/><radialGradient id="a" cx="277.765" cy="-160.89" r="15.599" gradientTransform="matrix(1 0 0 -1 -187.6 -89.99)" gradientUnits="userSpaceOnUse"><stop offset="0" stop-color="#ED1C24"/><stop offset="1" stop-color="#ED1C24" stop-opacity="0"/></radialGradient><circle opacity=".15" fill="url(#a)" cx="90.2" cy="70.9" r="15.6"/><radialGradient id="b" cx="316.5" cy="-160.89" r="15.6" gradientTransform="matrix(1 0 0 -1 -187.6 -89.99)" gradientUnits="userSpaceOnUse"><stop offset="0" stop-color="#ED1C24"/><stop offset="1" stop-color="#ED1C24" stop-opacity="0"/></radialGradient><circle opacity=".15" fill="url(#b)" cx="128.9" cy="70.9" r="15.6"/><path fill="#632205" d="M102.6 48.1c-1.4-.8-3-1.2-4.5-1.7-1-.2-2-.6-3-.9-.9-.3-1.8-.3-2.7-.3-1.9 0-3.4.8-4.9 1.9-.7.5-1.3 1.2-1.8 1.9-.2.3-.7 1.4-1.1 1.1.4-.7.6-1.4 1.1-2 .6-.8 1.2-1.5 1.9-2.2 1.2-1.2 3.4-2.1 5.1-2.1 2.2 0 4.2-.1 6.3.9 1 .6 1.9 1.1 2.7 1.9.2.1 1.4 1.3.9 1.5z"/><path fill="#D9AA8E" d="M102.5 54s-2.4-5.6-8.1-5.7c-6.8-.2-7.4 5-6.9 3.9 0 0 3.2-2.6 8.9-1.3 4.6 1.1 6.1 3.1 6.1 3.1z"/><path fill="#EACBBA" d="M93.8 48.7s-2.5.1-3.7.8c-1.2.7-1.7 1.9-1.7 1.9s2.6-.6 2.9-1.3c.3-.7 2.5-1.4 2.5-1.4z"/><path fill="#C78A66" d="M101.3 53c-1.2-1.9-2.5-3.1-4.4-4-1.1-.5-1.7-.5-1.7-.5s1.6.5 1.7 1.1c.1.4-1.1.9-1.1.9 1.6.6 1.9.7 2.9 1.1.8.2 2.6 1.4 2.6 1.4z"/><path fill="#FFF" d="M99.7 52l2.8 2c-.5 1.6-2.3 2.3-4 2.6-1.7.3-3.5.3-5.3.2-1.2 0-2.7.2-3.7-.4-.6-.3-2.6-1.6-2.4-2.7.2-1.2 2.2-2.1 3.2-2.5 2.2-.9 4.1-.7 6.4-.4 1.2.2 1.7.3 3 1.2z"/><radialGradient id="c" cx="339.503" cy="-15.356" r="2.953" gradientTransform="matrix(-.998 .0649 -.0649 -.998 432.068 15.822)" gradientUnits="userSpaceOnUse"><stop offset="0" stop-color="#28353D"/><stop offset=".508" stop-color="#27323B"/><stop offset=".809" stop-color="#222A33"/><stop offset="1" stop-color="#1D2029"/></radialGradient><path fill="url(#c)" d="M92 50.9c-.4.6-.7 1.3-.6 2.1.1 1.7 1.6 3.1 3.4 3 1.7-.1 3.1-1.6 3-3.4 0-.8-.4-1.5-.9-2-.9-.3-4.2 0-4.9.3z"/><path fill="#212121" d="M92.7 53.1c.1 1.1 1 1.9 2.1 1.8 1.1-.1 1.9-1 1.8-2.1-.1-1.1-1-1.9-2.1-1.8-1.1.2-1.9 1.1-1.8 2.1z"/><path fill="#B76B2C" d="M100.6 55.9s-6.4 2.1-10.8.3c-2.3-.9-2.7-2.4-2.7-2.4s-.1 2.2 3.3 3c5.2 1.3 10.2-.9 10.2-.9z"/><path fill="#FFF" d="M91.8 53.5c.3.1.6 0 .8-.3.1-.3 0-.6-.3-.8-.3-.1-.6 0-.8.3-.1.3 0 .6.3.8zm1.3-.8c.2.1.5 0 .6-.2.1-.2 0-.5-.2-.6s-.5 0-.6.2c-.1.2 0 .5.2.6z"/><path fill="#1A1A1A" d="M102.5 53.9s-3.7-4.3-10.4-4c-5.3.2-7 3.4-7 3.4l2 .5s2-2.4 5.8-2.6c5.1-.3 8.8 2.1 9.6 2.7z"/><path fill="#632205" d="M116.3 47.9c1.6-3.2 6.3-4.9 9.6-4.4.8.1 1.6.2 2.4.5.5.2.9.4 1.3.6.5.2.9.6 1.4.7.5.5 1.2.9 1.6 1.6.6.8 1.1 1.7 1.6 2.6.3.6.2.8-.3.2-.6-.8-1.3-1.9-2.1-2.5-1.7-1.3-3.3-2.1-5.5-2.1-2 0-3.8.7-5.7 1.3-.9.3-1.9.5-2.8.9-.3.1-1.1.9-1.5.6z"/><path fill="#D9AA8E" d="M116.6 54s2.4-5.6 8.1-5.7c6.8-.2 7.4 5 6.9 3.9 0 0-3.2-2.6-8.9-1.3-4.6 1.1-6.1 3.1-6.1 3.1z"/><path fill="#EACBBA" d="M125.3 48.7s2.5.1 3.7.8 1.7 1.9 1.7 1.9-2.6-.6-2.9-1.3c-.3-.7-2.5-1.4-2.5-1.4z"/><path fill="#C78A66" d="M117.7 53c1.2-1.9 2.5-3.1 4.4-4 1.1-.5 1.7-.5 1.7-.5s-1.6.5-1.7 1.1c-.1.4 1.1.9 1.1.9-1.6.6-1.9.7-2.9 1.1-.7.2-2.6 1.4-2.6 1.4z"/><path fill="#FFF" d="M119.4 52l-2.8 2c.5 1.6 2.3 2.3 4 2.6 1.7.3 3.5.3 5.3.2 1.2 0 2.7.2 3.7-.4.6-.3 2.6-1.6 2.4-2.7-.2-1.2-2.2-2.1-3.2-2.5-2.2-.9-4.1-.7-6.4-.4-1.3.2-1.7.3-3 1.2z"/><radialGradient id="d" cx="-3567.395" cy="-269.401" r="2.953" gradientTransform="matrix(.998 .0649 .0649 -.998 3702.404 15.822)" gradientUnits="userSpaceOnUse"><stop offset="0" stop-color="#28353D"/><stop offset=".508" stop-color="#27323B"/><stop offset=".809" stop-color="#222A33"/><stop offset="1" stop-color="#1D2029"/></radialGradient><path fill="url(#d)" d="M127.1 50.9c.4.6.7 1.3.6 2.1-.1 1.7-1.6 3.1-3.4 3-1.7-.1-3.1-1.6-3-3.4 0-.8.4-1.5.9-2 .9-.3 4.2 0 4.9.3z"/><path fill="#212121" d="M126.4 53.1c-.1 1.1-1 1.9-2.1 1.8-1.1-.1-1.9-1-1.8-2.1.1-1.1 1-1.9 2.1-1.8 1 .2 1.8 1.1 1.8 2.1z"/><path fill="#B76B2C" d="M118.4 55.9s6.4 2.1 10.8.3c2.3-.9 2.7-2.4 2.7-2.4s.1 2.3-3.3 3.1c-5.1 1.2-10.2-1-10.2-1z"/><path fill="#FFF" d="M127.3 53.5c-.3.1-.6 0-.8-.3-.1-.3 0-.6.3-.8.3-.1.6 0 .8.3.1.3 0 .6-.3.8zm-1.4-.8c-.2.1-.5 0-.6-.2-.1-.2 0-.5.2-.6s.5 0 .6.2c.2.2.1.5-.2.6z"/><path fill="#1A1A1A" d="M116.6 53.9s3.7-4.3 10.4-4c5.3.2 7 3.4 7 3.4l-2 .5s-2-2.4-5.8-2.6c-5.1-.3-8.9 2.1-9.6 2.7z"/><g><path fill="#B54A37" d="M106.7 79.6c3.9.4 9.5.3 11.3-.9 0 0-.7 1.9-1.6 3.3-1.3 1.9-3.4 2.5-6.8 2.4-5.3-.1-5.5.3-7.1-3.1-.2-.4-1.3-2.7-1.8-3.4-.2 0 2.1 1.3 6 1.7z"/><path fill="#FFF" d="M115.9 80.7c-2.7 2.1-9 2.6-12.5.3-.3-.2-.5-.9-1.4-1.7l15-.6-1.1 2z"/><path fill="#FF5D47" d="M117 80.3c-.8 1.2-3.3 3.4-7.6 3.4s-6.9-2.6-7.6-3.8c-.3-.5-1-1.4-1-1.4.4 1.1 1 2.8 1.7 4 1.1 1.9 2.1 2.7 2.9 3.2 1.1.7 2.5 1.2 4 1.2h.1c1.5 0 2.9-.5 4-1.2.8-.6 1.8-1.3 2.9-3.2.7-1.2 1.3-2.9 1.7-4-.1 0-.8 1.3-1.1 1.8z"/><path opacity=".58" fill="#FFF" d="M112.1 85.4s-.3-1 0-1.5c.2-.3 1.4-.5 1.4-.3.1.7.6 1.4.1 1.7-.6.3-1.3.5-1.5.1z"/><path opacity=".43" fill="#FFF" d="M110.5 85.7s-.3-1.2.2-1.3.9-.1.9.2c0 .3.4 1.4-.1 1.5-.6.1-.8 0-1-.4z"/><path fill="#FF5D47" d="M118.6 77.9c-.3.3-1 .5-2.4.4-2.7-.4-4.8-.3-6.7-.1-1.9-.3-4.1-.3-6.7 0-1.4.2-2.1-.1-2.4-.4 1.8 2.4 5.6 2.9 9.1 2.8 3.4.1 7.2-.3 9.1-2.7z"/><path fill="#B54A37" d="M118.8 77.7c-.4.2-.9.8-.9.8-1.2 1.6-5.7 2-6.9 2h-2.8c-1.2 0-5.7-.4-6.9-2 0 0-.5-.7-.9-.8-.6-.2-.9 0-.4.3.2.1.5-.1 1 .7.8 1.2 3.7 1.8 5.5 2 .9.1 2 .2 3.1.2s2.2-.1 3.1-.2c1.8-.2 4.7-.8 5.5-2 .5-.8.8-.6 1-.7.5-.4.2-.6-.4-.3z"/></g><g><path opacity=".2" fill="#F5B1A2" d="M114.6 73.2c-.7-2-2.5-1.5-4.2-1.3-1 .2-1.7 0-2.7-.2-1-.3-2-.3-2.7.5-.5.6.6.7 1 .8.9.3 1.6 1 2.4 1.5 2.4 1.3 4-1.5 6.2-1.3 0-.1-.8-.1 0 0z"/><path fill="#AE8879" d="M107.8 73l.3.3c-.3-.3-.6-.6-1-.9-.2-.1-1.5-1-1.7-.6 0 .1 1.1.5 1.2.5.5 0 .9.4 1.2.7zm3.3.1c-.1.1-.2.1-.3.2.3-.3.7-.6 1-.8.2-.1 1.6-.9 1.7-.5 0 0-1.1.4-1.2.4-.4.2-.8.5-1.2.7z"/><path opacity=".2" fill="#F5B1A2" d="M107.1 73.7c-.5-.6-1.4-1.2-2.2-1 .8-1.4 3.1 1 3.9 1.2 1 .3 2-.2 2.9-.6 1-.5 2-.7 3.1-.2-.6.2-1.2.1-1.9.4-.7.3-1.3.8-2 1.1-1.4.9-2.7.2-3.8-.9-.5-.6.6.6 0 0z"/><path opacity=".2" fill="#F5B1A2" d="M112.9 72.4c.8.9-1.9 2.2-2.5 2.1.1-.8 1.6-3.1 2.5-2.1zm-6.8-.1c-.8.9 1.9 2.2 2.5 2.1-.1-.9-1.5-3.2-2.5-2.1z"/><path opacity=".5" fill="#F6A76A" d="M109.9 75s0 2.6-1.4 2.6c-1.4-.1.4.4 1.2.2.8-.2.9-.6.2-2.8zM114.2 72s1.2-.5 1-1.6c-.2-1.2-.9-1.8-.9-1.8s1 .8 1.1 2c0 1.2-1.2 1.4-1.2 1.4zm-9.3-.1s-1.2-.5-1-1.6c.2-1.2.9-1.8.9-1.8s-1 .8-1.1 2c-.1 1.2 1.2 1.4 1.2 1.4z"/><path opacity=".3" fill="#FDE9D7" d="M113.4 66.5s-.7-.3-.9-1.5-1.2-3.4-1.6-.6c-.5 2.8-.3 4.2.7 3.9 1.5-.5 2.5-.1 2.5-.8 0-.4-.3-.7-.7-1z"/></g><path fill="#EEE769" stroke="#DAD163" stroke-width=".613" stroke-miterlimit="10" d="M175.4 116.6c-2.3-2.5-7.2-3.8-10.5-3.2l-45.7 7.6-9.7 14.1-9.7-14.1-45.7-7.6c-3.3-.6-8.2.7-10.6 3.1-5.5 5.5-13.3 15.8-7.9 26.2 11.6 22.6-31.1 28.4 25.8 18.5-.1 0 .1 3.4.1 3.4.2 2.2.6 4.3 1.1 6.4.1.4 2.8 6.4 3.8 7.7.7.9 1.5 2 2.4 3.4 1.8 2.8 4.6 10.9 4.8 11.5.5 1.6.8 3.3 1 5 .5 3.2.3 6.6-.1 9.8-.1 1.1-1.3 9.9-2.1 11.2-.1.1-.1.4-.2.4h74.5c-.1 0-.1-.3-.2-.4-.8-1.3-2-10.1-2.1-11.2-.2-1.4-.3-2.8-.3-4.2-.3-4.5.2-8.8 2.1-12.5 1-3.4 2.1-6.8 3.9-9.6.9-1.4 1.7-2.5 2.4-3.4 1-1.3 3.4-6.3 3.4-6.6.1-.2 1.2-5.2 1.4-7.5 0 0 .2-3.4.1-3.4 56.9 9.8 14.8 4.3 25.8-18.5 5.1-10.1-2.5-20.5-7.8-26.1z"/><path fill="#DAD163" d="M156.3 171.6c0 .2-.1.4-.2.6-.1.3-2.5 5.3-3.4 6.6-.7.9-1.5 2-2.4 3.4-1.8 2.8-2.9 6.2-3.9 9.5-1.9 3.7-2.4 8-2.1 12.4 0 1.4.2 2.8.3 4.2.1 1.1 1.3 9.9 2.1 11.2.1.1.1.4.2.4h-5.1l-.9-14.8-.3-6.2c-2.7-8.7-58.2-8.7-61-.1l-.3 6.3-1 14.9h-6c.1 0 .1-.3.2-.4.8-1.3 2-10.1 2.1-11.2.4-3.2.5-6.5.1-9.8-.2-1.7-.5-3.4-1-5-.2-.6-.5-1.3-.9-2.2-1-3.3-2.1-6.5-3.8-9.3-.9-1.4-1.7-2.5-2.4-3.4-1-1.3-3.4-6.3-3.4-6.6-.1-.4-.2-.7-.3-1.1 4.4 2 15.2 4.2 45.7 4.2 28.2.1 42.1-1.5 47.7-3.6z"/><path fill="#632205" d="M151.9 177s-3.1-19.5-8.1-35.2c-2.2 6-5 11.6-9.8 15.8 3.3-5.4 4.2-76.6 4.4-82.9.1-6.1-1.4-19.7-1.4-19.7-1.5-17.4-36.3-24-39.5-23.7-3.3-.3-17.9-6.1-14.8 25 4.8 50.9 4.5 120.7 4.5 120.7s-16.4-75.4-17.5-86c-1.7-15.8-6.1-43.1-1-64.5.5-1.9 1-3.8 1.6-5.7 1.1-3.2 2.4-5.7 3.8-7.8C82.5.4 95.3 4.7 95.3 4.7S115-8.7 137 9.7c1.2 1 2.3 2 3.5 3.2 2.3 2.3 4.6 4.9 7 8 14 18.6 4.4 156.1 4.4 156.1z"/><path opacity=".1" fill="#FFF" d="M140.5 12.9c-1.3 1.5-3.2 2.8-6.6 3.8-10.7 3.2-17.2-7.9-26.2 2.2-.9 1-1.9 2-2.8 2.9-1.8 1.7-3.6 3.1-5.7 3.8-2.5.9-5.3 1-8.6-.3-12.8-5.2-15.9-2.9-22 1.2.5-1.9 1-3.8 1.6-5.7 1.1-3.2 2.4-5.7 3.8-7.8 1.5-.1 3.2.1 5 .6 11.6 3 15.5 9.1 24.6-.9 8-8.8 15.4-4.1 26.1-2 3.8.8 5.9.2 7.3-1 1.2 1 2.3 2 3.5 3.2z"/></svg>