<svg xmlns="http://www.w3.org/2000/svg" width="220" height="220" viewBox="0 0 220 220"><path fill="#541D04" d="M81.2 102.1l-2.8-54.3 62.6 2.8-3.7 51.5"/><path fill="#FC9" stroke="#D09D6A" stroke-width=".629" stroke-miterlimit="10" d="M143.2 102.2c-4.6-1.6-9-.4-12.8-3.4-2.6-2-6.8-4.7-6.7-8.4V77.8H95.9v12.6c.1 3.7-4.1 6.4-6.7 8.4-3.9 3-8.2 1.9-12.8 3.4-23.9 8-11.1 33.9-11.1 33.9h89.1c1.6-2.8 11.1-26.4-11.2-33.9z"/><path opacity=".5" fill="#F6A76A" d="M123.7 90.3c-4.5 3.5-9.4 4.7-13.7 4.7-4.5 0-9.5-1.3-14.1-5V77.7h27.8v12.6z"/><path fill="#FC9" stroke="#D09D6A" stroke-width=".629" stroke-miterlimit="10" d="M138.7 45.9c.1-6.6-1.6-26.6-1.6-26.6H82.8s-.6 19.2-1.6 26.6c-.9 6.6-2.5 13.8 1.4 22.1s14.9 20.8 27.3 20.8 23.5-12.5 27.3-20.8c4-8.4 1.4-15.5 1.5-22.1z"/><radialGradient id="a" cx="276.7" cy="-159.929" r="15.536" gradientTransform="matrix(1 0 0 -1 -187.6 -89.99)" gradientUnits="userSpaceOnUse"><stop offset="0" stop-color="#ED1C24"/><stop offset="1" stop-color="#ED1C24" stop-opacity="0"/></radialGradient><circle opacity=".2" fill="url(#a)" cx="89.1" cy="69.9" r="15.5"/><path fill="#FCA687" stroke="#E88769" stroke-width=".629" stroke-miterlimit="10" d="M157.4 219.9c-3.2 0-96.1.1-96.3 0h-.2c2.8-4.8 11-21.2 12.2-24 1.8-4.1 2.9-8.1 2.4-12.6-.4-3.9-6.2-17.7-7.1-21.8-2.5-11.4-2-23.3-1.3-35 .3-4.9.7-24.2.7-25.8 4.6-.1 9.2-.2 13.7-.3-.1 2.7.4 5 1.3 7.5.9 2.3 2.3 4.1 4 5.9 3.9 4.2 9.1 7.8 14.8 8.9 4.2.8 9 .7 13.2.2 5.9-.6 11.2-4 15.3-8 2-1.9 3.9-4 4.9-6.7 1-2.9 1.6-5.7 1.5-8.8 4 .3 13.4 1 13.7 1.2.3.2.5 19.5.8 25 .7 10.7 1.3 21.5-.5 32.1-.3 1.6-2.8 8.8-4.1 11.9-.8 2-3.9 12.6-4 15.3-.2 6 6.1 19.5 6.4 20.3 2.9 5 5.8 9.9 8.6 14.7z"/><path fill="#FC9" stroke="#D09D6A" stroke-width=".629" stroke-miterlimit="10" d="M70.6 114.1l-.8 5.3-3 19.8-.2 1-1.8 11.9v.1s-3.1 16.7-5.4 23.5c-.1.3-.2.5-.3.8-1.2 3.2-3.3 10.6-5 16.9-1.6 5.8-2.9 10.8-2.9 10.8s-2.3 10.4-2.3 13.9c0 .6 0 1.2.1 1.7H36c.1-.5.1-.8.1-.8l2.1-39.4s1.5-13.4 2.3-17.1c.9-3.7 3.3-10.5 3.3-10.5s4.9-21.7 6.8-30.8c.3-1.3.5-2.4.6-3.1C52.2 113 56 108 56 108l12.1 5.1 2.5 1z"/><path fill="#FFB679" d="M69.8 119.4l-5 32.8-5.4 23.6c-.1.3-.2.5-.3.8-1.2 3.2-3.3 10.6-5 16.9-.1-1.9-.2-4.1-.1-5.2 1.1-11.8 7.3-31.2 8.2-46.6 1-16.2 4-20.6 7.6-22.3-.1 0-.1 0 0 0z"/><path fill="#FC9" stroke="#D09D6A" stroke-width=".629" stroke-miterlimit="10" d="M183.6 219.9h-12.9c-.6-4.4-2-10.4-2-10.4s-1.3-4.9-2.9-10.8c-1.7-6.3-3.8-13.7-5-16.9-.1-.3-.2-.5-.3-.8-2.3-6.8-5.4-23.5-5.4-23.5v-.1l-3-19.5-.6-3.8-1.5-9.5-.8-5.3 1.4-.6 13.2-5.5s2.8 3.7 4.2 8.1c.2.7.4 1.4.6 2.2 1 5.2 7.5 33.8 7.5 33.8s2.4 6.7 3.3 10.5c.8 3.7 2.3 17.1 2.3 17.1l1.9 35z"/><path fill="#FFB679" d="M150.2 124.7l5 32.7 5.4 23.6c.1.3.2.5.3.8 1.2 3.2 3.3 10.6 5 16.9.1-1.9.2-4.1.1-5.2-1.1-11.8-7.3-31.2-8.2-46.6-1-16.2-4-20.5-7.5-22.3-.1 0-.1 0-.1.1z"/><path fill="#FCA687" d="M66.9 141.7c12.9-7.8 5.3-33.7 3.4-39.7-.3-.8-.9-1.5-1.7-1.8-4.3-1.6-17.9-4.9-21 16.4-.2 1.3.6 2.7 1.9 3.1 5 1.9 17.2 7.8 17.4 22zm84.9 0c-12.9-7.8-5.3-33.7-3.4-39.7.3-.8.9-1.5 1.7-1.8 4.3-1.6 17.9-4.9 21 16.4.2 1.3-.6 2.6-1.8 3.1-5.1 1.9-17.3 7.8-17.5 22z"/><radialGradient id="b" cx="318.057" cy="-159.929" r="15.541" gradientTransform="matrix(1 0 0 -1 -187.6 -89.99)" gradientUnits="userSpaceOnUse"><stop offset="0" stop-color="#ED1C24"/><stop offset="1" stop-color="#ED1C24" stop-opacity="0"/></radialGradient><circle opacity=".2" fill="url(#b)" cx="130.5" cy="69.9" r="15.5"/><path fill="#B54A37" d="M107.1 73.7c3.6.4 8.9.2 10.5-.8 0 0-.6 1.8-1.5 3.1-1.2 1.8-3.2 2.3-6.4 2.3-5-.1-5.2.2-6.7-2.9-.2-.4-1.2-2.5-1.7-3.2.1 0 2.2 1.2 5.8 1.5z"/><path fill="#FFF" d="M115.8 74.8c-2.5 1.9-8.5 2.4-11.7.3-.2-.2-.5-.9-1.3-1.6l14.1-.6-1.1 1.9z"/><path fill="#FF5D47" d="M116.8 74.4c-.7 1.1-3.1 3.2-7.1 3.2s-6.5-2.5-7.2-3.6c-.3-.5-.9-1.3-.9-1.3.4 1.1 1 2.7 1.6 3.8 1 1.8 1.9 2.5 2.7 3 1 .7 2.4 1.1 3.8 1.1h.1c1.4 0 2.7-.5 3.8-1.1.8-.5 1.7-1.2 2.7-3 .6-1.1 1.2-2.7 1.6-3.8-.1 0-.8 1.2-1.1 1.7z"/><path fill="#FF5D47" d="M118.2 72.2c-.3.3-1 .5-2.3.3-2.5-.3-4.5-.3-6.3-.1-1.8-.2-3.8-.3-6.3 0-1.3.2-2-.1-2.3-.4 1.7 2.3 5.2 2.7 8.5 2.7 3.5.1 7-.3 8.7-2.5z"/><path fill="#B54A37" d="M118.5 71.9c-.4.2-.9.8-.9.8-1.2 1.5-5.3 1.9-6.5 1.9h-2.6c-1.1 0-5.3-.4-6.5-1.9 0 0-.5-.6-.9-.8-.6-.2-.8 0-.4.3.2.1.5-.1 1 .7.7 1.1 3.5 1.7 5.2 1.9.9.1 1.9.2 2.9.2s2.1-.1 2.9-.2c1.7-.2 4.4-.7 5.2-1.9.5-.7.8-.5 1-.7.4-.3.1-.5-.4-.3z"/><path fill="#632205" d="M102.9 45c-2.6-.5-5.2-1.5-7.7-2.4-1.8-.6-3.5-.5-5.3-.3-.6.1-1.3.2-1.8.5-.3.2-.9.7-1.2.5 2.2-2 5.5-2.8 8.4-2.3 1.8.3 3.4.4 5 1.4 1.1.7 2.2 1.4 3 2.4-.2.1-.3.2-.4.2z"/><path fill="#D9AA8E" d="M103.1 50.8s-2.4-5.5-8-5.6c-6.7-.2-7.4 4.9-6.8 3.9 0 0 3.2-2.5 8.8-1.2 4.5 1 6 2.9 6 2.9z"/><path fill="#FFF" d="M100.3 48.8c.7.5 2.7 2 2.7 2-.6 1.5-2.4 2.2-4 2.4-1.7.2-3.5.1-5.2.1-1.1-.1-2.6.1-3.6-.5-.5-.4-2.5-1.7-2.3-2.7.2-1.2 2.2-2 3.2-2.3 2.1-.8 4.1-.6 6.3-.2 1.2.2 1.6.3 2.9 1.2z"/><radialGradient id="c" cx="2401.631" cy="-12.823" r="2.894" gradientTransform="rotate(178.015 1247.84 -1.477) scale(1.0001)" gradientUnits="userSpaceOnUse"><stop offset="0" stop-color="#28353D"/><stop offset=".508" stop-color="#27323B"/><stop offset=".809" stop-color="#222A33"/><stop offset="1" stop-color="#1D2029"/></radialGradient><path fill="url(#c)" d="M92.8 47.5c-.4.6-.7 1.3-.7 2.1.1 1.7 1.5 3.1 3.2 3 1.7-.1 3.1-1.5 3-3.2 0-.8-.3-1.5-.8-2-.7-.3-4-.2-4.7.1z"/><path fill="#212121" d="M93.4 49.7c0 1.1.9 1.9 2 1.8 1 0 1.9-.9 1.8-2 0-1-.9-1.9-2-1.8-1 .1-1.8 1-1.8 2z"/><path fill="#B76B2C" d="M101.1 52.7s-6.3 1.8-10.6-.1c-2.2-1-2.6-2.5-2.6-2.5s-.2 2.2 3.1 3.2c5.1 1.4 10.1-.6 10.1-.6z"/><path fill="#FFF" d="M92.6 50c.3.1.6 0 .7-.2.1-.3 0-.6-.2-.7-.3-.1-.6 0-.8.2-.1.2 0 .6.3.7zm1.3-.7c.2.1.5 0 .6-.2.1-.2 0-.5-.2-.6-.2-.1-.5 0-.6.2-.1.3 0 .5.2.6z"/><path fill="#1A1A1A" d="M103 50.8s-3.5-4.3-10-4.3c-5.2 0-6.9 3.1-6.9 3.1l2 .5s2-2.3 5.8-2.3c4.8-.1 8.4 2.4 9.1 3z"/><path fill="#632205" d="M116.6 44.8c1.7-2.3 4.9-3.6 7.6-3.8 3.1-.2 6.3 0 8.8 2.3-.2.2-.8-.2-1-.3-.6-.4-1.4-.6-2.1-.7-1.9-.2-3.8-.2-5.6.4l-4.5 1.5c-.6.2-2.7 1.2-3.2.6z"/><path fill="#D9AA8E" d="M116.5 50.8s2.4-5.5 8-5.6c6.7-.2 7.4 4.9 6.8 3.9 0 0-3.2-2.5-8.8-1.2-4.5 1-6 2.9-6 2.9z"/><path fill="#FFF" d="M119.3 48.8c-.7.5-2.7 2-2.7 2 .6 1.5 2.4 2.2 4 2.4 1.7.2 3.5.1 5.2.1 1.1-.1 2.6.1 3.6-.5.5-.4 2.5-1.7 2.3-2.7-.2-1.2-2.2-2-3.2-2.3-2.1-.8-4.1-.6-6.3-.2-1.3.2-1.7.3-2.9 1.2z"/><radialGradient id="d" cx="-1783.605" cy="-157.815" r="2.893" gradientTransform="matrix(.9995 .03463 .03463 -.9995 1912.72 -46.155)" gradientUnits="userSpaceOnUse"><stop offset="0" stop-color="#28353D"/><stop offset=".508" stop-color="#27323B"/><stop offset=".809" stop-color="#222A33"/><stop offset="1" stop-color="#1D2029"/></radialGradient><path fill="url(#d)" d="M126.8 47.5c.4.6.7 1.3.7 2.1-.1 1.7-1.5 3.1-3.2 3s-3-1.5-3-3.2c0-.8.3-1.5.8-2 .7-.3 3.9-.2 4.7.1z"/><path fill="#212121" d="M126.1 49.7c0 1.1-.9 1.9-2 1.8-1 0-1.9-.9-1.8-2 0-1 .9-1.9 2-1.8 1 .1 1.9 1 1.8 2z"/><path fill="#B76B2C" d="M118.4 52.7s6.3 1.8 10.6-.1c2.2-1 2.6-2.5 2.6-2.5s.2 2.2-3.1 3.2c-5 1.4-10.1-.6-10.1-.6z"/><path fill="#FFF" d="M127 50c-.3.1-.6 0-.7-.2-.1-.3 0-.6.2-.7.3-.1.6 0 .7.2.2.2.1.6-.2.7zm-1.3-.7c-.2.1-.5 0-.6-.2-.1-.2 0-.5.2-.6s.5 0 .6.2c.1.3 0 .5-.2.6z"/><path fill="#1A1A1A" d="M116.6 50.8s3.5-4.3 10.1-4.3c5.2 0 6.9 3.1 6.9 3.1l-2 .5s-2-2.3-5.8-2.3c-4.9-.1-8.5 2.4-9.2 3z"/><path opacity=".2" fill="#F5B1A2" d="M114.8 67.8c-.7-1.9-2.5-1.5-4.1-1.2-.9.2-1.7 0-2.6-.2-.9-.2-1.9-.3-2.6.5-.5.6.6.7 1 .8.9.3 1.5 1 2.4 1.4 2.1 1.2 3.6-1.5 5.9-1.3-.1-.1-.9-.1 0 0z"/><path fill="#AE8879" d="M108.1 67.6c.1.1.2.2.3.2l-.9-.9c-.2-.1-1.4-1-1.6-.6 0 0 1.1.5 1.2.5.3.2.7.5 1 .8zm3.2.1c-.1.1-.2.1-.3.2.3-.3.6-.6 1-.8.2-.1 1.5-.9 1.7-.5 0 0-1.1.4-1.2.4-.4.2-.8.5-1.2.7z"/><path opacity=".2" fill="#F5B1A2" d="M107.4 68.3c-.5-.6-1.3-1.1-2.2-.9.8-1.4 3 .9 3.8 1.2 1 .3 1.9-.2 2.8-.6 1-.5 2-.7 3-.2-.6.2-1.2.1-1.8.4-.7.3-1.3.8-1.9 1.1-1.4.7-2.6.1-3.7-1-.5-.6.6.6 0 0z"/><path opacity=".2" fill="#F5B1A2" d="M113.1 67.1c.8.9-1.8 2.1-2.5 2 .1-.8 1.6-3 2.5-2zm-6.7-.2c-.8.9 1.8 2.1 2.5 2-.1-.8-1.5-3-2.5-2z"/><path opacity=".5" d="M114.3 66.6s1.2-.4.9-1.6c-.2-1.2-.9-1.7-.9-1.7s1 .8 1.1 2c.1 1.1-1.1 1.3-1.1 1.3zm-9-.1s-1.2-.4-.9-1.6c.2-1.1.9-1.7.9-1.7s-1 .8-1.1 2c-.2 1.2 1.1 1.3 1.1 1.3z" fill="#F6A76A"/><path opacity=".3" fill="#FDE9D7" d="M113.6 61.3s-.7-.3-.9-1.5c-.2-1.2-1.1-3.3-1.6-.5s-.3 4.1.7 3.8c1.5-.5 2.4-.1 2.5-.8-.1-.4-.3-.8-.7-1z"/><path opacity=".5" fill="#F6A76A" d="M110.5 69.3s0 2.8-1.5 2.7.4.5 1.3.2c.9-.1 1-.6.2-2.9z"/><g><path fill="#F3A082" d="M149.6 160.7c-.8 3.3-1.8 6.6-3.1 9.7-.8 2-1.9 3.9-2.5 5.9-.8 2.6-1.3 5.3-1.4 8v.2c0 1 0 2.1.2 3.1-10.8 4-22.1 5.9-33.5 5.9-11.5 0-22.9-2-33.9-6.1.1-.6.2-1.3.2-2 0-.8 0-1.7-.1-2.6-.4-3.9-1.6-7.4-3.2-11-1.8-3.9-3-8-3.9-12.1.1 0 .1-.1.2-.1 1.1-.4 2.2-.2 3.4 0 2.6.4 5.2.9 7.8 1.3 2.9.5 5.8.9 8.6 0 2.4-.8 4.2-2.5 6.4-3.7 4.1-2.2 8.9-2.2 13.5-1.7 4.6.5 9.1 1.5 13.7 1.4 3.9-.1 7.9-1.1 11.8-.5 4.5.8 8.4 3.7 12.9 4.1.8.2 1.9.2 2.9.2z"/></g><g opacity=".7"><path fill="#FFF" d="M143.6 187.2l-.9.3c-10.8 4-22.1 5.9-33.5 5.9-11.5 0-22.9-2-33.9-6.1-.2-.1-.3-.1-.5-.2l.7-1.8.7-1.8c21.3 8.1 44.8 8.1 66.1 0l.3.7 1 3z"/></g><path fill="#E88769" d="M111.5 129.1c0 1.3-1.1 2.4-2.4 2.4-1.3 0-2.4-1.1-2.4-2.4 0-1.3 1.1-2.4 2.4-2.4 1.4 0 2.4 1.1 2.4 2.4zm0 7.3c0 1.3-1.1 2.4-2.4 2.4-1.3 0-2.4-1.1-2.4-2.4 0-1.3 1.1-2.4 2.4-2.4 1.4 0 2.4 1 2.4 2.4zm0 7.2c0 1.3-1.1 2.4-2.4 2.4-1.3 0-2.4-1.1-2.4-2.4 0-1.3 1.1-2.4 2.4-2.4 1.4.1 2.4 1.1 2.4 2.4z"/><path fill="#632205" d="M154.5 138.2h-22.1l2.9-94.9S84.6 24 84.6 32.2c0 8.2 2.4 106 2.4 106H64.9s-3.7-80.4 7-113.1c0-.1.1-.2.1-.3.5-1.5 3.1-7.2 4-9 .1-.3.2-.4.3-.5C84.1 5.7 103 0 109.7 0c5.5 0 20.8 3.5 28.7 10.2.2.1 2.4 2.9 3.4 4.1 1.1 1.5 2.1 2.9 2.1 2.9 16.7 24.6 10.6 121 10.6 121z"/><path opacity=".1" fill="#FFF" d="M141.8 14.3c-1.7 1.8-5.6 3.4-9.6 4.5-10.2 2.9-16.4-7.2-25.1 2-4.5 4.8-9.1 8.7-16.3 5.9-8.6-3.3-14.9-3.3-18.9-1.6 0-.1.1-.2.1-.3.5-1.5 3.1-7.2 4-9 .4.1.8.1 1.1.2 11.1 2.7 17.4 8.3 26.1-.8 7.7-8 14.8-3.7 24.9-1.8 5.1 1 9.4-.4 10.8-2.6.9.8 2 2.2 2.9 3.5z"/><g><ellipse fill="#FCA687" stroke="#E88769" stroke-width=".536" stroke-miterlimit="10" cx="84.5" cy="26.9" rx="1.7" ry="3.5"/><ellipse transform="rotate(-134.991 82.015 27.923)" fill="#FCA687" stroke="#E88769" stroke-width=".536" stroke-miterlimit="10" cx="82" cy="27.9" rx="3.5" ry="1.7"/><path fill="#FCA687" stroke="#E88769" stroke-width=".536" stroke-miterlimit="10" d="M81 28.7c-1.9 0-3.5.8-3.5 1.7 0 1 1.6 1.7 3.5 1.7s3.5-.8 3.5-1.7c0-1-1.6-1.7-3.5-1.7z"/><path fill="#FCA687" stroke="#E88769" stroke-width=".536" stroke-miterlimit="10" d="M80.8 31.6c-1.4 1.4-1.9 3-1.3 3.7.7.7 2.3.1 3.7-1.3 1.4-1.4 1.9-3 1.3-3.7-.7-.6-2.3 0-3.7 1.3z"/><ellipse fill="#FCA687" stroke="#E88769" stroke-width=".536" stroke-miterlimit="10" cx="84.5" cy="33.9" rx="1.7" ry="3.5"/><ellipse transform="rotate(45.009 86.982 32.84)" fill="#FCA687" stroke="#E88769" stroke-width=".536" stroke-miterlimit="10" cx="87" cy="32.8" rx="3.5" ry="1.7"/><ellipse fill="#FCA687" stroke="#E88769" stroke-width=".536" stroke-miterlimit="10" cx="88" cy="30.4" rx="3.5" ry="1.7"/><ellipse transform="rotate(-45.009 87 27.897)" fill="#FCA687" stroke="#E88769" stroke-width=".536" stroke-miterlimit="10" cx="87" cy="27.9" rx="3.5" ry="1.7"/><circle fill="#E88769" cx="84.5" cy="30.4" r="2.1"/></g><g><ellipse fill="#FCA687" stroke="#E88769" stroke-width=".465" stroke-miterlimit="10" cx="136.2" cy="40.9" rx="1.5" ry="3"/><ellipse transform="scale(-1) rotate(44.98 100.904 -323.926)" fill="#FCA687" stroke="#E88769" stroke-width=".465" stroke-miterlimit="10" cx="134.1" cy="41.8" rx="3" ry="1.5"/><path fill="#FCA687" stroke="#E88769" stroke-width=".465" stroke-miterlimit="10" d="M133.2 42.4c-1.7 0-3.1.7-3.1 1.5s1.4 1.5 3.1 1.5 3-.7 3-1.5-1.3-1.5-3-1.5z"/><ellipse transform="rotate(135.016 134.101 46.053)" fill="#FCA687" stroke="#E88769" stroke-width=".465" stroke-miterlimit="10" cx="134.1" cy="46.1" rx="3" ry="1.5"/><ellipse fill="#FCA687" stroke="#E88769" stroke-width=".465" stroke-miterlimit="10" cx="136.2" cy="47" rx="1.5" ry="3"/><ellipse transform="rotate(45.009 138.386 46.054)" fill="#FCA687" stroke="#E88769" stroke-width=".465" stroke-miterlimit="10" cx="138.4" cy="46.1" rx="3" ry="1.5"/><ellipse fill="#FCA687" stroke="#E88769" stroke-width=".465" stroke-miterlimit="10" cx="139.3" cy="43.9" rx="3" ry="1.5"/><ellipse transform="rotate(-45.001 138.388 41.788)" fill="#FCA687" stroke="#E88769" stroke-width=".465" stroke-miterlimit="10" cx="138.4" cy="41.8" rx="3" ry="1.5"/><circle fill="#E88769" cx="136.2" cy="43.9" r="1.8"/></g><g><path fill="#FBCA6B" stroke="#E88769" stroke-width=".641" stroke-miterlimit="10" d="M105.5 186s-6.4-5.3-10.6-4.9c-5.5.5-5.5 18.2-1.6 20.5 3.8 2.2 9.8-1.3 12.2-4.6.1-.1-1.6-4.6 0-11z"/><path opacity=".3" d="M105.4 191.1c-.6-2.9-3.3-3.8-5.2-3.9-.1 0-.7-.3-.4-.3 2.2.1 5.6 1 6.3 4.4-.1.1-.7 0-.7-.2zm-.9 1.2c-1.9-1-4.2-1-6 .1-.2.1-.8-.2-.7-.2 2.1-1.4 5-1.1 7.3.1.3.2-.5.1-.6 0zm.9 3.3c-1.3-2.2-3.9-.9-5.7.5-.1.1-.7.3-.5 0 2-1.6 5.3-3.3 6.8-.8.1 0-.5.4-.6.3z"/><path fill="#FBCA6B" stroke="#E88769" stroke-width=".641" stroke-miterlimit="10" d="M112.9 186s6.5-5.9 10.6-5c4.9 1 5.7 18.7 1.7 20.5-4.9 2.3-9.8-1.2-12.3-4.5.1-.1 1.6-4.6 0-11z"/><path opacity=".3" d="M113.7 190.4c.5-2.5 2.9-3.3 4.6-3.4.1 0 .6-.3.4-.3-1.9.1-5 .9-5.6 3.8 0 .2.6.1.6-.1zm.4 1.9c2.1-1 4.6-1.1 6.6.1.2.1.9-.2.8-.2-2.4-1.4-5.6-1-8 .2-.4 0 .4-.1.6-.1zm-.9 2c1.3-1.4 3.5.6 4.9 2.4.1.1.6.5.4.2-1.6-2-4.2-4.7-5.8-3.1-.1.1.4.6.5.5z"/><path fill="#F18931" d="M112.9 185.9s-4.4-1.8-7.4.1c0 0-1.7 5.9 0 10.9 0 0 4.3 1.8 7.4 0 .1 0 2.2-6 0-11z"/></g></svg>