<svg xmlns="http://www.w3.org/2000/svg" width="220" height="220" viewBox="0 0 220 220"><path fill="#F9C795" stroke="#D09D6A" stroke-width=".64" stroke-miterlimit="10" d="M142.7 119.7c-3 4.2-23.5 17.6-32.3 17.2-.3 0-.7-.1-1-.1-.3 0-.7.1-1 .1-8.7.4-29.3-12.9-32.3-17.2-3-4.2-5.9-10-4.4-12.4.9-1.6 7.2-4.6 11.6-11.3.6-.9 1.2-1.9 1.7-2.9 1.3-2.6 2.2-5.5 2.6-9.1.1-1 .2-2.1.2-3.2v-.3c0-5.2-.3-9.9-.7-14.1-.2-2.5-.5-4.9-.8-6.9-.7-4.9-1.4-8.2-1.8-9.6-.1-.4-.2-.7-.2-.7s12.1-4.4 25.1-6.4c13 2 25.1 6.4 25.1 6.4s-.1.2-.2.7c-.3 1.4-1 4.7-1.8 9.6-.2 1.6-.4 3.3-.7 5.2-.5 4.5-.9 9.9-.9 15.8v.3c0 1.1.1 2.2.2 3.2.3 3.2 1.2 5.9 2.2 8.3.6 1.3 1.3 2.6 2 3.7 4.4 6.7 10.7 9.7 11.6 11.3 1.7 2.4-1.2 8.2-4.2 12.4z"/><path opacity=".5" fill="#F6A76A" d="M133.5 92.3c-19.1 13.2-30.3 12.9-48.5.8 1.3-2.6 2.2-5.5 2.6-9.1.1-1 .2-2.1.2-3.2v-.3c0-5.2-.3-9.9-.7-14.1 12.4-2.5 33.7-5.9 44.9-1.7-.5 4.5-.9 9.9-.9 15.8v.3c0 1.1.1 2.2.2 3.2.3 3.1 1.1 5.9 2.2 8.3z"/><path fill="#F9C795" stroke="#D09D6A" stroke-width=".64" stroke-miterlimit="10" d="M147.6 50c-1.3-2.5-2.3-2.4-3.2-1-.2-12.3-4-28-18.5-32.3-5.2-1.6-10.9-1.9-16.6-1.6-5.7-.3-11.4 0-16.6 1.6C78.3 21 74.5 36.6 74.4 49c-.9-1.4-2-1.5-3.2 1-.7 1.4-.9 2.6-.7 6.9.2 4.3 2.1 10.2 4.7 10.4.7.1 1.1-.1 1.5-.3.7 2.4 1.7 2.9 1.7 5.3 3.9 17.5 18.4 25.3 31.1 25.3s27.2-7.8 31.1-25.3c0-2.4 1-2.9 1.7-5.3.3.3.8.4 1.5.3 2.6-.2 4.5-6.1 4.7-10.4.1-4.3-.2-5.5-.9-6.9z"/><path opacity=".5" fill="#F6A76A" d="M74 53.6c-1.7.1-1.1 5.6-.8 7.5.3 1.9 2 3 3 2.6 1-.4 1.3-3.3.3-3.4-1-.1-1.7-.8-1.2-1.6s.8-5.2-1.3-5.1z"/><path fill="#F9C795" d="M125.9 16.7c18.7 5.6-5.2-1.6 0 0z"/><path opacity=".5" fill="#F6A76A" d="M145.2 53.6c1.7.1 1.1 5.6.8 7.5s-2 3-3 2.6c-1-.4-1.3-3.3-.3-3.4 1-.1 1.7-.8 1.2-1.6-.6-.8-.9-5.2 1.3-5.1z"/><path fill="#EAA76F" d="M131.4 34.9c-2.9-.5-5.8-.9-8.8-1.1-3.9-.4-7.9-.4-11.8-.4-3.8.3-7.7.3-11.5 1-3 .5-6.2.9-9.1 1.7 2.8-.9 5.8-1.5 8.7-2.1 3.9-.7 8-1.2 11.9-1.2 3.8 0 7.8-.1 11.6.6 1.8.3 3.6.4 5.3.8 1.2.3 2.5.5 3.7.7zm-2.7 3.9c-2.9-.5-5.8-.9-8.8-1.1-3.9-.4-7.9-.4-11.8-.4-3.8.3-7.7.3-11.5 1-3 .5-6.2.9-9.1 1.7 2.8-.9 5.8-1.5 8.7-2.1 3.9-.7 8-1.2 11.9-1.2 3.8 0 7.8-.1 11.6.6 1.8.3 3.6.4 5.3.8 1.2.3 2.5.3 3.7.7z"/><path opacity=".5" fill="#F6A76A" d="M110.4 75.1s0 3.9-2.1 3.8c-2-.1.6.7 1.8.3 1.3-.3 1.4-.9.3-4.1z"/><path fill="#FFAC81" d="M99.2 81.1c0-.3 3.3-.9 3.7-1 2-.4 4.2-.6 6.1-.2 1.9-.3 4.2-.2 6.1.2.3.1 3.7.7 3.7 1 0 .5-19.6.5-19.6 0z"/><path fill="#FFAC81" d="M99.2 81.1c1.4 0 2.9.2 4.3.3 1.8.1 3.7.2 5.5.2 1.8-.1 3.6-.1 5.4-.2 1.4-.1 2.9-.3 4.4-.3-4.4 3.9-15.1 3.8-19.6 0z"/><path fill="#B54A37" d="M108.9 81.8c-1.9 0-3.6-.1-5.1-.2l-1-.1c-2.3-.1-3.3-.2-4.1-.9-.6-.6-1.1-.2-1.4-.3H97c-.3-.1-.4-.2-.4-.3h.2c.2 0 .4 0 .7.1.7.1 1.5.4 1.5.4 1.4.9 5.2 1 7.4 1h5.4c2.5 0 5.6-.1 6.9-.9 0 0 .8-.2 1.5-.4.3-.1.5-.1.7-.1h.2s0 .1-.4.3h-.2c-.3 0-.7-.3-1.4.2-1.2.8-1.9.8-3.4.8-.5 0-1.2 0-2 .1-1.2.2-2.9.3-4.8.3z"/><path opacity=".2" fill="#F5B1A2" d="M109.5 71.2c3 .4 6.6 1.6 6.7 2-4 2.3-12.3 1-12-.2.2-.9 3.4-2 5.3-1.8z"/><path fill="#AE8879" d="M115 72c.8 0 1.6.4 1.6.6-.1.2-.9 0-1.6.1-.4 0-1.8.4-1.9.2 0-.1 1.4-.8 1.9-.9zm-9.2-.3c.9.2 1.9.9 1.8 1.1-.1.2-1.2-.3-1.8-.4-.5-.1-1.7 0-1.8-.1-.1-.2 1.2-.7 1.8-.6z"/><path opacity=".2" fill="#F5B1A2" d="M106.1 73.6c-.9-1.1-2.1-2.1-3.4-1.7 1.2-2.5 4.8 1.7 6.1 2.2 1.6.5 3.1-.3 4.5-1.1 1.6-.9 3.1-1.2 4.8-.4-1 .4-1.9.2-2.9.8-1.1.6-2 1.4-3 2.1-2.4 1.4-4.4.2-6.1-1.9-.8-1 1 1.2 0 0z"/><path opacity=".5" fill="#F6A76A" d="M117.6 72.1s1.7-.7 1.3-2.6c-.3-1.9-1.2-2.8-1.2-2.8s1.3 1.3 1.5 3.2c.1 1.9-1.6 2.2-1.6 2.2zm-14.7 0s-1.7-.7-1.3-2.6c.3-1.9 1.2-2.8 1.2-2.8s-1.3 1.3-1.5 3.2c-.1 1.9 1.6 2.2 1.6 2.2z"/><path opacity=".3" fill="#FDE9D7" d="M115.4 61.8s-1-.5-1.4-2.6c-.3-2.1-1.7-5.9-2.4-1s-.5 7.4 1 6.7c2.2-.9 3.7-.2 3.8-1.4 0-.6-.4-1.3-1-1.7z"/><path fill="#B3B3B3" d="M81.4 49c.4-.8 1-1.3 1.6-2 .5-.6 1.6-.8 2.4-1.1 2.1-.7 4.4-1.2 6.7-1.2 2.1 0 4.2.5 6.3.9.8.2 1.6.2 2.3.7.7.5 1.3 1 2 1.4-.7.1-1.3.5-1.9.6-.8.2-1.3.1-2.2-.1-1.9-.4-3.9-1.1-5.9-1.1-2.1 0-4.1.3-6.1.9-.4.1-.8.2-1.2.4-.4.2-.9.6-1.3.6h-2.7z"/><path fill="#FFF" d="M100.4 53.2c.1.8.5 1.6.1 2.4-.7 1.5-1.8 2.3-3.5 2.3-1.7.1-3.5-.2-5.2-.4-1.1-.2-2.7-.1-3.6-.8-.5-.4-2.4-1.9-2.1-3 .3-1.2 2.4-1.7 3.5-2 2.2-.6 4.7-.5 7-.3 1.3.1 3.1.4 3.8 1.8z"/><radialGradient id="a" cx="336.713" cy="3.794" r="2.932" gradientTransform="matrix(-.9982 -.06075 .06075 -.9982 429.076 78.343)" gradientUnits="userSpaceOnUse"><stop offset="0" stop-color="#28353D"/><stop offset=".508" stop-color="#27323B"/><stop offset=".809" stop-color="#222A33"/><stop offset="1" stop-color="#1D2029"/></radialGradient><path fill="url(#a)" d="M91.3 51.5c-.5.5-.8 1.2-.9 2-.1 1.7 1.2 3.2 2.9 3.3 1.7.1 3.2-1.2 3.3-2.9 0-.8-.2-1.5-.6-2.1-.7-.3-4-.5-4.7-.3z"/><path fill="#212121" d="M91.7 53.9c-.1 1.1.7 2 1.8 2 1.1.1 2-.7 2-1.8.1-1.1-.7-2-1.8-2-1-.1-1.9.7-2 1.8z"/><path fill="#666" d="M100.4 53.2s-.6-1.3-3.6-1.5c-3-.2-6.5.3-7.5.3-.9-.1-3.3 1.7-3.3 1.7s1.2-2.2 3.3-2.7c1.9-.5 7.4-.4 8.8-.2 1.4.2 2.3 2.4 2.3 2.4z"/><path fill="#B76B2C" d="M98.9 57.5s-6.3 1.3-10.4-1c-2.1-1.2-2.4-2.8-2.4-2.8s-.4 2.2 2.8 3.5c5 2 10 .3 10 .3z"/><path fill="#FFF" d="M90.8 54.1c.3.2.6.1.8-.2.2-.3.1-.6-.2-.8-.3-.2-.6-.1-.8.2-.2.2-.1.6.2.8zm1.4-.6c.2.1.5.1.6-.1.1-.2.1-.5-.1-.6-.2-.1-.5-.1-.6.1-.2.2-.1.5.1.6z"/><path fill="#EAA76F" d="M86.2 53.7c-1.6.8-4.2 1.3-5.8.4 1.6-.8 4.2-1.3 5.8-.4z"/><path fill="#EAA76F" d="M86.2 54.4c-1.4 1.3-3.7 2.1-5.6 1.7 1.4-1.3 3.7-2.1 5.6-1.7zM101.8 59.5c-5 1.4-10.5 1.5-15.7 1 2.5-.7 5.2-1 7.8-1.1 2.6 0 5.3-.1 7.9.1z"/><path fill="#B3B3B3" d="M137.4 49h-1.9c-.9 0-1.4-.2-2.3-.5-2-.8-4.2-1.3-6.4-1.3-2.1 0-4.1.5-6.2 1-.8.2-1.5.5-2.2.4-.9-.2-1.7-.5-2.5-.7.6-.4 1.3-.8 1.8-1.3.3-.1.6-.5.9-.5.4 0 .9-.2 1.3-.3 2.2-.5 4.3-1 6.6-1 2.4 0 4.8.5 7 1.3.9.3 1.6.5 2.3 1.2.5.5 1.1 1.1 1.6 1.7z"/><path fill="#FFF" d="M118.4 53.2c-.1.8-.5 1.6-.1 2.4.7 1.5 1.8 2.3 3.5 2.3 1.7.1 3.5-.2 5.2-.4 1.1-.2 2.7-.1 3.6-.8.5-.4 2.4-1.9 2.1-3-.3-1.2-2.4-1.7-3.5-2-2.2-.6-4.7-.5-7-.3-1.4.1-3.1.4-3.8 1.8z"/><radialGradient id="b" cx="-4141.349" cy="276.352" r="2.932" gradientTransform="matrix(.9982 -.06075 -.06075 -.9982 4276.04 78.343)" gradientUnits="userSpaceOnUse"><stop offset="0" stop-color="#28353D"/><stop offset=".508" stop-color="#27323B"/><stop offset=".809" stop-color="#222A33"/><stop offset="1" stop-color="#1D2029"/></radialGradient><path fill="url(#b)" d="M127.5 51.5c.5.5.8 1.2.9 2 .1 1.7-1.2 3.2-2.9 3.3-1.7.1-3.2-1.2-3.3-2.9 0-.8.2-1.5.6-2.1.7-.3 4-.5 4.7-.3z"/><path fill="#212121" d="M127.1 53.9c.1 1.1-.7 2-1.8 2-1.1.1-2-.7-2-1.8-.1-1.1.7-2 1.8-2 1-.1 1.9.7 2 1.8z"/><path fill="#666" d="M118.4 53.2s.6-1.3 3.6-1.5c3-.2 6.5.3 7.5.3.9-.1 3.3 1.7 3.3 1.7s-1.2-2.2-3.3-2.7c-1.9-.5-7.4-.4-8.8-.2-1.5.2-2.3 2.4-2.3 2.4z"/><path fill="#B76B2C" d="M119.9 57.5s6.3 1.3 10.4-1c2.1-1.2 2.4-2.8 2.4-2.8s.4 2.2-2.8 3.5c-5 2-10 .3-10 .3z"/><path fill="#FFF" d="M128 54.1c-.3.2-.6.1-.8-.2-.2-.3-.1-.6.2-.8.3-.2.6-.1.8.2.1.2.1.6-.2.8zm-1.4-.6c-.2.1-.5.1-.6-.1-.1-.2-.1-.5.1-.6.2-.1.5-.1.6.1.2.2.1.5-.1.6z"/><path fill="#EAA76F" d="M132.7 53.7c1.8-.9 4.1-.4 5.8.4-1.7.8-4.2.6-5.8-.4z"/><path fill="#EAA76F" d="M132.6 54.1c2.1 0 3.8 1 5.3 2.5-1.9 0-4.1-.9-5.3-2.5zM117 59.5c.9-.2 1.9-.2 2.8-.2 1.7-.1 3.4-.2 5.1 0 2.6.1 5.3.3 7.8 1.1-2.4.4-5.1.3-7.5.2-1.6-.1-3.2-.3-4.8-.5-1.1-.2-2.3-.3-3.4-.6zM100.8 87.6c2.8-.5 5.7-.6 8.5-.3s5.7.3 8.5 1c-2.8.5-5.7.6-8.5.3s-5.7-.3-8.5-1zM104.9 89.2c1.1-.4 2.6-.4 3.7-.3 1.5.2 2.9.6 4.3 1.2-2.3.8-5.9.3-8-.9z"/><path opacity=".5" fill="#F6A76A" d="M97.7 73.8c-2.4-.7-4 3.3-5.3 4.7-.1-1.5.6-3.1 1.6-4.2 1-1 2.8-1.9 3.7-.5zm24.2-.6c2.4-.7 4 3.3 5.3 4.7.1-1.5-.6-3.1-1.6-4.2-1-.9-2.8-1.9-3.7-.5z"/><path fill="#EEE" d="M142.6 59.5c17.1-45.1-6.5-55.7-22.3-58.5-2.4-.6-5.3-1-8.5-1h-3.4C98.2.6 54.5 2.4 76.2 59.5c0 0-.2-3.2-.1-7.8.4-1.1 1.5-4.2 3.6-9.7 2.1-5.6 5-15.8 6.8-19.3.6-.2 1.1-.4 1.7-.5 1.5 1.8 7 6.2 20.9 2.2.2.1 13.3-6 24.1-1.3.4.2.7.4 1.1.6.2 3.1.9 8.9 2.8 13.5 2.7 6.6 5.3 14.6 5.6 13.8.1 4.9-.1 8.5-.1 8.5z"/><path fill="#D49A6A" stroke="#B2794F" stroke-width=".602" stroke-miterlimit="10" d="M198.7 183.2c-.9-19-6.7-46-8.6-58.4-.4-2.4-2.1-4.4-4.5-5.2-11.2-3.5-45-17.6-45-17.6l-31.2 22.1L78.1 102s-33.8 14.1-45 17.6c-2.4.7-4.1 2.7-4.5 5.2-2 12.3-7.8 39.4-8.6 58.4-1 22.9-1 35.7-1 35.7l30 .2 6-44s2.7 28.2-.2 44l54.6 1 54.6-1c-2.9-15.8-.2-44-.2-44l6 44h30c-.1-.1-.1-13-1.1-35.9z"/><g><path fill="#B2794F" d="M33.6 119.5c3.9 3 7.2 7 9.9 11.1 2.3 3.6 4.4 7.3 5.9 11.3 1.1 2.8 2.2 5.5 3 8.4.8 3 1.4 6 1.9 9.1.4 2.9.8 5.9.7 8.9-.1 2.1-.2 4.2-.2 6.3-1.3-10.6-3.4-21.1-7.3-31-1.5-3.9-3.3-7.6-5.4-11.3-1.3-2.3-2.8-4.6-4.3-6.8-.8-1.1-1.6-2.1-2.4-3.2l-1.2-1.5c-.4-.5-.3-1-.6-1.3z"/></g><g><path fill="#B2794F" d="M184.9 119.4c-1.6 1.6-2.9 3.6-4.2 5.5-1.6 2.3-3.1 4.6-4.5 7.1-2 3.6-3.8 7.4-5.4 11.3-2.1 5.4-3.8 10.9-4.9 16.6-.5 2.6-1 5.3-1.4 8-.3 2.2-.5 4.3-.9 6.5-.2-2.1-.2-4.2-.2-6.3 0-3 .2-6 .7-8.9.4-3.1 1.1-6.1 1.9-9.1.8-2.9 1.9-5.7 3-8.5 1.5-4 3.6-7.8 5.9-11.3 1.6-2.4 3.4-4.8 5.3-6.8.8-.9 1.7-1.7 2.5-2.6.7-.6 1.5-1 2.2-1.5z"/></g><path fill="#FFF" d="M75.5 101.4c3 14.2 13.7 47.4 13.7 47.4l2.9-6c4.8-9.3 9-14.1 12.1-16.5 2.2-1.8 5.2-2.6 5.2-2.6-.2 0-18-11.9-30.4-24.2 0-.1-1.4 0-3.5 1.9z"/><path fill="#FFF" d="M143.1 101.4c-3 14.2-13.7 47.4-13.7 47.4l-2.9-6c-4.8-9.3-9-14.1-12.1-16.5-2.2-1.8-5.2-2.6-5.2-2.6.2 0 18-11.9 30.4-24.2 0-.1 1.4 0 3.5 1.9z"/><g><path fill="#B3B3B3" d="M99.4 19.3c1.2-.5 2.3-1.2 3.5-1.7 1.8-.8 3.6-1.4 5.4-2.1 3.1-1 6.2-1.7 9.3-2.7-1.3.4-2.5 1.1-3.7 1.5-1.8.6-3.6 1.1-5.4 1.7-1.8.7-3.7 1.1-5.4 1.8-1.3.4-2.5 1-3.7 1.5z"/></g><g><path fill="#B3B3B3" d="M95.8 14.9c2.5-.5 5-.7 7.4-1.8 1.5-.7 3.2-1.1 4.8-1.6 1.7-.6 3.4-1.1 5.2-1.6 5.3-1.4 10.7-2.3 16.1-3.1C124 8 118.7 9 113.4 10.3c-3.3.8-6.7 1.8-9.9 2.9-2.5.8-5.1 1.6-7.7 1.7z"/></g><g><path fill="#B3B3B3" d="M94.3 11c2.4-1.4 4.9-2.5 7.6-3.2 1.6-.4 3.1-1 4.7-1.4 1.2-.3 2.8-.3 3.9-1-.8.8-2.4 1-3.4 1.4-1.6.6-3.2 1.2-4.9 1.6-2.7.7-5.3 1.8-7.9 2.6z"/></g></svg>