<svg xmlns="http://www.w3.org/2000/svg" width="220" height="220" viewBox="0 0 220 220"><path fill="#fc9" stroke="#D09D6A" stroke-width=".5" stroke-miterlimit="10" d="M139.059 108.885c-1.063-1.771-12.095-5.169-12.035-18.37.058-13.198 2.515-22.551 2.515-22.551s-10.778-3.063-19.996-4.549v-.058l-.173.029-.172-.029v.058c-9.22 1.487-19.998 4.549-19.998 4.549s2.458 9.353 2.516 22.551c.058 13.201-10.974 16.599-12.035 18.37-1.063 1.773 1.475 6.819 3.63 9.873 2.155 3.053 19.391 12.676 25.688 12.374l.371-.038.37.038c6.298.302 23.535-9.321 25.689-12.374 2.154-3.054 4.691-8.1 3.63-9.873z"/><path opacity=".5" fill="#F6A76A" d="M127.025 90.51c0 .472.012.946.047 1.393-1.816.753-3.623 1.456-5.127 2.159-2.594 1.224-6.399 2.606-9.151 3.54a10.663 10.663 0 0 1-6.945 0c-2.765-.934-6.57-2.315-9.165-3.54-1.43-.679-3.212-1.406-5.007-2.194.025-.437.037-.897.037-1.358-.061-13.188-2.51-22.548-2.51-22.548s10.777-3.066 19.989-4.545v-.06l.17.024.182-.024v.06c9.213 1.479 19.99 4.545 19.99 4.545s-2.463 9.36-2.51 22.548z"/><path fill="#fc9" stroke="#D09D6A" stroke-width=".5" stroke-miterlimit="10" d="M143.729 45.345c-2.242-4.027-3.979-1.049-5.146 3.032.737-10.813.89-21.699-.365-27.577-2.94-13.774-28.898-7.417-28.898-7.417S83.362 7.026 80.42 20.8c-1.258 5.896-.98 16.95-.151 27.881-1.167-4.235-2.937-7.464-5.233-3.336-.752 1.352-.989 2.526-.749 6.678.245 4.151 2.352 9.86 5.14 10.061 1.055.077 1.673-.247 2.03-.773 1.049 9.393 2.243 16.827 2.772 17.914 1.314 2.703 7.959 6.661 12.46 8.78 2.595 1.223 6.399 2.596 9.155 3.541 2.238.766 4.715.766 6.953 0 2.755-.945 6.561-2.318 9.155-3.541 4.499-2.119 10.487-5.418 12.458-8.78.779-1.331 2-8.617 3.007-17.778.371.443.964.707 1.922.637 2.786-.201 4.894-5.91 5.14-10.061.239-4.152 0-5.326-.75-6.678z"/><path fill="#FFB679" d="M78.212 48.172c-1.641.073-.986 4.695-.681 6.319.305 1.623 1.868 2.525 2.793 2.161.924-.363 1.218-2.801.234-2.891-.982-.087-1.563-.717-1.097-1.352.471-.631.788-4.329-1.249-4.237zm62.339 0c1.641.073.985 4.695.682 6.319-.305 1.623-1.867 2.525-2.795 2.161-.922-.363-1.217-2.801-.234-2.891.982-.087 1.563-.717 1.098-1.352-.471-.631-.788-4.329 1.249-4.237z"/><path fill="#632205" d="M113.688 41.221c.447-.373.921-.718 1.407-1.037.801-.526 1.429-.589 2.365-.703 1.931-.234 3.859-.485 5.797-.652 1.927-.188 3.852-.419 5.787-.482.968-.032 1.639-.07 2.54.319.523.227 1.04.478 1.535.762-.496.317-1.008.613-1.526.89-.838.447-1.479.496-2.42.526-1.895.061-3.78.29-5.666.472-1.916.165-3.823.414-5.732.646-.805.098-1.393.228-2.171-.019a14.49 14.49 0 0 1-1.916-.722zM85.52 38.583a15.36 15.36 0 0 1 1.652-.573c.829-.239 1.313-.198 2.15-.067 1.876.292 3.749.61 5.633.851 1.894.242 3.787.567 5.693.7.896.063 1.683.04 2.473.49.602.331 1.188.7 1.753 1.09-.505.266-1.03.499-1.561.707-.916.357-1.584.294-2.55.228-1.932-.133-3.848-.433-5.767-.69-1.931-.236-3.849-.557-5.77-.86-.811-.128-1.412-.146-2.093-.618a14.423 14.423 0 0 1-1.613-1.258z"/><path fill="#fff" d="M102.268 46.562c.097.812.378 1.61-.02 2.35-.766 1.428-1.906 2.137-3.518 2.12-1.723-.021-3.445-.364-5.128-.692-1.109-.216-2.607-.238-3.492-1.007-.493-.426-2.228-2.01-1.887-3.009.385-1.129 2.486-1.599 3.525-1.816 2.226-.458 4.655-.276 6.889.052 1.35.195 3.084.572 3.631 2.002z"/><radialGradient id="a" cx="633.222" cy="11.57" r="2.886" gradientTransform="rotate(-173.72 365.17 44.357)" gradientUnits="userSpaceOnUse"><stop offset="0" stop-color="#28353D"/><stop offset=".508" stop-color="#27323B"/><stop offset=".809" stop-color="#222A33"/><stop offset="1" stop-color="#1D2029"/></radialGradient><path fill="url(#a)" d="M93.432 44.45a3.089 3.089 0 0 0-.966 1.923 3.094 3.094 0 1 0 5.639-1.388c-.708-.379-3.932-.701-4.673-.535z"/><path fill="#212121" d="M93.723 46.772a1.893 1.893 0 1 0 2.091-1.673 1.891 1.891 0 0 0-2.091 1.673z"/><path fill="#1A1A1A" d="M102.268 46.562s-.479-1.314-3.454-1.646c-2.976-.334-6.445-.024-7.347-.122-.901-.102-3.324 1.517-3.324 1.517s1.266-2.08 3.363-2.494c1.902-.376 7.324-.021 8.693.271 1.37.293 2.069 2.474 2.069 2.474z"/><path fill="#B76B2C" d="M100.612 50.688s-6.215.972-10.171-1.541c-2.016-1.277-2.218-2.825-2.218-2.825s-.479 2.188 2.607 3.58c4.8 2.17 9.782.786 9.782.786z"/><path fill="#fff" d="M92.8 46.908a.551.551 0 1 0 .65-.89.551.551 0 0 0-.65.89zm1.408-.466a.448.448 0 1 0 0 0zm22.226.12c-.096.812-.377 1.61.021 2.35.767 1.428 1.905 2.137 3.519 2.12 1.723-.021 3.444-.364 5.129-.692 1.107-.216 2.605-.238 3.491-1.007.492-.426 2.228-2.01 1.888-3.009-.387-1.129-2.487-1.599-3.526-1.816-2.226-.458-4.655-.276-6.89.052-1.351.195-3.086.572-3.632 2.002z"/><radialGradient id="b" cx="-1737.201" cy="276.806" r="2.886" gradientTransform="scale(1 -1) rotate(6.37 2098.59 16826.386)" gradientUnits="userSpaceOnUse"><stop offset="0" stop-color="#28353D"/><stop offset=".508" stop-color="#27323B"/><stop offset=".809" stop-color="#222A33"/><stop offset="1" stop-color="#1D2029"/></radialGradient><path fill="url(#b)" d="M125.27 44.45a3.095 3.095 0 1 1-4.671.535c.706-.379 3.928-.701 4.671-.535z"/><path fill="#212121" d="M124.979 46.772a1.893 1.893 0 1 1-3.763.42 1.893 1.893 0 0 1 3.763-.42z"/><path fill="#1A1A1A" d="M116.434 46.562s.479-1.314 3.455-1.646c2.975-.334 6.444-.024 7.348-.122.9-.102 3.322 1.517 3.322 1.517s-1.266-2.08-3.36-2.494c-1.904-.376-7.326-.021-8.695.271-1.37.293-2.07 2.474-2.07 2.474z"/><path fill="#B76B2C" d="M118.09 50.688s6.215.972 10.17-1.541c2.016-1.277 2.219-2.825 2.219-2.825s.479 2.188-2.605 3.58c-4.804 2.17-9.784.786-9.784.786z"/><path fill="#fff" d="M120.566 46.908a.552.552 0 0 0 .656-.888.554.554 0 0 0-.774.118.554.554 0 0 0 .118.77zm1.411-.466a.448.448 0 0 0 .526-.723.448.448 0 1 0-.526.723z"/><path opacity=".5" fill="#F6A76A" d="M109.195 69.601s-.043 3.788-2.003 3.704c-1.958-.083.534.646 1.721.321 1.187-.323 1.26-.906.282-4.025z"/><path opacity=".32" fill="#F5B1A2" d="M108.775 66.151c2.468.253 5.437 1.108 5.51 1.448-3.26 1.596-10.091.683-9.88-.158.161-.65 2.801-1.454 4.37-1.29z"/><path fill="#AE8879" d="M113.227 66.749c.666-.032 1.357.298 1.314.423-.043.128-.715.027-1.3.059-.353.017-1.468.291-1.522.169-.055-.117 1.103-.629 1.508-.651zm-7.522-.226c.698.137 1.536.661 1.478.779-.057.119-1.021-.194-1.506-.298-.419-.087-1.401.031-1.456-.087-.057-.122 1.015-.486 1.484-.394z"/><path opacity=".2" fill="#F5B1A2" d="M105.978 67.88c-.703-.744-1.75-1.48-2.829-1.228 1.008-1.781 3.93 1.222 4.981 1.53 1.297.375 2.517-.203 3.652-.769 1.305-.647 2.567-.859 3.942-.277-.822.257-1.562.173-2.375.568-.869.426-1.646.999-2.498 1.454-1.888 1.011-3.512.166-4.873-1.278z"/><path opacity=".5" fill="#F6A76A" d="M115.374 66.784s1.354-.509 1.092-1.837c-.266-1.331-1.004-1.99-1.004-1.99s1.099.917 1.22 2.26c.123 1.342-1.308 1.567-1.308 1.567zm-12.013 0s-1.354-.509-1.089-1.837c.265-1.331 1.001-1.99 1.001-1.99s-1.099.917-1.219 2.26c-.12 1.342 1.307 1.567 1.307 1.567z"/><path opacity=".3" fill="#FDE9D7" d="M113.414 59.314s-.947-.404-1.26-2.047c-.311-1.641-1.572-4.577-2.204-.754-.63 3.826-.469 5.739.911 5.249 2.027-.715 3.346-.193 3.422-1.08.045-.562-.289-1.076-.869-1.368z"/><path fill="#FFAC81" d="M100.84 76.148c0-.449 2.895-1.436 3.181-1.547 1.72-.663 3.661-.924 5.349-.391 1.614-.511 3.612-.27 5.33.384.29.11 3.198 1.094 3.198 1.554-.002.785-17.058.77-17.058 0zm.006.004c1.246.057 2.506.362 3.744.535 1.593.228 3.179.258 4.779.365 1.568-.106 3.137-.119 4.695-.365 1.26-.198 2.554-.461 3.826-.535-3.869 6.185-13.143 6.018-17.044 0z"/><path fill="#B54A37" d="M109.224 77.25c-1.646-.036-3.168-.125-4.401-.265l-.871-.089c-2.001-.206-2.914-.299-3.584-1.429-.521-.881-.955-.365-1.24-.394a.476.476 0 0 1-.219-.052c-.299-.205-.352-.342-.338-.393.015-.042.095-.07.21-.07.156 0 .365.048.593.14.59.237 1.299.596 1.306.604 1.197 1.356 4.534 1.557 6.415 1.557h.012c.579 0 1.123.022 1.736.048l.379.016.382-.016a41.209 41.209 0 0 1 1.603-.048l.73.003c2.209 0 4.89-.158 6.017-1.38a14.5 14.5 0 0 1 1.313-.608c.226-.091.438-.142.594-.142.113 0 .195.028.207.073.017.049-.039.186-.336.391l-.2.076c-.235.064-.595-.405-1.251.362-1.026 1.196-1.663 1.213-2.932 1.248-.472.012-1.029.029-1.726.104-1.232.139-2.754.229-4.399.264z"/><path opacity=".5" fill="#F6A76A" d="M108.728 85.613c-.943-.765-1.325-3.871.253-3.967 1.576-.096 3.345.19 3.535 1.289.191 1.101-.89 2.295-1.305 2.678-.415.384-2.113 1.099-2.483.623-.37-.481 0-.623 0-.623z"/><path fill="#632205" d="M80.781 59.501s-2.237-17.172-3.622-19.597c-1.385-2.425-1.918-14.749-1.491-17.577.426-2.83 6.499-13.739 10.334-16.365 3.835-2.627 13.956-6.061 24.822-5.96 10.867.101 20.347 1.515 27.378 9.395 0 .505 1.065.909 1.386 3.737.319 2.829 4.9 6.364 5.434 8.587.533 2.222-2.236 16.566-3.836 20.607-1.598 4.041-3.408 17.172-3.408 17.172s-.959-7.778-1.278-18.284c-.319-10.506-.745-17.072-4.049-18.992 0 0-23.117 12.527-29.403 13.84.214.505 13.104-10.304 13.104-10.304s-19.28 8.182-25.248 10.101l6.606-5.252s-15.341 3.333-15.021 6.364c.317 3.032-1.708 22.528-1.708 22.528z"/><path fill="#465B34" stroke="#394A2A" stroke-width=".5" stroke-miterlimit="10" d="M196.686 195.796c-.873-19.073-6.703-56.634-8.694-69.063a6.52 6.52 0 0 0-4.513-5.205c-11.258-3.492-47.84-16.379-47.84-16.379l-26.271 14.493L83.1 105.148s-36.584 12.887-47.842 16.379a6.512 6.512 0 0 0-4.51 5.205c-1.994 12.431-7.823 49.99-8.694 69.063L21 218.864l27.602.175 3.424-40.411s5.317 24.554 2.419 40.411l54.923.961 54.923-.961c-2.896-15.857 2.422-40.411 2.422-40.411l3.424 40.411h27.615s-.016-.175-1.066-23.243z"/><path stroke="#394A2A" stroke-width="3" stroke-miterlimit="10" fill="none" d="M135.639 105.148l-26.271 14.493L83.1 105.148"/><path fill="#394A2A" d="M35.101 122.208s.648.69 1.671 2.003c.487.67 1.115 1.466 1.743 2.438.663.953 1.347 2.065 2.079 3.291.708 1.237 1.482 2.58 2.199 4.05.725 1.467 1.494 3.014 2.157 4.673.722 1.635 1.363 3.365 1.991 5.133.643 1.764 1.14 3.604 1.721 5.418.479 1.844.916 3.698 1.358 5.52.365 1.838.667 3.658.988 5.412.243 1.767.427 3.481.615 5.104.208 1.619.213 3.17.304 4.589.067 1.422.157 2.722.106 3.88l-.067 2.992-.098 2.6-.3-2.586-.299-2.961c-.078-1.145-.311-2.424-.486-3.822l-.298-2.178c-.099-.753-.184-1.533-.343-2.324l-.869-4.992c-.367-1.719-.778-3.484-1.137-5.291-.457-1.784-.911-3.6-1.398-5.404-.549-1.786-1.014-3.602-1.623-5.337-.609-1.736-1.133-3.474-1.794-5.099a109.794 109.794 0 0 0-1.875-4.699c-.294-.751-.643-1.451-.949-2.145-.316-.688-.595-1.369-.911-1.996-.626-1.259-1.176-2.43-1.723-3.437-.522-1.021-1.023-1.884-1.418-2.61-.426-.703-.736-1.277-.978-1.646l-.366-.576zm148.282 0l-.363.575c-.242.369-.553.943-.979 1.646-.395.727-.896 1.59-1.419 2.61-.546 1.006-1.097 2.177-1.722 3.437-.315.627-.596 1.308-.912 1.996-.305.693-.654 1.394-.948 2.145a109.272 109.272 0 0 0-1.875 4.699c-.662 1.625-1.185 3.361-1.794 5.099s-1.074 3.551-1.623 5.337c-.488 1.805-.941 3.62-1.398 5.404-.358 1.806-.77 3.572-1.137 5.291l-.869 4.992c-.16.791-.244 1.57-.343 2.324l-.298 2.178c-.176 1.397-.408 2.678-.486 3.822l-.299 2.961-.3 2.586-.099-2.6-.066-2.992c-.051-1.158.039-2.457.105-3.88.09-1.419.096-2.97.305-4.589.188-1.622.371-3.336.615-5.104.321-1.754.623-3.574.987-5.412.442-1.821.878-3.676 1.358-5.52.58-1.814 1.078-3.656 1.721-5.418.628-1.768 1.27-3.499 1.991-5.133.663-1.659 1.432-3.206 2.157-4.673.717-1.47 1.49-2.813 2.199-4.05.731-1.226 1.416-2.338 2.078-3.291.627-.971 1.256-1.768 1.743-2.438 1.022-1.31 1.671-2.002 1.671-2.002z"/></svg>