<svg xmlns="http://www.w3.org/2000/svg" width="220" height="220" viewBox="0 0 220 220"><path fill="#fc9" stroke="#D09D6A" stroke-width=".5" stroke-miterlimit="10" d="M139.236 106.611c-1.049-1.75-11.95-5.108-11.894-18.152.056-13.042 2.484-22.283 2.484-22.283s-10.649-3.026-19.759-4.496v-.057l-.17.029-.17-.029v.057c-9.109 1.469-19.759 4.496-19.759 4.496s2.428 9.242 2.484 22.283c.058 13.043-10.842 16.402-11.891 18.152-1.051 1.752 1.456 6.737 3.586 9.755 2.13 3.017 19.16 12.524 25.384 12.227l.366-.036.366.036c6.222.298 23.253-9.21 25.382-12.227 2.134-3.016 4.641-8.003 3.591-9.755z"/><path fill="#005A95" d="M89.975 95.839l1.105 95.85h37.494v-95.85l-16.26 9.679h-5.621z"/><path opacity=".5" fill="#F6A76A" d="M127.348 88.455c0 .468.012.935.047 1.378-1.795.743-3.582 1.438-5.066 2.132-2.563 1.21-6.325 2.575-9.043 3.498a10.538 10.538 0 0 1-6.864 0c-2.73-.923-6.492-2.288-9.055-3.498-1.413-.671-3.174-1.389-4.947-2.168a25.4 25.4 0 0 0 .037-1.342c-.061-13.032-2.48-22.278-2.48-22.278s10.648-3.031 19.752-4.492v-.06l.167.023.179-.023v.06c9.104 1.461 19.752 4.492 19.752 4.492s-2.432 9.246-2.479 22.278z"/><path fill="#fc9" stroke="#D09D6A" stroke-width=".5" stroke-miterlimit="10" d="M144.298 41.768c-2.161-3.717-3.866-1.395-5.065 2.212V30.642c0-8.472-7.174-15.341-16.023-15.341H97.021c-8.85 0-16.025 6.869-16.025 15.341v15.859c-1.184-4.816-3.145-9.271-5.782-4.734-.777 1.336-1.022 2.495-.774 6.598.254 4.103 2.428 9.744 5.306 9.942.511.035.919-.019 1.25-.138v9.729c0 3.536.869 4.787 1.521 5.228.842.569 1.701 1.1 2.463 1.764 3.06 2.667 9.364 8.216 12.799 11.623 4.65 4.611 20.02 4.611 24.67 0 3.436-3.406 9.74-8.956 12.8-11.623.763-.665 1.621-1.195 2.462-1.764.65-.441 1.521-1.69 1.521-5.228V58.31c.164.011.342.012.533-.002 2.877-.198 5.053-5.839 5.307-9.942.248-4.103.002-5.262-.774-6.598z"/><path opacity=".5" d="M98.685 67.671c-2.183-.607-3.631 3.007-4.819 4.269-.052-1.383.552-2.859 1.504-3.86.779-.824 2.501-1.679 3.315-.409zm22.142-.507c2.187-.606 3.633 3.008 4.819 4.271.055-1.387-.554-2.86-1.5-3.86-.781-.827-2.505-1.679-3.319-.411zM89.437 46.378s-1.071 4.57 5.571 3.634c5.499-1.328 6.82-1.977 8.697-1.816-.377-.455-1.141-.683-1.141-.683s-5.609 1.079-7.931.937c-2.323-.139-5.196-2.072-5.196-2.072zm.101-1.797s2.962-5.124 8.422-4.421c4.415.356 5.748 1.687 5.748 1.687s-3.707-.536-4.415-.281c1.736.794 3.187 3.751 2.929 4.536-.262.785-4.039-2.649-4.039-2.649l-8.645 1.128zm16.46-.689c1.804.371 1.75 3.307-.101 3.565.51-1.283.528-2.27.101-3.565zM131.262 46.378s1.072 4.57-5.57 3.634c-5.498-1.328-6.819-1.977-8.697-1.816.376-.455 1.143-.683 1.143-.683s5.608 1.079 7.93.937c2.321-.139 5.194-2.072 5.194-2.072zm-.099-1.797s-2.963-5.124-8.423-4.421c-4.415.356-5.748 1.687-5.748 1.687s3.707-.536 4.415-.281c-1.735.794-3.187 3.751-2.929 4.536.262.785 4.039-2.649 4.039-2.649l8.646 1.128zm-16.461-.689c-1.806.371-1.75 3.307.101 3.565-.511-1.283-.528-2.27-.101-3.565z" fill="#F6A76A"/><path fill="#3F3F3F" stroke="#2B2B2B" stroke-miterlimit="10" d="M196.378 188.896c-.86-18.848-6.623-55.959-8.591-68.242a6.44 6.44 0 0 0-4.458-5.144c-11.124-3.452-43.054-13.412-47.272-16.185-4.879-3.205-8.223-8.369-8.223-8.369s.611 28.67-1.926 46.654c-2.537 17.986-15.809 47.902-15.809 47.902s-13.271-29.916-15.808-47.902c-2.537-17.984-1.925-46.654-1.925-46.654s-3.344 5.164-8.223 8.369c-4.219 2.772-36.148 12.732-47.272 16.185a6.442 6.442 0 0 0-4.458 5.144c-1.969 12.283-7.731 49.395-8.591 68.242C22.781 211.689 22 219.051 22 219.051h28.055l3.383-47.117s5.253 31.446 2.391 47.117l54.27.949 54.272-.949c-2.862-15.671 2.393-47.117 2.393-47.117l3.383 47.117H198.2c-.001 0-.781-7.362-1.822-30.155z"/><path fill="#353535" d="M110.099 185.514s-8.729-8.16-23.759-45.477c-7.989-18.686-8.234-34.838-8.234-34.838s8.303-4.763 14.26-14.242c0 0-.563 19.607.879 34.592 2.052 29.433 13.605 51.569 16.854 59.965zm0 0s8.729-8.16 23.76-45.477c7.99-18.686 8.233-34.838 8.233-34.838s-8.303-4.763-14.26-14.242c0 0 .563 19.607-.88 34.592-2.05 29.433-13.602 51.569-16.853 59.965z"/><path opacity=".2" d="M109.739 105.518s-4.846 1.771-9.036 7.083c0 0-3.516 4.31-4.715 6.801-.001 0 4.534-11.34 13.751-13.884z"/><path fill="#0071BC" d="M91.08 91.029c.744 8.847 4.803 28.214 4.803 28.214l.016-.03a73.275 73.275 0 0 1 2.178-3.379l.008-.018c3.613-5.256 6.57-7.833 8.635-9.097 1.5-.915 2.536-1.134 3.022-1.183h.033l.008-.007h.048l.105-.009h.122l-.438-.128c-4.989-.431-10.782-4.585-16.987-15.926.001.001-.129.575-1.553 1.563z"/><path opacity=".2" d="M109.914 105.518s4.845 1.771 9.035 7.083c0 0 3.516 4.31 4.715 6.801.001 0-4.535-11.34-13.75-13.884z"/><path fill="#0071BC" d="M128.574 91.029c-.745 8.847-4.803 28.214-4.803 28.214l-.018-.03a74.1 74.1 0 0 0-2.179-3.379l-.009-.018c-3.612-5.256-6.569-7.833-8.635-9.097-1.5-.915-2.536-1.134-3.021-1.183h-.033l-.009-.007h-.048l-.105-.009h-.121l.437-.128c4.989-.431 10.782-4.585 16.987-15.926.001.001.131.575 1.557 1.563z"/><path fill="#262626" d="M36.871 115.511s.61.708 1.569 2.034c.457.678 1.041 1.482 1.64 2.453.629.952 1.276 2.064 1.967 3.287.665 1.234 1.393 2.572 2.087 4.025.695 1.451 1.433 2.981 2.064 4.621.696 1.614 1.285 3.332 1.91 5.067.632 1.733 1.12 3.544 1.692 5.329.471 1.813.9 3.638 1.336 5.429l1.022 5.316c.26 1.735.462 3.421.667 5.016.218 1.593.26 3.117.386 4.513.1 1.398.22 2.678.198 3.819l.026 2.948.002 2.566-.197-2.56-.203-2.935c-.05-1.133-.248-2.401-.388-3.791-.176-1.383-.272-2.895-.548-4.469l-.798-4.961-1.078-5.26c-.453-1.771-.903-3.572-1.388-5.363-.545-1.773-1.006-3.576-1.612-5.3-.598-1.728-1.16-3.437-1.831-5.043a110.758 110.758 0 0 0-1.919-4.638c-.635-1.465-1.308-2.817-1.923-4.068-.651-1.232-1.224-2.376-1.79-3.359-.538-1-1.069-1.832-1.483-2.535-.867-1.381-1.408-2.141-1.408-2.141zm146.511 0s-.541.763-1.407 2.142c-.416.701-.947 1.535-1.483 2.535-.566.983-1.138 2.127-1.79 3.359-.615 1.251-1.288 2.604-1.924 4.068a109.445 109.445 0 0 0-1.918 4.638c-.67 1.606-1.232 3.317-1.832 5.043-.604 1.724-1.066 3.526-1.611 5.299-.484 1.792-.936 3.593-1.389 5.364l-1.077 5.26-.798 4.961c-.275 1.574-.373 3.086-.549 4.469-.14 1.389-.338 2.658-.387 3.791l-.203 2.935-.197 2.56.002-2.566.027-2.948c-.023-1.142.098-2.421.198-3.819.126-1.396.167-2.92.386-4.513.204-1.594.406-3.28.666-5.016l1.022-5.316c.437-1.791.864-3.614 1.336-5.429.571-1.785 1.06-3.596 1.692-5.329.625-1.735 1.213-3.453 1.908-5.067.633-1.64 1.37-3.17 2.065-4.621.694-1.453 1.421-2.791 2.087-4.025.689-1.223 1.337-2.334 1.967-3.287.6-.969 1.184-1.775 1.641-2.453.957-1.328 1.568-2.035 1.568-2.035z"/><circle fill="#1E1E1E" cx="110.1" cy="196.481" r="2.51"/><circle fill="#fff" cx="110.1" cy="117.277" r="1.457"/><circle fill="#fff" cx="110.1" cy="137.01" r="1.457"/><circle fill="#fff" cx="110.1" cy="156.742" r="1.457"/><circle fill="#fff" cx="110.1" cy="176.473" r="1.457"/><circle fill="#1E1E1E" cx="110.1" cy="209.587" r="2.51"/><path fill="#FFB679" d="M79.828 45.759c-1.621.072-.974 4.639-.672 6.243.302 1.605 1.846 2.496 2.76 2.136.913-.358 1.203-2.765.232-2.855-.971-.087-1.544-.709-1.084-1.335.463-.625.777-4.281-1.236-4.189zm59.858 0c1.619.072.974 4.639.672 6.243-.303 1.605-1.846 2.496-2.76 2.136-.914-.358-1.203-2.765-.232-2.855.971-.087 1.544-.709 1.082-1.335-.464-.625-.776-4.281 1.238-4.189z"/><path fill="#632205" d="M144.184 21.62c-.354-4.44-4.418-9.393-13.25-16.564C122.1-2.117 109.908.445 109.908.445S97.715-2.117 88.88 5.056C80.046 12.227 75.983 17.18 75.629 21.62c-.353 4.44 2.297 27.494 6.008 33.129 0 0-.531-11.783 0-15.881.53-4.099.354-7.848 2.297-11.263 1.943-3.416 4.063-4.611 7.243-4.611 3.18 0 10.955 1.879 14.841 1.879h7.774c3.888 0 11.661-1.879 14.842-1.879s5.302 1.196 7.244 4.611 1.767 7.165 2.297 11.263c.53 4.099 0 15.881 0 15.881 3.71-5.635 6.361-28.688 6.009-33.129z"/><path opacity=".1" fill="#fff" d="M128.719 16.475l.189-1.256c-.571-1.972-.762-4.663-2.477-6.097-.188 1.256-.381 2.51-.951 3.586-4.191-3.586-10.479-6.097-16.382-5.738 2.856 1.255 4.953 3.048 6.286 5.738-3.81-.538-6.859-2.152-10.859-2.152-2.857 0-4.761.539-7.62 1.435 3.049-.538 7.43-.179 9.525 1.974-4 .538-8.19-1.256-12.572-.359-2.857.537-6.097 2.151-8.382 4.125 7.62-.359 15.049.179 22.479 1.793.571-1.436-1.715-2.51-2.857-3.229 6.097-.716 13.335 1.255 19.048 2.51-.568-1.792-1.522-3.586-3.045-4.84 3.045 1.254 5.522 3.406 8.188 5.021.19-.899-.189-1.615-.57-2.511z"/><path fill="#632205" d="M132.021 38.779c-3.08.231-6.137.5-9.196.929-1.777.249-3.539.595-5.25 1.141-.654.208-1.272.459-1.891.756-.381.182-.296-.262-.181-.481 1.542-2.934 5.317-4.304 8.424-4.573 1.688-.146 3.442-.024 5.064.489.601.189 3.197.887 3.03 1.739z"/><path fill="#fff" d="M117.591 45.509c-.048.806-.28 1.608.154 2.316.839 1.364 2.004 1.999 3.593 1.889 1.696-.119 3.376-.557 5.018-.978 1.082-.277 2.56-.385 3.388-1.193.462-.449 2.082-2.111 1.688-3.078-.445-1.091-2.545-1.435-3.584-1.587-2.22-.325-4.604-.006-6.791.445-1.319.272-3.007.743-3.466 2.186z"/><radialGradient id="a" cx="-2142.292" cy="404.996" r="2.852" gradientTransform="scale(1 -1) rotate(9.73 1640.585 13497.089)" gradientUnits="userSpaceOnUse"><stop offset="0" stop-color="#28353D"/><stop offset=".508" stop-color="#27323B"/><stop offset=".809" stop-color="#222A33"/><stop offset="1" stop-color="#1D2029"/></radialGradient><path fill="url(#a)" d="M126.188 42.917a3.035 3.035 0 0 1 1.063 1.842 3.058 3.058 0 1 1-5.643-1.047c.676-.412 3.839-.915 4.58-.795z"/><path fill="#212121" d="M126.033 45.225a1.87 1.87 0 1 1-3.687.632 1.872 1.872 0 1 1 3.687-.632z"/><path fill="#1A1A1A" d="M117.591 45.509s.399-1.324 3.313-1.822c2.916-.5 6.357-.393 7.24-.543.883-.151 3.365 1.307 3.365 1.307s-1.367-1.979-3.46-2.268c-1.899-.262-7.227.399-8.562.768-1.331.366-1.896 2.558-1.896 2.558z"/><path fill="#B76B2C" d="M119.463 49.485s6.186.601 9.944-2.105c1.915-1.375 2.026-2.914 2.026-2.914s.598 2.13-2.367 3.681c-4.609 2.416-9.603 1.338-9.603 1.338z"/><path fill="#fff" d="M121.589 45.306a.543.543 0 0 0 .767-.075.542.542 0 0 0-.07-.764.55.55 0 0 0-.77.072.544.544 0 0 0 .073.767zm1.416-.378a.439.439 0 0 0 .621-.06.444.444 0 0 0-.683-.566.443.443 0 0 0 .062.626z"/><path fill="#632205" d="M88.062 38.479c2.423-1.849 5.949-2.254 8.878-1.85 1.718.252 3.414.776 4.908 1.675.698.42 1.354.939 1.911 1.533.234.226 1.178 1.207 1.082 1.59-.116.465-.535.075-.807-.055-.75-.366-1.583-.597-2.384-.818-1.801-.498-3.646-.744-5.491-1.01a74.39 74.39 0 0 0-5.16-.551l-2.428-.179c-.283-.02-.645.072-.509-.335z"/><path fill="#fff" d="M102.608 45.509c.048.806.279 1.608-.155 2.316-.837 1.364-2.003 1.999-3.592 1.889-1.697-.119-3.377-.557-5.019-.978-1.082-.277-2.557-.385-3.386-1.193-.462-.449-2.083-2.111-1.688-3.078.444-1.091 2.544-1.435 3.582-1.587 2.221-.325 4.607-.006 6.792.445 1.32.272 3.007.743 3.466 2.186z"/><radialGradient id="b" cx="643.385" cy="-72.048" r="2.853" gradientTransform="scale(-1) rotate(9.73 117.878 -4400.384)" gradientUnits="userSpaceOnUse"><stop offset="0" stop-color="#28353D"/><stop offset=".508" stop-color="#27323B"/><stop offset=".809" stop-color="#222A33"/><stop offset="1" stop-color="#1D2029"/></radialGradient><path fill="url(#b)" d="M94.013 42.917a3.06 3.06 0 0 0 1.436 5.373 3.058 3.058 0 0 0 3.143-4.578c-.677-.412-3.84-.915-4.579-.795z"/><path fill="#212121" d="M94.167 45.225a1.869 1.869 0 0 0 1.526 2.159 1.873 1.873 0 1 0 .632-3.69 1.869 1.869 0 0 0-2.158 1.531z"/><path fill="#1A1A1A" d="M102.608 45.509s-.399-1.324-3.313-1.822c-2.916-.5-6.357-.393-7.242-.543-.883-.151-3.365 1.307-3.365 1.307s1.369-1.979 3.46-2.268c1.9-.262 7.227.399 8.561.768 1.334.366 1.899 2.558 1.899 2.558z"/><path fill="#B76B2C" d="M100.737 49.485s-6.186.601-9.944-2.105c-1.915-1.375-2.025-2.914-2.025-2.914s-.599 2.13 2.365 3.681c4.61 2.416 9.604 1.338 9.604 1.338z"/><path fill="#fff" d="M93.248 45.306a.543.543 0 0 0 .767-.075.54.54 0 0 0-.071-.764.55.55 0 0 0-.771.072.548.548 0 0 0 .075.767zm1.416-.378a.44.44 0 0 0 .622-.06.444.444 0 0 0-.683-.566.44.44 0 0 0 .061.626z"/><path opacity=".5" fill="#F6A76A" d="M109.911 67.216s-.045 4.122-2.179 4.031c-2.13-.09.584.704 1.873.349 1.29-.351 1.37-.984.306-4.38z"/><path opacity=".32" fill="#F5B1A2" d="M109.456 63.462c2.685.277 5.915 1.207 5.995 1.577-3.551 1.736-10.979.742-10.751-.172.176-.707 3.048-1.582 4.756-1.405z"/><path fill="#AE8879" d="M114.3 64.114c.722-.034 1.474.325 1.429.461-.047.138-.777.028-1.414.063-.385.019-1.598.316-1.657.185-.06-.129 1.201-.686 1.642-.709zm-8.186-.246c.762.148 1.673.718 1.608.848-.063.129-1.111-.212-1.64-.325-.454-.095-1.522.034-1.583-.095-.062-.132 1.105-.527 1.615-.428z"/><path opacity=".2" fill="#F5B1A2" d="M106.41 65.344c-.765-.809-1.902-1.61-3.08-1.335 1.101-1.939 4.279 1.33 5.423 1.665 1.412.408 2.738-.221 3.974-.836 1.42-.706 2.793-.936 4.291-.302-.895.279-1.701.187-2.584.62-.947.462-1.791 1.085-2.718 1.581-2.058 1.099-3.825.179-5.306-1.393z"/><path opacity=".5" fill="#F6A76A" d="M116.634 64.151s1.476-.555 1.188-1.999c-.289-1.448-1.092-2.165-1.092-2.165s1.194.998 1.328 2.458c.131 1.462-1.424 1.706-1.424 1.706zm-13.069 0s-1.475-.555-1.187-1.999c.289-1.448 1.091-2.165 1.091-2.165s-1.196.998-1.327 2.458c-.133 1.462 1.423 1.706 1.423 1.706z"/><path opacity=".3" fill="#FDE9D7" d="M114.502 56.024s-1.031-.439-1.371-2.227c-.338-1.785-1.711-4.979-2.398-.82-.684 4.163-.508 6.244.992 5.71 2.205-.778 3.641-.209 3.723-1.175.05-.611-.313-1.171-.946-1.488z"/><path fill="#FFAC81" d="M101.722 73.144c0-.443 2.86-1.419 3.143-1.529 1.699-.656 3.618-.914 5.285-.387 1.596-.503 3.571-.265 5.267.38.287.109 3.16 1.081 3.16 1.536-.001.777-16.855.76-16.855 0zm.004.003c1.233.058 2.478.358 3.701.53 1.573.222 3.141.254 4.722.359 1.55-.105 3.1-.116 4.64-.359 1.246-.197 2.523-.458 3.781-.53-3.825 6.113-12.987 5.948-16.844 0z"/><path fill="#B54A37" d="M110.005 74.234c-1.628-.036-3.131-.125-4.349-.262l-.861-.089c-1.977-.204-2.878-.294-3.541-1.412-.516-.87-.944-.359-1.226-.39l-.216-.051c-.295-.203-.349-.338-.333-.389.013-.041.094-.07.207-.07.155 0 .363.049.586.139.583.232 1.283.588 1.29.596 1.184 1.341 4.48 1.539 6.339 1.539h.012c.572 0 1.11.023 1.716.049l.375.014.376-.014c.61-.025 1.151-.049 1.584-.049l.722.002c2.185 0 4.832-.154 5.946-1.362.011-.014.712-.37 1.296-.602.223-.09.434-.14.588-.14.11 0 .192.029.205.071.016.049-.039.185-.332.387l-.199.076c-.233.061-.586-.401-1.235.355-1.015 1.183-1.644 1.2-2.896 1.235a18.63 18.63 0 0 0-1.705.103c-1.219.139-2.723.228-4.349.264z"/><path fill="#FB9A18" d="M100.792 103.909s-1.482-.641-1.907 1.16c-.619 2.63-.498 4.451-.498 4.451s-.121 1.82.498 4.45c.425 1.802 1.907 1.161 1.907 1.161l9.308-3.4v-4.42l-9.308-3.402zm18.616 0s1.482-.641 1.906 1.16c.621 2.63.5 4.451.5 4.451s.121 1.82-.5 4.45c-.422 1.802-1.906 1.161-1.906 1.161l-9.309-3.4v-4.42l9.309-3.402z"/><path fill="#1E1E1E" d="M114.268 109.521c-.117 1.497-2.672 4.051-4.168 4.167-1.496-.117-4.051-2.67-4.168-4.167.117-1.498 2.672-4.052 4.168-4.169 1.496.116 4.05 2.671 4.168 4.169z"/></svg>