<svg xmlns="http://www.w3.org/2000/svg" width="220" height="220" viewBox="0 0 220 220"><path fill="#F9C795" stroke="#D09D6A" stroke-width=".5" stroke-miterlimit="10" d="M131.2 109.3c-1.9 2.7-15 11.2-20.6 10.9-.2 0-.4 0-.7-.1-.2 0-.4.1-.7.1-5.6.3-18.7-8.2-20.6-10.9-1.9-2.7-3.8-6.4-2.8-7.9.6-1 4.6-2.9 7.4-7.2.4-.6.7-1.2 1.1-1.9.8-1.6 1.4-3.5 1.7-5.8.1-.6.1-1.3.1-2v-.2c0-3.3-.2-6.3-.4-9-.2-1.6-.3-3.1-.5-4.4-.5-3.1-.9-5.2-1.1-6.1-.1-.3-.1-.5-.1-.5s7.7-2.8 16-4.1c8.3 1.3 16 4.1 16 4.1s0 .1-.1.4c-.2.9-.7 3-1.1 6.1-.1 1-.3 2.1-.4 3.3-.3 2.9-.6 6.3-.6 10.1v.2c0 .7 0 1.4.1 2 .2 2 .7 3.8 1.4 5.3.4.9.8 1.6 1.3 2.4 2.8 4.3 6.8 6.2 7.4 7.2 1 1.6-.9 5.2-2.8 8z"/><path opacity=".5" fill="#F6A76A" d="M126.4 94.1c-1.5 1.3-2.5 1.9-2.5 1.9s-1.6 1.1-5.9 1c-2.2 2.2-8.5 1.6-8.5 1.6s-6.3.6-8.5-1.6c-4.2.1-5.9-1-5.9-1s-.7-.4-1.9-1.4c.1-.1.2-.3.3-.4.4-.6.7-1.2 1.1-1.9.8-1.6 1.4-3.5 1.6-5.8.1-.6.1-1.3.1-2v-.2c0-3.3-.2-6.3-.4-9-.2-1.6-.3-3.1-.5-4.4-.4-3.1-.9-5.2-1.1-6.1-.1-.3-.1-.4-.1-.4s7.6-2.8 15.8-4.1c8.2 1.3 15.8 4.1 15.8 4.1s0 .1-.1.4c-.2.9-.7 3-1.1 6.1-.1 1-.3 2.1-.4 3.3-.3 2.9-.5 6.3-.6 10.1v.2c0 .7 0 1.4.1 2 .2 2 .7 3.8 1.4 5.3.4.8.9 1.6 1.3 2.3z"/><path fill="#F9C795" stroke="#D09D6A" stroke-width=".5" stroke-miterlimit="10" d="M129 16.7c-13.6-4.1-19.4-3.6-19.4-3.6s-5.8-.6-19.4 3.6C76.5 20.9 75.5 41.1 79 61.5c3.6 21.2 16 28.4 16 28.4s1.7 1.1 6 1c2.2 2.2 8.6 1.7 8.6 1.7s6.4.6 8.6-1.7c4.3.1 6-1 6-1s12.4-7.2 16-28.4c3.4-20.4 2.4-40.6-11.2-44.8z"/><radialGradient id="a" cx="274.842" cy="-157.89" r="18.014" gradientTransform="matrix(1 0 0 -1 -187.6 -89.99)" gradientUnits="userSpaceOnUse"><stop offset="0" stop-color="#ED1C24"/><stop offset="1" stop-color="#ED1C24" stop-opacity="0"/></radialGradient><circle opacity=".1" fill="url(#a)" cx="87.2" cy="67.9" r="18"/><radialGradient id="b" cx="319.5" cy="-157.89" r="18.029" gradientTransform="matrix(1 0 0 -1 -187.6 -89.99)" gradientUnits="userSpaceOnUse"><stop offset="0" stop-color="#ED1C24"/><stop offset="1" stop-color="#ED1C24" stop-opacity="0"/></radialGradient><circle opacity=".1" fill="url(#b)" cx="131.9" cy="67.9" r="18"/><path opacity=".5" fill="#F6A76A" d="M93 87.5s4.9 2 7 2.6c-2-3-2.4-4.2-2.5-6 .2 1.2-.7 3.7-.7 3.7l-3.8-.3zm33-.2s-4.9 2-7 2.5c2-3 2.4-4.2 2.5-6-.2 1.2.7 3.7.7 3.7l3.8-.2z"/><path opacity=".2" fill="#F5B1A2" d="M115.6 72.8c-.9-2.3-2.9-1.8-4.8-1.5-1.1.2-2 0-3.1-.2-1.1-.3-2.3-.4-3.1.5-.6.7.7.8 1.1 1 1.1.3 1.8 1.1 2.8 1.7 2.6 1.5 4.4-1.7 7.1-1.5-.1-.1-1 0 0 0z"/><path fill="#AE8879" d="M107.7 72.6c.1.1.2.2.4.3l-1.1-1.1c-.2-.2-1.7-1.2-1.9-.7 0 .1 1.3.5 1.4.6.3.2.8.6 1.2.9zm3.8.2c-.1.1-.3.2-.4.3.4-.3.8-.7 1.2-1 .2-.1 1.8-1 2-.6 0 0-1.3.4-1.4.5-.5.1-1 .5-1.4.8z"/><path opacity=".2" fill="#F5B1A2" d="M106.9 73.4c-.6-.7-1.6-1.3-2.6-1.1.9-1.6 3.6 1.1 4.5 1.4 1.2.3 2.3-.2 3.3-.7 1.2-.6 2.3-.8 3.6-.3-.7.2-1.4.2-2.1.5-.8.4-1.5.9-2.3 1.3-1.7 1-3.2.2-4.4-1.1-.7-.6.7.8 0 0z"/><path opacity=".2" fill="#F5B1A2" d="M113.6 72c1 1.1-2.2 2.5-2.9 2.4 0-.9 1.8-3.6 2.9-2.4zm-7.9-.2c-1 1.1 2.2 2.5 2.9 2.4-.1-.9-1.8-3.6-2.9-2.4z"/><path opacity=".5" d="M115 71.5s1.4-.5 1.1-1.9c-.3-1.4-1-2-1-2s1.1.9 1.3 2.3c.1 1.3-1.4 1.6-1.4 1.6zm-10.7-.1s-1.4-.5-1.1-1.9c.3-1.4 1-2 1-2s-1.1.9-1.3 2.3c-.2 1.4 1.4 1.6 1.4 1.6z" fill="#F6A76A"/><path opacity=".3" fill="#FDE9D7" d="M114.1 65.2s-.8-.3-1.1-1.7-1.3-3.9-1.9-.6c-.5 3.3-.4 4.9.8 4.5 1.7-.6 2.9-.2 2.9-.9.1-.6-.2-1.1-.7-1.3z"/><path fill="#EAA76F" d="M126.6 39.6c-5.2 1.1-10.2 1.9-15.5 2.2-5.2 0-10.6.2-15.7-.9 5.2 0 10.5-.1 15.7-.1 2.9-.2 5.9-.3 8.8-.7 2.2-.2 4.4-.5 6.7-.5zm-2 3.5c-5.1 1.1-10.2 1.9-15.5 2.2-5.2 0-10.6.2-15.7-.9 5.2 0 10.5-.1 15.7-.1 2.9-.2 5.9-.3 8.8-.7 1.4-.2 2.7-.4 4.1-.5.9-.1 1.7.1 2.6 0z" opacity=".5"/><path fill="#B54A37" d="M109.5 79.2c-2 0-3.8-.1-5.2-.2l-1-.1c-2.4-.1-3.5-.2-4.3-.9-.6-.6-1.1-.2-1.5-.3h-.3c-.4-.1-.4-.2-.4-.3h.2c.2 0 .4 0 .7.1.7.2 1.5.4 1.6.4 1.4.9 5.4 1 7.6 1h5.9c2.6 0 5.8-.1 7.1-.9 0 0 .9-.2 1.6-.4.3-.1.5-.1.7-.1h.2s0 .1-.4.3h-.2c-.3 0-.7-.3-1.5.2-1.2.8-2 .8-3.5.8-.6 0-1.2 0-2 .1-1.6.2-3.4.3-5.3.3z"/><path opacity=".5" fill="#F6A76A" d="M97 72.6c-2.5-.7-4.1 3.4-5.4 4.8-.1-1.6.6-3.2 1.7-4.4.9-.8 2.8-1.8 3.7-.4zm25-.5c2.5-.7 4.1 3.4 5.4 4.8.1-1.6-.6-3.2-1.7-4.4-.8-.9-2.8-1.9-3.7-.4z"/><path fill="#FF5D47" d="M115.5 77.7c-.2 0-4.5-.2-5.9.5-1.4-.7-5.7-.5-5.9-.5-.2 0-4.3.4-4.3.4 5.5 6.9 10 6.3 10.2 6.2.2 0 4.7.7 10.2-6.2 0-.1-4-.4-4.3-.4z"/><path fill="#FFF" d="M116.2 79s-5.1.6-6.6.6-6.6-.6-6.6-.6c3 3 6.4 2.6 6.6 2.6.2 0 3.6.4 6.6-2.6z"/><path opacity=".5" fill="#F6A76A" d="M89.3 56.7s-1.6 4.4 5 4.2c5.6-.7 6.9-1.1 8.7-.8-.3-.5-1-.8-1-.8s-5.6.4-7.9 0c-2.2-.4-4.8-2.6-4.8-2.6zm1.6-1s3.2-4.3 8.1-3.1c4 .8 5 2.1 5 2.1s-3.3-.9-4-.7c1.5.9 2.5 3.7 2.2 4.4-.3.7-3.4-2.8-3.4-2.8l-7.9.1z"/><path fill="#FFF" d="M89 56.9s1 2.9 5.7 3c4.7.1 7.1-.4 7.6-.3.5.2-1.3-4.6-5.7-5.3-4.3-.6-7.6 2.6-7.6 2.6z"/><radialGradient id="c" cx="238.096" cy="-487.8" r="3.117" gradientTransform="scale(1 -1) rotate(-8.389 3103.482 699.577)" gradientUnits="userSpaceOnUse"><stop offset="0" stop-color="#28353D"/><stop offset=".508" stop-color="#27323B"/><stop offset=".809" stop-color="#222A33"/><stop offset="1" stop-color="#1D2029"/></radialGradient><path fill="url(#c)" d="M92.5 54.9S91 59 95.1 59.8c4.2.8 3.9-4.3 3.9-4.3s-.9-1.2-3-1.3c-2.1 0-3.5.7-3.5.7z"/><path fill="#212121" d="M97.2 57.1c-.1.9-1 1.6-1.9 1.4-.9-.1-1.6-1-1.4-1.9.1-.9 1-1.6 1.9-1.4.9.2 1.5 1 1.4 1.9z"/><path fill="#FFF" d="M93 57.4c.2.2.6.2.9 0 .2-.2.2-.6 0-.9-.2-.2-.6-.2-.9 0-.3.3-.3.7 0 .9zm1.6-.3c.2.2.5.2.7 0 .2-.2.2-.5 0-.7-.2-.2-.5-.2-.7 0-.2.2-.2.5 0 .7z"/><path fill="#666" d="M89 56.9s.5-1 1.9-1.9c.7-.5 1.6-.9 2.6-1.1.5-.1 1-.2 1.6-.1.5 0 1.1.1 1.6.2.3.1.5.1.8.2.3.1.5.2.8.2.5.2 1 .4 1.4.7.9.5 1.5 1.2 2 1.9s.7 1.3.8 1.7c.1.4.2.7.2.7h-.1s-.1-.3-.2-.7c-.2-.4-.5-1-1-1.6s-1.2-1.2-2-1.6c-.4-.2-.9-.4-1.3-.5l-.7-.2c-.2 0-.5-.1-.8-.1-.5-.1-1-.1-1.5 0-.5 0-.9.1-1.4.2-.9.2-1.7.5-2.4.8-.3.2-.7.3-.9.5-.3.2-.5.3-.7.4-.5.2-.7.4-.7.3z"/><path opacity=".5" fill="#F6A76A" d="M104.1 56.6c1.5.5 1.1 2.9-.4 2.9.5-1 .6-1.8.4-2.9z"/><path fill="#EAA76F" d="M89.2 56.5c-1.8.9-4.2.8-6.1.3 1.8-.9 4.2-.8 6.1-.3z"/><path fill="#EAA76F" d="M89.2 57.5c-1.8.9-4.2.8-6.1.3 1.8-.9 4.2-.8 6.1-.3z"/><path fill="#686868" d="M104.7 51.2c-2.8-.5-5.4-1.4-8.1-2.1-1.7-.4-3.7-.9-5.5-.5-.8 0-1.7.7-2.3 1.2-.3.3-.5 1-.9 1.1 2.5-7.3 12.8-2.1 17.2.3h-.4z"/><path opacity=".5" fill="#F6A76A" d="M130 56.8s1.6 4.3-5 4.1c-5.5-.6-6.8-1.1-8.6-.8.3-.5 1-.8 1-.8s5.5.4 7.8 0c2.2-.3 4.8-2.5 4.8-2.5zm-1.6-1s-3.2-4.2-8-3c-3.9.8-4.9 2.1-4.9 2.1s3.2-.9 3.9-.7c-1.5.9-2.4 3.7-2.1 4.3.3.7 3.3-2.8 3.3-2.8l7.8.1z"/><path fill="#FFF" d="M130.3 56.9s-1 2.8-5.6 3c-4.6.1-7-.4-7.4-.3-.4.2 1.3-4.6 5.6-5.2 4.1-.6 7.4 2.5 7.4 2.5z"/><radialGradient id="d" cx="4943.018" cy="206.214" r="3.06" gradientTransform="rotate(171.611 2538.92 -45.17)" gradientUnits="userSpaceOnUse"><stop offset="0" stop-color="#28353D"/><stop offset=".508" stop-color="#27323B"/><stop offset=".809" stop-color="#222A33"/><stop offset="1" stop-color="#1D2029"/></radialGradient><path fill="url(#d)" d="M126.9 55.1s1.5 4.1-2.6 4.8c-4.1.7-3.9-4.2-3.9-4.2s.9-1.2 2.9-1.3c2.2-.1 3.6.7 3.6.7z"/><path fill="#212121" d="M122.2 57.2c.1.9 1 1.5 1.9 1.4.9-.1 1.5-1 1.4-1.9-.1-.9-1-1.5-1.9-1.4-.9.2-1.5 1-1.4 1.9z"/><path fill="#FFF" d="M126.4 57.5c-.2.2-.6.2-.9 0-.2-.2-.2-.6 0-.9.2-.2.6-.2.9 0 .2.2.2.6 0 .9zm-1.6-.3c-.2.2-.5.2-.7 0-.2-.2-.2-.5 0-.7.2-.2.5-.2.7 0s.2.5 0 .7z"/><path fill="#666" d="M130.3 57.1s-.2-.2-.6-.4c-.2-.1-.4-.3-.7-.4-.3-.2-.6-.3-.9-.5-.7-.3-1.5-.6-2.3-.8-.4-.1-.9-.2-1.4-.2H123c-.3 0-.5.1-.8.1l-.7.2c-.5.1-.9.3-1.3.5-.8.4-1.5 1-2 1.6-.5.6-.8 1.1-.9 1.5-.2.4-.2.7-.2.7h-.1s0-.3.2-.7c.1-.4.4-1 .8-1.7s1.1-1.3 2-1.9c.4-.3.9-.5 1.4-.7.3-.1.5-.2.8-.2.3-.1.5-.1.8-.2.5-.1 1.1-.2 1.6-.2s1.1 0 1.6.1c1 .2 1.9.6 2.5 1.1 1.1 1 1.6 2 1.6 2.1z"/><path opacity=".5" fill="#F6A76A" d="M115.5 56.7c-1.4.5-1.1 2.8.4 2.9-.5-1.1-.6-1.9-.4-2.9z"/><path fill="#EAA76F" d="M130.1 56.6c2.1-.5 4.1-.4 6.1.3-1.8.4-4.4.6-6.1-.3z"/><path fill="#EAA76F" d="M130.1 57.6c2.1-.5 4.1-.4 6.1.3-1.8.4-4.4.6-6.1-.3z"/><path fill="#686868" d="M114.8 51.3c4.2-2.5 14.5-7.3 16.9-.2-.4-.1-.7-.7-1-1-.5-.5-1.2-.9-1.9-1.1-1.8-.5-3.9 0-5.7.4-1.7.4-3.4 1.1-5.1 1.4-.6.2-2.7 1.1-3.2.5z"/><path fill="#777" d="M153.8 47.9c-.8 10.1-6.6 19.6-9 29.4-.4 1.5-.3 8.5-2.9 7.5-2.3-.9-4.2-3.7-5.5-5.6-2 1.9-4.1 3.7-6.3 5.4 14.7-10.8 7.5-49.8-14.1-46.6 10.4 6.3 2.5 6.6-4.9 5.5-8.1-1.3-15.8-3.3-20.7-10.4-2.8 2.3-3.9 7.5-4.9 10.7-1.7 5.7-4.1 11.6-4.6 17.6-.7 9.2 3.2 17.2 9 24-4.8-.6-8-4.6-9-9.1-.3 2.4-1.5 8.3-4.1 3.9-3-5.2-4.3-11.7-5.7-17.4-1.5-6.3-2.9-12.7-3.6-19.2-.9-8.5 3.5-16.3 7.6-23.4C80.4 11 88.1 4 98.4 1c9-2.6 14.8 1.5 23.2 3 20.6 3.6 33.6 23.8 32.2 43.9-.7 8.5.6-8.5 0 0z"/><g><path fill="#AF592A" stroke="#8E3D14" stroke-width=".5" stroke-miterlimit="10" d="M171.8 133.9c0-.1-9.6-24-17.2-26.7-7.5-2.6-14.9-2.2-14.9-2.2s-8.2 6-8.2 11.7c0 13.5-21.5 19.4-21.5 19.4s-21.6-5.8-21.6-19.4c0-5.7-8.2-11.7-8.2-11.7s-7.3-.5-14.9 2.2c-7.5 2.6-17.1 26.6-17.1 26.6-5.7 10.4-9.4 71.7-4.2 85.1 8.2 0 19.1.9 19.1.9s0-47.2 3-62.7c-.4 2.9-.5 3.2.4 6.3.1.2.1.5.2.7.8 2.7 1.1 5.2 2.4 7.7 3.7 6.7 3.2 32.6 3 40.4 0 .3-.6 4-1.2 6.7h77.7s-.7-.9-.7-6.7c0-7.8-.7-33.8 3-40.4 1.3-2.4 1.6-4.9 2.4-7.5l.3-.9c.8-3.1.7-3.4.4-6.3 3 15.5 3 62.9 3 62.9s10.8-.9 19.1-.9c5.1-13.5 1.4-74.7-4.3-85.2z"/><path fill="#F18931" d="M94.5 128.4l15.8 44 13.8-44-14.1-8.2"/><circle fill="#333" cx="110" cy="141.5" r="1.7"/><circle fill="#333" cx="110" cy="150.4" r="1.7"/><circle fill="#333" cx="110" cy="159.4" r="1.7"/></g><g fill="#FFF"><path d="M89 97.7s-10.1 1.2-19.9 8.8c-2.7 3.6 4.2 16.9 6.4 19.4 0 0 6.2 8.5 23.4 13.4l10.9-19.3c.1 0-17.4-7.7-20.8-22.3zm41.7 0s10.1 1.2 19.9 8.8c2.7 3.6-4.2 16.9-6.4 19.4 0 0-6.2 8.5-23.4 13.4L109.9 120s17.5-7.7 20.8-22.3z"/></g><g opacity=".2"><path fill="#FFF" d="M96.5 27.5c5.5 1.2 10.9 1.4 16.5 1.4 6.3 0 15-1.1 19.7 4.2 3.7 4.5 4.2 10.5 6.5 15.8 4.2 9.8 6.3 16.6 1.5 26.4 3.1-9.5 1.4-15.3-2.6-24.2-2.5-5.5-3.4-12.1-7.2-16.9-4.4-4.8-12.5-3.8-18.3-4.1-5.4-.3-11-.8-16.1-2.6z"/></g><g opacity=".2"><path fill="#FFF" d="M99.9 24.5c11.3-.4 26.6-3.4 35.2 5.1 4 4.2 8.1 7.9 9.2 13.8.5 5.9 5.5 13.8 1.8 19.1 2.5-5.5-2-10.6-3.1-15.9-.6-5.9-3.5-9.8-7.7-14-4.6-4.6-7.5-6.4-14.4-6.7-7-.3-14.1-.4-21-1.4z"/></g><g opacity=".2"><path fill="#FFF" d="M89.4 28.2c-6.3 3.3-10.5 8.6-10.5 16 0 10.1-1.3 20.5-.2 30.6-2.5-8.5-1.2-17-1.7-25.7 0-9.5 2.3-17.9 12.4-20.9z"/></g><g opacity=".2"><path fill="#FFF" d="M91.4 23.6c.5-1.6-6.7.9-7.9 1.5-3.6 2.3-7.1 7-8.4 11-2.5 7.4-1.8 15.3-1.8 22.9-2.7-12.8-1-40 18.5-35.7.1.5-.1.3-.4.3z"/></g></svg>