<svg xmlns="http://www.w3.org/2000/svg" width="220" height="220" viewBox="0 0 220 220"><path fill="#F3C581" d="M75.512 42.113h70.966v83.884H75.512z"/><path opacity=".5" fill="#F6A76A" d="M111.744 163.85c-1.053-2.926-1.284-6.068-2.272-9.009l-.039-.223-.016.05-.021-.064-.055.289c-1.023 2.914-1.309 6.037-2.402 8.935 1.258-.89 2.039-2.418 2.436-4.08.374 1.661 1.128 3.195 2.369 4.102z"/><path fill="#fc9" stroke="#D09D6A" stroke-width=".5" stroke-miterlimit="10" d="M76.934 141.137s-5.269 15.057-11.539 27.901a151.625 151.625 0 0 1-2.376 4.646c-7.258 13.527-8.822 41.969-8.822 41.969l-3.834-.188L34 214.654c7.257-14.703 8.469-69.776 8.469-69.776l34.465-3.741z"/><path fill="#FFB679" d="M65.395 169.038c-.788 1.601-1.576 3.34-2.376 4.835-7.258 13.527-8.822 41.781-8.822 41.781l-3.834-.188s5.999-28.276 5.999-42.133c0-14.551 3.082-18.715 6.764-20.479 1.257-.601 1.927 6.503 2.269 16.184z"/><path fill="#fc9" stroke="#D09D6A" stroke-width=".5" stroke-miterlimit="10" d="M143.111 141.137s5.27 15.057 11.539 27.901a151.612 151.612 0 0 0 2.377 4.646c7.258 13.527 8.822 41.969 8.822 41.969l3.834-.188 16.362-.813c-7.257-14.702-8.469-69.775-8.469-69.775l-34.465-3.74z"/><path fill="#FFB679" d="M154.65 169.038c.789 1.601 1.576 3.34 2.377 4.835 7.258 13.527 8.822 41.781 8.822 41.781l3.834-.188s-5.998-28.276-5.998-42.133c0-14.551-3.082-18.715-6.765-20.479-1.257-.601-1.927 6.503-2.27 16.184z"/><path fill="#fc9" stroke="#D09D6A" stroke-width=".5" stroke-miterlimit="10" d="M166.35 134.689c-2.328-7.289-28.381-7.133-38.152-14.422-9.77-7.289-6.047-31.017-6.047-31.017l-12.713-1.111v-.018l-.095.009-.097-.009v.018L96.534 89.25s3.723 23.728-6.048 31.017-35.824 7.133-38.15 14.422c-2.326 7.291-1.706 17.525-1.706 17.525l58.712 9.758 58.714-9.758c-.001.001.618-10.235-1.706-17.525z"/><path opacity=".5" fill="#F6A76A" d="M121.506 101.727c-3.354 2.882-6.128 4.905-6.882 5.281-1.717.859-4.234 1.176-5.186 1.259l-.188.023c-.13.011-3.67-.423-5.388-1.282-.729-.364-3.411-2.317-6.681-5.104.27-6.788-.648-12.656-.648-12.656l12.716-1.106v-.023l.094.012.094-.012v.023l12.715 1.106s-.904 5.762-.646 12.479z"/><path fill="#fc9" stroke="#D09D6A" stroke-width=".5" stroke-miterlimit="10" d="M140.027 59.725c-.19-3.014-.467-3.841-1.125-4.749-.914-1.255-1.615-1.427-2.155-.954-.58-8.258-1.498-15.896-2.253-18.108-1.163-3.402-16.486-7.25-23.514-8.846h-3.468c-7.028 1.597-22.351 5.444-23.514 8.846-.751 2.2-1.662 9.76-2.244 17.962-.509-.267-1.145-.001-1.946 1.099-.659.907-.935 1.734-1.125 4.749-.176 2.843.72 6.828 2.496 7.599-.029 3.407.066 6.406.336 8.539 1.187 9.393 20.189 24.186 22.349 25.266 1.722.86 5.26 1.29 5.381 1.279l.194-.018c.95-.091 3.463-.401 5.187-1.261 2.159-1.08 21.162-15.873 22.351-25.266.269-2.118.364-5.09.338-8.468 1.917-.529 2.894-4.712 2.712-7.669z"/><path fill="#85694D" d="M157.678 163.609c-.494 1.576.176 3.211.635 4.705.47 1.494.74 3.023.94 4.576.435 3.364.565 6.799-.33 10.104a11.88 11.88 0 0 1-.271.882c-.858 2.671-2.234 5.129-3.611 7.554-3.823 6.691-6.88 13.992-6.88 21.866 0 5.815.726 6.704.726 6.704H70.656c.588-2.693 1.188-6.423 1.2-6.704.258-7.87-3.059-15.174-6.869-21.866-1.412-2.459-2.824-4.977-3.659-7.707-.083-.233-.153-.481-.224-.729-.905-3.305-.775-6.739-.329-10.104.2-1.553.47-3.082.93-4.576.458-1.494 1.141-3.129.635-4.705-.294-.928-1.129-.834-1.941-1.129-2.094-.775-18.749-10.904-21.525-12.608 0 0 13.244-24.079 21.067-26.726 7.822-2.646 30.089-2.164 30.089-2.164s-2.412 6.021-2.412 11.798c0 29.007 22.396 28.76 22.396 28.76s22.384.247 22.384-28.76c0-5.776-2.41-11.798-2.41-11.798s22.267-.482 30.089 2.164c7.834 2.646 21.067 26.726 21.067 26.726-2.776 1.705-19.422 11.833-21.527 12.608-.801.295-1.646.202-1.939 1.129z"/><path d="M137.271 57.779c1.367-.104 1.289 3.793 1.201 5.171-.089 1.376-1.295 2.281-2.1 2.072-.803-.207-1.291-2.199-.484-2.372.803-.172 1.223-.753.771-1.23-.451-.478-1.087-3.515.612-3.641zm-55.834 0c-1.367-.104-1.289 3.793-1.2 5.171.088 1.376 1.294 2.281 2.099 2.072.802-.207 1.291-2.199.485-2.372-.804-.172-1.224-.753-.772-1.23.451-.478 1.086-3.515-.612-3.641z" fill="#FFB679"/><radialGradient id="a" cx="137.078" cy="-23.1" r="16.01" gradientTransform="matrix(1 0 0 -1 -47.6 50.01)" gradientUnits="userSpaceOnUse"><stop offset="0" stop-color="#ED1C24"/><stop offset="1" stop-color="#ED1C24" stop-opacity="0"/></radialGradient><circle opacity=".15" fill="url(#a)" cx="89.478" cy="73.109" r="16.01"/><radialGradient id="b" cx="176.809" cy="-23.1" r="16.01" gradientTransform="matrix(1 0 0 -1 -47.6 50.01)" gradientUnits="userSpaceOnUse"><stop offset="0" stop-color="#ED1C24"/><stop offset="1" stop-color="#ED1C24" stop-opacity="0"/></radialGradient><circle opacity=".15" fill="url(#b)" cx="129.209" cy="73.109" r="16.01"/><path fill="#FEE0A6" d="M125.012 150.13c.153-.047.424-.118.775-.247-.258.106-.516.2-.775.247zm34.076-62.259c-.166 11.045-2.965 25.359-11.363 42.016-7.093 14.057-18.502 18.832-21.902 19.985 6.141-2.506 11.47-16.339 14.279-26.679 2.955-10.892-1.563-54.777-2.187-61.318-.624-6.528-1.94-15.868-1.94-15.868s-9.811.224-9.259-.47c.541-.707 1.165-8.563 1.165-8.563s-3.188 7.316-3.964 8.645c-2.188.612-15.338.388-15.338.388l3.353-6.234c-2.341 2.788-8.987 6.022-9.397 6.223 6.999-5.222 9.257-14.492 9.386-15.067-1.623 1.787-10.434 13.833-12.903 14.762-2.494.941-16.032 0-16.032 0s-.471 7.316-2.965 18.984c-2.481 11.681 2.024 60.543 2.024 60.543 0 12.291 4.517 18.832 9.999 24.96-12.705-2.635-23.02-22.785-25.902-36.453-2.869-13.667-4.552-35.981-4.316-46.768.153-6.705-.165-16.562 2.811-27.948A71.432 71.432 0 0 1 69.954 24.8a75.482 75.482 0 0 1 4.588-7.964C87.975-3.549 109.442.287 109.442.287s14.622-2.824 30.831 12.691a64.9 64.9 0 0 1 2.787 2.835c.248.318.494.635.717.965 17.58 23.83 15.464 60.189 15.311 71.093z"/><path opacity=".3" fill="#fff" d="M143.773 16.777c-2.646 4.164-2.775 7.763-10.234 9.881l-.034.012c-10.397 2.976-16.704-7.293-25.514 2.047-4.553 4.834-9.21 8.822-16.562 5.963-15.68-6.07-16.444-1.118-26.796 4.33a71.432 71.432 0 0 1 5.317-14.209c2.646-1.518 5.976-2.047 10.222-1 11.292 2.729 15.043 8.446 23.959-.824 7.801-8.104 15.01-3.787 25.337-1.823 8.894 1.694 8.14-3.482 10.8-8.175a64.9 64.9 0 0 1 2.787 2.835c.248.316.495.634.718.963z"/><path fill="#B54A37" d="M106.682 85.857c3.461.361 8.457.234 10.013-.756 0 0-.577 1.664-1.42 2.92-1.158 1.729-2.994 2.23-6.07 2.161-4.741-.107-4.91.234-6.359-2.774-.174-.366-1.124-2.405-1.613-3.032 0 0 2.044 1.128 5.449 1.481z"/><path fill="#fff" d="M114.945 86.861c-2.364 1.846-8.026 2.308-11.15.292-.233-.149-.426-.836-1.258-1.515l13.372-.566-.964 1.789z"/><path fill="#FF5D47" d="M115.877 86.446c-.672 1.04-2.898 3.054-6.725 3.021-3.826.033-6.125-2.335-6.797-3.375-.284-.433-.867-1.253-.867-1.253.365 1.012.92 2.526 1.5 3.587.941 1.711 1.825 2.377 2.562 2.868a6.58 6.58 0 0 0 3.568 1.08h.07a6.582 6.582 0 0 0 3.568-1.08c.734-.491 1.621-1.154 2.563-2.864.58-1.062 1.135-2.577 1.498-3.591-.001.001-.656 1.175-.94 1.607zm1.394-2.083c-.303.246-.91.48-2.162.31-2.395-.324-4.303-.241-5.936-.082-1.667-.234-3.626-.271-5.951.02-1.252.155-1.857-.085-2.159-.335 1.624 2.157 4.973 2.544 8.056 2.521v-.029h.072v.029c3.082.056 6.435-.296 8.08-2.434z"/><path fill="#B54A37" d="M117.499 84.114c-.388.155-.841.749-.841.749-1.111 1.426-5.055 1.771-6.143 1.767-.333-.001-.772.022-1.269.041-.499-.019-.938-.042-1.271-.041-1.088.005-5.033-.341-6.141-1.767 0 0-.454-.594-.843-.749-.538-.213-.787-.022-.337.285.158.109.443-.09.905.62.697 1.082 3.278 1.604 4.911 1.785.821.093 1.795.145 2.775.167a32.782 32.782 0 0 0 2.773-.167c1.635-.182 4.215-.703 4.91-1.785.463-.71.748-.511.905-.62.453-.307.203-.499-.334-.285z"/><path fill="#1A1A1A" d="M102.019 54.638c-2.697-.624-5.116-1.878-7.721-2.744-1.525-.522-3.198-.916-4.82-.779-.71.061-1.42.248-2.038.611-.112.066-1.157.809-.732.313 2.31-2.31 5.676-1.839 8.603-1.145 1.586.376 3.07.906 4.459 1.771.309.192 2.532 1.534 2.249 1.973z"/><path fill="#fff" d="M99.41 58.174c.606.503 2.508 2.06 2.508 2.06-.608 1.446-2.387 2.007-3.94 2.134-1.662.139-3.353-.035-5.004-.197-1.09-.108-2.533.008-3.457-.651-.514-.369-2.33-1.734-2.092-2.727.268-1.124 2.248-1.771 3.231-2.071 2.101-.646 3.962-.372 6.087.14 1.12.269 1.512.357 2.667 1.312z"/><radialGradient id="c" cx="623.416" cy="-8.898" r="2.793" gradientTransform="rotate(-180 359.098 27.203)" gradientUnits="userSpaceOnUse"><stop offset="0" stop-color="#C1943D"/><stop offset=".264" stop-color="#BE923D"/><stop offset=".421" stop-color="#B68C3C"/><stop offset=".55" stop-color="#A8823A"/><stop offset=".663" stop-color="#947437"/><stop offset=".767" stop-color="#7A6234"/><stop offset=".864" stop-color="#594B30"/><stop offset=".953" stop-color="#34302C"/><stop offset="1" stop-color="#1D2029"/></radialGradient><path fill="url(#c)" d="M92.269 56.51a3.002 3.002 0 0 0-.753 1.941 2.995 2.995 0 1 0 5.99.101 2.963 2.963 0 0 0-.683-1.953c-.717-.3-3.854-.313-4.554-.089z"/><path fill="#212121" d="M92.764 58.72a1.834 1.834 0 1 0 3.663.06 1.834 1.834 0 0 0-3.663-.06z"/><path fill="#B76B2C" d="M100.04 61.907s-6.18 1.462-10.221-.599c-2.061-1.046-2.394-2.517-2.394-2.517s-.264 2.148 2.838 3.212c4.821 1.65 9.777-.096 9.777-.096z"/><circle fill="#fff" cx="92.161" cy="58.478" r=".534"/><path fill="#fff" d="M93.2 58.36a.432.432 0 0 0 .593-.149.437.437 0 0 0-.151-.598.438.438 0 0 0-.593.149.432.432 0 0 0 .151.598z"/><path fill="#1A1A1A" d="M101.918 60.233s-3.14-4.336-9.477-4.616c-5.032-.228-6.839 2.651-6.839 2.651l1.892.59s2.086-2.077 5.676-1.973c4.719.134 8.083 2.717 8.748 3.348zm14.478-5.725c1.877-2.021 4.496-3.093 7.129-3.692 1.595-.363 3.279-.642 4.915-.428.718.094 1.425.289 2.068.624.143.074 1.529.992 1.398 1.174-.144.199-.864-.47-1.088-.583-.653-.329-1.384-.477-2.111-.505-1.651-.063-3.331.36-4.872.922-1.54.562-3.012 1.273-4.569 1.797-.353.119-2.664 1.089-2.87.691z"/><path fill="#fff" d="M119.081 58.174c-.606.503-2.509 2.06-2.509 2.06.609 1.446 2.388 2.007 3.941 2.134 1.662.139 3.354-.035 5.004-.197 1.09-.108 2.533.008 3.457-.651.514-.369 2.33-1.734 2.092-2.727-.268-1.124-2.248-1.771-3.23-2.071-2.102-.646-3.962-.372-6.087.14-1.121.269-1.513.357-2.668 1.312z"/><radialGradient id="d" cx="-1060.05" cy="19.555" r="2.794" gradientTransform="matrix(1 -.017 -.017 -1 1184.534 60.51)" gradientUnits="userSpaceOnUse"><stop offset="0" stop-color="#C1943D"/><stop offset=".264" stop-color="#BE923D"/><stop offset=".421" stop-color="#B68C3C"/><stop offset=".55" stop-color="#A8823A"/><stop offset=".663" stop-color="#947437"/><stop offset=".767" stop-color="#7A6234"/><stop offset=".864" stop-color="#594B30"/><stop offset=".953" stop-color="#34302C"/><stop offset="1" stop-color="#1D2029"/></radialGradient><path fill="url(#d)" d="M126.223 56.51c.457.518.739 1.197.754 1.941a2.996 2.996 0 1 1-5.307-1.852c.714-.3 3.851-.313 4.553-.089z"/><path fill="#212121" d="M125.727 58.72a1.833 1.833 0 1 1-3.662.062 1.833 1.833 0 0 1 3.662-.062z"/><path fill="#B76B2C" d="M118.451 61.907s6.18 1.462 10.221-.599c2.061-1.046 2.395-2.517 2.395-2.517s.264 2.148-2.838 3.212c-4.823 1.65-9.778-.096-9.778-.096z"/><circle fill="#fff" cx="121.835" cy="58.478" r=".534"/><path fill="#fff" d="M122.875 58.36a.432.432 0 0 0 .593-.149.437.437 0 0 0-.151-.598.437.437 0 0 0-.592.149.431.431 0 0 0 .15.598z"/><path fill="#1A1A1A" d="M116.572 60.233s3.141-4.336 9.478-4.616c5.032-.228 6.839 2.651 6.839 2.651l-1.892.59s-2.086-2.077-5.677-1.973c-4.718.134-8.082 2.717-8.748 3.348z"/><path opacity=".32" fill="#F5B1A2" d="M113.876 79.845c-.681-1.802-2.291-1.396-3.798-1.144-.864.143-1.578.033-2.415-.19-.864-.229-1.772-.309-2.417.429-.478.548.536.648.887.762.836.267 1.432.896 2.184 1.327 2.028 1.161 3.492-1.362 5.559-1.184-.037-.097-.793-.069 0 0z"/><path fill="#AE8879" d="M107.687 79.664l.283.23c-.28-.293-.547-.577-.863-.832-.164-.132-1.315-.912-1.519-.579-.031.045.993.426 1.068.462.358.137.751.454 1.031.719zm3.001.128l-.301.201c.307-.268.596-.531.93-.759.158-.107 1.428-.793 1.563-.448.022.038-1.026.341-1.104.368-.368.124-.783.386-1.088.638z"/><path opacity=".2" fill="#F5B1A2" d="M107.06 80.311c-.498-.53-1.24-1.051-2.006-.871.717-1.261 2.786.866 3.531 1.082.917.267 1.78-.142 2.587-.543.921-.46 1.816-.611 2.791-.198-.581.183-1.107.122-1.682.405-.617.301-1.166.704-1.77 1.03-1.338.715-2.488.116-3.451-.905zm5.243-1.147c.766.833-1.697 1.965-2.293 1.871.085-.709 1.435-2.806 2.293-1.871zm-6.167-.161c-.765.833 1.695 1.965 2.292 1.871-.084-.71-1.435-2.808-2.292-1.871z"/><path opacity=".5" d="M113.43 78.768s1.09-.409.877-1.479c-.214-1.069-.808-1.599-.808-1.599s.885.735.981 1.817c.1 1.077-1.05 1.261-1.05 1.261zm-8.371-.08s-1.088-.41-.877-1.479c.213-1.067.806-1.599.806-1.599s-.881.737-.979 1.816c-.099 1.082 1.05 1.262 1.05 1.262z" fill="#F6A76A"/><path opacity=".3" fill="#FDE9D7" d="M112.764 73.831s-.633-.271-.844-1.369c-.208-1.099-1.052-3.064-1.475-.504-.419 2.56-.312 3.839.612 3.512 1.355-.478 2.238-.128 2.287-.723.032-.376-.192-.72-.58-.916z"/><path opacity=".5" fill="#F6A76A" d="M109.412 81.529s-.03 2.606-1.378 2.549c-1.349-.057.369.445 1.183.222.818-.223.867-.626.195-2.771zm-13.534 46.473c3.118-.623 6.233-1.023 9.401-1.281.395-.033 1.156-.271 1.457.014.115.121.184.373.255.521.485 1.025 1.363 1.889 2.566 1.813 1.112-.07 1.987-.922 2.575-1.805.081-.119.146-.287.241-.394.211-.427.898-.175 1.24-.146 3.098.266 6.144.664 9.189 1.276a115.674 115.674 0 0 1-4.777-.383c-1.766-.179-3.563-.148-5.334-.254.117-.024.25-.032.313-.161-.627 1.222-1.807 2.518-3.267 2.628-1.739.132-3.044-1.108-3.588-2.688.032.117.241.19.344.209-1.767.098-3.533.159-5.297.219-1.771.176-3.545.334-5.318.432.873-.173.889-.048 0 0z"/><path fill="#7C6149" d="M155.042 191.43c-3.823 6.692-6.88 13.993-6.88 21.867 0 5.975.725 6.704.725 6.704h-2.996l-.988-2.647-.363-2.174c-3.023-9.67-64.683-9.67-67.718-.084l-.33 2.307-1.022 2.6h-4.812c.588-2.693 1.188-6.423 1.2-6.704.258-7.87-3.059-15.174-6.869-21.866-1.412-2.459-2.824-4.977-3.659-7.707 7.904 2.494 22.243 5.105 47.58 5.118 24.349-.059 40.557-2.541 49.745-4.965-.861 2.669-2.237 5.127-3.613 7.551z"/></svg>