<svg xmlns="http://www.w3.org/2000/svg" width="220" height="220" viewBox="0 0 220 220"><path fill="#fc9" stroke="#D09D6A" stroke-width=".5" stroke-miterlimit="10" d="M165.175 131.764s-1.418-7.238-3.12-7.906c-3.74-1.475-8.033-2.074-11.945-3-5.328-1.265-11.545-1.818-16.496-4.111-4.19-1.939-7.551-5.18-9.588-9.138-2.318-4.505-1.922-8.898-1.853-13.731.009-.577.216-9.426.044-9.426H96.69c0 5.93.906 12.257-.049 18.136-.94 5.825-5.694 11.563-11.209 14.245-2.317 1.129-4.787 1.309-7.29 1.832-5.489 1.15-10.953 2.533-16.392 3.888-1.621.405-3.343.691-4.896 1.306-1.702.668-3.12 7.906-3.12 7.906l56.004 30.863 55.437-30.864z"/><path opacity=".5" fill="#F6A76A" d="M122.911 103.633c-2.802 2.611-6.14 4.185-13.482 4.185-7.259 0-10.596-1.538-13.374-4.089.262-.774.464-1.549.584-2.335.953-5.877.048-12.206.048-18.131h25.532c.168 0-.035 8.844-.048 9.417-.06 3.838-.321 7.402.74 10.953zm-27.098 20.784c3.159-.631 6.316-1.038 9.526-1.298.401-.034 1.171-.275 1.476.013.117.124.187.378.258.53.492 1.038 1.381 1.914 2.601 1.837 1.127-.072 2.014-.935 2.61-1.829.082-.121.146-.291.245-.398.214-.434.91-.178 1.257-.146 3.138.27 6.226.673 9.313 1.293a115.42 115.42 0 0 1-4.843-.389c-1.788-.182-3.61-.15-5.405-.258.119-.023.252-.032.315-.162-.636 1.238-1.83 2.552-3.311 2.664-1.762.134-3.084-1.125-3.636-2.726.032.12.244.194.349.212-1.791.1-3.581.162-5.369.223-1.791.175-3.589.335-5.386.434.885-.176.901-.049 0 0z"/><path fill="#fc9" stroke="#D09D6A" stroke-width=".5" stroke-miterlimit="10" d="M109.435 27.078H73.949V66.87c0 6.947 7.942 16.614 15.005 23.359 7.064 6.743 7.552 11.623 20.48 11.623 12.927 0 13.417-4.88 20.48-11.623 7.063-6.746 15.008-16.413 15.008-23.359V27.078h-35.487z"/><radialGradient id="a" cx="140.335" cy="-29.677" r="13.458" gradientTransform="matrix(1 0 0 -1 -47.6 50.01)" gradientUnits="userSpaceOnUse"><stop offset="0" stop-color="#ED1C24"/><stop offset="1" stop-color="#ED1C24" stop-opacity="0"/></radialGradient><circle opacity=".1" fill="url(#a)" cx="92.735" cy="79.687" r="13.458"/><radialGradient id="b" cx="173.735" cy="-29.677" r="13.46" gradientTransform="matrix(1 0 0 -1 -47.6 50.01)" gradientUnits="userSpaceOnUse"><stop offset="0" stop-color="#ED1C24"/><stop offset="1" stop-color="#ED1C24" stop-opacity="0"/></radialGradient><circle opacity=".1" fill="url(#b)" cx="126.135" cy="79.687" r="13.46"/><path opacity=".5" d="M86.963 63.775s-1.27 5.419 6.608 4.309c6.521-1.574 8.087-2.344 10.314-2.153-.447-.54-1.353-.811-1.353-.811s-6.652 1.278-9.405 1.111c-2.757-.166-6.164-2.456-6.164-2.456zm1.772-1.432s3.245-5.613 9.228-4.844c4.837.391 6.298 1.848 6.298 1.848s-4.062-.586-4.837-.307c1.901.87 3.491 4.109 3.208 4.969-.286.86-4.424-2.902-4.424-2.902l-9.473 1.236zm15.791-.809c1.795.369 1.741 3.291-.1 3.548.507-1.277.525-2.259.1-3.548z" fill="#F6A76A"/><path fill="#7C431F" d="M103.437 57.178c-2.744.331-5.374-.28-8.028-.878a35.483 35.483 0 0 0-4.875-.573 14.676 14.676 0 0 0-2.169.028c-.181.018-1.048.253-.978-.117.024-.129 1.308-.4 1.464-.426a35.465 35.465 0 0 1 2.287-.394c1.733-.206 3.489-.134 5.228-.073 1.688.06 3.246.284 4.816.931.33.134 2.509.988 2.255 1.502z"/><path fill="#D9AA8E" d="M103.125 65.016s-2.415-6.534-8.012-6.858c-6.796-.391-7.43 5.597-6.883 4.391 0 0 3.189-2.893 8.849-1.213 4.564 1.349 6.046 3.68 6.046 3.68z"/><path fill="#EACBBA" d="M94.462 58.555s-2.506.035-3.704.806c-1.193.762-1.737 2.177-1.737 2.177s2.552-.657 2.897-1.474c.32-.758 2.544-1.509 2.544-1.509z"/><path fill="#C78A66" d="M101.961 63.833c-1.229-2.293-2.433-3.695-4.352-4.754-1.078-.594-1.651-.682-1.651-.682s1.563.624 1.719 1.283c.123.512-1.099 1.009-1.099 1.009 1.562.787 1.924.865 2.904 1.331.668.317 2.479 1.813 2.479 1.813z"/><path fill="#fff" d="M88.232 62.815s.195 3.222 5.334 3.716c5.128.492 9.534-1.774 9.534-1.774s-2.702-3.285-7.822-3.825c-5.122-.54-7.046 1.883-7.046 1.883z"/><radialGradient id="c" cx="142.242" cy="108.876" r="2.697" gradientTransform="matrix(1 .018 .018 -1 -49.342 169.711)" gradientUnits="userSpaceOnUse"><stop offset="0" stop-color="#28353D"/><stop offset=".508" stop-color="#27323B"/><stop offset=".809" stop-color="#222A33"/><stop offset="1" stop-color="#1D2029"/></radialGradient><path fill="url(#c)" d="M94.748 61.028c-1.279-.212-1.965-.17-2.27.25a2.897 2.897 0 0 0 2.295 4.599 2.898 2.898 0 0 0 2.77-3.921c-.178-.465-1.824-.766-2.795-.928z"/><path fill="#212121" d="M93.247 62.82a1.567 1.567 0 0 0 1.542 1.591 1.562 1.562 0 0 0 1.587-1.536 1.563 1.563 0 0 0-1.534-1.595 1.574 1.574 0 0 0-1.595 1.54z"/><path d="M92.278 63.225a.575.575 0 1 0 .565-1.003.575.575 0 1 0-.565 1.003zm1.398-.661c.227.13.511.044.638-.179a.466.466 0 0 0-.177-.639.477.477 0 0 0-.641.178.47.47 0 0 0 .18.64z" fill="#fff"/><path fill="#1A1A1A" d="M103.1 64.757s-3.121-4.572-9.657-5.042c-5.193-.378-7.142 2.544-7.142 2.544l1.939.666s2.211-2.088 5.917-1.876c4.871.271 8.275 3.035 8.943 3.708z"/><path fill="#B76B2C" d="M101.938 65.303s-6.157 2.313-10.744.579c-2.337-.884-2.872-2.424-2.872-2.424s.228 2.526 3.429 3.117c5.419.994 10.187-1.272 10.187-1.272z"/><path opacity=".5" d="M131.909 63.775s1.269 5.419-6.609 4.309c-6.522-1.574-8.086-2.344-10.313-2.153.447-.54 1.353-.811 1.353-.811s6.652 1.278 9.405 1.111c2.755-.166 6.164-2.456 6.164-2.456zm-1.772-1.432s-3.246-5.613-9.229-4.844c-4.835.391-6.298 1.848-6.298 1.848s4.063-.586 4.836-.307c-1.9.87-3.49 4.109-3.207 4.969.287.86 4.426-2.902 4.426-2.902l9.472 1.236zm-15.791-.809c-1.796.369-1.74 3.291.1 3.548-.508-1.277-.525-2.259-.1-3.548z" fill="#F6A76A"/><path fill="#7C431F" d="M115.376 56.985c2.155-1.725 4.849-2.149 7.518-2.258 1.716-.07 3.461-.109 5.166.133.372.053 3.488.509 3.401.871-.039.161-3.049-.013-3.434.01a33.69 33.69 0 0 0-4.933.635c-1.599.332-3.121.744-4.76.841-.407.024-2.873.326-2.958-.232z"/><path fill="#D9AA8E" d="M115.745 65.016s2.416-6.534 8.012-6.858c6.798-.391 7.431 5.597 6.884 4.391 0 0-3.189-2.893-8.851-1.213-4.561 1.349-6.045 3.68-6.045 3.68z"/><path fill="#EACBBA" d="M124.409 58.555s2.507.035 3.704.806c1.193.762 1.738 2.177 1.738 2.177s-2.553-.657-2.897-1.474c-.321-.758-2.545-1.509-2.545-1.509z"/><path fill="#C78A66" d="M116.908 63.833c1.23-2.293 2.433-3.695 4.354-4.754 1.078-.594 1.65-.682 1.65-.682s-1.563.624-1.721 1.283c-.121.512 1.101 1.009 1.101 1.009-1.562.787-1.923.865-2.903 1.331-.668.317-2.481 1.813-2.481 1.813z"/><path fill="#fff" d="M130.639 62.815s-.195 3.222-5.334 3.716c-5.127.492-9.533-1.774-9.533-1.774s2.701-3.285 7.821-3.825c5.122-.54 7.046 1.883 7.046 1.883z"/><radialGradient id="d" cx="2460.887" cy="150.389" r="2.696" gradientTransform="rotate(180 1292.7 96.49)" gradientUnits="userSpaceOnUse"><stop offset="0" stop-color="#28353D"/><stop offset=".508" stop-color="#27323B"/><stop offset=".809" stop-color="#222A33"/><stop offset="1" stop-color="#1D2029"/></radialGradient><path fill="url(#d)" d="M124.122 61.028c1.278-.212 1.965-.17 2.271.25a2.897 2.897 0 0 1-2.295 4.599 2.896 2.896 0 0 1-2.768-3.921c.175-.465 1.82-.766 2.792-.928z"/><path fill="#212121" d="M125.624 62.82a1.567 1.567 0 1 1-1.597-1.54 1.574 1.574 0 0 1 1.597 1.54z"/><path d="M121.643 63.225a.582.582 0 0 0 .787-.221.576.576 0 0 0-.222-.782.575.575 0 1 0-.565 1.003zm1.397-.661a.47.47 0 0 0 .463-.818.475.475 0 0 0-.64.178.467.467 0 0 0 .177.64z" fill="#fff"/><path fill="#1A1A1A" d="M115.771 64.757s3.119-4.572 9.656-5.042c5.192-.378 7.141 2.544 7.141 2.544l-1.939.666s-2.212-2.088-5.917-1.876c-4.87.271-8.274 3.035-8.941 3.708z"/><path fill="#B76B2C" d="M116.932 65.303s6.158 2.313 10.746.579c2.336-.884 2.87-2.424 2.87-2.424s-.228 2.526-3.429 3.117c-5.418.994-10.187-1.272-10.187-1.272z"/><path fill="#AE8879" d="M107.594 80.963l.285.233c-.282-.296-.552-.582-.871-.839-.167-.134-1.327-.923-1.534-.588-.03.048 1.006.433 1.08.468.365.139.759.459 1.04.726z"/><path opacity=".2" fill="#F5B1A2" d="M106.031 80.297c-.772.84 1.711 1.986 2.314 1.888-.087-.717-1.452-2.835-2.314-1.888z"/><path opacity=".32" fill="#F5B1A2" d="M113.846 81.146c-.687-1.821-2.311-1.411-3.836-1.157-.873.144-1.59.035-2.438-.191-.875-.233-1.791-.312-2.439.433-.484.554.542.654.893.768.846.27 1.444.906 2.205 1.341 2.049 1.174 3.528-1.373 5.615-1.194-.037-.098-.802-.069 0 0z"/><path fill="#AE8879" d="M110.626 81.091l-.303.205c.305-.271.6-.538.937-.766.161-.109 1.441-.803 1.579-.454.022.04-1.036.345-1.112.37-.373.129-.793.393-1.101.645z"/><path opacity=".2" fill="#F5B1A2" d="M106.966 81.615c-.508-.533-1.255-1.06-2.028-.878.722-1.273 2.813.875 3.563 1.092.928.27 1.797-.142 2.61-.547.938-.466 1.838-.617 2.822-.2-.584.186-1.117.124-1.699.409-.621.302-1.178.711-1.784 1.039-1.354.721-2.514.117-3.484-.915zm5.289-1.155c.774.839-1.71 1.983-2.313 1.89.087-.718 1.453-2.838 2.313-1.89z"/><path opacity=".5" fill="#F6A76A" d="M109.515 82.846s-.026 2.392-1.267 2.34c-1.235-.054.341.407 1.088.201.748-.203.796-.571.179-2.541zM113.396 80.057s1.099-.413.883-1.492c-.215-1.08-.813-1.615-.813-1.615s.891.744.99 1.836c.099 1.087-1.06 1.271-1.06 1.271zm-8.453-.08s-1.1-.414-.886-1.491c.215-1.079.815-1.613.815-1.613s-.893.745-.991 1.832c-.099 1.09 1.062 1.272 1.062 1.272z"/><path opacity=".3" fill="#FDE9D7" d="M112.723 75.073s-.641-.275-.852-1.383c-.209-1.109-1.063-3.094-1.493-.51-.423 2.584-.315 3.877.616 3.548 1.371-.484 2.264-.13 2.314-.732.033-.38-.195-.727-.585-.923z"/><path fill="#B54A37" d="M106.211 87.27c3.991.382 9.757.247 11.553-.801 0 0-.664 1.761-1.635 3.09-1.338 1.831-3.458 2.362-7.009 2.29-5.466-.114-5.667.247-7.336-2.939-.202-.385-1.296-2.543-1.86-3.207-.001 0 2.354 1.194 6.287 1.567z"/><path fill="#fff" d="M115.745 88.333c-2.729 1.951-9.26 2.442-12.868.308-.268-.158-.494-.883-1.448-1.605l15.428-.598-1.112 1.895z"/><path fill="#FF5D47" d="M116.82 87.892c-.774 1.099-3.344 3.232-7.758 3.198-4.415.035-7.069-2.473-7.845-3.571-.329-.458-1.001-1.327-1.001-1.327.424 1.071 1.06 2.675 1.731 3.797 1.09 1.81 2.106 2.515 2.958 3.036a8.1 8.1 0 0 0 4.115 1.143h.084a8.117 8.117 0 0 0 4.117-1.143c.85-.521 1.867-1.22 2.957-3.032.67-1.124 1.307-2.728 1.729-3.798-.003-.001-.761 1.24-1.087 1.697z"/><path opacity=".58" fill="#fff" d="M111.837 92.687s-.286-.959-.026-1.364c.207-.319 1.397-.514 1.435-.282.104.643.661 1.291.063 1.599-.593.303-1.28.443-1.472.047z"/><path opacity=".43" fill="#fff" d="M110.191 93.006s-.291-1.112.215-1.185c.511-.075.954-.085.96.148.012.237.366 1.347-.078 1.419-.675.109-.955.025-1.097-.382z"/><path fill="#FF5D47" d="M118.43 85.688c-.352.261-1.052.509-2.496.331-2.764-.344-4.966-.255-6.848-.087-1.927-.249-4.185-.287-6.867.02-1.444.165-2.143-.091-2.491-.355 1.873 2.281 5.737 2.691 9.295 2.668v-.03h.084v.03c3.556.057 7.424-.316 9.323-2.577z"/><path fill="#B54A37" d="M118.691 85.426c-.448.163-.974.792-.974.792-1.278 1.505-5.827 1.875-7.086 1.868-.384 0-.89.023-1.463.044-.573-.021-1.079-.044-1.464-.044-1.258.007-5.805-.363-7.086-1.868 0 0-.525-.63-.972-.792-.622-.229-.91-.023-.388.303.181.114.511-.098 1.044.656.803 1.141 3.781 1.695 5.664 1.887.949.097 2.073.154 3.202.176a40.415 40.415 0 0 0 3.202-.176c1.881-.192 4.861-.746 5.666-1.887.531-.754.861-.542 1.045-.656.523-.327.232-.532-.39-.303z"/><path fill="#632205" d="M152.839 53.217c-.614 8.288-9.313 25.491-9.616 33.283-.301 7.792 5.365 12.637 5.365 12.637-12.045-1.619-12.854-15.366-12.854-15.366-3.639 3.429-7.889 4.542-7.889 4.542 11.029-7.587 11.838-30.444 3.141-38.141-8.699-7.683-15.174-6.668-15.174-6.668 14.569 8.903 15.777 16.889 15.777 16.889-6.875-9-18.413-11.03-27.316-12.744-8.903-1.716-13.458-9.001-13.458-9.001-1.511 1.207-3.333 5.051-5.667 13.35-2.319 8.299-4.239 11.235-3.635 19.825.604 8.601 9.303 15.585 9.303 15.585-7.286-.907-9.303-6.573-9.303-6.573.809 10.208 9.303 19.825 9.303 19.825-22.858-12.541-22.555-45.522-22.555-54.027 0-3.686.072-6.996.87-10.729.809-3.805 2.38-8.059 5.4-13.591a97.85 97.85 0 0 1 2.73-4.712C85.863 3.539 100.227 0 106.498 0c6.27 0 12.854 3.938 12.854 3.938 4.869.532 11.416 2.562 17.892 7.901.931.76 1.849 1.582 2.767 2.501 2.393 2.343 4.748 5.194 6.959 8.625 8.998 13.955 6.473 21.952 5.869 30.252z"/><path opacity=".1" fill="#fff" d="M140.699 15.137c-2.514 4.072-2.574 7.611-9.521 9.678l-.037.011c-9.592 2.887-15.402-7.068-23.545 1.993-.832.93-1.654 1.825-2.524 2.634-1.569 1.509-3.226 2.754-5.074 3.455-2.223.846-4.711.907-7.683-.313-13.651-5.558-15.053-1.583-23.184 3.309.809-3.805 2.38-8.059 5.4-13.591l.29-.339c1.995-.591 4.337-.64 7.104.073 10.414 2.646 13.881 8.19 22.108-.797 7.213-7.877 13.858-3.674 23.399-1.765 8.022 1.607 7.541-3.177 9.812-7.646.931.76 1.849 1.582 2.767 2.501.241.266.469.532.688.797z"/><path fill="#333" stroke="#232323" stroke-width=".5" stroke-miterlimit="10" d="M179.604 150.018l-.051-.082.021-.013s-10.483-26.138-18.714-29.012c-8.219-2.873-18.889-2.349-18.889-2.349s-9.003 6.539-9.003 12.808c0 14.755-23.5 21.139-23.5 21.139s-23.555-6.319-23.555-21.139c0-6.269-9.003-12.808-9.003-12.808s-10.671-.524-18.889 2.349c-8.219 2.874-18.714 29.012-18.714 29.012-6.17 11.37-10.278 54.295-4.614 68.974 8.999 0 20.812 1.01 20.812 1.01s-.041-27.598 3.328-44.479c-.415 3.152-.492 3.469.412 6.875.074.268.149.537.234.793.879 2.961 1.17 5.693 2.653 8.361 4.004 7.266 7.489 11.619 7.218 20.161-.013.307-.644 4.354-1.261 7.276h82.203s-.763-.961-.763-7.276c0-8.546 3.214-12.896 7.232-20.161 1.446-2.629 1.698-5.297 2.602-8.197.111-.318.199-.638.285-.957.896-3.423.811-3.726.404-6.92 3.402 16.866 3.355 44.616 3.355 44.616s11.811-1.01 20.813-1.01c5.663-14.678 1.553-57.602-4.616-68.971z"/><path opacity=".5" fill="#F6A76A" d="M98.865 81.882c-1.995-.554-3.319 2.75-4.406 3.902-.046-1.264.505-2.613 1.376-3.528.711-.753 2.285-1.534 3.03-.374zm20.237-.463c2-.554 3.321 2.75 4.406 3.903.049-1.268-.506-2.615-1.371-3.528-.715-.754-2.291-1.534-3.035-.375z"/><path fill="#E6E6E6" d="M92.582 144.023l17.234 48.024 15.013-48.024-15.362 8.344z"/><path fill="#fff" d="M124.988 109.294l-.998-2.98 12.994 3.4 20.42 40.477-18.265-13.205-30.044 16.299 25.932-32.073-7.774-7.939zm-31.065 0l.998-2.98-12.995 3.4-20.419 40.477 18.266-13.205 30.043 16.299-25.932-32.073 7.774-7.939z"/><circle fill="#333" cx="109.456" cy="158.296" r="1.881"/><circle fill="#333" cx="109.456" cy="168.034" r="1.881"/><circle fill="#333" cx="109.456" cy="177.771" r="1.881"/></svg>