<svg xmlns="http://www.w3.org/2000/svg" width="220" height="220" viewBox="0 0 220 220"><path fill="#FC9" stroke="#D09D6A" stroke-width=".616" stroke-miterlimit="10" d="M140.5 106.2l-25 39.3-6.8.5-2.5-.1-26.1-39.7c.3-.1.6-.2.8-.3 1.4-.5 2.6-1.1 3.8-1.7 3.4-1.7 5.9-4.1 7.7-6.4 2.1-2.7 3.1-8 3.1-11.5l-.1-13.7 28.4-.2.1 13.7c0 3.4 1.5 8.7 3.6 11.4 1.8 2.3 4.4 4.7 7.8 6.5 1.4.7 3 1.5 4.7 2 .1.1.3.2.5.2z"/><path opacity=".5" fill="#F6A76A" d="M124.3 88.7c-2.5 1.9-4.3 2-7.8 2.7-1.6.3-4.5 1.7-6.4 1.7-2.3 0-5.6-1.4-7.5-1.9-3.4-.8-5-1-7.3-2.8.1-1.1.2-2.2.2-3.1l-.1-13.7 28.4-.2.1 13.7c0 1.1.1 2.3.4 3.6z"/><path fill="#FC9" stroke="#D09D6A" stroke-width=".616" stroke-miterlimit="10" d="M143.1 43.6c-1.6-2.9-2.9-2.2-4-.2.8-15-6.6-33.6-28.7-33.8-22-.2-30.6 19-29.9 33.9-1.1-2.2-2.4-2.9-4.1 0-.8 1.4-1 2.6-.8 6.8.2 4.2 1.2 8.8 4 9 1.8.1 2.4.3 2.5-.9 2.7 9.5 8 20.3 18 25.1C103 85 106.3 87 110 87c3.1 0 5.8-1.8 8.3-2.8 10.8-4.3 16.3-15.4 19-25.4.2 1 .8.6 2.4.5 2.8-.2 3.7-4.8 4-9 .4-4.1.1-5.3-.6-6.7z"/><path fill="#FFB679" d="M78.4 46.5c-1.7.1-1 4.8-.7 6.4.3 1.6 1.9 2.6 2.8 2.2.9-.4 1.2-2.8.2-2.9-1-.1-1.6-.7-1.1-1.4s.8-4.4-1.2-4.3zm62.7 0c1.7.1 1 4.8.7 6.4-.3 1.6-1.9 2.6-2.8 2.2-.9-.4-1.2-2.8-.2-2.9 1-.1 1.6-.7 1.1-1.4-.6-.7-.9-4.4 1.2-4.3z"/><g fill="#632205"><path d="M114.1 35.3c.1.1.2.1.2.1-.1-.1-.1-.1-.2-.1z"/><path d="M142.2 22.7c-.4-2.9-5.4-14-9.3-16.6C129 3.4 118.7-.1 107.7 0c-11 .1-19.4 2.8-26.6 10.8 0 .5-6.4 9-6.9 11.3-.5 2.3 1 16.8 2.7 20.9 1.6 4.1 4.5 12.5 4.5 12.5s0-3 .3-13.6c.2-7.1 1.7-11.1 2.8-14.5l9.2 4-2.9-4.3 16.3 10.7-6.4-7.6c5 2.4 9.9 4.5 12.5 5.1-1.5-.8-10.9-9.1-10.9-9.1s1.7.4 4.3 1.1l11.4 8.9-2.8-6.5c9.3 2.7 20.2 6.2 20 7.9-.3 3.1 2.4 18 2.4 18s3.9-10.7 4.2-15c.4-2.9.9-15.1.4-17.9z"/></g><path opacity=".1" fill="#FFF" d="M128.3 11.8c-.3 1.3-.7 2.5-1.4 3.6-3.9-4.1-10-7.4-16.1-7.6 2.8 1.6 4.7 3.7 5.8 6.5-3.8-1-6.8-2.9-10.9-3.4-2.9-.3-4.9 0-7.9.6 3.2-.2 7.6.6 9.5 3-4.1.1-8.2-2.2-12.8-1.7-3 .2-6.5 1.5-9 3.3 7.8.5 15.4 1.8 22.8 4.3.7-1.4-1.5-2.8-2.6-3.6 6.3-.1 13.5 2.7 19.2 4.6-.4-1.9-1.2-3.8-2.6-5.3 3 1.6 5.3 4.1 7.8 6 .4-.8-.2-8.6-1.8-10.3z"/><path opacity=".5" fill="#F6A76A" d="M110.5 68.2s0 2.2-1.2 2.2c-1.1 0 .3.4 1 .2s.8-.6.2-2.4z"/><radialGradient id="a" cx="93.391" cy="55.323" r="14.703" gradientTransform="matrix(1 -.0071 .0071 1 -2.447 10.77)" gradientUnits="userSpaceOnUse"><stop offset="0" stop-color="#ED1C24"/><stop offset="1" stop-color="#ED1C24" stop-opacity="0"/></radialGradient><path opacity=".1" fill="url(#a)" d="M106 65.3c.1 8.1-6.5 14.8-14.6 14.8-8.1.1-14.8-6.5-14.8-14.6-.1-8.1 6.5-14.7 14.6-14.8 8.2 0 14.8 6.5 14.8 14.6z"/><radialGradient id="b" cx="131.977" cy="55.058" r="14.704" gradientTransform="matrix(1 -.0071 .0071 1 -2.447 10.77)" gradientUnits="userSpaceOnUse"><stop offset="0" stop-color="#ED1C24"/><stop offset="1" stop-color="#ED1C24" stop-opacity="0"/></radialGradient><path opacity=".1" fill="url(#b)" d="M144.6 64.8c.1 8.1-6.5 14.8-14.6 14.8s-14.8-6.5-14.8-14.6c-.1-8.1 6.5-14.7 14.6-14.8 8.1-.1 14.8 6.5 14.8 14.6z"/><path opacity=".2" fill="#F5B1A2" d="M109.3 65.7c2.4.2 5.2 1 5.3 1.3-3.1 1.5-9.6.7-9.4-.1.1-.6 2.6-1.3 4.1-1.2z"/><path fill="#AE8879" d="M113.6 66.2c.6 0 1.3.3 1.3.4 0 .1-.7 0-1.2.1-.3 0-1.4.3-1.4.2-.2-.1.9-.6 1.3-.7zm-7.2-.1c.7.1 1.5.6 1.4.7-.1.1-1-.2-1.4-.3-.4-.1-1.3 0-1.4-.1-.1-.1 1-.4 1.4-.3z"/><path opacity=".2" fill="#F5B1A2" d="M106.7 67.4c-.7-.7-1.7-1.4-2.7-1.2 1-1.7 3.8 1.1 4.8 1.4 1.2.3 2.4-.2 3.5-.8 1.2-.6 2.4-.8 3.8-.3-.8.3-1.5.2-2.3.6-.8.4-1.6 1-2.4 1.4-1.9 1-3.4.2-4.7-1.1-.7-.7.7.7 0 0z"/><path opacity=".5" fill="#F6A76A" d="M115.6 66.3s1.3-.5 1-1.8c-.3-1.3-1-1.9-1-1.9s1.1.9 1.2 2.1c.2 1.3-1.2 1.6-1.2 1.6zm-11.4 0s-1.3-.5-1.1-1.7c.2-1.3.9-1.9.9-1.9s-1 .9-1.1 2.2c-.1 1.2 1.3 1.4 1.3 1.4z"/><path opacity=".3" fill="#FDE9D7" d="M113.7 59.2s-.9-.4-1.2-1.9c-.3-1.6-1.5-4.3-2.1-.7-.6 3.6-.4 5.5.9 5 1.9-.7 3.2-.2 3.3-1.1 0-.6-.3-1.1-.9-1.3z"/><path fill="#FFAC81" d="M101.9 72.6c0-.3 2.7-1.1 3-1.2 1.6-.5 3.5-.7 5.1-.3 1.5-.4 3.4-.2 5.1.3.3.1 3.1.8 3 1.2-.2.8-16.4.9-16.2 0z"/><path fill="#FFAC81" d="M101.9 72.6c1.2 0 2.4.3 3.6.4 1.5.2 3 .2 4.5.2 1.5-.1 3-.1 4.4-.3 1.2-.2 2.4-.4 3.6-.4-3.5 4.7-12.3 4.6-16.1.1z"/><path fill="#B54A37" d="M109.9 73.4c-2.1 0-4.1-.1-6.2-.3-.9-.1-1.7-.3-2.2-1-.3-.4-.6-.4-1-.3-.2 0-.8-.1-.7-.3.1-.4 1.9.5 2.2.6.7.5 1.6.7 2.5.8 1.8.3 3.7.3 5.5.2 1.6 0 3.3 0 4.9-.2 1-.1 2.1-.2 3-.7.3-.2 2.3-1.3 2.4-.8.2.4-1 .3-1.2.3-.9.2-1.3 1.1-2.4 1.2-2.3.4-4.6.4-6.8.5-1.6 0 1.5 0 0 0z"/><path opacity=".5" fill="#F6A76A" d="M109.5 79.9c-.5-.4-.8-2.2.1-2.3.9-.1 1.9.1 2 .7.1.6-.5 1.3-.7 1.5-.2.2-1.2.6-1.4.4-.2-.2 0-.3 0-.3z"/><path fill="#83B23F" stroke="#66872D" stroke-width=".616" stroke-miterlimit="10" d="M191.9 196.4c-.9-19.4-.6-72.9-13.4-77.9-11.1-4.4-42.4-14.2-42.4-14.2L109.4 119l-26.7-14.7s-32.2 8-42.4 14.2c-13.9 8.4-12.5 58.5-13.4 77.9L25 220h28.8l3.5-41s5.4 24.9 2.5 41H159c-2.9-16.1 2.5-41 2.5-41l3.5 41h28.8l-1.9-23.6z"/><path fill="none" stroke="#66872D" stroke-width="3.693" stroke-miterlimit="10" d="M136.1 104.3L109.4 119l-26.7-14.7"/><path fill="#66872D" d="M40.1 119.2s.7.8 1.7 2.2c.5.7 1.1 1.6 1.8 2.6s1.4 2.2 2.1 3.5c.7 1.3 1.5 2.8 2.2 4.3.7 1.6 1.5 3.2 2.2 5 .3.9.7 1.8 1.1 2.7.3.9.7 1.8 1 2.8.7 1.9 1.2 3.8 1.8 5.7.5 1.9.9 3.9 1.4 5.8.4 1.9.7 3.9 1 5.7.3 1.9.4 3.7.6 5.4.2 1.7.2 3.3.3 4.8 0 1.5.2 2.9.1 4.1 0 1.2-.1 2.3-.1 3.2-.1 1.7-.1 2.7-.1 2.7s-.1-1-.4-2.7c-.1-.9-.2-1.9-.3-3.1-.1-1.2-.4-2.5-.6-4-.1-.7-.2-1.5-.3-2.3-.1-.8-.2-1.6-.4-2.4-.3-1.7-.6-3.4-.9-5.2-.4-1.8-.8-3.7-1.2-5.6-.5-1.9-.9-3.8-1.5-5.7-.6-1.9-1-3.8-1.7-5.6l-.9-2.7-.9-2.7c-.6-1.7-1.3-3.4-1.9-5-.6-1.6-1.2-3.1-1.8-4.4-.6-1.4-1.1-2.6-1.7-3.7-.5-1.1-1-2-1.4-2.8l-.9-1.8c-.2-.6-.3-.8-.3-.8zM178.4 119.2l-.3.6-.9 1.8c-.4.8-.9 1.7-1.4 2.8-.5 1.1-1.1 2.3-1.7 3.7-.6 1.4-1.2 2.8-1.8 4.4-.6 1.6-1.3 3.2-1.9 5l-.9 2.7-.9 2.7c-.6 1.8-1.1 3.7-1.7 5.6l-1.5 5.7c-.4 1.9-.8 3.8-1.2 5.6-.3 1.8-.6 3.6-.9 5.2-.2.8-.3 1.6-.4 2.4-.1.8-.2 1.6-.3 2.3-.2 1.5-.5 2.8-.6 4-.1 1.2-.3 2.3-.3 3.1-.2 1.7-.4 2.7-.4 2.7s-.1-1-.1-2.7c0-.9-.1-1.9-.1-3.2-.1-1.2 0-2.6.1-4.1.1-1.5.1-3.1.3-4.8.2-1.7.3-3.5.6-5.4.3-1.8.6-3.8 1-5.7.5-1.9.9-3.9 1.4-5.8.6-1.9 1.1-3.9 1.8-5.7.3-.9.6-1.9 1-2.8.3-.9.7-1.8 1.1-2.7.7-1.8 1.5-3.4 2.2-5 .8-1.5 1.5-3 2.2-4.3.7-1.3 1.4-2.5 2.1-3.5.6-1 1.3-1.9 1.8-2.6 1.1-1.3 1.7-2 1.7-2z"/><path fill="#632205" d="M85.9 44.2V44c0-.1.1-.4.2-.6.3-.5.9-1.1 1.7-1.6 1.6-1 4.1-1.6 6.5-1.6.6 0 1.2.1 1.8.2.6.1 1.2.2 1.7.4 1.1.3 2.1.8 2.9 1.3.8.5 1.3 1.1 1.7 1.5.2.2.3.4.4.5.1.1.1.2.1.2s-.3-.1-.8-.2c-.2-.1-.5-.1-.9-.2-.3-.1-.7-.1-1.1-.2-1.6-.2-3.7-.4-5.8-.4-2.1 0-4.2 0-5.8.2-.8.1-1.4.2-1.9.4-.2.1-.4.2-.5.3h-.2z"/><path fill="#FFF" d="M102.3 47.9c.2.8.5 1.6.1 2.3-.7 1.5-1.7 2.3-3.3 2.3-1.7.1-3.4-.1-5.1-.3-1.1-.1-2.6-.1-3.5-.8-.5-.4-2.3-1.8-2.1-2.8.3-1.1 2.3-1.8 3.4-2 2.2-.6 4.6-.6 6.8-.4 1.3.1 3.1.3 3.7 1.7z"/><radialGradient id="c" cx="554.447" cy="-100.726" r="2.864" gradientTransform="scale(-1 1) rotate(-2.287 3977.937 16253.322)" gradientUnits="userSpaceOnUse"><stop offset="0" stop-color="#28353D"/><stop offset=".508" stop-color="#27323B"/><stop offset=".809" stop-color="#222A33"/><stop offset="1" stop-color="#1D2029"/></radialGradient><path fill="url(#c)" d="M93.4 46.4c-.5.5-.8 1.2-.8 2-.1 1.7 1.2 3.1 2.9 3.2 1.7.1 3.1-1.3 3.2-2.9 0-.8-.2-1.5-.7-2-.7-.4-3.9-.5-4.6-.3z"/><path fill="#212121" d="M93.9 48.7c0 1 .8 1.9 1.8 2 1 0 1.9-.8 2-1.8 0-1-.8-1.9-1.8-2-1.1 0-2 .8-2 1.8z"/><path fill="#1A1A1A" d="M102.3 47.9s-.6-1.3-3.5-1.4c-3-.1-6.4.4-7.3.4-.9 0-3.2 1.7-3.2 1.7s1.1-2.2 3.2-2.7c1.9-.5 7.2-.5 8.6-.3 1.4.2 2.2 2.3 2.2 2.3z"/><path fill="#B76B2C" d="M101 52.1s-6.1 1.4-10.2-.8c-2.1-1.1-2.4-2.6-2.4-2.6s-.3 2.2 2.8 3.4c4.9 1.7 9.8 0 9.8 0z"/><path fill="#FFF" d="M92.9 48.9c.3.2.6.1.8-.2.2-.3.1-.6-.2-.8-.3-.2-.6-.1-.8.2-.1.3 0 .6.2.8zm1.4-.6c.2.1.5.1.6-.1.1-.2.1-.5-.1-.6-.2-.1-.5-.1-.6.1-.2.2-.1.5.1.6z"/><path fill="#632205" d="M133.6 44.2s-.1-.1-.2-.1c-.1-.1-.3-.2-.5-.3-.4-.2-1.1-.3-1.9-.4-1.6-.2-3.7-.2-5.8-.2-2.1 0-4.2.2-5.8.4-.4.1-.8.1-1.1.2-.3.1-.6.1-.9.2-.5.1-.8.2-.8.2s0-.1.1-.2.2-.3.4-.5c.3-.4.9-1 1.7-1.5.8-.5 1.8-1 2.9-1.3.6-.2 1.1-.3 1.7-.4.6-.1 1.2-.1 1.8-.2 2.4-.1 4.9.5 6.5 1.6.8.5 1.4 1.1 1.7 1.6.1.2.2.5.2.6v.3z"/><path fill="#FFF" d="M117.1 47.9c-.2.8-.5 1.6-.1 2.3.7 1.5 1.7 2.3 3.3 2.3 1.7.1 3.4-.1 5.1-.3 1.1-.1 2.6-.1 3.5-.8.5-.4 2.3-1.8 2.1-2.8-.3-1.1-2.3-1.8-3.4-2-2.2-.6-4.6-.6-6.8-.4-1.3.1-3 .3-3.7 1.7z"/><radialGradient id="d" cx="-3143.452" cy="-248.39" r="2.865" gradientTransform="rotate(-2.292 5945.608 -81958.958)" gradientUnits="userSpaceOnUse"><stop offset="0" stop-color="#28353D"/><stop offset=".508" stop-color="#27323B"/><stop offset=".809" stop-color="#222A33"/><stop offset="1" stop-color="#1D2029"/></radialGradient><path fill="url(#d)" d="M126 46.4c.5.5.8 1.2.8 2 .1 1.7-1.2 3.1-2.9 3.2-1.7.1-3.1-1.3-3.2-2.9 0-.8.2-1.5.7-2 .7-.4 3.9-.5 4.6-.3z"/><path fill="#212121" d="M125.6 48.7c0 1-.8 1.9-1.8 2-1 0-1.9-.8-2-1.8 0-1 .8-1.9 1.8-2 1.1 0 1.9.8 2 1.8z"/><path fill="#1A1A1A" d="M117.1 47.9s.6-1.3 3.5-1.4c3-.1 6.4.4 7.3.4.9 0 3.2 1.7 3.2 1.7s-1.1-2.2-3.2-2.7c-1.9-.5-7.3-.5-8.6-.3-1.3.2-2.2 2.3-2.2 2.3z"/><path fill="#B76B2C" d="M118.5 52.1s6.1 1.4 10.2-.8c2.1-1.1 2.4-2.6 2.4-2.6s.3 2.2-2.8 3.4c-5 1.7-9.8 0-9.8 0z"/><path fill="#FFF" d="M126.5 48.9c-.3.2-.6.1-.8-.2-.2-.3-.1-.6.2-.8.3-.2.6-.1.8.2.1.3 0 .6-.2.8zm-1.4-.6c-.2.1-.5.1-.6-.1-.1-.2-.1-.5.1-.6.2-.1.5-.1.6.1.2.2.1.5-.1.6z"/><g><path d="M92.3 150c-1.1 2.4-1.8 5.1-1.8 7.9 0 10.2 8.3 18.5 18.5 18.5 2.8 0 5.5-.6 7.9-1.8-4.2-2.9-8.8-6.9-13.3-11.3-4.4-4.5-8.4-9-11.3-13.3zm16.7-10.5c-2.8 0-5.5.6-7.9 1.8-.6.3-1.2.6-1.7.9-2.5 1.5-4.6 3.6-6.1 6.1.1.1.1.2.1.2 2.8 4.2 6.8 9.1 11.4 13.6 4.6 4.6 9.4 8.6 13.6 11.4.1 0 .2.1.2.2 2.5-1.5 4.6-3.6 6.1-6.1.3-.5.6-1.1.9-1.7 1.1-2.4 1.8-5.1 1.8-7.9.1-10.2-8.2-18.5-18.4-18.5z" fill="#FCDBA7"/><path fill="#FFF" d="M125.4 166.5l-.3.6c3.2 4.9 4.6 8.8 3.2 10.2-1.4 1.4-5.2.1-10.2-3.2-4.1-2.7-8.9-6.7-13.7-11.5-4.8-4.8-8.8-9.6-11.5-13.7-3.2-4.9-4.6-8.8-3.2-10.2 1.4-1.4 5.2-.1 10.2 3.2l.6-.3c-5.9-4.1-10.6-5.9-12.2-4.3-1.6 1.6.2 6.3 4.3 12.2 2.8 4.1 6.8 8.8 11.5 13.5 4.7 4.7 9.4 8.6 13.5 11.5 5.9 4.1 10.6 5.9 12.2 4.3 1.5-1.8-.3-6.4-4.4-12.3z"/></g></svg>