<svg xmlns="http://www.w3.org/2000/svg" width="220" height="220" viewBox="0 0 220 220"><path fill="#FC9" stroke="#D09D6A" stroke-width=".5" stroke-miterlimit="10" d="M41.6 150.5l2.3-2.2c.7-.7.6-2-.2-2.6l-6-5.2c-.5-.6-1.2-.5-1.8 0l-2.4 2.8c-.4.4-1.3.5-2 .4l-1.8-.3-5.8-1c-1 0-2 .7-2.2 1.7v.2c0 1 .6 2 1.7 2.2l1.6.2c.8 0 1 1 .5 1.5.7-.6-2.5 3-2.5 3-.8 1-1 2.3 0 3 .8.4 2 0 2.7-.7l-1 1.2c-1 1-.7 2.2.3 3 .8.5 1.7 0 2.3-.6l1-1c-1 .8-.6 2.5.4 3.2.8.5 2 0 2.5-.6l1.2-1.4c-.8 1-.8 2 .2 2.6.8.6 2 .4 2.6-.4l.4-.4c.3.3 2-1.6 6-8.5zm142.1 9.8l.4.4c.8.7 2 1 2.7.4 1-.6 1-1.7.2-2.5l1 1.4c.7.6 1.8 1 2.6.5 1-.7 1.3-2.4.5-3.3l1 1c.6.7 1.5 1 2.3.5 1-.7 1.2-2 .4-3l-1-1c.5.6 1.8 1 2.7.5 1-.7.7-2 0-3l-2.6-2.8c-.5-.6-.3-1.4.4-1.5l1.6-.3c1-.2 1.8-1.2 1.7-2.2-.2-1.2-1-2-2.2-1.7l-5.8 1-2 .2c-.5 0-1.4 0-1.8-.4l-2.4-2.7c-.6-.7-1.3-.8-2-.2l-5.8 5.2c-.8.7-.8 2 0 2.6l2.2 2.2c4.2 6.6 6 8.5 6 8.5zm-63.5-65.8s-25 4.6-21 0c2.4-3 3-9.5 3.2-13.7v-4s18.3-10 16 0l-.5 4.3c-.6 8 2.2 13.5 2.2 13.5z"/><path opacity=".5" fill="#F6A76A" d="M118.5 77.5l-.6 4.2c-3.8 1-6.4 1.8-7.4 1.8s-4-1-8.2-2v-4s18.3-10 16 0z"/><path fill="#FC9" stroke="#D09D6A" stroke-width=".5" stroke-miterlimit="10" d="M156.5 42.6c-5.2-10.2-9.6-5.2-10.4-4.3.5-2.8 1.3-12.2-4.8-21-11-14-28.3-14.2-31.6-14-3.3-.2-20.6 0-31.6 14-6 9-5.3 18.2-5 21-.6-1-5-6-10.3 4.3-2.6 7 5 13 7 14.3v1.3c1 6.5 2.8 16.3 23.7 19.5 8.6 1.5 14.7 3.7 16.3 3.7 1.6 0 7.7-2.2 16.3-3.7 21-3.2 22.8-13 23.6-19.5V57c1.8-1.4 9.5-7.3 7-14.4z"/><path fill="#FFB679" d="M67.5 41c-2 0-1 5.3-.8 7.2.3 1.8 2 3 3.2 2.5 1-.4 1.3-3.2.2-3.3-1 0-1.8-.8-1.2-1.5.4-1 .8-5-1.5-5zm84.2 0c2 0 1 5.3.8 7.2-.3 1.8-2 3-3.2 2.5-1-.4-1.4-3.2-.3-3.3 1 0 1.8-.8 1.2-1.5-.4-1-.8-5 1.5-5z"/><path opacity=".5" fill="#4F4849" d="M89.8 36.3c8.8-2.7 10.5 1.5 11.4 3-.4 0-7.2-3-7.7-3l-6 2.8c-.3.3-.6.8-1 1 1-1.4 2.4-3.4 3.3-3.7z"/><path fill="#B76B2C" d="M100.5 45.5s-6 3.5-10.8 1.6c-2.4-.8-3-2.7-3-2.7s0 3 3.6 3.7c5.5 1 10.2-2.5 10.2-2.5z"/><path fill="#FFF" d="M102.3 42.2c0 3.3-3.6 6-8 6-4.6 0-8.2-2.7-8.2-6 0-1.8 1.2-3.4 3-4.5 1.3-1 3.2-1.5 5.2-1.5s4 .6 5.3 1.5c1.7 1 2.8 2.7 2.8 4.5z"/><radialGradient id="a" cx="111.2" cy="56.1" r="7.1" gradientTransform="matrix(.841 0 0 .841 .687 -4.95)" gradientUnits="userSpaceOnUse"><stop offset="0" stop-color="#5F5F5F"/><stop offset=".4" stop-color="#5C5D5D"/><stop offset=".6" stop-color="#545556"/><stop offset=".7" stop-color="#46474A"/><stop offset=".9" stop-color="#32343A"/><stop offset="1" stop-color="#1D2029"/></radialGradient><path fill="url(#a)" d="M94.2 48c-3.3 0-6-2.6-6-5.8 0-3.3 2.7-6 6-6s6 2.8 6 6c0 3.3-2.7 6-6 6z"/><path fill="#212121" d="M94.2 46c-2 0-3.7-1.7-3.7-3.8 0-2 1.7-3.7 3.7-3.7S98 40 98 42.2c0 2-1.7 3.7-3.8 3.7z"/><path d="M89.2 43c.3.3.7.2 1 0 0-.4 0-.8-.3-1-.4-.2-.8 0-1 .2-.2.3 0 .7.2 1zm1.5-.6c.2.2.5 0 .7 0v-.8c-.3-.2-.6 0-.8 0-.2.4 0 .7 0 .8z" fill="#FFF"/><path fill="#F9AE87" d="M101.5 34S90 29 82.8 39c0 0 6.3-14 18.7-5z"/><path opacity=".5" fill="#4F4849" d="M131.6 36.3c-8.8-2.7-10.5 1.5-11.4 3 .4 0 7.2-3 7.7-3l5.8 2.8 1 1c-.8-1.4-2.3-3.4-3.2-3.7z"/><path fill="#B76B2C" d="M120.8 45.5s6 3.5 10.8 1.6c2.4-.8 3-2.7 3-2.7s0 3-3.6 3.7c-5.4 1-10.2-2.5-10.2-2.5z"/><path fill="#FFF" d="M119 42.2c0 3.3 3.7 6 8.2 6 4.5 0 8-2.7 8-6 0-1.8-1-3.4-2.7-4.5-1.4-1-3.3-1.5-5.3-1.5s-4 .6-5.3 1.5c-2 1-3 2.7-3 4.5z"/><radialGradient id="b" cx="150.4" cy="56.1" r="7.1" gradientTransform="matrix(.841 0 0 .841 .687 -4.95)" gradientUnits="userSpaceOnUse"><stop offset="0" stop-color="#5F5F5F"/><stop offset=".4" stop-color="#5C5D5D"/><stop offset=".6" stop-color="#545556"/><stop offset=".7" stop-color="#46474A"/><stop offset=".9" stop-color="#32343A"/><stop offset="1" stop-color="#1D2029"/></radialGradient><path fill="url(#b)" d="M127.2 48c3.3 0 6-2.6 6-5.8 0-3.3-2.7-6-6-6s-6 2.8-6 6c0 3.3 2.7 6 6 6z"/><path fill="#212121" d="M127.2 46c2 0 3.7-1.7 3.7-3.8 0-2-1.8-3.7-3.8-3.7-2 0-3.7 1.6-3.7 3.7 0 2 1.6 3.7 3.7 3.7z"/><path d="M122 43c.2.3.6.2.8 0 .2-.4 0-.8-.2-1-.3-.2-.7 0-1 .2 0 .3 0 .7.3 1zm1.4-.6c.2.2.5 0 .7 0 .2-.3.2-.6 0-.8-.2-.2-.5 0-.7 0-.2.4 0 .7 0 .8z" fill="#FFF"/><path fill="#F9AE87" d="M120 34s11.3-4.8 18.6 5c0 0-6.3-14-18.7-5z"/><path fill="#FFE9C7" d="M111.6 47.4c-1.6-.5-3.2.3-4.2.8-1.2.7-2.7 1.6-2 3.2.5 1 6 .5 6.4.4 1.6-.3 3-1.8 1.3-3.4-.3-.5-.8-1-1.4-1z"/><path opacity=".5" d="M114.7 54.4s1.3-.5 1-1.8c-.2-1.3-1-2-1-2s1.2 1 1.3 2.3c0 1.2-1.3 1.4-1.3 1.4zm-10.2.1s-1.4-.5-1-2c.2-1.3 1-2 1-2s-1.2 1-1.4 2.4c0 1.3 1.5 1.5 1.5 1.5z" fill="#F6A76A"/><path opacity=".2" fill="#F5B1A2" d="M116 54.3c-1-2.7-3.3-2-5.5-1.7-1.3.2-2.3 0-3.6-.3-1.4-.3-2.7-.5-3.7.6-.7.7.8 1 1.3 1 1.2.4 2 1.3 3.2 2 3 1.8 5.2-2 8.3-1.7 0-.2-1 0 0 0z"/><path fill="#AE8879" d="M107 54l.3.3c-.4-.4-.8-1-1.3-1.2-.2 0-2-1.3-2.3-.8l1.6.7c.6.2 1.2.6 1.6 1zm4.3.2l-.4.3c.4-.4.8-.8 1.3-1 .2-.3 2-1.3 2.3-.8l-1.6.5c-.6.2-1.2.6-1.7 1z"/><path opacity=".2" fill="#F5B1A2" d="M106 55c-.7-.8-1.8-1.6-3-1.3 1-2 4 1.3 5.2 1.6 1.4.4 2.6-.2 3.8-.8 1.4-.7 2.7-1 4-.3-.8.3-1.5.2-2.4.6-1 .4-1.7 1-2.6 1.5-2 1-3.6.2-5-1.3-.8-.8.8.8 0 0z"/><path opacity=".2" fill="#F5B1A2" d="M113.7 53.3c1 1.2-2.5 3-3.4 2.8.2-1 2.2-4 3.4-2.7zm-9.1-.3c-1 1.2 2.5 3 3.4 2.8 0-1-2-4.2-3.4-2.8z"/><path fill="#F9AE87" d="M120.8 60.3c-.5.2-1.2 1-1.2 1-1.5 2-7 2.4-8.5 2.4h-3.5c-1.5 0-7-.5-8.5-2.4 0 0-.6-.8-1.2-1-.7-.3-1 0-.5.4.2 0 .6 0 1.3 1 1 1.4 4.5 2 6.8 2.4 1 .2 2.5.3 3.8.3 1.4 0 2.7 0 3.8-.2 2.3 0 5.8-1 6.8-2.4.6-1 1-.7 1.3-1 1-.3.6-.6-.2-.3z"/><path fill="#B54A37" d="M119.4 62.2c-.5 1.3-1 3-1.8 4.4 0 .2-.2.3-.3.5-1 2-2.2 2.8-3 3.4-1.4 1-3 1.4-4.8 1.4-1.8 0-3.5-.6-4.8-1.4-.8-.5-1.7-1.2-2.7-2.6l-.7-1.2c-.8-1.4-1.5-3.4-2-4.7l2.4-.3c2-.2 3.8-.3 5.4-.2 1 0 1.6 0 2.3.2h2.2c1.8-.2 3.7 0 6 .2 1.6 0 2.3 0 2 .2z"/><path fill="#FF5D47" d="M117.3 67c-1 2-2.2 2.7-3 3.3-1.4 1-3 1.4-4.8 1.4-1.8 0-3.5-.6-4.8-1.4-.8-.5-1.7-1.2-2.7-2.6 2-1 5-1.5 8.6-1.5 2.6 0 5 .3 6.7.8z"/><path fill="#FFF" d="M109.4 61.5V63c0 .3-.3.6-.6.6h-1c-.4 0-.7-.3-.7-.6v-1.7c1 0 1.7 0 2.4.2zm2.3-.1V63c0 .4-.3.7-.6.7h-1c-.3 0-.6-.3-.6-.6v-1.4h.2l2-.2z"/><ellipse transform="rotate(13.688 92.517 50.596)" fill="#FC9" cx="92.5" cy="50.6" rx="9.9" ry="4.7"/><ellipse transform="rotate(166.312 129.896 50.597)" fill="#FC9" cx="129.9" cy="50.6" rx="9.9" ry="4.7"/><radialGradient id="c" cx="101.3" cy="75.9" r="19.3" gradientTransform="matrix(.841 0 0 .841 .687 -4.95)" gradientUnits="userSpaceOnUse"><stop offset="0" stop-color="#ED1C24"/><stop offset="1" stop-color="#ED1C24" stop-opacity="0"/></radialGradient><circle opacity=".1" fill="url(#c)" cx="85.9" cy="58.9" r="16.2"/><radialGradient id="d" cx="156.7" cy="75.9" r="19.3" gradientTransform="matrix(.841 0 0 .841 .687 -4.95)" gradientUnits="userSpaceOnUse"><stop offset="0" stop-color="#ED1C24"/><stop offset="1" stop-color="#ED1C24" stop-opacity="0"/></radialGradient><circle opacity=".1" fill="url(#d)" cx="132.5" cy="58.9" r="16.2"/><g fill="#F6A76A"><path opacity=".5" d="M97.2 57c-1-.2-1.7.5-2.3 1.3-.8.7-1.3 1.7-2 2.4 0-1 .4-2.4 1.2-3.3.7-.7 2.2-1.5 3-.4zm24.8.3c1-.2 1.7.5 2.3 1.2.7.8 1.2 1.7 2 2.5 0-1-.5-2.4-1.3-3.3-.7-.8-2-1.6-3-.4z"/></g><g fill="#632205"><path d="M97 5c6-10.2 19.5-3 14.4 7.5C108 6 103.8 4.2 97 5c1-2.2.5-.2 0 0z"/><path d="M124.3 5.6c-5.5-9.4-17.6-5.2-12.4 5.6 2.7-6 6.4-7 12.3-5.6-1.2-2-.5 0 0 0z"/></g><g><path fill="#C16B40" d="M189.7 144.6c0 .2 0 .3-.2.4l-9.6 10-.4.2-.6.3c-.2 0-.4 0-.5-.2l-32.8-25.5c1 6.5 4.7 29 3.6 54l-.4 12.6c-.3 8.5-.5 16.6-1.3 23.7H118c-.3-5-.2-10.4-.2-15 0-4.4 0-8.2-.2-10.6-1.2-11-3-14.4-8.2-14.4-5.2 0-7 3.2-8.4 14.3-.3 2.5-.3 6.2-.3 10.5 0 4.7 0 10-.4 15.3H71c-.8-7-1-15-1-23.5 0-4.3 0-8.8-.2-13.3-.7-24.8 3-47.5 4.3-54l-33 25.2-.5.2c-.2 0-.5 0-.6-.3l-.4-.3-9.4-10-.2-.5v-.7c.2-.2 11.4-17.8 26-34.2 15-16.6 19-17.4 19.7-17.4l22.8-4.7 3.3-2.6h1c.2 0 4 2.6 8.7 2.6 2.2 0 4.3-.6 6.2-1.7 0-.2.2-.2.4-.2h.5l4 2.3 22.4 4.8c.3 0 1.6.5 4.6 2.8 3 2.4 7.6 6.7 14.5 14.7 14.7 16.8 25.6 34.4 25.7 34.6v.6z"/><path fill="#F18931" d="M148.4 183.7c-.6 13-.5 26-1.6 36.3h-28c-.6-10 .3-20.6-.3-25.8-1.2-11.4-3.3-15-9-15s-8 3.6-9.2 15c-.6 5 0 15.8-.7 25.8H71.8c-1-10.5-.7-23.7-1-37-.4-8.5 0-16.8.5-24.2 0-2 .3-4 .5-5.7 1.4-15.3 3.7-25.8 3.7-25.8 9.5-15.7.2-35 .2-35l23-4.8c1 .8 1.8 1.5 2.7 2 5.4 3.7 11.8 4 17.4 1 1-.7 2.2-1.5 3.2-2.4l22.7 4.7s-5.7 11.5-4 24c0 .7.2 1.3.3 2 0 .3 0 .7.2 1 .2 1 .5 2 1 3 0 .7.4 1.3.7 2 .3 1 .8 2 1.4 3 0 0 2 10.5 3.4 26v.2c0 1.7.3 3.5.4 5.4.4 7.4.6 15.7.2 24.3z"/><path fill="#FBCA6B" d="M75.6 92.2s-4 .3-19 17c-14.8 16.5-26 34-26 34l9.8 10.4 35-26.5c9.5-15.5.2-34.8.2-34.8z"/><path fill="#AF592A" d="M40.5 153.7l3.3-2.5-10.5-11.7-2.5 3.8"/><path fill="#FBCA6B" d="M144.7 92.7s4 .4 18.7 17.2c14.6 16.7 25.5 34.4 25.5 34.4l-10 10.2-34.6-27c-9.3-15.7.3-35 .3-35z"/><path fill="#AF592A" d="M179 154.6l-3.5-2.7 11-11c2 2 2.4 3.4 2.4 3.4l-10 10.2zM122 88l-4-2.2c-7.6 4.5-15.8-1-15.8-1l-3.4 2.8c7 6.3 16 6.7 23.2.4z"/><g fill="#AF592A"><circle cx="110.7" cy="98.6" r="1.4"/><circle cx="110.5" cy="114.9" r="1.4"/><circle cx="110.4" cy="131.2" r="1.4"/></g><path fill="#FBCA6B" d="M147.8 153.6s-6.8-2.4-9.4-7.2c-4-7-7-9.4-28.5-9.6-21.5 0-24.8 2.3-28.7 9.2-2.7 4.8-9.5 7-9.5 7l-.6 6c.3-.2 10.4-4.4 14-10.6 2.7-4.7 4-7 24.8-7 20.8.2 22 2.6 24.7 7.4 3.5 6.3 13.5 10.6 13.8 10.7l-.7-6z"/></g></svg>