<svg xmlns="http://www.w3.org/2000/svg" width="220" height="220" viewBox="0 0 220 220"><path fill="#FC9" stroke="#D09D6A" stroke-width=".5" stroke-miterlimit="10" d="M145.2 104l-.8 22.5-34.2 1.2H109l-34.2-1.2L74 104c0-1 7.7-3 8.6-3.3 2-.7 4.5-.8 6.3-2 2.4-2 2-4.4 2-7.2l.2-3.5.2-4.6h36.2l.3 4.6v4c0 2.6-.2 5 2.2 6.6 1.8 1.3 4.3 1.4 6.3 2 1 .4 8.7 2.3 8.7 3.3z"/><path opacity=".5" fill="#F6A76A" d="M128.2 92c-.8.6-1.6 1-2.5 1.5-4.6 3.6-12.2 4.7-12.2 4.7h-6.7s-7.6-1-12.2-4.7l-3.5-2 .3-3.6 3.3 1.8c4.6 3.6 12.2 4.7 12.2 4.7h6.7s7.6-1 12.2-4.7l2.3-1.4v3c.2.3.2.5.2.7z"/><path fill="#FC9" stroke="#D09D6A" stroke-width=".5" stroke-miterlimit="10" d="M148 44.4c-1-.3-3.2.3-5 2.2 1.5-17.6-12-35-12-35H87.3S73.8 29 75.2 46.7c-1.8-1.8-3.8-2.4-4.8-2.2-2 .5-3.7 3.4 0 10 3.5 6.8 5.7 15 7.8 14 .3 0 1.8.8 2 .6 3.5 10.8 5.4 16.8 14 22 4 3.4 11.3 3.2 11.3 3.2h7.3s7.5.2 11.3-3.2c8.7-5.2 10.6-11.2 14-22 .3.3 1.8-.7 2-.6 2.2 1 4.4-7 8-14 3.6-6.6 2-9.4 0-10z"/><path fill="#632205" d="M82.4 50c0-.2 0-.5.3-.7.3-.5 1-1 2-1.5.8-.5 2-.8 3-1 1.3-.3 2.6-.5 4-.4h1.8l1.8.4c1.2.3 2.2.7 3 1.2 1 .5 1.6 1 2 1.4l.4.5-.7-.2-2-.6-1.5-.3c-.5-.2-1-.3-1.6-.3l-3.6-.2H88l-3 .5c-1 .2-1.7.4-2 .7-.3 0-.5.3-.6.4z"/><path fill="#FFF" d="M100.4 54c.2 1 .5 1.8.2 2.6-.7 1.6-2 2.5-3.6 2.6-2 0-3.7 0-5.6-.4-1.2 0-2.8 0-3.8-.8-.6-.4-2.6-2-2.3-3 .3-1.4 2.6-2 3.7-2.3 2.4-.7 5-.7 7.4-.5 1.4 0 3.3.4 4 2z"/><radialGradient id="a" cx="556.8" cy="-94.3" r="3.1" gradientTransform="scale(-1 1) rotate(-2.287 3977.722 16256.358)" gradientUnits="userSpaceOnUse"><stop offset="0" stop-color="#28353D"/><stop offset=".5" stop-color="#27323B"/><stop offset=".8" stop-color="#222A33"/><stop offset="1" stop-color="#1D2029"/></radialGradient><path fill="url(#a)" d="M90.7 52.5c-.5.6-1 1.3-1 2.2 0 1.8 1.5 3.4 3.3 3.5 1.8 0 3.4-1.4 3.5-3.2 0-.8-.2-1.6-.7-2.2-.8-.5-4.4-.5-5-.3z"/><path fill="#212121" d="M91.2 55c0 1 .8 2 2 2 1 0 2-.7 2-2 0-1-.7-2-2-2-1 0-2 .8-2 2z"/><path fill="#1A1A1A" d="M100.4 54s-.6-1.3-4-1.4c-3 0-7 .5-7.8.4-1 0-3.5 2-3.5 2s1.3-2.4 3.5-3c2-.7 8-.7 9.4-.5 1.4.3 2.4 2.6 2.4 2.6z"/><path fill="#B76B2C" d="M99 58.7s-6.7 1.5-11.2-1c-2.3-1-2.6-2.8-2.6-2.8s-.3 2.3 3 3.6c5.4 2 10.7 0 10.7 0z"/><path fill="#FFF" d="M90.2 55.2c.3.2.6 0 .8-.2.2-.3 0-.6-.2-.8-.3-.2-.6 0-.8.2-.2.2 0 .6.2.8zm1.5-.6c.2 0 .5 0 .7-.2 0-.2 0-.5-.2-.7h-.7c0 .4 0 .7.2 1z"/><path fill="#632205" d="M135.8 50l-.6-.5c-.4-.3-1-.5-2-.7l-3-.4h-7c-.5.2-1 .2-1.6.3-.5 0-1 .2-1.4.3l-2 .6-1 .3.2-.3.4-.5c.4-.4 1-1 2-1.4.8-.5 1.8-1 3-1.2l1.8-.3h2c1.2 0 2.5 0 3.7.2 1.2.2 2.3.6 3.2 1 1 .5 1.5 1 2 1.6l.2.7v.4z"/><path fill="#FFF" d="M118 54c-.3 1-.6 1.8-.3 2.6.7 1.6 2 2.5 3.6 2.6 2 0 3.7 0 5.6-.4 1 0 2.7 0 3.7-.8.6-.4 2.6-2 2.3-3-.3-1.4-2.6-2-3.7-2.3-2.4-.7-5-.7-7.4-.5-1.5 0-3.4.4-4 2z"/><radialGradient id="b" cx="-3142.3" cy="-242" r="3.1" gradientTransform="rotate(-2.287 5937.859 -81964.333)" gradientUnits="userSpaceOnUse"><stop offset="0" stop-color="#28353D"/><stop offset=".5" stop-color="#27323B"/><stop offset=".8" stop-color="#222A33"/><stop offset="1" stop-color="#1D2029"/></radialGradient><path fill="url(#b)" d="M127.6 52.5c.5.6 1 1.3 1 2.2 0 1.8-1.5 3.4-3.3 3.5-1.8 0-3.4-1.4-3.5-3.2 0-.8.2-1.6.7-2.2.8-.5 4.3-.5 5-.3z"/><path fill="#212121" d="M127 55c0 1-.7 2-2 2-1 0-2-.7-2-2 0-1 .8-2 2-2 1 0 2 .8 2 2z"/><path fill="#1A1A1A" d="M118 54s.5-1.3 3.8-1.4c3.2 0 7 .5 8 .4 1 0 3.4 2 3.4 2s-1.2-2.4-3.4-3c-2-.7-8-.7-9.4-.5-1.6.3-2.5 2.6-2.5 2.6z"/><path fill="#B76B2C" d="M119.3 58.7s6.6 1.5 11-1c2.4-1 2.7-2.8 2.7-2.8s.3 2.3-3 3.6c-5.4 2-10.7 0-10.7 0z"/><path fill="#FFF" d="M128 55.2c-.2.2-.5 0-.7-.2-.2-.3 0-.6.2-.8.3-.2.6 0 .8.2 0 .2 0 .6-.2.8zm-1.4-.6c-.2 0-.5 0-.7-.2-.2-.2-.2-.5 0-.7h.8c0 .4 0 .7-.2 1z"/><path opacity=".2" fill="#F5B1A2" d="M108.5 69c2.4.3 5.2 1.2 5.3 1.5-3 1.5-9.7.7-9.5-.2.2-.5 2.7-1.3 4.2-1.2z"/><path fill="#AE8879" d="M112.8 69.7c.6 0 1.3.3 1.3.4 0 .2-.6 0-1 .2-.4 0-1.5.3-1.6.2 0-.2 1-.7 1.4-.7zm-7.2-.2c.7 0 1.5.6 1.4.7l-1.4-.3c-.4-.2-1.3 0-1.4-.2 0 0 1-.4 1.4-.3z"/><path opacity=".2" fill="#F5B1A2" d="M106 70.8c-.8-.7-1.8-1.4-2.8-1.2 1-1.7 3.8 1.2 4.8 1.5 1.2.5 2.4 0 3.5-.6 1.2-.6 2.5-.8 3.8-.3l-2.3.6-2.4 1.4c-2 1-3.4.2-4.7-1.2-.8-.7.6.8 0 0z"/><path opacity=".5" fill="#F6A76A" d="M115 69.7s1.2-.5 1-1.8c-.4-1.4-1-2-1-2s1 1 1 2.2c.2 1.3-1 1.5-1 1.5zm-11.6 0s-1.3-.5-1-1.8c.3-1.4 1-2 1-2s-1 1-1.2 2.2c-.2 1.3 1.2 1.5 1.2 1.5z"/><path opacity=".3" fill="#FDE9D7" d="M113 62.6s-1-.4-1.2-2c-.3-1.6-1.5-4.4-2-.7-.7 3.6-.5 5.4.8 5 2-.8 3.2-.3 3.3-1 0-.6-.5-1-1-1.4z"/><path fill="#F9AE87" d="M119.6 75.7c-.5.2-1 1-1 1-1.5 1.8-6.5 2.3-8 2.3h-3c-1.4 0-6.4-.4-7.8-2.3 0 0-.6-.8-1-1-.8-.3-1 0-.5.4.2.2.6 0 1 1 1 1.3 4.2 2 6.3 2.2l3.5.2c1.2 0 2.5 0 3.5-.2 2-.2 5.3-1 6.2-2.3.6-1 1-.8 1-1 .8-.4.5-.6 0-.3z"/><path fill="#B54A37" d="M118.5 77.2c-.4 1-1 2.4-1.7 3.4l-.3.4c-1 1.5-2 2.2-3 2.7-1 .7-2.7 1-4.3 1-1.7 0-3.3-.4-4.5-1-.7-.4-1.6-1-2.5-2l-.7-1-2-3.8 2.4-.4c1.8-.2 3.5-.3 5-.2.7 0 1.4 0 2 .2h2.3c1.5-.2 3.3 0 5.3 0 1.6.4 2.2.4 2 .6z"/><path fill="#FF5D47" d="M116.5 81c-1 1.6-2 2.3-3 2.8-1 .7-2.7 1-4.3 1-1.7 0-3.3-.4-4.5-1-.7-.4-1.6-1-2.5-2 1.8-.8 4.8-1.3 8-1.3 2.4 0 4.6.2 6.3.6z"/><path fill="#FFF" d="M118.4 77.2L100 77s-1 2 8.6 2h1c9.6 0 8.8-1.8 8.8-1.8z"/><path fill="#FFAC81" d="M99.6 77l3.5-.5c2-.3 4.2-.4 6 0 2-.4 4-.2 6 0 .3.2 3.6.5 3.6.6 0 1-19 1-19 0z"/><path opacity=".5" fill="#F6A76A" d="M110 72.8s0 3-1.7 3c-1.6 0 .4.5 1.4.3 1-.2 1-.7.2-3.2z"/><path fill="#FFB679" d="M73.3 54.4c-1.3.6 1.2 5.3 2 7 1 1.5 2.7 2 3.3 1.2.6-.7-.2-3.4-1-3-1 0-1.6-.3-1.5-1 .2-1-1-5-2.7-4.2zm71.9-2.4c1.4.5-.6 5.4-1.4 7-.8 1.8-2.4 2.4-3 1.8-.8-.6-.3-3.4.6-3.2 1 .2 1.6-.4 1.4-1.2-.2-1 .7-5 2.4-4.4z"/><radialGradient id="c" cx="90.7" cy="76.8" r="16.8" gradientUnits="userSpaceOnUse"><stop offset="0" stop-color="#ED1C24"/><stop offset="1" stop-color="#ED1C24" stop-opacity="0"/></radialGradient><circle opacity=".1" fill="url(#c)" cx="90.7" cy="76.8" r="16.8"/><radialGradient id="d" cx="128.9" cy="76.8" r="16.8" gradientUnits="userSpaceOnUse"><stop offset="0" stop-color="#ED1C24"/><stop offset="1" stop-color="#ED1C24" stop-opacity="0"/></radialGradient><circle opacity=".1" fill="url(#d)" cx="128.9" cy="76.8" r="16.8"/><g><path fill="#FC9" stroke="#D09D6A" stroke-width=".5" stroke-miterlimit="10" d="M67.4 127.4l-1 5.8-4.4 29v.2l-.3 2.2-.3 2-.4 2.2v.2s-3.4 18.2-6 25.6c0 .3 0 .6-.2 1-1.3 3.4-3.6 11.4-5.4 18.3l-1.7 6H31l1-21.2s1.7-14.6 2.6-18.6c1-4 3.6-11.4 3.6-11.4l3-13 .3-1.8 4.8-22c1-5.6 5-10.8 5.2-11.2l16 6.6z"/><path fill="#FFB679" d="M67.4 127.4l-1 5.8-4.4 29v.2l-.3 2.2-.3 2-.4 2.2v.2s-3.4 18.2-6 25.6c0 .3 0 .6-.2 1-1.3 3.4-3.6 11.4-5.4 18.3l-1.7 6h-2l2-6.8c.4-2 1-4 1.6-6.2 1.4-5 2.8-9.7 3.7-12.2l.3-1c2.5-7.3 6-25.5 6-25.5l.2-2.3.5-2 .7-4.3 4-25.3.2-2 .8-5.7-14.2-6 15.8 6.7z"/><path fill="#FFB679" d="M66.5 133.2L61 168.8l-6 25.7c0 .3 0 .6-.2 1-1.3 3.4-3.6 11.4-5.4 18.3-.2-2-.2-4.5 0-5.7 1-12.7 7.8-33.8 8.8-50.6 1-17.6 4.4-22.4 8-24.3.2 0 .2 0 .3.2z"/><path fill="#FC9" stroke="#D09D6A" stroke-width=".5" stroke-miterlimit="10" d="M188.8 220H172l-1.6-6.2c-2-7-4-15-5.4-18.4l-.3-1c-2.5-7.3-6-25.5-6-25.5v-.3l-.2-2.3-.3-2-.3-2v-.3l-4.6-29-1-5.8 16-6.6c.3.4 4.2 5.6 5.2 11 .5 3 2.8 13.3 4.8 22.2 0 .6.3 1 .4 1.7l3 13s2.6 7.4 3.6 11.5c1 4 2.5 18.6 2.5 18.6l.8 21.4z"/><path fill="#FFB679" d="M174 220h-2l-1.6-6.2c-2-7-4-15-5.4-18.4l-.3-1c-2.5-7.3-6-25.5-6-25.5v-.3l-.2-2.3-.3-2-.3-2v-.3l-4.6-29-1-5.8 16-6.6-14.2 6 1 5.7.2 2 4 25.2.6 4.3.3 2 .3 2v.2s3.4 18.2 6 25.6c0 .3 0 .6.2 1 1 2.4 2.3 7.2 3.7 12.2.6 2 1 4 1.7 6 .6 3 1.3 5.3 1.8 7.2z"/><path fill="#FFB679" d="M153.3 133.2l5.5 35.6 6 25.7c0 .3 0 .6.2 1 1.3 3.4 3.6 11.4 5.4 18.3.2-2 .2-4.5 0-5.7-1-12.7-7.8-33.8-8.8-50.6-1-17.6-4.4-22.4-8-24.3-.2 0-.2 0-.3.2z"/><path fill="#FBCA6B" stroke="#A57932" stroke-width=".5" stroke-miterlimit="10" d="M180.3 153.5l-1.6 2.2c-3.6 3.7-11 7.2-16.3 9.4l-2.2 1-1.7.6-1.5.5-.5 4.3v14.1c0 9.8.7 22 1.4 34.6H62c1-13 1.5-24.6 1.5-37.5 0-7-.2-12.4-.7-15.4 0 0-.5 0-1.5-.4l-1.7-.6-2.2-1c-5-2-12.6-5.5-16.3-9.3-.6-.7-1.2-1.5-1.5-2.2V152c1.2-14.3 9.2-35.7 12-39.8 1-1.3 4-5 6.4-6.5 7.5-4.3 16-6.4 24.8-6.4H87S97 113 109.4 113c14.4 0 21.6-11 23.3-13.6h4.2c8.6 0 17.2 2.2 24.8 6.5 2.4 1.4 5.6 5 6.4 6.4 2.8 4 10.8 25.3 12 39.7v1.8z"/><path fill="none" stroke="#A57932" stroke-width="3" stroke-miterlimit="10" d="M86 99.4c2.2 2.8 11 13.3 23.5 13.3 14.4 0 22.7-11 24.5-13.6"/><path fill="#A57932" d="M157 165v2s20-6.8 23.3-13.6v-1.8C176.4 158.4 157 165 157 165zm-94.2 0s-19.5-6.7-23.2-13.4v1.8c3.3 6.8 23.2 13.6 23.2 13.6v-2z"/><g fill="#A57932"><path d="M64 220h-2c1-13 1.5-24.6 1.5-37.5 0-.8 0-1.6.2-2.4l.8-11.6v-1.2 1.6l-.4 51.2z"/><path d="M64 189.8s0-2.4-.3-6l-.8-13-.4-3.4c0-.6 0-1-.2-1.7v-.8c-.2-.3-.2-.6-.3-1-.2-1-.7-2-1-2.8l-1.4-2.6-2.7-5.3s1.4 1.8 3.3 4.8l1.4 2.6c.5 1 1 2 1.3 3l.2 1v.8l.2 1.7v3.6c.3 4.7.4 9.5.4 13l.2 6.2z"/><path d="M62 162s.6.6 1.2 1.7l1 2 .6 2.3.5 2.4c0 .8.2 1.5.3 2v1.6l-.3-1.5c-.2-1.2-.7-2.8-1.2-4.3l-.8-2.2-.7-2c-.4-1-.6-2-.5-2z"/></g><g fill="#A57932"><path d="M157.8 220h-2l-.6-51.3V167v1.3c.3 2 .5 6.2 1 11.8v5.4c.2 11.7.8 22.5 1.6 34.6z"/><path d="M155.8 189.8v-6c0-3.5.3-8.2.4-13v-3.4l.2-1.7v-1c.2-.2.2-.5.3-.8.4-1.2.8-2.2 1.3-3l1.4-2.6c1.8-3 3.3-5 3.3-5v.2l-2.6 5.3-1.2 2.5c-.4 1-1 2-1.2 3l-.2.7v.8l-.3 1.7c0 1.2 0 2.3-.2 3.5l-.8 13c0 3.3 0 5.6-.2 5.6z"/><path d="M158 162l-.6 2-.7 2-1 2.3c-.5 1.5-1 3-1 4.3l-.3 1.5v.7h-.2v-2l.4-2c0-1 .3-1.7.5-2.5l.8-2.3 1-2c.5-1 1-1.7 1.2-1.6z"/></g></g><path opacity=".5" fill="#F6A76A" d="M81 42.2c1-2.4 10-6.3 12.2-5 9 4.7 24.5-6.2 33.7-1.6 3.8 2 6.7 5.4 8.7 9.3s3.2 8 4.4 12c3.2-1.8 3.6-6 3.7-9.8 0-7.7.2-16-3.6-22.6-3.6-6.7-10.7-11-18-13.3S106.6 9 99 9c-4.3 0-9 0-12.3 2.7-3 2.4-4 6.3-5 10-2 6.8-3.7 13.6-5.6 20.5-.7 2.8-1.4 5.7-1.4 8.6s1 6 3.2 7.8c0 0 1-11.3 3-16.4z"/><path fill="#632205" d="M148 33.6c0-2.5-6.5-22.4-14.3-25.7-7.7-3.4-8.7-4-8.7-4s-3.2-3.5-8-4c-4.7-.5-29.2.7-36.4 9.5-7.3 9-10 18.5-10 18.5S69.3 39.7 72 51.5c1.7 8.3 6 13.5 6 13.5s-.3-6.7 0-12.2c1-18.8 4.8-22 11.6-23.8l4-.4-4 5 6-3.2-4.3 5.5 8.4-4.4-4.6 5.8 14.7-7.5c11.7 1.7 23.4 5 24 6 2.7 4.4 5.7 8.7 6.7 11 1.5 3-1.4 17.7-1.4 17.7s6-3.5 7-12.6c1.3-7 2-13.8 2-18.4z"/><path opacity=".1" fill="#FFF" d="M75.8 56c-.6-1.5-1.2-3.2-1.6-5C71.8 40.4 73 30 73 28.3c.4-1.2 3-9.6 9.4-17.3 5.2-6.3 22.6-8.7 32.3-8.7h2.2c3.6.5 6.3 3.4 6.3 3.4l.7.5 8.8 3.8c6.3 2.6 12.6 21 12.7 23.5 0 4.7-.8 12.2-1.6 18l-1 4.3c.4-4 .5-8.3-.4-10-.7-1.5-2-3.6-3.5-6l-3-5c-2-3.5-25.6-7.3-26-7.3h-.3c-.4 0-1 0-1.3.4l-6.6 3.3c0-.4-.2-.8-.5-1-.5-.7-1-1-1.8-1-.4 0-.7 0-1 .3l-.5.3c0-.4-.2-.8-.5-1-.4-.6-1-1-1.7-1 0 0 0-.3-.2-.5-.4-.8-1.2-1.3-2-1.3h-.2c-1.8 0-3.2.3-4.5.6-8.5 2-12.5 6.4-13 25.8l-.2 3.4z"/><g><path fill="#632205" d="M78.5 31.7c-.3-.7-.4-1.6-.4-2.4 0-.8.3-1.6.7-2.4.3-1 .8-1.6 1.4-2 .7-.7 1.4-1 2-1.5l1.2-.5c.4-.2.7-.3 1-.6l1-.7.8-.7c1-1 2-2.3 2.5-3.7l.3-.8.5.7c.6.8 1.6 1.3 2.6 1.4.4 0 1 0 1.4-.2.5-.2 1-.4 1.3-.8.8-.7 1.3-2 2.3-2.6.5-.4 1-.6 1.7-.6.6 0 1.3.2 1.5.7-.4-.4-1-.5-1.5-.4-.5 0-1 .3-1.4.7-.8.8-1.2 1.8-2 2.8-.5.6-1 1-1.6 1.2-.6.2-1.2.3-2 .3-.5 0-1.2-.2-1.7-.5-.3 0-.6-.3-.8-.5l-.7-.7h.8c-.6 1.5-1.5 3-2.8 4l-1 .8-1 .7-1 .6-1 .4c-.8.3-1.5.7-2 1.2-.6.5-1 1-1.4 1.8-.2.7-.5 1.4-.6 2.2v2z"/></g><g><path fill="#632205" d="M120.3 18.4c1.2-1 3-1 4.2 0 .2 0 .3.2.5.4l.4.4.6 1c.3.7.3 1.6 0 2.3l-.5 2.3v-2.4c0-.8.3-1.6 1-2 .2-.4.6-.6 1-.7h1.5l.3.2c.2 0 .4 0 .5.2.3.3.6.6.7 1 .3.7.4 1.6 0 2.4l-.7-.6c1.3-.8 3-.7 4.3.2l.3.2.2.2.4.4c0 .3.3.6.4 1 .3.7.3 1.5 0 2.2l-.4-.6c.7 0 1.5-.3 2.3-.2h.6l.5.3c.4 0 .7.4 1 .6.4.3.7.6.8 1v1.3c0 .4-.3.8-.7 1-.3.4-.8.5-1.2.5h-.2v-1.3h.3c1.2.7 1.8 2.2 1.5 3.4.2-1-.6-2.4-1.7-2.8l.3-.2v1l-.2-.4c.6 0 1-.5 1.2-1v-1l-.7-.7-1-.4h-.9c-.6 0-1.3 0-2 .2l-.7.2.2-.7v-1.7l-.5-.7c0-.2-.2-.3-.3-.4l-.3-.2c-1-.7-2.2-.7-3.2 0l-1.5.8.8-1.5c.2-.5.2-1 0-1.6 0-.2-.3-.4-.5-.6l-.3-.2h-.2l-.2-.2h-.9l-.8.5c-.5.4-.8 1-.8 1.5h-.8c.2-.7.2-1.4 0-2 0-.4-.2-.7-.4-1l-.3-.4-.4-.4c-.8-1.3-2.4-1.5-3.7-.8z"/></g><g><path opacity=".5" fill="#F18931" d="M119.6 153h-33l16.5-24.4"/><path opacity=".5" fill="#F00" d="M133.2 161H93.4l20-29.4"/></g></svg>