<svg xmlns="http://www.w3.org/2000/svg" width="220" height="220" viewBox="0 0 220 220"><path fill="#fc9" stroke="#D09D6A" stroke-width=".5" stroke-miterlimit="10" d="M41.604 150.63l2.343-2.186c.75-.718.708-1.892-.068-2.576l-5.869-5.164c-.642-.564-1.339-.52-1.936.092l-2.375 2.698c-.385.438-1.304.53-1.883.439l-1.897-.293-5.754-.875c-1.061-.154-2.001.574-2.155 1.633l.002.064c-.125 1.026.607 2.032 1.668 2.188l1.638.244c.741.113.953.958.448 1.532.688-.713-2.506 2.849-2.506 2.849-.772.875-1.097 2.266-.068 2.934.86.517 2.143.149 2.766-.559l-1.056 1.2a1.884 1.884 0 0 0 .406 2.87c.831.552 1.669.211 2.292-.496l.89-1.012c-.771.876-.501 2.609.529 3.276.797.523 1.884.102 2.507-.605l1.188-1.35c-.772.875-.767 1.958.2 2.629a1.985 1.985 0 0 0 2.588-.356l.356-.403c.002-.001 1.82-1.933 5.746-8.773zm141.806 9.815l.356.403a1.985 1.985 0 0 0 2.588.356c.966-.671.972-1.753.2-2.629l1.188 1.35c.623.707 1.71 1.128 2.507.605 1.03-.667 1.3-2.4.529-3.276l.89 1.012c.623.707 1.461 1.048 2.292.496a1.884 1.884 0 0 0 .406-2.87l-1.056-1.2c.624.708 1.906 1.076 2.766.559 1.029-.667.705-2.058-.068-2.934 0 0-3.194-3.562-2.506-2.849-.505-.574-.293-1.418.448-1.532l1.638-.244c1.061-.156 1.793-1.161 1.669-2.188l.002-.064c-.154-1.06-1.094-1.788-2.155-1.633l-5.754.875-1.896.293c-.58.09-1.498-.001-1.884-.439l-2.375-2.698c-.597-.611-1.294-.656-1.936-.092l-5.869 5.164c-.776.684-.818 1.858-.068 2.576l2.344 2.186c3.925 6.841 5.744 8.773 5.744 8.773zm-63.382-65.73s-24.946 4.628-21.025 0c2.534-2.988 3.147-9.481 3.267-13.703.067-2.308-.013-3.934-.013-3.934s18.238-10.109 16.091 0a29.353 29.353 0 0 0-.581 4.16c-.546 7.943 2.261 13.477 2.261 13.477z"/><path opacity=".5" fill="#F6A76A" d="M118.348 77.745a29.366 29.366 0 0 0-.581 4.161c-3.734.986-6.294 1.76-7.321 1.76-1.047 0-3.941-.899-8.176-1.987.067-2.307-.013-3.934-.013-3.934s18.238-10.109 16.091 0z"/><path fill="#fc9" stroke="#D09D6A" stroke-width=".5" stroke-miterlimit="10" d="M156.303 42.907c-5.156-10.218-9.622-5.214-10.367-4.255.407-2.806 1.162-12.157-4.925-20.994-11.022-13.995-28.235-14.19-31.561-14.09-3.324-.1-20.538.095-31.56 14.09-6.086 8.836-5.333 18.186-4.926 20.993-.749-.962-5.211-5.958-10.367 4.256-2.59 7.089 5.123 12.946 6.979 14.23.009.499.036.976.088 1.422.765 6.479 2.678 16.287 23.527 19.432 8.594 1.487 14.71 3.714 16.258 3.714 1.634 0 7.664-2.228 16.258-3.714 20.849-3.145 22.762-12.953 23.527-19.432.053-.446.08-.923.089-1.422 1.857-1.284 9.571-7.141 6.98-14.23z"/><path fill="#FFB679" d="M67.405 41.261c-1.864.084-1.12 5.333-.773 7.18.347 1.843 2.123 2.866 3.175 2.452 1.049-.41 1.382-3.177.267-3.279-1.117-.103-1.776-.817-1.247-1.537.532-.721.893-4.923-1.422-4.816zm84.091 0c1.864.084 1.12 5.333.773 7.18-.347 1.843-2.123 2.866-3.175 2.452-1.048-.41-1.382-3.177-.266-3.279 1.117-.103 1.776-.817 1.246-1.537-.532-.721-.893-4.923 1.422-4.816z"/><path opacity=".5" fill="#4F4849" d="M89.682 36.593c8.822-2.662 10.47 1.542 11.395 2.904-.431.137-7.226-3.006-7.65-2.84-2.191.841-4.306 1.899-5.885 2.683-.42.211-.673.736-1.009.901.728-1.331 2.234-3.371 3.149-3.648z"/><path fill="#B76B2C" d="M100.411 45.827s-6.085 3.451-10.829 1.626c-2.416-.929-3.05-2.842-3.05-2.842s.116 2.978 3.659 3.675c5.508 1.083 10.22-2.459 10.22-2.459z"/><path fill="#fff" d="M102.16 42.5c0 3.313-3.604 5.992-8.058 5.992-4.448 0-8.053-2.68-8.053-5.992 0-1.807 1.072-3.427 2.774-4.523 1.414-.913 3.258-1.468 5.279-1.468 2.05 0 3.917.566 5.337 1.502 1.667 1.096 2.721 2.698 2.721 4.489z"/><path fill="#8D8078" d="M94.104 48.409c-3.296 0-5.979-2.651-5.979-5.908 0-3.258 2.683-5.908 5.979-5.908 3.298 0 5.98 2.65 5.98 5.908 0 3.257-2.683 5.908-5.98 5.908z"/><path fill="#4F4849" d="M94.104 46.173c-2.057 0-3.73-1.647-3.73-3.672 0-2.026 1.673-3.671 3.73-3.671 2.058 0 3.731 1.646 3.731 3.671s-1.673 3.672-3.731 3.672z"/><path d="M89.048 43.346a.619.619 0 1 0 .673-1.039.619.619 0 0 0-.673 1.039zm1.546-.609a.503.503 0 1 0 .552-.842.503.503 0 0 0-.552.842z" fill="#fff"/><path fill="#F9AE87" d="M101.37 34.171s-11.406-4.709-18.623 5.044c0 0 6.225-13.896 18.623-5.044z"/><path opacity=".5" fill="#4F4849" d="M131.408 36.593c-8.823-2.662-10.47 1.542-11.395 2.904.432.137 7.226-3.006 7.651-2.84 2.191.841 4.305 1.899 5.884 2.683.421.211.674.736 1.01.901-.73-1.331-2.235-3.371-3.15-3.648z"/><path fill="#B76B2C" d="M120.679 45.827s6.084 3.451 10.828 1.626c2.416-.929 3.05-2.842 3.05-2.842s-.116 2.978-3.658 3.675c-5.509 1.083-10.22-2.459-10.22-2.459z"/><path fill="#fff" d="M118.928 42.5c0 3.313 3.606 5.992 8.059 5.992 4.448 0 8.053-2.68 8.053-5.992 0-1.807-1.072-3.427-2.775-4.523-1.414-.913-3.257-1.468-5.278-1.468-2.051 0-3.918.566-5.337 1.502-1.668 1.096-2.722 2.698-2.722 4.489z"/><path fill="#8D8078" d="M126.985 48.409c3.298 0 5.979-2.651 5.979-5.908 0-3.258-2.682-5.908-5.979-5.908s-5.98 2.65-5.98 5.908c0 3.257 2.683 5.908 5.98 5.908z"/><path fill="#4F4849" d="M126.985 46.173c2.058 0 3.73-1.647 3.73-3.672 0-2.026-1.672-3.671-3.73-3.671-2.057 0-3.731 1.646-3.731 3.671s1.674 3.672 3.731 3.672z"/><path d="M121.555 43.346a.619.619 0 1 0 .674-1.038.619.619 0 0 0-.674 1.038zm1.547-.609a.503.503 0 1 0 .552-.841.503.503 0 0 0-.552.841z" fill="#fff"/><path fill="#F9AE87" d="M119.72 34.171s11.405-4.709 18.622 5.044c0 0-6.224-13.896-18.622-5.044z"/><path fill="#FFE9C7" d="M111.482 47.666c-1.643-.48-3.226.33-4.145.847-1.192.67-2.652 1.616-1.961 3.152.5 1.111 5.923.482 6.432.378 1.575-.325 3.065-1.766 1.335-3.399-.547-.51-1.106-.818-1.661-.978z"/><path opacity=".5" d="M114.503 54.694s1.334-.497 1.074-1.796c-.26-1.3-.984-1.945-.984-1.945s1.079.897 1.198 2.207c.119 1.315-1.288 1.534-1.288 1.534zm-10.178.094s-1.395-.52-1.122-1.878c.274-1.361 1.033-2.034 1.033-2.034s-1.131.936-1.256 2.311c-.126 1.369 1.345 1.601 1.345 1.601z" fill="#F6A76A"/><path opacity=".32" fill="#F5B1A2" d="M115.927 54.558c-1.007-2.675-3.396-2.07-5.633-1.7-1.281.213-2.337.051-3.578-.28-1.284-.343-2.629-.457-3.583.635-.71.815.793.964 1.313 1.128 1.241.398 2.122 1.332 3.239 1.969 3.004 1.723 5.176-2.016 8.242-1.752-.055-.145-1.177-.101 0 0z"/><path fill="#AE8879" d="M106.749 54.288l.418.339c-.415-.432-.812-.852-1.279-1.229-.245-.2-1.948-1.355-2.251-.864-.045.068 1.473.633 1.585.688.53.207 1.111.672 1.527 1.066zm4.45.189l-.446.297c.451-.396.884-.784 1.38-1.123.233-.159 2.115-1.181 2.316-.665.033.054-1.521.505-1.634.544-.549.189-1.165.575-1.616.947z"/><path opacity=".2" fill="#F5B1A2" d="M105.819 55.245c-.74-.781-1.837-1.555-2.973-1.291 1.062-1.869 4.13 1.286 5.234 1.608 1.362.395 2.643-.212 3.836-.806 1.369-.682 2.695-.903 4.139-.292-.861.269-1.64.182-2.494.596-.912.447-1.729 1.048-2.622 1.526-1.985 1.063-3.69.174-5.12-1.341zm7.774-1.696c1.135 1.235-2.514 2.914-3.399 2.775.128-1.056 2.13-4.165 3.399-2.775zm-9.143-.24c-1.135 1.235 2.513 2.916 3.399 2.776-.127-1.055-2.129-4.165-3.399-2.776z"/><path fill="#F9AE87" d="M120.686 60.588c-.535.213-1.163 1.033-1.163 1.033-1.53 1.963-6.971 2.443-8.475 2.438-.46-.001-1.064.028-1.751.057-.687-.029-1.292-.058-1.751-.057-1.503.006-6.945-.475-8.475-2.438 0 0-.627-.82-1.163-1.033-.743-.297-1.088-.033-.465.395.217.149.614-.127 1.249.854.962 1.489 4.523 2.213 6.776 2.461 1.133.126 2.479.202 3.829.229a44.17 44.17 0 0 0 3.829-.229c2.253-.249 5.815-.972 6.777-2.461.636-.981 1.032-.705 1.249-.854.623-.428.277-.692-.466-.395z"/><path fill="#B54A37" d="M119.286 62.413c-.478 1.313-1.137 3.081-1.837 4.347l-.271.472c-1.137 1.914-2.203 2.709-3.104 3.303a8.642 8.642 0 0 1-4.695 1.425h-.094a8.673 8.673 0 0 1-4.701-1.425c-.784-.517-1.686-1.183-2.651-2.596a14.497 14.497 0 0 1-.726-1.179c-.766-1.391-1.49-3.381-1.973-4.719.03.042 1.597-.095 2.404-.194 2.009-.249 3.805-.313 5.425-.236.784.029 1.526.095 2.227.188h.007l.176.023a36.134 36.134 0 0 1 2.051-.147 30.875 30.875 0 0 1 5.772.261c1.648.223 2.303.211 1.99.477z"/><path fill="#FF5D47" d="M117.177 67.232c-1.137 1.914-2.203 2.709-3.104 3.303a8.642 8.642 0 0 1-4.695 1.425h-.094a8.673 8.673 0 0 1-4.701-1.425c-.784-.517-1.686-1.183-2.651-2.596 1.915-.915 5.055-1.504 8.607-1.504 2.515.001 4.824.302 6.638.797z"/><path fill="#fff" d="M109.295 61.8v1.543c0 .326-.259.59-.59.59h-1.054a.59.59 0 0 1-.589-.59v-1.731c.784.029 1.526.095 2.227.188h.006zm2.227-.125v1.667c0 .326-.26.59-.59.59h-1.054a.591.591 0 0 1-.59-.59V61.8l.183.023a37.123 37.123 0 0 1 2.051-.148z"/><ellipse transform="rotate(13.7 92.244 50.769)" fill="#fc9" cx="92.397" cy="50.875" rx="9.864" ry="4.701"/><ellipse transform="scale(-1) rotate(-13.7 -423.393 1079.04)" fill="#fc9" cx="129.718" cy="50.875" rx="9.864" ry="4.701"/><radialGradient id="a" cx="85.777" cy="59.131" r="16.206" gradientUnits="userSpaceOnUse"><stop offset="0" stop-color="#ED1C24"/><stop offset="1" stop-color="#ED1C24" stop-opacity="0"/></radialGradient><circle opacity=".15" fill="url(#a)" cx="85.778" cy="59.13" r="16.205"/><radialGradient id="b" cx="132.322" cy="59.131" r="16.206" gradientUnits="userSpaceOnUse"><stop offset="0" stop-color="#ED1C24"/><stop offset="1" stop-color="#ED1C24" stop-opacity="0"/></radialGradient><circle opacity=".15" fill="url(#b)" cx="132.323" cy="59.13" r="16.205"/><path opacity=".5" d="M97.119 57.258c-1.03-.199-1.736.488-2.33 1.252-.681.79-1.174 1.74-1.899 2.494-.055-1.146.446-2.419 1.207-3.266.727-.807 2.2-1.617 3.022-.48zm24.756.278c1.03-.197 1.73.484 2.325 1.247.681.79 1.174 1.734 1.895 2.489.057-1.142-.445-2.417-1.205-3.258-.727-.809-2.188-1.608-3.015-.478z" fill="#F6A76A"/><path d="M96.75 5.215C98 3.117 99.757 1.669 101.702.752c2.29-1.142 4.685-.861 6.628.025 1.838 1.11 3.397 2.917 3.764 5.454.338 2.096.148 4.425-.897 6.612-.71-1.319-1.314-2.771-2.222-3.931-.965-1.238-2.139-2.367-3.531-2.985-1.409-.626-2.875-1.025-4.476-1.118-.76-.044-1.547.023-2.328.098l-1.89.308zm26.888 2.055a13.3 13.3 0 0 0-4.639-4.735c-2.097-1.325-4.209-1.327-5.888-.708-1.573.839-2.861 2.365-3.05 4.706a11.891 11.891 0 0 0 1.154 6.307c.559-1.16 1.018-2.457 1.762-3.445.79-1.058 1.772-1.987 2.975-2.414a9.672 9.672 0 0 1 3.916-.556c.674.041 1.376.192 2.074.348l1.696.497z" fill="#1A1A1A"/><path fill="#79A451" d="M188.81 144.459l-.353.361-9.219 9.513-.78.806-33.594-26.146c1.058 5.676 4.895 28.572 3.762 54.76-.185 4.24-.302 8.505-.411 12.628-.235 8.497-.454 16.6-1.226 23.619h-28.757c-.303-5.164-.227-10.479-.16-15.138.067-4.35.118-8.094-.151-10.579-1.218-11.26-3.233-14.71-8.615-14.744-5.398 0-7.439 3.417-8.808 14.626-.302 2.477-.302 6.229-.294 10.57.009 4.694.017 10.067-.369 15.265H71.28c-.68-6.978-.781-15.055-.882-23.526-.05-4.324-.101-8.791-.235-13.249-.781-26.188 3.493-49.596 4.525-54.844l-34.315 25.995-.596-.646-9.312-10.008-.227-.243.168-.269c.118-.176 11.259-17.708 25.961-34.139C71.154 92.537 75.36 92.05 75.528 92.033l23.182-4.777.159.143.051.05a20.126 20.126 0 0 0 2.409 1.897c2.872 1.931 6.021 2.939 9.252 2.939 2.754 0 5.441-.748 7.901-2.191a18.207 18.207 0 0 0 2.93-2.116l.109-.101.16-.143 22.309 4.66.185-.017c.176.008 4.374.563 18.933 17.288 14.475 16.625 25.424 34.341 25.533 34.517l.169.277z"/><path fill="#C3EE97" d="M148.206 183.737c-.563 12.956-.487 25.835-1.646 36.263h-27.909c-.588-9.992.251-20.579-.311-25.76-1.234-11.36-3.316-15.08-9.026-15.121-5.709-.042-7.851 3.66-9.236 14.995-.638 5.197.067 15.869-.663 25.886H71.691c-1.025-10.529-.714-23.619-1.108-36.792-.252-8.573.025-16.826.563-24.232.134-1.889.285-3.728.454-5.499 1.419-15.491 3.728-26.104 3.728-26.104 9.488-15.65.235-34.92.235-34.92l23.022-4.744a20.503 20.503 0 0 0 2.637 2.065c5.44 3.594 11.822 3.93 17.372.755a19.665 19.665 0 0 0 3.216-2.334l22.645 4.719s-9.513 19.144-.235 34.92c0 0 2.167 10.663 3.384 26.179.134 1.771.26 3.594.377 5.483.426 7.415.594 15.669.225 24.241z"/><path fill="#99CF67" d="M75.562 92.453s-4.041.301-18.883 16.896c-14.844 16.596-25.914 34.082-25.914 34.082l9.656 10.377 34.906-26.438c9.489-15.649.235-34.917.235-34.917z"/><path fill="#79A451" d="M40.42 153.809l3.391-2.569-10.689-11.39c-1.799 1.986-2.357 3.582-2.357 3.582l9.655 10.377z"/><path fill="#99CF67" d="M144.455 92.917s4.036.355 18.653 17.149c14.619 16.794 25.486 34.462 25.486 34.462l-9.862 10.177-34.513-26.87c-9.278-15.776.236-34.918.236-34.918z"/><path fill="#79A451" d="M178.732 154.706l-3.346-2.606 10.86-11.24c1.35 1.532 1.306 2.195 2.348 3.669l-9.862 10.177zm-56.926-66.513l-3.987-2.211c-7.592 4.523-15.807-.942-15.807-.942l-3.427 2.672c6.938 6.375 16.197 6.762 23.221.481z"/><g fill="#79A451"><circle cx="110.522" cy="98.776" r="1.418"/><circle cx="110.39" cy="115.058" r="1.418"/><circle cx="110.258" cy="131.342" r="1.418"/></g><path fill="#99CF67" d="M147.602 154.012c-.063-.024-6.774-2.628-9.434-7.429-3.85-6.951-7.103-9.398-28.458-9.541-21.357-.145-24.642 2.258-28.585 9.155-2.723 4.766-9.469 7.252-9.531 7.275l-.616 5.57c.315-.115 10.379-4.285 13.936-10.505 2.684-4.695 4.032-7.052 24.766-6.912 20.734.141 22.049 2.514 24.669 7.245 3.472 6.268 13.48 10.572 13.793 10.69l-.54-5.548z"/></svg>