<svg xmlns="http://www.w3.org/2000/svg" width="220" height="220" viewBox="0 0 220 220"><path fill="#fc9" stroke="#D09D6A" stroke-width=".5" stroke-miterlimit="10" d="M140.253 109.917l-24.69 38.839-6.746.486-2.447-.146-25.861-39.252c.281-.085.562-.183.829-.281a35.109 35.109 0 0 0 3.725-1.656c3.36-1.704 5.795-4.018 7.585-6.33 2.094-2.704 3.08-7.951 3.056-11.324l-.097-13.526 28.077-.195.096 13.527c.025 3.372 1.438 8.595 3.568 11.274 1.791 2.252 4.383 4.675 7.67 6.38 1.375.718 2.922 1.473 4.614 2.008.207.074.414.135.621.196z"/><path opacity=".5" fill="#F6A76A" d="M124.176 91.361c-3.576 2.68-8.162 4.38-14.036 4.423-6.18.044-10.954-1.761-14.639-4.657a24.42 24.42 0 0 0 .2-3.045l-.096-13.527 28.075-.2.098 13.527c.005 1.023.148 2.227.398 3.479z"/><path fill="#fc9" stroke="#D09D6A" stroke-width=".5" stroke-miterlimit="10" d="M143.973 45.544c-1.58-2.837-2.908-2.206-3.967-.167.768-14.817-7.758-33.235-29.625-33.438-21.719-.2-31.501 18.761-30.765 33.567-1.07-2.143-2.422-2.859-4.036.038-.755 1.358-.994 2.538-.751 6.707.245 4.171 2.361 9.904 5.162 10.105 1.808.132 2.337-.905 2.473-2.132 3.458 12.112 11.076 28.257 27.62 28.257 16.221 0 23.67-15.692 27.068-27.843.213 1.036.812 1.833 2.41 1.717 2.799-.201 4.916-5.935 5.164-10.105.241-4.168.001-5.348-.753-6.706z"/><path fill="#FFB679" d="M78.773 48.384c-1.649.073-.99 4.714-.684 6.346.307 1.63 1.876 2.536 2.806 2.171.927-.365 1.222-2.812.235-2.902-.987-.088-1.569-.722-1.102-1.358.472-.635.791-4.35-1.255-4.257zm62.009 0c1.646.073.989 4.714.684 6.346-.307 1.63-1.876 2.536-2.807 2.171-.927-.365-1.222-2.812-.235-2.902.987-.088 1.569-.722 1.102-1.358-.471-.635-.79-4.35 1.256-4.257z"/><path fill="#1A1A1A" d="M87.534 44.112c.493-.308.879-.718 1.33-1.081.612-.516 1.328-.535 2.105-.674 1.728-.308 3.473-.54 5.231-.55 1.725-.01 3.386.241 5.033.745 1.155.354 1.705 1.346 2.127 2.444-.369.017-.738.042-1.107.051-.769.021-1.174.07-1.909-.155a13.68 13.68 0 0 0-4.705-.568c-1.594.044-3.172.298-4.737.586-.82.151-1.253.207-2.048-.087-.487-.179-.929-.365-1.32-.711z"/><path fill="#fff" d="M103.438 49.672c.13.751.433 1.481.1 2.192-.642 1.372-1.672 2.091-3.176 2.158-1.611.067-3.234-.166-4.823-.387-1.046-.147-2.446-.092-3.31-.765-.483-.374-2.182-1.762-1.913-2.713.302-1.075 2.239-1.619 3.2-1.873 2.053-.541 4.329-.495 6.432-.301 1.271.117 2.907.38 3.49 1.689z"/><radialGradient id="a" cx="633.793" cy="81.976" r="2.698" gradientTransform="scale(-1) rotate(3.27 2591.874 -12792.553)" gradientUnits="userSpaceOnUse"><stop offset="0" stop-color="#28353D"/><stop offset=".508" stop-color="#27323B"/><stop offset=".809" stop-color="#222A33"/><stop offset="1" stop-color="#1D2029"/></radialGradient><path fill="url(#a)" d="M95.077 48.025a2.871 2.871 0 0 0-.804 1.845 2.894 2.894 0 1 0 5.194-1.582c-.681-.316-3.707-.455-4.39-.263z"/><path fill="#212121" d="M95.465 50.179a1.77 1.77 0 1 0 3.532.2 1.77 1.77 0 0 0-3.532-.2z"/><path fill="#1A1A1A" d="M103.438 49.672s-.515-1.205-3.309-1.363c-2.792-.163-6.016.304-6.864.256-.845-.049-3.025 1.585-3.025 1.585s1.075-2.007 3.013-2.5c1.757-.447 6.834-.39 8.128-.186 1.293.206 2.057 2.208 2.057 2.208z"/><path fill="#B76B2C" d="M102.1 53.608s-5.75 1.22-9.57-.925c-1.946-1.091-2.213-2.525-2.213-2.525s-.336 2.065 2.613 3.211c4.59 1.781 9.17.239 9.17.239z"/><path fill="#fff" d="M94.61 50.351a.514.514 0 0 0 .714-.15.515.515 0 1 0-.866-.561.517.517 0 0 0 .152.711zm1.291-.504a.42.42 0 1 0-.123-.584.419.419 0 0 0 .123.584z"/><path fill="#1A1A1A" d="M80.75 54.892s-2.247-12.377-3.638-14.812c-1.391-2.435-1.926-14.813-1.499-17.654.428-2.842 6.528-13.799 10.38-16.437C89.844 3.351 100.01-.098 110.924.003c10.915.101 20.438 1.522 27.499 9.436 0 .508 6.313 10.146 6.849 12.378s-2.248 16.639-3.853 20.698c-1.604 4.058-3.424 12.377-3.424 12.377s-.963-2.941-1.284-13.494c-.32-10.552-.748-17.146-4.066-19.075 0 0-21.056 8.858-27.37 10.176.214.508 10.999-6.625 10.999-6.625s-34.132 8.218-33.812 11.262c.322 3.045-1.712 17.756-1.712 17.756z"/><path opacity=".1" fill="#fff" d="M128.152 18.856l.183-1.278c-.595-2.001-.81-4.733-2.562-6.178-.185 1.277-.371 2.554-.943 3.651-4.284-3.614-10.691-6.121-16.692-5.713 2.912 1.254 5.057 3.063 6.43 5.787-3.877-.52-6.987-2.139-11.053-2.109-2.902.021-4.835.583-7.734 1.515 3.095-.57 7.55-.237 9.697 1.936-4.063.575-8.336-1.218-12.783-.273-2.901.567-6.182 2.23-8.491 4.253 7.744-.42 15.297.072 22.862 1.66.569-1.463-1.761-2.539-2.929-3.261 6.191-.771 13.564 1.179 19.382 2.414-.594-1.817-1.576-3.635-3.133-4.897 3.105 1.252 5.641 3.422 8.36 5.042.19-.915-.202-1.64-.594-2.549z"/><path fill="#1A1A1A" d="M132.335 43.792c-.896.738-1.843 1.196-2.995 1.047-1.705-.222-3.411-.451-5.131-.519-1.436-.059-2.896.001-4.299.337-.621.149-1.049.391-1.695.304-.563-.076-1.127-.056-1.693-.056.133-.423.328-.818.525-1.214.463-.738.799-1.008 1.598-1.269 1.61-.526 3.337-.632 5.021-.615 1.728.018 3.45.222 5.161.445.595.077 1.404.025 1.892.385.535.394 1.053.798 1.616 1.155z"/><path fill="#fff" d="M116.512 49.578c-.121.754-.412 1.487-.068 2.194.662 1.362 1.701 2.069 3.207 2.113 1.611.044 3.23-.213 4.815-.457 1.044-.162 2.444-.126 3.3-.811.476-.38 2.155-1.794 1.873-2.741-.316-1.07-2.263-1.587-3.226-1.826-2.06-.512-4.336-.434-6.437-.209-1.268.135-2.9.42-3.464 1.737z"/><radialGradient id="b" cx="-2032.907" cy="254.579" r="2.698" gradientTransform="scale(1 -1) rotate(4.07 3318.172 30429.972)" gradientUnits="userSpaceOnUse"><stop offset="0" stop-color="#28353D"/><stop offset=".508" stop-color="#27323B"/><stop offset=".809" stop-color="#222A33"/><stop offset="1" stop-color="#1D2029"/></radialGradient><path fill="url(#b)" d="M124.85 47.813a2.895 2.895 0 0 1-1.849 4.927 2.894 2.894 0 0 1-2.537-4.601c.675-.326 3.699-.51 4.386-.326z"/><path fill="#212121" d="M124.491 49.972a1.77 1.77 0 1 1-1.89-1.642 1.77 1.77 0 0 1 1.89 1.642z"/><path fill="#1A1A1A" d="M116.512 49.578s.498-1.211 3.288-1.41c2.791-.201 6.021.219 6.866.158.846-.06 3.049 1.543 3.049 1.543s-1.104-1.993-3.049-2.457c-1.764-.423-6.839-.292-8.13-.069-1.288.222-2.024 2.235-2.024 2.235z"/><path fill="#B76B2C" d="M117.906 53.494s5.767 1.139 9.557-1.061c1.93-1.119 2.176-2.557 2.176-2.557s.366 2.061-2.568 3.249c-4.564 1.847-9.165.369-9.165.369z"/><path fill="#fff" d="M120.492 50.337a.515.515 0 1 0 .504-.9.523.523 0 0 0-.706.201.517.517 0 0 0 .202.699zm1.252-.593a.419.419 0 1 0-.162-.573.418.418 0 0 0 .162.573z"/><path opacity=".5" fill="#F6A76A" d="M110.532 68.223s-.009 2.191-1.144 2.152c-1.135-.041.312.371.998.179.684-.194.723-.531.146-2.331z"/><radialGradient id="c" cx="139.963" cy="-6.852" r="14.541" gradientTransform="matrix(1 -.007 -.007 -1 -48.411 61.283)" gradientUnits="userSpaceOnUse"><stop offset="0" stop-color="#ED1C24"/><stop offset="1" stop-color="#ED1C24" stop-opacity="0"/></radialGradient><path opacity=".1" fill="url(#c)" d="M106.142 67.036c.059 8.032-6.406 14.589-14.437 14.646-8.031.057-14.587-6.406-14.645-14.439-.057-8.028 6.407-14.586 14.438-14.644 8.03-.057 14.587 6.408 14.644 14.437z"/><radialGradient id="d" cx="178.122" cy="-6.589" r="14.541" gradientTransform="matrix(1 -.007 -.007 -1 -48.411 61.283)" gradientUnits="userSpaceOnUse"><stop offset="0" stop-color="#ED1C24"/><stop offset="1" stop-color="#ED1C24" stop-opacity="0"/></radialGradient><path opacity=".1" fill="url(#d)" d="M144.3 66.503c.058 8.032-6.407 14.589-14.438 14.646-8.03.057-14.588-6.408-14.645-14.439-.057-8.028 6.406-14.586 14.438-14.644s14.588 6.408 14.645 14.437z"/><path opacity=".32" fill="#F5B1A2" d="M109.391 66.187c2.326.224 5.128 1.008 5.199 1.328-3.063 1.524-9.501.711-9.311-.083.15-.612 2.631-1.389 4.112-1.245z"/><path fill="#AE8879" d="M113.589 66.721c.625-.034 1.278.273 1.238.391-.038.12-.67.028-1.222.063-.336.019-1.381.284-1.433.17-.054-.11 1.034-.6 1.417-.624zm-7.091-.16c.662.123 1.454.611 1.398.723-.052.112-.963-.176-1.421-.271-.392-.08-1.317.038-1.37-.072-.057-.114.952-.465 1.393-.38z"/><path opacity=".2" fill="#F5B1A2" d="M106.765 67.836c-.668-.697-1.658-1.383-2.677-1.139.943-1.684 3.715 1.126 4.707 1.408 1.225.346 2.369-.208 3.436-.748 1.227-.619 2.414-.827 3.713-.288-.773.248-1.471.172-2.233.552-.815.407-1.544.952-2.344 1.386-1.775.966-3.309.179-4.602-1.171z"/><path opacity=".5" fill="#F6A76A" d="M115.609 66.739s1.274-.489 1.017-1.738c-.259-1.251-.957-1.867-.957-1.867s1.039.856 1.163 2.12c.123 1.265-1.223 1.485-1.223 1.485zm-11.313.081s-1.282-.471-1.041-1.724c.239-1.254.93-1.88.93-1.88s-1.028.871-1.132 2.137c-.108 1.266 1.243 1.467 1.243 1.467z"/><path opacity=".3" fill="#FDE9D7" d="M113.712 59.714s-.894-.372-1.2-1.918c-.304-1.544-1.513-4.3-2.082-.694-.566 3.607-.401 5.409.892 4.938 1.906-.688 3.152-.206 3.217-1.042.042-.529-.275-1.011-.827-1.284z"/><path fill="#FFAC81" d="M102.076 74.158c-.004-.368 2.7-1.197 2.968-1.29 1.608-.557 3.425-.784 5.008-.357 1.51-.429 3.383-.246 4.994.28.272.088 3.082.883 3.007 1.254-.207 1-16.178 1.092-15.977.113zm.004.004c1.169.04 2.351.279 3.511.415 1.492.173 2.979.19 4.478.266 1.468-.097 2.937-.118 4.397-.331 1.179-.171 2.39-.396 3.581-.465-3.591 5.101-12.278 5.026-15.967.115z"/><path fill="#B54A37" d="M109.934 75.007a53.57 53.57 0 0 1-4.125-.188l-.817-.068c-1.875-.156-2.73-.226-3.364-1.148-.495-.72-.897-.292-1.165-.315l-.205-.04c-.282-.167-.333-.278-.319-.321.012-.034.087-.058.196-.06a1.77 1.77 0 0 1 .555.112c.554.19 1.221.48 1.227.488 1.128 1.104 4.255 1.246 6.019 1.233h.01c.542-.004 1.052.012 1.626.03l.357.009.354-.016c.58-.025 1.093-.047 1.503-.051l.685-.002c2.069-.014 4.578-.161 5.629-1.172.01-.012.67-.312 1.223-.508.212-.076.408-.12.557-.12.105-.001.184.023.196.059.015.039-.036.153-.314.322l-.188.064c-.219.054-.557-.328-1.17.304-.953.989-1.549 1.008-2.736 1.045-.441.013-.964.031-1.616.097a53.822 53.822 0 0 1-4.118.246z"/><path opacity=".5" fill="#F6A76A" d="M109.587 81.872c-.779-.623-1.111-3.169.184-3.258 1.292-.086 2.747.138 2.911 1.038.162.901-.718 1.888-1.057 2.205s-1.729.914-2.034.525c-.307-.392-.004-.51-.004-.51z"/><path fill="#00B5D0" stroke="#265A60" stroke-width=".5" stroke-miterlimit="10" d="M191.074 196.656c-.875-19.158-.643-69.626-13.264-74.596a36548.244 36548.244 0 0 0-41.961-16.451l-26.387 14.554-26.383-14.553s-31.848 10.3-41.964 16.451c-13.701 8.33-12.387 55.438-13.262 74.596L26 220h28.517l3.438-40.588s5.341 24.661 2.43 40.588h98.153c-2.908-15.928 2.433-40.588 2.433-40.588L164.41 220h28.514l-1.85-23.344z"/><path stroke="#265A60" stroke-width="3" stroke-miterlimit="10" fill="none" d="M135.848 105.61l-26.386 14.555-26.383-14.555"/><path fill="#265A60" d="M40.956 122.746s.65.693 1.678 2.012c.489.674 1.119 1.473 1.75 2.449.666.956 1.352 2.074 2.087 3.305.71 1.242 1.488 2.592 2.208 4.067.728 1.473 1.5 3.026 2.166 4.692.725 1.643 1.368 3.381 2 5.155.645 1.771 1.144 3.62 1.728 5.442.481 1.852.919 3.714 1.364 5.543.367 1.846.669 3.675.993 5.436.244 1.775.429 3.497.618 5.125.209 1.627.215 3.185.306 4.61.068 1.428.158 2.733.107 3.897l-.066 3.004-.098 2.611-.3-2.599-.299-2.974c-.079-1.149-.312-2.435-.488-3.838l-.298-2.188c-.1-.755-.185-1.539-.345-2.334l-.872-5.015c-.369-1.726-.782-3.5-1.142-5.313-.459-1.792-.915-3.615-1.405-5.427-.551-1.794-1.018-3.617-1.63-5.361-.612-1.744-1.138-3.488-1.803-5.121a108.38 108.38 0 0 0-1.884-4.719c-.295-.754-.646-1.458-.954-2.154-.317-.691-.598-1.373-.915-2.005-.629-1.264-1.182-2.44-1.73-3.45-.525-1.024-1.029-1.893-1.426-2.621-.428-.707-.74-1.283-.982-1.654l-.368-.575z"/><path d="M82.585 112.712a35.019 35.019 0 0 0-.182 3.446l-.085.061c-4.25 2.789-7.208 8.985-7.208 16.193 0 9.814 5.479 11.457 12.236 11.457v-29.232c-.585 0-1.157.086-1.717.195.061-1.339.207-2.605.438-3.824 1.241-6.732 4.858-11.554 9.497-14.597a20.96 20.96 0 0 0 .146-2.509l-.012-1.302c-6.77 3.615-12.077 10.214-13.113 20.112zm55.336 4.517c-.45-.401-.913-.754-1.399-1.07 0-1.461-.099-2.85-.269-4.188-1.181-9.217-6.136-15.488-12.468-19.066v.804c.013.96.123 2.069.341 3.237 4.019 2.874 7.171 7.172 8.511 12.979a27.76 27.76 0 0 1 .656 4.907c-.559-.108-1.132-.195-1.716-.195v29.232c6.757 0 12.248-1.644 12.248-11.457.001-6.439-2.36-12.064-5.904-15.183z" fill="#333"/><path fill="#265A60" d="M177.714 122.746l-.366.577c-.242.372-.554.948-.981 1.653-.397.729-.9 1.597-1.425 2.623-.549 1.01-1.103 2.186-1.731 3.449-.317.631-.599 1.313-.915 2.006-.309.695-.658 1.398-.954 2.153a110.975 110.975 0 0 0-1.884 4.719c-.665 1.632-1.189 3.378-1.803 5.121-.612 1.744-1.079 3.567-1.631 5.361-.489 1.813-.945 3.636-1.404 5.428-.36 1.813-.773 3.588-1.143 5.313l-.871 5.015c-.162.795-.246 1.579-.346 2.334l-.298 2.188c-.176 1.403-.409 2.688-.487 3.838l-.3 2.974-.3 2.599-.098-2.611-.066-3.004c-.051-1.164.04-2.469.107-3.897.091-1.426.097-2.983.306-4.61.188-1.627.374-3.351.618-5.125.324-1.761.626-3.589.992-5.436.445-1.829.883-3.691 1.365-5.543.584-1.823 1.082-3.672 1.728-5.441.631-1.775 1.274-3.514 2-5.156.666-1.666 1.438-3.221 2.166-4.692.72-1.476 1.498-2.825 2.208-4.067.734-1.23 1.421-2.349 2.087-3.305.63-.977 1.26-1.775 1.75-2.449 1.026-1.322 1.676-2.015 1.676-2.015z"/></svg>