<svg xmlns="http://www.w3.org/2000/svg" width="220" height="220" viewBox="0 0 220 220"><path d="M70.685 30.054s-.598 69.874-10.611 87.186c-10.015 17.312 46.633 13.51 46.633 13.51V27.111l-36.022 2.943zm75.883 1.828s.598 69.875 10.611 87.187c10.014 17.311-46.634 13.511-46.634 13.511V28.938l36.023 2.944z" fill="#1A1A1A"/><path fill="#fc9" stroke="#D09D6A" stroke-width=".5" stroke-miterlimit="10" d="M139.148 110.918c-3.834-1.448-7.418-3.456-10.684-5.9-2.417-1.809-6.054-3.674-6.506-6.991-.193-1.414.113-2.908.109-4.331-.002-1.64-.125-3.275-.092-4.916.002-.103.119-2.501.033-2.501H96.35c0 2.192-.026 4.388 0 6.58.017 1.475-.015 2.947.008 4.419.053 3.251-3.579 5.58-5.87 7.365-3.362 2.619-7.116 4.909-11.171 6.274-20.808 7.008-9.715 26.286-9.715 26.286l78.314-.475c0 .001 7.568-19.639-8.768-25.81z"/><path opacity=".5" fill="#F6A76A" d="M96.079 94.215c7.431 4.857 12.466 6.024 13.786 6.024s4.798-.97 11.582-4.827v-7.945H96.079v6.748z"/><path fill="#fc9" stroke="#D09D6A" stroke-width=".5" stroke-miterlimit="10" d="M141.331 52.39c-1.354-.486-3.583-.305-4.646.393.897-8.18.777-14.384.137-18.149-1.313-7.712-19.832-17.162-28.628-16.664-8.797-.498-27.318 8.952-28.629 16.664-.622 3.653-.636 10.731.185 18.621-1.147-.62-2.599-1.208-3.555-.864-1.79.64-2.788 1.1-1.534 6.298 1.315 5.454 5.765 10.754 8.175 11.646.853 3.111 1.866 6.055 3.057 8.662 6.25 13.68 19.916 16.25 22.301 16.25 2.386 0 16.051-2.57 22.301-16.25 1.19-2.606 2.204-5.549 3.056-8.659l.071.047c1.79.959 7.694-5.274 9.245-11.696 1.252-5.2.255-5.659-1.536-6.299z"/><path fill="#FFB679" d="M142.561 57.81c1.17.543-1.013 4.46-1.834 5.818-.819 1.353-2.293 1.697-2.836 1.103-.539-.59.145-2.842.896-2.637.75.21 1.403-.182 1.298-.881-.108-.7 1.022-4.081 2.476-3.403zm-67.596 0c-1.17.543 1.012 4.46 1.834 5.818.82 1.353 2.293 1.697 2.835 1.103.54-.59-.143-2.842-.895-2.637-.75.21-1.405-.182-1.298-.881.109-.7-1.024-4.081-2.476-3.403z"/><path fill="#212121" d="M79.088 64.346s-1.31-13.797 3.701-20.359c5.012-6.563 12.527-4.416 12.527-4.416s12.29-2.507 16.228-5.608c0 0-4.177 8.302-8.234 8.659 0 0 15.75-1.141 20.165-12.716.119 6.563-.478 11.098 5.01 15.63 0 0 7.875 7.16 9.308 8.114l-1.847 14.724s4.352-7.8 8.168-14.363c1.468-2.521 1.607-6.597 1.697-9.455.02-.601-.194-2.436.377-2.799.636-.406 1.914.995 2.653 1.176 2.114.517 4.974-.083 7.087-.499 0 0-4.773-4.295-4.177-6.324.599-2.026 4.894-8.709 5.488-10.977.597-2.268 3.342-9.545 0-13.125-3.339-3.579-7.277-5.01-10.38-5.01-3.104 0-10.141 4.891-10.738 8.829-3.104-2.981-9.188-10.378-16.107-10.618 0 0-11.224-1.318-16.136-1.379-4.913-.061-12.998 2.984-18.72 8.021-1.305-2.673-1.429-6.281-4.974-7.462-3.544-1.181-11.256-.312-14.179 4.666-2.922 4.973-4.539 9.202-2.674 14.177 1.865 4.974 5.349 8.333 5.411 9.95.063 1.617-2.861 1.962-3.172 3.312-.311 1.353 3.856.729 6.157 1.415 1.706.506.877 5.187.786 6.353-.111 1.435-.222 2.87-.189 4.311.063 2.734 2.43 5.287 3.709 7.617 1.345 2.448 2.925 5.304 3.055 8.156z"/><path fill="#fff" d="M111.771 28.272l-.469.102c-.309.056-.75.189-1.331.263-.582.047-1.313.178-2.133.152-.827.027-1.758-.027-2.77-.133a33.024 33.024 0 0 1-3.226-.527 81.9 81.9 0 0 1-3.511-.821 47.737 47.737 0 0 0-3.662-.8c-1.22-.205-2.471-.33-3.56-.076-.272.058-.522.16-.788.23l-.099.029-.012.003.061-.029-.027.015-.055.029-.22.116-.439.231c-.254.159-.435.322-.661.475-.219.163-.447.395-.671.586-.87.85-1.714 1.765-2.45 2.733-1.5 1.914-2.781 3.843-3.917 5.474-1.118 1.644-2.084 3.007-2.793 3.938-.35.469-.647.821-.851 1.06l-.309.367.821-1.637c.516-1.042 1.224-2.543 2.146-4.318.922-1.775 2.03-3.838 3.486-5.931.729-1.042 1.536-2.11 2.535-3.085.267-.239.495-.481.798-.719.309-.229.64-.489.944-.679l.435-.239.218-.12.054-.03.027-.015.089-.043.017-.006.138-.047c.369-.117.74-.265 1.115-.344 1.525-.311 2.971-.108 4.309.134 1.349.244 2.594.648 3.791 1.007l3.409 1.072c1.081.321 2.101.61 3.053.842.954.207 1.833.402 2.622.5.792.139 1.474.151 2.052.214 1.163.029 1.834.027 1.834.027zm23.572 14.989l-.211-1.854a98.818 98.818 0 0 0-.698-4.786c-.184-.979-.36-2.039-.611-3.145l-.738-3.493c-.27-1.21-.587-2.473-1.143-3.658-.545-1.183-1.293-2.315-2.277-3.177-.977-.883-2.143-1.43-3.393-1.556-1.281-.135-2.512-.255-3.611-.081a6.648 6.648 0 0 0-2.848 1.133c-.879.595-1.357 1.136-1.734 2.009-.38.826-.625 1.721-.905 2.509-.265.795-.558 1.509-.899 2.055-.338.548-.721.913-1.006 1.104-.295.183-.467.237-.467.237l-.104-.171s.13-.108.307-.35c.178-.239.391-.615.523-1.155.146-.534.238-1.212.339-2.022.101-.813.196-1.756.513-2.838a6.359 6.359 0 0 1 .779-1.683c.434-.579.881-.989 1.404-1.414a7.338 7.338 0 0 1 1.82-.986 7.898 7.898 0 0 1 2.102-.383c1.434-.064 2.834.217 4.125.734 1.355.448 2.617 1.325 3.545 2.355.964 1.023 1.717 2.184 2.426 3.342a32.41 32.41 0 0 1 1.861 3.55c.52 1.197.898 2.404 1.138 3.569.226 1.168.394 2.281.46 3.315a22.791 22.791 0 0 1-.121 4.994c-.077.596-.18 1.071-.253 1.381l-.122.479-.201-.014z" opacity=".1"/><path fill="#FBB03B" d="M85.161 11.852s-.075.52-.271 1.417c-.207.893-.491 2.177-.971 3.679-.482 1.499-1.063 3.25-1.865 5.058-.406.901-.823 1.836-1.321 2.75a42.07 42.07 0 0 1-1.583 2.732c-.588.882-1.198 1.752-1.861 2.563a21.316 21.316 0 0 1-2.087 2.26c-.717.698-1.491 1.287-2.244 1.809-.379.258-.771.477-1.136.705-.378.208-.757.384-1.113.566-.732.322-1.422.573-2.055.716-.618.192-1.188.226-1.638.314-.458.056-.823.043-1.067.061l-.376.014s.521-.089 1.41-.267c.435-.136.981-.226 1.561-.478.594-.206 1.229-.521 1.915-.864.331-.198.682-.39 1.03-.612.337-.243.696-.475 1.042-.745a23.218 23.218 0 0 0 2.056-1.848c.679-.678 1.322-1.438 1.948-2.232.631-.79 1.212-1.641 1.776-2.503 1.123-1.73 2.095-3.56 2.946-5.307a66.02 66.02 0 0 0 2.134-4.877c.561-1.458 1.03-2.677 1.313-3.546l.457-1.365zm50.963 3.976s.201 1.762.755 4.339c.245 1.294.653 2.776 1.086 4.357.244.783.465 1.601.753 2.412.267.818.55 1.644.882 2.452.291.824.637 1.625.985 2.411.329.795.709 1.55 1.067 2.286.347.744.74 1.431 1.095 2.094l.524.964.547.867.949 1.528.795 1.139.681 1.01-.833-.888-.942-1.039c-.354-.409-.718-.9-1.116-1.435l-.623-.835-.607-.935c-.413-.645-.876-1.312-1.248-2.061-.391-.739-.832-1.486-1.168-2.298a33.8 33.8 0 0 1-1.04-2.451 37.05 37.05 0 0 1-.867-2.516c-.29-.83-.461-1.679-.685-2.483a42.379 42.379 0 0 1-.789-4.49c-.178-1.321-.194-2.436-.223-3.21-.014-.775.022-1.218.022-1.218z"/><radialGradient id="a" cx="138.832" cy="-24.819" r="13.543" gradientTransform="matrix(1 0 0 -1 -47.6 50.01)" gradientUnits="userSpaceOnUse"><stop offset="0" stop-color="#ED1C24"/><stop offset="1" stop-color="#ED1C24" stop-opacity="0"/></radialGradient><circle opacity=".25" fill="url(#a)" cx="91.232" cy="74.829" r="13.543"/><radialGradient id="b" cx="172.695" cy="-24.819" r="13.543" gradientTransform="matrix(1 0 0 -1 -47.6 50.01)" gradientUnits="userSpaceOnUse"><stop offset="0" stop-color="#ED1C24"/><stop offset="1" stop-color="#ED1C24" stop-opacity="0"/></radialGradient><circle opacity=".25" fill="url(#b)" cx="125.096" cy="74.829" r="13.543"/><path fill="#B54A37" d="M106.032 78.9c3.684.384 9.005.25 10.661-.804 0 0-.613 1.77-1.51 3.109-1.233 1.841-3.189 2.375-6.466 2.301-5.047-.115-5.229.249-6.771-2.956-.185-.389-1.196-2.561-1.717-3.228.001.001 2.177 1.202 5.803 1.578z"/><path fill="#fff" d="M114.832 79.97c-2.52 1.965-8.547 2.458-11.874.312-.249-.161-.455-.891-1.339-1.613l14.24-.604-1.027 1.905z"/><path fill="#FF5D47" d="M115.824 79.527c-.717 1.106-3.088 3.252-7.161 3.217-4.074.036-6.523-2.486-7.239-3.593a56.32 56.32 0 0 0-.923-1.335c.389 1.079.979 2.69 1.598 3.82 1.003 1.823 1.943 2.532 2.729 3.054a6.999 6.999 0 0 0 3.798 1.15h.076a7.01 7.01 0 0 0 3.798-1.15c.784-.522 1.727-1.228 2.729-3.049.619-1.131 1.209-2.745 1.598-3.823-.002 0-.702 1.248-1.003 1.709zm1.487-2.218c-.322.262-.971.512-2.303.33-2.551-.345-4.583-.256-6.321-.086-1.775-.25-3.86-.288-6.336.021-1.333.165-1.978-.091-2.299-.358 1.729 2.297 5.295 2.709 8.577 2.685v-.03h.078v.03c3.281.057 6.85-.317 8.604-2.592z"/><path fill="#B54A37" d="M117.55 77.044c-.413.165-.897.797-.897.797-1.18 1.518-5.379 1.887-6.539 1.881-.355-.001-.822.022-1.352.043-.531-.021-.998-.044-1.353-.043-1.159.005-5.358-.364-6.539-1.881 0 0-.483-.632-.897-.797-.572-.228-.84-.023-.358.303.167.116.472-.095.963.66.743 1.152 3.49 1.708 5.229 1.902.875.097 1.913.152 2.955.178a36.085 36.085 0 0 0 2.955-.178c1.739-.194 4.486-.75 5.229-1.902.49-.755.797-.544.965-.66.48-.326.213-.531-.361-.303z"/><path opacity=".32" fill="#F5B1A2" d="M113.111 73.043c-.639-1.693-2.15-1.313-3.567-1.075-.811.134-1.48.031-2.267-.179-.812-.216-1.665-.29-2.27.404-.449.514.502.608.832.714.786.25 1.345.842 2.051 1.247 1.905 1.09 3.279-1.278 5.221-1.111-.034-.091-.744-.064 0 0z"/><path fill="#AE8879" d="M107.299 72.873l.265.216c-.263-.275-.513-.543-.81-.782-.155-.124-1.235-.857-1.426-.544-.028.043.933.402 1.003.434.336.128.706.427.968.676zm2.819.119l-.283.188c.287-.251.56-.499.875-.712.147-.102 1.34-.747 1.468-.421.021.035-.964.319-1.037.345-.347.118-.738.365-1.023.6z"/><path opacity=".2" fill="#F5B1A2" d="M106.709 73.479c-.467-.496-1.163-.986-1.882-.818.671-1.183 2.616.814 3.315 1.018.862.25 1.673-.134 2.428-.511.867-.433 1.709-.574 2.621-.184-.543.17-1.037.113-1.578.378-.579.283-1.094.662-1.662.968-1.256.671-2.335.109-3.242-.851zm4.925-1.076c.72.782-1.593 1.845-2.152 1.758.08-.667 1.348-2.637 2.152-1.758zm-5.791-.152c-.719.783 1.592 1.848 2.153 1.759-.08-.669-1.35-2.638-2.153-1.759z"/><path opacity=".5" d="M112.693 72.031s1.023-.385.822-1.388c-.199-1.004-.757-1.501-.757-1.501s.831.69.923 1.707c.09 1.009-.988 1.182-.988 1.182zm-7.862-.075s-1.022-.384-.824-1.388c.2-1.001.757-1.501.757-1.501s-.829.693-.92 1.705c-.093 1.015.987 1.184.987 1.184z" fill="#F6A76A"/><path opacity=".3" fill="#FDE9D7" d="M112.066 67.394s-.594-.255-.793-1.286c-.194-1.031-.987-2.877-1.384-.473-.395 2.404-.293 3.605.574 3.298 1.273-.449 2.102-.12 2.148-.679.032-.352-.177-.676-.545-.86z"/><path fill="#1A1A1A" d="M101.542 52.041c-2.389-.867-4.833-1.995-7.327-2.498a13.935 13.935 0 0 0-4.181-.204c-.333.035-2.905.561-2.915.381-.016-.297 2.814-1 3.105-1.061 1.61-.343 3.255-.371 4.888-.19 1.528.169 2.96.557 4.274 1.372.355.22 2.542 1.73 2.156 2.2zM115.45 51.924c1.554-2.425 4.567-3.313 7.267-3.529 1.466-.117 3.012-.041 4.439.334.303.079 2.957.865 2.759 1.132-.081.109-2.839-.528-3.149-.546-1.539-.089-3.065.012-4.565.384-1.405.349-2.771.948-4.136 1.43-.355.124-2.369 1.121-2.615.795z"/><path fill="#fff" d="M99.109 56.516c.568.472 2.349 1.93 2.349 1.93-.569 1.356-2.236 1.88-3.692 2-1.556.129-3.14-.034-4.688-.186-1.021-.101-2.374.008-3.239-.611-.48-.345-2.182-1.624-1.959-2.553.251-1.054 2.106-1.661 3.027-1.942 1.969-.604 3.712-.349 5.704.132 1.048.253 1.416.336 2.498 1.23z"/><radialGradient id="c" cx="623.418" cy="-7.196" r="2.618" gradientTransform="rotate(-180 359.098 27.203)" gradientUnits="userSpaceOnUse"><stop offset="0" stop-color="#28353D"/><stop offset=".508" stop-color="#27323B"/><stop offset=".809" stop-color="#222A33"/><stop offset="1" stop-color="#1D2029"/></radialGradient><path fill="url(#c)" d="M92.419 54.957a2.803 2.803 0 0 0-.707 1.819 2.806 2.806 0 1 0 5.613.094 2.77 2.77 0 0 0-.64-1.829c-.671-.282-3.611-.294-4.266-.084z"/><path fill="#212121" d="M92.881 57.027a1.717 1.717 0 1 0 3.434.059 1.718 1.718 0 1 0-3.434-.059z"/><path fill="#B76B2C" d="M99.699 60.013s-5.79 1.371-9.577-.56c-1.929-.981-2.243-2.357-2.243-2.357s-.247 2.011 2.659 3.008c4.518 1.544 9.161-.091 9.161-.091z"/><path fill="#fff" d="M92.061 57.231a.5.5 0 1 0 .51-.86.5.5 0 0 0-.51.86zm1.23-.542c.19.118.442.051.556-.139a.407.407 0 0 0-.697-.42.403.403 0 0 0 .141.559z"/><path fill="#1A1A1A" d="M101.458 58.445s-2.941-4.063-8.878-4.325c-4.715-.214-6.408 2.484-6.408 2.484l1.773.553s1.954-1.946 5.317-1.849c4.423.125 7.574 2.545 8.196 3.137z"/><path fill="#fff" d="M118.416 56.516c-.568.472-2.35 1.93-2.35 1.93.57 1.356 2.236 1.88 3.691 2 1.557.129 3.141-.034 4.689-.186 1.021-.101 2.373.008 3.238-.611.48-.345 2.183-1.624 1.961-2.553-.252-1.054-2.107-1.661-3.028-1.942-1.97-.604-3.712-.349-5.704.132-1.046.253-1.416.336-2.497 1.23z"/><radialGradient id="d" cx="858.186" cy="-11.163" r="2.617" gradientTransform="matrix(1 -.017 -.017 -1 -735.022 60.51)" gradientUnits="userSpaceOnUse"><stop offset="0" stop-color="#28353D"/><stop offset=".508" stop-color="#27323B"/><stop offset=".809" stop-color="#222A33"/><stop offset="1" stop-color="#1D2029"/></radialGradient><path fill="url(#d)" d="M125.105 54.957c.431.485.694 1.122.705 1.819a2.806 2.806 0 1 1-4.973-1.735c.675-.282 3.614-.294 4.268-.084z"/><path fill="#212121" d="M124.643 57.027a1.714 1.714 0 0 1-1.685 1.747 1.718 1.718 0 1 1 1.685-1.747z"/><path fill="#B76B2C" d="M117.825 60.013s5.79 1.371 9.577-.56c1.929-.981 2.242-2.357 2.242-2.357s.246 2.011-2.658 3.008c-4.518 1.544-9.161-.091-9.161-.091z"/><path fill="#fff" d="M120.746 57.231a.5.5 0 1 0 .51-.86.5.5 0 0 0-.51.86zm1.231-.542a.405.405 0 1 0 .414-.698.412.412 0 0 0-.557.139.403.403 0 0 0 .143.559z"/><path fill="#1A1A1A" d="M116.064 58.445s2.943-4.063 8.879-4.325c4.715-.214 6.41 2.484 6.41 2.484l-1.774.553s-1.954-1.946-5.317-1.849c-4.422.125-7.573 2.545-8.198 3.137z"/><path opacity=".5" fill="#F6A76A" d="M109.427 74.625s-.028 2.448-1.295 2.395c-1.266-.055.346.417 1.113.208.765-.21.813-.588.182-2.603z"/><path fill="#FF6248" d="M141.189 12.471s5.772-.856 8.156.932c3.107 2.327-3.381 12.889-6.545 12.827-3.091-.06-5.383-4.366-5.629-7.239 0 0 2.599-2.094 4.018-6.52z"/><path opacity=".3" d="M139.415 15.574c1.417-1.51 3.373-1.063 4.548-.403.075.042.559.066.374-.039-1.335-.75-3.715-1.448-5.358.305-.075.08.337.244.436.137zm.076 1.05c1.485.093 2.878.896 3.503 2.258.063.13.548.186.521.125-.754-1.644-2.627-2.486-4.371-2.595-.248-.015.249.204.347.212zm-1.732 1.613c1.55-.819 2.69.894 3.224 2.359.035.095.352.423.268.188-.604-1.664-1.932-3.922-3.73-2.972-.083.042.129.481.238.425z"/><path fill="#FF6248" d="M136.779 9.751s-1.747-5.896-4.494-6.871c-3.276-1.167-10.23 9.075-8.521 11.607 2.135 3.164 6.317 2.852 8.995 1.782 0 .001.701-3.264 4.02-6.518z"/><path opacity=".3" d="M134.661 12.142c.598-1.672-.556-3.034-1.552-3.707-.066-.042-.282-.413-.125-.305 1.133.762 2.66 2.361 1.963 4.303-.03.085-.327-.173-.286-.291zm-.869.964c-.862-1.353-2.344-2.322-3.951-2.334-.151-.001-.46-.439-.388-.437 1.938.016 3.705 1.419 4.718 3.009.145.229-.321-.144-.379-.238zm-.205 1.546c-.276-1.3-2.31-.917-3.778-.35-.096.037-.541.056-.308-.033 1.673-.643 4.242-1.243 4.563.267.015.064-.459.206-.477.116z"/><path fill="#FFC48C" d="M136.793 9.691s3.295.497 4.396 2.78c0 0-1.123 4.12-4.019 6.52 0 0-3.224-.523-4.427-2.73.001 0 .877-4.343 4.05-6.57z"/><path fill="#FF6248" d="M80.921 9.157s-5.459-.81-7.713.88c-2.938 2.201 3.198 12.188 6.189 12.13 2.923-.058 5.09-4.129 5.323-6.846.001 0-2.456-1.98-3.799-6.164z"/><path opacity=".3" d="M82.599 12.091c-1.34-1.427-3.189-1.005-4.3-.382-.071.041-.529.063-.353-.036 1.262-.709 3.512-1.369 5.066.29.069.073-.32.227-.413.128zm-.072.992c-1.404.089-2.721.848-3.312 2.136-.059.122-.519.175-.494.117.714-1.554 2.485-2.348 4.132-2.452.237-.016-.232.192-.326.199zM84.165 14.607c-1.466-.774-2.544.846-3.049 2.232-.032.09-.331.398-.251.179.571-1.575 1.827-3.71 3.528-2.811.075.039-.126.454-.228.4z"/><path fill="#FF6248" d="M85.091 6.585S86.743 1.009 89.34.087c3.098-1.103 9.674 8.581 8.057 10.976-2.019 2.991-5.974 2.696-8.505 1.686.001 0-.663-3.088-3.801-6.164z"/><path opacity=".3" d="M87.094 8.845c-.566-1.582.524-2.869 1.468-3.505.062-.04.267-.39.117-.288-1.07.721-2.514 2.232-1.857 4.068.03.081.311-.163.272-.275zm.822.912c.816-1.28 2.216-2.195 3.735-2.208.144-.001.435-.415.366-.414-1.832.015-3.502 1.342-4.46 2.844-.137.219.303-.134.359-.222zm.193 1.462c.262-1.229 2.184-.868 3.574-.332.089.034.511.052.291-.031-1.582-.607-4.012-1.176-4.315.252-.014.062.433.197.45.111z"/><path fill="#FFC48C" d="M85.078 6.528s-3.116.47-4.156 2.629c0 0 1.061 3.896 3.8 6.164 0 0 3.047-.494 4.186-2.581-.001 0-.829-4.106-3.83-6.212z"/><path fill="#FF6248" stroke="#C9342D" stroke-width=".5" stroke-miterlimit="10" d="M154.918 220H62.607c4.551-7.809 8.652-15.199 10.801-21.493l.055-.153c.724-2.16.921-4.485.746-6.82-.176-2.555-.779-5.122-1.557-7.512-.768-2.369-4.957-8.652-6.459-22.723-.329-3.07-.405-6.996-.329-11.294.01-.56.021-1.141.043-1.711v-.022c.099-3.871.307-7.982.559-11.963a431.3 431.3 0 0 1 .274-4.002c.066-.922.131-1.854.208-2.753v-.021c.022-.438.055-.878.088-1.306.088-1.097.176-2.148.252-3.168v-.022c.131-1.623.263-3.147.384-4.507.296-3.543.504-6.064.504-6.875l.384-.055 6.777-1.031v.033c-.044 1.709.055 3.037.252 4.211.087.438.197.932.329 1.446.286 1.054.658 2.052 1.086 3.202.592 1.58 4.321 6.24 9.474 9.486h.011c2.457 1.522 5.231 2.729 8.147 3.125.439.066.954.121 1.524.176.428.033.888.077 1.382.1l.493.032c.242.022.482.033.735.044l.877.044c.735.032 1.502.065 2.292.087.516.022 1.031.033 1.568.043.34.012.69.022 1.052.022 1.371.022 2.786.032 4.2.032.548 0 1.097 0 1.645-.01.844 0 1.709 0 2.543-.022.352 0 .713-.011 1.064-.022.526-.011 1.053-.021 1.557-.043.57-.011 1.119-.033 1.646-.055s1.031-.044 1.524-.076c.252-.011.505-.021.746-.044l.494-.032c.481-.022.942-.065 1.371-.1a30.394 30.394 0 0 0 1.523-.176c1.502-.208 2.961-.625 4.354-1.184h.012c7.063-2.863 12.545-9.476 13.279-11.428.494-1.327.91-2.434 1.207-3.662.064-.263.121-.515.164-.746.219-1.238.34-2.643.297-4.484l.428.065 6.59.998.132.022c0 1.425.658 8.082 1.272 16.272v.011l.033.361c.142 1.887.273 3.85.416 5.856v.011a413.4 413.4 0 0 1 .428 8.214c.088 2.095.154 4.156.176 6.14v.066c.064 4.068-.021 7.786-.34 10.714-1.502 14.069-5.691 20.353-6.459 22.722-.778 2.412-1.394 5.012-1.557 7.588-.154 2.313.032 4.605.756 6.744l.066.209c2.162 6.285 6.265 13.664 10.792 21.439z"/><path fill="#E84D41" d="M75.214 114.875c-.11 4.126.591 6.039 1.658 8.889.875 2.34 8.587 11.389 17.649 12.613 2.857.391 8.532.586 14.24.591 5.708-.005 11.381-.202 14.24-.591 9.062-1.225 16.771-10.273 17.649-12.613 1.113-2.966 1.779-4.818 1.656-8.889 0 0-.543 3.617-1.656 6.583-.879 2.339-8.588 11.39-17.649 12.612-2.858.391-8.532.587-14.24.592-5.708-.005-11.382-.202-14.24-.592-9.062-1.223-16.774-10.272-17.649-12.612-1.066-2.851-1.658-6.583-1.658-6.583z"/><circle fill="#E84D41" cx="108.763" cy="149.759" r="2.7"/><circle fill="#E84D41" cx="108.763" cy="161.288" r="2.7"/><circle fill="#E84D41" cx="108.763" cy="172.817" r="2.7"/><path d="M95.473 202.246l-.823 1.611-4.102 8.061L86.436 220H83.53l6.174-9.18 4.705-6.995zm9.989-.285l-.022.132-.515 2.644-.044.24v.012l-.176.844-.187.998-.011.021-.164.846v.011L101.954 220h-2.336l3.608-11.13 1.02-3.147.022-.076.055-.144v-.011l.252-.778.011-.044.833-2.577.043-.132zM134.007 220H131.1l-3.914-7.687-4.288-8.422-.691-1.37-.143-.275.176.253.899 1.349 4.89 7.257zm-16.098 0h-2.337l-2.357-12.105-.152-.802-.013-.077v-.011l-.448-2.259-.483-2.521-.056-.264.087.264.56 1.732.132.417.121.362.362 1.129v.01l.055.154v.012l1.075 3.289v.011z" fill="#EFFAB4"/><path fill="#EFFAB4" d="M72.458 198.145c11.196 4.448 23.799 6.672 36.393 6.672 12.526 0 25.062-2.199 36.215-6.613-.396-2.846-.768-5.18-1.063-6.883-21.482 9.057-48.944 9.047-70.41-.041l-1.135 6.865z"/><path fill="#F9BF89" d="M109.016 202.971l-.319 1.842-.581 3.399-2.04 11.788H94.672l3.827-8.005 3.542-7.402.055-.111.219-.461.954-2.005.121-.243.077-.164.428.112.076.009 1.447.363h.022zM123.436 220h-11.405l-2.029-11.734-.592-3.453-.318-1.842 3.027-.746h.031l1.635-.407.307-.076.549-.133.109.243.121.241 1.108 2.313v.011l.078.153.164.33v.011l3.89 8.136z"/><path fill="#FF9F80" d="M104.87 195.143s-6.996-6.104-11.723-5.754c-6.16.447-6.539 20.163-2.25 22.797 4.192 2.573 10.959-1.225 13.757-4.859 0 0-1.683-5.038.216-12.184z"/><path opacity=".4" d="M104.581 200.823c-.602-3.237-3.605-4.32-5.743-4.446-.138-.008-.806-.391-.467-.371 2.432.141 6.217 1.25 6.913 5.012.03.168-.661.031-.703-.195zm-1.002 1.341c-2.069-1.148-4.624-1.271-6.631.018-.193.12-.893-.225-.806-.285 2.423-1.553 5.653-1.068 8.081.283.347.192-.506.059-.644-.016zM104.515 205.813c-1.373-2.429-4.373-1.112-6.346.393-.126.097-.83.263-.519.025 2.24-1.713 5.958-3.597 7.55-.779.071.122-.59.527-.685.361z"/><path fill="#FF9F80" d="M113.109 195.29s7.406-6.399 11.92-5.345c5.391 1.25 5.91 20.938 1.443 22.863-5.574 2.402-10.908-1.606-13.576-5.338.002-.001 1.868-4.974.213-12.18z"/><path d="M113.896 200.311c.635-2.756 3.347-3.588 5.263-3.634.122 0 .731-.31.427-.3-2.17.048-5.588.878-6.324 4.075-.033.14.588.051.634-.141zM114.23 202.348c2.318-1.072 5.131-1.098 7.295.266.205.128.992-.193.896-.254-2.608-1.643-6.18-1.28-8.901-.022-.391.183.552.083.71.01zm-1.05 2.246c1.487-1.507 3.879.754 5.361 2.776.096.129.676.539.439.219-1.688-2.297-4.614-5.307-6.342-3.563-.074.078.438.674.542.568z" opacity=".4"/><path fill="#FFC48C" d="M113.145 195.197s-4.838-2.166-8.274-.055c0 0-2.036 6.482-.216 12.185 0 0 4.765 2.067 8.272.146-.001-.002 2.555-6.569.218-12.276z"/><path fill="#fc9" stroke="#D09D6A" stroke-width=".5" stroke-miterlimit="10" d="M69.571 125.989l-.438 2.829-.318 2.051-.526 3.443-2.27 14.684-.153 1.009-1.689 10.955v.022l-.044.219c-.242 1.326-2.928 15.561-4.935 21.515l-.011.011-.252.713c-1.096 2.961-3.005 9.728-4.573 15.528v.011c-1.458 5.352-2.62 9.892-2.62 9.892s-1.579 7.084-2.018 11.13H38l1.809-33.753s1.349-12.304 2.128-15.726c.79-3.422 3.004-9.605 3.004-9.605s4.529-19.969 6.273-28.281c.263-1.238.46-2.215.57-2.828.833-4.629 4.112-9.048 4.364-9.388l.022-.021 2.741 1.14 7.786 3.257.592.241 2.282.952z"/><path fill="#FFB679" d="M69.571 125.989l-.438 2.829-.318 2.051-.526 3.443-2.27 14.684-.153 1.009-1.689 10.955v.022l-.044.219c-.242 1.326-2.928 15.561-4.935 21.515l-.011.011-.252.713c-1.096 2.961-3.005 9.728-4.573 15.528v.011c-1.458 5.352-2.62 9.892-2.62 9.892s-1.579 7.084-2.018 11.13h-1.491c.351-3.904 2.083-11.701 2.083-11.701s1.174-4.529 2.621-9.88l.011-.022c.461-1.678.932-3.432 1.415-5.153 1.185-4.244 2.369-8.269 3.147-10.363.088-.22.176-.46.264-.724v-.01c2.105-6.252 4.967-21.614 4.967-21.614l.011-.121.011-.011 2.313-15.045 1.393-9.047.669-4.388.131-.844.121-.778.296-1.875.46-3.004-.855-.361-.592-.242-7.775-3.245-2.774-1.151.022-.021 2.741 1.141 7.786 3.257.592.241 2.28.949zm-.758 4.875l-4.633 30.101-.007.014-4.98 21.733-.005.015-.255.719c-1.096 2.953-3 9.724-4.567 15.522-.128-1.78-.196-3.772-.1-4.778 1.011-10.819 6.698-28.635 7.555-42.799.898-14.863 3.698-18.888 6.856-20.515l.136-.012z"/><path fill="#fc9" stroke="#D09D6A" stroke-width=".5" stroke-miterlimit="10" d="M180.699 220h-12.205c-.592-3.246-1.271-6.305-1.271-6.305s-1.174-4.529-2.621-9.893v-.011c-1.567-5.801-3.476-12.567-4.572-15.517l-.252-.725-.012-.011c-2.007-5.955-4.692-20.188-4.935-21.515l-.044-.219v-.012l-2.764-17.929-.537-3.487-1.338-8.686-.756-4.879 1.25-.517 12.149-5.077.022.022c.207.284 2.631 3.553 3.849 7.38.219.658.396 1.327.517 2.007.877 4.813 6.842 31.11 6.842 31.11s2.215 6.195 3.004 9.617c.779 3.41 2.127 15.713 2.127 15.713L180.699 220z"/><path fill="#FFB679" d="M170.02 220h-1.524c-.593-3.246-1.271-6.305-1.271-6.305s-1.175-4.529-2.621-9.893v-.011c-1.568-5.801-3.477-12.567-4.574-15.517l-.252-.725-.01-.011c-2.008-5.955-4.693-20.188-4.936-21.515l-.044-.219v-.012l-2.763-17.929-.537-3.487-1.338-8.686-.758-4.879 1.25-.517 12.15-5.077.021.022-11.996 5.011.746 4.869.252 1.623 1.229 7.949 3.158 20.529v.01l.021.132s2.861 15.362 4.967 21.603v.012c.088.263.176.504.264.724.777 2.095 1.963 6.13 3.146 10.362.482 1.722.965 3.488 1.416 5.166l.01.011c1.449 5.353 2.621 9.892 2.621 9.892s.757 3.425 1.373 6.868zm-19.872-84.307l4.633 30.101.007.013 4.979 21.734.006.014.256.721c1.096 2.951 2.998 9.723 4.566 15.521.129-1.779.196-3.773.1-4.777-1.012-10.82-6.697-28.637-7.555-42.8-.897-14.862-3.697-18.888-6.855-20.515l-.137-.012z"/><path fill="#E84D41" d="M66.213 151.348c13.39-8.129 2.698-37.606 2.698-37.606s-21.429-9.361-24.045 16.782c0-.003 21.066 4.399 21.347 20.824z"/><path stroke="#C9342D" stroke-miterlimit="10" d="M44.866 130.521s21.066 4.4 21.347 20.826" fill="none"/><path fill="#E84D41" d="M151.634 151.348c-13.389-8.129-2.696-37.606-2.696-37.606s21.429-9.361 24.045 16.782c-.001-.003-21.067 4.399-21.349 20.824z"/><path stroke="#C9342D" stroke-miterlimit="10" d="M172.982 130.521s-21.067 4.4-21.349 20.826" fill="none"/></svg>