<svg xmlns="http://www.w3.org/2000/svg" width="220" height="220" viewBox="0 0 220 220"><path fill="#F9C795" stroke="#D09D6A" stroke-width=".5" stroke-miterlimit="10" d="M144.15 118.684c-3.029 4.285-23.813 17.793-32.645 17.365-.35-.013-.699-.064-1.049-.104-.35.039-.699.091-1.049.104-8.832.428-29.616-13.08-32.646-17.365-3.03-4.287-5.97-10.101-4.48-12.586.958-1.606 7.264-4.675 11.745-11.435a26.04 26.04 0 0 0 1.697-2.965c1.295-2.59 2.253-5.607 2.642-9.168.116-1.01.182-2.085.182-3.211v-.273a154.96 154.96 0 0 0-.713-14.27 149.366 149.366 0 0 0-.841-7.006c-.726-4.933-1.463-8.326-1.787-9.699-.104-.44-.182-.66-.182-.66s12.29-4.48 25.433-6.513c13.144 2.032 25.42 6.513 25.42 6.513l-.168.66c-.323 1.373-1.063 4.766-1.787 9.699a149.562 149.562 0 0 0-.661 5.258 150.23 150.23 0 0 0-.894 16.018v.273c0 1.125.063 2.201.182 3.211.351 3.211 1.165 5.996 2.267 8.405a27.643 27.643 0 0 0 2.07 3.729c4.469 6.759 10.787 9.829 11.732 11.435 1.503 2.484-1.436 8.297-4.468 12.585z"/><path fill="#EAA76F" d="M102.938 45.825s-.235.059-.647.137c-.413.069-1.001.196-1.71.296a64.568 64.568 0 0 1-10.454.654c-.716-.011-1.316-.065-1.734-.082-.419-.027-.66-.056-.66-.056s.235-.059.647-.138c.413-.069 1.001-.197 1.71-.297a63.662 63.662 0 0 1 5.214-.539 64.275 64.275 0 0 1 5.24-.113c.716.012 1.316.064 1.734.082.42.027.66.056.66.056z"/><path opacity=".5" fill="#F6A76A" d="M134.814 90.933c-19.359 13.35-30.625 13.092-49.091.764 1.295-2.59 2.253-5.607 2.642-9.168.116-1.01.182-2.085.182-3.211v-.273a154.96 154.96 0 0 0-.713-14.27c12.522-2.577 34.083-5.982 45.428-1.748a149.946 149.946 0 0 0-.895 16.018v.273c0 1.125.064 2.201.182 3.211.349 3.21 1.165 5.994 2.265 8.404z"/><path fill="#F9C795" stroke="#D09D6A" stroke-width=".5" stroke-miterlimit="10" d="M149.17 45.514c-1.352-2.701-2.499-2.395-3.436-.713.937-15.455-1.604-34.229-18.51-39.889 3.258 1.09 14.697 4.916-.009-.002l-.008-.002c-5.354-1.788-11.294-2.152-17.159-1.753C82.628 1.286 73.583 21.46 74.364 43.87c-.782-.693-1.672-.341-2.66 1.775-.695 1.49-.912 2.788-.665 7.383.252 4.596 2.253 10.921 4.861 11.159.871.08 1.402-.205 1.748-.668.293 1.406.507 2.8.507 4.047 8.078 40.035 55.708 40.035 63.787 0 0-1.861.466-4.048.979-6.116.238.964.813 1.677 2.194 1.571 2.609-.203 4.563-6.169 4.777-10.515.213-4.346-.013-5.577-.722-6.992z"/><path opacity=".5" fill="#F6A76A" d="M146.661 49.229c1.769.096 1.08 5.655.759 7.61-.322 1.953-2.002 3.033-3.001 2.59-.995-.44-1.321-3.374-.265-3.478 1.059-.104 1.681-.86 1.177-1.624-.507-.763-.865-5.219 1.33-5.098zm-71.971-.438c-1.533.073-.896 5.187-.602 6.985.295 1.797 1.76 2.804 2.625 2.405.86-.396 1.122-3.088.203-3.193-.919-.104-1.465-.804-1.033-1.502.435-.698.712-4.787-1.193-4.695z"/><path fill="#EAA76F" d="M132.048 33.763l-1.748-.059c-1.11-.037-2.7-.15-4.601-.177l-3.064-.068c-1.085-.045-2.236.026-3.421.01-1.187.008-2.411-.006-3.655.054l-3.773.128-3.767.239c-1.244.065-2.464.185-3.645.299-1.179.13-2.329.179-3.407.32l-3.046.368c-1.891.208-3.454.478-4.557.622l-1.734.229 1.697-.419 1.955-.459a29.08 29.08 0 0 1 2.551-.527l3.038-.535c1.077-.2 2.226-.322 3.41-.473 1.187-.14 2.41-.32 3.663-.386l3.793-.275 3.804-.094c1.254-.057 2.489.014 3.683.032 1.194.036 2.348.04 3.441.143l3.078.235c.955.054 1.82.167 2.587.277l1.987.266 1.731.25z"/><path d="M131.585 30.535999999999998" fill="none"/><path fill="#EAA76F" d="M129.462 36.75l-1.748-.059c-1.11-.037-2.7-.15-4.601-.177l-3.065-.069c-1.085-.045-2.235.026-3.421.01-1.188.008-2.412-.006-3.656.054l-3.774.128-3.767.239c-1.244.064-2.464.185-3.645.299-1.179.129-2.328.179-3.407.32l-3.046.368c-1.891.208-3.454.477-4.557.621l-1.734.229 1.697-.419 1.955-.459a29.157 29.157 0 0 1 2.551-.527l3.038-.535c1.077-.201 2.226-.322 3.411-.473 1.186-.14 2.41-.32 3.663-.386l3.794-.274 3.803-.094c1.254-.057 2.488.014 3.684.032 1.194.036 2.348.04 3.441.142l3.079.235c.954.054 1.821.167 2.587.277l1.988.266 1.73.252z"/><path opacity=".5" fill="#F6A76A" d="M111.503 74.078s-.044 3.965-2.096 3.879c-2.05-.087.562.676 1.801.336 1.242-.339 1.317-.949.295-4.215z"/><path fill="#B3B3B3" d="M82.871 47.102c2.947-2.013 6.47-3.244 9.974-3.799 4.133-.655 7.783.945 11.476 2.554.269.117-.2.253-.239.26a7.232 7.232 0 0 1-1.264.091c-1.132-.003-2.264-.166-3.378-.355-2.138-.364-4.263-1.075-6.449-1.021-1.983.049-3.959.445-5.867.966a29.956 29.956 0 0 0-3.059 1.018c-.281.108-1.039.638-1.194.286zm56.24-.108c-3.116-1.31-6.778-2.226-10.175-2.124-2.165.065-4.224.796-6.333 1.223-1.107.225-2.234.423-3.366.462-.184.006-2.046-.051-1.401-.355 3.673-1.737 7.238-3.377 11.417-2.846 2.058.262 4.069.761 6 1.524.443.175 4.158 1.656 3.858 2.116z"/><path fill="#fff" d="M102.128 51.778c.099.834.388 1.654-.02 2.414-.788 1.47-1.96 2.198-3.617 2.18-1.77-.02-3.541-.375-5.271-.712-1.141-.223-2.68-.244-3.59-1.033-.506-.44-2.29-2.069-1.939-3.096.396-1.161 2.556-1.644 3.625-1.864 2.287-.474 4.784-.286 7.082.051 1.386.202 3.168.589 3.73 2.06z"/><radialGradient id="a" cx="632.974" cy="6.336" r="2.967" gradientTransform="rotate(-173.72 365.17 44.357)" gradientUnits="userSpaceOnUse"><stop offset="0" stop-color="#28353D"/><stop offset=".508" stop-color="#27323B"/><stop offset=".809" stop-color="#222A33"/><stop offset="1" stop-color="#1D2029"/></radialGradient><path fill="url(#a)" d="M93.044 49.606A3.184 3.184 0 0 0 94.86 55.1a3.184 3.184 0 0 0 3.515-2.809 3.153 3.153 0 0 0-.527-2.134c-.726-.391-4.042-.72-4.804-.551z"/><path fill="#212121" d="M93.343 51.993a1.947 1.947 0 1 0 3.869.432 1.944 1.944 0 0 0-1.719-2.151 1.945 1.945 0 0 0-2.15 1.719z"/><path fill="#666" d="M102.128 51.778s-.494-1.352-3.551-1.691c-3.059-.344-6.625-.024-7.553-.126-.926-.105-3.416 1.56-3.416 1.56s1.301-2.139 3.456-2.563c1.957-.388 7.53-.023 8.938.278 1.407.3 2.126 2.542 2.126 2.542z"/><path fill="#B76B2C" d="M100.426 56.021s-6.387.999-10.456-1.586c-2.072-1.314-2.279-2.903-2.279-2.903s-.492 2.249 2.68 3.683c4.933 2.227 10.055.806 10.055.806z"/><path fill="#fff" d="M92.396 52.133a.569.569 0 0 0 .792-.124.564.564 0 0 0-.12-.789.57.57 0 0 0-.796.123.565.565 0 0 0 .124.79zm1.446-.478a.461.461 0 1 0-.099-.646.457.457 0 0 0 .099.646zm25.664.113c-.1.845-.393 1.674.02 2.444.797 1.486 1.984 2.224 3.662 2.206 1.791-.02 3.582-.378 5.336-.721 1.152-.225 2.711-.247 3.633-1.046.513-.445 2.318-2.093 1.963-3.132-.402-1.176-2.588-1.664-3.67-1.888-2.314-.479-4.842-.29-7.167.052-1.403.204-3.207.596-3.777 2.085z"/><radialGradient id="b" cx="390.245" cy="33.498" r="3.003" gradientTransform="scale(1 -1) rotate(6.37 1029.805 -2374.952)" gradientUnits="userSpaceOnUse"><stop offset="0" stop-color="#28353D"/><stop offset=".508" stop-color="#27323B"/><stop offset=".809" stop-color="#222A33"/><stop offset="1" stop-color="#1D2029"/></radialGradient><path fill="url(#b)" d="M128.701 49.568a3.223 3.223 0 0 1-1.84 5.562 3.221 3.221 0 0 1-3.025-5.004c.736-.395 4.094-.727 4.865-.558z"/><path fill="#212121" d="M128.398 51.985a1.97 1.97 0 1 1-3.916.437 1.97 1.97 0 0 1 3.916-.437z"/><path fill="#666" d="M119.506 51.768s.5-1.367 3.594-1.712c3.096-.348 6.707-.024 7.646-.127.938-.106 3.458 1.578 3.458 1.578s-1.317-2.164-3.499-2.595c-1.98-.392-7.623-.023-9.048.282-1.425.304-2.151 2.574-2.151 2.574z"/><path fill="#B76B2C" d="M121.229 56.061s6.467 1.012 10.584-1.604c2.098-1.331 2.308-2.939 2.308-2.939s.498 2.276-2.713 3.726c-4.994 2.256-10.179.817-10.179.817z"/><path fill="#fff" d="M123.79 52.127a.574.574 0 0 0 .681-.924.574.574 0 1 0-.681.924zm1.464-.484a.463.463 0 0 0 .65-.099.47.47 0 0 0-.102-.655.468.468 0 0 0-.65.101.463.463 0 0 0 .102.653z"/><path opacity=".8" fill="#B54A37" d="M104.176 80.587h11.514v1.227h-11.514z"/><path fill="#FFAC81" d="M100.179 80.896c0-.29 3.365-.927 3.698-1 2-.427 4.258-.594 6.218-.25 1.877-.329 4.201-.175 6.198.248.336.071 3.717.706 3.717 1.003 0 .505-19.831.495-19.831-.001zm.006.002c1.45.038 2.914.234 4.355.346 1.851.146 3.695.167 5.555.234 1.823-.067 3.647-.074 5.459-.234 1.465-.127 2.969-.298 4.448-.346-4.498 3.99-15.28 3.883-19.817 0z"/><path fill="#B54A37" d="M109.926 81.607a104.648 104.648 0 0 1-5.117-.171l-1.013-.058c-2.326-.132-3.389-.192-4.167-.921-.607-.569-1.111-.235-1.443-.255l-.255-.033c-.347-.131-.409-.221-.392-.253.016-.028.11-.045.243-.045.182 0 .427.031.689.09.686.151 1.511.383 1.519.389 1.392.874 5.271 1.004 7.458 1.004h.013c.673 0 1.306.014 2.02.031l.44.009.443-.009a80.533 80.533 0 0 1 1.865-.033l.849.002c2.569 0 5.687-.101 6.996-.888.013-.01.838-.243 1.524-.395.264-.058.51-.091.691-.091.131 0 .229.018.242.045.018.033-.047.121-.393.254l-.232.049c-.275.04-.69-.263-1.454.233-1.194.771-1.935.782-3.408.804-.548.01-1.198.019-2.006.068a99.356 99.356 0 0 1-5.112.174z"/><path opacity=".32" fill="#F5B1A2" d="M110.641 69.352c2.914.35 6.418 1.519 6.504 1.985-3.852 2.185-11.914.933-11.666-.216.192-.892 3.309-1.992 5.162-1.769z"/><path fill="#AE8879" d="M115.896 70.171c.781-.043 1.598.411 1.549.581-.049.174-.844.035-1.533.08-.419.024-1.732.399-1.799.233-.064-.163 1.304-.863 1.783-.894zm-8.883-.308c.826.187 1.816.906 1.747 1.066-.069.162-1.207-.264-1.78-.408-.492-.119-1.651.043-1.717-.119-.07-.167 1.198-.666 1.75-.539z"/><path opacity=".2" fill="#F5B1A2" d="M107.334 71.722c-.83-1.019-2.064-2.028-3.34-1.684 1.193-2.438 4.642 1.677 5.883 2.097 1.531.516 2.973-.278 4.313-1.052 1.541-.888 3.031-1.179 4.656-.379-.971.352-1.845.235-2.805.779-1.027.582-1.943 1.367-2.949 1.991-2.235 1.383-4.15.224-5.758-1.752z"/><path opacity=".5" fill="#F6A76A" d="M118.43 70.22s1.6-.697 1.288-2.517c-.313-1.821-1.184-2.726-1.184-2.726s1.296 1.256 1.438 3.095c.146 1.839-1.542 2.148-1.542 2.148zm-14.182 0s-1.6-.697-1.288-2.517c.313-1.821 1.183-2.726 1.183-2.726s-1.296 1.256-1.439 3.095c-.144 1.839 1.544 2.148 1.544 2.148z"/><path opacity=".3" fill="#FDE9D7" d="M116.115 59.989s-1.117-.553-1.487-2.802c-.368-2.249-1.858-6.269-2.604-1.033-.741 5.239-.551 7.858 1.076 7.188 2.394-.978 3.95-.264 4.041-1.479.054-.771-.338-1.473-1.026-1.874z"/><path fill="#eee" d="M146.293 21.137s-2.564-11.551-16.168-16.683c-12.578-7.699-31.314-3.08-31.314-3.08-22.84 3.851-26.949 29.513-26.949 29.513-1.082 12.266 1.842 17.075 1.842 17.075 2.833 4.206 3.807 8.935 3.807 8.935l-.259-15.227c1.284-10.268 8.727-10.011 8.727-10.011 17.709 3.591 20.276-7.314 20.276-7.314 7.7-12.192 19.505-7.058 19.505-7.058l1.282.77s10.524 3.593 11.04 15.398c0 0-2.313 11.036 5.13 16.683 0 0-.256 1.325-.104 5.355-.001 0 10.628-21.781 3.185-34.356z"/><path fill="#BEBEBF" d="M130.893 4.967s-.384 8.083-3.209 13.474c0 0 1.93-3.208 4.494-13.088l-1.285-.386zm-3.209 13.474s10.936 2.124 10.36 18.541c0 0-1.526 5.537 3.627 9.926 0 0 .955 1.147.571 3.819 0 0 1.721-3.435-1.526-6.108 0 0-2.481-2.865-1.335-8.02 0 0 2.051-14.147-11.697-18.158zm5.778-11.048s16.035 8.398 14.7 28.636c0-.001 2.293-16.228-14.7-28.636zm-8.019 9.353s-11.646-7.062-22.525 6.109c0 0-6.491 8.973-15.654 5.344 0 0 9.545 3.055 15.08-6.681 0 .001 8.02-12.599 23.099-4.772zm-2.393-2.394s-11.646-7.063-22.526 6.109c0 0-6.491 8.972-15.654 5.344 0 0 9.545 3.056 15.08-6.681-.001.001 8.019-12.599 23.1-4.772zm6.787-9.25s-27.493-16.038-50.591 9.545c0-.001 17.373-22.527 50.591-9.545z"/><path fill="#EAA76F" d="M88.099 51.463s-.328.239-.846.467a9.804 9.804 0 0 1-3.977.826c-.567-.004-.962-.094-.962-.094s.328-.24.846-.468a9.739 9.739 0 0 1 1.946-.621 9.866 9.866 0 0 1 2.032-.203c.566.004.961.093.961.093zm.122.958s-.328.239-.846.467a9.807 9.807 0 0 1-3.979.826c-.566-.004-.962-.094-.962-.094s.328-.24.846-.468a9.739 9.739 0 0 1 1.946-.621 9.875 9.875 0 0 1 2.033-.203 5.1 5.1 0 0 1 .962.093zm45.584-.958s.396-.089.961-.093a9.86 9.86 0 0 1 2.032.203 9.654 9.654 0 0 1 1.946.621c.518.229.846.468.846.468s-.396.09-.962.094a9.769 9.769 0 0 1-3.977-.826c-.519-.228-.846-.467-.846-.467zm-.121.958s.396-.089.963-.093a9.782 9.782 0 0 1 3.977.822c.519.229.847.468.847.468s-.396.09-.963.094a9.708 9.708 0 0 1-2.031-.203 9.726 9.726 0 0 1-1.947-.622c-.518-.227-.846-.466-.846-.466zm-13.528 5.461s.24-.029.658-.056c.418-.017 1.019-.07 1.734-.082a64.258 64.258 0 0 1 5.24.113c1.9.122 3.796.322 5.214.539.709.1 1.297.228 1.71.297.413.079.646.138.646.138s-.239.029-.659.056c-.418.017-1.019.071-1.734.082-1.434.038-3.339.001-5.239-.114a63.748 63.748 0 0 1-5.215-.54c-.709-.101-1.297-.228-1.709-.296-.411-.079-.646-.137-.646-.137zm-17.218 0s-.235.059-.647.137c-.413.069-1.001.196-1.71.296a64.568 64.568 0 0 1-10.454.654c-.716-.011-1.316-.065-1.734-.082-.419-.027-.66-.056-.66-.056s.235-.059.647-.138c.413-.069 1.001-.197 1.71-.297a63.662 63.662 0 0 1 5.214-.539 64.275 64.275 0 0 1 5.24-.113c.716.012 1.316.064 1.734.082.42.027.66.056.66.056zm-.126 28.598s.238-.044.654-.099c.417-.044 1.011-.135 1.726-.193a64.397 64.397 0 0 1 10.473-.029c.714.054 1.31.144 1.728.185.416.052.654.096.654.096s-.238.045-.654.099c-.416.044-1.011.136-1.726.194a64.629 64.629 0 0 1-10.473.026c-.714-.055-1.31-.143-1.727-.185-.417-.051-.655-.094-.655-.094zm3.696 1.216s.457-.136 1.132-.209a14.105 14.105 0 0 1 2.462-.046c.89.063 1.774.207 2.433.379.658.164 1.093.362 1.093.362s-.457.137-1.132.21a14.259 14.259 0 0 1-4.895-.336c-.66-.162-1.093-.36-1.093-.36z"/><path opacity=".5" fill="#F6A76A" d="M98.657 74.785c-2.41-.667-4.008 3.321-5.322 4.714-.055-1.53.613-3.156 1.66-4.262.862-.91 2.765-1.852 3.662-.452zm24.441-.559c2.409-.667 4.008 3.321 5.321 4.715.056-1.53-.612-3.157-1.66-4.262-.863-.911-2.765-1.853-3.661-.453z"/><path fill="#FFF793" d="M58.852 175.118l.082-.3-.035.3h-.047z"/><path fill="#D6C39D" stroke="#AF9C7B" stroke-width=".5" stroke-miterlimit="10" d="M21 220s.53-37.148.35-46.348c0 0 1.595-40.264 15.244-58.338 0 0 3.906-4.754 13.118-7.935 0 0 22.219-6.072 29.537-9.601 1.349-.651 3.143-1.41 3.143-1.41s9.864 21.324 25.849 21.161h.013c.402 0 .805-.025 1.22-.063 7.992-.663 16.776-6.221 26.713-23.743 0 0 .701.025 2.984 1.553 2.18 1.464 6.28 3.504 13.909 5.919 0 0 29.245 8.248 34.032 17.76 0 0 15.959 32.503 12.234 61.352 0 0 .405 25.021.405 39.689H21V220z"/><path fill="#fff" d="M108.832 117.668l-.337.038c-.551.101-1.777.464-3.643 1.677-2.065 1.327-4.918 3.719-8.498 8.01-.225.275-.463.551-.688.838l-.413.514c-2.078 2.604-4.368 5.807-6.883 9.775l-.15.237s-6.183-27.772-7.709-41.99c1.301-.651 2.333-.994 2.398-1.102 0 0 9.992 22.026 25.411 21.864h.013c.161.053.324.103.499.139zm29.324-22.64c-1.151 13.668-7.422 43.841-7.422 43.841l-.024-.049a114.029 114.029 0 0 0-3.367-5.219l-.013-.025c-5.582-8.122-10.15-12.104-13.342-14.055-2.315-1.414-3.917-1.754-4.667-1.828h-.05l-.013-.012h-.075l-.163-.014h-.188c.225-.063.45-.125.676-.2 7.709-.663 16.403-6.618 25.989-24.14 1.61 1.11 1.428.848 2.659 1.701z"/><path opacity=".2" d="M109.238 117.675s7.516 2.646 14.084 10.774c0 0 5.515 6.595 7.416 10.422 0 0-7.215-17.437-21.5-21.196zm.513-.215s-7.519 2.646-14.089 10.776c0 0-5.512 6.595-7.409 10.423 0 0 7.214-17.438 21.498-21.199zM54.938 220.001l-.426-11.802c-.268-7.081-.56-16.524-.843-25.969-.163-4.719-.256-9.453-.354-13.888-.027-.551.021-1.134.039-1.663.043-.551.107-1.106.168-1.645.139-1.067.297-2.104.464-3.109.358-2.007.747-3.891 1.116-5.626a187.995 187.995 0 0 1 2.003-8.335l.857-3.137.098.023-2.146 11.608a203.41 203.41 0 0 0-.938 5.627 84.603 84.603 0 0 0-.43 3.072l-.157 1.569c-.026.558-.08 1.07-.059 1.627.051 4.42.018 9.134.111 13.858l.595 37.784-.098.006zm-.453-57.503l-.345.895-.378 1.025c-.149.395-.293.848-.462 1.335l-.529 1.579c-.156.57-.388 1.148-.551 1.771a47.007 47.007 0 0 0-1.116 3.879c-.178.666-.274 1.349-.414 2.014-.131.667-.2 1.331-.3 1.971-.099.641-.122 1.266-.191 1.857-.072.591-.083 1.152-.107 1.671-.016.519-.059.996-.047 1.417l.016 1.095.014.955-.1.009-.083-.955-.095-1.097c-.042-.424-.034-.903-.056-1.427-.013-.524-.042-1.092-.013-1.693.023-.6.022-1.236.084-1.89.065-.653.099-1.333.196-2.017.104-.682.167-1.383.31-2.07.235-1.385.524-2.766.906-4.029a22.978 22.978 0 0 1 1.337-3.35c.471-.945.92-1.704 1.266-2.215.342-.513.571-.783.571-.783l.087.053zm111.263 57.501l.84-37.784c.126-4.726.109-9.438.184-13.857.025-.556-.029-1.068-.056-1.625l-.157-1.569a83.042 83.042 0 0 0-.43-3.072 203.41 203.41 0 0 0-.938-5.627l-2.146-11.61.099-.022.855 3.137c.527 2 1.255 4.866 2.002 8.336.37 1.736.76 3.62 1.116 5.628.167 1.006.325 2.043.464 3.109.061.538.125 1.093.168 1.645.02.528.068 1.111.037 1.664-.12 4.435-.23 9.172-.426 13.889-.34 9.445-.694 18.887-1.01 25.967l-.504 11.8-.098-.009zm.958-57.554s.231.269.581.779a19.61 19.61 0 0 1 1.29 2.207 23.04 23.04 0 0 1 1.37 3.344c.392 1.264.693 2.645.937 4.029.147.688.216 1.391.323 2.073.102.685.137 1.365.207 2.019.066.654.066 1.293.091 1.894.032.603.004 1.171-.008 1.696-.021.524-.011 1.006-.054 1.43l-.094 1.1-.082.955-.1-.008.014-.957.014-1.096c.012-.424-.032-.9-.049-1.42-.024-.52-.037-1.082-.111-1.674-.072-.592-.096-1.219-.198-1.859s-.173-1.307-.31-1.973c-.144-.666-.244-1.349-.426-2.016a46.779 46.779 0 0 0-1.146-3.877c-.169-.623-.406-1.199-.568-1.77l-.545-1.576c-.174-.487-.322-.939-.477-1.333l-.389-1.024-.355-.892.085-.051z"/><path fill="#5492AC" stroke="#29637C" stroke-width=".5" stroke-miterlimit="10" d="M123.555 220l-10.096-83.959c2.504-2.076 4.752-5.068 4.916-7.161-.268-3.427-6.117-9.276-9.544-9.545-3.426.269-9.276 6.118-9.544 9.545.164 2.103 2.43 5.11 4.947 7.187L95.403 220h28.152z"/></svg>