<svg xmlns="http://www.w3.org/2000/svg" width="220" height="220" viewBox="0 0 220 220"><path fill="#fc9" d="M41.578 150.723l2.341-2.183c.749-.717.706-1.89-.069-2.573l-5.861-5.157c-.64-.563-1.336-.52-1.934.091l-2.372 2.694c-.385.437-1.3.529-1.88.439l-1.893-.293-5.747-.875c-1.06-.154-1.999.573-2.153 1.631l.003.064c-.125 1.025.607 2.029 1.666 2.185l1.636.244c.739.113.952.956.448 1.529.687-.712-2.504 2.845-2.504 2.845-.771.875-1.095 2.264-.067 2.93.859.516 2.14.149 2.763-.559l-1.055 1.199a1.881 1.881 0 0 0 .406 2.866c.829.552 1.666.211 2.289-.495l.888-1.011c-.77.875-.5 2.606.527 3.272.798.522 1.883.102 2.505-.604l1.185-1.348c-.77.875-.765 1.955.201 2.625a1.98 1.98 0 0 0 2.583-.355l.357-.403c.001.001 1.818-1.928 5.737-8.758zm141.617 9.801l.357.403a1.979 1.979 0 0 0 2.583.355c.965-.669.97-1.75.201-2.625l1.185 1.348c.623.706 1.708 1.127 2.505.604 1.028-.667 1.297-2.397.527-3.272l.889 1.011c.622.706 1.46 1.046 2.289.495 1.028-.665 1.177-1.992.406-2.866l-1.055-1.199c.623.708 1.904 1.074 2.763.559 1.028-.667.704-2.055-.067-2.93 0 0-3.19-3.557-2.504-2.845-.503-.573-.292-1.417.448-1.53l1.636-.244c1.059-.156 1.791-1.16 1.667-2.185l.003-.064c-.155-1.058-1.094-1.785-2.154-1.631l-5.747.875-1.893.293c-.58.09-1.496-.001-1.88-.439l-2.371-2.694c-.598-.611-1.294-.655-1.934-.092l-5.862 5.157c-.774.683-.817 1.855-.068 2.573l2.341 2.183c3.919 6.831 5.735 8.76 5.735 8.76z"/><path fill="#fc9" stroke="#D09D6A" stroke-width=".5" stroke-miterlimit="10" d="M119.897 94.881s-24.913 4.622-20.996 0c2.53-2.984 3.143-9.469 3.263-13.685.066-2.304-.013-3.929-.013-3.929s18.213-10.096 16.068 0a29.398 29.398 0 0 0-.579 4.155c-.546 7.932 2.257 13.459 2.257 13.459z"/><path opacity=".5" fill="#F6A76A" d="M118.22 77.934a29.412 29.412 0 0 0-.579 4.156c-3.729.985-6.287 1.757-7.313 1.757-1.045 0-3.936-.898-8.164-1.984.066-2.303-.013-3.929-.013-3.929s18.213-10.096 16.069 0z"/><path fill="#fc9" stroke="#D09D6A" stroke-width=".5" stroke-miterlimit="10" d="M154.364 43.079c-4.412-8.74-8.216-4.156-8.704-3.507.266-1.402 1.947-11.841-4.808-21.646-11.006-13.977-28.198-14.172-31.518-14.072-3.321-.1-20.512.095-31.519 14.071-6.694 9.717-5.103 20.054-4.815 21.604-.919-1.063-4.347-4.128-8.27 3.644-1.852 5.069 2.782 9.365 4.948 11.033-.18 1.669-.233 3.245-.077 4.565.765 6.47 2.674 16.265 23.496 19.406 8.582 1.484 14.691 3.709 16.236 3.709 1.633 0 7.654-2.225 16.236-3.709 20.822-3.141 22.731-12.937 23.496-19.406.144-1.213.111-2.642-.034-4.162 2.101-1.564 7.31-6.117 5.333-11.53z"/><path fill="#FFB679" d="M68.637 41.836c-1.515.069-.91 4.333-.629 5.835.283 1.498 1.725 2.329 2.581 1.991.852-.333 1.124-2.581.216-2.664-.907-.083-1.442-.664-1.013-1.25.433-.584.727-3.998-1.155-3.912zm81.708-.132c1.558.07.936 4.458.647 6.001-.291 1.541-1.774 2.396-2.654 2.05-.875-.343-1.156-2.656-.222-2.742.934-.085 1.484-.683 1.042-1.285-.446-.602-.747-4.115 1.187-4.024z"/><path opacity=".5" fill="#4F4849" d="M89.592 36.836c8.811-2.658 10.457 1.541 11.38 2.9-.431.137-7.217-3.001-7.64-2.836-2.188.84-4.3 1.897-5.877 2.679-.419.211-.673.735-1.008.9.728-1.329 2.231-3.367 3.145-3.643z"/><path fill="#B76B2C" d="M100.308 46.058s-6.078 3.446-10.814 1.624c-2.414-.928-3.047-2.838-3.047-2.838s.115 2.974 3.653 3.67c5.502 1.081 10.208-2.456 10.208-2.456z"/><path fill="#fff" d="M102.055 42.735c0 3.308-3.601 5.984-8.048 5.984-4.442 0-8.042-2.676-8.042-5.984 0-1.805 1.071-3.423 2.771-4.517 1.412-.912 3.253-1.466 5.271-1.466 2.048 0 3.913.565 5.33 1.5 1.665 1.095 2.718 2.695 2.718 4.483z"/><path fill="#8D8078" d="M94.009 48.637c-3.292 0-5.972-2.647-5.972-5.9 0-3.254 2.679-5.901 5.972-5.901 3.293 0 5.972 2.647 5.972 5.901-.001 3.252-2.679 5.9-5.972 5.9z"/><path fill="#4F4849" d="M94.009 46.404c-2.055 0-3.726-1.645-3.726-3.667 0-2.023 1.67-3.667 3.726-3.667 2.054 0 3.726 1.644 3.726 3.667-.001 2.022-1.672 3.667-3.726 3.667z"/><path d="M88.959 43.58a.618.618 0 1 0 .673-1.038.618.618 0 0 0-.673 1.038zm1.543-.608a.502.502 0 1 0 .551-.84.502.502 0 0 0-.551.84z" fill="#fff"/><path fill="#F9AE87" d="M101.264 34.417s-11.39-4.703-18.597 5.038c0 0 6.216-13.878 18.597-5.038z"/><path opacity=".5" fill="#4F4849" d="M131.263 36.836c-8.81-2.658-10.456 1.541-11.38 2.9.431.137 7.217-3.001 7.64-2.836 2.188.84 4.3 1.897 5.877 2.679.42.211.672.735 1.008.9-.727-1.329-2.232-3.367-3.145-3.643z"/><path fill="#B76B2C" d="M120.548 46.058s6.077 3.446 10.814 1.624c2.413-.928 3.046-2.838 3.046-2.838s-.115 2.974-3.653 3.67c-5.502 1.081-10.207-2.456-10.207-2.456z"/><path fill="#fff" d="M118.8 42.735c0 3.308 3.6 5.984 8.048 5.984 4.442 0 8.043-2.676 8.043-5.984 0-1.805-1.071-3.423-2.771-4.517-1.412-.912-3.253-1.466-5.272-1.466-2.047 0-3.913.565-5.331 1.5-1.663 1.095-2.717 2.695-2.717 4.483z"/><path fill="#8D8078" d="M126.847 48.637c3.292 0 5.971-2.647 5.971-5.9 0-3.254-2.679-5.901-5.971-5.901-3.293 0-5.973 2.647-5.973 5.901 0 3.252 2.679 5.9 5.973 5.9z"/><path fill="#4F4849" d="M126.847 46.404c2.054 0 3.726-1.645 3.726-3.667 0-2.023-1.672-3.667-3.726-3.667-2.055 0-3.727 1.644-3.727 3.667 0 2.022 1.672 3.667 3.727 3.667z"/><path d="M122 43.58a.62.62 0 0 0 .677-1.035.62.62 0 0 0-.677 1.035zm1.544-.608a.502.502 0 1 0 .551-.84.502.502 0 0 0-.551.84z" fill="#fff"/><path fill="#F9AE87" d="M119.591 34.417s11.391-4.703 18.596 5.038c.001 0-6.215-13.878-18.596-5.038z"/><path fill="#FFE9C7" d="M111.364 47.894c-1.641-.48-3.223.329-4.14.846-1.191.67-2.648 1.614-1.958 3.148.5 1.109 5.915.481 6.424.377 1.572-.324 3.059-1.764 1.333-3.394-.547-.51-1.106-.816-1.659-.977z"/><path opacity=".5" d="M114.38 54.913s1.332-.496 1.073-1.793c-.259-1.299-.984-1.942-.984-1.942s1.079.896 1.197 2.204c.12 1.312-1.286 1.531-1.286 1.531zm-10.165.093s-1.392-.519-1.119-1.876c.272-1.359 1.03-2.031 1.03-2.031s-1.128.935-1.253 2.308c-.127 1.368 1.342 1.599 1.342 1.599z" fill="#F6A76A"/><path opacity=".32" fill="#F5B1A2" d="M115.803 54.777c-1.006-2.671-3.391-2.067-5.625-1.698-1.279.213-2.334.051-3.575-.279-1.28-.342-2.624-.457-3.578.634-.709.813.793.963 1.312 1.126 1.239.398 2.119 1.33 3.234 1.967 3.002 1.721 5.17-2.013 8.232-1.75-.055-.145-1.176-.101 0 0z"/><path fill="#AE8879" d="M106.636 54.507l.417.339c-.413-.432-.811-.851-1.276-1.228-.246-.2-1.947-1.354-2.25-.862-.044.068 1.472.632 1.583.686.532.208 1.113.672 1.526 1.065zm4.446.189l-.446.297c.451-.396.881-.783 1.377-1.122.232-.159 2.113-1.179 2.314-.663.033.053-1.518.504-1.631.543-.55.188-1.165.574-1.614.945z"/><path opacity=".2" fill="#F5B1A2" d="M105.707 55.463c-.737-.779-1.833-1.552-2.968-1.289 1.06-1.866 4.124 1.284 5.226 1.605 1.36.394 2.638-.212 3.832-.805 1.367-.682 2.691-.902 4.133-.292-.859.268-1.637.181-2.489.595-.913.446-1.727 1.046-2.62 1.524-1.983 1.063-3.684.176-5.114-1.338zm7.765-1.693c1.134 1.233-2.511 2.91-3.394 2.771.127-1.055 2.126-4.16 3.394-2.771zm-9.131-.241c-1.133 1.234 2.51 2.912 3.395 2.772-.128-1.052-2.127-4.158-3.395-2.772z"/><path fill="#F9AE87" d="M120.556 60.799c-.536.213-1.161 1.032-1.161 1.032-1.529 1.96-6.963 2.44-8.464 2.434-.46 0-1.063.028-1.749.057-.686-.029-1.291-.057-1.749-.057-1.502.006-6.936-.474-8.464-2.434 0 0-.627-.819-1.162-1.032-.741-.296-1.087-.033-.464.395.216.149.612-.127 1.247.853.96 1.487 4.518 2.21 6.766 2.458 1.132.126 2.476.201 3.826.229a44.121 44.121 0 0 0 3.824-.229c2.249-.248 5.806-.971 6.767-2.458.634-.98 1.03-.704 1.247-.853.623-.427.278-.691-.464-.395z"/><path fill="#B54A37" d="M119.157 62.622c-.477 1.312-1.136 3.076-1.835 4.341l-.271.472c-1.136 1.911-2.201 2.706-3.1 3.298a8.64 8.64 0 0 1-4.69 1.423h-.093a8.662 8.662 0 0 1-4.695-1.423c-.781-.517-1.682-1.182-2.646-2.592-.236-.342-.477-.73-.724-1.178-.765-1.389-1.489-3.377-1.97-4.713.029.042 1.594-.094 2.399-.193 2.006-.248 3.801-.312 5.419-.235a23.47 23.47 0 0 1 2.223.188h.005l.177.023c.646-.064 1.33-.116 2.047-.147 1.671-.082 3.56-.04 5.767.261 1.646.221 2.299.209 1.987.475z"/><path fill="#FF5D47" d="M117.051 67.435c-1.136 1.911-2.201 2.706-3.1 3.298a8.64 8.64 0 0 1-4.69 1.423h-.093a8.662 8.662 0 0 1-4.695-1.423c-.781-.517-1.682-1.182-2.646-2.592 1.912-.914 5.047-1.502 8.595-1.502 2.511 0 4.817.301 6.629.796z"/><path fill="#fff" d="M109.179 62.009v1.541a.586.586 0 0 1-.588.589h-1.053a.59.59 0 0 1-.588-.589v-1.729a23.47 23.47 0 0 1 2.223.188h.006zm2.224-.124v1.666a.586.586 0 0 1-.588.589h-1.053a.59.59 0 0 1-.588-.589V62.01l.183.023a35.853 35.853 0 0 1 2.046-.148z"/><ellipse transform="rotate(13.7 92.153 51)" fill="#fc9" cx="92.303" cy="51.099" rx="9.851" ry="4.695"/><ellipse transform="scale(-1) rotate(-13.7 -425.255 1077.858)" fill="#fc9" cx="129.575" cy="51.099" rx="9.852" ry="4.695"/><radialGradient id="a" cx="85.693" cy="59.344" r="16.184" gradientUnits="userSpaceOnUse"><stop offset="0" stop-color="#ED1C24"/><stop offset="1" stop-color="#ED1C24" stop-opacity="0"/></radialGradient><circle opacity=".3" fill="url(#a)" cx="85.693" cy="59.343" r="16.184"/><radialGradient id="b" cx="132.177" cy="59.344" r="16.185" gradientUnits="userSpaceOnUse"><stop offset="0" stop-color="#ED1C24"/><stop offset="1" stop-color="#ED1C24" stop-opacity="0"/></radialGradient><circle opacity=".3" fill="url(#b)" cx="132.177" cy="59.343" r="16.184"/><path opacity=".5" d="M97.021 57.474c-1.03-.198-1.734.487-2.329 1.25-.68.789-1.172 1.738-1.896 2.491-.054-1.145.447-2.416 1.207-3.262.725-.806 2.195-1.615 3.018-.479zm24.722.277c1.029-.197 1.729.483 2.323 1.245.678.789 1.171 1.732 1.892 2.486.058-1.141-.445-2.413-1.203-3.253-.729-.809-2.186-1.606-3.012-.478z" fill="#F6A76A"/><path d="M96.651 5.5c5.981-10.043 19.499-2.988 14.428 7.618-3.497-6.507-7.341-8.265-14.428-7.618 1.248-2.096.62-.057 0 0zm-9.068 4.076c8.765-14.712 28.561-4.378 21.137 11.159-5.128-9.53-10.754-12.106-21.137-11.159 1.829-3.07.908-.083 0 0z" fill="#1A1A1A"/><path d="M123.989 5.5c-5.982-10.043-19.499-2.988-14.428 7.618 3.498-6.507 7.341-8.265 14.428-7.618-1.248-2.096-.619-.057 0 0zm7.577 4.076c-8.764-14.712-28.561-4.378-21.136 11.159 5.128-9.53 10.753-12.106 21.136-11.159-1.828-3.07-.907-.083 0 0z" fill="#1A1A1A"/><path fill="#FBC442" d="M188.516 144.56l-.369.377-9.147 9.441-.822.847-33.549-26.111c1.048 5.668 4.888 28.535 3.756 54.688-.184 4.234-.302 8.494-.411 12.611-.235 8.485-.453 16.577-1.224 23.587h-28.719c-.302-5.157-.227-10.464-.16-15.118.067-4.344.117-8.083-.151-10.565-1.224-11.244-3.229-14.69-8.604-14.724-5.391 0-7.429 3.413-8.795 14.607-.311 2.474-.302 6.222-.293 10.557 0 4.688.008 10.054-.378 15.244H71.134c-.679-6.968-.771-15.035-.872-23.495-.05-4.318-.101-8.779-.235-13.231-.78-26.153 3.48-49.531 4.52-54.771l-34.278 25.96-.553-.595-9.357-10.062-.21-.227.176-.268c.109-.176 11.244-17.684 25.918-34.094.604-.679 1.191-1.325 1.77-1.954v-.008c13.34-14.59 17.206-15.035 17.374-15.051l4.88-1.006 18.271-3.765.159.142.092.076c.78.721 1.593 1.358 2.423 1.903 2.851 1.912 5.97 2.901 9.182 2.901 2.775 0 5.476-.763 7.949-2.222a18.418 18.418 0 0 0 2.893-2.105l.084-.075.159-.143 16.494 3.446 5.777 1.207.193-.017c.159.009 3.949.503 16.77 14.842.688.763 1.4 1.576 2.138 2.423 14.456 16.603 25.381 34.295 25.49 34.472l.175.276z"/><path fill="#F2EF98" d="M148.042 183.785c-.562 12.938-.486 25.801-1.644 36.215h-27.872c-.587-9.978.251-20.552-.31-25.726-1.232-11.345-3.313-15.06-9.014-15.101-5.702-.042-7.84 3.656-9.224 14.976-.637 5.19.067 15.848-.662 25.851H71.628c-1.023-10.515-.713-23.587-1.107-36.743-.545-18.246 1.35-35.016 2.901-45.296.419-2.792.813-5.098 1.132-6.833.36-1.979.612-3.211.688-3.539l.017-.092c9.475-15.63.234-34.874.234-34.874l5.577-1.148 17.416-3.589c.419.386.855.754 1.292 1.099.444.344.888.67 1.341.964l.436.277c.78.495 1.577.914 2.39 1.258l.503.209c.436.185.88.335 1.333.47.235.076.47.143.705.202.276.075.562.143.847.193.227.05.453.092.688.125l.277.042.478.059.495.042.503.034.696.017c.511 0 1.022-.025 1.534-.076l.662-.083c.21-.025.428-.059.638-.101.268-.051.545-.109.813-.176.243-.059.486-.118.722-.193.402-.109.796-.243 1.19-.394l.311-.117c.444-.177.888-.377 1.333-.604a8.87 8.87 0 0 0 .688-.369l.101-.051a7.3 7.3 0 0 0 .579-.36c.176-.101.352-.218.528-.335l.294-.201a7.55 7.55 0 0 0 .453-.327c.461-.344.914-.721 1.358-1.115h.008l15.58 3.245 7.035 1.467s-9.5 19.118-.235 34.874l.017.075c.059.286.269 1.375.562 3.136.293 1.694.662 4.017 1.057 6.851 1.421 10.26 3.14 27.265 2.344 45.762z"/><path fill="#F2DC61" d="M75.49 92.622s-4.034.301-18.858 16.875c-14.824 16.573-25.879 34.036-25.879 34.036l9.643 10.364 34.859-26.403c9.478-15.629.235-34.872.235-34.872z"/><path fill="#FBC442" d="M40.396 153.896l3.153-2.822-9.968-10.662-2.829 3.12 9.644 10.364z"/><path fill="#F2DC61" d="M144.292 93.086s4.03.354 18.629 17.126c14.6 16.772 25.453 34.417 25.453 34.417l-9.849 10.164-34.467-26.833c-9.267-15.758.234-34.874.234-34.874z"/><path fill="#FBC442" d="M178.524 154.792l-3.116-2.861 10.178-10.46c1.771 2.008 2.787 3.157 2.787 3.157l-9.849 10.164zm-56.85-66.424l-3.98-2.208c-7.583 4.517-15.786-.941-15.786-.941l-3.423 2.668c6.928 6.367 16.174 6.753 23.189.481zM73.99 128.451c13.037-7.915 7.657-36.755 7.657-36.755s-21.164-9.203-23.712 16.252c0 .001 15.781 4.511 16.055 20.503zm70.721 0c-13.037-7.915-7.657-36.755-7.657-36.755s21.164-9.203 23.712 16.252c.001.001-15.78 4.511-16.055 20.503z"/><path fill="#F2DC61" d="M73.421 137.96c11.144 4.428 23.688 6.641 36.224 6.641 12.468 0 24.945-2.189 36.046-6.583a214.5 214.5 0 0 0-1.056-6.851c-21.382 9.014-48.717 9.006-70.083-.041l-1.131 6.834z"/><g fill="#FBC442"><circle cx="110.079" cy="102.386" r="2.531"/><circle cx="110.079" cy="114.778" r="2.531"/><circle cx="110.079" cy="127.169" r="2.531"/></g><path fill="#FBC442" d="M111.685 3.382s4.098-3.348 6.783-3.063c3.501.37 3.354 11.606.862 13.028-2.436 1.389-6.22-.9-7.747-3.022 0-.001 1.051-2.838.102-6.943z"/><path d="M111.744 6.622c.402-1.834 2.133-2.395 3.354-2.427.079-.001.466-.208.273-.203-1.388.036-3.565.598-4.03 2.727-.021.094.375.031.403-.097zm.547.781c1.2-.617 2.657-.639 3.776.133.108.072.513-.112.464-.146-1.351-.929-3.2-.715-4.607.01-.203.103.286.044.367.003zm-.6 2.06c.827-1.357 2.51-.553 3.606.341.07.058.468.166.295.023-1.244-1.016-3.327-2.158-4.285-.582-.043.069.326.314.384.218z" opacity=".6"/><path fill="#FBC442" d="M106.988 3.313s-4.099-3.78-6.691-3.264c-3.093.613-3.752 11.818-1.244 12.996 3.131 1.471 6.244-.713 7.832-2.79-.001-.001-.971-2.868.103-6.942z"/><path d="M106.448 6.157c-.312-1.58-1.841-2.104-2.931-2.165-.07-.002-.411-.19-.238-.18 1.236.068 3.167.604 3.528 2.439.015.08-.336.017-.359-.094zm-.228 1.155c-1.3-.653-2.903-.719-4.161.017-.119.069-.562-.128-.504-.161 1.516-.888 3.543-.615 5.07.152.219.111-.317.037-.405-.008zm.558 1.298c-.819-.884-2.224.358-3.106 1.483-.056.072-.395.294-.254.116 1.005-1.276 2.726-2.939 3.677-1.912.042.045-.262.375-.317.313z" opacity=".6"/><path fill="#F2EF98" d="M106.97 3.258s2.796-1.143 4.714.124c0 0 1.04 3.729-.102 6.942 0 0-2.752 1.09-4.715-.07.001 0-1.334-3.788.103-6.996z"/></svg>