<svg xmlns="http://www.w3.org/2000/svg" width="220" height="220" viewBox="0 0 220 220"><path fill="#2B2B2B" d="M148.025 36.913c0 20.567-16.768 37.235-37.444 37.235-20.679 0-37.445-16.668-37.445-37.235 0-4.122.677-8.094 1.932-11.797a36.228 36.228 0 0 1 5.277-10.148A37.532 37.532 0 0 1 101.183.871c8.733-2.467 22.338 1.095 22.338 1.095a37.264 37.264 0 0 1 11.01 6.334c.898.727 1.76 1.514 2.57 2.338 6.754 6.728 10.924 16.015 10.924 26.275zM71.314 48.238s-3.445 16.221 3.256 23.271c7.429 7.814 36.01 8.611 36.01 8.611l-1.79-46.7-37.476 14.818zm77.288-12.813s6.104 30.74-2.023 36.084c-8.523 5.605-36.01 8.611-36.01 8.611l1.791-46.7 36.242 2.005z"/><path fill="#F9C795" stroke="#D09D6A" stroke-width=".5" stroke-miterlimit="10" d="M132.711 107.349c-1.932 2.731-15.145 11.317-20.752 11.035-.223 0-.443-.036-.664-.063-.221.025-.443.063-.665.063-5.61.282-18.82-8.303-20.752-11.035-1.918-2.719-3.789-6.409-2.841-7.996.602-1.021 4.613-2.964 7.454-7.27.394-.578.751-1.205 1.083-1.881.197-.394.382-.8.554-1.23a17.207 17.207 0 0 0 1.132-4.589c.073-.651.11-1.329.11-2.042v-.172c0-.345 0-.676-.012-1.009a96.291 96.291 0 0 0-.443-8.069 109.33 109.33 0 0 0-.529-4.453c-.467-3.125-.935-5.29-1.144-6.164l-.112-.418s7.812-2.841 16.165-4.132c8.354 1.292 16.15 4.132 16.15 4.132l-.11.418a87.11 87.11 0 0 0-1.131 6.164 105.241 105.241 0 0 0-.418 3.346 91.3 91.3 0 0 0-.554 9.139c-.012.345-.012.689-.012 1.046v.172c0 .713.035 1.391.109 2.042.16 1.501.49 2.854.923 4.084.16.43.332.848.517 1.254a16.73 16.73 0 0 0 1.315 2.362c2.842 4.306 6.864 6.249 7.455 7.27.961 1.586-.909 5.277-2.828 7.996z"/><path opacity=".5" fill="#F6A76A" d="M126.253 88.467c-11.797 7.996-18.883 7.873-30.126.504a17.207 17.207 0 0 0 1.132-4.589c.073-.651.11-1.329.11-2.042v-.172c0-.345 0-.676-.012-1.009l.012-.43v-.171a98.45 98.45 0 0 0-.455-9.067c7.959-1.636 21.663-3.801 28.872-1.106a93.336 93.336 0 0 0-.565 10.174v.171l.012.393c-.012.345-.012.689-.012 1.046v.172c0 .713.035 1.391.109 2.042.16 1.501.492 2.854.923 4.084z"/><path fill="#F9C795" stroke="#D09D6A" stroke-width=".5" stroke-miterlimit="10" d="M143.355 49.648c.496-12.894-2.672-24.001-12.916-26.702-13.748-3.624-19.558-3.12-19.564-3.12s-5.817-.504-19.565 3.12c-10.79 2.845-13.73 15.019-12.807 28.783-.574 1.284-1.099 3.119-1.424 5.776.461 2.268 1.415 4.268 2.769 4.668l.207 1.105c3.667 18.569 18.591 24.881 18.591 24.881s1.667.943 6.003.87c2.249 1.958 6.219 1.454 6.226 1.451.007.002 3.979.507 6.227-1.451 4.334.073 6.002-.87 6.002-.87s14.922-6.312 18.592-24.881l.215-1.15c.322.156.74.208 1.298.1 1.437-.286 2.44-2.369 2.92-4.723-.576-4.712.432-7.213-2.774-7.857z"/><radialGradient id="a" cx="135.947" cy="-15.644" r="18.156" gradientTransform="matrix(1 0 0 -1 -47.6 50.01)" gradientUnits="userSpaceOnUse"><stop offset="0" stop-color="#ED1C24"/><stop offset="1" stop-color="#ED1C24" stop-opacity="0"/></radialGradient><circle opacity=".15" fill="url(#a)" cx="88.347" cy="65.653" r="18.156"/><radialGradient id="b" cx="181.003" cy="-15.644" r="18.156" gradientTransform="matrix(1 0 0 -1 -47.6 50.01)" gradientUnits="userSpaceOnUse"><stop offset="0" stop-color="#ED1C24"/><stop offset="1" stop-color="#ED1C24" stop-opacity="0"/></radialGradient><circle opacity=".15" fill="url(#b)" cx="133.402" cy="65.653" r="18.156"/><path opacity=".32" fill="#F5B1A2" d="M116.906 69.419c-.872-2.318-2.944-1.794-4.883-1.473-1.109.185-2.027.043-3.103-.243-1.113-.298-2.28-.396-3.108.55-.615.707.687.836 1.138.979 1.076.345 1.843 1.154 2.809 1.707 2.606 1.493 4.49-1.748 7.147-1.52-.047-.125-1.019-.087 0 0z"/><path fill="#AE8879" d="M108.95 69.186l.361.294c-.359-.376-.703-.739-1.11-1.068-.21-.172-1.688-1.175-1.951-.748-.04.059 1.276.549 1.373.595.462.181.967.586 1.327.927zm3.859.164l-.388.259c.394-.345.769-.682 1.198-.976.201-.139 1.834-1.023 2.009-.576.029.048-1.317.437-1.418.471-.478.163-1.011.499-1.401.822z"/><path opacity=".2" fill="#F5B1A2" d="M108.142 70.015c-.64-.678-1.592-1.348-2.577-1.117.92-1.622 3.58 1.113 4.538 1.391 1.181.343 2.292-.183 3.325-.698 1.188-.591 2.336-.784 3.59-.253-.748.234-1.422.157-2.162.519-.793.387-1.498.908-2.274 1.324-1.723.92-3.2.15-4.44-1.166zm6.742-1.471c.983 1.07-2.18 2.528-2.948 2.406.111-.913 1.847-3.61 2.948-2.406zm-7.927-.207c-.985 1.07 2.178 2.527 2.946 2.406-.11-.915-1.847-3.611-2.946-2.406z"/><path opacity=".5" d="M116.333 68.033s1.401-.526 1.128-1.9l-1.037-2.055s1.135.948 1.262 2.334c.125 1.388-1.353 1.621-1.353 1.621zm-10.762-.101s-1.402-.526-1.128-1.899c.272-1.374 1.037-2.055 1.037-2.055s-1.136.946-1.261 2.334c-.126 1.387 1.352 1.62 1.352 1.62z" fill="#F6A76A"/><path opacity=".3" fill="#FDE9D7" d="M115.477 61.685s-.813-.346-1.084-1.761c-.269-1.413-1.354-3.939-1.896-.649-.542 3.292-.4 4.938.783 4.517 1.746-.615 2.88-.166 2.945-.93.041-.484-.248-.924-.748-1.177z"/><circle fill="#FBB03B" cx="80.231" cy="61.494" r="1.723"/><path fill="#FFB679" d="M79.918 51.279c-1.549-.119-1.463 4.302-1.362 5.863.101 1.562 1.468 2.587 2.38 2.351.911-.234 1.464-2.493.551-2.69-.913-.196-1.389-.854-.877-1.396.515-.543 1.234-3.986-.692-4.128z"/><path fill="#EAA76F" d="M124.664 34.669a181.23 181.23 0 0 1-6.635-.121c-3.041-.105-6.108.101-9.153.146-3.036.239-6.116.34-9.134.742-2.19.291-4.382.554-6.582.765 2.153-.525 4.316-.994 6.487-1.438 3.01-.615 6.124-.797 9.181-1.067 2.949-.013 5.958-.165 8.896.142 2.318.24 4.63.507 6.94.831zm-.119-2.496c-2.213.004-4.423-.044-6.635-.12-3.041-.105-6.109.099-9.154.145-3.036.238-6.117.34-9.134.742-2.191.292-4.382.553-6.583.766 2.153-.525 4.316-.994 6.488-1.438 3.01-.615 6.124-.797 9.181-1.067 2.95-.014 5.958-.164 8.895.142 2.319.24 4.632.506 6.942.83zm-1.897 4.825a181.23 181.23 0 0 1-6.635-.121c-3.042-.105-6.11.1-9.155.145-3.036.238-6.117.341-9.135.743-2.191.291-4.382.551-6.582.766 2.154-.525 4.316-.994 6.488-1.438 3.01-.615 6.124-.797 9.181-1.067 2.95-.013 5.958-.164 8.896.141 2.32.24 4.634.502 6.942.831z" opacity=".5"/><circle fill="#FBB03B" cx="142.409" cy="61.494" r="1.723"/><path fill="#FFB679" d="M143.289 51.279c1.55-.119 1.463 4.302 1.361 5.863-.101 1.561-1.467 2.587-2.379 2.351-.912-.234-1.465-2.493-.551-2.69.913-.196 1.389-.854.877-1.396-.514-.543-1.234-3.986.692-4.128z"/><path fill="#B54A37" d="M110.76 75.841a111.76 111.76 0 0 1-5.27-.175l-1.044-.06c-2.396-.137-3.491-.2-4.291-.949-.625-.586-1.145-.243-1.487-.263l-.262-.035c-.358-.135-.421-.227-.403-.26.017-.029.113-.048.25-.048.188 0 .438.034.71.094.705.156 1.557.394 1.565.401 1.433.901 5.43 1.034 7.682 1.034h.015c.693 0 1.344.016 2.078.032l.454.01.457-.01c.741-.017 1.396-.034 1.921-.034l.873.002c2.646 0 5.857-.104 7.207-.915.014-.01.864-.25 1.571-.406.271-.06.524-.092.711-.092.136 0 .233.018.25.047.019.032-.047.125-.403.262l-.24.049c-.283.041-.711-.271-1.498.239-1.229.795-1.992.808-3.51.832-.563.008-1.234.018-2.066.07-1.477.09-3.3.151-5.27.175z"/><path opacity=".5" fill="#F6A76A" d="M99.785 70.214c-2.483-.689-4.128 3.421-5.481 4.855-.058-1.576.631-3.253 1.709-4.389.888-.936 2.847-1.909 3.772-.466zm23.203-.089c2.484-.689 4.131 3.42 5.482 4.854.057-1.576-.631-3.252-1.709-4.39-.887-.936-2.846-1.907-3.773-.464z"/><path fill="#FF5D47" d="M116.873 74.295c-.248.028-4.581-.217-5.998.487-1.42-.704-5.752-.459-5.997-.487-.246-.027-4.313.357-4.313.357 5.564 6.989 10.117 6.326 10.311 6.295.194.031 4.748.694 10.312-6.295-.002 0-4.069-.384-4.315-.357z"/><path fill="#fff" d="M117.561 75.614s-5.127.573-6.686.577c-1.558-.004-6.685-.577-6.685-.577 2.991 2.991 6.49 2.661 6.685 2.639.193.022 3.691.352 6.686-2.639z"/><path opacity=".5" fill="#F6A76A" d="M90.755 53.68s-1.083 4.005 5.401 3.287c9.462-1.05 7.476-2.909 7.405-3.614s-5.495 2.391-7.758 2.232c-2.264-.16-5.048-1.905-5.048-1.905zm.462-1.009s3.692-3.58 8.606-2.979c3.973.334 5.168 1.319 5.168 1.319s-3.333-.449-3.975-.276c1.562.603 2.853 2.77 2.616 3.335-.239.564-3.623-1.987-3.623-1.987l-8.792.588z"/><path fill="#fff" d="M90.461 53.841s1.273 1.939 5.925 2.173c7.052.354 6.713-2.759 7.175-2.661.462.101-1.605-2.256-5.898-2.433-4.291-.176-7.202 2.921-7.202 2.921z"/><radialGradient id="c" cx="162.651" cy="-69.103" r="3.04" gradientTransform="matrix(.999 .041 .037 -.902 -63.17 -15.627)" gradientUnits="userSpaceOnUse"><stop offset="0" stop-color="#28353D"/><stop offset=".508" stop-color="#27323B"/><stop offset=".809" stop-color="#222A33"/><stop offset="1" stop-color="#1D2029"/></radialGradient><path fill="url(#c)" d="M93.661 51.841s-1.069 3.796 3.106 4.088c4.176.293 3.221-4.61 3.221-4.61s-.807-.495-2.905-.382c-2.097.115-3.422.904-3.422.904z"/><ellipse transform="rotate(-87.65 96.848 53.32)" fill="#212121" cx="96.862" cy="53.303" rx="1.498" ry="1.66"/><path fill="#fff" d="M94.396 53.98a.664.664 0 0 0 .866-.087c.21-.238.167-.583-.1-.778a.667.667 0 0 0-.869.085c-.208.235-.162.588.103.78zm1.588-.403c.214.159.53.123.701-.068a.424.424 0 0 0-.081-.636c-.215-.154-.532-.126-.7.067a.422.422 0 0 0 .08.637z"/><path fill="#666" d="M90.438 53.914s.497-.813 1.631-1.671c.573-.41 1.288-.852 2.135-1.137.841-.298 1.799-.431 2.744-.41.483-.005.927.051 1.387.078.459.056.912.106 1.34.199.86.168 1.646.43 2.265.765.623.33 1.071.726 1.323 1.049.252.326.322.559.322.559l-.048.015s-.079-.216-.341-.517c-.262-.298-.718-.656-1.338-.938a6.22 6.22 0 0 0-1.034-.373 8.522 8.522 0 0 0-1.202-.257c-.422-.072-.861-.101-1.305-.136-.447-.008-.926-.041-1.366-.013a9.09 9.09 0 0 0-2.582.466c-.793.269-1.513.602-2.084.968-1.165.706-1.808 1.385-1.808 1.385l-.039-.032z"/><path opacity=".5" fill="#F6A76A" d="M105.215 52.092c1.473.321 1.394 2.722-.12 2.917.431-1.047.454-1.853.12-2.917z"/><path fill="#EAA76F" d="M90.646 53.558c-1.648 1.014-4.119 1.425-6.005.987 1.646-1.019 4.12-1.422 6.005-.987zm.083.99c-1.649 1.015-4.118 1.422-6.006.986 1.649-1.02 4.118-1.419 6.006-.986z"/><path opacity=".5" fill="#F6A76A" d="M133.08 53.68s1.083 4.005-5.4 3.287c-9.463-1.05-7.477-2.909-7.406-3.614s5.496 2.391 7.759 2.232c2.264-.16 5.047-1.905 5.047-1.905zm-.461-1.009s-3.691-3.58-8.605-2.979c-3.974.334-5.168 1.319-5.168 1.319s3.334-.449 3.975-.276c-1.563.603-2.854 2.77-2.616 3.335.239.564 3.623-1.987 3.623-1.987l8.791.588z"/><path fill="#fff" d="M133.375 53.841s-1.273 1.939-5.925 2.173c-7.052.354-6.714-2.759-7.175-2.661-.463.101 1.604-2.256 5.897-2.433 4.292-.176 7.203 2.921 7.203 2.921z"/><radialGradient id="d" cx="999.222" cy="-30.89" r="3.04" gradientTransform="matrix(-.999 .041 -.037 -.902 1124.328 -15.627)" gradientUnits="userSpaceOnUse"><stop offset="0" stop-color="#28353D"/><stop offset=".508" stop-color="#27323B"/><stop offset=".809" stop-color="#222A33"/><stop offset="1" stop-color="#1D2029"/></radialGradient><path fill="url(#d)" d="M130.174 51.841s1.069 3.796-3.105 4.088c-4.176.293-3.221-4.61-3.221-4.61s.807-.495 2.904-.382c2.098.115 3.422.904 3.422.904z"/><ellipse transform="rotate(87.65 126.97 53.257)" fill="#212121" cx="126.97" cy="53.299" rx="1.498" ry="1.659"/><path fill="#fff" d="M124.43 53.98a.663.663 0 0 0 .865-.087c.21-.238.167-.583-.1-.778a.667.667 0 0 0-.869.085c-.209.235-.163.588.104.78zm1.588-.403a.532.532 0 0 0 .699-.068.422.422 0 0 0-.08-.636.538.538 0 0 0-.701.067.42.42 0 0 0 .082.637z"/><path fill="#666" d="M133.357 53.945s-.643-.679-1.808-1.385c-.571-.367-1.291-.699-2.084-.968a9.05 9.05 0 0 0-2.582-.466c-.44-.028-.918.004-1.366.013-.443.036-.883.064-1.305.136a8.37 8.37 0 0 0-1.201.257 6.257 6.257 0 0 0-1.035.373c-.619.283-1.076.641-1.338.938-.263.301-.341.517-.341.517l-.048-.015s.068-.232.322-.559c.252-.323.699-.719 1.322-1.049.621-.335 1.405-.597 2.266-.765.429-.093.881-.143 1.34-.199.46-.026.902-.083 1.387-.078.944-.021 1.902.112 2.744.41.848.285 1.563.727 2.135 1.137 1.135.858 1.631 1.671 1.631 1.671l-.039.032z"/><path opacity=".5" fill="#F6A76A" d="M118.62 52.092c-1.474.321-1.394 2.722.12 2.917-.431-1.047-.454-1.853-.12-2.917z"/><path fill="#EAA76F" d="M133.189 53.558c1.887-.436 4.357-.029 6.006.987-1.891.436-4.351.026-6.006-.987zm-.084.99c1.886-.435 4.36-.032 6.006.987-1.89.437-4.353.027-6.006-.987z"/><path fill="#AC3D4C" stroke="#822B3A" stroke-width=".5" stroke-miterlimit="10" d="M91.972 95.133s15.645 42.534 38.006-.651c0 0 1.783 2.519 12.14 7.484 0 0 20.278 8.134 26.05 14.185 17.577 18.431 7.878 77.385 8.919 103.483H44.848s-11.3-89.989 11.114-106.396c0 0 4.075-3.8 10.797-6.334.001 0 21.685-7.202 25.213-11.771z"/><path opacity=".2" d="M55.962 116.93s4.075-3.801 10.797-6.335c0 0 23.008-6.837 24.56-12.664 0 0 16.981 43.059 39.343-.126 0 0 1.098 2.887 11.456 7.852 0 0 20.278 8.134 26.05 14.185 8.333 8.737 10.532 26.585 10.654 45.721.136-20.502-1.788-40.114-10.654-49.41-5.771-6.051-26.05-14.186-26.05-14.186-10.356-4.965-12.14-7.484-12.14-7.484-22.362 43.185-38.101.3-38.101.3-3.639 5.432-25.119 12.122-25.119 12.122-6.723 2.535-10.797 6.334-10.797 6.334-11.42 8.358-14.086 35.815-13.957 60.743.153-23.888 3.1-49.106 13.958-57.052z"/><path fill="#C9706E" d="M177.016 219.634h.072c-.031-.805-.054-1.643-.066-2.508-.01.858-.01 1.692-.006 2.508z"/><path d="M66.7 219.954l-.406-13.052-.801-28.715c-.155-5.219-.242-10.453-.334-15.354-.005-1.243.093-2.45.227-3.645.129-1.181.286-2.326.439-3.442.344-2.226.711-4.319 1.06-6.249a239.982 239.982 0 0 1 1.901-9.283l.815-3.5.098.02-2.002 12.9a267.226 267.226 0 0 0-.88 6.25c-.284 2.232-.594 4.534-.639 6.961.049 4.891.007 10.103.092 15.327l.53 41.779-.1.003zm-.396-63.412l-.323 1.019-.36 1.159c-.132.451-.266.964-.439 1.511-.175.547-.302 1.162-.483 1.793-.153.641-.402 1.289-.533 1.998l-.557 2.142c-.221.724-.335 1.481-.485 2.235l-.416 2.252c-.128.746-.163 1.49-.246 2.207l-.209 2.069c-.097.658-.07 1.284-.086 1.861l-.053 3.858-.1.008-.197-3.869c-.022-.582-.089-1.213-.035-1.879l.102-2.098c.049-.727.048-1.483.141-2.244l.31-2.301c.105-.772.175-1.553.353-2.3l.471-2.207c.16-.714.401-1.383.615-2.019.226-.633.41-1.239.653-1.773.48-1.07.873-1.962 1.234-2.551.324-.602.554-.917.554-.917l.089.046zm87.262 63.457l.763-41.801c.116-5.228.089-10.442.159-15.335-.039-2.428-.354-4.73-.635-6.965-.285-2.22-.586-4.318-.881-6.254-1.203-7.744-2.002-12.908-2.002-12.908l.098-.02.814 3.503a238.075 238.075 0 0 1 1.902 9.289c.349 1.931.716 4.026 1.061 6.252.154 1.116.311 2.265.439 3.444.133 1.197.232 2.402.224 3.646-.114 4.905-.216 10.144-.401 15.363-.323 10.449-.657 20.896-.959 28.729-.289 7.834-.48 13.058-.48 13.058l-.102-.001zm.887-63.501s.232.313.563.913c.368.585.77 1.475 1.258 2.543.25.532.438 1.139.668 1.771.22.635.468 1.303.633 2.018l.484 2.207c.185.748.26 1.527.367 2.301l.322 2.305c.098.76.098 1.52.148 2.246l.109 2.1c.057.668-.009 1.3-.031 1.883l-.192 3.874-.101-.007-.058-3.864c-.017-.578.01-1.205-.09-1.863l-.216-2.071c-.086-.717-.121-1.463-.256-2.209l-.426-2.254c-.154-.753-.273-1.511-.5-2.234l-.572-2.141c-.133-.707-.391-1.354-.549-1.996-.187-.631-.317-1.244-.498-1.791-.179-.547-.317-1.059-.453-1.509-.129-.455-.28-.829-.373-1.157l-.334-1.017.097-.048z" opacity=".2"/><path fill="#2B2B2B" d="M105.717 1.219c-24.559 0-32.025 21.515-32.025 31.423-8.905 12.379.802 23.455 7.676 27.345v-6.091c0-8.005 7.612-15.417 19.045-14.185 10.246 1.107 16.698-4.684 22.149-14.529 6.732-13.183-1.666-23.963-16.845-23.963zm17.672 20.44s5.83 22.325 21.801 29.731c2.795-7.144 5.541-17.751 1.02-28.32-4.521-10.569-22.82-16.508-22.82-16.508v15.097z"/><path fill="#fff" d="M79.8 49.7s.153-.89.23-2.459c.053-.784.083-1.74.176-2.842.105-1.099.229-2.36.637-3.712.404-1.334 1.12-2.824 2.437-3.941 1.307-1.117 3.05-1.749 4.813-1.995.886-.138 1.787-.161 2.69-.151.454-.001.902.041 1.357.06l1.303.063c1.741.05 3.454.064 5.209-.124a41.786 41.786 0 0 0 5.144-.841 42.113 42.113 0 0 0 4.832-1.497 43.701 43.701 0 0 0 8.043-4.083 49.238 49.238 0 0 0 5.185-3.847c1.19-1.021 1.824-1.667 1.824-1.667s-.488.764-1.522 1.969c-1.033 1.204-2.624 2.843-4.781 4.535a35.393 35.393 0 0 1-8.066 4.781 33.338 33.338 0 0 1-10.483 2.611c-1.825.161-3.72.165-5.511.01l-1.335-.12c-.42-.031-.841-.086-1.255-.099a17.743 17.743 0 0 0-2.436.038c-1.577.131-3.04.588-4.145 1.428-1.128.816-1.854 2.015-2.32 3.211-.477 1.2-.737 2.399-.942 3.465l-.503 2.792c-.293 1.557-.581 2.415-.581 2.415zm-5.612-7.067l.345-2.435c.127-.773.264-1.726.625-2.794.351-1.058.955-2.277 2.03-3.256 1.058-.985 2.457-1.725 3.977-2.214a25.102 25.102 0 0 1 4.862-1.006c1.715-.173 3.398-.286 5.16-.445 1.76-.113 3.477-.357 5.23-.555 1.744-.267 3.499-.467 5.204-.802 1.713-.289 3.384-.646 5.005-.983 1.611-.377 3.168-.746 4.636-1.141.738-.179 1.438-.413 2.127-.607a42.225 42.225 0 0 0 1.983-.596 90.563 90.563 0 0 0 3.438-1.16c1.016-.37 1.896-.71 2.619-1 1.445-.583 2.25-.976 2.25-.976s-.715.543-2.068 1.341c-.678.396-1.51.868-2.491 1.353a45.385 45.385 0 0 1-3.343 1.54c-1.236.542-2.607 1.053-4.071 1.555l-2.262.746-2.394.674c-1.637.41-3.327.862-5.075 1.161-1.738.355-3.521.618-5.305.867-1.791.18-3.613.408-5.358.496-1.74.096-3.509.138-5.125.245-3.24.224-6.308.808-8.28 2.342-.977.761-1.637 1.736-2.07 2.692-.434.957-.714 1.861-.935 2.607l-.714 2.351zm2.845 3.176s.144-.883.255-2.439c.073-.777.118-1.727.284-2.821.167-1.087.413-2.357 1.094-3.629.664-1.271 1.854-2.471 3.353-3.179 1.488-.731 3.177-1.112 4.898-1.289.865-.092 1.74-.119 2.624-.126.845-.017 1.736-.015 2.596-.047a67.58 67.58 0 0 0 5.208-.354c1.739-.218 3.477-.445 5.171-.777a73.549 73.549 0 0 0 4.931-1.165 62.172 62.172 0 0 0 8.472-3.048c4.839-2.157 7.758-4.272 7.758-4.272s-.606.664-1.821 1.666a36.78 36.78 0 0 1-5.401 3.667 45.216 45.216 0 0 1-8.489 3.707 46.941 46.941 0 0 1-5.064 1.353c-1.75.353-3.541.663-5.347.839-1.809.164-3.61.278-5.414.279-.896-.002-1.747-.042-2.622-.059a25.502 25.502 0 0 0-2.464.029c-1.605.08-3.139.333-4.442.883-1.311.532-2.354 1.39-3.02 2.442-.669 1.047-1.063 2.188-1.323 3.222-.264 1.037-.454 1.97-.618 2.734-.33 1.534-.619 2.384-.619 2.384z" opacity=".2"/><path opacity=".1" fill="#fff" d="M137.102 10.637c-1.144 1.107-2.768 2.091-5.437 2.953l-.036.012-.037.012-.467.149-.086.036v-.012c-8.684 2.423-13.482-4.834-21.355 2.841-4.169 4.047-8.364 7.43-14.503 5.597-11.206-3.357-13.776-.922-20.112 2.892a36.228 36.228 0 0 1 5.277-10.148c1.611-.763 3.481-1.082 5.819-.702 9.508 1.538 12.398 5.831 20.518-1.943 7.133-6.815 13.04-3.813 21.76-2.829 3.014.344 4.834-.185 6.089-1.194a30.535 30.535 0 0 1 2.57 2.336z"/><path fill="#4D4D4D" d="M104.298 46.433c-2.75.586-5.531.53-8.324.538a35.19 35.19 0 0 0-5.059.517c-.733.128-1.477.287-2.183.524l-.872.278c-.075.024-.14-.106-.065-.144 2.882-1.467 5.944-2.09 9.129-2.515 1.607-.214 3.169-.252 4.777-.012.404.061 2.588.297 2.597.814zm15.263-.15c2.462-.974 5.155-.956 7.734-.604 1.631.222 3.248.493 4.841.913.378.1 4.055 1.22 3.981 1.577-.036.175-2.802-.618-3.164-.681a34.796 34.796 0 0 0-5.447-.521c-1.677-.027-3.334.047-5.008-.117-.37-.037-2.925-.117-2.937-.567z"/><path d="M92.472 94.679s-8.774 1.242-17.061 7.952c-2.275 3.185 4.024 14.516 5.996 16.544 0 0 5.538 7.212 20.607 11.156l9.048-16.804c.001 0-15.348-6.287-18.59-18.848zm36.71-1.109s8.334 1.254 16.955 7.619c2.438 3.088-3.273 14.665-5.14 16.772 0 0-5.163 7.43-20.013 11.984l-9.902-16.418c-.001 0 15.505-7.277 18.1-19.957z" fill="#fff"/></svg>