<svg xmlns="http://www.w3.org/2000/svg" width="220" height="220" viewBox="0 0 220 220"><path fill="#fc9" stroke="#D09D6A" stroke-width=".5" stroke-miterlimit="10" d="M128.324 134.479l-51.369-1.824-.742-21.064c-.006-.939 7.191-2.682 8.063-2.956 1.912-.601 4.223-.755 5.896-1.948 2.371-1.689 1.836-4.061 1.964-6.648l.159-3.3.204-4.306 35.813-.24.556 3.605.476 3.062c.857 5.205.891 8.27 6.4 10.127a95.765 95.765 0 0 0 10.73 2.934l-18.15 22.558z"/><path opacity=".5" fill="#F6A76A" d="M129.344 98.858c-1.439 1.076-3.061 2.097-4.92 3.094-4.318 3.401-11.382 4.343-11.382 4.343h-6.281s-7.074-.942-11.394-4.343a40.557 40.557 0 0 1-3.231-1.915l.159-3.3a39.608 39.608 0 0 0 3.072 1.814c4.319 3.401 11.394 4.343 11.394 4.343h6.281s7.063-.942 11.382-4.343a38.149 38.149 0 0 0 4.444-2.755l.476 3.062z"/><path fill="#fc9" stroke="#D09D6A" stroke-width=".5" stroke-miterlimit="10" d="M147.081 54.978c-1.021-.236-3.007 1.412-4.744 3.126 1.411-16.455-.536-32.62-.536-32.62l-32.862-11.608-32.864 11.607s-1.946 16.166-.536 32.62c-1.737-1.714-3.724-3.362-4.744-3.126-2.048.476-3.596 4.22-.071 10.52s6.817 14.892 8.902 14.064c.324-.127.586-.331.806-.57 3.463 10.097 6.442 15.67 14.926 20.542 3.787 3.192 9.984 4.081 9.984 4.081h7.192s6.198-.889 9.985-4.081c8.482-4.872 11.463-10.445 14.926-20.542.22.239.479.442.806.57 2.084.828 5.376-7.765 8.901-14.064s1.978-10.043-.071-10.519z"/><path fill="#1A1A1A" d="M75.908 67.074S73.866 52.057 86.853 42.83c-.337 3.823-2.931 6.447-2.931 6.447s8.233-5.872 9.554-7.771c.39 1.518-.176 4.252-.176 4.252s12.832-5.503 18.244-11.85c5.411-6.346-7.812 8.554-7.812 8.554s7.776-3.408 13.786-11.323c-.318 3.185-2.037 6.307-2.037 6.307s3.75-.555 7.004-10.54c2.771 5.97 5.078 10.33 7.508 11.672 0 0-1.936-4.697-.867-9.091 0 0 6.162 13.354 8.188 16.601 2.022 3.245 5.348 16.33 5.348 16.33s3.664-3.663 4.395-12.816c.729-9.154 1.221-18.57-.296-21.996-1.514-3.426-4.599-16.203-12.821-18.85-8.222-2.65-11.617-1.835-11.617-1.835S116.21.594 111.249.388C106.29.182 100.6-.604 96.12.916c-4.48 1.522-13.858 4.798-20.886 13.392-7.031 8.592-8.054 17.536-8.054 17.536s-.906 11.005 2.51 21.837C73.107 64.512 74 64.749 74 64.749l1.908 2.325z"/><path opacity=".1" fill="#fff" d="M74.038 59.887c-.572-1.53-1.333-3.722-2.318-6.848-3.243-10.281-2.428-20.917-2.418-21.024.002-.011 1.065-8.398 7.576-16.362C83.624 7.407 92.857 4.27 96.801 2.932c2.537-.862 5.617-.866 8.295-.754 1.026.04 2.054.105 3.067.169 1.017.062 2.019.125 2.994.166 3.354.14 8.198 4.403 9.63 5.885l.846.876 1.182-.284h-.002c.008 0 .547-.092 1.637-.05 1.64.069 4.501.443 8.837 1.841 5.845 1.882 8.911 10.495 10.56 15.119.381 1.073.684 1.919.969 2.566 1.518 3.429.502 16.171.119 20.967-.254 3.194-.887 5.646-1.562 7.444-1.187-4.194-2.913-9.768-4.253-11.916-1.932-3.099-7.998-16.231-8.059-16.367l-2.559-5.541-1.443 5.931a13.61 13.61 0 0 0-.309 1.832c-.902-1.728-1.723-3.492-2.333-4.808l-2.276-4.908-1.678 5.145c-.148.457-.298.89-.445 1.301l.371-3.71-4.564 6.014c-1.917 2.525-4.037 4.571-5.997 6.169l-1.687-1.679c-3.654 3.297-9.006 6.229-12.414 7.925a6.899 6.899 0 0 0-.187-1.29l-1.156-4.5-2.653 3.816c-.301.431-1.34 1.353-2.734 2.48l.383-4.348-3.758 2.67c-7.948 5.649-10.701 13.223-11.584 18.794z"/><path fill="#1A1A1A" d="M118.432 56.584c2.622-1.489 5.517-1.609 8.443-1.705.796-.021 8.641-.231 8.629.231-.007.292-2.663.467-2.968.507-1.725.227-3.435.507-5.15.795-1.741.292-3.443.728-5.219.739-.528.003-3.691.083-3.735-.567zm-36.05-.792c2.979.014 5.961.093 8.94.061 1.743-.019 3.443-.056 5.173.229.357.059 3.101.433 2.982.987-.021.098-.762.256-.841.279-.812.23-1.647.378-2.486.473-1.944.221-3.757-.163-5.676-.421a110.87 110.87 0 0 1-5.188-.834c-.349-.064-3.026-.355-2.904-.774z"/><path fill="#fff" d="M99.828 64.489c.097.819.381 1.624-.021 2.372-.773 1.443-1.926 2.161-3.554 2.144-1.74-.021-3.48-.369-5.182-.701-1.121-.219-2.634-.241-3.528-1.018-.497-.433-2.25-2.031-1.906-3.04.39-1.142 2.512-1.617 3.563-1.835 2.247-.462 4.701-.28 6.96.052 1.363.2 3.114.579 3.668 2.026z"/><radialGradient id="a" cx="633.724" cy="-6.53" r="2.917" gradientTransform="rotate(-173.72 365.17 44.357)" gradientUnits="userSpaceOnUse"><stop offset="0" stop-color="#28353D"/><stop offset=".508" stop-color="#27323B"/><stop offset=".809" stop-color="#222A33"/><stop offset="1" stop-color="#1D2029"/></radialGradient><path fill="url(#a)" d="M90.899 62.353a3.118 3.118 0 0 0-.976 1.944 3.128 3.128 0 0 0 2.761 3.457 3.129 3.129 0 0 0 2.937-4.86c-.714-.381-3.973-.707-4.722-.541z"/><path fill="#212121" d="M91.193 64.7a1.911 1.911 0 0 0 1.687 2.113 1.913 1.913 0 1 0-1.687-2.113z"/><path fill="#1A1A1A" d="M99.828 64.489s-.485-1.329-3.491-1.664c-3.005-.338-6.511-.023-7.423-.125-.91-.102-3.357 1.533-3.357 1.533s1.278-2.102 3.397-2.52c1.923-.381 7.399-.023 8.784.274 1.382.297 2.09 2.502 2.09 2.502z"/><path fill="#B76B2C" d="M98.154 68.658s-6.278.98-10.276-1.558c-2.035-1.292-2.24-2.854-2.24-2.854s-.484 2.208 2.634 3.618c4.849 2.19 9.882.794 9.882.794z"/><path fill="#fff" d="M90.262 64.836a.556.556 0 1 0 .66-.896.556.556 0 0 0-.66.896zm1.422-.469a.453.453 0 1 0-.099-.636.451.451 0 0 0 .099.636zm27.959.122c-.097.819-.381 1.624.021 2.372.774 1.443 1.927 2.161 3.556 2.144 1.738-.021 3.479-.369 5.182-.701 1.121-.219 2.633-.241 3.527-1.018.497-.433 2.25-2.031 1.905-3.04-.39-1.142-2.513-1.617-3.563-1.835-2.248-.462-4.701-.28-6.959.052-1.365.2-3.117.579-3.669 2.026z"/><radialGradient id="b" cx="1401.518" cy="-92.44" r="2.916" gradientTransform="scale(1 -1) rotate(6.37 520.353 -11527.55)" gradientUnits="userSpaceOnUse"><stop offset="0" stop-color="#28353D"/><stop offset=".508" stop-color="#27323B"/><stop offset=".809" stop-color="#222A33"/><stop offset="1" stop-color="#1D2029"/></radialGradient><path fill="url(#b)" d="M128.57 62.353c.529.493.891 1.168.976 1.944a3.128 3.128 0 0 1-2.761 3.457 3.128 3.128 0 0 1-2.935-4.86c.713-.381 3.972-.707 4.72-.541z"/><path fill="#212121" d="M128.275 64.7a1.909 1.909 0 0 1-1.686 2.113 1.915 1.915 0 0 1-.428-3.804 1.911 1.911 0 0 1 2.114 1.691z"/><path fill="#1A1A1A" d="M119.643 64.489s.485-1.329 3.49-1.664c3.006-.338 6.512-.023 7.424-.125.91-.102 3.358 1.533 3.358 1.533s-1.28-2.102-3.397-2.52c-1.924-.381-7.4-.023-8.785.274-1.383.297-2.09 2.502-2.09 2.502z"/><path fill="#B76B2C" d="M121.314 68.658s6.278.98 10.276-1.558c2.037-1.292 2.24-2.854 2.24-2.854s.483 2.208-2.633 3.618c-4.847 2.19-9.883.794-9.883.794z"/><path fill="#fff" d="M123.904 64.836a.556.556 0 0 0 .779-.12.553.553 0 0 0-.119-.777.56.56 0 0 0-.781.121.558.558 0 0 0 .121.776zm1.423-.469a.45.45 0 0 0 .632-.098.455.455 0 0 0-.098-.634.458.458 0 0 0-.633.096.451.451 0 0 0 .099.636z"/><path opacity=".32" fill="#F5B1A2" d="M108.521 78.694c1.737.178 3.825.78 3.877 1.02-2.295 1.124-7.102.479-6.954-.112.116-.457 1.974-1.023 3.077-.908z"/><path fill="#AE8879" d="M111.654 79.116c.468-.022.953.21.924.297-.028.089-.502.019-.913.04-.25.014-1.034.206-1.073.122-.037-.084.778-.444 1.062-.459zm-5.294-.159c.492.097 1.082.465 1.041.548-.041.084-.721-.136-1.062-.209-.293-.062-.984.021-1.024-.062-.04-.086.716-.343 1.045-.277z"/><path opacity=".2" fill="#F5B1A2" d="M106.552 79.913c-.496-.524-1.23-1.043-1.991-.865.711-1.254 2.766.859 3.507 1.077.913.265 1.771-.144 2.569-.541.92-.455 1.807-.605 2.776-.194-.579.181-1.101.12-1.672.398-.612.3-1.158.704-1.759 1.024-1.329.71-2.472.115-3.43-.899z"/><path opacity=".5" fill="#F6A76A" d="M113.165 79.139s.954-.357.769-1.292c-.188-.936-.705-1.401-.705-1.401s.772.646.856 1.591c.086.944-.92 1.102-.92 1.102zm-8.454 0s-.953-.357-.767-1.292c.187-.936.705-1.401.705-1.401s-.773.646-.858 1.591c-.086.944.92 1.102.92 1.102z"/><path opacity=".3" fill="#FDE9D7" d="M111.784 73.882s-.665-.284-.886-1.439c-.219-1.155-1.106-3.221-1.551-.531-.442 2.692-.328 4.037.641 3.694 1.427-.502 2.354-.136 2.409-.76.033-.395-.204-.758-.613-.964z"/><path fill="#F9AE87" d="M119.411 83.812c-.493.199-1.07.973-1.07.973-1.405 1.853-6.409 2.306-7.793 2.302-.423-.002-.979.025-1.609.053-.633-.028-1.188-.056-1.61-.053-1.383.004-6.386-.45-7.793-2.302 0 0-.578-.774-1.07-.973-.683-.282-.999-.032-.427.371.198.143.564-.12 1.148.806.883 1.404 4.158 2.088 6.229 2.323 1.042.12 2.28.189 3.522.216a39.037 39.037 0 0 0 3.52-.216c2.071-.235 5.349-.918 6.231-2.323.584-.926.949-.664 1.147-.806.574-.403.258-.653-.425-.371z"/><path fill="#B54A37" d="M118.361 85.34c-.449 1.063-1.071 2.491-1.733 3.514l-.255.381c-1.072 1.548-2.079 2.191-2.93 2.67-1.207.687-2.791 1.153-4.431 1.153h-.088c-1.639 0-3.229-.466-4.436-1.153-.738-.417-1.591-.955-2.5-2.098a11.131 11.131 0 0 1-.686-.954c-.723-1.124-1.406-2.735-1.861-3.814.027.034 1.506-.078 2.269-.158 1.896-.199 3.59-.253 5.118-.189.739.022 1.44.078 2.102.151h.006l.166.02c.611-.05 1.257-.093 1.935-.119a34.03 34.03 0 0 1 5.447.212c1.556.179 2.173.172 1.877.384z"/><path fill="#FF5D47" d="M116.373 89.235c-1.072 1.548-2.079 2.191-2.93 2.67-1.207.687-2.791 1.153-4.431 1.153h-.088c-1.639 0-3.229-.466-4.436-1.153-.738-.417-1.591-.955-2.5-2.098 1.805-.739 4.768-1.215 8.119-1.215 2.375.001 4.554.243 6.266.643z"/><path fill="#fff" d="M118.223 85.346l-18.489-.161s-.866 2.085 8.778 1.976l.859-.005c9.647.109 8.852-1.81 8.852-1.81z"/><path fill="#FFAC81" d="M99.42 85.182c-.002-.101 3.23-.362 3.551-.452 1.926-.282 4.092-.451 5.974-.129 1.804-.288 4.034-.101 5.952.189.326.09 3.567.361 3.563.461.032.996-19.074.865-19.04-.069z"/><path opacity=".5" fill="#F6A76A" d="M109.58 81.632s-.026 2.369-1.253 2.317c-1.225-.052.336.404 1.076.201.743-.202.788-.567.177-2.518z"/><path fill="#FFB679" d="M74.103 65.405c-1.296.604 1.119 4.941 2.031 6.444.908 1.497 2.539 1.878 3.139 1.219.598-.654-.158-3.147-.99-2.918-.83.232-1.556-.2-1.438-.976.12-.775-1.135-4.519-2.742-3.769zm70.504-2.279c1.354.464-.592 5.031-1.34 6.621-.748 1.585-2.328 2.136-2.994 1.542-.664-.587-.174-3.145.678-3.004.85.143 1.525-.365 1.328-1.122-.202-.759.653-4.613 2.328-4.037z"/><path fill="#1A1A1A" d="M101.354 33.078l-.407.225c-.271.137-.643.382-1.162.611-.527.204-1.17.527-1.939.729-.761.253-1.64.458-2.608.638a32.16 32.16 0 0 1-3.141.396 77.21 77.21 0 0 1-3.485.199 47.035 47.035 0 0 0-3.615.258c-1.187.143-2.379.368-3.314.898-.236.127-.438.289-.664.426l-.083.053-.011.006.05-.045-.021.021-.043.042-.172.167-.345.334c-.192.216-.313.414-.481.616-.158.209-.307.487-.461.725-.575 1.023-1.11 2.102-1.53 3.201-.872 2.184-1.539 4.324-2.153 6.146-.594 1.831-1.123 3.359-1.532 4.416-.198.53-.381.938-.505 1.215l-.188.425.31-1.746c.191-1.109.435-2.698.804-4.598.368-1.901.83-4.121 1.61-6.463.392-1.167.849-2.381 1.512-3.562.183-.296.329-.583.546-.888.226-.298.463-.632.695-.893l.338-.341.169-.17.042-.042.021-.021.073-.065.014-.01.116-.082c.312-.211.618-.451.946-.627 1.337-.707 2.739-.914 4.049-1.054 1.321-.142 2.589-.104 3.798-.096l3.457.07a63.684 63.684 0 0 0 3.063-.044c.941-.067 1.811-.123 2.571-.245.773-.085 1.41-.257 1.964-.355 1.088-.287 1.712-.47 1.712-.47zm41.912 16.828l.008-.784c.004-.512.016-1.254-.02-2.205-.046-1.897-.229-4.604-.664-7.821a78.008 78.008 0 0 0-2.314-10.822c-.588-1.935-1.267-3.931-2.248-5.824-.967-1.892-2.17-3.729-3.743-5.207a11.06 11.06 0 0 0-2.577-1.893 9.962 9.962 0 0 0-2.964-1.061c-2.068-.438-4.146-.707-6.101-.494a10.659 10.659 0 0 0-5.18 1.958c-.716.523-1.402 1.106-1.895 1.729-.498.643-.869 1.37-1.156 2.104-.581 1.472-.875 2.943-1.236 4.224-.345 1.286-.688 2.419-1.134 3.291-.433.877-.958 1.467-1.356 1.8a3.934 3.934 0 0 1-.484.343l-.173.105-.052-.086.158-.119c.107-.073.25-.203.431-.375.346-.358.781-.96 1.106-1.834.339-.868.614-1.975.858-3.274.252-1.297.507-2.784 1.049-4.383.273-.797.645-1.62 1.191-2.396.151-.193.312-.402.459-.553.141-.165.353-.351.51-.501.334-.334.714-.632 1.1-.934a11.431 11.431 0 0 1 2.648-1.436 12.094 12.094 0 0 1 3.068-.632c2.121-.172 4.279.203 6.355.813 2.125.542 4.102 1.77 5.624 3.347.792.767 1.471 1.637 2.099 2.528a25.882 25.882 0 0 1 1.725 2.761 40.256 40.256 0 0 1 2.586 5.779c1.41 3.874 2.068 7.685 2.431 10.945.194 1.631.276 3.137.303 4.47.032 1.333.026 2.496-.036 3.452a34.055 34.055 0 0 1-.179 2.213l-.099.777-.098-.005z"/><radialGradient id="c" cx="139.367" cy="-36.238" r="15.716" gradientTransform="matrix(1 0 0 -1 -47.6 50.01)" gradientUnits="userSpaceOnUse"><stop offset="0" stop-color="#ED1C24"/><stop offset="1" stop-color="#ED1C24" stop-opacity="0"/></radialGradient><circle opacity=".15" fill="url(#c)" cx="91.767" cy="86.248" r="15.716"/><radialGradient id="d" cx="174.967" cy="-36.238" r="15.717" gradientTransform="matrix(1 0 0 -1 -47.6 50.01)" gradientUnits="userSpaceOnUse"><stop offset="0" stop-color="#ED1C24"/><stop offset="1" stop-color="#ED1C24" stop-opacity="0"/></radialGradient><circle opacity=".15" fill="url(#d)" cx="127.367" cy="86.248" r="15.717"/><path fill="#fc9" stroke="#D09D6A" stroke-width=".5" stroke-miterlimit="10" d="M69.959 133.531l-.828 5.39-4.181 27.142-.033.196-.315 2.025-.272 1.796-.326 2.113v.011l-.021.142s-3.158 16.984-5.488 23.887v.012l-.282.794c-1.22 3.267-3.321 10.747-5.052 17.16l-.011.011c-.566 2.112-1.101 4.105-1.547 5.792H36l1.067-19.858s1.491-13.609 2.362-17.388c.871-3.778 3.31-10.626 3.31-10.626s1.252-5.521 2.744-12.193c.119-.513.229-1.035.358-1.559 1.852-8.307 3.953-17.813 4.464-20.631.915-5.118 4.54-10.006 4.824-10.376l.021-.022 14.809 6.182z"/><path fill="#FFB679" d="M69.959 133.531l-.828 5.39-4.181 27.142-.033.196-.315 2.025-.272 1.796-.326 2.113v.011l-.021.142s-3.158 16.984-5.488 23.887v.012l-.282.794c-1.22 3.267-3.321 10.747-5.052 17.16l-.011.011c-.566 2.112-1.101 4.105-1.547 5.792h-1.73c.479-1.817 1.078-4.05 1.709-6.414l.011-.011a655.083 655.083 0 0 1 1.568-5.693c1.307-4.693 2.612-9.146 3.483-11.465.087-.25.186-.511.272-.806l.011-.011c2.33-6.902 5.487-23.889 5.487-23.889l.021-.13v-.022l.316-2.068.282-1.796.61-4.007 3.647-23.615.272-1.785.827-5.389-13.261-5.531.021-.021 14.81 6.182zm-.829 5.385l-5.122 33.273-.007.015-5.506 24.024-.006.016-.281.795c-1.212 3.264-3.317 10.748-5.049 17.159-.142-1.968-.217-4.171-.11-5.282 1.117-11.96 7.404-31.654 8.352-47.311.992-16.43 4.087-20.879 7.578-22.678.066-.029.115-.036.151-.011z"/><path fill="#fc9" stroke="#D09D6A" stroke-width=".5" stroke-miterlimit="10" d="M183.363 220H167.76c-.445-1.688-.968-3.68-1.546-5.792l-.01-.011c-1.731-6.413-3.833-13.895-5.041-17.16-.099-.239-.187-.512-.283-.794l-.011-.011c-2.33-6.902-5.487-23.889-5.487-23.889l-.022-.141v-.012l-.325-2.112-.272-1.796-.316-2.016-.031-.207-4.182-27.142-.826-5.39 14.807-6.186.021.022c.283.37 3.908 5.259 4.824 10.376.51 2.818 2.611 12.313 4.463 20.609.119.533.24 1.056.349 1.566 1.491 6.686 2.755 12.206 2.755 12.206s2.449 6.847 3.32 10.626c.859 3.777 2.352 17.387 2.352 17.387L183.363 220z"/><path fill="#FFB679" d="M169.493 220h-1.731c-.445-1.688-.969-3.68-1.547-5.792l-.01-.011c-1.73-6.413-3.833-13.895-5.041-17.16-.1-.239-.186-.512-.283-.794l-.011-.011c-2.33-6.902-5.487-23.889-5.487-23.889l-.021-.141v-.012l-.326-2.112-.271-1.796-.316-2.016-.032-.207-4.181-27.142-.827-5.39 14.807-6.186.022.022-13.262 5.53.828 5.39.271 1.796 3.647 23.605.608 4.006.282 1.795.316 2.07v.021l.021.13s3.156 16.985 5.486 23.888l.012.012c.099.293.185.555.283.806.859 2.31 2.156 6.739 3.461 11.399a398.545 398.545 0 0 1 1.58 5.759l.011.011c.644 2.369 1.232 4.601 1.711 6.419zm-19.257-81.084l5.121 33.273.008.015 5.506 24.024.006.016.281.795c1.212 3.264 3.316 10.748 5.049 17.159.143-1.968.217-4.171.109-5.282-1.116-11.96-7.403-31.654-8.352-47.311-.992-16.43-4.087-20.879-7.578-22.678-.066-.029-.115-.036-.15-.011z"/><path fill="#FF843B" stroke="#E85A24" stroke-width=".5" stroke-miterlimit="10" d="M154.393 220h-89.42c.795-12.249 1.415-22.975 1.394-35.037-.011-6.467-.207-11.551-.664-14.382l-.207-.076-.25-.087a24.604 24.604 0 0 1-.915-.338c-.436-.152-.969-.359-1.578-.588l-.676-.262-1.393-.565-1.46-.608a75.474 75.474 0 0 1-1.339-.589l-.457-.208-.664-.304-.272-.12-.772-.37-.643-.305a41.958 41.958 0 0 1-1.416-.72l-.054-.021-1.045-.556-.327-.174c-.468-.26-.926-.522-1.372-.784l-.337-.195-.556-.338-.436-.272-.839-.555a24.925 24.925 0 0 1-1.905-1.426c-.195-.152-.381-.316-.555-.469a15.11 15.11 0 0 1-.751-.719 10.305 10.305 0 0 1-.98-1.154l-.25-.381a6.383 6.383 0 0 1-.294-.512c.021-.556.055-1.133.098-1.72 1.002-13.381 8.492-35.481 11.116-39.305 2.755-3.996 21.372-9.755 21.372-9.755H87.27c0 .011.163.251.468.665 1.949 2.612 9.897 12.042 21.536 12.042 13.457 0 21.22-10.321 22.832-12.707h10.69s18.629 5.76 21.373 9.755c2.699 3.908 10.452 26.893 11.183 40.164l.043.861c-.25.512-.609 1.022-1.058 1.523-.142.174-.304.337-.468.511l-.326.328a2.979 2.979 0 0 1-.35.326c-.195.185-.412.358-.631.544l-.119.098-.61.479c-.369.293-.772.575-1.177.848a48.707 48.707 0 0 1-3.537 2.145l-.305.164-1.045.555-.078.044c-.467.239-.945.479-1.414.708-.947.457-1.896.904-2.81 1.307l-.893.391c-.653.285-1.296.557-1.896.796-.566.239-1.1.446-1.59.642l-.479.196-1.578.588c-.871.328-1.383.501-1.383.501a45.568 45.568 0 0 0-.403 3.561l-.063 1.11a63.89 63.89 0 0 0-.109 2.297l-.021.513a179.621 179.621 0 0 0-.076 6.598c0 .436.012.871.021 1.328 0 .457 0 .904.011 1.35v.338c.152 9.155.72 20.479 1.415 32.325"/><path fill="#FFE341" d="M153.646 168.682v1.896s18.564-6.345 21.742-12.687a45.585 45.585 0 0 0-.1-1.727c-3.419 6.287-21.642 12.518-21.642 12.518zm-87.944 0s-18.224-6.23-21.644-12.517c-.044.591-.08 1.17-.099 1.726 3.177 6.342 21.742 12.688 21.742 12.688l.001-1.897z"/><path fill="#fff" d="M122.773 197.136c-3.996-2.853-9.461-4.071-14.839-4.071-1.383 0-2.428 0-3.637.174l1.209-8.678h21.862v-10.845H96.317l-3.734 29.582c2.341-.348 4.507-.522 7.643-.522 11.269 0 15.863 3.562 15.863 9.375 0 4.182-2.83 6.707-6.401 7.851h17.669a17.75 17.75 0 0 0 2.266-8.722c-.001-6.589-2.603-11.281-6.85-14.144zM91.592 220h6.718c-2.592-.566-4.834-1.361-6.238-2.036l-.48 2.036z"/><path fill="#FFE341" d="M132.104 107.106c-1.61 2.385-9.373 12.707-22.831 12.707-11.639 0-19.587-9.43-21.536-12.042-.305-.414-.468-.654-.468-.665h-2.178l-.055.108.24.447.37.61c1.688 2.699 9.319 13.435 23.626 13.435 14.623 0 22.723-10.985 24.442-13.588.187-.283.294-.479.327-.533l.294-.479h-2.231z"/><path fill="#E85A24" d="M66.899 220h-1.928c.795-12.249 1.415-22.975 1.394-35.037l.142-2.188c.338-5.26.588-9.157.729-11.008.044-.675.076-1.066.087-1.176.011.129.021.663.021 1.547.012 5.858-.216 27.076-.445 47.862zm-.116-28.159l-.319-5.522-.746-12.139c-.058-1.109-.204-2.187-.303-3.26l-.158-1.589-.072-.781-.222-.702c-.125-.517-.342-.937-.523-1.377a25.463 25.463 0 0 0-.579-1.296 52.15 52.15 0 0 0-1.162-2.393l-2.485-4.939.085-.053s.34.44.899 1.235c.281.396.615.883.983 1.451.358.573.8 1.198 1.213 1.924.425.718.879 1.5 1.327 2.351.237.413.458.86.663 1.353.207.479.453.973.581 1.465.077.271.138.453.226.801l.056.805.103 1.637c.056 1.1.157 2.224.167 3.326l.194 6.502.103 5.67.069 5.531h-.1zm-1.874-25.962s.563.579 1.145 1.602c.31.5.597 1.123.874 1.799.246.691.427 1.455.639 2.205l.259 1.137c.079.376.185.736.224 1.104l.148 1.045c.034.332.101.642.101.937l.042 1.94-.1.002-.289-1.896c-.037-.283-.143-.581-.218-.899l-.25-1c-.071-.35-.211-.696-.323-1.054l-.358-1.077c-.133-.356-.284-.709-.429-1.054l-.419-1.017c-.267-.659-.451-1.303-.632-1.848-.336-1.1-.502-1.879-.502-1.879l.088-.047zM154.393 220h-1.916c-.24-20.796-.47-42.027-.459-47.873 0-.872.012-1.406.022-1.535l.099 1.131c.131 1.819.381 5.694.719 10.953v.021l.119 1.96.021.304c0 .795 0 1.591.011 2.374v.337c.065 10.988.641 21.004 1.384 32.328zm-1.911-28.162s.027-2.213.07-5.531l.102-5.671.195-6.501c.01-1.103.11-2.227.166-3.326l.104-1.637.056-.805c.089-.348.149-.53.226-.801.127-.492.375-.986.582-1.465.203-.492.426-.939.662-1.353.448-.853.902-1.633 1.328-2.351.412-.726.854-1.351 1.213-1.924a40.37 40.37 0 0 1 .982-1.451c.559-.795.898-1.235.898-1.235l.086.053-2.485 4.938a53.827 53.827 0 0 0-1.162 2.394c-.203.431-.401.863-.579 1.296-.181.44-.396.86-.523 1.377l-.221.702-.072.781-.158 1.589c-.1 1.073-.246 2.148-.303 3.259l-.746 12.14-.319 5.522h-.102zm2.064-25.913s-.167.78-.502 1.88c-.181.545-.366 1.188-.632 1.848l-.419 1.016c-.146.346-.296.697-.429 1.053l-.358 1.078c-.112.357-.252.704-.323 1.053l-.25 1c-.076.319-.182.617-.218.9l-.289 1.896-.101-.002.043-1.941c0-.294.066-.604.101-.938l.147-1.043c.039-.367.146-.729.225-1.104l.259-1.138c.212-.75.394-1.514.64-2.203.276-.678.563-1.299.873-1.801.582-1.021 1.146-1.601 1.146-1.601l.087.047z"/></svg>