<svg xmlns="http://www.w3.org/2000/svg" width="220" height="220" viewBox="0 0 220 220"><path fill="#F9C795" stroke="#D09D6A" stroke-width=".5" stroke-miterlimit="10" d="M132.965 107.166c-1.932 2.732-15.177 11.339-20.805 11.066-.223-.008-.446-.041-.669-.065-.224.024-.444.058-.669.065-5.626.271-18.873-8.334-20.803-11.066-1.931-2.731-3.805-6.437-2.856-8.021.61-1.024 4.63-2.98 7.484-7.287.39-.587.751-1.213 1.082-1.89.827-1.65 1.438-3.573 1.685-5.843.075-.644.114-1.329.114-2.047v-.174a98.267 98.267 0 0 0-.988-13.558c-.464-3.145-.935-5.306-1.141-6.182l-.114-.42s7.831-2.856 16.208-4.151c8.376 1.295 16.2 4.151 16.2 4.151l-.107.42c-.206.876-.677 3.037-1.137 6.182a92.85 92.85 0 0 0-.424 3.35 95.418 95.418 0 0 0-.569 10.208v.174c0 .718.042 1.403.116 2.047.223 2.045.744 3.821 1.443 5.356.396.867.842 1.65 1.32 2.377 2.848 4.307 6.874 6.263 7.479 7.287.956 1.584-.918 5.29-2.849 8.021z"/><path opacity=".5" fill="#F6A76A" d="M127.014 87.874c-12.336 8.509-19.518 8.344-31.287.486.827-1.65 1.438-3.573 1.685-5.843.075-.643.114-1.329.114-2.047v-.173a98.267 98.267 0 0 0-.453-9.094c7.981-1.642 21.721-3.812 28.951-1.114a95.701 95.701 0 0 0-.568 10.208v.173c0 .718.042 1.404.115 2.047.221 2.046.743 3.821 1.443 5.357z"/><path fill="#F9C795" stroke="#D09D6A" stroke-width=".5" stroke-miterlimit="10" d="M130.691 12.397c-13.787-4.178-19.613-3.595-19.621-3.595-.006 0-5.833-.583-19.62 3.595-13.795 4.181-14.798 25.835-11.287 46.486C83.841 80.286 98.807 87.56 98.807 87.56s1.672 1.087 6.02 1.003c2.255 2.257 6.237 1.673 6.243 1.672.008.001 3.99.584 6.244-1.672 4.348.083 6.02-1.003 6.02-1.003s14.966-7.274 18.646-28.677c3.511-20.651 2.506-42.305-11.289-46.486z"/><radialGradient id="a" cx="183.679" cy="686.327" r="18.208" gradientTransform="translate(-95.2 -620.981)" gradientUnits="userSpaceOnUse"><stop offset="0" stop-color="#ED1C24"/><stop offset="1" stop-color="#ED1C24" stop-opacity="0"/></radialGradient><circle opacity=".1" fill="url(#a)" cx="88.479" cy="65.347" r="18.208"/><radialGradient id="b" cx="228.864" cy="686.328" r="18.209" gradientTransform="translate(-95.2 -620.981)" gradientUnits="userSpaceOnUse"><stop offset="0" stop-color="#ED1C24"/><stop offset="1" stop-color="#ED1C24" stop-opacity="0"/></radialGradient><path opacity=".1" fill="url(#b)" d="M151.872 65.347c0 10.056-8.155 18.209-18.208 18.209-10.057 0-18.208-8.153-18.208-18.209s8.151-18.208 18.208-18.208c10.053 0 18.208 8.152 18.208 18.208z"/><path opacity=".5" fill="#F6A76A" d="M97.441 85.221s5.154 2.127 7.422 2.696c-2.08-3.121-2.506-4.491-2.648-6.383.161 1.246-.708 3.922-.708 3.922l-4.066-.235zm27.086-.266s-5.153 2.128-7.424 2.695c2.08-3.12 2.508-4.491 2.647-6.383-.159 1.246.709 3.925.709 3.925l4.068-.237zM89.941 53.6s-.92 4.496 5.548 3.399c5.338-1.448 6.609-2.119 8.449-2.014-.382-.434-1.133-.636-1.133-.636s-5.452 1.207-7.727 1.134c-2.275-.074-5.137-1.883-5.137-1.883zm1.428-1.222s2.545-4.701 7.493-4.206c3.995.212 5.232 1.378 5.232 1.378s-3.358-.389-3.994-.141c1.589.672 2.974 3.306 2.759 4.021-.215.716-3.711-2.289-3.711-2.289l-7.779 1.237z"/><path fill="#fff" d="M89.653 53.791s1.386 2.678 6.026 2.142c4.641-.535 6.897-1.451 7.364-1.36.467.089-1.985-4.352-6.294-4.352-4.307 0-7.096 3.57-7.096 3.57z"/><radialGradient id="c" cx="191.24" cy="674.01" r="3.084" gradientTransform="translate(-95.2 -620.981)" gradientUnits="userSpaceOnUse"><stop offset="0" stop-color="#28353D"/><stop offset=".508" stop-color="#27323B"/><stop offset=".809" stop-color="#222A33"/><stop offset="1" stop-color="#1D2029"/></radialGradient><path fill="url(#c)" d="M92.777 51.425s-.915 4.262 3.282 4.396c4.196.135 3.234-4.729 3.234-4.729s-1.027-1.048-3.124-.827c-2.097.224-3.392 1.16-3.392 1.16z"/><circle fill="#212121" cx="96.041" cy="52.898" r="1.665"/><path fill="#fff" d="M93.603 53.766a.618.618 0 0 0 .733-.995.624.624 0 0 0-.867.135.615.615 0 0 0 .134.86zm1.574-.521a.503.503 0 1 0-.107-.704.5.5 0 0 0 .107.704z"/><path fill="#666" d="M89.612 53.862s.383-1.022 1.563-2.148a7.208 7.208 0 0 1 2.353-1.477 6.671 6.671 0 0 1 1.542-.362 8.199 8.199 0 0 1 1.62-.044c.26.019.511.022.776.054l.804.127a8.682 8.682 0 0 1 1.482.465 6.435 6.435 0 0 1 3.3 3.133c.197.415.264.671.264.671l-.096.03s-.087-.239-.317-.622a6.115 6.115 0 0 0-1.169-1.403 6.52 6.52 0 0 0-2.191-1.269 8.085 8.085 0 0 0-1.387-.328l-.717-.062c-.245-.013-.512.002-.767.002a7.312 7.312 0 0 0-1.445.173 7.616 7.616 0 0 0-1.332.408c-.851.305-1.596.727-2.221 1.129-.307.208-.595.399-.836.59l-.619.509c-.337.295-.522.478-.522.478l-.085-.054z"/><path opacity=".5" fill="#F6A76A" d="M104.364 51.347c1.489.263 1.51 2.672 0 2.927.389-1.065.38-1.875 0-2.927zm29.765 2.253s.919 4.496-5.55 3.399c-5.336-1.448-6.606-2.119-8.446-2.014.381-.434 1.131-.636 1.131-.636s5.452 1.207 7.729 1.134c2.275-.074 5.136-1.883 5.136-1.883zm-1.43-1.222s-2.545-4.701-7.494-4.206c-3.994.212-5.229 1.378-5.229 1.378s3.355-.389 3.994-.141c-1.592.672-2.977 3.306-2.762 4.021.215.716 3.711-2.289 3.711-2.289l7.78 1.237z"/><path fill="#fff" d="M134.416 53.791s-1.387 2.678-6.025 2.142c-4.641-.535-6.896-1.451-7.365-1.36-.467.089 1.988-4.352 6.295-4.352s7.095 3.57 7.095 3.57z"/><radialGradient id="d" cx="-27.712" cy="674.01" r="3.083" gradientTransform="matrix(-1 0 0 1 100.318 -620.981)" gradientUnits="userSpaceOnUse"><stop offset="0" stop-color="#28353D"/><stop offset=".508" stop-color="#27323B"/><stop offset=".809" stop-color="#222A33"/><stop offset="1" stop-color="#1D2029"/></radialGradient><path fill="url(#d)" d="M131.293 51.425s.915 4.262-3.281 4.396c-4.195.135-3.234-4.729-3.234-4.729s1.025-1.048 3.123-.827c2.097.224 3.392 1.16 3.392 1.16z"/><circle fill="#212121" cx="128.027" cy="52.898" r="1.665"/><path fill="#fff" d="M125.238 53.766a.617.617 0 1 0 .728-.996.617.617 0 0 0-.728.996zm1.575-.521a.502.502 0 1 0 .594-.81.502.502 0 0 0-.594.81z"/><path fill="#666" d="M134.375 53.917s-.186-.183-.521-.478l-.619-.509c-.24-.19-.528-.381-.836-.59-.625-.402-1.371-.824-2.221-1.129a7.668 7.668 0 0 0-1.332-.408 7.397 7.397 0 0 0-1.445-.173c-.256 0-.521-.015-.769-.003l-.717.063a8.003 8.003 0 0 0-1.388.328 6.524 6.524 0 0 0-2.19 1.269 6.142 6.142 0 0 0-1.169 1.403c-.229.382-.316.622-.316.622l-.097-.03s.067-.256.265-.671a6.435 6.435 0 0 1 3.299-3.133 8.633 8.633 0 0 1 1.481-.465l.804-.127c.268-.032.519-.035.776-.054a8.203 8.203 0 0 1 1.62.044 6.723 6.723 0 0 1 1.542.362 7.213 7.213 0 0 1 2.353 1.477c1.181 1.126 1.563 2.148 1.563 2.149l-.083.053z"/><path opacity=".5" fill="#F6A76A" d="M118.982 51.413c-1.422.25-1.442 2.551 0 2.796-.371-1.017-.362-1.79 0-2.796z"/><path opacity=".32" fill="#F5B1A2" d="M117.12 67.89c-.875-2.325-2.953-1.8-4.896-1.477-1.113.186-2.035.043-3.114-.243-1.115-.299-2.286-.397-3.116.552-.617.708.689.838 1.141.982 1.08.346 1.848 1.158 2.817 1.712 2.614 1.495 4.503-1.755 7.168-1.526-.048-.126-1.022-.088 0 0z"/><path fill="#AE8879" d="M109.141 67.656l.362.295c-.36-.377-.705-.741-1.113-1.071-.211-.172-1.693-1.178-1.957-.749-.04.059 1.279.55 1.377.596.463.181.969.587 1.331.929zm3.871.164l-.39.26c.394-.346.771-.685 1.2-.979.201-.14 1.841-1.026 2.016-.578.029.048-1.322.438-1.422.472-.478.165-1.014.502-1.404.825z"/><path opacity=".2" fill="#F5B1A2" d="M108.33 68.487c-.642-.68-1.596-1.352-2.584-1.121.923-1.626 3.59 1.117 4.551 1.395 1.186.345 2.297-.183 3.335-.7 1.191-.593 2.343-.787 3.601-.254-.75.235-1.426.158-2.168.521-.795.388-1.502.911-2.28 1.328-1.73.923-3.21.15-4.455-1.169zm6.762-1.474c.985 1.073-2.188 2.535-2.958 2.413.113-.917 1.852-3.622 2.958-2.413zm-7.949-.209c-.988 1.073 2.184 2.535 2.954 2.413-.11-.918-1.852-3.621-2.954-2.413z"/><path opacity=".5" d="M116.545 66.5s1.406-.528 1.131-1.906c-.273-1.378-1.039-2.062-1.039-2.062s1.137.951 1.264 2.341c.126 1.393-1.356 1.627-1.356 1.627zm-10.793-.102s-1.406-.528-1.131-1.905c.273-1.378 1.04-2.062 1.04-2.062s-1.14.95-1.265 2.341c-.125 1.393 1.356 1.626 1.356 1.626z" fill="#F6A76A"/><path opacity=".3" fill="#FDE9D7" d="M115.686 60.134s-.813-.347-1.088-1.766c-.269-1.417-1.355-3.95-1.902-.65-.543 3.301-.401 4.951.787 4.529 1.75-.617 2.89-.166 2.953-.932.043-.486-.248-.928-.75-1.181z"/><path fill="#2B2B2B" d="M129.184 89.471c-.094 0-1.057.066-2.272.094l.106-.082a16.967 16.967 0 0 1-1.179-3.678c3.987-2.89 3.666-2.541 6.757-6.073 7.316-8.361 9.336-19.384 10.207-26.956.975-8.641-5.26-14.26-11.947-20.173 0 0-9.431-2.796-13.002-6.596-3.571-3.785-14.752-6.696-14.752-6.696-5.367-4.571-16.414 2.166-16.509 8.836-.154 10.822-.883 12.708-2.448 13.819.441-4.013 0-6.583 0-6.583s-2.622 18.474-3.838 22.688c-.977 3.412 5.858 19.09 11.971 24.628 2.208 1.993 2.663 2.501 4.628 3.812 0 0-.107.99-1.215 3.398-2.395 0-2.021-.414-4.348-.455-35.574-.603-26.476-25.644-27.159-29.576-.695-3.934.16-7.023 10.086-33.873C84.184-.842 110.938 0 110.964 0s26.781-.842 36.694 26.005c9.925 26.85 10.781 29.939 10.099 33.873-.682 3.935 7.011 29.593-28.573 29.593z"/><path fill="#F9C795" d="M82.549 58.74c-.137 1.456-.175 3.613-2.442 3.172-1.441-.287-2.448-2.376-2.929-4.737 1.084-8.886 4.39-8.734 4.39-8.734v-.029c1.373 3.283 1.063 9.435.981 10.328z"/><circle fill="#FBB03B" cx="80.341" cy="61.176" r="1.728"/><path fill="#FFB679" d="M80.027 50.931c-1.554-.12-1.467 4.314-1.366 5.88s1.472 2.595 2.386 2.358c.914-.235 1.469-2.5.553-2.698-.916-.196-1.393-.857-.879-1.399.515-.545 1.237-3.998-.694-4.141z"/><path fill="#EAA76F" d="M124.898 33.041c-2.22.004-4.436-.046-6.653-.123-3.051-.105-6.128.099-9.181.146-3.045.24-6.135.341-9.161.745-2.197.292-4.394.553-6.6.768 2.16-.525 4.329-.996 6.506-1.44 3.018-.616 6.142-.798 9.207-1.07 2.958-.013 5.975-.164 8.92.141 2.327.24 4.647.505 6.962.833zm-2.02 3.568c-2.22.004-4.436-.045-6.654-.121-3.05-.105-6.127.101-9.181.145-3.045.24-6.134.343-9.161.745-2.198.292-4.395.556-6.602.769 2.16-.524 4.329-.997 6.507-1.441 3.019-.615 6.142-.797 9.208-1.069 2.958-.013 5.976-.164 8.921.142 2.326.24 4.646.507 6.962.83z" opacity=".5"/><path fill="#fff" d="M81.574 41.099s-.265.701-.673 1.927a75.881 75.881 0 0 0-1.484 5.094 78.456 78.456 0 0 0-.758 3.42 64.86 64.86 0 0 0-.591 3.831c-.169 1.329-.23 2.707-.292 4.099a34.053 34.053 0 0 0 .126 4.208c.049.689.144 1.428.228 2.065l.174 1.086.194.99c.292 1.327.646 2.622 1.167 3.778.526 1.151 1.114 2.225 1.854 3.125.73.904 1.545 1.683 2.371 2.362l2.372 1.852c.727.565 1.322 1.161 1.732 1.705.418.542.619 1.045.734 1.378.101.342.134.524.134.524l-.287-.449c-.195-.283-.527-.657-1.007-1.045-.483-.389-1.137-.759-1.925-1.162-.788-.399-1.725-.817-2.719-1.397-.994-.575-2.076-1.292-3.047-2.272a13.627 13.627 0 0 1-2.575-3.474 19.328 19.328 0 0 1-1.627-4.262l-.267-1.147-.204-1.081a36.406 36.406 0 0 1-.289-2.325 35.021 35.021 0 0 1-.036-4.59c.068-1.511.311-2.979.573-4.383.26-1.406.632-2.736 1.031-3.976a31.685 31.685 0 0 1 1.298-3.422 31.894 31.894 0 0 1 2.58-4.794c.72-1.097 1.213-1.665 1.213-1.665zm39.397-24.308l.631.507c.418.325 1.012.821 1.769 1.452l2.729 2.268 3.487 2.995c1.265 1.111 2.653 2.294 4.08 3.591l4.522 4.036c1.568 1.41 3.164 2.85 4.795 4.384 1.647 1.523 3.233 3.27 4.535 5.189a25.57 25.57 0 0 1 3.078 6.203c.736 2.17 1.114 4.406 1.248 6.562.131 2.159.01 4.244-.261 6.185a47.54 47.54 0 0 1-1.073 5.391c-.861 3.28-1.777 5.933-2.18 7.843-.225.95-.301 1.715-.271 2.236.031.522.152.785.152.785s-.148-.248-.232-.776c-.086-.526-.084-1.316.043-2.299.263-1.967.979-4.696 1.582-7.989.295-1.647.596-3.43.744-5.325.146-1.893.187-3.893-.018-5.932a25.553 25.553 0 0 0-1.377-6.111 23.868 23.868 0 0 0-2.996-5.694 29.565 29.565 0 0 0-4.314-4.833 313.336 313.336 0 0 1-4.773-4.382c-3.105-2.848-5.889-5.633-8.26-8.029-2.379-2.388-4.264-4.483-5.592-5.936a48.91 48.91 0 0 1-1.521-1.707l-.527-.614z" opacity=".2"/><path fill="#F9C795" d="M141.055 58.74c.137 1.456.176 3.613 2.442 3.172 1.44-.287 2.448-2.376 2.929-4.737-1.084-8.886-4.389-8.734-4.389-8.734v-.029c-1.373 3.283-1.064 9.435-.982 10.328z"/><circle fill="#FBB03B" cx="142.695" cy="61.176" r="1.728"/><path fill="#FFB679" d="M143.578 50.931c1.554-.12 1.467 4.314 1.365 5.88s-1.471 2.595-2.387 2.358c-.912-.235-1.469-2.5-.554-2.698.917-.196 1.394-.857.879-1.399-.513-.545-1.235-3.998.697-4.141z"/><path fill="#fff" d="M84.504 42.109c.095-.291.243-.572.298-.866a6.78 6.78 0 0 0 .175-.864c.092-.58.087-1.169.08-1.751-.02-.585-.07-1.168-.156-1.752a27.814 27.814 0 0 0-.267-1.75 145.718 145.718 0 0 0-.712-3.512 189.609 189.609 0 0 1-.764-3.546l-.036-.172.037-.273c.324-2.417.833-4.842 1.756-7.209.478-1.175 1.041-2.348 1.825-3.433.766-1.088 1.763-2.104 3.015-2.818 1.249-.712 2.744-1.039 4.125-.909 1.386.107 2.66.539 3.779 1.15 1.131.592 2.131 1.344 3.038 2.171.46.405.875.857 1.283 1.306.405.452.782.931 1.119 1.432-1.966-1.375-4.034-2.553-6.146-3.254-1.059-.327-2.122-.525-3.116-.469a5.178 5.178 0 0 0-2.666.901c-1.566 1.061-2.666 2.986-3.466 5.03-.821 2.058-1.375 4.293-1.855 6.554l.001-.445c.144 1.203.289 2.412.388 3.635.108 1.221.204 2.454.195 3.703.01 1.246-.064 2.512-.32 3.759a8.472 8.472 0 0 1-.577 1.818c-.126.29-.273.573-.458.837-.159.277-.377.489-.575.727zM70.271 62.312s.213-.169.547-.545c.344-.365.793-.95 1.334-1.7.512-.777 1.122-1.717 1.707-2.863l.455-.881.437-.958c.318-.643.597-1.348.885-2.083.565-1.471 1.153-3.076 1.645-4.817.272-.86.49-1.766.737-2.683l.366-1.391.307-1.438c.43-1.927.799-3.942 1.156-5.99.283-2.062.605-4.139.948-6.317.373-2.166.78-4.32 1.419-6.411.622-2.089 1.368-4.132 2.396-6.014 1.045-1.855 2.377-3.607 4.187-4.73 1.804-1.161 4.012-1.299 5.7-.859 1.726.421 3.058 1.272 4.151 2.053 1.09.801 1.917 1.626 2.575 2.313 1.293 1.402 1.875 2.315 1.875 2.315s-.756-.78-2.238-1.916a22.014 22.014 0 0 0-2.778-1.832c-1.107-.609-2.438-1.177-3.886-1.375-1.447-.21-2.98.084-4.243 1.047-1.287.929-2.312 2.438-3.107 4.139-.822 1.697-1.442 3.609-1.936 5.595a68.614 68.614 0 0 0-1.211 6.126c-.292 2.069-.579 4.244-.942 6.359-.422 2.105-.784 4.191-1.375 6.16l-.4 1.47-.46 1.427c-.298.943-.598 1.861-.973 2.73-.354.875-.676 1.731-1.07 2.532-.37.808-.729 1.585-1.149 2.3-.396.724-.777 1.414-1.195 2.043a18.062 18.062 0 0 1-1.212 1.758 20.584 20.584 0 0 1-2.268 2.618c-.694.666-1.289 1.128-1.717 1.41-.42.294-.667.408-.667.408zm12.366-24.856s.104.823.176 2.269c.033.723.072 1.602.069 2.61 0 1.008-.009 2.149-.089 3.391-.076 1.243-.163 2.594-.384 4.019-.198 1.426-.452 2.938-.929 4.493-.216.779-.523 1.572-.868 2.377l-.626 1.181c-.218.354-.406.671-.573.975a29.872 29.872 0 0 0-1.874 4.252 34.761 34.761 0 0 0-1.327 4.47c-.321 1.497-.58 2.981-.638 4.42-.049 1.436.012 2.82.263 4.095.258 1.271.662 2.437 1.189 3.45.54 1.005 1.199 1.844 1.841 2.552.67.677 1.313 1.242 1.888 1.651l.774.549.603.368.505.316-.573-.157c-.377-.102-.93-.258-1.604-.557a12.025 12.025 0 0 1-2.344-1.303c-.84-.622-1.761-1.418-2.542-2.493a12.557 12.557 0 0 1-1.907-3.82 16.546 16.546 0 0 1-.735-4.68 24.286 24.286 0 0 1 .428-4.976 30.74 30.74 0 0 1 1.363-4.921 32.789 32.789 0 0 1 2.169-4.641c.233-.396.458-.769.676-1.084l.551-.892c.314-.631.621-1.276.86-1.966.489-1.361.91-2.748 1.239-4.087.334-1.336.617-2.624.874-3.815.491-2.388.866-4.404 1.128-5.818l.417-2.228zm20.462-18.144s.101-.409.348-1.162c.254-.749.63-1.855 1.315-3.184.347-.662.766-1.383 1.32-2.117.559-.725 1.253-1.491 2.255-2.043a4.407 4.407 0 0 1 1.71-.547c.626-.078 1.318.058 1.844.148 1.135.18 2.414.49 3.637 1 1.242.5 2.486 1.247 3.589 2.198 1.112.942 2.063 2.065 2.997 3.194l2.796 3.468c.937 1.187 1.923 2.311 2.979 3.319 2.188 2.088 4.809 3.897 7.521 5.761 1.359.933 2.758 1.858 4.148 2.89 1.373 1.03 2.813 2.163 3.979 3.698 2.146 2.786 3.813 6.038 4.686 9.445.9 3.404.945 6.936.473 10.182-.467 3.216-1.228 6.196-1.992 9.017a92.328 92.328 0 0 1-2.523 7.826c-1.765 4.776-3.709 8.607-5.498 11.01-.883 1.209-1.752 2.028-2.397 2.494-.322.238-.595.379-.775.475l-.282.127s.389-.186.955-.727c.573-.531 1.274-1.442 2.008-2.695 1.461-2.515 2.967-6.422 4.367-11.223.696-2.402 1.354-5.034 1.985-7.826.61-2.792 1.174-5.775 1.543-8.812.356-3 .149-6.104-.657-9.105-.807-3.006-2.289-5.849-4.271-8.371-.866-1.161-2.072-2.171-3.365-3.154-1.291-.979-2.667-1.911-4.027-2.865-2.738-1.884-5.414-3.92-7.736-6.252-2.391-2.403-3.973-5.015-5.68-7.311-1.668-2.321-3.354-4.225-5.504-5.251-1.072-.539-2.132-.902-3.242-1.208-.59-.167-1.006-.284-1.472-.271a3.29 3.29 0 0 0-1.322.308c-1.684.794-2.782 2.317-3.576 3.492a24.43 24.43 0 0 0-1.649 2.965l-.487 1.107z" opacity=".2"/><path fill="#B54A37" d="M110.957 74.33a110.947 110.947 0 0 1-5.285-.176l-1.047-.061c-2.402-.137-3.501-.2-4.303-.952-.626-.588-1.148-.243-1.491-.264l-.263-.035c-.359-.135-.423-.228-.405-.26.017-.029.113-.048.25-.048.188 0 .439.034.712.094.707.157 1.562.395 1.57.402 1.437.904 5.445 1.038 7.704 1.038h.014c.695 0 1.348.016 2.084.032l.455.01.458-.01c.742-.017 1.4-.034 1.926-.034l.876.002c2.655 0 5.874-.105 7.228-.918.014-.01.865-.25 1.576-.407.271-.06.525-.093.713-.093.135 0 .234.018.25.047.019.033-.047.125-.406.263l-.239.049c-.284.041-.713-.271-1.502.24-1.231.798-1.998.81-3.521.834-.564.008-1.236.018-2.072.07a109.47 109.47 0 0 1-5.282.177z"/><path opacity=".5" fill="#F6A76A" d="M98.373 67.667c-2.49-.692-4.141 3.43-5.497 4.868-.058-1.578.633-3.26 1.714-4.402.891-.94 2.856-1.913 3.783-.466zm25.248-.577c2.49-.691 4.143 3.43 5.497 4.868.058-1.581-.634-3.261-1.714-4.402-.89-.94-2.856-1.914-3.783-.466z"/><path fill="#FF5D47" d="M117.086 72.78c-.248.027-4.593-.218-6.016.488-1.423-.706-5.767-.46-6.013-.488-.247-.028-4.326.357-4.326.357 5.58 7.009 10.145 6.344 10.339 6.313.195.031 4.762.696 10.341-6.313 0 0-4.078-.385-4.325-.357z"/><path fill="#fff" d="M117.775 74.103s-5.144.574-6.705.578c-1.563-.004-6.703-.578-6.703-.578 3 3 6.509 2.668 6.703 2.646.196.022 3.703.353 6.705-2.646z"/><path fill="#EAA76F" d="M89.827 53.417c-1.611 1.081-4.068 1.598-5.976 1.237 1.612-1.088 4.066-1.59 5.976-1.237zm.124.991c-1.614 1.081-4.067 1.595-5.978 1.235 1.609-1.086 4.071-1.592 5.978-1.235zm44.348-.991c1.906-.351 4.371.147 5.977 1.238-1.91.357-4.367-.153-5.977-1.238zm-.124.991c1.912-.352 4.366.147 5.979 1.235-1.913.357-4.362-.154-5.979-1.235z"/><path fill="#ED8482" stroke="#B96765" stroke-width=".5" stroke-linecap="round" stroke-linejoin="round" stroke-miterlimit="10" d="M91.419 95.162s16.854 42.453 39.28-.855c0 0 1.318 2.477 11.705 7.456 0 0 20.336 8.157 26.123 14.225 17.627 18.48 7.9 77.604 8.945 103.777H44.856s-11.333-90.246 11.146-106.699c0 0 4.086-3.812 10.828-6.354 0 .003 24.088-10.355 24.589-11.55z"/><path d="M56.002 116.77s4.086-3.812 10.828-6.354c0 0 22.193-6.023 23.75-11.867 0 0 19.144 42.348 41.57-.96 0 0-.133 2.895 10.254 7.874 0 0 20.336 8.157 26.123 14.225 8.356 8.764 10.563 26.662 10.686 45.854.137-20.563-1.792-40.229-10.686-49.552-5.787-6.068-26.123-14.225-26.123-14.225-10.387-4.979-11.67-7.091-11.67-7.091-22.426 43.31-39.315.491-39.315.491-5.282 4.134-24.589 11.553-24.589 11.553-6.741 2.542-10.828 6.354-10.828 6.354-11.453 8.383-14.126 35.918-13.997 60.918.153-23.963 3.108-49.251 13.997-57.22zM177.4 219.766h.072a93.349 93.349 0 0 1-.065-2.515c-.011.862-.011 1.699-.007 2.515z" fill="#C9706E"/><path d="M66.77 220.001l-.408-13.11-.804-28.848c-.156-5.243-.243-10.5-.335-15.423.019-1.25.145-2.479.326-3.67.167-1.183.374-2.328.576-3.442.44-2.221.915-4.303 1.36-6.223a211.228 211.228 0 0 1 2.411-9.21l1.02-3.464.097.023-.764 3.526-1.961 9.299c-.39 1.925-.803 4.015-1.178 6.228-.383 2.227-.776 4.525-.865 6.943.051 4.913.007 10.148.092 15.396L66.871 220l-.101.001zm-.397-63.506l-.325 1.021-.361 1.162c-.133.452-.267.967-.441 1.516-.175.549-.303 1.164-.485 1.799-.154.642-.404 1.293-.534 2.003l-.559 2.147c-.222.727-.336 1.486-.486 2.24l-.417 2.262c-.128.746-.163 1.494-.247 2.211l-.209 2.076c-.098.66-.071 1.287-.086 1.866l-.053 3.871-.1.007-.197-3.88c-.022-.583-.089-1.217-.035-1.884l.103-2.104c.049-.729.048-1.488.141-2.25l.311-2.311c.105-.773.175-1.557.354-2.307l.472-2.213c.161-.717.402-1.388.617-2.023.226-.635.411-1.242.655-1.779.482-1.072.875-1.968 1.237-2.558.325-.604.555-.92.555-.92l.09.048zm87.518 63.452l.767-41.944c.114-5.245.085-10.478.157-15.386-.09-2.416-.482-4.717-.866-6.94a190.275 190.275 0 0 0-1.177-6.224c-.812-3.846-1.486-7.051-1.961-9.293-.483-2.243-.763-3.525-.763-3.525l.097-.025 1.021 3.464a212.063 212.063 0 0 1 2.408 9.204c.444 1.921.92 4 1.358 6.222a88.52 88.52 0 0 1 .576 3.438c.182 1.19.309 2.418.328 3.668-.113 4.922-.214 10.179-.4 15.416-.326 10.484-.66 20.969-.961 28.828l-.481 13.103-.103-.006zm.882-63.496s.231.314.563.916c.368.587.771 1.479 1.262 2.551.25.535.438 1.143.67 1.775.219.638.469 1.307.635 2.021l.486 2.215c.186.75.26 1.53.368 2.307l.323 2.311c.1.762.1 1.523.15 2.253l.108 2.106c.058.668-.009 1.303-.03 1.887-.117 2.331-.192 3.885-.192 3.885l-.101-.007s-.022-1.55-.059-3.875c-.016-.58.01-1.208-.09-1.869l-.217-2.077c-.086-.719-.121-1.467-.254-2.214l-.431-2.261c-.151-.755-.272-1.516-.5-2.241l-.571-2.147c-.136-.709-.394-1.357-.552-2-.188-.633-.317-1.25-.5-1.795-.178-.549-.315-1.063-.454-1.514-.127-.455-.281-.83-.373-1.16l-.334-1.02.093-.047z" opacity=".2"/><path fill="#4D4D4D" d="M104.665 44.809c-2.906.618-5.796.433-8.736.552a35.578 35.578 0 0 0-4.989.56c-.72.132-1.414.346-2.116.546-.125.04-1.13.277-.58-.002 2.84-1.441 5.891-2.04 9.028-2.457 1.612-.214 3.179-.253 4.791-.013.401.06 2.601.298 2.602.814zm15.306-.15c2.602-1.026 5.395-.923 8.108-.555 1.626.22 3.263.492 4.838.96.319.104 3.724 1.166 3.657 1.487-.036.175-2.809-.621-3.172-.685a35.001 35.001 0 0 0-5.463-.523c-1.683-.027-3.344.048-5.021-.117-.374-.037-2.932-.11-2.947-.567z"/><path fill="#fff" d="M92.613 93.662s-8.747 1.065-17.15 7.619c-2.342 3.144 3.627 14.625 5.534 16.697 0 0 5.318 7.34 20.187 11.6l9.417-16.651c.001 0-15.086-6.613-17.988-19.265zm35.996 0s8.748 1.065 17.148 7.619c2.344 3.144-3.627 14.625-5.533 16.697 0 0-5.317 7.34-20.188 11.6l-9.418-16.651c.002 0 15.09-6.613 17.991-19.265z"/></svg>