<svg xmlns="http://www.w3.org/2000/svg" width="220" height="220" viewBox="0 0 220 220"><path fill="#fc9" stroke="#D09D6A" stroke-width=".5" stroke-miterlimit="10" d="M175.759 153.053c-.202-17.14-5.178-20.755-10.711-25.045-5.647-4.38-13.739-4.314-26.36-5.708-7.26-.248-11.869-5.2-14.703-8.968-1.92-2.553-2.861-7.535-2.861-10.728V89.707h-21.97v12.897c0 3.192-1.072 8.173-2.992 10.728-2.837 3.768-7.796 7.482-14.903 8.313-12.665 1.482-20.642 1.984-26.289 6.364-5.237 4.062-9.978 7.517-10.645 22.414l-.002.054a89.507 89.507 0 0 0-.068 2.477c-.338 10.841-2.046 53.482-8.254 66.063l16.084.797 3.77.185s1.538-27.958 8.672-41.256a151.046 151.046 0 0 0 2.335-4.566c2.971-6.088 5.712-12.674 7.756-17.868l33.849 2.395 36.894-2.491c2.048 5.21 4.804 11.84 7.793 17.965.775 1.572 1.55 3.099 2.336 4.566 7.134 13.297 8.672 41.256 8.672 41.256l3.77-.185 16.084-.797c-6.198-12.545-7.911-54.965-8.257-65.965z"/><path fill="#FFB679" d="M66.86 174.175c-.774 1.572-1.549 3.282-2.335 4.751-7.134 13.297-8.586 41.071-8.586 41.071l-3.892-.158s5.933-27.823 5.933-41.442c0-14.306 6.517-18.433 10.138-20.166 1.237-.59-1.594 6.426-1.258 15.944zm86.29 0c.774 1.572 1.55 3.282 2.336 4.751 7.134 13.297 8.672 41.071 8.672 41.071l3.615-.153s-5.744-27.828-5.744-41.447c0-14.306-5.211-18.028-8.829-19.763-1.237-.589.284 6.023-.05 15.541z"/><path opacity=".5" fill="#F6A76A" d="M121.137 103.268c-4.421 3.572-8.857 5.775-11.131 5.775-2.272 0-6.445-2.203-10.867-5.775.149-8.099-.54-15.442-.54-15.442l11.324-1.087v-.024l.083.012.084-.012v.024l11.321 1.087s-.382 7.948-.274 15.442z"/><path fill="#fc9" stroke="#D09D6A" stroke-width=".5" stroke-miterlimit="10" d="M136.501 22.245H83.51s-4.116 44.147 0 57.284c4.115 13.138 20.912 23.739 26.495 23.739 5.585 0 22.382-10.601 26.496-23.739 4.116-13.137 0-57.284 0-57.284z"/><path fill="#1A1A1A" d="M153.654 86.299c.048-.416.684-5.342-.717-9.297 0 0-3.33 26.699-16.119 33.151 0 0 6.466-11.91 5.264-18.501 0 0-3.332 6.788-5.055 7.852 0 0 3.33-8.719 3.33-12.649 0 0-4.268 11.054-7.19 13.182 0 0 4.323-14.315 3.86-20.571 0 0 1.308-9.621.012-15.217-1.294-5.585-21.137-30.572-27.033-34.168-5.897 3.596-25.738 28.583-27.034 34.168-1.295 5.596.012 15.217.012 15.217-.463 6.256 3.862 20.571 3.862 20.571-2.926-2.128-7.181-13.182-7.181-13.182 0 3.931 3.318 12.649 3.318 12.649-1.723-1.063-5.053-7.852-5.053-7.852-1.203 6.591 5.261 18.501 5.261 18.501-12.788-6.452-16.118-33.151-16.118-33.151-1.354 3.838-.799 8.58-.729 9.25-.486-1.213-7.262-19.125-.566-50.541.185-.89.381-1.781.589-2.694 1.214-4.555 2.694-8.499 4.36-11.91C84.197-6.447 110.005.884 110.005.884s18.604-5.284 32.47 9.979a40.048 40.048 0 0 1 3.41 4.358c3.075 4.522 5.77 10.338 7.76 17.796 7.781 33.544.322 52.507.009 53.282z"/><path opacity=".5" fill="#F6A76A" d="M96.771 125.922c3.064-.611 6.127-1.007 9.241-1.259.389-.033 1.137-.267 1.432.012.113.12.181.368.251.515.477 1.006 1.34 1.855 2.522 1.781 1.094-.07 1.954-.906 2.532-1.773.079-.117.142-.282.237-.387.207-.42.883-.172 1.219-.144 3.045.261 6.039.653 9.033 1.255a111.652 111.652 0 0 1-4.696-.377c-1.735-.175-3.503-.146-5.244-.25.115-.023.246-.031.308-.158-.617 1.202-1.774 2.475-3.211 2.584-1.71.131-2.992-1.089-3.528-2.644.032.116.237.188.339.205-1.736.096-3.474.157-5.207.216a120.69 120.69 0 0 1-5.228.424c.858-.17.874-.047 0 0z"/><path opacity=".1" fill="#fff" d="M145.887 15.221c-1.689 3.424-3.111 6.314-9.367 8.175l-.035.011c-11.053 3.332-17.76-8.139-27.137 2.302-.96 1.075-1.92 2.104-2.913 3.03-1.815 1.747-3.725 3.179-5.852 3.989-2.556.971-5.435 1.052-8.869-.359-15.274-6.208-17.228-2.081-25.935 3.342.185-.89.381-1.781.589-2.694 1.214-4.555 2.694-8.499 4.36-11.91.276-.335.554-.659.832-.983 2.301-.682 4.994-.74 8.187.081 12.014 3.053 16.003 9.447 25.484-.914 8.313-9.076 15.979-4.243 26.977-2.047 7.792 1.562 8.625-2.104 10.268-6.382a40.666 40.666 0 0 1 3.411 4.359z"/><radialGradient id="a" cx="139.334" cy="-29.326" r="14.701" gradientTransform="matrix(1 0 0 -1 -47.6 50.01)" gradientUnits="userSpaceOnUse"><stop offset="0" stop-color="#ED1C24"/><stop offset="1" stop-color="#ED1C24" stop-opacity="0"/></radialGradient><circle opacity=".15" fill="url(#a)" cx="91.733" cy="79.336" r="14.701"/><radialGradient id="b" cx="175.878" cy="-29.326" r="14.701" gradientTransform="matrix(1 0 0 -1 -47.6 50.01)" gradientUnits="userSpaceOnUse"><stop offset="0" stop-color="#ED1C24"/><stop offset="1" stop-color="#ED1C24" stop-opacity="0"/></radialGradient><circle opacity=".15" fill="url(#b)" cx="128.277" cy="79.336" r="14.701"/><path fill="#1A1A1A" d="M103.187 58.725c-2.784-.856-5.349-2.291-8.112-3.168-1.607-.508-3.429-.854-5.079-.333a4.227 4.227 0 0 0-1.884 1.218c-.211.238-.4.487-.578.751-.045.067-.177.007-.14-.072 1.608-3.451 5.526-3.327 8.729-2.559 1.709.41 3.3 1.031 4.764 2.013.369.249 2.561 1.634 2.3 2.15z"/><path fill="#D9AA8E" d="M103.067 63.822s-2.021-5.355-7.3-5.768c-6.413-.499-7.251 4.328-6.687 3.369 0 0 3.133-2.256 8.415-.745 4.26 1.218 5.572 3.144 5.572 3.144z"/><path fill="#EACBBA" d="M95.134 58.359s-2.374-.039-3.533.55c-1.16.586-1.729 1.714-1.729 1.714s2.438-.46 2.793-1.114c.334-.603 2.469-1.15 2.469-1.15z"/><path fill="#C78A66" d="M102.015 62.833c-1.07-1.891-2.152-3.056-3.927-3.963-.994-.511-1.532-.599-1.532-.599s1.45.547 1.574 1.084c.098.419-1.081.79-1.081.79 1.445.677 1.786.75 2.693 1.152.619.276 2.273 1.536 2.273 1.536z"/><path fill="#fff" d="M100.483 61.78c.621.484 2.559 1.98 2.559 1.98-.564 1.46-2.321 2.068-3.864 2.24-1.657.187-3.345.06-4.995-.054-1.091-.077-2.527.08-3.467-.551-.521-.353-2.369-1.661-2.158-2.66.231-1.125 2.19-1.829 3.159-2.155 2.075-.704 3.938-.485 6.07-.033 1.124.238 1.52.315 2.696 1.233z"/><radialGradient id="c" cx="635.253" cy="13.155" r="2.784" gradientTransform="rotate(180 365.155 36.364)" gradientUnits="userSpaceOnUse"><stop offset="0" stop-color="#28353D"/><stop offset=".508" stop-color="#27323B"/><stop offset=".809" stop-color="#222A33"/><stop offset="1" stop-color="#1D2029"/></radialGradient><path fill="url(#c)" d="M93.319 60.325a2.978 2.978 0 0 0-.695 1.957 2.985 2.985 0 1 0 5.969-.069 2.924 2.924 0 0 0-.731-1.927c-.725-.279-3.851-.204-4.543.039z"/><path fill="#212121" d="M93.875 62.514a1.826 1.826 0 0 0 1.846 1.807 1.83 1.83 0 0 0 1.809-1.85 1.832 1.832 0 0 0-1.852-1.808 1.83 1.83 0 0 0-1.803 1.851z"/><path fill="#B76B2C" d="M101.218 65.483s-6.118 1.635-10.204-.305c-2.084-.985-2.456-2.441-2.456-2.441s-.206 2.15 2.917 3.123c4.855 1.505 9.743-.377 9.743-.377z"/><path fill="#fff" d="M93.008 62.755a.533.533 0 1 0-.208-.726.538.538 0 0 0 .208.726zm1.292-.613a.43.43 0 0 0 .588-.166.44.44 0 0 0-.17-.592.437.437 0 0 0-.587.167.432.432 0 0 0 .169.591z"/><path fill="#1A1A1A" d="M103.042 63.762s-3.252-4.233-9.578-4.332c-5.024-.083-6.743 2.839-6.743 2.839l1.904.535s2.021-2.132 5.603-2.129c4.707-.004 8.134 2.476 8.814 3.087zm13.701-5.162c1.928-2.217 4.702-3.489 7.516-4.122 1.685-.378 3.618-.655 5.296-.091.741.225 1.453.62 2.005 1.167.325.323 1.079 1.116 1.079 1.615-.236.174-.59-.557-.74-.727a4.236 4.236 0 0 0-1.884-1.218c-1.75-.555-3.729-.146-5.415.446-1.649.579-3.223 1.382-4.854 2.015-.429.167-2.677 1.301-3.003.915z"/><path fill="#D9AA8E" d="M116.943 63.822s2.021-5.355 7.301-5.768c6.414-.499 7.251 4.328 6.686 3.369 0 0-3.131-2.256-8.412-.745-4.263 1.218-5.575 3.144-5.575 3.144z"/><path fill="#EACBBA" d="M124.876 58.359s2.373-.039 3.534.55c1.16.586 1.729 1.714 1.729 1.714s-2.438-.46-2.793-1.114c-.332-.603-2.47-1.15-2.47-1.15z"/><path fill="#C78A66" d="M117.995 62.833c1.071-1.891 2.153-3.056 3.927-3.963.996-.511 1.531-.599 1.531-.599s-1.45.547-1.573 1.084c-.096.419 1.083.79 1.083.79-1.445.677-1.788.75-2.695 1.152-.622.276-2.273 1.536-2.273 1.536z"/><path fill="#fff" d="M119.525 61.78c-.618.484-2.557 1.98-2.557 1.98.563 1.46 2.321 2.068 3.863 2.24 1.656.187 3.346.06 4.994-.054 1.093-.077 2.527.08 3.466-.551.522-.353 2.37-1.661 2.162-2.66-.235-1.125-2.19-1.829-3.159-2.155-2.078-.704-3.941-.485-6.072-.033-1.122.238-1.517.315-2.697 1.233z"/><radialGradient id="d" cx="-868.582" cy="-4.44" r="2.785" gradientTransform="matrix(1 .012 .012 -1 993.304 68.347)" gradientUnits="userSpaceOnUse"><stop offset="0" stop-color="#28353D"/><stop offset=".508" stop-color="#27323B"/><stop offset=".809" stop-color="#222A33"/><stop offset="1" stop-color="#1D2029"/></radialGradient><path fill="url(#d)" d="M126.691 60.325c.442.529.701 1.215.695 1.957a2.985 2.985 0 1 1-5.971-.069 2.935 2.935 0 0 1 .732-1.927c.726-.279 3.854-.204 4.544.039z"/><path fill="#212121" d="M126.137 62.514a1.829 1.829 0 1 1 0 0z"/><path fill="#B76B2C" d="M118.795 65.483s6.115 1.635 10.202-.305c2.083-.985 2.458-2.441 2.458-2.441s.203 2.15-2.921 3.123c-4.852 1.505-9.739-.377-9.739-.377z"/><path fill="#fff" d="M121.909 62.755a.533.533 0 1 0 .517-.933.533.533 0 0 0-.517.933zm1.291-.613a.43.43 0 0 0 .588-.166.44.44 0 0 0-.167-.592.437.437 0 0 0-.588.167.43.43 0 0 0 .167.591z"/><path fill="#1A1A1A" d="M116.971 63.762s3.248-4.233 9.577-4.332c5.022-.083 6.741 2.839 6.741 2.839l-1.904.535s-2.019-2.132-5.604-2.129c-4.706-.004-8.135 2.476-8.81 3.087z"/><path fill="#B54A37" d="M107.288 87.581c3.668.382 8.966.248 10.616-.803 0 0-.613 1.763-1.504 3.095-1.229 1.836-3.176 2.368-6.438 2.294-5.024-.114-5.208.247-6.743-2.943-.185-.389-1.19-2.55-1.709-3.214.001 0 2.165 1.195 5.778 1.571z"/><path fill="#fff" d="M116.05 88.645c-2.507 1.956-8.511 2.447-11.826.311-.244-.159-.453-.886-1.333-1.609l14.183-.599-1.024 1.897z"/><path fill="#FF5D47" d="M117.036 88.203c-.71 1.102-3.071 3.237-7.128 3.205-4.057.033-6.497-2.479-7.208-3.58-.302-.459-.921-1.328-.921-1.328.389 1.07.975 2.678 1.589 3.803 1.001 1.814 1.936 2.522 2.719 3.042a6.975 6.975 0 0 0 3.782 1.146h.076a6.972 6.972 0 0 0 3.782-1.146c.782-.52 1.719-1.222 2.719-3.039.613-1.124 1.201-2.732 1.588-3.807-.001.001-.696 1.245-.998 1.704z"/><path opacity=".58" fill="#fff" d="M112.458 93.007s-.263-.96-.022-1.367c.188-.319 1.283-.515 1.317-.279.097.641.604 1.292.058 1.6-.545.304-1.174.443-1.353.046z"/><path opacity=".43" fill="#fff" d="M110.947 93.327s-.27-1.113.197-1.188c.467-.074.875-.084.883.149.009.238.338 1.349-.07 1.421-.623.109-.881.027-1.01-.382z"/><path fill="#FF5D47" d="M118.518 85.993c-.322.263-.967.512-2.293.333-2.541-.346-4.563-.257-6.293-.089-1.77-.249-3.846-.287-6.312.021-1.327.165-1.968-.09-2.288-.355 1.723 2.286 5.272 2.697 8.542 2.671v-.029h.075v.029c3.269.062 6.821-.313 8.569-2.581z"/><path fill="#B54A37" d="M118.757 85.733c-.411.162-.894.792-.894.792-1.176 1.511-5.357 1.879-6.512 1.875-.354-.001-.82.021-1.347.043-.526-.022-.991-.044-1.348-.043-1.153.004-5.334-.364-6.51-1.875 0 0-.482-.63-.895-.792-.57-.228-.836-.025-.354.302.164.113.469-.098.957.656.74 1.146 3.478 1.702 5.207 1.893.871.098 1.904.154 2.942.177a34.115 34.115 0 0 0 2.943-.177c1.728-.191 4.465-.747 5.205-1.893.488-.753.793-.543.959-.656.484-.327.217-.53-.353-.302z"/><path opacity=".32" fill="#F5B1A2" d="M114.826 81.521c-.705-1.877-2.385-1.453-3.954-1.191-.899.148-1.64.035-2.513-.198-.901-.24-1.845-.322-2.515.446-.499.572.557.677.922.794.871.278 1.489.932 2.274 1.38 2.108 1.209 3.636-1.416 5.786-1.231-.037-.103-.826-.071 0 0z"/><path fill="#AE8879" d="M108.382 81.332l.294.239c-.29-.306-.569-.6-.896-.865-.173-.139-1.368-.951-1.582-.605-.03.047 1.035.445 1.113.481.374.146.78.475 1.071.75zm3.127.133l-.313.209c.316-.278.621-.552.968-.79.165-.112 1.485-.827 1.628-.467.021.041-1.066.355-1.146.382-.389.133-.822.406-1.137.666z"/><path opacity=".2" fill="#F5B1A2" d="M107.73 82.003c-.519-.549-1.288-1.09-2.086-.904.745-1.313 2.897.901 3.673 1.126.956.279 1.854-.148 2.692-.566.964-.479 1.894-.635 2.907-.205-.604.19-1.15.126-1.752.42-.641.312-1.214.734-1.842 1.072-1.39.745-2.588.122-3.592-.943zm5.458-1.19c.799.866-1.764 2.047-2.385 1.949.088-.741 1.495-2.926 2.385-1.949zm-6.418-.167c-.796.866 1.765 2.046 2.388 1.946-.092-.741-1.498-2.924-2.388-1.946z"/><path opacity=".5" fill="#F6A76A" d="M110.361 83.273s-.026 2.466-1.304 2.412c-1.274-.055.35.42 1.121.209.774-.21.82-.59.183-2.621zM114.361 80.398s1.135-.426.912-1.538c-.221-1.114-.838-1.665-.838-1.665s.918.767 1.02 1.891c.104 1.122-1.094 1.312-1.094 1.312zm-8.714-.082s-1.134-.426-.913-1.537c.222-1.113.84-1.665.84-1.665s-.919.768-1.021 1.891c-.102 1.123 1.094 1.311 1.094 1.311z"/><path opacity=".3" fill="#FDE9D7" d="M113.669 75.26s-.66-.282-.878-1.426c-.219-1.145-1.098-3.19-1.536-.525-.438 2.664-.325 3.997.636 3.656 1.412-.498 2.33-.134 2.385-.753.031-.392-.204-.75-.607-.952z"/><path opacity=".5" fill="#F6A76A" d="M113.662 160.607c-1.034-2.875-1.264-5.963-2.232-8.855l-.039-.219-.016.048-.021-.063-.054.284c-1.006 2.864-1.286 5.937-2.362 8.784 1.237-.874 2.005-2.377 2.396-4.011.367 1.635 1.109 3.144 2.328 4.032z"/><path fill="#398156" stroke="#2E6845" stroke-width=".5" stroke-miterlimit="10" d="M154.084 174.327l-.162.577c-.081.279-2.322 5.008-3.249 6.199a45.304 45.304 0 0 0-2.301 3.213c-1.733 2.673-2.752 5.852-3.711 9.008l-.013.035c-1.781 3.479-2.221 7.526-1.965 11.736v.034c.045 1.319.16 2.625.312 3.92.116 1.04 1.226 9.354 1.978 10.603.069.104.127.348.186.348H74.855c.058 0 .115-.242.186-.348.75-1.248 1.86-9.563 1.977-10.603.358-3.03.509-6.175.058-9.216-.15-1.607-.45-3.18-.948-4.684a20.959 20.959 0 0 0-.854-2.082c-.938-3.075-1.944-6.151-3.632-8.752a44.512 44.512 0 0 0-2.302-3.215c-.924-1.19-3.168-5.92-3.248-6.197-.104-.348-.196-.693-.289-1.04-1.792-6.813-1.724-14.177 1.85-20.039 2.001-3.272 1.723-5.354 3.746-8.614 2.059-3.296.984-19.715.984-22.583l6.289-.948c-.647 4.533 1.028 19.264 1.457 21.415.439 2.151 11.02 10.615 18.986 11.69 2.972.404 7.019.566 10.892.498 3.874.068 7.933-.094 10.894-.498 7.967-1.076 18.547-9.539 18.984-11.69.43-2.151 2.206-15.81 1.559-20.342l6.162.604c0 2.869-2.203 18.558-.146 21.854 2.022 3.261 2.901 5.343 4.901 8.614 3.655 6.003 3.642 13.576 1.723 20.503z"/><path fill="#2E6845" d="M154.146 174.327l-.162.577c-.08.279-2.323 5.008-3.25 6.199-.67.867-1.422 1.86-2.299 3.213-1.734 2.673-2.754 5.852-3.713 9.008l-.012.035c-1.781 3.479-2.221 7.526-1.967 11.736v.034c.047 1.319.163 2.625.313 3.92.114 1.04 1.226 9.354 1.978 10.603.069.104.128.348.187.348h-4.834l-.845-13.934-.301-5.852c-2.578-8.209-54.934-8.197-57.514-.068l-.277 5.955L80.584 220h-5.665c.058 0 .115-.242.184-.348.752-1.248 1.862-9.563 1.979-10.603.358-3.03.509-6.175.058-9.216-.15-1.607-.452-3.18-.948-4.684a21.057 21.057 0 0 0-.856-2.082c-.936-3.075-1.941-6.151-3.63-8.752a45.493 45.493 0 0 0-2.301-3.215c-.926-1.19-3.169-5.92-3.25-6.197a41.463 41.463 0 0 1-.289-1.04c4.174 1.896 14.385 3.977 43.118 3.987 26.698-.054 39.821-1.511 45.162-3.523z"/><path stroke="#2E6845" stroke-width="2" stroke-miterlimit="10" d="M110.006 155.284c3.874.067 7.934-.093 10.893-.498 7.968-1.076 18.549-9.539 18.985-11.69.431-2.15 2.206-15.81 1.56-20.342m-62.773-1.072c-.647 4.532 1.028 19.264 1.457 21.414.439 2.151 11.02 10.615 18.986 11.69 2.972.405 7.019.565 10.892.498" fill="none"/></svg>