<svg xmlns="http://www.w3.org/2000/svg" width="220" height="220" viewBox="0 0 220 220"><path fill="#F9C795" stroke="#D09D6A" stroke-width=".5" stroke-miterlimit="10" d="M144.027 117.961c-3.053 4.316-23.983 17.919-32.879 17.489-.352-.013-.703-.065-1.056-.104-.353.04-.705.092-1.056.104-8.895.43-29.828-13.173-32.879-17.489-3.051-4.316-6.011-10.172-4.511-12.676.964-1.618 7.315-4.708 11.828-11.516a26.254 26.254 0 0 0 1.708-2.986c1.304-2.608 2.27-5.647 2.662-9.234.117-1.018.182-2.1.182-3.233v-.276a155.977 155.977 0 0 0-.717-14.371c-.249-2.596-.548-4.97-.848-7.056-.731-4.968-1.474-8.385-1.8-9.769-.104-.443-.182-.665-.182-.665s12.377-4.512 25.614-6.559c13.236 2.047 25.601 6.559 25.601 6.559s-.065.222-.17.665c-.325 1.383-1.069 4.8-1.799 9.769a148.455 148.455 0 0 0-.666 5.296 150.93 150.93 0 0 0-.899 16.131v.275c0 1.133.065 2.216.183 3.233.352 3.234 1.174 6.038 2.281 8.464a27.985 27.985 0 0 0 2.086 3.756c4.501 6.808 10.864 9.898 11.816 11.516 1.514 2.505-1.446 8.361-4.499 12.677z"/><path fill="#EAA76F" d="M102.522 44.585s-.236.059-.652.138c-.416.069-1.009.196-1.723.297a64.959 64.959 0 0 1-5.251.542c-1.915.116-3.833.154-5.277.116-.721-.011-1.325-.063-1.747-.081-.422-.027-.664-.056-.664-.056s.236-.059.652-.138c.416-.069 1.009-.197 1.723-.298a64.997 64.997 0 0 1 5.251-.541 64.817 64.817 0 0 1 5.277-.115c.721.011 1.325.063 1.747.08.422.027.664.056.664.056z"/><path opacity=".5" fill="#F6A76A" d="M134.625 90.013c-19.497 13.446-30.844 13.186-49.441.77 1.304-2.608 2.27-5.647 2.662-9.234.117-1.018.182-2.1.182-3.233v-.276a155.977 155.977 0 0 0-.717-14.371c12.611-2.596 34.326-6.025 45.75-1.76a150.93 150.93 0 0 0-.899 16.131v.275c0 1.133.065 2.216.183 3.233.35 3.235 1.173 6.039 2.28 8.465z"/><g fill="#F9C795"><path d="M126.973 12.938c19.019 5.708-5.395-1.621 0 0z"/><path stroke="#D09D6A" stroke-width=".5" stroke-miterlimit="10" d="M149.082 44.272c-1.282-2.564-2.383-2.443-3.293-1.005-.167-12.571-4.061-25.901-18.816-30.33-5.395-1.62-11.381-1.95-17.291-1.59-25.081-1.532-34.896 13.375-35.896 31.3-.797-.748-1.708-.413-2.72 1.756-.701 1.5-.918 2.807-.669 7.435.252 4.628 2.27 10.999 4.896 11.238.392.036.703-.015.977-.105.625 2.164 1.293 4.594 1.293 6.605 8.136 36.19 56.104 36.192 64.242 0 0-2.468 1.002-5.566 1.7-8.026.349.265.828.405 1.497.353 2.627-.204 4.596-6.213 4.813-10.59.21-4.377-.018-5.616-.733-7.041z"/></g><path opacity=".5" fill="#F6A76A" d="M146.557 48.014c1.779.097 1.088 5.695.764 7.665-.324 1.966-2.016 3.054-3.023 2.608-1.001-.443-1.328-3.398-.265-3.502s1.69-.866 1.185-1.635c-.513-.771-.872-5.258 1.339-5.136zm-72.485-.442c-1.543.074-.902 5.224-.606 7.035.297 1.81 1.773 2.824 2.644 2.422.866-.398 1.131-3.11.204-3.216-.925-.104-1.475-.81-1.04-1.513.438-.702.716-4.821-1.202-4.728z"/><path fill="#EAA76F" d="M132.693 32.467l-1.814-.25-2.082-.287a35.069 35.069 0 0 0-2.706-.309l-3.204-.281c-1.134-.135-2.345-.092-3.587-.165-1.245-.034-2.53-.133-3.837-.07l-3.962.087-3.954.28c-1.307.063-2.58.255-3.815.417-1.231.186-2.437.271-3.557.492l-3.167.581-1.408.26-1.257.295-2.045.479-1.783.418 1.762-.5 2.024-.574 1.246-.354 1.403-.301 3.162-.665c1.12-.251 2.326-.374 3.563-.562 1.239-.174 2.518-.378 3.831-.452l3.973-.314 3.983-.054c1.313-.052 2.606.059 3.856.103 1.248.075 2.459.072 3.6.236l3.212.365c.999.089 1.899.253 2.696.409l2.066.381 1.801.335zm-2.688 3.943l-1.813-.25-2.082-.287a35.098 35.098 0 0 0-2.707-.309l-3.204-.281c-1.134-.135-2.345-.092-3.587-.165-1.244-.034-2.529-.133-3.836-.07l-3.962.087-3.954.28c-1.307.063-2.58.255-3.815.417-1.231.186-2.437.271-3.557.492l-3.167.581-1.408.26-1.257.295-2.045.479-1.783.418 1.762-.5 2.024-.574 1.246-.354 1.403-.301 3.162-.665c1.12-.251 2.326-.374 3.563-.562 1.239-.174 2.518-.378 3.831-.452l3.972-.314 3.983-.054c1.314-.052 2.606.059 3.856.103 1.249.075 2.46.072 3.601.236l3.211.365c1 .089 1.899.253 2.697.409l2.066.381 1.8.335z"/><path opacity=".5" fill="#F6A76A" d="M111.175 72.476s-.043 3.993-2.11 3.906c-2.064-.088.565.682 1.815.339 1.25-.342 1.327-.955.295-4.245z"/><path fill="#B3B3B3" d="M82.322 45.866c3.131-1.624 6.593-3.012 10.029-3.825 1.987-.47 4.024-.713 6.014-.105 1.113.34 2.159.874 3.171 1.443.441.248.881.5 1.33.733.122.063 1.063.4 1.088.521.157.756-4.783-.411-5.259-.525-2.025-.489-3.995-.809-6.073-.551-1.984.247-3.975.764-5.907 1.263a88.553 88.553 0 0 0-3.162.875c-.289.085-1.108.542-1.231.171zm56.653-.096c-3.438-.506-7.125-1.264-10.328-2.182-3.054-.638-5.792.802-8.718 1.462-.73.165-1.512.302-2.262.209-.689-.074.072-.402.324-.535 1.433-.758 2.747-1.718 4.233-2.378a9.004 9.004 0 0 1 5.594-.601c1.098.227 2.169.705 3.215 1.089 1.779.654 3.568 1.289 5.369 1.882.352.116 2.712.654 2.573 1.054z"/><path fill="#fff" d="M101.707 50.58c.099.84.39 1.666-.021 2.431-.795 1.48-1.974 2.213-3.644 2.196-1.782-.021-3.565-.377-5.309-.717-1.149-.224-2.699-.246-3.616-1.041-.509-.443-2.305-2.083-1.954-3.118.4-1.169 2.575-1.656 3.651-1.877 2.304-.478 4.818-.288 7.132.051 1.398.204 3.193.594 3.761 2.075z"/><radialGradient id="a" cx="633.575" cy="7.47" r="2.99" gradientTransform="rotate(-173.72 365.17 44.357)" gradientUnits="userSpaceOnUse"><stop offset="0" stop-color="#28353D"/><stop offset=".508" stop-color="#27323B"/><stop offset=".809" stop-color="#222A33"/><stop offset="1" stop-color="#1D2029"/></radialGradient><path fill="url(#a)" d="M92.557 48.393a3.187 3.187 0 0 0-1 1.992 3.205 3.205 0 1 0 5.839-1.438c-.732-.393-4.072-.724-4.839-.554z"/><path fill="#212121" d="M92.858 50.796a1.96 1.96 0 1 0 0 0z"/><path fill="#666" d="M101.707 50.58s-.5-1.362-3.578-1.703c-3.081-.346-6.672-.024-7.607-.127-.932-.106-3.44 1.57-3.44 1.57s1.311-2.154 3.481-2.582c1.971-.391 7.583-.023 9.001.28 1.417.304 2.143 2.562 2.143 2.562z"/><path fill="#B76B2C" d="M99.991 54.853s-6.433 1.006-10.53-1.597c-2.087-1.323-2.296-2.924-2.296-2.924s-.494 2.265 2.7 3.709c4.968 2.244 10.126.812 10.126.812z"/><path fill="#fff" d="M91.904 50.938a.575.575 0 0 0 .799-.125.568.568 0 0 0-.123-.795.57.57 0 1 0-.676.92zm1.457-.481a.46.46 0 0 0 .646-.1.466.466 0 0 0-.1-.651.466.466 0 0 0-.647.1.463.463 0 0 0 .101.651zm25.847.113c-.101.851-.396 1.686.021 2.462.804 1.497 1.998 2.239 3.688 2.221 1.803-.021 3.609-.381 5.375-.726 1.162-.227 2.73-.249 3.658-1.053.517-.448 2.336-2.108 1.979-3.155-.404-1.185-2.607-1.676-3.697-1.901-2.33-.483-4.877-.292-7.217.052-1.417.206-3.233.601-3.807 2.1z"/><radialGradient id="b" cx="390.13" cy="34.712" r="3.025" gradientTransform="scale(1 -1) rotate(6.37 1029.805 -2374.952)" gradientUnits="userSpaceOnUse"><stop offset="0" stop-color="#28353D"/><stop offset=".508" stop-color="#27323B"/><stop offset=".809" stop-color="#222A33"/><stop offset="1" stop-color="#1D2029"/></radialGradient><path fill="url(#b)" d="M128.468 48.355a3.228 3.228 0 0 1 1.011 2.018 3.24 3.24 0 0 1-2.862 3.583 3.244 3.244 0 0 1-3.048-5.04c.742-.397 4.122-.732 4.899-.561z"/><path fill="#212121" d="M128.162 50.789a1.983 1.983 0 1 1-3.943.44 1.982 1.982 0 0 1 1.752-2.193 1.981 1.981 0 0 1 2.191 1.753z"/><path fill="#666" d="M119.208 50.57s.503-1.377 3.621-1.725c3.118-.35 6.753-.024 7.698-.128.945-.107 3.484 1.589 3.484 1.589s-1.328-2.179-3.525-2.613c-1.995-.395-7.676-.023-9.111.284l-2.167 2.593z"/><path fill="#B76B2C" d="M120.943 54.894s6.511 1.019 10.658-1.615c2.112-1.34 2.323-2.96 2.323-2.96s.503 2.292-2.731 3.752c-5.029 2.272-10.25.823-10.25.823z"/><path fill="#fff" d="M123.52 50.932a.581.581 0 0 0 .81-.126.574.574 0 0 0-.124-.805.583.583 0 0 0-.811.125.58.58 0 0 0 .125.806zm1.476-.488a.47.47 0 1 0 .55-.76.47.47 0 0 0-.55.76z"/><path opacity=".8" fill="#B54A37" d="M103.768 79.594h11.595v1.236h-11.595z"/><path fill="#FFAC81" d="M99.743 78.602c0-.292 3.388-.934 3.724-1.008 2.014-.43 4.289-.599 6.263-.252 1.891-.331 4.232-.176 6.243.25.338.071 3.744.711 3.744 1.01-.001.509-19.974.499-19.974 0zm.005.001c1.462.038 2.936.236 4.386.349 1.865.146 3.722.168 5.595.235 1.835-.067 3.673-.075 5.5-.235 1.475-.129 2.988-.301 4.479-.349-4.53 4.018-15.39 3.911-19.96 0z"/><path fill="#B54A37" d="M109.56 79.317c-1.93-.021-3.711-.083-5.153-.172l-1.021-.059c-2.341-.132-3.412-.193-4.195-.927-.611-.573-1.118-.237-1.453-.257l-.256-.033c-.35-.133-.413-.223-.395-.255.015-.028.109-.046.244-.046.184 0 .429.032.694.09.69.153 1.522.386 1.53.393 1.401.88 5.308 1.011 7.512 1.011h.013c.677 0 1.315.014 2.034.032l.443.009.447-.009a81.73 81.73 0 0 1 1.877-.033l.854.002c2.588 0 5.727-.102 7.047-.894.013-.01.844-.245 1.535-.397.265-.058.515-.091.695-.091.133 0 .229.018.244.046.018.033-.046.122-.395.256l-.234.05c-.275.039-.695-.265-1.464.234-1.203.777-1.946.787-3.431.81-.553.01-1.209.02-2.021.069-1.445.089-3.225.15-5.151.171z"/><path opacity=".32" fill="#F5B1A2" d="M110.248 68.526c3.064.368 6.748 1.597 6.842 2.089-4.052 2.297-12.531.979-12.27-.229.2-.938 3.479-2.095 5.428-1.86z"/><path fill="#AE8879" d="M115.775 69.389c.822-.046 1.681.432 1.629.61-.051.184-.889.037-1.611.084-.439.025-1.824.419-1.891.244-.069-.17 1.369-.908 1.873-.938zm-9.343-.325c.87.196 1.91.953 1.837 1.121-.074.171-1.27-.278-1.872-.429-.518-.126-1.737.044-1.806-.126-.073-.176 1.262-.699 1.841-.566z"/><path opacity=".2" fill="#F5B1A2" d="M106.771 71.019c-.872-1.072-2.171-2.133-3.515-1.771 1.256-2.565 4.884 1.763 6.188 2.204 1.611.543 3.125-.291 4.537-1.105 1.623-.934 3.188-1.238 4.896-.399-1.02.37-1.939.247-2.949.819-1.08.613-2.044 1.438-3.103 2.094-2.349 1.455-4.364.236-6.054-1.842z"/><path opacity=".5" fill="#F6A76A" d="M118.441 69.438s1.684-.733 1.354-2.646c-.33-1.916-1.246-2.867-1.246-2.867s1.364 1.321 1.516 3.254c.151 1.934-1.624 2.259-1.624 2.259zm-14.918 0s-1.682-.733-1.354-2.646c.329-1.916 1.245-2.867 1.245-2.867s-1.363 1.321-1.514 3.254c-.152 1.934 1.623 2.259 1.623 2.259z"/><path opacity=".3" fill="#FDE9D7" d="M116.189 59.002s-1.066-.529-1.42-2.677c-.351-2.145-1.773-5.983-2.483-.986-.709 5.003-.526 7.501 1.026 6.862 2.285-.934 3.771-.252 3.854-1.411.055-.736-.32-1.406-.977-1.788z"/><path fill="#E5E5E5" d="M142.825 32.264a10.993 10.993 0 0 1-.052 3.014 23.844 23.844 0 0 0-.144-1.866c.002 0 .118-.43.196-1.148zm-.052 3.014a61.71 61.71 0 0 1 .052 4.159 32.698 32.698 0 0 0-.194-3.417s.077-.274.142-.742z"/><path fill="#EAA76F" d="M87.578 50.263s-.331.239-.853.469a9.897 9.897 0 0 1-4.007.832c-.57-.003-.969-.092-.969-.092s.33-.24.853-.47a9.928 9.928 0 0 1 4.007-.83c.571.002.969.091.969.091zm0 1.531s-.33.239-.853.469a9.897 9.897 0 0 1-4.007.832c-.57-.003-.969-.092-.969-.092s.33-.24.853-.47a9.862 9.862 0 0 1 1.96-.624 10.03 10.03 0 0 1 2.047-.206c.57.003.969.091.969.091zm46.029-1.531s.398-.088.969-.091a9.957 9.957 0 0 1 4.005.83c.522.229.853.47.853.47s-.398.089-.97.092a9.81 9.81 0 0 1-2.045-.207 9.98 9.98 0 0 1-1.959-.625c-.522-.23-.853-.469-.853-.469zm0 1.532s.398-.088.969-.091a9.95 9.95 0 0 1 4.005.828c.522.229.853.47.853.47s-.398.089-.969.093a9.894 9.894 0 0 1-2.046-.207 9.917 9.917 0 0 1-1.959-.624c-.522-.23-.853-.469-.853-.469zm-13.235 5.322s.887-.107 2.209-.136a54.71 54.71 0 0 1 4.833.114c1.752.123 3.498.324 4.804.54 1.306.208 2.171.435 2.171.435s-.888.108-2.209.138a54.899 54.899 0 0 1-9.638-.656c-1.306-.208-2.17-.435-2.17-.435zm-18.019-.477s-.894.227-2.244.434c-1.35.216-3.154.418-4.964.542-1.811.116-3.626.153-4.992.116-1.366-.029-2.282-.137-2.282-.137s.894-.228 2.244-.436a57.76 57.76 0 0 1 4.964-.54 58.409 58.409 0 0 1 4.992-.115c1.366.028 2.282.136 2.282.136zm.042 28.889s.24-.041.661-.089c.42-.038 1.021-.121 1.741-.169a65.268 65.268 0 0 1 5.281-.155c1.919.024 3.838.128 5.275.271.719.064 1.318.162 1.737.209.419.058.659.104.659.104s-.24.042-.661.09c-.42.038-1.021.123-1.741.17-1.44.111-3.361.172-5.281.153a64.93 64.93 0 0 1-5.276-.273c-.719-.064-1.318-.161-1.737-.208a13.479 13.479 0 0 1-.658-.103zm3.743 1.549s.465-.123 1.15-.175a14.563 14.563 0 0 1 4.939.481c.662.184 1.094.396 1.094.396s-.465.124-1.149.176c-.687.061-1.591.055-2.49-.03a14.483 14.483 0 0 1-2.448-.454c-.664-.184-1.096-.394-1.096-.394z"/><path opacity=".5" fill="#F6A76A" d="M98.209 72.446l-.364-.067-.367.006c-.138.012-.283.05-.431.1-.588.215-1.22.813-1.792 1.546-.302.352-.569.747-.839 1.113l-.744 1.029c-.227.306-.428.563-.576.741l-.247.28s-.041-.555.14-1.33c.077-.392.222-.835.429-1.292a6.35 6.35 0 0 1 .823-1.361c.363-.417.76-.828 1.252-1.091.477-.275 1.023-.42 1.486-.378.467.017.806.264.996.415l.234.289zm24.613-.562l.367-.068.365.006c.137.012.282.05.432.1.586.215 1.219.813 1.791 1.546.303.352.57.747.842 1.113l.742 1.029c.229.306.427.563.574.741l.25.28s.041-.555-.141-1.33a6.117 6.117 0 0 0-.429-1.292 6.39 6.39 0 0 0-.823-1.361c-.363-.417-.759-.828-1.253-1.091-.476-.275-1.021-.42-1.485-.378-.469.017-.808.264-.996.415l-.236.29z"/><path fill="#FFF793" d="M58.122 174.798l.082-.302-.036.302h-.046z"/><path fill="#F2E1A5" stroke="#D1B47F" stroke-width=".5" stroke-miterlimit="10" d="M20 220s.535-37.414.352-46.678c0 0 1.607-40.551 15.354-58.752 0 0 3.934-4.789 13.211-7.991 0 0 22.54-7.135 29.911-10.688 1.359-.656 3.921-1.448 3.921-1.448s9.015 22.522 25.113 22.358h.013c.405 0 .815.044 1.235.038 8.289-.116 17.072-3.688 27.22-23.027 0 0-.232-.477 2.066 1.062 2.194 1.474 6.942 3.045 14.625 5.478 0 0 29.453 8.306 34.275 17.886 0 0 16.072 32.734 12.32 61.789 0 0 .41 25.197.41 39.972L20 220z"/><path fill="#fff" d="M108.798 116.717l.353.039c.575.105 1.857.485 3.807 1.752 2.157 1.389 5.14 3.887 8.881 8.371l.72.876.43.536c2.174 2.723 4.564 6.07 7.195 10.216l.156.248s6.463-29.023 8.057-43.881c-2.291-1.146-2.318-1.654-2.301-1.583 0 0-10.646 23.451-26.761 23.282h-.013c-.171.052-.342.105-.524.144zM80.043 95.58c1.159 13.765 7.364 42.712 7.364 42.712l.025-.048a114.963 114.963 0 0 1 3.391-5.258l.013-.025c5.622-8.179 10.223-12.188 13.437-14.154 2.333-1.425 3.946-1.766 4.702-1.841h.051l.013-.011h.075l.165-.014h.188a15.474 15.474 0 0 1-.68-.201c-7.764-.669-15.538-4.922-25.192-22.568-.001-.002-1.333-.13-3.552 1.408z"/><path opacity=".2" d="M108.177 116.723s7.852 2.764 14.719 11.26c0 0 5.763 6.893 7.746 10.892.001-.001-7.538-18.225-22.465-22.152zm1.207.006s-7.573 2.666-14.19 10.854c0 0-5.551 6.642-7.462 10.496-.001 0 7.266-17.561 21.652-21.35zM54.18 220.001l-.428-11.886c-.269-7.131-.563-16.643-.847-26.153-.163-4.752-.257-9.521-.355-13.987-.027-.555.021-1.142.039-1.674a45.45 45.45 0 0 1 .169-1.656c.139-1.074.299-2.117.467-3.131.36-2.021.751-3.918 1.124-5.666a187.388 187.388 0 0 1 2.016-8.396l.862-3.159.098.023-2.164 11.69a204.995 204.995 0 0 0-.945 5.667 88.79 88.79 0 0 0-.433 3.094l-.158 1.582c-.026.562-.08 1.078-.059 1.639.052 4.453.019 9.199.113 13.957l.6 38.054-.099.002zm-.456-57.913l-.348.9-.381 1.033c-.151.396-.296.853-.467 1.344l-.534 1.59c-.157.574-.391 1.156-.556 1.783a47.716 47.716 0 0 0-1.123 3.908c-.179.672-.276 1.359-.416 2.028-.132.671-.202 1.341-.302 1.985-.099.645-.122 1.275-.191 1.869-.073.596-.083 1.162-.108 1.685-.016.522-.059 1.002-.047 1.429l.016 1.102.014.962-.1.008-.083-.96-.095-1.105c-.042-.426-.034-.91-.055-1.437-.013-.528-.043-1.101-.013-1.705.023-.604.023-1.245.085-1.903.066-.656.101-1.342.198-2.029.105-.688.168-1.395.313-2.086.237-1.394.529-2.783.913-4.057a23.183 23.183 0 0 1 1.345-3.373c.474-.953.925-1.718 1.273-2.231.344-.517.575-.79.575-.79l.087.05zm112.053 57.911l.85-38.054c.128-4.76.111-9.504.186-13.955.025-.561-.029-1.077-.056-1.639l-.157-1.582a86.404 86.404 0 0 0-.435-3.094 212.993 212.993 0 0 0-.944-5.667l-2.164-11.692.098-.022.861 3.16a188.217 188.217 0 0 1 2.017 8.396c.372 1.748.764 3.646 1.124 5.668a88.64 88.64 0 0 1 .467 3.131c.063.543.125 1.102.169 1.656.019.532.067 1.119.037 1.676-.121 4.465-.231 9.237-.429 13.988-.342 9.512-.697 19.021-1.014 26.15l-.509 11.884-.101-.004zm.965-57.962s.234.27.584.785c.354.511.814 1.273 1.298 2.223.489.948.965 2.1 1.378 3.367.395 1.273.7 2.663.945 4.059.148.692.217 1.4.326 2.088.103.688.139 1.375.207 2.032.066.659.066 1.302.093 1.907.032.605.004 1.18-.009 1.708-.021.528-.01 1.012-.053 1.44l-.094 1.106-.083.962-.101-.008.015-.964.015-1.104c.012-.426-.033-.906-.049-1.43-.025-.523-.037-1.09-.111-1.686-.072-.596-.096-1.229-.199-1.873-.104-.646-.174-1.316-.313-1.987-.144-.67-.246-1.358-.429-2.029a46.959 46.959 0 0 0-1.153-3.905c-.171-.627-.41-1.207-.572-1.781l-.551-1.588c-.176-.49-.326-.945-.479-1.342l-.394-1.031-.359-.896.088-.053z"/><path fill="#F2C651" stroke="#D1AB46" stroke-width=".5" stroke-miterlimit="10" d="M123.286 220l-10.168-84.557c2.522-2.092 4.788-5.104 4.952-7.213-.271-3.451-6.161-9.342-9.612-9.612-3.452.271-9.343 6.161-9.612 9.612.164 2.117 2.446 5.146 4.982 7.239L94.933 220h28.353z"/><path fill="#eee" d="M132.505 21.888s-5.146 9.156-26.075 1.488c-15.499-4.315-21.248-1.475-21.248-1.475s-.288 9.253-3.003 15.962c-2.715 6.712-5.204 3.673-5.204 15.336 0 0-6.619-14.536-3.423-24.282 3.194-9.744 7.029-10.226 7.029-10.226S85.535 0 107.9 0c22.368 0 29.558 15.178 29.558 15.178s14.071 8.794 8.8 30.363l-1.777 7.658s-1.11-3.193-3.828-10.383c-2.715-7.188-6.665-21.838-8.148-20.928z"/><path fill="#BEBEBF" d="M137.053 14.801s-1.705 4.915-4.984 7.6c0 0 2.158-1.542 5.988-7.066l-1.004-.534z"/></svg>