<svg xmlns="http://www.w3.org/2000/svg" width="220" height="220" viewBox="0 0 220 220"><path fill="#315464" d="M41.523 188.65c9.024.418 16.442-1.674 16.562-4.668.122-3.002-7.097-5.768-16.126-6.183-9.027-.418-16.439 1.675-16.562 4.671-.122 3.001 7.096 5.764 16.126 6.18z"/><path fill="#FEBC84" d="M154.225 219.168H66.962l-4.762-79.55h96.786z"/><path fill="#fc9" d="M190.792 141.699l-14.209.832-67.874 3.977-64.264-3.939-14.048-.869c0-5.925.584-10.379 1.614-13.854 2.27-7.783 6.704-10.623 11.459-13.828 6.888-4.626 16.605-5.166 32.053-6.731 3.632-.367 6.806-1.273 9.522-2.497a24.25 24.25 0 0 0 8.491-6.303c2.35-2.704 3.484-7.967 3.484-11.356v-13.6h26.355v13.597c0 3.39 1.529 8.653 3.879 11.356 1.973 2.277 4.846 4.736 8.479 6.476 2.738 1.309 6.055 2.214 9.859 2.325 15.399 1.48 25.205 2.104 32.092 6.73 4.734 3.184 9.139 6.01 11.43 13.67 1.055 3.489 1.678 8.004 1.678 14.014z"/><path fill="#fc9" stroke="#D09D6A" stroke-width=".5" stroke-miterlimit="10" d="M131.032 71.762s-1.912 20.455 2.153 29.662c6.176 13.991 1.932 17.188-5.154 20.424-7.092 3.236-14.004 9.18-20.363 9.483-6.358.305-21.313-9.411-23.488-12.493-2.177-3.083-4.737-8.177-3.664-9.967 1.071-1.788 12.209-5.22 12.15-18.547-.058-13.325-2.539-22.768-2.539-22.768s40.006-14.585 40.905 4.206z"/><path opacity=".5" fill="#F6A76A" d="M130.93 90.966a42.613 42.613 0 0 1-1.676-4.62c-4.145 6.641-13.068 6.574-18.838 10.318-3.367 2.146-1.648 7.02-.492 10.434-3.086-2.332-2.829-7.301-3.937-9.725-1.105-2.426-4.639-3.743-6.735-6.122-.519-.471-1.484.072-2.473.118.142 2.968-.684 6.477-4.096 7.632-.664.198-1.283.109-1.893-.11 1.136-2.279 1.891-5.083 1.875-8.568-.058-13.325-2.539-22.768-2.539-22.768s40.006-14.585 40.905 4.206c.001.001-.935 10.032-.101 19.205z"/><path fill="#FFB679" d="M82.842 106.514c.46-.779 3.01-1.176 5.501-3.516 1.845 7.344 7.978 15.186 14.581 18.159 10.221 5.247 17.762-9.236 28.488-11.514.652-.166 4.254-4.305 4.925-4.405-.038 4.722-7.063 9.417-11.474 11.465-6.198 2.877-10.379 10.816-15.941 11.083-5.56.265-18.644-8.396-20.549-11.142-1.905-2.748-6.469-8.539-5.531-10.13z"/><path fill="#315464" d="M179.666 188.422c-9.025.418-16.441-1.675-16.563-4.669-.121-3.001 7.098-5.767 16.127-6.181 9.025-.42 16.438 1.673 16.561 4.67.122 2.999-7.094 5.764-16.125 6.18z"/><path fill="#fc9" stroke="#D09D6A" stroke-width=".5" stroke-miterlimit="10" d="M154.673 135.178l2.899 12.533 5.328 23.057 2.052 10.318.435 2.178 7.151 35.907.114.601 5.226-.221 22.312-.941c-4.193-7.221-6.521-22.178-7.815-37.021l-.205-2.534c-1.524-19.274-1.376-37.584-1.376-37.584l-36.121-6.293z"/><path fill="#FFB679" d="M157.572 147.711l5.328 23.057 10.021 48.683 3.365-.153s-8.229-33.23-8.229-49.3c0-16.864-4.205-21.638-9.224-23.683-.481-.197-.895.307-1.261 1.396zm7.38 33.375l.435 2.178c2.809-1.688 7.942-2.974 13.844-3.242 5.34-.246 10.119.379 13.144 1.566l-.205-2.533c-3.036-1.127-7.724-1.727-12.938-1.48-6.224.291-11.586 1.687-14.28 3.511z"/><path fill="#fc9" stroke="#D09D6A" stroke-width=".5" stroke-miterlimit="10" d="M66.517 135.407l-2.899 12.532-5.328 23.058-2.052 10.317-.436 2.178-7.15 35.908-.114.6-5.227-.22L21 218.839c4.194-7.222 6.52-22.178 7.816-37.021l.205-2.534c1.524-19.275 1.376-37.584 1.376-37.584l36.12-6.293z"/><path fill="#FFB679" d="M63.617 147.939l-5.328 22.94-10 48.771-3.552-.084s8.395-33.328 8.395-49.398c0-16.863 4.206-21.607 9.225-23.652.481-.198.894.336 1.26 1.423z"/><path fill="#FFF793" d="M57.979 184.533l.081-.294-.035.294h-.046z"/><path fill="#5492AC" stroke="#29637C" stroke-width=".5" stroke-miterlimit="10" d="M32.012 127.845s-.95 2.863-1.614 6.915c-.54 3.305-3.508 32.848-4.597 43.667a295.793 295.793 0 0 1-.263 2.63l-.115 1.151c.15-.771.78-1.481 1.8-2.081 2.762-1.65 8.343-2.618 14.736-2.324 6.257.293 11.643 1.7 14.313 3.549 1.192.809 1.845 1.713 1.811 2.631l-.022.258.194-1.566.265-2.178 1.832-14.838v53.511h100.841v-50.862l1.938 15.705-.021-.258c-.127-2.998 7.092-5.764 16.121-6.18 8.756-.404 15.998 1.555 16.537 4.404-.299-2.924-4.334-43.545-4.976-47.447-.664-4.053-1.614-6.915-1.614-6.915l-.052.059c-2.292-7.651-6.679-10.489-11.409-13.671-6.887-4.625-16.66-5.249-32.063-6.731-3.805-.11-7.059-1.028-9.799-2.337-.664 1.016-2.006 2.987-2.795 3.917l-.023.024c-5.833 6.5-13.936 11.162-22.518 11.162h-.035c-8.583 0-16.684-4.662-22.518-11.162l-.022.024c-.837-.991-2.292-3.157-2.899-4.111-2.717 1.224-5.879 2.13-9.511 2.497-15.448 1.566-25.153 2.104-32.041 6.73-4.755 3.207-9.167 6.047-11.447 13.83"/><path fill="#FFB679" d="M56.237 181.314l-.436 2.178c-2.808-1.688-7.941-2.973-13.843-3.242-5.34-.245-10.118.379-13.143 1.566l.205-2.533c3.036-1.126 7.724-1.727 12.938-1.48 6.224.293 11.586 1.688 14.279 3.511z"/><path fill="#29637C" d="M136.46 105.254c-.63 1.098-1.614 2.553-1.614 2.553-.664.952-2.004 2.794-2.793 3.666l-.023.021c-5.828 6.08-13.924 10.441-22.5 10.441h-.034c-8.577 0-16.672-4.361-22.501-10.441-.022 0-2.313-2.932-2.92-3.824 0 0-.602-.659-1.231-1.997.047-.012 1.758-.69 2.204-.885.606.893 2.219 3.27 2.242 3.27 5.829 6.081 13.629 10.672 22.206 10.672h.034c8.577 0 16.672-4.361 22.5-10.442l.023-.022c.789-.87 2.299-2.713 2.961-3.664.515.228.884.445 1.446.652zm-77.941 75.241l-.265 2.178c-.504-.465-1.181-.905-1.982-1.321-3.14-1.651-8.354-2.853-14.289-3.133-6.108-.281-11.528.488-14.76 1.908-.654.282-1.227.6-1.685.93.068-.658.16-1.554.263-2.63 2.889-1.873 9.064-2.987 16.182-2.655 7.723.367 14.231 2.298 16.536 4.723zm104.152 0l.265 2.178c.504-.465 1.182-.905 1.981-1.321 3.14-1.651 8.354-2.853 14.29-3.133 6.107-.281 11.529.488 14.761 1.908.652.282 1.228.6 1.683.93-.066-.658-.158-1.554-.262-2.63-2.889-1.873-9.064-2.987-16.182-2.655-7.725.367-14.23 2.298-16.536 4.723z"/><path fill="#437D96" d="M60.351 219.168c6.611 0 6.63-.208 6.63-.208s-5.652-59.979-5.804-62.138c-.287 1.967-1.005 43.937-.826 62.346z"/><path fill="#29637C" d="M58.135 183.221l.609-6.074 1.286-13.36c.129-1.218.157-2.419.234-3.606l.103-1.762.056-.865-.122-.808c-.048-.584-.214-1.083-.336-1.597a27.247 27.247 0 0 0-.413-1.515 58.58 58.58 0 0 0-.866-2.807l-1.898-5.798.092-.039s.291.539.757 1.505c.234.481.512 1.069.813 1.753.289.688.659 1.447.982 2.309.337.855.697 1.785 1.036 2.791.186.491.349 1.017.487 1.582.142.555.326 1.133.38 1.692.037.305.074.522.11.905l-.076.887-.165 1.8c-.125 1.207-.204 2.447-.379 3.652l-.888 7.12-.846 6.201-.857 6.045-.099-.011z"/><path fill="#437D96" d="M161.303 219.168c-6.609 0-6.63-.208-6.63-.208s5.652-59.979 5.804-62.138c.289 1.967 1.003 43.937.826 62.346z"/><path fill="#29637C" d="M163.021 183.553l-.754-6.103a686.577 686.577 0 0 1-1.516-13.445l-.365-3.659a56 56 0 0 1-.144-1.806c-.022-.295-.022-.61-.034-.914.007-.365.029-.592.07-.912.216-1.244.523-2.289.875-3.31.35-1.01.705-1.948 1.047-2.811.333-.865.691-1.635.99-2.324.304-.688.58-1.281.82-1.766.467-.973.762-1.516.762-1.516l.093.039s-.767 2.334-1.915 5.839c-.29.872-.588 1.819-.875 2.827-.282.992-.602 2.095-.764 3.125-.041.25-.078.604-.084.822.004.283-.004.558.013.854l.079 1.784.226 3.656 1.067 13.479.509 6.127-.1.014zM60.522 154.598s.126.18.297.519c.19.333.414.827.642 1.432.245.601.446 1.328.632 2.113.084.396.13.812.181 1.231l.15 1.275.093 1.281c.023.423.079.834.061 1.24l-.012 1.162c-.018.369.004.717-.044 1.037l-.273 2.123-.099-.014.022-2.117c.011-.314-.052-.658-.077-1.02l-.096-1.135c-.016-.393-.108-.795-.167-1.205l-.2-1.238c-.082-.412-.184-.822-.281-1.225l-.278-1.183c-.178-.767-.274-1.499-.386-2.123-.092-.63-.17-1.153-.203-1.53l-.058-.596.096-.027zm100.851.043s-.232.748-.572 1.814c-.1.26-.164.561-.266.861l-.311.951c-.107.328-.216.67-.347 1.012-.144.341-.224.703-.308 1.066l-.252 1.084c-.092.358-.094.723-.144 1.069l-.114 1.009c-.059.322-.039.627-.039.909l.015 1.896-.099.016-.266-1.896c-.038-.287-.098-.599-.083-.93l.007-1.043c.016-.361-.018-.742.039-1.119l.149-1.148c.065-.78.276-1.534.45-2.248.098-.354.261-.674.399-.979.146-.303.271-.594.438-.84.312-.499.591-.901.838-1.151.222-.265.377-.386.377-.386l.089.053z"/><path opacity=".3" fill="#437D96" d="M159.538 181.411c-1.187 3.466.86 22.506-3.453 37.757l-92.468-.023s-1.743-16.481-1.313-19.313c.059-.36-.662-2.285-1.954-5.353v-20.146c4.583 5.813 9.501 11.303 14.851 16.345 9.409 8.384 19.992.632 30.214-.472 1.477-.906 4.814 3.479 5.104 5.875-1.104 7.091-8.804 9.227-12.211 13.886-.22 1.415-.662 4.259 1.105 5.736 10.896 7.478 19.479-.335 29.481-.013 3.987.125 6.139-5.041 10.871-5.364 6.443-2.658 10.816-9.179 13.922-16.222 2.187-4.521 4.035-9.24 5.627-14.097.224.696.306 1.181.224 1.404z"/><path fill="#fc9" stroke="#D09D6A" stroke-width=".5" stroke-miterlimit="10" d="M146.057 43.055c-1.266-2.273-2.343-1.916-3.211-.405 1.105-14.733-.785-33.417-16.676-38.904-4.854-1.676-10.236-2.016-15.555-1.642-5.317-.374-10.701-.034-15.554 1.642C79.495 9.12 77.362 27.157 78.321 41.74c-.714-.567-1.535-.31-2.456 1.346-.638 1.145-.84 2.139-.636 5.656.208 3.518 1.993 8.353 4.354 8.523.592.043 1.021-.062 1.333-.269.431 1.825.802 3.724.802 5.355 1.214 6.21 1.424 13.166 6.319 17.72 2.356 2.191 5.068 3.978 7.564 6 1.742 1.409 3.523 3.7 5.632 4.561 2.747 1.122 6.19 1.076 9.38 1.071 3.191.005 6.635.051 9.382-1.071 2.108-.861 3.89-3.152 5.632-4.561 2.497-2.022 5.208-3.809 7.564-6 4.896-4.554 5.105-11.509 6.318-17.72 0-1.832.469-4.002.965-6.024.27.597.795 1.007 1.854.931 2.363-.172 4.152-5.015 4.361-8.538.206-3.523.004-4.52-.632-5.665z"/><path opacity=".5" fill="#F6A76A" d="M111.619 69.134s-.04 3.592-1.898 3.514c-1.857-.079.508.613 1.632.304 1.126-.307 1.193-.859.266-3.818z"/><path fill="#1A1A1A" d="M115.93 39.931c2.747-2.11 6.563-3.035 9.949-3.307 1.997-.16 4.004-.149 5.969.273.364.078 4.041.934 3.713 1.471-.061.099-.979.062-1.088.069-.982.063-1.965.135-2.948.175-2.062.084-4.101.391-6.155.562-2.021.168-4.033.425-6.049.643l-2.516.271c-.284.032-.921.287-.875-.157zM87.529 37.27c3.208-1.181 7.061-1.046 10.385-.543 1.894.287 3.809.753 5.613 1.403.562.203 3.661 1.151 3.52 1.903-3.427-.192-6.816-.47-10.219-.934-2.014-.274-4.013-.638-6.019-.963a80.64 80.64 0 0 1-2.49-.452c-.28-.055-.961-.004-.79-.414z"/><path fill="#FFB679" d="M143.77 46.074c1.603.073.963 4.582.664 6.167-.297 1.583-1.822 2.464-2.726 2.108-.901-.354-1.188-2.731-.229-2.818.959-.088 1.525-.703 1.07-1.319-.456-.619-.767-4.229 1.221-4.138zm-65.214-.593c-1.39.062-.835 3.976-.576 5.352s1.582 2.14 2.366 1.831c.782-.307 1.031-2.371.199-2.448-.833-.074-1.324-.608-.93-1.145.398-.535.666-3.669-1.059-3.59z"/><path fill="#fff" d="M103.519 46.472c.09.765.355 1.517-.019 2.214-.723 1.346-1.798 2.015-3.317 1.999-1.623-.019-3.246-.343-4.834-.652-1.046-.205-2.457-.225-3.292-.949-.465-.403-2.101-1.896-1.778-2.837.363-1.065 2.344-1.508 3.324-1.711 2.098-.433 4.388-.26 6.494.048 1.271.184 2.905.539 3.422 1.888z"/><radialGradient id="a" cx="631.59" cy="11.873" r="2.721" gradientTransform="rotate(-173.72 365.17 44.357)" gradientUnits="userSpaceOnUse"><stop offset="0" stop-color="#28353D"/><stop offset=".508" stop-color="#27323B"/><stop offset=".809" stop-color="#222A33"/><stop offset="1" stop-color="#1D2029"/></radialGradient><path fill="url(#a)" d="M95.188 44.48a2.909 2.909 0 0 0-.91 1.814 2.918 2.918 0 1 0 5.317-1.31c-.668-.356-3.708-.66-4.407-.504z"/><path fill="#212121" d="M95.462 46.669a1.785 1.785 0 1 0 3.548.397 1.784 1.784 0 1 0-3.548-.397z"/><path fill="#1A1A1A" d="M103.519 46.472s-.453-1.239-3.257-1.553c-2.805-.314-6.076-.021-6.927-.115-.85-.096-3.134 1.431-3.134 1.431s1.193-1.961 3.171-2.352c1.794-.355 6.905-.02 8.196.256 1.29.276 1.951 2.333 1.951 2.333z"/><path fill="#B76B2C" d="M101.957 50.362s-5.858.916-9.589-1.453c-1.9-1.205-2.09-2.663-2.09-2.663s-.452 2.062 2.457 3.375c4.525 2.046 9.222.741 9.222.741z"/><path fill="#fff" d="M94.593 46.797a.52.52 0 1 0 .613-.84.52.52 0 0 0-.613.84zm1.326-.439a.422.422 0 1 0 0 0zm23.267.114c-.092.765-.355 1.517.019 2.214.722 1.346 1.797 2.015 3.315 1.999 1.623-.019 3.248-.343 4.836-.652 1.045-.205 2.457-.225 3.291-.949.465-.403 2.101-1.896 1.778-2.837-.362-1.065-2.345-1.508-3.325-1.711-2.097-.433-4.387-.26-6.494.048-1.271.184-2.906.539-3.42 1.888z"/><radialGradient id="b" cx="389.833" cy="38.925" r="2.722" gradientTransform="scale(1 -1) rotate(6.37 1029.805 -2374.952)" gradientUnits="userSpaceOnUse"><stop offset="0" stop-color="#28353D"/><stop offset=".508" stop-color="#27323B"/><stop offset=".809" stop-color="#222A33"/><stop offset="1" stop-color="#1D2029"/></radialGradient><path fill="url(#b)" d="M127.516 44.48c.493.46.83 1.091.91 1.814a2.919 2.919 0 1 1-5.317-1.31c.666-.356 3.705-.66 4.407-.504z"/><path fill="#212121" d="M127.241 46.669a1.786 1.786 0 1 1-3.55.395 1.786 1.786 0 0 1 3.55-.395z"/><path fill="#1A1A1A" d="M119.186 46.472s.451-1.239 3.256-1.553c2.806-.314 6.076-.021 6.928-.115.85-.096 3.133 1.431 3.133 1.431s-1.193-1.961-3.17-2.352c-1.795-.355-6.904-.02-8.197.256-1.292.276-1.95 2.333-1.95 2.333z"/><path fill="#B76B2C" d="M120.746 50.362s5.857.916 9.589-1.453c1.899-1.205 2.09-2.663 2.09-2.663s.452 2.062-2.457 3.375c-4.527 2.046-9.222.741-9.222.741z"/><path fill="#fff" d="M122.914 46.797a.52.52 0 0 0 .727-.114.516.516 0 0 0-.109-.724.52.52 0 1 0-.618.838zm1.327-.439a.42.42 0 0 0 .589-.091.42.42 0 0 0-.092-.591.422.422 0 1 0-.497.682z"/><path fill="#1A1A1A" d="M145 29.642C137.574-13.425 91.185 3.126 91.185 3.126s-4.658 1.786-4.296 4.134c-26.151 8.288-5.225 47.838-5.046 44.192-5.222-21.349 7.31-29.129 7.31-29.129s21.494 10.502 40.361-.826c5.918.245 10.789 12.374 12.18 27.478C144.15 41.066 145 34.46 145 29.642z"/><path opacity=".1" fill="#fff" d="M127.238 14.657l.193-1.284c-.584-2.015-.777-4.764-2.529-6.229-.193 1.284-.391 2.565-.975 3.665-4.281-3.665-10.703-6.229-16.738-5.862 2.919 1.282 5.061 3.114 6.423 5.862-3.893-.55-7.008-2.199-11.095-2.199-2.919 0-4.865.551-7.785 1.466 3.114-.55 7.591-.183 9.731 2.016-4.087.55-8.369-1.283-12.846-.367-2.919.548-6.229 2.198-8.564 4.214 7.785-.367 15.376.183 22.967 1.832.584-1.466-1.751-2.565-2.919-3.299 6.229-.731 13.626 1.283 19.462 2.565-.582-1.831-1.556-3.665-3.111-4.946 3.111 1.281 5.645 3.48 8.367 5.13.197-.916-.192-1.649-.581-2.564z"/><path opacity=".8" fill="#B54A37" d="M105.295 75.031h10.432v1.111h-10.432z"/><path fill="#FFAC81" d="M103.611 75.028c0-.371 2.387-1.185 2.623-1.277 1.419-.547 3.021-.762 4.411-.322 1.332-.421 2.981-.223 4.397.316.239.091 2.638.902 2.638 1.283.002.648-14.069.635-14.069 0zm.004.003c1.029.047 2.067.298 3.09.442 1.313.187 2.621.213 3.939.3 1.295-.087 2.588-.097 3.875-.3 1.039-.164 2.105-.381 3.155-.442-3.192 5.102-10.84 4.964-14.059 0z"/><path fill="#B54A37" d="M110.525 75.938a41.652 41.652 0 0 1-3.629-.219l-.72-.074c-1.649-.17-2.403-.247-2.955-1.179-.431-.727-.788-.3-1.023-.325l-.181-.043c-.246-.168-.291-.282-.278-.324.011-.035.078-.059.173-.059.129 0 .302.041.489.116.486.195 1.071.491 1.077.499.987 1.119 3.739 1.284 5.291 1.284h.01c.478 0 .927.019 1.433.041l.313.012.313-.012c.51-.021.962-.041 1.323-.041l.603.002c1.822 0 4.033-.129 4.963-1.138.01-.012.594-.309 1.082-.502.188-.076.36-.117.489-.117.095 0 .162.024.173.06.014.041-.031.154-.277.323l-.166.063c-.194.051-.489-.335-1.031.297-.848.987-1.371 1.001-2.418 1.03-.389.01-.85.024-1.424.086-1.016.115-2.271.19-3.63.22z"/><path opacity=".5" fill="#F6A76A" d="M110.117 82.835c-.778-.631-1.093-3.193.208-3.272 1.3-.079 2.759.158 2.917 1.064.156.907-.733 1.893-1.076 2.208-.344.315-1.743.906-2.049.513-.304-.396 0-.513 0-.513z"/><path opacity=".32" fill="#F5B1A2" d="M111.225 65.861c2.34.241 5.154 1.052 5.225 1.375-3.094 1.513-9.57.646-9.372-.151.152-.617 2.656-1.379 4.147-1.224z"/><path fill="#AE8879" d="M115.445 66.429c.629-.03 1.283.284 1.244.402-.039.121-.678.025-1.23.055-.337.017-1.395.276-1.445.162-.053-.113 1.049-.599 1.431-.619zm-7.135-.214c.664.129 1.459.626 1.402.739-.055.112-.97-.184-1.43-.283-.396-.083-1.327.03-1.38-.083-.055-.115.963-.46 1.408-.373z"/><path opacity=".2" fill="#F5B1A2" d="M108.567 67.502c-.667-.706-1.658-1.404-2.685-1.165.96-1.69 3.729 1.159 4.728 1.451 1.23.356 2.388-.192 3.465-.729 1.236-.614 2.435-.815 3.74-.263-.779.244-1.481.164-2.254.54-.824.403-1.562.947-2.369 1.378-1.794.96-3.333.157-4.625-1.212z"/><path opacity=".5" fill="#F6A76A" d="M117.48 66.461s1.285-.483 1.035-1.743c-.252-1.262-.951-1.887-.951-1.887s1.041.87 1.156 2.143c.117 1.275-1.24 1.487-1.24 1.487zm-11.392 0s-1.286-.483-1.035-1.743c.252-1.262.951-1.887.951-1.887s-1.042.87-1.156 2.143c-.117 1.275 1.24 1.487 1.24 1.487z"/><path opacity=".3" fill="#FDE9D7" d="M115.621 59.376s-.896-.383-1.193-1.941c-.296-1.556-1.492-4.341-2.093-.715-.597 3.628-.44 5.443.865 4.979 1.922-.677 3.173-.183 3.245-1.024.043-.534-.272-1.022-.824-1.299z"/></svg>