<svg xmlns="http://www.w3.org/2000/svg" width="220" height="220" viewBox="0 0 220 220"><path fill="#191919" d="M85.4 76.4h45.4v40.2H85.4z"/><path fill="#F9C795" stroke="#D09D6A" stroke-width=".5" stroke-miterlimit="10" d="M130.7 109.2c-1.9 2.7-15 11.2-20.6 10.9-.2 0-.4 0-.7-.1-.2 0-.4.1-.7.1-5.6.3-18.7-8.2-20.6-10.9s-3.8-6.4-2.8-7.9c.6-1 4.6-2.9 7.4-7.2.4-.6.7-1.2 1.1-1.9.8-1.6 1.4-3.5 1.7-5.8.1-.6.1-1.3.1-2v-.2c0-3.3-.2-6.3-.4-9-.2-1.6-.3-3.1-.5-4.4-.5-3.1-.9-5.2-1.1-6.1-.1-.3-.1-.4-.1-.4s7.7-2.8 16-4.1c8.3 1.3 16 4.1 16 4.1s0 .1-.1.4c-.2.9-.7 3-1.1 6.1-.1 1-.3 2.1-.4 3.3-.3 2.9-.6 6.3-.6 10.1v.2c0 .7 0 1.4.1 2 .2 2 .7 3.8 1.4 5.3.4.9.8 1.6 1.3 2.3 2.8 4.3 6.8 6.2 7.4 7.2 1 1.7-.8 5.3-2.8 8z"/><path opacity=".5" fill="#F6A76A" d="M124.2 90.2c-11.7 8.4-18.5 8.2-29.6.5.8-1.6 1.3-3.5 1.6-5.8.1-.6.1-1.3.1-2v-.2c0-3.3-.2-6.3-.4-9 7.6-1.6 20.6-3.8 27.4-1.1-.3 2.9-.6 6.3-.6 10.1v.2c0 .7 0 1.4.1 2 .3 2 .8 3.7 1.4 5.3z"/><path fill="#F9C795" stroke="#D09D6A" stroke-width=".5" stroke-miterlimit="10" d="M128.5 15.5c-13.6-4.1-19.4-3.6-19.4-3.6s-5.8-.6-19.4 3.6c-13.6 4.1-14.6 25.5-11.2 46 3.6 21.2 19.7 28.4 19.7 28.4s1.7 1.1 6 1c2.2 2.2 4.9 1.7 5 1.7 0 0 2.7.6 5-1.7 4.3.1 6-1 6-1s16-7.2 19.7-28.4c3.2-20.4 2.2-41.8-11.4-46z"/><radialGradient id="a" cx="274.4" cy="-157.89" r="18" gradientTransform="matrix(1 0 0 -1 -187.6 -89.99)" gradientUnits="userSpaceOnUse"><stop offset="0" stop-color="#ED1C24"/><stop offset="1" stop-color="#ED1C24" stop-opacity="0"/></radialGradient><circle opacity=".1" fill="url(#a)" cx="86.8" cy="67.9" r="18"/><radialGradient id="b" cx="319.039" cy="-157.89" r="18.012" gradientTransform="matrix(1 0 0 -1 -187.6 -89.99)" gradientUnits="userSpaceOnUse"><stop offset="0" stop-color="#ED1C24"/><stop offset="1" stop-color="#ED1C24" stop-opacity="0"/></radialGradient><circle opacity=".1" fill="url(#b)" cx="131.4" cy="67.9" r="18"/><path opacity=".5" fill="#F6A76A" d="M95.6 86.3s5.1 2.1 7.3 2.7c-2.1-3.1-2.5-4.4-2.6-6.3.2 1.2-.7 3.9-.7 3.9l-4-.3zm26.8-.3s-5.1 2.1-7.3 2.7c2.1-3.1 2.5-4.4 2.6-6.3-.2 1.2.7 3.9.7 3.9l4-.3z"/><path opacity=".2" fill="#F5B1A2" d="M115.1 70.4c-.9-2.3-2.9-1.8-4.8-1.5-1.1.2-2 0-3.1-.2-1.1-.3-2.3-.4-3.1.5-.6.7.7.8 1.1 1 1.1.3 1.8 1.1 2.8 1.7 2.6 1.5 4.4-1.7 7.1-1.5-.1-.1-1-.1 0 0z"/><path fill="#AE8879" d="M107.2 70.2c.1.1.2.2.4.3l-1.1-1.1c-.2-.2-1.7-1.2-1.9-.7 0 .1 1.3.5 1.4.6.3.1.8.5 1.2.9zm3.8.1c-.1.1-.3.2-.4.3.4-.3.8-.7 1.2-1 .2-.1 1.8-1 2-.6 0 0-1.3.4-1.4.5-.5.2-1 .5-1.4.8z"/><path opacity=".2" fill="#F5B1A2" d="M106.4 71c-.6-.7-1.6-1.3-2.6-1.1.9-1.6 3.5 1.1 4.5 1.4 1.2.3 2.3-.2 3.3-.7 1.2-.6 2.3-.8 3.6-.3-.7.2-1.4.2-2.1.5-.8.4-1.5.9-2.3 1.3-1.7 1-3.2.2-4.4-1.1-.6-.7.7.7 0 0z"/><path opacity=".2" fill="#F5B1A2" d="M113.1 69.5c1 1.1-2.2 2.5-2.9 2.4.1-.9 1.8-3.6 2.9-2.4zm-7.9-.2c-1 1.1 2.2 2.5 2.9 2.4-.1-.9-1.8-3.6-2.9-2.4z"/><path opacity=".5" d="M114.5 69s1.4-.5 1.1-1.9c-.3-1.4-1-2-1-2s1.1.9 1.3 2.3c.1 1.4-1.4 1.6-1.4 1.6zm-10.7-.1s-1.4-.5-1.1-1.9c.3-1.4 1-2 1-2s-1.1.9-1.3 2.3c0 1.4 1.4 1.6 1.4 1.6z" fill="#F6A76A"/><path opacity=".3" fill="#FDE9D7" d="M113.7 62.7s-.8-.3-1.1-1.7c-.3-1.4-1.3-3.9-1.9-.6-.5 3.3-.4 4.9.8 4.5 1.7-.6 2.9-.2 2.9-.9 0-.6-.2-1-.7-1.3z"/><path fill="#F9C795" d="M80.9 61.3c-.1 1.4-.2 3.6-2.4 3.1-1.4-.3-2.4-2.3-2.9-4.7.3-2.3-.5-5.2 0-6.5C77 49.7 80 51 80 51c1.3 3.4 1 9.5.9 10.3z"/><circle fill="#FBB03B" cx="78.7" cy="63.8" r="1.7"/><path fill="#FFB679" d="M78.4 53.6c-1.5-.1-1.5 4.3-1.4 5.8s1.5 2.6 2.4 2.3c.9-.2 1.5-2.5.5-2.7-.9-.2-1.4-.8-.9-1.4.6-.4 1.3-3.8-.6-4z"/><path fill="#EAA76F" d="M126.1 34.7c-10 2.5-21 3-31.2 1.3 5.2 0 10.5-.1 15.7-.1 5.1-.3 10.4-1.6 15.5-1.2zm-2 3.5c-10 2.5-21 3-31.2 1.3 5.2 0 10.5-.1 15.7-.1 5.1-.3 10.4-1.5 15.5-1.2z" opacity=".5"/><path fill="#F9C795" d="M138.7 61.3c.1 1.4.2 3.6 2.4 3.1 1.4-.3 2.4-2.3 2.9-4.7-.3-2.3.5-5.3 0-6.5-1.4-3.4-4.3-2.1-4.3-2.1-1.3 3.3-1 9.4-1 10.2z"/><circle fill="#FBB03B" cx="140.4" cy="63.8" r="1.7"/><path fill="#FFB679" d="M141.2 53.6c1.5-.1 1.5 4.3 1.4 5.8-.1 1.5-1.5 2.6-2.4 2.3-.9-.2-1.5-2.5-.5-2.7.9-.2 1.4-.8.9-1.4-.6-.4-1.3-3.8.6-4z"/><path fill="#B54A37" d="M109 76.8c-2 0-3.8-.1-5.2-.2l-1-.1c-2.4-.1-3.5-.2-4.3-.9-.6-.6-1.1-.2-1.5-.3h-.3c-.4-.1-.4-.2-.4-.3h.2c.2 0 .4 0 .7.1.7.2 1.5.4 1.6.4 1.4.9 5.4 1 7.6 1h5.9c2.6 0 5.8-.1 7.1-.9 0 0 .9-.2 1.6-.4.3-.1.5-.1.7-.1h.2s0 .1-.4.3h-.2c-.3 0-.7-.3-1.5.2-1.2.8-2 .8-3.5.8-.6 0-1.2 0-2 .1-1.6.2-3.4.2-5.3.3z"/><path opacity=".5" fill="#F6A76A" d="M96.5 70.2c-2.5-.7-4.1 3.4-5.4 4.8-.1-1.6.6-3.2 1.7-4.4.9-.9 2.8-1.9 3.7-.4zm25-.6c2.5-.7 4.1 3.4 5.4 4.8.1-1.6-.6-3.2-1.7-4.4-.8-.9-2.8-1.8-3.7-.4z"/><path fill="#FF5D47" d="M115 75.2c-.2 0-4.5-.2-5.9.5-1.4-.7-5.7-.5-5.9-.5-.2 0-4.3.4-4.3.4 5.5 6.9 10 6.3 10.2 6.2.2 0 4.7.7 10.2-6.2 0 0-4-.4-4.3-.4z"/><path fill="#FF815C" stroke="#E87554" stroke-width=".5" stroke-miterlimit="10" d="M174.8 220c-7.9 0-20.7-.3-20.7-.3s1.4-38-.8-58.6c0-.4-.1-.7-.1-1.1-.3-2.8-.6-5.1-1-7.1.4 3 .4 3.3-.4 6.6-.1.3-.1.5-.2.8v.1c-.3 1.2-1.3 4.9-2.3 9.4-1.3 5.8-2.5 13-2.5 17.5 0 6 .7 32.5.7 32.5H70.3c.5-2.8 1.1-32.2 1.1-32.5.1-4.5-1.1-11.5-2.4-17.4-1-4.5-2-8.4-2.4-9.7v-.2c-.1-.2-.1-.4-.2-.6-.8-3.2-.7-3.5-.4-6.5-.3 1.9-.7 4.2-1 6.9 0 .4-.1.8-.1 1.3-2.2 20.6-.8 58.5-.8 58.5s-12.8.3-20.7.3c-5-14-1.4-80.4 4-91.2 0 0 8.2-24.9 15.4-27.6 5-1.9 11.5-2.2 15-2.3h2.6s7.9 6.2 7.9 12.2c0 13 17.6 7.7 20.4 6.8.2-.1.4-.1.4-.1s.1 0 .4.1c2.7.9 20.3 6.1 20.3-6.8 0-6 7.9-12.2 7.9-12.2h2.6c3.6 0 10 .4 15 2.3 7.2 2.7 15.4 27.6 15.4 27.6v.1c5.5 10.8 9.1 77.2 4.1 91.2z"/><path fill="#F5CC6A" d="M64.4 159.6c.2.1.4.1.6.2 0 .4-.1.8-.1 1.3-.1-.4-.3-.9-.4-1.3 0-.1 0-.1-.1-.2z"/><path fill="#E87554" d="M149.3 169.8c-2.5 5.6-2.8 9.7-2.8 16.9 0 5.7.6 31.2.7 33.2v.1h-2.5v-.1l-.9-29.1-.3-2.2c-2.8-9.9-64.5-9.9-67.3-.1l-.3 2.4-.9 29v.1h-4.3v-.1c.5-3.4 1-32.9 1.1-33.2.2-7.1-.2-11.1-2.7-16.7-1-4.5-2-8.4-2.4-9.7 7.6 2.3 20.5 4.5 41.6 4.5 20.5-.1 34.7-2.2 43.4-4.5-.5 1.3-1.4 5-2.4 9.5z"/><path fill="#F5CC6A" d="M153.7 159.8v.1c-.1.4-.2.8-.4 1.1 0-.4-.1-.7-.1-1.1.2 0 .3 0 .5-.1z"/><path d="M88.3 95.7s-10.1 1.2-19.9 8.8c-2.7 3.6 4.2 16.9 6.4 19.3 0 0 6.2 8.5 23.4 13.4l10.9-19.3c0 .1-17.5-7.6-20.8-22.2zm41.6 0s10.1 1.2 19.9 8.8c2.7 3.6-4.2 16.9-6.4 19.3 0 0-6.2 8.5-23.4 13.4L109.1 118s17.5-7.7 20.8-22.3zM115.7 76.5s-5.1.6-6.6.6-6.6-.6-6.6-.6c3 3 6.4 2.6 6.6 2.6.2.1 3.7.4 6.6-2.6z" fill="#FFF"/><path opacity=".5" fill="#F6A76A" d="M88.5 55.8s-1.3 4.3 5.1 3.9c5.4-.9 6.7-1.5 8.5-1.2-.3-.5-1.1-.7-1.1-.7s-5.5.7-7.7.4c-2.2-.3-4.8-2.4-4.8-2.4zm1.5-1.1s2.9-4.4 7.8-3.4c3.9.6 5 1.8 5 1.8s-3.3-.7-3.9-.5c1.5.8 2.6 3.5 2.3 4.2-.3.7-3.4-2.6-3.4-2.6l-7.8.5z"/><path fill="#FFF" d="M88.2 56s1.1 2.8 5.7 2.7c4.6-.1 6.9-.8 7.4-.6.5.1-1.5-4.5-5.8-4.9-4.2-.5-7.3 2.8-7.3 2.8z"/><radialGradient id="c" cx="246.657" cy="-361.832" r="3.049" gradientTransform="matrix(.9955 .095 .095 -.9955 -116.625 -327.807)" gradientUnits="userSpaceOnUse"><stop offset="0" stop-color="#28353D"/><stop offset=".508" stop-color="#27323B"/><stop offset=".809" stop-color="#222A33"/><stop offset="1" stop-color="#1D2029"/></radialGradient><path fill="url(#c)" d="M91.5 53.9s-1.3 4.1 2.8 4.6 3.6-4.4 3.6-4.4-.9-1.1-3-1.1c-2 .1-3.4.9-3.4.9z"/><circle fill="#212121" cx="94.6" cy="55.7" r="1.6"/><path fill="#FFF" d="M92.1 56.3c.3.2.6.2.9-.1.2-.3.2-.6 0-.9-.3-.2-.6-.2-.9.1-.3.3-.3.7 0 .9zm1.6-.3c.2.2.5.2.7 0 .2-.2.2-.5 0-.7-.2-.2-.5-.2-.7 0-.2.2-.2.5 0 .7z"/><path fill="#666" d="M88.1 56s.5-1 1.7-2c.6-.5 1.5-1 2.5-1.2.5-.1 1-.2 1.6-.2.5 0 1.1 0 1.6.1.3 0 .5.1.8.1.3.1.5.1.8.2.5.2 1 .4 1.4.6.9.5 1.6 1.1 2 1.7.5.6.8 1.2.9 1.6.2.4.2.7.2.7h-.1l-.3-.6c-.2-.4-.5-.9-1-1.5-.5-.5-1.2-1.1-2-1.5-.4-.2-.9-.3-1.3-.5l-.7-.1c-.2 0-.5 0-.8-.1H94c-.5.1-.9.1-1.3.3-.9.2-1.6.6-2.3.9-.3.2-.6.3-.9.5s-.5.3-.7.4c-.4.5-.6.7-.7.6z"/><path opacity=".5" fill="#F6A76A" d="M102.9 54.9c1.4.4 1.2 2.8-.3 2.9.5-1 .6-1.8.3-2.9z"/><path fill="#EAA76F" d="M88.4 55.6c-1.9.9-4 1.1-6 .6 1.9-.9 4-1.1 6-.6z"/><path fill="#EAA76F" d="M88.4 56.6c-1.9.9-4 1.1-6 .6 1.9-.9 4-1.1 6-.6z"/><path fill="#4D4D4D" d="M103.8 49.4s-1.1-.3-2.7-.8c-.4-.1-.8-.2-1.3-.4-.5-.1-.9-.2-1.4-.4-.5-.2-1-.3-1.5-.4-.5-.2-1.1-.2-1.6-.3-.5 0-1.1-.1-1.6 0s-1.1 0-1.5.2c-.5.1-1 .2-1.4.4-.4.2-.9.3-1.2.5-.4.2-.7.4-1 .6-.3.2-.5.4-.7.6-.4.3-.6.5-.6.5l-.1-.1s.2-.2.5-.6c.2-.2.4-.4.6-.7.3-.2.6-.5.9-.7.3-.3.8-.5 1.2-.7.4-.3.9-.4 1.5-.6.5-.2 1.1-.2 1.7-.4.6-.1 1.2-.1 1.8-.1s1.2 0 1.8.1c.6 0 1.1.1 1.7.3 1.1.3 2 .7 2.8 1.1 1.5.9 2.3 1.8 2.3 1.8l-.2.1z"/><path opacity=".5" fill="#F6A76A" d="M129.7 55.8s1.3 4.3-5.1 3.9c-5.4-.9-6.7-1.5-8.5-1.2.3-.5 1.1-.7 1.1-.7s5.5.7 7.7.4c2.2-.3 4.8-2.4 4.8-2.4zm-1.5-1.1s-2.9-4.4-7.8-3.4c-3.9.6-5 1.8-5 1.8s3.3-.7 3.9-.5c-1.5.8-2.6 3.5-2.3 4.2.3.7 3.4-2.6 3.4-2.6l7.8.5z"/><path fill="#FFF" d="M130 56s-1.1 2.8-5.7 2.7c-4.6-.1-6.9-.8-7.4-.6-.5.1 1.5-4.5 5.8-4.9 4.2-.5 7.3 2.8 7.3 2.8z"/><radialGradient id="d" cx="4699.273" cy="63.067" r="3.05" gradientTransform="rotate(174.55 2411.632 -49.471) scale(1.00002)" gradientUnits="userSpaceOnUse"><stop offset="0" stop-color="#28353D"/><stop offset=".508" stop-color="#27323B"/><stop offset=".809" stop-color="#222A33"/><stop offset="1" stop-color="#1D2029"/></radialGradient><path fill="url(#d)" d="M126.7 53.9s1.3 4.1-2.8 4.6-3.6-4.4-3.6-4.4.9-1.1 3-1.1c2.1.1 3.4.9 3.4.9z"/><circle fill="#212121" cx="123.6" cy="55.7" r="1.6"/><path fill="#FFF" d="M126.1 56.3c-.3.2-.6.2-.9-.1-.2-.3-.2-.6 0-.9.3-.2.6-.2.9.1.3.3.3.7 0 .9zm-1.6-.3c-.2.2-.5.2-.7 0s-.2-.5 0-.7c.2-.2.5-.2.7 0 .2.2.2.5 0 .7z"/><path fill="#666" d="M130 56.1s-.2-.2-.6-.4c-.2-.1-.4-.3-.7-.4-.3-.2-.6-.3-.9-.5-.7-.3-1.4-.7-2.3-.9-.4-.1-.9-.2-1.3-.3-.5-.1-.9-.1-1.4 0-.3 0-.5 0-.8.1l-.7.1c-.5.1-.9.3-1.3.5-.8.4-1.5.9-2 1.5-.5.5-.8 1.1-1 1.5l-.3.6h-.1s0-.3.2-.7c.2-.4.4-1 .9-1.6s1.2-1.3 2-1.7c.4-.2.9-.4 1.4-.6.3-.1.5-.1.8-.2.3-.1.5-.1.8-.1.5-.1 1.1-.1 1.6-.1s1.1.1 1.6.2c1 .3 1.8.7 2.5 1.2 1.2.8 1.7 1.7 1.6 1.8z"/><path opacity=".5" fill="#F6A76A" d="M115.3 54.9c-1.4.4-1.2 2.8.3 2.9-.5-1-.6-1.8-.3-2.9z"/><path fill="#EAA76F" d="M129.8 55.6c2-.5 4.1-.3 6 .6-2 .5-4.1.3-6-.6z"/><path fill="#EAA76F" d="M129.8 56.6c2-.5 4.1-.3 6 .6-2 .5-4.1.3-6-.6z"/><path fill="#4D4D4D" d="M114.3 49.3s.8-.9 2.3-1.8c.8-.4 1.7-.9 2.8-1.1.5-.1 1.1-.2 1.7-.3.6-.1 1.2-.1 1.8-.1.6 0 1.2 0 1.8.1.6.1 1.1.2 1.7.4.5.2 1 .3 1.5.6.4.2.9.4 1.2.7.3.3.7.5.9.7.2.3.4.5.6.7.3.4.5.6.5.6l-.1.1s-.2-.2-.6-.5c-.2-.2-.4-.3-.7-.6-.3-.2-.6-.4-1-.6-.3-.2-.8-.4-1.2-.5-.4-.2-.9-.3-1.4-.4-.5-.1-1-.1-1.5-.2H123c-.5.1-1.1.1-1.6.3-.5.1-1 .2-1.5.4-.5.1-1 .3-1.4.4-.5.1-.9.2-1.3.4-1.6.5-2.7.8-2.7.8l-.2-.1z"/><g fill="#2B2B2B"><path d="M156.1 55.4c.1.3.1.3 0 0zm-2.9-8.8c-.1-.2-.1-.4-.1-.4s0 .1.1.4c-2.7-8-4.3-15.7-8.1-23.3-3.4-6.8-8.7-13.6-15.1-17.8C122.8.8 115.3-.7 106.8.4s-16 1-23.3 6.6C77.3 11.7 73 18.3 69.7 25.3c-3.5 7.6-4.3 15.1-5.9 23.2-3.7 18.4-3.5 36.3 2.8 54.2 0 2.7 21.7 3.7 22-5.4.1-3.2 2.9-6.5 3.5-9.7.4-1.9-1.2-2.4-2.6-3.7-2.6-2.5-4.8-5.4-6.6-8.6-1.6-2.9-1.8-2.9-.7-5.7 1-2.5 1.8-5.1 2.4-7.7 1.2-5.2 1.9-10.6 2.3-15.9.3-4-2.1-5.2.7-8.6 3.5-4.2 8.1-7.6 13.3-9.5 3.7-1.3 7.3-1.6 10.9-1.1 2.6 3.9 7 8.7 12.4 13.6 4.2 3.8 8.4 7 12 9.3.2.6.4 1.3.5 2 2.5 10.2 2.8 17.7-3.4 26.7-1.5 2.2-3.3 4.3-5.3 6.1.5 1.3-1.6 2.7-1.2 4 1.2 4.5 1.9 4.3 1.9 8.9-.1 7.1 18.3 11.3 23.4.5 7.9-16.9 6.8-34.1 1.1-51.3zm2.9 8.8z"/><path d="M156.1 55.4c-.4-1.3-2.4-7.2-2.9-8.9 0 0 2.7 8.2 2.9 8.9z"/></g><g opacity=".2"><path fill="#FFF" d="M110.9 23.3c12.5 6.9 28.4 16.4 31.5 31.7 3 15-4.3 31.1-8.3 45.4 1.4-14.4 7.2-28.5 5.8-43-1.6-15-17.4-26.6-29-34.1z"/></g><g opacity=".2"><path fill="#FFF" d="M110.9 23.3c12.7 7.2 26.1 13.4 31.1 28.1 5.2 15.2 3.9 31.5-.7 46.6 2.2-15.2 2.7-30.8-2.1-45.5-4.8-14.6-18-19.4-28.3-29.2z"/></g><g opacity=".2"><path fill="#FFF" d="M110.9 23.3c-8 2-16.6 1.4-24.4 4.3-7.9 2.9-6.7 16.1-8 23.1-1.5 7.7-6 15.2-6.4 23-.3 7.9 6.3 13.6 6.2 21.4-1.1-7.9-8.2-13-8.5-21.3-.3-8.4 4.6-17.6 6.3-25.9 1.3-7.7.9-19.3 9.8-22.3 7.9-2.6 16.8-1.9 25-2.3z"/></g><g opacity=".2"><path fill="#FFF" d="M110.5 23.1c-6.1 2.4-12.4 3.8-18.5 5.9-8.6 4.3-9 13.9-10.6 22.2-.6 3.3-2.6 6.2-3.2 9.4-1.4 5.2.6 10.1 1.4 15.1.6 3.3.3 7 3.9 8.6-5.7-1.3-7.1-12.6-7.8-16.9-1.4-6.3 1.9-11 3-16.9.7-3.8.6-7.4 1.6-11.1 7-13.8 15.9-13.5 30.2-16.3z"/></g><g opacity=".2"><path fill="#FFF" d="M110.3 23.3c-4.9.9-9.8 1.4-14.4 3.5-5.8 2.8-9.1 10.9-11.3 16.5-3.2 8.2-3.9 17.7-3.9 26 .4 6 4.1 11 5.1 16.8 1.5 4.6-.3 10.4.3 15.2-2.2-7.4-1.1-14-4.5-21.2-2.3-4.9-3.6-9.4-3.6-14.7 0-9.9 1.9-19.7 6.8-28.4 6.1-11 13.2-13.6 25.5-13.7z"/></g><g opacity=".2"><path fill="#FFF" d="M143.6 97.2c1.8-6.6 4.2-13 5.8-19.6 2.2-8.2-4.2-16-7.1-23.2-3-7.5-6-12.7-12.9-17.3-4.2-2.8-19.2-8.2-19-14 .7 5.9 19.8 11.2 24.7 15 6.2 5.1 8.3 11.7 11.4 18.7 2.6 6.8 7.5 13.8 5 21.4-1.5 6.5-5.1 13-7.9 19z"/></g><g opacity=".2"><path fill="#FFF" d="M108 22.5c-2.8-4-11-3.1-15.5-3.1-5.4 0-5.6 2.8-9.4 5.1 2-2.7 2.6-5.5 6.5-6.4 5.2-1.2 16.1-1.4 18.4 4.4z"/></g><g opacity=".2"><path fill="#FFF" d="M109.5 22.8c9.4-5.9 13.9-1.3 23.3 1 5.8 0 7.4 11.1 9.2 14.5-3.1-3.6-4.1-9.9-8.6-12.4-4.4-2.2-13.2-6.1-18-4.9 0 0-.1 0 0 0-1.9.8-3.9 1.4-5.9 1.8z"/></g></svg>