<svg xmlns="http://www.w3.org/2000/svg" width="220" height="220" viewBox="0 0 220 220"><path fill="#623518" d="M88.837 77.049h40.7v38.979h-40.7z"/><path fill="#fc9" stroke="#D09D6A" stroke-width=".5" stroke-miterlimit="10" d="M167.506 129.15s-1.475-7.53-3.244-8.227c-3.893-1.533-8.357-2.156-12.428-3.119-5.548-1.316-12.012-1.893-17.167-4.279-4.36-2.018-7.853-5.39-9.972-9.507-2.416-4.686-2.004-9.256-1.93-14.285.008-.603.225-9.809.045-9.81H96.249c0 6.17.942 12.754-.048 18.87-.981 6.061-5.924 12.031-11.666 14.823-2.409 1.174-4.979 1.36-7.582 1.905-5.714 1.196-11.398 2.635-17.057 4.045-1.683.423-3.476.721-5.092 1.357-1.773.696-3.248 8.227-3.248 8.227l58.272 32.113 57.678-32.113z"/><path fill="#FFD56F" stroke="#E2AF49" stroke-width=".5" stroke-miterlimit="10" d="M181.482 218.948c-8.666 0-20.037 1.052-20.037 1.052s1.193-28.877-2.08-46.432c.391 3.334.472 3.642-.391 7.199-.07.295-.142.59-.236.875l-.035.129c-.862 3.015-2.258 5.793-3.652 8.522-3.865 7.563-6.951 12.092-6.951 20.981 0 6.572.723 7.578.723 7.578H69.731c.591-3.051 1.193-7.26 1.205-7.578.261-8.89-3.097-13.416-6.939-20.981-1.43-2.778-2.86-5.614-3.7-8.7l-.047-.164c-.07-.213-.129-.438-.189-.664-.862-3.533-.792-3.865-.389-7.15-3.239 17.564-2.057 46.289-2.057 46.289s-11.36-1.051-20.024-1.051c-5.448-15.285-1.5-59.942 4.433-71.775 0 0 8.96-27.198 16.869-30.178 7.907-2.99 19.326-2.446 19.326-2.446s8.653 6.797 8.653 13.321c0 15.414 22.671 21.998 22.671 21.998s22.611-6.644 22.611-21.998c0-6.524 8.666-13.321 8.666-13.321s11.418-.543 19.326 2.446c7.918 2.979 16.855 30.178 16.855 30.178l-.011.013.046.082c5.935 11.834 9.896 56.504 4.446 71.775z"/><path d="M77.101 112.898l19.391 40.965s7.577-4.975 13.506-4.146l-26.021-36.819h-6.876zm64.862 0L123.5 153.863s-7.577-4.975-13.503-4.146l26.019-36.819h5.947z" fill="#F2F2F2"/><path fill="#F5CC6A" d="M158.305 181.807l-.035.129c-.855 2.987-2.238 5.74-3.621 8.447-3.832 7.499-6.889 11.986-6.889 20.797 0 6.514.715 7.51.715 7.51h-2.744l-.994-2.988-.375-2.448c-3.045-10.871-65.152-10.871-68.211-.081l-.328 2.59-1.032 2.93h-4.708c.585-3.023 1.184-7.194 1.195-7.512.259-8.811-3.07-13.298-6.877-20.796-1.417-2.754-2.835-5.565-3.667-8.623l-.047-.163c7.992 2.799 22.425 5.705 47.791 5.717 24.286-.074 40.523-2.802 49.827-5.509z"/><path fill="#7C431F" d="M136.824 67.706s-5.792 10.279-11.453 15.837c0 0 10.273 26.364-4.355 38.204 0 0 15.887-.69 28.404-14.428 0 0 10.939-15.594-.193-29.716 0 0-7.057-7.123-12.403-9.897zm-56.709 4.028S86.066 81.41 91.459 86.4c0 0-6.303 27.216 7.389 37.6 0 0-13.709.829-25.771-11.643 0 0-10.881-14.477-2.668-29.59 0 .001 5.378-7.76 9.706-11.033z"/><path opacity=".5" fill="#F6A76A" d="M122.768 89.735c-.025 1.934-.111 3.794-.063 5.618-4.986 3.039-7.888 6.126-13.48 6.126-5.098 0-7.317-3.584-12.638-6.325.273-5.037-.335-10.269-.335-15.23h26.565c.171 0-.04 9.203-.049 9.811z"/><path fill="#fc9" stroke="#D09D6A" stroke-width=".5" stroke-miterlimit="10" d="M145.227 52.048c0 12.505-9.847 30.127-20.865 36.144-6.055 3.305-8.953 7.092-15.14 7.092-5.343 0-7.527-3.936-13.414-6.72-12.713-6.013-20.261-22.838-20.261-36.258 0-24.875 3.469-32.062 34.192-32.062 44.31.001 35.488 29.203 35.488 31.804z"/><path fill="#7C431F" d="M152.663 46.946c-1.331-4.19-2.235-8.391-3.308-12.649-.648-2.573-1.818-4.966-2.963-7.347-1.098-2.283-2.08-4.638-3.418-6.797-2.291-3.696-5.045-7.372-8.053-10.513-3.24-3.383-7.384-5.923-11.668-7.773-5.104-2.204-10.222-2.145-15.644-1.404-.707.096-1.449.146-2.144.306-5.385-.346-10.277.693-15.132 3.01-4.368 2.083-7.657 5.179-10.767 8.833-2.948 3.458-5.076 7.176-7.037 11.259-1.629 3.389-2.881 6.706-3.95 10.31-.938 3.165-1.543 6.036-1.81 9.344-.386 4.82-1.841 9.458-2.505 14.234-.623 4.475-.982 8.986-.993 13.506-.021 7.709.962 15.396 2.808 22.878.764 3.102 1.603 6.23 2.636 9.254-2.906-13.814 7.555-25.266 7.555-25.266 9.385-6.959 10.027-36.325 10.027-36.325 8.208-13.498 19.61-15.136 23.269-15.302 5.216.527 13.73 3.001 21.054 12.643 0 0 2.652 29.033 12.709 34.957 0 0 14.246 10.952 7.888 29.87.002-.001 11.748-24.608 1.446-57.028z"/><radialGradient id="a" cx="140.699" cy="-21.048" r="13.221" gradientTransform="matrix(1 0 0 -1 -47.6 50.01)" gradientUnits="userSpaceOnUse"><stop offset="0" stop-color="#ED1C24"/><stop offset="1" stop-color="#ED1C24" stop-opacity="0"/></radialGradient><circle opacity=".1" fill="url(#a)" cx="93.099" cy="71.058" r="13.221"/><radialGradient id="b" cx="174.749" cy="-21.048" r="13.221" gradientTransform="matrix(1 0 0 -1 -47.6 50.01)" gradientUnits="userSpaceOnUse"><stop offset="0" stop-color="#ED1C24"/><stop offset="1" stop-color="#ED1C24" stop-opacity="0"/></radialGradient><circle opacity=".1" fill="url(#b)" cx="127.148" cy="71.058" r="13.221"/><path opacity=".5" d="M87.706 55.261s-.622 5.431 6.938 3.456c6.186-2.274 7.625-3.203 9.82-3.271-.499-.476-1.412-.636-1.412-.636s-6.345 2-9.051 2.149c-2.71.152-6.295-1.698-6.295-1.698zm1.568-1.6s2.531-5.843 8.454-5.77c4.765-.166 6.355 1.09 6.355 1.09s-4.028-.113-4.756.248c1.957.632 3.875 3.616 3.695 4.485-.184.872-4.645-2.331-4.645-2.331l-9.103 2.278zm15.316-2.577c1.795.158 2.069 3.016.305 3.475.35-1.306.254-2.266-.305-3.475zM131.389 55.33s.637 5.582-7.136 3.545c-6.356-2.347-7.835-3.3-10.089-3.372.514-.49 1.449-.656 1.449-.656s6.523 2.065 9.304 2.22c2.784.16 6.472-1.737 6.472-1.737zm-1.608-1.646s-2.598-6.009-8.688-5.943c-4.898-.177-6.533 1.114-6.533 1.114s4.142-.111 4.887.261c-2.01.649-3.985 3.712-3.801 4.606.186.898 4.778-2.39 4.778-2.39l9.357 2.352zm-15.744-2.668c-1.846.161-2.131 3.096-.316 3.57-.358-1.338-.261-2.327.316-3.57z" fill="#F6A76A"/><path fill="#623518" d="M104.084 47.701c-2.801.143-5.363-.675-8.046-1.31-1.578-.351-3.232-.573-4.85-.44-.707.058-1.403.212-2.044.522-.313.151-1.33.804-.638.039 2.042-2.259 6.107-1.837 8.809-1.628 1.613.125 3.116.458 4.577 1.169.327.155 2.478 1.143 2.192 1.648z"/><path fill="#D9AA8E" d="M103.619 54.641s-3.099-6.101-8.594-5.784c-6.677.387-6.618 6.303-6.221 5.063 0 0 2.787-3.183 8.498-2.187 4.604.801 6.317 2.908 6.317 2.908z"/><path fill="#EACBBA" d="M94.432 49.318s-2.442.318-3.522 1.204c-1.08.881-1.449 2.321-1.449 2.321s2.417-.927 2.66-1.765c.227-.775 2.311-1.76 2.311-1.76z"/><path fill="#C78A66" d="M102.35 53.618c-1.46-2.099-2.792-3.328-4.785-4.144-1.121-.458-1.689-.48-1.689-.48s1.595.433 1.824 1.056c.176.487-.959 1.112-.959 1.112 1.611.589 1.974.625 2.985.968.684.234 2.624 1.488 2.624 1.488z"/><path fill="#fff" d="M88.837 54.181s.555 3.122 5.627 3.021c5.057-.099 9.1-2.81 9.1-2.81s-3.007-2.901-8.064-2.848c-5.062.054-6.663 2.637-6.663 2.637z"/><radialGradient id="c" cx="145.545" cy="254.62" r="2.649" gradientTransform="scale(1 -1) rotate(5.63 3261.334 -412.14)" gradientUnits="userSpaceOnUse"><stop offset="0" stop-color="#323D28"/><stop offset=".458" stop-color="#303A28"/><stop offset=".73" stop-color="#2A3228"/><stop offset=".954" stop-color="#202429"/><stop offset="1" stop-color="#1D2029"/></radialGradient><path fill="url(#c)" d="M94.993 51.698c-1.273-.061-1.937.056-2.187.501a2.843 2.843 0 0 0-.35 1.67 2.843 2.843 0 0 0 3.109 2.557 2.845 2.845 0 0 0 2.261-4.137c-.228-.436-1.867-.541-2.833-.591z"/><path fill="#212121" d="M93.73 53.618c.086.844.837 1.46 1.683 1.378a1.535 1.535 0 0 0 1.378-1.678 1.535 1.535 0 0 0-1.679-1.382 1.544 1.544 0 0 0-1.382 1.682z"/><path d="M92.83 54.124a.569.569 0 0 0 .742-.306.565.565 0 1 0-1.046-.434.566.566 0 0 0 .304.74zm1.292-.806a.457.457 0 0 0 .601-.246.46.46 0 1 0-.601.246z" fill="#fff"/><path fill="#1A1A1A" d="M103.564 54.393s-3.561-4.109-9.993-3.829c-5.11.221-6.681 3.293-6.681 3.293l1.969.429s1.921-2.289 5.559-2.5c4.785-.287 8.417 2.025 9.146 2.607z"/><path fill="#B76B2C" d="M102.494 55.055s-5.747 2.955-10.419 1.781C89.693 56.24 89 54.798 89 54.798s.506 2.439 3.699 2.652c5.398.357 9.795-2.395 9.795-2.395z"/><path fill="#623518" d="M115.208 47.51c2.122-1.849 4.882-2.454 7.606-2.663 1.649-.127 3.334-.214 4.972.075.685.121 1.378.314 1.995.641.131.069 1.56 1.089 1.355 1.267-.188.281-.679-.347-.867-.453-.615-.347-1.332-.471-2.029-.512-1.751-.103-3.546.204-5.239.629-1.604.404-3.127.904-4.781 1.091-.411.046-2.899.487-3.012-.075z"/><path fill="#D9AA8E" d="M115.668 54.515s3.219-6.041 8.705-5.613c6.671.519 6.495 6.431 6.121 5.186 0 0-2.723-3.238-8.451-2.355-4.62.711-6.375 2.782-6.375 2.782z"/><path fill="#EACBBA" d="M124.958 49.376s2.437.366 3.498 1.272c1.063.904 1.401 2.35 1.401 2.35s-2.395-.974-2.623-1.817c-.209-.78-2.276-1.805-2.276-1.805z"/><path fill="#C78A66" d="M116.959 53.518c1.5-2.07 2.857-3.274 4.867-4.048 1.129-.437 1.697-.449 1.697-.449s-1.603.405-1.846 1.023c-.187.482.938 1.129.938 1.129-1.624.558-1.988.584-3.003.909-.691.22-2.653 1.436-2.653 1.436z"/><path fill="#fff" d="M130.457 54.346s-.614 3.112-5.686 2.912c-5.056-.201-9.043-2.991-9.043-2.991s3.064-2.838 8.123-2.685c5.057.152 6.606 2.764 6.606 2.764z"/><path fill="#B76B2C" d="M116.818 55.094s5.742 2.961 10.418 1.793c2.38-.595 3.074-2.037 3.074-2.037s-.508 2.439-3.701 2.649c-5.398.352-9.791-2.405-9.791-2.405z"/><radialGradient id="d" cx="-296.652" cy="-236.312" r="2.649" gradientTransform="rotate(-173.22 -77.8 -103.514)" gradientUnits="userSpaceOnUse"><stop offset="0" stop-color="#323D28"/><stop offset=".458" stop-color="#303A28"/><stop offset=".73" stop-color="#2A3228"/><stop offset=".954" stop-color="#202429"/><stop offset="1" stop-color="#1D2029"/></radialGradient><path fill="url(#d)" d="M124.35 51.745c1.273-.038 1.938.095 2.176.542a2.844 2.844 0 0 1-2.842 4.172 2.843 2.843 0 0 1-2.174-4.181c.234-.431 1.874-.506 2.84-.533z"/><path fill="#212121" d="M125.574 53.688a1.537 1.537 0 1 1-3.053-.36 1.537 1.537 0 1 1 3.053.36z"/><g fill="#fff"><circle cx="122.027" cy="53.683" r=".567"/><path d="M123.094 53.381a.461.461 0 0 0 .336-.858.465.465 0 0 0-.596.258.46.46 0 0 0 .26.6z"/></g><path fill="#1A1A1A" d="M115.729 54.267s3.644-4.037 10.067-3.628c5.104.32 6.616 3.422 6.616 3.422l-1.979.392s-1.875-2.327-5.509-2.611c-4.778-.382-8.455 1.86-9.195 2.425z"/><path fill="#AE8879" d="M107.958 72.312l.278.229a8.772 8.772 0 0 0-.855-.825c-.162-.132-1.303-.907-1.506-.577-.029.047.988.425 1.063.459.354.137.744.453 1.02.714z"/><path opacity=".2" fill="#F5B1A2" d="M106.42 71.658c-.756.824 1.684 1.95 2.277 1.855-.088-.706-1.426-2.786-2.277-1.855z"/><path opacity=".32" fill="#F5B1A2" d="M114.1 72.493c-.674-1.789-2.271-1.386-3.77-1.137-.855.142-1.563.035-2.393-.187-.86-.229-1.759-.307-2.396.425-.474.545.531.643.877.756.831.266 1.42.889 2.168 1.316 2.01 1.151 3.463-1.351 5.514-1.173-.037-.097-.789-.069 0 0z"/><path fill="#AE8879" d="M110.938 72.437l-.301.202c.303-.266.592-.527.924-.752.156-.107 1.414-.79 1.553-.446.02.038-1.018.338-1.096.364-.368.127-.78.385-1.08.632z"/><path opacity=".2" fill="#F5B1A2" d="M107.337 72.951c-.494-.522-1.23-1.038-1.99-.861.711-1.251 2.764.86 3.502 1.072.911.267 1.766-.14 2.565-.538.918-.456 1.804-.604 2.771-.195-.576.181-1.098.121-1.668.4-.611.297-1.158.7-1.754 1.022-1.329.709-2.471.117-3.426-.9zm5.2-1.134c.76.825-1.68 1.95-2.273 1.857.085-.705 1.424-2.786 2.273-1.857z"/><path opacity=".5" fill="#F6A76A" d="M109.845 74.161s-.026 2.352-1.242 2.299c-1.214-.052.332.399 1.068.199s.78-.562.174-2.498zM113.658 71.422s1.078-.406.867-1.466l-.797-1.586s.875.73.972 1.802c.095 1.071-1.042 1.25-1.042 1.25zm-8.306-.079s-1.081-.406-.868-1.465c.209-1.06.798-1.585.798-1.585s-.875.732-.971 1.801c-.097 1.071 1.041 1.249 1.041 1.249z"/><path opacity=".3" fill="#FDE9D7" d="M112.996 66.526s-.629-.27-.838-1.359c-.206-1.089-1.045-3.038-1.463-.501-.417 2.54-.312 3.81.603 3.485 1.347-.476 2.226-.128 2.275-.718.031-.372-.192-.714-.577-.907z"/><path fill="#B54A37" d="M106.598 78.508c3.921.374 9.587.243 11.347-.787 0 0-.652 1.729-1.604 3.035-1.313 1.8-3.396 2.32-6.883 2.249-5.372-.111-5.567.244-7.208-2.886-.197-.38-1.273-2.498-1.829-3.151-.001-.001 2.316 1.172 6.177 1.54z"/><path fill="#fff" d="M115.964 79.551c-2.682 1.917-9.097 2.399-12.641.305-.262-.157-.484-.871-1.422-1.578l15.158-.588-1.095 1.861z"/><path fill="#FF5D47" d="M117.021 79.12c-.764 1.08-3.287 3.173-7.624 3.14-4.337.033-6.943-2.429-7.705-3.508-.323-.45-.982-1.303-.982-1.303.415 1.053 1.04 2.627 1.698 3.729 1.071 1.78 2.069 2.473 2.904 2.983a7.965 7.965 0 0 0 4.044 1.122h.082a7.963 7.963 0 0 0 4.045-1.122c.834-.51 1.832-1.198 2.902-2.977.659-1.104 1.285-2.681 1.698-3.733.001-.002-.742 1.217-1.062 1.669z"/><path opacity=".58" fill="#fff" d="M112.125 83.828s-.277-.94-.023-1.339c.201-.315 1.371-.505 1.408-.277.102.631.648 1.269.063 1.57-.585.298-1.257.434-1.448.046z"/><path opacity=".43" fill="#fff" d="M110.51 84.144s-.287-1.094.211-1.166c.502-.074.938-.083.943.146.011.233.359 1.323-.076 1.393-.665.107-.94.026-1.078-.373z"/><path fill="#FF5D47" d="M118.602 76.953c-.345.256-1.031.5-2.451.324-2.715-.338-4.877-.25-6.729-.086-1.892-.243-4.111-.281-6.745.021-1.418.163-2.104-.09-2.446-.349 1.841 2.241 5.635 2.644 9.131 2.622v-.031h.08v.031c3.494.056 7.292-.31 9.16-2.532z"/><path fill="#B54A37" d="M118.857 76.696c-.439.162-.955.779-.955.779-1.258 1.479-5.725 1.842-6.959 1.835-.381-.001-.876.021-1.439.042-.563-.021-1.06-.042-1.439-.042-1.234.007-5.703-.356-6.959-1.835 0 0-.516-.617-.956-.779-.609-.224-.893-.024-.381.296.178.112.502-.095 1.026.644.79 1.122 3.716 1.666 5.564 1.856.932.093 2.035.15 3.146.172a41.05 41.05 0 0 0 3.146-.172c1.851-.19 4.777-.734 5.565-1.856.522-.739.847-.532 1.026-.644.511-.321.226-.52-.385-.296z"/><path opacity=".5" fill="#F6A76A" d="M99.122 73.214c-1.961-.543-3.261 2.701-4.329 3.835-.046-1.244.497-2.568 1.35-3.466.7-.741 2.247-1.507 2.979-.369zm19.879-.454c1.961-.544 3.263 2.7 4.328 3.834.046-1.245-.498-2.569-1.351-3.467-.701-.739-2.248-1.507-2.977-.367z"/><path opacity=".1" fill="#fff" d="M124.589 18.903c7.037-2.433 6.077-5.363 10.397-9.206-1.021-.438-1.623-1.331-2.659-1.882-3.56 3.573-2.994 8.284-10.306 7.916-7.539-.379-12.537-2.535-19.063 3.333-7.444 6.687-9.755 3.354-17.946 2.562-7.773-.754-10.068 6.628-15.893 10.126-.044.854-.84 1.898-.937 2.684 11.587-5.151 11.697-9.667 24.294-6.8 5.244 1.194 9.061-1.749 12.877-5.229 7.383-6.741 11.211-.685 19.236-3.504.356-.122-1.964.691 0 0z"/><path opacity=".5" fill="#F6A76A" d="M95.338 127.102c3.288-.656 6.572-1.08 9.913-1.35.416-.036 1.218-.287 1.535.014.121.127.194.394.269.549.511 1.082 1.436 1.992 2.706 1.912 1.172-.074 2.094-.972 2.715-1.901.084-.126.151-.302.254-.416.223-.45.947-.185 1.308-.152 3.267.279 6.479.7 9.69 1.345a119.694 119.694 0 0 1-5.039-.403c-1.859-.188-3.756-.156-5.625-.269.125-.024.266-.033.33-.169-.66 1.288-1.903 2.655-3.444 2.771-1.833.139-3.209-1.169-3.783-2.835.033.125.254.201.363.22-1.863.103-3.726.167-5.586.231-1.866.182-3.736.35-5.606.453.92-.183.937-.052 0 0z"/></svg>