<svg xmlns="http://www.w3.org/2000/svg" width="220" height="220" viewBox="0 0 220 220"><path fill="#fc9" stroke="#D09D6A" stroke-width=".5" stroke-miterlimit="10" d="M164.789 136.236s-1.396-7.135-3.074-7.795c-3.688-1.452-7.919-2.043-11.775-2.957-5.254-1.246-11.381-1.791-16.262-4.053-4.132-1.912-6.857-4.859-8.865-8.763-2.287-4.439-2.481-9.016-2.412-13.78.009-.57.213-9.292.043-9.293H97.279c0 5.845.893 12.084-.047 17.877-.928 5.742-5.613 11.399-11.051 14.044-2.283 1.112-4.718 1.289-7.184 1.805-5.413 1.134-10.799 2.496-16.16 3.832-1.596.399-3.294.683-4.825 1.287-1.679.658-3.076 7.793-3.076 7.793l55.208 30.426 54.645-30.423z"/><path fill="#1D4156" stroke="#132E38" stroke-width=".5" stroke-miterlimit="10" d="M186.016 219.002c-9.166 0-21.197.998-21.197.998s1.27-35.578-2.196-52.205c.411 3.148.493 11.667-.412 15.04-.082.271-.151.552-.247.823l-.047.129c-.916 2.855-2.385 5.486-3.866 8.084-4.089 7.156-7.366 11.443-7.366 19.869 0 6.228.775 7.167.775 7.167H67.751c.635-2.88 1.269-6.861 1.281-7.167.282-8.426-3.267-12.713-7.344-19.869-1.516-2.633-3.019-5.334-3.924-8.249l-.047-.142-.188-.646c-.916-3.349-.846-11.892-.422-14.993-3.431 16.639-2.174 52.064-2.174 52.064s-12.02-.999-21.197-.999c-5.757-14.464-1.574-56.776 4.7-67.986 0 0 9.482-25.769 17.849-28.599 8.366-2.832 20.444-2.314 20.444-2.314s9.177 6.438 9.177 12.62c0 14.604 23.982 20.845 23.982 20.845s23.934-6.298 23.934-20.845c0-6.181 9.166-12.62 9.166-12.62s12.078-.518 20.457 2.314c8.377 2.832 17.836 28.599 17.836 28.599l-.012.013.047.082c6.286 11.199 10.468 53.522 4.7 67.987z"/><path fill="#163849" d="M161.962 183.658l-.047.129c-.916 2.855-2.386 5.486-3.866 8.084-4.089 7.156-7.367 11.443-7.367 19.869 0 6.228.776 7.167.776 7.167h-2.983l-1.059-2.843-.389-2.34c-3.254-10.397-69.571-10.397-72.837-.082l-.354 2.479-1.104 2.784H67.75c.635-2.879 1.269-6.861 1.281-7.167.282-8.425-3.267-12.714-7.344-19.869-1.516-2.632-3.019-5.334-3.924-8.249l-.047-.141c8.543 2.656 23.935 5.429 50.983 5.44 25.981-.058 43.347-2.676 53.263-5.261z"/><path opacity=".5" fill="#F6A76A" d="M122.398 98.893c-.032 2.045-.123 4.016-.032 5.945-3.729 2.202-6.61 3.526-7.128 3.891-1.656 1.179-5.375 1.304-5.375 1.304s-3.729-.125-5.384-1.304c-.507-.354-3.31-1.647-6.961-3.785.407-5.059-.245-10.347-.245-15.343h25.167c.167 0-.031 8.719-.042 9.292z"/><path fill="#fc9" stroke="#D09D6A" stroke-width=".5" stroke-miterlimit="10" d="M140.63 40.742c-3.194-6.193-18.644-17.275-18.644-17.275l-12.125-1.171-12.124 1.171s-15.45 11.082-18.644 17.275c-3.193 6.192-.978 32.333-.978 32.333.586 18.251 25.097 29.268 26.661 30.441 1.564 1.174 5.084 1.305 5.084 1.305s3.521-.131 5.084-1.305c1.563-1.173 26.074-12.189 26.66-30.441.003-.001 2.218-26.141-.974-32.333z"/><path fill="#212121" d="M157.969 56.973s.131-8.213-3.65-14.341c-.782-20.077-10.69-29.725-10.69-29.725S132.154 0 110.904 0 88.35 12.255 88.35 12.255c-7.562 1.174-16.557 13.82-18.382 16.948-1.826 3.129-2.477 13.56-1.695 17.34.783 3.781 4.433 8.604 3.781 10.95-.652 2.348-3.521 7.17-3.912 9.518-.39 2.347-2.346 8.866 4.824 22.815 7.17 13.949 16.818 11.472 16.818 11.472-7.04-2.347-7.693-9.386-7.693-9.386 1.174 1.955 7.693 5.345 7.693 5.345-1.435-1.043-7.431-9.778-7.431-9.778.912 1.305 9.647 8.865 13.688 11.865.791.586 1.222.928 1.608 1.315l-.024-1.295c-8.179-4.599-13.74-16.036-17.55-23.617-3.34-6.643-2.559-13.229 2.079-20.744 4.637-7.515 10.713-21.267 10.713-21.267s41.412 19.348 46.051 27.788c4.241 9.342.798 17.145-.801 20.61-1.514 3.278-12.03 13.225-15.725 17.043l-.039 1.804c3.26-2.5 12.539-7.112 12.539-7.112 1.826 10.561 12.387 11.864 9.648 10.69-2.738-1.173-4.042-5.214-4.042-5.214 4.172 4.562 13.429 5.214 13.429 5.214-3.39-.781-6.389-5.605-7.17-9.517-.783-3.911 2.607-10.298 6.779-17.73 4.173-7.433 4.433-20.339 4.433-20.339z"/><path opacity=".1" fill="#fff" d="M128.648 19.054c7.615-2.633 6.576-5.804 11.254-9.961-1.105-.475-1.756-1.441-2.879-2.037-3.854 3.866-3.24 8.964-11.153 8.566-8.157-.411-13.567-2.743-20.631 3.606-8.054 7.238-10.556 3.629-19.421 2.773-8.413-.816-10.896 7.173-17.199 10.958-.048.923-.911 2.054-1.013 2.904 12.539-5.575 12.659-10.463 26.292-7.359 5.675 1.293 9.805-1.894 13.936-5.661 7.988-7.294 12.13-.738 20.814-3.789.388-.132-2.125.748 0 0z"/><radialGradient id="a" cx="140.129" cy="-29.564" r="14.196" gradientTransform="matrix(1 0 0 -1 -47.6 50.01)" gradientUnits="userSpaceOnUse"><stop offset="0" stop-color="#ED1C24"/><stop offset="1" stop-color="#ED1C24" stop-opacity="0"/></radialGradient><circle opacity=".1" fill="url(#a)" cx="92.529" cy="79.573" r="14.196"/><radialGradient id="b" cx="175.357" cy="-29.564" r="14.197" gradientTransform="matrix(1 0 0 -1 -47.6 50.01)" gradientUnits="userSpaceOnUse"><stop offset="0" stop-color="#ED1C24"/><stop offset="1" stop-color="#ED1C24" stop-opacity="0"/></radialGradient><circle opacity=".1" fill="url(#b)" cx="127.758" cy="79.573" r="14.197"/><path opacity=".1" fill="#fff" d="M120.34 29.289c3.28-.104 6.49.185 9.576 1.376 3.525 1.359 6.393 4.099 8.208 7.383 1.89 3.405 2.817 7.261 3.953 10.957 1.103 3.596 2.28 7.169 4.222 10.417 1.458 2.434 3.371 4.465 5.383 6.442-2.761-1.647-5.15-3.657-7.056-6.266-2.224-3.043-3.661-6.583-4.853-10.136-1.207-3.609-2.088-7.423-3.943-10.77-1.826-3.29-4.553-5.859-8.042-7.318-2.404-1.007-4.906-1.554-7.448-2.085z"/><path opacity=".5" d="M85.943 61.798s-1.176 5.752 7.097 4.349c6.83-1.852 8.456-2.71 10.81-2.576-.489-.556-1.45-.815-1.45-.815s-6.976 1.544-9.884 1.451c-2.912-.094-6.573-2.409-6.573-2.409zm1.827-1.563s3.257-6.013 9.586-5.379c5.112.27 6.694 1.763 6.694 1.763s-4.297-.498-5.108-.181c2.032.86 3.803 4.23 3.53 5.145-.278.916-4.75-2.928-4.75-2.928l-9.952 1.58zm16.626-1.318c1.904.336 1.931 3.418 0 3.744.496-1.362.485-2.398 0-3.744zM133.421 61.833s1.211 5.912-7.294 4.47c-7.021-1.905-8.693-2.786-11.113-2.647.504-.571 1.491-.837 1.491-.837s7.173 1.588 10.161 1.491c2.993-.098 6.755-2.477 6.755-2.477zm-1.876-1.607s-3.348-6.182-9.854-5.531c-5.256.277-6.883 1.812-6.883 1.812s4.418-.512 5.252-.186c-2.09.885-3.91 4.349-3.627 5.289.284.941 4.881-3.011 4.881-3.011l10.231 1.627zm-17.091-1.356c-1.959.345-1.986 3.514 0 3.849-.511-1.4-.499-2.466 0-3.849z" fill="#F6A76A"/><path opacity=".1" fill="#fff" d="M77.08 89.556c-.472.304-2.335-11.566-2.346-12.585-.054-5.555.748-11.046 1.396-16.549.532-4.532 1.183-9.022 2.759-13.333.346-.952 6.484-11.526 6.992-10.839-.765-1.189-7.516 9.583-7.882 10.496-1.753 4.361-2.488 8.945-3.074 13.579-.699 5.543-1.439 11.106-1.225 16.708.038.915 2.036 13.354 3.38 12.523"/><path fill="#1A1A1A" d="M101.828 54.379c-3.147-.277-5.976-1.514-9.016-2.208-1.679-.384-3.52-.57-5.214-.167a6.012 6.012 0 0 0-2.034.917c-.083.054-1.044.761-.611.193 2.419-2.809 6.134-2.735 9.547-2.309 1.809.226 3.481.711 5.068 1.624.313.175 2.619 1.471 2.26 1.95z"/><path fill="#D9AA8E" d="M103.023 62.628s-2.743-6.817-8.649-6.994c-7.179-.212-7.671 6.12-7.129 4.833 0 0 3.278-3.144 9.294-1.542 4.849 1.29 6.484 3.703 6.484 3.703z"/><path fill="#EACBBA" d="M93.695 56.074s-2.642.11-3.88.957c-1.237.841-1.767 2.347-1.767 2.347s2.671-.766 3.01-1.639c.316-.807 2.637-1.665 2.637-1.665z"/><path fill="#C78A66" d="M101.761 61.416c-1.366-2.381-2.675-3.822-4.73-4.882-1.155-.594-1.761-.671-1.761-.671s1.666.613 1.852 1.301c.144.537-1.13 1.098-1.13 1.098 1.669.783 2.054.854 3.103 1.316.709.315 2.666 1.838 2.666 1.838z"/><path fill="#fff" d="M87.254 60.749s.299 3.392 5.734 3.76c5.421.368 9.999-2.151 9.999-2.151s-2.945-3.385-8.36-3.803c-5.418-.417-7.373 2.194-7.373 2.194z"/><radialGradient id="c" cx="134.411" cy="143.553" r="2.845" gradientTransform="matrix(1 -.01 -.01 -1 -38.717 206.08)" gradientUnits="userSpaceOnUse"><stop offset="0" stop-color="#28353D"/><stop offset=".508" stop-color="#27323B"/><stop offset=".809" stop-color="#222A33"/><stop offset="1" stop-color="#1D2029"/></radialGradient><path fill="url(#c)" d="M94.071 58.672c-1.355-.186-2.077-.122-2.385.33a3.058 3.058 0 0 0 2.554 4.782 3.058 3.058 0 0 0 2.804-4.214c-.2-.487-1.943-.755-2.973-.898z"/><path fill="#212121" d="M92.542 60.607a1.652 1.652 0 1 0 1.635-1.67 1.656 1.656 0 0 0-1.635 1.67z"/><g fill="#fff"><circle cx="91.814" cy="60.524" r=".608"/><path d="M92.987 60.323a.492.492 0 0 0 .667-.208.493.493 0 0 0-.208-.668.5.5 0 0 0-.669.206.498.498 0 0 0 .21.67z"/></g><path fill="#1A1A1A" d="M102.987 62.358s-3.425-4.729-10.331-5.032c-5.486-.246-7.455 2.894-7.455 2.894l2.065.646s2.27-2.267 6.183-2.154c5.145.142 8.813 2.956 9.538 3.646z"/><path fill="#B76B2C" d="M101.779 62.967s-6.423 2.621-11.312.927c-2.49-.862-3.098-2.47-3.098-2.47s.314 2.657 3.708 3.185c5.741.888 10.702-1.642 10.702-1.642z"/><path fill="#1A1A1A" d="M116.848 54.045c2.172-1.829 4.997-2.534 7.761-2.743 1.775-.135 3.59-.244 5.356.053.896.15 1.804.403 2.6.851.143.08 1.533 1.08 1.379 1.241-.179.302-.718-.326-.912-.436-.668-.376-1.42-.547-2.177-.62-1.872-.179-3.803.095-5.625.516-1.737.4-3.394.929-5.173 1.147-.405.049-3.109.547-3.209-.009z"/><path fill="#D9AA8E" d="M116.529 62.456s2.871-6.766 8.779-6.83c7.185-.079 7.555 6.261 7.037 4.965 0 0-3.217-3.205-9.262-1.717-4.872 1.2-6.554 3.582-6.554 3.582z"/><path fill="#EACBBA" d="M125.977 56.078s2.643.159 3.863 1.028c1.223.865 1.723 2.38 1.723 2.38s-2.655-.815-2.979-1.695c-.298-.813-2.607-1.713-2.607-1.713z"/><path fill="#C78A66" d="M117.816 61.267c1.408-2.356 2.744-3.771 4.818-4.793 1.166-.574 1.773-.639 1.773-.639s-1.676.583-1.876 1.267c-.154.535 1.11 1.119 1.11 1.119-1.685.751-2.07.814-3.127 1.257-.715.301-2.698 1.789-2.698 1.789z"/><path fill="#fff" d="M132.33 60.871s-.359 3.386-5.803 3.654c-5.428.266-9.957-2.339-9.957-2.339s3.008-3.329 8.432-3.644c5.423-.318 7.328 2.329 7.328 2.329z"/><path fill="#B76B2C" d="M117.816 62.967s6.422 2.621 11.311.927c2.49-.862 3.098-2.47 3.098-2.47s-.313 2.657-3.707 3.185c-5.743.888-10.702-1.642-10.702-1.642z"/><radialGradient id="d" cx="-294.339" cy="-138.47" r="2.844" gradientTransform="matrix(-1 -.029 .029 -1 -164.874 -85.727)" gradientUnits="userSpaceOnUse"><stop offset="0" stop-color="#28353D"/><stop offset=".508" stop-color="#27323B"/><stop offset=".809" stop-color="#222A33"/><stop offset="1" stop-color="#1D2029"/></radialGradient><path fill="url(#d)" d="M125.553 58.667c1.357-.161 2.081-.083 2.379.375.334.502.52 1.112.5 1.764a3.052 3.052 0 0 1-3.144 2.968 3.056 3.056 0 0 1-2.724-4.268c.209-.481 1.957-.715 2.989-.839z"/><path fill="#212121" d="M127.046 60.63a1.65 1.65 0 1 1-3.3-.095 1.646 1.646 0 0 1 1.695-1.604 1.654 1.654 0 0 1 1.605 1.699z"/><path d="M122.917 61.105c.3.15.666.026.817-.273a.609.609 0 1 0-.817.273zm1.442-.766a.496.496 0 1 0 0 0z" fill="#fff"/><path fill="#1A1A1A" d="M116.57 62.186s3.515-4.663 10.424-4.837c5.488-.144 7.4 3.033 7.4 3.033l-2.078.606s-2.227-2.31-6.141-2.27c-5.146.046-8.866 2.792-9.605 3.468z"/><path fill="#AE8879" d="M108.201 80.919l.301.245a9.702 9.702 0 0 0-.918-.884c-.175-.143-1.4-.975-1.618-.621-.032.051 1.06.457 1.139.494.383.148.799.485 1.096.766z"/><path opacity=".2" fill="#F5B1A2" d="M106.551 80.217c-.813.886 1.807 2.094 2.443 1.992-.093-.757-1.531-2.991-2.443-1.992z"/><path opacity=".32" fill="#F5B1A2" d="M114.796 81.113c-.724-1.921-2.438-1.487-4.047-1.22-.919.152-1.677.037-2.569-.202-.924-.246-1.889-.328-2.574.457-.511.585.57.691.942.812.892.285 1.524.955 2.327 1.414 2.16 1.236 3.719-1.45 5.921-1.261-.039-.104-.846-.072 0 0z"/><path fill="#AE8879" d="M111.4 81.055l-.321.216c.323-.285.635-.566.989-.808.17-.116 1.521-.848 1.668-.479.021.042-1.094.363-1.174.39-.396.137-.839.416-1.162.681z"/><path opacity=".2" fill="#F5B1A2" d="M107.536 81.606c-.531-.561-1.32-1.115-2.136-.925.763-1.344 2.967.923 3.759 1.151.979.286 1.897-.15 2.755-.577.984-.49 1.938-.649 2.975-.21-.619.195-1.178.13-1.793.43-.654.319-1.24.75-1.882 1.096-1.428.762-2.652.126-3.678-.965zm5.582-1.217c.815.885-1.804 2.093-2.44 1.993.092-.757 1.53-2.991 2.44-1.993z"/><path opacity=".5" fill="#F6A76A" d="M110.227 82.905s-.026 2.522-1.333 2.468c-1.304-.056.356.429 1.146.212.79-.213.838-.602.187-2.68zM114.32 79.964s1.158-.436.933-1.574c-.226-1.138-.856-1.703-.856-1.703s.938.785 1.043 1.936c.104 1.148-1.12 1.341-1.12 1.341zm-8.916-.085s-1.16-.436-.933-1.573c.226-1.137.857-1.702.857-1.702s-.94.785-1.044 1.933c-.103 1.151 1.12 1.342 1.12 1.342z"/><path opacity=".3" fill="#FDE9D7" d="M113.609 74.707s-.676-.29-.897-1.458c-.221-1.17-1.121-3.264-1.571-.538-.449 2.726-.334 4.09.648 3.742 1.445-.511 2.387-.138 2.439-.771.036-.401-.203-.767-.619-.975z"/><path fill="#B54A37" d="M106.742 87.572c4.211.401 10.294.26 12.186-.845 0 0-.701 1.857-1.725 3.259-1.411 1.933-3.646 2.491-7.392 2.415-5.766-.12-5.978.262-7.739-3.1-.212-.407-1.367-2.683-1.962-3.382.001 0 2.486 1.259 6.632 1.653z"/><path fill="#fff" d="M116.798 88.693c-2.879 2.059-9.768 2.575-13.572.326-.282-.167-.52-.933-1.528-1.693l16.275-.631-1.175 1.998z"/><path fill="#FF5D47" d="M117.934 88.229c-.818 1.159-3.527 3.408-8.186 3.373-4.656.036-7.455-2.608-8.272-3.767-.348-.483-1.056-1.4-1.056-1.4.445 1.13 1.118 2.821 1.823 4.004 1.15 1.911 2.222 2.654 3.119 3.203a8.546 8.546 0 0 0 4.342 1.205h.087c1.605 0 3.16-.487 4.343-1.205.897-.548 1.97-1.288 3.118-3.198.707-1.185 1.379-2.877 1.824-4.007 0-.001-.799 1.309-1.142 1.792z"/><path opacity=".58" fill="#fff" d="M112.678 93.286s-.301-1.011-.027-1.439c.217-.337 1.474-.542 1.513-.296.108.677.696 1.361.065 1.686-.625.319-1.347.465-1.551.049z"/><path opacity=".43" fill="#fff" d="M110.943 93.623s-.31-1.174.226-1.251c.538-.079 1.005-.089 1.013.156.012.25.385 1.42-.082 1.496-.713.115-1.009.028-1.157-.401z"/><path fill="#FF5D47" d="M119.63 85.903c-.37.275-1.106.537-2.631.349-2.916-.364-5.237-.27-7.225-.093-2.031-.262-4.413-.302-7.242.021-1.523.175-2.26-.096-2.627-.374 1.977 2.406 6.052 2.839 9.804 2.815v-.033h.087v.033c3.751.061 7.83-.331 9.834-2.718z"/><path fill="#B54A37" d="M119.907 85.627c-.474.172-1.026.835-1.026.835-1.352 1.588-6.148 1.979-7.475 1.972-.406-.001-.94.023-1.544.044-.605-.021-1.138-.046-1.546-.044-1.325.007-6.123-.383-7.473-1.972 0 0-.553-.663-1.026-.835-.655-.241-.959-.026-.41.318.191.12.541-.103 1.102.692.848 1.205 3.99 1.789 5.975 1.992 1.001.101 2.186.162 3.378.185a43.08 43.08 0 0 0 3.376-.185c1.986-.203 5.129-.787 5.977-1.992.561-.794.91-.572 1.102-.692.55-.344.246-.559-.41-.318z"/><path opacity=".5" fill="#F6A76A" d="M98.995 81.889c-2.105-.584-3.501 2.9-4.647 4.116-.049-1.334.535-2.756 1.449-3.721.752-.796 2.413-1.618 3.198-.395zm21.345-.488c2.105-.584 3.502 2.899 4.646 4.116.05-1.337-.534-2.757-1.448-3.721-.752-.796-2.413-1.619-3.198-.395z"/><circle fill="#FBB03B" cx="79.917" cy="7.755" r="3.158"/><path stroke="#FBB03B" stroke-miterlimit="10" fill="none" d="M79.917 7.754l10.701 6.854"/><ellipse transform="rotate(-102.36 79.469 5.69)" opacity=".3" fill="#fff" cx="79.467" cy="5.704" rx=".368" ry="1.235"/><circle fill="#FBB03B" cx="86.874" cy="4.87" r="3.157"/><path stroke="#FBB03B" stroke-miterlimit="10" fill="none" d="M86.875 4.87L85.78 17.531"/><ellipse transform="rotate(-102.36 86.443 2.816)" opacity=".3" fill="#fff" cx="86.43" cy="2.844" rx=".37" ry="1.235"/><path fill="#fff" d="M125.021 112.516l-1.166-2.881 20.381 3.351 11.905 43.427-18.006-13.017-29.614 25.465 28.069-44.354-6.238-5.226-3.223-3.265zm-29.955.153l1.348-3.034-20.55 3.351-11.904 43.427 18.006-13.017 29.615 25.465-28.084-44.354 6.112-5.475 3.213-2.973z"/><path opacity=".5" fill="#F6A76A" d="M96.414 131.075c3.114-.622 6.226-1.023 9.391-1.279.395-.032 1.154-.271 1.455.013.115.123.184.373.255.522.484 1.022 1.361 1.887 2.563 1.812 1.111-.072 1.984-.922 2.572-1.804.08-.12.145-.287.24-.394.211-.428.897-.176 1.239-.146 3.095.265 6.138.663 9.181 1.274-1.594-.09-3.187-.225-4.773-.383-1.764-.178-3.561-.148-5.329-.254.117-.024.25-.032.312-.162-.625 1.222-1.804 2.516-3.264 2.625-1.737.133-3.041-1.106-3.584-2.686.032.118.241.191.344.208-1.765.099-3.53.16-5.292.22-1.767.177-3.539.338-5.31.434.872-.173.888-.048 0 0z"/><circle fill="#FBB03B" cx="78.333" cy="67.856" r="2.298"/><ellipse transform="rotate(-102.36 77.997 66.357)" opacity=".3" fill="#fff" cx="78.008" cy="66.366" rx=".267" ry=".899"/><circle fill="#FBB03B" cx="140.455" cy="67.856" r="2.298"/><ellipse transform="rotate(-102.36 140.13 66.349)" opacity=".3" fill="#fff" cx="140.131" cy="66.366" rx=".267" ry=".899"/></svg>