<svg xmlns="http://www.w3.org/2000/svg" width="220" height="220" viewBox="0 0 220 220"><path fill="#fc9" stroke="#D09D6A" stroke-width=".5" stroke-miterlimit="10" d="M41.604 150.632l2.344-2.186c.749-.718.707-1.892-.068-2.576l-5.869-5.165c-.642-.564-1.339-.52-1.938.092l-2.374 2.697c-.385.439-1.303.531-1.882.439l-1.897-.292-5.754-.875c-1.061-.154-2.001.574-2.156 1.634l.003.063c-.125 1.027.607 2.033 1.667 2.188l1.639.244c.741.114.953.958.448 1.532.688-.712-2.506 2.849-2.506 2.849-.772.875-1.096 2.267-.067 2.935.859.517 2.143.148 2.766-.56l-1.056 1.2a1.883 1.883 0 0 0 .407 2.869c.83.554 1.668.213 2.292-.495l.889-1.011c-.77.874-.5 2.609.529 3.275.798.523 1.885.103 2.508-.606l1.188-1.349c-.772.875-.767 1.959.2 2.629a1.985 1.985 0 0 0 2.588-.356l.356-.403c-.001.001 1.818-1.931 5.743-8.772zm141.807 9.816l.356.402a1.984 1.984 0 0 0 2.588.357c.966-.671.972-1.754.199-2.63l1.188 1.351c.623.707 1.71 1.128 2.508.605 1.029-.667 1.3-2.401.528-3.277l.891 1.014c.622.706 1.461 1.047 2.291.495 1.03-.666 1.179-1.994.406-2.869l-1.056-1.201c.624.709 1.906 1.076 2.767.56 1.029-.667.704-2.059-.067-2.936 0 0-3.194-3.561-2.507-2.848-.505-.573-.293-1.418.448-1.531l1.638-.246c1.061-.155 1.794-1.159 1.669-2.187l.003-.064c-.154-1.059-1.095-1.787-2.155-1.634l-5.755.876-1.896.292c-.58.09-1.498-.001-1.884-.438l-2.375-2.697c-.597-.612-1.295-.657-1.936-.093l-5.869 5.165c-.775.683-.818 1.857-.068 2.575l2.344 2.186c3.925 6.84 5.744 8.773 5.744 8.773zm-63.382-65.731s-24.946 4.627-21.025 0c2.533-2.989 3.147-9.483 3.268-13.704.066-2.307-.014-3.934-.014-3.934s18.238-10.11 16.09 0a29.352 29.352 0 0 0-.579 4.161c-.547 7.941 2.26 13.477 2.26 13.477z"/><path opacity=".5" fill="#F6A76A" d="M118.348 77.746a29.345 29.345 0 0 0-.579 4.162c-3.734.986-6.295 1.759-7.322 1.759-1.046 0-3.94-.899-8.175-1.986.066-2.308-.014-3.935-.014-3.935s18.238-10.108 16.09 0z"/><path fill="#fc9" stroke="#D09D6A" stroke-width=".5" stroke-miterlimit="10" d="M156.305 42.907c-5.158-10.217-9.622-5.213-10.367-4.256.406-2.806 1.162-12.157-4.926-20.993C129.99 3.662 112.774 3.468 109.45 3.567c-3.324-.1-20.538.095-31.56 14.091-6.088 8.835-5.332 18.187-4.927 20.993-.744-.958-5.209-5.961-10.366 4.256-2.59 7.088 5.122 12.945 6.979 14.23.008.499.035.976.088 1.422.766 6.479 2.679 16.287 23.528 19.433 8.593 1.486 14.711 3.714 16.258 3.714 1.634 0 7.664-2.229 16.258-3.714 20.849-3.146 22.762-12.954 23.527-19.433.053-.446.08-.924.089-1.422 1.858-1.283 9.571-7.141 6.981-14.23z"/><path fill="#FFB679" d="M67.405 41.261c-1.864.084-1.12 5.333-.774 7.181.348 1.844 2.123 2.866 3.176 2.451 1.049-.411 1.382-3.177.266-3.279-1.116-.103-1.775-.816-1.246-1.538.532-.719.893-4.921-1.422-4.815zm84.092 0c1.863.084 1.12 5.333.773 7.181-.347 1.844-2.122 2.866-3.175 2.451-1.048-.411-1.383-3.177-.266-3.279 1.116-.103 1.774-.816 1.246-1.538-.532-.719-.892-4.921 1.422-4.815z"/><path opacity=".5" fill="#4F4849" d="M89.682 36.594c8.822-2.662 10.471 1.541 11.396 2.903-.432.138-7.227-3.006-7.65-2.839-2.19.84-4.306 1.899-5.885 2.683-.421.211-.673.735-1.009.9.728-1.33 2.233-3.371 3.148-3.647z"/><path fill="#B76B2C" d="M100.412 45.829s-6.086 3.45-10.829 1.625c-2.416-.927-3.05-2.842-3.05-2.842s.114 2.979 3.657 3.675c5.509 1.083 10.222-2.458 10.222-2.458z"/><path fill="#fff" d="M102.161 42.501c0 3.311-3.605 5.992-8.059 5.992-4.448 0-8.053-2.681-8.053-5.992 0-1.808 1.071-3.426 2.774-4.523 1.414-.914 3.258-1.468 5.278-1.468 2.05 0 3.918.566 5.338 1.502 1.668 1.096 2.722 2.697 2.722 4.489z"/><path fill="#9E9E79" d="M94.104 48.41c-3.297 0-5.979-2.65-5.979-5.908 0-3.258 2.683-5.908 5.979-5.908 3.298 0 5.98 2.649 5.98 5.908.001 3.258-2.682 5.908-5.98 5.908z"/><path fill="#4F4849" d="M94.104 46.174c-2.058 0-3.73-1.646-3.73-3.672s1.673-3.671 3.73-3.671 3.73 1.646 3.73 3.671-1.673 3.672-3.73 3.672z"/><path d="M89.048 43.347a.62.62 0 0 0 .677-1.037.62.62 0 0 0-.677 1.037zm1.547-.609a.504.504 0 1 0 .546-.844.504.504 0 0 0-.546.844z" fill="#fff"/><path fill="#F9AE87" d="M101.369 34.171s-11.405-4.709-18.621 5.044c0 .001 6.224-13.896 18.621-5.044z"/><path opacity=".5" fill="#4F4849" d="M131.408 36.594c-8.822-2.662-10.47 1.541-11.395 2.903.432.138 7.227-3.006 7.651-2.839 2.19.84 4.305 1.899 5.884 2.683.42.211.673.735 1.009.9-.727-1.33-2.234-3.371-3.149-3.647z"/><path fill="#B76B2C" d="M120.68 45.829s6.085 3.45 10.828 1.625c2.416-.927 3.05-2.842 3.05-2.842s-.115 2.979-3.658 3.675c-5.509 1.083-10.22-2.458-10.22-2.458z"/><path fill="#fff" d="M118.929 42.501c0 3.311 3.606 5.992 8.059 5.992 4.448 0 8.055-2.681 8.055-5.992 0-1.808-1.073-3.426-2.775-4.523-1.414-.914-3.257-1.468-5.279-1.468-2.05 0-3.917.566-5.337 1.502-1.669 1.096-2.723 2.697-2.723 4.489z"/><path fill="#9E9E79" d="M126.986 48.41c3.297 0 5.979-2.65 5.979-5.908 0-3.258-2.683-5.908-5.979-5.908-3.298 0-5.98 2.649-5.98 5.908 0 3.258 2.682 5.908 5.98 5.908z"/><path fill="#4F4849" d="M126.986 46.174c2.057 0 3.73-1.646 3.73-3.672s-1.674-3.671-3.73-3.671c-2.058 0-3.731 1.646-3.731 3.671s1.674 3.672 3.731 3.672z"/><path d="M132.043 43.347a.62.62 0 0 1-.676-1.037.62.62 0 0 1 .676 1.037zm-1.546-.609a.503.503 0 1 1-.55-.841.503.503 0 0 1 .55.841z" fill="#fff"/><path fill="#F9AE87" d="M119.721 34.171s11.405-4.709 18.622 5.044c0 .001-6.225-13.896-18.622-5.044z"/><path fill="#FFE9C7" d="M111.483 47.666c-1.644-.481-3.228.331-4.146.848-1.192.67-2.652 1.615-1.961 3.152.5 1.111 5.923.482 6.432.378 1.575-.325 3.064-1.766 1.334-3.398-.545-.511-1.105-.818-1.659-.98z"/><path opacity=".5" d="M114.503 54.694s1.334-.496 1.075-1.794c-.26-1.301-.985-1.946-.985-1.946s1.079.897 1.198 2.207c.12 1.316-1.288 1.533-1.288 1.533zm-10.178.095s-1.395-.521-1.121-1.879c.273-1.359 1.033-2.034 1.033-2.034s-1.131.936-1.256 2.31c-.127 1.372 1.344 1.603 1.344 1.603z" fill="#F6A76A"/><path opacity=".32" fill="#F5B1A2" d="M115.928 54.56c-1.007-2.675-3.396-2.071-5.633-1.7-1.28.211-2.337.049-3.579-.281-1.282-.343-2.628-.457-3.583.635-.71.814.795.963 1.313 1.129 1.241.397 2.122 1.331 3.239 1.969 3.005 1.721 5.177-2.018 8.243-1.752-.055-.146-1.177-.103 0 0z"/><path fill="#AE8879" d="M106.749 54.289l.418.339c-.414-.432-.812-.852-1.277-1.229-.246-.2-1.95-1.355-2.253-.863-.045.067 1.474.633 1.585.686.531.208 1.113.672 1.527 1.067zm4.451.189l-.445.298c.45-.397.883-.784 1.379-1.124.233-.159 2.116-1.182 2.317-.665.032.053-1.521.506-1.634.545-.55.188-1.166.575-1.617.946z"/><path opacity=".2" fill="#F5B1A2" d="M105.819 55.247c-.739-.782-1.836-1.557-2.973-1.291 1.062-1.868 4.13 1.287 5.233 1.607 1.361.394 2.643-.212 3.836-.806 1.37-.681 2.696-.904 4.139-.292-.86.269-1.639.182-2.492.596-.913.448-1.729 1.048-2.623 1.526-1.985 1.062-3.69.175-5.12-1.34zm7.776-1.695c1.135 1.233-2.515 2.912-3.399 2.773.127-1.055 2.129-4.166 3.399-2.773zm-9.144-.242c-1.135 1.236 2.514 2.916 3.399 2.776-.127-1.055-2.129-4.165-3.399-2.776z"/><path fill="#F9AE87" d="M120.687 60.589c-.534.213-1.162 1.033-1.162 1.033-1.53 1.963-6.972 2.444-8.475 2.438-.461 0-1.064.028-1.752.056-.688-.028-1.292-.056-1.751-.056-1.504.006-6.945-.475-8.475-2.438 0 0-.628-.82-1.164-1.033-.742-.296-1.088-.033-.465.396.217.148.614-.128 1.249.854.962 1.489 4.523 2.214 6.776 2.463 1.133.126 2.479.2 3.829.23a45.008 45.008 0 0 0 3.829-.23c2.253-.249 5.815-.974 6.777-2.463.635-.981 1.031-.705 1.248-.854.624-.429.279-.693-.464-.396z"/><path fill="#B54A37" d="M119.287 62.413c-.478 1.314-1.137 3.082-1.838 4.349l-.271.471c-1.137 1.915-2.203 2.711-3.104 3.305a8.653 8.653 0 0 1-4.695 1.425h-.094a8.673 8.673 0 0 1-4.701-1.425c-.783-.518-1.686-1.184-2.651-2.598-.235-.342-.477-.73-.725-1.178-.766-1.391-1.49-3.381-1.973-4.72.028.042 1.596-.094 2.402-.193 2.01-.249 3.807-.313 5.426-.235.784.029 1.526.094 2.228.188h.006l.177.023a37.044 37.044 0 0 1 2.05-.147 31.045 31.045 0 0 1 5.773.26c1.648.222 2.303.21 1.99.475z"/><path fill="#FF5D47" d="M117.178 67.232c-1.137 1.915-2.203 2.711-3.104 3.305a8.653 8.653 0 0 1-4.695 1.425h-.094a8.673 8.673 0 0 1-4.701-1.425c-.783-.518-1.686-1.184-2.651-2.598 1.915-.915 5.055-1.503 8.607-1.503 2.515.001 4.823.303 6.638.796z"/><path fill="#fff" d="M109.296 61.801v1.543c0 .325-.26.59-.589.59h-1.055a.591.591 0 0 1-.59-.59v-1.731c.784.029 1.526.094 2.228.188h.006zm2.226-.125v1.668c0 .325-.26.59-.59.59h-1.054a.59.59 0 0 1-.589-.59v-1.543l.183.023a38.16 38.16 0 0 1 2.05-.148z"/><ellipse transform="rotate(13.7 92.267 50.787)" fill="#fc9" cx="92.398" cy="50.876" rx="9.865" ry="4.701"/><ellipse transform="scale(-1) rotate(-13.7 -423.37 1079.055)" fill="#fc9" cx="129.719" cy="50.876" rx="9.865" ry="4.701"/><radialGradient id="a" cx="85.778" cy="59.132" r="16.206" gradientUnits="userSpaceOnUse"><stop offset="0" stop-color="#ED1C24"/><stop offset="1" stop-color="#ED1C24" stop-opacity="0"/></radialGradient><circle opacity=".15" fill="url(#a)" cx="85.778" cy="59.131" r="16.205"/><radialGradient id="b" cx="132.324" cy="59.132" r="16.206" gradientUnits="userSpaceOnUse"><stop offset="0" stop-color="#ED1C24"/><stop offset="1" stop-color="#ED1C24" stop-opacity="0"/></radialGradient><circle opacity=".15" fill="url(#b)" cx="132.324" cy="59.131" r="16.206"/><path opacity=".5" d="M97.12 57.259c-1.03-.199-1.736.487-2.331 1.25-.68.791-1.174 1.742-1.899 2.495-.054-1.146.447-2.419 1.208-3.265.727-.808 2.2-1.618 3.022-.48zm24.756.278c1.03-.196 1.73.483 2.325 1.247.68.791 1.174 1.734 1.895 2.491.058-1.144-.445-2.417-1.204-3.259-.729-.81-2.189-1.61-3.016-.479z" fill="#F6A76A"/><path d="M96.751 5.215C98 3.117 99.759 1.67 101.703.751c2.29-1.141 4.687-.86 6.629.025 1.838 1.111 3.397 2.917 3.764 5.455.339 2.094.147 4.424-.897 6.611-.71-1.318-1.314-2.771-2.222-3.93-.965-1.24-2.14-2.368-3.53-2.984-1.409-.626-2.876-1.026-4.478-1.121-.76-.043-1.547.025-2.327.1l-1.891.308zm26.888 2.055a13.297 13.297 0 0 0-4.64-4.736c-2.096-1.324-4.209-1.325-5.888-.708-1.573.839-2.86 2.364-3.051 4.706-.187 1.93.108 4.139 1.155 6.308.559-1.16 1.019-2.457 1.762-3.445.791-1.058 1.772-1.987 2.975-2.415a9.693 9.693 0 0 1 3.917-.555c.674.042 1.376.192 2.074.348l1.696.497z" fill="#FFED4B"/><path fill="#DCA979" d="M188.649 144.796l-.017.025-9.329 9.63-.528.546a.435.435 0 0 1-.303.134.426.426 0 0 1-.26-.093l-33.324-25.952c1.04 5.692 4.861 28.698 3.736 54.667-.186 4.249-.294 8.505-.412 12.628-.234 8.497-.453 16.599-1.226 23.618H118.23c-.303-5.164-.219-10.479-.151-15.138.059-4.349.117-8.094-.151-10.579-1.226-11.259-3.241-14.702-8.614-14.744-5.407 0-7.447 3.417-8.816 14.626-.302 2.477-.302 6.23-.294 10.579.009 4.693.018 10.05-.369 15.256H71.287c-.688-6.977-.78-15.054-.882-23.526-.05-4.324-.108-8.791-.243-13.249-.772-26.18 3.493-49.588 4.534-54.844l-34.021 25.768a.477.477 0 0 1-.252.084.445.445 0 0 1-.311-.134l-.345-.37-9.303-10-.008-.009a.432.432 0 0 1-.051-.512c.118-.176 11.26-17.707 25.961-34.139 14.786-16.532 18.992-17.019 19.16-17.036l22.88-4.71 3.35-2.611a.428.428 0 0 1 .261-.092l.042.008.185.059c.017.017 1.041.689 2.661 1.344 1.629.672 3.862 1.327 6.314 1.327 2.309 0 4.458-.588 6.389-1.738l.177-.05.033-.008c.076 0 .144.017.202.059l3.938 2.175 22.586 4.71a.46.46 0 0 1 .243.151c1.503.596 6.466 3.451 18.38 17.137 14.475 16.625 25.415 34.34 25.524 34.517a.415.415 0 0 1-.042.486z"/><path fill="#FFC48C" d="M148.205 183.737c-.563 12.956-.487 25.835-1.646 36.263H118.65c-.588-9.991.252-20.579-.311-25.759-1.234-11.36-3.316-15.08-9.026-15.122-5.709-.034-7.851 3.661-9.235 14.996-.639 5.197.066 15.869-.664 25.885H71.69c-1.024-10.529-.714-23.618-1.108-36.792-.252-8.572.025-16.826.563-24.231.135-1.897.285-3.745.453-5.524 1.428-15.474 3.729-26.079 3.729-26.079 9.487-15.65.235-34.92.235-34.92l23.021-4.744c.849.781 1.73 1.461 2.637 2.065 5.433 3.594 11.813 3.929 17.363.755a18.882 18.882 0 0 0 3.224-2.334l22.645 4.719-.024.059c-.571 1.175-9.186 19.597-.21 34.861l.05.235v.008c.328 1.679 2.217 11.771 3.325 25.894h.009l.075 1.066c.101 1.369.201 2.771.285 4.207l.018.251c.426 7.415.594 15.669.225 24.241z"/><path fill="#EFFAB4" d="M75.562 92.455s-4.04.3-18.883 16.896c-14.844 16.595-25.915 34.082-25.915 34.082l9.657 10.378 34.905-26.439c9.49-15.65.236-34.917.236-34.917z"/><path fill="#FF9F80" d="M40.421 153.812l3.379-2.56-10.594-11.524c-1.642 2.171-2.442 3.706-2.442 3.706l9.657 10.378z"/><path fill="#EFFAB4" d="M144.195 92.918s4.034.355 18.653 17.15c14.619 16.793 25.486 34.461 25.486 34.461l-9.862 10.178-34.513-26.87c-9.278-15.776.236-34.919.236-34.919z"/><path fill="#FF9F80" d="M178.473 154.708l-3.175-2.472 10.843-11.14c1.487 2.236 2.194 3.434 2.194 3.434l-9.862 10.178zm-56.665-66.513l-3.987-2.211c-7.592 4.522-15.807-.943-15.807-.943l-3.429 2.673c6.939 6.374 16.198 6.761 23.223.481z"/><g fill="#FF9F80"><circle cx="110.523" cy="98.778" r="1.418"/><circle cx="110.391" cy="115.06" r="1.418"/><circle cx="110.259" cy="131.343" r="1.418"/></g><path fill="#EFFAB4" d="M147.601 153.974c-.063-.024-6.772-2.588-9.432-7.389-3.851-6.951-7.103-9.398-28.459-9.541-21.357-.145-24.642 2.258-28.585 9.155-2.724 4.766-9.468 7.229-9.529 7.251l-.454 5.527c.315-.116 10.216-4.219 13.772-10.438 2.684-4.694 4.03-7.052 24.765-6.912 20.734.142 22.051 2.515 24.671 7.246 3.471 6.267 13.315 10.503 13.629 10.621l-.378-5.52z"/></svg>