<svg xmlns="http://www.w3.org/2000/svg" width="220" height="220" viewBox="0 0 220 220"><path fill="#1A1A1A" d="M45.759 188.789c8.349.357 15.19-1.778 15.28-4.766.09-2.992-6.603-5.703-14.955-6.056-8.349-.358-15.186 1.777-15.276 4.767-.091 2.991 6.598 5.7 14.951 6.055z"/><path fill="#FEBC84" d="M150.169 218.475l-80.674.574-4.97-79.287 89.479-.639z"/><path fill="#fc9" stroke="#D09D6A" stroke-width=".5" stroke-miterlimit="10" d="M181.518 141.002l-12.795.92-61.105 4.402-57.909-3.516-12.66-.776c-.042-5.906.451-10.354 1.355-13.824 1.989-7.776 5.964-10.635 10.223-13.863 6.172-4.657 12.693-4.932 26.596-6.593 3.269-.39 6.143-1.622 8.582-2.86 3.372-1.708 5.813-4.02 7.602-6.34 2.098-2.71 3.083-7.965 3.06-11.345l-.097-13.559 28.146-.201.096 13.558c.025 3.38 1.441 8.619 3.574 11.299 1.795 2.257 4.397 4.692 7.685 6.402 2.476 1.287 5.467 2.688 8.896 2.773 13.883 1.378 20.517 1.434 26.752 6.003 4.285 3.143 8.271 5.934 10.391 13.557.969 3.472 1.565 7.971 1.608 13.963z"/><path fill="#1A1A1A" d="M173.471 187.648c-8.341.477-15.212-1.562-15.344-4.545-.135-2.992 6.52-5.797 14.864-6.271 8.343-.477 15.211 1.561 15.343 4.549.135 2.989-6.518 5.793-14.863 6.267z"/><path fill="#fc9" stroke="#D09D6A" stroke-width=".5" stroke-miterlimit="10" d="M149.986 134.725l2.77 12.477 5.09 22.955 1.971 10.273.418 2.17 6.863 35.756.111.597 4.83-.254 20.619-1.085c-3.93-7.174-6.186-22.071-7.489-36.863l-.207-2.525c-1.547-19.209-1.539-37.467-1.539-37.467l-33.437-6.034z"/><path fill="#FFB679" d="M152.756 147.201l5.09 22.953 9.252 48.199 3.467-.025-.043-.219c-.688-2.851-7.801-32.733-7.914-48.756-.119-16.815-4.043-21.547-8.695-23.553-.448-.191-.827.313-1.157 1.401zm7.058 33.229l.418 2.17c2.584-1.703 7.32-3.019 12.775-3.326 4.934-.278 9.354.312 12.16 1.477l-.207-2.525c-2.816-1.103-7.152-1.67-11.971-1.392-5.751.333-10.697 1.76-13.175 3.596z"/><path fill="#fc9" stroke="#D09D6A" stroke-width=".5" stroke-miterlimit="10" d="M68.486 135.534l-2.591 12.516-4.762 23.025-1.823 10.302-.387 2.174-6.355 35.85-.1.6-4.835-.186L27 219.023c3.828-7.229 5.871-22.156 6.964-36.965l.171-2.529c1.273-19.229 1.004-37.483 1.004-37.483l33.347-6.512z"/><path fill="#FFB679" d="M65.896 148.05l-4.764 22.91-8.564 48.211-3.466.022.041-.104c.649-2.859 7.334-32.783 7.22-48.808-.121-16.815 3.732-21.574 8.358-23.646.443-.196.828.332 1.175 1.415z"/><path fill="#FFF793" d="M60.942 184.575l.073-.294-.031.293-.042.001z"/><path fill="#2E3A00" stroke="#213000" stroke-width=".5" stroke-miterlimit="10" d="M183.373 133.84c-.645-4.035-1.543-6.883-1.543-6.883l-.047.057c-2.176-7.613-2.58-9.222-6.975-12.361-6.4-4.565-19.111-6.317-33.361-7.694-3.516-.084-5.953-1.758-8.495-3.045-.608 1.017-2.41 3.771-3.136 4.704l-.021.023c-5.347 6.519-12.803 11.221-20.738 11.277h-.031c-7.935.058-15.457-4.538-20.898-10.98l-.019.024c-.782-.982-2.489-3.76-3.057-4.706-2.503 1.238-5.073 2.789-8.428 3.178-14.271 1.665-26.893 3.51-33.226 8.168-4.375 3.229-4.78 4.844-6.833 12.619h-.033s-.857 2.861-1.443 6.905c-.474 3.297-3.011 32.776-3.938 43.569a459 459 0 0 1-.226 2.625l-.099 1.147c.134-.77.711-1.481 1.649-2.086 2.542-1.665 7.693-2.666 13.606-2.415 5.787.25 10.776 1.618 13.26 3.443 1.106.798 1.717 1.697 1.69 2.611l-.019.256.168-1.563.229-2.172L63 165.73l.38 53.359 93.228-.666-.361-50.719 1.904 15.65-.021-.254c-.141-2.99 6.514-5.795 14.861-6.271 8.092-.46 14.799 1.446 15.318 4.284-.295-2.91-4.314-43.384-4.936-47.273z"/><path d="M98.728 155.612l-8.012.057-.057-8.012 8.012-.057zm19.45 21.095l-16.858.12-.208-29.245 16.858-.12zm-19.374-10.554l-8.014.057-.057-8.013 8.014-.057zm.082 10.686l-8.013.057-.057-8.012 8.013-.057zm11.8-38.02l-2.397.017-.017-2.397 2.397-.017zm.023 3.15l-2.396.017-.017-2.397 2.396-.017zm.021 3.197l-2.396.017-.017-2.397 2.396-.017zm17.749 10.236l-8.013.057-.057-8.014 8.013-.057zm.075 10.541l-8.013.057-.057-8.013 8.013-.057zm.078 10.686l-8.012.058-.058-8.014 8.012-.058z" fill="#FF9204"/><path stroke="#FF9204" stroke-width="2" stroke-miterlimit="10" d="M132.952 103.913c-.608 1.017-2.41 3.771-3.136 4.704l-.021.023c-5.347 6.519-12.803 11.221-20.738 11.277h-.031c-7.703-.043-14.633-3.88-20.898-10.98l-.019.024c-.782-.982-2.489-3.76-3.057-4.706" fill="none"/><path fill="#FFB679" d="M59.311 181.377l-.387 2.174c-2.608-1.664-7.363-2.912-12.822-3.142-4.938-.209-9.351.442-12.138 1.647l.171-2.527c2.8-1.143 7.127-1.771 11.949-1.562 5.755.254 10.724 1.609 13.227 3.41z"/><path fill="#FF9204" d="M61.412 180.544l-.229 2.172c-.467-.46-1.098-.896-1.84-1.305-2.914-1.625-7.744-2.788-13.234-3.028-5.647-.24-10.655.563-13.632 2a8.12 8.12 0 0 0-1.551.939c.059-.659.136-1.551.226-2.625 2.657-1.887 8.358-3.038 14.939-2.754 7.143.315 13.175 2.2 15.321 4.601zm96.289-.687l.261 2.168c.464-.465 1.086-.91 1.822-1.33 2.892-1.668 7.702-2.898 13.188-3.217 5.646-.32 10.66.41 13.657 1.806.608.276 1.14.59 1.565.917a307.08 307.08 0 0 1-.262-2.622c-2.686-1.849-8.398-2.918-14.979-2.541-7.137.417-13.139 2.387-15.252 4.819z"/><path fill="#213000" d="M63.382 219.093c6.113-.044 6.128-.251 6.128-.251s-5.65-59.769-5.807-61.918c-.253 1.961-.617 43.814-.321 62.169zm-2.307-35.827l.509-6.048 1.073-13.301c.108-1.213.126-2.409.186-3.591l.08-1.753.044-.861c-.007-.198-.075-.545-.108-.807-.049-.579-.194-1.087-.316-1.597a28.976 28.976 0 0 0-.389-1.514c-.262-1-.545-1.939-.816-2.804l-1.781-5.798.093-.037s.279.542.725 1.51c.225.482.49 1.073.776 1.757.276.688.63 1.449.938 2.312.322.854.662 1.787.986 2.789.179.49.33 1.02.462 1.582.141.553.301 1.123.357 1.682.031.302.083.521.096.898l-.064.881-.141 1.789c-.107 1.201-.176 2.433-.331 3.633l-.777 7.093-.745 6.177-.757 6.021-.1-.013zm95.637 35.161c-6.11.044-6.13-.163-6.13-.163s4.798-59.843 4.924-61.996c.28 1.959 1.24 43.8 1.206 62.159zm1.333-35.523l-.749-6.068s-1.004-8.5-1.509-13.369l-.367-3.637c-.064-.598-.113-1.2-.141-1.805l-.049-.896c-.018-.354.022-.592.043-.898.182-1.242.463-2.285.781-3.312.316-1.013.643-1.957.955-2.823.303-.869.637-1.646.913-2.34.28-.693.535-1.292.759-1.781.434-.98.709-1.531.709-1.531l.094.037-1.715 5.865a70.74 70.74 0 0 0-.783 2.836c-.252.995-.539 2.101-.678 3.129-.023.263-.074.602-.059.828l.027.86c.015.575.031 1.163.074 1.765l.228 3.635c.386 4.875.772 9.748 1.063 13.403l.502 6.093-.098.009zm-94.96-28.195s.48.738.911 1.952c.237.601.431 1.323.609 2.106.079.393.125.807.171 1.226l.143 1.269.09 1.274c.024.42.076.83.061 1.233l-.007 1.155c-.016.367.006.712-.038 1.032l-.247 2.115-.1-.012-.004-2.107c.007-.314-.055-.656-.083-1.016l-.101-1.129c-.019-.391-.106-.791-.166-1.199l-.198-1.234c-.079-.411-.179-.818-.273-1.221l-.269-1.178c-.17-.766-.261-1.496-.363-2.117a30.929 30.929 0 0 1-.231-2.12l.095-.029zm93.237-.625s-.197.754-.497 1.823l-.233.864-.275.953c-.1.33-.197.672-.318 1.016-.135.341-.201.703-.279 1.064l-.23 1.084c-.078.357-.081.719-.125 1.063l-.102 1.003c-.055.32-.033.623-.033.902l.017 1.882-.099.014-.269-1.881c-.038-.284-.101-.592-.089-.92l-.005-1.034c.009-.359-.022-.734.021-1.109l.125-1.143c.053-.773.23-1.527.387-2.236.084-.354.236-.676.365-.982.137-.305.248-.598.405-.848.292-.504.554-.914.79-1.172.21-.27.359-.396.359-.396l.085.053z"/><path opacity=".5" fill="#F6A76A" d="M123.005 90.491c-3.584 2.685-8.181 4.391-14.066 4.432-6.195.045-10.98-1.764-14.674-4.667.136-1.1.206-2.149.2-3.052l-.097-13.558 28.141-.2.097 13.557c.005 1.025.149 2.232.399 3.488z"/><path fill="#fc9" stroke="#D09D6A" stroke-width=".5" stroke-miterlimit="10" d="M141.543 42.065c-1.182-2.085-3.45-1.073-4.271.155-3.189-14.496-22.912-33.838-27.537-33.461-4.684-.315-30.1 19.776-31.283 34.404-.893-1.627-3.216-2.082-4.501.266-.627 1.146-.821 2.14-.593 5.645.232 3.506 2.047 8.315 4.403 8.467.543.036.936-.064 1.236-.239 2.708 12.321 9.733 30.438 28.665 30.302 18.837-.134 25.66-18.171 28.242-30.525.22.043.469.057.76.035 2.355-.188 5.07-5.193 5.251-8.709.181-3.515.273-5.203-.372-6.34z"/><path fill="#FFB679" d="M138.02 45.952c1.597.061.99 4.562.705 6.145-.283 1.582-1.797 2.47-2.703 2.121-.899-.347-1.203-2.715-.248-2.809.957-.094 1.517-.712 1.06-1.323-.462-.614-.797-4.211 1.186-4.134zm-60.148-.154c-1.386.073-.806 3.971-.537 5.341.269 1.369 1.592 2.121 2.374 1.809.777-.313 1.009-2.373.18-2.443-.832-.068-1.325-.597-.936-1.134.393-.537.639-3.664-1.081-3.573z"/><path fill="#7C431F" d="M86.288 43.007c.191.299 3.269-.888 3.627-.994a29.907 29.907 0 0 1 4.731-.964c2.828-.358 5.982.113 7.543 2.824.221.384-.829.173-.876.166l-2.139-.286c-1.601-.155-3.176-.556-4.778-.658-1.638-.102-3.283.03-4.917.127-.435.025-3.34.417-3.191-.215z"/><path fill="#fff" d="M102.221 48.705c.131.753.435 1.486.1 2.199-.644 1.375-1.675 2.096-3.183 2.162-1.615.068-3.241-.166-4.834-.389-1.049-.146-2.451-.09-3.317-.765-.484-.374-2.188-1.767-1.918-2.719.303-1.077 2.244-1.623 3.207-1.877 2.059-.542 4.339-.497 6.447-.302 1.272.115 2.913.379 3.498 1.691z"/><radialGradient id="a" cx="635.079" cy="82.868" r="2.705" gradientTransform="scale(-1) rotate(3.27 2591.874 -12792.553)" gradientUnits="userSpaceOnUse"><stop offset="0" stop-color="#C1943D"/><stop offset=".264" stop-color="#BE923D"/><stop offset=".421" stop-color="#B68C3C"/><stop offset=".55" stop-color="#A8823A"/><stop offset=".663" stop-color="#947437"/><stop offset=".767" stop-color="#7A6234"/><stop offset=".864" stop-color="#594B30"/><stop offset=".953" stop-color="#34302C"/><stop offset="1" stop-color="#1D2029"/></radialGradient><path fill="url(#a)" d="M93.839 47.055a2.897 2.897 0 0 0-.806 1.85 2.9 2.9 0 1 0 5.208-1.586c-.683-.318-3.717-.458-4.402-.264z"/><path fill="#212121" d="M94.23 49.213a1.769 1.769 0 0 0 1.667 1.871 1.77 1.77 0 0 0 1.873-1.668 1.77 1.77 0 0 0-1.67-1.875 1.772 1.772 0 0 0-1.87 1.672z"/><path fill="#1A1A1A" d="M102.221 48.705s-.517-1.208-3.316-1.366c-2.799-.162-6.029.305-6.879.257-.849-.049-3.033 1.588-3.033 1.588s1.077-2.012 3.02-2.505c1.762-.448 6.852-.391 8.148-.186 1.293.206 2.06 2.212 2.06 2.212z"/><path fill="#B76B2C" d="M100.88 52.649s-5.765 1.223-9.594-.927c-1.95-1.094-2.218-2.53-2.218-2.53s-.337 2.07 2.621 3.219c4.599 1.784 9.191.238 9.191.238z"/><path fill="#fff" d="M93.372 49.386a.517.517 0 1 0 .567-.864.517.517 0 0 0-.567.864zm1.294-.505a.418.418 0 0 0 .579-.123.42.42 0 1 0-.702-.462.418.418 0 0 0 .123.585z"/><path fill="#7C431F" d="M131.191 42.936c-1.344.312-2.799.162-4.166.141-1.688-.025-3.395-.097-5.072.119-1.47.189-2.934.334-4.406.503-.532.061-2.741.803-2.072-.262 1.651-2.63 4.896-2.765 7.648-2.349 1.587.193 3.146.516 4.697.904.725.182 1.448.37 2.18.521.352.075 1.224.004 1.191.423z"/><path fill="#fff" d="M115.322 48.611c-.118.754-.411 1.491-.068 2.199.664 1.366 1.707 2.073 3.215 2.118 1.614.044 3.238-.213 4.827-.458 1.047-.162 2.45-.126 3.308-.813.479-.383 2.16-1.798 1.879-2.747-.318-1.074-2.269-1.591-3.233-1.831-2.065-.514-4.345-.435-6.451-.209-1.274.134-2.908.421-3.477 1.741z"/><radialGradient id="b" cx="-2034.006" cy="255.626" r="2.705" gradientTransform="scale(1 -1) rotate(4.07 3318.172 30429.972)" gradientUnits="userSpaceOnUse"><stop offset="0" stop-color="#C1943D"/><stop offset=".264" stop-color="#BE923D"/><stop offset=".421" stop-color="#B68C3C"/><stop offset=".55" stop-color="#A8823A"/><stop offset=".663" stop-color="#947437"/><stop offset=".767" stop-color="#7A6234"/><stop offset=".864" stop-color="#594B30"/><stop offset=".953" stop-color="#34302C"/><stop offset="1" stop-color="#1D2029"/></radialGradient><path fill="url(#b)" d="M123.682 46.842a2.89 2.89 0 0 1 .832 1.837 2.9 2.9 0 1 1-5.229-1.511c.677-.326 3.708-.51 4.397-.326z"/><path fill="#212121" d="M123.32 49.006a1.77 1.77 0 0 1-1.639 1.895 1.772 1.772 0 0 1-1.898-1.641 1.772 1.772 0 0 1 1.643-1.899 1.771 1.771 0 0 1 1.894 1.645z"/><path fill="#1A1A1A" d="M115.322 48.611s.5-1.214 3.298-1.413c2.797-.203 6.032.219 6.883.158.847-.06 3.056 1.546 3.056 1.546s-1.106-1.996-3.057-2.461c-1.768-.424-6.854-.294-8.148-.07-1.291.223-2.032 2.24-2.032 2.24z"/><path fill="#B76B2C" d="M116.723 52.536s5.779 1.141 9.578-1.063c1.936-1.123 2.182-2.562 2.182-2.562s.367 2.064-2.574 3.256c-4.574 1.849-9.186.369-9.186.369z"/><path fill="#fff" d="M119.313 49.371a.517.517 0 0 0 .506-.901.516.516 0 1 0-.506.901zm1.255-.595a.418.418 0 0 0 .57-.162.423.423 0 0 0-.164-.573.422.422 0 0 0-.568.161.416.416 0 0 0 .162.574z"/><path opacity=".5" fill="#F6A76A" d="M109.33 67.298s-.008 2.196-1.146 2.157c-1.137-.039.313.372 1 .18.686-.194.725-.532.146-2.337z"/><radialGradient id="c" cx="138.727" cy="-5.916" r="14.575" gradientTransform="matrix(1 -.007 -.007 -1 -48.411 61.283)" gradientUnits="userSpaceOnUse"><stop offset="0" stop-color="#ED1C24"/><stop offset="1" stop-color="#ED1C24" stop-opacity="0"/></radialGradient><path opacity=".1" fill="url(#c)" d="M104.932 66.109c.058 8.049-6.422 14.623-14.471 14.68-8.048.057-14.62-6.422-14.679-14.472-.058-8.046 6.422-14.62 14.471-14.678 8.049-.058 14.621 6.423 14.679 14.47z"/><radialGradient id="d" cx="176.973" cy="-5.652" r="14.575" gradientTransform="matrix(1 -.007 -.007 -1 -48.411 61.283)" gradientUnits="userSpaceOnUse"><stop offset="0" stop-color="#ED1C24"/><stop offset="1" stop-color="#ED1C24" stop-opacity="0"/></radialGradient><circle opacity=".1" fill="url(#d)" cx="128.602" cy="65.679" r="14.575"/><path opacity=".32" fill="#F5B1A2" d="M108.188 65.259c2.332.224 5.139 1.01 5.21 1.331-3.067 1.528-9.521.711-9.332-.083.15-.615 2.636-1.393 4.122-1.248z"/><path fill="#AE8879" d="M112.395 65.794c.627-.034 1.281.272 1.24.391-.037.121-.672.03-1.224.064-.339.019-1.384.285-1.437.17-.054-.112 1.038-.603 1.421-.625zm-7.108-.162c.663.124 1.457.612 1.401.726-.053.112-.966-.178-1.423-.273-.395-.079-1.322.04-1.374-.071-.057-.114.954-.466 1.396-.382z"/><path opacity=".2" fill="#F5B1A2" d="M105.555 66.912c-.67-.698-1.662-1.387-2.683-1.142.944-1.689 3.724 1.127 4.717 1.411 1.228.347 2.374-.208 3.444-.75 1.229-.621 2.419-.829 3.722-.288-.774.248-1.474.173-2.239.553-.816.406-1.547.955-2.35 1.39-1.778.967-3.315.178-4.611-1.174z"/><path opacity=".5" fill="#F6A76A" d="M114.42 65.812s1.277-.49 1.018-1.742c-.26-1.254-.959-1.871-.959-1.871s1.043.858 1.166 2.125c.125 1.267-1.225 1.488-1.225 1.488zm-11.34.081s-1.284-.472-1.043-1.728c.239-1.257.933-1.885.933-1.885s-1.031.874-1.136 2.143c-.108 1.268 1.246 1.47 1.246 1.47z"/><path opacity=".3" fill="#FDE9D7" d="M112.52 58.771s-.896-.373-1.203-1.923c-.305-1.547-1.518-4.311-2.087-.696-.566 3.617-.4 5.422.896 4.949 1.91-.688 3.158-.205 3.225-1.042.038-.533-.281-1.015-.831-1.288z"/><path fill="#FFAC81" d="M100.854 73.248c-.003-.37 2.707-1.2 2.976-1.294 1.611-.557 3.434-.784 5.02-.357 1.513-.43 3.391-.246 5.005.28.272.089 3.09.886 3.014 1.257-.207 1.003-16.216 1.095-16.015.114zm.004.002c1.172.039 2.356.281 3.521.416 1.494.175 2.985.191 4.488.267 1.47-.097 2.941-.117 4.404-.33 1.182-.171 2.396-.397 3.59-.467-3.597 5.114-12.303 5.038-16.003.114z"/><path fill="#B54A37" d="M108.732 74.099a54.267 54.267 0 0 1-4.135-.188l-.819-.068c-1.878-.156-2.736-.227-3.372-1.151-.495-.721-.899-.293-1.167-.316l-.205-.042c-.283-.166-.333-.279-.319-.321.012-.035.088-.06.196-.06.146-.001.343.038.558.112.554.189 1.223.48 1.229.487 1.131 1.107 4.266 1.25 6.032 1.237h.011a45.69 45.69 0 0 1 1.631.029l.356.009.356-.014c.58-.025 1.094-.049 1.505-.051l.687-.002c2.074-.014 4.59-.162 5.642-1.175.011-.012.673-.313 1.228-.509.213-.078.41-.121.557-.122.105 0 .186.022.197.058.016.041-.037.154-.314.324l-.188.064c-.223.054-.563-.329-1.174.305-.957.991-1.554 1.01-2.744 1.047-.442.012-.967.03-1.619.097-1.159.125-2.586.209-4.129.25z"/><path opacity=".5" fill="#F6A76A" d="M108.383 80.979c-.78-.623-1.113-3.176.186-3.264 1.295-.088 2.751.138 2.916 1.041.164.903-.719 1.893-1.059 2.209-.34.317-1.733.917-2.039.525-.307-.392-.004-.511-.004-.511z"/><path fill="#7C431F" d="M141.876 23.346c-.265-3.104-2.282-6.442-6.397-10.575-1.131-1.68-2.543-3.104-4.304-3.962-.843-.726-1.728-1.47-2.677-2.243-4.285-3.493-9.332-4.671-13.414-4.958-.893-.457-1.811-.79-2.693-.876-4.035-.389-8.635-1.277-12.356-.257-3.723 1.022-11.519 3.234-17.646 9.828l-.499.567c-5.654 5.294-8.338 9.31-8.598 12.967-.32 4.526 2.497 27.995 6.251 33.709 0 0-.157-3.068-.248-6.643.729 1.395 1.2 1.879 1.2 1.879s-1.956-22.787 10.021-24.847c1.576 4.973 7.536 4.794 20.565-.222.471-.181.636-.634.885-.854.432-.017.896-.052 1.395-.104l.342.944s.804-.205 1.723-1.209l.598-.091c-.026.94.768 1.68.768 1.68s1.135-.598 1.995-2.145c1.019-.18 2.028-.36 2.987-.522.769 1.14 2.191 1.619 2.191 1.619s1.244-.753 1.653-2.08c0 0 7.678 9.621 8.688 12.534 1.379 3.979.813 14.569.813 14.569s.487-.436 1.141-1.398a295.82 295.82 0 0 1-.151 6.484c3.668-5.767 6.155-29.273 5.767-33.794z"/><path opacity=".3" fill="#fff" d="M128.057 17.425l.184-1.281c-.596-2.005-.811-4.744-2.568-6.192-.184 1.28-.369 2.56-.941 3.66-4.295-3.623-10.719-6.135-16.731-5.726 2.918 1.257 5.065 3.07 6.444 5.8-3.885-.521-7.002-2.144-11.078-2.114-2.909.02-4.847.584-7.752 1.518 3.102-.571 7.568-.237 9.72 1.94-4.072.577-8.355-1.22-12.813-.274-2.907.568-6.195 2.236-8.51 4.263 7.762-.42 15.332.073 22.913 1.664.572-1.467-1.764-2.544-2.934-3.269 6.205-.773 13.595 1.182 19.426 2.419-.595-1.821-1.579-3.643-3.142-4.909 3.115 1.255 5.654 3.43 8.381 5.054.185-.915-.207-1.642-.599-2.553z"/></svg>