<svg xmlns="http://www.w3.org/2000/svg" width="220" height="220" viewBox="0 0 220 220"><path fill="#fc9" stroke="#D09D6A" stroke-width=".5" stroke-miterlimit="10" d="M143.236 107.96l-.766 21.772-32.968 1.17v.045l-.608-.022-.607.022v-.045l-32.958-1.17-.775-21.772c0-.968 7.437-2.768 8.336-3.049 1.981-.63 4.366-.788 6.1-2.014 2.442-1.744 1.89-4.197 2.025-6.875l.157-3.41.213-4.455 16.901-.113h1.215l16.9.113.214 4.455.034.575.135 2.835.011.597c.045 2.441-.259 4.67 2.015 6.278 1.732 1.227 4.117 1.384 6.099 2.014.902.281 8.327 2.081 8.327 3.049z"/><path opacity=".5" fill="#F6A76A" d="M126.797 96.618c-.754.461-1.564.923-2.408 1.384-4.468 3.51-11.77 4.489-11.77 4.489h-6.493s-7.313-.979-11.77-4.489a41.538 41.538 0 0 1-3.341-1.981l.157-3.41c.99.642 2.048 1.272 3.184 1.879 4.456 3.512 11.77 4.49 11.77 4.49h6.493s7.302-.978 11.77-4.49a46.039 46.039 0 0 0 2.262-1.304l.136 2.835.01.597z"/><path fill="#fc9" stroke="#D09D6A" stroke-width=".5" stroke-miterlimit="10" d="M146.939 50.588c-1-.244-4.076.334-5.781 2.105 1.386-17.005-.525-33.711-.525-33.711L108.379 6.984 76.126 18.982s-1.911 16.706-.525 33.711c-1.706-1.771-4.78-2.349-5.782-2.105-2.01.492-2.404 3.237 1.055 9.748 3.46 6.511 5.566 15.391 7.611 14.536.319-.133 1.701-.342 1.917-.59 3.398 10.435 6.323 16.196 14.648 21.23 3.717 3.299 9.799 4.216 9.799 4.216h7.06s6.082-.917 9.799-4.216c8.326-5.035 11.25-10.796 14.647-21.23.215.249 1.599.458 1.918.59 2.045.855 4.15-8.025 7.611-14.536 3.46-6.511 3.066-9.256 1.055-9.748z"/><g fill="#F5B1A2"><ellipse opacity=".32" cx="88.989" cy="69.997" rx="1.004" ry=".452"/><ellipse opacity=".32" cx="92.548" cy="68.473" rx="1.004" ry=".452"/><ellipse opacity=".32" cx="94.526" cy="70.448" rx="1.004" ry=".453"/><ellipse opacity=".32" cx="98.572" cy="68.02" rx="1.004" ry=".453"/><ellipse opacity=".32" cx="118.991" cy="68.473" rx="1.004" ry=".452"/><ellipse opacity=".32" cx="122.232" cy="71.434" rx="1.004" ry=".451"/><ellipse opacity=".32" cx="124.527" cy="69.545" rx="1.004" ry=".452"/><ellipse opacity=".32" cx="129.32" cy="67.568" rx="1.004" ry=".452"/><ellipse opacity=".32" cx="129.782" cy="71.434" rx="1.004" ry=".451"/></g><path fill="#7C431F" d="M81.364 53.715c.2-1.378 2.373-1.967 3.484-2.214 1.801-.401 3.649-.353 5.469-.135 3.102.371 7.098 1.713 8.831 4.519.223.36-.402 0-.432-.018-.59-.364-1.224-.66-1.873-.903-1.844-.693-3.782-1.139-5.721-1.461-1.924-.319-3.863-.594-5.816-.601-.84-.003-1.697.033-2.518.225-.394.091-1.218.759-1.424.588z"/><path fill="#fff" d="M99.52 60.792c.055.851.305 1.697-.148 2.447-.877 1.447-2.105 2.125-3.784 2.02-1.794-.115-3.572-.569-5.311-1.003-1.145-.287-2.704-.391-3.585-1.241-.49-.474-2.212-2.217-1.802-3.24.462-1.158 2.679-1.533 3.775-1.701 2.345-.356 4.868-.035 7.181.43 1.395.278 3.182.765 3.674 2.288z"/><radialGradient id="a" cx="667.013" cy="-100.147" r="3.014" gradientTransform="scale(-1) rotate(9.38 49.044 -4706.79)" gradientUnits="userSpaceOnUse"><stop offset="0" stop-color="#28353D"/><stop offset=".508" stop-color="#27323B"/><stop offset=".809" stop-color="#222A33"/><stop offset="1" stop-color="#1D2029"/></radialGradient><path fill="url(#a)" d="M90.421 58.104a3.213 3.213 0 0 0-1.112 1.954 3.23 3.23 0 1 0 6.376 1.053 3.208 3.208 0 0 0-.42-2.194c-.716-.432-4.062-.945-4.844-.813z"/><path fill="#212121" d="M90.598 60.542a1.977 1.977 0 1 0 2.272-1.63 1.976 1.976 0 0 0-2.272 1.63z"/><path fill="#1A1A1A" d="M99.52 60.792s-.429-1.397-3.513-1.906c-3.083-.511-6.717-.376-7.653-.53-.934-.155-3.549 1.401-3.549 1.401s1.434-2.101 3.644-2.417c2.004-.288 7.638.376 9.05.758 1.41.38 2.021 2.694 2.021 2.694z"/><path fill="#B76B2C" d="M97.568 65.003s-6.534.672-10.522-2.164c-2.031-1.443-2.157-3.065-2.157-3.065s-.621 2.252 2.521 3.876c4.886 2.523 10.158 1.353 10.158 1.353z"/><path fill="#fff" d="M89.628 60.632a.573.573 0 0 0 .811-.083.574.574 0 0 0-.081-.809.577.577 0 0 0-.73.892zm1.494-.407a.464.464 0 0 0 .656-.066.467.467 0 0 0-.066-.659.473.473 0 0 0-.657.063.464.464 0 0 0 .067.662z"/><path fill="#7C431F" d="M135.229 53.827c-.628-1.149-2.994-.91-4.069-.863-1.962.086-3.909.407-5.838.767-1.807.337-3.605.771-5.344 1.372-.656.227-1.303.491-1.922.805-.252.128-.646.263-.327-.16 2.039-2.624 5.922-3.89 9.091-4.278 1.783-.219 3.623-.28 5.386.135.814.192 1.634.454 2.332.928.273.185 1.25 1.007.691 1.294z"/><path fill="#fff" d="M117.238 60.792c-.055.851-.305 1.697.15 2.447.875 1.447 2.104 2.125 3.782 2.02 1.795-.115 3.572-.569 5.312-1.003 1.144-.287 2.703-.391 3.584-1.241.49-.474 2.213-2.217 1.803-3.24-.463-1.158-2.68-1.533-3.776-1.701-2.345-.356-4.868-.035-7.181.43-1.392.278-3.182.765-3.674 2.288z"/><radialGradient id="b" cx="-2469.544" cy="435.218" r="3.015" gradientTransform="scale(1 -1) rotate(9.38 1848.996 15995.914)" gradientUnits="userSpaceOnUse"><stop offset="0" stop-color="#28353D"/><stop offset=".508" stop-color="#27323B"/><stop offset=".809" stop-color="#222A33"/><stop offset="1" stop-color="#1D2029"/></radialGradient><path fill="url(#b)" d="M126.338 58.104c.573.48.98 1.158 1.112 1.954a3.232 3.232 0 1 1-5.957-1.141c.718-.432 4.064-.945 4.845-.813z"/><path fill="#212121" d="M126.162 60.542a1.976 1.976 0 0 1-1.627 2.271 1.975 1.975 0 0 1-2.275-1.627 1.978 1.978 0 0 1 3.902-.644z"/><path fill="#1A1A1A" d="M117.238 60.792s.429-1.397 3.514-1.906c3.083-.511 6.719-.376 7.655-.53.934-.155 3.548 1.401 3.548 1.401s-1.434-2.101-3.643-2.417c-2.006-.288-7.64.376-9.051.758-1.411.38-2.023 2.694-2.023 2.694z"/><path fill="#B76B2C" d="M119.191 65.003s6.531.672 10.521-2.164c2.031-1.443 2.156-3.065 2.156-3.065s.619 2.252-2.521 3.876c-4.885 2.523-10.156 1.353-10.156 1.353z"/><path fill="#fff" d="M127.13 60.632a.575.575 0 0 1-.812-.083.576.576 0 1 1 .895-.726c.2.243.164.611-.083.809zm-1.493-.407a.464.464 0 0 1-.656-.066.469.469 0 0 1 .723-.596c.166.205.138.5-.067.662z"/><path opacity=".32" fill="#F5B1A2" d="M107.858 74.248c2.173.223 4.787.976 4.851 1.276-2.871 1.406-8.885.6-8.7-.14.143-.572 2.468-1.28 3.849-1.136z"/><path fill="#AE8879" d="M111.777 74.775c.586-.027 1.193.264 1.156.372-.035.112-.629.024-1.143.05-.313.018-1.294.257-1.343.152-.048-.105.975-.555 1.33-.574zm-6.625-.198c.617.121 1.355.581 1.303.685-.05.105-.901-.17-1.327-.262-.367-.077-1.233.026-1.282-.077-.051-.107.896-.429 1.306-.346z"/><path opacity=".2" fill="#F5B1A2" d="M105.392 75.772c-.619-.656-1.539-1.304-2.491-1.082.89-1.569 3.462 1.074 4.388 1.347 1.143.332 2.216-.179 3.217-.677 1.148-.569 2.26-.757 3.473-.244-.724.226-1.375.15-2.092.499-.766.376-1.448.881-2.2 1.281-1.665.89-3.095.145-4.295-1.124z"/><path opacity=".5" fill="#F6A76A" d="M113.668 74.804s1.193-.447.96-1.618c-.233-1.17-.882-1.752-.882-1.752s.967.809 1.072 1.99c.11 1.182-1.15 1.38-1.15 1.38zm-10.578 0s-1.193-.447-.959-1.618c.233-1.17.882-1.752.882-1.752s-.968.809-1.074 1.99c-.107 1.182 1.151 1.38 1.151 1.38z"/><path opacity=".3" fill="#FDE9D7" d="M111.941 68.225s-.834-.355-1.107-1.801c-.275-1.446-1.387-4.031-1.943-.664-.553 3.369-.41 5.051.803 4.622 1.785-.627 2.947-.17 3.013-.952.041-.492-.253-.947-.766-1.205z"/><path fill="#F9AE87" d="M120.327 79.888c-.563.228-1.22 1.11-1.22 1.11-1.604 2.113-7.313 2.632-8.892 2.626-.482-.002-1.116.029-1.837.062-.721-.032-1.355-.064-1.837-.062-1.576.005-7.285-.513-8.89-2.626 0 0-.659-.882-1.221-1.11-.779-.322-1.141-.036-.488.423.228.163.645-.136 1.311.919 1.007 1.604 4.744 2.383 7.107 2.65 1.189.137 2.601.216 4.018.246 1.417-.03 2.828-.109 4.018-.246 2.363-.267 6.101-1.047 7.108-2.65.666-1.056 1.083-.757 1.31-.919.654-.459.291-.745-.487-.423z"/><path fill="#B54A37" d="M119.132 81.633c-.514 1.212-1.223 2.841-1.979 4.008a5.203 5.203 0 0 1-.291.434c-1.223 1.767-2.371 2.501-3.342 3.048-1.375.783-3.184 1.314-5.056 1.314h-.099c-1.872 0-3.686-.531-5.062-1.314-.843-.476-1.815-1.09-2.853-2.395a12.231 12.231 0 0 1-.782-1.088c-.824-1.282-1.604-3.12-2.124-4.351.032.04 1.718-.088 2.588-.18 2.164-.228 4.096-.289 5.84-.217.844.026 1.643.089 2.398.173h.006l.189.022a53.24 53.24 0 0 1 2.208-.136 38.685 38.685 0 0 1 6.215.243c1.778.205 2.48.197 2.144.439z"/><path fill="#FF5D47" d="M116.861 86.076c-1.223 1.767-2.371 2.501-3.342 3.048-1.375.783-3.184 1.314-5.056 1.314h-.099c-1.872 0-3.686-.531-5.062-1.314-.843-.476-1.815-1.09-2.853-2.395 2.059-.843 5.439-1.386 9.263-1.386 2.71.001 5.197.277 7.149.733z"/><path fill="#fff" d="M118.973 81.639l-21.096-.182s-.988 2.377 10.016 2.253l.98-.006c11.006.125 10.1-2.065 10.1-2.065z"/><path fill="#FFAC81" d="M97.52 81.452c-.002-.116 3.686-.412 4.05-.516 2.198-.322 4.67-.514 6.816-.148 2.058-.329 4.602-.115 6.79.217.371.103 4.071.411 4.065.526.038 1.135-21.761.986-21.721-.079z"/><path opacity=".5" fill="#F6A76A" d="M109.183 77.923s-.033 2.965-1.568 2.899c-1.533-.065.419.506 1.347.251.929-.252.986-.708.221-3.15z"/><path fill="#FFB679" d="M73.784 60.23c-1.293.625 1.118 5.106 2.027 6.66.908 1.547 2.536 1.942 3.135 1.26.597-.676-.158-3.252-.989-3.016-.829.24-1.553-.207-1.436-1.009.121-.8-1.131-4.669-2.737-3.895zm69.419-2.355c1.352.479-.592 5.2-1.338 6.842-.747 1.638-2.325 2.208-2.99 1.594-.663-.606-.173-3.25.678-3.105.848.147 1.522-.377 1.324-1.159-.201-.784.65-4.767 2.326-4.172z"/><radialGradient id="c" cx="138.232" cy="-31.761" r="16.242" gradientTransform="matrix(1 0 0 -1 -47.6 50.01)" gradientUnits="userSpaceOnUse"><stop offset="0" stop-color="#ED1C24"/><stop offset="1" stop-color="#ED1C24" stop-opacity="0"/></radialGradient><circle opacity=".15" fill="url(#c)" cx="90.633" cy="81.771" r="16.242"/><radialGradient id="d" cx="175.025" cy="-31.761" r="16.242" gradientTransform="matrix(1 0 0 -1 -47.6 50.01)" gradientUnits="userSpaceOnUse"><stop offset="0" stop-color="#ED1C24"/><stop offset="1" stop-color="#ED1C24" stop-opacity="0"/></radialGradient><circle opacity=".15" fill="url(#d)" cx="127.425" cy="81.771" r="16.242"/><path fill="#fc9" stroke="#D09D6A" stroke-width=".5" stroke-miterlimit="10" d="M68.096 130.637l-.855 5.57-4.322 28.051-.033.202-.327 2.093-.281 1.856-.338 2.183v.012l-.022.146s-3.264 17.554-5.671 24.688v.011l-.292.821c-1.26 3.375-3.432 11.106-5.221 17.733l-.012.011c-.597 2.185-1.136 4.243-1.598 5.986H33l1.103-20.523s1.542-14.065 2.43-17.97c.901-3.903 3.433-10.981 3.433-10.981s1.293-5.705 2.835-12.603c.125-.528.249-1.069.372-1.61 1.913-8.584 4.084-18.407 4.613-21.321.946-5.289 4.693-10.341 4.985-10.724l.022-.022 15.303 6.391z"/><path fill="#FFB679" d="M68.096 130.637l-.855 5.57-4.322 28.051-.033.202-.327 2.093-.281 1.856-.338 2.183v.012l-.022.146s-3.264 17.554-5.671 24.688v.011l-.292.821c-1.26 3.375-3.432 11.106-5.221 17.733l-.012.011c-.597 2.185-1.136 4.243-1.598 5.986h-1.789c.496-1.879 1.102-4.186 1.767-6.627l.011-.012a393.17 393.17 0 0 1 1.632-5.952c1.349-4.815 2.7-9.396 3.589-11.781l.281-.833.011-.011c2.409-7.134 5.672-24.688 5.672-24.688l.022-.134v-.022l.326-2.138.292-1.856.629-4.141 3.77-24.396.282-1.856.854-5.57-13.705-5.715.022-.023 15.306 6.392zm-.858 5.565l-5.294 34.387-.007.017-5.689 24.828-.007.017-.29.821c-1.252 3.375-3.428 11.107-5.218 17.733-.146-2.032-.224-4.31-.113-5.459 1.154-12.36 7.651-32.713 8.63-48.894 1.026-16.98 4.224-21.579 7.832-23.438.068-.028.119-.038.156-.012z"/><path fill="#fc9" stroke="#D09D6A" stroke-width=".5" stroke-miterlimit="10" d="M185.297 220h-16.124c-.462-1.743-1.013-3.803-1.598-5.986l-.013-.011c-1.789-6.627-3.959-14.356-5.221-17.733l-.281-.821-.011-.011c-2.407-7.135-5.671-24.688-5.671-24.688l-.023-.146v-.012l-.336-2.183-.281-1.856-.327-2.093-.033-.202-4.321-28.051-.855-5.57 15.304-6.392.022.022c.291.383 4.039 5.436 4.984 10.724.529 2.914 2.7 12.726 4.613 21.3.123.552.247 1.091.359 1.621 1.554 6.908 2.847 12.613 2.847 12.613s2.532 7.078 3.433 10.98c.889 3.904 2.43 17.969 2.43 17.969L185.297 220z"/><path fill="#FFB679" d="M170.961 220h-1.789c-.462-1.743-1.013-3.803-1.598-5.986l-.012-.011c-1.789-6.627-3.961-14.356-5.222-17.733l-.28-.821-.012-.011c-2.408-7.135-5.671-24.688-5.671-24.688l-.022-.146v-.012l-.338-2.183-.281-1.856-.326-2.093-.033-.202-4.322-28.051-.854-5.57 15.304-6.392.021.022-13.705 5.717.854 5.57.282 1.844 3.77 24.406.631 4.141.291 1.856.326 2.138v.022l.022.134s3.265 17.555 5.671 24.688l.012.011c.102.305.191.575.293.833.889 2.397 2.237 6.999 3.588 11.849a725.803 725.803 0 0 1 1.621 5.885l.012.013c.654 2.44 1.272 4.747 1.767 6.626zm-19.9-83.798l5.293 34.387.008.017 5.688 24.828.007.017.291.821c1.252 3.375 3.428 11.107 5.217 17.733.146-2.032.226-4.31.115-5.459-1.156-12.36-7.652-32.713-8.632-48.894-1.024-16.98-4.224-21.579-7.831-23.438-.071-.028-.119-.038-.156-.012z"/><path fill="#8F5D00" stroke="#513A14" stroke-width=".5" stroke-miterlimit="10" d="M177.049 155.809c-.349.709-.889 1.405-1.564 2.104-3.498 3.602-10.733 6.986-15.695 9.023-.777.325-1.497.606-2.139.866l-1.631.607c-.9.338-1.43.519-1.43.519-.191 1.137-.326 2.498-.439 4.039l-.045.787c-.021.27-.033.541-.045.822l-.021.518c-.023.338-.034.688-.045 1.035l-.021.528a188.262 188.262 0 0 0-.08 6.886l.033 2.701v.348c.158 9.463.743 21.166 1.463 33.408H62.942c.821-12.658 1.463-23.742 1.439-36.208-.011-6.685-.213-11.938-.686-14.864 0 0-.528-.18-1.417-.519-.451-.157-1.002-.371-1.632-.606-.642-.248-1.361-.541-2.138-.856-4.961-2.036-12.197-5.423-15.708-9.023-.674-.698-1.215-1.405-1.574-2.114.022-.574.056-1.17.101-1.778 1.035-13.829 9.901-36.671 12.613-40.62.831-1.205 2.769-2.564 5.098-3.886 7.308-4.148 15.62-6.196 24.021-6.196h4.051c0 .012 9.587 13.131 21.615 13.131 13.908 0 20.804-10.667 22.47-13.131h4.023c8.402 0 16.713 2.048 24.022 6.196 2.327 1.322 4.264 2.682 5.091 3.886 2.723 3.949 11.58 26.791 12.613 40.62l.033.472c.039.449.061.876.072 1.305z"/><path stroke="#513A14" stroke-width="3" stroke-miterlimit="10" d="M86.155 103.587c2.014 2.701 10.543 12.872 22.571 12.872 13.908 0 21.93-10.667 23.596-13.131" fill="none"/><path fill="#513A14" d="M154.584 166.963v1.96s19.188-6.557 22.469-13.11a41.1 41.1 0 0 0-.101-1.783c-3.535 6.495-22.368 12.933-22.368 12.933zm-90.888 0s-18.834-6.438-22.368-12.934a41.1 41.1 0 0 0-.101 1.783c3.282 6.555 22.469 13.11 22.469 13.11v-1.959zM64.922 220h-1.98c.821-12.658 1.463-23.742 1.439-36.208l.147-2.34v-.022c.348-5.412.619-9.406.754-11.298.045-.675.079-1.08.09-1.192.011.136.022.676.022 1.588.012 6.038-.225 27.969-.472 49.472zm-.107-29.102l-.326-5.707-.764-12.547c-.059-1.146-.209-2.261-.311-3.369l-.162-1.644-.074-.807-.23-.728c-.129-.533-.354-.969-.542-1.425a25.573 25.573 0 0 0-.6-1.34 53.481 53.481 0 0 0-1.204-2.472l-2.579-5.1.085-.053s.35.456.926 1.277c.289.412.633.914 1.012 1.502.369.593.825 1.24 1.251 1.99a54.74 54.74 0 0 1 1.369 2.43c.244.427.473.89.684 1.396.212.493.467 1.002.599 1.512.079.279.144.47.234.826l.058.83.107 1.691c.059 1.135.164 2.296.175 3.436l.204 6.719.11 5.861.076 5.717-.098.005zm-1.94-26.83s.576.603 1.172 1.66c.318.52.613 1.162.899 1.861.134.354.238.732.343 1.116l.321 1.16.269 1.174c.082.388.192.762.233 1.14l.154 1.079c.036.345.106.663.106.968l.047 2.004-.1.002-.294-1.959c-.037-.293-.146-.602-.223-.932l-.256-1.033c-.073-.361-.218-.72-.333-1.09l-.369-1.115c-.137-.369-.292-.732-.441-1.09l-.432-1.051c-.275-.684-.468-1.347-.658-1.91-.351-1.135-.53-1.938-.53-1.938l.092-.046zM155.355 220h-1.992c-.235-21.479-.473-43.41-.461-49.464 0-.912.012-1.462.022-1.599.011.112.046.519.091 1.215.146 1.912.405 5.94.754 11.375.045.654.09 1.33.123 2.015l.022.249c0 .82 0 1.643.011 2.453v.348c.068 11.353.665 21.706 1.43 33.408zm-1.972-29.104l.076-5.717.109-5.861.205-6.717c.012-1.141.117-2.301.174-3.437l.107-1.69.059-.832c.09-.355.154-.547.232-.824.133-.51.387-1.02.6-1.514.211-.506.439-.969.684-1.396.462-.88.932-1.688 1.369-2.431.426-.75.882-1.396 1.25-1.989.379-.587.725-1.091 1.014-1.501a37.15 37.15 0 0 1 .926-1.278l.084.054-2.578 5.098a54.694 54.694 0 0 0-1.202 2.474 26.45 26.45 0 0 0-.601 1.34c-.187.456-.412.892-.541 1.425l-.23.728-.075.807-.162 1.644c-.103 1.109-.252 2.223-.312 3.369l-.764 12.547-.326 5.707-.098-.006zm2.129-26.781s-.179.802-.529 1.938c-.189.563-.383 1.228-.657 1.91l-.431 1.051c-.15.357-.306.721-.442 1.09l-.368 1.115c-.115.37-.259.729-.333 1.09l-.256 1.033c-.077.33-.187.639-.224.932l-.293 1.959-.101-.002.047-2.004c0-.305.07-.623.106-.968l.154-1.079c.041-.378.151-.75.233-1.14l.269-1.174.32-1.16s.209-.763.344-1.116c.285-.699.58-1.342.898-1.861.598-1.058 1.172-1.66 1.172-1.66l.091.046z"/><g opacity=".6"><path fill="#F2F2F2" d="M100.008 152.386h25.235v25.235h-25.235z"/><path fill="#ccc" d="M100.008 177.621l-6.976-4.101v-25.236l6.976 4.102z"/><path fill="#E6E6E6" d="M125.243 152.386h-25.235l-6.976-4.102h25.236z"/></g><path fill="#7C431F" d="M147.525 30.311s-1.508-9.178-8.871-17.696C131.29 4.094 107.465-.425 102.623.032 97.78.49 92.158 7.32 92.158 7.32s-3.37-.672-11.265 2.468c-7.896 3.138-12.129 23.471-12.057 25.919-.148 4.435.67 11.157 1.61 17.735 1.263 8.866 7.266 14.457 7.266 14.457s-1.798-16.464-.256-19.424c1.112-2.135 4.415-8.337 6.772-12.759 1.294-1.755 2.221-2.963 2.221-2.963 1.296 4.212-3.652 11.154-3.652 11.154 2.254-1.458 6.455-9.218 8.751-15.2 3.744 9.517-2.742 15.452-2.742 15.452s10.753-5.298 10.203-6.493c.963.738 3.821 3.063 3.821 3.063s-3.103-3.693-3.807-5.639c5.977 6.262 10.392 10.978 10.392 10.978s-1.705-6.223-4.481-8.974c1.426 1.032 17.821 8.866 17.821 8.866s-1.624-7.401-5.108-11.217c6.59 4.422 20.818 17.551 22.147 21.709.465 5.327.142 9.604.142 9.604s4.439-5.052 6.375-13.09c2.725-11.344 1.214-22.655 1.214-22.655z"/><path opacity=".1" fill="#fff" d="M142.464 54.192c-3.321-6.176-21.008-19.05-26.51-22.742 0 0 .299 6.992.772 7.856-4.982-2.428-9.134-4.504-9.863-4.978l-1.825 2.188c-1.104-1.161-2.304-2.424-3.576-3.755l-5.432 3.363c.231-2.512-.071-5.416-1.344-8.652l-3.18-8.083-3.132 8.158-.627-2.039s-12.173 19.27-13.288 21.41c-.418.805-.769 1.933-1.06 3.271-.686-5.073-1.314-10.68-1.191-14.367l.004-.106-.003-.107c.06-2.998 4.447-20.504 9.929-22.682 5.195-2.067 8.079-2.29 9.078-2.29l.333.01 2.058.567 1.156-1.747c1.974-2.386 5.818-5.85 8.176-6.073.133-.012 27.152 4.48 33.16 11.43 6.334 7.327 7.955 15.297 8.088 15.998.109.909 1.274 11.223-1.162 21.358a28.826 28.826 0 0 1-.561 2.012z"/><path fill="#7C431F" d="M104.261 20.477l.484-.529.544-.479a7.661 7.661 0 0 1 1.234-.763 8.019 8.019 0 0 1 2.813-.771c.49-.046.986-.037 1.477.019.492.051.981.146 1.455.298.24.069.476.15.703.255.234.09.459.2.676.328.225.113.435.251.639.4l.32.237.263.245c.696.657 1.403 1.296 2.073 1.951l.507.49c.159.109.385.296.553.379a4.03 4.03 0 0 0 1.177.491c.41.11.82.089 1.2.007.197-.069.353-.101.531-.231.106-.069.255-.229.358-.373.211-.31.33-.701.313-1.06-.017-.364-.172-.643-.431-.797l-1.617-.965 1.83.051c.548.016 1.105-.035 1.648.05.532.125 1.094.149 1.596.375.517.184 1.035.358 1.498.65l.713.399.647.497c.454.306.808.725 1.187 1.117.396.376.644.878.969 1.313.271.485.471.954.704 1.51l.37 1.508c.101.515.15 1.055.225 1.579l.191 1.541c.043.518.168 1.002.277 1.496l.164.742c.076.227.168.484.27.692.408.895 1.031 1.734 1.855 2.313.807.582 1.875.882 2.877.552a2.956 2.956 0 0 1-1.539.221 3.923 3.923 0 0 1-1.488-.543c-.918-.551-1.646-1.375-2.161-2.325a6.403 6.403 0 0 1-.327-.739l-.208-.766c-.138-.512-.292-1.025-.358-1.54l-.264-1.53c-.095-.496-.158-.988-.275-1.483l-.429-1.492c-.185-.384-.392-.878-.633-1.285-.304-.383-.522-.833-.89-1.165-.348-.346-.668-.722-1.084-.989l-.59-.44-.647-.348c-.419-.26-.888-.405-1.351-.563-.451-.201-.951-.202-1.422-.313-.48-.063-.967-.026-1.451-.053l.213-.914c.58.34.89 1.017.891 1.608a2.733 2.733 0 0 1-.506 1.636c-.184.237-.354.441-.652.631-.214.151-.523.25-.781.323a3.457 3.457 0 0 1-1.635-.025 4.862 4.862 0 0 1-1.445-.63c-.252-.146-.391-.273-.621-.441l-.516-.512c-.697-.682-1.357-1.378-2.027-2.057l-.25-.256-.248-.197a3.917 3.917 0 0 0-.557-.386 3.877 3.877 0 0 0-.598-.325 4.419 4.419 0 0 0-.631-.263 6.53 6.53 0 0 0-1.333-.337 8.067 8.067 0 0 0-1.382-.093 7.665 7.665 0 0 0-2.733.535 7.83 7.83 0 0 0-1.254.647l-.577.413-.534.479zm-27.407 14.74a12.856 12.856 0 0 1-.704-2.106 6.404 6.404 0 0 1-.154-1.13 5.2 5.2 0 0 1 .095-1.169l.174-.557c.082-.185.19-.38.291-.57a3.91 3.91 0 0 1 .82-.922c.162-.131.352-.232.53-.347.188-.099.402-.162.605-.239.214-.05.444-.063.666-.084.224.022.451.063.674.104l-.631.454.082-.812.209-.78.322-.727.396-.672c.29-.426.595-.833.932-1.207.335-.373.679-.732 1.026-1.079a98.784 98.784 0 0 1 2.126-2.021c.729-.654 1.45-1.315 2.21-1.939-.583.792-1.205 1.547-1.819 2.311-.621.755-1.264 1.493-1.901 2.23-.646.722-1.256 1.457-1.754 2.232l-.336.595-.261.616-.182.63-.077.645-.066.551-.565-.097-.408-.07-.422.04-.422.14-.4.232a3.732 3.732 0 0 0-.68.667l-.251.383-.2.475a5.67 5.67 0 0 0-.2 1.001 9.782 9.782 0 0 0-.01 1.057c.034.717.18 1.435.285 2.165z"/></svg>