<svg xmlns="http://www.w3.org/2000/svg" width="220" height="220" viewBox="0 0 220 220"><path fill="#F3C581" d="M81.966 105.263l-2.711-52.742 60.865 2.723-3.554 50.019z"/><path fill="#fc9" stroke="#D09D6A" stroke-width=".5" stroke-miterlimit="10" d="M142.311 105.42c-4.521-1.523-8.709-.407-12.459-3.329-2.555-1.991-6.604-4.587-6.545-8.213.024-1.643.008-9.822.008-12.267H96.252c0 2.445-.017 10.625.01 12.267.059 3.626-3.991 6.222-6.546 8.213-3.75 2.921-7.938 1.806-12.459 3.329-23.208 7.814-10.836 32.985-10.836 32.985h86.726c1.571-2.733 10.798-25.698-10.836-32.985z"/><path opacity=".5" fill="#F6A76A" d="M123.299 93.804c-4.354 3.412-9.098 5.821-13.354 5.821-4.366 0-9.259-2.531-13.685-6.066-.025-2.176-.014-9.637-.014-11.948h27.064c.003 2.409.026 10.395-.011 12.193z"/><path fill="#fc9" stroke="#D09D6A" stroke-width=".5" stroke-miterlimit="10" d="M137.88 50.594c.097-6.388-1.56-34.459-1.56-34.459H83.563s-.615 27.193-1.56 34.459c-.83 6.387-2.449 13.413 1.338 21.459 3.786 8.047 16.57 21.459 26.6 21.459 10.032 0 22.814-13.412 26.602-21.459 3.786-8.047 1.239-15.018 1.337-21.459z"/><radialGradient id="a" cx="137.277" cy="-24.007" r="15.104" gradientTransform="matrix(1 0 0 -1 -47.6 50.01)" gradientUnits="userSpaceOnUse"><stop offset="0" stop-color="#ED1C24"/><stop offset="1" stop-color="#ED1C24" stop-opacity="0"/></radialGradient><circle opacity=".2" fill="url(#a)" cx="89.677" cy="74.017" r="15.104"/><path fill="#FB9A18" stroke="#E58817" stroke-width=".5" stroke-miterlimit="10" d="M156.141 219.936c-3.119 0-93.51.146-93.719 0h-.159c2.765-4.685 10.715-20.658 11.852-23.336 1.725-4.012 2.801-7.839 2.372-12.242-.379-3.828-6.078-17.232-6.935-21.219-2.409-11.093-1.956-22.662-1.259-34.072.28-4.746.722-23.567.722-25.132 4.451-.073 8.915-.147 13.366-.245-.061 2.618.343 4.88 1.298 7.302.88 2.25 2.201 3.999 3.864 5.76 3.84 4.048 8.867 7.619 14.443 8.658 4.109.771 8.708.637 12.854.221 5.711-.588 10.885-3.901 14.934-7.815 1.92-1.871 3.828-3.914 4.771-6.471 1.015-2.788 1.54-5.576 1.431-8.561 3.877.331 13.063.931 13.295 1.138.244.22.438 19.005.771 24.276.647 10.383 1.284 20.949-.44 31.26-.257 1.529-2.69 8.512-3.975 11.557-.818 1.92-3.754 12.231-3.854 14.92-.194 5.848 5.896 19.02 6.262 19.728 2.554 4.842 5.341 9.564 8.106 14.273z"/><path fill="#fc9" stroke="#D09D6A" stroke-width=".5" stroke-miterlimit="10" d="M71.636 116.984l-.789 5.154-2.96 19.231-.162.985v.047l-1.788 11.595-.011.024-.012.127s-3.029 16.262-5.258 22.865v.023c-.093.268-.187.521-.279.754-1.149 3.134-3.169 10.295-4.827 16.436l-.013.012c-1.532 5.664-2.774 10.47-2.774 10.47s-2.251 10.086-2.251 13.545c0 .558.023 1.125.069 1.683H38c.069-.511.093-.824.093-.824l2.055-38.348s1.427-13.023 2.251-16.645c.836-3.621 3.169-10.178 3.169-10.178s4.805-21.125 6.651-29.924c.278-1.312.487-2.345.603-2.994.905-5.106 4.632-9.957 4.632-9.957l11.779 4.922 2.403.997z"/><path fill="#FFB679" d="M70.842 122.143l-4.905 31.86-.006.013-5.271 23.004-.007.015-.27.762c-1.16 3.125-3.176 10.291-4.833 16.431-.137-1.885-.208-3.994-.105-5.058 1.068-11.452 7.088-30.31 7.995-45.3.95-15.732 3.913-19.992 7.257-21.715l.145-.012z"/><path fill="#fc9" stroke="#D09D6A" stroke-width=".5" stroke-miterlimit="10" d="M181.568 219.938h-12.512c-.627-4.318-1.929-10.123-1.929-10.123s-1.241-4.793-2.772-10.467l-.012-.013c-1.66-6.14-3.669-13.301-4.83-16.423-.092-.244-.185-.487-.277-.766v-.013c-2.229-6.616-5.258-22.876-5.258-22.876l-.012-.128-.013-.012-2.913-18.966-.568-3.68-1.416-9.215-.801-5.166 1.324-.546 12.859-5.374s2.75 3.587 4.084 7.835c.232.696.418 1.404.547 2.124.929 5.096 7.255 32.928 7.255 32.928s2.332 6.559 3.168 10.168c.823 3.621 2.252 16.644 2.252 16.644l1.824 34.069z"/><path fill="#FFB679" d="M149.055 127.255l4.903 31.859.007.013 5.271 23.004.006.014.271.763c1.158 3.125 3.174 10.291 4.834 16.429.135-1.883.207-3.993.104-5.057-1.07-11.453-7.091-30.31-7.997-45.301-.949-15.73-3.913-19.992-7.255-21.713l-.144-.011z"/><path fill="#FB8029" d="M68.09 143.824c12.505-7.592 5.164-32.777 3.266-38.597a2.813 2.813 0 0 0-1.69-1.756c-4.188-1.578-17.38-4.782-20.4 15.948a2.81 2.81 0 0 0 1.812 3.039c4.914 1.808 16.776 7.591 17.012 21.366zm82.536 0c-12.515-7.598-5.151-32.815-3.26-38.61a2.779 2.779 0 0 1 1.674-1.738c4.174-1.577 17.397-4.81 20.414 15.963a2.785 2.785 0 0 1-1.794 3.01c-4.902 1.8-16.799 7.58-17.034 21.375z"/><radialGradient id="b" cx="177.491" cy="-24.007" r="15.104" gradientTransform="matrix(1 0 0 -1 -47.6 50.01)" gradientUnits="userSpaceOnUse"><stop offset="0" stop-color="#ED1C24"/><stop offset="1" stop-color="#ED1C24" stop-opacity="0"/></radialGradient><circle opacity=".2" fill="url(#b)" cx="129.891" cy="74.017" r="15.104"/><path fill="#FEE0A6" d="M153.666 130.2c1.027-3.913-2.273-10.517-2.273-10.517 2.887 12.168-4.33 20.84-4.33 20.84.819-16.304-6.813-16.096-6.813-16.096-1.443 9.075 3.096 17.746 3.096 17.746s-10.728-5.369-15.057-18.564c-4.342-13.208 6.32-34.66 6.32-34.66 4.33-8.255 1.681-30.317 2.707-40.64 1.027-10.31-8.625-18.346-8.625-18.346-4.328 2.313-9.621 3.918-15.1 5.459 5.932-2.201 8.655-5.569 9.096-5.863l-15.861 3.706s-19.813 5.564-23.52 17.33c-3.717 11.765-.543 29.831 2.134 35.395 2.679 5.578 7.97 28.128 3.591 40.713-4.378 12.584-12.536 15.47-12.536 15.47 6.396-11.349-.832-19.604-.832-19.604-3.301 4.135-5.564 17.953-5.564 17.953-4.537-5.369-3.926-20.631-3.926-20.631l-2.887 9.905c-4.12-7.435-.208-21.463 4.329-28.067 4.551-6.605 12.182-12.792 12.182-12.792s-2.274-22.663-6.188-33.389c-3.644-9.967-2.128-18.32-1.075-26.246.098-.611.17-1.209.244-1.821.33-2.728 1.48-5.993 3.289-9.344 3.792-7.056 10.47-12.083 18.59-15.862 11.962-5.564 21.866.832 21.866.832s11.352-1.419 18.357 3.951a39.685 39.685 0 0 1 3.376 2.886 33.764 33.764 0 0 1 3.267 3.608c4.315 5.492 7.729 13.38 8.426 25.487 1.027 17.954-11.35 51.134-11.35 51.134 28.471 24.973 15.067 40.027 15.067 40.027z"/><path fill="#B54A37" d="M107.158 77.717c3.543.369 8.662.241 10.254-.774 0 0-.59 1.703-1.451 2.991-1.188 1.77-3.068 2.285-6.219 2.213-4.854-.11-5.029.239-6.514-2.842-.177-.374-1.15-2.463-1.652-3.105 0-.001 2.094 1.155 5.582 1.517z"/><path fill="#fff" d="M115.622 78.746c-2.423 1.891-8.222 2.365-11.422.3-.239-.155-.437-.857-1.288-1.551l13.697-.582-.987 1.833z"/><path fill="#FF5D47" d="M116.575 78.319c-.688 1.064-2.968 3.129-6.887 3.094-3.919.035-6.273-2.391-6.963-3.455-.29-.444-.889-1.285-.889-1.285.375 1.038.942 2.588 1.537 3.675.965 1.753 1.869 2.434 2.625 2.937a6.73 6.73 0 0 0 3.653 1.107h.072a6.741 6.741 0 0 0 3.653-1.107c.755-.503 1.66-1.181 2.625-2.932.595-1.088 1.162-2.639 1.536-3.677.002 0-.671 1.201-.962 1.643zm1.43-2.133c-.31.252-.933.493-2.213.318-2.455-.332-4.41-.246-6.082-.083-1.708-.24-3.713-.277-6.095.02-1.282.159-1.901-.087-2.211-.344 1.663 2.209 5.093 2.606 8.25 2.582v-.029h.075v.029c3.158.056 6.589-.304 8.276-2.493z"/><path fill="#B54A37" d="M118.236 75.932c-.397.159-.862.767-.862.767-1.136 1.459-5.175 1.815-6.29 1.81-.342-.001-.79.021-1.3.042-.512-.021-.959-.043-1.301-.042-1.114.006-5.153-.35-6.289-1.81 0 0-.466-.608-.863-.767-.551-.218-.808-.022-.345.292.16.112.454-.091.926.635.714 1.108 3.357 1.642 5.029 1.829.841.094 1.841.147 2.843.171a34.031 34.031 0 0 0 2.843-.171c1.672-.187 4.314-.72 5.027-1.829.473-.726.768-.523.929-.635.461-.315.205-.511-.347-.292z"/><path fill="#1A1A1A" d="M103.021 50.494c-2.545-.95-4.933-2.36-7.501-3.225-1.536-.589-3.222-.741-4.848-.621-.448.033-2.962.937-3.079.759 2.802-1.751 5.698-1.915 8.877-1.148 1.64.395 3.136 1.021 4.5 2.025.34.251 2.364 1.726 2.051 2.21zm13.579-.118c1.638-2.277 4.262-3.56 6.924-4.184 3.083-.723 5.895-.467 8.595 1.215-.117.178-2.63-.727-3.079-.759a12.17 12.17 0 0 0-5.201.747c-1.52.566-2.962 1.353-4.453 1.991-.349.149-2.537 1.341-2.786.99z"/><path fill="#D9AA8E" d="M102.649 56.153s-1.847-5.539-7.212-6.171c-6.518-.766-7.564 4.122-6.948 3.167 0 0 3.28-2.174 8.606-.423 4.296 1.412 5.554 3.427 5.554 3.427z"/><path fill="#fff" d="M100.154 53.979c.592.532 2.444 2.172 2.444 2.172-.67 1.434-2.482 1.928-4.053 1.996-1.679.073-3.374-.17-5.032-.398-1.094-.15-2.551-.092-3.455-.793-.502-.391-2.277-1.837-1.999-2.827.313-1.121 2.333-1.697 3.335-1.959 2.143-.566 4.006-.219 6.126.382 1.115.315 1.509.42 2.634 1.427z"/><radialGradient id="c" cx="2710.931" cy="-80.816" r="2.815" gradientTransform="scale(-1) rotate(3.2 838.638 -50136.023)" gradientUnits="userSpaceOnUse"><stop offset="0" stop-color="#28353D"/><stop offset=".508" stop-color="#27323B"/><stop offset=".809" stop-color="#222A33"/><stop offset="1" stop-color="#1D2029"/></radialGradient><path fill="url(#c)" d="M93.028 52.02a3.022 3.022 0 0 0 2.011 5.11 3.023 3.023 0 0 0 3.183-2.846 2.99 2.99 0 0 0-.61-1.993c-.712-.331-3.87-.468-4.584-.271z"/><path fill="#212121" d="M93.438 54.267a1.843 1.843 0 0 0 1.737 1.948 1.849 1.849 0 1 0 .209-3.69 1.845 1.845 0 0 0-1.946 1.742z"/><path fill="#B76B2C" d="M100.642 57.762s-6.281 1.23-10.271-1.004c-2.032-1.136-2.311-2.629-2.311-2.629s-.351 2.152 2.729 3.346c4.792 1.85 9.853.287 9.853.287z"/><path fill="#fff" d="M92.548 54.45c.248.163.579.09.742-.16a.533.533 0 0 0-.155-.743.545.545 0 0 0-.747.159.54.54 0 0 0 .16.744zm1.345-.53a.437.437 0 1 0 .474-.732.439.439 0 0 0-.603.126.435.435 0 0 0 .129.606z"/><path fill="#1A1A1A" d="M102.599 56.151s-2.991-4.49-9.361-5.023c-5.059-.429-6.993 2.4-6.993 2.4l1.883.669s2.183-2.009 5.794-1.763c4.746.32 8.032 3.054 8.677 3.717z"/><path fill="#D9AA8E" d="M116.919 56.153s1.847-5.539 7.21-6.171c6.52-.766 7.566 4.122 6.95 3.167 0 0-3.282-2.174-8.606-.423-4.295 1.412-5.554 3.427-5.554 3.427z"/><path fill="#fff" d="M119.414 53.979c-.594.532-2.443 2.172-2.443 2.172.668 1.434 2.481 1.928 4.051 1.996 1.681.073 3.375-.17 5.033-.398 1.094-.15 2.551-.092 3.455-.793.502-.391 2.277-1.837 1.999-2.827-.313-1.121-2.335-1.697-3.336-1.959-2.144-.566-4.005-.219-6.125.382-1.116.315-1.509.42-2.634 1.427z"/><radialGradient id="d" cx="606.09" cy="37.23" r="2.816" gradientTransform="scale(1 -1) rotate(3.2 2001.908 -8599.637)" gradientUnits="userSpaceOnUse"><stop offset="0" stop-color="#28353D"/><stop offset=".508" stop-color="#27323B"/><stop offset=".809" stop-color="#222A33"/><stop offset="1" stop-color="#1D2029"/></radialGradient><path fill="url(#d)" d="M126.539 52.02c.482.504.795 1.178.835 1.926a3.018 3.018 0 1 1-6.029.338 2.985 2.985 0 0 1 .61-1.993c.711-.331 3.871-.468 4.584-.271z"/><circle fill="#212121" cx="124.285" cy="54.37" r="1.847"/><path fill="#B76B2C" d="M118.926 57.762s6.282 1.23 10.271-1.004c2.031-1.136 2.312-2.629 2.312-2.629s.349 2.152-2.731 3.346c-4.792 1.85-9.852.287-9.852.287z"/><path fill="#fff" d="M121.799 54.45c.249.163.579.09.744-.16a.535.535 0 0 0-.154-.743.546.546 0 0 0-.748.159.54.54 0 0 0 .158.744zm1.347-.53a.436.436 0 1 0 .474-.732.438.438 0 0 0-.603.126.432.432 0 0 0 .129.606z"/><path fill="#1A1A1A" d="M116.971 56.151s2.99-4.49 9.359-5.023c5.061-.429 6.994 2.4 6.994 2.4l-1.883.669s-2.184-2.009-5.795-1.763c-4.748.32-8.033 3.054-8.675 3.717z"/><path opacity=".32" fill="#F5B1A2" d="M114.635 70.803c-.711-1.888-2.398-1.464-3.979-1.199-.904.149-1.65.035-2.527-.199-.906-.241-1.857-.324-2.532.45-.5.573.562.678.928.796.877.28 1.5.939 2.287 1.391 2.124 1.216 3.657-1.425 5.823-1.239-.039-.102-.83-.073 0 0z"/><path fill="#AE8879" d="M108.151 70.612l.296.241c-.292-.307-.571-.605-.903-.872-.173-.137-1.378-.956-1.59-.606-.032.047 1.039.448 1.119.483.374.144.787.477 1.078.754zm3.145.134l-.315.21c.319-.281.625-.557.976-.794.165-.114 1.496-.833 1.637-.47.023.04-1.073.356-1.155.385-.389.131-.826.406-1.143.669z"/><path opacity=".2" fill="#F5B1A2" d="M107.494 71.29c-.521-.553-1.297-1.1-2.1-.913.749-1.32 2.918.908 3.698 1.134.961.278 1.865-.149 2.709-.569.967-.482 1.904-.64 2.924-.206-.606.19-1.158.126-1.762.421-.646.315-1.22.738-1.854 1.08-1.4.749-2.604.122-3.615-.947zm5.492-1.201c.803.872-1.776 2.058-2.4 1.961.089-.745 1.503-2.942 2.4-1.961zm-6.458-.17c-.803.873 1.776 2.06 2.4 1.961-.088-.745-1.504-2.941-2.4-1.961z"/><path opacity=".5" d="M114.167 69.673s1.144-.429.919-1.548c-.223-1.12-.845-1.674-.845-1.674s.927.769 1.028 1.904c.102 1.126-1.102 1.318-1.102 1.318zm-8.768-.083s-1.141-.429-.918-1.548c.222-1.117.843-1.674.843-1.674s-.923.772-1.025 1.901c-.105 1.132 1.1 1.321 1.1 1.321z" fill="#F6A76A"/><path opacity=".3" fill="#FDE9D7" d="M113.471 64.502s-.664-.284-.885-1.435c-.219-1.15-1.104-3.209-1.545-.528-.439 2.681-.326 4.021.641 3.679 1.42-.5 2.344-.134 2.396-.757.033-.392-.201-.753-.607-.959z"/><path opacity=".5" fill="#F6A76A" d="M110.523 72.566s-.03 2.73-1.442 2.671c-1.412-.061.386.464 1.24.231s.908-.654.202-2.902z"/><path opacity=".3" fill="#fff" d="M141.521 13.55c-1.762 3.291-2.764 6.103-8.939 7.852l-.036.013c-10.065 2.886-16.181-7.057-24.717 1.98-4.416 4.697-8.929 8.549-16.06 5.773-10.97-4.231-14.394-2.91-19.236.134.098-.611.17-1.209.244-1.821.33-2.728 1.48-5.993 3.289-9.344 1.444-.085 3.046.061 4.808.501 10.945 2.642 14.578 8.183 23.212-.794 7.571-7.864 14.555-3.682 24.559-1.773 7.484 1.431 7.926-2.165 9.612-6.128a33.52 33.52 0 0 1 3.264 3.607z"/><path fill="#68CCFF" d="M84.759 84.65s4.051-1.383 6.007-.41c2.549 1.267-.731 9.745-3.021 10.12-2.237.365-4.461-2.437-5.02-4.475.001 0 1.597-1.855 2.034-5.235z"/><path opacity=".3" d="M83.891 87.124c.823-1.277 2.292-1.215 3.228-.895.06.021.411-.026.264-.078-1.062-.363-2.871-.551-3.824.931-.043.068.276.13.332.042zm.193.746c1.085-.129 2.195.265 2.826 1.165.063.085.421.061.393.021-.762-1.086-2.224-1.443-3.494-1.291-.183.021.204.113.275.105zM83.05 89.263c1.009-.796 2.059.289 2.638 1.274.037.064.308.258.217.102-.656-1.122-1.913-2.574-3.085-1.649-.051.039.159.328.23.273z"/><path fill="#68CCFF" d="M81.218 83.274s-2.041-4.022-4.151-4.362c-2.517-.406-6.176 7.902-4.606 9.501 1.959 1.998 4.934 1.22 6.723.093-.001.001.072-2.446 2.034-5.232z"/><path opacity=".3" d="M80.007 85.279c.21-1.287-.802-2.115-1.611-2.468-.051-.022-.257-.26-.129-.204.917.4 2.23 1.35 1.986 2.842-.011.066-.259-.081-.246-.17zm-.498.81c-.802-.862-1.998-1.364-3.159-1.161-.108.02-.389-.256-.337-.264 1.4-.246 2.859.533 3.801 1.544.134.148-.251-.06-.305-.119zm.057 1.142c-.373-.902-1.788-.356-2.772.247-.063.04-.382.112-.227.018 1.122-.686 2.895-1.459 3.327-.414.02.046-.302.212-.328.149z"/><path fill="#FB9A18" d="M81.221 83.228s2.442-.078 3.538 1.422c0 0-.263 3.12-2.033 5.235 0 0-2.394.05-3.555-1.382 0 0 .056-3.248 2.05-5.275z"/><path fill="#68CCFF" d="M134.532 84.65s-4.05-1.383-6.007-.41c-2.549 1.267.73 9.745 3.021 10.12 2.237.365 4.461-2.437 5.021-4.475-.001 0-1.596-1.855-2.035-5.235z"/><path opacity=".3" d="M135.4 87.124c-.822-1.277-2.293-1.215-3.227-.895-.061.021-.412-.026-.265-.078 1.062-.363 2.87-.551 3.823.931.044.068-.273.13-.331.042zm-.193.746c-1.084-.129-2.193.265-2.826 1.165-.061.085-.419.061-.393.021.763-1.086 2.225-1.443 3.494-1.291.185.021-.203.113-.275.105zM136.242 89.263c-1.01-.796-2.059.289-2.639 1.274-.037.064-.309.258-.217.102.656-1.122 1.913-2.574 3.084-1.649.053.039-.157.328-.228.273z"/><path fill="#68CCFF" d="M138.072 83.274s2.041-4.022 4.152-4.362c2.518-.406 6.176 7.902 4.606 9.501-1.958 1.998-4.935 1.22-6.724.093.001.001-.071-2.446-2.034-5.232z"/><path opacity=".3" d="M139.284 85.279c-.21-1.287.803-2.115 1.61-2.468.053-.022.258-.26.131-.204-.918.4-2.23 1.35-1.987 2.842.012.066.261-.081.246-.17zm.499.81c.802-.862 1.996-1.364 3.158-1.161.108.02.39-.256.338-.264-1.399-.246-2.86.533-3.803 1.544-.132.148.253-.06.307-.119zm-.056 1.142c.373-.902 1.787-.356 2.771.247.063.04.382.112.227.018-1.121-.686-2.896-1.459-3.326-.414-.02.046.302.212.328.149z"/><path fill="#FB9A18" d="M138.07 83.228s-2.442-.078-3.538 1.422c0 0 .263 3.12 2.034 5.235 0 0 2.393.05 3.554-1.382 0 0-.056-3.248-2.05-5.275z"/><path fill="#FB8029" d="M148.521 162.33c-.76 3.216-1.763 6.385-3.047 9.429-.818 1.921-1.834 3.779-2.435 5.785-.758 2.519-1.296 5.124-1.405 7.767l-.012.146a17.234 17.234 0 0 0 .158 2.984 94.636 94.636 0 0 1-32.556 5.785 94.647 94.647 0 0 1-32.961-5.932c.099-.624.147-1.26.147-1.908.037-.82.012-1.65-.074-2.508-.379-3.828-1.576-7.229-3.13-10.701-1.725-3.828-2.948-7.754-3.805-11.74l.172-.073c1.039-.355 2.177-.183 3.266 0 2.519.415 5.039.833 7.558 1.26 2.777.453 5.676.905 8.342 0 2.287-.771 4.133-2.458 6.273-3.583 3.963-2.091 8.671-2.141 13.122-1.626 4.44.501 8.867 1.504 13.331 1.356 3.841-.133 7.693-1.111 11.472-.451 4.342.757 8.172 3.606 12.563 3.961.979.074 2.005.037 3.021.049z" opacity=".4"/><path fill="#fff" d="M142.686 188.111l-.903.33a94.632 94.632 0 0 1-32.556 5.785 94.647 94.647 0 0 1-32.961-5.932l-.501-.184.648-1.726.648-1.711a90.923 90.923 0 0 0 64.329 0l.245.636 1.051 2.802z" opacity=".5"/><ellipse fill="#68CCFF" stroke="#3E9AC9" stroke-width=".5" stroke-miterlimit="10" cx="85.533" cy="10.977" rx="1.972" ry="4.008"/><ellipse transform="rotate(-135 82.705 12.152)" fill="#68CCFF" stroke="#3E9AC9" stroke-width=".5" stroke-miterlimit="10" cx="82.698" cy="12.149" rx="4.006" ry="1.973"/><ellipse fill="#68CCFF" stroke="#3E9AC9" stroke-width=".5" stroke-miterlimit="10" cx="81.526" cy="14.984" rx="4.009" ry="1.972"/><ellipse transform="rotate(135 82.706 17.817)" fill="#68CCFF" stroke="#3E9AC9" stroke-width=".5" stroke-miterlimit="10" cx="82.699" cy="17.818" rx="4.007" ry="1.973"/><ellipse fill="#68CCFF" stroke="#3E9AC9" stroke-width=".5" stroke-miterlimit="10" cx="85.533" cy="18.992" rx="1.972" ry="4.007"/><ellipse transform="rotate(45 88.374 17.8)" fill="#68CCFF" stroke="#3E9AC9" stroke-width=".5" stroke-miterlimit="10" cx="88.368" cy="17.818" rx="4.007" ry="1.973"/><ellipse fill="#68CCFF" stroke="#3E9AC9" stroke-width=".5" stroke-miterlimit="10" cx="89.541" cy="14.984" rx="4.007" ry="1.972"/><path fill="#68CCFF" stroke="#3E9AC9" stroke-width=".5" stroke-miterlimit="10" d="M89.763 13.544c1.564-1.564 2.209-3.458 1.438-4.228-.77-.769-2.661-.126-4.228 1.438-1.567 1.567-2.21 3.46-1.438 4.229.769.772 2.662.128 4.228-1.439z"/><path fill="#FB9A18" d="M87.904 14.983a2.372 2.372 0 0 1-4.742 0 2.372 2.372 0 0 1 4.742 0z"/><path fill="#fc9" d="M105.136 125.357l4.924 11.75 4.29-11.951z"/><circle fill="#FB8029" cx="104.524" cy="129.481" r=".611"/><circle fill="#FB8029" cx="105.747" cy="132.707" r=".611"/><circle fill="#FB8029" cx="106.97" cy="135.836" r=".612"/><circle fill="#FB8029" cx="114.961" cy="129.481" r=".612"/><circle fill="#FB8029" cx="113.738" cy="132.707" r=".611"/><circle fill="#FB8029" cx="112.516" cy="135.836" r=".611"/></svg>