<svg xmlns="http://www.w3.org/2000/svg" width="220" height="220" viewBox="0 0 220 220"><path fill="#FEE0A6" d="M74.037 87.282h72.486v45.766H74.037z"/><path fill="#fc9" stroke="#D09D6A" stroke-width=".5" stroke-miterlimit="10" d="M175.589 153.545c-.202-16.998-5.136-20.582-10.623-24.835-5.601-4.343-13.625-4.276-26.141-5.66-7.197-.245-11.769-5.159-14.579-8.894-1.903-2.531-2.837-7.471-2.837-10.636V90.73H99.624v12.79c0 3.166-1.063 8.105-2.967 10.636-2.813 3.734-7.73 7.419-14.778 8.242-12.559 1.471-20.469 1.97-26.069 6.313-5.193 4.025-9.894 7.454-10.553 22.227h-.001l-.001.052a77.913 77.913 0 0 0-.068 2.456c-.336 10.75-2.028 53.035-8.185 65.509l15.949.791 3.738.185s1.525-27.725 8.599-40.91c.779-1.457 1.548-2.97 2.316-4.529 2.946-6.035 5.664-12.567 7.69-17.719l33.565 2.375 36.584-2.47c2.029 5.167 4.763 11.741 7.727 17.813.768 1.56 1.536 3.074 2.314 4.529 7.076 13.186 8.601 40.91 8.601 40.91l3.738-.185 15.948-.791c-6.14-12.438-7.839-54.503-8.182-65.409z"/><path fill="#FFB679" d="M67.602 174.488c-.768 1.56-1.537 3.256-2.316 4.713-7.074 13.186-8.514 40.727-8.514 40.727l-3.858-.158s5.883-27.588 5.883-41.096c0-14.184 3.003-18.242 6.593-19.962 1.227-.586 1.878 6.339 2.212 15.776zm85.566 0c.768 1.56 1.536 3.256 2.314 4.713 7.076 13.186 8.601 40.727 8.601 40.727l3.585-.152s-5.695-27.594-5.695-41.102c0-14.184-5.168-17.875-8.756-19.595-1.226-.585.283 5.972-.049 15.409z"/><path fill="#fff" d="M142.426 140.375c-1.303-5.65.117-16.904.117-16.904l-9.128-1.582c0 12.063-2.539 13.829-6.853 17.617-6.193 5.652-17.063 4.998-17.063 4.998s-10.871.654-17.063-4.998c-4.314-3.788-7.243-4.277-7.243-16.339l-8.605 2.61s1.287 8.947-.016 14.599c-1.305 5.651-1.196 12.933-1.196 12.933h68.245c0-.002.109-7.282-1.195-12.934z"/><path fill="#FED9AE" stroke="#E5BB91" stroke-width=".5" stroke-miterlimit="10" d="M177.25 163.212s-40.382 16.408-40.382 41.366c0 .072.024.529.075 1.27.332 4.901 1.572 14.152 1.572 14.152H68.848s6.569-5.254 6.298-15.65a20.542 20.542 0 0 0-.061-1.301c-.653-9.751-6.94-17.307-31.131-27.808 0 0-.259-1.312-.531-3.331-.664-4.778-.478-13.553 1.54-18.6 0 0 50.806-2.902 65.143-4.184 14.335-1.27 61.722-14.964 61.722-14.964s4.453 7.459 5.833 15.601c.823 4.839.046 10.266-.411 13.449z"/><path fill="#F5C390" d="M177.25 163.212s-40.382 16.408-40.382 41.366c0 .072.024.529.075 1.27a544.02 544.02 0 0 1-61.858-2.799c-.653-9.751-6.94-17.307-31.131-27.808 0 0-.259-1.312-.531-3.331.802.261 34.111 10.699 61.49 8.867 27.724-1.842 51.927-10.512 72.747-31.014.824 4.839.047 10.266-.41 13.449z"/><path opacity=".5" fill="#F6A76A" d="M121.404 93.023v11.168c-6.523 5.103-11.018 5.011-11.018 5.011s-4.379.092-10.766-4.816V93.023h21.784z"/><path fill="#fc9" stroke="#D09D6A" stroke-width=".5" stroke-miterlimit="10" d="M110.385 20.636H81.559V71.61s2.629 16.077 16.386 25.682c7.281 6.275 12.44 6.176 12.44 6.176s5.159.099 12.44-6.176c13.757-9.605 16.386-25.682 16.386-25.682V20.636h-28.826z"/><path fill="#FEE0A6" d="M172.91 125.391c-2.432 7.5-9.746 10.584-9.746 10.584-2.053-2.386-2.717-5.332-2.717-5.332-7.453 1.205-6.696 11.901-6.696 11.901-7.786-2.535-4.815-14.953-4.815-14.953-6.65-1.628-16.396-4.733-21.89-10.801-5.491-6.063-5.274-16.902-3.623-19.25 1.407-2.001 8.209-5.115 12.269-16.959 1.789-5.215 3.875-13.954 2.638-16.82-1.25-2.867-5.31-9.265-10.894-14.998-5.596-5.733-21.314-17.347-24.996-17.347-3.669 0-4.059 5.021-4.059 5.021 4.873 12.178-3.199 14.137-3.199 14.137 3.589-7.314-3.245-9.367-3.245-9.367-3.784 2.156-8.794 14.953-8.932 21.028-.149 6.066.092 14.093 2.523 19.778C87.97 87.69 94.294 95.13 97.16 97.847c2.867 2.729-.216 7.314-.502 12.713-.287 5.391-10.738 12.319-11.466 12.604-6.323 2.471-19.585 5.117-19.585 5.117-4.059 3.817 3.49 18.411 3.49 18.411-9.505-6.776-13.564-13.084-13.564-13.084-2.775-2.396-6.065-13.332-6.065-13.332-.987 3.714 1.708 10.158 1.846 10.502-7.82-3.438-4.197-17.336-4.197-17.336-1.089.859-2.958 6.261-2.958 6.261-1.388-.86-1.56-3.234-1.56-3.234-.493-2.866 6.857-9.849 5.607-12.715-1.238-2.867-2.109-7.109-.746-11.604 1.376-4.483 9.483-11.845 9.483-16.212 0-4.358-2.5-6.857-2.625-13.461-.126-6.616 7.108-10.848 10.479-15.468 2.889-3.944 1.192-8.451 2.453-15.055.207-1.112.505-2.282.918-3.521 1.02-3.061 3.933-6.925 7.338-10.617 6.146-6.685 13.896-12.772 14.859-12.452 1.491.493 4.254-.057 6.353-1.628C100.962.125 109.068 0 109.068 0c12.452.401 23.814 6.57 23.814 6.57s1.158.71 2.97 2.018c1.021.722 2.26 1.65 3.611 2.74 7.396 5.985 18.334 17.015 18.116 29.788-.333 19.252 2.718 18.059 4.724 21.351 2.008 3.301 6.352 11.419 5.354 15.719-1.009 4.3-4.255 6.123-4.104 8.702.137 2.58 4.059 4.392 4.104 6.398s-1.101 2.866-2.247 8.073c-1.146 5.204 1.628 7.556 3.818 10.893 2.204 3.348 6.126 5.641 3.682 13.139z"/><path opacity=".3" fill="#fff" d="M139.464 11.328c-2.683 3.956-2.558 7.396-9.586 9.391l-.034.011c-9.437 2.705-15.17-6.615-23.174 1.856-4.138 4.404-8.37 8.015-15.054 5.413-14.252-5.503-14.928-.985-24.365 3.956.207-1.112.505-2.282.918-3.521 1.02-3.061 3.933-6.925 7.338-10.617 1.708-.31 3.658-.241 5.894.311 10.261 2.476 13.667 7.67 21.762-.746 7.098-7.372 13.646-3.451 23.022-1.663 7.89 1.513 7.431-2.947 9.666-7.131a74.348 74.348 0 0 1 3.613 2.74z"/><path opacity=".5" fill="#F6A76A" d="M95.968 128.702c3.315-.662 6.626-1.091 9.996-1.363.419-.034 1.229-.287 1.547.017.124.127.194.396.27.554.516 1.089 1.45 2.008 2.729 1.927 1.184-.076 2.112-.98 2.738-1.919.086-.126.156-.306.256-.417.225-.456.957-.186 1.32-.152 3.291.28 6.529.704 9.77 1.355a116.63 116.63 0 0 1-5.08-.409c-1.875-.188-3.787-.157-5.671-.269.123-.027.267-.035.332-.172-.667 1.301-1.92 2.679-3.472 2.795-1.85.14-3.237-1.178-3.814-2.859.033.127.254.203.364.223-1.876.104-3.754.17-5.632.233-1.882.184-3.767.352-5.653.456.928-.184.945-.052 0 0z"/><g stroke="#FF7B55" stroke-width=".5" stroke-miterlimit="10"><ellipse fill="#FF9F80" cx="141.314" cy="11.038" rx="1.849" ry="3.758"/><ellipse transform="rotate(-135 138.668 12.141)" fill="#FF9F80" cx="138.656" cy="12.139" rx="3.756" ry="1.85"/><ellipse fill="#FF9F80" cx="137.559" cy="14.795" rx="3.758" ry="1.849"/><ellipse transform="rotate(135 138.67 17.436)" fill="#FF9F80" cx="138.662" cy="17.449" rx="3.757" ry="1.848"/><ellipse fill="#FF9F80" cx="141.314" cy="18.551" rx="1.849" ry="3.758"/><ellipse transform="rotate(45 143.979 17.42)" fill="#FF9F80" cx="143.972" cy="17.45" rx="3.757" ry="1.849"/><ellipse fill="#FF9F80" cx="145.07" cy="14.795" rx="3.759" ry="1.849"/><ellipse transform="rotate(-45 143.966 12.164)" fill="#FF9F80" cx="143.974" cy="12.132" rx="3.757" ry="1.849"/><circle fill="#FFC48C" cx="141.313" cy="14.795" r="2.222"/></g><radialGradient id="a" cx="139.631" cy="-29.388" r="14.577" gradientTransform="matrix(1 0 0 -1 -47.6 50.01)" gradientUnits="userSpaceOnUse"><stop offset="0" stop-color="#ED1C24"/><stop offset="1" stop-color="#ED1C24" stop-opacity="0"/></radialGradient><circle opacity=".15" fill="url(#a)" cx="92.031" cy="79.398" r="14.577"/><radialGradient id="b" cx="175.87" cy="-29.388" r="14.577" gradientTransform="matrix(1 0 0 -1 -47.6 50.01)" gradientUnits="userSpaceOnUse"><stop offset="0" stop-color="#ED1C24"/><stop offset="1" stop-color="#ED1C24" stop-opacity="0"/></radialGradient><circle opacity=".15" fill="url(#b)" cx="128.27" cy="79.398" r="14.577"/><path fill="#1A1A1A" d="M103.547 57.168c-2.715-.63-5.137-1.9-7.736-2.839-1.455-.533-3.018-.945-4.578-.95-.714-.002-1.433.104-2.086.403-.314.144-.573.336-.851.539-.196.161-.308.08-.128-.127 2.253-2.303 5.88-1.564 8.675-.843 1.582.408 3.063.953 4.449 1.83.312.196 2.534 1.546 2.255 1.987z"/><path fill="#D9AA8E" d="M103.503 63.284s-1.729-5.406-6.935-6.084c-6.325-.822-7.401 3.915-6.793 2.995 0 0 3.217-2.074 8.371-.308 4.157 1.422 5.357 3.397 5.357 3.397z"/><path fill="#EACBBA" d="M95.926 57.471s-2.348-.161-3.527.364c-1.179.521-1.8 1.609-1.8 1.609s2.438-.331 2.824-.959c.361-.582 2.503-1.014 2.503-1.014z"/><path fill="#C78A66" d="M102.513 62.251c-.964-1.927-1.977-3.137-3.688-4.126-.958-.555-1.485-.669-1.485-.669s1.408.616 1.503 1.153c.074.418-1.112.726-1.112.726 1.396.746 1.731.834 2.61 1.28.598.304 2.172 1.636 2.172 1.636z"/><path fill="#fff" d="M101.05 61.13c.589.512 2.432 2.094 2.432 2.094-.632 1.417-2.405 1.929-3.941 2.021-1.649.1-3.315-.112-4.943-.31-1.077-.13-2.506-.047-3.404-.721-.5-.376-2.262-1.767-2.004-2.743.289-1.104 2.263-1.701 3.239-1.974 2.092-.59 3.926-.279 6.014.277 1.1.29 1.487.386 2.607 1.356z"/><radialGradient id="c" cx="610.469" cy="-24.923" r="2.762" gradientTransform="rotate(-177.44 354.121 23.476)" gradientUnits="userSpaceOnUse"><stop offset="0" stop-color="#28353D"/><stop offset=".508" stop-color="#27323B"/><stop offset=".809" stop-color="#222A33"/><stop offset="1" stop-color="#1D2029"/></radialGradient><path fill="url(#c)" d="M94.029 59.323a2.962 2.962 0 0 0-.789 1.903 2.96 2.96 0 1 0 5.917.235 2.917 2.917 0 0 0-.627-1.946c-.703-.311-3.804-.397-4.501-.192z"/><path fill="#212121" d="M94.467 61.52a1.81 1.81 0 0 0 1.735 1.883 1.813 1.813 0 1 0 .146-3.624 1.815 1.815 0 0 0-1.881 1.741z"/><path fill="#B76B2C" d="M101.586 64.836s-6.141 1.306-10.088-.823c-2.014-1.083-2.309-2.543-2.309-2.543s-.312 2.118 2.732 3.241c4.73 1.739 9.665.125 9.665.125z"/><path fill="#fff" d="M93.596 61.714a.53.53 0 0 0 .562-.894.535.535 0 0 0-.732.166.534.534 0 0 0 .17.728zm1.311-.541a.427.427 0 0 0 .59-.134.435.435 0 0 0-.137-.594.433.433 0 0 0-.59.135.427.427 0 0 0 .137.593z"/><path fill="#1A1A1A" d="M103.482 63.224s-3.004-4.358-9.264-4.779c-4.971-.338-6.821 2.468-6.821 2.468l1.857.627s2.109-2.009 5.658-1.823c4.66.236 7.928 2.866 8.57 3.507zm13.664-6.185c1.889-2.027 4.492-3.112 7.124-3.772 1.59-.399 3.263-.719 4.909-.583.726.061 1.441.22 2.105.521.2.09 1.616.979 1.386 1.186-.055.049-1.115-.637-1.313-.722-.686-.235-1.396-.309-2.117-.28-1.586.063-3.167.504-4.639 1.078-1.538.6-3.01 1.326-4.574 1.866-.352.121-2.674 1.108-2.881.706z"/><path fill="#D9AA8E" d="M117.268 63.284s1.729-5.406 6.934-6.084c6.326-.822 7.4 3.915 6.793 2.995 0 0-3.217-2.074-8.371-.308-4.157 1.422-5.356 3.397-5.356 3.397z"/><path fill="#EACBBA" d="M124.844 57.471s2.348-.161 3.527.364c1.179.521 1.799 1.609 1.799 1.609s-2.438-.331-2.824-.959c-.36-.582-2.502-1.014-2.502-1.014z"/><path fill="#C78A66" d="M118.258 62.251c.965-1.927 1.977-3.137 3.688-4.126.959-.555 1.484-.669 1.484-.669s-1.406.616-1.502 1.153c-.074.418 1.112.726 1.112.726-1.396.746-1.731.834-2.61 1.28-.599.304-2.172 1.636-2.172 1.636z"/><path fill="#fff" d="M119.721 61.13c-.59.512-2.433 2.094-2.433 2.094.633 1.417 2.405 1.929 3.94 2.021 1.649.1 3.315-.112 4.944-.31 1.077-.13 2.507-.047 3.404-.721.5-.376 2.262-1.767 2.004-2.743-.289-1.104-2.263-1.701-3.239-1.974-2.092-.59-3.926-.279-6.014.277-1.098.29-1.487.386-2.606 1.356z"/><radialGradient id="d" cx="-577.905" cy="22.406" r="2.761" gradientTransform="scale(1 -1) rotate(2.3 1878.408 17543.61)" gradientUnits="userSpaceOnUse"><stop offset="0" stop-color="#28353D"/><stop offset=".508" stop-color="#27323B"/><stop offset=".809" stop-color="#222A33"/><stop offset="1" stop-color="#1D2029"/></radialGradient><path fill="url(#d)" d="M126.741 59.323c.467.501.759 1.169.79 1.903a2.961 2.961 0 1 1-5.918.235 2.912 2.912 0 0 1 .628-1.946c.702-.311 3.803-.397 4.5-.192z"/><path fill="#212121" d="M126.303 61.52a1.812 1.812 0 1 1-3.621.144 1.815 1.815 0 0 1 1.74-1.885 1.813 1.813 0 0 1 1.881 1.741z"/><path fill="#B76B2C" d="M119.184 64.836s6.142 1.306 10.088-.823c2.014-1.083 2.31-2.543 2.31-2.543s.312 2.118-2.731 3.241c-4.731 1.739-9.667.125-9.667.125z"/><path fill="#fff" d="M122.18 61.714a.529.529 0 1 0 .561-.896.529.529 0 0 0-.561.896zm1.312-.541a.428.428 0 0 0 .59-.134.435.435 0 0 0-.137-.594.433.433 0 0 0-.59.135.425.425 0 0 0 .137.593z"/><path fill="#1A1A1A" d="M117.288 63.224s3.004-4.358 9.265-4.779c4.971-.338 6.821 2.468 6.821 2.468l-1.856.627s-2.109-2.009-5.658-1.823c-4.663.236-7.93 2.866-8.572 3.507z"/><path fill="#B54A37" d="M107.69 87.573c3.637.378 8.891.245 10.528-.796 0 0-.608 1.748-1.489 3.069-1.221 1.821-3.15 2.349-6.386 2.275-4.983-.113-5.164.246-6.687-2.918-.183-.386-1.18-2.531-1.694-3.189-.001.001 2.145 1.186 5.728 1.559z"/><path fill="#fff" d="M116.378 88.628c-2.485 1.939-8.439 2.426-11.727.309-.242-.159-.449-.88-1.321-1.597l14.063-.594-1.015 1.882z"/><path fill="#FF5D47" d="M117.355 88.191c-.703 1.092-3.045 3.209-7.068 3.176-4.022.033-6.441-2.458-7.147-3.549a57.747 57.747 0 0 0-.913-1.318c.385 1.063.966 2.658 1.576 3.773.992 1.798 1.919 2.499 2.695 3.016a6.929 6.929 0 0 0 3.751 1.136h.075c1.386 0 2.73-.459 3.75-1.136.777-.517 1.703-1.212 2.695-3.013.608-1.113 1.19-2.708 1.574-3.773.003 0-.687 1.232-.988 1.688z"/><path opacity=".58" fill="#fff" d="M112.816 92.955s-.26-.953-.022-1.355c.188-.318 1.272-.511 1.308-.278.094.636.6 1.281.058 1.586-.542.302-1.167.438-1.344.047z"/><path opacity=".43" fill="#fff" d="M111.318 93.271s-.266-1.104.197-1.178c.463-.073.867-.084.875.149.008.235.334 1.337-.07 1.409-.618.107-.873.027-1.002-.38z"/><path fill="#FF5D47" d="M118.826 85.999c-.319.262-.958.506-2.274.329-2.519-.343-4.524-.253-6.241-.087-1.754-.247-3.813-.285-6.258.022-1.317.162-1.952-.092-2.269-.354 1.708 2.268 5.228 2.674 8.469 2.649v-.029h.075v.029c3.242.061 6.764-.311 8.498-2.559z"/><path fill="#B54A37" d="M119.063 85.741c-.408.161-.885.786-.885.786-1.168 1.497-5.314 1.863-6.459 1.856-.352 0-.814.022-1.334.042-.522-.02-.983-.042-1.336-.042-1.144.007-5.29-.359-6.456-1.856 0 0-.479-.625-.887-.786-.565-.226-.828-.024-.352.298.164.113.466-.094.95.652.733 1.138 3.449 1.688 5.163 1.876.864.098 1.889.155 2.918.175a32.404 32.404 0 0 0 2.918-.175c1.715-.189 4.428-.739 5.163-1.876.483-.746.785-.539.949-.652.478-.322.213-.524-.352-.298z"/><path opacity=".32" fill="#F5B1A2" d="M115.167 81.563c-.7-1.861-2.364-1.441-3.921-1.181-.891.146-1.626.035-2.491-.196-.894-.239-1.83-.319-2.494.442-.495.566.552.67.914.787.864.275 1.477.925 2.255 1.369 2.091 1.199 3.603-1.403 5.737-1.221-.038-.1-.819-.069 0 0z"/><path fill="#AE8879" d="M108.776 81.376l.291.238c-.288-.304-.564-.595-.889-.858-.171-.138-1.357-.943-1.569-.6-.03.047 1.027.441 1.104.477.371.144.774.471 1.063.743zm3.1.133l-.312.207c.313-.275.615-.547.959-.783.164-.112 1.474-.821 1.615-.463.021.04-1.059.352-1.138.378-.382.132-.811.402-1.124.661z"/><path opacity=".2" fill="#F5B1A2" d="M108.13 82.043c-.514-.544-1.277-1.082-2.069-.897.739-1.302 2.874.894 3.642 1.116.949.277 1.84-.146 2.671-.561.954-.475 1.876-.629 2.882-.203-.599.188-1.141.125-1.736.417-.635.309-1.203.728-1.824 1.063-1.383.738-2.571.121-3.566-.935zm5.412-1.182c.791.859-1.749 2.03-2.366 1.933.088-.734 1.483-2.9 2.366-1.933zm-6.365-.165c-.79.859 1.75 2.029 2.367 1.931-.089-.735-1.483-2.899-2.367-1.931z"/><path opacity=".5" fill="#F6A76A" d="M110.738 83.301s-.026 2.446-1.292 2.392c-1.263-.055.347.417 1.113.207.766-.208.812-.584.179-2.599zM114.706 80.451s1.125-.422.903-1.525c-.219-1.104-.83-1.651-.83-1.651s.91.76 1.011 1.875c.103 1.113-1.084 1.301-1.084 1.301zm-8.642-.082s-1.125-.422-.905-1.524c.219-1.103.832-1.65.832-1.65s-.911.762-1.011 1.875c-.102 1.113 1.084 1.299 1.084 1.299z"/><path opacity=".3" fill="#FDE9D7" d="M114.02 75.356s-.656-.28-.871-1.414c-.215-1.136-1.088-3.164-1.523-.521-.434 2.642-.323 3.964.629 3.626 1.4-.494 2.313-.133 2.365-.747.03-.389-.201-.744-.6-.944z"/><path fill="#fc9" d="M80.895 61.981c-.643.884-.911 1.691-1.097 4.629-.181 2.939.811 7.132 2.754 7.511 1.945.38 1.98-1.466 2.095-2.71.116-1.246-.02-14.562-3.752-9.43z"/><path fill="#FFB679" d="M82.483 64.713c-1.333-.102-1.256 3.697-1.17 5.041.086 1.341 1.262 2.224 2.045 2.02.782-.202 1.259-2.143.473-2.312-.784-.168-1.192-.735-.752-1.199.441-.466 1.06-3.427-.596-3.55z"/><path fill="#fc9" d="M140.128 61.981c.644.884.911 1.691 1.097 4.629.183 2.939-.811 7.132-2.754 7.511-1.945.38-1.979-1.466-2.095-2.71-.114-1.246.02-14.562 3.752-9.43z"/><path fill="#FFB679" d="M138.541 64.713c1.333-.102 1.256 3.697 1.17 5.041-.086 1.341-1.262 2.224-2.045 2.02-.782-.202-1.259-2.143-.473-2.312.783-.168 1.191-.735.752-1.199-.441-.466-1.061-3.427.596-3.55z"/></svg>