<svg xmlns="http://www.w3.org/2000/svg" width="220" height="220" viewBox="0 0 220 220"><path d="M64.852 44.353h85.474v87.249H64.852z"/><path fill="#fc9" stroke="#D09D6A" stroke-width=".5" stroke-miterlimit="10" d="M122.309 116.162c-4.925-5.82-4.479-27.852-4.479-27.852h-17.321s.451 22.032-4.479 27.852c-4.923 5.822-34.566 16.566-34.566 16.566v10.924h95.413v-10.924c-.002.001-29.643-10.746-34.568-16.566z"/><path opacity=".5" fill="#F6A76A" d="M118.659 104.801l-.214.083c-6.299 2.361-12.812 1.542-18.765-1.055.937-7.592.77-15.516.77-15.516h17.319c.001 0-.178 8.611.89 16.488zm-23.066 23.566c3.144-.627 6.286-1.033 9.48-1.292.398-.034 1.165-.273 1.469.013.116.123.185.376.257.527.489 1.033 1.374 1.904 2.587 1.828 1.122-.072 2.004-.93 2.596-1.82.082-.12.146-.29.244-.396.213-.432.906-.177 1.252-.146 3.123.268 6.194.669 9.267 1.287a114.278 114.278 0 0 1-4.819-.387c-1.779-.181-3.593-.149-5.38-.256.118-.024.252-.033.315-.162-.633 1.231-1.821 2.539-3.294 2.649-1.754.133-3.07-1.118-3.619-2.712.033.119.243.193.348.211-1.782.098-3.563.161-5.343.221-1.783.177-3.572.338-5.36.435.88-.176.896-.049 0 0z"/><path fill="#fc9" stroke="#D09D6A" stroke-width=".5" stroke-miterlimit="10" d="M143.672 57.206c-.191-3.04-.47-3.874-1.135-4.789-1.319-1.814-2.203-1.398-2.792-.015-.169-1.245-.351-2.487-.527-3.726-.856-5.963-.69-12.004-1.563-17.954-.441-3.023-1.34-6.119-3.219-8.591-6.367-8.38-26.048-8.109-26.048-8.109s-19.684-.271-26.051 8.109c-5.634 7.41-4.503 19.539-4.458 29.085-.422.044-.916.404-1.495 1.2-.665.915-.943 1.749-1.135 4.789-.186 3.008.819 7.281 2.787 7.751.604 8.496 2.636 16.796 8.543 23.359 7.582 8.42 19.091 15.024 29.927 10.632 13.122-5.321 23.127-19.896 23.983-33.949l.334-.022c2.01-.391 3.036-4.729 2.849-7.77z"/><path fill="#FD586A" stroke="#EA2F4A" stroke-width=".5" stroke-miterlimit="10" d="M170.523 138.65c-11.701-8.965-31.582-14.811-37.043-14.424-5.449.389-6.238 10.699-24.313 10.721-18.072-.021-18.862-10.332-24.312-10.721-5.459-.387-25.342 5.459-37.043 14.424-11.696 8.974-8.379 81.207-8.379 81.207h139.472c.001 0 3.316-72.232-8.382-81.207z"/><path fill="#F2F2F2" d="M164.256 168.341c0 4.792-1.139 9.573-3.439 13.772-.699 1.269-1.696 2.408-2.385 3.677-.272.498-.511 1.009-.652 1.565-.533 2.004-.771 23.901-1.092 32.645H61.664c-.249 0 .403-29.025-1.376-33.521a4.967 4.967 0 0 0-.392-.807c-.664-1.222-1.661-2.277-2.336-3.5-2.325-4.21-3.477-9.027-3.477-13.831 0-4.78 1.152-9.573 3.452-13.784 1.08-1.969 2.408-3.818 3.986-5.433 1.553-1.601 2.254-3.154 3.547-4.922 1.827-2.492 4.922-4.259 7.235-6.265 1.91-1.637 3.583-3.511 5.302-5.336 1.804-1.922 3.773-4.662 6.703-4.662h.143c.38.201 1.198 1.103 1.815 1.778 3.083 3.392 8.647 9.109 22.905 9.121 14.258-.012 19.833-5.729 22.905-9.121.616-.676 1.448-1.577 1.827-1.778h.131c3.131.095 5.396 3.154 7.318 5.291 3.928 4.375 10.226 7.566 13.037 12.785 1.91 3.56 5.231 6.026 7.045 9.764 1.884 3.903 2.822 8.233 2.822 12.562z"/><path fill="#1A1A1A" d="M163.34 123.354c-5.053 8.955-14.447 13.629-24.127 15.229-8.85 1.875-12.359 15.444-12.359 15.444s-7.854-12.586 4.519-23.154c8.493-7.26 14.614-16.132 16.073-27.602 1.045-8.221-1.008-16.299-1.945-24.4-.877-7.532-.616-15.065-3.582-22.158-2.336-5.576-5.361-10.499-9.797-14.544-4.094-3.736-8.494-7.935-13.273-10.723-2.539-1.483-5.752-2.656-8.696-2.871-6.856-.51-22.015 9.051-25.492 13.891-8.789 12.242-11.767 26.25-10.995 41.292.7 13.404 3.5 25.491 12.586 35.715 2.775 3.133 6.914 8.695 5.789 13.405-2.622 10.83-5.718 18.884-15.516 22.004-2.895.913-6.062.333-8.837 1.399 6.82-4.946 14.662-11.221 5.99-18.327-8.944-7.33-19.05-15.953-22.466-27.91-1.199-14.413 1.411-28.908 4.768-42.857 2.954-12.253 4.828-24.507 8.742-35.93 1.458-4.282 3.215-8.458 5.421-12.468a61.505 61.505 0 0 1 5.823-8.766C79.109 6.085 84.032-.047 89.654 0c3.013.036 5.445.593 8.232 1.388 3.701 1.057 6.37-.89 10.106-1.103 9.479-.557 17.318 1.802 23.665 7.224a33.527 33.527 0 0 1 3.144 3.072c1.732 1.922 3.333 4.104 4.805 6.572 12.869 21.505 20.722 44.661 25.49 69.333 2.289 11.862 4.496 25.776-1.756 36.868z"/><path opacity=".1" fill="#fff" d="M73.535 123.262c-1.223.911-3.536-9.156-3.862-10.266-1.697-5.683-3.146-11.354-3.638-17.731-.59-7.564-.24-15.495-.129-23.242.089-6.483.449-12.913 2.146-19.403 2.096-7.999 5.75-14.486 10.143-20.803-3.686 4.161-7.129 8.561-9.684 14.092-2.876 6.229-4.169 12.937-4.596 19.734-.901 14.516-.881 30.359 2.64 43.256.894 3.291 1.972 6.508 3.419 9.328.808 1.574 2.054 4.657 3.561 5.035"/><path fill="#1A1A1A" d="M102.053 50.495c-2.625-1.109-5.426-2.38-8.226-2.946-1.612-.414-3.357-.428-5.006-.314a14.62 14.62 0 0 0-2.416.38c-.241.059-1.286.483-1.342.168-.055-.308 3.681-1.22 4.02-1.264 1.778-.255 3.49-.326 5.281-.123 1.684.191 3.293.614 4.776 1.445.442.247 3.324 2.065 2.913 2.654z"/><path fill="#D9AA8E" d="M102.46 59.127s-2.11-7.134-8.045-7.877c-7.215-.902-8.318 5.431-7.649 4.188 0 0 3.606-2.854 9.515-.663 4.762 1.764 6.179 4.352 6.179 4.352z"/><path fill="#EACBBA" d="M93.689 51.628s-2.675-.143-4.002.592c-1.328.729-2.005 2.195-2.005 2.195s2.764-.516 3.19-1.362c.394-.784 2.817-1.425 2.817-1.425z"/><path fill="#C78A66" d="M101.304 57.784c-1.146-2.532-2.329-4.107-4.299-5.374-1.105-.708-1.708-.847-1.708-.847s1.619.778 1.741 1.49c.094.555-1.245.998-1.245.998 1.607.95 1.99 1.058 3.001 1.624.686.387 2.51 2.109 2.51 2.109z"/><path fill="#fff" d="M86.751 55.722s-.026 3.446 5.417 4.339c5.429.89 10.283-1.211 10.283-1.211s-2.644-3.692-8.062-4.631c-5.419-.942-7.638 1.503-7.638 1.503z"/><radialGradient id="a" cx="133.682" cy="36.257" r="2.879" gradientTransform="scale(1 -1) rotate(-4.88 -979.916 458.745)" gradientUnits="userSpaceOnUse"><stop offset="0" stop-color="#28353D"/><stop offset=".508" stop-color="#27323B"/><stop offset=".809" stop-color="#222A33"/><stop offset="1" stop-color="#1D2029"/></radialGradient><path fill="url(#a)" d="M93.818 54.282c-1.346-.317-2.081-.323-2.437.104a3.081 3.081 0 0 0-.703 1.717 3.09 3.09 0 0 0 2.821 3.346 3.093 3.093 0 0 0 3.228-3.98c-.154-.507-1.884-.945-2.909-1.187z"/><path fill="#212121" d="M92.092 56.083a1.673 1.673 0 0 0 1.526 1.807 1.668 1.668 0 0 0 1.803-1.523 1.667 1.667 0 0 0-1.522-1.809 1.676 1.676 0 0 0-1.807 1.525z"/><path d="M91.03 56.447a.618.618 0 0 0 .853-.181c.184-.284.107-.664-.179-.85s-.667-.105-.854.18a.614.614 0 0 0 .18.851zm1.538-.605a.502.502 0 1 0 0 0z" fill="#fff"/><path fill="#1A1A1A" d="M102.451 58.85s-3-5.091-9.929-6.06c-5.503-.774-7.79 2.202-7.79 2.202l2.019.845s2.505-2.066 6.438-1.576c5.171.637 8.598 3.825 9.262 4.589z"/><path fill="#B76B2C" d="M101.174 59.349s-6.725 2.026-11.488-.15c-2.427-1.107-2.885-2.786-2.885-2.786s.063 2.707 3.43 3.564c5.701 1.446 10.943-.628 10.943-.628z"/><path fill="#1A1A1A" d="M116.189 50.378c1.929-2.708 5.334-3.743 8.478-4.057a16.791 16.791 0 0 1 4.946.259c.422.085 3.797 1.015 3.607 1.345-.014.024-3.7-.701-4.055-.702-1.81-.007-3.519.014-5.288.473-1.595.413-3.172 1.053-4.707 1.645-.432.166-2.651 1.362-2.981 1.037z"/><path fill="#D9AA8E" d="M115.878 59.127s2.108-7.134 8.045-7.877c7.216-.902 8.318 5.431 7.647 4.188 0 0-3.605-2.854-9.514-.663-4.761 1.764-6.178 4.352-6.178 4.352z"/><path fill="#EACBBA" d="M124.648 51.628s2.676-.143 4.002.592c1.328.729 2.006 2.195 2.006 2.195s-2.764-.516-3.19-1.362c-.394-.784-2.818-1.425-2.818-1.425z"/><path fill="#C78A66" d="M117.035 57.784c1.146-2.532 2.328-4.107 4.299-5.374 1.105-.708 1.708-.847 1.708-.847s-1.619.778-1.741 1.49c-.094.555 1.246.998 1.246.998-1.607.95-1.99 1.058-3.001 1.624-.689.387-2.511 2.109-2.511 2.109z"/><path fill="#fff" d="M131.587 55.722s.024 3.446-5.417 4.339c-5.429.89-10.283-1.211-10.283-1.211s2.645-3.692 8.063-4.631c5.418-.942 7.637 1.503 7.637 1.503z"/><radialGradient id="b" cx="1044.279" cy="113.572" r="2.88" gradientTransform="scale(-1) rotate(-4.88 -1546.23 13754.623)" gradientUnits="userSpaceOnUse"><stop offset="0" stop-color="#28353D"/><stop offset=".508" stop-color="#27323B"/><stop offset=".809" stop-color="#222A33"/><stop offset="1" stop-color="#1D2029"/></radialGradient><path fill="url(#b)" d="M124.52 54.282c1.347-.317 2.082-.323 2.437.104.392.468.647 1.059.704 1.717a3.09 3.09 0 0 1-2.821 3.346 3.095 3.095 0 0 1-3.228-3.98c.154-.507 1.883-.945 2.908-1.187z"/><path fill="#212121" d="M126.246 56.083a1.675 1.675 0 0 1-1.527 1.807 1.667 1.667 0 0 1-1.802-1.523 1.667 1.667 0 0 1 1.522-1.809 1.676 1.676 0 0 1 1.807 1.525z"/><path d="M122.184 56.447a.615.615 0 1 0-.18-.851.61.61 0 0 0 .18.851zm1.537-.605a.501.501 0 1 0 .547-.839.501.501 0 0 0-.547.839z" fill="#fff"/><path fill="#1A1A1A" d="M115.889 58.85s2.998-5.091 9.928-6.06c5.504-.774 7.791 2.202 7.791 2.202l-2.02.845s-2.505-2.066-6.438-1.576c-5.171.637-8.597 3.825-9.261 4.589z"/><path fill="#B76B2C" d="M117.165 59.349s6.724 2.026 11.487-.15c2.428-1.107 2.886-2.786 2.886-2.786s-.063 2.707-3.431 3.564c-5.701 1.446-10.942-.628-10.942-.628z"/><path opacity=".32" fill="#F5B1A2" d="M114.465 73.275c-.775-2.062-2.617-1.596-4.344-1.309-.987.164-1.8.04-2.76-.216-.989-.264-2.026-.354-2.761.49-.548.628.611.743 1.012.871.957.306 1.636 1.025 2.498 1.518 2.317 1.326 3.992-1.556 6.355-1.354-.041-.111-.908-.077 0 0z"/><path fill="#AE8879" d="M107.388 73.068l.322.263c-.318-.336-.625-.658-.984-.95-.19-.153-1.504-1.044-1.738-.665-.034.052 1.138.489 1.223.528.41.16.857.522 1.177.824zm3.432.146l-.344.23c.346-.306.681-.607 1.063-.868.182-.124 1.631-.909 1.788-.513.024.044-1.173.39-1.259.419-.425.147-.901.446-1.248.732z"/><path opacity=".2" fill="#F5B1A2" d="M106.672 73.806c-.57-.602-1.416-1.198-2.292-.994.819-1.442 3.184.99 4.035 1.237 1.05.306 2.038-.162 2.958-.621 1.057-.526 2.078-.697 3.191-.225-.664.208-1.265.139-1.924.461-.703.343-1.332.806-2.021 1.177-1.531.818-2.845.135-3.947-1.035zm5.993-1.308c.876.951-1.937 2.247-2.62 2.14.099-.814 1.643-3.211 2.62-2.14zm-7.049-.184c-.875.951 1.938 2.247 2.622 2.138-.1-.813-1.643-3.211-2.622-2.138z"/><path opacity=".5" fill="#F6A76A" d="M109.561 75.199s-.029 2.71-1.432 2.649c-1.399-.06.385.462 1.231.229.849-.229.9-.646.201-2.878zM113.956 72.043s1.244-.468 1.001-1.689c-.243-1.223-.92-1.828-.92-1.828s1.008.841 1.119 2.076c.114 1.232-1.2 1.441-1.2 1.441zm-9.572-.09s-1.245-.468-1.002-1.689c.243-1.221.921-1.828.921-1.828s-1.009.843-1.12 2.076c-.113 1.234 1.201 1.441 1.201 1.441z"/><path opacity=".3" fill="#FDE9D7" d="M113.193 66.399s-.726-.309-.965-1.566c-.237-1.257-1.205-3.503-1.688-.577-.481 2.926-.358 4.39.697 4.016 1.551-.547 2.561-.147 2.619-.827.037-.429-.217-.823-.663-1.046z"/><path fill="#B54A37" d="M106.205 81.769c4.001.416 9.781.271 11.581-.875 0 0-.667 1.924-1.64 3.378-1.34 2.001-3.465 2.582-7.023 2.501-5.481-.123-5.681.272-7.354-3.21-.203-.424-1.3-2.781-1.865-3.506-.002-.001 2.359 1.303 6.301 1.712z"/><path fill="#fff" d="M115.762 82.931c-2.736 2.132-9.284 2.667-12.899.337-.269-.172-.495-.966-1.454-1.754l15.468-.654-1.115 2.071z"/><path fill="#FF5D47" d="M116.839 82.449c-.776 1.201-3.351 3.532-7.777 3.495-4.425.037-7.086-2.702-7.862-3.902-.33-.501-1.003-1.452-1.003-1.452.423 1.171 1.062 2.924 1.733 4.149 1.091 1.98 2.112 2.751 2.964 3.319a7.617 7.617 0 0 0 4.126 1.249h.083a7.606 7.606 0 0 0 4.125-1.249c.854-.567 1.873-1.334 2.965-3.314.67-1.227 1.31-2.981 1.732-4.152.003 0-.757 1.356-1.086 1.857z"/><path opacity=".58" fill="#fff" d="M111.846 87.689s-.285-1.048-.027-1.491c.207-.35 1.399-.563 1.438-.307.103.701.66 1.411.063 1.746-.593.334-1.281.484-1.474.052z"/><path opacity=".43" fill="#fff" d="M110.197 88.039s-.294-1.216.214-1.296c.511-.082.956-.092.962.162.012.258.368 1.471-.078 1.55-.678.119-.957.029-1.098-.416z"/><path fill="#FF5D47" d="M118.454 80.038c-.353.286-1.054.557-2.501.362-2.771-.377-4.979-.28-6.867-.096-1.93-.271-4.195-.314-6.882.022-1.449.181-2.149-.1-2.498-.388 1.879 2.494 5.751 2.942 9.317 2.917v-.034h.084v.034c3.565.064 7.442-.343 9.347-2.817z"/><path fill="#B54A37" d="M118.715 79.753c-.449.179-.974.866-.974.866-1.284 1.647-5.845 2.05-7.104 2.043-.386-.001-.892.023-1.468.046-.576-.023-1.082-.047-1.467-.046-1.261.007-5.821-.396-7.104-2.043 0 0-.525-.687-.974-.866-.622-.249-.913-.028-.39.329.182.125.513-.105 1.046.717.806 1.25 3.792 1.854 5.68 2.064.95.104 2.077.168 3.209.192a37.484 37.484 0 0 0 3.21-.192c1.887-.209 4.874-.814 5.68-2.064.533-.823.864-.592 1.047-.717.522-.357.231-.578-.391-.329z"/><path fill="#FFB679" d="M140.895 55.244c1.377-.105 1.299 3.825 1.209 5.215-.088 1.388-1.305 2.3-2.115 2.09-.809-.208-1.303-2.217-.489-2.392.812-.174 1.233-.76.778-1.241-.458-.482-1.096-3.545.617-3.672zm-62.869 0c-1.378-.105-1.3 3.825-1.21 5.215.089 1.388 1.305 2.3 2.116 2.09.809-.208 1.302-2.217.489-2.392-.811-.174-1.233-.76-.778-1.241.456-.482 1.096-3.545-.617-3.672z"/><radialGradient id="c" cx="136.736" cy="-30.849" r="16.145" gradientTransform="matrix(1 0 0 -1 -47.6 50.01)" gradientUnits="userSpaceOnUse"><stop offset="0" stop-color="#ED1C24"/><stop offset="1" stop-color="#ED1C24" stop-opacity="0"/></radialGradient><circle opacity=".15" fill="url(#c)" cx="89.136" cy="80.859" r="16.145"/><radialGradient id="d" cx="176.802" cy="-30.849" r="16.146" gradientTransform="matrix(1 0 0 -1 -47.6 50.01)" gradientUnits="userSpaceOnUse"><stop offset="0" stop-color="#ED1C24"/><stop offset="1" stop-color="#ED1C24" stop-opacity="0"/></radialGradient><circle opacity=".15" fill="url(#d)" cx="129.202" cy="80.859" r="16.146"/><path opacity=".1" fill="#fff" d="M134.801 10.581c-2.764 3.867-2.431 7.26-9.252 9.193l-.035.011c-8.896 2.551-14.293-6.239-21.839 1.756-3.902 4.14-7.889 7.544-14.187 5.101-14.293-5.528-14.104-.356-24.768 4.615 1.458-4.282 3.215-8.458 5.421-12.468 2.407-1.743 5.54-2.479 9.714-1.458 9.668 2.337 12.882 7.235 20.509-.7 6.69-6.951 12.859-3.25 21.697-1.566 7.959 1.519 6.903-3.393 9.596-7.556a33.283 33.283 0 0 1 3.144 3.072z"/><path fill="#E6E6E6" d="M158.443 185.708l-.012.213c-.272.498-.511 1.009-.652 1.565-.533 2.005-.202 4.152-.166 6.191.154 8.742-.605 17.579-.926 26.321h-3.76l-.07-1.149-.451-8.623c-3.797-12.101-80.994-12.101-84.79-.107l-.415 8.777L67.13 220h-5.468c-.249 0-.296-2.74-.296-2.895-.19-4.732-.167-9.467-.261-14.211-.107-4.779.96-11.791-.819-16.287a5.008 5.008 0 0 0-.392-.807v-.236c7.948 2.516 23.545 8.172 49.274 8.185 24.757-.069 40.047-5.586 49.275-8.041z"/><g stroke="#FF7B55" stroke-width=".5" stroke-miterlimit="10"><ellipse fill="#FF9F80" cx="65.211" cy="37.105" rx="2.187" ry="4.443"/><ellipse transform="rotate(-135 62.072 38.412)" fill="#FF9F80" cx="62.068" cy="38.407" rx="4.443" ry="2.187"/><ellipse fill="#FF9F80" cx="60.768" cy="41.549" rx="4.444" ry="2.187"/><ellipse transform="rotate(135 62.075 44.693)" fill="#FF9F80" cx="62.069" cy="44.692" rx="4.444" ry="2.187"/><ellipse fill="#FF9F80" cx="65.211" cy="45.993" rx="2.187" ry="4.444"/><ellipse transform="rotate(45 68.368 44.682)" fill="#FF9F80" cx="68.354" cy="44.691" rx="4.445" ry="2.187"/><ellipse fill="#FF9F80" cx="69.655" cy="41.549" rx="4.443" ry="2.187"/><ellipse transform="rotate(-45 68.351 38.421)" fill="#FF9F80" cx="68.353" cy="38.406" rx="4.444" ry="2.187"/><circle fill="#FFC48C" cx="65.211" cy="41.549" r="2.628"/></g><g stroke="#FF7B55" stroke-width=".5" stroke-miterlimit="10"><ellipse fill="#FF9F80" cx="138.268" cy="17.125" rx="2.188" ry="4.443"/><ellipse transform="rotate(-135 135.138 18.432)" fill="#FF9F80" cx="135.132" cy="18.421" rx="4.443" ry="2.187"/><ellipse fill="#FF9F80" cx="133.824" cy="21.569" rx="4.443" ry="2.187"/><ellipse transform="rotate(135 135.132 24.696)" fill="#FF9F80" cx="135.122" cy="24.704" rx="4.443" ry="2.187"/><ellipse fill="#FF9F80" cx="138.268" cy="26.013" rx="2.188" ry="4.444"/><ellipse transform="rotate(45 141.419 24.682)" fill="#FF9F80" cx="141.41" cy="24.71" rx="4.444" ry="2.187"/><ellipse fill="#FF9F80" cx="142.711" cy="21.569" rx="4.443" ry="2.187"/><ellipse transform="rotate(-45 141.423 18.451)" fill="#FF9F80" cx="141.409" cy="18.426" rx="4.444" ry="2.187"/><circle fill="#FFC48C" cx="138.268" cy="21.569" r="2.628"/></g></svg>