<svg xmlns="http://www.w3.org/2000/svg" width="220" height="220" viewBox="0 0 220 220"><path fill="#fc9" stroke="#D09D6A" stroke-width=".5" stroke-miterlimit="10" d="M41.604 150.633l2.344-2.186c.75-.718.707-1.892-.069-2.576l-5.869-5.164c-.641-.564-1.338-.52-1.936.092l-2.375 2.698c-.385.438-1.303.53-1.883.439l-1.896-.293-5.754-.876c-1.061-.154-2.001.574-2.156 1.634l.003.064c-.125 1.026.608 2.032 1.668 2.188l1.638.244c.741.113.953.958.448 1.532.688-.713-2.507 2.849-2.507 2.849-.772.875-1.097 2.266-.067 2.934.86.517 2.143.149 2.767-.559l-1.056 1.201a1.884 1.884 0 0 0 .407 2.87c.83.553 1.668.211 2.292-.495l.89-1.012c-.771.876-.501 2.609.528 3.277.798.523 1.885.102 2.508-.605l1.187-1.35c-.771.876-.766 1.958.201 2.629a1.983 1.983 0 0 0 2.587-.356l.356-.403c0-.004 1.819-1.936 5.744-8.776zm141.808 9.815l.356.403a1.983 1.983 0 0 0 2.587.356c.967-.67.972-1.753.201-2.629l1.187 1.35c.623.707 1.71 1.128 2.508.605 1.029-.667 1.299-2.401.528-3.277l.89 1.012c.623.707 1.461 1.048 2.292.495a1.884 1.884 0 0 0 .406-2.87l-1.056-1.201c.624.708 1.906 1.076 2.766.559 1.029-.667.705-2.058-.067-2.934 0 0-3.194-3.562-2.507-2.849-.504-.574-.292-1.418.448-1.532l1.638-.244c1.061-.156 1.793-1.161 1.669-2.188l.002-.064c-.154-1.06-1.094-1.788-2.155-1.633l-5.754.875-1.896.293c-.58.09-1.498-.001-1.883-.439l-2.375-2.698c-.598-.611-1.295-.656-1.937-.092l-5.869 5.164c-.776.684-.818 1.858-.068 2.576l2.344 2.186c3.926 6.844 5.745 8.776 5.745 8.776zM120.03 94.717s-24.946 4.628-21.025 0c2.534-2.988 3.147-9.482 3.267-13.703.067-2.308-.013-3.935-.013-3.935s18.238-10.109 16.09 0a29.36 29.36 0 0 0-.58 4.161c-.547 7.942 2.261 13.477 2.261 13.477z"/><path opacity=".5" fill="#F6A76A" d="M118.349 77.747a29.36 29.36 0 0 0-.58 4.161c-3.734.986-6.295 1.76-7.322 1.76-1.047 0-3.941-.899-8.175-1.987.067-2.307-.013-3.934-.013-3.934s18.238-10.11 16.09 0z"/><path fill="#fc9" stroke="#D09D6A" stroke-width=".5" stroke-miterlimit="10" d="M156.306 42.907c-5.159-10.221-9.624-5.211-10.368-4.254.406-2.805 1.163-12.158-4.925-20.995-11.022-13.995-28.236-14.19-31.562-14.09-3.325-.1-20.539.095-31.56 14.09-6.088 8.836-5.333 18.188-4.926 20.994-.745-.958-5.209-5.963-10.367 4.255-2.59 7.089 5.123 12.946 6.979 14.23.009.499.036.976.088 1.422.765 6.479 2.678 16.287 23.528 19.432 8.593 1.486 14.71 3.714 16.258 3.714 1.635 0 7.664-2.228 16.258-3.714 20.849-3.146 22.762-12.954 23.528-19.432.052-.446.08-.923.088-1.422 1.858-1.283 9.57-7.14 6.981-14.23z"/><path fill="#FFB679" d="M67.406 41.262c-1.864.084-1.12 5.333-.773 7.18.347 1.843 2.122 2.867 3.175 2.452 1.048-.41 1.382-3.177.266-3.279-1.117-.103-1.776-.817-1.247-1.538.533-.721.894-4.923-1.421-4.815zm84.092 0c1.864.084 1.12 5.333.773 7.18-.347 1.843-2.123 2.867-3.175 2.452-1.048-.41-1.382-3.177-.266-3.279 1.117-.103 1.775-.817 1.246-1.538-.532-.721-.893-4.923 1.422-4.815z"/><path opacity=".5" fill="#4F4849" d="M89.683 36.594c8.823-2.662 10.471 1.542 11.395 2.904-.431.137-7.226-3.006-7.65-2.84-2.191.841-4.305 1.9-5.885 2.683-.42.211-.673.736-1.009.901.728-1.331 2.234-3.372 3.149-3.648z"/><path fill="#B76B2C" d="M100.413 45.828s-6.085 3.45-10.829 1.626c-2.417-.929-3.051-2.842-3.051-2.842s.116 2.978 3.658 3.675c5.509 1.083 10.222-2.459 10.222-2.459z"/><path fill="#fff" d="M102.162 42.5c0 3.313-3.605 5.992-8.059 5.992-4.448 0-8.053-2.679-8.053-5.992 0-1.807 1.072-3.427 2.774-4.522 1.414-.914 3.258-1.468 5.278-1.468 2.05 0 3.918.565 5.337 1.502 1.669 1.096 2.723 2.698 2.723 4.488z"/><path fill="#716667" d="M94.105 48.41c-3.296 0-5.979-2.651-5.979-5.908 0-3.259 2.683-5.909 5.979-5.909 3.298 0 5.98 2.65 5.98 5.909 0 3.257-2.682 5.908-5.98 5.908z"/><path fill="#4F4849" d="M94.105 46.174c-2.057 0-3.73-1.647-3.73-3.672 0-2.026 1.673-3.672 3.73-3.672 2.058 0 3.731 1.646 3.731 3.672 0 2.025-1.673 3.672-3.731 3.672z"/><path d="M89.049 43.347a.62.62 0 0 0 .677-1.037.619.619 0 0 0-.677 1.037zm1.546-.609a.503.503 0 1 0 .549-.843.504.504 0 0 0-.549.843z" fill="#fff"/><path fill="#F9AE87" d="M101.371 34.171s-11.406-4.709-18.622 5.044c0 .001 6.224-13.896 18.622-5.044z"/><path opacity=".5" fill="#4F4849" d="M131.409 36.594c-8.822-2.662-10.47 1.542-11.395 2.904.432.137 7.227-3.006 7.65-2.84 2.191.841 4.305 1.9 5.884 2.683.421.211.674.736 1.009.901-.727-1.331-2.233-3.372-3.148-3.648z"/><path fill="#B76B2C" d="M120.68 45.828s6.085 3.45 10.829 1.626c2.416-.929 3.05-2.842 3.05-2.842s-.115 2.978-3.658 3.675c-5.509 1.083-10.221-2.459-10.221-2.459z"/><path fill="#fff" d="M118.93 42.5c0 3.313 3.605 5.992 8.059 5.992 4.448 0 8.054-2.679 8.054-5.992 0-1.807-1.072-3.427-2.775-4.522-1.414-.914-3.257-1.468-5.279-1.468-2.05 0-3.917.565-5.337 1.502-1.668 1.096-2.722 2.698-2.722 4.488z"/><path fill="#716667" d="M126.987 48.41c3.297 0 5.979-2.651 5.979-5.908 0-3.259-2.682-5.909-5.979-5.909s-5.98 2.65-5.98 5.909c0 3.257 2.682 5.908 5.98 5.908z"/><path fill="#4F4849" d="M126.987 46.174c2.057 0 3.731-1.647 3.731-3.672 0-2.026-1.674-3.672-3.731-3.672s-3.731 1.646-3.731 3.672c0 2.025 1.674 3.672 3.731 3.672z"/><path d="M121.73 43.347a.62.62 0 0 0 .677-1.037.62.62 0 0 0-.677 1.037zm1.546-.609a.503.503 0 1 0 .55-.843.504.504 0 0 0-.55.843z" fill="#fff"/><path fill="#F9AE87" d="M119.722 34.171s11.406-4.709 18.622 5.044c0 .001-6.224-13.896-18.622-5.044z"/><path fill="#FFE9C7" d="M111.483 47.667c-1.643-.48-3.227.33-4.145.847-1.192.671-2.652 1.616-1.961 3.152.5 1.111 5.923.482 6.432.378 1.575-.325 3.064-1.766 1.334-3.399-.546-.51-1.105-.818-1.66-.978z"/><path opacity=".5" d="M114.504 54.695s1.333-.497 1.074-1.795c-.26-1.3-.985-1.945-.985-1.945s1.08.897 1.198 2.207c.121 1.314-1.287 1.533-1.287 1.533zm-10.178.094s-1.394-.52-1.121-1.878c.273-1.361 1.032-2.035 1.032-2.035s-1.131.937-1.256 2.311c-.126 1.37 1.345 1.602 1.345 1.602z" fill="#F6A76A"/><path opacity=".32" fill="#F5B1A2" d="M115.929 54.559c-1.007-2.675-3.396-2.07-5.633-1.7-1.281.213-2.337.051-3.579-.28-1.283-.343-2.628-.457-3.583.635-.71.815.794.964 1.313 1.128 1.241.398 2.122 1.332 3.239 1.97 3.005 1.722 5.177-2.017 8.243-1.753-.055-.145-1.178-.102 0 0z"/><path fill="#AE8879" d="M106.75 54.289l.418.339c-.414-.432-.812-.852-1.278-1.229-.246-.2-1.949-1.355-2.252-.864-.045.068 1.473.633 1.585.687.531.208 1.112.673 1.527 1.067zm4.451.189l-.446.298c.451-.396.883-.784 1.38-1.124.233-.159 2.115-1.181 2.317-.664.033.053-1.521.505-1.633.544-.551.188-1.167.574-1.618.946z"/><path opacity=".2" fill="#F5B1A2" d="M105.82 55.246c-.739-.781-1.836-1.555-2.972-1.291 1.061-1.869 4.129 1.286 5.233 1.608 1.362.395 2.642-.212 3.836-.806 1.369-.682 2.695-.903 4.139-.292-.86.268-1.64.181-2.494.596-.913.447-1.729 1.048-2.623 1.526-1.984 1.063-3.689.174-5.119-1.341zm7.775-1.696c1.135 1.235-2.514 2.914-3.399 2.775.127-1.056 2.129-4.165 3.399-2.775zm-9.143-.241c-1.135 1.236 2.514 2.916 3.399 2.776-.128-1.054-2.13-4.164-3.399-2.776z"/><path fill="#F9AE87" d="M120.688 60.589c-.535.213-1.163 1.033-1.163 1.033-1.53 1.963-6.972 2.443-8.475 2.438-.46 0-1.065.028-1.751.057-.687-.029-1.292-.057-1.751-.057-1.504.006-6.945-.475-8.475-2.438 0 0-.627-.82-1.163-1.033-.742-.297-1.088-.033-.465.395.217.149.613-.127 1.249.854.961 1.489 4.523 2.213 6.775 2.461 1.134.126 2.479.202 3.83.23a44.174 44.174 0 0 0 3.829-.23c2.253-.248 5.815-.972 6.777-2.461.635-.981 1.031-.705 1.249-.854.622-.428.277-.692-.466-.395z"/><path fill="#B54A37" d="M119.288 62.414c-.477 1.313-1.137 3.081-1.838 4.348l-.271.472c-1.137 1.914-2.203 2.709-3.104 3.303a8.648 8.648 0 0 1-4.696 1.425h-.093a8.668 8.668 0 0 1-4.702-1.425c-.783-.518-1.685-1.183-2.651-2.596a14.23 14.23 0 0 1-.725-1.179c-.766-1.391-1.49-3.382-1.973-4.72.029.042 1.596-.094 2.403-.194 2.009-.248 3.806-.312 5.425-.236.784.029 1.526.095 2.227.188h.006l.177.023a37.114 37.114 0 0 1 2.05-.147 30.882 30.882 0 0 1 5.773.261c1.65.223 2.304.211 1.992.477z"/><path fill="#FF5D47" d="M117.179 67.234c-1.137 1.914-2.203 2.709-3.104 3.303a8.648 8.648 0 0 1-4.696 1.425h-.093a8.668 8.668 0 0 1-4.702-1.425c-.783-.518-1.685-1.183-2.651-2.596 1.915-.915 5.055-1.503 8.607-1.503 2.515-.001 4.824.301 6.639.796z"/><path fill="#fff" d="M109.296 61.801v1.543c0 .326-.259.59-.589.59h-1.054a.59.59 0 0 1-.589-.59v-1.731c.784.029 1.526.095 2.227.188h.005zm2.227-.125v1.667c0 .326-.26.59-.589.59h-1.054a.591.591 0 0 1-.59-.59V61.8l.183.023a39.174 39.174 0 0 1 2.05-.147z"/><ellipse transform="rotate(13.7 92.249 50.777)" fill="#fc9" cx="92.398" cy="50.876" rx="9.865" ry="4.701"/><ellipse transform="scale(-1) rotate(-13.7 -423.39 1079.056)" fill="#fc9" cx="129.719" cy="50.876" rx="9.865" ry="4.702"/><radialGradient id="a" cx="85.778" cy="59.132" r="16.206" gradientUnits="userSpaceOnUse"><stop offset="0" stop-color="#ED1C24"/><stop offset="1" stop-color="#ED1C24" stop-opacity="0"/></radialGradient><circle opacity=".15" fill="url(#a)" cx="85.779" cy="59.131" r="16.205"/><radialGradient id="b" cx="132.324" cy="59.132" r="16.206" gradientUnits="userSpaceOnUse"><stop offset="0" stop-color="#ED1C24"/><stop offset="1" stop-color="#ED1C24" stop-opacity="0"/></radialGradient><circle opacity=".15" fill="url(#b)" cx="132.324" cy="59.131" r="16.206"/><path opacity=".5" d="M97.121 57.259c-1.031-.199-1.737.488-2.332 1.252-.68.79-1.173 1.74-1.899 2.494-.054-1.146.447-2.419 1.208-3.266.728-.807 2.2-1.617 3.023-.48zm24.755.278c1.03-.197 1.73.484 2.326 1.247.68.79 1.173 1.734 1.895 2.489.057-1.142-.445-2.417-1.204-3.258-.729-.809-2.189-1.608-3.017-.478z" fill="#F6A76A"/><path d="M96.751 5.215c1.25-2.098 3.008-3.546 4.952-4.463 2.291-1.142 4.686-.861 6.628.025 1.839 1.11 3.397 2.917 3.765 5.454.338 2.096.148 4.425-.897 6.612-.71-1.319-1.314-2.771-2.222-3.931-.965-1.238-2.139-2.366-3.53-2.985-1.409-.626-2.876-1.025-4.477-1.118-.761-.044-1.547.023-2.328.098l-1.891.308zM123.64 7.27A13.294 13.294 0 0 0 119 2.535c-2.096-1.325-4.209-1.327-5.887-.708-1.573.839-2.861 2.365-3.05 4.707-.187 1.929.107 4.137 1.154 6.307.559-1.161 1.018-2.457 1.762-3.446.791-1.058 1.773-1.987 2.975-2.414a9.674 9.674 0 0 1 3.917-.556c.674.041 1.376.192 2.074.349l1.695.496z" fill="#A75A29"/><path fill="#13B9C9" d="M189.392 144.676a.802.802 0 0 1-.219.428l-9.555 9.857-.311.319a.824.824 0 0 1-.596.252.85.85 0 0 1-.521-.176l-32.737-25.491c1.133 6.474 4.668 29.06 3.593 53.904-.185 4.24-.302 8.497-.411 12.611-.227 8.489-.454 16.591-1.226 23.619h-29.597c-.302-5.172-.227-10.487-.16-15.139.067-4.333.117-8.078-.143-10.529-1.193-10.974-3.107-14.333-8.203-14.375-5.156 0-7.037 3.199-8.396 14.266-.294 2.452-.294 6.188-.286 10.512.008 4.693.017 10.059-.37 15.265H70.852c-.671-6.994-.772-15.063-.873-23.519-.051-4.316-.101-8.774-.235-13.241-.739-24.811 3.106-47.397 4.333-53.863l-33.149 25.105a.827.827 0 0 1-.503.168.867.867 0 0 1-.622-.269l-.26-.277-9.396-10.101a.769.769 0 0 1-.185-.353.812.812 0 0 1 .092-.663c.109-.176 11.327-17.792 25.995-34.198C70.692 92.426 75.05 91.653 75.496 91.62l22.729-4.685 3.274-2.552a.814.814 0 0 1 .512-.185l.084.008a.762.762 0 0 1 .386.135c.16.109 4.022 2.594 8.732 2.594 2.233 0 4.315-.563 6.18-1.671a.705.705 0 0 1 .369-.109l.059-.009a.88.88 0 0 1 .412.101l3.871 2.149 22.418 4.677c.403.067 1.747.453 4.719 2.813 2.972 2.351 7.565 6.684 14.475 14.618 14.602 16.768 25.466 34.4 25.567 34.576.109.185.151.395.109.596z"/><path fill="#B9F2F9" d="M148.208 183.736c-.563 12.956-.487 25.835-1.646 36.264h-27.909c-.588-9.992.252-20.571-.311-25.76-1.234-11.352-3.317-15.08-9.026-15.122-5.709-.034-7.851 3.661-9.236 15.004-.638 5.197.067 15.861-.663 25.878H71.692c-1.024-10.529-.714-23.611-1.108-36.785-.252-8.581.025-16.834.563-24.24.134-1.964.294-3.862.47-5.701v-.017c1.427-15.365 3.711-25.886 3.711-25.886 9.488-15.651.235-34.92.235-34.92l23.023-4.736a19.314 19.314 0 0 0 2.645 2.057c5.432 3.594 11.813 3.93 17.355.756a18.898 18.898 0 0 0 3.224-2.334l22.645 4.728s-9.513 19.144-.235 34.92c0 0 2.141 10.546 3.358 25.92.151 1.847.286 3.761.403 5.735.428 7.413.596 15.666.227 24.239z"/><path fill="#7FCFEF" d="M75.563 92.455s-4.041.301-18.884 16.897c-14.844 16.596-25.914 34.082-25.914 34.082l9.656 10.377 34.907-26.438c9.489-15.65.235-34.918.235-34.918z"/><path fill="#14BDCE" d="M40.42 153.811l3.357-2.542-10.503-11.642-2.509 3.807z"/><path fill="#7FCFEF" d="M144.457 92.919s4.035.355 18.654 17.149 25.487 34.462 25.487 34.462l-9.862 10.177-34.514-26.87c-9.279-15.776.235-34.918.235-34.918z"/><path fill="#14BDCE" d="M178.735 154.708l-3.494-2.72 11.106-10.978c1.773 2.011 2.25 3.52 2.25 3.52l-9.862 10.178zm-56.927-66.514l-3.986-2.211c-7.592 4.523-15.807-.942-15.807-.942l-3.428 2.672c6.938 6.376 16.197 6.762 23.221.481z"/><g fill="#14BDCE"><circle cx="110.524" cy="98.778" r="1.418"/><circle cx="110.392" cy="115.06" r="1.418"/><circle cx="110.259" cy="131.344" r="1.418"/></g><path fill="#7FCFEF" d="M147.584 153.759c-.062-.025-6.755-2.373-9.414-7.173-3.85-6.952-7.103-9.398-28.459-9.541-21.357-.145-24.642 2.258-28.586 9.155-2.723 4.766-9.449 7.038-9.512 7.061l-.635 5.785c.315-.115 10.38-4.285 13.936-10.505 2.684-4.695 4.031-7.052 24.766-6.912 20.735.141 22.05 2.514 24.67 7.245 3.471 6.268 13.48 10.572 13.794 10.69l-.56-5.805z"/></svg>