<svg xmlns="http://www.w3.org/2000/svg" width="220" height="220" viewBox="0 0 220 220"><path fill="#fc9" stroke="#D09D6A" stroke-width=".5" stroke-miterlimit="10" d="M143.236 107.96l-.766 21.772-32.968 1.17v.045l-.608-.022-.607.022v-.045l-32.958-1.17-.775-21.772c0-.968 7.437-2.768 8.336-3.049 1.981-.63 4.367-.788 6.099-2.014 2.443-1.744 1.891-4.197 2.026-6.875l.157-3.41.214-4.455 16.9-.113h1.215l16.9.113.214 4.455.034.575.135 2.835.011.597c.045 2.441-.258 4.67 2.015 6.278 1.732 1.227 4.117 1.384 6.099 2.014.902.281 8.327 2.081 8.327 3.049z"/><path opacity=".5" fill="#F6A76A" d="M126.797 96.618c-.754.461-1.563.923-2.408 1.384-4.468 3.51-11.771 4.489-11.771 4.489h-6.492s-7.313-.979-11.77-4.489a41.538 41.538 0 0 1-3.341-1.981l.157-3.41c.99.642 2.048 1.272 3.184 1.879 4.456 3.512 11.77 4.49 11.77 4.49h6.492s7.303-.978 11.771-4.49a46.039 46.039 0 0 0 2.262-1.304l.136 2.835.01.597z"/><path fill="#fc9" stroke="#D09D6A" stroke-width=".5" stroke-miterlimit="10" d="M147.799 49.463c-1.055-.244-3.107 1.459-4.902 3.23 1.457-17.005-.555-33.711-.555-33.711L108.38 6.984 74.417 18.982s-2.013 16.706-.554 33.711c-1.795-1.771-3.849-3.475-4.904-3.23-2.117.492-3.716 4.362-.074 10.873 3.644 6.511 7.045 15.391 9.199 14.536.336-.133.606-.342.833-.59 3.58 10.435 6.658 16.196 15.425 21.23 3.914 3.299 10.319 4.216 10.319 4.216h7.433s6.405-.917 10.319-4.216c8.769-5.035 11.847-10.796 15.426-21.23.226.249.498.458.833.59 2.155.855 5.557-8.025 9.2-14.536 3.644-6.511 2.044-10.381-.073-10.873z"/><path fill="#1A1A1A" d="M82.57 51.524c.466-.149.941-.273 1.418-.381.783-.177 1.316-.124 2.099.015 1.801.318 3.606.616 5.417.871a60.9 60.9 0 0 0 5.04.594c.736.054 1.391.065 2.069.368.553.231 1.096.496 1.627.775-.43.231-.876.432-1.328.616-.805.328-1.326.328-2.183.263a67.95 67.95 0 0 1-5.51-.633 155.265 155.265 0 0 1-5.163-.825c-.739-.13-1.375-.184-2.013-.591a13.09 13.09 0 0 1-1.473-1.072z"/><path fill="#fff" d="M100.611 59.284c.099.846.393 1.678-.022 2.451-.799 1.491-1.99 2.233-3.672 2.215-1.799-.022-3.598-.381-5.356-.724-1.158-.226-2.722-.25-3.646-1.051-.514-.447-2.325-2.099-1.969-3.142.402-1.18 2.595-1.671 3.681-1.896 2.323-.478 4.859-.289 7.193.054 1.409.205 3.219.598 3.791 2.093z"/><radialGradient id="a" cx="633.761" cy="-1.313" r="3.014" gradientTransform="rotate(-173.72 365.17 44.357)" gradientUnits="userSpaceOnUse"><stop offset="0" stop-color="#28353D"/><stop offset=".508" stop-color="#27323B"/><stop offset=".809" stop-color="#222A33"/><stop offset="1" stop-color="#1D2029"/></radialGradient><path fill="url(#a)" d="M91.383 57.077a3.218 3.218 0 0 0-1.009 2.009 3.232 3.232 0 1 0 5.89-1.451c-.74-.394-4.107-.731-4.881-.558z"/><path fill="#212121" d="M91.687 59.501a1.978 1.978 0 1 0 2.185-1.747 1.977 1.977 0 0 0-2.185 1.747z"/><path fill="#1A1A1A" d="M100.611 59.284s-.502-1.374-3.609-1.72c-3.105-.35-6.729-.024-7.671-.128-.942-.105-3.47 1.584-3.47 1.584s1.321-2.172 3.511-2.604c1.987-.393 7.648-.024 9.079.284 1.428.305 2.16 2.584 2.16 2.584z"/><path fill="#B76B2C" d="M98.881 63.593s-6.49 1.013-10.621-1.61c-2.103-1.335-2.314-2.949-2.314-2.949s-.501 2.282 2.721 3.739c5.012 2.262 10.214.82 10.214.82z"/><path fill="#fff" d="M90.724 59.642a.576.576 0 1 0 .682-.927.576.576 0 0 0-.682.927zm1.47-.484a.469.469 0 0 0 .552-.756.473.473 0 0 0-.654.099.465.465 0 0 0 .102.657z"/><path fill="#1A1A1A" d="M134.189 51.524c-.375.315-.773.604-1.18.877-.676.454-1.195.585-1.989.727a161.11 161.11 0 0 1-5.482.881 62.106 62.106 0 0 1-5.161.607c-.798.06-1.438.182-2.195-.106a12.717 12.717 0 0 1-1.664-.747c1.118-.587 2.098-1.022 3.359-1.118a65.53 65.53 0 0 0 5.375-.619c1.705-.241 3.405-.519 5.103-.815.73-.128 1.341-.296 2.073-.143.594.115 1.185.272 1.761.456z"/><path fill="#fff" d="M116.148 59.284c-.101.846-.394 1.678.021 2.451.799 1.491 1.99 2.233 3.673 2.215 1.799-.022 3.598-.381 5.354-.724 1.158-.226 2.723-.25 3.647-1.051.515-.447 2.325-2.099 1.97-3.142-.402-1.18-2.596-1.671-3.683-1.896-2.323-.478-4.858-.289-7.192.054-1.407.205-3.217.598-3.79 2.093z"/><radialGradient id="b" cx="-2527.915" cy="352.458" r="3.014" gradientTransform="scale(1 -1) rotate(6.37 2495.645 23959.691)" gradientUnits="userSpaceOnUse"><stop offset="0" stop-color="#28353D"/><stop offset=".508" stop-color="#27323B"/><stop offset=".809" stop-color="#222A33"/><stop offset="1" stop-color="#1D2029"/></radialGradient><path fill="url(#b)" d="M125.376 57.077a3.227 3.227 0 0 1 1.008 2.009 3.23 3.23 0 1 1-6.422.718 3.205 3.205 0 0 1 .534-2.169c.738-.394 4.106-.731 4.88-.558z"/><path fill="#212121" d="M125.072 59.501a1.978 1.978 0 1 1-2.183-1.747 1.977 1.977 0 0 1 2.183 1.747z"/><path fill="#1A1A1A" d="M116.148 59.284s.5-1.374 3.608-1.72c3.104-.35 6.728-.024 7.671-.128.94-.105 3.471 1.584 3.471 1.584s-1.322-2.172-3.512-2.604c-1.988-.393-7.646-.024-9.078.284-1.428.305-2.16 2.584-2.16 2.584z"/><path fill="#B76B2C" d="M117.878 63.593s6.489 1.013 10.62-1.61c2.104-1.335 2.314-2.949 2.314-2.949s.502 2.282-2.722 3.739c-5.01 2.262-10.212.82-10.212.82z"/><path fill="#fff" d="M126.035 59.642a.574.574 0 0 1-.805-.124.573.573 0 0 1 .123-.803.574.574 0 1 1 .682.927zm-1.471-.484a.468.468 0 1 1 .102-.657.462.462 0 0 1-.102.657z"/><path opacity=".32" fill="#F5B1A2" d="M107.949 73.964c1.795.185 3.953.807 4.006 1.054-2.372 1.162-7.338.496-7.186-.115.119-.473 2.04-1.057 3.18-.939z"/><path fill="#AE8879" d="M111.186 74.401c.484-.023.985.217.957.307-.031.092-.521.02-.945.042-.258.014-1.068.212-1.109.125-.04-.087.804-.459 1.097-.474zm-5.471-.165c.509.1 1.117.48 1.076.566-.042.087-.744-.141-1.097-.216-.303-.064-1.018.022-1.058-.064-.043-.088.739-.354 1.079-.286z"/><path opacity=".2" fill="#F5B1A2" d="M105.913 75.224c-.512-.542-1.271-1.078-2.058-.895.735-1.295 2.859.888 3.624 1.113.944.273 1.831-.148 2.657-.559.949-.471 1.866-.625 2.868-.201-.598.187-1.136.124-1.729.412-.633.31-1.196.727-1.816 1.058-1.374.735-2.556.12-3.546-.928z"/><path opacity=".5" fill="#F6A76A" d="M112.748 74.424s.986-.369.793-1.335c-.193-.967-.729-1.448-.729-1.448s.799.668.886 1.644c.089.976-.95 1.139-.95 1.139zm-8.737 0s-.985-.369-.792-1.335c.192-.967.729-1.448.729-1.448s-.799.668-.887 1.644c-.09.976.95 1.139.95 1.139z"/><path opacity=".3" fill="#FDE9D7" d="M111.32 68.991s-.688-.293-.915-1.488c-.227-1.194-1.145-3.329-1.604-.548-.457 2.782-.338 4.172.664 3.817 1.474-.519 2.433-.141 2.488-.786.033-.407-.208-.782-.633-.995z"/><path fill="#F9AE87" d="M119.203 79.253c-.51.206-1.105 1.006-1.105 1.006-1.455 1.914-6.625 2.383-8.054 2.379-.438-.002-1.011.026-1.664.055-.654-.028-1.229-.057-1.665-.055-1.428.004-6.599-.465-8.053-2.379 0 0-.597-.8-1.105-1.006-.705-.291-1.033-.033-.441.384.206.147.583-.124 1.187.833.913 1.451 4.297 2.158 6.438 2.401 1.077.124 2.357.195 3.641.223 1.283-.028 2.562-.099 3.638-.223 2.142-.243 5.527-.95 6.439-2.401.604-.957.982-.686 1.188-.833.589-.417.262-.675-.444-.384z"/><path fill="#B54A37" d="M118.119 80.833c-.465 1.098-1.105 2.574-1.791 3.631l-.266.394c-1.107 1.6-2.147 2.265-3.025 2.76-1.247.71-2.884 1.191-4.58 1.191h-.09c-1.694 0-3.338-.481-4.584-1.191-.764-.431-1.644-.987-2.584-2.168-.23-.287-.466-.611-.708-.986-.747-1.162-1.454-2.826-1.924-3.941.028.035 1.556-.08 2.344-.164 1.959-.206 3.71-.262 5.29-.196.765.023 1.488.08 2.172.156h.005l.171.02a45.927 45.927 0 0 1 2-.123 35.084 35.084 0 0 1 5.629.22c1.609.185 2.246.177 1.941.397z"/><path fill="#FF5D47" d="M116.063 84.858c-1.107 1.6-2.147 2.265-3.025 2.76-1.247.71-2.884 1.191-4.58 1.191h-.09c-1.694 0-3.338-.481-4.584-1.191-.764-.431-1.644-.987-2.584-2.168 1.866-.764 4.928-1.256 8.392-1.256 2.45.001 4.703.251 6.471.664z"/><path fill="#fff" d="M117.975 80.839l-19.107-.166s-.895 2.155 9.073 2.042l.888-.005c9.966.112 9.146-1.871 9.146-1.871z"/><path fill="#FFAC81" d="M98.543 80.669c-.002-.104 3.338-.374 3.669-.467 1.99-.292 4.229-.466 6.174-.134 1.864-.298 4.168-.104 6.15.196.336.093 3.688.373 3.682.477.036 1.029-19.711.893-19.675-.072z"/><path opacity=".5" fill="#F6A76A" d="M109.043 77s-.027 2.448-1.295 2.395c-1.266-.054.347.417 1.113.208.767-.209.814-.586.182-2.603z"/><path fill="#FFB679" d="M72.514 60.23c-1.294.625 1.116 5.106 2.027 6.66.906 1.547 2.535 1.942 3.134 1.26.597-.676-.158-3.252-.989-3.016-.828.24-1.552-.207-1.436-1.009.121-.8-1.132-4.669-2.736-3.895zm72.565-2.355c1.353.479-.591 5.2-1.338 6.842-.746 1.638-2.324 2.208-2.989 1.594-.663-.606-.174-3.25.678-3.105.848.147 1.522-.377 1.324-1.159-.201-.784.65-4.767 2.325-4.172z"/><radialGradient id="c" cx="138.232" cy="-31.761" r="16.242" gradientTransform="matrix(1 0 0 -1 -47.6 50.01)" gradientUnits="userSpaceOnUse"><stop offset="0" stop-color="#ED1C24"/><stop offset="1" stop-color="#ED1C24" stop-opacity="0"/></radialGradient><circle opacity=".15" fill="url(#c)" cx="90.633" cy="81.771" r="16.242"/><radialGradient id="d" cx="175.024" cy="-31.761" r="16.243" gradientTransform="matrix(1 0 0 -1 -47.6 50.01)" gradientUnits="userSpaceOnUse"><stop offset="0" stop-color="#ED1C24"/><stop offset="1" stop-color="#ED1C24" stop-opacity="0"/></radialGradient><circle opacity=".15" fill="url(#d)" cx="127.425" cy="81.771" r="16.243"/><path fill="#1A1A1A" d="M140.797 63.726s1.332-12.226-11.9-21.105c.547 3.929-6.142 3.341-6.142 3.341s-12.87-5.045-18.525-11.326c-5.654-6.281.328 5.308-6.002-2.563.492 3.27 2.351 6.407 2.351 6.407s-3.702-.387-7.451-10.529c-2.374 6.297-5.056 7.472-6.351 2.992 0 0-7.523 14.083-9.319 17.533-1.796 3.448-2.057 17.114-2.057 17.114s-3.793-5.849-5.026-15.257c-1.234-9.41-2.247-16.851-.958-20.46 1.286-3.609 3.582-16.946 11.478-20.084C88.788 6.648 92.158 7.32 92.158 7.32S97.781.49 102.623.031c4.841-.457 28.667 4.063 36.031 12.583 7.363 8.518 8.871 17.696 8.871 17.696s1.512 11.311-1.217 22.656c-2.73 11.347-5.511 10.76-5.511 10.76z"/><path opacity=".1" fill="#fff" d="M142.514 57.824c-1.084-4.794-4.121-11.541-12.363-17.073l-4.174-2.802.692 4.981.004.198c-.134.175-1.101.613-3.024.613l-.396-.007c-1.99-.815-12.6-5.328-17.351-10.604-1.575-1.75-2.682-2.698-4.027-2.698-.398 0-1.063.084-1.626.559-.086-.104-5.485-6.819-5.485-6.819l.435 2.89-2.05-5.546-2.126 5.642c-.75 1.989-1.428 3.139-1.89 3.743a6.71 6.71 0 0 1-.194-.583L87.4 25l-2.609 4.883c-.076.141-7.549 14.133-9.33 17.554-.854 1.638-1.395 4.875-1.737 8.19a42.22 42.22 0 0 1-1.119-5.586l-.076-.577c-1.113-8.483-2.075-15.81-.995-18.834.243-.681.489-1.568.801-2.69 1.346-4.844 3.852-13.859 9.387-16.061 5.376-2.138 8.43-2.369 9.494-2.369a4.7 4.7 0 0 1 .555.026l1.257.188.865-.973c1.951-2.362 6.105-6.211 8.941-6.479.163-.016.356-.022.576-.022 5.619 0 27.051 4.328 33.541 11.835 6.869 7.947 8.339 16.504 8.354 16.59.004.041 1.407 10.986-1.185 21.764-.561 2.332-1.111 4.08-1.606 5.385z"/><path fill="#1A1A1A" d="M103.68 19.834l1.717-.821c.586-.151 1.295-.422 2.137-.573l1.353-.184c.478-.07.986-.001 1.515-.007.534-.017 1.077.071 1.641.173l.863.142c.289.063.57.171.863.257.584.18 1.19.352 1.756.666.584.276 1.183.556 1.711.977 1.145.72 2.104 1.719 3.058 2.688.944.962 1.923 1.903 3.077 2.466l.436.2.182.083.25.068c.328.074.681.22.984.235.315.028.611.086.94.099l.993.021c1.332-.022 2.699-.119 4.047.044l.502.057.495.123.489.123.121.032.029.008.051.021.055.023.216.092.429.185.438.248c.3.155.537.357.793.539.988.766 1.707 1.702 2.25 2.614.131.239.255.446.38.697l.286.668c.189.432.356.851.471 1.269.273.816.438 1.534.578 2.125.148.588.216 1.061.285 1.378l.095.489-.567-1.815c-.186-.575-.41-1.275-.734-2.035a8.863 8.863 0 0 0-.563-1.206l-.326-.649-.381-.622c-.557-.839-1.279-1.68-2.21-2.328-.237-.15-.47-.329-.721-.44l-.371-.192-.435-.163-.221-.081-.055-.021-.003-.001-.026-.005-.109-.022-.437-.096-.438-.099-.461-.039c-1.233-.127-2.551.02-3.938.046l-1.056-.014c-.355-.01-.74-.074-1.109-.113-.386-.033-.681-.161-1.027-.237l-.25-.066-.293-.118-.51-.23c-1.336-.673-2.371-1.708-3.318-2.685-.947-.973-1.822-1.957-2.873-2.644-.479-.41-1.037-.671-1.566-.963-.516-.324-1.079-.511-1.622-.708-.272-.095-.536-.212-.806-.285l-.813-.174c-.532-.124-1.05-.236-1.56-.243-.506-.022-.994-.104-1.457-.074l-1.32.071c-.823.08-1.521.285-2.115.386l-1.795.64z"/><path fill="#fc9" stroke="#D09D6A" stroke-width=".5" stroke-miterlimit="10" d="M68.096 130.637l-.855 5.57-4.322 28.051-.033.202-.327 2.093-.281 1.856-.337 2.183v.012l-.023.146s-3.263 17.554-5.671 24.688v.011l-.292.821c-1.26 3.375-3.432 11.106-5.221 17.733l-.012.011c-.596 2.185-1.136 4.243-1.598 5.986H33l1.103-20.523s1.542-14.065 2.431-17.97c.9-3.903 3.432-10.981 3.432-10.981s1.293-5.705 2.835-12.603c.125-.528.249-1.069.372-1.61 1.913-8.584 4.084-18.407 4.614-21.321.945-5.289 4.692-10.341 4.984-10.724l.022-.022 15.303 6.391z"/><path fill="#FFB679" d="M68.096 130.637l-.855 5.57-4.322 28.051-.033.202-.327 2.093-.281 1.856-.337 2.183v.012l-.023.146s-3.263 17.554-5.671 24.688v.011l-.292.821c-1.26 3.375-3.432 11.106-5.221 17.733l-.012.011c-.596 2.185-1.136 4.243-1.598 5.986h-1.789c.496-1.879 1.103-4.186 1.767-6.627l.011-.012a393.17 393.17 0 0 1 1.632-5.952c1.351-4.815 2.7-9.396 3.589-11.781l.281-.833.012-.011c2.408-7.134 5.67-24.688 5.67-24.688l.023-.134v-.022l.326-2.138.292-1.856.631-4.141 3.769-24.396.282-1.856.854-5.57-13.705-5.715.022-.023 15.305 6.392zm-.858 5.565l-5.293 34.387-.008.017-5.689 24.828-.005.017-.292.821c-1.252 3.375-3.428 11.107-5.218 17.733-.146-2.032-.224-4.31-.114-5.459 1.156-12.36 7.652-32.713 8.631-48.894 1.025-16.98 4.224-21.579 7.832-23.438.068-.028.12-.038.156-.012z"/><path fill="#fc9" stroke="#D09D6A" stroke-width=".5" stroke-miterlimit="10" d="M185.297 220h-16.124c-.462-1.743-1.013-3.803-1.598-5.986l-.013-.011c-1.789-6.627-3.959-14.356-5.221-17.733l-.281-.821-.011-.011c-2.407-7.135-5.671-24.688-5.671-24.688l-.021-.146v-.012l-.338-2.183-.281-1.856-.327-2.093-.034-.202-4.32-28.051-.855-5.57 15.302-6.392.022.022c.293.383 4.039 5.436 4.986 10.724.527 2.914 2.699 12.726 4.612 21.3.123.552.247 1.091.36 1.621 1.552 6.908 2.846 12.613 2.846 12.613s2.531 7.078 3.434 10.98c.887 3.904 2.43 17.969 2.43 17.969L185.297 220z"/><path fill="#FFB679" d="M170.961 220h-1.789c-.462-1.743-1.013-3.803-1.598-5.986l-.012-.011c-1.789-6.627-3.961-14.356-5.222-17.733l-.28-.821-.012-.011c-2.406-7.135-5.671-24.688-5.671-24.688l-.022-.146v-.012l-.338-2.183-.281-1.856-.326-2.093-.034-.202-4.321-28.051-.854-5.57 15.302-6.392.023.022-13.705 5.717.854 5.57.282 1.844 3.771 24.406.629 4.141.291 1.856.326 2.138v.022l.022.134s3.264 17.555 5.672 24.688l.011.011c.102.305.191.575.293.833.889 2.397 2.238 6.999 3.588 11.849a725.803 725.803 0 0 1 1.621 5.885l.012.013c.655 2.44 1.273 4.747 1.768 6.626zm-19.9-83.798l5.293 34.387.008.017 5.691 24.828.004.017.291.821c1.254 3.375 3.428 11.107 5.217 17.733.147-2.032.225-4.31.115-5.459-1.156-12.36-7.652-32.713-8.631-48.894-1.025-16.98-4.224-21.579-7.833-23.438-.07-.028-.118-.038-.155-.012z"/><path fill="#9A0000" stroke="#701B1B" stroke-width=".5" stroke-miterlimit="10" d="M177.049 155.809c-.348.709-.889 1.405-1.563 2.104-3.5 3.602-10.735 6.986-15.697 9.023-.777.325-1.497.606-2.139.866l-1.631.607c-.9.338-1.43.519-1.43.519-.191 1.137-.326 2.498-.439 4.039l-.043.787c-.023.27-.035.541-.047.822l-.021.518c-.021.338-.034.688-.045 1.035l-.023.528a193.146 193.146 0 0 0-.078 6.886l.034 2.701v.348c.157 9.463.743 21.166 1.462 33.408H62.942c.821-12.658 1.463-23.742 1.441-36.208-.011-6.685-.214-11.938-.687-14.864 0 0-.528-.18-1.417-.519-.451-.157-1.001-.371-1.632-.606-.642-.248-1.361-.541-2.138-.856-4.961-2.036-12.197-5.423-15.708-9.023-.674-.698-1.214-1.405-1.574-2.114.022-.574.056-1.17.101-1.778 1.035-13.829 8.776-38.921 11.488-42.87 2.847-4.131 19.837-7.833 19.837-7.833h13.333c0 .012 10.712 13.131 22.741 13.131 13.907 0 21.929-10.667 23.595-13.131h13.299s17.002 3.702 19.838 7.833c2.723 3.949 10.452 29.041 11.488 42.87l.033.472c.036.449.057.876.069 1.305z"/><circle fill="#fff" cx="109.137" cy="160.284" r="17.256"/><path stroke="#701B1B" stroke-width="2" stroke-miterlimit="10" d="M109.137 174.165c-7.653 0-13.879-6.228-13.879-13.88 0-7.653 6.226-13.881 13.879-13.881s13.88 6.228 13.88 13.881c.001 7.653-6.227 13.88-13.88 13.88z" fill="none"/><path stroke="#701B1B" stroke-width="3" stroke-miterlimit="10" d="M86.155 103.587c2.014 2.701 10.543 12.872 22.572 12.872 13.907 0 21.929-10.667 23.595-13.131" fill="none"/><path fill="#701B1B" d="M154.584 166.963v1.96s19.188-6.557 22.471-13.11a44.667 44.667 0 0 0-.104-1.783c-3.534 6.495-22.367 12.933-22.367 12.933zm-90.887 0s-18.834-6.438-22.369-12.934a42.75 42.75 0 0 0-.101 1.783c3.282 6.555 22.47 13.11 22.47 13.11v-1.959z"/><path fill="#6B0303" d="M64.922 220h-1.98c.821-12.658 1.463-23.742 1.441-36.208.045-.812.101-1.587.146-2.34v-.022c.348-5.412.619-9.406.754-11.298.045-.675.078-1.08.09-1.192.011.136.022.676.022 1.588.012 6.038-.226 27.969-.473 49.472zm-.107-29.102l-.326-5.707-.764-12.547c-.059-1.146-.209-2.261-.312-3.369l-.162-1.644-.075-.808-.23-.727c-.129-.535-.354-.97-.542-1.426a25.189 25.189 0 0 0-.599-1.34 54.608 54.608 0 0 0-1.203-2.473l-2.578-5.1.085-.053s.35.456.926 1.277c.289.412.633.914 1.013 1.502.369.594.824 1.24 1.25 1.99.438.741.907 1.549 1.369 2.43.244.427.472.89.683 1.396.213.494.467 1.005.599 1.515.079.277.143.469.233.824l.058.832.107 1.69c.059 1.136.164 2.296.175 3.437l.205 6.717.11 5.86.076 5.718-.098.006zm-1.94-26.83s.576.603 1.172 1.66c.318.52.613 1.162.899 1.861.135.354.238.732.343 1.116l.321 1.16.269 1.174c.082.388.192.761.233 1.14l.154 1.079c.037.345.106.663.106.968l.047 2.004-.1.002-.294-1.959c-.037-.293-.146-.602-.223-.932l-.256-1.033c-.073-.361-.217-.72-.333-1.09l-.368-1.115c-.137-.369-.292-.731-.442-1.09l-.431-1.051c-.275-.684-.468-1.347-.658-1.91-.351-1.135-.53-1.938-.53-1.938l.091-.046zM155.355 220h-1.992c-.236-21.479-.473-43.41-.461-49.464 0-.912.012-1.462.022-1.599.011.112.046.519.091 1.215.146 1.912.405 5.94.754 11.375.045.654.09 1.33.123 2.015l.023.249c0 .82 0 1.643.011 2.453v.348c.067 11.353.664 21.706 1.429 33.408zm-1.971-29.104l.076-5.717.11-5.861c.064-2.144.135-4.43.205-6.717.011-1.141.115-2.301.174-3.437l.107-1.69.057-.832c.091-.355.154-.547.234-.824.131-.51.387-1.02.6-1.514.21-.506.439-.969.683-1.396.462-.88.931-1.688 1.369-2.431.426-.75.882-1.396 1.25-1.989.379-.587.724-1.091 1.013-1.501.576-.823.926-1.278.926-1.278l.086.054-2.578 5.098a53.62 53.62 0 0 0-1.203 2.474c-.211.444-.417.892-.6 1.34-.188.456-.412.892-.543 1.425l-.229.728-.075.807-.162 1.644c-.102 1.109-.252 2.223-.311 3.369l-.764 12.547-.326 5.707-.099-.006zm2.128-26.781s-.179.802-.529 1.938c-.189.563-.383 1.228-.657 1.91l-.431 1.051c-.15.357-.306.721-.442 1.09l-.368 1.115c-.115.37-.259.729-.333 1.09l-.256 1.033c-.077.33-.187.639-.224.932l-.293 1.959-.101-.002.047-2.004c0-.305.07-.623.106-.968l.154-1.079c.041-.378.151-.75.233-1.14l.269-1.174.32-1.16s.209-.763.344-1.116c.285-.699.58-1.342.898-1.861.598-1.058 1.172-1.66 1.172-1.66l.091.046z"/></svg>