<svg xmlns="http://www.w3.org/2000/svg" width="220" height="220" viewBox="0 0 220 220"><path fill="#1A1A1A" d="M45.871 188.912c8.299.415 15.119-1.661 15.23-4.629.11-2.977-6.527-5.719-14.831-6.131-8.3-.414-15.115 1.66-15.226 4.633s6.522 5.715 14.827 6.127z"/><path fill="#FEBC84" d="M149.496 219.175H69.261l-4.38-78.887h88.993z"/><path fill="#fc9" stroke="#D09D6A" stroke-width=".5" stroke-miterlimit="10" d="M181.221 142.352l-12.729.825-60.801 3.944-57.566-3.908-12.586-.861c0-5.873.523-10.291 1.446-13.738 2.034-7.719 6.007-10.534 10.265-13.715 6.171-4.587 12.659-4.813 26.497-6.367 3.253-.364 6.121-1.569 8.555-2.783 3.367-1.675 5.81-3.956 7.605-6.251 2.105-2.681 3.123-7.9 3.123-11.262V74.751h27.995v13.484c0 3.361 1.371 8.581 3.475 11.262 1.768 2.258 4.34 4.697 7.595 6.421 2.453 1.298 5.419 2.712 8.828 2.821 13.795 1.469 20.392 1.572 26.562 6.159 4.24 3.156 8.185 5.959 10.238 13.558.939 3.459 1.498 7.937 1.498 13.896z"/><path fill="#1A1A1A" d="M172.889 188.686c-8.299.414-15.117-1.662-15.229-4.629-.113-2.977 6.525-5.72 14.828-6.131 8.3-.415 15.115 1.659 15.226 4.633.114 2.972-6.523 5.712-14.825 6.127z"/><path fill="#fc9" stroke="#D09D6A" stroke-width=".5" stroke-miterlimit="10" d="M149.908 135.885l2.666 12.428 4.898 22.865 1.887 10.232.4 2.16 6.573 35.607.104.596 4.807-.219 20.514-.935c-3.857-7.16-5.994-21.992-7.186-36.712l-.188-2.514c-1.401-19.115-1.265-37.271-1.265-37.271l-33.21-6.237z"/><path fill="#FFB679" d="M152.574 148.313l4.898 22.864 8.859 47.998h3.447l-.043-.217c-.664-2.84-7.523-32.608-7.523-48.546 0-16.723-3.867-21.457-8.48-23.482-.441-.196-.822.302-1.158 1.383zm6.785 33.097l.4 2.16c2.58-1.674 7.301-2.949 12.729-3.215 4.91-.244 9.302.375 12.084 1.554l-.188-2.513c-2.793-1.117-7.103-1.711-11.896-1.469-5.722.29-10.653 1.675-13.129 3.483z"/><path fill="#fc9" stroke="#D09D6A" stroke-width=".5" stroke-miterlimit="10" d="M68.851 136.111l-2.666 12.429-4.899 22.864-1.886 10.233-.4 2.16-6.576 35.607-.103.596-4.807-.218L27 218.848c3.858-7.16 5.995-21.992 7.187-36.712l.188-2.513c1.403-19.115 1.265-37.271 1.265-37.271l33.211-6.241z"/><path fill="#FFB679" d="M66.185 148.541l-4.899 22.75-8.861 47.884h-3.446l.042-.103c.666-2.84 7.526-32.553 7.526-48.489 0-16.724 3.865-21.429 8.48-23.455.442-.194.822.333 1.158 1.413z"/><path fill="#FFF793" d="M61 184.829l.075-.292-.032.292H61z"/><path fill="#333" stroke="#1A1A1A" stroke-width=".5" stroke-miterlimit="10" d="M183.119 135.243c-.611-4.019-1.486-6.858-1.486-6.858l-.046.057c-2.108-7.586-6.142-10.402-10.489-13.557-6.334-4.586-15.32-5.205-29.481-6.675-3.498-.109-5.909-1.791-8.429-3.089-.612 1.008-2.424 3.733-3.151 4.656l-.021.023c-5.363 6.445-12.813 11.069-20.706 11.069h-.031c-7.891 0-15.34-4.624-20.706-11.069l-.019.024c-.771-.982-2.449-3.757-3.007-4.703-2.497 1.214-5.064 2.738-8.404 3.102-14.204 1.554-23.128 2.087-29.459 6.675-4.374 3.18-8.429 5.996-10.527 13.713h-.032s-.873 2.841-1.485 6.858c-.494 3.276-3.226 32.574-4.224 43.304-.097 1.067-.18 1.953-.243 2.607l-.107 1.143c.138-.766.718-1.469 1.655-2.063 2.54-1.638 7.67-2.597 13.549-2.305 5.754.29 10.706 1.687 13.162 3.519 1.096.801 1.696 1.7 1.664 2.61l-.021.255.179-1.555.243-2.159 1.686-14.718v53.067h92.719V168.73l1.783 15.58-.021-.256c-.119-2.974 6.521-5.716 14.825-6.128 8.05-.401 14.707 1.542 15.203 4.368-.275-2.899-3.982-43.181-4.573-47.051z"/><path fill="#FFB679" d="M59.4 181.637l-.4 2.16c-2.583-1.673-7.303-2.949-12.73-3.215-4.909-.243-9.302.375-12.083 1.554l.188-2.513c2.792-1.117 7.101-1.711 11.895-1.469 5.722.289 10.654 1.675 13.13 3.483z"/><path fill="#F29120" d="M61.497 180.824l-.243 2.16c-.462-.461-1.085-.898-1.821-1.312-2.886-1.638-7.682-2.827-13.139-3.106-5.616-.277-10.601.485-13.572 1.894a8.116 8.116 0 0 0-1.548.922 495 495 0 0 0 .243-2.608c2.655-1.856 8.334-2.961 14.877-2.633 7.101.362 13.084 2.28 15.203 4.683zm72.469-75.306c-.585 1.164-1.505 2.702-1.505 2.702-.618 1.006-1.867 2.956-2.602 3.876l-.022.023c-5.43 6.433-12.972 11.048-20.959 11.048h-.033c-7.989 0-15.531-4.615-20.96-11.048-.021 0-2.156-3.101-2.721-4.045 0 0-.561-.697-1.146-2.113a79.27 79.27 0 0 0 2.052-.935c.566.944 2.068 3.459 2.089 3.459 5.431 6.433 12.697 11.291 20.687 11.291h.033c7.987 0 15.53-4.615 20.959-11.047l.021-.025c.736-.92 2.143-2.871 2.761-3.876.48.241.821.471 1.346.69zm23.296 75.306l.243 2.16c.463-.461 1.085-.898 1.82-1.312 2.888-1.638 7.683-2.827 13.141-3.106 5.615-.277 10.599.485 13.57 1.894a8.095 8.095 0 0 1 1.549.922c-.063-.653-.147-1.541-.241-2.608-2.656-1.856-8.332-2.961-14.879-2.633-7.102.362-13.086 2.28-15.203 4.683z"/><path fill="#1A1A1A" d="M63.182 219.175c6.079 0 6.095-.206 6.095-.206s-5.196-59.479-5.335-61.619c-.266 1.949-.925 43.57-.76 61.825zm-2.041-35.648l.549-6.01 1.16-13.222c.116-1.206.143-2.396.21-3.569l.092-1.744.05-.855c-.005-.195-.071-.542-.102-.803-.044-.576-.185-1.083-.303-1.59a29.122 29.122 0 0 0-.376-1.508 60 60 0 0 0-.792-2.795l-1.729-5.779.093-.036s.274.542.711 1.506c.22.481.48 1.071.76 1.753.27.688.617 1.445.917 2.305.314.853.646 1.781.961 2.78.174.488.321 1.017.448 1.575.136.551.292 1.12.343 1.675.029.301.079.519.089.896l-.07.875-.153 1.779c-.115 1.193-.192 2.417-.354 3.61l-.824 7.047-.786 6.138-.797 5.983-.097-.011zm94.862 35.648c-6.078 0-6.095-.206-6.095-.206s5.195-59.479 5.337-61.619c.264 1.949.923 43.57.758 61.825zm1.578-35.32l-.702-6.039a702.722 702.722 0 0 1-1.746-16.926 27.466 27.466 0 0 1-.126-1.797l-.042-.892c-.014-.353.027-.589.049-.896.189-1.233.478-2.27.801-3.287.322-1.006.653-1.941.971-2.802.308-.862.646-1.632.925-2.321.283-.687.542-1.281.767-1.766.439-.973.717-1.518.717-1.518l.094.037-1.744 5.82a65.933 65.933 0 0 0-.798 2.816c-.257.986-.552 2.084-.696 3.107-.025.26-.078.597-.064.821l.021.854c.012.572.021 1.158.063 1.757l.199 3.616c.35 4.851.698 9.699.959 13.336.273 3.639.457 6.063.457 6.063l-.105.017zm-94.239-28.712s.474.737.894 1.947c.231.6.42 1.32.592 2.1.075.392.118.804.161 1.221l.132 1.263.081 1.269c.021.418.069.826.051 1.227l-.016 1.148c-.018.365.001.709-.045 1.026l-.261 2.103-.1-.014.011-2.096c.009-.313-.05-.652-.075-1.01l-.092-1.123c-.017-.391-.101-.789-.157-1.195l-.188-1.228c-.076-.409-.172-.816-.264-1.216l-.259-1.174c-.164-.763-.249-1.488-.346-2.108-.166-1.245-.213-2.11-.213-2.11l.094-.03zm92.73.041s-.199.75-.504 1.812l-.238.858-.281.945c-.102.327-.201.667-.324 1.008-.135.338-.205.698-.285 1.057l-.236 1.074c-.081.355-.087.715-.133 1.059l-.109.997c-.057.317-.037.618-.04.897l.003 1.871-.1.014-.254-1.873c-.034-.282-.094-.59-.082-.916l.003-1.028c.012-.356-.019-.731.028-1.104l.131-1.133c.059-.77.24-1.519.402-2.224.084-.351.239-.669.368-.974.138-.303.25-.594.41-.84.294-.5.558-.904.795-1.16a2.84 2.84 0 0 1 .36-.391l.086.051z"/><path opacity=".5" fill="#F6A76A" d="M123.391 91.703c-3.584 2.646-8.168 4.309-14.022 4.309-6.161 0-10.907-1.833-14.559-4.746.142-1.093.221-2.136.221-3.034V74.747h27.988v13.484c-.001 1.019.131 2.222.372 3.472z"/><path fill="#fc9" stroke="#D09D6A" stroke-width=".5" stroke-miterlimit="10" d="M143.332 44.529c-1.641-2.948-2.959-1.435-3.922 1.267-.75-14.784-30.472-33.755-35.286-33.397-4.657-.346-23.425 17.38-24.707 31.919-.876-1.625-1.97-2.083-3.264.242-.632 1.135-.832 2.122-.63 5.61.206 3.488 1.977 8.283 4.319 8.452.42.031.736-.036 1.007-.139 2.372 12.633 8.98 31.462 28.516 31.462 19.761 0 26.326-19.262 28.65-31.893.311.383.803.621 1.623.563 2.344-.17 4.116-4.973 4.323-8.467.201-3.495.002-4.483-.629-5.619z"/><path fill="#FFB679" d="M141.064 47.523c1.588.072.953 4.544.658 6.116-.293 1.57-1.806 2.444-2.703 2.091-.894-.351-1.178-2.708-.227-2.795.95-.087 1.512-.697 1.063-1.308-.455-.615-.761-4.194 1.209-4.104zm-62.242-.588c-1.378.062-.828 3.943-.572 5.308.257 1.364 1.569 2.122 2.348 1.816.775-.305 1.022-2.352.197-2.428-.826-.073-1.313-.603-.922-1.135.393-.531.66-3.639-1.051-3.561z"/><path fill="#1A1A1A" d="M117.372 43.213c2.252-1.373 4.843-1.595 7.409-1.619 1.729-.017 3.458-.128 5.188-.021.267.016 3.069-.039 3.153.188.138.371-2.192.522-2.459.558-1.662.268-3.325.505-4.984.795-1.695.296-3.336.728-5.069.698-.484-.008-3.204.028-3.238-.599zm-30.401-.731c2.762-.008 5.528.053 8.29 0 1.596-.03 3.146-.072 4.726.212.283.051 2.936.5 2.75.984-.053.137-.785.284-.903.319a13.55 13.55 0 0 1-2.167.437c-1.804.225-3.479-.151-5.258-.402a97.575 97.575 0 0 1-4.745-.793c-.348-.067-2.81-.327-2.693-.757z"/><path fill="#fff" d="M103.062 49.089c.089.755.351 1.498-.019 2.188-.714 1.331-1.777 1.992-3.277 1.977-1.607-.02-3.21-.34-4.78-.646-1.034-.203-2.43-.223-3.253-.938-.46-.398-2.077-1.873-1.758-2.804.358-1.054 2.316-1.491 3.286-1.691 2.073-.428 4.335-.259 6.419.047 1.257.183 2.871.532 3.382 1.867z"/><radialGradient id="a" cx="631.677" cy="9.236" r="2.69" gradientTransform="rotate(-173.72 365.17 44.357)" gradientUnits="userSpaceOnUse"><stop offset="0" stop-color="#28353D"/><stop offset=".508" stop-color="#27323B"/><stop offset=".809" stop-color="#222A33"/><stop offset="1" stop-color="#1D2029"/></radialGradient><path fill="url(#a)" d="M94.827 47.119a2.867 2.867 0 0 0-.9 1.793 2.883 2.883 0 1 0 5.732.64 2.87 2.87 0 0 0-.477-1.936c-.66-.35-3.664-.652-4.355-.497z"/><path fill="#212121" d="M95.098 49.283a1.763 1.763 0 1 0 3.506.392 1.763 1.763 0 0 0-1.557-1.952 1.766 1.766 0 0 0-1.949 1.56z"/><path fill="#1A1A1A" d="M103.062 49.089s-.448-1.227-3.22-1.535c-2.771-.312-6.004-.021-6.846-.115-.839-.094-3.097 1.415-3.097 1.415s1.178-1.94 3.134-2.325c1.773-.351 6.824-.02 8.101.253 1.275.273 1.928 2.307 1.928 2.307z"/><path fill="#B76B2C" d="M101.518 52.934s-5.79.904-9.477-1.437c-1.878-1.191-2.066-2.632-2.066-2.632s-.447 2.038 2.429 3.337c4.471 2.02 9.114.732 9.114.732z"/><path fill="#fff" d="M94.238 49.409a.514.514 0 1 0-.113-.716.513.513 0 0 0 .113.716zm1.312-.433a.418.418 0 1 0-.09-.586.413.413 0 0 0 .09.586zm22.938.113c-.088.755-.35 1.498.019 2.188.716 1.331 1.776 1.992 3.281 1.977 1.603-.02 3.208-.34 4.776-.646 1.035-.203 2.43-.223 3.254-.938.459-.398 2.074-1.873 1.759-2.804-.36-1.054-2.317-1.491-3.287-1.691-2.073-.428-4.335-.259-6.419.047-1.256.183-2.871.532-3.383 1.867z"/><radialGradient id="b" cx="1401.539" cy="-76.907" r="2.689" gradientTransform="scale(1 -1) rotate(6.37 520.353 -11527.55)" gradientUnits="userSpaceOnUse"><stop offset="0" stop-color="#28353D"/><stop offset=".508" stop-color="#27323B"/><stop offset=".809" stop-color="#222A33"/><stop offset="1" stop-color="#1D2029"/></radialGradient><path fill="url(#b)" d="M126.725 47.119c.487.454.821 1.077.899 1.793a2.883 2.883 0 1 1-5.732.64 2.865 2.865 0 0 1 .478-1.936c.657-.35 3.665-.652 4.355-.497z"/><path fill="#212121" d="M126.454 49.283a1.763 1.763 0 0 1-1.556 1.948 1.764 1.764 0 1 1-.393-3.508 1.766 1.766 0 0 1 1.949 1.56z"/><path fill="#1A1A1A" d="M118.488 49.089s.447-1.227 3.222-1.535c2.772-.312 6.005-.021 6.847-.115.84-.094 3.096 1.415 3.096 1.415s-1.18-1.94-3.133-2.325c-1.773-.351-6.826-.02-8.103.253-1.274.273-1.929 2.307-1.929 2.307z"/><path fill="#B76B2C" d="M120.033 52.934s5.789.904 9.479-1.437c1.877-1.191 2.066-2.632 2.066-2.632s.447 2.038-2.428 3.337c-4.474 2.02-9.117.732-9.117.732z"/><path fill="#fff" d="M122.378 49.409a.514.514 0 1 0 .61-.827.514.514 0 0 0-.61.827zm1.313-.433a.415.415 0 0 0 .582-.09.42.42 0 0 0-.09-.585.422.422 0 0 0-.584.089.414.414 0 0 0 .092.586z"/><path opacity=".5" fill="#F6A76A" d="M109.955 67.327s-.024 2.185-1.156 2.137c-1.131-.048.308.372.993.186.685-.188.726-.524.163-2.323z"/><radialGradient id="c" cx="138.694" cy="-17.317" r="14.495" gradientTransform="matrix(1 0 0 -1 -47.6 50.01)" gradientUnits="userSpaceOnUse"><stop offset="0" stop-color="#ED1C24"/><stop offset="1" stop-color="#ED1C24" stop-opacity="0"/></radialGradient><circle opacity=".1" fill="url(#c)" cx="91.094" cy="67.327" r="14.495"/><radialGradient id="d" cx="176.732" cy="-17.057" r="14.496" gradientTransform="matrix(1 0 0 -1 -47.6 50.01)" gradientUnits="userSpaceOnUse"><stop offset="0" stop-color="#ED1C24"/><stop offset="1" stop-color="#ED1C24" stop-opacity="0"/></radialGradient><circle opacity=".1" fill="url(#d)" cx="129.132" cy="67.067" r="14.496"/><path opacity=".32" fill="#F5B1A2" d="M108.862 65.033c2.16.223 4.757.971 4.822 1.269-2.854 1.396-8.833.597-8.65-.139.142-.569 2.453-1.273 3.828-1.13z"/><path fill="#AE8879" d="M112.759 65.557c.581-.027 1.185.262 1.147.371-.036.111-.624.022-1.135.051-.313.016-1.285.255-1.332.148-.05-.103.963-.551 1.32-.57zm-6.587-.197c.614.119 1.346.577 1.294.682-.05.103-.894-.171-1.318-.262-.365-.076-1.226.027-1.273-.076-.052-.105.887-.424 1.297-.344z"/><path opacity=".2" fill="#F5B1A2" d="M106.411 66.548c-.616-.652-1.531-1.296-2.479-1.076.887-1.558 3.444 1.07 4.364 1.339 1.136.33 2.202-.178 3.198-.672 1.143-.568 2.247-.752 3.451-.243-.721.226-1.368.151-2.079.498-.761.372-1.441.875-2.188 1.273-1.655.885-3.074.144-4.267-1.119z"/><path opacity=".5" fill="#F6A76A" d="M114.637 65.587s1.188-.446.955-1.608c-.232-1.164-.877-1.741-.877-1.741s.96.803 1.066 1.979c.108 1.174-1.144 1.37-1.144 1.37zm-10.513 0s-1.188-.446-.955-1.608c.23-1.164.877-1.741.877-1.741s-.962.803-1.067 1.979c-.109 1.174 1.145 1.37 1.145 1.37z"/><path opacity=".3" fill="#FDE9D7" d="M112.92 59.048s-.828-.352-1.104-1.791c-.271-1.437-1.376-4.006-1.928-.659-.55 3.348-.408 5.023.795 4.594 1.775-.625 2.93-.169 2.996-.946.044-.492-.249-.942-.759-1.198z"/><path fill="#FFAC81" d="M102.464 73.184c0-.368 2.366-1.175 2.601-1.266 1.408-.542 2.996-.756 4.375-.32 1.32-.417 2.957-.22 4.359.314.237.09 2.617.895 2.617 1.272.001.642-13.952.629-13.952 0zm.004.003c1.021.047 2.051.296 3.064.438 1.301.185 2.6.211 3.909.297 1.282-.086 2.565-.096 3.841-.297 1.03-.163 2.088-.378 3.13-.438-3.167 5.059-10.752 4.923-13.944 0z"/><path fill="#B54A37" d="M109.322 74.086a41.386 41.386 0 0 1-3.601-.217l-.713-.074c-1.636-.168-2.382-.244-2.93-1.168-.428-.721-.782-.297-1.016-.322l-.179-.043c-.244-.167-.288-.279-.276-.321.011-.035.077-.058.172-.058.128 0 .299.04.485.115.482.193 1.063.487 1.068.494.979 1.109 3.708 1.273 5.248 1.273h.01c.473 0 .918.019 1.42.041l.311.012.31-.012c.506-.021.954-.041 1.313-.041l.598.002c1.807 0 4-.128 4.922-1.128.01-.012.589-.306 1.073-.498.185-.075.358-.116.485-.116.094 0 .16.024.172.059.013.041-.032.153-.276.32l-.164.063c-.192.051-.485-.332-1.024.295-.838.979-1.358.993-2.396 1.021-.386.009-.843.024-1.412.085a41.108 41.108 0 0 1-3.6.218z"/><path opacity=".5" fill="#F6A76A" d="M108.916 80.926c-.771-.626-1.084-3.167.208-3.245 1.288-.078 2.735.156 2.892 1.055.157.9-.728 1.877-1.068 2.19-.34.313-1.728.898-2.03.508-.305-.392-.002-.508-.002-.508z"/><path fill="#1A1A1A" d="M138.281 56.302s1.869-24.398-10.641-26.513c-1.606 5.334-16.509 5.085-21.455-.08-4.943-5.165 7.106 6.936 7.106 6.936s-6.796-2.509-12.334-8.995c.445 2.724 2.076 5.317 2.076 5.317s-3.219-.273-6.528-8.686c-2.03 5.289-3.753 9.164-5.746 10.453 0 0 1.391-4.147.244-7.87 0 0-7.938 10.354-8.971 13.479-1.41 4.269-.741 15.596-.741 15.596s-3.317-2.952-4.433-10.79c-1.12-7.836-2.048-15.913-.947-18.943 1.1-3.031 3.027-14.194 9.872-16.921 6.846-2.729 9.775-2.215 9.775-2.215s4.854-5.778 9.06-6.226c4.205-.447 8.997-1.433 12.887-.37 3.893 1.065 12.041 3.373 18.482 10.382 6.439 7.01 7.797 14.649 7.797 14.649s1.367 9.42-.945 18.928c-2.316 9.509-4.558 11.869-4.558 11.869z"/><path opacity=".1" fill="#fff" d="M97.138 19.909l.14-.942c.844-1.29 1.57-3.178 3.116-3.831-.14.943-.279 1.886-.104 2.783 3.794-1.652 8.855-2.072 13.015-.516-2.324.273-4.224 1.1-5.772 2.734 2.852.452 5.395-.037 8.266.843 2.048.628 3.296 1.433 5.151 2.705-2.069-1.057-5.292-1.764-7.268-.678 2.752 1.265 6.15.898 9.098 2.505 1.933 1.013 3.902 2.884 5.107 4.801-5.388-1.932-10.834-3.179-16.521-3.653-.094-1.157 1.781-1.426 2.76-1.69-4.216-1.854-9.843-2.029-14.219-2.385.804-1.16 1.882-2.238 3.25-2.803-2.46.23-4.712 1.229-6.979 1.803.06-.685.491-1.117.96-1.676z"/><path fill="#F29120" d="M127.792 146.891c-8.429-8.429-22.097-8.428-30.526.002l-.393.434c-8.014 8.458-7.897 21.801.393 30.09 8.291 8.29 21.634 8.409 30.091.395l-15.242-15.242 15.677-15.679zm-17.924 5.493a3.082 3.082 0 1 1 0-6.165 3.082 3.082 0 0 1 0 6.165z"/></svg>