<svg xmlns="http://www.w3.org/2000/svg" width="220" height="220" viewBox="0 0 220 220"><path fill="#fc9" stroke="#D09D6A" stroke-width=".5" stroke-miterlimit="10" d="M164.424 133.283s-1.447-7.387-3.183-8.068c-3.818-1.504-5.767-2.115-9.759-3.061-5.438-1.291-11.781-1.856-16.836-4.196-4.276-1.979-7.099-5.032-9.176-9.072-2.369-4.596-2.57-9.333-2.5-14.266.01-.59.223-9.62.047-9.621H96.964c0 6.051.925 12.51-.048 18.508-.962 5.944-5.812 11.802-11.441 14.539-2.364 1.152-4.885 1.334-7.438 1.869-5.604 1.173-8.746 2.585-14.297 3.969-1.652.413-3.41.706-4.995 1.332-1.737.683-3.185 8.068-3.185 8.068l54.722 31.498 54.142-31.499z"/><path fill="#1D4156" d="M185.184 218.967c-9.49 0-20.729 1.033-20.729 1.033s1.313-36.833-2.274-54.045c.426 3.26.512 12.079-.427 15.57-.084.279-.157.57-.256.852l-.048.134c-.948 2.955-2.469 5.681-4.004 8.369-4.231 7.408-5.192 11.849-5.192 20.57 0 6.446.804 7.42.804 7.42h-86.66c.657-2.979 1.313-7.104 1.326-7.42.292-8.722-.949-13.162-5.17-20.57-1.569-2.726-3.126-5.522-4.063-8.54l-.049-.146-.195-.668c-.948-3.467-.875-12.311-.437-15.521-3.553 17.225-2.252 53.898-2.252 53.898s-11.227-1.032-20.728-1.032c-5.96-14.974-1.63-58.778 4.865-70.384 0 0 8.601-23.026 17.262-25.957 8.661-2.932 30.896-6.045 30.896-6.045l22.165 34.644 22.102-34.644s22.234 3.113 30.91 6.045c8.673 2.932 17.248 25.957 17.248 25.957l-.012.014.049.084c6.509 11.591 10.839 55.406 4.869 70.382z"/><path stroke="#635C17" stroke-width=".5" stroke-miterlimit="10" d="M185.184 218.967c-9.49 0-20.729 1.033-20.729 1.033s1.313-36.833-2.274-54.045c.426 3.26.512 12.079-.427 15.57-.084.279-.157.57-.256.852l-.048.134c-.948 2.955-2.469 5.681-4.004 8.369-4.231 7.408-5.192 11.849-5.192 20.57 0 6.446.804 7.42.804 7.42h-86.66c.657-2.979 1.313-7.104 1.326-7.42.292-8.722-.949-13.162-5.17-20.57-1.569-2.726-3.126-5.522-4.063-8.54l-.049-.146-.195-.668c-.948-3.467-.875-12.311-.437-15.521-3.553 17.225-2.252 53.898-2.252 53.898s-11.227-1.032-20.728-1.032c-5.96-14.974-1.63-58.778 4.865-70.384 0 0 8.601-23.026 17.262-25.957 8.661-2.932 30.896-6.045 30.896-6.045l22.165 34.644 22.102-34.644s22.234 3.113 30.91 6.045c8.673 2.932 17.248 25.957 17.248 25.957l-.012.014.049.084c6.509 11.591 10.839 55.406 4.869 70.382z" fill="none"/><path fill="#CBB651" d="M185.184 218.967c-9.49 0-20.729 1.033-20.729 1.033s1.313-36.833-2.274-54.045c.426 3.26.512 12.079-.427 15.57-.084.279-.157.57-.256.852l-.048.134c-.948 2.955-2.469 5.681-4.004 8.369-4.231 7.408-5.192 11.849-5.192 20.57 0 6.446.804 7.42.804 7.42h-86.66c.657-2.979 1.313-7.104 1.326-7.42.292-8.722-.949-13.162-5.17-20.57-1.569-2.726-3.126-5.522-4.063-8.54l-.049-.146-.195-.668c-.948-3.467-.875-12.311-.437-15.521-3.553 17.225-2.252 53.898-2.252 53.898s-11.227-1.032-20.728-1.032c-5.96-14.974-1.63-58.778 4.865-70.384 0 0 8.601-23.026 17.262-25.957 8.661-2.932 30.896-6.045 30.896-6.045l22.165 34.644 22.102-34.644s22.234 3.113 30.91 6.045c8.673 2.932 17.248 25.957 17.248 25.957l-.012.014.049.084c6.509 11.591 10.839 55.406 4.869 70.382z"/><path fill="#CBB651" stroke="#635C17" stroke-width=".5" stroke-miterlimit="10" d="M87.854 116.482c.783-1.752 5.024-3.723 8.774-11.625 0 0 12.986 9.547 27.286-.001 0 0 2.924 6.517 8.206 11.625 5.282 5.107-22.483 41.195-22.483 41.195s-24.593-34.91-21.783-41.194z"/><circle fill="#FBB03B" cx="109.639" cy="158.174" r="6.082"/><path fill="#B3A047" d="M161.497 182.376l-.048.134c-.948 2.955-2.469 5.682-4.004 8.369-4.231 7.408-5.192 11.848-5.192 20.57 0 6.447.804 7.42.804 7.42h-3.09l-1.096-2.943-.4-2.421c-3.369-10.766-72.025-10.766-75.406-.086l-.366 2.567-1.143 2.883h-5.158c.657-2.98 1.313-7.104 1.326-7.42.292-8.723-.949-13.162-5.17-20.57-1.569-2.725-3.126-5.521-4.063-8.54l-.049-.146c8.844 2.75 22.346 5.619 50.348 5.633 26.896-.06 42.44-2.773 52.707-5.45z"/><path opacity=".5" fill="#F6A76A" d="M122.971 94.624c-.033 2.117-.125 4.158-.033 6.155-3.86 2.279-6.844 3.65-7.379 4.028-1.715 1.22-5.563 1.349-5.563 1.349s-3.86-.129-5.573-1.349c-.525-.367-3.428-1.706-7.207-3.919.421-5.238-.253-10.712-.253-15.884h26.057c.168 0-.038 9.027-.049 9.62z"/><path fill="#fc9" stroke="#D09D6A" stroke-width=".5" stroke-miterlimit="10" d="M141.846 34.422c-3.307-6.411-19.301-17.884-19.301-17.884l-12.552-1.213-12.552 1.213S81.447 28.011 78.139 34.422c-3.306 6.41-1.012 33.472-1.012 33.472.607 18.895 23.55 30.3 25.169 31.515 1.619 1.215 7.696 1.351 7.696 1.351s6.076-.135 7.695-1.351c1.619-1.214 24.562-12.62 25.168-31.515.002 0 2.295-27.061-1.009-33.472z"/><path fill="#212121" d="M159.543 41.74c-.216-1.328-2.034-7.964-2.441-8.83-2.052-5.152-5.059-9.664-8.763-13.496a71.226 71.226 0 0 0-15.196-13.49C122.776-.879 105.377-2.161 94.459 3.85c-1.749.963-2.649 2.364-2.913 3.854-30.728 13.398-36.696 60.34-11.477 88.168 0 0 9.815 13.085 12.489 14.314-3.544-16.788-13.651-39.295-11.506-56.508.923-7.404 4.741-16.018 10.572-20.979 6.495-5.527 3.946-.906 9.899.614 13.295 3.395 30.347 5.213 37.032 19.25 8.174 17.169-6.853 40.343-10.726 57.624 5.622-2.638 10.632-6.467 14.752-11.106-.271 1.752-.737 3.799-1.409 5.51 14.827-9.658 21.016-46.569 18.371-62.851z"/><path opacity=".1" fill="#fff" d="M127.314 18.791c7.883-2.726 6.808-6.008 11.648-10.313-1.145-.492-1.816-1.492-2.979-2.108-3.99 4.002-3.355 9.28-11.549 8.868-8.443-.425-14.045-2.839-21.357 3.734-8.338 7.493-10.928 3.757-20.105 2.871-8.71-.845-11.28 7.426-17.806 11.345-.05.956-.943 2.126-1.049 3.006 12.981-5.771 13.104-10.832 27.219-7.618 5.875 1.339 10.15-1.96 14.427-5.86 8.271-7.553 12.559-.767 21.551-3.925.4-.137-2.201.774 0 0z"/><radialGradient id="a" cx="139.649" cy="-24.613" r="14.696" gradientTransform="matrix(1 0 0 -1 -47.6 50.01)" gradientUnits="userSpaceOnUse"><stop offset="0" stop-color="#ED1C24"/><stop offset="1" stop-color="#ED1C24" stop-opacity="0"/></radialGradient><circle opacity=".1" fill="url(#a)" cx="92.049" cy="74.623" r="14.696"/><radialGradient id="b" cx="176.12" cy="-24.613" r="14.697" gradientTransform="matrix(1 0 0 -1 -47.6 50.01)" gradientUnits="userSpaceOnUse"><stop offset="0" stop-color="#ED1C24"/><stop offset="1" stop-color="#ED1C24" stop-opacity="0"/></radialGradient><circle opacity=".1" fill="url(#b)" cx="128.52" cy="74.623" r="14.697"/><path opacity=".5" d="M85.745 57.856s-.96 6.001 7.534 4.18c6.981-2.221 8.624-3.181 11.066-3.148-.531-.552-1.537-.778-1.537-.778s-7.146 1.909-10.159 1.942c-3.014.035-6.904-2.196-6.904-2.196zm1.818-1.698s3.1-6.365 9.675-5.993c5.299.051 7.003 1.524 7.003 1.524s-4.468-.323-5.292.041c2.141.799 4.122 4.207 3.881 5.164-.247.96-5.044-2.815-5.044-2.815l-10.223 2.079zm17.138-2.108c1.984.263 2.149 3.449.167 3.873.453-1.432.395-2.502-.167-3.873z" fill="#F6A76A"/><path fill="#1A1A1A" d="M102.2 51.436c-.421-1.312-3.24-1.926-4.369-2.291-2.041-.659-4.018-1.368-6.194-1.343-1.84.021-3.696.53-5.164 1.667-.647.502-1.16 1.117-1.655 1.761-.04.051-.211-.041-.179-.103.168-.322.329-.647.524-.954 2.183-3.413 6.323-4.125 10.086-3.746 1.863.188 3.607.763 5.136 1.864.705.508 1.395 1.133 1.81 1.909.136.254.557 1.256.005 1.236z"/><path fill="#D9AA8E" d="M103.447 57.951s-3.142-6.929-9.26-6.847c-7.434.103-7.659 6.673-7.157 5.318 0 0 3.25-3.398 9.544-2.011 5.073 1.117 6.873 3.54 6.873 3.54z"/><path fill="#EACBBA" d="M93.507 51.589s-2.728.233-3.97 1.163c-1.242.925-1.723 2.506-1.723 2.506s2.728-.911 3.039-1.829c.292-.849 2.654-1.84 2.654-1.84z"/><path fill="#C78A66" d="M102.087 56.753c-1.519-2.402-2.938-3.833-5.11-4.838-1.222-.563-1.852-.616-1.852-.616s1.751.56 1.975 1.263c.172.549-1.12 1.187-1.12 1.187 1.762.735 2.163.791 3.268 1.222.747.295 2.839 1.782 2.839 1.782z"/><path fill="#fff" d="M87.055 56.712s.461 3.495 6.099 3.633c5.622.138 10.244-2.673 10.244-2.673s-3.197-3.369-8.816-3.559c-5.622-.19-7.527 2.599-7.527 2.599z"/><radialGradient id="c" cx="175.34" cy="229.472" r="2.946" gradientTransform="scale(1 -1) rotate(3.04 5534.054 -1440.055)" gradientUnits="userSpaceOnUse"><stop offset="0" stop-color="#28353D"/><stop offset=".508" stop-color="#27323B"/><stop offset=".809" stop-color="#222A33"/><stop offset="1" stop-color="#1D2029"/></radialGradient><path fill="url(#c)" d="M94.012 54.259c-1.41-.132-2.153-.033-2.453.448a3.175 3.175 0 0 0-.472 1.839 3.162 3.162 0 0 0 3.328 2.993 3.164 3.164 0 0 0 2.712-4.484c-.23-.495-2.045-.694-3.115-.796z"/><path fill="#212121" d="M92.517 56.329a1.711 1.711 0 0 0 1.801 1.613 1.705 1.705 0 0 0 1.611-1.796 1.705 1.705 0 0 0-1.796-1.617 1.714 1.714 0 0 0-1.616 1.8z"/><path d="M91.491 56.845c.314.147.69.011.84-.303a.63.63 0 1 0-.84.303zm1.473-.829a.514.514 0 0 0 .438-.927.519.519 0 0 0-.684.242.515.515 0 0 0 .246.685z" fill="#fff"/><path fill="#1A1A1A" d="M103.397 57.672s-3.754-4.738-10.909-4.742c-5.685-.008-7.582 3.327-7.582 3.327l2.166.574s2.246-2.446 6.298-2.504c5.327-.083 9.247 2.665 10.027 3.345z"/><path fill="#B76B2C" d="M102.177 58.356s-6.528 2.999-11.658 1.465c-2.615-.779-3.315-2.415-3.315-2.415s.444 2.733 3.977 3.127c5.977.663 10.996-2.177 10.996-2.177z"/><path opacity=".5" d="M134.242 57.856s.958 6.001-7.535 4.18c-6.98-2.221-8.624-3.181-11.066-3.148.53-.552 1.537-.778 1.537-.778s7.146 1.909 10.159 1.942c3.015.035 6.905-2.196 6.905-2.196zm-1.82-1.698s-3.1-6.365-9.674-5.993c-5.301.051-7.003 1.524-7.003 1.524s4.468-.323 5.292.041c-2.141.799-4.122 4.207-3.881 5.164.246.96 5.044-2.815 5.044-2.815l10.222 2.079zm-17.137-2.108c-1.985.263-2.15 3.449-.168 3.873-.452-1.432-.392-2.502.168-3.873z" fill="#F6A76A"/><path fill="#1A1A1A" d="M117.584 51.426c-.476-1.282 1.387-2.713 2.254-3.3 1.686-1.14 3.561-1.604 5.566-1.757 3.701-.282 7.835.746 9.685 4.274.069.132.337.927.009.502-.543-.704-1.123-1.345-1.849-1.868-1.607-1.159-3.675-1.559-5.625-1.458-2.016.104-3.879.814-5.78 1.427-.942.304-1.913.634-2.787 1.106a4.47 4.47 0 0 0-1.041.694c-.185.231-.146.393-.432.38z"/><path fill="#D9AA8E" d="M116.538 57.951s3.144-6.929 9.259-6.847c7.436.103 7.661 6.673 7.158 5.318 0 0-3.25-3.398-9.543-2.011-5.074 1.117-6.874 3.54-6.874 3.54z"/><path fill="#EACBBA" d="M126.479 51.589s2.729.233 3.972 1.163c1.241.925 1.722 2.506 1.722 2.506s-2.727-.911-3.038-1.829c-.293-.849-2.656-1.84-2.656-1.84z"/><path fill="#C78A66" d="M117.898 56.753c1.52-2.402 2.938-3.833 5.109-4.838 1.223-.563 1.854-.616 1.854-.616s-1.752.56-1.975 1.263c-.173.549 1.119 1.187 1.119 1.187-1.762.735-2.163.791-3.268 1.222-.747.295-2.839 1.782-2.839 1.782z"/><path fill="#fff" d="M132.932 56.712s-.461 3.495-6.099 3.633c-5.624.138-10.245-2.673-10.245-2.673s3.198-3.369 8.816-3.559c5.621-.19 7.528 2.599 7.528 2.599z"/><radialGradient id="d" cx="3981.428" cy="25.921" r="2.944" gradientTransform="scale(-1) rotate(3.04 3519.253 -77447.628)" gradientUnits="userSpaceOnUse"><stop offset="0" stop-color="#28353D"/><stop offset=".508" stop-color="#27323B"/><stop offset=".809" stop-color="#222A33"/><stop offset="1" stop-color="#1D2029"/></radialGradient><path fill="url(#d)" d="M125.975 54.259c1.409-.132 2.153-.033 2.453.448.327.53.506 1.166.471 1.839a3.16 3.16 0 0 1-3.326 2.993 3.164 3.164 0 0 1-2.713-4.484c.229-.495 2.042-.694 3.115-.796z"/><path fill="#212121" d="M127.471 56.329a1.712 1.712 0 0 1-1.802 1.613 1.707 1.707 0 0 1-1.612-1.796 1.707 1.707 0 0 1 1.797-1.617c.94.049 1.664.858 1.617 1.8z"/><path d="M123.363 57.449a.635.635 0 0 0 .841-.303.627.627 0 0 0-.302-.835.63.63 0 0 0-.539 1.138zm1.474-.829a.513.513 0 1 0 .438-.927.513.513 0 0 0-.438.927z" fill="#fff"/><path fill="#1A1A1A" d="M116.588 57.672s3.754-4.738 10.909-4.742c5.687-.008 7.581 3.327 7.581 3.327l-2.164.574s-2.247-2.446-6.299-2.504c-5.326-.083-9.246 2.665-10.027 3.345z"/><path fill="#B76B2C" d="M117.811 58.356s6.525 2.999 11.657 1.465c2.614-.779 3.315-2.415 3.315-2.415s-.444 2.733-3.979 3.127c-5.977.663-10.993-2.177-10.993-2.177z"/><path fill="#AE8879" d="M108.274 74.8l.311.254c-.307-.323-.604-.634-.95-.916-.182-.147-1.449-1.009-1.675-.643-.033.052 1.098.473 1.18.511.395.153.827.503 1.134.794z"/><path opacity=".2" fill="#F5B1A2" d="M106.565 74.073c-.842.917 1.871 2.168 2.529 2.062-.095-.784-1.584-3.097-2.529-2.062z"/><path opacity=".32" fill="#F5B1A2" d="M115.102 75c-.748-1.989-2.523-1.54-4.189-1.263-.951.158-1.736.038-2.66-.209-.956-.254-1.955-.339-2.664.473-.528.606.591.715.976.84.923.294 1.577.988 2.409 1.463 2.233 1.281 3.846-1.5 6.128-1.304-.041-.108-.875-.074 0 0z"/><path fill="#AE8879" d="M111.586 74.94l-.333.223c.335-.294.657-.585 1.024-.836.176-.12 1.574-.878 1.726-.495.022.042-1.131.375-1.215.404-.41.141-.868.43-1.202.704z"/><path opacity=".2" fill="#F5B1A2" d="M107.585 75.511c-.55-.581-1.367-1.155-2.212-.958.79-1.391 3.072.955 3.892 1.191 1.014.296 1.963-.156 2.853-.598 1.021-.507 2.005-.672 3.079-.217-.641.202-1.219.134-1.855.446-.678.33-1.285.777-1.947 1.134-1.481.79-2.748.131-3.81-.998zm5.778-1.26c.846.916-1.866 2.167-2.525 2.063.096-.784 1.584-3.097 2.525-2.063z"/><path opacity=".5" fill="#F6A76A" d="M110.371 76.856s-.027 2.612-1.381 2.555c-1.35-.058.369.444 1.187.22.818-.222.869-.624.194-2.775zM114.609 73.812s1.197-.452.965-1.63c-.234-1.179-.887-1.763-.887-1.763s.972.813 1.08 2.004c.109 1.187-1.158 1.389-1.158 1.389zm-9.231-.089s-1.201-.451-.966-1.628c.234-1.177.888-1.762.888-1.762s-.974.813-1.081 2.001c-.108 1.191 1.159 1.389 1.159 1.389z"/><path opacity=".3" fill="#FDE9D7" d="M113.874 68.368s-.7-.299-.931-1.51c-.229-1.212-1.16-3.378-1.627-.557-.465 2.822-.346 4.235.672 3.874 1.496-.529 2.472-.143 2.527-.798.035-.415-.212-.794-.641-1.009z"/><path fill="#B54A37" d="M106.763 81.687c4.36.416 10.657.27 12.616-.874 0 0-.729 1.922-1.786 3.374-1.461 2-3.774 2.579-7.652 2.5-5.969-.124-6.188.271-8.011-3.208-.22-.422-1.415-2.777-2.031-3.502-.001-.001 2.572 1.301 6.864 1.71z"/><path fill="#fff" d="M117.174 82.848c-2.98 2.131-10.111 2.666-14.051.337-.292-.173-.538-.966-1.582-1.753l16.848-.653-1.215 2.069z"/><path fill="#FF5D47" d="M118.35 82.367c-.848 1.2-3.652 3.528-8.475 3.491-4.82.037-7.718-2.7-8.563-3.9-.359-.5-1.093-1.449-1.093-1.449.461 1.17 1.157 2.921 1.888 4.146 1.19 1.978 2.3 2.748 3.229 3.314a8.843 8.843 0 0 0 4.495 1.247h.091a8.852 8.852 0 0 0 4.496-1.247c.93-.568 2.038-1.333 3.229-3.311.73-1.226 1.428-2.978 1.888-4.148-.003.001-.83 1.357-1.185 1.857z"/><path opacity=".58" fill="#fff" d="M112.907 87.602s-.312-1.046-.027-1.489c.226-.35 1.524-.561 1.565-.307.113.701.721 1.409.068 1.745-.646.331-1.394.482-1.606.051z"/><path opacity=".43" fill="#fff" d="M111.111 87.951s-.319-1.215.234-1.295c.557-.082 1.041-.093 1.049.162.013.259.398 1.471-.086 1.549-.738.119-1.042.029-1.197-.416z"/><path fill="#FF5D47" d="M120.105 79.959c-.383.285-1.146.556-2.725.361-3.02-.376-5.422-.279-7.479-.096-2.103-.271-4.568-.313-7.497.022-1.577.181-2.34-.1-2.72-.387 2.047 2.491 6.265 2.939 10.149 2.914v-.035h.09v.035c3.886.063 8.108-.343 10.182-2.814z"/><path fill="#B54A37" d="M120.393 79.674c-.49.178-1.063.865-1.063.865-1.398 1.644-6.365 2.048-7.738 2.041-.421-.001-.973.024-1.599.046-.626-.022-1.179-.047-1.601-.046-1.372.007-6.339-.396-7.736-2.041 0 0-.573-.687-1.063-.865-.678-.25-.993-.027-.424.329.198.125.56-.106 1.141.716.878 1.247 4.13 1.852 6.186 2.063a45 45 0 0 0 3.497.191 45 45 0 0 0 3.495-.191c2.057-.21 5.31-.815 6.188-2.063.581-.822.942-.592 1.141-.716.57-.357.253-.579-.424-.329z"/><path opacity=".5" fill="#F6A76A" d="M98.743 75.803c-2.18-.604-3.624 3.002-4.811 4.261-.052-1.381.554-2.854 1.5-3.853.779-.822 2.499-1.674 3.311-.408zm22.098-.505c2.181-.604 3.626 3.002 4.812 4.261.052-1.384-.553-2.854-1.5-3.853-.781-.822-2.501-1.675-3.312-.408zM96.07 127.939c3.225-.644 6.446-1.06 9.722-1.324.409-.034 1.195-.28 1.507.013.119.126.19.386.264.541.501 1.06 1.409 1.953 2.653 1.875 1.15-.074 2.056-.954 2.664-1.866.083-.123.149-.297.249-.406.219-.442.93-.182 1.283-.15 3.201.273 6.354.688 9.503 1.32a116.812 116.812 0 0 1-4.94-.397c-1.824-.185-3.686-.153-5.518-.262.121-.025.259-.033.322-.167-.647 1.264-1.866 2.604-3.378 2.718-1.798.136-3.147-1.146-3.711-2.781.033.123.25.199.356.216-1.827.102-3.654.166-5.479.228a129.6 129.6 0 0 1-5.497.442c.904-.178.92-.048 0 0z"/></svg>