<svg xmlns="http://www.w3.org/2000/svg" width="220" height="220" viewBox="0 0 220 220"><path fill="#fc9" stroke="#D09D6A" stroke-width=".5" stroke-miterlimit="10" d="M138.917 107.885c-1.038-1.729-11.815-5.051-11.759-17.948.057-12.895 2.458-22.033 2.458-22.033s-10.531-2.993-19.537-4.445v-.057l-.168.028-.168-.028v.057c-9.007 1.452-19.538 4.445-19.538 4.445s2.401 9.138 2.458 22.033c.057 12.897-10.721 16.217-11.758 17.948-1.039 1.732 1.439 6.662 3.546 9.646 2.105 2.982 18.945 12.385 25.098 12.089l.362-.036.362.036c6.153.295 22.993-9.106 25.099-12.089 2.107-2.984 4.584-7.913 3.545-9.646z"/><path opacity=".5" fill="#F6A76A" d="M127.162 89.933c0 .461.012.924.047 1.362-1.775.734-3.542 1.42-5.01 2.107-2.534 1.197-6.252 2.547-8.941 3.458a10.397 10.397 0 0 1-6.786 0c-2.7-.911-6.419-2.261-8.954-3.458-1.397-.663-3.139-1.373-4.891-2.143.024-.427.036-.877.036-1.327-.06-12.886-2.452-22.028-2.452-22.028s10.529-2.997 19.53-4.441v-.06l.166.024.178-.024v.06c9 1.445 19.528 4.441 19.528 4.441s-2.404 9.143-2.451 22.029z"/><path fill="#fc9" stroke="#D09D6A" stroke-width=".5" stroke-miterlimit="10" d="M144.143 44.606c-1.897-3.41-2.25-1.782-3.381 1.277.379-10.271-.943-19.089-2.111-24.553-2.932-13.728-28.799-7.392-28.799-7.392S83.982 7.602 81.05 21.33c-1.166 5.461-2.385 14.379-1.922 24.729-1.139-3.17-1.512-4.926-3.444-1.453-.75 1.348-.986 2.517-.747 6.655.245 4.138-.024 8.643 2.754 8.843.505.036.908-.021 1.231-.147.814 9.669 6.555 19.717 7.084 20.806 1.309 2.694 6.771 4.247 11.254 6.358 2.587 1.219 6.38 1.404 9.125 2.344 2.232.763 4.698.763 6.93 0 2.746-.94 6.537-1.125 9.125-2.344 4.484-2.111 9.293-3.007 11.256-6.358.785-1.338 6.561-11.284 7.338-20.767.302.095.66.139 1.102.108 2.778-.2 2.51-4.705 2.754-8.843.239-4.138.003-5.307-.747-6.655z"/><path opacity=".5" d="M87.964 47.537s-1.059 4.518 5.51 3.593c5.436-1.313 6.742-1.955 8.598-1.795-.373-.451-1.128-.675-1.128-.675s-5.545 1.065-7.84.925c-2.299-.139-5.14-2.048-5.14-2.048zm.099-1.779s2.929-5.065 8.329-4.372c4.365.354 5.684 1.667 5.684 1.667s-3.665-.528-4.365-.276c1.715.784 3.15 3.708 2.895 4.484-.258.776-3.992-2.619-3.992-2.619l-8.551 1.116zm16.276-.681c1.783.367 1.73 3.27-.1 3.525.505-1.269.522-2.245.1-3.525zM131.689 47.537s1.058 4.518-5.51 3.593c-5.437-1.313-6.742-1.955-8.599-1.795.372-.451 1.127-.675 1.127-.675s5.546 1.065 7.84.925c2.301-.139 5.142-2.048 5.142-2.048zm-.1-1.779s-2.928-5.065-8.329-4.372c-4.365.354-5.683 1.667-5.683 1.667s3.665-.528 4.364-.276c-1.715.784-3.149 3.708-2.895 4.484.258.776 3.994-2.619 3.994-2.619l8.549 1.116zm-16.275-.681c-1.783.367-1.73 3.27.1 3.525-.505-1.269-.521-2.245-.1-3.525zM98.977 67.405c-2.158-.601-3.59 2.974-4.766 4.22-.05-1.367.547-2.827 1.488-3.817.771-.814 2.473-1.66 3.278-.403zm21.893-.501c2.162-.6 3.592 2.974 4.767 4.222.053-1.372-.548-2.828-1.484-3.817-.773-.817-2.479-1.66-3.283-.405z" fill="#F6A76A"/><path fill="#FFB679" d="M78.851 48.609c-1.636.073-.983 4.677-.679 6.296.304 1.618 1.861 2.517 2.785 2.154.919-.361 1.212-2.79.232-2.88-.979-.087-1.557-.716-1.093-1.348.467-.628.784-4.316-1.245-4.222zm62.126 0c1.635.073.983 4.677.68 6.296-.305 1.618-1.862 2.517-2.785 2.154-.919-.361-1.212-2.79-.232-2.88.979-.087 1.557-.716 1.094-1.348-.47-.628-.789-4.316 1.243-4.222z"/><path fill="#F2F2F2" d="M90.21 97.234l1.092 94.774h37.073V97.234l-16.076 9.57h-5.559z"/><path fill="#111F21" d="M114.477 111.489c-.131 1.682-3.002 4.552-4.685 4.684-1.682-.132-4.554-3.002-4.685-4.684.131-1.683 3.002-4.554 4.685-4.687 1.683.134 4.554 3.004 4.685 4.687zm6.095 80.259H99.647l6.818-79.003h6.653z"/><path fill="#632205" d="M138.682 50.934s4.557-5.732 4.907-18.603c.351-12.87-1.052-21.182-4.907-21.614 0 0-1.754-6.073-10.752-7.695-8.75-1.579-22.399-7-45.783 2.221a4.867 4.867 0 0 0-2.816 3c-.758 2.268-4.109 8.312-3.888 11.646 0 0-1.136 7.512-.552 12.92.584 5.408 5.945 18.125 5.945 18.125s-1.871-15.79 1.751-22.171c3.624-6.381 14.374-5.413 14.374-5.413s32.723 6.154 36.229 5.073c3.503-1.083 5.492 22.511 5.492 22.511z"/><path opacity=".1" fill="#fff" d="M133.559 15.788c-.656-1.705-.875-4.03-2.843-5.269-.217 1.086-.438 2.169-1.094 3.099-4.812-3.099-12.03-5.267-18.812-4.957 3.28 1.085 5.688 2.635 7.219 4.957-4.375-.465-7.875-1.86-12.469-1.86-3.279 0-5.466.466-8.749 1.241 3.501-.465 8.531-.155 10.937 1.705-4.592.465-9.406-1.086-14.437-.31-3.28.464-6.999 1.859-9.624 3.563 8.75-.31 17.279.155 25.81 1.55.656-1.241-1.968-2.169-3.281-2.79 7.001-.619 15.312 1.085 21.873 2.168-.655-1.548-1.748-3.098-3.498-4.182 3.498 1.084 6.343 2.943 9.404 4.338.22-.775-.436-3.253-.436-3.253z"/><path fill="#632205" d="M84.948 39.076c-.031.007.386-.636.419-.673.265-.295.577-.563.887-.808.864-.681 1.425-.726 2.5-.823 2.211-.2 4.449-.232 6.663-.054 2.144.173 4.324.522 6.326 1.335.834.339 1.243.557 1.741 1.305.413.688.655 1.406.751 2.199-.659-.2-1.333-.255-2.016-.298-.845.023-1.444-.393-2.234-.659-1.768-.595-3.659-.834-5.515-.939a36.867 36.867 0 0 0-5.707.124l-1.07.165c-.312.033-.78-.263-1.071-.37-.17-.065-1.568-.692-1.674-.504z"/><path fill="#fff" d="M101.586 45.458c.139.801.46 1.581.104 2.338-.688 1.461-1.786 2.226-3.391 2.292-1.715.071-3.446-.182-5.14-.421-1.115-.159-2.607-.102-3.528-.82-.512-.4-2.321-1.884-2.034-2.897.325-1.144 2.392-1.721 3.414-1.991 2.191-.572 4.617-.517 6.859-.308 1.354.127 3.099.411 3.716 1.807z"/><radialGradient id="a" cx="597.154" cy="125.057" r="2.877" gradientTransform="scale(-1) rotate(3.38 3153.642 -11675.477)" gradientUnits="userSpaceOnUse"><stop offset="0" stop-color="#28353D"/><stop offset=".508" stop-color="#27323B"/><stop offset=".809" stop-color="#222A33"/><stop offset="1" stop-color="#1D2029"/></radialGradient><path fill="url(#a)" d="M92.683 43.816a3.066 3.066 0 0 0-.86 1.965 3.084 3.084 0 1 0 5.538-1.678c-.722-.338-3.949-.491-4.678-.287z"/><path fill="#212121" d="M93.094 46.112a1.887 1.887 0 1 0 3.768.223 1.887 1.887 0 1 0-3.768-.223z"/><path fill="#1A1A1A" d="M101.586 45.458s-.546-1.284-3.523-1.459c-2.979-.177-6.416.313-7.32.262-.901-.054-3.227 1.683-3.227 1.683s1.151-2.136 3.216-2.658c1.874-.475 7.289-.404 8.667-.184 1.379.221 2.187 2.356 2.187 2.356z"/><path fill="#B76B2C" d="M100.155 49.65s-6.135 1.291-10.204-1.003c-2.073-1.167-2.354-2.696-2.354-2.696s-.362 2.201 2.782 3.428c4.888 1.909 9.776.271 9.776.271z"/><path fill="#fff" d="M92.182 46.294a.548.548 0 1 0 .601-.917.548.548 0 0 0-.601.917zm1.378-.536a.447.447 0 1 0-.13-.621.442.442 0 0 0 .13.621zm24.62-.3c-.139.801-.461 1.581-.104 2.338.688 1.46 1.786 2.226 3.392 2.292 1.713.071 3.446-.182 5.141-.421 1.113-.159 2.605-.102 3.525-.82.514-.4 2.322-1.884 2.036-2.897-.325-1.144-2.392-1.721-3.416-1.991-2.19-.572-4.616-.517-6.858-.308-1.353.127-3.098.411-3.716 1.807z"/><radialGradient id="b" cx="-1790.581" cy="173.975" r="2.877" gradientTransform="scale(1 -1) rotate(3.38 2898.451 32507.145)" gradientUnits="userSpaceOnUse"><stop offset="0" stop-color="#28353D"/><stop offset=".508" stop-color="#27323B"/><stop offset=".809" stop-color="#222A33"/><stop offset="1" stop-color="#1D2029"/></radialGradient><path fill="url(#b)" d="M127.082 43.816a3.087 3.087 0 0 1-2.037 5.226 3.086 3.086 0 0 1-2.643-4.939c.726-.338 3.952-.491 4.68-.287z"/><path fill="#212121" d="M126.673 46.112a1.885 1.885 0 0 1-1.772 1.994 1.889 1.889 0 0 1-.221-3.77 1.888 1.888 0 0 1 1.993 1.776z"/><path fill="#1A1A1A" d="M118.18 45.458s.545-1.284 3.522-1.459c2.979-.177 6.416.313 7.319.262.901-.054 3.229 1.683 3.229 1.683s-1.152-2.136-3.218-2.658c-1.874-.475-7.288-.404-8.667-.184-1.377.221-2.185 2.356-2.185 2.356z"/><path fill="#B76B2C" d="M119.611 49.65s6.134 1.292 10.203-1.003c2.072-1.167 2.354-2.696 2.354-2.696s.363 2.201-2.782 3.428c-4.889 1.909-9.775.271-9.775.271z"/><path fill="#fff" d="M122.299 46.018a.548.548 0 0 0 .771-.08.551.551 0 0 0-.075-.771.549.549 0 1 0-.696.851zm1.424-.39a.445.445 0 0 0 .627-.063.45.45 0 0 0-.064-.63.45.45 0 0 0-.627.063.442.442 0 0 0 .064.63z"/><path fill="#632205" d="M134.857 39.076c-.123-.196-1.503.414-1.687.479-.294.104-.765.393-1.078.356l-1.07-.178a35.312 35.312 0 0 0-5.715-.172c-1.854.098-3.748.333-5.506.952-.796.28-1.372.659-2.218.697-.684.052-1.358.135-2.014.347a5.473 5.473 0 0 1 .705-2.219c.443-.755.881-.98 1.673-1.321 1.91-.821 3.998-1.189 6.059-1.373 2.151-.191 4.325-.166 6.476.02.821.071 1.861-.002 2.533.496.422.313.829.635 1.205 1.005l.637.911z"/><path opacity=".5" fill="#F6A76A" d="M109.661 68.118s-.046 4.157-2.198 4.065c-2.149-.091.589.709 1.889.352 1.3-.354 1.38-.993.309-4.417z"/><path opacity=".32" fill="#F5B1A2" d="M109.202 64.332c2.708.28 5.964 1.218 6.045 1.59-3.579 1.751-11.072.749-10.843-.173.178-.714 3.075-1.597 4.798-1.417z"/><path fill="#AE8879" d="M114.087 64.99c.728-.035 1.485.327 1.44.464-.045.14-.783.029-1.426.063-.39.02-1.61.319-1.67.186-.06-.129 1.212-.69 1.656-.713zm-8.256-.248c.768.149 1.688.724 1.623.854-.064.131-1.122-.213-1.655-.327-.457-.096-1.535.035-1.596-.096-.064-.132 1.113-.532 1.628-.431z"/><path opacity=".2" fill="#F5B1A2" d="M106.129 66.231c-.771-.817-1.918-1.625-3.106-1.349 1.11-1.955 4.315 1.341 5.47 1.679 1.423.412 2.762-.223 4.008-.844 1.431-.71 2.815-.943 4.327-.303-.902.281-1.715.188-2.607.625-.955.466-1.807 1.095-2.74 1.594-2.076 1.11-3.857.181-5.352-1.402z"/><path opacity=".5" fill="#F6A76A" d="M116.441 65.027s1.488-.559 1.197-2.016c-.289-1.461-1.1-2.184-1.1-2.184s1.205 1.006 1.338 2.479c.136 1.474-1.435 1.721-1.435 1.721zm-13.181 0s-1.488-.559-1.197-2.016c.292-1.461 1.1-2.184 1.1-2.184s-1.205 1.006-1.337 2.479c-.136 1.474 1.434 1.721 1.434 1.721z"/><path opacity=".3" fill="#FDE9D7" d="M114.291 56.829s-1.039-.441-1.382-2.245c-.341-1.801-1.728-5.023-2.419-.827-.689 4.199-.511 6.296 1 5.759 2.224-.784 3.671-.212 3.754-1.185.051-.617-.314-1.181-.953-1.502z"/><path fill="#FFAC81" d="M101.401 74.121c0-.448 2.883-1.431 3.169-1.543 1.714-.661 3.65-.921 5.331-.39 1.608-.508 3.6-.269 5.312.383.289.11 3.188 1.09 3.188 1.55-.001.782-17 .767-17 0zm.005.002c1.243.058 2.498.361 3.733.535 1.585.226 3.167.257 4.762.363 1.563-.106 3.126-.118 4.681-.363 1.256-.198 2.544-.46 3.813-.535-3.858 6.165-13.101 6-16.989 0z"/><path fill="#B54A37" d="M109.757 75.22c-1.643-.036-3.159-.126-4.386-.264l-.87-.09c-1.993-.205-2.903-.297-3.57-1.424-.521-.878-.952-.362-1.236-.393-.095-.008-.168-.016-.219-.051-.297-.205-.35-.341-.336-.392.014-.042.095-.071.208-.071.156 0 .366.05.592.14.587.236 1.294.593 1.301.603 1.193 1.351 4.518 1.551 6.394 1.551h.012c.577 0 1.12.023 1.73.049l.377.015.381-.015c.615-.025 1.161-.049 1.598-.049l.728.002c2.203 0 4.874-.156 5.997-1.374.012-.015.718-.374 1.309-.607.225-.091.436-.141.59-.141.113 0 .195.029.209.071.015.05-.039.187-.336.39l-.199.076c-.234.063-.592-.404-1.247.36-1.023 1.193-1.657 1.211-2.921 1.246-.471.011-1.026.029-1.719.104-1.232.138-2.748.228-4.387.264z"/><path opacity=".5" fill="#F6A76A" d="M109.262 83.553c-.94-.762-1.32-3.858.252-3.953 1.571-.096 3.333.191 3.523 1.285.191 1.096-.887 2.288-1.301 2.668-.414.382-2.105 1.095-2.474.62-.368-.478 0-.62 0-.62z"/><path fill="#0E4454" stroke="#0E2C33" stroke-width=".5" stroke-miterlimit="10" d="M195.418 189.246c-.852-18.637-6.547-55.332-8.494-67.477a6.371 6.371 0 0 0-4.408-5.086c-11-3.412-42.57-13.262-46.74-16.001-4.826-3.169-8.121-7.621-8.121-7.621s.593 27.693-1.914 45.476c-2.51 17.783-15.631 47.363-15.631 47.363s-13.123-29.58-15.63-47.363c-2.51-17.783-2.2-45.697-2.2-45.697s-3.01 4.672-7.836 7.842c-4.17 2.74-35.741 12.589-46.74 16.001a6.372 6.372 0 0 0-4.409 5.086c-1.947 12.145-7.643 48.84-8.494 67.477-1.029 22.537-1.8 29.814-1.8 29.814h27.738l3.345-46.588s5.196 31.096 2.365 46.588l53.66.94 53.661-.939c-2.83-15.492 2.365-46.588 2.365-46.588l3.346 46.588h27.738s-.772-7.278-1.801-29.815z"/><path fill="#0E2C33" d="M110.109 185.9s-8.632-8.067-23.494-44.965c-7.899-18.477-8.141-34.449-8.141-34.449s8.209-4.709 14.101-14.081c0 0-.557 19.387.869 34.201 2.029 29.107 13.452 50.994 16.665 59.294zm0 0s8.632-8.067 23.495-44.965c7.898-18.477 8.141-34.449 8.141-34.449s-8.209-4.709-14.102-14.081c0 0 .558 19.387-.869 34.201-2.028 29.107-13.452 50.994-16.665 59.294z"/><path opacity=".2" d="M109.752 106.804s-4.792 1.75-8.935 7.004c0 0-3.476 4.26-4.662 6.724 0 0 4.484-11.213 13.597-13.728z"/><path fill="#fff" d="M91.302 92.479c.737 8.747 4.749 27.896 4.749 27.896l.016-.031a72.616 72.616 0 0 1 2.155-3.34l.008-.016c3.572-5.198 6.496-7.746 8.538-8.995 1.483-.904 2.507-1.122 2.987-1.169h.033l.008-.007h.049l.104-.009h.119l-.432-.128c-4.934-.424-10.848-4.897-16.982-16.111 0-.002.058.932-1.352 1.91z"/><path opacity=".2" d="M109.925 106.804s4.792 1.75 8.935 7.004c0 0 3.478 4.26 4.664 6.724-.003 0-4.486-11.213-13.599-13.728z"/><path fill="#fff" d="M128.375 92.479c-.736 8.747-4.749 27.896-4.749 27.896l-.017-.031a71.828 71.828 0 0 0-2.153-3.34l-.009-.016c-3.572-5.198-6.496-7.746-8.538-8.995-1.483-.904-2.506-1.122-2.988-1.169h-.032l-.008-.007h-.047l-.105-.009h-.119l.433-.128c4.934-.424 10.994-4.897 17.129-16.111-.001-.002-.207.932 1.203 1.91z"/><path fill="#0E2C33" d="M37.704 116.684s.604.698 1.553 2.01c.452.668 1.03 1.466 1.622 2.425.623.94 1.263 2.04 1.946 3.249.658 1.221 1.378 2.544 2.064 3.979.687 1.436 1.417 2.949 2.042 4.57.688 1.596 1.27 3.294 1.888 5.01.625 1.715 1.108 3.506 1.673 5.271.466 1.793.89 3.597 1.321 5.368l1.01 5.256c.257 1.716.457 3.383.659 4.959.215 1.576.256 3.082.38 4.463.099 1.383.217 2.648.195 3.777l.024 2.914.001 2.537-.196-2.529-.202-2.901c-.05-1.121-.246-2.375-.384-3.748-.175-1.369-.271-2.862-.543-4.419l-.79-4.904-1.066-5.201-1.372-5.303c-.539-1.753-.995-3.535-1.593-5.24-.592-1.707-1.147-3.396-1.81-4.985a108.904 108.904 0 0 0-1.897-4.587c-.627-1.447-1.292-2.785-1.901-4.021-.644-1.219-1.209-2.352-1.768-3.322-.531-.988-1.056-1.813-1.466-2.508-.856-1.366-1.39-2.12-1.39-2.12zm144.864 0s-.535.752-1.393 2.117c-.41.694-.935 1.52-1.466 2.508-.56.973-1.125 2.104-1.769 3.322-.607 1.236-1.272 2.574-1.9 4.021a107.606 107.606 0 0 0-1.896 4.587c-.664 1.589-1.22 3.278-1.811 4.985-.598 1.705-1.055 3.486-1.593 5.24l-1.372 5.303-1.066 5.201-.789 4.904c-.273 1.557-.369 3.051-.543 4.419-.139 1.373-.334 2.627-.385 3.748l-.202 2.901-.196 2.529.002-2.537.023-2.914c-.021-1.129.096-2.395.195-3.777.124-1.381.165-2.889.38-4.463.202-1.576.401-3.243.659-4.959l1.01-5.256c.432-1.771.854-3.575 1.32-5.368.566-1.765 1.049-3.556 1.674-5.271.617-1.716 1.199-3.414 1.889-5.01.625-1.622 1.354-3.135 2.042-4.57.687-1.435 1.407-2.758 2.063-3.979.684-1.208 1.324-2.309 1.947-3.249.592-.958 1.17-1.755 1.621-2.425.953-1.309 1.556-2.007 1.556-2.007z"/><circle fill="#1E1E1E" cx="110.109" cy="196.746" r="2.48"/><circle fill="#1E1E1E" cx="110.109" cy="209.703" r="2.48"/></svg>