<svg xmlns="http://www.w3.org/2000/svg" width="220" height="220" viewBox="0 0 220 220"><path fill="#F9C795" stroke="#D09D6A" stroke-width=".645" stroke-miterlimit="10" d="M143.4 118.9c-3 4.3-23.7 17.7-32.5 17.3-.3 0-.7-.1-1-.1-.3 0-.7.1-1 .1-8.8.4-29.5-13-32.5-17.3-3-4.3-5.9-10.1-4.5-12.5 1-1.6 7.2-4.7 11.7-11.4.6-.9 1.2-1.9 1.7-3 1.3-2.6 2.2-5.6 2.6-9.1.1-1 .2-2.1.2-3.2v-.3c0-5.2-.3-10-.7-14.2-.2-2.6-.5-4.9-.8-7-.7-4.9-1.5-8.3-1.8-9.7-.1-.4-.2-.7-.2-.7s12.2-4.5 25.3-6.5c13.1 2 25.3 6.5 25.3 6.5s-.1.2-.2.7c-.3 1.4-1.1 4.7-1.8 9.7-.2 1.6-.5 3.3-.7 5.2-.5 4.6-.9 10-.9 16v.3c0 1.1.1 2.2.2 3.2.3 3.2 1.2 6 2.3 8.4.6 1.4 1.3 2.6 2.1 3.7 4.5 6.7 10.7 5.9 11.7 7.5 1.5 2.4-1.4 12.1-4.5 16.4z"/><path opacity=".5" fill="#F6A76A" d="M131.7 79.4v.3c0 1.1.1 2.2.2 3.2.3 3.2 1.2 6 2.3 8.4-1 2.3-2 4.2-2.8 5-2.5 2.5-11.8 7.6-21 7.6s-18.5-5.1-21-7.6c-1-.9-2.1-3.2-3.3-6.1.9-2.1 1.5-4.6 1.8-7.3.1-1 .2-2.1.2-3.2v-.3c0-5.2-.3-10-.7-14.2-.2-2.6-.5-4.9-.8-7-.7-4.9-1.5-8.3-1.8-9.7-.1-.4-.2-.6-.2-.6s12.2-4.5 25.3-6.5c13.1 2 25.3 6.5 25.3 6.5s-.1.2-.2.6c-.3 1.4-1.1 4.8-1.8 9.7-.2 1.6-.5 3.3-.7 5.2-.4 4.6-.8 10-.8 16z"/><path fill="#FC9" stroke="#D09D6A" stroke-width=".645" stroke-miterlimit="10" d="M147.2 44.2c-2.3-4-4.2-2.8-5.5 1.1V32.2c0-9.1-7.7-21.7-17.3-21.7H96.2c-9.5 0-17.3 10-17.3 19.1v15.8c-1.3-5.2-3.4-6.1-6.2-1.2-.8 1.4-1.1 2.7-.8 7.1.3 4.4 2.6 10.5 5.7 10.7.6 0 1 0 1.3-.1 0 0 6.6 24.3 10.3 27.9 2.5 2.5 11.8 7.6 21 7.6 9.3 0 18.5-5.1 21-7.6 3.7-3.7 10.3-27.8 10.3-27.8h.6c3.1-.2 5.4-6.3 5.7-10.7.5-4.4.2-5.6-.6-7.1z"/><path opacity=".5" fill="#F6A76A" d="M75.4 47.1c-1.8.1-1.1 5.6-.8 7.6.3 1.9 2 3 3 2.6 1-.4 1.3-3.4.3-3.5-1.1-.1-1.7-.9-1.2-1.6.6-.8.9-5.2-1.3-5.1z"/><path fill="#F9C795" d="M126.6 12.4c18.8 5.7-5.4-1.6 0 0z"/><path opacity=".5" fill="#F6A76A" d="M144.6 47.1c1.8.1 1.1 5.6.8 7.6-.3 1.9-2 3-3 2.6-1-.4-1.3-3.4-.3-3.5 1.1-.1 1.7-.9 1.2-1.6-.5-.8-.8-5.2 1.3-5.1z"/><path fill="#EAA76F" d="M131.8 29.5c-13.4 3.5-27.7 3.7-41.3 1.2 13.5 1.8 28 1.9 41.3-1.2zm-2.7 3.9c-13.4 3.5-27.7 3.7-41.3 1.2 13.5 1.8 28 1.9 41.3-1.2z"/><path fill="#FFAC81" d="M99.2 77.5c0-.4 3.7-1.2 4-1.3 2.2-.6 4.6-.8 6.7-.3 2-.4 4.6-.2 6.7.3.4.1 4 .9 4 1.3.1.6-21.4.6-21.4 0z"/><path fill="#FFAC81" d="M99.2 77.5c1.6 0 3.2.3 4.7.5 2 .2 4 .2 6 .3 2-.1 4-.1 5.9-.3 1.6-.2 3.2-.4 4.8-.5-4.8 5.2-16.5 5-21.4 0z"/><path fill="#B54A37" d="M109.8 78.4c-2.1 0-4-.1-5.6-.2l-1.1-.1c-2.5-.2-3.7-.2-4.5-1.2-.7-.7-1.2-.3-1.6-.3h-.3c-.4-.2-.4-.3-.4-.3s.1-.1.3-.1c.2 0 .5 0 .7.1.7.2 1.6.5 1.6.5 1.5 1.1 5.7 1.3 8.1 1.3h6.1c2.8 0 6.2-.1 7.6-1.2 0 0 .9-.3 1.7-.5.3-.1.6-.1.8-.1.1 0 .2 0 .3.1 0 0 0 .2-.4.3-.1 0-.2 0-.3.1-.3.1-.7-.3-1.6.3-1.3 1-2.1 1-3.7 1-.6 0-1.3 0-2.2.1-1.6.1-3.5.2-5.5.2z"/><path opacity=".5" fill="#F6A76A" d="M110.5 71.9s0 2.9-1.5 2.8c-1.5-.1.4.5 1.3.2.9-.2.9-.6.2-3z"/><path opacity=".2" fill="#F5B1A2" d="M109.2 68.5c2.8.3 6.3 1.5 6.4 1.9-3.8 2.1-11.6.9-11.4-.2.1-.9 3.2-2 5-1.7z"/><path fill="#AE8879" d="M114.3 69.3c.8 0 1.6.4 1.5.6 0 .2-.8 0-1.5.1-.4 0-1.7.4-1.8.2 0-.2 1.4-.9 1.8-.9zm-8.7-.3c.8.2 1.8.9 1.7 1-.1.2-1.2-.3-1.7-.4s-1.6 0-1.7-.1c0-.2 1.2-.7 1.7-.5z"/><path opacity=".2" fill="#F5B1A2" d="M106 70.8c-.8-1-2-2-3.3-1.6 1.2-2.4 4.5 1.6 5.7 2 1.5.5 2.9-.3 4.2-1 1.5-.9 3-1.1 4.5-.4-.9.3-1.8.2-2.7.8-1 .6-1.9 1.3-2.9 1.9-2.1 1.3-4 .2-5.5-1.7-.9-1 .9 1.1 0 0z"/><path opacity=".5" fill="#F6A76A" d="M116.8 69.3s1.6-.7 1.3-2.5c-.3-1.8-1.2-2.7-1.2-2.7s1.3 1.2 1.4 3c.1 1.9-1.5 2.2-1.5 2.2zm-13.9 0s-1.6-.7-1.3-2.5c.3-1.8 1.2-2.7 1.2-2.7s-1.3 1.2-1.4 3c-.1 1.9 1.5 2.2 1.5 2.2z"/><path opacity=".3" fill="#FDE9D7" d="M114.7 59.6s-1-.5-1.3-2.5c-.3-2-1.6-5.6-2.3-.9-.7 4.6-.5 7 1 6.4 2.1-.9 3.5-.2 3.6-1.3 0-.7-.4-1.3-1-1.7z"/><path fill="#B3B3B3" d="M84.4 42.5c6-3.6 13.8-2.5 19.2 1.6-6.4-.8-12.7-1.6-19.2-1.6z"/><path fill="#FFF" d="M101.4 50c.1.8.3 1.7-.1 2.4-.8 1.4-2 2.1-3.7 2.1-1.8-.1-3.5-.5-5.2-.9-1.1-.3-2.7-.3-3.5-1.1-.5-.5-2.2-2.1-1.8-3.1.4-1.1 2.6-1.6 3.7-1.7 2.3-.4 4.8-.1 7 .3 1.3 0 3.1.5 3.6 2z"/><radialGradient id="a" cx="351.484" cy="-175.112" r="2.957" gradientTransform="rotate(-171.85 230.838 -53.264)" gradientUnits="userSpaceOnUse"><stop offset="0" stop-color="#28353D"/><stop offset=".508" stop-color="#27323B"/><stop offset=".809" stop-color="#222A33"/><stop offset="1" stop-color="#1D2029"/></radialGradient><path fill="url(#a)" d="M92.4 47.5c-.6.5-.9 1.2-1.1 1.9-.2 1.7 1 3.3 2.7 3.6 1.7.2 3.3-1 3.6-2.7.1-.8-.1-1.5-.5-2.1-.6-.4-3.9-.8-4.7-.7z"/><path fill="#212121" d="M92.6 49.9c-.1 1.1.6 2 1.6 2.2 1.1.2 2-.6 2.2-1.6.2-1-.6-2-1.6-2.2-1-.2-2 .6-2.2 1.6z"/><path fill="#666" d="M101.4 50s-.5-1.4-3.5-1.8c-3-.4-6.6-.2-7.5-.4-.9-.1-3.4 1.4-3.4 1.4s1.4-2.1 3.5-2.4c2-.3 7.5.2 8.9.5 1.3.4 2 2.7 2 2.7z"/><path fill="#B76B2C" d="M99.6 54.1s-6.4.8-10.4-1.9c-2-1.4-2.2-3-2.2-3s-.6 2.2 2.6 3.7c4.8 2.5 10 1.2 10 1.2z"/><path fill="#FFF" d="M91.7 50c.2.2.6.1.8-.1.2-.2.1-.6-.1-.8-.2-.2-.6-.1-.8.1-.2.3-.2.6.1.8zm1.4-.4c.2.2.5.1.6-.1.2-.2.1-.5-.1-.6-.2-.2-.5-.1-.6.1-.1.1-.1.4.1.6z"/><path fill="#EAA76F" d="M87.1 49.5c-1.5.8-4.3 1.2-5.8 0 1.8-.9 4.1-1 5.8 0z"/><path fill="#EAA76F" d="M87 50.2c-1.4 1.3-3.8 1.9-5.7 1.5 1.4-1.4 3.8-1.9 5.7-1.5z"/><path fill="#EAA76F" d="M102.1 56.7c-.9.5-1.7 1-2.6 1.4-1.3.6-2.8.7-4.2.7-2.5 0-5.5-.5-7.4-2.3 2.5-.2 4.9-.2 7.4-.2 1.2 0 2.4.2 3.6.2.6 0 1.2 0 1.8.1.2 0 .5.1.7.1h.7z" opacity=".8"/><path fill="#B3B3B3" d="M135.5 42.5c-6.4.2-12.7.9-19.1 1.7 5.4-4.1 13.1-5.1 19.1-1.7z"/><path fill="#FFF" d="M118.5 50c-.1.8-.3 1.7.1 2.4.8 1.4 2 2.1 3.7 2.1 1.8-.1 3.5-.5 5.2-.9 1.1-.3 2.7-.3 3.5-1.1.5-.5 2.2-2.1 1.8-3.1-.4-1.1-2.6-1.6-3.7-1.7-2.3-.4-4.8-.1-7 .3-1.3 0-3.1.5-3.6 2z"/><radialGradient id="b" cx="-3768.676" cy="414.267" r="2.956" gradientTransform="scale(1 -1) rotate(8.141 1442.494 27545.859)" gradientUnits="userSpaceOnUse"><stop offset="0" stop-color="#28353D"/><stop offset=".508" stop-color="#27323B"/><stop offset=".809" stop-color="#222A33"/><stop offset="1" stop-color="#1D2029"/></radialGradient><path fill="url(#b)" d="M127.5 47.5c.6.5.9 1.2 1.1 1.9.2 1.7-1 3.3-2.7 3.6-1.7.2-3.3-1-3.6-2.7-.1-.8.1-1.5.5-2.1.6-.4 3.9-.8 4.7-.7z"/><path fill="#212121" d="M127.3 49.9c.1 1.1-.6 2-1.6 2.2-1.1.2-2-.6-2.2-1.6s.6-2 1.6-2.2c1-.2 2 .6 2.2 1.6z"/><path fill="#666" d="M118.5 50s.5-1.4 3.5-1.8c3-.4 6.6-.2 7.5-.4.9-.1 3.4 1.4 3.4 1.4s-1.4-2.1-3.5-2.4c-2-.3-7.5.2-8.9.5-1.3.4-2 2.7-2 2.7z"/><path fill="#B76B2C" d="M120.3 54.1s6.4.8 10.4-1.9c2-1.4 2.2-3 2.2-3s.6 2.2-2.6 3.7c-4.8 2.5-10 1.2-10 1.2z"/><path fill="#FFF" d="M128.2 50c-.2.2-.6.1-.8-.1-.2-.2-.2-.6.1-.8.2-.2.6-.1.8.1.2.3.2.6-.1.8zm-1.4-.4c-.2.2-.5.1-.6-.1-.2-.2-.1-.5.1-.6.2-.2.5-.1.6.1.1.1.1.4-.1.6z"/><path fill="#EAA76F" d="M132.8 49.5c1.8-.9 4.1-1 5.8 0-1.8.9-4.1 1-5.8 0z"/><path fill="#EAA76F" d="M132.9 50.2c1.9-.4 4.3.1 5.8 1.5-1.9.4-4.4-.2-5.8-1.5z"/><path fill="#EAA76F" d="M117.8 56.7c.9-.4 2.1-.2 3.1-.3 1.3-.2 2.6 0 3.9-.3h4c1 0 2.2-.1 3.1.2-1.8 1.7-4.6 2.3-7 2.3-1.5 0-2.9-.1-4.3-.6-.9-.4-1.9-.9-2.8-1.3z" opacity=".8"/><path fill="#EAA76F" d="M101.2 85.2c2.8-.5 5.8-.6 8.7-.3 2.9.3 5.9.3 8.7 1-2.8.5-5.8.6-8.7.3-2.9-.3-5.9-.3-8.7-1zM105.9 86.9c1.1-.4 2.6-.4 3.7-.3 1.5.2 2.9.6 4.3 1.2-1.2.4-2.8.3-4.1.2-1.2-.2-2.8-.4-3.9-1.1z"/><path opacity=".5" fill="#F6A76A" d="M98.1 70c-2.4-.7-4 3.3-5.3 4.7-.1-1.5.6-3.1 1.7-4.2.8-1 2.7-1.9 3.6-.5zm24.4-.6c2.4-.7 4 3.3 5.3 4.7.1-1.5-.6-3.1-1.7-4.2-.8-.9-2.7-1.9-3.6-.5z"/><path fill="#303F6D" stroke="#1B263F" stroke-width=".586" stroke-miterlimit="10" d="M197.7 175.1c-.8-19.1-6.3-46.4-8.1-58.9-.4-2.5-2-4.5-4.2-5.2-10.5-3.5-46.2-13.8-46.2-13.8l-29.4 22.3-29.3-22.3S44.9 107.5 34.3 111c-2.2.7-3.8 2.8-4.2 5.2-1.9 12.4-7.3 39.8-8.1 58.9-1 23.1-1 43.7-1 43.7l28.2.2 5.6-52.1s2.6 36.2-.1 52.1l55.2 1 55.2-1c-2.7-15.9-.1-52.1-.1-52.1l5.6 52.1h28.2c-.1 0-.1-20.8-1.1-43.9z"/><path fill="#F2F2F2" d="M109.7 118.9l-20.4 7s10.7 43.6 20.4 43.6 20.4-43.6 20.4-43.6l-20.4-7z"/><g><path fill="#1B263F" d="M33.5 110.9c4 3.5 7.1 7.9 9.8 12.4 3 4.8 5.2 10.1 7.1 15.4 1.6 4.4 2.7 9.1 3.4 13.7.5 3.1.8 6.1 1 9.2.2 2.6-.1 5.2-.1 7.8v.5c-.5-5.1-1.4-10.2-2.6-15.2-.7-3-1.3-6-2.2-9-.5-1.9-1.3-3.7-1.7-5.6-.5-2.4-1.5-4.7-2.5-7-1.2-2.8-2.3-5.5-3.7-8.1-1.3-2.6-2.7-5.2-4.2-7.7-.7-1.2-1.4-2.3-2.2-3.5-.6-.9-1.5-1.9-2.1-2.9z"/></g><path fill="#1B263F" d="M109.7 169.9s-3 2.6-21.7-27c-6.9-11.4-17.6-36-17.6-36s4.9-3.9 7.9-10.5c0 0 10.5 27 12.8 36.5 4.1 18.9 15.7 32.2 18.6 37z"/><g><path fill="#1B263F" d="M186 110.8c-1.2 2.2-2.9 4.1-4.2 6.2-1.6 2.6-3 5.3-4.4 8-2.5 4.8-4.5 9.9-6.3 15-1.7 4.6-2.7 9.5-3.9 14.2-.7 2.8-1.2 5.7-1.7 8.6-.4 2.3-.6 4.7-1 7v.1c-.9-10.3 1-20.7 4-30.5.6-2 1.4-4 2.3-6 1.2-2.7 2.4-5.6 4-8.2 2.9-4.9 6-9.8 10.2-13.6.4-.3.7-.5 1-.8z"/></g><path fill="#FFF" d="M78 96.5c2.9 14.3 7.8 34.9 7.8 34.9l24.1-12.5c-.2 0-16.9-12-28.6-24.3 0 0-1.3 0-3.3 1.9z"/><path fill="#1B263F" d="M109.7 169.9s3 2.6 21.7-27c6.9-11.4 17.6-36 17.6-36s-5-3.9-8-10.5c0 0-10.5 27-12.8 36.5-4 18.9-15.6 32.2-18.5 37z"/><path fill="#FFF" d="M141.6 96.5c-2.9 14.3-7.8 34.9-7.8 34.9l-24.1-12.5c.2 0 16.9-12 28.6-24.3 0 0 1.3 0 3.3 1.9z"/><path fill="#E5E5E5" d="M147.2 21.6c.3-3.6-1.4-7.6-3.7-11C139.8 5 133 .9 129.4 3.4c-4.1-2-9.6-3.4-18.9-3.4-9.9 0-18.3 1.6-22.2 3.8-14.8 4.8-18.5 20.9-16.4 31.3 2.2 11.1 7.2 23.2 7.2 23.2s-.4-15.1 2.2-21.5 11.5-17.4 29.1-14.4c4.9 3.3 18.4 12 29 15 2.2 7 2.5 20.8 2.5 20.8s3.7-12.1 5.9-23.2c.7-3.8.4-8.8-.6-13.4z"/><g opacity=".3" fill="#B3B3B3"><path d="M129.4 3.4c-.3 10.8-10.2 16-19 19 8.9-2.1 19.8-7.8 19-19zm-16.6 15.7c-15.5 1.5-44 3.6-36.8 26.3-5.9-22.5 21.3-24.1 36.8-26.3z"/><path d="M120.8 14.2c-11.9-2.3-34.6-8.4-43.9 1.7 9.7-9.1 32.2-3.3 43.9-1.7zm6.3-5.2c-7.6-4-17-6.1-25.5-4.5 8.6-.7 17.6 1.3 25.5 4.5zm-.6 10c9.3 2.4 16.6 6.9 17 17.9.5-11.3-7.3-16.3-17-17.9zm16.4-5.1c-2.3-4.3-3.7-5.9-8.6-4.9 4.6-.3 5.9 1.4 8.6 4.9z"/></g><circle fill="#1B263F" cx="109.9" cy="132.1" r="3.7"/><circle fill="#1B263F" cx="109.9" cy="150.4" r="3.7"/></svg>