<svg xmlns="http://www.w3.org/2000/svg" width="220" height="220" viewBox="0 0 220 220"><path fill="#fc9" stroke="#D09D6A" stroke-width=".5" stroke-miterlimit="10" d="M138.934 108.384c-1.033-1.722-11.761-5.026-11.703-17.864.056-12.833 2.445-21.93 2.445-21.93s-10.482-2.979-19.447-4.424v-.056l-.167.027-.167-.027v.056c-8.965 1.445-19.447 4.424-19.447 4.424s2.39 9.097 2.446 21.93c.056 12.838-10.671 16.142-11.704 17.864-1.034 1.725 1.433 6.632 3.529 9.601 2.097 2.971 18.858 12.328 24.982 12.035l.36-.037.36.037c6.125.291 22.886-9.064 24.981-12.035 2.098-2.969 4.565-7.876 3.532-9.601z"/><path opacity=".5" fill="#F6A76A" d="M129.671 68.588s-2.05 7.838-2.392 19.226c-3.489 2.934-6.696 5.422-7.662 6.613-2.395 2.947-9.561 2.275-9.561 2.275s-7.156.672-9.548-2.275c-.967-1.191-4.162-3.679-7.662-6.613-.342-11.388-2.394-19.226-2.394-19.226s10.479-2.971 19.439-4.421v-.06l.165.036.178-.036v.06c8.957 1.45 19.437 4.421 19.437 4.421z"/><path fill="#fc9" stroke="#D09D6A" stroke-width=".5" stroke-miterlimit="10" d="M143.699 49.349c.018-4.455-.299-5.698-1.162-7.105-1.688-2.747-2.979-2.279-3.95-.388-.702-15.568-5.091-32.002-5.091-32.002H86.613s-4.368 16.025-5.065 31.418c-.927-1.367-2.109-1.462-3.604.972-.863 1.407-1.179 2.65-1.16 7.105.022 4.015 1.561 9.449 3.993 10.751-.14 4.202-.205 7.319-.146 8.533.291 6.011 17.029 16.966 19.508 19.905 2.48 2.939 9.916 2.271 9.916 2.271s7.438.669 9.917-2.271c2.479-2.939 19.217-13.894 19.508-19.905.06-1.196-.004-4.248-.142-8.362 2.644-.923 4.337-6.708 4.361-10.922z"/><path opacity=".5" d="M91.076 49.936s-1.022 4.361 5.317 3.468c5.247-1.267 3.874-1.176 5.665-1.022-.359-.434-1.088-.651-1.088-.651s-2.719.317-4.934.182c-2.218-.134-4.96-1.977-4.96-1.977zm.096-1.716s2.827-4.89 8.039-4.22c4.213.341 5.485 1.61 5.485 1.61s-3.538-.511-4.212-.268c1.655.757 3.04 3.579 2.794 4.329-.25.75-3.854-2.528-3.854-2.528l-8.252 1.077zm15.71-.657c1.721.354 1.669 3.155-.097 3.402.487-1.226.504-2.167.097-3.402zM130.874 49.936s1.022 4.361-5.317 3.468c-5.246-1.267-3.873-1.176-5.664-1.022.358-.434 1.088-.651 1.088-.651s2.719.317 4.934.182c2.218-.134 4.959-1.977 4.959-1.977zm-.097-1.716s-2.826-4.89-8.039-4.22c-4.213.341-5.484 1.61-5.484 1.61s3.538-.511 4.213-.268c-1.656.757-3.042 3.579-2.795 4.329.249.75 3.854-2.528 3.854-2.528l8.251 1.077zm-15.709-.657c-1.721.354-1.67 3.155.097 3.402-.487-1.226-.503-2.167-.097-3.402zM98.006 69.583c-2.376-.661-3.953 3.275-5.25 4.648-.055-1.507.602-3.114 1.64-4.204.848-.896 2.723-1.827 3.61-.444zm24.111-.552c2.382-.66 3.958 3.275 5.25 4.65.058-1.509-.604-3.114-1.633-4.203-.853-.899-2.731-1.829-3.617-.447z" fill="#F6A76A"/><path fill="#FFB679" d="M82.112 46.736c-1.66-.009-1.249 4.969-1.028 6.723.22 1.754 1.749 2.802 2.703 2.461.952-.338 1.38-2.931.394-3.078-.988-.147-1.539-.852-1.035-1.506.507-.651 1.028-4.592-1.034-4.6zm56.257 0c1.66-.009 1.249 4.969 1.027 6.723-.219 1.754-1.748 2.802-2.703 2.461-.951-.338-1.379-2.931-.394-3.078.988-.147 1.539-.852 1.035-1.506-.506-.651-1.025-4.592 1.035-4.6z"/><path fill="#1A1A1A" d="M83.791 55.784s3.174-11.47 2.958-16.52c-.218-5.05 2.308-9.595 3.029-11.399.722-1.803 8.729-3.32 12.769-4.618 4.042-1.297 13.493.001 15.656.073 2.165.071 16.979 2.163 17.747 7.863.767 5.701-.75 18.688.155 24.226 0 0 2.193-9.659 4.213-14.059 2.021-4.401 5.318-8.232 1.765-19.69 0 0 2.896-12.238-12.326-17.145C117.061-.03 110.423 0 110.423 0S91.872.244 83.936 10.417s-5.606 13.866-5.391 19.206c.216 5.337 5.459 16.929 5.246 26.161z"/><path opacity=".1" fill="#fff" d="M93.333 10.331c.348 1.211.699 2.42 1.4 3.405 3.66-4.068 9.521-7.349 15.376-7.758-2.647 1.604-4.478 3.638-5.444 6.455 3.679-1.02 6.472-3.001 10.405-3.518 2.81-.369 4.755-.083 7.684.43-3.07-.136-7.334.782-9.117 3.169 4.004.014 7.896-2.292 12.322-1.975 2.879.16 6.275 1.33 8.779 2.977-7.545.629-14.783 2.116-21.885 4.663-.746-1.338 1.363-2.69 2.396-3.544-6.091.082-12.958 2.955-18.418 4.926.331-1.836 1.035-3.724 2.374-5.155-2.836 1.628-4.996 4.063-7.41 5.996-.303-.857.038-8.44 1.538-10.071z"/><path opacity=".5" fill="#F6A76A" d="M110.591 70.124s-.038 3.595-1.901 3.516c-1.858-.078.509.615 1.635.304 1.126-.307 1.195-.86.266-3.82z"/><path opacity=".32" fill="#F5B1A2" d="M110.195 66.847c2.342.242 5.161 1.052 5.229 1.375-3.097 1.515-9.578.647-9.38-.15.155-.617 2.661-1.38 4.151-1.225z"/><path fill="#AE8879" d="M114.421 67.416c.628-.03 1.286.283 1.246.403-.038.12-.679.024-1.231.053-.338.019-1.395.276-1.447.163-.053-.114 1.049-.599 1.432-.619zm-7.143-.214c.667.129 1.461.626 1.406.739-.056.113-.972-.184-1.432-.283-.396-.083-1.329.03-1.381-.083-.056-.116.962-.461 1.407-.373z"/><path opacity=".2" fill="#F5B1A2" d="M107.538 68.49c-.669-.708-1.661-1.405-2.688-1.166.96-1.692 3.732 1.161 4.731 1.452 1.231.358 2.39-.192 3.467-.729 1.239-.616 2.437-.816 3.744-.265-.78.246-1.481.165-2.254.541-.827.403-1.563.949-2.372 1.379-1.795.96-3.336.158-4.628-1.212z"/><path opacity=".5" fill="#F6A76A" d="M116.459 67.448s1.287-.484 1.036-1.745c-.252-1.262-.952-1.888-.952-1.888s1.042.87 1.157 2.145c.116 1.275-1.241 1.488-1.241 1.488zm-11.404 0s-1.287-.484-1.036-1.745c.252-1.262.952-1.888.952-1.888s-1.044.87-1.157 2.145c-.117 1.275 1.241 1.488 1.241 1.488z"/><path opacity=".3" fill="#FDE9D7" d="M114.598 60.357s-.896-.383-1.197-1.943c-.295-1.558-1.491-4.345-2.092-.716-.598 3.633-.442 5.45.864 4.983 1.925-.678 3.177-.183 3.249-1.026.046-.533-.274-1.022-.824-1.298z"/><path fill="#FFAC81" d="M102.815 76.495c0-.42 2.71-1.344 2.979-1.449 1.612-.622 3.431-.866 5.011-.366 1.512-.479 3.385-.253 4.992.359.271.104 2.997 1.024 2.997 1.456-.001.736-15.979.722-15.979 0zm.004.004c1.168.053 2.349.339 3.509.502 1.491.212 2.977.242 4.477.341 1.469-.099 2.938-.11 4.399-.341 1.18-.187 2.392-.433 3.583-.502-3.626 5.793-12.311 5.637-15.968 0z"/><path fill="#B54A37" d="M110.668 77.528c-1.544-.033-2.968-.117-4.124-.249l-.815-.083c-1.874-.193-2.73-.281-3.356-1.339-.491-.825-.896-.339-1.163-.37l-.205-.048c-.281-.191-.331-.32-.317-.368.013-.039.089-.067.197-.067.146 0 .343.046.555.132.553.222 1.217.559 1.223.566 1.122 1.27 4.248 1.458 6.009 1.458h.011c.543 0 1.052.022 1.626.046l.355.014.357-.014c.58-.024 1.092-.046 1.502-.046l.684.002c2.07 0 4.581-.146 5.636-1.292.011-.014.675-.35 1.229-.57.211-.086.41-.133.557-.133.104 0 .182.028.193.068.015.047-.036.175-.315.367l-.187.071c-.223.058-.557-.38-1.174.338-.961 1.122-1.558 1.138-2.744 1.17-.441.011-.965.027-1.615.097-1.153.133-2.579.217-4.119.25z"/><path fill="#fff" d="M103.584 48.851c.046.772.268 1.542-.146 2.218-.802 1.307-1.919 1.916-3.441 1.81-1.625-.113-3.233-.532-4.806-.935-1.035-.265-2.45-.366-3.244-1.142-.442-.43-1.994-2.021-1.616-2.945.426-1.047 2.435-1.376 3.43-1.523 2.126-.312 4.411-.005 6.504.425 1.263.26 2.879.709 3.319 2.092z"/><radialGradient id="a" cx="641.97" cy="-75.345" r="2.733" gradientTransform="scale(-1) rotate(9.73 115.669 -4402.634)" gradientUnits="userSpaceOnUse"><stop offset="0" stop-color="#28353D"/><stop offset=".508" stop-color="#27323B"/><stop offset=".809" stop-color="#222A33"/><stop offset="1" stop-color="#1D2029"/></radialGradient><path fill="url(#a)" d="M95.352 46.371a2.932 2.932 0 0 0 1.377 5.147 2.93 2.93 0 0 0 3.008-4.386c-.647-.395-3.676-.876-4.385-.761z"/><path fill="#212121" d="M95.499 48.581a1.79 1.79 0 1 0 3.531.604 1.79 1.79 0 1 0-3.531-.604z"/><path fill="#1A1A1A" d="M103.584 48.851s-.382-1.268-3.173-1.744c-2.794-.479-6.087-.375-6.935-.517-.846-.145-3.224 1.251-3.224 1.251s1.31-1.896 3.313-2.173c1.819-.251 6.921.38 8.2.732 1.277.352 1.819 2.451 1.819 2.451z"/><path fill="#B76B2C" d="M101.794 52.659s-5.923.577-9.525-2.013c-1.834-1.317-1.939-2.789-1.939-2.789s-.573 2.039 2.266 3.524c4.416 2.313 9.198 1.278 9.198 1.278z"/><path fill="#fff" d="M94.621 48.658a.52.52 0 0 0 .734-.071.519.519 0 0 0-.069-.732.524.524 0 0 0-.737.071.52.52 0 0 0 .072.732zm1.355-.361a.42.42 0 0 0 .595-.058.425.425 0 0 0-.653-.542.421.421 0 0 0 .058.6z"/><path fill="#1A1A1A" d="M89.367 43.936a6.294 6.294 0 0 1 .869-1.748c.475-.686.998-.898 1.771-1.191 1.7-.645 3.229-.621 4.977-.203 1.845.441 3.689.893 5.563 1.201.675.111 1.53.046 2.1.426.598.399 1.215.77 1.809 1.174-1.014.669-2.013 1.2-3.225 1.032-1.85-.256-3.674-.649-5.489-1.081-1.627-.387-3.033-.868-4.675-.276-.693.25-1.115.544-1.854.564-.616.03-1.232.056-1.846.102z"/><path fill="#fff" d="M117.907 48.851c-.046.772-.269 1.542.146 2.218.803 1.307 1.92 1.916 3.441 1.81 1.625-.113 3.232-.532 4.806-.935 1.035-.265 2.45-.366 3.244-1.142.442-.43 1.994-2.021 1.616-2.945-.426-1.047-2.436-1.376-3.43-1.523-2.125-.312-4.412-.005-6.504.425-1.263.26-2.878.709-3.319 2.092z"/><radialGradient id="b" cx="-2749.981" cy="504.493" r="2.731" gradientTransform="scale(1 -1) rotate(9.73 1946.296 17114.043)" gradientUnits="userSpaceOnUse"><stop offset="0" stop-color="#28353D"/><stop offset=".508" stop-color="#27323B"/><stop offset=".809" stop-color="#222A33"/><stop offset="1" stop-color="#1D2029"/></radialGradient><path fill="url(#b)" d="M126.139 46.371a2.93 2.93 0 0 1-1.376 5.147 2.93 2.93 0 0 1-3.007-4.386c.644-.395 3.674-.876 4.383-.761z"/><path fill="#212121" d="M125.992 48.581a1.79 1.79 0 1 1-3.532.604 1.791 1.791 0 1 1 3.532-.604z"/><path fill="#1A1A1A" d="M117.907 48.851s.382-1.268 3.173-1.744c2.794-.479 6.087-.375 6.936-.517.846-.145 3.223 1.251 3.223 1.251s-1.309-1.896-3.313-2.173c-1.818-.251-6.921.38-8.199.732-1.278.352-1.82 2.451-1.82 2.451z"/><path fill="#B76B2C" d="M119.697 52.659s5.923.577 9.525-2.013c1.832-1.317 1.938-2.789 1.938-2.789s.572 2.039-2.266 3.524c-4.415 2.313-9.197 1.278-9.197 1.278z"/><path fill="#fff" d="M121.744 48.658a.52.52 0 0 0 .734-.071.519.519 0 0 0-.068-.732.524.524 0 0 0-.737.071.52.52 0 0 0 .071.732zm1.354-.361a.425.425 0 1 0-.058-.6.423.423 0 0 0 .058.6z"/><path fill="#1A1A1A" d="M132.124 43.936a53.054 53.054 0 0 0-1.492-.087c-.816-.039-1.188-.186-1.931-.477-1.647-.648-2.937-.312-4.592.084-1.834.444-3.68.852-5.548 1.125-.85.124-1.273.148-2.074-.195a9.448 9.448 0 0 1-1.451-.793c.516-.351 1.046-.681 1.571-1.016.652-.437 1.225-.409 1.999-.53 1.879-.294 3.729-.736 5.578-1.178 1.743-.417 3.275-.593 5.003.017.663.234 1.475.455 1.89 1.042.437.618.822 1.282 1.047 2.008z"/><path fill="#32724C" d="M90.255 97.807l1.087 94.332h36.9V97.807l-16.001 9.525h-5.533z"/><path fill="#5C402E" d="M197.33 189.389c-.848-18.548-6.518-55.072-8.454-67.16a6.338 6.338 0 0 0-4.39-5.063c-10.947-3.396-44.728-13.2-48.879-15.928-4.803-3.154-8.092-8.236-8.092-8.236s.601 28.216-1.896 45.916c-2.498 17.701-15.557 47.143-15.557 47.143S97 156.62 94.502 138.918c-2.496-17.7-1.893-45.916-1.893-45.916s-3.292 5.082-8.095 8.236c-4.151 2.728-37.932 12.532-48.879 15.928a6.34 6.34 0 0 0-4.388 5.063c-1.937 12.088-7.607 48.612-8.455 67.16C21.769 211.82 21 219.064 21 219.064h27.61l3.33-46.371s5.171 30.949 2.353 46.371l55.77.936 55.768-.936c-2.817-15.422 2.353-46.371 2.353-46.371l3.33 46.371h27.609s-.769-7.244-1.793-29.675z"/><path fill="#533522" d="M110.063 186.061s-8.593-8.031-23.385-44.756c-7.863-18.39-8.102-34.287-8.102-34.287s8.171-4.688 14.035-14.016c0 0-.555 19.296.863 34.043 2.019 28.969 13.391 50.752 16.589 59.016zm0 0s8.589-8.031 23.382-44.756c7.863-18.39 8.103-34.287 8.103-34.287s-8.171-4.688-14.032-14.016c0 0 .553 19.296-.867 34.043-2.019 28.969-13.387 50.752-16.586 59.016z"/><path opacity=".2" d="M109.706 107.332s-4.769 1.742-8.892 6.971c0 0-3.46 4.242-4.639 6.694 0 0 4.462-11.162 13.531-13.665z"/><path fill="#398156" d="M91.342 93.074c.732 8.705 4.727 27.767 4.727 27.767l.016-.03a74.335 74.335 0 0 1 2.144-3.326l.009-.017c3.555-5.172 6.465-7.708 8.498-8.952 1.476-.9 2.496-1.117 2.975-1.165h.032l.007-.007h.048l.104-.009h.12l-.431-.126c-4.911-.424-10.612-4.512-16.718-15.672 0-.001-.126.563-1.531 1.537z"/><path opacity=".2" d="M109.878 107.332s4.771 1.742 8.894 6.971c0 0 3.459 4.242 4.641 6.694-.001 0-4.463-11.162-13.535-13.665z"/><path fill="#398156" d="M128.242 93.074c-.732 8.705-4.727 27.767-4.727 27.767l-.017-.03a72.597 72.597 0 0 0-2.144-3.326l-.01-.017c-3.555-5.172-6.465-7.708-8.498-8.952-1.476-.9-2.496-1.117-2.972-1.165h-.032l-.009-.007h-.046l-.105-.009h-.118l.428-.126c4.91-.424 10.613-4.512 16.72-15.672.001-.001.128.563 1.53 1.537z"/><path fill="#462612" d="M35.636 117.166s.601.695 1.546 2c.45.667 1.025 1.459 1.615 2.414.62.938 1.257 2.029 1.937 3.234.655 1.215 1.372 2.531 2.055 3.959.685 1.429 1.412 2.936 2.033 4.55.686 1.588 1.265 3.278 1.88 4.987.622 1.705 1.103 3.487 1.666 5.244.464 1.785.886 3.58 1.314 5.344l1.005 5.231c.256 1.708.454 3.367.655 4.937.214 1.568.255 3.068.378 4.442.099 1.376.216 2.636.194 3.759l.024 2.902.001 2.525-.195-2.52-.201-2.887c-.049-1.116-.245-2.364-.383-3.73-.174-1.361-.269-2.849-.541-4.398l-.787-4.881-1.062-5.176-1.366-5.279c-.537-1.745-.991-3.518-1.586-5.215-.589-1.699-1.142-3.383-1.801-4.963a107.259 107.259 0 0 0-1.888-4.564c-.625-1.441-1.287-2.773-1.892-4.004-.641-1.213-1.204-2.339-1.76-3.307-.528-.984-1.051-1.806-1.458-2.498-.851-1.356-1.383-2.106-1.383-2.106zm148.904 0s-.532.75-1.386 2.107c-.407.691-.93 1.513-1.457 2.498-.557.967-1.119 2.094-1.76 3.307-.605 1.23-1.268 2.563-1.893 4.004a108.908 108.908 0 0 0-1.888 4.564c-.66 1.582-1.212 3.264-1.802 4.963-.594 1.697-1.049 3.47-1.586 5.215l-1.365 5.279c-.361 1.763-.717 3.498-1.063 5.176-.271 1.691-.535 3.328-.787 4.881-.271 1.55-.365 3.037-.541 4.398-.138 1.366-.332 2.615-.383 3.73l-.201 2.887-.195 2.52.002-2.525.023-2.902c-.021-1.123.096-2.383.194-3.759.123-1.374.164-2.874.378-4.442.201-1.568.398-3.228.654-4.937l1.006-5.231c.429-1.764.852-3.56 1.314-5.344.563-1.757 1.043-3.539 1.666-5.244.614-1.709 1.193-3.398 1.879-4.987.623-1.614 1.35-3.121 2.033-4.55.684-1.428 1.4-2.744 2.055-3.959.681-1.205 1.317-2.297 1.938-3.234.59-.954 1.165-1.747 1.615-2.414.949-1.306 1.55-2.001 1.55-2.001z"/><circle fill="#462612" cx="110.062" cy="201.568" r="3.614"/><circle fill="#255438" cx="110.062" cy="117.728" r="1.433"/><circle fill="#255438" cx="110.062" cy="132.43" r="1.433"/><circle fill="#255438" cx="110.062" cy="149.492" r="1.433"/><circle fill="#255438" cx="110.062" cy="164.196" r="1.433"/><path fill="#462612" d="M62.865 147.745s.304-.044.836-.097c.532-.043 1.292-.133 2.204-.189 1.824-.127 4.256-.21 6.688-.214 2.432.003 4.864.085 6.688.212.912.057 1.672.146 2.204.189.532.054.836.098.836.098s-.304.044-.836.097c-.532.043-1.292.134-2.204.19-1.824.127-4.256.209-6.688.212a103.644 103.644 0 0 1-6.688-.214c-.912-.057-1.672-.146-2.204-.189-.532-.051-.836-.095-.836-.095z"/><path fill="#32724C" d="M66.374 147.745l-1.205-2.729c-.31-1 .439-2.017 1.487-2.017h11.29a1.557 1.557 0 0 1 1.483 2.028l-1.234 2.718H66.374z"/></svg>