<svg xmlns="http://www.w3.org/2000/svg" width="220" height="220" viewBox="0 0 220 220"><path fill="#1A1A1A" d="M57.897 136.366h105.496c-16.513-17.15-4.522-49.768-4.274-70.52.328-27.47-17.889-63.542-48.251-65.846-29.122.338-44.56 25.267-47.849 52.528-2.055 17.022 5.511 33.535 4.899 50.525-.412 11.424-4.585 23.317-10.021 33.313zm82.025-77.199c0 16.682-9.708 39.123-29.277 39.123-20.612 0-30.046-24.394-29.208-41.688 5.835-18.121 42.022-32.516 42.117-32.554 9.694 6.376 16.368 19.704 16.368 35.119z"/><path fill="#fc9" stroke="#D09D6A" stroke-width=".5" stroke-miterlimit="10" d="M175.887 153.157c-.193-17.075-5.145-20.671-10.646-24.938-5.613-4.353-13.577-4.938-26.122-6.324-7.211-.246-11.868-4.518-14.686-8.261-1.908-2.536-2.844-7.486-2.844-10.659V90.158H99.758v12.817c0 3.172-1.066 8.123-2.974 10.659-2.817 3.744-7.745 7.435-14.808 8.261-12.587 1.474-20.512 1.974-26.126 6.325-5.204 4.035-9.914 7.47-10.575 22.274h-.001l-.002.074a78.474 78.474 0 0 0-.068 2.414c-.334 10.733-2.027 53.162-8.203 65.674l15.983.792 3.746.184s1.528-27.782 8.618-40.998a149.195 149.195 0 0 0 2.321-4.538c2.952-6.049 5.675-12.595 7.706-17.757l33.638 2.379 36.662-2.475c2.035 5.178 4.772 11.767 7.743 17.853.771 1.563 1.54 3.079 2.32 4.538 7.091 13.214 8.619 40.998 8.619 40.998l3.744-.184 15.983-.792c-6.143-12.446-7.852-54.491-8.197-65.499z"/><path opacity=".1" fill="#fff" d="M126.396 22.033c7.422-2.365 6.203-5.815 10.611-9.982-1.127-.572-1.833-1.644-2.984-2.347-3.608 3.905-2.697 9.39-10.598 8.497-8.144-.921-13.668-3.732-20.324 2.636-7.588 7.261-10.292 3.255-19.167 1.816-8.422-1.369-10.423 7.022-16.473 10.696.006.985-.787 2.141-.838 3.044 12.154-5.216 11.983-10.434 25.736-6.312 5.726 1.718 9.648-1.443 13.538-5.226 7.523-7.327 12.033-.075 20.499-2.822.377-.119-2.074.673 0 0z"/><path opacity=".5" fill="#F6A76A" d="M110.661 105.885c3.792 0 7.514-.991 10.827-2.773l.102-.137V90.158H99.758v12.849c3.447 1.851 7.036 2.878 10.903 2.878z"/><path fill="#fc9" stroke="#D09D6A" stroke-width=".5" stroke-miterlimit="10" d="M139.918 59.197c0 9.638-3.244 21.209-9.768 29.266l-.318.377c-3.869 4.459-8.609 7.597-13.824 8.883l-.166.047a22.509 22.509 0 0 1-5.201.614c-1.7 0-3.375-.189-4.991-.566l-.212-.047c-5.957-1.427-11.289-5.249-15.417-10.687l-.012-.011c-6.252-8.625-9.06-20.667-8.588-30.434 5.839-18.13 42.029-32.52 42.124-32.556 9.696 6.38 16.373 19.697 16.373 35.114z"/><radialGradient id="a" cx="138.478" cy="-21.304" r="15.64" gradientTransform="matrix(1 0 0 -1 -47.6 50.01)" gradientUnits="userSpaceOnUse"><stop offset="0" stop-color="#ED1C24"/><stop offset="1" stop-color="#ED1C24" stop-opacity="0"/></radialGradient><circle opacity=".15" fill="url(#a)" cx="90.879" cy="71.314" r="15.64"/><radialGradient id="b" cx="177.29" cy="-21.304" r="15.64" gradientTransform="matrix(1 0 0 -1 -47.6 50.01)" gradientUnits="userSpaceOnUse"><stop offset="0" stop-color="#ED1C24"/><stop offset="1" stop-color="#ED1C24" stop-opacity="0"/></radialGradient><circle opacity=".15" fill="url(#b)" cx="129.689" cy="71.314" r="15.64"/><path opacity=".1" fill="#fff" d="M129.755 23.047c5.56 3.128 10.608 6.846 14.54 11.933 4.496 5.815 6.503 13.255 6.221 20.549-.293 7.563-2.627 14.915-4.464 22.207-1.788 7.095-3.427 14.222-3.467 21.578-.03 5.519 1.11 10.826 2.465 16.143-2.931-5.525-4.889-11.272-5.428-17.534-.63-7.301.542-14.637 2.142-21.747 1.623-7.219 4.004-14.451 4.287-21.889.279-7.311-1.671-14.33-6.006-20.274-2.988-4.094-6.598-7.523-10.29-10.966zm-39.08 88.43c-.412.537-7.351-12.134-7.776-13.283-2.321-6.263-3.65-12.799-5.156-19.288-1.242-5.344-2.334-10.688-2.307-16.205.006-1.22 2.644-15.679 3.5-15.11-1.35-1.031-4.603 13.901-4.646 15.083-.207 5.646.827 11.131 2.051 16.612 1.465 6.555 2.891 13.149 5.415 19.399.413 1.022 7.736 14.279 8.919 12.792"/><path opacity=".5" fill="#F6A76A" d="M89.701 129.23c4.611-.92 9.215-1.515 13.898-1.894.583-.048 1.709-.399 2.153.021.17.18.269.551.374.771.719 1.514 2.016 2.792 3.795 2.68 1.646-.104 2.938-1.365 3.808-2.668.119-.176.215-.424.357-.58.313-.634 1.327-.259 1.835-.215 4.577.393 9.08.98 13.584 1.887a168.386 168.386 0 0 1-7.063-.568c-2.609-.264-5.268-.219-7.887-.375.172-.036.371-.047.463-.238-.928 1.809-2.672 3.723-4.83 3.887-2.572.193-4.502-1.64-5.304-3.977.045.175.354.283.507.311-2.609.144-5.221.234-7.833.322-2.613.258-5.234.492-7.857.636 1.291-.255 1.314-.07 0 0zm22.433 31.754c-1.028-2.858-1.255-5.928-2.22-8.801l-.038-.219-.016.049-.02-.063-.053.282c-1 2.847-1.278 5.897-2.348 8.728 1.229-.868 1.992-2.36 2.38-3.985.366 1.625 1.104 3.123 2.315 4.009z"/><path fill="#FFB679" d="M67.668 174.096c-.77 1.563-1.54 3.264-2.321 4.723-7.089 13.215-8.863 40.488-8.863 40.488l-3.535-.14s5.894-27.34 5.894-40.876c0-14.214 3.011-18.281 6.607-20.005 1.23-.587 1.884 6.353 2.218 15.81zm85.749 0c.771 1.563 1.54 3.264 2.321 4.723 7.09 13.215 8.576 40.509 8.576 40.509l3.644-.194c-5.465-26.107-5.716-26.105-5.716-40.843 0-14.214-5.18-17.914-8.775-19.638-1.231-.587.284 5.986-.05 15.443z"/><path fill="#FB6860" stroke="#DE5C55" stroke-width=".5" stroke-miterlimit="10" d="M153.271 174.326a46.19 46.19 0 0 1-2.45 5.652 56.694 56.694 0 0 1-1.93 3.447l-.035.059c-1.851 3.068-3.976 5.953-6.205 8.732-5.825 7.25-3.17 19.292-.918 27.439l.045.345H75.206c.057 0 2.034-9.849 2.149-10.881.482-4.138.598-8.515-.701-12.513-1.321-4.09-5.792-10.823-8.089-14.362a44.927 44.927 0 0 0-2.287-3.196c-.919-1.183-1.677-2.188-2.344-3.705a18.91 18.91 0 0 1-.644-1.656l-.241-.795c-2.068-7.041-1.034-12.524 2.7-18.649 1.988-3.251 4.01-6.47 6.021-9.709 2.046-3.274.977-9.021.977-12.744-.011-2.849 0-5.698 0-8.548l6.25-.942c-.644 4.505 1.023 19.144 1.448 21.281.437 2.138 7.503 12.846 15.42 13.915 5.056.689 20.199.689 25.244 0 7.929-1.069 14.996-11.777 15.42-13.915.426-2.138 2.138-17.248 1.494-21.752l6.217.633c.781.115-.461 18.558 0 20.694l.011.08c.701 2.379 3.321 4.85 4.642 6.975 1.678 2.734 3.252 5.525 4.573 8.446 2.402 5.27 1.714 10.383-.195 15.669z"/><path fill="#F55351" d="M63.29 173.684c2.918 1.93 13.317 6.778 44.112 6.789 27.37-.068 41.825-3.976 45.87-6.146l-2.469 5.652a65.373 65.373 0 0 0-1.943 3.447l-.034.059c-1.873 3.068-4.011 6.216-6.263 8.996-5.871 7.25-3.285 17.959-1.01 27.151h-4.711l-.771-12.696-.287-5.486c-2.413-7.699-51.523-7.695-53.936-.066l-.264 5.585-.799 12.763-5.284-.099c.747-2.298 1.739-9.307 1.854-10.341.482-4.137.598-8.6-.701-12.6-1.321-4.09-5.792-10.865-8.089-14.405a45.914 45.914 0 0 0-2.287-3.216 94.729 94.729 0 0 0-2.344-3.717l-.644-1.67z"/><path fill="#1A1A1A" d="M118.182 48.988c1.754-2.511 5.033-3.721 7.973-3.947 1.61-.24 3.242-.077 4.839.158.394.053 4.031 1.004 3.914 1.316-.032.086-3.27-.574-3.658-.601-1.858-.127-3.721-.016-5.527.455-1.563.407-3.105 1.037-4.612 1.611-.428.164-2.606 1.33-2.929 1.008zm-15.17.116c-2.496-1.039-5.118-2.201-7.756-2.81-1.718-.396-3.46-.5-5.217-.379-.791.055-1.599.183-2.368.369-.234.057-1.267.476-1.317.161-.049-.314 3.604-1.201 3.941-1.246 1.745-.253 3.424-.322 5.182-.126 1.653.185 3.234.599 4.689 1.417.429.241 3.258 2.04 2.846 2.614z"/><path fill="#D9AA8E" d="M103.412 57.396s-2.067-6.995-7.887-7.725c-7.077-.884-8.157 5.326-7.501 4.107 0 0 3.535-2.8 9.331-.651 4.668 1.731 6.057 4.269 6.057 4.269z"/><path fill="#EACBBA" d="M94.813 50.043s-2.623-.141-3.925.58c-1.302.715-1.966 2.152-1.966 2.152s2.71-.505 3.128-1.335c.386-.769 2.763-1.397 2.763-1.397z"/><path fill="#C78A66" d="M102.278 56.079c-1.124-2.482-2.283-4.028-4.214-5.27-1.085-.696-1.676-.83-1.676-.83s1.588.764 1.708 1.461c.091.544-1.222.979-1.222.979 1.576.931 1.951 1.037 2.942 1.592.674.379 2.462 2.068 2.462 2.068z"/><path fill="#fff" d="M88.007 54.057s-.023 3.38 5.313 4.255c5.323.873 10.083-1.187 10.083-1.187s-2.592-3.621-7.904-4.542c-5.314-.923-7.492 1.474-7.492 1.474z"/><radialGradient id="c" cx="134.658" cy="38.032" r="2.824" gradientTransform="scale(1 -1) rotate(-4.88 -979.916 458.745)" gradientUnits="userSpaceOnUse"><stop offset="0" stop-color="#28353D"/><stop offset=".508" stop-color="#27323B"/><stop offset=".809" stop-color="#222A33"/><stop offset="1" stop-color="#1D2029"/></radialGradient><path fill="url(#c)" d="M94.939 52.645c-1.321-.312-2.041-.316-2.388.102a3.022 3.022 0 0 0-.691 1.684 3.031 3.031 0 0 0 2.767 3.281 3.034 3.034 0 0 0 3.166-3.903c-.152-.497-1.85-.926-2.854-1.164z"/><circle fill="#212121" cx="94.879" cy="54.551" r="1.638"/><path d="M92.204 54.768a.603.603 0 1 0-.177-.835.604.604 0 0 0 .177.835zm1.509-.594a.491.491 0 1 0 .537-.822.491.491 0 0 0-.537.822z" fill="#fff"/><path fill="#1A1A1A" d="M103.402 57.125s-2.94-4.994-9.735-5.943c-5.397-.758-7.639 2.159-7.639 2.159l1.979.83s2.458-2.026 6.313-1.546c5.072.624 8.431 3.75 9.082 4.5z"/><path fill="#B76B2C" d="M102.151 57.614s-6.595 1.986-11.264-.148c-2.38-1.085-2.83-2.731-2.83-2.731s.062 2.655 3.364 3.494c5.591 1.418 10.73-.615 10.73-.615z"/><path fill="#D9AA8E" d="M117.877 57.396s2.066-6.995 7.887-7.725c7.077-.884 8.157 5.326 7.502 4.107 0 0-3.535-2.8-9.332-.651-4.668 1.731-6.057 4.269-6.057 4.269z"/><path fill="#EACBBA" d="M126.477 50.043s2.623-.141 3.924.58c1.302.715 1.967 2.152 1.967 2.152s-2.711-.505-3.129-1.335c-.385-.769-2.762-1.397-2.762-1.397z"/><path fill="#C78A66" d="M119.01 56.079c1.124-2.482 2.283-4.028 4.215-5.27 1.084-.696 1.676-.83 1.676-.83s-1.588.764-1.709 1.461c-.092.544 1.222.979 1.222.979-1.575.931-1.951 1.037-2.942 1.592-.674.379-2.462 2.068-2.462 2.068z"/><path fill="#fff" d="M133.281 54.057s.023 3.38-5.313 4.255c-5.323.873-10.083-1.187-10.083-1.187s2.592-3.621 7.905-4.542c5.314-.923 7.491 1.474 7.491 1.474z"/><radialGradient id="d" cx="-304.612" cy=".734" r="2.823" gradientTransform="scale(-1) rotate(-4.88 -870.097 -2119.566)" gradientUnits="userSpaceOnUse"><stop offset="0" stop-color="#28353D"/><stop offset=".508" stop-color="#27323B"/><stop offset=".809" stop-color="#222A33"/><stop offset="1" stop-color="#1D2029"/></radialGradient><path fill="url(#d)" d="M126.35 52.645c1.32-.312 2.041-.316 2.389.102.383.459.636 1.039.689 1.684a3.03 3.03 0 0 1-2.767 3.281 3.032 3.032 0 0 1-3.165-3.903c.152-.497 1.85-.926 2.854-1.164z"/><path fill="#212121" d="M128.042 54.412a1.64 1.64 0 1 1-1.773-1.496 1.644 1.644 0 0 1 1.773 1.496z"/><path d="M123.645 54.768a.606.606 0 0 0 .836-.177.602.602 0 0 0-.176-.834.604.604 0 1 0-.66 1.011zm1.507-.594a.492.492 0 1 0 .538-.824.492.492 0 0 0-.538.824z" fill="#fff"/><path fill="#1A1A1A" d="M117.887 57.125s2.939-4.994 9.734-5.943c5.396-.758 7.641 2.159 7.641 2.159l-1.979.83s-2.458-2.026-6.313-1.546c-5.074.624-8.433 3.75-9.083 4.5z"/><path fill="#B76B2C" d="M119.137 57.614s6.596 1.986 11.266-.148c2.38-1.085 2.83-2.731 2.83-2.731s-.063 2.655-3.364 3.494c-5.594 1.418-10.732-.615-10.732-.615z"/><path opacity=".32" fill="#F5B1A2" d="M115.48 73.498c-.752-1.997-2.535-1.546-4.207-1.268-.956.158-1.745.038-2.672-.21-.958-.256-1.963-.342-2.676.475-.53.608.593.719.981.844.927.296 1.585.993 2.419 1.47 2.245 1.285 3.866-1.507 6.155-1.311-.041-.107-.876-.075 0 0z"/><path fill="#AE8879" d="M108.626 73.297l.312.255c-.309-.326-.606-.638-.955-.92-.183-.148-1.456-1.012-1.683-.644-.033.051 1.101.474 1.185.512.397.154.831.504 1.141.797zm3.325.142l-.333.223c.337-.296.659-.588 1.03-.84.174-.12 1.58-.881 1.73-.497.023.042-1.135.377-1.22.406-.411.141-.871.431-1.207.708z"/><path opacity=".2" fill="#F5B1A2" d="M107.932 74.012c-.552-.583-1.372-1.16-2.22-.963.792-1.397 3.084.959 3.909 1.199 1.018.296 1.973-.157 2.865-.602 1.022-.509 2.013-.676 3.092-.218-.643.202-1.225.135-1.863.447-.682.332-1.291.781-1.958 1.14-1.484.793-2.757.131-3.825-1.003zm5.806-1.267c.848.921-1.877 2.177-2.539 2.073.096-.788 1.591-3.11 2.539-2.073zm-6.828-.178c-.848.921 1.877 2.177 2.539 2.071-.096-.787-1.591-3.11-2.539-2.071z"/><path fill="#B54A37" d="M107.492 79.847c4.254.442 10.398.287 12.313-.931 0 0-.709 2.045-1.742 3.591-1.426 2.128-3.686 2.745-7.469 2.659-5.827-.131-6.039.289-7.819-3.414-.215-.45-1.381-2.957-1.983-3.728 0 .001 2.511 1.388 6.7 1.823z"/><path fill="#fff" d="M117.652 81.082c-2.908 2.268-9.869 2.836-13.712.359-.286-.184-.525-1.028-1.545-1.865l16.444-.696-1.187 2.202z"/><path fill="#FF5D47" d="M118.798 80.57c-.825 1.277-3.563 3.754-8.269 3.715-4.705.039-7.533-2.874-8.359-4.149a69.3 69.3 0 0 0-1.066-1.543c.449 1.246 1.13 3.108 1.844 4.412 1.16 2.105 2.244 2.924 3.151 3.528a8.098 8.098 0 0 0 4.387 1.328h.086a8.102 8.102 0 0 0 4.388-1.328c.907-.604 1.991-1.418 3.151-3.523.713-1.304 1.395-3.169 1.844-4.415 0 0-.809 1.443-1.157 1.975z"/><path opacity=".58" fill="#fff" d="M113.488 86.141s-.303-1.114-.026-1.585c.22-.372 1.487-.597 1.529-.326.108.745.7 1.5.065 1.856-.631.353-1.361.514-1.568.055z"/><path opacity=".43" fill="#fff" d="M111.736 86.513s-.313-1.293.229-1.378c.542-.088 1.016-.099 1.023.173.011.275.39 1.564-.084 1.647-.72.127-1.017.031-1.168-.442z"/><path fill="#FF5D47" d="M120.514 78.007c-.373.304-1.119.593-2.658.385-2.945-.4-5.291-.297-7.299-.102-2.052-.288-4.459-.333-7.316.024-1.541.192-2.284-.105-2.655-.412 1.997 2.65 6.114 3.127 9.905 3.101v-.036h.088v.036c3.79.066 7.911-.366 9.935-2.996z"/><path fill="#B54A37" d="M120.793 77.704c-.479.189-1.036.92-1.036.92-1.364 1.75-6.212 2.179-7.552 2.172-.41-.001-.949.025-1.561.049-.612-.024-1.151-.05-1.562-.049-1.339.007-6.188-.422-7.552-2.172 0 0-.559-.73-1.036-.92-.661-.265-.969-.029-.414.35.194.132.546-.112 1.113.762.857 1.329 4.031 1.972 6.038 2.195 1.01.112 2.208.179 3.413.204a39.569 39.569 0 0 0 3.412-.204c2.008-.223 5.182-.866 6.039-2.195.565-.874.918-.629 1.111-.762.558-.379.249-.615-.413-.35z"/><path fill="#fc9" d="M83.798 61.925c-.118 1.25-.15 3.104-2.097 2.725-1.238-.247-2.104-2.04-2.517-4.069.932-7.633 3.771-7.502 3.771-7.502v-.025c1.179 2.819.914 8.104.843 8.871z"/><path fill="#FFB679" d="M81.631 55.217c-1.336-.102-1.26 3.705-1.173 5.051.087 1.345 1.264 2.229 2.05 2.025.784-.202 1.261-2.148.475-2.317-.787-.168-1.196-.736-.755-1.202.441-.467 1.062-3.434-.597-3.557z"/><path fill="#fc9" d="M141.902 52.438c.645.887.914 1.694 1.1 4.639.182 2.946-.813 7.148-2.759 7.527-1.95.381-1.984-1.469-2.101-2.715-.115-1.249.021-14.593 3.76-9.451z"/><path fill="#FFB679" d="M140.311 55.176c1.336-.102 1.26 3.706 1.174 5.052-.088 1.344-1.264 2.229-2.051 2.024-.783-.202-1.262-2.147-.474-2.317.786-.168 1.196-.736.755-1.202-.444-.466-1.063-3.433.596-3.557z"/><path opacity=".5" fill="#F6A76A" d="M110.73 75.362s-.027 2.625-1.386 2.566c-1.356-.058.372.448 1.192.222.821-.223.872-.627.194-2.788zM114.986 72.304s1.207-.453.972-1.636c-.235-1.185-.892-1.771-.892-1.771s.977.815 1.084 2.011c.11 1.195-1.164 1.396-1.164 1.396zm-9.27-.087s-1.206-.453-.971-1.636c.236-1.183.892-1.771.892-1.771s-.977.817-1.085 2.011c-.109 1.196 1.164 1.396 1.164 1.396z"/><path opacity=".3" fill="#FDE9D7" d="M114.25 66.837s-.702-.3-.934-1.517c-.23-1.217-1.168-3.393-1.635-.559-.466 2.834-.346 4.252.676 3.89 1.502-.53 2.479-.143 2.537-.801.034-.415-.212-.797-.644-1.013z"/></svg>