<svg xmlns="http://www.w3.org/2000/svg" width="2048" height="1536" viewBox="0 0 2048 1536"><radialGradient id="a" cx="1071.6" cy="638.336" r="715.711" gradientTransform="matrix(1 0 0 -1 -47.6 1366.01)" gradientUnits="userSpaceOnUse"><stop offset="0" stop-color="#fff"/><stop offset="1" stop-color="#fff" stop-opacity="0"/></radialGradient><circle opacity=".8" fill="url(#a)" cx="1024" cy="727.674" r="715.711"/><ellipse opacity=".1" cx="1866.746" cy="1252.025" rx="116.042" ry="23.717"/><path fill="#A67C52" d="M1935.463 1156.383h23.03v85.045h-23.03z"/><linearGradient id="b" gradientUnits="userSpaceOnUse" x1="1994.578" y1="199.587" x2="1994.578" y2="459.639" gradientTransform="matrix(1 0 0 -1 -47.6 1366.01)"><stop offset="0" stop-color="#567700"/><stop offset="1" stop-color="#91ac00"/></linearGradient><path fill="url(#b)" d="M2024.995 1088.404c0 43.088-34.929 78.019-78.02 78.019-43.088 0-78.017-34.931-78.017-78.019 0-43.09 34.929-182.033 78.017-182.033 43.092 0 78.02 138.943 78.02 182.033z"/><path opacity=".05" d="M1946.977 906.371v335.057h11.518v-75.854c37.627-5.566 66.502-37.995 66.502-77.17-.002-43.09-34.93-182.033-78.02-182.033z"/><path fill="#A67C52" d="M1797.559 1147.252h26.342v97.271h-26.342z"/><linearGradient id="c" gradientUnits="userSpaceOnUse" x1="1858.33" y1="207.276" x2="1858.33" y2="504.704" gradientTransform="matrix(1 0 0 -1 -47.6 1366.01)"><stop offset=".006" stop-color="#305d00"/><stop offset="1" stop-color="#6f9b00"/></linearGradient><path fill="url(#c)" d="M1899.962 1069.503c0 49.282-39.951 89.231-89.233 89.231-49.281 0-89.232-39.949-89.232-89.231s39.951-208.196 89.232-208.196c49.282 0 89.233 158.914 89.233 208.196z"/><path opacity=".05" d="M1810.729 861.307v383.217h13.172v-86.76c43.035-6.365 76.063-43.455 76.063-88.261-.002-49.282-39.953-208.196-89.235-208.196z"/><path fill="#A67C52" d="M1867.115 1196.26h19.756v72.951h-19.756z"/><linearGradient id="d" gradientUnits="userSpaceOnUse" x1="1924.594" y1="161.137" x2="1924.594" y2="384.203" gradientTransform="matrix(1 0 0 -1 -47.6 1366.01)"><stop offset="0" stop-color="#567700"/><stop offset="1" stop-color="#91ac03"/></linearGradient><path fill="url(#d)" d="M1943.916 1137.949c0 36.961-29.963 66.924-66.925 66.924-36.96 0-66.921-29.963-66.921-66.924 0-36.959 29.961-156.142 66.921-156.142 36.962.002 66.925 119.183 66.925 156.142z"/><path opacity=".05" d="M1876.991 981.809v287.402h9.879v-65.066c32.275-4.772 57.046-32.591 57.046-66.194 0-36.961-29.963-156.142-66.925-156.142z"/><path opacity=".1" d="M1712.765 1283.77c0 19.68-333.722 35.631-745.38 35.631-411.67 0-745.385-15.951-745.385-35.631 0-19.679 333.715-35.63 745.385-35.63 411.658 0 745.38 15.951 745.38 35.63z"/><path d="M494.5 987h1053.301v17.771H494.5z" opacity=".15"/><path fill="#F2F2F2" d="M494.5 985h1053.301v17.771H494.5z"/><path d="M1020.502 1230.492h765.86v49.277h-765.86z" opacity=".05"/><linearGradient id="e" gradientUnits="userSpaceOnUse" x1="424.19" y1="86.241" x2="424.19" y2="374.68" gradientTransform="matrix(1 0 0 -1 -47.6 1366.01)"><stop offset="0" stop-color="#246aa3"/><stop offset="0" stop-color="#246aa3"/><stop offset=".429" stop-color="#256ca4"/><stop offset=".583" stop-color="#2973a9"/><stop offset=".693" stop-color="#2f7eb2"/><stop offset=".782" stop-color="#388fbe"/><stop offset=".858" stop-color="#44a5ce"/><stop offset=".926" stop-color="#53c1e2"/><stop offset=".985" stop-color="#64e0f8"/><stop offset="1" stop-color="#69e9ff"/></linearGradient><path fill="url(#e)" d="M257 991.33h239.18v288.439H257z"/><path d="M257 991.33h239.181v239.181H257zm239.181 119.59H257m119.59-119.59v239.181" fill="none" stroke="#F2F2F2" stroke-width="3" stroke-miterlimit="10"/><path fill="#F2F2F2" d="M257 1230.492h239.181v49.277H257z"/><path d="M241.535 987H494.5v17.771H241.535z" opacity=".15"/><path fill="#F2F2F2" d="M241.535 985H494.5v17.771H241.535z"/><path fill="#3090BB" d="M241.782 985l12.603-5.604H494.5V985z"/><g><linearGradient id="f" gradientUnits="userSpaceOnUse" x1="1715.638" y1="86.241" x2="1715.638" y2="374.68" gradientTransform="matrix(1 0 0 -1 -47.6 1366.01)"><stop offset="0" stop-color="#246aa3"/><stop offset="0" stop-color="#246aa3"/><stop offset=".429" stop-color="#256ca4"/><stop offset=".583" stop-color="#2973a9"/><stop offset=".693" stop-color="#2f7eb2"/><stop offset=".782" stop-color="#388fbe"/><stop offset=".858" stop-color="#44a5ce"/><stop offset=".926" stop-color="#53c1e2"/><stop offset=".985" stop-color="#64e0f8"/><stop offset="1" stop-color="#69e9ff"/></linearGradient><path fill="url(#f)" d="M1548.448 991.33h239.18v288.439h-239.18z"/><path d="M1548.448 991.33h239.182v239.181h-239.182zm239.181 119.59h-239.181m119.589-119.59v239.181" fill="none" stroke="#F2F2F2" stroke-width="3" stroke-miterlimit="10"/><path fill="#F2F2F2" d="M1548.448 1230.492h239.182v49.277h-239.182z"/><path d="M1548.448 987h255.387v17.771h-255.387z" opacity=".15"/><path fill="#F2F2F2" d="M1548.448 985h255.387v17.771h-255.387z"/><path fill="#3090BB" d="M1804.85 985l-12.604-5.604h-242.953V985z"/></g><g><ellipse opacity=".1" cx="201.502" cy="1301.166" rx="149.571" ry="30.569"/><path fill="#A67C52" d="M276.304 1205.51h25.903v95.656h-25.903z"/><linearGradient id="g" gradientUnits="userSpaceOnUse" x1="336.854" y1="149.208" x2="336.854" y2="441.704" gradientTransform="matrix(1 0 0 -1 -47.6 1366.01)"><stop offset="0" stop-color="#567700"/><stop offset="1" stop-color="#91ac00"/></linearGradient><path fill="url(#g)" d="M377.007 1129.05c0 48.468-39.287 87.753-87.753 87.753-48.464 0-87.752-39.285-87.752-87.753 0-48.463 39.288-204.743 87.752-204.743 48.466 0 87.753 156.28 87.753 204.743z"/><path opacity=".05" d="M289.254 924.307v376.859h12.953v-85.316c42.32-6.26 74.8-42.736 74.8-86.8 0-48.463-39.287-204.743-87.753-204.743z"/><path fill="#A67C52" d="M99.476 1237.117h18.225v67.292H99.476z"/><linearGradient id="h" gradientUnits="userSpaceOnUse" x1="156.187" y1="120.95" x2="156.187" y2="326.716" gradientTransform="matrix(1 0 0 -1 -47.6 1366.01)"><stop offset=".006" stop-color="#305d00"/><stop offset="1" stop-color="#6f9b00"/></linearGradient><path fill="url(#h)" d="M170.321 1183.328c0 34.094-27.639 61.732-61.734 61.732-34.093 0-61.731-27.64-61.731-61.732s27.64-144.034 61.731-144.034c34.096 0 61.734 109.94 61.734 144.034z"/><path opacity=".05" d="M108.586 1039.294v265.115h9.113v-60.021c29.772-4.404 52.621-30.062 52.621-61.062.001-34.092-27.637-144.032-61.734-144.032z"/><g><path fill="#A67C52" d="M190.077 1245.936h22.85v84.367h-22.85z"/><linearGradient id="i" gradientUnits="userSpaceOnUse" x1="249.101" y1="110.115" x2="249.101" y2="368.088" gradientTransform="matrix(1 0 0 -1 -47.6 1366.01)"><stop offset="0" stop-color="#567700"/><stop offset="1" stop-color="#91ac03"/></linearGradient><path fill="url(#i)" d="M278.897 1178.5c0 42.746-34.65 77.395-77.396 77.395s-77.396-34.647-77.396-77.395c0-42.744 34.65-180.578 77.396-180.578 42.745 0 77.396 137.834 77.396 180.578z"/><path opacity=".05" d="M201.502 997.922v332.381h11.425v-75.246c37.327-5.522 65.971-37.693 65.971-76.557-.001-42.744-34.652-180.578-77.396-180.578z"/></g></g><g><path fill="#F2F2F2" d="M496.178 504.914h1051.623v774.855H496.178z"/><path fill="#1C6693" d="M496.181 511.91h1051.62v767.859H496.181z"/><path opacity=".3" d="M498.147 513.322h122.486v715.703H498.147z"/><path fill="#4985A9" d="M497.518 513.322h1048.9v100h-1048.9z"/><path d="M481.407 499.914h1080.902v14H481.407z" opacity=".15"/><path fill="#F2F2F2" d="M481.407 497.914h1080.902v14H481.407z"/><path d="M495.926 512.214h1051.623v719.038H495.926zm0 479.416h1051.623M495.926 800.3h1051.623M496.007 893.309H1547.63M495.926 707.3h1051.623M495.926 613.622h1051.623M495.926 1154.43h1051.623m-1051.623-77h1051.623M495.926 993.752h1051.623" opacity=".15" fill="none" stroke="#000" stroke-width="3" stroke-miterlimit="10"/><path d="M495.926 511.214h1051.623v719.038H495.926zm0 479.416h1051.623M495.926 799.3h1051.623M496.007 892.309H1547.63M495.926 706.3h1051.623M495.926 612.622h1051.623M495.926 1153.43h1051.623m-1051.623-77h1051.623M495.926 992.752h1051.623" fill="none" stroke="#F2F2F2" stroke-width="3" stroke-miterlimit="10"/><path fill="#3090BB" d="M1549.709 492.313H494.011l-12.604 5.601h1080.904z"/><path fill="#F2F2F2" d="M481.407 1230.492h1081.164v49.277H481.407z"/><linearGradient id="j" gradientUnits="userSpaceOnUse" x1="1276.433" y1="631.799" x2="1276.433" y2="616.696" gradientTransform="translate(-365.59 559.857) scale(1.087)"><stop offset="0" stop-color="#c6c5c4"/><stop offset=".996" stop-color="#ebebeb"/></linearGradient><path fill="url(#j)" d="M756.902 1230.083h529.98v16.563h-529.98z"/><linearGradient id="k" gradientUnits="userSpaceOnUse" x1="1276.428" y1="649.418" x2="1276.428" y2="631.799" gradientTransform="translate(-365.59 559.857) scale(1.087)"><stop offset="0" stop-color="#c6c5c4"/><stop offset=".996" stop-color="#ebebeb"/></linearGradient><path fill="url(#k)" d="M729.814 1246.646h584.147v19.026H729.814z"/><linearGradient id="l" gradientUnits="userSpaceOnUse" x1="1276.436" y1="662.002" x2="1276.436" y2="646.898" gradientTransform="translate(-365.59 559.857) scale(1.087)"><stop offset="0" stop-color="#c6c5c4"/><stop offset=".996" stop-color="#ebebeb"/></linearGradient><path fill="url(#l)" d="M704.572 1263.204h634.646v16.564H704.572z"/><linearGradient id="m" gradientUnits="userSpaceOnUse" x1="1276.429" y1="648.964" x2="1276.429" y2="645.894" gradientTransform="translate(-365.59 559.857) scale(1.087)"><stop offset="0" stop-opacity=".05"/><stop offset="1" stop-opacity=".3"/></linearGradient><path fill="url(#m)" d="M1021.887 1261.799c175.248 0 317.316.785 317.316 1.761s-142.068 1.761-317.316 1.761c-175.244 0-317.314-.785-317.314-1.761-.001-.976 142.07-1.761 317.314-1.761z"/><linearGradient id="n" gradientUnits="userSpaceOnUse" x1="1276.43" y1="634.055" x2="1276.43" y2="631.101" gradientTransform="translate(-365.59 559.857) scale(1.087)"><stop offset="0" stop-opacity=".05"/><stop offset="1" stop-opacity=".3"/></linearGradient><path fill="url(#n)" d="M1021.887 1245.589c161.308 0 292.075.786 292.075 1.761 0 .976-130.769 1.761-292.075 1.761-161.303 0-292.072-.785-292.072-1.761 0-.975 130.769-1.761 292.072-1.761z"/><linearGradient id="o" gradientUnits="userSpaceOnUse" x1="1276.442" y1="618.803" x2="1276.442" y2="615.848" gradientTransform="translate(-365.59 559.857) scale(1.087)"><stop offset="0" stop-opacity=".05"/><stop offset="1" stop-opacity=".3"/></linearGradient><path fill="url(#o)" d="M1021.883 1229.025c146.355 0 265.019.791 265.019 1.76 0 .975-118.662 1.764-265.019 1.764-146.359 0-264.98-.789-264.98-1.764-.001-.969 118.62-1.76 264.98-1.76z"/><path d="M496.006 885.424H1547.63v17.771H496.006z" opacity=".15"/><path fill="#F2F2F2" d="M496.006 883.424H1547.63v17.771H496.006z"/><path opacity=".1" fill="#F2F2F2" d="M496.006 901.194h1051.543V985H496.006z"/><text transform="translate(549.383 1204.938)" font-family="'TeXGyreHeros-Bold'" font-size="36" opacity=".15">1</text><text transform="translate(549.383 1202.938)" fill="#FBF317" font-family="'TeXGyreHeros-Bold'" font-size="36">1</text><text transform="translate(549.383 1131.982)" font-family="'TeXGyreHeros-Bold'" font-size="36" opacity=".15">2</text><text transform="translate(549.383 1129.982)" fill="#FBF317" font-family="'TeXGyreHeros-Bold'" font-size="36">2</text><text transform="translate(549.383 1054.873)" font-family="'TeXGyreHeros-Bold'" font-size="36" opacity=".15">3</text><text transform="translate(549.383 1052.873)" fill="#FBF317" font-family="'TeXGyreHeros-Bold'" font-size="36">3</text><text transform="translate(529.366 858.514)" font-family="'TeXGyreHeros-Bold'" font-size="36" opacity=".15">358</text><text transform="translate(529.366 856.514)" fill="#FBF317" font-family="'TeXGyreHeros-Bold'" font-size="36">358</text><text transform="translate(529.366 770)" font-family="'TeXGyreHeros-Bold'" font-size="36" opacity=".15">359</text><text transform="translate(529.366 768)" fill="#FBF317" font-family="'TeXGyreHeros-Bold'" font-size="36">359</text><text transform="translate(529.366 676.153)" font-family="'TeXGyreHeros-Bold'" font-size="36" opacity=".15">360</text><text transform="translate(529.366 674.153)" fill="#FBF317" font-family="'TeXGyreHeros-Bold'" font-size="36">360</text><text transform="translate(544.378 948.595)" font-family="'TeXGyreHeros-Bold'" font-size="36" opacity=".15">...</text><text transform="translate(544.378 946.595)" fill="#FBF317" font-family="'TeXGyreHeros-Bold'" font-size="36">...</text><g font-family="'TeXGyreHeros-Bold'"><g opacity=".15"><text transform="translate(650.634 1204.938)" font-size="42">100</text><text transform="translate(732.365 1190.953)" font-size="24.486">UAH</text></g><g fill="#FFF"><text transform="translate(650.634 1202.938)" font-size="42">100</text><text transform="translate(732.365 1188.953)" font-size="24.486">UAH</text></g></g><g font-family="'TeXGyreHeros-Bold'"><g opacity=".15"><text transform="translate(944.225 1204.938)" font-size="42">101</text><text transform="translate(1025.957 1190.953)" font-size="24.486">UAH</text></g><g fill="#FFF"><text transform="translate(944.225 1202.938)" font-size="42">101</text><text transform="translate(1025.957 1188.953)" font-size="24.486">UAH</text></g></g><g font-family="'TeXGyreHeros-Bold'"><g opacity=".15"><text transform="translate(1254.897 1204.938)" font-size="42">1</text><text transform="translate(1289.926 1190.953)" font-size="24.486">UAH</text></g><g fill="#FFF"><text transform="translate(1254.897 1202.938)" font-size="42">1</text><text transform="translate(1289.926 1188.953)" font-size="24.486">UAH</text></g></g><g font-family="'TeXGyreHeros-Bold'"><g opacity=".15"><text transform="translate(650.634 1131.982)" font-size="42">201</text><text transform="translate(732.365 1117.996)" font-size="24.486">UAH</text></g><g fill="#FFF"><text transform="translate(650.634 1129.982)" font-size="42">201</text><text transform="translate(732.365 1115.996)" font-size="24.486">UAH</text></g></g><g font-family="'TeXGyreHeros-Bold'"><g opacity=".15"><text transform="translate(944.225 1131.982)" font-size="42">205</text><text transform="translate(1025.957 1117.996)" font-size="24.486">UAH</text></g><g fill="#FFF"><text transform="translate(944.225 1129.982)" font-size="42">205</text><text transform="translate(1025.957 1115.996)" font-size="24.486">UAH</text></g></g><g font-family="'TeXGyreHeros-Bold'"><g opacity=".15"><text transform="translate(1254.897 1131.982)" font-size="42">4</text><text transform="translate(1289.926 1117.996)" font-size="24.486">UAH</text></g><g fill="#FFF"><text transform="translate(1254.897 1129.982)" font-size="42">4</text><text transform="translate(1289.926 1115.996)" font-size="24.486">UAH</text></g></g><g font-family="'TeXGyreHeros-Bold'"><g opacity=".15"><text transform="translate(650.634 1054.873)" font-size="42">305</text><text transform="translate(732.365 1040.887)" font-size="24.486">UAH</text></g><g fill="#FFF"><text transform="translate(650.634 1052.873)" font-size="42">305</text><text transform="translate(732.365 1038.887)" font-size="24.486">UAH</text></g></g><g font-family="'TeXGyreHeros-Bold'"><g opacity=".15"><text transform="translate(944.225 1054.873)" font-size="42">310</text><text transform="translate(1025.957 1040.887)" font-size="24.486">UAH</text></g><g fill="#FFF"><text transform="translate(944.225 1052.873)" font-size="42">310</text><text transform="translate(1025.957 1038.887)" font-size="24.486">UAH</text></g></g><g font-family="'TeXGyreHeros-Bold'"><g opacity=".15"><text transform="translate(1254.897 1054.873)" font-size="42">5</text><text transform="translate(1289.926 1040.887)" font-size="24.486">UAH</text></g><g fill="#FFF"><text transform="translate(1254.897 1052.873)" font-size="42">5</text><text transform="translate(1289.926 1038.887)" font-size="24.486">UAH</text></g></g><g font-family="'TeXGyreHeros-Bold'"><g opacity=".15"><text transform="translate(650.634 858.514)" font-size="42">2 222 769</text><text transform="translate(849.125 844.527)" font-size="24.486">UAH</text></g><g fill="#FFF"><text transform="translate(650.634 856.514)" font-size="42">2 222 769</text><text transform="translate(849.125 842.527)" font-size="24.486">UAH</text></g></g><g font-family="'TeXGyreHeros-Bold'"><g opacity=".15"><text transform="translate(944.225 858.514)" font-size="42">2 259 917</text><text transform="translate(1142.717 844.527)" font-size="24.486">UAH</text></g><g fill="#FFF"><text transform="translate(944.225 856.514)" font-size="42">2 259 917</text><text transform="translate(1142.717 842.527)" font-size="24.486">UAH</text></g></g><g font-family="'TeXGyreHeros-Bold'"><g opacity=".15"><text transform="translate(1254.897 858.514)" font-size="42">37 148</text><text transform="translate(1395.01 844.527)" font-size="24.486">UAH</text></g><g fill="#FFF"><text transform="translate(1254.897 856.514)" font-size="42">37 148</text><text transform="translate(1395.01 842.527)" font-size="24.486">UAH</text></g></g><g font-family="'TeXGyreHeros-Bold'"><g opacity=".15"><text transform="translate(650.634 770)" font-size="42">2 260 017</text><text transform="translate(849.125 756.014)" font-size="24.486">UAH</text></g><g fill="#FFF"><text transform="translate(650.634 768)" font-size="42">2 260 017</text><text transform="translate(849.125 754.014)" font-size="24.486">UAH</text></g></g><g font-family="'TeXGyreHeros-Bold'"><g opacity=".15"><text transform="translate(944.225 770)" font-size="42">2 297 684</text><text transform="translate(1142.717 756.014)" font-size="24.486">UAH</text></g><g fill="#FFF"><text transform="translate(944.225 768)" font-size="42">2 297 684</text><text transform="translate(1142.717 754.014)" font-size="24.486">UAH</text></g></g><g font-family="'TeXGyreHeros-Bold'"><g opacity=".15"><text transform="translate(1254.897 770)" font-size="42">37 667</text><text transform="translate(1395.01 756.014)" font-size="24.486">UAH</text></g><g fill="#FFF"><text transform="translate(1254.897 768)" font-size="42">37 667</text><text transform="translate(1395.01 754.014)" font-size="24.486">UAH</text></g></g><g font-family="'TeXGyreHeros-Bold'"><g opacity=".15"><text transform="translate(650.634 676.153)" font-size="42">2 297 784</text><text transform="translate(849.125 662.167)" font-size="24.486">UAH</text></g><g fill="#FFF"><text transform="translate(650.634 674.153)" font-size="42">2 297 784</text><text transform="translate(849.125 660.168)" font-size="24.486">UAH</text></g></g><g font-family="'TeXGyreHeros-Bold'"><g opacity=".15"><text transform="translate(944.225 676.153)" font-size="42">2 336 080</text><text transform="translate(1142.717 662.167)" font-size="24.486">UAH</text></g><g fill="#FFF"><text transform="translate(944.225 674.153)" font-size="42">2 336 080</text><text transform="translate(1142.717 660.168)" font-size="24.486">UAH</text></g></g><g font-family="'TeXGyreHeros-Bold'"><g opacity=".15"><text transform="translate(1254.897 676.153)" font-size="42">38 296</text><text transform="translate(1395.01 662.167)" font-size="24.486">UAH</text></g><g fill="#FFF"><text transform="translate(1254.897 674.153)" font-size="42">38 296</text><text transform="translate(1395.01 660.168)" font-size="24.486">UAH</text></g></g><g font-family="'TeXGyreHeros-Bold'" font-size="36"><g opacity=".15"><text transform="translate(650.634 564.932)">НА ПОЧАТОК</text><text transform="translate(650.634 600.932)">МІСЯЦЯ</text></g><g fill="#FBF317"><text transform="translate(650.634 562.932)">НА ПОЧАТОК</text><text transform="translate(650.634 598.932)">МІСЯЦЯ</text></g></g><g font-family="'TeXGyreHeros-Bold'" font-size="36"><g opacity=".15"><text transform="translate(952.765 564.932)">НА КІНЕЦЬ</text><text transform="translate(952.765 600.932)">МІСЯЦЯ</text></g><g fill="#FBF317"><text transform="translate(952.765 562.932)">НА КІНЕЦЬ</text><text transform="translate(952.765 598.932)">МІСЯЦЯ</text></g></g><g font-family="'TeXGyreHeros-Bold'" font-size="36"><g opacity=".15"><text transform="translate(1254.897 564.932)">ЗАРОБИВ ЗА</text><text transform="translate(1254.897 600.932)">ПЕРІОД</text></g><g fill="#FBF317"><text transform="translate(1254.897 562.932)">ЗАРОБИВ ЗА</text><text transform="translate(1254.897 598.932)">ПЕРІОД</text></g></g></g><g><path fill="#F2F2F2" d="M496.178 504.914h1051.623v774.855H496.178z"/><linearGradient id="p" gradientUnits="userSpaceOnUse" x1="1069.591" y1="86.241" x2="1069.591" y2="854.1" gradientTransform="matrix(1 0 0 -1 -47.6 1366.01)"><stop offset="0" stop-color="#246aa3"/><stop offset="0" stop-color="#246aa3"/><stop offset=".335" stop-color="#41a0ca"/><stop offset=".627" stop-color="#57c8e7"/><stop offset=".858" stop-color="#64e0f9"/><stop offset="1" stop-color="#69e9ff"/></linearGradient><path fill="url(#p)" d="M496.181 511.91h1051.62v767.859H496.181z"/><linearGradient id="q" gradientUnits="userSpaceOnUse" x1="1069.59" y1="86.239" x2="1069.59" y2="854.094" gradientTransform="matrix(1 0 0 -1 -47.6 1366.01)"><stop offset="0" stop-color="#2882e2"/><stop offset="1" stop-color="#b3f4ff"/></linearGradient><path opacity=".7" fill="url(#q)" d="M1547.801 1279.771s-335.541-375.707-475.643-476.368c-128.099-92.038-575.98-291.488-575.98-291.488h1051.623v767.856z"/><path d="M481.407 499.914h1080.902v14H481.407z" opacity=".15"/><path fill="#F2F2F2" d="M481.407 497.914h1080.902v14H481.407z"/><path d="M496.178 512.914h1051.623v719.037H496.178zm0 599.139h1051.623M496.178 992.33h1051.623M496.178 872.433h1051.623M496.178 752.535h1051.623M496.178 632.813h1051.623m-116.819-119.899v719.037m-116.819-719.037v719.037m-116.817-719.037v719.037m-116.819-719.037v719.037M963.45 512.914v719.037M846.633 512.914v719.037M729.814 512.914v719.037M612.995 512.914v719.037" opacity=".15" fill="none" stroke="#000" stroke-width="3" stroke-miterlimit="10"/><path d="M496.178 511.914h1051.623v719.037H496.178zm0 599.139h1051.623M496.178 991.33h1051.623M496.178 871.433h1051.623M496.178 751.535h1051.623M496.178 631.813h1051.623m-116.819-119.899v719.037m-116.819-719.037v719.037m-116.817-719.037v719.037m-116.819-719.037v719.037M963.45 511.914v719.037M846.633 511.914v719.037M729.814 511.914v719.037M612.995 511.914v719.037" fill="none" stroke="#F2F2F2" stroke-width="3" stroke-miterlimit="10"/><path fill="#F2F2F2" d="M962.039 506.914h119.64v728.037h-119.64z"/><path fill="#195B83" d="M967.039 511.914h109.64v718.037h-109.64z"/><linearGradient id="r" gradientUnits="userSpaceOnUse" x1="1069.459" y1="141.059" x2="1069.459" y2="849.095" gradientTransform="matrix(1 0 0 -1 -47.6 1366.01)"><stop offset="0" stop-color="#247bc9"/><stop offset="0" stop-color="#247bc9"/><stop offset="1" stop-color="#82e0fd"/></linearGradient><path fill="url(#r)" d="M972.039 516.914h99.64v708.037h-99.64z"/><path opacity=".1" d="M982.254 1116.02h79.474v108.933h-79.474zm0-119.823h79.474v108.933h-79.474zm0-119.82h79.474V985.31h-79.474zm0-119.821h79.474V865.49h-79.474zm0-119.821h79.474v108.933h-79.474zm0-119.821h79.474v108.933h-79.474z"/><linearGradient id="s" gradientUnits="userSpaceOnUse" x1="1068.93" y1="141.085" x2="1068.93" y2="849.095" gradientTransform="matrix(1 0 0 -1 -47.6 1366.01)"><stop offset="0" stop-color="#2882e2"/><stop offset="1" stop-color="#b3f4ff"/></linearGradient><path opacity=".5" fill="url(#s)" d="M1071.679 1224.925s-24.893-348.468-43.638-440.759c-17.138-84.386-57.061-267.252-57.061-267.252h100.697l.002 708.011z"/><path fill="#1C6693" d="M1020.502 516.914h2.716v707.789h-2.716z"/><linearGradient id="t" gradientUnits="userSpaceOnUse" x1="1276.404" y1="305.875" x2="1276.404" y2="261.164" gradientTransform="translate(-365.59 559.857) scale(1.087)"><stop offset="0" stop-opacity=".05"/><stop offset="1" stop-opacity=".3"/></linearGradient><path opacity=".52" fill="url(#t)" d="M1060.263 877.556a68.978 68.978 0 0 1-3.747 3.168c-9.728 7.093-18.055 11.619-34.738 11.619-16.595 0-24.851-4.526-34.574-11.619-1.34-.903-2.587-2.112-3.746-3.168l4.017-33.876h67.998l4.79 33.876z"/><path fill="#999" d="M1038.998 859.681v8.66a109.574 109.574 0 0 1-34.285 0v-8.66h34.285z"/><path fill="#B3B3B3" d="M1048.351 851.026v8.653a169.34 169.34 0 0 1-52.983 0v-8.653h52.983z"/><path fill="#CCC" d="M1058.389 842.373v8.653a233.547 233.547 0 0 1-73.062 0v-8.653h73.062z"/><path d="M1023.969 666.688a3.033 3.033 0 0 0-4.293 0l-18.672 18.674c-1.187 1.186-.787 2.146.891 2.146l9.951-1.584c1.117 0 2.022.906 2.022 2.023v16.733a3.032 3.032 0 0 0 3.035 3.035h9.836a3.033 3.033 0 0 0 3.035-3.035v-16.733c0-1.117.906-2.025 2.025-2.025l9.951 1.584c1.676 0 2.073-.961.889-2.146l-18.67-18.672z" opacity=".15"/><path fill="#FBF317" d="M1023.969 664.688a3.033 3.033 0 0 0-4.293 0l-18.672 18.674c-1.187 1.186-.787 2.146.891 2.146l9.951-1.584c1.117 0 2.022.906 2.022 2.023v16.733a3.032 3.032 0 0 0 3.035 3.035h9.836a3.033 3.033 0 0 0 3.035-3.035v-16.733c0-1.117.906-2.025 2.025-2.025l9.951 1.584c1.676 0 2.073-.961.889-2.146l-18.67-18.672z"/><path fill="#F2F2F2" d="M1038.998 702.716v8.653h-34.285v-8.653c11.357-1.8 22.928-1.8 34.285 0z"/><path fill="#E6E6E6" d="M1048.351 711.369v8.655h-52.983v-8.655a169.4 169.4 0 0 1 52.983 0z"/><path fill="#F2F2F2" d="M1058.389 720.024v8.651h-73.062v-8.651a233.547 233.547 0 0 1 73.062 0z"/><path fill="#00F" d="M1058.389 727.442v116.166a232.942 232.942 0 0 1-27.901 2.708 233.463 233.463 0 0 1-45.159-2.708V727.442a232.646 232.646 0 0 1 17.021-2.054 230.18 230.18 0 0 1 16.683-.8c7.9-.093 15.812.213 23.687.911 5.237.469 10.46 1.119 15.669 1.943z" opacity=".2"/><linearGradient id="u" gradientUnits="userSpaceOnUse" x1="1033.928" y1="580.483" x2="1104.988" y2="580.483" gradientTransform="matrix(1 0 0 -1 -47.6 1366.01)"><stop offset="0" stop-color="#69e9ff"/><stop offset=".142" stop-color="#64e0f9"/><stop offset=".373" stop-color="#57c8e7"/><stop offset=".665" stop-color="#41a0ca"/><stop offset="1" stop-color="#246aa3"/><stop offset="1" stop-color="#246aa3"/></linearGradient><path fill="url(#u)" d="M1021.813 845.479c-11.84 0-23.773-.916-35.485-2.726V728.298c5.368-.827 10.78-1.47 16.104-1.912a229.876 229.876 0 0 1 19.362-.812c6.915 0 13.924.311 20.835.923 4.864.434 9.826 1.039 14.76 1.801v114.455a232.89 232.89 0 0 1-26.938 2.564c-2.865.107-5.771.162-8.638.162z"/><path fill="#F2F2F2" d="M1021.794 726.574c6.884 0 13.863.309 20.745.919 4.565.407 9.217.966 13.85 1.664v112.735a232.225 232.225 0 0 1-69.062 0V729.158a230.987 230.987 0 0 1 15.189-1.775 228.947 228.947 0 0 1 19.278-.809m-.001-2a231.352 231.352 0 0 0-19.446.816 232.778 232.778 0 0 0-17.021 2.054V843.61a233.57 233.57 0 0 0 45.159 2.708 232.942 232.942 0 0 0 27.901-2.708V727.442a230.917 230.917 0 0 0-15.672-1.941 236.83 236.83 0 0 0-20.921-.927z"/><g opacity=".4"><linearGradient id="v" gradientUnits="userSpaceOnUse" x1="1069.459" y1="519.532" x2="1069.459" y2="641.437" gradientTransform="matrix(1 0 0 -1 -47.6 1366.01)"><stop offset="0" stop-color="#001292"/><stop offset=".074" stop-color="#1b2c9e"/><stop offset=".272" stop-color="#606bbb"/><stop offset=".459" stop-color="#98a0d3"/><stop offset=".631" stop-color="#c5c9e6"/><stop offset=".784" stop-color="#e5e6f4"/><stop offset=".912" stop-color="#f8f9fc"/><stop offset="1" stop-color="#fff"/></linearGradient><path fill="url(#v)" d="M1058.389 727.442v116.166a232.942 232.942 0 0 1-27.901 2.708 233.463 233.463 0 0 1-45.159-2.708V727.442a232.646 232.646 0 0 1 17.021-2.054 230.18 230.18 0 0 1 16.683-.8c7.9-.093 15.812.213 23.687.911 5.237.469 10.46 1.119 15.669 1.943z"/></g><g opacity=".3"><linearGradient id="w" gradientUnits="userSpaceOnUse" x1="1069.422" y1="522.328" x2="1069.422" y2="640.244" gradientTransform="matrix(1 0 0 -1 -47.6 1366.01)"><stop offset="0" stop-color="#2882e2"/><stop offset="1" stop-color="#b3f4ff"/></linearGradient><path fill="url(#w)" d="M1057.038 843.679c-.008.41-8.579-38.2-25.682-71.438-17.102-33.238-44.805-44.422-44.751-43.604a217.423 217.423 0 0 1 70.433 0v115.042z"/></g><g font-family="'TeXGyreHeros-Bold'" font-size="72"><text transform="translate(991.996 811.242)" opacity=".15">%</text><text transform="translate(991.996 809.242)" fill="#FBF317">%</text></g><g opacity=".6"><path opacity=".2" d="M1058.389 745.08v21.669l-1.348-1.449-34.197-36.623-2.707-2.899-1.105-1.188c7.9-.093 15.812.213 23.687.911l1.104 1.379 1.441 1.797 11.779 14.726 1.346 1.677zm0 55.347v43.183a232.942 232.942 0 0 1-27.901 2.708l-2.177-3.943-42.982-77.665v-44.684h10.039v-3.988l2.978 3.988 4.005 5.364.88 1.173 1.578 2.114 52.233 69.948 1.347 1.802z" fill="#FFF"/></g><g fill="none" stroke="#F2F2F2" stroke-miterlimit="10"><path d="M729.995 375h582.327v122.914H729.995zm-20.306 40.961h622.941m-622.941 40.992h622.941m-19.897 40.961V375m-116.588 122.914V375m-116.59 122.914V375M962.766 497.914V375m-116.59 122.914V375m-116.59 122.914V375"/></g><path fill="#3090BB" d="M1549.709 492.313H494.011l-12.604 5.601h1080.904z"/><g><g fill="#1A608B" font-family="'Impact'" font-size="96.749"><text transform="translate(703.25 470.5)">НАДІЙНИЙ Б</text><text transform="translate(1233.486 470.5)">НК</text></g><path fill="#1C6693" d="M1185.674 470.502c-6.431-21.086-5.742-48.691 6.297-76.445h37.863v76.445h-20.752v-60.119h-3.048c-7.432 15.879-3.582 49.707.07 60.119h-20.43"/><path fill="#CE3523" d="M1200.941 437.639h27.114l-3.209 9.726h-23.361s-.433-3.101-.49-5.313c-.054-2.21-.054-4.413-.054-4.413m.489-6.41h28.695l-1.471 4.637h-27.603s0-1.215.106-2.544c.105-1.321.273-2.093.273-2.093"/></g><g><path fill="#F2F2F2" d="M806.65 1118.807h79.965v112.348H806.65z"/><path fill="#195B83" d="M811.288 1123.564h70.688v105.946h-70.688z"/><linearGradient id="x" gradientUnits="userSpaceOnUse" x1="894.107" y1="136.499" x2="894.107" y2="240.436" gradientTransform="matrix(1 0 0 -1 -47.6 1366.01)"><stop offset="0" stop-color="#246aa3"/><stop offset="0" stop-color="#246aa3"/><stop offset=".335" stop-color="#41a0ca"/><stop offset=".627" stop-color="#57c8e7"/><stop offset=".858" stop-color="#64e0f9"/><stop offset="1" stop-color="#69e9ff"/></linearGradient><path fill="url(#x)" d="M813.043 1125.574h66.929v103.938h-66.929z"/><linearGradient id="y" gradientUnits="userSpaceOnUse" x1="894.107" y1="136.499" x2="894.107" y2="240.436" gradientTransform="matrix(1 0 0 -1 -47.6 1366.01)"><stop offset="0" stop-color="#2882e2"/><stop offset="1" stop-color="#b3f4ff"/></linearGradient><path opacity=".7" fill="url(#y)" d="M879.972 1229.512l-66.929-103.938h66.929z"/><path fill="#1C6693" d="M845.951 1125.574h1.361v103.938h-1.361z"/><path fill="#333" d="M846.281 1130.775c4.082 0 7.391-2.468 7.391-5.51h-14.779c-.001 3.044 3.305 5.51 7.388 5.51z"/></g><g><path fill="#F2F2F2" d="M1156.297 1118.807h79.965v112.348h-79.965z"/><path fill="#195B83" d="M1160.936 1123.564h70.688v105.946h-70.688z"/><linearGradient id="z" gradientUnits="userSpaceOnUse" x1="1243.753" y1="136.499" x2="1243.753" y2="240.436" gradientTransform="matrix(1 0 0 -1 -47.6 1366.01)"><stop offset="0" stop-color="#246aa3"/><stop offset="0" stop-color="#246aa3"/><stop offset=".335" stop-color="#41a0ca"/><stop offset=".627" stop-color="#57c8e7"/><stop offset=".858" stop-color="#64e0f9"/><stop offset="1" stop-color="#69e9ff"/></linearGradient><path fill="url(#z)" d="M1162.688 1125.574h66.93v103.938h-66.93z"/><linearGradient id="A" gradientUnits="userSpaceOnUse" x1="1243.753" y1="136.499" x2="1243.753" y2="240.436" gradientTransform="matrix(1 0 0 -1 -47.6 1366.01)"><stop offset="0" stop-color="#2882e2"/><stop offset="1" stop-color="#b3f4ff"/></linearGradient><path opacity=".7" fill="url(#A)" d="M1229.617 1229.512l-66.929-103.938h66.929z"/><path fill="#1C6693" d="M1195.599 1125.574h1.36v103.938h-1.36z"/><path fill="#333" d="M1195.928 1130.775c4.082 0 7.39-2.468 7.39-5.51h-14.779c-.002 3.044 3.306 5.51 7.389 5.51z"/></g><g><path fill="#F2F2F2" d="M574.87 1151.9h76.248v72.444H574.87z"/><path fill="#195B83" d="M580.428 1157.179h65.137v61.888h-65.137z"/><path fill="#F2F2F2" d="M565.504 1141.973h94.983v18.388h-94.983z"/><text transform="translate(571.68 1157.35)" fill="#1A608B" font-family="'Impact'" font-size="16.044" letter-spacing="1">ТЕРМІНАЛ</text><linearGradient id="B" gradientUnits="userSpaceOnUse" x1="652.624" y1="161.665" x2="652.624" y2="202.963" gradientTransform="matrix(1 0 0 -1 -47.6 1366.01)"><stop offset="0" stop-color="#246aa3"/><stop offset="0" stop-color="#246aa3"/><stop offset=".335" stop-color="#41a0ca"/><stop offset=".627" stop-color="#57c8e7"/><stop offset=".858" stop-color="#64e0f9"/><stop offset="1" stop-color="#69e9ff"/></linearGradient><path fill="url(#B)" d="M584.375 1163.047h41.299v41.299h-41.299z"/><linearGradient id="C" gradientUnits="userSpaceOnUse" x1="652.624" y1="161.665" x2="652.624" y2="202.963" gradientTransform="matrix(1 0 0 -1 -47.6 1366.01)"><stop offset="0" stop-color="#2882e2"/><stop offset="1" stop-color="#b3f4ff"/></linearGradient><path opacity=".7" fill="url(#C)" d="M625.674 1204.346l-41.299-41.299h41.299z"/><path fill="#FFF" d="M629.156 1175.811h13.484v5.727h-13.484z"/><path fill="#E6E6E6" d="M630.273 1177.848h11.161v1.495h-11.161z"/><path fill="#FFF" d="M629.156 1187.214h13.484v5.729h-13.484z"/><path fill="#E6E6E6" d="M630.273 1189.252h11.161v1.498h-11.161z"/><path fill="#FFF" d="M629.156 1198.619h13.484v5.727h-13.484z"/><path fill="#E6E6E6" d="M630.273 1200.656h11.161v1.497h-11.161z"/><g fill="#E6E6E6"><path d="M595.559 1207.236h2.359v2.36h-2.359zm3.378 0h2.362v2.36h-2.362zm3.378 0h2.362v2.36h-2.362zM595.559 1210.543h2.359v2.36h-2.359zm3.378 0h2.362v2.36h-2.362zm3.378 0h2.362v2.36h-2.362zM595.559 1213.849h2.359v2.358h-2.359zm3.378 0h2.362v2.358h-2.362zm3.378 0h2.362v2.358h-2.362zM605.37 1207.236h2.359v2.36h-2.359zm3.377 0h2.363v2.36h-2.363zm3.38 0h2.361v2.36h-2.361zM605.37 1210.543h2.359v2.36h-2.359zm3.377 0h2.363v2.36h-2.363zm3.38 0h2.361v2.36h-2.361zM605.37 1213.849h2.359v2.358h-2.359zm3.377 0h2.363v2.358h-2.363zm3.38 0h2.361v2.358h-2.361z"/></g></g><g><path fill="#F2F2F2" d="M1392.172 1151.9h76.248v72.444h-76.248z"/><path d="M1433.938 1106.092a3.035 3.035 0 0 0-4.293 0l-18.672 18.674c-1.187 1.187-.787 2.146.891 2.146l9.951-1.584c1.117 0 2.023.906 2.023 2.022v16.734a3.032 3.032 0 0 0 3.035 3.035h9.836a3.034 3.034 0 0 0 3.035-3.035v-16.734c0-1.116.905-2.024 2.024-2.024l9.951 1.584c1.676 0 2.074-.961.889-2.146l-18.67-18.672z" opacity=".15"/><path fill="#FBF317" d="M1433.938 1104.092a3.035 3.035 0 0 0-4.293 0l-18.672 18.674c-1.187 1.187-.787 2.146.891 2.146l9.951-1.584c1.117 0 2.023.906 2.023 2.022v16.734a3.032 3.032 0 0 0 3.035 3.035h9.836a3.034 3.034 0 0 0 3.035-3.035v-16.734c0-1.116.905-2.024 2.024-2.024l9.951 1.584c1.676 0 2.074-.961.889-2.146l-18.67-18.672z"/><path fill="#195B83" d="M1397.729 1157.179h65.137v61.888h-65.137z"/><path fill="#F2F2F2" d="M1382.805 1141.973h94.984v18.388h-94.984z"/><text transform="translate(1386.153 1157.35)" fill="#1A608B" font-family="'Impact'" font-size="16.044" letter-spacing="1">БАНКОМАТ</text><linearGradient id="D" gradientUnits="userSpaceOnUse" x1="1469.926" y1="161.665" x2="1469.926" y2="202.963" gradientTransform="matrix(1 0 0 -1 -47.6 1366.01)"><stop offset="0" stop-color="#246aa3"/><stop offset="0" stop-color="#246aa3"/><stop offset=".335" stop-color="#41a0ca"/><stop offset=".627" stop-color="#57c8e7"/><stop offset=".858" stop-color="#64e0f9"/><stop offset="1" stop-color="#69e9ff"/></linearGradient><path fill="url(#D)" d="M1401.676 1163.047h41.299v41.299h-41.299z"/><linearGradient id="E" gradientUnits="userSpaceOnUse" x1="1469.926" y1="161.665" x2="1469.926" y2="202.963" gradientTransform="matrix(1 0 0 -1 -47.6 1366.01)"><stop offset="0" stop-color="#2882e2"/><stop offset="1" stop-color="#b3f4ff"/></linearGradient><path opacity=".7" fill="url(#E)" d="M1442.975 1204.346l-41.299-41.299h41.299z"/><path fill="#FFF" d="M1446.457 1175.811h13.483v5.727h-13.483z"/><path fill="#E6E6E6" d="M1447.573 1177.848h11.161v1.495h-11.161z"/><path fill="#FFF" d="M1446.457 1187.214h13.483v5.729h-13.483z"/><path fill="#E6E6E6" d="M1447.573 1189.252h11.161v1.498h-11.161z"/><path fill="#FFF" d="M1446.457 1198.619h13.483v5.727h-13.483z"/><path fill="#E6E6E6" d="M1447.573 1200.656h11.161v1.497h-11.161z"/><g fill="#E6E6E6"><path d="M1412.859 1207.236h2.359v2.36h-2.359zm3.378 0h2.362v2.36h-2.362zm3.378 0h2.362v2.36h-2.362zM1412.859 1210.543h2.359v2.36h-2.359zm3.378 0h2.362v2.36h-2.362zm3.378 0h2.362v2.36h-2.362zM1412.859 1213.849h2.359v2.358h-2.359zm3.378 0h2.362v2.358h-2.362zm3.378 0h2.362v2.358h-2.362zM1422.672 1207.236h2.358v2.36h-2.358zm3.377 0h2.362v2.36h-2.362zm3.379 0h2.361v2.36h-2.361zM1422.672 1210.543h2.358v2.36h-2.358zm3.377 0h2.362v2.36h-2.362zm3.379 0h2.361v2.36h-2.361zM1422.672 1213.849h2.358v2.358h-2.358zm3.377 0h2.362v2.358h-2.362zm3.379 0h2.361v2.358h-2.361z"/></g></g><g><path fill="#F2F2F2" d="M481.407 1230.492h1081.164v49.277H481.407z"/></g><g><linearGradient id="F" gradientUnits="userSpaceOnUse" x1="1276.433" y1="631.799" x2="1276.433" y2="616.696" gradientTransform="translate(-365.59 559.857) scale(1.087)"><stop offset="0" stop-color="#c6c5c4"/><stop offset=".996" stop-color="#ebebeb"/></linearGradient><path fill="url(#F)" d="M756.902 1230.083h529.98v16.563h-529.98z"/><linearGradient id="G" gradientUnits="userSpaceOnUse" x1="1276.428" y1="649.418" x2="1276.428" y2="631.799" gradientTransform="translate(-365.59 559.857) scale(1.087)"><stop offset="0" stop-color="#c6c5c4"/><stop offset=".996" stop-color="#ebebeb"/></linearGradient><path fill="url(#G)" d="M729.814 1246.646h584.147v19.026H729.814z"/><linearGradient id="H" gradientUnits="userSpaceOnUse" x1="1276.436" y1="662.002" x2="1276.436" y2="646.898" gradientTransform="translate(-365.59 559.857) scale(1.087)"><stop offset="0" stop-color="#c6c5c4"/><stop offset=".996" stop-color="#ebebeb"/></linearGradient><path fill="url(#H)" d="M704.572 1263.204h634.646v16.564H704.572z"/><linearGradient id="I" gradientUnits="userSpaceOnUse" x1="1276.429" y1="648.964" x2="1276.429" y2="645.894" gradientTransform="translate(-365.59 559.857) scale(1.087)"><stop offset="0" stop-opacity=".05"/><stop offset="1" stop-opacity=".3"/></linearGradient><path fill="url(#I)" d="M1021.887 1261.799c175.248 0 317.316.785 317.316 1.761s-142.068 1.761-317.316 1.761c-175.244 0-317.314-.785-317.314-1.761-.001-.976 142.07-1.761 317.314-1.761z"/><linearGradient id="J" gradientUnits="userSpaceOnUse" x1="1276.43" y1="634.055" x2="1276.43" y2="631.101" gradientTransform="translate(-365.59 559.857) scale(1.087)"><stop offset="0" stop-opacity=".05"/><stop offset="1" stop-opacity=".3"/></linearGradient><path fill="url(#J)" d="M1021.887 1245.589c161.308 0 292.075.786 292.075 1.761 0 .976-130.769 1.761-292.075 1.761-161.303 0-292.072-.785-292.072-1.761 0-.975 130.769-1.761 292.072-1.761z"/><linearGradient id="K" gradientUnits="userSpaceOnUse" x1="1276.442" y1="618.803" x2="1276.442" y2="615.848" gradientTransform="translate(-365.59 559.857) scale(1.087)"><stop offset="0" stop-opacity=".05"/><stop offset="1" stop-opacity=".3"/></linearGradient><path fill="url(#K)" d="M1021.883 1229.025c146.355 0 265.019.791 265.019 1.76 0 .975-118.662 1.764-265.019 1.764-146.359 0-264.98-.789-264.98-1.764-.001-.969 118.62-1.76 264.98-1.76z"/></g><g><path d="M610.849 1137.982a3.035 3.035 0 0 0 4.293 0l18.673-18.674c1.186-1.187.787-2.146-.891-2.146l-9.951 1.584a2.024 2.024 0 0 1-2.023-2.024v-16.732a3.032 3.032 0 0 0-3.035-3.035h-9.836a3.032 3.032 0 0 0-3.034 3.035v16.732a2.026 2.026 0 0 1-2.025 2.025l-9.951-1.583c-1.677 0-2.075.961-.89 2.146l18.67 18.672z" opacity=".15"/><path fill="#FBF317" d="M610.849 1135.982a3.035 3.035 0 0 0 4.293 0l18.673-18.674c1.186-1.187.787-2.146-.891-2.146l-9.951 1.584a2.024 2.024 0 0 1-2.023-2.024v-16.732a3.032 3.032 0 0 0-3.035-3.035h-9.836a3.032 3.032 0 0 0-3.034 3.035v16.732a2.026 2.026 0 0 1-2.025 2.025l-9.951-1.583c-1.677 0-2.075.961-.89 2.146l18.67 18.672z"/><path fill="#1D6997" d="M516.291 1103.516c-9.871 0-17.9-8.03-17.9-17.9v-45.139c0-9.869 8.029-17.899 17.9-17.899h193.407c9.873 0 17.901 8.03 17.901 17.899v45.139c0 9.87-8.028 17.9-17.901 17.9H516.291z"/><path fill="none" stroke="#FBF317" stroke-width="3" stroke-miterlimit="10" d="M719.818 1085.614c0 5.588-4.531 10.118-10.119 10.118H516.291c-5.589 0-10.118-4.53-10.118-10.118v-45.138c0-5.589 4.529-10.117 10.118-10.117h193.407c5.588 0 10.119 4.529 10.119 10.117v45.138h.001z"/><path opacity=".05" d="M709.698 1022.576h-92.813v80.938h92.813c9.873 0 17.901-8.03 17.901-17.9v-45.138c.002-9.871-8.027-17.9-17.901-17.9z"/><text transform="translate(531.204 1084.805)" font-family="'TeXGyreHeros-Bold'" font-size="56.038" opacity=".15">36 000</text><text transform="translate(531.204 1082.805)" fill="#FFF" font-family="'TeXGyreHeros-Bold'" font-size="56.038">36 000</text></g><g><path fill="#1D6997" d="M1295.086 1103.516c-9.872 0-17.901-8.03-17.901-17.9v-45.139c0-9.869 8.029-17.899 17.901-17.899h273.406c9.873 0 17.901 8.03 17.901 17.899v45.139c0 9.87-8.028 17.9-17.901 17.9h-273.406z"/><path fill="none" stroke="#FBF317" stroke-width="3" stroke-miterlimit="10" d="M1578.612 1085.614c0 5.588-4.531 10.118-10.119 10.118h-273.406c-5.59 0-10.119-4.53-10.119-10.118v-45.138c0-5.589 4.529-10.117 10.119-10.117h273.406c5.588 0 10.119 4.529 10.119 10.117v45.138z"/><path opacity=".05" d="M1568.492 1022.576H1435.68v80.938h132.813c9.873 0 17.901-8.03 17.901-17.9v-45.138c.001-9.871-8.029-17.9-17.902-17.9z"/><text transform="translate(1311.051 1084.805)" font-family="'TeXGyreHeros-Bold'" font-size="56.038" opacity=".15">2 336 000</text><text transform="translate(1311.051 1082.805)" fill="#FFF" font-family="'TeXGyreHeros-Bold'" font-size="56.038">2 336 000</text></g></g><g><linearGradient id="L" gradientUnits="userSpaceOnUse" x1="1648.264" y1="69.01" x2="1648.264" y2="243.405" gradientTransform="matrix(1 0 0 -1 -47.6 1366.01)"><stop offset="0" stop-color="#567700"/><stop offset="1" stop-color="#91ac03"/></linearGradient><path fill="url(#L)" d="M1605.605 1297h-9.883c-54.586 0-83.771-31.369-65.189-69.864l36.482-75.642c18.586-38.49 48.711-38.533 67.295-.043l36.484 75.707c18.585 38.49-10.601 69.842-65.189 69.842z"/><path opacity=".05" d="M1670.795 1227.136l-36.82-75.642c-9.547-19.768-20.975-29.439-34.975-28.904V1297h6.604c54.589 0 83.775-31.369 65.191-69.864z"/><linearGradient id="M" gradientUnits="userSpaceOnUse" x1="1699.703" y1="69.01" x2="1699.703" y2="208.766" gradientTransform="matrix(1 0 0 -1 -47.6 1366.01)"><stop offset="0" stop-color="#567700"/><stop offset="1" stop-color="#91ac00"/></linearGradient><path fill="url(#M)" d="M1656.063 1297h-7.918c-43.726 0-67.104-25.162-52.219-55.996l29.223-60.613c14.891-30.834 39.022-30.875 53.908-.041l29.222 60.678c14.889 30.827-8.495 55.972-52.216 55.972z"/><path opacity=".05" d="M1708.278 1241.004l-29.88-60.613c-7.641-15.832-16.397-23.598-28.397-23.17V1297h6.063c43.72 0 67.104-25.162 52.214-55.996z"/><g><linearGradient id="N" gradientUnits="userSpaceOnUse" x1="1556.871" y1="69.01" x2="1556.871" y2="189.823" gradientTransform="matrix(1 0 0 -1 -47.6 1366.01)"><stop offset=".006" stop-color="#305d00"/><stop offset="1" stop-color="#6f9b00"/></linearGradient><path fill="url(#N)" d="M1512.695 1297h-6.844c-37.787 0-57.996-21.77-45.125-48.416l25.254-52.391c12.861-26.646 33.721-26.688 46.586-.041l25.254 52.453c12.864 26.648-7.34 48.395-45.125 48.395z"/><path opacity=".05" d="M1557.82 1248.584l-24.548-52.391c-6.608-13.685-16.271-20.408-23.271-20.033V1297h2.694c37.785 0 57.989-21.77 45.125-48.416z"/></g></g><g><path fill="none" stroke="#DEECE3" stroke-width="23" stroke-linecap="round" stroke-miterlimit="10" d="M1630.07 1106.474s63.907 97.918 201.399 45.584"/><path fill="#FFC687" d="M1838.821 1161.915s18.697 1.688 24.812-6.688c6.108-8.377 1.153-23.715-7.562-30.392-8.399-5.526-18.274-2.757-18.934-.505-2.549-3.373-7.615-6.891-11.406-.459-3.788 6.428-4.15 15.354-1.311 20.881 2.847 5.528 14.401 17.163 14.401 17.163z"/><path fill="#E6F5EB" d="M1589.927 1239.216s-1.705-100.481 33.31-137.676c35.015-37.195 101.735 8.223 101.735 8.223s-6.603 40.994-3.597 53.336c3.011 12.343 11.205 69.34-1.622 80.681-12.822 11.336-89.808 18.703-99.066 15.764-9.262-2.94-30.76-20.328-30.76-20.328z"/><path fill="#FFC687" d="M1631.802 1034.688c.692 16.601-7.556 30.421-18.408 30.875-10.861.453-20.219-12.635-20.914-29.233-.69-16.599 7.549-30.42 18.404-30.873 10.858-.455 20.228 12.632 20.918 29.231z"/><path fill="#FFAF73" d="M1626.591 1035.202c.394 9.36-5.14 17.192-12.349 17.494-7.216.301-13.379-7.045-13.77-16.404s5.141-17.193 12.354-17.492c7.211-.301 13.372 7.045 13.765 16.402z"/><path opacity=".1" d="M1947.933 1428.724c0 20.488-93.612 37.103-209.092 37.103-115.476 0-209.089-16.613-209.089-37.103 0-20.491 93.613-37.104 209.089-37.104 115.479 0 209.092 16.61 209.092 37.104z"/><path fill="#2F3F54" d="M1657.402 1242.214c-27.688 0-52.243-2.837-67.579-7.207-1.274 2.314-2.021 4.719-2.021 7.207 0 16.92 31.162 30.642 69.601 30.642s69.604-13.722 69.604-30.642c0-2.488-.748-4.893-2.021-7.207-15.342 4.373-39.9 7.207-67.584 7.207z"/><path fill="#FBAE17" d="M1684.503 1244.186a6.766 6.766 0 0 1-6.593 6.942l-17.979.459a6.771 6.771 0 0 1-6.941-6.596 6.778 6.778 0 0 1 6.599-6.945l17.977-.457a6.766 6.766 0 0 1 6.937 6.597z"/><path fill="#2F3F54" d="M1623.405 1413.112l-17.32-12.586c30.485-41.955 30.485-98.324 0-140.277l17.32-12.588c35.957 49.479 35.957 115.973 0 165.451z"/><path fill="#2F3F54" d="M1607.218 1399.396s-22.3 3.883-7.99 27.605c15.507 11.753 47.949 7.267 54.127 3.993 6.174-3.267 2.91-27.955-26.881-24.148l-19.256-7.45zm94.66 10.147l-17.324-12.589c30.479-41.949 30.479-98.324 0-140.275l17.324-12.588c35.952 49.48 35.952 115.972 0 165.452z"/><path fill="#2F3F54" d="M1685.69 1395.827s-25.061 7.451-7.992 27.604c10.729 9.73 47.949 7.267 54.125 3.996 6.18-3.27 2.908-27.957-26.878-24.149l-19.255-7.451z"/><path fill="#FFC687" d="M1619.753 1108.573l96.727 23.513 5.617-14.011s53.803-47.701 44.711-116.894c0 0 .168-42.701-29.584-70.514-29.75-27.811-104.324 4.354-104.324 4.354l-26.953 5.343 13.806 168.209z"/><ellipse transform="rotate(-96.097 1687.96 1002.822)" fill="#333" cx="1687.876" cy="1002.791" rx="12.274" ry="5.674"/><ellipse fill="#FFF" cx="1686.896" cy="996.159" rx="2.187" ry="2.67"/><ellipse transform="rotate(-96.108 1736.542 993.558)" fill="#333" cx="1736.532" cy="993.528" rx="11.748" ry="5.431"/><path fill="#FFF" d="M1737.683 987.095c0 1.412-.937 2.554-2.092 2.554-1.154 0-2.091-1.142-2.091-2.554 0-1.414.937-2.559 2.091-2.559 1.155 0 2.092 1.145 2.092 2.559z"/><path fill="none" stroke="#FFAF73" stroke-width="1.5" stroke-miterlimit="10" d="M1721.005 1021.038s22.463 8.348 21.141 19.01c0 7.648-11.09 3.986-11.09 3.986"/><path fill="#F57B71" d="M1714.003 1082.45c12.189 2.646 23.872-3.517 26.096-13.767l-44.135-9.58c-2.225 10.251 5.851 20.703 18.039 23.347z"/><path fill="#FFF" d="M1715.132 1070.333c8.715 2.164 17.362 2.041 24.473.109.195-.572.363-1.156.494-1.759l-44.135-9.58c-.097.435-.145.871-.201 1.306 4.658 4.346 11.354 7.934 19.369 9.924zM1615.574 1101.911s90.308 16.811 112.668 15.879c-7.358 15.359-8.548 25.451-7.252 30.914 0 0-92.664-35.017-104.973-36.142l-.443-10.651z"/><path fill="#2F3F54" d="M1718.929 1133.567c-5.103 7.432-13.853 7.797-19.552.813-5.7-6.982-1.569-13.004 9.233-13.453 10.796-.448 15.42 5.207 10.319 12.64z"/><path fill="#2F3F54" d="M1704.134 1168.329c-1.058-28.633 8.344-30.992 20.979-5.271 12.622 25.713 13.473 48.918 1.892 51.84-11.589 2.915-21.824-17.93-22.871-46.569z"/><path fill="#534741" d="M1629.47 957.771c.623 10.591-1.854 59.55-17.101 61.027-24.701 2.391-30.134-63.604-24.891-77.121 5.982-15.422 56.912-26.593 72.76-33.057 17.193-7.014 75.099-26.1 92.363-21.43 51.895 14.041-14.086 79.67-50.258 70.395-1.803-6.455-.482-11.863 3.965-16.225-21.525 16.346-50.428 18.672-76.838 16.411z"/><radialGradient id="O" cx="1891.134" cy="274.607" r="143.841" gradientTransform="matrix(1 0 0 -1 -47.6 1366.01)" gradientUnits="userSpaceOnUse"><stop offset="0" stop-color="#fff"/><stop offset="1" stop-color="#fff" stop-opacity="0"/></radialGradient><circle opacity=".8" fill="url(#O)" cx="1843.533" cy="1091.403" r="143.841"/><path fill="#AA843F" d="M1922.562 1084.163l34.128 23.555v62.47l-34.128-20.142z"/><path fill="#784C28" d="M1764.505 1084.163h158.057v100.02h-158.057z"/><path fill="#D9E5B7" d="M1839.78 1089.673c-24.621 11.984-41.408 34.98-66.035 46.965a231612.08 231612.08 0 0 0-26.084-36.684c24.616-11.986 41.414-34.979 66.029-46.965 8.702 12.229 17.394 24.455 26.09 36.684z"/><path fill="#09632D" d="M1747.66 1099.954a231612.08 231612.08 0 0 1 26.084 36.684c24.627-11.983 41.414-34.979 66.035-46.965-8.695-12.229-17.389-24.455-26.09-36.684-24.615 11.987-41.412 34.979-66.029 46.965zm82.414-19.256c-3.766 3.172-4.729 8.467-2.781 13.039-15.592 10.266-28.599 24.155-44.192 34.424-3.729-3.42-9.183-4.422-14.17-2.974-3.857-5.418-7.707-10.836-11.562-16.256 3.769-3.168 4.741-8.471 2.785-13.045 15.582-10.266 28.595-24.156 44.187-34.42 3.729 3.426 9.187 4.426 14.176 2.977l11.557 16.255z"/><path fill="#09632D" d="M1824.826 1092.942c-14.593 9.883-27.02 22.817-41.614 32.702-.132-.094-.257-.18-.393-.271-3.601-2.455-8.091-3.277-12.509-2.51l-.486.084c-3.252-4.574-6.502-9.148-9.76-13.724a7.15 7.15 0 0 0 .296-.352c2.677-3.225 3.476-7.6 2.38-11.742-.041-.15-.08-.303-.115-.453 14.589-9.881 27.009-22.813 41.599-32.692.133.092.264.18.391.27 3.603 2.459 8.099 3.281 12.521 2.512a24.3 24.3 0 0 0 .483-.082c3.25 4.574 6.509 9.148 9.759 13.724-.099.117-.195.231-.291.35-2.677 3.223-3.477 7.594-2.381 11.734.046.15.079.3.12.45zm-41.628 31.073c14.006-9.637 26.063-22.016 40.072-31.649-.992-4.236-.2-8.672 2.382-12.049-2.89-4.066-5.784-8.134-8.677-12.201-4.498.692-9.023-.115-12.741-2.496-13.998 9.634-26.054 22.006-40.056 31.641.994 4.243.197 8.681-2.383 12.06 2.893 4.065 5.782 8.135 8.676 12.2 4.495-.696 9.013.113 12.727 2.494z"/><path d="M1781.056 1097.233a200.155 200.155 0 0 1-6.541 5.103c.513.985 1.024 1.973 1.539 2.956.332-.324.645-.563 1.065-.883 1.631-1.226 3.527-2.129 5.345-2.193 1.885-.123 3.678.697 5.129 2.736 2.301 3.229 1.721 8.315-2.888 11.771-2.08 1.556-4.209 2.313-5.551 2.47-.479-1.188-.959-2.371-1.438-3.56 1.051-.166 2.979-.803 4.534-1.965 1.669-1.229 2.832-3.395 1.519-5.242-1.286-1.805-3.416-1.795-6.871.73-.956.693-1.592 1.221-2.242 1.834-1.784-3.314-3.563-6.633-5.346-9.953 3.201-2.273 6.308-4.678 9.365-7.152.795 1.117 1.586 2.233 2.381 3.348zm18.975-7.427c3.829 5.388 4.4 10.787.215 14.324-4.231 3.584-8.994 1.086-12.53-3.826-3.582-5.039-4.388-10.709-.15-14.291 4.383-3.709 9.074-.977 12.465 3.793zm-8.436 7.261c2.811 4.019 5.076 5.153 6.563 3.896 1.487-1.258.886-3.922-1.938-7.887-2.744-3.863-4.978-5.238-6.515-3.939-1.412 1.19-1.018 3.903 1.89 7.93zm22.948-18.351c3.839 5.4 4.228 10.539-.125 13.844-4.389 3.369-9.116.914-12.661-4.01-3.574-5.026-4.408-10.738-.019-14.102 4.568-3.455 9.422-.488 12.805 4.268zm-8.85 6.679c2.813 4.016 5.093 5.184 6.638 4.006 1.547-1.179.992-3.775-1.836-7.746-2.735-3.857-5.018-5.297-6.617-4.084-1.462 1.115-1.097 3.795 1.815 7.824z" fill="#09632D"/><path fill="#D9E5B7" d="M1826.705 1140.71c13.408-23.874 14.119-52.34 27.53-76.213 14.11 5.098 28.225 10.194 42.334 15.293-13.411 23.873-14.116 52.338-27.525 76.213l-42.339-15.293z"/><path fill="#09632D" d="M1896.57 1079.79l-42.334-15.293c-13.411 23.873-14.122 52.339-27.53 76.213 14.112 5.099 28.226 10.195 42.338 15.293 13.409-23.875 14.114-52.34 27.526-76.213zm-56.777 62.768c1.293-4.752-.932-9.657-5.14-12.301 6.974-17.317 9.753-36.147 16.724-53.469 5.009.688 10.062-1.592 13.339-5.625l18.76 6.774c-1.293 4.752.93 9.666 5.143 12.308-6.964 17.317-9.748 36.145-16.716 53.461-5.021-.688-10.071 1.592-13.347 5.63l-18.763-6.778z"/><path fill="#09632D" d="M1837.138 1129.503c6.364-16.436 9.213-34.143 15.578-50.578.161-.002.317-.004.478-.004 4.356-.031 8.516-1.914 11.711-5.063.116-.115.231-.228.35-.343 5.276 1.91 10.559 3.814 15.838 5.724-.015.149-.027.301-.041.453-.367 4.176 1.469 8.229 4.731 11.01.12.1.236.201.355.302-6.365 16.433-9.211 34.138-15.576 50.567-.156.002-.316.002-.475.002-4.359.029-8.523 1.916-11.726 5.067-.109.113-.227.229-.34.341-5.288-1.904-10.568-3.813-15.846-5.72.019-.149.032-.301.045-.455.359-4.172-1.469-8.223-4.73-10.998-.115-.104-.237-.204-.352-.305zm16.518-49.248c-6.026 15.896-8.885 32.939-14.914 48.838 3.234 2.918 5.105 7.017 4.909 11.261 4.69 1.694 9.382 3.391 14.079 5.086 3.299-3.127 7.482-5.041 11.895-5.201 6.019-15.896 8.882-32.931 14.902-48.822-3.229-2.922-5.106-7.021-4.906-11.27-4.696-1.695-9.391-3.394-14.082-5.089-3.299 3.128-7.477 5.035-11.883 5.197z"/><path d="M1870.668 1101.046a200.52 200.52 0 0 1 2.472-7.919c-.98-.519-1.965-1.036-2.944-1.554-.089.459-.211.83-.38 1.332-.637 1.938-1.684 3.764-3.139 4.848-1.481 1.177-3.425 1.525-5.774.677-3.733-1.349-6.15-5.859-4.331-11.324.826-2.463 2.141-4.297 3.147-5.189 1.074.701 2.148 1.402 3.218 2.104-.77.735-1.99 2.357-2.615 4.198-.664 1.964-.391 4.404 1.747 5.175 2.079.756 3.827-.47 5.226-4.513.394-1.116.613-1.907.802-2.789 3.352 1.714 6.704 3.425 10.058 5.144-1.337 3.688-2.515 7.436-3.616 11.209-1.293-.466-2.58-.934-3.871-1.399zm-11.364 16.914c-6.215-2.246-9.759-6.359-8.338-11.652 1.438-5.354 6.778-6.016 12.481-3.987 5.814 2.098 9.706 6.303 8.265 11.657-1.49 5.546-6.902 5.968-12.408 3.982zm2.802-10.774c-4.604-1.697-7.109-1.345-7.613.536-.512 1.88 1.504 3.726 6.082 5.38 4.452 1.61 7.072 1.473 7.599-.474.478-1.785-1.387-3.789-6.068-5.442zm-8.413 28.155c-6.233-2.254-9.476-6.258-7.784-11.451 1.685-5.268 6.971-5.942 12.688-3.914 5.803 2.095 9.739 6.314 8.056 11.58-1.791 5.439-7.474 5.767-12.96 3.785zm3.475-10.533c-4.606-1.694-7.145-1.354-7.743.492-.601 1.846 1.338 3.668 5.922 5.322 4.448 1.604 7.145 1.494 7.762-.414.572-1.752-1.262-3.746-5.941-5.4z" fill="#09632D"/><path fill="#D9E5B7" d="M1865.076 1153.372c-19.395-19.33-46.623-27.656-66.02-46.986 8.701-12.225 17.404-24.451 26.102-36.674 19.396 19.328 46.625 27.654 66.023 46.984-8.703 12.225-17.404 24.45-26.105 36.676z"/><path fill="#09632D" d="M1825.158 1069.712c-8.696 12.224-17.399 24.449-26.102 36.674 19.396 19.33 46.625 27.656 66.02 46.986 8.7-12.226 17.4-24.451 26.105-36.676-19.398-19.33-46.625-27.656-66.023-46.984zm45.211 71.549c-4.227-2.52-9.549-1.694-13.221 1.646-14.813-11.367-32.204-19.104-47.018-30.47 2.008-4.641 1.168-10.116-1.834-14.358l11.561-16.25c4.232 2.52 9.562 1.701 13.244-1.648 14.802 11.359 32.19 19.099 46.998 30.457-2.01 4.652-1.168 10.134 1.836 14.375-3.851 5.414-7.707 10.832-11.566 16.248z"/><path fill="#09632D" d="M1857.086 1140.314c-14.122-10.551-30.424-18.045-44.536-28.592l.121-.459c1.145-4.207.444-8.719-1.732-12.643-.077-.146-.154-.283-.236-.43 3.261-4.57 6.513-9.146 9.767-13.718.146.056.284.107.43.16 3.923 1.471 8.316.793 11.88-1.6.125-.088.255-.174.386-.265 14.114 10.545 30.407 18.039 44.521 28.586-.035.15-.082.306-.119.455-1.145 4.211-.451 8.726 1.732 12.652.074.143.149.286.231.428-3.26 4.574-6.512 9.148-9.77 13.721-.136-.051-.281-.106-.424-.157-3.924-1.474-8.314-.795-11.861 1.596-.133.092-.262.181-.39.266zm-43.008-29.139c13.699 10.074 29.345 17.406 43.041 27.48 3.679-2.328 8.125-3.035 12.162-1.701 2.896-4.064 5.791-8.133 8.685-12.197-2.13-4.02-2.849-8.559-1.813-12.854-13.693-10.072-29.337-17.4-43.03-27.472-3.679 2.332-8.135 3.035-12.172 1.703-2.895 4.066-5.791 8.133-8.684 12.2 2.127 4.015 2.845 8.552 1.811 12.841z"/><path d="M1838.681 1100.37a192.605 192.605 0 0 1-6.965-4.51c-.765.811-1.527 1.614-2.291 2.424.418.205.744.426 1.182.721 1.695 1.137 3.174 2.635 3.824 4.324.742 1.746.549 3.711-.9 5.748-2.293 3.229-7.296 4.35-12.063 1.131-2.156-1.456-3.568-3.219-4.15-4.433.959-.844 1.926-1.686 2.885-2.526.504.938 1.743 2.549 3.347 3.641 1.706 1.17 4.137 1.563 5.448-.287 1.285-1.807.578-3.815-2.94-6.25a21.089 21.089 0 0 0-2.474-1.52c2.549-2.771 5.099-5.537 7.656-8.312 3.193 2.281 6.486 4.424 9.826 6.5-.797 1.119-1.592 2.232-2.385 3.349zm13.235 15.488c-3.832 5.389-8.745 7.694-13.457 4.901-4.774-2.822-3.979-8.143-.491-13.09 3.582-5.039 8.674-7.658 13.448-4.832 4.942 2.93 3.896 8.254.5 13.021zm-9.627-5.588c-2.868 3.975-3.2 6.485-1.526 7.479 1.681.992 3.996-.449 6.813-4.416 2.748-3.861 3.32-6.42 1.59-7.445-1.593-.946-4.02.314-6.877 4.382zm24.863 15.668c-3.843 5.396-8.567 7.444-13.122 4.42-4.613-3.037-3.85-8.313-.358-13.273 3.579-5.029 8.698-7.688 13.314-4.645 4.766 3.18 3.549 8.743.166 13.498zm-9.214-6.177c-2.868 3.979-3.219 6.515-1.6 7.588 1.614 1.072 3.887-.305 6.715-4.272 2.742-3.855 3.354-6.479 1.684-7.592-1.534-1.021-3.944.211-6.799 4.276z" fill="#09632D"/><path fill="#D9E5B7" d="M1832.989 1198.745c-10.735-25.189-32.86-43.113-43.596-68.306 12.646-8.069 25.295-16.145 37.942-24.219 10.738 25.191 32.861 43.114 43.603 68.306a75191.188 75191.188 0 0 1-37.949 24.219z"/><path fill="#09632D" d="M1827.336 1106.222l-37.942 24.22c10.734 25.19 32.859 43.114 43.596 68.305a88847.016 88847.016 0 0 0 37.949-24.219c-10.741-25.192-32.865-43.115-43.603-68.306zm15.107 83.281c-2.979-3.922-8.22-5.154-12.882-3.432-9.471-16.09-22.697-29.781-32.17-45.865 3.596-3.555 4.877-8.945 3.68-14.002 5.604-3.58 11.206-7.156 16.812-10.734 2.973 3.923 8.229 5.158 12.891 3.435 9.474 16.082 22.693 29.771 32.164 45.854-3.609 3.56-4.879 8.955-3.682 14.017-5.609 3.571-11.208 7.149-16.813 10.727z"/><path fill="#09632D" d="M1830.476 1183.645c-9.14-15.072-21.437-28.13-30.576-43.199.096-.127.191-.252.283-.379 2.638-3.47 3.682-7.916 3.138-12.367-.02-.162-.038-.326-.056-.486l14.188-9.059c.116.102.228.205.342.309 3.083 2.836 7.415 3.854 11.608 2.965.149-.03.304-.063.456-.096 9.142 15.068 21.435 28.117 30.568 43.187-.099.129-.188.252-.285.379-2.64 3.473-3.687 7.922-3.14 12.381.021.16.041.322.056.481-4.729 3.021-9.459 6.043-14.191 9.062-.11-.103-.223-.203-.334-.309-3.084-2.832-7.41-3.851-11.6-2.966-.156.031-.305.066-.457.097zm-28.948-43.13c8.92 14.472 20.682 27.134 29.603 41.604 4.288-.781 8.674.236 11.913 2.982 4.209-2.687 8.412-5.369 12.625-8.056-.467-4.522.567-9.004 3.13-12.6-8.918-14.465-20.681-27.123-29.597-41.59-4.285.78-8.675-.234-11.922-2.984a27049.02 27049.02 0 0 0-12.619 8.055c.464 4.52-.575 8.997-3.133 12.589z"/><path d="M1828.382 1139.716a196.853 196.853 0 0 1-4.771-6.791l-3.024 1.387c.312.349.529.677.822 1.111 1.146 1.688 1.955 3.631 1.928 5.443.027 1.896-.881 3.645-2.985 4.989-3.349 2.136-8.398 1.302-11.614-3.473-1.452-2.16-2.101-4.318-2.189-5.666 1.206-.422 2.414-.84 3.625-1.262.112 1.059.649 3.018 1.73 4.63 1.149 1.726 3.255 2.997 5.163 1.776 1.871-1.193 1.965-3.322-.381-6.896a21.823 21.823 0 0 0-1.724-2.336c3.4-1.609 6.804-3.224 10.207-4.838 2.111 3.311 4.359 6.532 6.681 9.709-1.162.74-2.315 1.48-3.468 2.217zm6.469 19.318c-5.573 3.557-10.994 3.856-14.32-.498-3.369-4.406-.631-9.043 4.449-12.322 5.211-3.328 10.914-3.848 14.283.562 3.483 4.565.517 9.11-4.412 12.258zm-6.83-8.791c-4.15 2.61-5.402 4.815-4.221 6.36 1.18 1.552 3.875 1.082 7.971-1.536 4-2.552 5.482-4.709 4.262-6.312-1.121-1.467-3.845-1.211-8.012 1.488zm17.178 23.844c-5.584 3.564-10.74 3.693-13.819-.819-3.146-4.548-.455-9.15 4.639-12.439 5.199-3.322 10.941-3.867 14.086.684 3.218 4.734.01 9.433-4.906 12.574zm-6.223-9.178c-4.154 2.61-5.433 4.832-4.336 6.432 1.097 1.604 3.723 1.177 7.823-1.44 3.998-2.549 5.548-4.752 4.414-6.406-1.038-1.521-3.733-1.285-7.901 1.414z" fill="#09632D"/><path fill="#D9E5B7" d="M1852.187 1131.976c21.344-17.149 32.619-43.297 53.963-60.446 11.193 9.987 22.39 19.981 33.585 29.977-21.349 17.152-32.622 43.297-53.966 60.451-11.193-9.996-22.383-19.988-33.582-29.982z"/><path fill="#09632D" d="M1939.734 1101.505c-11.196-9.994-22.392-19.988-33.585-29.977-21.344 17.149-32.619 43.297-53.963 60.446 11.199 9.994 22.391 19.986 33.582 29.98 21.344-17.152 32.618-43.297 53.966-60.449zm-76.092 37.068c2.97-3.929 2.735-9.308-.181-13.33 12.925-13.471 22.529-29.906 35.454-43.375 4.395 2.504 9.93 2.272 14.475-.248 4.965 4.428 9.92 8.854 14.883 13.283-2.973 3.928-2.745 9.313.18 13.338-12.92 13.469-22.522 29.899-35.44 43.369-4.399-2.513-9.942-2.274-14.486.245-4.967-4.426-9.923-8.853-14.885-13.282z"/><path fill="#09632D" d="M1866.046 1125.472c12.038-12.879 21.28-28.25 33.315-41.127.148.06.295.117.441.175 4.053 1.598 8.619 1.401 12.756-.328.15-.063.302-.125.449-.188 4.192 3.738 8.381 7.476 12.567 11.215-.073.136-.141.271-.209.406-1.893 3.738-1.707 8.184.284 11.979.069.138.146.277.224.414-12.038 12.873-21.28 28.24-33.315 41.111a13.298 13.298 0 0 0-.438-.172c-4.058-1.604-8.625-1.406-12.765.328-.146.063-.303.123-.452.186-4.188-3.735-8.382-7.475-12.563-11.213.065-.135.137-.27.205-.406 1.893-3.737 1.706-8.176-.285-11.971-.07-.138-.143-.276-.214-.409zm33.691-39.539c-11.521 12.507-20.522 27.25-32.044 39.755 1.907 3.913 2.12 8.413.351 12.276 3.724 3.324 7.449 6.646 11.171 9.971 4.227-1.674 8.821-1.889 12.975-.393 11.517-12.5 20.519-27.24 32.035-39.742-1.912-3.916-2.123-8.42-.354-12.289-3.724-3.321-7.439-6.645-11.168-9.971-4.231 1.674-8.817 1.887-12.966.393z"/><path d="M1907.772 1111.567a202.228 202.228 0 0 1 5.246-6.425c-.721-.848-1.436-1.696-2.154-2.541-.252.392-.51.693-.846 1.095-1.318 1.559-2.967 2.862-4.719 3.326-1.824.541-3.752.139-5.615-1.527-2.959-2.639-3.523-7.729.201-12.118 1.686-1.98 3.59-3.189 4.865-3.64.727 1.049 1.463 2.1 2.188 3.147-.986.396-2.723 1.443-3.984 2.92-1.352 1.572-2.002 3.941-.315 5.453 1.654 1.478 3.731.99 6.533-2.235a21.74 21.74 0 0 0 1.786-2.289c2.474 2.836 4.942 5.678 7.423 8.52-2.619 2.924-5.113 5.961-7.543 9.054-1.02-.912-2.049-1.828-3.066-2.74zm-16.849 11.457c-4.937-4.404-6.687-9.539-3.394-13.921 3.334-4.432 8.529-3.055 13.063.949 4.616 4.117 6.66 9.469 3.325 13.902-3.449 4.594-8.634 2.967-12.994-.93zm6.612-8.955c-3.634-3.289-6.093-3.896-7.266-2.343-1.174 1.558.007 4.021 3.639 7.261 3.534 3.157 6.019 4.006 7.226 2.396 1.116-1.476.131-4.032-3.599-7.314zm-18.306 22.992c-4.943-4.414-6.461-9.339-2.947-13.527 3.521-4.258 8.685-2.914 13.229 1.1 4.608 4.107 6.686 9.49 3.155 13.746-3.692 4.379-9.08 2.564-13.437-1.319zm7.151-8.48c-3.642-3.289-6.117-3.92-7.363-2.43-1.244 1.487-.129 3.901 3.511 7.143 3.526 3.152 6.069 4.053 7.358 2.516 1.177-1.414.218-3.948-3.506-7.229z" fill="#09632D"/><path fill="#D9E5B7" d="M1809.187 1181.627c16.757-21.661 21.615-49.718 38.367-71.378 13.213 7.104 26.431 14.209 39.649 21.313-16.758 21.66-21.614 49.718-38.364 71.377-13.224-7.103-26.431-14.21-39.652-21.312z"/><path fill="#09632D" d="M1887.203 1131.563c-13.22-7.104-26.438-14.207-39.649-21.313-16.752 21.66-21.61 49.717-38.367 71.378 13.223 7.104 26.43 14.209 39.652 21.313 16.75-21.663 21.607-49.719 38.364-71.378zm-65.336 53.803c1.972-4.515.493-9.689-3.291-12.918 9.431-16.117 14.927-34.338 24.359-50.453 4.85 1.41 10.178-.107 14.012-3.618 5.859 3.145 11.713 6.294 17.566 9.439-1.967 4.515-.49 9.697 3.291 12.931-9.416 16.11-14.924 34.33-24.34 50.44-4.869-1.411-10.197.109-14.031 3.621-5.855-3.145-11.709-6.293-17.566-9.442z"/><path fill="#09632D" d="M1821.144 1172.063c8.699-15.326 14.1-32.433 22.8-47.761.157.021.315.041.469.064 4.317.608 8.707-.646 12.327-3.297l.396-.287c4.95 2.655 9.889 5.313 14.83 7.973-.033.148-.068.293-.104.443-.97 4.076.253 8.354 3.073 11.582l.309.352c-8.696 15.326-14.096 32.424-22.793 47.752-.159-.022-.315-.047-.473-.067-4.316-.609-8.709.649-12.334 3.299-.131.098-.264.192-.397.289-4.941-2.66-9.885-5.314-14.834-7.974.041-.147.072-.297.11-.442.965-4.074-.254-8.351-3.069-11.574-.105-.115-.21-.234-.31-.352zm23.535-46.31c-8.285 14.849-13.601 31.291-21.884 46.137 2.771 3.359 4.024 7.685 3.207 11.857 4.396 2.363 8.793 4.728 13.188 7.089 3.721-2.616 8.139-3.894 12.525-3.407 8.272-14.843 13.596-31.28 21.877-46.123-2.772-3.362-4.033-7.692-3.215-11.866-4.395-2.363-8.787-4.728-13.189-7.093-3.714 2.615-8.128 3.894-12.509 3.406z"/><path d="M1858.472 1148.808c1.158-2.516 2.35-5.01 3.604-7.472-.897-.657-1.797-1.314-2.69-1.97-.149.438-.332.793-.567 1.262-.914 1.824-2.218 3.478-3.812 4.338-1.642.947-3.609 1.01-5.813-.174-3.493-1.877-5.232-6.695-2.634-11.832 1.178-2.318 2.744-3.941 3.881-4.676.957.852 1.912 1.698 2.869 2.552-.871.612-2.314 2.041-3.193 3.77-.95 1.846-1.032 4.301.965 5.375 1.951 1.049 3.854.094 5.83-3.701.554-1.047.89-1.799 1.201-2.644 3.063 2.188 6.133 4.371 9.199 6.558-1.861 3.455-3.574 6.989-5.215 10.561-1.213-.651-2.42-1.297-3.625-1.947zm-13.711 15.072c-5.826-3.131-8.729-7.715-6.549-12.742 2.207-5.09 7.584-4.963 12.932-2.125 5.443 2.927 8.68 7.65 6.469 12.742-2.289 5.266-7.695 4.896-12.852 2.125zm4.345-10.252c-4.307-2.348-6.838-2.365-7.613-.582-.779 1.79.943 3.91 5.232 6.213 4.172 2.244 6.785 2.488 7.586.644.732-1.699-.819-3.953-5.205-6.275zm-12.435 26.627c-5.841-3.139-8.462-7.574-6.029-12.463 2.438-4.965 7.768-4.863 13.125-2.021 5.434 2.92 8.718 7.67 6.271 12.633-2.564 5.12-8.232 4.616-13.367 1.851zm4.971-9.91c-4.299-2.352-6.863-2.385-7.724-.646-.864 1.742.783 3.824 5.072 6.129 4.172 2.24 6.849 2.521 7.746.727.818-1.652-.708-3.89-5.094-6.21z" fill="#09632D"/><g><path fill="#D9E5B7" d="M1870.578 1190.761c7.847-26.235 2.279-54.16 10.125-80.399 14.883 1.877 29.771 3.748 44.657 5.625-7.834 26.237-2.28 54.16-10.12 80.397-14.884-1.875-29.776-3.748-44.662-5.623z"/><path fill="#09632D" d="M1925.361 1115.985c-14.886-1.877-29.774-3.748-44.657-5.625-7.846 26.239-2.278 54.163-10.125 80.399l44.662 5.623c7.839-26.236 2.286-54.158 10.12-80.397zm-41.604 73.704c.215-4.922-3.031-9.217-7.72-10.873 2.998-18.426 1.582-37.409 4.574-55.834 5.04-.43 9.467-3.764 11.779-8.42 6.602.83 13.188 1.66 19.787 2.492-.215 4.92 3.029 9.225 7.721 10.881-2.994 18.42-1.572 37.399-4.564 55.82-5.047.43-9.479 3.768-11.791 8.424-6.598-.828-13.192-1.658-19.786-2.49z"/><path fill="#09632D" d="M1878.293 1177.536c2.604-17.435 1.496-35.334 4.095-52.769l.465-.104c4.24-.984 7.885-3.738 10.313-7.512.089-.138.178-.271.268-.41 5.563.701 11.139 1.399 16.707 2.104.016.152.039.302.059.451.562 4.152 3.245 7.707 7.033 9.703.139.068.276.146.416.217-2.604 17.429-1.49 35.324-4.092 52.755a12.05 12.05 0 0 0-.462.106c-4.25.982-7.896 3.738-10.325 7.517-.082.135-.177.272-.265.411-5.572-.7-11.143-1.403-16.707-2.104-.02-.152-.043-.301-.062-.451-.561-4.15-3.236-7.696-7.024-9.693-.142-.074-.277-.149-.419-.221zm5.304-51.674c-2.387 16.836-1.435 34.086-3.819 50.92 3.788 2.141 6.52 5.723 7.255 9.91 4.954.623 9.9 1.241 14.857 1.866 2.528-3.774 6.191-6.558 10.457-7.683 2.391-16.829 1.434-34.079 3.822-50.905-3.794-2.141-6.525-5.729-7.268-9.916-4.952-.625-9.904-1.25-14.854-1.873-2.528 3.777-6.185 6.556-10.45 7.681z"/><path d="M1904.761 1142.411a212.5 212.5 0 0 1 .67-8.271c-1.068-.287-2.142-.58-3.213-.869.019.464-.024.859-.074 1.382-.203 2.032-.82 4.045-1.998 5.418-1.191 1.477-3.012 2.239-5.491 1.931-3.931-.495-7.284-4.366-6.708-10.095.267-2.586 1.144-4.662 1.939-5.759 1.19.449 2.395.898 3.59 1.347-.588.891-1.42 2.739-1.625 4.672-.219 2.061.586 4.383 2.838 4.664 2.195.276 3.633-1.299 4.109-5.549.139-1.175.18-1.998.166-2.896 3.645.937 7.299 1.869 10.948 2.806-.5 3.896-.823 7.809-1.071 11.733l-4.08-.514zm-7.373 18.994c-6.56-.826-10.922-4.062-10.691-9.535.224-5.541 5.29-7.359 11.297-6.631 6.134.77 10.853 4.018 10.629 9.557-.241 5.738-5.425 7.342-11.235 6.609zm.367-11.125c-4.861-.646-7.232.25-7.314 2.194-.084 1.947 2.287 3.308 7.115 3.912 4.707.592 7.229-.119 7.313-2.129.076-1.846-2.182-3.391-7.114-3.977zm-2.026 29.315c-6.577-.826-10.618-4.021-10.104-9.463.482-5.508 5.494-7.33 11.517-6.604 6.119.771 10.887 4.022 10.395 9.528-.551 5.703-6.022 7.269-11.808 6.539zm1.073-11.037c-4.856-.645-7.263.246-7.443 2.181-.176 1.932 2.115 3.283 6.943 3.891 4.701.59 7.299-.111 7.487-2.107.173-1.835-2.06-3.377-6.987-3.965z" fill="#09632D"/></g><g><path fill="#D9E5B7" d="M1793.628 1180.534c-15.918-22.281-41.384-35.017-57.298-57.299 10.609-10.608 21.22-21.222 31.83-31.83 15.918 22.281 41.386 35.016 57.299 57.299l-31.831 31.83z"/><path fill="#09632D" d="M1768.16 1091.405c-10.61 10.608-21.221 21.222-31.83 31.83 15.914 22.282 41.38 35.018 57.298 57.299 10.608-10.609 21.221-21.222 31.832-31.83-15.914-22.283-41.382-35.016-57.3-57.299zm32.704 78.065c-3.758-3.186-9.139-3.26-13.319-.573-12.718-13.666-28.58-24.185-41.294-37.853 2.74-4.246 2.824-9.785.567-14.467 4.704-4.7 9.401-9.4 14.104-14.104 3.754 3.188 9.146 3.267 13.331.574 12.716 13.662 28.574 24.178 41.288 37.842-2.755 4.252-2.839 9.795-.574 14.478-4.704 4.702-9.405 9.403-14.103 14.103z"/><path fill="#09632D" d="M1787.918 1166.329c-12.174-12.746-27-22.842-39.168-35.592.062-.144.127-.287.194-.431 1.823-3.957 1.886-8.522.395-12.752a11.121 11.121 0 0 1-.162-.465c3.967-3.971 7.938-7.938 11.903-11.906.136.078.267.154.394.23 3.631 2.102 8.076 2.164 11.979.393l.424-.192c12.173 12.743 26.988 22.84 39.16 35.582-.063.143-.131.286-.196.432-1.824 3.959-1.888 8.527-.396 12.764.056.154.108.308.163.464-3.967 3.969-7.938 7.936-11.904 11.905-.136-.076-.264-.153-.395-.229-3.625-2.104-8.07-2.166-11.969-.396l-.422.193zm-37.569-35.875c11.83 12.207 26.047 22.037 37.877 34.244 4.016-1.685 8.518-1.64 12.276.344 3.527-3.527 7.063-7.059 10.591-10.588-1.437-4.314-1.388-8.912.342-12.976-11.823-12.204-26.037-22.028-37.864-34.233-4.021 1.686-8.523 1.641-12.292-.342-3.526 3.526-7.055 7.057-10.583 10.588 1.429 4.313 1.382 8.904-.347 12.963z"/><path d="M1776.399 1123.884a199.205 199.205 0 0 1-6.119-5.602l-2.66 2.008c.383.271.664.546 1.047.906 1.482 1.405 2.688 3.125 3.052 4.901.438 1.843-.072 3.75-1.838 5.519-2.802 2.803-7.921 3.078-12.095-.89-1.877-1.797-2.979-3.766-3.354-5.063l3.268-2.014c.344 1.01 1.286 2.807 2.691 4.147 1.49 1.437 3.822 2.228 5.427.621 1.563-1.566 1.196-3.666-1.864-6.65a21.82 21.82 0 0 0-2.184-1.907c2.973-2.308 5.947-4.613 8.925-6.927 2.772 2.777 5.663 5.44 8.608 8.043-.962.97-1.938 1.939-2.904 2.908zm10.485 17.47c-4.679 4.679-9.902 6.14-14.088 2.601-4.24-3.576-2.57-8.689 1.686-12.988 4.371-4.375 9.828-6.11 14.066-2.533 4.387 3.706 2.474 8.784-1.664 12.92zm-8.569-7.109c-3.488 3.44-4.238 5.865-2.745 7.123 1.479 1.256 4.011.219 7.454-3.224 3.348-3.35 4.338-5.778 2.801-7.077-1.415-1.195-4.019-.355-7.51 3.178zm21.916 19.578c-4.684 4.686-9.688 5.922-13.672 2.18-4.055-3.764-2.418-8.836 1.85-13.147 4.359-4.363 9.853-6.138 13.902-2.369 4.165 3.93 2.045 9.209-2.08 13.336zm-8.058-7.619c-3.488 3.447-4.263 5.887-2.843 7.215 1.419 1.328 3.886.346 7.332-3.098 3.349-3.347 4.388-5.832 2.924-7.205-1.344-1.258-3.924-.447-7.413 3.088z" fill="#09632D"/></g><g><path fill="#D9E5B7" d="M1766.994 1168.038c8.866-25.904 4.409-54.027 13.271-79.937 14.805 2.457 29.613 4.916 44.406 7.375-8.861 25.906-4.404 54.027-13.273 79.938l-44.404-7.376z"/><path fill="#09632D" d="M1824.673 1095.479c-14.793-2.459-29.603-4.918-44.406-7.375-8.862 25.907-4.405 54.03-13.271 79.936l44.404 7.377c8.869-25.912 4.412-54.033 13.273-79.938zm-44.477 72.01c.418-4.906-2.656-9.33-7.272-11.166 3.719-18.295 3.041-37.32 6.762-55.613 5.053-.232 9.604-3.387 12.1-7.951 6.562 1.09 13.12 2.178 19.679 3.271-.412 4.907 2.662 9.334 7.287 11.176-3.716 18.289-3.05 37.307-6.757 55.598-5.065.232-9.623 3.394-12.114 7.955-6.558-1.092-13.124-2.18-19.685-3.27z"/><path fill="#09632D" d="M1775.226 1155.132c3.283-17.317 2.879-35.25 6.16-52.565.16-.027.315-.058.469-.091 4.283-.815 8.031-3.424 10.604-7.099l.277-.399c5.537.921 11.078 1.837 16.615 2.761.014.149.027.301.037.453.397 4.172 2.938 7.825 6.649 9.967l.406.238c-3.289 17.311-2.876 35.235-6.166 52.551-.149.026-.305.059-.465.088-4.281.816-8.031 3.424-10.609 7.104-.095.132-.188.267-.278.4-5.537-.922-11.076-1.84-16.611-2.76a8.572 8.572 0 0 1-.045-.453c-.4-4.17-2.934-7.822-6.643-9.963-.132-.078-.27-.156-.4-.232zm7.328-51.428c-3.049 16.727-2.771 34.006-5.822 50.729 3.709 2.287 6.289 5.976 6.861 10.187 4.928.817 9.853 1.637 14.774 2.455 2.676-3.679 6.438-6.314 10.748-7.271 3.047-16.721 2.775-33.994 5.822-50.713-3.709-2.287-6.297-5.979-6.868-10.194-4.929-.816-9.849-1.636-14.776-2.451-2.672 3.67-6.429 6.303-10.739 7.258z"/><path d="M1803.05 1121.073c.278-2.754.604-5.5.996-8.236a838.67 838.67 0 0 0-3.181-.994c0 .463-.051.855-.129 1.377-.277 2.021-.975 4.006-2.209 5.334-1.248 1.429-3.092 2.123-5.559 1.713-3.908-.651-7.108-4.647-6.314-10.352.372-2.574 1.332-4.615 2.166-5.676 1.183.495 2.359.989 3.54 1.485-.625.863-1.53 2.683-1.808 4.603-.301 2.053.414 4.403 2.65 4.774 2.184.365 3.682-1.155 4.325-5.385.188-1.17.257-1.99.283-2.889 3.604 1.078 7.211 2.156 10.82 3.233-.644 3.873-1.125 7.771-1.527 11.683-1.351-.222-2.704-.449-4.053-.67zm-8.112 18.688c-6.521-1.082-10.75-4.481-10.313-9.946.446-5.525 5.575-7.144 11.551-6.185 6.101 1.015 10.688 4.441 10.24 9.971-.461 5.724-5.707 7.123-11.478 6.16zm.799-11.104c-4.83-.834-7.229-.03-7.391 1.907-.158 1.943 2.16 3.396 6.957 4.189 4.672.777 7.224.166 7.39-1.84.152-1.838-2.051-3.475-6.956-4.256zm-3.175 29.217c-6.537-1.086-10.45-4.438-9.723-9.854.698-5.485 5.776-7.104 11.766-6.146 6.086 1.012 10.725 4.447 10.018 9.932-.772 5.673-6.308 7.023-12.061 6.068zm1.509-10.986c-4.83-.836-7.262-.041-7.522 1.884-.255 1.928 1.981 3.364 6.786 4.163 4.666.775 7.298.175 7.563-1.813.244-1.826-1.924-3.455-6.827-4.234z" fill="#09632D"/></g><path fill="#945F30" d="M1922.562 1150.046h-158.057v93.283a6.74 6.74 0 0 0 6.737 6.74h144.577a6.746 6.746 0 0 0 6.741-6.74l.002-93.283z"/><path fill="#784C28" d="M1861.964 1174.284h-36.867a5.635 5.635 0 0 1 0-11.269h36.867a5.635 5.635 0 0 1 0 11.269z"/><path opacity=".05" d="M1843.531 1150.046v100.023h72.288a6.746 6.746 0 0 0 6.741-6.74v-93.283h-79.029z"/><g><path fill="none" stroke="#DEECE3" stroke-width="23" stroke-linecap="round" stroke-miterlimit="10" d="M1634.899 1148.314s59.078 91.56 196.57 39.224"/></g><g><path fill="#FFC687" d="M1838.821 1197.396s18.697 1.688 24.812-6.688c6.108-8.377 1.153-23.715-7.562-30.395-8.399-5.523-18.274-2.755-18.934-.505-2.549-3.37-7.615-6.891-11.406-.459-3.788 6.431-4.15 15.355-1.311 20.884 2.847 5.528 14.401 17.163 14.401 17.163z"/></g></g><g><path fill="none" stroke="#D8E6DD" stroke-width="23" stroke-linecap="round" stroke-miterlimit="10" d="M326.054 1108.923s-14.051 127.025 123.44 74.691"/><path fill="#F5BE82" d="M454.271 1194.224s18.697 1.688 24.811-6.688c6.109-8.377 1.154-23.715-7.561-30.394-8.4-5.524-18.275-2.756-18.934-.504-2.55-3.373-7.615-6.891-11.406-.459-3.789 6.429-4.15 15.354-1.312 20.881 2.847 5.529 14.402 17.164 14.402 17.164z"/><path fill="#E6F5EB" d="M285.911 1241.665s-1.705-100.482 33.309-137.676c35.014-37.195 101.735 8.223 101.735 8.223s-6.602 40.994-3.598 53.336c3.012 12.343 11.207 69.34-1.621 80.681-12.822 11.336-89.807 18.703-99.065 15.764-9.262-2.941-30.76-20.328-30.76-20.328z"/><path fill="#FFC687" d="M327.785 1037.138c.693 16.601-7.555 30.42-18.407 30.875-10.861.453-20.218-12.635-20.914-29.233-.691-16.599 7.549-30.42 18.404-30.873 10.86-.457 20.229 12.631 20.917 29.231z"/><path fill="#FFAF73" d="M322.574 1037.651c.394 9.36-5.139 17.192-12.348 17.493-7.217.302-13.379-7.045-13.77-16.403-.392-9.359 5.141-17.193 12.354-17.492 7.212-.301 13.373 7.045 13.764 16.402z"/><path opacity=".1" d="M501.185 1431.173c0 17.148-59.002 31.051-131.783 31.051-72.778 0-131.78-13.901-131.78-31.051 0-17.151 59.002-31.055 131.78-31.055 72.781 0 131.783 13.903 131.783 31.055z"/><path fill="#2F3F54" d="M353.386 1244.663c-27.688 0-52.242-2.838-67.578-7.207-1.274 2.313-2.021 4.719-2.021 7.207 0 16.92 31.161 30.641 69.6 30.641s69.604-13.721 69.604-30.641c0-2.488-.747-4.894-2.021-7.207-15.342 4.373-39.901 7.207-67.584 7.207z"/><path fill="#FBAE17" d="M380.487 1246.634a6.764 6.764 0 0 1-6.592 6.943l-17.98.459a6.77 6.77 0 0 1-6.94-6.596 6.776 6.776 0 0 1 6.598-6.945l17.978-.457a6.765 6.765 0 0 1 6.936 6.596z"/><path fill="#2F3F54" d="M303.201 1401.845s-22.301 3.884-7.989 27.605c15.506 11.754 47.948 7.268 54.127 3.994 6.174-3.267 2.909-27.955-26.882-24.148l-19.256-7.451zm78.474-3.569s-25.062 7.45-7.992 27.604c10.729 9.73 47.949 7.266 54.125 3.996 6.178-3.27 2.908-27.957-26.879-24.15l-19.254-7.45z"/><path fill="#FFC687" d="M315.737 1111.021l96.728 23.513 5.616-14.011s53.804-47.7 44.713-116.893c0 0 .167-42.701-29.586-70.514-29.75-27.812-104.323 4.354-104.323 4.354l-26.953 5.342 13.805 168.209z"/><ellipse transform="rotate(-96.097 383.935 1005.272)" fill="#333" cx="383.928" cy="1005.237" rx="12.272" ry="5.674"/><ellipse fill="#FFF" cx="382.88" cy="998.608" rx="2.186" ry="2.67"/><ellipse transform="rotate(-96.108 432.53 995.955)" fill="#333" cx="432.532" cy="995.938" rx="11.747" ry="5.431"/><path fill="#FFF" d="M433.668 989.544c0 1.412-.938 2.553-2.094 2.553-1.153 0-2.092-1.141-2.092-2.553 0-1.414.938-2.559 2.092-2.559 1.157 0 2.094 1.145 2.094 2.559z"/><path fill="none" stroke="#FFAF73" stroke-width="1.5" stroke-miterlimit="10" d="M416.989 1023.487s22.463 8.349 21.142 19.01c0 7.647-11.091 3.985-11.091 3.985"/><path fill="#FFF" d="M311.56 1104.36s90.307 16.811 112.668 15.879c-7.358 15.358-8.549 25.451-7.252 30.914 0 0-92.664-35.017-104.973-36.142l-.443-10.651z"/><path fill="#2F3F54" d="M414.912 1136.017c-5.102 7.433-13.852 7.798-19.553.814-5.699-6.982-1.566-13.004 9.234-13.453 10.799-.451 15.422 5.205 10.319 12.639z"/><path fill="#2F3F54" d="M400.118 1170.778c-1.058-28.634 8.344-30.992 20.979-5.271 12.621 25.713 13.471 48.918 1.891 51.84-11.589 2.916-21.824-17.93-22.87-46.569z"/><path fill="#534741" d="M325.453 960.222c.624 10.591-1.854 59.55-17.1 61.027-24.703 2.391-30.135-63.605-24.891-77.121 5.981-15.422 56.913-26.594 72.76-33.057 17.194-7.015 75.098-26.101 92.363-21.431 51.895 14.041-14.085 79.67-50.259 70.396-1.803-6.455-.481-11.863 3.966-16.226-21.523 16.345-50.428 18.671-76.839 16.412z"/><path fill="none" stroke="#DEECE3" stroke-width="23" stroke-linecap="round" stroke-miterlimit="10" d="M330.884 1150.765s-2.015 124.115 135.479 71.777"/><path fill="#D9E5B7" d="M458.78 1218.057c-9.801-20.979-16.667-41.336-28.588-66.529 11.744-3.689 23.934-7.229 37.166-12.77 9.802 20.979 16.668 41.335 28.589 66.528-11.744 3.691-23.934 7.23-37.167 12.771z"/><path fill="#09632D" d="M467.358 1138.758c-13.231 5.541-25.422 9.079-37.166 12.77 11.921 25.193 18.787 45.552 28.588 66.529 13.233-5.541 25.424-9.079 37.167-12.771-11.921-25.193-18.788-45.55-28.589-66.528zm1.183 72.913c-2.799-3.613-7.355-5.369-11.84-4.354-6.394-14.496-11.917-28.978-19.199-45.241 3.412-2.399 4.977-6.768 3.764-11.283 5.313-1.743 10.739-3.563 16.326-5.646 2.796 3.613 7.362 5.372 11.849 4.354 6.392 14.492 11.914 28.97 19.195 45.229-3.417 2.403-4.979 6.774-3.768 11.292-5.314 1.744-10.739 3.565-16.327 5.649z"/><path fill="#09632D" d="M457.869 1205.359c-6.071-13.729-11.392-27.405-18.176-42.551l.281-.272c2.587-2.521 3.878-6.126 3.428-9.988l-.051-.423c4.488-1.525 9.053-3.109 13.726-4.864l.306.304c2.81 2.778 6.568 4.23 10.465 3.93l.423-.034c6.071 13.725 11.39 27.399 18.172 42.54l-.281.275c-2.589 2.52-3.88 6.128-3.43 9.992l.049.422c-4.487 1.525-9.053 3.11-13.726 4.866l-.304-.306c-2.808-2.771-6.567-4.226-10.458-3.925l-.424.034zm-16.759-42.163c6.494 14.482 11.686 27.676 17.565 40.94 3.934-.183 7.718 1.289 10.639 4.036 4.13-1.561 8.18-2.994 12.17-4.38-.326-3.898.989-7.535 3.543-10.184-6.491-14.479-11.68-27.668-17.558-40.931-3.938.186-7.728-1.286-10.647-4.038-4.131 1.561-8.181 2.993-12.172 4.38.327 3.897-.99 7.53-3.54 10.177z"/><path d="M460.981 1160.93l-.024-.053c-.999-.855-2.004-1.72-3.017-2.593.906-.625 1.817-1.254 2.732-1.888l4.125 3.563c.478 1.083.953 2.167 1.425 3.25-5.715 2.497-11.338 4.807-16.934 7.158a625.808 625.808 0 0 0-1.74-3.946c4.437-1.804 8.903-3.596 13.433-5.491zm4.671 23.883c-5.216 2.231-9.731 1.771-11.566-2.551-1.866-4.391 1.178-8.037 5.938-10.097 4.877-2.084 9.664-1.761 11.525 2.604 1.935 4.545-1.28 8.075-5.897 10.044zm-3.902-8.681c-3.867 1.646-5.299 3.383-4.641 4.917.658 1.531 2.94 1.511 6.774-.15 3.727-1.614 5.342-3.279 4.66-4.862-.625-1.457-2.892-1.625-6.793.095zm10.404 23.223c-5.307 2.051-10.019 1.522-11.884-2.745-1.886-4.332 1.262-7.999 6.017-10.063 4.886-2.084 9.62-1.646 11.617 2.88 2.083 4.718-1.039 8.125-5.75 9.928zm-4.11-8.825c-3.893 1.604-5.359 3.351-4.683 4.873.673 1.53 3.021 1.523 6.907-.047 3.772-1.521 5.359-3.134 4.635-4.766-.667-1.49-2.939-1.736-6.859-.06z" fill="#09632D"/><path opacity=".05" d="M467.358 1138.758c-6.616 2.771-12.972 5.04-19.141 7.078 11.233 22.624 18.472 42.52 29.706 65.143 6.169-2.038 12.152-3.847 18.023-5.691-11.92-25.195-18.787-45.552-28.588-66.53z"/><g><path fill="#FFC687" d="M473.664 1231.774s18.697 1.688 24.812-6.688c6.11-8.377 1.154-23.715-7.562-30.393-8.399-5.525-18.274-2.756-18.934-.504-2.549-3.373-7.615-6.892-11.406-.459-3.789 6.43-4.149 15.354-1.311 20.881 2.847 5.527 14.401 17.163 14.401 17.163z"/></g><path fill="none" stroke="#2F3F54" stroke-width="22" stroke-miterlimit="10" d="M314.753 1258.61v153.381m77.601-153.381v153.381"/><g><path fill="#F57B71" d="M431.629 1074.924s-2.29 1.082-5.964 2.068c-.918.24-1.918.494-2.989.707-1.068.229-2.213.388-3.4.539-1.188.127-2.427.244-3.693.266-1.265.047-2.557.002-3.852-.084a35.97 35.97 0 0 1-3.862-.504 19.486 19.486 0 0 1-3.681-1.008 18.372 18.372 0 0 1-5.723-3.615 9.147 9.147 0 0 1-1.004-1.004c-.299-.339-.592-.646-.842-.956-.471-.651-.882-1.204-1.173-1.694-.563-.996-.828-1.582-.828-1.582l.236-.186s.543.371 1.391 1.048c.438.314.97.698 1.578 1.138.638.392 1.299.885 2.086 1.319.387.226.772.479 1.211.681.428.218.84.486 1.311.681.919.425 1.882.866 2.909 1.267 1.019.413 2.082.838 3.203 1.185 1.112.378 2.292.619 3.477.851 1.192.187 2.396.34 3.596.402 1.197.087 2.386.081 3.535.063a56.203 56.203 0 0 0 6.297-.558c3.68-.567 6.074-1.303 6.074-1.303l.107.279z"/></g></g></svg>