<svg xmlns="http://www.w3.org/2000/svg" width="50" height="50" viewBox="0 0 50 50"><path fill="#fff" d="M43.151 8.146c-.947-1.08-2.604-.992-3.572.063-.969 1.057-.876 2.688.038 3.793a18.242 18.242 0 0 1 4.178 11.59c0 10.049-8.207 18.223-18.296 18.223S7.203 33.641 7.203 23.592c0-4.225 1.414-8.195 4.027-11.414.903-1.113.978-2.744-.005-3.787-.983-1.047-2.641-1.109-3.573-.023A23.439 23.439 0 0 0 2 23.592C2 36.498 12.542 47 25.499 47c12.958 0 23.499-10.502 23.499-23.408a23.405 23.405 0 0 0-5.847-15.446zM25.937 29.631c1.536 0 2.776-1.164 3.062-2.105V5.105C28.713 3.166 27.473 2 25.937 2c-1.53 0-2.773 1.166-2.987 2.678v22.42c.214 1.369 1.456 2.533 2.987 2.533z"/></svg>