<svg xmlns="http://www.w3.org/2000/svg" width="100" height="100" viewBox="0 0 100 100"><path fill="#999" d="M90.857 54.094c-1.022.316-1.604-.289-2.002-1.174-1.869-4.18-6.416-14.24-6.811-15.093-.467 6.705.374 40.11.516 45.351.047 1.76-.886 2.775-2.412 2.807-1.367.029-2.398-.793-2.543-2.172-.523-4.965-2.201-22.03-2.664-25.601-.502 5.168-2.152 22.156-2.523 25.478-.175 1.563-1.202 2.385-2.682 2.295-1.366-.084-2.278-1.055-2.282-2.566-.013-4.457.774-43.472.655-45.976a8639.05 8639.05 0 0 1-7.004 15.535c-.397.877-1.016 1.486-2.024 1.119-1.076-.391-1.17-1.315-.858-2.268 2.103-6.432 4.019-12.932 6.604-19.191 1.047-2.531 2.987-4.144 5.678-4.665 2.966-.574 5.968-.561 8.935-.018 2.807.513 4.75 2.264 5.815 4.858 2.56 6.228 4.464 12.688 6.562 19.081.32.967.137 1.858-.96 2.2zM74.992 26.41c-3.354-.016-6.193-2.879-6.213-6.264-.017-3.417 2.75-6.146 6.237-6.146 3.504 0 6.233 2.722 6.19 6.174-.043 3.429-2.854 6.251-6.214 6.236z"/><path fill="#8AB71F" d="M60.738 54.162c.429-.449.927-.762 1.514-.318.559.422.561 1.029.198 1.551-1.96 2.826-3.536 6.006-6.806 7.654-.666.336-.893.893-.957 1.607-.385 4.291.408 17.057.47 19.158.04 1.406-.481 2.093-1.494 2.146-1.028.055-1.53-.504-1.744-1.943l-1.308-8.801-.28-.041c-.435 3.004-.875 6.006-1.302 9.008-.103.728-.285 1.396-1.042 1.691-1.143.447-2.192-.32-2.166-1.732.047-2.514.801-15.61.438-19.653-.066-.744-.452-1.191-1.084-1.521-3.232-1.694-4.81-4.862-6.733-7.717-.335-.498-.225-1.063.29-1.426.603-.423 1.112-.111 1.507.358 1.3 1.547 2.638 3.051 4.212 4.332 1.212.986 2.461 1.486 4.088 1.045 1.388-.375 2.869-.309 4.273.06 1.242.323 2.254-.041 3.224-.75 1.47-1.078 4.418-4.411 4.702-4.708zM50.47 58.699c-2.09-.004-3.814-1.664-3.852-3.713-.04-2.09 1.862-4.017 3.921-3.973 1.997.045 3.79 1.864 3.788 3.846a3.84 3.84 0 0 1-3.857 3.84z"/><path fill="#999" d="M41.885 54.104c-.757.279-1.392-.02-1.792-.69-.485-.814-7.393-14.577-7.829-14.875.366 2.265 2.762 17.146 3.622 22.316.154.927-.133 1.271-1.065 1.308-2.649.106-2.679.133-2.835 2.858-.342 5.976-1.082 18.992-1.157 19.524-.126.896-.603 1.453-1.549 1.422-1.01-.034-1.438-.678-1.503-1.618-.163-2.39-.989-16.479-1.25-21.136-.022-.396.062-.918-.515-.967-.678-.056-.631.512-.657.955-.245 4.159-1.054 18.252-1.221 21.134-.055.953-.495 1.566-1.493 1.637-.971.068-1.481-.508-1.565-1.387-.18-1.887-.975-15.896-1.167-21.01-.044-1.191-.487-1.473-1.553-1.436-3.172.112-2.497-.281-2.133-2.584 1.071-6.769 3.364-20.768 3.386-21.009-.085-.022-6.517 12.415-7.581 14.513-.441.871-1.084 1.426-2.074 1.018-.985-.406-1.126-1.287-.791-2.189 2.419-6.498 4.73-13.04 7.491-19.404 1.466-3.382 4.102-4.927 7.72-4.845 1.843.042 3.695-.169 5.527.237 1.99.44 3.542 1.458 4.587 3.25 1.612 2.763 8.269 20.816 8.336 21.18.153.833-.128 1.499-.939 1.798zM25.93 26.431c-3.347-.024-6.197-2.907-6.209-6.283-.013-3.424 2.761-6.149 6.253-6.145 3.476.006 6.274 2.794 6.21 6.188-.064 3.401-2.933 6.263-6.254 6.24z"/></svg>