<svg xmlns="http://www.w3.org/2000/svg" width="194" height="249" viewBox="0 0 194 249"><path opacity=".1" fill-rule="evenodd" clip-rule="evenodd" d="M97.12 193.31C69.49 178.143 53.2 174.85.5 173.188v3.003c52.7 1.662 68.99 4.956 96.62 20.123 25.11 13.734 61.54 39.332 96.38 52.687v-3.003c-34.84-13.355-71.27-38.953-96.38-52.688z"/><path opacity=".3" fill-rule="evenodd" clip-rule="evenodd" fill="#fff" d="M.5 74.502c52.881-1.959 69.042-5.228 96.619-20.519C122.159 40.146 158.615 14.285 193.5.731v245.266c-34.836-13.358-71.274-38.954-96.382-52.689-27.625-15.16-43.92-18.457-96.618-20.124V74.502z"/><path d="M97.358 192.869c7.702 4.213 16.549 9.589 25.916 15.282C144.765 221.212 169.098 236 193 245.268V1.464c-23.93 9.4-48.258 24.338-69.746 37.531-9.363 5.749-18.207 11.179-25.893 15.427C70.128 69.521 53.848 73.009 1 74.985v97.713c52.626 1.683 68.902 5.104 96.358 20.171z" fill="none"/><path fill="#EBEBEB" d="M123.273 208.151c-9.366-5.693-18.214-11.069-25.916-15.282C69.902 177.802 53.626 174.381 1 172.698H0v.97l.484.016c52.812 1.67 69.027 5.046 96.394 20.063 7.683 4.202 16.521 9.573 25.877 15.261 21.73 13.206 46.361 28.175 70.566 37.456l.679.26v-1.045l-1-.411c-23.902-9.268-48.235-24.056-69.727-37.117zM194 0l-.681.265c-24.232 9.415-48.86 24.536-70.588 37.877-9.354 5.743-18.188 11.167-25.854 15.404C69.734 68.596 53.518 72.037.481 74.002L0 74.02v.965h1c52.848-1.976 69.128-5.463 96.361-20.563 7.686-4.248 16.53-9.678 25.893-15.427C144.742 25.802 169.07 10.864 193 1.464l1-.375V0z"/></svg>