<svg xmlns="http://www.w3.org/2000/svg" width="194" height="249" viewBox="0 0 194 249"><path opacity=".1" fill-rule="evenodd" clip-rule="evenodd" d="M.5 245.997V249c34.84-13.354 71.27-38.952 96.38-52.687 27.63-15.167 43.92-18.461 96.62-20.123v-3.003c-52.7 1.662-68.99 4.955-96.62 20.122C71.77 207.045 35.34 232.643.5 245.997z"/><path opacity=".3" fill-rule="evenodd" clip-rule="evenodd" fill="#fff" d="M193.5 173.184c-52.697 1.667-68.992 4.964-96.618 20.124C71.774 207.043 35.336 232.639.5 245.997V.731c34.885 13.554 71.341 39.415 96.381 53.252 27.577 15.291 43.738 18.56 96.619 20.519v98.682z"/><path d="M96.642 192.869c-7.702 4.213-16.549 9.589-25.916 15.282C49.235 221.212 24.902 236 1 245.268V1.464c23.93 9.4 48.258 24.338 69.746 37.531 9.363 5.749 18.207 11.179 25.893 15.427 27.233 15.1 43.512 18.587 96.361 20.563v97.713c-52.626 1.683-68.902 5.104-96.358 20.171z" fill="none"/><path fill="#EBEBEB" d="M70.727 208.151c9.366-5.693 18.214-11.069 25.916-15.282 27.456-15.067 43.732-18.488 96.358-20.171h1v.97l-.484.016c-52.812 1.67-69.027 5.046-96.394 20.063-7.683 4.202-16.521 9.573-25.877 15.261-21.73 13.206-46.361 28.175-70.566 37.456l-.68.26v-1.045l1-.411c23.902-9.268 48.235-24.056 69.727-37.117zM0 0l.681.265c24.232 9.415 48.86 24.536 70.588 37.877 9.354 5.743 18.188 11.167 25.854 15.404 27.143 15.05 43.358 18.492 96.396 20.457l.481.017v.965h-1c-52.849-1.976-69.128-5.463-96.361-20.563-7.686-4.248-16.53-9.678-25.893-15.427C49.258 25.802 24.93 10.864 1 1.464l-1-.375V0z"/></svg>