<svg xmlns="http://www.w3.org/2000/svg" width="246.725" height="194.002" viewBox="-26 26 246.725 194.002"><path opacity=".3" fill="#fff" d="M147.184 26.501c1.668 52.697 4.965 68.992 20.125 96.618 13.734 25.107 39.33 61.545 52.688 96.381-81.756.002-163.51.002-245.265.002 13.554-34.885 39.415-71.342 53.252-96.382 15.291-27.577 18.56-43.738 20.519-96.619h98.681z"/><path d="M166.869 123.359c4.213 7.702 9.588 16.549 15.281 25.917C195.211 170.766 210 195.1 219.268 219l-243.804.002c9.4-23.932 24.338-48.258 37.531-69.746 5.749-9.363 11.179-18.207 15.427-25.894 15.1-27.233 18.587-43.511 20.563-96.361h97.712c1.684 52.626 5.104 68.902 20.172 96.358z" fill="none"/><path fill="#EBEBEB" d="M182.15 149.273c-5.693-9.365-11.068-18.213-15.281-25.916C151.801 95.901 148.381 79.626 146.697 27v-1h.971l.016.483c1.67 52.813 5.047 69.027 20.063 96.395 4.203 7.683 9.574 16.521 15.262 25.876 13.205 21.73 28.176 46.361 37.455 70.566l.262.68h-1.045l-.412-1c-9.269-23.9-24.058-48.234-37.119-69.727zM-26 220.002l.265-.682c9.415-24.232 24.536-48.859 37.877-70.588 5.743-9.354 11.167-18.188 15.404-25.854 15.05-27.143 18.492-43.357 20.457-96.396l.017-.48h.965v1c-1.976 52.85-5.463 69.128-20.563 96.361-4.248 7.687-9.678 16.531-15.427 25.894-13.193 21.488-28.131 45.814-37.531 69.746l-.375 1H-26z"/></svg>