<svg xmlns="http://www.w3.org/2000/svg" width="53" height="53" viewBox="0 0 53 53"><path fill-rule="evenodd" clip-rule="evenodd" d="M37.5 52S25 40.4 25 32c0-1.3 0-2.3.3-3.2 3.3-.2 6-3 6-6.2 0-.2 0-.4-.2-.6 2-.7 4-1 6.4-1 2.3 0 4.5.4 6.3 1v.6c0 3.3 2.5 6 6 6.2l.2 3C50 40.5 37.4 52 37.4 52zM22 22c-5.5 0-10-4.5-10-10S16.5 2 22 2s10 4.5 10 10-4.5 10-10 10zm-1 8.7c0 7.5 7 16.7 11.8 22.3H3V39.5c0-6.6 8-12 18.3-12.5-.2 1.2-.3 2.4-.3 3.7z" opacity=".1"/><path fill-rule="evenodd" clip-rule="evenodd" fill="#FFF" d="M37.5 50S25 38.4 25 30c0-1.3 0-2.3.3-3.2 3.3-.2 6-3 6-6.2 0-.2 0-.4-.2-.6 2-.7 4-1 6.4-1 2.3 0 4.5.4 6.3 1v.6c0 3.3 2.5 6 6 6.2l.2 3C50 38.5 37.4 50 37.4 50zM22 20c-5.5 0-10-4.5-10-10S16.5 0 22 0s10 4.5 10 10-4.5 10-10 10zm-1 8.7c0 7.5 7 16.7 11.8 22.3H3V37.5c0-6.6 8-12 18.3-12.5-.2 1.2-.3 2.4-.3 3.7z"/></svg>