<svg xmlns="http://www.w3.org/2000/svg" width="250" height="250" viewBox="0 0 250 250"><linearGradient id="a" gradientUnits="userSpaceOnUse" x1="125" y1="250" x2="125"><stop offset="0" stop-color="#3C3839"/><stop offset="1"/></linearGradient><path fill="url(#a)" d="M125 250c-4.3 0-8.3-1.7-11.4-4.7L4.7 136.4c-3-3-4.7-7.1-4.7-11.4 0-4.3 1.7-8.3 4.7-11.4L113.6 4.7c3-3 7.1-4.7 11.4-4.7 4.3 0 8.3 1.7 11.4 4.7l108.9 108.9c6.3 6.3 6.3 16.5 0 22.7l-108.9 109c-3.1 3-7.1 4.7-11.4 4.7z"/><linearGradient id="b" gradientUnits="userSpaceOnUse" x1="126.76" y1="215.53" x2="126.76" y2="42.95" gradientTransform="rotate(45 131.002 125)"><stop offset="0" stop-color="#FAB14A"/><stop offset="1" stop-color="#FBE110"/></linearGradient><path fill="url(#b)" d="M118.4 240.5L9.5 131.6c-3.6-3.6-3.6-9.5 0-13.1l108.9-109c3.6-3.6 9.5-3.6 13.1 0l108.9 108.9c3.6 3.6 3.6 9.5 0 13.1l-108.8 109c-3.7 3.6-9.5 3.6-13.2 0z"/><path opacity=".5" d="M240.5 131.6L131.6 240.5c-3.6 3.6-9.5 3.6-13.1 0L9.5 131.6C8 130 7.1 128 6.9 126c-.3 2.7.6 5.5 2.7 7.6l108.9 108.9c3.6 3.6 9.5 3.6 13.1 0l108.9-108.9c2.1-2.1 2.9-4.9 2.7-7.6-.3 2-1.2 4-2.7 5.6z"/><path opacity=".5" fill="#FFF" d="M9.5 121.4L118.4 12.5c3.6-3.6 9.5-3.6 13.1 0l108.9 108.9c1.4 1.4 2.3 3.2 2.6 5.1.5-2.8-.4-5.9-2.6-8.1L131.6 9.5c-3.6-3.6-9.5-3.6-13.1 0L9.5 118.4c-2.2 2.2-3.1 5.2-2.6 8.1.3-1.9 1.2-3.6 2.6-5.1z"/><path fill="#FFF" d="M169 157.3l-32.1-32.1 7-7c6.5 2.5 14.1 1.2 19.3-4 4.3-4.3 5.9-10.1 5-15.7-.3-2-2.8-2.7-4.2-1.3l-7.7 7.7c-1.6 1.6-4.3 1.6-6 0l-3.3-3.3c-1.6-1.6-1.6-4.3 0-6l7.7-7.7c1.4-1.4.6-3.8-1.3-4.2-5.8-1-11.9.9-16.2 5.6-4.7 5.2-5.9 12.5-3.4 18.7l-7 7-12.9-12.9 12.2-12.2-3.1-3.1-21.2 1.3-1 1-2.5-2.5c-1.6-1.6-4.3-1.6-6 0l-4.1 4.1c-1.6 1.6-1.6 4.3 0 6l2.5 2.5-10.2 10.2c-1.1 1.1-1.1 2.9 0 4l9 9c1.1 1.1 2.9 1.1 4 0l10.2-10.2 12.9 12.9L82.9 159c-1.8 1.8-1.8 4.7 0 6.5l3.6 3.6c1.8 1.8 4.7 1.8 6.5 0l33.8-33.8 32.1 32.1c1.6 1.6 4.3 1.6 6 0l4.1-4.1c1.7-1.7 1.7-4.4 0-6z" opacity=".7"/><path fill="#1C1C1C" d="M169 155.3l-32.1-32.1 7-7c6.5 2.5 14.1 1.2 19.3-4 4.3-4.3 5.9-10.1 5-15.7-.3-2-2.8-2.7-4.2-1.3l-7.7 7.7c-1.6 1.6-4.3 1.6-6 0l-3.3-3.3c-1.6-1.6-1.6-4.3 0-6l7.7-7.7c1.4-1.4.6-3.8-1.3-4.2-5.8-1-11.9.9-16.2 5.6-4.7 5.2-5.9 12.5-3.4 18.7l-7 7-12.9-12.9 12.2-12.2-3.1-3.1-21.2 1.3-1 1-2.5-2.5c-1.6-1.6-4.3-1.6-6 0l-4.1 4.1c-1.6 1.6-1.6 4.3 0 6l2.5 2.5-10.2 10.2c-1.1 1.1-1.1 2.9 0 4l9 9c1.1 1.1 2.9 1.1 4 0l10.2-10.2 12.9 12.9L82.9 157c-1.8 1.8-1.8 4.7 0 6.5l3.6 3.6c1.8 1.8 4.7 1.8 6.5 0l33.8-33.8 32.1 32.1c1.6 1.6 4.3 1.6 6 0l4.1-4.1c1.7-1.7 1.7-4.4 0-6z"/><path opacity=".25" fill="#FFF" d="M245.3 136.4l-54.5 54.5L59.2 59.2l54.5-54.5c3-3 7.1-4.7 11.4-4.7s8.3 1.7 11.4 4.7l108.9 108.9c6.2 6.3 6.2 16.5-.1 22.8z"/><path d="M110.8 170.8h-2l-3-5.3v5.3h-2.1v-8.5h2.1l3 5.3v-5.3h2.1v8.5zm8.5-4.1c0 2.2-1.3 4.1-3.6 4.2-2.4.1-3.9-1.8-3.9-4.1v-.5c0-2.2 1.4-4.2 3.7-4.2 2.3 0 3.7 2 3.7 4.2v.4zm-2-.3c0-1.1-.3-2.7-1.7-2.6-1.2.1-1.5 1.3-1.5 2.3v.6c0 1.1.3 2.6 1.7 2.6 1.3 0 1.6-1.5 1.6-2.6v-.3zm8.3 4.4h-2.1v-8.5h2.1v8.5zm8.3-2.9c-.1 2.3-2.3 3.3-4.4 2.9-2-.4-2.8-2.3-2.8-4.1v-.4c0-2 1.1-4 3.2-4.1 2-.2 3.7 1 3.9 3.1h-2.1c0-1-.8-1.6-1.8-1.4-1.1.2-1.2 1.5-1.2 2.4v.6c0 .8 0 2.1.9 2.4 1 .4 2.1-.2 2.1-1.3h2.2zm8.2-1.2c0 2.2-1.3 4.1-3.6 4.2-2.4.1-3.9-1.8-3.9-4.1v-.5c0-2.2 1.4-4.2 3.7-4.2 2.3 0 3.7 2 3.7 4.2v.4zm-2.1-.3c0-1.1-.3-2.7-1.7-2.6-1.2.1-1.5 1.3-1.5 2.3v.6c0 1.1.3 2.6 1.7 2.6 1.3 0 1.6-1.5 1.6-2.6v-.3zm10.3 4.4h-2l-3-5.3v5.3h-2.1v-8.5h2.1l3 5.3v-5.3h2.1v8.5z" fill="#FFF" opacity=".5"/><path d="M110.8 169.8h-2l-3-5.3v5.3h-2.1v-8.5h2.1l3 5.3v-5.3h2.1v8.5zm8.5-4.1c0 2.2-1.3 4.1-3.6 4.2-2.4.1-3.9-1.8-3.9-4.1v-.5c0-2.2 1.4-4.2 3.7-4.2 2.3 0 3.7 2 3.7 4.2v.4zm-2-.3c0-1.1-.3-2.7-1.7-2.6-1.2.1-1.5 1.3-1.5 2.3v.6c0 1.1.3 2.6 1.7 2.6 1.3 0 1.6-1.5 1.6-2.6v-.3zm8.3 4.4h-2.1v-8.5h2.1v8.5zm8.3-2.9c-.1 2.3-2.3 3.3-4.4 2.9-2-.4-2.8-2.3-2.8-4.1v-.4c0-2 1.1-4 3.2-4.1 2-.2 3.7 1 3.9 3.1h-2.1c0-1-.8-1.6-1.8-1.4-1.1.2-1.2 1.5-1.2 2.4v.6c0 .8 0 2.1.9 2.4 1 .4 2.1-.2 2.1-1.3h2.2zm8.2-1.2c0 2.2-1.3 4.1-3.6 4.2-2.4.1-3.9-1.8-3.9-4.1v-.5c0-2.2 1.4-4.2 3.7-4.2 2.3 0 3.7 2 3.7 4.2v.4zm-2.1-.3c0-1.1-.3-2.7-1.7-2.6-1.2.1-1.5 1.3-1.5 2.3v.6c0 1.1.3 2.6 1.7 2.6 1.3 0 1.6-1.5 1.6-2.6v-.3zm10.3 4.4h-2l-3-5.3v5.3h-2.1v-8.5h2.1l3 5.3v-5.3h2.1v8.5z" fill="#1C1C1C"/></svg>