<svg xmlns="http://www.w3.org/2000/svg" xmlns:xlink="http://www.w3.org/1999/xlink" width="500" height="500" viewBox="0 0 500 500"><defs><style>.a{fill:#231f20}.b{fill:url(#a)}.c{fill:url(#b)}.d{fill:url(#c)}.e{fill:url(#d)}.f{fill:#fff}.g{fill:#ffd8f4}.h{fill:url(#e)}</style><radialGradient id="a" cx="250.2" cy="234.65" r="158.66" gradientTransform="matrix(1 0 0 -1 0 500)" gradientUnits="userSpaceOnUse"><stop offset="0" stop-color="#fff"/><stop offset=".51" stop-color="#fdfdfd"/><stop offset=".7" stop-color="#f6f6f6"/><stop offset=".83" stop-color="#ebebeb"/><stop offset=".94" stop-color="#dadada"/><stop offset="1" stop-color="#ccc"/></radialGradient><linearGradient id="b" x1="183.8" y1="34.1" x2="183.8" gradientTransform="matrix(1 0 0 -1 0 500)" gradientUnits="userSpaceOnUse"><stop offset="0" stop-color="#ffe773"/><stop offset=".22" stop-color="#ffe36e"/><stop offset=".48" stop-color="#ffd960"/><stop offset=".76" stop-color="#ffc748"/><stop offset="1" stop-color="#ffb42e"/></linearGradient><linearGradient id="c" x1="318.5" y1="34.1" x2="318.5" xlink:href="#b"/><linearGradient id="d" x1="250.1" y1="429.1" x2="250.1" y2="272.7" xlink:href="#b"/><radialGradient id="e" cx="250.12" cy="349.65" r="18.09" gradientTransform="matrix(1 0 0 -1 0 500)" gradientUnits="userSpaceOnUse"><stop offset="0" stop-color="#f7e563"/><stop offset=".09" stop-color="#f4df5a"/><stop offset=".32" stop-color="#f0d44b"/><stop offset=".59" stop-color="#eece43"/><stop offset="1" stop-color="#edcc40"/></radialGradient></defs><title>Artboard 1</title><path class="a" d="M407 272c-17.91-28.65-37.25-50.93-50.2-59.14-.92-2.26-10.6-21.66-13.8-31.16 5.9-13 11-31.4 11-46.6a104.18 104.18 0 0 0-74.17-99.76 44.42 44.42 0 0 1 7.87-18.54c-10.7 7-12.2 16.6-12.2 16.6s-3.7-10.1 11.6-26.6c-10.8 2.7-21.6 19.3-21.6 19.3s-3.4-4.7 18.3-26.1c-16.73 2.57-33.23 23.7-38.42 30.9a104.12 104.12 0 0 0-88.48 151.6c-4.7 9.74-9.16 19.85-13.37 30.15-13 8-32.47 30.45-50.53 59.35-25 40-37.7 77.1-28.4 82.9 7.35 4.59 26.28-11.72 46.23-38.52-5.84 25.71-9 47.89-9 62.52 0 66.9 66.4 121.1 148.4 121.1s148.4-54.2 148.4-121.1c-.09-14.54-3.28-36.53-9.07-62 19.82 26.51 38.56 42.59 45.87 38C444.7 349.1 432 312 407 272z"/><path class="b" d="M325 198.5c4.7-10.5 9.1-26.1 9.1-38.4A84.32 84.32 0 0 0 253 75.9c-.5 0-.9-.2-1.4-.2-.2 0-.4.1-.6.1-.4 0-.8-.1-1.2-.1a84.15 84.15 0 0 0-75 122.6c-27.2 56.2-44.5 128-44.5 158.8 0 54.1 53.7 97.9 119.9 97.9s119.9-43.8 119.9-97.9c-.1-27.3-21.92-112.78-45.1-158.6z"/><path class="c" d="M183.8 465.9a34.14 34.14 0 0 0-34.1 34.1h68.2a34.08 34.08 0 0 0-34.1-34.1z"/><path class="d" d="M318.5 465.9a34.14 34.14 0 0 0-34.1 34.1h68.2a34.14 34.14 0 0 0-34.1-34.1z"/><path class="e" d="M335.5 149.1c0 43.2-38.2 78.2-85.4 78.2s-85.4-35-85.4-78.2 38.2-78.2 85.4-78.2 85.4 35 85.4 78.2z"/><path class="a" d="M334.1 139.9a84 84 0 1 1-84-84 84 84 0 0 1 84 84z"/><circle class="f" cx="200" cy="117.2" r="34"/><path class="a" d="M211.1 103.7a13.5 13.5 0 1 0 13.5 13.5 13.51 13.51 0 0 0-13.5-13.5z"/><path class="f" d="M220.2 111.7a3.9 3.9 0 1 1-7.8 0 3.84 3.84 0 0 1 3.9-3.9 4 4 0 0 1 3.9 3.9z"/><circle class="f" cx="221.3" cy="117.5" r="1.8"/><circle class="f" cx="215.4" cy="122" r="1.7"/><path class="f" d="M300.1 151.2a34 34 0 1 0-34-34 34 34 0 0 0 34 34z"/><path class="a" d="M287.4 103.7a13.5 13.5 0 1 1-13.5 13.5 13.51 13.51 0 0 1 13.5-13.5z"/><path class="f" d="M296.4 111.7a3.84 3.84 0 0 1-3.9 3.9 3.9 3.9 0 0 1-3.9-3.9 3.84 3.84 0 0 1 3.9-3.9 4 4 0 0 1 3.9 3.9z"/><circle class="f" cx="297.5" cy="117.5" r="1.8"/><circle class="f" cx="291.6" cy="122" r="1.7"/><path class="g" d="M268.1 155.1l-7 12.1c-3.1 5.3-7.1 12.7-11.2 12.7s-8.1-7.3-11.2-12.7l-7-12.1c-4.1-7.2-3.2-13.4 1.6-16.7l12.1-2.7H257c12.3 0 17.3 8.7 11.1 19.4z"/><path class="h" d="M257.1 135.4h-14c-12.3 0-17.3 5.9-11.2 13.1l7 8.2c3.1 3.6 7.1 8.6 11.2 8.6s8.1-5 11.2-8.6l7-8.2c6.2-7.2 1.1-13.1-11.2-13.1z"/></svg>