<svg xmlns="http://www.w3.org/2000/svg" xmlns:xlink="http://www.w3.org/1999/xlink" width="605" height="514" viewBox="0 0 605 514"><defs><style>.a{fill:#b755c8}.b{fill:#89a1ad}.b,.c,.d,.e,.f,.h,.i,.j{fill-rule:evenodd}.c{fill:#ffdf64}.d{fill:#4f99ff}.e{fill:#36b4d7}.f{fill:#28d600}.g,.j{fill:#f489ff}.h{fill:#ff9b65}.i{fill:#fa9a34}.k{opacity:.1}.l{fill:#231f20}.m{fill:url(#a)}.n{fill:url(#b)}.o{fill:url(#c)}.p{fill:url(#d)}.q{fill:#fff}.r{fill:#ffd8f4}.s{fill:url(#e)}</style><radialGradient id="a" cx="302.62" cy="59.05" r="92.64" gradientTransform="matrix(1 0 0 -1 0 390)" gradientUnits="userSpaceOnUse"><stop offset="0" stop-color="#fff"/><stop offset=".51" stop-color="#fdfdfd"/><stop offset=".7" stop-color="#f6f6f6"/><stop offset=".83" stop-color="#ebebeb"/><stop offset=".94" stop-color="#dadada"/><stop offset="1" stop-color="#ccc"/></radialGradient><linearGradient id="b" x1="263.85" y1="-58.05" x2="263.85" y2="-77.96" gradientTransform="matrix(1 0 0 -1 0 390)" gradientUnits="userSpaceOnUse"><stop offset="0" stop-color="#ffe773"/><stop offset=".22" stop-color="#ffe36e"/><stop offset=".48" stop-color="#ffd960"/><stop offset=".76" stop-color="#ffc748"/><stop offset="1" stop-color="#ffb42e"/></linearGradient><linearGradient id="c" x1="342.5" y1="-58.05" x2="342.5" y2="-77.96" xlink:href="#b"/><linearGradient id="d" x1="302.56" y1="172.58" x2="302.56" y2="81.26" xlink:href="#b"/><radialGradient id="e" cx="302.57" cy="126.19" r="10.56" gradientTransform="matrix(1 0 0 -1 0 390)" gradientUnits="userSpaceOnUse"><stop offset="0" stop-color="#f7e563"/><stop offset=".09" stop-color="#f4df5a"/><stop offset=".32" stop-color="#f0d44b"/><stop offset=".59" stop-color="#eece43"/><stop offset="1" stop-color="#edcc40"/></radialGradient></defs><title>epic-confetti</title><circle class="a" cx="238.43" cy="145.22" r="9.75"/><path class="b" d="M100 194.85c-7-2.81-14.23-1.23-16.13 3.51S86.1 209.23 93.1 212s14.22 1.23 16.13-3.52-2.23-10.83-9.23-13.63z"/><path class="c" d="M168.67 176.62c.85-1.78 2.65-3 7-3.23-2.63-2.31-7.47-2.72-9.77-.1a6.32 6.32 0 0 0 5.16 10.47c-1.66-1.76-3.43-4.93-2.39-7.14zm-4.87-20.12c-21.61-1.73-25.49 15.5-25.49 15.5l10.44 7s-.76-6.43 5.37-11.87c6.53-5.79 14.19-5.21 19.15-.86 4.07 3.58 7.86 11.58-1.53 17.76 13.8-3.42 9.26-26.15-7.94-27.53zM533.21 59.49c.85-1.78 2.65-3 7-3.23-2.63-2.31-7.47-2.72-9.77-.1a6.32 6.32 0 0 0 5.16 10.47c-1.66-1.81-3.43-4.93-2.39-7.14zm-4.87-20.12c-21.61-1.73-25.49 15.48-25.49 15.48l10.44 7s-.76-6.43 5.37-11.87c6.53-5.79 14.19-5.21 19.15-.86 4.07 3.58 7.86 11.58-1.53 17.76 13.81-3.4 9.25-26.14-7.93-27.51z"/><path class="d" d="M442 280.33c3.44.41 9.84-.52 12.69-2.13C429.1 278 432 252.6 432 252.6c-9.66 12.69.75 26.62 10 27.73zm4.07-36.17c-6.27 0-11.4 4.18-13.4 6.46 20-7.39 34.32 14.09 25.81 25.8-11.95 15.63-27.94 9.17-41.44-1l-1 12.68c28.7 12.65 42-7.85 43.77-11.53 4-7.42 4.14-8.9 4.74-13.87.73-11.76-10.13-18.51-18.44-18.54zm26.61 7.38c.83 19.56-12.29 25-12.29 25 14.23-.76 19.07-16.64 19.07-16.64s.73.52-6.74-8.35z"/><path class="e" d="M380 104.1c-12.26-18.68-23.67-26.36-57.74-10.68l.56 12.7c13.86-9.71 37.23-24 55.52-.25 8.08 12-3.77 33.62-23.47 25.52 1.92 2.36 6.89 6.73 13.17 6.94 8.3.28 18.63-5.16 17.5-18.71-.45-4.98-1.87-7.96-5.54-15.52zm-3 2.55a17.89 17.89 0 0 0-10.19-2.71c-10.58.93-21 11.95-12.38 26.8.05 0-3.08-21.63 22.57-24.09zm27.75 10.66s-9.12-13.88-23-10.6c0 0 14.12 1.53 18.84 20.54 4.73-10.62 4.2-9.93 4.2-9.93z"/><path class="f" d="M234.12 82l20.09-17.08-2.63 23.29L234.12 82z"/><path class="g" d="M138.339 110.613l6.709-4.592 4.592 6.709-6.71 4.592zM309.08 43.802l6.708-4.592 4.593 6.71-6.71 4.591z"/><path class="d" d="M202.22 229.18l8.13-14.63 19.51 7.72-14.63 6.91h-13.01z"/><path class="h" d="M511.33 191.5c-5.94-2.09-9.59-7-8.17-11.06s7.38-5.58 13.3-3.5 9.59 7 8.17 11.05-7.38 5.6-13.3 3.51zM82.94 60.34c-5.94-2.09-9.59-7-8.17-11.06s7.38-5.58 13.3-3.5 9.59 7 8.17 11.05-7.37 5.59-13.3 3.51z"/><path class="i" d="M478.86 106.03h8.13l.38 11.27-8.51-3.14v-8.13z"/><path class="a" d="M151.194 290.721l7.876-2.014 2.011 7.867-7.876 2.014z"/><path class="h" d="M573.62 119.35l-11.05-7.32 1.03-8.06 8.06 1.03 1.96 14.35zM197.99 46.94l-11.05-7.32 1.03-8.06 8.07 1.03 1.95 14.35z"/><path class="j" d="M420.22 185.87l4.53-19.7 23.04 6.14-3.8 10.09-23.77 3.47zM40.37 141.02l4.53-19.7 23.04 6.14-3.8 10.09-23.77 3.47z"/><path class="h" d="M368.18 207.32l-2.06-20.35 20.24 32.95-18.18-12.6zM402.05 43.08l-2.07-20.35 20.24 32.95-18.17-12.6z"/><ellipse class="k" cx="302.62" cy="467.96" rx="87.93" ry="12.58"/><ellipse class="k" cx="263.36" cy="467.96" rx="24.72" ry="5.29"/><ellipse class="k" cx="342.5" cy="467.96" rx="24.72" ry="5.29"/><path class="l" d="M394.17 334.83c-10.46-16.73-21.75-29.74-29.31-34.53-.54-1.32-6.19-12.64-8.06-18.19 3.44-7.59 6.42-18.33 6.42-27.21a60.83 60.83 0 0 0-43.31-58.25 25.93 25.93 0 0 1 4.59-10.83c-6.25 4.09-7.12 9.69-7.12 9.69s-2.16-5.9 6.77-15.53c-6.31 1.58-12.61 11.27-12.61 11.27s-2-2.74 10.68-15.24c-9.77 1.5-19.4 13.84-22.43 18a60.79 60.79 0 0 0-51.66 88.52c-2.74 5.69-5.35 11.59-7.8 17.6-7.56 4.69-19 17.78-29.51 34.65-14.6 23.36-22 45-16.58 48.4 4.29 2.68 15.34-6.84 27-22.49-3.41 15-5.27 28-5.27 36.51 0 39.06 38.77 70.71 86.65 70.71s86.65-31.65 86.65-70.71c0-8.49-1.92-21.33-5.3-36.22 11.58 15.48 22.52 24.87 26.78 22.21 5.43-3.34-1.98-25-16.58-48.36z"/><path class="m" d="M346.29 291.92c2.74-6.13 5.31-15.24 5.31-22.42a49.23 49.23 0 0 0-47.35-49.16c-.29 0-.53-.12-.82-.12-.12 0-.23.06-.35.06s-.47-.06-.7-.06a49.13 49.13 0 0 0-43.79 71.58c-15.88 32.81-26 74.74-26 92.72 0 31.59 31.35 57.16 70 57.16s70-25.57 70-57.16c-.02-15.94-12.77-65.85-26.3-92.6z"/><path class="n" d="M263.85 448a19.93 19.93 0 0 0-19.91 20h39.82a19.9 19.9 0 0 0-19.91-20z"/><path class="o" d="M342.5 448a19.93 19.93 0 0 0-19.91 20h39.82a19.93 19.93 0 0 0-19.91-20z"/><path class="p" d="M352.42 263.08c0 25.22-22.3 45.66-49.86 45.66s-49.86-20.44-49.86-45.66 22.3-45.66 49.86-45.66 49.86 20.43 49.86 45.66z"/><path class="l" d="M351.6 257.7a49 49 0 1 1-49-49 49 49 0 0 1 49 49z"/><circle class="q" cx="273.31" cy="244.45" r="19.85"/><path class="l" d="M279.79 236.57a7.88 7.88 0 1 0 7.88 7.88 7.89 7.89 0 0 0-7.88-7.88z"/><path class="q" d="M285.1 241.24a2.28 2.28 0 1 1-4.55 0 2.24 2.24 0 0 1 2.28-2.28 2.36 2.36 0 0 1 2.27 2.28z"/><circle class="q" cx="285.74" cy="244.63" r="1.05"/><circle class="q" cx="282.3" cy="247.25" r=".99"/><path class="q" d="M331.75 264.3a19.85 19.85 0 1 0-19.85-19.85 19.84 19.84 0 0 0 19.85 19.85z"/><path class="l" d="M324.34 236.57a7.88 7.88 0 1 1-7.88 7.88 7.89 7.89 0 0 1 7.88-7.88z"/><path class="q" d="M329.59 241.24a2.24 2.24 0 0 1-2.28 2.28 2.28 2.28 0 0 1-2.28-2.28 2.24 2.24 0 0 1 2.28-2.28 2.36 2.36 0 0 1 2.28 2.28z"/><circle class="q" cx="330.23" cy="244.63" r="1.05"/><circle class="q" cx="326.79" cy="247.25" r=".99"/><path class="r" d="M313.07 266.58l-4.07 7.06c-1.81 3.09-4.15 7.42-6.54 7.42s-4.73-4.26-6.54-7.42l-4.09-7.07c-2.39-4.2-1.87-7.82.93-9.75l7.07-1.58h6.77c7.17.01 10.09 5.09 6.47 11.34z"/><path class="s" d="M306.65 255.08h-8.17c-7.18 0-10.1 3.44-6.54 7.65l4.09 4.79c1.81 2.1 4.15 5 6.54 5s4.73-2.92 6.54-5l4.09-4.79c3.61-4.21.63-7.65-6.55-7.65z"/></svg>