<svg xmlns="http://www.w3.org/2000/svg" width="10" height="20" viewBox="0 0 10 20"><path fill="#8AB71F" d="M9.62 11.898H3.165c-.126.254-.253.38-.38.507-.506.886-.253 2.151.506 2.784.886.76 2.152.76 3.164.507.507-.126 1.14-.38 1.52-.633.38 0 .887-.507 1.139-.38.634.127.381 1.393.127 1.771-1.139 1.393-4.43 1.267-5.949.76-2.025-.76-3.417-3.037-2.658-5.316H.38c-.506 0-.506-1.393 0-1.393h1.139C2.152 10 3.038 9.494 3.797 9.114l.76-.379H.38c-.506 0-.506-1.393 0-1.393h6.329l.127-.253c1.519-2.279-1.52-3.418-3.292-2.912-.379.127-1.519 1.013-1.898.886-.633-.127-.38-1.393-.126-1.772 1.012-1.139 3.67-1.013 4.935-.633 2.025.633 3.165 2.658 2.532 4.684h.633c.507 0 .507 1.393 0 1.393H8.229s-2.658 1.771-2.786 1.771H9.62c.507.127.507 1.392 0 1.392z"/></svg>