<svg xmlns="http://www.w3.org/2000/svg" width="100" height="100" viewBox="0 0 100 100"><path fill-rule="evenodd" clip-rule="evenodd" fill="#8AB71F" d="M65.879 50.891c-.41 3.853-6.251 4.301-5.836.409.365-3.46-.277-8.537-2.381-12.037-.053 4.374 0 32.789 0 43.335.189 4.479-5.766 4.46-5.955 0 0-7.894.021-16.175 0-24.075a47.29 47.29 0 0 1-2.382 0c-.019 7.901 0 15.471 0 24.075-.187 4.46-6.143 4.479-5.955 0V39.263c-1.757 3.483-2.725 7.585-2.382 10.833.414 3.895-5.438 4.652-5.846.798-.942-8.914 2.712-20.078 12.992-21.262 1.513-.351 3.223-.307 4.764 0 10.797.749 13.945 12.16 12.981 21.259zM50.503 26.038c-3.291 0-5.959-2.694-5.959-6.02 0-3.323 2.668-6.019 5.959-6.019 3.292 0 5.959 2.695 5.959 6.019.001 3.326-2.666 6.02-5.959 6.02z"/></svg>