<svg xmlns="http://www.w3.org/2000/svg" width="157.471" height="157.473" viewBox="0 0 157.471 157.473"><circle fill="#fff" cx="78.735" cy="78.735" r="78.735"/><g opacity=".8"><path fill="#FFD26F" d="M83.314 123.559c1.586-5.855 4.936-10.821 9.205-15.046 4.351-4.305 9.214-8.021 14.639-10.87a90.112 90.112 0 0 1 1.96-.997c.212-.105 1.284-.818 1.484-.728.433.172-1.045.995-1.19 1.091-.734.477-1.476.944-2.208 1.424-2.609 1.71-4.976 3.755-7.322 5.802-4.549 3.974-8.16 8.935-11.802 13.715-.829 1.088-1.701 2.137-2.511 3.24-.334.455-1.693 2.679-2.255 2.369.713-2.632.252.139 0 0z"/><path fill="#F9493D" d="M94.791 104.629s-4.099-3.33-4.238-7.6c-.131-4.262 3.742-7.849 3.742-7.849s4.096 3.327 4.233 7.593c.138 4.268-3.737 7.856-3.737 7.856z"/><path opacity=".05" d="M90.553 97.029c.141 4.27 4.238 7.6 4.238 7.6l-.496-15.447c0-.001-3.873 3.586-3.742 7.847z"/><path fill="#F9493D" d="M104.146 97.352s-4.1-3.331-4.233-7.596c-.14-4.269 3.737-7.853 3.737-7.853s4.099 3.33 4.234 7.594c.137 4.269-3.738 7.855-3.738 7.855z"/><path opacity=".05" d="M99.912 89.757c.135 4.265 4.233 7.596 4.233 7.596l-.496-15.447c.001-.002-3.876 3.582-3.737 7.851z"/><path fill="#F9493D" d="M94.313 112.768s3.588 3.875 7.857 3.737c4.262-.139 7.592-4.235 7.592-4.235s-3.584-3.873-7.85-3.738c-4.269.136-7.599 4.236-7.599 4.236z"/><path opacity=".05" d="M102.17 116.506c-4.271.138-7.857-3.737-7.857-3.737l15.449-.498c0-.001-3.33 4.096-7.592 4.235z"/><path fill="#F9493D" d="M102.869 103.643s3.586 3.877 7.854 3.739c4.266-.141 7.594-4.236 7.594-4.236s-3.584-3.873-7.852-3.736c-4.27.135-7.596 4.233-7.596 4.233z"/><path opacity=".05" d="M110.723 107.383c-4.268.138-7.854-3.739-7.854-3.739l15.446-.497c.001-.001-3.327 4.095-7.592 4.236z"/><path fill="#F9493D" d="M111.404 94.96s4.982 1.749 8.689-.368c3.707-2.112 4.736-7.292 4.736-7.292s-4.984-1.751-8.688.366c-3.709 2.115-4.737 7.294-4.737 7.294z"/><path opacity=".05" d="M120.094 94.592c-3.707 2.117-8.689.368-8.689.368l13.427-7.66c-.002 0-1.031 5.179-4.738 7.292z"/></g><g opacity=".8"><path fill="#FFD26F" d="M67.941 117.754c-1.588-5.519-4.996-9.899-9.179-13.708a53.491 53.491 0 0 0-6.469-5.062c-2.396-1.586-4.982-2.716-7.504-4.064-.087-.068-.145-.044-.174.072-.058.203.566.463.688.541.667.421 1.334.839 2.004 1.255 1.263.781 2.462 1.66 3.626 2.582 2.311 1.828 4.528 3.753 6.52 5.928 1.961 2.14 3.747 4.439 5.555 6.707.904 1.133 1.843 2.244 2.718 3.399.303.398 1.718 2.633 2.215 2.35-.633-2.2-.209.119 0 0z"/><path fill="#F9493D" d="M58.072 102.003s3.398-2.846 3.464-6.432c.063-3.581-3.236-6.543-3.236-6.543s-3.398 2.845-3.461 6.427c-.066 3.584 3.233 6.548 3.233 6.548z"/><path opacity=".05" d="M61.535 95.571c-.064 3.586-3.464 6.432-3.464 6.432l.228-12.975s3.299 2.962 3.236 6.543z"/><path fill="#F9493D" d="M50.129 96.009s3.397-2.847 3.461-6.429c.063-3.584-3.234-6.545-3.234-6.545s-3.399 2.846-3.461 6.428c-.065 3.585 3.234 6.546 3.234 6.546z"/><path opacity=".05" d="M53.59 89.58c-.063 3.582-3.461 6.429-3.461 6.429l.227-12.974c-.001 0 3.296 2.961 3.234 6.545z"/><path fill="#F9493D" d="M58.574 108.83s-2.964 3.299-6.55 3.236c-3.582-.064-6.426-3.463-6.426-3.463s2.961-3.296 6.545-3.234c3.586.061 6.431 3.461 6.431 3.461z"/><path opacity=".05" d="M52.025 112.066c3.586.063 6.55-3.236 6.55-3.236l-12.975-.226s2.843 3.398 6.425 3.462z"/><path fill="#F9493D" d="M51.279 101.275s-2.965 3.299-6.547 3.237c-3.584-.065-6.428-3.465-6.428-3.465s2.961-3.295 6.545-3.233c3.585.063 6.43 3.461 6.43 3.461z"/><path opacity=".05" d="M44.732 104.513c3.582.062 6.547-3.237 6.547-3.237l-12.975-.228c.001.001 2.844 3.399 6.428 3.465z"/><path fill="#F9493D" d="M44.006 94.092s-4.162 1.529-7.299-.2c-3.142-1.729-4.066-6.064-4.066-6.064s4.16-1.531 7.297.201c3.14 1.727 4.068 6.063 4.068 6.063z"/><path opacity=".05" d="M36.707 93.891c3.137 1.729 7.299.2 7.299.2l-11.365-6.266c0 .001.925 4.337 4.066 6.066z"/></g><path fill="#FBAE17" d="M77.48 126.236c-2.827-5.317-4.734-11.274-5.671-17.219-.991-6.289-.708-12.764-.133-19.082.576-6.315 1.601-12.636 3.339-18.739.863-3.03 1.877-6.014 2.973-8.967.152-.41 1.036-3.36 1.398-3.243.545.176-.628 3.756-.773 4.338-2.618 10.527-3.833 21.393-3.313 32.239.259 5.405.82 10.83 1.376 16.212.274 2.652.426 5.317.747 7.964.167 1.372.321 2.74.41 4.119.045.701.509 2.162-.353 2.378-2.217-4.17.483-.121 0 0z"/><path fill="#F9493D" d="M69.553 88.719s-9.123.648-14.354-4.581c-5.222-5.228-4.574-14.348-4.574-14.348s9.117-.647 14.348 4.578c5.228 5.226 4.58 14.351 4.58 14.351z"/><path opacity=".05" d="M55.197 84.137c5.232 5.229 14.355 4.581 14.355 4.581L50.623 69.79s-.646 9.12 4.574 14.347z"/><path fill="#F9493D" d="M72.752 68.439s-9.125.646-14.351-4.579c-5.229-5.23-4.58-14.352-4.58-14.352s9.125-.647 14.349 4.579c5.23 5.232 4.582 14.352 4.582 14.352z"/><path opacity=".05" d="M58.402 63.861c5.226 5.226 14.351 4.579 14.351 4.579L53.822 49.51s-.648 9.12 4.58 14.351z"/><path fill="#F9493D" d="M76.773 87.917s8.539 3.284 15.068-.188c6.521-3.474 8.566-12.386 8.566-12.386s-8.531-3.282-15.062.188C78.818 79 76.773 87.917 76.773 87.917z"/><path opacity=".05" d="M91.842 87.728c-6.529 3.474-15.068.188-15.068.188l23.636-12.574c-.002.001-2.047 8.913-8.568 12.386z"/><path fill="#F9493D" d="M80.049 69.001s8.789 2.535 14.994-1.485c6.199-4.027 7.465-13.083 7.465-13.083s-8.781-2.534-14.986 1.487c-6.206 4.025-7.473 13.081-7.473 13.081z"/><path opacity=".05" d="M95.043 67.515C88.838 71.536 80.049 69 80.049 69l22.459-14.567s-1.266 9.055-7.465 13.082z"/><path fill="#F9493D" d="M79.092 56.818s8.367-3.692 10.541-10.757c2.182-7.063-2.656-14.825-2.656-14.825s-8.369 3.689-10.541 10.757c-2.182 7.065 2.656 14.825 2.656 14.825z"/><path opacity=".05" d="M89.633 46.061c-2.174 7.064-10.541 10.757-10.541 10.757l7.885-25.582s4.837 7.762 2.656 14.825z"/></svg>