<svg xmlns="http://www.w3.org/2000/svg" width="157.471" height="157.473" viewBox="0 0 157.471 157.473"><circle fill="#fff" cx="78.736" cy="78.735" r="78.735"/><path fill="#FBAE17" d="M41.957 73.272l33.523-36.86 33.522 36.86z"/><path fill="#D83F35" d="M62.442 82.895H38.914v-9.388l23.528-5.091zm49.603 0H88.518V68.416l23.527 5.091z"/><path fill="#F9493D" d="M62.442 68.416h26.076v14.479H62.442zm3.15 13.129H86.17v35.375H65.592z"/><path fill="#D83F35" d="M86.17 81.545h15.274v35.375H86.17zm-35.851 0h15.273v35.375H50.319z"/><path fill="#F9493D" d="M113.537 126.236H38.226l2.51-8.488a6.18 6.18 0 0 1 5.926-4.428h58.442a6.18 6.18 0 0 1 5.924 4.428l2.509 8.488z"/><path opacity=".6" fill="#231F20" d="M76.86 113.32h-1.956a3.583 3.583 0 0 0-3.583 3.584v9.332h9.123v-9.332a3.586 3.586 0 0 0-3.584-3.584z"/><path fill="#FBAE17" d="M41.957 73.272l33.523-36.86 33.522 36.86z"/><path fill="#F9493D" d="M62.442 82.895H38.914v-9.388l23.528-5.091zm49.603 0H88.518V68.416l23.527 5.091zm-25.875-1.35h15.274v35.375H86.17z"/><path d="M86.17 82.895h15.274v34.024H86.17z" opacity=".1"/><path fill="#F9493D" d="M50.319 81.545h15.273v35.375H50.319z"/><path d="M50.319 82.895h15.273v34.024H50.319z" opacity=".1"/><path fill="#F9493D" d="M111.028 117.748a6.18 6.18 0 0 0-5.924-4.428H86.17V82.895h2.348V68.416H62.442v14.479h3.15v30.425H46.661a6.182 6.182 0 0 0-5.926 4.428l-2.51 8.488h75.312l-2.509-8.488z"/><path d="M112.045 82.895H88.518V68.416l23.527 5.091z" opacity=".1"/><path fill="#231F20" d="M76.86 113.32h-1.956a3.583 3.583 0 0 0-3.583 3.584v9.332h9.123v-9.332a3.586 3.586 0 0 0-3.584-3.584z" opacity=".6"/><path fill="#EBEBED" d="M82.682 80.35l-3.603-3.603c.467-.648.75-1.438.75-2.299 0-.863-.285-1.655-.755-2.305l3.603-3.601 5.557 5.557 30.862-30.86-12.004-12.004-30.861 30.86 5.547 5.547-3.604 3.602a3.918 3.918 0 0 0-2.292-.744c-.859 0-1.649.282-2.297.749l-3.603-3.604 5.551-5.551-30.861-30.86L32.667 43.24 63.529 74.1l5.553-5.553 3.603 3.603a3.916 3.916 0 0 0-.75 2.298c0 .852.276 1.636.736 2.281l-3.602 3.609-5.542-5.541-30.86 30.859 12.004 12.004 30.861-30.859-5.563-5.563 3.598-3.606a3.913 3.913 0 0 0 2.315.764c.86 0 1.649-.282 2.298-.749l3.603 3.603-5.552 5.553 30.861 30.859 12.003-12.004-30.861-30.859-5.552 5.551zM64.801 62.467l-3.381-3.381 4.653-4.648 3.377 3.377-4.649 4.652zm-4.282-4.282l-3.378-3.378 4.65-4.652 3.382 3.382-4.654 4.648zm-4.279-4.279l-3.38-3.38 4.654-4.648 3.376 3.376-4.65 4.652zm-4.28-4.28l-3.379-3.379 4.65-4.652 3.383 3.383-4.654 4.648zm-4.279-4.279l-3.381-3.38 4.649-4.652 3.381 3.381-4.649 4.651zM43.4 42.866l3.381 3.381-4.652 4.654-3.381-3.38 4.652-4.655zm4.281 4.281l3.379 3.379-4.656 4.65-3.375-3.375 4.652-4.654zm4.279 4.279l3.381 3.381-4.651 4.654-3.385-3.385 4.655-4.65zm4.281 4.281l3.377 3.377-4.655 4.65-3.374-3.373 4.652-4.654zm4.278 4.278l3.382 3.382-4.651 4.654-3.385-3.385 4.654-4.651zm9.832-1.27l3.382 3.382-4.651 4.651-3.38-3.38 4.649-4.653zM43.4 41.067l-3.38-3.38 4.651-4.651 3.378 3.378-4.649 4.653zm-4.28-2.48l3.38 3.38-4.652 4.654-3.381-3.381 4.653-4.653zm25.681 25.68l3.38 3.38-4.652 4.653-3.379-3.378 4.651-4.655zm-.906 21.258l-3.375 3.384-4.651-4.65 3.379-3.38 4.647 4.646zM59.62 89.81l-3.375 3.383-4.655-4.656 3.378-3.378 4.652 4.651zm-4.273 4.284l-3.378 3.386-4.661-4.661 3.383-3.382 4.656 4.657zm-4.277 4.287l-3.376 3.384-4.666-4.666 3.38-3.38 4.662 4.662zm-4.276 4.285l-3.376 3.384-4.67-4.671 3.38-3.38 4.666 4.667zm-2.477 4.283l3.376-3.384 4.638 4.638-3.38 3.38-4.634-4.634zm4.276-4.285l3.376-3.384 4.643 4.643-3.38 3.38-4.639-4.639zm4.275-4.285l3.378-3.386 4.647 4.647-3.382 3.382-4.643-4.643zm4.277-4.287l3.375-3.382 4.652 4.652-3.379 3.379-4.648-4.649zm4.274-4.284l3.375-3.384 4.657 4.657-3.379 3.38-4.653-4.653zm-1.27-9.83l3.379-3.379 4.642 4.642-3.376 3.383-4.645-4.646zm-22.302 22.3l4.672 4.672-3.376 3.384-4.676-4.676 3.38-3.38zm5.572 5.571l4.633 4.633-3.381 3.381-4.629-4.63 3.377-3.384zm26.933-17.668l-4.658-4.658 3.376-3.384 4.663 4.662-3.381 3.38zm16.61-3.751l3.381 3.381-4.652 4.651-3.381-3.381 4.652-4.651zm4.279 4.28l3.382 3.381-4.652 4.652-3.382-3.382 4.652-4.651zm4.283 4.281l3.378 3.379-4.652 4.651-3.378-3.378 4.652-4.652zm4.278 4.279l3.384 3.384-4.646 4.657-3.39-3.39 4.652-4.651zm4.283 4.283l3.374 3.373-4.657 4.647-3.363-3.363 4.646-4.657zm4.275 2.475l-3.376-3.375 4.647-4.657 3.386 3.386-4.657 4.646zm-4.276-4.274l-3.383-3.383 4.652-4.652 3.378 3.378-4.647 4.657zm-4.283-4.284l-3.378-3.379 4.651-4.651 3.379 3.378-4.652 4.652zm-4.278-4.279l-3.381-3.381 4.651-4.651 3.381 3.381-4.651 4.651zm-4.281-4.279l-3.381-3.381 4.652-4.652 3.381 3.381-4.652 4.652zm-5.18-3.382l-4.652 4.651-3.379-3.379 4.652-4.652 3.379 3.38zm22.297 22.296l3.385 3.386-4.651 4.652-3.391-3.391 4.657-4.647zm4.284 2.486l-3.384-3.385 4.657-4.646 3.379 3.378-4.652 4.653zM86.961 84.631l-3.379-3.38 4.651-4.651 3.38 3.379-4.652 4.652zm.9-21.267l3.382-3.381 4.654 4.655-3.382 3.381-4.654-4.655zm4.281-4.28l3.383-3.381 4.653 4.653-3.382 3.382-4.654-4.654zm4.283-4.281l3.381-3.378 4.652 4.652-3.38 3.379-4.653-4.653zm4.28-4.278l3.383-3.381 4.652 4.65-3.383 3.382-4.652-4.651zm4.284-4.281l3.376-3.374 4.65 4.65-3.375 3.375-4.651-4.651zm2.476-4.273l-3.376 3.374-4.654-4.652 3.375-3.375 4.655 4.653zm-4.276 4.274l-3.383 3.38-4.651-4.652 3.38-3.381 4.654 4.653zm-4.283 4.28l-3.381 3.378-4.65-4.65 3.379-3.38 4.652 4.652zm-4.281 4.278l-3.383 3.381-4.649-4.65 3.382-3.381 4.65 4.65zm-4.282 4.28l-3.383 3.38-4.648-4.648 3.382-3.382 4.649 4.65zm1.272 9.836L88.234 72.3l-4.656-4.656 3.382-3.38 4.655 4.655zm22.299-22.298l-4.65-4.65 3.383-3.38 4.648 4.649-3.381 3.381zm-5.549-5.549l-4.654-4.654 3.382-3.382 4.655 4.655-3.383 3.381zM81.411 58.716l4.648 4.648-3.382 3.38-4.647-4.647 3.381-3.381z"/><path d="M62.442 82.895H38.914v-9.388l23.528-5.091z" opacity=".1"/><path opacity=".05" d="M101.445 88.01v-5.114h10.603v-9.389l-3.523-.762-9.018-9.915 19.59-19.59-12.004-12.004-19.023 19.02-12.59-13.844v89.824h38.058l-2.511-8.49a6.18 6.18 0 0 0-1.479-2.537l9.549-9.551-17.652-17.648zm-.371-28.55l-4.65-4.651 3.379-3.381 4.652 4.652-3.381 3.38zm4.281-4.28l-4.651-4.652 3.379-3.379 4.651 4.651-3.379 3.38zm4.28-4.28l-4.652-4.652 3.381-3.38 4.652 4.652-3.381 3.38zm7.66-7.66l-3.379 3.38-4.652-4.652 3.379-3.38 4.652 4.652zm-10.203-10.204l4.652 4.652-3.382 3.38-4.651-4.651 3.381-3.381zm-4.281 4.28l4.652 4.65-3.381 3.381-4.65-4.652 3.379-3.379zm-4.28 4.28l4.652 4.651-3.381 3.379-4.652-4.651 3.381-3.379zm-4.279 4.28l4.649 4.651-3.379 3.38-4.651-4.652 3.381-3.379zm-5.324 5.323l1.043-1.043 4.652 4.652-1.265 1.264-4.43-4.873zm5.289 5.815l1.307-1.308 4.652 4.652-1.527 1.526-4.432-4.87zm18.799 44.365l-4.652 4.652-3.381-3.381 4.652-4.652 3.381 3.381zm-11.571-11.57l3.011 3.01-3.011 3.01v-6.02zm0 7.82l3.91-3.91 3.379 3.382-4.651 4.651-2.638-2.639v-1.484zm0 3.283l1.738 1.738-1.738 1.738v-3.476zm0 12.408v-1.305l1.306 1.305h-1.306zm0-3.103v-4.026l2.638-2.64 3.381 3.382-4.652 4.649-1.367-1.365zm7.114 4.179a6.145 6.145 0 0 0-3.455-1.076h-.555l-.838-.838 4.651-4.65 3.382 3.379-3.185 3.185zm.705-7.464l4.652-4.652 3.379 3.379-4.652 4.652-3.379-3.379z"/></svg>