<svg xmlns="http://www.w3.org/2000/svg" width="157.471" height="157.473" viewBox="0 0 157.471 157.473"><circle fill="#fff" cx="78.736" cy="78.736" r="78.911"/><path fill="#F9493D" d="M124.372 65.764c.934-6.068-2.412-11.799-9.115-14.287-4.947-1.837-10.682-1.508-15.721.485.339-5.409-1.12-10.963-4.396-15.102-4.438-5.605-10.922-7.019-16.405-4.254-5.482-2.765-11.966-1.352-16.404 4.254-3.276 4.137-4.735 9.692-4.396 15.101-5.04-1.993-10.773-2.322-15.721-.484-6.703 2.489-10.049 8.219-9.115 14.287-4.322 4.359-4.981 10.962-1.022 16.916 2.923 4.394 7.754 7.498 13.001 8.848-3.452 4.177-5.537 9.527-5.318 14.8.296 7.145 4.71 12.097 10.771 13.084 2.812 5.458 8.887 8.126 15.771 6.2 5.083-1.422 9.528-5.058 12.434-9.633 2.905 4.575 7.351 8.211 12.433 9.633 6.887 1.926 12.961-.742 15.771-6.2 6.062-.987 10.476-5.939 10.771-13.084.218-5.272-1.866-10.623-5.318-14.8 5.248-1.35 10.08-4.453 13.003-8.848 3.958-5.954 3.298-12.556-1.024-16.916zM78.735 80.591zm.001 0z"/><path opacity=".05" d="M95.141 36.861c-4.438-5.605-10.922-7.019-16.405-4.254v47.984c6.5-3.018 13.132-12.526 16.272-16.403l.133-.167c5.937-7.501 5.937-19.659 0-27.16zM42.214 51.477c-6.703 2.489-10.049 8.219-9.115 14.287l45.637 14.827c-.86-7.114-7.855-16.36-10.572-20.545l-.118-.177c-5.299-7.966-16.863-11.723-25.832-8.392zm-2.454 54.851c.296 7.145 4.71 12.097 10.771 13.084l28.205-38.82c-7.032-1.379-17.987 2.416-22.808 3.706l-.204.059c-9.214 2.576-16.36 12.413-15.964 21.971zm51.408 19.284c6.887 1.926 12.961-.742 15.771-6.2l-28.204-38.82c-3.484 6.264-3.262 17.854-3.522 22.836l-.008.213c-.397 9.557 6.75 19.394 15.963 21.971zm34.227-42.932c3.959-5.954 3.299-12.557-1.022-16.916L78.736 80.592c4.877 5.249 15.972 8.618 20.63 10.407l.198.073c8.969 3.331 20.532-.426 25.831-8.392z"/><circle fill="#FBAE17" cx="78.735" cy="80.592" r="8.468"/><path fill="#FBAE17" d="M78.736 89.06a8.468 8.468 0 0 1-8.469-8.469"/><path opacity=".05" d="M78.736 72.123a8.469 8.469 0 0 1 8.468 8.469 8.468 8.468 0 0 1-8.468 8.469V72.123z"/><path fill="#FBAE17" d="M70.267 80.592a8.469 8.469 0 0 1 8.469-8.469"/></svg>