<svg xmlns="http://www.w3.org/2000/svg" width="157.821" height="157.821" viewBox="0 0 157.821 157.821"><circle fill="#fff" cx="78.911" cy="78.91" r="78.736"/><path fill="#EBEBED" d="M58.947 105.688L92.84 71.796 81.887 60.844 47.994 94.735c-4.073-4.073-10.679-4.073-14.753 0-4.074 4.074-4.074 10.68 0 14.754a10.394 10.394 0 0 0 7.923 3.029 10.4 10.4 0 0 0 3.03 7.924c4.073 4.073 10.679 4.073 14.753 0 4.074-4.074 4.074-10.679 0-14.754z"/><path fill="#FBAE17" d="M75.005 31.406l47.272 47.272c-16.273 16.274-42.766 21.605-55.822 8.549-13.055-13.054-7.724-39.546 8.55-55.821z"/><path fill="none" d="M119.559 81.398L72.285 34.126"/><ellipse transform="rotate(-45 98.685 55.108)" fill="#F9493D" cx="98.685" cy="55.085" rx="17.32" ry="33.366"/><ellipse transform="rotate(-45 98.682 55.109)" fill="#EBEBED" cx="98.685" cy="55.086" rx="5.18" ry="8.978"/><path opacity=".05" d="M41.165 112.519a10.391 10.391 0 0 0 3.029 7.923c4.073 4.074 10.679 4.074 14.753 0 4.074-4.073 4.074-10.679 0-14.753L72.89 91.745c14.069 6.758 35.463.856 49.387-13.066 6.764-6.764 1.684-22.811-11.346-35.841l-.045-.043-69.721 69.724z"/></svg>