<svg xmlns="http://www.w3.org/2000/svg" width="157.82" height="157.82" viewBox="0 0 157.82 157.82"><circle fill="#fff" cx="78.911" cy="78.911" r="78.911"/><path fill="#F9493D" d="M121.856 82.521v39.802h-1.087l-6.836-.027h-.914l-6.837-.027h-.913l-6.837-.028h-.914l-6.828-.027h-.914l-6.836-.027h-.914l-3.107-.01-3.729.01-.914.008-6.836.019-.914.009-6.837.018-.913.009-6.827.019h-.914l-6.837.027h-.914l-6.836.027h-.457V82.521l.457-1.462 4.817-15.364 2.019-2.44.914-1.106 6.837-8.271.914-1.106.347-.42 6.48-4.104.913-.575 6.837-4.332.914-.576 6.836-4.324.914-.585 3.729-2.357 3.107 1.965.914.585 6.836 4.322.914.577 6.828 4.323.914.584 6.837 4.323.273.174.64.777 6.837 8.262.914 1.105 2.65 3.199 4.186 13.353.914 2.916z"/><g opacity=".5"><path fill="#231F20" d="M44.198 62.149l-.914 1.106v59.041h.914zm69.735.347v59.8h-.914V61.391zm-61.984-9.724v31.019h-.914V53.878zm7.74-5.099v36.1l-.913.009V48.248zm7.751-4.908v40.999h-.914V43.341zm7.75-4.909v45.89l-.914.009V38.441zm7.75.193v45.697h-.914V37.464zm7.75 4.899v40.816h-.914V42.371zm7.742 4.907v35.918h-.914V47.271zm7.75 5.274v30.662h-.913V52.178l.273.174z" opacity=".3"/></g><path fill="#EBEBED" d="M129.045 83.749l-7.193-.991v-.237l-5.274-16.825-11.035-13.346-26.621-16.852L52.3 52.35 41.265 65.696l-5.274 16.825v.242l-7.217.996.273 1.981 6.944-.959v1.396l.458-1.459.053-.008-.015-.113 4.778-15.245L52.3 56.005l26.622-16.851 26.621 16.851 11.035 13.347 4.762 15.193-.021.157.074.011.459 1.464v-1.401l6.921.954z"/><path opacity=".6" fill="#231F20" d="M51.209 83.719h55.425v38.604H51.209z"/><path opacity=".05" d="M121.683 81.964l-.914-2.916-4.186-13.353-2.324-2.805-8.716-10.54-13.386-8.474-1.467-.928-.102-.065L78.924 35.5v86.823h27.711v-.052l6.384.025h.914l6.836.027h1.087V82.521z"/><path fill="#FBAE17" d="M54.736 122.323h51.894V98.99H51.208v23.333z"/><path fill="#fff" d="M106.63 98.99h-3.527l-24.184 10.182L54.736 98.99h-3.528v1.481l24.184 10.19-24.184 10.182v1.48h3.528l24.183-10.181 24.184 10.181h3.527v-1.489l-24.174-10.173 24.174-10.181z"/><path opacity=".2" fill="#fff" d="M78.922 67.219c-4.062 0-7.366-3.195-7.563-7.207l-.019.373a7.58 7.58 0 0 0 15.16 0l-.021-.373c-.192 4.011-3.497 7.207-7.557 7.207z"/><circle opacity=".6" fill="#231F20" cx="78.922" cy="59.639" r="7.58"/></svg>