<svg xmlns="http://www.w3.org/2000/svg" width="157.82" height="157.82" viewBox="0 0 157.82 157.82"><circle fill="#fff" cx="78.911" cy="78.91" r="78.735"/><path fill="#FBAE17" d="M71.481 86.826a27.214 27.214 0 0 0-2.175 8.293 27.444 27.444 0 0 0 4.144 17.471 27.503 27.503 0 0 0 12.196 10.459c13.918 6.09 30.132-.25 36.229-14.158 1.893-4.313 3.36-10.61 4.08-17.449.828-7.768.679-16.208-.942-23.177-1.535-6.738-4.457-12.101-9.172-14.175-1.36-.591-2.831-.89-4.359-.931-3.964-.116-8.44 1.498-12.929 4.181-11.481 6.793-23.117 20.443-27.072 29.486z"/><path opacity=".05" d="M125.014 68.264c-1.319-5.791-3.667-10.559-7.293-13.104l-32.797 67.539.723.35c13.918 6.09 30.132-.25 36.229-14.158 1.893-4.313 3.36-10.61 4.08-17.449.828-7.768.679-16.208-.942-23.178z"/><path fill="#EBEBED" d="M113.693 75.228c-2.565 5.892.107 12.754 6.004 15.345a11.66 11.66 0 0 0 6.26.868c.828-7.768.679-16.208-.942-23.177a11.66 11.66 0 0 0-11.322 6.964zm-15.954 26.97c-1.418 3.262.065 7.051 3.316 8.461 3.248 1.432 7.038-.054 8.472-3.302 1.419-3.264-.063-7.053-3.308-8.469-3.256-1.425-7.045.06-8.48 3.31z"/><path fill="#D9B35F" d="M87.342 80.012c-1.521 3.465.067 7.512 3.531 9.031 3.464 1.521 7.521-.058 9.03-3.531 1.521-3.463-.058-7.52-3.531-9.031-3.464-1.521-7.52.059-9.03 3.531zM69.307 95.119a27.444 27.444 0 0 0 4.144 17.471c2.702-.609 5.103-2.439 6.295-5.17 1.989-4.535-.075-9.84-4.614-11.826a8.986 8.986 0 0 0-5.825-.475z"/><path fill="#EBEBED" d="M98.554 57.339a7.78 7.78 0 0 0 2.403 1.65 7.585 7.585 0 0 0 9.981-3.911 7.027 7.027 0 0 0 .543-1.92c-3.962-.116-8.44 1.499-12.927 4.181z"/><path fill="#FBAE17" d="M102.707 91.705c0 3.729-.583 7.323-1.685 10.692a34.616 34.616 0 0 1-13.63 18.091 34.553 34.553 0 0 1-19.394 5.922c-19.164 0-34.718-15.535-34.718-34.705 0-5.935 1.482-13.981 4.109-22.241 2.978-9.391 7.416-19.063 12.81-26.326 5.212-6.997 11.295-11.727 17.8-11.727 1.863 0 3.708.392 5.509 1.122 4.651 1.864 8.993 6.014 12.831 11.374 9.832 13.682 16.368 35.359 16.368 47.798z"/><path fill="#EBEBED" d="M59.778 56.927c0 8.111-6.572 14.709-14.71 14.709a14.61 14.61 0 0 1-7.676-2.172c2.978-9.391 7.416-19.063 12.81-26.326 5.599 2.093 9.576 7.475 9.576 13.789zm4.786 39.255c0 4.478-3.631 8.123-8.106 8.123-4.489 0-8.124-3.646-8.124-8.123 0-4.477 3.635-8.106 8.124-8.106a8.105 8.105 0 0 1 8.106 8.106zm23.263-20.39c0 4.788-3.882 8.668-8.653 8.668a8.668 8.668 0 0 1-8.669-8.668c0-4.773 3.88-8.654 8.669-8.654 4.772 0 8.653 3.881 8.653 8.654zm13.196 26.606a34.616 34.616 0 0 1-13.63 18.091c-2.816-2.064-4.662-5.402-4.662-9.171 0-6.243 5.08-11.323 11.325-11.323 2.618-.001 5.061.9 6.967 2.403zM86.34 43.907a9.634 9.634 0 0 1-3.608.693c-5.28 0-9.571-4.281-9.571-9.572 0-.861.111-1.694.35-2.495 4.649 1.865 8.991 6.013 12.829 11.374z"/><path d="M84.146 126.738c1.145-1.933 2.392-4.003 3.452-6.043.379-.66 3.049-6.471 3.756-9.396-3.219 1.728-4.635 4.777-5.625 8.168a9.273 9.273 0 0 0-.467.505c.314-2.055.459-4.188.382-6.249l.003-.049-.005.005c-.115-2.942-.679-5.732-1.843-7.916-1.403 3.67-1.329 7.634-1.061 11.639-.236.469-.442.95-.618 1.444a36.133 36.133 0 0 0-.698-1.695c.469-2.829.165-5.112-.279-7.742a12.408 12.408 0 0 0-1.788 3.834c-1.265-2.001-2.736-3.729-4.395-4.893.109 1.318.398 2.602.805 3.862-1.048-2.172-2.324-4.1-3.829-5.53-.088 3.471.982 6.82 2.352 10.134a10.926 10.926 0 0 0-1.426-.164c.716 1.122 1.626 2.088 2.64 2.967.47 1.05.942 2.1 1.396 3.149-3.444-4.562-8.4-9.012-12.847-10.322 1.76 3.605 4.756 6.416 7.947 9.115-2.223-.674-4.59-.809-7.046-.096 3.176 2.296 7.304 3.07 11.424 3.776a54.295 54.295 0 0 1 2.271 2.077c.164.518.317 1.035.449 1.555.025-.34.037-.696.047-1.054.567.574 1.118 1.16 1.632 1.771-.298-.887-.746-1.856-1.294-2.862.277-1.046.629-2.38.951-3.765l.938.529a13.36 13.36 0 0 0 1.066 4.955c.063-.888.208-1.777.405-2.672l.077.148c-.07.905-.047 1.841.072 2.793.223-.393.459-.798.7-1.209.219.479.427.962.616 1.447a20.18 20.18 0 0 0-.16-2.216zm-4.71-.092l-.297-.539-.022-.387.03.005-.031-.025a35.097 35.097 0 0 0-.39-3.75l.315.197c.142 1.488.305 2.991.395 4.499zm10.195-3.562c1.547-2.126 3.119-4.29 4.123-6.706-5.501 1.92-5.091 6.051-6.091 9.371-.098.188-.92 2.036-.697 1.656-.161.479-.302.971-.41 1.48 2.857-2.408 6.662-5.502 9.154-8.181-2.462.001-4.516.892-6.079 2.38z" fill="#7CB04B"/><path opacity=".05" d="M86.34 43.907c-3.838-5.36-8.18-9.51-12.831-11.374-1.801-.73-3.646-1.122-5.509-1.122h-.006v95H68a34.562 34.562 0 0 0 19.394-5.922 34.616 34.616 0 0 0 13.63-18.091 34.333 34.333 0 0 0 1.685-10.692c-.002-12.44-6.538-34.117-16.369-47.799z"/></svg>