<svg xmlns="http://www.w3.org/2000/svg" xmlns:xlink="http://www.w3.org/1999/xlink" width="157.471" height="157.473" viewBox="0 0 157.471 157.473"><symbol id="a" viewBox="-2.013 -3.06 4.025 6.119"><path fill="#fff" d="M2.013.063c0-2.015-.756-3.123-2.059-3.123-1.156 0-1.948 1.083-1.967 3.041 0 1.994.866 3.078 2.067 3.078C1.292 3.06 2.013 1.948 2.013.063zm-3.215-.091c0-1.539.474-2.412 1.201-2.412.812 0 1.202.955 1.202 2.467 0 1.457-.363 2.414-1.202 2.414-.691-.001-1.201-.858-1.201-2.469z"/></symbol><circle fill="#fff" cx="78.735" cy="78.735" r="78.735"/><path fill="#EBEBED" d="M118.992 110.422a2.41 2.41 0 0 1-2.722 2.052l-81.875-11.507a2.408 2.408 0 0 1-2.05-2.72l7.22-51.378a2.41 2.41 0 0 1 2.723-2.049l81.874 11.506a2.409 2.409 0 0 1 2.049 2.722l-7.219 51.374z"/><path opacity=".05" fill="#D5D6DA" d="M124.162 56.326l-40.938-5.754-7.892 56.147 40.938 5.754a2.408 2.408 0 0 0 2.722-2.052l7.219-51.375a2.406 2.406 0 0 0-2.049-2.72z"/><path fill="#D5D6DA" d="M123.68 77.072l-86.65-12.18 1.598-11.368 86.65 12.18zm-26.063 15.9a8.632 8.632 0 0 0 1.799 6.587 8.395 8.395 0 0 1-4.381.556c-4.613-.648-7.826-4.922-7.179-9.533a8.431 8.431 0 0 1 14.773-4.291 8.642 8.642 0 0 0-5.012 6.681zm15.082 2.121a6.573 6.573 0 0 1-7.423 5.594c-3.586-.504-6.09-3.826-5.586-7.422.506-3.594 3.83-6.099 7.414-5.595a6.573 6.573 0 0 1 5.595 7.423z"/><path fill="#F9493D" d="M118.732 110.268a2.407 2.407 0 0 1-2.407 2.407H33.644a2.407 2.407 0 0 1-2.409-2.407V58.385a2.408 2.408 0 0 1 2.409-2.408h82.681a2.408 2.408 0 0 1 2.407 2.408v51.883z"/><use xlink:href="#a" width="4.025" height="6.119" x="-2.013" y="-3.06" transform="matrix(1 0 0 -1 37.153 83.645)" overflow="visible"/><use xlink:href="#a" width="4.025" height="6.119" x="-2.013" y="-3.06" transform="matrix(1 0 0 -1 41.825 83.645)" overflow="visible"/><use xlink:href="#a" width="4.025" height="6.119" x="-2.013" y="-3.06" transform="matrix(1 0 0 -1 46.498 83.645)" overflow="visible"/><use xlink:href="#a" width="4.025" height="6.119" x="-2.013" y="-3.06" transform="matrix(1 0 0 -1 51.171 83.645)" overflow="visible"/><use xlink:href="#a" width="4.025" height="6.119" x="-2.013" y="-3.06" transform="matrix(1 0 0 -1 57.782 83.645)" overflow="visible"/><use xlink:href="#a" width="4.025" height="6.119" x="-2.013" y="-3.06" transform="matrix(1 0 0 -1 62.455 83.645)" overflow="visible"/><use xlink:href="#a" width="4.025" height="6.119" x="-2.013" y="-3.06" transform="matrix(1 0 0 -1 67.128 83.645)" overflow="visible"/><use xlink:href="#a" width="4.025" height="6.119" x="-2.013" y="-3.06" transform="matrix(1 0 0 -1 71.801 83.645)" overflow="visible"/><use xlink:href="#a" width="4.025" height="6.119" x="-2.013" y="-3.06" transform="matrix(1 0 0 -1 78.406 83.645)" overflow="visible"/><use xlink:href="#a" width="4.025" height="6.119" x="-2.013" y="-3.06" transform="matrix(1 0 0 -1 83.079 83.645)" overflow="visible"/><use xlink:href="#a" width="4.025" height="6.119" x="-2.013" y="-3.06" transform="matrix(1 0 0 -1 87.752 83.645)" overflow="visible"/><use xlink:href="#a" width="4.025" height="6.119" x="-2.013" y="-3.06" transform="matrix(1 0 0 -1 92.425 83.645)" overflow="visible"/><use xlink:href="#a" width="4.025" height="6.119" x="-2.013" y="-3.06" transform="matrix(1 0 0 -1 99.032 83.645)" overflow="visible"/><use xlink:href="#a" width="4.025" height="6.119" x="-2.013" y="-3.06" transform="matrix(1 0 0 -1 103.705 83.645)" overflow="visible"/><use xlink:href="#a" width="4.025" height="6.119" x="-2.013" y="-3.06" transform="matrix(1 0 0 -1 108.378 83.645)" overflow="visible"/><use xlink:href="#a" width="4.025" height="6.119" x="-2.013" y="-3.06" transform="matrix(1 0 0 -1 113.051 83.645)" overflow="visible"/><path opacity=".05" d="M116.486 55.977H75.147v56.698h41.339a2.407 2.407 0 0 0 2.408-2.407V58.385a2.407 2.407 0 0 0-2.408-2.408z"/><path fill="#4AA4FF" d="M31.235 65.104h87.497v11.479H31.235z"/><path fill="#FBAE17" d="M95.137 98.83a8.642 8.642 0 0 0 2.697 6.272 8.415 8.415 0 0 1-4.263 1.161c-4.657 0-8.432-3.786-8.432-8.443a8.43 8.43 0 0 1 8.432-8.432c2.144 0 4.109.807 5.601 2.127a8.636 8.636 0 0 0-4.035 7.315z"/><path fill="#4AA4FF" d="M110.365 98.83a6.57 6.57 0 0 1-6.57 6.572c-3.619 0-6.563-2.941-6.563-6.572a6.57 6.57 0 0 1 6.563-6.57 6.57 6.57 0 0 1 6.57 6.57z"/></svg>