<svg xmlns="http://www.w3.org/2000/svg" width="157.471" height="157.472" viewBox="0 0 157.471 157.472"><circle fill="#fff" cx="78.735" cy="78.736" r="78.911"/><path fill="#F9493D" d="M112.761 48.311v60.618a4.325 4.325 0 0 1-4.301 4.313H50.947a4.319 4.319 0 0 1-4.302-4.313V48.311a4.317 4.317 0 0 1 4.302-4.302h57.513a4.323 4.323 0 0 1 4.301 4.302z"/><path opacity=".05" fill="#D5D6DA" d="M114.816 35.184h-71.86c-2.199 0-4.01 1.8-4.01 4v77.36c0 2.21 1.811 4.01 4.01 4.01h71.86c2.21 0 4.02-1.8 4.02-4.01v-77.36c0-2.2-1.81-4-4.02-4zm-1.15 73.76c0 2.859-2.34 5.209-5.21 5.209h-57.51c-2.87 0-5.21-2.35-5.221-5.22v-60.62c.011-2.87 2.351-5.21 5.221-5.21h57.51a5.22 5.22 0 0 1 5.21 5.21v60.631z"/><path fill="#F9493D" d="M114.666 31.234h-71.87c-4.4 0-7.99 3.59-8.01 8.02v77.36c.02 4.399 3.609 8.01 8.01 8.01h1.301c1 1 2.379 1.609 3.899 1.609h61.63c1.52 0 2.891-.609 3.881-1.609h1.159c4.431 0 8.021-3.61 8.021-8.01v-77.36c0-4.43-3.611-8.02-8.021-8.02zm5.53 85.31c0 2.97-2.4 5.38-5.37 5.38h-71.87a5.372 5.372 0 0 1-5.369-5.38v-77.36c0-2.97 2.399-5.37 5.369-5.37h71.87c2.97 0 5.37 2.4 5.37 5.37v77.36z"/><path fill="#FBAE17" d="M95.427 64.484c-7.601 0-13.781 6.18-13.781 13.78 0 7.601 6.181 13.78 13.781 13.78 7.6 0 13.789-6.18 13.789-13.78s-6.19-13.78-13.789-13.78zm0 20.179c-3.531 0-6.391-2.869-6.391-6.399s2.859-6.41 6.391-6.41c3.539 0 6.399 2.88 6.399 6.41 0 3.53-2.86 6.399-6.399 6.399zm-13.516 5.359l-12.18-7.964.001-.009a7.885 7.885 0 0 0-3.942-6.867L65.02 60.5c-.091-1.718-1.495-3.116-3.134-3.118h-.004c-1.638 0-3.047 1.394-3.143 3.109l-.813 14.62c-2.424 1.358-4.07 3.948-4.072 6.917l.001.04L41.7 89.96c-1.441.937-1.949 2.854-1.133 4.274.543.944 1.595 1.532 2.743 1.532.526 0 1.054-.127 1.522-.363l12.923-6.535a7.883 7.883 0 0 0 4.026 1.111 7.897 7.897 0 0 0 4.041-1.115l12.936 6.592a3.404 3.404 0 0 0 1.531.365c1.145 0 2.195-.582 2.738-1.521.824-1.416.322-3.336-1.116-4.278z"/><path opacity=".05" d="M78.735 31.956v95h30.9c1.52 0 2.899-.61 3.899-1.61h1.3c4.4 0 7.99-3.61 8.01-8.01v-77.36c-.02-4.43-3.609-8.02-8.01-8.02H78.735z"/></svg>