<svg xmlns="http://www.w3.org/2000/svg" xmlns:xlink="http://www.w3.org/1999/xlink" width="157.471" height="157.473" viewBox="0 0 157.471 157.473"><symbol id="a" viewBox="-22.065 -12.102 44.13 24.204"><path fill="#FBAE17" d="M14.941 12.102h-29.88c-3.937 0-7.125-3.191-7.125-7.113V-9.246A2.859 2.859 0 0 1-19.21-12.1h38.419a2.858 2.858 0 0 1 2.855 2.854V4.988c.002 3.922-3.19 7.114-7.123 7.114zm4.084-10.87a6.368 6.368 0 0 1-6.373 6.373h-25.304a6.368 6.368 0 0 1-6.372-6.373v2.553a6.368 6.368 0 0 0 6.372 6.371h25.304a6.367 6.367 0 0 0 6.373-6.371V1.232z"/><path fill="#FFC966" d="M-12.652 6.176h25.304a6.366 6.366 0 0 0 6.373-6.371v1.428a6.368 6.368 0 0 1-6.373 6.373h-25.304a6.368 6.368 0 0 1-6.372-6.373V-.195a6.365 6.365 0 0 0 6.372 6.371zm27.599 5.926h-29.892a7.114 7.114 0 0 1-7.113-7.113V3.561c0 3.934 3.19 7.125 7.113 7.125h29.892c3.922 0 7.113-3.191 7.113-7.125v1.428a7.114 7.114 0 0 1-7.113 7.113z"/><path d="M12.652 7.605a6.368 6.368 0 0 0 6.373-6.373v2.553a6.367 6.367 0 0 1-6.373 6.371H0V7.604h12.652v.001zm-31.677-3.82V1.232a6.368 6.368 0 0 0 6.372 6.371H-.002v2.553h-12.65a6.366 6.366 0 0 1-6.373-6.371z" fill="none"/><path opacity=".1" fill="#fff" d="M-22.065-9.246V4.988a7.08 7.08 0 0 0 2.09 5.029 7.098 7.098 0 0 0 5.029 2.084H-.002v-1.945h-12.65a6.368 6.368 0 0 1-6.372-6.371V1.232a6.368 6.368 0 0 0 6.372 6.371H0v-19.705h-19.209a2.86 2.86 0 0 0-2.856 2.856z"/></symbol><circle fill="#fff" cx="78.736" cy="78.735" r="78.735"/><use xlink:href="#a" width="44.13" height="24.204" x="-22.065" y="-12.102" transform="matrix(1 0 0 -1 78.735 62.445)" overflow="visible"/><use xlink:href="#a" width="44.13" height="24.204" x="-22.065" y="-12.102" transform="matrix(1 0 0 -1 53.294 94.955)" overflow="visible"/><use xlink:href="#a" width="44.13" height="24.204" x="-22.065" y="-12.102" transform="matrix(1 0 0 -1 104.176 94.955)" overflow="visible"/></svg>