<svg xmlns="http://www.w3.org/2000/svg" xmlns:xlink="http://www.w3.org/1999/xlink" width="1804.988" height="1179.006" viewBox="0 0 1804.988 1179.006"><symbol id="b" viewBox="-91.497 -79.007 182.994 158.014"><linearGradient id="a" gradientUnits="userSpaceOnUse" x1="47.6" y1="-16135.503" x2="47.6" y2="-16290.517" gradientTransform="matrix(1 0 0 -1 -47.6 -16213.01)"><stop offset="0" stop-color="#FFF" stop-opacity="0"/><stop offset=".195" stop-color="#FCFEFF" stop-opacity=".117"/><stop offset=".334" stop-color="#F3FCFF" stop-opacity=".201"/><stop offset=".457" stop-color="#E3F8FF" stop-opacity=".274"/><stop offset=".569" stop-color="#CDF2FF" stop-opacity=".342"/><stop offset=".675" stop-color="#B0EBFF" stop-opacity=".405"/><stop offset=".776" stop-color="#8DE1FF" stop-opacity=".466"/><stop offset=".873" stop-color="#63D7FF" stop-opacity=".524"/><stop offset=".965" stop-color="#33CAFF" stop-opacity=".579"/><stop offset="1" stop-color="#1FC5FF" stop-opacity=".6"/></linearGradient><path fill="url(#a)" stroke="#F2F4F3" stroke-width="3" stroke-miterlimit="10" d="M-44.884-77.507L-89.764 0l44.88 77.507h89.768L89.764 0l-44.88-77.507z"/></symbol><symbol id="c" viewBox="-91.498 -81.507 182.995 163.014"><path opacity=".15" d="M45.75 76.507h-91.5L-91.497-2.5l45.75-79.007H45.75L91.497-2.5z"/><path fill="#FFF" d="M-42.867-71.507L-85.72 2.5l42.853 74.007h85.733L85.72 2.5 42.866-71.507z"/><path fill="#E2E2E2" d="M-39.867 71.507L-79.72 2.5H79.72L39.866 71.507z"/><path opacity=".952" fill="#E3E3E3" d="M-39.323 70.555L-79.73 2.5H79.73L39.323 70.555z"/><path opacity=".905" fill="#E5E5E5" d="M-38.78 69.602L-79.742 2.5H79.74L38.78 69.602z"/><path opacity=".857" fill="#E6E6E6" d="M-38.236 68.65L-79.752 2.5H79.75L38.236 68.65z"/><path opacity=".809" fill="#E8E8E8" d="M-37.693 67.697L-79.763 2.5H79.763l-42.07 65.197z"/><path opacity=".762" fill="#E9E9E9" d="M-37.15 66.745L-79.772 2.5H79.773L37.15 66.745z"/><path opacity=".714" fill="#EAEAEA" d="M-36.606 65.792L-79.786 2.5h159.57l-43.18 63.292z"/><path opacity=".667" fill="#ECECEC" d="M-36.062 64.84L-79.794 2.5H79.793l-43.73 62.34z"/><path opacity=".619" fill="#EDEDED" d="M-35.52 63.89L-79.804 2.5h159.61L35.518 63.89z"/><path opacity=".571" fill="#EEE" d="M-34.976 62.936L-79.816 2.5H79.817l-44.84 60.436z"/><path opacity=".524" fill="#F0F0F0" d="M-34.432 61.982L-79.827 2.5H79.826L34.43 61.982z"/><path opacity=".476" fill="#F1F1F1" d="M-33.888 61.03L-79.836 2.5h159.67L33.89 61.03z"/><path opacity=".429" fill="#F3F3F3" d="M-33.345 60.078L-79.847 2.5H79.847L33.345 60.078z"/><path opacity=".381" fill="#F4F4F4" d="M-32.8 59.126L-79.858 2.5H79.857L32.8 59.126z"/><path opacity=".333" fill="#F5F5F5" d="M-32.258 58.173L-79.868 2.5H79.867l-47.61 55.673z"/><path opacity=".286" fill="#F7F7F7" d="M-31.714 57.22L-79.878 2.5H79.878L31.714 57.22z"/><path opacity=".238" fill="#F8F8F8" d="M-31.17 56.27L-79.89 2.5H79.89L31.17 56.27z"/><path opacity=".191" fill="#F9F9F9" d="M-30.627 55.316L-79.9 2.5H79.9L30.628 55.316z"/><path opacity=".143" fill="#FBFBFB" d="M-30.084 54.364L-79.91 2.5H79.91L30.083 54.364z"/><path opacity=".095" fill="#FCFCFC" d="M-29.54 53.412L-79.92 2.5H79.92L29.54 53.412z"/><path opacity=".048" fill="#FEFEFE" d="M-28.997 52.46L-79.93 2.5H79.93L28.998 52.46z"/><path fill="#FFF" d="M-28.454 50.5l-51.71-49.01H79.72L28.453 50.5z"/><path fill="#F2F4F3" d="M39.984 71.507L79.942 2.5 39.984-66.507h-79.968L-79.942 2.5l39.958 69.007h79.968zm5.765 10H-45.75L-91.498 2.5l45.75-79.007h91.496L91.498 2.5l-45.75 79.007z"/></symbol><path d="M1509.773 41.824h5.58v78.937h-5.58zm-173.506-14.207h-64.28v9.532h26.408v77.29h11.336V37.15h26.537zm23.787 0l-29.5 86.822h11.594l9.018-27.31h30.787l9.275 27.31h11.98l-29.63-86.823h-13.524zm-6.57 50.755l8.502-25.12c1.675-5.282 3.092-10.563 4.38-15.716h.26c1.286 5.024 2.574 10.177 4.508 15.844l8.502 24.99-26.152.002zm87.911-13.14c-11.98-4.638-17.262-8.63-17.262-16.747 0-5.925 4.508-13.01 16.358-13.01 7.86 0 13.656 2.576 16.49 4.122l3.09-9.146c-3.862-2.19-10.305-4.25-19.19-4.25-16.876 0-28.084 10.048-28.084 23.574 0 12.237 8.76 19.58 22.93 24.604 11.724 4.508 16.36 9.146 16.36 17.26 0 8.76-6.698 14.816-18.163 14.816-7.73 0-15.072-2.577-20.096-5.67l-2.834 9.405c4.638 3.09 13.784 5.538 22.155 5.538 20.482 0 30.4-11.594 30.4-24.99.004-12.754-7.468-19.84-22.153-25.506zm133.073 19.944h14.117v20.712c-2.062 1.03-6.08 1.854-11.953 1.854-16.18 0-26.792-10.408-26.792-28.028 0-17.415 11.025-27.925 27.925-27.925 7.008 0 11.645 1.34 15.354 2.988l2.163-7.316c-2.988-1.443-9.273-3.194-17.312-3.194-23.288 0-37.508 15.147-37.61 35.86 0 10.82 3.71 20.094 9.688 25.864 6.8 6.492 15.456 9.17 25.967 9.17 9.377 0 17.312-2.37 21.33-3.812V77.962h-22.876v7.214zm44.518-10.821h-.413l-.31-9.79h-7.935c.31 4.637.412 9.687.412 15.56v34.314h8.965V87.853c0-1.545.206-2.988.412-4.225 1.236-6.802 5.77-11.645 12.16-11.645 1.236 0 2.163.103 3.09.31V63.74a9.833 9.833 0 0 0-2.575-.31c-6.077.003-11.54 4.228-13.806 10.925zm46.577-10.922c-13.808 0-24.73 9.79-24.73 26.483 0 15.766 10.408 25.658 23.907 25.658 12.057 0 24.833-8.038 24.833-26.482 0-15.252-9.687-25.66-24.01-25.66zm-.412 45.34c-8.86 0-15.145-8.244-15.145-19.167 0-9.48 4.637-19.373 15.354-19.373S1680.3 80.95 1680.3 89.4c0 11.232-6.493 19.372-15.15 19.372zm77.596-44.207h-9.067V95.17c0 1.65-.31 3.298-.823 4.638-1.65 4.02-5.875 8.244-11.954 8.244-8.243 0-11.13-6.388-11.13-15.87V64.567h-9.066v29.162c0 17.518 9.377 21.846 17.208 21.846 8.862 0 14.117-5.255 16.487-9.274h.206l.516 8.14h8.037c-.31-3.916-.41-8.45-.41-13.6l-.003-36.274zm41.117-1.133c-8.14 0-14.014 3.607-17.724 9.687h-.206l-.412-8.553h-8.142c.207 4.74.413 9.893.413 16.28v53.996h8.965v-27.1h.206c2.987 4.946 8.76 7.83 15.354 7.83 11.747 0 22.67-8.86 22.67-26.79 0-15.15-9.067-25.35-21.124-25.35zm-3.092 45.03c-6.49 0-11.952-4.327-13.602-10.613-.207-1.134-.412-2.37-.412-3.71v-8.553c0-1.236.31-2.576.617-3.71 1.752-6.8 7.522-11.23 13.705-11.23 9.583 0 14.84 8.552 14.84 18.547 0 11.438-5.565 19.27-15.148 19.27zm-299.409-91.047V11.21c-.903-1.355-4.482-6.21-6.207-6.21-.793 0-3.586 2.798-4.967 3.724 3.047 4.554 8.645 7.23 5.025 15.084l2.424-1.427c6.196.138 8.59 1.18 9.927 6.21 2.924-.244 6.207-1.124 6.207-3.725 0-5.302-6.437-7.45-12.41-7.45z" opacity=".15"/><path d="M1509.773 36.824h5.58v78.937h-5.58zm-173.506-14.207h-64.28v9.532h26.408v77.29h11.336V32.15h26.537zm23.787 0l-29.5 86.822h11.594l9.018-27.31h30.787l9.275 27.31h11.98l-29.63-86.823h-13.524zm-6.57 50.755l8.502-25.12c1.675-5.282 3.092-10.563 4.38-15.716h.26c1.286 5.024 2.574 10.177 4.508 15.844l8.502 24.99-26.152.002zm87.911-13.14c-11.98-4.638-17.262-8.63-17.262-16.747 0-5.925 4.508-13.01 16.358-13.01 7.86 0 13.656 2.576 16.49 4.122l3.09-9.146c-3.862-2.19-10.305-4.25-19.19-4.25-16.876 0-28.084 10.048-28.084 23.574 0 12.237 8.76 19.58 22.93 24.604 11.724 4.508 16.36 9.146 16.36 17.26 0 8.76-6.698 14.816-18.163 14.816-7.73 0-15.072-2.577-20.096-5.67l-2.834 9.405c4.638 3.09 13.784 5.538 22.155 5.538 20.482 0 30.4-11.594 30.4-24.99.004-12.754-7.468-19.84-22.153-25.506zm133.073 19.944h14.117v20.712c-2.062 1.03-6.08 1.854-11.953 1.854-16.18 0-26.792-10.408-26.792-28.028 0-17.415 11.025-27.925 27.925-27.925 7.008 0 11.645 1.34 15.354 2.988l2.163-7.316c-2.988-1.443-9.273-3.194-17.312-3.194-23.288 0-37.508 15.147-37.61 35.86 0 10.82 3.71 20.094 9.688 25.864 6.8 6.492 15.456 9.17 25.967 9.17 9.377 0 17.312-2.37 21.33-3.812V72.962h-22.876v7.214zm44.518-10.821h-.413l-.31-9.79h-7.935c.31 4.637.412 9.687.412 15.56v34.314h8.965V82.853c0-1.545.206-2.988.412-4.225 1.236-6.802 5.77-11.645 12.16-11.645 1.236 0 2.163.103 3.09.31V58.74a9.833 9.833 0 0 0-2.575-.31c-6.077.003-11.54 4.228-13.806 10.925zm46.577-10.922c-13.808 0-24.73 9.79-24.73 26.483 0 15.766 10.408 25.658 23.907 25.658 12.057 0 24.833-8.038 24.833-26.482 0-15.252-9.687-25.66-24.01-25.66zm-.412 45.34c-8.86 0-15.145-8.244-15.145-19.167 0-9.48 4.637-19.373 15.354-19.373S1680.3 75.95 1680.3 84.4c0 11.232-6.493 19.372-15.15 19.372zm77.596-44.207h-9.067V90.17c0 1.65-.31 3.298-.823 4.638-1.65 4.02-5.875 8.244-11.954 8.244-8.243 0-11.13-6.388-11.13-15.87V59.567h-9.066v29.162c0 17.518 9.377 21.846 17.208 21.846 8.862 0 14.117-5.255 16.487-9.274h.206l.516 8.14h8.037c-.31-3.916-.41-8.45-.41-13.6l-.003-36.274zm41.117-1.133c-8.14 0-14.014 3.607-17.724 9.687h-.206l-.412-8.553h-8.142c.207 4.74.413 9.893.413 16.28v53.996h8.965v-27.1h.206c2.987 4.946 8.76 7.83 15.354 7.83 11.747 0 22.67-8.86 22.67-26.79 0-15.15-9.067-25.35-21.124-25.35zm-3.092 45.03c-6.49 0-11.952-4.327-13.602-10.613-.207-1.134-.412-2.37-.412-3.71v-8.553c0-1.236.31-2.576.617-3.71 1.752-6.8 7.522-11.23 13.705-11.23 9.583 0 14.84 8.552 14.84 18.547 0 11.438-5.565 19.27-15.148 19.27zm-299.409-91.047V6.21c-.903-1.355-4.482-6.21-6.207-6.21-.793 0-3.586 2.798-4.967 3.724 3.047 4.554 8.645 7.23 5.025 15.084l2.424-1.427c6.196.138 8.59 1.18 9.927 6.21 2.924-.244 6.207-1.124 6.207-3.725 0-5.302-6.437-7.45-12.41-7.45z" fill="#FFF"/><use xlink:href="#b" width="182.994" height="158.014" x="-91.497" y="-79.007" transform="matrix(1 0 0 -1 360.497 170)" overflow="visible"/><use xlink:href="#b" width="182.994" height="158.014" x="-91.497" y="-79.007" transform="matrix(1 0 0 -1 633.498 948)" overflow="visible"/><use xlink:href="#b" width="182.994" height="158.014" x="-91.497" y="-79.007" transform="matrix(1 0 0 -1 767.498 869)" overflow="visible"/><use xlink:href="#b" width="182.994" height="158.014" x="-91.497" y="-79.007" transform="matrix(1 0 0 -1 764.498 715)" overflow="visible"/><use xlink:href="#b" width="182.994" height="158.014" x="-91.497" y="-79.007" transform="matrix(1 0 0 -1 764.498 560)" overflow="visible"/><use xlink:href="#b" width="182.994" height="158.014" x="-91.497" y="-79.007" transform="matrix(1 0 0 -1 765.498 405)" overflow="visible"/><use xlink:href="#b" width="182.994" height="158.014" x="-91.497" y="-79.007" transform="matrix(1 0 0 -1 765.498 250)" overflow="visible"/><use xlink:href="#b" width="182.994" height="158.014" x="-91.497" y="-79.007" transform="matrix(1 0 0 -1 899.478 173)" overflow="visible"/><use xlink:href="#b" width="182.994" height="158.014" x="-91.497" y="-79.007" transform="matrix(1 0 0 -1 900.478 483)" overflow="visible"/><use xlink:href="#b" width="182.994" height="158.014" x="-91.497" y="-79.007" transform="matrix(1 0 0 -1 900.478 638)" overflow="visible"/><use xlink:href="#b" width="182.994" height="158.014" x="-91.497" y="-79.007" transform="matrix(1 0 0 -1 901.478 792)" overflow="visible"/><use xlink:href="#b" width="182.994" height="158.014" x="-91.497" y="-79.007" transform="matrix(1 0 0 -1 1033.478 94)" overflow="visible"/><use xlink:href="#b" width="182.994" height="158.014" x="-91.497" y="-79.007" transform="matrix(1 0 0 -1 899.987 328.006)" overflow="visible"/><use xlink:href="#b" width="182.994" height="158.014" x="-91.497" y="-79.007" transform="matrix(1 0 0 -1 629.498 636)" overflow="visible"/><use xlink:href="#b" width="182.994" height="158.014" x="-91.497" y="-79.007" transform="matrix(1 0 0 -1 630.498 481)" overflow="visible"/><use xlink:href="#b" width="182.994" height="158.014" x="-91.497" y="-79.007" transform="matrix(1 0 0 -1 630.498 326)" overflow="visible"/><use xlink:href="#b" width="182.994" height="158.014" x="-91.497" y="-79.007" transform="matrix(1 0 0 -1 495.498 558)" overflow="visible"/><use xlink:href="#b" width="182.994" height="158.014" x="-91.497" y="-79.007" transform="matrix(1 0 0 -1 495.498 403)" overflow="visible"/><use xlink:href="#b" width="182.994" height="158.014" x="-91.497" y="-79.007" transform="matrix(1 0 0 -1 495.498 248)" overflow="visible"/><use xlink:href="#b" width="182.994" height="158.014" x="-91.497" y="-79.007" transform="matrix(1 0 0 -1 360.498 635)" overflow="visible"/><use xlink:href="#b" width="182.994" height="158.014" x="-91.497" y="-79.007" transform="matrix(1 0 0 -1 360.498 325)" overflow="visible"/><use xlink:href="#b" width="182.994" height="158.014" x="-91.497" y="-79.007" transform="matrix(1 0 0 -1 360.498 480)" overflow="visible"/><use xlink:href="#b" width="182.994" height="158.014" x="-91.497" y="-79.007" transform="matrix(1 0 0 -1 225.498 558)" overflow="visible"/><use xlink:href="#b" width="182.994" height="158.014" x="-91.497" y="-79.007" transform="matrix(1 0 0 -1 225.498 713)" overflow="visible"/><use xlink:href="#b" width="182.994" height="158.014" x="-91.497" y="-79.007" transform="matrix(1 0 0 -1 91.498 634.925)" overflow="visible"/><use xlink:href="#b" width="182.994" height="158.014" x="-91.497" y="-79.007" transform="matrix(1 0 0 -1 91.498 480)" overflow="visible"/><use xlink:href="#b" width="182.994" height="158.014" x="-91.497" y="-79.007" transform="matrix(1 0 0 -1 225.498 403)" overflow="visible"/><use xlink:href="#b" width="182.994" height="158.014" x="-91.497" y="-79.007" transform="matrix(1 0 0 -1 225.498 248)" overflow="visible"/><use xlink:href="#b" width="182.994" height="158.014" x="-91.497" y="-79.007" transform="matrix(1 0 0 -1 1034.478 249)" overflow="visible"/><use xlink:href="#b" width="182.994" height="158.014" x="-91.497" y="-79.007" transform="matrix(1 0 0 -1 1034.478 404)" overflow="visible"/><use xlink:href="#b" width="182.994" height="158.014" x="-91.497" y="-79.007" transform="matrix(1 0 0 -1 1035.478 559)" overflow="visible"/><use xlink:href="#b" width="182.994" height="158.014" x="-91.497" y="-79.007" transform="matrix(1 0 0 -1 1036.498 714)" overflow="visible"/><use xlink:href="#b" width="182.994" height="158.014" x="-91.497" y="-79.007" transform="matrix(1 0 0 -1 1169.478 171)" overflow="visible"/><use xlink:href="#b" width="182.994" height="158.014" x="-91.497" y="-79.007" transform="matrix(1 0 0 -1 1169.478 326)" overflow="visible"/><use xlink:href="#b" width="182.994" height="158.014" x="-91.497" y="-79.007" transform="matrix(1 0 0 -1 1169.478 481)" overflow="visible"/><use xlink:href="#b" width="182.994" height="158.014" x="-91.497" y="-79.007" transform="matrix(1 0 0 -1 1170.478 636)" overflow="visible"/><use xlink:href="#b" width="182.994" height="158.014" x="-91.497" y="-79.007" transform="matrix(1 0 0 -1 1171.478 791)" overflow="visible"/><use xlink:href="#b" width="182.994" height="158.014" x="-91.497" y="-79.007" transform="matrix(1 0 0 -1 1169.478 946)" overflow="visible"/><use xlink:href="#b" width="182.994" height="158.014" x="-91.497" y="-79.007" transform="matrix(1 0 0 -1 1034.478 1023)" overflow="visible"/><use xlink:href="#b" width="182.994" height="158.014" x="-91.497" y="-79.007" transform="matrix(1 0 0 -1 1169.478 1100)" overflow="visible"/><use xlink:href="#b" width="182.994" height="158.014" x="-91.497" y="-79.007" transform="matrix(1 0 0 -1 1304.478 1023)" overflow="visible"/><use xlink:href="#b" width="182.994" height="158.014" x="-91.497" y="-79.007" transform="matrix(1 0 0 -1 1304.478 403)" overflow="visible"/><use xlink:href="#b" width="182.994" height="158.014" x="-91.497" y="-79.007" transform="matrix(1 0 0 -1 1304.478 558)" overflow="visible"/><use xlink:href="#b" width="182.994" height="158.014" x="-91.497" y="-79.007" transform="matrix(1 0 0 -1 1306.498 713)" overflow="visible"/><use xlink:href="#b" width="182.994" height="158.014" x="-91.497" y="-79.007" transform="matrix(1 0 0 -1 1439.478 480)" overflow="visible"/><use xlink:href="#b" width="182.994" height="158.014" x="-91.497" y="-79.007" transform="matrix(1 0 0 -1 1439.478 636)" overflow="visible"/><use xlink:href="#b" width="182.994" height="158.014" x="-91.497" y="-79.007" transform="matrix(1 0 0 -1 1439.478 792)" overflow="visible"/><use xlink:href="#b" width="182.994" height="158.014" x="-91.497" y="-79.007" transform="matrix(1 0 0 -1 1574.478 403)" overflow="visible"/><use xlink:href="#b" width="182.994" height="158.014" x="-91.497" y="-79.007" transform="matrix(1 0 0 -1 1574.478 557)" overflow="visible"/><use xlink:href="#b" width="182.994" height="158.014" x="-91.497" y="-79.007" transform="matrix(1 0 0 -1 1574.478 713)" overflow="visible"/><use xlink:href="#b" width="182.994" height="158.014" x="-91.497" y="-79.007" transform="matrix(1 0 0 -1 1709.478 482)" overflow="visible"/><use xlink:href="#b" width="182.994" height="158.014" x="-91.497" y="-79.007" transform="matrix(1 0 0 -1 1709.478 636)" overflow="visible"/><g><path fill="#FFF" d="M856.612 404.006L813.758 330l42.854-74.008h85.732L985.198 330l-42.854 74.006z"/><use xlink:href="#c" width="182.995" height="163.014" x="-91.498" y="-81.507" transform="matrix(1 0 0 -1 899.478 330)" overflow="visible"/><path fill="#F9673C" d="M900.313 328.238l.632-3.078 3.145-.154c2.557-.128 4.563-2.192 4.604-4.717l-.38-3.72 2.97-1.07c2.928-1.056 6.326-1.577 10.385-1.577 4.04 0 7.428.51 10.35 1.566l2.998 1.073c-2.162-20.354-21.3-19.852-21.3-19.852-11.063 0-16.41 8.777-16.41 8.777s-5.332-8.776-16.422-8.776c0 0-19.91-.527-21.396 21.126 0 0-1.008 13.447 15.386 27.663 5.805 4.522 22.433 14.89 22.433 17.79 0-1.65 5.35-5.693 11.043-9.71-4.437-5.97-8.552-13.325-8.552-20.017.002-1.868.172-3.66.513-5.325z"/><path fill="#8AC553" d="M939.042 329.063c-4.718-.223-8.478-4.082-8.478-8.856 0-.306.055-.597.09-.898-2.645-.95-5.703-1.323-8.983-1.323-3.292 0-6.362.377-9.008 1.332.033.297.095.582.095.884 0 4.764-3.76 8.623-8.463 8.857-.277 1.345-.434 2.832-.434 4.502 0 12.284 17.81 28.92 17.81 28.92s17.81-16.637 17.81-28.92c-.002-1.668-.158-3.157-.438-4.5z"/><path d="M913.72 296.71c-11.065 0-16.41 8.776-16.41 8.776s-.022-.035-.063-.095v57.575c.038.116.062.225.062.324 0-1.65 5.35-5.694 11.043-9.71-4.436-5.97-8.552-13.326-8.552-20.018 0-1.867.172-3.66.513-5.325l.632-3.078 3.145-.155c2.557-.128 4.563-2.192 4.604-4.717l-.38-3.72 2.97-1.07c2.93-1.055 6.326-1.576 10.386-1.576 4.04 0 7.428.51 10.35 1.566l2.998 1.074c-2.163-20.354-21.3-19.852-21.3-19.852z" opacity=".05"/><path d="M939.042 329.063c-4.718-.223-8.478-4.082-8.478-8.856 0-.306.055-.597.09-.898-2.645-.95-5.703-1.323-8.983-1.323v44.496s17.81-16.638 17.81-28.92c-.002-1.67-.158-3.158-.438-4.5z" opacity=".05"/><path fill="#FFF" d="M1126.612 247.006L1083.76 173l42.852-74.008h85.733L1255.2 173l-42.855 74.006z"/><use xlink:href="#c" width="182.995" height="163.014" x="-91.498" y="-81.507" transform="matrix(1 0 0 -1 1169.48 173)" overflow="visible"/><path fill="#209F4A" d="M1193.83 183.12h-34.022c-.668 1.335-1.336 2.002-2.002 2.67-2.668 4.67-1.334 11.34 2.668 14.676 4.67 4.002 11.342 4.002 16.678 2.668 2.67-.667 6.006-2 8.006-3.336 2.002 0 4.672-2.668 6.004-2 3.336.666 2.002 7.337.668 9.34-6.004 7.337-23.35 6.67-31.354 4-10.674-4-18.012-16.01-14.01-28.018h-1.334c-2.668 0-2.668-7.34 0-7.34h6.004c3.336-2.667 8.006-5.336 12.01-7.338l4.002-2h-22.016c-2.668 0-2.668-7.34 0-7.34h33.356c0-.666.666-.666.666-1.333 8.006-12.01-8.004-18.013-17.346-15.345-2 .667-8.006 5.337-10.006 4.67-3.336-.667-2.002-7.338-.668-9.34 5.338-6.004 19.348-5.337 26.018-3.335 10.674 3.335 16.68 14.01 13.344 24.684h3.337c2.668 0 2.668 7.338 0 7.338h-7.34l-.667 1.334c-3.336 3.335-7.338 5.337-12.008 7.338-.668 0-1.336.667-2.002.667h22.017c2.666.67 2.666 7.34-.003 7.34z"/><path opacity=".05" d="M1191.828 207.138c1.334-2.002 2.668-8.673-.668-9.34-1.332-.667-4.002 2-6.004 2-2 1.335-5.336 2.67-8.006 3.337-2.39.597-5.046.923-7.67.746v8.943c8.257.678 18.117-.514 22.348-5.685zm2.002-31.356h-22.016c.666 0 1.334-.667 2.002-.667 4.67-2 8.672-4.002 12.008-7.338l.668-1.334h7.338c2.668 0 2.668-7.338 0-7.338h-3.336c3.336-10.674-2.67-21.348-13.344-24.684-2.027-.607-4.736-1.09-7.67-1.3v8.877c8.106 1.092 15.702 6.728 9.672 15.773 0 .667-.666.667-.666 1.334h-9.007v24.017h24.35c2.67 0 2.67-6.67 0-7.338z"/><g><path fill="#FFF" d="M317.63 399.006L274.778 325l42.854-74.008h85.733L446.218 325l-42.855 74.006z"/><use xlink:href="#c" width="182.995" height="163.014" x="-91.498" y="-81.507" transform="matrix(1 0 0 -1 360.497 325)" overflow="visible"/><path fill="#424242" d="M404.505 323.45c-.357-1.286-12.622-4.215-8.76-6.756-3.785-2.558-6.69-6.182-8.22-10.403a34.873 34.873 0 0 1-2.8-.625c-12.126-4.538-22.375-3.808-24.228-3.626-1.853-.183-12.104-.913-24.23 3.625-.494.13-.978.25-1.452.355-1.592 4.602-4.815 8.516-9.035 11.143 1.884 2.424-8.955 5.082-9.292 6.29-.366 1.305 4.465 5.696 7.498 5.37 3.034-.322 10.252-2.228 11.34-1.074 1.087 1.152 5.61 19.79 10.774 23.465-5.042 5.988-9.68 18.857 14.395 18.786 24.08.073 20.194-14.447 14.4-18.785 5.16-3.674 9.685-22.313 10.77-23.466 1.09-1.155 8.308.75 11.342 1.074 3.035.323 7.867-4.07 7.498-5.373z"/><path fill="#BCBCBC" d="M334.816 306.02c-14.188 3.166-19.063-5.036-19.476-16.02 0 0-9.992 20.556 9.728 26.577.333.193.56.388.713.585 4.22-2.628 7.444-6.54 9.036-11.143zM405.654 290c-.4 10.63-4.976 18.653-18.13 16.29 1.53 4.223 4.437 7.846 8.222 10.404.06-.04.11-.078.18-.117 19.72-6.022 9.728-26.577 9.728-26.577z"/><path fill="#E9E9E9" d="M360.422 350.084s-12.93-1.048-14.843.89c-2.215 2.243-5.874 8.894-3.1 13.587 2.95 4.996 11.328 5.708 17.94 5.71 6.717 0 13.992-1.024 17.656-5.474 3.6-4.37 1.08-11.11-2.813-13.823-2.516-1.953-14.84-.89-14.84-.89z"/><path opacity=".05" d="M395.924 316.576c19.724-6.02 9.73-26.577 9.73-26.577-.43 11.35-5.617 19.73-20.93 15.663-12.126-4.538-22.375-3.808-24.228-3.626v67.96c24.078.072 20.192-14.447 14.398-18.785 5.16-3.674 9.685-22.313 10.77-23.466 1.09-1.154 8.308.752 11.342 1.075 3.032.326 7.864-4.065 7.496-5.37-.36-1.305-13.012-4.306-8.578-6.874z"/><path fill="#FFF" d="M358.078 362.16c0 .36-.07.71-.2 1.03a2.8 2.8 0 0 1-1.73 1.65c-.28.1-.58.15-.9.15a2.834 2.834 0 0 1-2.828-2.83c0-1.56 1.27-2.83 2.83-2.83a2.83 2.83 0 0 1 2.828 2.83zm10.5 0c0 1.35-.95 2.48-2.22 2.76-.2.05-.4.07-.61.07-.18 0-.37-.02-.54-.05-1.03-.2-1.86-.96-2.16-1.95-.09-.26-.13-.54-.13-.83 0-.11.01-.21.01-.32a2.852 2.852 0 0 1 2.82-2.51c1.56 0 2.83 1.27 2.83 2.83z"/><path fill="#FBAE17" d="M366.358 364.92a6.391 6.391 0 0 0-3.43-3.08c0 .11-.01.21-.01.32 0 .29.04.57.13.83.89.44 1.64 1.11 2.16 1.95.55.84.86 1.84.86 2.91 0 2.99-2.43 5.42-5.42 5.42s-5.42-2.43-5.42-5.42c0-1.11.34-2.15.92-3.01.44-.67 1.03-1.24 1.73-1.65.13-.32.198-.67.198-1.03 0-.07 0-.13-.01-.2-1.37.6-2.49 1.67-3.15 3.01a6.37 6.37 0 0 0-.69 2.88c0 3.55 2.87 6.42 6.42 6.42s6.42-2.87 6.42-6.42a6.408 6.408 0 0 0-.708-2.93z"/><circle fill="#FFF" cx="351.454" cy="329.264" r="4.5"/><circle fill="#FFF" cx="371.509" cy="329.264" r="4.5"/><circle fill="#424242" cx="351.454" cy="329.264" r="2.374"/><circle fill="#424242" cx="371.509" cy="329.264" r="2.374"/></g><g><path fill="#FFF" d="M182.63 632.006L139.777 558l42.853-74.008h85.733L311.217 558l-42.854 74.006z"/><use xlink:href="#c" width="182.995" height="163.014" x="-91.498" y="-81.507" transform="matrix(1 0 0 -1 225.497 560)" overflow="visible"/><path fill="#ED3F65" d="M254.78 577h-10.436c-1.57 0-.357-.672-.357.898v9.353c0 3.93-4.16 8.42-7.943 9.462-3.076.837-6.75 1.287-10.24 1.287-3.295 0-7.383-.397-10.455-1.15-3.814-.93-7.362-5.656-7.362-9.583V577.9c0-1.57-.452-.898-2.02-.898h-9.736c-3.927 0-8.62-3.813-9.535-7.63-.783-3.27-1.198-7.357-1.198-10.72 0-1.92.144-3.63.396-5.478.265-1.85.656-4.496 1.166-6.23.862-2.943 5.26-5.942 9.183-5.942h9.723c1.57 0 2.02.09 2.02-1.48V528.72c0-3.926 3.24-8.648 7.054-9.58 3.07-.745 6.637-1.14 9.932-1.14 3.49 0 7.892.45 10.967 1.292 3.788 1.038 8.05 5.53 8.05 9.455v10.775c0 1.568-1.212 1.48.358 1.48h10.405c3.924 0 8.325 2.874 9.187 5.818.508 1.736.897 3.924 1.163 5.768.254 1.85.396 3.502.396 5.418 0 3.36-.41 8.016-1.188 11.278-.914 3.817-5.608 7.716-9.532 7.716z"/><path opacity=".05" d="M265.1 552.587c-.266-1.844-.655-4.03-1.163-5.768-.86-2.945-5.263-5.82-9.187-5.82h-10.405c-1.57 0-.357.09-.357-1.48v-10.774c0-3.924-4.263-8.417-8.05-9.455-2.925-.798-7.04-1.24-10.44-1.282v79.987c.102 0 .207.005.308.005 3.49 0 7.164-.45 10.24-1.287 3.783-1.042 7.942-5.533 7.942-9.46v-9.355c0-.564-.157-.837-.285-.956-.264-.067-.155-.146 0 0 .123.03.323.06.643.06h10.436c3.924 0 8.618-3.9 9.53-7.718.777-3.263 1.187-7.917 1.187-11.278-.003-1.917-.146-3.568-.4-5.42z"/></g><g><use xlink:href="#c" width="182.995" height="163.014" x="-91.498" y="-81.507" transform="matrix(1 0 0 -1 767.497 871)" overflow="visible"/><path fill="#FF9C5B" d="M771.068 850.44l24.695 22.292v32c0 2.31-1.943 4.267-4.266 4.267h-48c-2.32 0-4.265-1.957-4.265-4.267v-32l24.69-22.293a5.38 5.38 0 0 1 7.146 0z"/><path fill="#FFF" d="M772.31 894.02c0 1.2.97 2.174 2.168 2.174h12.7c1.2 0 2.17-.974 2.17-2.173v-12.706c0-1.2-.97-2.175-2.17-2.175h-12.7c-1.197 0-2.17.975-2.17 2.174v12.707zm-9.626-12.706c0-1.2-.973-2.175-2.17-2.175h-12.7c-1.197 0-2.17.975-2.17 2.174v12.708c0 1.198.973 2.172 2.17 2.172h12.7c1.197 0 2.17-.974 2.17-2.172v-12.708z"/><path d="M812.407 868.43l-41.91-37.436a4.501 4.501 0 0 0-3-1.144v15.82c1.536 0 3.007.56 4.148 1.576l32.958 29.443a4.516 4.516 0 0 0 6.002-.001l1.803-1.616a4.462 4.462 0 0 0 1.49-3.32c0-1.266-.545-2.48-1.49-3.325zm-41.339-17.99a5.355 5.355 0 0 0-3.57-1.357V909h24c2.32 0 4.266-1.957 4.266-4.267v-32l-24.696-22.293z" opacity=".05"/><path fill="#FAD089" d="M812.407 875.076l-1.803 1.615a4.508 4.508 0 0 1-6.002.001l-32.958-29.442a6.218 6.218 0 0 0-4.147-1.577 6.22 6.22 0 0 0-4.145 1.578l-32.96 29.443a4.504 4.504 0 0 1-6 .001l-1.804-1.614a4.458 4.458 0 0 1-1.49-3.32c0-1.268.543-2.48 1.49-3.327l16.808-15.012c-.166-.354-.162-21.214-.162-21.214 0-1.51 1.125-3.205 2.642-3.205h5.266c1.52 0 2.76 1.694 2.76 3.204v11.733l14.598-12.943a4.509 4.509 0 0 1 6 0l41.91 37.435a4.476 4.476 0 0 1 1.49 3.325 4.47 4.47 0 0 1-1.493 3.32z"/></g><g><use xlink:href="#c" width="182.995" height="163.014" x="-91.498" y="-81.507" transform="matrix(1 0 0 -1 1170.48 794)" overflow="visible"/><path fill="#52A4B4" d="M1147.306 784.28a23.747 23.747 0 0 0-13.925 4.486c-6.014 4.332-9.93 11.397-9.93 19.378 0 13.172 10.683 23.854 23.854 23.854 13.18 0 23.863-10.683 23.863-23.854.002-13.18-10.68-23.863-23.86-23.863zm0 37.264c-7.387 0-13.4-6.013-13.4-13.4 0-7.395 6.015-13.406 13.4-13.406 7.396 0 13.408 6.013 13.408 13.407 0 7.386-6.01 13.4-13.408 13.4zm53.164-23.621c-9.415 0-17.04 7.628-17.04 17.037 0 9.408 7.625 17.04 17.04 17.04 9.404 0 17.036-7.632 17.036-17.04 0-9.41-7.63-17.037-17.037-17.037zm0 26.238c-5.074 0-9.202-4.127-9.202-9.2 0-5.072 4.128-9.2 9.2-9.2 5.072 0 9.2 4.128 9.2 9.2 0 5.073-4.128 9.2-9.2 9.2z"/><path fill="#FA6900" d="M1200.467 794.008c4.624 0 8.9 1.5 12.357 4.036 1.743 1.283 3.223 1.032 3.38-.938.103-1.15.146-2.347.146-3.558 0-7.124-1.713-13.33-4.235-16.52-1.345-1.69-3.142-2.226-3.142-2.244 0-.026-6.512-.044-6.512-.044v-7.806a2.428 2.428 0 0 0-2.43-2.428c-1.34 0-2.43 1.09-2.43 2.428v7.806h-14.428l-3.462-18.89c-.39-2.13-2.46-3.855-4.625-3.855h-31.91c-2.162 0-4.16 1.735-4.45 3.885l-3.31 18.858a3.924 3.924 0 0 0-3.92 3.92v2.743c0 2.167 1.43 2.89 3.362 1.916a27.423 27.423 0 0 1 9.704-2.81h5.593c13.98 1.426 24.934 13.28 24.934 27.634 0 .712-.024 1.413-.08 2.108-.086 1.158.853 2.094 2.208 2.094 1.358 0 2.64-1.76 3.3-3.817 2.72-8.42 10.648-14.517 19.952-14.517z"/><path opacity=".05" d="M1212.116 777.03c-1.345-1.69-3.142-2.226-3.142-2.244 0-.026-1.76-.044-3.928-.044h-2.584v-7.805a2.43 2.43 0 0 0-4.86 0v7.805h-14.43l-3.46-18.89c-.392-2.13-2.46-3.855-4.626-3.855h-1.163v48.192a27.627 27.627 0 0 1 1.085 10.06c-.086 1.158.853 2.094 2.208 2.094 1.36 0 2.64-1.76 3.3-3.817 2.716-8.425 10.646-14.52 19.948-14.52 4.624 0 8.9 1.5 12.357 4.035 1.744 1.283 3.224 1.032 3.382-.938.102-1.15.146-2.347.146-3.558.003-7.12-1.71-13.325-4.232-16.517zm-40.946 31.115c0-13.18-10.683-23.86-23.86-23.862v10.455c7.396.002 13.405 6.014 13.405 13.408 0 7.386-6.01 13.396-13.404 13.398V832c13.178-.003 23.86-10.685 23.86-23.855z"/><path d="M1200.47 797.923l-.002 7.838c5.072 0 9.2 4.128 9.2 9.2 0 5.073-4.13 9.2-9.2 9.2V832c9.406 0 17.038-7.632 17.038-17.04 0-9.41-7.63-17.037-17.037-17.037z" opacity=".05"/><path fill="#FFF" d="M1159.94 774.742h-16.54c-.662-.404-1.18-1.006-1.423-1.748a2.913 2.913 0 0 1-.124-.656 3.23 3.23 0 0 1 .01-.754c.005-.063-.006-.123.004-.188l1.42-10.29c.065-.458.194-.894.405-1.298.73-1.5 2.338-2.586 4.05-2.586h14.044l-1.845 17.52zm15.7 0h-11.754l1.834-17.52h5.485c1.7 0 3.28 1.056 4.04 2.542l1.813 11.646c.012.097.03.174.03.253.025.206.025.415.015.627a3.133 3.133 0 0 1-1.462 2.452z"/></g><g><use xlink:href="#c" width="182.995" height="163.014" x="-91.498" y="-81.507" transform="matrix(1 0 0 -1 1035.48 561)" overflow="visible"/><path fill="#FBAE17" d="M1073.95 572.792h-2.054v-27.206c0-1.48-1.203-2.68-2.684-2.68h-67.47c-1.48 0-2.682 1.2-2.682 2.68v27.206h-2.055a1.533 1.533 0 1 0 0 3.066h76.942a1.53 1.53 0 0 0 1.527-1.533 1.522 1.522 0 0 0-1.523-1.533z"/><path fill="#73CD8C" d="M1036.777 537.134c-3.58-2.81-8.205-5.758-12.266-6.237-6.34-.752-14.708 6.28-18.012 9.332h33.935a63.652 63.652 0 0 0-3.656-3.096zm27.023 3.096c-3.883-2.728-10.016-6.382-15.188-6.517-2.688-.07-5.97.896-9.186 2.234l4.823 4.28h19.55z"/><path d="M1036.777 537.134c-3.58-2.81-8.205-5.758-12.266-6.237a8.19 8.19 0 0 0-1.044-.046v9.38h16.967a63.652 63.652 0 0 0-3.656-3.096zm14.836-3v6.095h12.188c-3.152-2.215-7.787-5.04-12.187-6.096z" opacity=".05"/><path fill="#73CD8C" d="M1007.972 577.486a4.835 4.835 0 0 0-4.836 4.836 4.834 4.834 0 0 0 4.836 4.836c2.674 0 4.838-2.163 4.838-4.836s-2.164-4.836-4.838-4.836zm12.936 0a4.84 4.84 0 0 0-4.838 4.836 4.84 4.84 0 0 0 4.838 4.836 4.836 4.836 0 1 0 0-9.672zm29.142 0a4.843 4.843 0 0 0-4.844 4.836 4.842 4.842 0 0 0 4.845 4.836c2.667 0 4.84-2.163 4.84-4.836s-2.173-4.836-4.84-4.836zm12.934 0a4.833 4.833 0 0 0-4.836 4.836c0 2.673 2.162 4.836 4.836 4.836s4.838-2.163 4.838-4.836-2.164-4.836-4.838-4.836z"/><path d="M1073.95 572.792h-2.054v-27.206c0-1.48-1.203-2.68-2.684-2.68h-33.734v32.95h38.473a1.53 1.53 0 0 0 1.528-1.532c0-.848-.684-1.532-1.527-1.532zm-61.14 9.53a4.835 4.835 0 0 0-4.837-4.836v9.672a4.834 4.834 0 0 0 4.837-4.836zm12.935 0a4.835 4.835 0 0 0-4.837-4.836v9.672a4.834 4.834 0 0 0 4.837-4.836zm29.14 0a4.835 4.835 0 0 0-4.837-4.836v9.672a4.835 4.835 0 0 0 4.837-4.836zm12.937 0a4.835 4.835 0 0 0-4.837-4.836v9.672a4.834 4.834 0 0 0 4.837-4.836z" opacity=".05"/></g><g><use xlink:href="#c" width="182.995" height="163.014" x="-91.498" y="-81.507" transform="matrix(1 0 0 -1 1439.48 638)" overflow="visible"/><path fill="#EB6841" d="M1459.107 605.518l3.694-9.38-10.08-.14 2.303 3.434-51.98 39.798 1.78 2.655 51.98-39.8z"/><path fill="#00A0B0" d="M1473.785 608.854h-14.922a2.134 2.134 0 0 0-2.133 2.133V676h19.188v-65.014a2.133 2.133 0 0 0-2.133-2.132zm-50.092 42.63h-14.922a2.133 2.133 0 0 0-2.132 2.133V676h19.184v-22.383a2.131 2.131 0 0 0-2.13-2.133zm24.512-21.314h-14.922a2.13 2.13 0 0 0-2.13 2.13V676h19.186v-43.7a2.134 2.134 0 0 0-2.135-2.13z"/><path opacity=".05" d="M1475.917 610.985a2.133 2.133 0 0 0-2.133-2.134h-7.46v67.147h9.593v-65.012zm-25.579 21.315c0-1.177-.955-2.13-2.134-2.13h-7.46V676h9.593v-43.7zm-24.516 21.317a2.131 2.131 0 0 0-2.13-2.133h-7.462V676h9.592v-22.383z"/></g><g><path fill="#FFF" d="M722.63 481.006L679.777 407l42.853-74.008h85.733L851.217 407l-42.854 74.006z"/><use xlink:href="#c" width="182.995" height="163.014" x="-91.498" y="-81.507" transform="matrix(1 0 0 -1 765.497 407)" overflow="visible"/><path fill="#FBD838" d="M793.345 437.7s-17.15-16.024-17.15-27.853c0-1.61.15-3.04.418-4.336 4.53-.224 8.148-3.94 8.148-8.528 0-.29-.06-.564-.087-.852 2.545-.92 5.504-1.283 8.672-1.283 3.16 0 6.11.36 8.652 1.273-.03.29-.086.572-.086.865 0 4.6 3.622 8.314 8.166 8.53.27 1.292.418 2.726.418 4.33.002 11.83-17.15 27.854-17.15 27.854z"/><path fill="#666" d="M777.315 431.7c.46.63.93 1.238 1.4 1.83h-41.96c-.81 0-1.47-1.07-1.49-2.4v-.06c0-.683.17-1.303.44-1.74.27-.45.64-.73 1.05-.73h38.38c.71 1.07 1.44 2.1 2.18 3.1zm-42.557.49c0 3.958-2.475 6.007-5.524 6.007-3.05 0-5.525-1.24-5.525-5.198v-9.72c0-3.96 2.476-7.166 5.524-7.166 3.05 0 5.524 3.207 5.524 7.166v8.91z"/><path fill="#49A3FF" d="M786.417 385.63c-1.256-2.193-2.466-4.506-4.312-6.272-2.01-1.923-4.774-2.697-7.46-3.1-5.377-.922-10.893-.043-16.303-.08-4.587-.032-9.165-.675-13.75-.203-2.14.22-4.342.674-6.207 1.79-2.143 1.285-3.577 3.457-4.726 5.617-1.49 2.797-2.55 5.787-3.948 8.627-.08.16-.315.846-.53.89-.5.105-.868-1.744-1.018-2.03-.862-1.646-3.57-1.43-5.06-1.065-1.44.35-3.017 1.424-2.54 3.137.33 1.19 1.81 1.616 2.854 1.903 1.283.353 2.708.52 3.885 1.175 1.588.886.9 2.72.202 4.022-1.148 2.138-2.58 3.98-3.332 6.332-.88 2.76-.893 5.765-.813 8.634.083 3.007.444 6.033 1.297 8.925.54 1.83 1.193 4.443 3.01 5.453 1.826 1.016 4.087.9 6.077 1.376 1.963.47 3.914.938 5.946.938h37.625c-3.657-4.946-6.97-10.436-8.436-16.467-1.106-4.548-.59-9.005.347-13.514l.794-3.82c.052-.246 2.522-.197 2.81-.21.744-.04 1.487-.076 2.23-.113.342-.017.83.05 1.157-.058.79-.038.45-1.057.402-1.526-.118-1.158-.234-2.316-.356-3.474-.03-.296-.35-1.54-.177-1.79.066-.097.46-.167.563-.205l3.022-1.09c2.517-.91 5-1.77 7.664-2.167-.304-.547-.62-1.088-.92-1.64-1.46-2.55.11.2 0 0z"/><ellipse fill="#666" cx="730.017" cy="416.386" rx="2.036" ry="1.851"/><path fill="#666" d="M774.265 427.25a3.67 3.67 0 0 1-2.86 1.37h-22.17c-.13 0-.25-.01-.37-.02a3.665 3.665 0 0 1-3.29-3.64c0-1.01.41-1.93 1.07-2.59.66-.66 1.58-1.07 2.59-1.07h21.79c.93 2.04 2.04 4.04 3.24 5.95z"/><path opacity=".05" d="M786.417 385.63c-1.256-2.193-2.466-4.506-4.312-6.272-2.01-1.923-4.774-2.697-7.46-3.1-3.047-.522-6.24-.42-9.318-.314-.46.016-6.33.236-6.33.248v57.335c0 .002 1.314 0 1.387 0h18.333c-3.84-4.828-7.307-10.24-9.223-16.14-1.574-4.85-1.51-9.688-.48-14.635l.903-4.344c.028-.134.03-.578.193-.586l1.59-.08 4.242-.213c.36-.018.83-.083.78-.55-.1-.936-.19-1.874-.287-2.812-.06-.576-.656-3.33-.162-3.51.948-.34 1.896-.683 2.844-1.025 2.704-.976 5.357-1.94 8.22-2.367-.305-.545-.622-1.086-.92-1.637-1.46-2.55.108.2 0 0z"/><path fill="#FFF" d="M728.372 400.293c-2.626 5.24-.535 7.49 4.534 8.52 1.752.355 8.775 2.14 9.62.16 1.15-2.706-12.098-12.777-14.154-8.68-.765 1.525.232-.465 0 0zm55.153-11.993l-5.87 2.118s-1.5.96-1.42 1.85c-5.74.29-11.49.42-17.24.392-7.68-.04-15.358-.33-23.01-.86.16 0 .36-2.21.392-2.37.27-1.69.74-3.36 1.59-4.85 1.79-3.15 4.92-4.28 8.4-4.25 4.21.04 8.42.09 12.63.12 4.25.05 8.5.09 12.75.13 1.42.02 2.84.03 4.26.05.38 0 .78-.03 1.15.02 1.31.19 2.43 1.1 3.278 2.05 1.38 1.54 2.35 3.43 3.09 5.4 0 0 .51.008 0 .2z"/><path opacity=".05" d="M810.078 405.516c-4.544-.215-8.165-3.93-8.165-8.53 0-.292.055-.573.086-.864-2.542-.912-5.493-1.273-8.653-1.273v42.85s17.15-16.022 17.15-27.85c0-1.608-.15-3.04-.42-4.334z"/></g></g></svg>