<svg xmlns="http://www.w3.org/2000/svg" width="157.821" height="157.821" viewBox="0 0 157.821 157.821"><circle fill="#fff" cx="78.911" cy="78.911" r="78.911"/><path fill="#F9493D" d="M109.443 35.488a2.044 2.044 0 0 0-2.044-2.044H51.704a2.044 2.044 0 0 0-2.044 2.044V126.4c0 1.129.915 2.044 2.044 2.044h55.695a2.044 2.044 0 0 0 2.044-2.044V35.488z"/><path fill="#FBAE17" d="M69.453 56.866a2 2 0 0 1-2 2h-9.93a2 2 0 0 1-2-2v-6.447a2 2 0 0 1 2-2h9.93a2 2 0 0 1 2 2v6.447zm17.064 0a2 2 0 0 1-2 2h-9.93a2 2 0 0 1-2-2v-6.447a2 2 0 0 1 2-2h9.93a2 2 0 0 1 2 2v6.447zm17.063 0a2 2 0 0 1-2 2h-9.93a2 2 0 0 1-2-2v-6.447a2 2 0 0 1 2-2h9.93a2 2 0 0 1 2 2v6.447z"/><path opacity=".05" d="M107.399 33.444H79.552v95H107.4a2.044 2.044 0 0 0 2.044-2.044V35.488a2.045 2.045 0 0 0-2.045-2.044z"/><path d="M69.453 74.945a2 2 0 0 1-2 2h-9.93a2 2 0 0 1-2-2v-6.447a2 2 0 0 1 2-2h9.93a2 2 0 0 1 2 2v6.447zm17.064 0a2 2 0 0 1-2 2h-9.93a2 2 0 0 1-2-2v-6.447a2 2 0 0 1 2-2h9.93a2 2 0 0 1 2 2v6.447zm17.063 0a2 2 0 0 1-2 2h-9.93a2 2 0 0 1-2-2v-6.447a2 2 0 0 1 2-2h9.93a2 2 0 0 1 2 2v6.447zM69.453 93.024a2 2 0 0 1-2 2h-9.93a2 2 0 0 1-2-2v-6.447a2 2 0 0 1 2-2h9.93a2 2 0 0 1 2 2v6.447zm17.064 0a2 2 0 0 1-2 2h-9.93a2 2 0 0 1-2-2v-6.447a2 2 0 0 1 2-2h9.93a2 2 0 0 1 2 2v6.447zm17.063 0a2 2 0 0 1-2 2h-9.93a2 2 0 0 1-2-2v-6.447a2 2 0 0 1 2-2h9.93a2 2 0 0 1 2 2v6.447zM69.453 111.104a2 2 0 0 1-2 2h-9.93a2 2 0 0 1-2-2v-6.447a2 2 0 0 1 2-2h9.93a2 2 0 0 1 2 2v6.447zm17.064 0a2 2 0 0 1-2 2h-9.93a2 2 0 0 1-2-2v-6.447a2 2 0 0 1 2-2h9.93a2 2 0 0 1 2 2v6.447zm17.063 0a2 2 0 0 1-2 2h-9.93a2 2 0 0 1-2-2v-6.447a2 2 0 0 1 2-2h9.93a2 2 0 0 1 2 2v6.447z" fill="#FBAE17"/></svg>