<svg xmlns="http://www.w3.org/2000/svg" width="157.821" height="157.821" viewBox="0 0 157.821 157.821"><circle fill="#fff" cx="78.91" cy="78.91" r="78.735"/><path fill="#F9493D" d="M59.062 58.885C37.4 71.675 24.518 89.967 30.29 99.743c5.771 9.775 28.011 7.332 49.673-5.457s34.544-31.082 28.771-40.857c-5.772-9.776-28.01-7.333-49.672 5.456zm43.064 4.194a4.95 4.95 0 1 1-5.034-8.525 4.95 4.95 0 1 1 5.034 8.525z"/><path fill="#FBAE17" d="M113.288 84.855c5.553-1.13 10.141-5.502 11.246-11.414 1.458-7.787-3.674-15.28-11.46-16.738-7.787-1.457-15.28 3.674-16.738 11.461-1.071 5.728 1.429 11.287 5.921 14.412l-6.324 33.788 2.321 2.131 2.442 2.248 3.463.648 3.898-5.957.447-2.396-1.73-.323-.043-1.912 1.74-1.258-1.459-1.776 1.912-.65.375-3.625-1.438-.27 1.035-2.877 1.721-1.758-1.199-1.632-.371-4.341 2.096-1.111.209-2.745-.729-2.424 1.917.358.748-1.839zm-1.423-21.691a3.206 3.206 0 1 1-1.18 6.303 3.206 3.206 0 0 1 1.18-6.303z"/><path opacity=".1" d="M107.516 86.442l-6.433 34.373-.387-.072-2.442-2.248 6.108-32.643a1.578 1.578 0 0 1 1.836-1.257l.061.012c.85.16 1.416.986 1.257 1.835z"/><path fill="#EBEBED" d="M113.563 36.43c-7.075 0-13.051 4.796-14.812 11.321.817.11 1.588.268 2.327.472 1.541-5.44 6.557-9.435 12.484-9.435 7.154 0 12.988 5.834 12.988 12.988 0 4.089-1.902 7.752-4.875 10.126a12.868 12.868 0 0 1-7.594 2.847c-.174.016-.346.016-.52.016-1.525 0-2.987-.268-4.355-.755l-.109-.031a3.154 3.154 0 0 0-.975 1.745l-.048.394.283.109c1.62.566 3.38.896 5.204.896.268 0 .535 0 .803-.016a15.215 15.215 0 0 0 8.633-3.239 15.27 15.27 0 0 0 5.912-12.092c.002-8.474-6.87-15.346-15.346-15.346zM98.39 54.025a14.93 14.93 0 0 0 2.375 6.195 11.681 11.681 0 0 1 1.871-1.447 12.927 12.927 0 0 1-1.855-4.764 4.913 4.913 0 0 0-2.391.016z"/><path fill="#fff" d="M66.199 65.779a1.87 1.87 0 0 0-2.347 1.218l-1.355 4.28-.998-1.925-1.58.82a1.872 1.872 0 0 0-.799 2.521l1.463 2.816c.229.44.272.953.123 1.426l-1.418 4.477a1.87 1.87 0 0 0 1.211 2.344l1.723.554.564-1.786 2.8 5.395a1.87 1.87 0 0 0 2.521.798l2.382-1.236a1.87 1.87 0 0 0 .798-2.521l-2.144-4.13a1.869 1.869 0 0 1 .798-2.52l2.005-1.041a1.87 1.87 0 0 1 2.521.798l2.143 4.131a1.871 1.871 0 0 0 2.521.798l2.382-1.236a1.872 1.872 0 0 0 .799-2.521l-2.8-5.394 1.786.565.539-1.728a1.871 1.871 0 0 0-1.221-2.339l-14.417-4.564z"/></svg>