<svg xmlns="http://www.w3.org/2000/svg" width="157.821" height="157.821" viewBox="0 0 157.821 157.821"><circle fill="#fff" cx="78.911" cy="78.91" r="78.735"/><path fill="#D5D6DA" d="M46.764 45.042l-1.988-3.909-6.796-6.795-3.715 3.716 6.796 6.795 4.052 1.846 26.858 26.856 1.65-1.65z"/><path fill="#F9493D" d="M118.008 98.688c-5.932-5.93-36.137-29.912-44.268-26.667l-.119-.119-1.65 1.65.119.119c-3.245 8.128 20.739 38.335 26.672 44.267 6.212 6.211 14.659 7.838 20.873 1.625 6.213-6.215 4.586-14.661-1.627-20.875z"/><path fill="#FBAE17" d="M98.041 59.782l-4.187-15.626 10.782-10.781-7.338-1.964-16.806 16.806 3.553 13.259-33.254 33.256a15.972 15.972 0 0 0-14.689 4.328c-6.256 6.26-6.256 16.396 0 22.65 6.263 6.266 16.402 6.266 22.658.008a15.97 15.97 0 0 0 4.331-14.689l33.254-33.25 13.26 3.551 16.808-16.806-1.965-7.336-10.783 10.779-15.624-4.185zM49.814 119.27l-8.892-2.379-2.371-8.881 6.503-6.502 8.883 2.369 2.379 8.891-6.502 6.502z"/><path fill="none" d="M45.055 101.508l-6.503 6.502 2.371 8.881 8.891 2.379 6.502-6.502-2.378-8.891z"/><path opacity=".1" fill="#fff" d="M73.621 71.901L46.764 45.042l-1.987-3.909-6.796-6.795-3.716 3.716 6.796 6.795 4.053 1.846 26.857 26.856-21.18 21.181a15.972 15.972 0 0 0-14.689 4.328c-6.256 6.26-6.256 16.396 0 22.65 6.263 6.266 16.402 6.266 22.658.008a15.97 15.97 0 0 0 4.331-14.689l15.544-15.543.275.436V66.611l-5.289 5.29zM49.814 119.27l-8.892-2.379-2.371-8.881 6.503-6.502 8.883 2.369 2.379 8.891-6.502 6.502z"/></svg>