<svg xmlns="http://www.w3.org/2000/svg" width="157.471" height="157.472" viewBox="0 0 157.471 157.472"><circle fill="#fff" cx="78.735" cy="78.735" r="78.735"/><circle fill="#4AA4FF" cx="78.602" cy="78.603" r="8.889"/><path fill="#F9493D" d="M62.006 78.602c0-9.165 7.431-16.594 16.596-16.594V41.264c-5.287 0-9.764-3.31-11.554-7.963-.593-1.542-2.032-2.573-3.606-2.07a49.332 49.332 0 0 0-7.615 3.152c-1.468.757-1.758 2.505-1.088 4.015 2.025 4.558 1.199 10.063-2.537 13.803-3.742 3.738-9.247 4.564-13.804 2.54-1.51-.671-3.257-.381-4.015 1.087a49.362 49.362 0 0 0-3.152 7.614c-.504 1.574.525 3.012 2.068 3.605 4.656 1.791 7.965 6.269 7.965 11.556s-3.309 9.766-7.965 11.557c-1.543.592-2.572 2.031-2.068 3.604a49.46 49.46 0 0 0 3.152 7.614c.758 1.469 2.505 1.757 4.015 1.086 4.557-2.024 10.062-1.198 13.804 2.54 3.736 3.739 4.563 9.245 2.537 13.802-.67 1.51-.381 3.257 1.088 4.015a49.278 49.278 0 0 0 7.615 3.153c1.574.502 3.014-.528 3.606-2.07 1.79-4.654 6.267-7.963 11.554-7.965V95.195c-9.165 0-16.596-7.429-16.596-16.593zm61.898 11.555c-4.656-1.792-7.965-6.269-7.965-11.556s3.309-9.764 7.965-11.555c1.542-.593 2.571-2.032 2.068-3.605a49.381 49.381 0 0 0-3.154-7.615c-.757-1.468-2.505-1.757-4.014-1.086-4.557 2.025-10.063 1.198-13.805-2.54-3.735-3.74-4.561-9.245-2.537-13.803.67-1.51.379-3.257-1.089-4.015a49.391 49.391 0 0 0-7.613-3.152c-1.574-.502-3.013.528-3.606 2.07-1.789 4.653-6.266 7.963-11.553 7.963v20.743c9.165 0 16.594 7.43 16.594 16.594 0 9.164-7.429 16.594-16.594 16.594v20.742c5.287.002 9.764 3.311 11.553 7.965.594 1.542 2.032 2.572 3.606 2.07a49.46 49.46 0 0 0 7.614-3.152c1.468-.758 1.758-2.506 1.088-4.016-2.023-4.557-1.198-10.063 2.537-13.802 3.742-3.738 9.248-4.564 13.805-2.54 1.509.671 3.256.383 4.014-1.085a49.452 49.452 0 0 0 3.154-7.614c.504-1.573-.526-3.012-2.068-3.605z"/><path opacity=".05" d="M123.904 90.157c-4.656-1.792-7.965-6.269-7.965-11.556s3.309-9.764 7.965-11.555c1.542-.593 2.571-2.032 2.068-3.605a49.381 49.381 0 0 0-3.154-7.615c-.757-1.468-2.505-1.757-4.014-1.086-4.557 2.025-10.063 1.198-13.805-2.54-3.735-3.74-4.561-9.245-2.537-13.803.67-1.51.379-3.257-1.089-4.015a49.391 49.391 0 0 0-7.613-3.152c-1.574-.502-3.013.528-3.606 2.07-1.789 4.653-6.266 7.963-11.553 7.963v20.743c9.165 0 16.594 7.43 16.594 16.594 0 9.164-7.429 16.594-16.594 16.594v20.742c5.287.002 9.764 3.311 11.553 7.965.594 1.542 2.032 2.572 3.606 2.07a49.46 49.46 0 0 0 7.614-3.152c1.468-.758 1.758-2.506 1.088-4.016-2.023-4.557-1.198-10.063 2.537-13.802 3.742-3.738 9.248-4.564 13.805-2.54 1.509.671 3.256.383 4.014-1.085a49.452 49.452 0 0 0 3.154-7.614c.504-1.573-.526-3.012-2.068-3.605z"/></svg>