<svg xmlns="http://www.w3.org/2000/svg" width="157.471" height="157.472" viewBox="0 0 157.471 157.472"><circle fill="#fff" cx="78.736" cy="78.736" r="78.911"/><path fill="#F9493D" d="M111.381 31.238H46.086c-3.3 0-6 2.7-6 6v69.683c0 3.301 2.7 6 6 6h65.294c3.299 0 6-2.699 6-6V37.238c.001-3.3-2.7-6-5.999-6z"/><circle fill="#fff" cx="58.635" cy="95.06" r="5.917"/><circle fill="#fff" cx="98.609" cy="95.06" r="5.916"/><path fill="#4AA4FF" d="M104.629 74.079H52.837c-3.3 0-6-2.7-6-6V43.88c0-3.3 2.7-6 6-6h51.792c3.301 0 6 2.7 6 6v24.198c0 3.3-2.699 6.001-6 6.001z"/><path fill="#FBAE17" d="M53.676 126.235h-2.485a4.354 4.354 0 0 1-4.354-4.354v-6.307H58.03v6.307a4.354 4.354 0 0 1-4.354 4.354zm52.599 0h-2.484a4.354 4.354 0 0 1-4.354-4.354v-6.307h11.191v6.307a4.352 4.352 0 0 1-4.353 4.354z"/><path d="M117.385 37.204v69.75c0 3.282-2.686 5.968-5.969 5.968H78.735V31.236h32.681c3.283 0 5.969 2.685 5.969 5.968zm-17.947 84.701a4.33 4.33 0 0 0 4.33 4.33h2.531a4.329 4.329 0 0 0 4.33-4.33v-6.33H99.438v6.33z" opacity=".05"/><path fill="none" d="M78.735 112.922V31.236"/></svg>