<svg xmlns="http://www.w3.org/2000/svg" width="157.471" height="157.472" viewBox="0 0 157.471 157.472"><circle fill="#fff" cx="78.735" cy="78.735" r="78.735"/><path fill="#F9493D" d="M106.97 123.172c-3.329-5.25-17.362-29.428-17.614-64.136h3.909v-2.617a2.945 2.945 0 0 0-2.945-2.945H67.151a2.945 2.945 0 0 0-2.945 2.945v2.617h3.909c-.253 34.708-14.285 58.886-17.614 64.136h-6.614v3.064h69.697v-3.064h-6.614z"/><path fill="#4AA4FF" d="M90.847 63.987H66.966c-.55 0-1-.45-1-1v-1.064c0-.55.45-1 1-1h23.881c.55 0 1 .45 1 1v1.064c0 .55-.451 1-1 1z"/><path fill="#FBAE17" d="M90.847 68.641H66.966c-.55 0-1-.45-1-1v-1.065c0-.55.45-1 1-1h23.881c.55 0 1 .45 1 1v1.065c0 .55-.451 1-1 1z"/><path opacity=".05" d="M113.584 123.172h-6.614c-3.329-5.25-17.362-29.428-17.614-64.136h3.909v-2.617a2.945 2.945 0 0 0-2.945-2.945H78.735v72.763h34.849v-3.065z"/><path fill="#4AA4FF" d="M90.147 35.944a4.708 4.708 0 0 0-4.709-4.708c-2.371 0-4.313 1.758-4.641 4.039a4.148 4.148 0 0 0-1.063-.153 4.17 4.17 0 0 0-4.17 4.169 4.14 4.14 0 0 0 1.102 2.804c-1.375.682-2.328 2.085-2.328 3.724a4.17 4.17 0 0 0 4.17 4.17 4.16 4.16 0 0 0 3.754-2.385 4.434 4.434 0 0 0 5.344-4.338 4.392 4.392 0 0 0-1.002-2.775c2.034-.522 3.543-2.351 3.543-4.547z"/></svg>