<svg xmlns="http://www.w3.org/2000/svg" width="157.821" height="157.821" viewBox="0 0 157.821 157.821"><circle fill="#fff" cx="78.911" cy="78.91" r="78.736"/><path fill="#FBAE17" d="M109.266 109.992c0 1.76-.857 3.184-1.92 3.184H49.901c-1.06 0-1.919-1.424-1.919-3.184 0-1.761.859-3.186 1.919-3.186h57.445c1.062.001 1.92 1.425 1.92 3.186zm15.67 1.449c0 5.112-3.193 7.758-7.133 7.758-3.939 0-7.133-1.602-7.133-6.713v-12.55c0-5.112 3.193-9.254 7.133-9.254 3.939 0 7.133 4.142 7.133 9.254v11.505zm-77.609 0c0 5.112-3.195 7.758-7.135 7.758-3.938 0-7.135-1.602-7.135-6.713v-12.55c0-5.112 3.196-9.254 7.135-9.254 3.939 0 7.135 4.142 7.135 9.254v11.505z"/><path fill="#F9493D" d="M36.354 106.007c-3.455-6.689-4.093-15.101-3.654-22.513.216-3.648 1.075-6.472 2.835-9.631 1.012-1.817 3.86-5.259 3.4-7.66-.688-3.586-11.871-1.682-9.76-7.39.874-2.361 5.937-2.807 7.886-2.081 2.757 1.028 1.478 2.73 3.044 3.975.293.233 3.807-8.195 4.094-8.812 1.664-3.57 3.75-7.863 7.043-10.229 6.54-4.699 19.273-2.557 26.825-2.558 8.214 0 21.384-1.866 28.613 2.695 3.293 2.078 5.469 6.215 7.35 9.508.537.943 5.246 9.119 4.781 9.784 1.229-1.76-.355-2.597 2.16-3.708 1.609-.711 6.391-.057 7.43 1.717 3.006 5.127-8.217 4.932-8.814 7.451-.531 2.232 3.432 6.121 4.332 8.156 1.588 3.589 2.107 7.739 2.246 11.634.199 5.646-.094 17.731-4.916 21.718-3.307 2.734-11.826 2.739-15.969 2.739H53.649c-2.956 0-5.283-.641-8.075-1.311-2.885-.691-7.62-.383-9.22-3.484-1.895-3.669 1.333 2.584 0 0z"/><ellipse fill="#FBAE17" cx="41.205" cy="91.033" rx="2.629" ry="2.391"/><ellipse fill="#FBAE17" cx="117.802" cy="91.758" rx="2.628" ry="2.39"/><path fill="#FBAE17" d="M99.379 102.107a4.73 4.73 0 0 1-4.729 4.729H66.027a4.73 4.73 0 0 1 0-9.459H94.65a4.73 4.73 0 0 1 4.729 4.73z"/><path fill="#fff" d="M119.756 70.099c-1.898-3.797-19.389 7.589-18.004 11.922.766 2.402 11.232-.082 13.145-.496 6.824-1.474 8.011-5.14 4.859-11.426z"/><path opacity=".05" d="M128.4 59.105c-1.039-1.774-5.82-2.428-7.43-1.717-2.516 1.111-.932 1.948-2.16 3.708.465-.665-4.244-8.841-4.781-9.784-1.881-3.292-4.057-7.429-7.35-9.507-7.072-4.462-19.814-2.779-28.056-2.702v74.074h28.722c.902 0 1.652-1.032 1.857-2.422.477-.016.969-.037 1.467-.063v1.796c0 5.111 3.193 6.713 7.133 6.713s7.133-2.646 7.133-7.758v-10.375c1.281-5.037 1.354-11.158 1.229-14.721-.139-3.895-.658-8.044-2.246-11.634-.9-2.035-4.863-5.924-4.332-8.156.598-2.52 11.82-2.325 8.814-7.452z"/><path fill="#fff" d="M39.08 70.253c-3.391 6.767-.691 9.671 5.855 11.001 2.263.459 11.332 2.762 12.421.205 1.487-3.492-15.62-16.497-18.276-11.206z"/><path fill="#4AA4FF" d="M111.77 59.169c-1.102-4.068-2.592-8.438-5.453-11.638-1.1-1.229-2.555-2.402-4.24-2.642-.48-.068-.998-.028-1.482-.033l-5.504-.055-32.776-.326c-4.495-.045-8.533 1.416-10.848 5.483-1.095 1.922-1.696 4.088-2.052 6.26-.034.212-.3 3.085-.506 3.071 19.044 1.301 38.23 1.53 57.287.305 1.859-.119 3.718-.247 5.574-.425z"/></svg>