<svg xmlns="http://www.w3.org/2000/svg" width="157.82" height="157.82" viewBox="0 0 157.82 157.82"><circle fill="#fff" cx="78.911" cy="78.911" r="78.911"/><path fill="#FBAE17" d="M54.765 59.294l13.263-13.263a2.006 2.006 0 0 1 2.829 0l2.313 2.313a2.006 2.006 0 0 1 0 2.829L59.907 64.437a2.005 2.005 0 0 1-2.828 0l-2.314-2.313a2.006 2.006 0 0 1 0-2.83zm-12.003-4.079l13.264-13.263a2.005 2.005 0 0 1 2.828 0l2.314 2.313c.776.778.776 2.05 0 2.828L47.904 60.358a2.006 2.006 0 0 1-2.827 0l-2.314-2.314a2.004 2.004 0 0 1-.001-2.829zm55.765 47.842l13.264-13.263a2.008 2.008 0 0 0 0-2.829l-2.314-2.314a2.009 2.009 0 0 0-2.828 0L93.385 97.914a2.006 2.006 0 0 0 0 2.829l2.313 2.313a2.005 2.005 0 0 0 2.829.001zm4.078 12.003l13.265-13.264a2.007 2.007 0 0 0 0-2.828l-2.314-2.314a2.009 2.009 0 0 0-2.828 0l-13.264 13.265a2.007 2.007 0 0 0 0 2.828l2.313 2.313a2.007 2.007 0 0 0 2.828 0z"/><path fill="#F9493D" d="M35.719 97.294l24.809 24.809c3.854 3.854 10.442 1.125 10.442-4.325v-24.81a6.117 6.117 0 0 0-6.117-6.116H40.044c-5.45 0-8.179 6.588-4.325 10.442z"/><path opacity=".05" d="M35.719 97.294l24.809 24.809c3.854 3.854 10.442 1.125 10.442-4.325v-24.81a6.117 6.117 0 0 0-6.117-6.116H40.044c-5.45 0-8.179 6.588-4.325 10.442z"/><path fill="#F9493D" d="M126.409 31.412s-13.396-.163-17.14 3.581L85.725 58.538 48.386 45.795a11.755 11.755 0 0 0-12.108 2.812l-4.867 4.868 34.063 25.314-19.328 19.327c-3.744 3.743-3.581 17.141-3.581 17.141s13.396.162 17.141-3.582l19.327-19.327 25.314 34.063 4.868-4.869a11.751 11.751 0 0 0 2.812-12.106L99.282 72.098l23.546-23.546c3.744-3.744 3.581-17.14 3.581-17.14z"/><g fill="#fff"><circle cx="59.307" cy="103.887" r="1.961"/><circle cx="66.872" cy="96.322" r="1.962"/><circle cx="74.437" cy="88.757" r="1.961"/><circle cx="82.001" cy="81.191" r="1.961"/><circle cx="89.566" cy="73.627" r="1.961"/><circle cx="97.132" cy="66.062" r="1.961"/><circle cx="117.766" cy="45.428" r="1.961"/></g><path opacity=".05" d="M52.837 114.413l7.689 7.688c3.854 3.854 10.442 1.125 10.442-4.325v-17.367l8.062-8.062 25.314 34.063 4.868-4.869a11.752 11.752 0 0 0 2.813-12.105l-.967-2.831 4.434-4.433a2.542 2.542 0 0 0 0-3.582l-1.562-1.561a2.54 2.54 0 0 0-3.582 0l-1.907 1.905-1.475-4.319 4.446-4.445a2.545 2.545 0 0 0 0-3.583l-1.563-1.562a2.544 2.544 0 0 0-3.582 0l-1.92 1.921-5.068-14.851 23.547-23.545c3.743-3.744 3.581-17.14 3.581-17.14l-83.845 83.844c.003.002 5.381.063 10.275-.841z"/></svg>