<svg xmlns="http://www.w3.org/2000/svg" width="157.821" height="157.821" viewBox="0 0 157.821 157.821"><circle fill="#fff" cx="78.911" cy="78.91" r="78.735"/><path fill-rule="evenodd" clip-rule="evenodd" fill="#F9493D" d="M124.699 55.297c-13.983-.962-28.177-23.887-28.177-23.887H61.298s-14.09 23.216-28.18 23.915v.067c0 27.457 20.502 71.017 45.793 71.017 25.29 0 45.792-43.561 45.792-71.017l-.004-.095zm-45.788 64.18c-21.4 0-38.748-37.152-38.748-60.567v-.058c11.922-.596 23.845-20.396 23.845-20.396h29.806s12.01 19.551 23.842 20.372l.003.082c-.001 23.414-17.348 60.567-38.748 60.567z"/><path fill-rule="evenodd" clip-rule="evenodd" fill="#FBAE17" d="M110.61 62.33c-9.68-.679-19.506-16.83-19.506-16.83H66.717s-9.754 16.356-19.509 16.849v.047c0 19.344 14.194 50.033 31.703 50.033 17.508 0 31.702-30.689 31.702-50.033l-.003-.066zM78.911 94.816L61.298 77.203h10.568l7.045 7.045 10.566-21.135h10.568L78.911 94.816z"/><path opacity=".05" d="M124.699 55.297c-13.982-.962-28.176-23.887-28.176-23.887H78.91v7.045h14.903s12.01 19.551 23.842 20.372l.003.082c0 23.415-17.348 60.567-38.747 60.567h-.001v6.934h.001c25.29 0 45.792-43.561 45.792-71.017l-.004-.096z"/><path opacity=".1" fill="#fff" d="M47.208 62.396l.002-.067C56.891 61.651 66.717 45.5 66.717 45.5H78.91v66.929c-17.509.001-31.702-30.689-31.702-50.033z"/></svg>