<svg xmlns="http://www.w3.org/2000/svg" width="157.821" height="157.821" viewBox="0 0 157.821 157.821"><circle fill="#fff" cx="78.911" cy="78.91" r="78.736"/><path d="M106.121 48.671a8.63 8.63 0 0 0 0-17.26c-4.764 0-8.627 3.863-8.627 8.629s3.863 8.631 8.627 8.631zm14.231 7.224l-.158-.166c-3.725-3.663-8.721-5.68-14.072-5.68-5.348 0-10.346 2.018-14.07 5.68l-.158.166c-6.168 6.824-6.162 19.057-6.158 25.178v.48a3.928 3.928 0 0 0 7.854 0v-.484c-.002-4.369.004-12.697 1.92-16.621v57.253a4.456 4.456 0 0 0 8.91 0V91.467h3.41v30.234a4.453 4.453 0 0 0 4.453 4.455 4.456 4.456 0 0 0 4.455-4.455V64.52c1.738 3.728 1.92 12.08 1.92 17.033 0 2.168 1.76 3.928 3.928 3.928s3.928-1.76 3.928-3.928c-.002-5.972-.002-18.844-6.162-25.658z" fill="#F9493D"/><g fill="#FBAE17"><circle cx="49.844" cy="40.041" r="8.63"/><path d="M66.375 79.098c0 1.199-.17 2.27-.66 2.99-.39.59-.979.939-1.88.939-.33 0-.62-.051-.88-.141-1.32-.449-1.78-1.98-1.67-3.789.6-9.71-2.29-13.161-3.88-16.891l4.88 31.1c.35 1.75-.87 3.41-2.52 3.41h-1.24v24.98c0 2.459-.771 4.459-3.03 4.459s-3.03-2-3.03-4.459l-.76-24.98h-3.73l-.76 24.98c0 2.459-.77 4.459-3.029 4.459-1.131 0-1.881-.5-2.36-1.309a3.944 3.944 0 0 1-.42-1.031c-.171-.629-.25-1.35-.25-2.119v-24.98h-1.88c-1.68 0-2.91-1.719-2.5-3.49l5.49-30.97.02-.12c-.35.68-.66 1.38-.95 2.08-2.71 6.59-2.92 13.61-2.94 14.73v.151c0 1.76-.359 3.26-1.56 3.75l-.271.09c-.219.061-.449.09-.709.09-1.99 0-2.55-1.76-2.55-3.93 0 0 1.06-16.381 6.72-23.201l.149-.17c3.41-3.66 6.94-5.68 9.671-5.68 4.909 0 7.31 2.02 10.729 5.68l.149.17c5.651 6.811 5.651 17.231 5.651 23.202z"/></g><g fill="#4AA4FF"><circle cx="76.049" cy="84.78" r="4.437"/><path d="M87.369 81.836a2.02 2.02 0 0 0-2.02 2.018c0 2.67-.188 4.689-2.604 6.344-1.717 1.014-4.153 1.596-6.697 1.596s-4.981-.582-6.698-1.596c-2.607-1.783-2.604-3.803-2.603-6.139v-.205a2.019 2.019 0 0 0-4.038 0l-.001.201c-.003 2.6-.007 6.525 4.426 9.52l.092.059c.997.598 2.137 1.074 3.364 1.436v29.053a2.29 2.29 0 1 0 4.581 0v-13.564h1.752v13.564a2.29 2.29 0 1 0 4.581 0V95.068c1.229-.359 2.367-.838 3.365-1.436l.092-.059c4.426-2.99 4.426-7.203 4.426-9.721a2.016 2.016 0 0 0-2.018-2.016z"/></g><path opacity=".1" fill="#fff" d="M41.215 40.04a8.63 8.63 0 0 1 8.629-8.629v17.26a8.633 8.633 0 0 1-8.629-8.631zm8.631 10.007v46.67h-1.871l-.76 24.98c0 2.459-.77 4.459-3.029 4.459-1.131 0-1.881-.5-2.36-1.309-.181-.301-.31-.65-.42-1.031-.171-.629-.25-1.35-.25-2.119v-24.98h-1.23c-1.649 0-2.88-1.66-2.52-3.41l4.88-31.1-.02.05c-.281.65-.601 1.29-.931 1.96-1.56 3.13-3.399 6.86-2.94 14.73l.011.151c.11 1.77-.33 3.26-1.57 3.75l-.271.09c-.219.061-.449.09-.709.09-1.99 0-2.55-1.76-2.55-3.93 0 0 1.06-16.381 6.72-23.201l.149-.17c3.41-3.66 6.941-5.68 9.671-5.68z"/><path opacity=".05" d="M80.486 84.779a4.437 4.437 0 0 0-4.437-4.436v8.873a4.437 4.437 0 0 0 4.437-4.437zm6.883-2.943a2.02 2.02 0 0 0-2.02 2.018c0 2.67-.188 4.689-2.604 6.344-1.715 1.014-4.153 1.596-6.697 1.596v18.764h.876v13.564a2.29 2.29 0 1 0 4.581 0V95.068c1.229-.359 2.367-.838 3.365-1.436l.092-.059c4.426-2.99 4.426-7.203 4.426-9.721a2.018 2.018 0 0 0-2.019-2.016zm27.383-41.796a8.63 8.63 0 0 0-8.629-8.629v17.26a8.632 8.632 0 0 0 8.629-8.631zm5.602 15.855l-.16-.166c-3.725-3.663-8.721-5.68-14.07-5.68v41.417h1.705v30.236a4.453 4.453 0 0 0 4.453 4.455 4.456 4.456 0 0 0 4.455-4.455V64.52c1.738 3.728 1.92 12.08 1.92 17.033 0 2.168 1.76 3.928 3.928 3.928s3.928-1.76 3.928-3.928c-.001-5.972-.001-18.844-6.159-25.658z"/></svg>