<svg xmlns="http://www.w3.org/2000/svg" width="157.821" height="157.821" viewBox="0 0 157.821 157.821"><circle fill="#fff" cx="78.911" cy="78.911" r="78.911"/><circle fill="#FBAE17" cx="78.911" cy="78.911" r="47.5"/><path opacity=".1" fill="#fff" d="M78.912 31.408v95c-26.23 0-47.5-21.26-47.5-47.5 0-26.229 21.27-47.5 47.5-47.5z"/><path fill="#fff" d="M78.91 38.233c-22.465 0-40.677 18.212-40.677 40.678 0 22.465 18.212 40.677 40.677 40.677 22.466 0 40.678-18.212 40.678-40.677 0-22.466-18.212-40.678-40.678-40.678zm0 77.65c-20.419 0-36.972-16.554-36.972-36.972 0-20.419 16.553-36.973 36.972-36.973 20.42 0 36.973 16.553 36.973 36.973 0 20.418-16.553 36.972-36.973 36.972zm14.552-30.855H73.005c-.402.43-.745.869-1.03 1.317-1.781 2.776-.861 6.926 1.582 8.981 2.688 2.263 6.815 2.398 10.092 1.694 1.703-.366 3.379-1.042 4.922-1.836.766-.394 2.453-1.862 3.289-1.69 1.93.398 1.239 4.417.338 5.548-3.62 4.542-13.867 4.155-18.594 2.474-6.629-2.357-10.709-9.602-8.316-16.488h-.925c-1.594 0-1.458-4.305 0-4.305h3.663c2.022-1.974 4.602-3.321 7.15-4.481.806-.378 1.612-.757 2.418-1.14H64.362c-1.598 0-1.462-4.337 0-4.337h19.849c.189-.238.367-.486.535-.748 4.594-7.189-4.938-10.732-10.37-9.197-1.322.374-4.871 3.091-6.138 2.757-1.789-.472-1.054-4.417-.194-5.496 2.906-3.65 11.528-3.29 15.403-2.065 6.36 2.01 9.745 8.291 7.986 14.749h2.028c1.593 0 1.47 4.337 0 4.337H89.05l-.462.5c-1.999 2.042-4.556 3.416-7.115 4.626l-1.138.495h13.127c1.587.001 1.471 4.305 0 4.305z"/></svg>