<svg xmlns="http://www.w3.org/2000/svg" width="157.821" height="157.821" viewBox="0 0 157.821 157.821"><circle fill="#fff" cx="78.911" cy="78.91" r="78.736"/><path stroke="#4AA4FF" stroke-width="4" stroke-linecap="round" stroke-miterlimit="10" d="M58.546 115.5c0 5.529 4.48 10.01 10.01 10.011 5.528 0 10.01-4.481 10.01-10.01V56.445" fill="none"/><path fill="#FFD26F" d="M80.588 32.708a2.198 2.198 0 0 0-4.393 0v3.076a2.197 2.197 0 0 0 4.393 0v-3.076z"/><path fill="#F9493D" d="M122.121 60.456c-6.787-17.459-23.715-24.975-43.555-25.021l-.187-.002c-19.759 0-36.656 7.308-43.573 24.595-3.354 8.382-1.777 13.845.968 12.529a12.314 12.314 0 0 1 5.329-1.206c2.237 0 4.332.595 6.14 1.635 3.077 1.77 5.284 4.473 6.229 4.473.947 0 3.154-2.703 6.23-4.473a12.275 12.275 0 0 1 6.141-1.635c2.236 0 4.332.595 6.139 1.635 3.076 1.77 5.283 4.473 6.23 4.473a.91.91 0 0 0 .354-.096c1.083-.484 3.133-2.799 5.877-4.377 1.807-1.04 3.902-1.635 6.139-1.635s4.332.595 6.139 1.635c3.078 1.77 5.285 4.473 6.23 4.473.947 0 3.154-2.703 6.23-4.473a12.272 12.272 0 0 1 6.141-1.635c2.012 0 3.908.483 5.586 1.337 2.852 1.453 4.485-3.817 1.213-12.232z"/><path opacity=".05" d="M122.121 60.456c-6.555-16.863-22.572-24.448-41.533-24.989v-2.759a2.191 2.191 0 0 0-2.022-2.179v91.595c1.262-1.9 2-4.176 2-6.622v-39.65c1.049-.892 2.352-1.989 3.877-2.867 1.807-1.04 3.902-1.635 6.139-1.635s4.332.595 6.139 1.635c3.078 1.77 5.285 4.473 6.23 4.473.947 0 3.154-2.703 6.23-4.473a12.272 12.272 0 0 1 6.141-1.635c2.012 0 3.908.483 5.586 1.337 2.852 1.454 4.485-3.816 1.213-12.231z"/></svg>