<svg xmlns="http://www.w3.org/2000/svg" width="157.471" height="157.472" viewBox="0 0 157.471 157.472"><circle fill="#fff" cx="78.735" cy="78.735" r="78.735"/><path fill="#FBAE17" d="M93.887 93.886l-2.162 2.172-2.539 2.539-22.5 22.5c-6.852 6.852-17.955 6.852-24.806 0l-5.505-5.505c-6.852-6.852-6.852-17.954 0-24.806l22.5-22.501 2.539-2.539 2.172-2.161 30.301 30.301z"/><path fill="#F9493D" d="M121.098 66.685L93.887 93.886l-30.301-30.3 27.202-27.212c6.85-6.851 17.953-6.851 24.805 0l5.506 5.506c6.85 6.85 6.85 17.954-.001 24.805z"/><path fill="#4AA4FF" d="M58.873 68.285l2.539-2.539 30.311 30.311-2.539 2.539z"/><path opacity=".05" d="M39.126 118.344l2.753 2.753c6.851 6.852 17.954 6.852 24.806 0l22.5-22.5 2.539-2.539 2.162-2.172 27.211-27.201c6.852-6.851 6.852-17.955 0-24.805l-2.754-2.753-79.217 79.217z"/></svg>