<svg xmlns="http://www.w3.org/2000/svg" width="157.821" height="157.821" viewBox="0 0 157.821 157.821"><circle fill="#fff" cx="78.911" cy="78.911" r="78.911"/><path fill="#FBAE17" d="M107.855 54.923c-1.373-2.025-3.247-4.288-5.578-6.017-2.54-1.878-5.112-4.107-5.112-6.116 0-2.004-1.282-3.629-2.861-3.629-.315 0-.618.106-.901.294l-.033-.126-27.8 1.215c-.5-.86-1.149-1.384-1.861-1.384-1.58 0-2.862 1.625-2.862 3.629 0 2.009-2.578 4.238-5.111 6.116-2.337 1.729-4.206 3.992-5.584 6.017-1.775 2.611-2.803 7.562-2.808 10.721l-.179 48.727c-.005 3.165 2.358 6.723 5.351 7.729a82.938 82.938 0 0 0 52.782 0c2.997-1.007 5.36-4.564 5.36-7.729V65.626c-.001-3.16-1.021-8.092-2.803-10.703z"/><path fill="#4AA4FF" d="M102.198 36.958a5.54 5.54 0 0 1-5.543 5.543H61.163a5.545 5.545 0 1 1 0-11.09h35.493a5.545 5.545 0 0 1 5.542 5.547z"/><path fill="#EBEBED" d="M47.165 76.884h63.483v23.569H47.165z"/><path fill="#F9493D" d="M83.548 85.763h-1.73v-1.736a2.288 2.288 0 0 0-2.287-2.287h-1.243a2.288 2.288 0 0 0-2.287 2.287v1.736h-1.736a2.288 2.288 0 0 0-2.287 2.287v1.243a2.286 2.286 0 0 0 2.287 2.286H76v1.731a2.288 2.288 0 0 0 2.287 2.292h1.243a2.288 2.288 0 0 0 2.287-2.292v-1.731h1.73a2.288 2.288 0 0 0 2.293-2.286V88.05a2.288 2.288 0 0 0-2.292-2.287z"/><path opacity=".05" d="M107.855 54.923c-1.373-2.025-3.247-4.288-5.578-6.017-2.54-1.878-5.112-4.107-5.112-6.116l-.024-.313a5.544 5.544 0 0 0-.485-11.066H78.911v95a82.94 82.94 0 0 0 26.386-4.311c2.997-1.007 5.36-4.564 5.36-7.729V65.627c0-3.161-1.02-8.093-2.802-10.704z"/></svg>