<svg xmlns="http://www.w3.org/2000/svg" width="157.471" height="157.472" viewBox="0 0 157.471 157.472"><circle fill="#fff" cx="78.736" cy="78.735" r="78.735"/><path fill="#F9493D" d="M37.323 76.334l7.365 2.18 7.184-2.417 6.687 1.556 7.817-8.201 7.517 6.95 7.34-5.028 7.35 7.792 6.227-3.468 8.055-1.007 6.523 1.98 7.98-7.792 6.783 8.473c5.137-11.822.502-25.821-11.023-32.138-12.211-6.694-27.523-2.212-34.218 9.998l-.172.342-.181-.342c-6.684-12.21-22.007-16.692-34.221-9.998-11.75 6.442-16.33 20.874-10.698 32.839l3.685-1.719zm79.681-1.508l-6.516 6.36-7.973-2.421-6.439.806-8.268 4.605-7.139-7.568-7.15 4.898-6.967-6.442-6.677 7.004-7.806-1.817-7.305 2.459-7.123-2.11-1.935.902c6.249 8.242 24.383 21.283 36.829 29.721a558.293 558.293 0 0 0 6.201 4.141c1.802-1.188 3.9-2.59 6.203-4.154 12.643-8.566 31.143-21.869 37.107-30.084l-5.042-6.3z"/><path opacity=".05" d="M88.582 79.166l6.227-3.468 8.055-1.007 6.523 1.98 7.98-7.792 6.783 8.473c5.137-11.822.502-25.821-11.023-32.138-12.211-6.694-27.523-2.212-34.218 9.998l-.172.342-.002-.004v17.534l2.498-1.71 7.349 7.792zm-9.845 36.197c1.802-1.188 3.9-2.59 6.203-4.154 12.643-8.566 31.143-21.869 37.107-30.084l-5.043-6.299-6.516 6.36-7.973-2.421-6.439.806-8.268 4.605-7.139-7.568-1.935 1.326v37.428l.003.001z"/></svg>