<svg xmlns="http://www.w3.org/2000/svg" width="157.821" height="157.821" viewBox="0 0 157.821 157.821"><circle fill="#fff" cx="78.911" cy="78.91" r="78.736"/><path fill="#EBEBED" d="M115.277 52.741v70.701a2.96 2.96 0 0 1-2.969 2.969H45.511a2.967 2.967 0 0 1-2.969-2.969V34.378a2.977 2.977 0 0 1 2.969-2.968h48.434l21.332 21.331z"/><path fill="#F9493D" d="M99.795 94.391a6.652 6.652 0 0 1 6.643 6.645 6.651 6.651 0 0 1-6.643 6.643 6.652 6.652 0 0 1-6.645-6.643 6.652 6.652 0 0 1 6.645-6.645m0-1.485a8.128 8.128 0 1 0-.001 16.257 8.128 8.128 0 0 0 .001-16.257z"/><circle fill="#F9493D" cx="99.795" cy="101.033" r="4.217"/><path fill="#4AA4FF" d="M95.92 71.057H61.903c-.55 0-1-.449-1-1v-7.89c0-.55.45-1 1-1H95.92c.551 0 1 .45 1 1v7.89c0 .551-.449 1-1 1zm11.002 10.828H53.739c-.55 0-1-.449-1-1V79.61c0-.551.45-1 1-1h53.183c.549 0 1 .45 1 1v1.275c0 .551-.451 1-1 1zm0 5.937H53.739c-.55 0-1-.449-1-1v-1.275c0-.551.45-1 1-1h53.183c.549 0 1 .449 1 1v1.275c0 .551-.451 1-1 1z"/><path fill="#FBAE17" d="M115.277 113.125v10.316a2.96 2.96 0 0 1-2.969 2.969H45.511a2.967 2.967 0 0 1-2.969-2.969v-10.316h72.735z"/><path fill="#fff" d="M46.998 34.385h47.819l18.979 18.977-20.464-20.461H45.513c-.819 0-1.484.666-1.484 1.484v89.062c0 .818.665 1.484 1.484 1.484V35.87c0-.819.665-1.485 1.485-1.485zm65.313 89.062H45.513a1.485 1.485 0 0 1-1.484-1.484v1.484c0 .818.665 1.484 1.484 1.484h66.797c.818 0 1.484-.666 1.484-1.484v-1.484a1.485 1.485 0 0 1-1.483 1.484z"/><path opacity=".05" d="M115.279 52.748L93.947 31.417h-1.484v18.362a4.457 4.457 0 0 0 4.453 4.453h18.363v-1.484z"/><path fill="#BEC0C2" d="M93.947 49.779a2.968 2.968 0 0 0 2.969 2.969h18.363L93.947 31.417v18.362z"/><path fill="#EBEBED" d="M93.947 49.779a2.968 2.968 0 0 0 2.969 2.969h18.363L93.947 31.417v18.362z"/><linearGradient id="a" gradientUnits="userSpaceOnUse" x1="94.212" y1="47.492" x2="107.128" y2="41.469"><stop offset="0" stop-color="#FAFCFE"/><stop offset="1" stop-color="#F7F9FB"/></linearGradient><path fill="url(#a)" d="M96.916 51.263c-.82 0-1.484-.666-1.484-1.484V35l16.264 16.264h-14.78z"/><path fill="#fff" d="M111.695 51.263L95.432 35v1.484l14.779 14.779z"/></svg>