<svg xmlns="http://www.w3.org/2000/svg" width="157.821" height="157.821" viewBox="0 0 157.821 157.821"><path fill="#fff" d="M157.633 77.421c.825 44.666-35.552 81.041-80.219 80.212C35.318 156.851.969 122.499.189 80.403-.638 35.732 35.743-.643 80.412.188c42.096.785 76.443 35.137 77.221 77.233z"/><path d="M37.074 47.652h84.512v65.128H37.074zm0 48.846h84.512M37.074 80.216h84.512M37.074 63.935h84.512m-10.565-16.283v65.128m-10.563-65.128v65.128M89.895 47.652v65.128M79.33 47.652v65.128M68.765 47.652v65.128M58.203 47.652v65.128M47.638 47.652v65.128" stroke="#EBEBED" stroke-miterlimit="10" fill="none"/><path fill="#FBAE17" d="M41.254 41.214l-4.91-4.924-4.924 4.924h3.788v80.317h2.272V41.214z"/><path stroke="#F9493D" stroke-width="3" stroke-miterlimit="10" fill="none" d="M121.586 66.022l-7.755 2.625-15.75 19-14-8.125-14.625 24.25-14-7.274-19.119 17.041"/><path stroke="#4AA4FF" stroke-width="3" stroke-miterlimit="10" fill="none" d="M36.337 113.539l18.369-6.892 14.625 1.975 11.25-6.725 9.314 5.625 13.604-55.919 18.087 28.613"/><path fill="#FBAE17" d="M123.986 118.456l4.925-4.909-4.925-4.925v3.789H28.911v2.271h95.075z"/></svg>